<?xml version="1.0" encoding="UTF-8" standalone="no"?>
<!DOCTYPE svg PUBLIC "-//W3C//DTD SVG 1.1//EN"
 "http://www.w3.org/Graphics/SVG/1.1/DTD/svg11.dtd">
<!-- Generated by graphviz version 2.36.0 (20140111.2315)
 -->
<!-- Title: /home/travis/build/AliceO2Group/AliceO2/Detectors/MUON/MCH/PreClustering/src/DumpDigits.cxx Pages: 1 -->
<!--zoomable 410 -->
<svg id="main" version="1.1" xmlns="http://www.w3.org/2000/svg" xmlns:xlink="http://www.w3.org/1999/xlink" xml:space="preserve" onload="init(evt)">
<style type="text/css"><![CDATA[
.edge:hover path { stroke: red; }
.edge:hover polygon { stroke: red; fill: red; }
]]></style>
<script type="text/javascript"><![CDATA[
var edges = document.getElementsByTagName('g');
if (edges && edges.length) {
  for (var i=0;i<edges.length;i++) {
    if (edges[i].id.substr(0,4)=='edge') {
      edges[i].setAttribute('class','edge');
    }
  }
}
]]></script>
        <defs>
                <circle id="rim" cx="0" cy="0" r="7"/>
                <circle id="rim2" cx="0" cy="0" r="3.5"/>
                <g id="zoomPlus">
                        <use xlink:href="#rim" fill="#404040">
                                <set attributeName="fill" to="#808080" begin="zoomplus.mouseover" end="zoomplus.mouseout"/>
                        </use>
                        <path d="M-4,0h8M0,-4v8" fill="none" stroke="white" stroke-width="1.5" pointer-events="none"/>
                </g>
                <g id="zoomMin">
                        <use xlink:href="#rim" fill="#404040">
                                <set attributeName="fill" to="#808080" begin="zoomminus.mouseover" end="zoomminus.mouseout"/>
                        </use>
                        <path d="M-4,0h8" fill="none" stroke="white" stroke-width="1.5" pointer-events="none"/>
                </g>
                <g id="dirArrow">
                        <path fill="none" stroke="white" stroke-width="1.5" d="M0,-3.0v7 M-2.5,-0.5L0,-3.0L2.5,-0.5"/>
                </g>
               <g id="resetDef">
                       <use xlink:href="#rim2" fill="#404040">
                               <set attributeName="fill" to="#808080" begin="reset.mouseover" end="reset.mouseout"/>
                       </use>
               </g>
        </defs>

<script type="text/javascript">
var viewWidth = 1593;
var viewHeight = 410;
var sectionId = 'dynsection-0';
</script>
<script xlink:href="../../svgpan.js"/>
<svg id="graph" class="graph">
<g id="viewport">
<title>/home/travis/build/AliceO2Group/AliceO2/Detectors/MUON/MCH/PreClustering/src/DumpDigits.cxx</title>
<!-- Node1 -->
<g id="node1" class="node"><title>Node1</title>
<polygon fill="#bfbfbf" stroke="black" points="1221.5,-349 1221.5,-401 1406.5,-401 1406.5,-349 1221.5,-349"/>
<text text-anchor="start" x="1229.5" y="-389" font-family="Helvetica,sans-Serif" font-size="10.00">/home/travis/build</text>
<text text-anchor="start" x="1229.5" y="-378" font-family="Helvetica,sans-Serif" font-size="10.00">/AliceO2Group/AliceO2</text>
<text text-anchor="start" x="1229.5" y="-367" font-family="Helvetica,sans-Serif" font-size="10.00">/Detectors/MUON/MCH/PreClustering</text>
<text text-anchor="middle" x="1314" y="-356" font-family="Helvetica,sans-Serif" font-size="10.00">/src/DumpDigits.cxx</text>
</g>
<!-- Node2 -->
<g id="node2" class="node"><title>Node2</title>
<g id="a_node2"><a xlink:href="../../dc/d54/DumpDigits_8h.html" target="_top" xlink:title="DumpDigits.h">
<polygon fill="none" stroke="black" points="989.5,-292.5 989.5,-311.5 1066.5,-311.5 1066.5,-292.5 989.5,-292.5"/>
<text text-anchor="middle" x="1028" y="-299.5" font-family="Helvetica,sans-Serif" font-size="10.00">DumpDigits.h</text>
</a>
</g>
</g>
<!-- Node1&#45;&gt;Node2 -->
<g id="edge1" class="edge"><title>Node1&#45;&gt;Node2</title>
<path fill="none" stroke="midnightblue" d="M1221.14,-350.948C1171.18,-338.544 1111.86,-323.819 1072.27,-313.99"/>
<polygon fill="midnightblue" stroke="midnightblue" points="1072.95,-310.552 1062.4,-311.54 1071.26,-317.346 1072.95,-310.552"/>
</g>
<!-- Node5 -->
<g id="node5" class="node"><title>Node5</title>
<g id="a_node5"><a xlink:href="../../d6/d34/AliHLTDataTypes_8h.html" target="_top" xlink:title="Data type declaration for the HLT module. ">
<polygon fill="none" stroke="black" points="1201.5,-124.5 1201.5,-143.5 1304.5,-143.5 1304.5,-124.5 1201.5,-124.5"/>
<text text-anchor="middle" x="1253" y="-131.5" font-family="Helvetica,sans-Serif" font-size="10.00">AliHLTDataTypes.h</text>
</a>
</g>
</g>
<!-- Node1&#45;&gt;Node5 -->
<g id="edge42" class="edge"><title>Node1&#45;&gt;Node5</title>
<path fill="none" stroke="midnightblue" d="M1307.59,-348.875C1295.29,-300.687 1268.64,-196.289 1257.77,-153.68"/>
<polygon fill="midnightblue" stroke="midnightblue" points="1261.12,-152.646 1255.25,-143.822 1254.33,-154.377 1261.12,-152.646"/>
</g>
<!-- Node7 -->
<g id="node7" class="node"><title>Node7</title>
<polygon fill="none" stroke="#bfbfbf" points="0,-6.5 0,-25.5 44,-25.5 44,-6.5 0,-6.5"/>
<text text-anchor="middle" x="22" y="-13.5" font-family="Helvetica,sans-Serif" font-size="10.00">vector</text>
</g>
<!-- Node1&#45;&gt;Node7 -->
<g id="edge37" class="edge"><title>Node1&#45;&gt;Node7</title>
<path fill="none" stroke="midnightblue" d="M1221.41,-374.225C933.321,-373.712 72,-362.521 72,-247 72,-247 72,-247 72,-133 72,-95.1981 49.3307,-55.7104 34.5203,-33.946"/>
<polygon fill="midnightblue" stroke="midnightblue" points="37.3689,-31.9122 28.7432,-25.7601 31.6497,-35.9485 37.3689,-31.9122"/>
</g>
<!-- Node8 -->
<g id="node8" class="node"><title>Node8</title>
<polygon fill="none" stroke="#bfbfbf" points="1294,-68.5 1294,-87.5 1340,-87.5 1340,-68.5 1294,-68.5"/>
<text text-anchor="middle" x="1317" y="-75.5" font-family="Helvetica,sans-Serif" font-size="10.00">cstdint</text>
</g>
<!-- Node1&#45;&gt;Node8 -->
<g id="edge36" class="edge"><title>Node1&#45;&gt;Node8</title>
<path fill="none" stroke="midnightblue" d="M1320.01,-348.865C1325.58,-323.362 1333,-282.67 1333,-247 1333,-247 1333,-247 1333,-189 1333,-156.626 1326.13,-119.445 1321.39,-97.6593"/>
<polygon fill="midnightblue" stroke="midnightblue" points="1324.78,-96.7588 1319.16,-87.7771 1317.95,-98.3028 1324.78,-96.7588"/>
</g>
<!-- Node30 -->
<g id="node30" class="node"><title>Node30</title>
<polygon fill="none" stroke="#bfbfbf" points="1499,-292.5 1499,-311.5 1585,-311.5 1585,-292.5 1499,-292.5"/>
<text text-anchor="middle" x="1542" y="-299.5" font-family="Helvetica,sans-Serif" font-size="10.00">FairMQLogger.h</text>
</g>
<!-- Node1&#45;&gt;Node30 -->
<g id="edge38" class="edge"><title>Node1&#45;&gt;Node30</title>
<path fill="none" stroke="midnightblue" d="M1394.38,-348.968C1432.05,-337.239 1475.09,-323.835 1504.94,-314.54"/>
<polygon fill="midnightblue" stroke="midnightblue" points="1506.02,-317.869 1514.53,-311.554 1503.94,-311.186 1506.02,-317.869"/>
</g>
<!-- Node31 -->
<g id="node31" class="node"><title>Node31</title>
<g id="a_node31"><a xlink:href="../../db/df0/DigitBlock_8h.html" target="_top" xlink:title="MCHBase/DigitBlock.h">
<polygon fill="none" stroke="black" points="1361.5,-292.5 1361.5,-311.5 1480.5,-311.5 1480.5,-292.5 1361.5,-292.5"/>
<text text-anchor="middle" x="1421" y="-299.5" font-family="Helvetica,sans-Serif" font-size="10.00">MCHBase/DigitBlock.h</text>
</a>
</g>
</g>
<!-- Node1&#45;&gt;Node31 -->
<g id="edge39" class="edge"><title>Node1&#45;&gt;Node31</title>
<path fill="none" stroke="midnightblue" d="M1351.72,-348.968C1367.66,-338.393 1385.65,-326.457 1399.3,-317.398"/>
<polygon fill="midnightblue" stroke="midnightblue" points="1401.58,-320.084 1407.98,-311.639 1397.71,-314.252 1401.58,-320.084"/>
</g>
<!-- Node3 -->
<g id="node3" class="node"><title>Node3</title>
<polygon fill="none" stroke="#bfbfbf" points="836,-236.5 836,-255.5 924,-255.5 924,-236.5 836,-236.5"/>
<text text-anchor="middle" x="880" y="-243.5" font-family="Helvetica,sans-Serif" font-size="10.00">FairMQDevice.h</text>
</g>
<!-- Node2&#45;&gt;Node3 -->
<g id="edge2" class="edge"><title>Node2&#45;&gt;Node3</title>
<path fill="none" stroke="midnightblue" d="M1004.55,-292.444C979.867,-283.438 940.815,-269.189 913.023,-259.049"/>
<polygon fill="midnightblue" stroke="midnightblue" points="913.935,-255.656 903.341,-255.516 911.536,-262.232 913.935,-255.656"/>
</g>
<!-- Node4 -->
<g id="node4" class="node"><title>Node4</title>
<g id="a_node4"><a xlink:href="../../d2/dda/MessageFormat_8h.html" target="_top" xlink:title="aliceHLTwrapper/MessageFormat.h">
<polygon fill="none" stroke="black" points="942,-236.5 942,-255.5 1114,-255.5 1114,-236.5 942,-236.5"/>
<text text-anchor="middle" x="1028" y="-243.5" font-family="Helvetica,sans-Serif" font-size="10.00">aliceHLTwrapper/MessageFormat.h</text>
</a>
</g>
</g>
<!-- Node2&#45;&gt;Node4 -->
<g id="edge3" class="edge"><title>Node2&#45;&gt;Node4</title>
<path fill="none" stroke="midnightblue" d="M1028,-292.083C1028,-285.006 1028,-274.861 1028,-265.986"/>
<polygon fill="midnightblue" stroke="midnightblue" points="1031.5,-265.751 1028,-255.751 1024.5,-265.751 1031.5,-265.751"/>
</g>
<!-- Node4&#45;&gt;Node5 -->
<g id="edge4" class="edge"><title>Node4&#45;&gt;Node5</title>
<path fill="none" stroke="midnightblue" d="M1108.84,-236.466C1159.54,-229.482 1218.66,-217.81 1237,-200 1249.24,-188.117 1252.7,-168.495 1253.43,-153.914"/>
<polygon fill="midnightblue" stroke="midnightblue" points="1256.93,-153.582 1253.54,-143.544 1249.93,-153.505 1256.93,-153.582"/>
</g>
<!-- Node6 -->
<g id="node6" class="node"><title>Node6</title>
<g id="a_node6"><a xlink:href="../../d2/de6/HOMERFactory_8h.html" target="_top" xlink:title="HOMERFactory.h">
<polygon fill="none" stroke="black" points="1133.5,-180.5 1133.5,-199.5 1228.5,-199.5 1228.5,-180.5 1133.5,-180.5"/>
<text text-anchor="middle" x="1181" y="-187.5" font-family="Helvetica,sans-Serif" font-size="10.00">HOMERFactory.h</text>
</a>
</g>
</g>
<!-- Node4&#45;&gt;Node6 -->
<g id="edge5" class="edge"><title>Node4&#45;&gt;Node6</title>
<path fill="none" stroke="midnightblue" d="M1052.24,-236.444C1077.87,-227.399 1118.49,-213.064 1147.24,-202.916"/>
<polygon fill="midnightblue" stroke="midnightblue" points="1148.61,-206.145 1156.87,-199.516 1146.28,-199.544 1148.61,-206.145"/>
</g>
<!-- Node4&#45;&gt;Node7 -->
<g id="edge7" class="edge"><title>Node4&#45;&gt;Node7</title>
<path fill="none" stroke="midnightblue" d="M982.937,-236.469C936.893,-227.667 863.361,-213.375 800,-200 467.045,-129.715 374.271,-144.18 53,-32 51.0949,-31.3348 49.1534,-30.5843 47.218,-29.7825"/>
<polygon fill="midnightblue" stroke="midnightblue" points="48.3439,-26.4499 37.7913,-25.5041 45.4509,-32.8241 48.3439,-26.4499"/>
</g>
<!-- Node4&#45;&gt;Node8 -->
<g id="edge8" class="edge"><title>Node4&#45;&gt;Node8</title>
<path fill="none" stroke="midnightblue" d="M1020.79,-236.207C1010.82,-222.91 995.385,-197.396 1008,-180 1072.5,-91.0603 1217.58,-78.9811 1283.39,-78.2986"/>
<polygon fill="midnightblue" stroke="midnightblue" points="1283.63,-81.7983 1293.62,-78.2793 1283.61,-74.7983 1283.63,-81.7983"/>
</g>
<!-- Node9 -->
<g id="node9" class="node"><title>Node9</title>
<polygon fill="none" stroke="#bfbfbf" points="1017,-180.5 1017,-199.5 1115,-199.5 1115,-180.5 1017,-180.5"/>
<text text-anchor="middle" x="1066" y="-187.5" font-family="Helvetica,sans-Serif" font-size="10.00">boost/signals2.hpp</text>
</g>
<!-- Node4&#45;&gt;Node9 -->
<g id="edge9" class="edge"><title>Node4&#45;&gt;Node9</title>
<path fill="none" stroke="midnightblue" d="M1034.27,-236.083C1039.64,-228.455 1047.52,-217.264 1054.08,-207.941"/>
<polygon fill="midnightblue" stroke="midnightblue" points="1056.95,-209.943 1059.84,-199.751 1051.22,-205.915 1056.95,-209.943"/>
</g>
<!-- Node10 -->
<g id="node10" class="node"><title>Node10</title>
<g id="a_node10"><a xlink:href="../../dc/dcd/DataHeader_8h.html" target="_top" xlink:title="Headers/DataHeader.h">
<polygon fill="none" stroke="black" points="738.5,-124.5 738.5,-143.5 855.5,-143.5 855.5,-124.5 738.5,-124.5"/>
<text text-anchor="middle" x="797" y="-131.5" font-family="Helvetica,sans-Serif" font-size="10.00">Headers/DataHeader.h</text>
</a>
</g>
</g>
<!-- Node4&#45;&gt;Node10 -->
<g id="edge10" class="edge"><title>Node4&#45;&gt;Node10</title>
<path fill="none" stroke="midnightblue" d="M948.653,-236.483C897.194,-229.417 836.271,-217.639 817,-200 804.091,-188.184 799.426,-168.262 797.786,-153.58"/>
<polygon fill="midnightblue" stroke="midnightblue" points="801.275,-153.305 797.035,-143.596 794.295,-153.831 801.275,-153.305"/>
</g>
<!-- Node27 -->
<g id="node27" class="node"><title>Node27</title>
<g id="a_node27"><a xlink:href="../../d2/d09/HeartbeatFrame_8h.html" target="_top" xlink:title="Headers/HeartbeatFrame.h">
<polygon fill="none" stroke="black" points="825.5,-180.5 825.5,-199.5 960.5,-199.5 960.5,-180.5 825.5,-180.5"/>
<text text-anchor="middle" x="893" y="-187.5" font-family="Helvetica,sans-Serif" font-size="10.00">Headers/HeartbeatFrame.h</text>
</a>
</g>
</g>
<!-- Node4&#45;&gt;Node27 -->
<g id="edge31" class="edge"><title>Node4&#45;&gt;Node27</title>
<path fill="none" stroke="midnightblue" d="M1006.61,-236.444C984.293,-227.517 949.097,-213.439 923.792,-203.317"/>
<polygon fill="midnightblue" stroke="midnightblue" points="924.876,-199.981 914.291,-199.516 922.276,-206.48 924.876,-199.981"/>
</g>
<!-- Node6&#45;&gt;Node5 -->
<g id="edge6" class="edge"><title>Node6&#45;&gt;Node5</title>
<path fill="none" stroke="midnightblue" d="M1192.57,-180.324C1203.42,-172.185 1219.88,-159.839 1232.88,-150.087"/>
<polygon fill="midnightblue" stroke="midnightblue" points="1235.32,-152.634 1241.22,-143.834 1231.12,-147.034 1235.32,-152.634"/>
</g>
<!-- Node10&#45;&gt;Node8 -->
<g id="edge11" class="edge"><title>Node10&#45;&gt;Node8</title>
<path fill="none" stroke="midnightblue" d="M855.59,-125.121C858.772,-124.732 861.924,-124.356 865,-124 1026.49,-105.332 1067.25,-104.27 1229,-88 1247.05,-86.1844 1267.18,-84.1281 1283.63,-82.4398"/>
<polygon fill="midnightblue" stroke="midnightblue" points="1284.25,-85.8939 1293.84,-81.3897 1283.54,-78.9306 1284.25,-85.8939"/>
</g>
<!-- Node11 -->
<g id="node11" class="node"><title>Node11</title>
<polygon fill="none" stroke="#bfbfbf" points="737,-68.5 737,-87.5 789,-87.5 789,-68.5 737,-68.5"/>
<text text-anchor="middle" x="763" y="-75.5" font-family="Helvetica,sans-Serif" font-size="10.00">memory</text>
</g>
<!-- Node10&#45;&gt;Node11 -->
<g id="edge12" class="edge"><title>Node10&#45;&gt;Node11</title>
<path fill="none" stroke="midnightblue" d="M791.386,-124.083C786.633,-116.534 779.682,-105.495 773.848,-96.2298"/>
<polygon fill="midnightblue" stroke="midnightblue" points="776.8,-94.3486 768.51,-87.7511 770.876,-98.0783 776.8,-94.3486"/>
</g>
<!-- Node12 -->
<g id="node12" class="node"><title>Node12</title>
<polygon fill="none" stroke="#bfbfbf" points="807.5,-68.5 807.5,-87.5 856.5,-87.5 856.5,-68.5 807.5,-68.5"/>
<text text-anchor="middle" x="832" y="-75.5" font-family="Helvetica,sans-Serif" font-size="10.00">cassert</text>
</g>
<!-- Node10&#45;&gt;Node12 -->
<g id="edge13" class="edge"><title>Node10&#45;&gt;Node12</title>
<path fill="none" stroke="midnightblue" d="M802.78,-124.083C807.672,-116.534 814.827,-105.495 820.833,-96.2298"/>
<polygon fill="midnightblue" stroke="midnightblue" points="823.826,-98.0463 826.328,-87.7511 817.952,-94.239 823.826,-98.0463"/>
</g>
<!-- Node13 -->
<g id="node13" class="node"><title>Node13</title>
<polygon fill="none" stroke="#bfbfbf" points="1204,-6.5 1204,-25.5 1250,-25.5 1250,-6.5 1204,-6.5"/>
<text text-anchor="middle" x="1227" y="-13.5" font-family="Helvetica,sans-Serif" font-size="10.00">cstring</text>
</g>
<!-- Node10&#45;&gt;Node13 -->
<g id="edge14" class="edge"><title>Node10&#45;&gt;Node13</title>
<path fill="none" stroke="midnightblue" d="M854.42,-124.487C918.821,-114.68 1019.09,-98.5646 1056,-88 1108.93,-72.85 1167.58,-46.1895 1200.6,-30.203"/>
<polygon fill="midnightblue" stroke="midnightblue" points="1202.55,-33.1475 1209.99,-25.609 1199.47,-26.8596 1202.55,-33.1475"/>
</g>
<!-- Node14 -->
<g id="node14" class="node"><title>Node14</title>
<polygon fill="none" stroke="#bfbfbf" points="875,-68.5 875,-87.5 931,-87.5 931,-68.5 875,-68.5"/>
<text text-anchor="middle" x="903" y="-75.5" font-family="Helvetica,sans-Serif" font-size="10.00">algorithm</text>
</g>
<!-- Node10&#45;&gt;Node14 -->
<g id="edge15" class="edge"><title>Node10&#45;&gt;Node14</title>
<path fill="none" stroke="midnightblue" d="M814.031,-124.324C831.03,-115.664 857.376,-102.242 876.993,-92.249"/>
<polygon fill="midnightblue" stroke="midnightblue" points="878.69,-95.3125 886.012,-87.6545 875.512,-89.0752 878.69,-95.3125"/>
</g>
<!-- Node15 -->
<g id="node15" class="node"><title>Node15</title>
<polygon fill="none" stroke="#bfbfbf" points="949.5,-68.5 949.5,-87.5 1008.5,-87.5 1008.5,-68.5 949.5,-68.5"/>
<text text-anchor="middle" x="979" y="-75.5" font-family="Helvetica,sans-Serif" font-size="10.00">stdexcept</text>
</g>
<!-- Node10&#45;&gt;Node15 -->
<g id="edge16" class="edge"><title>Node10&#45;&gt;Node15</title>
<path fill="none" stroke="midnightblue" d="M825.838,-124.444C856.856,-115.241 906.329,-100.562 940.618,-90.3879"/>
<polygon fill="midnightblue" stroke="midnightblue" points="941.705,-93.7164 950.296,-87.5164 939.714,-87.0055 941.705,-93.7164"/>
</g>
<!-- Node16 -->
<g id="node16" class="node"><title>Node16</title>
<polygon fill="none" stroke="#bfbfbf" points="1144.5,-6.5 1144.5,-25.5 1185.5,-25.5 1185.5,-6.5 1144.5,-6.5"/>
<text text-anchor="middle" x="1165" y="-13.5" font-family="Helvetica,sans-Serif" font-size="10.00">string</text>
</g>
<!-- Node10&#45;&gt;Node16 -->
<g id="edge17" class="edge"><title>Node10&#45;&gt;Node16</title>
<path fill="none" stroke="midnightblue" d="M855.908,-124.912C900.801,-117.804 963.754,-105.789 1017,-88 1062.9,-72.6661 1113.02,-46.4365 1141.57,-30.5119"/>
<polygon fill="midnightblue" stroke="midnightblue" points="1143.4,-33.499 1150.39,-25.537 1139.96,-27.4023 1143.4,-33.499"/>
</g>
<!-- Node17 -->
<g id="node17" class="node"><title>Node17</title>
<g id="a_node17"><a xlink:href="../../dc/d03/MemoryResources_8h.html" target="_top" xlink:title="MemoryResources/MemoryResources.h">
<polygon fill="none" stroke="black" points="525.5,-68.5 525.5,-87.5 718.5,-87.5 718.5,-68.5 525.5,-68.5"/>
<text text-anchor="middle" x="622" y="-75.5" font-family="Helvetica,sans-Serif" font-size="10.00">MemoryResources/MemoryResources.h</text>
</a>
</g>
</g>
<!-- Node10&#45;&gt;Node17 -->
<g id="edge18" class="edge"><title>Node10&#45;&gt;Node17</title>
<path fill="none" stroke="midnightblue" d="M769.271,-124.444C739.574,-115.28 692.284,-100.688 659.331,-90.5192"/>
<polygon fill="midnightblue" stroke="midnightblue" points="660.187,-87.1206 649.6,-87.5164 658.123,-93.8094 660.187,-87.1206"/>
</g>
<!-- Node17&#45;&gt;Node7 -->
<g id="edge27" class="edge"><title>Node17&#45;&gt;Node7</title>
<path fill="none" stroke="midnightblue" d="M525.488,-71.3222C375.061,-62.178 97.2631,-44.0023 53,-32 50.7964,-31.4025 48.5604,-30.6494 46.3507,-29.8006"/>
<polygon fill="midnightblue" stroke="midnightblue" points="47.5737,-26.5141 37.0141,-25.651 44.7307,-32.9108 47.5737,-26.5141"/>
</g>
<!-- Node17&#45;&gt;Node13 -->
<g id="edge23" class="edge"><title>Node17&#45;&gt;Node13</title>
<path fill="none" stroke="midnightblue" d="M718.76,-68.754C721.876,-68.4982 724.963,-68.2463 728,-68 935.049,-51.2128 992.826,-83.7678 1194,-32 1196.51,-31.355 1199.06,-30.5302 1201.58,-29.5999"/>
<polygon fill="midnightblue" stroke="midnightblue" points="1203.11,-32.7545 1210.96,-25.6469 1200.39,-26.3034 1203.11,-32.7545"/>
</g>
<!-- Node17&#45;&gt;Node16 -->
<g id="edge24" class="edge"><title>Node17&#45;&gt;Node16</title>
<path fill="none" stroke="midnightblue" d="M718.538,-68.7582C865.77,-56.1571 1130.04,-33.4026 1135,-32 1136.98,-31.4415 1138.98,-30.7524 1140.96,-29.9792"/>
<polygon fill="midnightblue" stroke="midnightblue" points="1142.85,-32.9637 1150.49,-25.6287 1139.94,-26.5952 1142.85,-32.9637"/>
</g>
<!-- Node18 -->
<g id="node18" class="node"><title>Node18</title>
<polygon fill="none" stroke="#bfbfbf" points="1026,-1 1026,-31 1126,-31 1126,-1 1026,-1"/>
<text text-anchor="start" x="1034" y="-19" font-family="Helvetica,sans-Serif" font-size="10.00">boost/container/flat</text>
<text text-anchor="middle" x="1076" y="-8" font-family="Helvetica,sans-Serif" font-size="10.00">_map.hpp</text>
</g>
<!-- Node17&#45;&gt;Node18 -->
<g id="edge19" class="edge"><title>Node17&#45;&gt;Node18</title>
<path fill="none" stroke="midnightblue" d="M708.185,-68.4928C801.261,-59.0798 944.619,-43.8725 1015.74,-31.8382"/>
<polygon fill="midnightblue" stroke="midnightblue" points="1016.45,-35.2669 1025.69,-30.0868 1015.23,-28.3728 1016.45,-35.2669"/>
</g>
<!-- Node19 -->
<g id="node19" class="node"><title>Node19</title>
<polygon fill="none" stroke="#bfbfbf" points="62,-1 62,-31 178,-31 178,-1 62,-1"/>
<text text-anchor="start" x="70" y="-19" font-family="Helvetica,sans-Serif" font-size="10.00">boost/container/pmr</text>
<text text-anchor="middle" x="120" y="-8" font-family="Helvetica,sans-Serif" font-size="10.00">/memory_resource.hpp</text>
</g>
<!-- Node17&#45;&gt;Node19 -->
<g id="edge20" class="edge"><title>Node17&#45;&gt;Node19</title>
<path fill="none" stroke="midnightblue" d="M525.248,-70.2582C439.141,-63.5051 309.632,-51.5045 187.896,-32.0261"/>
<polygon fill="midnightblue" stroke="midnightblue" points="188.455,-28.5711 178.024,-30.4271 187.335,-35.481 188.455,-28.5711"/>
</g>
<!-- Node20 -->
<g id="node20" class="node"><title>Node20</title>
<polygon fill="none" stroke="#bfbfbf" points="196,-1 196,-31 352,-31 352,-1 196,-1"/>
<text text-anchor="start" x="204" y="-19" font-family="Helvetica,sans-Serif" font-size="10.00">boost/container/pmr</text>
<text text-anchor="middle" x="274" y="-8" font-family="Helvetica,sans-Serif" font-size="10.00">/monotonic_buffer_resource.hpp</text>
</g>
<!-- Node17&#45;&gt;Node20 -->
<g id="edge21" class="edge"><title>Node17&#45;&gt;Node20</title>
<path fill="none" stroke="midnightblue" d="M572.51,-68.4672C517.893,-59.0505 428.905,-43.7078 362.275,-32.2198"/>
<polygon fill="midnightblue" stroke="midnightblue" points="362.647,-28.7324 352.198,-30.4824 361.458,-35.6307 362.647,-28.7324"/>
</g>
<!-- Node21 -->
<g id="node21" class="node"><title>Node21</title>
<polygon fill="none" stroke="#bfbfbf" points="370.5,-1 370.5,-31 503.5,-31 503.5,-1 370.5,-1"/>
<text text-anchor="start" x="378.5" y="-19" font-family="Helvetica,sans-Serif" font-size="10.00">boost/container/pmr</text>
<text text-anchor="middle" x="437" y="-8" font-family="Helvetica,sans-Serif" font-size="10.00">/polymorphic_allocator.hpp</text>
</g>
<!-- Node17&#45;&gt;Node21 -->
<g id="edge22" class="edge"><title>Node17&#45;&gt;Node21</title>
<path fill="none" stroke="midnightblue" d="M595.494,-68.4035C568.123,-59.5263 524.666,-45.4321 490.173,-34.2453"/>
<polygon fill="midnightblue" stroke="midnightblue" points="490.837,-30.7811 480.245,-31.0253 488.677,-37.4397 490.837,-30.7811"/>
</g>
<!-- Node22 -->
<g id="node22" class="node"><title>Node22</title>
<polygon fill="none" stroke="#bfbfbf" points="522,-6.5 522,-25.5 584,-25.5 584,-6.5 522,-6.5"/>
<text text-anchor="middle" x="553" y="-13.5" font-family="Helvetica,sans-Serif" font-size="10.00">type_traits</text>
</g>
<!-- Node17&#45;&gt;Node22 -->
<g id="edge25" class="edge"><title>Node17&#45;&gt;Node22</title>
<path fill="none" stroke="midnightblue" d="M612.114,-68.4035C601.354,-59.047 583.929,-43.8948 570.779,-32.4599"/>
<polygon fill="midnightblue" stroke="midnightblue" points="572.71,-29.5013 562.868,-25.5806 568.117,-34.7835 572.71,-29.5013"/>
</g>
<!-- Node23 -->
<g id="node23" class="node"><title>Node23</title>
<polygon fill="none" stroke="#bfbfbf" points="602,-6.5 602,-25.5 642,-25.5 642,-6.5 602,-6.5"/>
<text text-anchor="middle" x="622" y="-13.5" font-family="Helvetica,sans-Serif" font-size="10.00">utility</text>
</g>
<!-- Node17&#45;&gt;Node23 -->
<g id="edge26" class="edge"><title>Node17&#45;&gt;Node23</title>
<path fill="none" stroke="midnightblue" d="M622,-68.4035C622,-59.9381 622,-46.7283 622,-35.8199"/>
<polygon fill="midnightblue" stroke="midnightblue" points="625.5,-35.5806 622,-25.5806 618.5,-35.5806 625.5,-35.5806"/>
</g>
<!-- Node24 -->
<g id="node24" class="node"><title>Node24</title>
<polygon fill="none" stroke="#bfbfbf" points="660.5,-6.5 660.5,-25.5 743.5,-25.5 743.5,-6.5 660.5,-6.5"/>
<text text-anchor="middle" x="702" y="-13.5" font-family="Helvetica,sans-Serif" font-size="10.00">unordered_map</text>
</g>
<!-- Node17&#45;&gt;Node24 -->
<g id="edge28" class="edge"><title>Node17&#45;&gt;Node24</title>
<path fill="none" stroke="midnightblue" d="M633.462,-68.4035C646.175,-58.8688 666.913,-43.3154 682.253,-31.8106"/>
<polygon fill="midnightblue" stroke="midnightblue" points="684.659,-34.3806 690.559,-25.5806 680.459,-28.7806 684.659,-34.3806"/>
</g>
<!-- Node25 -->
<g id="node25" class="node"><title>Node25</title>
<polygon fill="none" stroke="#bfbfbf" points="761.5,-6.5 761.5,-25.5 858.5,-25.5 858.5,-6.5 761.5,-6.5"/>
<text text-anchor="middle" x="810" y="-13.5" font-family="Helvetica,sans-Serif" font-size="10.00">FairMQMessage.h</text>
</g>
<!-- Node17&#45;&gt;Node25 -->
<g id="edge29" class="edge"><title>Node17&#45;&gt;Node25</title>
<path fill="none" stroke="midnightblue" d="M648.936,-68.4035C681.603,-57.9777 736.819,-40.3557 773.343,-28.6992"/>
<polygon fill="midnightblue" stroke="midnightblue" points="774.652,-31.9554 783.114,-25.5806 772.523,-25.2868 774.652,-31.9554"/>
</g>
<!-- Node26 -->
<g id="node26" class="node"><title>Node26</title>
<polygon fill="none" stroke="#bfbfbf" points="876.5,-6.5 876.5,-25.5 1007.5,-25.5 1007.5,-6.5 876.5,-6.5"/>
<text text-anchor="middle" x="942" y="-13.5" font-family="Helvetica,sans-Serif" font-size="10.00">FairMQTransportFactory.h</text>
</g>
<!-- Node17&#45;&gt;Node26 -->
<g id="edge30" class="edge"><title>Node17&#45;&gt;Node26</title>
<path fill="none" stroke="midnightblue" d="M669.927,-68.4274C719.346,-59.5337 798.62,-45.1169 867,-32 874.435,-30.5737 882.279,-29.0387 889.98,-27.5141"/>
<polygon fill="midnightblue" stroke="midnightblue" points="890.851,-30.9096 899.976,-25.526 889.485,-24.0441 890.851,-30.9096"/>
</g>
<!-- Node27&#45;&gt;Node7 -->
<g id="edge35" class="edge"><title>Node27&#45;&gt;Node7</title>
<path fill="none" stroke="midnightblue" d="M857.502,-180.473C768.165,-159.229 526.618,-103.133 323,-68 203.701,-47.4154 168.951,-66.8043 53,-32 50.8597,-31.3576 48.6836,-30.583 46.5278,-29.7286"/>
<polygon fill="midnightblue" stroke="midnightblue" points="47.9375,-26.525 37.3802,-25.6337 45.0774,-32.9141 47.9375,-26.525"/>
</g>
<!-- Node27&#45;&gt;Node10 -->
<g id="edge32" class="edge"><title>Node27&#45;&gt;Node10</title>
<path fill="none" stroke="midnightblue" d="M877.576,-180.324C862.46,-171.822 839.185,-158.729 821.529,-148.797"/>
<polygon fill="midnightblue" stroke="midnightblue" points="822.817,-145.507 812.386,-143.655 819.386,-151.608 822.817,-145.507"/>
</g>
<!-- Node28 -->
<g id="node28" class="node"><title>Node28</title>
<polygon fill="none" stroke="#bfbfbf" points="873.5,-124.5 873.5,-143.5 932.5,-143.5 932.5,-124.5 873.5,-124.5"/>
<text text-anchor="middle" x="903" y="-131.5" font-family="Helvetica,sans-Serif" font-size="10.00">functional</text>
</g>
<!-- Node27&#45;&gt;Node28 -->
<g id="edge33" class="edge"><title>Node27&#45;&gt;Node28</title>
<path fill="none" stroke="midnightblue" d="M894.651,-180.083C895.976,-172.927 897.882,-162.635 899.539,-153.691"/>
<polygon fill="midnightblue" stroke="midnightblue" points="903,-154.221 901.379,-143.751 896.117,-152.947 903,-154.221"/>
</g>
<!-- Node29 -->
<g id="node29" class="node"><title>Node29</title>
<polygon fill="none" stroke="#bfbfbf" points="950.5,-124.5 950.5,-143.5 985.5,-143.5 985.5,-124.5 950.5,-124.5"/>
<text text-anchor="middle" x="968" y="-131.5" font-family="Helvetica,sans-Serif" font-size="10.00">map</text>
</g>
<!-- Node27&#45;&gt;Node29 -->
<g id="edge34" class="edge"><title>Node27&#45;&gt;Node29</title>
<path fill="none" stroke="midnightblue" d="M905.05,-180.324C916.463,-172.107 933.831,-159.602 947.435,-149.807"/>
<polygon fill="midnightblue" stroke="midnightblue" points="949.66,-152.517 955.731,-143.834 945.57,-146.837 949.66,-152.517"/>
</g>
<!-- Node31&#45;&gt;Node8 -->
<g id="edge40" class="edge"><title>Node31&#45;&gt;Node8</title>
<path fill="none" stroke="midnightblue" d="M1422.77,-292.355C1425.01,-279.677 1427.9,-255.439 1422,-236 1404.38,-177.959 1357.4,-121.823 1332.69,-95.144"/>
<polygon fill="midnightblue" stroke="midnightblue" points="1334.93,-92.416 1325.52,-87.5519 1329.84,-97.2239 1334.93,-92.416"/>
</g>
<!-- Node32 -->
<g id="node32" class="node"><title>Node32</title>
<polygon fill="none" stroke="#bfbfbf" points="1361,-236.5 1361,-255.5 1413,-255.5 1413,-236.5 1361,-236.5"/>
<text text-anchor="middle" x="1387" y="-243.5" font-family="Helvetica,sans-Serif" font-size="10.00">ostream</text>
</g>
<!-- Node31&#45;&gt;Node32 -->
<g id="edge41" class="edge"><title>Node31&#45;&gt;Node32</title>
<path fill="none" stroke="midnightblue" d="M1415.39,-292.083C1410.63,-284.534 1403.68,-273.495 1397.85,-264.23"/>
<polygon fill="midnightblue" stroke="midnightblue" points="1400.8,-262.349 1392.51,-255.751 1394.88,-266.078 1400.8,-262.349"/>
</g>
</g>
</svg>
        <g id="navigator" transform="translate(0 0)" fill="#404254">
                <rect fill="#f2f5e9" fill-opacity="0.5" stroke="#606060" stroke-width=".5" x="0" y="0" width="60" height="60"/>
                <use id="zoomplus" xlink:href="#zoomPlus" x="17" y="9" onmousedown="handleZoom(evt,'in')"/>
                <use id="zoomminus" xlink:href="#zoomMin" x="42" y="9" onmousedown="handleZoom(evt,'out')"/>
                <use id="reset" xlink:href="#resetDef" x="30" y="36" onmousedown="handleReset()"/>
                <g id="arrowUp" xlink:href="#dirArrow" transform="translate(30 24)" onmousedown="handlePan(0,-1)">
                  <use xlink:href="#rim" fill="#404040">
                        <set attributeName="fill" to="#808080" begin="arrowUp.mouseover" end="arrowUp.mouseout"/>
                  </use>
                  <path fill="none" stroke="white" stroke-width="1.5" d="M0,-3.0v7 M-2.5,-0.5L0,-3.0L2.5,-0.5"/>
                </g>
                <g id="arrowRight" xlink:href="#dirArrow" transform="rotate(90) translate(36 -43)" onmousedown="handlePan(1,0)">
                  <use xlink:href="#rim" fill="#404040">
                        <set attributeName="fill" to="#808080" begin="arrowRight.mouseover" end="arrowRight.mouseout"/>
                  </use>
                  <path fill="none" stroke="white" stroke-width="1.5" d="M0,-3.0v7 M-2.5,-0.5L0,-3.0L2.5,-0.5"/>
                </g>
                <g id="arrowDown" xlink:href="#dirArrow" transform="rotate(180) translate(-30 -48)" onmousedown="handlePan(0,1)">
                  <use xlink:href="#rim" fill="#404040">
                        <set attributeName="fill" to="#808080" begin="arrowDown.mouseover" end="arrowDown.mouseout"/>
                  </use>
                  <path fill="none" stroke="white" stroke-width="1.5" d="M0,-3.0v7 M-2.5,-0.5L0,-3.0L2.5,-0.5"/>
                </g>
                <g id="arrowLeft" xlink:href="#dirArrow" transform="rotate(270) translate(-36 17)" onmousedown="handlePan(-1,0)">
                  <use xlink:href="#rim" fill="#404040">
                        <set attributeName="fill" to="#808080" begin="arrowLeft.mouseover" end="arrowLeft.mouseout"/>
                  </use>
                  <path fill="none" stroke="white" stroke-width="1.5" d="M0,-3.0v7 M-2.5,-0.5L0,-3.0L2.5,-0.5"/>
                </g>
        </g>
        <svg viewBox="0 0 15 15" width="100%" height="30px" preserveAspectRatio="xMaxYMin meet">
         <g id="arrow_out" transform="scale(0.3 0.3)">
          <a xlink:href="DumpDigits_8cxx__incl_org.svg" target="_base">
           <rect id="button" ry="5" rx="5" y="6" x="6" height="38" width="38"
                fill="#f2f5e9" fill-opacity="0.5" stroke="#606060" stroke-width="1.0"/>
           <path id="arrow"
             d="M 11.500037,31.436501 C 11.940474,20.09759 22.043105,11.32322 32.158766,21.979434 L 37.068811,17.246167 C 37.068811,17.246167 37.088388,32 37.088388,32 L 22.160133,31.978069 C 22.160133,31.978069 26.997745,27.140456 26.997745,27.140456 C 18.528582,18.264221 13.291696,25.230495 11.500037,31.436501 z"
             style="fill:#404040;"/>
          </a>
         </g>
        </svg>
</svg>
