<?xml version="1.0" encoding="UTF-8" standalone="no"?>
<!DOCTYPE svg PUBLIC "-//W3C//DTD SVG 1.1//EN"
 "http://www.w3.org/Graphics/SVG/1.1/DTD/svg11.dtd">
<!-- Generated by graphviz version 2.36.0 (20140111.2315)
 -->
<!-- Title: /home/travis/build/AliceO2Group/AliceO2/Framework/Core/include/Framework/ErrorContext.h Pages: 1 -->
<svg width="2296pt" height="410pt"
 viewBox="0.00 0.00 2296.02 410.00" xmlns="http://www.w3.org/2000/svg" xmlns:xlink="http://www.w3.org/1999/xlink">
<g id="graph0" class="graph" transform="scale(1 1) rotate(0) translate(4 406)">
<title>/home/travis/build/AliceO2Group/AliceO2/Framework/Core/include/Framework/ErrorContext.h</title>
<!-- Node1 -->
<g id="node1" class="node"><title>Node1</title>
<polygon fill="#bfbfbf" stroke="black" points="2153.52,-349 2153.52,-401 2288.52,-401 2288.52,-349 2153.52,-349"/>
<text text-anchor="start" x="2161.52" y="-389" font-family="Helvetica,sans-Serif" font-size="10.00">/home/travis/build</text>
<text text-anchor="start" x="2161.52" y="-378" font-family="Helvetica,sans-Serif" font-size="10.00">/AliceO2Group/AliceO2</text>
<text text-anchor="start" x="2161.52" y="-367" font-family="Helvetica,sans-Serif" font-size="10.00">/Framework/Core/include</text>
<text text-anchor="middle" x="2221.02" y="-356" font-family="Helvetica,sans-Serif" font-size="10.00">/Framework/ErrorContext.h</text>
</g>
<!-- Node2 -->
<g id="node2" class="node"><title>Node2</title>
<g id="a_node2"><a xlink:href="../../d6/d5c/InputRecord_8h.html" target="_top" xlink:title="Framework/InputRecord.h">
<polygon fill="none" stroke="black" points="997.025,-292.5 997.025,-311.5 1127.02,-311.5 1127.02,-292.5 997.025,-292.5"/>
<text text-anchor="middle" x="1062.02" y="-299.5" font-family="Helvetica,sans-Serif" font-size="10.00">Framework/InputRecord.h</text>
</a>
</g>
</g>
<!-- Node1&#45;&gt;Node2 -->
<g id="edge1" class="edge"><title>Node1&#45;&gt;Node2</title>
<path fill="none" stroke="midnightblue" d="M2153.28,-369.85C1950.58,-357.433 1349.78,-320.628 1137.42,-307.619"/>
<polygon fill="midnightblue" stroke="midnightblue" points="1137.5,-304.117 1127.3,-306.999 1137.07,-311.104 1137.5,-304.117"/>
</g>
<!-- Node48 -->
<g id="node48" class="node"><title>Node48</title>
<polygon fill="none" stroke="#bfbfbf" points="2183.52,-124.5 2183.52,-143.5 2242.52,-143.5 2242.52,-124.5 2183.52,-124.5"/>
<text text-anchor="middle" x="2213.02" y="-131.5" font-family="Helvetica,sans-Serif" font-size="10.00">exception</text>
</g>
<!-- Node1&#45;&gt;Node48 -->
<g id="edge79" class="edge"><title>Node1&#45;&gt;Node48</title>
<path fill="none" stroke="midnightblue" d="M2220.18,-348.875C2218.57,-300.79 2215.09,-196.733 2213.66,-153.953"/>
<polygon fill="midnightblue" stroke="midnightblue" points="2217.15,-153.699 2213.32,-143.822 2210.16,-153.933 2217.15,-153.699"/>
</g>
<!-- Node49 -->
<g id="node49" class="node"><title>Node49</title>
<g id="a_node49"><a xlink:href="../../d8/d17/ServiceRegistry_8h.html" target="_top" xlink:title="Framework/ServiceRegistry.h">
<polygon fill="none" stroke="black" points="2028.02,-180.5 2028.02,-199.5 2174.02,-199.5 2174.02,-180.5 2028.02,-180.5"/>
<text text-anchor="middle" x="2101.02" y="-187.5" font-family="Helvetica,sans-Serif" font-size="10.00">Framework/ServiceRegistry.h</text>
</a>
</g>
</g>
<!-- Node1&#45;&gt;Node49 -->
<g id="edge72" class="edge"><title>Node1&#45;&gt;Node49</title>
<path fill="none" stroke="midnightblue" d="M2204.59,-348.938C2179.82,-311.162 2133.55,-240.607 2112.27,-208.146"/>
<polygon fill="midnightblue" stroke="midnightblue" points="2115.15,-206.158 2106.74,-199.715 2109.3,-209.997 2115.15,-206.158"/>
</g>
<!-- Node3 -->
<g id="node3" class="node"><title>Node3</title>
<g id="a_node3"><a xlink:href="../../d5/dfb/DataRef_8h.html" target="_top" xlink:title="Framework/DataRef.h">
<polygon fill="none" stroke="black" points="594.525,-180.5 594.525,-199.5 707.525,-199.5 707.525,-180.5 594.525,-180.5"/>
<text text-anchor="middle" x="651.025" y="-187.5" font-family="Helvetica,sans-Serif" font-size="10.00">Framework/DataRef.h</text>
</a>
</g>
</g>
<!-- Node2&#45;&gt;Node3 -->
<g id="edge2" class="edge"><title>Node2&#45;&gt;Node3</title>
<path fill="none" stroke="midnightblue" d="M996.609,-298.634C885.342,-293.93 668.984,-281.576 646.025,-256 634.831,-243.53 638.258,-223.741 643.138,-209.271"/>
<polygon fill="midnightblue" stroke="midnightblue" points="646.436,-210.445 646.76,-199.855 639.903,-207.932 646.436,-210.445"/>
</g>
<!-- Node4 -->
<g id="node4" class="node"><title>Node4</title>
<g id="a_node4"><a xlink:href="../../d5/db8/DataRefUtils_8h.html" target="_top" xlink:title="Framework/DataRefUtils.h">
<polygon fill="none" stroke="black" points="995.025,-236.5 995.025,-255.5 1129.02,-255.5 1129.02,-236.5 995.025,-236.5"/>
<text text-anchor="middle" x="1062.02" y="-243.5" font-family="Helvetica,sans-Serif" font-size="10.00">Framework/DataRefUtils.h</text>
</a>
</g>
</g>
<!-- Node2&#45;&gt;Node4 -->
<g id="edge3" class="edge"><title>Node2&#45;&gt;Node4</title>
<path fill="none" stroke="midnightblue" d="M1062.02,-292.083C1062.02,-285.006 1062.02,-274.861 1062.02,-265.986"/>
<polygon fill="midnightblue" stroke="midnightblue" points="1065.52,-265.751 1062.02,-255.751 1058.52,-265.751 1065.52,-265.751"/>
</g>
<!-- Node7 -->
<g id="node7" class="node"><title>Node7</title>
<polygon fill="none" stroke="#bfbfbf" points="736.025,-68.5 736.025,-87.5 788.025,-87.5 788.025,-68.5 736.025,-68.5"/>
<text text-anchor="middle" x="762.025" y="-75.5" font-family="Helvetica,sans-Serif" font-size="10.00">memory</text>
</g>
<!-- Node2&#45;&gt;Node7 -->
<g id="edge70" class="edge"><title>Node2&#45;&gt;Node7</title>
<path fill="none" stroke="midnightblue" d="M996.71,-299.814C893.116,-296.991 696.557,-287.525 635.025,-256 599.04,-237.564 564.72,-214.964 585.025,-180 601.447,-151.722 686.44,-111.621 732.414,-91.5151"/>
<polygon fill="midnightblue" stroke="midnightblue" points="733.808,-94.7256 741.594,-87.5397 731.026,-88.3021 733.808,-94.7256"/>
</g>
<!-- Node8 -->
<g id="node8" class="node"><title>Node8</title>
<polygon fill="none" stroke="#bfbfbf" points="1386.52,-68.5 1386.52,-87.5 1435.52,-87.5 1435.52,-68.5 1386.52,-68.5"/>
<text text-anchor="middle" x="1411.02" y="-75.5" font-family="Helvetica,sans-Serif" font-size="10.00">cassert</text>
</g>
<!-- Node2&#45;&gt;Node8 -->
<g id="edge68" class="edge"><title>Node2&#45;&gt;Node8</title>
<path fill="none" stroke="midnightblue" d="M1127.2,-297.44C1197.06,-292.387 1302.12,-280.829 1333.02,-256 1382.31,-216.407 1358.84,-181.077 1386.02,-124 1390.44,-114.721 1395.94,-104.697 1400.65,-96.4711"/>
<polygon fill="midnightblue" stroke="midnightblue" points="1403.7,-98.1937 1405.71,-87.7918 1397.65,-94.6683 1403.7,-98.1937"/>
</g>
<!-- Node9 -->
<g id="node9" class="node"><title>Node9</title>
<polygon fill="none" stroke="#bfbfbf" points="1443.02,-6.5 1443.02,-25.5 1489.02,-25.5 1489.02,-6.5 1443.02,-6.5"/>
<text text-anchor="middle" x="1466.02" y="-13.5" font-family="Helvetica,sans-Serif" font-size="10.00">cstring</text>
</g>
<!-- Node2&#45;&gt;Node9 -->
<g id="edge67" class="edge"><title>Node2&#45;&gt;Node9</title>
<path fill="none" stroke="midnightblue" d="M1090.56,-292.455C1130.87,-279.014 1204.44,-249.262 1248.02,-200 1289.81,-152.774 1253,-110.002 1300.02,-68 1346.02,-26.9222 1376.1,-53.1687 1434.02,-32 1435.93,-31.305 1437.87,-30.5399 1439.81,-29.7343"/>
<polygon fill="midnightblue" stroke="midnightblue" points="1441.61,-32.7674 1449.32,-25.5065 1438.76,-26.3711 1441.61,-32.7674"/>
</g>
<!-- Node12 -->
<g id="node12" class="node"><title>Node12</title>
<polygon fill="none" stroke="#bfbfbf" points="1857.52,-6.5 1857.52,-25.5 1898.52,-25.5 1898.52,-6.5 1857.52,-6.5"/>
<text text-anchor="middle" x="1878.02" y="-13.5" font-family="Helvetica,sans-Serif" font-size="10.00">string</text>
</g>
<!-- Node2&#45;&gt;Node12 -->
<g id="edge65" class="edge"><title>Node2&#45;&gt;Node12</title>
<path fill="none" stroke="midnightblue" d="M1127.21,-299.919C1283.43,-296.866 1675.61,-286.332 1803.02,-256 1864.23,-241.431 1893.94,-249.296 1933.02,-200 1969.51,-153.982 1956.3,-118.911 1927.02,-68 1919.2,-54.3936 1906.97,-41.6595 1896.69,-32.3191"/>
<polygon fill="midnightblue" stroke="midnightblue" points="1898.82,-29.5336 1888.98,-25.604 1894.22,-34.8117 1898.82,-29.5336"/>
</g>
<!-- Node18 -->
<g id="node18" class="node"><title>Node18</title>
<polygon fill="none" stroke="#bfbfbf" points="1507.02,-6.5 1507.02,-25.5 1569.02,-25.5 1569.02,-6.5 1507.02,-6.5"/>
<text text-anchor="middle" x="1538.02" y="-13.5" font-family="Helvetica,sans-Serif" font-size="10.00">type_traits</text>
</g>
<!-- Node2&#45;&gt;Node18 -->
<g id="edge71" class="edge"><title>Node2&#45;&gt;Node18</title>
<path fill="none" stroke="midnightblue" d="M1127.18,-299.342C1188.44,-295.886 1281.71,-285.67 1357.02,-256 1439.15,-223.649 1459.89,-207.666 1521.02,-144 1541.35,-122.83 1547.93,-116.213 1556.02,-88 1561.16,-70.0982 1554.53,-49.4422 1547.91,-35.0422"/>
<polygon fill="midnightblue" stroke="midnightblue" points="1550.88,-33.157 1543.27,-25.7912 1544.63,-36.2984 1550.88,-33.157"/>
</g>
<!-- Node20 -->
<g id="node20" class="node"><title>Node20</title>
<polygon fill="none" stroke="#bfbfbf" points="480.025,-6.5 480.025,-25.5 524.025,-25.5 524.025,-6.5 480.025,-6.5"/>
<text text-anchor="middle" x="502.025" y="-13.5" font-family="Helvetica,sans-Serif" font-size="10.00">vector</text>
</g>
<!-- Node2&#45;&gt;Node20 -->
<g id="edge66" class="edge"><title>Node2&#45;&gt;Node20</title>
<path fill="none" stroke="midnightblue" d="M996.854,-301.116C766.013,-300.679 1.02477,-291.638 1.02477,-191 1.02477,-191 1.02477,-191 1.02477,-133 1.02477,-102.902 -3.07431,-87.2953 20.0248,-68 54.525,-39.181 367.265,-22.939 469.703,-18.3573"/>
<polygon fill="midnightblue" stroke="midnightblue" points="469.93,-21.8508 479.767,-17.9146 469.622,-14.8575 469.93,-21.8508"/>
</g>
<!-- Node34 -->
<g id="node34" class="node"><title>Node34</title>
<g id="a_node34"><a xlink:href="../../d0/d95/TypeTraits_8h.html" target="_top" xlink:title="Framework/TypeTraits.h">
<polygon fill="none" stroke="black" points="752.525,-124.5 752.525,-143.5 875.525,-143.5 875.525,-124.5 752.525,-124.5"/>
<text text-anchor="middle" x="814.025" y="-131.5" font-family="Helvetica,sans-Serif" font-size="10.00">Framework/TypeTraits.h</text>
</a>
</g>
</g>
<!-- Node2&#45;&gt;Node34 -->
<g id="edge60" class="edge"><title>Node2&#45;&gt;Node34</title>
<path fill="none" stroke="midnightblue" d="M996.782,-295.221C937.239,-286.003 852.926,-262.081 815.025,-200 806.579,-186.166 807.294,-167.398 809.55,-153.586"/>
<polygon fill="midnightblue" stroke="midnightblue" points="812.986,-154.255 811.544,-143.759 806.125,-152.863 812.986,-154.255"/>
</g>
<!-- Node38 -->
<g id="node38" class="node"><title>Node38</title>
<g id="a_node38"><a xlink:href="../../d5/d19/InputRoute_8h.html" target="_top" xlink:title="Framework/InputRoute.h">
<polygon fill="none" stroke="black" points="1669.52,-236.5 1669.52,-255.5 1794.52,-255.5 1794.52,-236.5 1669.52,-236.5"/>
<text text-anchor="middle" x="1732.02" y="-243.5" font-family="Helvetica,sans-Serif" font-size="10.00">Framework/InputRoute.h</text>
</a>
</g>
</g>
<!-- Node2&#45;&gt;Node38 -->
<g id="edge48" class="edge"><title>Node2&#45;&gt;Node38</title>
<path fill="none" stroke="midnightblue" d="M1127.18,-295.749C1252.81,-285.623 1527.73,-263.466 1659.19,-252.87"/>
<polygon fill="midnightblue" stroke="midnightblue" points="1659.48,-256.358 1669.17,-252.066 1658.92,-249.381 1659.48,-256.358"/>
</g>
<!-- Node45 -->
<g id="node45" class="node"><title>Node45</title>
<g id="a_node45"><a xlink:href="../../da/d0f/InputSpan_8h.html" target="_top" xlink:title="Framework/InputSpan.h">
<polygon fill="none" stroke="black" points="655.525,-236.5 655.525,-255.5 776.525,-255.5 776.525,-236.5 655.525,-236.5"/>
<text text-anchor="middle" x="716.025" y="-243.5" font-family="Helvetica,sans-Serif" font-size="10.00">Framework/InputSpan.h</text>
</a>
</g>
</g>
<!-- Node2&#45;&gt;Node45 -->
<g id="edge61" class="edge"><title>Node2&#45;&gt;Node45</title>
<path fill="none" stroke="midnightblue" d="M1007.2,-292.444C945.702,-282.846 846.041,-267.292 780.763,-257.104"/>
<polygon fill="midnightblue" stroke="midnightblue" points="781.013,-253.6 770.593,-255.516 779.934,-260.517 781.013,-253.6"/>
</g>
<!-- Node46 -->
<g id="node46" class="node"><title>Node46</title>
<g id="a_node46"><a xlink:href="../../dc/d03/TableConsumer_8h.html" target="_top" xlink:title="Framework/TableConsumer.h">
<polygon fill="none" stroke="black" points="392.025,-236.5 392.025,-255.5 538.025,-255.5 538.025,-236.5 392.025,-236.5"/>
<text text-anchor="middle" x="465.025" y="-243.5" font-family="Helvetica,sans-Serif" font-size="10.00">Framework/TableConsumer.h</text>
</a>
</g>
</g>
<!-- Node2&#45;&gt;Node46 -->
<g id="edge62" class="edge"><title>Node2&#45;&gt;Node46</title>
<path fill="none" stroke="midnightblue" d="M996.785,-295.56C899.766,-287.399 711.732,-271.306 552.025,-256 550.749,-255.878 549.464,-255.754 548.169,-255.628"/>
<polygon fill="midnightblue" stroke="midnightblue" points="548.412,-252.136 538.118,-254.642 547.729,-259.102 548.412,-252.136"/>
</g>
<!-- Node47 -->
<g id="node47" class="node"><title>Node47</title>
<polygon fill="none" stroke="#bfbfbf" points="929.525,-236.5 929.525,-255.5 976.525,-255.5 976.525,-236.5 929.525,-236.5"/>
<text text-anchor="middle" x="953.025" y="-243.5" font-family="Helvetica,sans-Serif" font-size="10.00">iterator</text>
</g>
<!-- Node2&#45;&gt;Node47 -->
<g id="edge64" class="edge"><title>Node2&#45;&gt;Node47</title>
<path fill="none" stroke="midnightblue" d="M1044.51,-292.324C1026.95,-283.625 999.693,-270.12 979.494,-260.113"/>
<polygon fill="midnightblue" stroke="midnightblue" points="981.008,-256.958 970.494,-255.655 977.901,-263.23 981.008,-256.958"/>
</g>
<!-- Node2&#45;&gt;Node48 -->
<g id="edge69" class="edge"><title>Node2&#45;&gt;Node48</title>
<path fill="none" stroke="midnightblue" d="M1127.31,-300.227C1313.29,-297.657 1843.41,-287.682 2014.02,-256 2091.82,-241.553 2124.02,-252.719 2183.02,-200 2196.61,-187.858 2204.48,-168.302 2208.72,-153.808"/>
<polygon fill="midnightblue" stroke="midnightblue" points="2212.16,-154.476 2211.29,-143.917 2205.39,-152.715 2212.16,-154.476"/>
</g>
<!-- Node4&#45;&gt;Node3 -->
<g id="edge4" class="edge"><title>Node4&#45;&gt;Node3</title>
<path fill="none" stroke="midnightblue" d="M996.901,-236.444C920.541,-226.411 794.648,-209.87 717.647,-199.753"/>
<polygon fill="midnightblue" stroke="midnightblue" points="717.951,-196.263 707.58,-198.431 717.039,-203.204 717.951,-196.263"/>
</g>
<!-- Node5 -->
<g id="node5" class="node"><title>Node5</title>
<g id="a_node5"><a xlink:href="../../dc/dcd/DataHeader_8h.html" target="_top" xlink:title="Headers/DataHeader.h">
<polygon fill="none" stroke="black" points="1395.52,-124.5 1395.52,-143.5 1512.52,-143.5 1512.52,-124.5 1395.52,-124.5"/>
<text text-anchor="middle" x="1454.02" y="-131.5" font-family="Helvetica,sans-Serif" font-size="10.00">Headers/DataHeader.h</text>
</a>
</g>
</g>
<!-- Node4&#45;&gt;Node5 -->
<g id="edge5" class="edge"><title>Node4&#45;&gt;Node5</title>
<path fill="none" stroke="midnightblue" d="M1123.65,-236.496C1171.09,-229.138 1237.97,-216.991 1295.02,-200 1342.74,-185.792 1395.83,-162.475 1427,-147.97"/>
<polygon fill="midnightblue" stroke="midnightblue" points="1428.76,-151.013 1436.32,-143.593 1425.78,-144.678 1428.76,-151.013"/>
</g>
<!-- Node11 -->
<g id="node11" class="node"><title>Node11</title>
<polygon fill="none" stroke="#bfbfbf" points="1309.52,-68.5 1309.52,-87.5 1368.52,-87.5 1368.52,-68.5 1309.52,-68.5"/>
<text text-anchor="middle" x="1339.02" y="-75.5" font-family="Helvetica,sans-Serif" font-size="10.00">stdexcept</text>
</g>
<!-- Node4&#45;&gt;Node11 -->
<g id="edge44" class="edge"><title>Node4&#45;&gt;Node11</title>
<path fill="none" stroke="midnightblue" d="M1129.25,-241.699C1169.3,-236.917 1219.49,-225.737 1257.02,-200 1295.09,-173.904 1320.45,-123.822 1331.95,-97.0018"/>
<polygon fill="midnightblue" stroke="midnightblue" points="1335.23,-98.241 1335.8,-87.6614 1328.75,-95.577 1335.23,-98.241"/>
</g>
<!-- Node4&#45;&gt;Node18 -->
<g id="edge46" class="edge"><title>Node4&#45;&gt;Node18</title>
<path fill="none" stroke="midnightblue" d="M1129.17,-238.195C1160.57,-232.224 1196.92,-221.02 1224.02,-200 1277.52,-158.512 1244.7,-107.009 1300.02,-68 1373.12,-16.4593 1411.81,-55.7979 1498.02,-32 1501.24,-31.112 1504.56,-30.0727 1507.85,-28.9627"/>
<polygon fill="midnightblue" stroke="midnightblue" points="1509.27,-32.1744 1517.5,-25.5014 1506.9,-25.5861 1509.27,-32.1744"/>
</g>
<!-- Node24 -->
<g id="node24" class="node"><title>Node24</title>
<g id="a_node24"><a xlink:href="../../d8/d3c/TMessageSerializer_8h.html" target="_top" xlink:title="Framework/TMessageSerializer.h">
<polygon fill="none" stroke="black" points="336.525,-124.5 336.525,-143.5 499.525,-143.5 499.525,-124.5 336.525,-124.5"/>
<text text-anchor="middle" x="418.025" y="-131.5" font-family="Helvetica,sans-Serif" font-size="10.00">Framework/TMessageSerializer.h</text>
</a>
</g>
</g>
<!-- Node4&#45;&gt;Node24 -->
<g id="edge26" class="edge"><title>Node4&#45;&gt;Node24</title>
<path fill="none" stroke="midnightblue" d="M1013.7,-236.477C963.868,-227.623 883.941,-213.238 815.025,-200 770.942,-191.532 760.231,-187.798 716.025,-180 639.308,-166.467 551.029,-153.454 490.586,-144.934"/>
<polygon fill="midnightblue" stroke="midnightblue" points="490.773,-141.426 480.383,-143.501 489.799,-148.358 490.773,-141.426"/>
</g>
<!-- Node33 -->
<g id="node33" class="node"><title>Node33</title>
<g id="a_node33"><a xlink:href="../../d1/d53/SerializationMethods_8h.html" target="_top" xlink:title="Type wrappers for enfording a specific serialization method. ">
<polygon fill="none" stroke="black" points="978.525,-180.5 978.525,-199.5 1145.52,-199.5 1145.52,-180.5 978.525,-180.5"/>
<text text-anchor="middle" x="1062.02" y="-187.5" font-family="Helvetica,sans-Serif" font-size="10.00">Framework/SerializationMethods.h</text>
</a>
</g>
</g>
<!-- Node4&#45;&gt;Node33 -->
<g id="edge37" class="edge"><title>Node4&#45;&gt;Node33</title>
<path fill="none" stroke="midnightblue" d="M1062.02,-236.083C1062.02,-229.006 1062.02,-218.861 1062.02,-209.986"/>
<polygon fill="midnightblue" stroke="midnightblue" points="1065.52,-209.751 1062.02,-199.751 1058.52,-209.751 1065.52,-209.751"/>
</g>
<!-- Node4&#45;&gt;Node34 -->
<g id="edge42" class="edge"><title>Node4&#45;&gt;Node34</title>
<path fill="none" stroke="midnightblue" d="M1000.74,-236.485C936.566,-227.033 843.37,-211.586 831.025,-200 818.542,-188.285 814.785,-168.638 813.851,-154.005"/>
<polygon fill="midnightblue" stroke="midnightblue" points="817.34,-153.503 813.594,-143.592 810.342,-153.675 817.34,-153.503"/>
</g>
<!-- Node35 -->
<g id="node35" class="node"><title>Node35</title>
<polygon fill="none" stroke="#bfbfbf" points="904.025,-180.5 904.025,-199.5 960.025,-199.5 960.025,-180.5 904.025,-180.5"/>
<text text-anchor="middle" x="932.025" y="-187.5" font-family="Helvetica,sans-Serif" font-size="10.00">TClass.h</text>
</g>
<!-- Node4&#45;&gt;Node35 -->
<g id="edge43" class="edge"><title>Node4&#45;&gt;Node35</title>
<path fill="none" stroke="midnightblue" d="M1041.43,-236.444C1020.03,-227.557 986.344,-213.563 962,-203.451"/>
<polygon fill="midnightblue" stroke="midnightblue" points="963.105,-200.12 952.527,-199.516 960.42,-206.585 963.105,-200.12"/>
</g>
<!-- Node36 -->
<g id="node36" class="node"><title>Node36</title>
<polygon fill="none" stroke="#bfbfbf" points="1163.02,-180.5 1163.02,-199.5 1215.02,-199.5 1215.02,-180.5 1163.02,-180.5"/>
<text text-anchor="middle" x="1189.02" y="-187.5" font-family="Helvetica,sans-Serif" font-size="10.00">sstream</text>
</g>
<!-- Node4&#45;&gt;Node36 -->
<g id="edge45" class="edge"><title>Node4&#45;&gt;Node36</title>
<path fill="none" stroke="midnightblue" d="M1082.15,-236.444C1103.05,-227.557 1135.96,-213.563 1159.74,-203.451"/>
<polygon fill="midnightblue" stroke="midnightblue" points="1161.16,-206.65 1169,-199.516 1158.42,-200.208 1161.16,-206.65"/>
</g>
<!-- Node37 -->
<g id="node37" class="node"><title>Node37</title>
<polygon fill="none" stroke="#bfbfbf" points="840.525,-180.5 840.525,-199.5 885.525,-199.5 885.525,-180.5 840.525,-180.5"/>
<text text-anchor="middle" x="863.025" y="-187.5" font-family="Helvetica,sans-Serif" font-size="10.00">gsl/gsl</text>
</g>
<!-- Node4&#45;&gt;Node37 -->
<g id="edge47" class="edge"><title>Node4&#45;&gt;Node37</title>
<path fill="none" stroke="midnightblue" d="M1029.98,-236.477C998.313,-228.029 948.229,-214.604 895.596,-200.135"/>
<polygon fill="midnightblue" stroke="midnightblue" points="896.312,-196.702 885.742,-197.422 894.454,-203.451 896.312,-196.702"/>
</g>
<!-- Node6 -->
<g id="node6" class="node"><title>Node6</title>
<polygon fill="none" stroke="#bfbfbf" points="1642.02,-68.5 1642.02,-87.5 1688.02,-87.5 1688.02,-68.5 1642.02,-68.5"/>
<text text-anchor="middle" x="1665.02" y="-75.5" font-family="Helvetica,sans-Serif" font-size="10.00">cstdint</text>
</g>
<!-- Node5&#45;&gt;Node6 -->
<g id="edge6" class="edge"><title>Node5&#45;&gt;Node6</title>
<path fill="none" stroke="midnightblue" d="M1487.46,-124.444C1527.03,-114.315 1592.52,-97.5546 1631.94,-87.466"/>
<polygon fill="midnightblue" stroke="midnightblue" points="1633.03,-90.8009 1641.85,-84.9308 1631.3,-84.0195 1633.03,-90.8009"/>
</g>
<!-- Node5&#45;&gt;Node7 -->
<g id="edge7" class="edge"><title>Node5&#45;&gt;Node7</title>
<path fill="none" stroke="midnightblue" d="M1395.32,-128.419C1256.54,-117.589 911.37,-90.6541 798.429,-81.8408"/>
<polygon fill="midnightblue" stroke="midnightblue" points="798.481,-78.3343 788.239,-81.0456 797.936,-85.3131 798.481,-78.3343"/>
</g>
<!-- Node5&#45;&gt;Node8 -->
<g id="edge8" class="edge"><title>Node5&#45;&gt;Node8</title>
<path fill="none" stroke="midnightblue" d="M1446.92,-124.083C1440.79,-116.377 1431.76,-105.033 1424.29,-95.6531"/>
<polygon fill="midnightblue" stroke="midnightblue" points="1426.96,-93.3936 1417.99,-87.7511 1421.48,-97.7542 1426.96,-93.3936"/>
</g>
<!-- Node5&#45;&gt;Node9 -->
<g id="edge9" class="edge"><title>Node5&#45;&gt;Node9</title>
<path fill="none" stroke="midnightblue" d="M1454.93,-124.281C1456.86,-105.547 1461.46,-61.098 1464.09,-35.6822"/>
<polygon fill="midnightblue" stroke="midnightblue" points="1467.6,-35.8119 1465.14,-25.5048 1460.63,-35.0915 1467.6,-35.8119"/>
</g>
<!-- Node10 -->
<g id="node10" class="node"><title>Node10</title>
<polygon fill="none" stroke="#bfbfbf" points="1492.02,-68.5 1492.02,-87.5 1548.02,-87.5 1548.02,-68.5 1492.02,-68.5"/>
<text text-anchor="middle" x="1520.02" y="-75.5" font-family="Helvetica,sans-Serif" font-size="10.00">algorithm</text>
</g>
<!-- Node5&#45;&gt;Node10 -->
<g id="edge10" class="edge"><title>Node5&#45;&gt;Node10</title>
<path fill="none" stroke="midnightblue" d="M1464.63,-124.324C1474.48,-116.263 1489.38,-104.077 1501.24,-94.3695"/>
<polygon fill="midnightblue" stroke="midnightblue" points="1503.7,-96.8752 1509.23,-87.8339 1499.27,-91.4575 1503.7,-96.8752"/>
</g>
<!-- Node5&#45;&gt;Node11 -->
<g id="edge11" class="edge"><title>Node5&#45;&gt;Node11</title>
<path fill="none" stroke="midnightblue" d="M1435.8,-124.444C1417.13,-115.675 1387.87,-101.935 1366.41,-91.8579"/>
<polygon fill="midnightblue" stroke="midnightblue" points="1367.7,-88.5988 1357.16,-87.5164 1364.73,-94.935 1367.7,-88.5988"/>
</g>
<!-- Node5&#45;&gt;Node12 -->
<g id="edge12" class="edge"><title>Node5&#45;&gt;Node12</title>
<path fill="none" stroke="midnightblue" d="M1474.65,-124.412C1507.64,-110.93 1574.51,-84.6233 1633.02,-68 1709.02,-46.4123 1800.66,-29.7614 1847.39,-21.9255"/>
<polygon fill="midnightblue" stroke="midnightblue" points="1848.16,-25.3443 1857.46,-20.2567 1847.02,-18.4385 1848.16,-25.3443"/>
</g>
<!-- Node13 -->
<g id="node13" class="node"><title>Node13</title>
<g id="a_node13"><a xlink:href="../../dc/d03/MemoryResources_8h.html" target="_top" xlink:title="MemoryResources/MemoryResources.h">
<polygon fill="none" stroke="black" points="972.525,-68.5 972.525,-87.5 1165.52,-87.5 1165.52,-68.5 972.525,-68.5"/>
<text text-anchor="middle" x="1069.02" y="-75.5" font-family="Helvetica,sans-Serif" font-size="10.00">MemoryResources/MemoryResources.h</text>
</a>
</g>
</g>
<!-- Node5&#45;&gt;Node13 -->
<g id="edge13" class="edge"><title>Node5&#45;&gt;Node13</title>
<path fill="none" stroke="midnightblue" d="M1395.13,-124.74C1326.53,-115.118 1213.25,-99.2295 1139.89,-88.9402"/>
<polygon fill="midnightblue" stroke="midnightblue" points="1140.21,-85.4498 1129.82,-87.5268 1139.23,-92.3819 1140.21,-85.4498"/>
</g>
<!-- Node13&#45;&gt;Node9 -->
<g id="edge18" class="edge"><title>Node13&#45;&gt;Node9</title>
<path fill="none" stroke="midnightblue" d="M1165.94,-68.526C1256.67,-59.964 1385.33,-46.03 1434.02,-32 1436.31,-31.3407 1438.64,-30.5366 1440.95,-29.6466"/>
<polygon fill="midnightblue" stroke="midnightblue" points="1442.35,-32.8523 1450.13,-25.6566 1439.56,-26.4323 1442.35,-32.8523"/>
</g>
<!-- Node13&#45;&gt;Node12 -->
<g id="edge19" class="edge"><title>Node13&#45;&gt;Node12</title>
<path fill="none" stroke="midnightblue" d="M1165.81,-69.8222C1348.25,-56.2909 1734.81,-27.6215 1846.93,-19.3058"/>
<polygon fill="midnightblue" stroke="midnightblue" points="1847.49,-22.7743 1857.2,-18.5441 1846.97,-15.7934 1847.49,-22.7743"/>
</g>
<!-- Node14 -->
<g id="node14" class="node"><title>Node14</title>
<polygon fill="none" stroke="#bfbfbf" points="1017.02,-1 1017.02,-31 1117.02,-31 1117.02,-1 1017.02,-1"/>
<text text-anchor="start" x="1025.02" y="-19" font-family="Helvetica,sans-Serif" font-size="10.00">boost/container/flat</text>
<text text-anchor="middle" x="1067.02" y="-8" font-family="Helvetica,sans-Serif" font-size="10.00">_map.hpp</text>
</g>
<!-- Node13&#45;&gt;Node14 -->
<g id="edge14" class="edge"><title>Node13&#45;&gt;Node14</title>
<path fill="none" stroke="midnightblue" d="M1068.74,-68.4035C1068.5,-61.3405 1068.16,-50.975 1067.84,-41.399"/>
<polygon fill="midnightblue" stroke="midnightblue" points="1071.33,-41.0186 1067.5,-31.1408 1064.33,-41.2519 1071.33,-41.0186"/>
</g>
<!-- Node15 -->
<g id="node15" class="node"><title>Node15</title>
<polygon fill="none" stroke="#bfbfbf" points="1135.02,-1 1135.02,-31 1251.02,-31 1251.02,-1 1135.02,-1"/>
<text text-anchor="start" x="1143.02" y="-19" font-family="Helvetica,sans-Serif" font-size="10.00">boost/container/pmr</text>
<text text-anchor="middle" x="1193.02" y="-8" font-family="Helvetica,sans-Serif" font-size="10.00">/memory_resource.hpp</text>
</g>
<!-- Node13&#45;&gt;Node15 -->
<g id="edge15" class="edge"><title>Node13&#45;&gt;Node15</title>
<path fill="none" stroke="midnightblue" d="M1086.79,-68.4035C1104.45,-59.8596 1132.09,-46.483 1154.76,-35.5171"/>
<polygon fill="midnightblue" stroke="midnightblue" points="1156.32,-38.647 1163.8,-31.1408 1153.27,-32.3459 1156.32,-38.647"/>
</g>
<!-- Node16 -->
<g id="node16" class="node"><title>Node16</title>
<polygon fill="none" stroke="#bfbfbf" points="1269.02,-1 1269.02,-31 1425.02,-31 1425.02,-1 1269.02,-1"/>
<text text-anchor="start" x="1277.02" y="-19" font-family="Helvetica,sans-Serif" font-size="10.00">boost/container/pmr</text>
<text text-anchor="middle" x="1347.02" y="-8" font-family="Helvetica,sans-Serif" font-size="10.00">/monotonic_buffer_resource.hpp</text>
</g>
<!-- Node13&#45;&gt;Node16 -->
<g id="edge16" class="edge"><title>Node13&#45;&gt;Node16</title>
<path fill="none" stroke="midnightblue" d="M1108.56,-68.4672C1150.95,-59.3184 1219.25,-44.5763 1271.92,-33.2097"/>
<polygon fill="midnightblue" stroke="midnightblue" points="1272.86,-36.5875 1281.9,-31.0565 1271.38,-29.7451 1272.86,-36.5875"/>
</g>
<!-- Node17 -->
<g id="node17" class="node"><title>Node17</title>
<polygon fill="none" stroke="#bfbfbf" points="542.525,-1 542.525,-31 675.525,-31 675.525,-1 542.525,-1"/>
<text text-anchor="start" x="550.525" y="-19" font-family="Helvetica,sans-Serif" font-size="10.00">boost/container/pmr</text>
<text text-anchor="middle" x="609.025" y="-8" font-family="Helvetica,sans-Serif" font-size="10.00">/polymorphic_allocator.hpp</text>
</g>
<!-- Node13&#45;&gt;Node17 -->
<g id="edge17" class="edge"><title>Node13&#45;&gt;Node17</title>
<path fill="none" stroke="midnightblue" d="M979.138,-68.4736C903.505,-60.8352 792.297,-48.5227 685.672,-32.0235"/>
<polygon fill="midnightblue" stroke="midnightblue" points="686.121,-28.5512 675.7,-30.466 685.04,-35.4674 686.121,-28.5512"/>
</g>
<!-- Node13&#45;&gt;Node18 -->
<g id="edge20" class="edge"><title>Node13&#45;&gt;Node18</title>
<path fill="none" stroke="midnightblue" d="M1162.36,-68.4786C1278.72,-57.658 1466.25,-39.4948 1498.02,-32 1501.45,-31.1923 1504.98,-30.1689 1508.45,-29.0374"/>
<polygon fill="midnightblue" stroke="midnightblue" points="1509.73,-32.2971 1517.99,-25.652 1507.39,-25.7008 1509.73,-32.2971"/>
</g>
<!-- Node19 -->
<g id="node19" class="node"><title>Node19</title>
<polygon fill="none" stroke="#bfbfbf" points="694.025,-6.5 694.025,-25.5 734.025,-25.5 734.025,-6.5 694.025,-6.5"/>
<text text-anchor="middle" x="714.025" y="-13.5" font-family="Helvetica,sans-Serif" font-size="10.00">utility</text>
</g>
<!-- Node13&#45;&gt;Node19 -->
<g id="edge21" class="edge"><title>Node13&#45;&gt;Node19</title>
<path fill="none" stroke="midnightblue" d="M972.271,-72.2732C906.394,-66.9783 817.905,-55.7599 743.025,-32 741.161,-31.4085 739.272,-30.7041 737.4,-29.9278"/>
<polygon fill="midnightblue" stroke="midnightblue" points="738.896,-26.7634 728.361,-25.6388 735.895,-33.0876 738.896,-26.7634"/>
</g>
<!-- Node13&#45;&gt;Node20 -->
<g id="edge22" class="edge"><title>Node13&#45;&gt;Node20</title>
<path fill="none" stroke="midnightblue" d="M972.394,-73.1247C841.007,-67.1282 613.186,-53.9447 533.025,-32 530.823,-31.3971 528.588,-30.6404 526.379,-29.789"/>
<polygon fill="midnightblue" stroke="midnightblue" points="527.602,-26.5027 517.043,-25.6352 524.757,-32.8982 527.602,-26.5027"/>
</g>
<!-- Node21 -->
<g id="node21" class="node"><title>Node21</title>
<polygon fill="none" stroke="#bfbfbf" points="2041.52,-6.5 2041.52,-25.5 2124.52,-25.5 2124.52,-6.5 2041.52,-6.5"/>
<text text-anchor="middle" x="2083.02" y="-13.5" font-family="Helvetica,sans-Serif" font-size="10.00">unordered_map</text>
</g>
<!-- Node13&#45;&gt;Node21 -->
<g id="edge23" class="edge"><title>Node13&#45;&gt;Node21</title>
<path fill="none" stroke="midnightblue" d="M1165.55,-72.8023C1321.53,-65.7967 1638.68,-50.6355 1907.02,-32 1948.93,-29.0898 1996.38,-24.9994 2031.44,-21.825"/>
<polygon fill="midnightblue" stroke="midnightblue" points="2031.81,-25.3065 2041.45,-20.9137 2031.17,-18.3354 2031.81,-25.3065"/>
</g>
<!-- Node22 -->
<g id="node22" class="node"><title>Node22</title>
<polygon fill="none" stroke="#bfbfbf" points="752.525,-6.5 752.525,-25.5 849.525,-25.5 849.525,-6.5 752.525,-6.5"/>
<text text-anchor="middle" x="801.025" y="-13.5" font-family="Helvetica,sans-Serif" font-size="10.00">FairMQMessage.h</text>
</g>
<!-- Node13&#45;&gt;Node22 -->
<g id="edge24" class="edge"><title>Node13&#45;&gt;Node22</title>
<path fill="none" stroke="midnightblue" d="M1026.05,-68.4548C983.324,-59.8115 915.96,-45.7929 858.025,-32 852.929,-30.7869 847.593,-29.4592 842.315,-28.1113"/>
<polygon fill="midnightblue" stroke="midnightblue" points="842.876,-24.641 832.317,-25.5189 841.119,-31.4169 842.876,-24.641"/>
</g>
<!-- Node23 -->
<g id="node23" class="node"><title>Node23</title>
<polygon fill="none" stroke="#bfbfbf" points="867.525,-6.5 867.525,-25.5 998.525,-25.5 998.525,-6.5 867.525,-6.5"/>
<text text-anchor="middle" x="933.025" y="-13.5" font-family="Helvetica,sans-Serif" font-size="10.00">FairMQTransportFactory.h</text>
</g>
<!-- Node13&#45;&gt;Node23 -->
<g id="edge25" class="edge"><title>Node13&#45;&gt;Node23</title>
<path fill="none" stroke="midnightblue" d="M1049.54,-68.4035C1026.61,-58.2896 988.34,-41.4036 961.95,-29.761"/>
<polygon fill="midnightblue" stroke="midnightblue" points="963.036,-26.4148 952.474,-25.5806 960.211,-32.8193 963.036,-26.4148"/>
</g>
<!-- Node24&#45;&gt;Node7 -->
<g id="edge34" class="edge"><title>Node24&#45;&gt;Node7</title>
<path fill="none" stroke="midnightblue" d="M490.562,-124.48C550.874,-116.92 639.127,-104.758 725.742,-87.8657"/>
<polygon fill="midnightblue" stroke="midnightblue" points="726.614,-91.2612 735.747,-85.8915 725.259,-84.3936 726.614,-91.2612"/>
</g>
<!-- Node24&#45;&gt;Node13 -->
<g id="edge36" class="edge"><title>Node24&#45;&gt;Node13</title>
<path fill="none" stroke="midnightblue" d="M499.815,-126.216C616.935,-116.501 832.552,-98.6153 962.159,-87.8645"/>
<polygon fill="midnightblue" stroke="midnightblue" points="962.819,-91.3218 972.496,-87.007 962.241,-84.3457 962.819,-91.3218"/>
</g>
<!-- Node25 -->
<g id="node25" class="node"><title>Node25</title>
<polygon fill="none" stroke="#bfbfbf" points="525.525,-68.5 525.525,-87.5 652.525,-87.5 652.525,-68.5 525.525,-68.5"/>
<text text-anchor="middle" x="589.025" y="-75.5" font-family="Helvetica,sans-Serif" font-size="10.00">fairmq/FairMQMessage.h</text>
</g>
<!-- Node24&#45;&gt;Node25 -->
<g id="edge27" class="edge"><title>Node24&#45;&gt;Node25</title>
<path fill="none" stroke="midnightblue" d="M445.12,-124.444C474.013,-115.32 519.949,-100.813 552.13,-90.6509"/>
<polygon fill="midnightblue" stroke="midnightblue" points="553.574,-93.8654 562.056,-87.5164 551.466,-87.1903 553.574,-93.8654"/>
</g>
<!-- Node26 -->
<g id="node26" class="node"><title>Node26</title>
<polygon fill="none" stroke="#bfbfbf" points="670.525,-68.5 670.525,-87.5 717.525,-87.5 717.525,-68.5 670.525,-68.5"/>
<text text-anchor="middle" x="694.025" y="-75.5" font-family="Helvetica,sans-Serif" font-size="10.00">TList.h</text>
</g>
<!-- Node24&#45;&gt;Node26 -->
<g id="edge28" class="edge"><title>Node24&#45;&gt;Node26</title>
<path fill="none" stroke="midnightblue" d="M471.378,-124.432C518.568,-116.558 589.472,-104.007 660.3,-88.0067"/>
<polygon fill="midnightblue" stroke="midnightblue" points="661.321,-91.3638 670.291,-85.7262 659.763,-84.5393 661.321,-91.3638"/>
</g>
<!-- Node27 -->
<g id="node27" class="node"><title>Node27</title>
<polygon fill="none" stroke="#bfbfbf" points="29.5248,-68.5 29.5248,-87.5 100.525,-87.5 100.525,-68.5 29.5248,-68.5"/>
<text text-anchor="middle" x="65.0248" y="-75.5" font-family="Helvetica,sans-Serif" font-size="10.00">TMessage.h</text>
</g>
<!-- Node24&#45;&gt;Node27 -->
<g id="edge29" class="edge"><title>Node24&#45;&gt;Node27</title>
<path fill="none" stroke="midnightblue" d="M351.847,-124.476C291.425,-116.44 199.407,-103.569 110.515,-88.185"/>
<polygon fill="midnightblue" stroke="midnightblue" points="110.986,-84.7143 100.533,-86.4444 109.783,-91.6103 110.986,-84.7143"/>
</g>
<!-- Node28 -->
<g id="node28" class="node"><title>Node28</title>
<polygon fill="none" stroke="#bfbfbf" points="118.525,-68.5 118.525,-87.5 187.525,-87.5 187.525,-68.5 118.525,-68.5"/>
<text text-anchor="middle" x="153.025" y="-75.5" font-family="Helvetica,sans-Serif" font-size="10.00">TObjArray.h</text>
</g>
<!-- Node24&#45;&gt;Node28 -->
<g id="edge30" class="edge"><title>Node24&#45;&gt;Node28</title>
<path fill="none" stroke="midnightblue" d="M375.45,-124.453C332.843,-115.881 265.142,-102.211 197.7,-88.3366"/>
<polygon fill="midnightblue" stroke="midnightblue" points="198.255,-84.8775 187.755,-86.2887 196.843,-91.7337 198.255,-84.8775"/>
</g>
<!-- Node29 -->
<g id="node29" class="node"><title>Node29</title>
<polygon fill="none" stroke="#bfbfbf" points="205.525,-68.5 205.525,-87.5 292.525,-87.5 292.525,-68.5 205.525,-68.5"/>
<text text-anchor="middle" x="249.025" y="-75.5" font-family="Helvetica,sans-Serif" font-size="10.00">TStreamerInfo.h</text>
</g>
<!-- Node24&#45;&gt;Node29 -->
<g id="edge31" class="edge"><title>Node24&#45;&gt;Node29</title>
<path fill="none" stroke="midnightblue" d="M391.246,-124.444C362.692,-115.32 317.292,-100.813 285.488,-90.6509"/>
<polygon fill="midnightblue" stroke="midnightblue" points="286.269,-87.2262 275.678,-87.5164 284.138,-93.8941 286.269,-87.2262"/>
</g>
<!-- Node30 -->
<g id="node30" class="node"><title>Node30</title>
<polygon fill="none" stroke="#bfbfbf" points="310.525,-68.5 310.525,-87.5 373.525,-87.5 373.525,-68.5 310.525,-68.5"/>
<text text-anchor="middle" x="342.025" y="-75.5" font-family="Helvetica,sans-Serif" font-size="10.00">gsl/gsl_util</text>
</g>
<!-- Node24&#45;&gt;Node30 -->
<g id="edge32" class="edge"><title>Node24&#45;&gt;Node30</title>
<path fill="none" stroke="midnightblue" d="M405.814,-124.324C394.249,-116.107 376.649,-103.602 362.864,-93.8069"/>
<polygon fill="midnightblue" stroke="midnightblue" points="364.637,-90.7729 354.458,-87.8339 360.582,-96.4791 364.637,-90.7729"/>
</g>
<!-- Node31 -->
<g id="node31" class="node"><title>Node31</title>
<polygon fill="none" stroke="#bfbfbf" points="391.525,-68.5 391.525,-87.5 444.525,-87.5 444.525,-68.5 391.525,-68.5"/>
<text text-anchor="middle" x="418.025" y="-75.5" font-family="Helvetica,sans-Serif" font-size="10.00">gsl/span</text>
</g>
<!-- Node24&#45;&gt;Node31 -->
<g id="edge33" class="edge"><title>Node24&#45;&gt;Node31</title>
<path fill="none" stroke="midnightblue" d="M418.025,-124.083C418.025,-117.006 418.025,-106.861 418.025,-97.9865"/>
<polygon fill="midnightblue" stroke="midnightblue" points="421.525,-97.751 418.025,-87.7511 414.525,-97.7511 421.525,-97.751"/>
</g>
<!-- Node32 -->
<g id="node32" class="node"><title>Node32</title>
<polygon fill="none" stroke="#bfbfbf" points="463.025,-68.5 463.025,-87.5 507.025,-87.5 507.025,-68.5 463.025,-68.5"/>
<text text-anchor="middle" x="485.025" y="-75.5" font-family="Helvetica,sans-Serif" font-size="10.00">mutex</text>
</g>
<!-- Node24&#45;&gt;Node32 -->
<g id="edge35" class="edge"><title>Node24&#45;&gt;Node32</title>
<path fill="none" stroke="midnightblue" d="M428.789,-124.324C438.791,-116.263 453.911,-104.077 465.955,-94.3695"/>
<polygon fill="midnightblue" stroke="midnightblue" points="468.475,-96.8343 474.064,-87.8339 464.082,-91.3841 468.475,-96.8343"/>
</g>
<!-- Node33&#45;&gt;Node34 -->
<g id="edge38" class="edge"><title>Node33&#45;&gt;Node34</title>
<path fill="none" stroke="midnightblue" d="M1022.73,-180.444C979.465,-171.023 909.852,-155.866 863.051,-145.675"/>
<polygon fill="midnightblue" stroke="midnightblue" points="863.653,-142.224 853.137,-143.516 862.164,-149.064 863.653,-142.224"/>
</g>
<!-- Node34&#45;&gt;Node7 -->
<g id="edge41" class="edge"><title>Node34&#45;&gt;Node7</title>
<path fill="none" stroke="midnightblue" d="M805.438,-124.083C797.866,-116.22 786.647,-104.569 777.51,-95.0813"/>
<polygon fill="midnightblue" stroke="midnightblue" points="779.909,-92.5266 770.452,-87.7511 774.867,-97.3821 779.909,-92.5266"/>
</g>
<!-- Node34&#45;&gt;Node18 -->
<g id="edge39" class="edge"><title>Node34&#45;&gt;Node18</title>
<path fill="none" stroke="midnightblue" d="M875.607,-129.517C947.897,-124.464 1071,-112.836 1174.02,-88 1199.31,-81.9041 1203.77,-74.2056 1229.02,-68 1346.16,-39.222 1381.03,-61.3633 1498.02,-32 1501.44,-31.1435 1504.96,-30.0894 1508.43,-28.9403"/>
<polygon fill="midnightblue" stroke="midnightblue" points="1509.72,-32.1969 1517.96,-25.5356 1507.36,-25.6052 1509.72,-32.1969"/>
</g>
<!-- Node34&#45;&gt;Node20 -->
<g id="edge40" class="edge"><title>Node34&#45;&gt;Node20</title>
<path fill="none" stroke="midnightblue" d="M814.548,-124.306C814.878,-110.183 813.26,-82.3913 797.025,-68 752.717,-28.7246 589.709,-49.1066 533.025,-32 530.885,-31.3544 528.71,-30.5776 526.555,-29.7216"/>
<polygon fill="midnightblue" stroke="midnightblue" points="527.965,-26.5183 517.408,-25.624 525.103,-32.9065 527.965,-26.5183"/>
</g>
<!-- Node38&#45;&gt;Node12 -->
<g id="edge58" class="edge"><title>Node38&#45;&gt;Node12</title>
<path fill="none" stroke="midnightblue" d="M1794.93,-237.528C1841.11,-230.61 1898.25,-218.554 1913.02,-200 1952.44,-150.503 1911.19,-69.8031 1889.53,-34.4833"/>
<polygon fill="midnightblue" stroke="midnightblue" points="1892.33,-32.3648 1884.02,-25.7883 1886.42,-36.1095 1892.33,-32.3648"/>
</g>
<!-- Node39 -->
<g id="node39" class="node"><title>Node39</title>
<g id="a_node39"><a xlink:href="../../d2/dd9/ExpirationHandler_8h.html" target="_top" xlink:title="Framework/ExpirationHandler.h">
<polygon fill="none" stroke="black" points="1506.02,-180.5 1506.02,-199.5 1660.02,-199.5 1660.02,-180.5 1506.02,-180.5"/>
<text text-anchor="middle" x="1583.02" y="-187.5" font-family="Helvetica,sans-Serif" font-size="10.00">Framework/ExpirationHandler.h</text>
</a>
</g>
</g>
<!-- Node38&#45;&gt;Node39 -->
<g id="edge49" class="edge"><title>Node38&#45;&gt;Node39</title>
<path fill="none" stroke="midnightblue" d="M1708.42,-236.444C1683.57,-227.438 1644.25,-213.189 1616.27,-203.049"/>
<polygon fill="midnightblue" stroke="midnightblue" points="1617.12,-199.633 1606.52,-199.516 1614.73,-206.214 1617.12,-199.633"/>
</g>
<!-- Node40 -->
<g id="node40" class="node"><title>Node40</title>
<polygon fill="none" stroke="#bfbfbf" points="1607.52,-124.5 1607.52,-143.5 1666.52,-143.5 1666.52,-124.5 1607.52,-124.5"/>
<text text-anchor="middle" x="1637.02" y="-131.5" font-family="Helvetica,sans-Serif" font-size="10.00">functional</text>
</g>
<!-- Node38&#45;&gt;Node40 -->
<g id="edge59" class="edge"><title>Node38&#45;&gt;Node40</title>
<path fill="none" stroke="midnightblue" d="M1724.57,-236.368C1708.75,-218.055 1671.61,-175.049 1651.16,-151.362"/>
<polygon fill="midnightblue" stroke="midnightblue" points="1653.63,-148.872 1644.44,-143.591 1648.33,-153.447 1653.63,-148.872"/>
</g>
<!-- Node41 -->
<g id="node41" class="node"><title>Node41</title>
<g id="a_node41"><a xlink:href="../../d5/d3f/InputSpec_8h.html" target="_top" xlink:title="Framework/InputSpec.h">
<polygon fill="none" stroke="black" points="1716.52,-180.5 1716.52,-199.5 1837.52,-199.5 1837.52,-180.5 1716.52,-180.5"/>
<text text-anchor="middle" x="1777.02" y="-187.5" font-family="Helvetica,sans-Serif" font-size="10.00">Framework/InputSpec.h</text>
</a>
</g>
</g>
<!-- Node38&#45;&gt;Node41 -->
<g id="edge52" class="edge"><title>Node38&#45;&gt;Node41</title>
<path fill="none" stroke="midnightblue" d="M1739.46,-236.083C1745.88,-228.377 1755.33,-217.033 1763.15,-207.653"/>
<polygon fill="midnightblue" stroke="midnightblue" points="1766.02,-209.674 1769.73,-199.751 1760.64,-205.193 1766.02,-209.674"/>
</g>
<!-- Node44 -->
<g id="node44" class="node"><title>Node44</title>
<polygon fill="none" stroke="#bfbfbf" points="1855.52,-180.5 1855.52,-199.5 1904.52,-199.5 1904.52,-180.5 1855.52,-180.5"/>
<text text-anchor="middle" x="1880.02" y="-187.5" font-family="Helvetica,sans-Serif" font-size="10.00">cstddef</text>
</g>
<!-- Node38&#45;&gt;Node44 -->
<g id="edge57" class="edge"><title>Node38&#45;&gt;Node44</title>
<path fill="none" stroke="midnightblue" d="M1755.48,-236.444C1780.16,-227.438 1819.21,-213.189 1847,-203.049"/>
<polygon fill="midnightblue" stroke="midnightblue" points="1848.49,-206.232 1856.68,-199.516 1846.09,-199.656 1848.49,-206.232"/>
</g>
<!-- Node39&#45;&gt;Node6 -->
<g id="edge50" class="edge"><title>Node39&#45;&gt;Node6</title>
<path fill="none" stroke="midnightblue" d="M1583.06,-180.198C1583.53,-166.889 1586.07,-141.36 1598.02,-124 1607.39,-110.404 1622.32,-99.7916 1635.72,-92.2959"/>
<polygon fill="midnightblue" stroke="midnightblue" points="1637.43,-95.3509 1644.66,-87.6062 1634.18,-89.1519 1637.43,-95.3509"/>
</g>
<!-- Node39&#45;&gt;Node40 -->
<g id="edge51" class="edge"><title>Node39&#45;&gt;Node40</title>
<path fill="none" stroke="midnightblue" d="M1591.94,-180.083C1599.81,-172.22 1611.46,-160.569 1620.94,-151.081"/>
<polygon fill="midnightblue" stroke="midnightblue" points="1623.68,-153.297 1628.27,-143.751 1618.73,-148.347 1623.68,-153.297"/>
</g>
<!-- Node41&#45;&gt;Node5 -->
<g id="edge56" class="edge"><title>Node41&#45;&gt;Node5</title>
<path fill="none" stroke="midnightblue" d="M1725.84,-180.444C1668.55,-170.865 1575.78,-155.356 1514.84,-145.167"/>
<polygon fill="midnightblue" stroke="midnightblue" points="1515.41,-141.713 1504.97,-143.516 1514.25,-148.618 1515.41,-141.713"/>
</g>
<!-- Node41&#45;&gt;Node12 -->
<g id="edge53" class="edge"><title>Node41&#45;&gt;Node12</title>
<path fill="none" stroke="midnightblue" d="M1757.37,-180.472C1734.4,-169.186 1701.08,-147.907 1714.02,-124 1742.4,-71.6126 1808.78,-40.8076 1847.83,-26.5858"/>
<polygon fill="midnightblue" stroke="midnightblue" points="1849.09,-29.8549 1857.37,-23.2455 1846.77,-23.2485 1849.09,-29.8549"/>
</g>
<!-- Node42 -->
<g id="node42" class="node"><title>Node42</title>
<polygon fill="none" stroke="#bfbfbf" points="1853.02,-124.5 1853.02,-143.5 1905.02,-143.5 1905.02,-124.5 1853.02,-124.5"/>
<text text-anchor="middle" x="1879.02" y="-131.5" font-family="Helvetica,sans-Serif" font-size="10.00">ostream</text>
</g>
<!-- Node41&#45;&gt;Node42 -->
<g id="edge54" class="edge"><title>Node41&#45;&gt;Node42</title>
<path fill="none" stroke="midnightblue" d="M1793.41,-180.324C1809.7,-171.703 1834.89,-158.364 1853.74,-148.386"/>
<polygon fill="midnightblue" stroke="midnightblue" points="1855.48,-151.427 1862.68,-143.655 1852.2,-145.24 1855.48,-151.427"/>
</g>
<!-- Node43 -->
<g id="node43" class="node"><title>Node43</title>
<g id="a_node43"><a xlink:href="../../dc/dca/Lifetime_8h.html" target="_top" xlink:title="Framework/Lifetime.h">
<polygon fill="none" stroke="black" points="1723.52,-124.5 1723.52,-143.5 1834.52,-143.5 1834.52,-124.5 1723.52,-124.5"/>
<text text-anchor="middle" x="1779.02" y="-131.5" font-family="Helvetica,sans-Serif" font-size="10.00">Framework/Lifetime.h</text>
</a>
</g>
</g>
<!-- Node41&#45;&gt;Node43 -->
<g id="edge55" class="edge"><title>Node41&#45;&gt;Node43</title>
<path fill="none" stroke="midnightblue" d="M1777.36,-180.083C1777.62,-173.006 1777.99,-162.861 1778.32,-153.986"/>
<polygon fill="midnightblue" stroke="midnightblue" points="1781.83,-153.874 1778.7,-143.751 1774.83,-153.615 1781.83,-153.874"/>
</g>
<!-- Node46&#45;&gt;Node7 -->
<g id="edge63" class="edge"><title>Node46&#45;&gt;Node7</title>
<path fill="none" stroke="midnightblue" d="M468.568,-236.277C478.227,-213.685 507.318,-153.018 552.025,-124 615.678,-82.6844 646.577,-103.763 725.802,-87.8428"/>
<polygon fill="midnightblue" stroke="midnightblue" points="726.669,-91.2365 735.709,-85.7111 725.196,-84.3931 726.669,-91.2365"/>
</g>
<!-- Node49&#45;&gt;Node12 -->
<g id="edge75" class="edge"><title>Node49&#45;&gt;Node12</title>
<path fill="none" stroke="midnightblue" d="M2093.66,-180.321C2086.28,-171.46 2074.81,-157.176 2066.02,-144 2044.5,-111.708 2052.78,-92.9144 2023.02,-68 1989.75,-40.1419 1940.24,-27.0971 1908.55,-21.2871"/>
<polygon fill="midnightblue" stroke="midnightblue" points="1908.98,-17.8099 1898.53,-19.5831 1907.8,-24.7108 1908.98,-17.8099"/>
</g>
<!-- Node49&#45;&gt;Node18 -->
<g id="edge76" class="edge"><title>Node49&#45;&gt;Node18</title>
<path fill="none" stroke="midnightblue" d="M2077.85,-180.462C2042.65,-167.607 1973.51,-142.786 1914.02,-124 1793.12,-85.8189 1648.45,-46.383 1579.08,-27.8556"/>
<polygon fill="midnightblue" stroke="midnightblue" points="1579.97,-24.47 1569.4,-25.2764 1578.16,-31.2339 1579.97,-24.47"/>
</g>
<!-- Node49&#45;&gt;Node21 -->
<g id="edge78" class="edge"><title>Node49&#45;&gt;Node21</title>
<path fill="none" stroke="midnightblue" d="M2110.31,-180.395C2118.61,-172.025 2130.17,-158.483 2135.02,-144 2137.85,-135.572 2137.02,-132.662 2135.02,-124 2127.23,-90.1169 2107.2,-54.5276 2094.4,-34.1274"/>
<polygon fill="midnightblue" stroke="midnightblue" points="2097.29,-32.1584 2088.94,-25.645 2091.41,-35.9478 2097.29,-32.1584"/>
</g>
<!-- Node49&#45;&gt;Node40 -->
<g id="edge74" class="edge"><title>Node49&#45;&gt;Node40</title>
<path fill="none" stroke="midnightblue" d="M2027.91,-180.512C1950.1,-171.474 1823.37,-156.747 1714.02,-144 1701.93,-142.59 1688.76,-141.052 1676.79,-139.653"/>
<polygon fill="midnightblue" stroke="midnightblue" points="1676.98,-136.151 1666.64,-138.466 1676.17,-143.104 1676.98,-136.151"/>
</g>
<!-- Node49&#45;&gt;Node48 -->
<g id="edge73" class="edge"><title>Node49&#45;&gt;Node48</title>
<path fill="none" stroke="midnightblue" d="M2119.02,-180.324C2137.06,-171.625 2165.07,-158.12 2185.83,-148.113"/>
<polygon fill="midnightblue" stroke="midnightblue" points="2187.59,-151.15 2195.07,-143.655 2184.55,-144.845 2187.59,-151.15"/>
</g>
<!-- Node50 -->
<g id="node50" class="node"><title>Node50</title>
<polygon fill="none" stroke="#bfbfbf" points="2075.52,-124.5 2075.52,-143.5 2126.52,-143.5 2126.52,-124.5 2075.52,-124.5"/>
<text text-anchor="middle" x="2101.02" y="-131.5" font-family="Helvetica,sans-Serif" font-size="10.00">typeinfo</text>
</g>
<!-- Node49&#45;&gt;Node50 -->
<g id="edge77" class="edge"><title>Node49&#45;&gt;Node50</title>
<path fill="none" stroke="midnightblue" d="M2101.02,-180.083C2101.02,-173.006 2101.02,-162.861 2101.02,-153.986"/>
<polygon fill="midnightblue" stroke="midnightblue" points="2104.52,-153.751 2101.02,-143.751 2097.52,-153.751 2104.52,-153.751"/>
</g>
</g>
</svg>
