<?xml version="1.0" encoding="UTF-8" standalone="no"?>
<!DOCTYPE svg PUBLIC "-//W3C//DTD SVG 1.1//EN"
 "http://www.w3.org/Graphics/SVG/1.1/DTD/svg11.dtd">
<!-- Generated by graphviz version 2.36.0 (20140111.2315)
 -->
<!-- Title: /home/travis/build/AliceO2Group/AliceO2/Common/Field/include/Field/MagFieldFast.h Pages: 1 -->
<!--zoomable 320 -->
<svg id="main" version="1.1" xmlns="http://www.w3.org/2000/svg" xmlns:xlink="http://www.w3.org/1999/xlink" xml:space="preserve" onload="init(evt)">
<style type="text/css"><![CDATA[
.edge:hover path { stroke: red; }
.edge:hover polygon { stroke: red; fill: red; }
]]></style>
<script type="text/javascript"><![CDATA[
var edges = document.getElementsByTagName('g');
if (edges && edges.length) {
  for (var i=0;i<edges.length;i++) {
    if (edges[i].id.substr(0,4)=='edge') {
      edges[i].setAttribute('class','edge');
    }
  }
}
]]></script>
        <defs>
                <circle id="rim" cx="0" cy="0" r="7"/>
                <circle id="rim2" cx="0" cy="0" r="3.5"/>
                <g id="zoomPlus">
                        <use xlink:href="#rim" fill="#404040">
                                <set attributeName="fill" to="#808080" begin="zoomplus.mouseover" end="zoomplus.mouseout"/>
                        </use>
                        <path d="M-4,0h8M0,-4v8" fill="none" stroke="white" stroke-width="1.5" pointer-events="none"/>
                </g>
                <g id="zoomMin">
                        <use xlink:href="#rim" fill="#404040">
                                <set attributeName="fill" to="#808080" begin="zoomminus.mouseover" end="zoomminus.mouseout"/>
                        </use>
                        <path d="M-4,0h8" fill="none" stroke="white" stroke-width="1.5" pointer-events="none"/>
                </g>
                <g id="dirArrow">
                        <path fill="none" stroke="white" stroke-width="1.5" d="M0,-3.0v7 M-2.5,-0.5L0,-3.0L2.5,-0.5"/>
                </g>
               <g id="resetDef">
                       <use xlink:href="#rim2" fill="#404040">
                               <set attributeName="fill" to="#808080" begin="reset.mouseover" end="reset.mouseout"/>
                       </use>
               </g>
        </defs>

<script type="text/javascript">
var viewWidth = 4621;
var viewHeight = 320;
var sectionId = 'dynsection-1';
</script>
<script xlink:href="../../svgpan.js"/>
<svg id="graph" class="graph">
<g id="viewport">
<title>/home/travis/build/AliceO2Group/AliceO2/Common/Field/include/Field/MagFieldFast.h</title>
<!-- Node1 -->
<g id="node1" class="node"><title>Node1</title>
<polygon fill="#bfbfbf" stroke="black" points="378,-259 378,-311 496,-311 496,-259 378,-259"/>
<text text-anchor="start" x="386" y="-299" font-family="Helvetica,sans-Serif" font-size="10.00">/home/travis/build</text>
<text text-anchor="start" x="386" y="-288" font-family="Helvetica,sans-Serif" font-size="10.00">/AliceO2Group/AliceO2</text>
<text text-anchor="start" x="386" y="-277" font-family="Helvetica,sans-Serif" font-size="10.00">/Common/Field/include</text>
<text text-anchor="middle" x="437" y="-266" font-family="Helvetica,sans-Serif" font-size="10.00">/Field/MagFieldFast.h</text>
</g>
<!-- Node2 -->
<g id="node2" class="node"><title>Node2</title>
<g id="a_node2"><a xlink:href="../../db/d4b/MagneticField_8h.html" target="_top" xlink:title="Definition of the MagF class. ">
<polygon fill="none" stroke="black" points="2119,-169 2119,-221 2237,-221 2237,-169 2119,-169"/>
<text text-anchor="start" x="2127" y="-209" font-family="Helvetica,sans-Serif" font-size="10.00">/home/travis/build</text>
<text text-anchor="start" x="2127" y="-198" font-family="Helvetica,sans-Serif" font-size="10.00">/AliceO2Group/AliceO2</text>
<text text-anchor="start" x="2127" y="-187" font-family="Helvetica,sans-Serif" font-size="10.00">/Common/Field/include</text>
<text text-anchor="middle" x="2178" y="-176" font-family="Helvetica,sans-Serif" font-size="10.00">/Field/MagneticField.h</text>
</a>
</g>
</g>
<!-- Node1&#45;&gt;Node2 -->
<g id="edge1" class="edge"><title>Node1&#45;&gt;Node2</title>
<path fill="none" stroke="midnightblue" d="M506.306,-280.497C789.33,-266.191 1854.93,-212.33 2118.68,-198.999"/>
<polygon fill="midnightblue" stroke="midnightblue" points="505.985,-277.009 496.174,-281.009 506.338,-284 505.985,-277.009"/>
</g>
<!-- Node7 -->
<g id="node7" class="node"><title>Node7</title>
<g id="a_node7"><a xlink:href="../../d6/dda/testMagneticField_8cxx.html" target="_top" xlink:title="/home/travis/build\l/AliceO2Group/AliceO2\l/Common/Field/test/testMagnetic\lField.cxx">
<polygon fill="none" stroke="black" points="0,-79 0,-131 162,-131 162,-79 0,-79"/>
<text text-anchor="start" x="8" y="-119" font-family="Helvetica,sans-Serif" font-size="10.00">/home/travis/build</text>
<text text-anchor="start" x="8" y="-108" font-family="Helvetica,sans-Serif" font-size="10.00">/AliceO2Group/AliceO2</text>
<text text-anchor="start" x="8" y="-97" font-family="Helvetica,sans-Serif" font-size="10.00">/Common/Field/test/testMagnetic</text>
<text text-anchor="middle" x="81" y="-86" font-family="Helvetica,sans-Serif" font-size="10.00">Field.cxx</text>
</a>
</g>
</g>
<!-- Node1&#45;&gt;Node7 -->
<g id="edge36" class="edge"><title>Node1&#45;&gt;Node7</title>
<path fill="none" stroke="midnightblue" d="M377.734,-254.367C308.785,-219.892 196.14,-163.57 131.283,-131.141"/>
<polygon fill="midnightblue" stroke="midnightblue" points="376.239,-257.533 386.749,-258.874 379.37,-251.272 376.239,-257.533"/>
</g>
<!-- Node9 -->
<g id="node9" class="node"><title>Node9</title>
<g id="a_node9"><a xlink:href="../../d8/dee/Propagator_8cxx.html" target="_top" xlink:title="/home/travis/build\l/AliceO2Group/AliceO2\l/Detectors/Base/src/Propagator.cxx">
<polygon fill="none" stroke="black" points="180.5,-84.5 180.5,-125.5 353.5,-125.5 353.5,-84.5 180.5,-84.5"/>
<text text-anchor="start" x="188.5" y="-113.5" font-family="Helvetica,sans-Serif" font-size="10.00">/home/travis/build</text>
<text text-anchor="start" x="188.5" y="-102.5" font-family="Helvetica,sans-Serif" font-size="10.00">/AliceO2Group/AliceO2</text>
<text text-anchor="middle" x="267" y="-91.5" font-family="Helvetica,sans-Serif" font-size="10.00">/Detectors/Base/src/Propagator.cxx</text>
</a>
</g>
</g>
<!-- Node1&#45;&gt;Node9 -->
<g id="edge37" class="edge"><title>Node1&#45;&gt;Node9</title>
<path fill="none" stroke="midnightblue" d="M405.833,-251.366C370.659,-214.538 314.587,-155.827 285.642,-125.52"/>
<polygon fill="midnightblue" stroke="midnightblue" points="403.566,-254.06 413.004,-258.874 408.628,-249.225 403.566,-254.06"/>
</g>
<!-- Node11 -->
<g id="node11" class="node"><title>Node11</title>
<g id="a_node11"><a xlink:href="../../dc/d59/MatchTPCITS_8cxx.html" target="_top" xlink:title="/home/travis/build\l/AliceO2Group/AliceO2\l/Detectors/GlobalTracking\l/src/MatchTPCITS.cxx">
<polygon fill="none" stroke="black" points="371.5,-79 371.5,-131 502.5,-131 502.5,-79 371.5,-79"/>
<text text-anchor="start" x="379.5" y="-119" font-family="Helvetica,sans-Serif" font-size="10.00">/home/travis/build</text>
<text text-anchor="start" x="379.5" y="-108" font-family="Helvetica,sans-Serif" font-size="10.00">/AliceO2Group/AliceO2</text>
<text text-anchor="start" x="379.5" y="-97" font-family="Helvetica,sans-Serif" font-size="10.00">/Detectors/GlobalTracking</text>
<text text-anchor="middle" x="437" y="-86" font-family="Helvetica,sans-Serif" font-size="10.00">/src/MatchTPCITS.cxx</text>
</a>
</g>
</g>
<!-- Node1&#45;&gt;Node11 -->
<g id="edge38" class="edge"><title>Node1&#45;&gt;Node11</title>
<path fill="none" stroke="midnightblue" d="M437,-248.717C437,-214.052 437,-162.016 437,-131.285"/>
<polygon fill="midnightblue" stroke="midnightblue" points="433.5,-248.874 437,-258.874 440.5,-248.875 433.5,-248.874"/>
</g>
<!-- Node34 -->
<g id="node34" class="node"><title>Node34</title>
<g id="a_node34"><a xlink:href="../../d7/dd5/MagFieldFast_8cxx.html" target="_top" xlink:title="Implementation of the fast magnetic field parametrization MagFieldFast. ">
<polygon fill="none" stroke="black" points="2255.5,-174.5 2255.5,-215.5 2436.5,-215.5 2436.5,-174.5 2255.5,-174.5"/>
<text text-anchor="start" x="2263.5" y="-203.5" font-family="Helvetica,sans-Serif" font-size="10.00">/home/travis/build</text>
<text text-anchor="start" x="2263.5" y="-192.5" font-family="Helvetica,sans-Serif" font-size="10.00">/AliceO2Group/AliceO2</text>
<text text-anchor="middle" x="2346" y="-181.5" font-family="Helvetica,sans-Serif" font-size="10.00">/Common/Field/src/MagFieldFast.cxx</text>
</a>
</g>
</g>
<!-- Node1&#45;&gt;Node34 -->
<g id="edge35" class="edge"><title>Node1&#45;&gt;Node34</title>
<path fill="none" stroke="midnightblue" d="M506.441,-283.661C795.082,-281.939 1900.99,-272.138 2246,-222 2256.83,-220.426 2268.17,-218.126 2279.18,-215.536"/>
<polygon fill="midnightblue" stroke="midnightblue" points="506.097,-280.163 496.118,-283.722 506.138,-287.163 506.097,-280.163"/>
</g>
<!-- Node3 -->
<g id="node3" class="node"><title>Node3</title>
<g id="a_node3"><a xlink:href="../../da/d34/MagFieldFact_8h.html" target="_top" xlink:title="Definition of the MagFieldFact: factory for ALIDE mag. field from MagFieldParam. ">
<polygon fill="none" stroke="black" points="3225,-79 3225,-131 3343,-131 3343,-79 3225,-79"/>
<text text-anchor="start" x="3233" y="-119" font-family="Helvetica,sans-Serif" font-size="10.00">/home/travis/build</text>
<text text-anchor="start" x="3233" y="-108" font-family="Helvetica,sans-Serif" font-size="10.00">/AliceO2Group/AliceO2</text>
<text text-anchor="start" x="3233" y="-97" font-family="Helvetica,sans-Serif" font-size="10.00">/Common/Field/include</text>
<text text-anchor="middle" x="3284" y="-86" font-family="Helvetica,sans-Serif" font-size="10.00">/Field/MagFieldFact.h</text>
</a>
</g>
</g>
<!-- Node2&#45;&gt;Node3 -->
<g id="edge2" class="edge"><title>Node2&#45;&gt;Node3</title>
<path fill="none" stroke="midnightblue" d="M2246.69,-168.062C2246.8,-168.041 2246.9,-168.021 2247,-168 2667.3,-83.3083 2789.95,-212.863 3211,-132 3215.49,-131.137 3220.08,-130.045 3224.66,-128.8"/>
<polygon fill="midnightblue" stroke="midnightblue" points="2246.03,-164.623 2237.11,-170.342 2247.65,-171.433 2246.03,-164.623"/>
</g>
<!-- Node4 -->
<g id="node4" class="node"><title>Node4</title>
<g id="a_node4"><a xlink:href="../../d0/dec/MagFieldFact_8cxx.html" target="_top" xlink:title="/home/travis/build\l/AliceO2Group/AliceO2\l/Common/Field/src/MagFieldFact.cxx">
<polygon fill="none" stroke="black" points="3149.5,-0.5 3149.5,-41.5 3330.5,-41.5 3330.5,-0.5 3149.5,-0.5"/>
<text text-anchor="start" x="3157.5" y="-29.5" font-family="Helvetica,sans-Serif" font-size="10.00">/home/travis/build</text>
<text text-anchor="start" x="3157.5" y="-18.5" font-family="Helvetica,sans-Serif" font-size="10.00">/AliceO2Group/AliceO2</text>
<text text-anchor="middle" x="3240" y="-7.5" font-family="Helvetica,sans-Serif" font-size="10.00">/Common/Field/src/MagFieldFact.cxx</text>
</a>
</g>
</g>
<!-- Node2&#45;&gt;Node4 -->
<g id="edge4" class="edge"><title>Node2&#45;&gt;Node4</title>
<path fill="none" stroke="midnightblue" d="M2246.69,-168.062C2246.8,-168.041 2246.9,-168.021 2247,-168 2348.36,-147.504 3088.55,-185.582 3177,-132 3194.13,-121.623 3218.74,-70.4034 3231.54,-41.659"/>
<polygon fill="midnightblue" stroke="midnightblue" points="2246.02,-164.624 2237.11,-170.348 2247.65,-171.433 2246.02,-164.624"/>
</g>
<!-- Node5 -->
<g id="node5" class="node"><title>Node5</title>
<g id="a_node5"><a xlink:href="../../df/d54/MagFieldParam_8cxx.html" target="_top" xlink:title="Implementation of the MagFieldParam class. ">
<polygon fill="none" stroke="black" points="3361,-84.5 3361,-125.5 3551,-125.5 3551,-84.5 3361,-84.5"/>
<text text-anchor="start" x="3369" y="-113.5" font-family="Helvetica,sans-Serif" font-size="10.00">/home/travis/build</text>
<text text-anchor="start" x="3369" y="-102.5" font-family="Helvetica,sans-Serif" font-size="10.00">/AliceO2Group/AliceO2</text>
<text text-anchor="middle" x="3456" y="-91.5" font-family="Helvetica,sans-Serif" font-size="10.00">/Common/Field/src/MagFieldParam.cxx</text>
</a>
</g>
</g>
<!-- Node2&#45;&gt;Node5 -->
<g id="edge5" class="edge"><title>Node2&#45;&gt;Node5</title>
<path fill="none" stroke="midnightblue" d="M2246.69,-168.061C2246.8,-168.041 2246.9,-168.02 2247,-168 2487.96,-120.042 3108.68,-165.985 3352,-132 3363.24,-130.43 3375.03,-128.131 3386.47,-125.541"/>
<polygon fill="midnightblue" stroke="midnightblue" points="2246.03,-164.621 2237.1,-170.323 2247.64,-171.434 2246.03,-164.621"/>
</g>
<!-- Node6 -->
<g id="node6" class="node"><title>Node6</title>
<g id="a_node6"><a xlink:href="../../d2/d78/MagneticField_8cxx.html" target="_top" xlink:title="/home/travis/build\l/AliceO2Group/AliceO2\l/Common/Field/src/MagneticField.cxx">
<polygon fill="none" stroke="black" points="3569,-84.5 3569,-125.5 3751,-125.5 3751,-84.5 3569,-84.5"/>
<text text-anchor="start" x="3577" y="-113.5" font-family="Helvetica,sans-Serif" font-size="10.00">/home/travis/build</text>
<text text-anchor="start" x="3577" y="-102.5" font-family="Helvetica,sans-Serif" font-size="10.00">/AliceO2Group/AliceO2</text>
<text text-anchor="middle" x="3660" y="-91.5" font-family="Helvetica,sans-Serif" font-size="10.00">/Common/Field/src/MagneticField.cxx</text>
</a>
</g>
</g>
<!-- Node2&#45;&gt;Node6 -->
<g id="edge6" class="edge"><title>Node2&#45;&gt;Node6</title>
<path fill="none" stroke="midnightblue" d="M2246.69,-168.061C2246.8,-168.04 2246.9,-168.02 2247,-168 2533.42,-111.761 3271,-172.988 3560,-132 3570.92,-130.451 3582.37,-128.145 3593.46,-125.537"/>
<polygon fill="midnightblue" stroke="midnightblue" points="2246.04,-164.619 2237.1,-170.303 2247.63,-171.435 2246.04,-164.619"/>
</g>
<!-- Node2&#45;&gt;Node7 -->
<g id="edge7" class="edge"><title>Node2&#45;&gt;Node7</title>
<path fill="none" stroke="midnightblue" d="M2108.64,-194.182C1800.79,-194.634 556.191,-192.605 171,-132 168.108,-131.545 165.178,-131.025 162.229,-130.453"/>
<polygon fill="midnightblue" stroke="midnightblue" points="2108.78,-197.682 2118.77,-194.166 2108.76,-190.682 2108.78,-197.682"/>
</g>
<!-- Node8 -->
<g id="node8" class="node"><title>Node8</title>
<g id="a_node8"><a xlink:href="../../d3/dee/Base_2src_2Detector_8cxx.html" target="_top" xlink:title="/home/travis/build\l/AliceO2Group/AliceO2\l/Detectors/Base/src/Detector.cxx">
<polygon fill="none" stroke="black" points="3769,-84.5 3769,-125.5 3933,-125.5 3933,-84.5 3769,-84.5"/>
<text text-anchor="start" x="3777" y="-113.5" font-family="Helvetica,sans-Serif" font-size="10.00">/home/travis/build</text>
<text text-anchor="start" x="3777" y="-102.5" font-family="Helvetica,sans-Serif" font-size="10.00">/AliceO2Group/AliceO2</text>
<text text-anchor="middle" x="3851" y="-91.5" font-family="Helvetica,sans-Serif" font-size="10.00">/Detectors/Base/src/Detector.cxx</text>
</a>
</g>
</g>
<!-- Node2&#45;&gt;Node8 -->
<g id="edge8" class="edge"><title>Node2&#45;&gt;Node8</title>
<path fill="none" stroke="midnightblue" d="M2246.69,-168.06C2246.8,-168.04 2246.9,-168.02 2247,-168 2577.13,-103.799 3427.51,-182.606 3760,-132 3770.07,-130.467 3780.6,-128.152 3790.78,-125.523"/>
<polygon fill="midnightblue" stroke="midnightblue" points="2246.05,-164.617 2237.1,-170.289 2247.63,-171.435 2246.05,-164.617"/>
</g>
<!-- Node2&#45;&gt;Node9 -->
<g id="edge9" class="edge"><title>Node2&#45;&gt;Node9</title>
<path fill="none" stroke="midnightblue" d="M2108.31,-193.763C1818.66,-192.445 708.893,-184.035 363,-132 352.584,-130.433 341.682,-128.137 331.115,-125.547"/>
<polygon fill="midnightblue" stroke="midnightblue" points="2108.66,-197.264 2118.67,-193.808 2108.69,-190.264 2108.66,-197.264"/>
</g>
<!-- Node10 -->
<g id="node10" class="node"><title>Node10</title>
<g id="a_node10"><a xlink:href="../../d3/d85/Detectors_2EMCAL_2testsimulation_2run__sim__emcal_8C.html" target="_top" xlink:title="/home/travis/build\l/AliceO2Group/AliceO2\l/Detectors/EMCAL/testsimulation\l/run_sim_emcal.C">
<polygon fill="none" stroke="black" points="3951,-79 3951,-131 4115,-131 4115,-79 3951,-79"/>
<text text-anchor="start" x="3959" y="-119" font-family="Helvetica,sans-Serif" font-size="10.00">/home/travis/build</text>
<text text-anchor="start" x="3959" y="-108" font-family="Helvetica,sans-Serif" font-size="10.00">/AliceO2Group/AliceO2</text>
<text text-anchor="start" x="3959" y="-97" font-family="Helvetica,sans-Serif" font-size="10.00">/Detectors/EMCAL/testsimulation</text>
<text text-anchor="middle" x="4033" y="-86" font-family="Helvetica,sans-Serif" font-size="10.00">/run_sim_emcal.C</text>
</a>
</g>
</g>
<!-- Node2&#45;&gt;Node10 -->
<g id="edge10" class="edge"><title>Node2&#45;&gt;Node10</title>
<path fill="none" stroke="midnightblue" d="M2246.69,-168.06C2246.8,-168.04 2246.9,-168.02 2247,-168 2616.91,-96.5523 3569.47,-188.215 3942,-132 3944.92,-131.559 3947.89,-131.051 3950.87,-130.488"/>
<polygon fill="midnightblue" stroke="midnightblue" points="2246.05,-164.616 2237.1,-170.279 2247.63,-171.436 2246.05,-164.616"/>
</g>
<!-- Node2&#45;&gt;Node11 -->
<g id="edge11" class="edge"><title>Node2&#45;&gt;Node11</title>
<path fill="none" stroke="midnightblue" d="M2108.55,-194.149C1834.2,-194.313 825.512,-190.817 512,-132 508.885,-131.416 505.724,-130.726 502.551,-129.956"/>
<polygon fill="midnightblue" stroke="midnightblue" points="2108.77,-197.648 2118.77,-194.14 2108.77,-190.648 2108.77,-197.648"/>
</g>
<!-- Node12 -->
<g id="node12" class="node"><title>Node12</title>
<g id="a_node12"><a xlink:href="../../d7/dca/CookedTracker_8cxx.html" target="_top" xlink:title="Implementation of the &quot;Cooked Matrix&quot; ITS tracker. ">
<polygon fill="none" stroke="black" points="4133,-79 4133,-131 4319,-131 4319,-79 4133,-79"/>
<text text-anchor="start" x="4141" y="-119" font-family="Helvetica,sans-Serif" font-size="10.00">/home/travis/build</text>
<text text-anchor="start" x="4141" y="-108" font-family="Helvetica,sans-Serif" font-size="10.00">/AliceO2Group/AliceO2</text>
<text text-anchor="start" x="4141" y="-97" font-family="Helvetica,sans-Serif" font-size="10.00">/Detectors/ITSMFT/ITS</text>
<text text-anchor="middle" x="4226" y="-86" font-family="Helvetica,sans-Serif" font-size="10.00">/reconstruction/src/CookedTracker.cxx</text>
</a>
</g>
</g>
<!-- Node2&#45;&gt;Node12 -->
<g id="edge12" class="edge"><title>Node2&#45;&gt;Node12</title>
<path fill="none" stroke="midnightblue" d="M2246.69,-168.059C2246.8,-168.039 2246.9,-168.02 2247,-168 2656.7,-89.3056 3710.57,-187.894 4124,-132 4126.9,-131.608 4129.83,-131.164 4132.79,-130.675"/>
<polygon fill="midnightblue" stroke="midnightblue" points="2246.05,-164.615 2237.09,-170.27 2247.62,-171.436 2246.05,-164.615"/>
</g>
<!-- Node13 -->
<g id="node13" class="node"><title>Node13</title>
<g id="a_node13"><a xlink:href="../../d0/d6b/ITSMFT_2MFT_2simulation_2src_2Detector_8cxx.html" target="_top" xlink:title="/home/travis/build\l/AliceO2Group/AliceO2\l/Detectors/ITSMFT/MFT\l/simulation/src/Detector.cxx">
<polygon fill="none" stroke="black" points="4337,-79 4337,-131 4477,-131 4477,-79 4337,-79"/>
<text text-anchor="start" x="4345" y="-119" font-family="Helvetica,sans-Serif" font-size="10.00">/home/travis/build</text>
<text text-anchor="start" x="4345" y="-108" font-family="Helvetica,sans-Serif" font-size="10.00">/AliceO2Group/AliceO2</text>
<text text-anchor="start" x="4345" y="-97" font-family="Helvetica,sans-Serif" font-size="10.00">/Detectors/ITSMFT/MFT</text>
<text text-anchor="middle" x="4407" y="-86" font-family="Helvetica,sans-Serif" font-size="10.00">/simulation/src/Detector.cxx</text>
</a>
</g>
</g>
<!-- Node2&#45;&gt;Node13 -->
<g id="edge13" class="edge"><title>Node2&#45;&gt;Node13</title>
<path fill="none" stroke="midnightblue" d="M2246.69,-168.059C2246.8,-168.039 2246.9,-168.02 2247,-168 2701.07,-81.2225 3871.05,-208.283 4327,-132 4330.17,-131.47 4333.38,-130.839 4336.61,-130.128"/>
<polygon fill="midnightblue" stroke="midnightblue" points="2246.06,-164.614 2237.09,-170.263 2247.62,-171.437 2246.06,-164.614"/>
</g>
<!-- Node14 -->
<g id="node14" class="node"><title>Node14</title>
<g id="a_node14"><a xlink:href="../../de/da5/FrameStructure_8cxx.html" target="_top" xlink:title="/home/travis/build\l/AliceO2Group/AliceO2\l/Detectors/Passive/src\l/FrameStructure.cxx">
<polygon fill="none" stroke="black" points="4495,-79 4495,-131 4613,-131 4613,-79 4495,-79"/>
<text text-anchor="start" x="4503" y="-119" font-family="Helvetica,sans-Serif" font-size="10.00">/home/travis/build</text>
<text text-anchor="start" x="4503" y="-108" font-family="Helvetica,sans-Serif" font-size="10.00">/AliceO2Group/AliceO2</text>
<text text-anchor="start" x="4503" y="-97" font-family="Helvetica,sans-Serif" font-size="10.00">/Detectors/Passive/src</text>
<text text-anchor="middle" x="4554" y="-86" font-family="Helvetica,sans-Serif" font-size="10.00">/FrameStructure.cxx</text>
</a>
</g>
</g>
<!-- Node2&#45;&gt;Node14 -->
<g id="edge14" class="edge"><title>Node2&#45;&gt;Node14</title>
<path fill="none" stroke="midnightblue" d="M2246.69,-168.059C2246.8,-168.039 2246.9,-168.019 2247,-168 2735.83,-74.8912 3997.4,-226.292 4486,-132 4488.85,-131.449 4491.74,-130.787 4494.64,-130.039"/>
<polygon fill="midnightblue" stroke="midnightblue" points="2246.06,-164.614 2237.09,-170.258 2247.62,-171.437 2246.06,-164.614"/>
</g>
<!-- Node15 -->
<g id="node15" class="node"><title>Node15</title>
<g id="a_node15"><a xlink:href="../../d5/d3a/run__sim__phos_8C.html" target="_top" xlink:title="/home/travis/build\l/AliceO2Group/AliceO2\l/Detectors/PHOS/testsimulation\l/run_sim_phos.C">
<polygon fill="none" stroke="black" points="521,-79 521,-131 679,-131 679,-79 521,-79"/>
<text text-anchor="start" x="529" y="-119" font-family="Helvetica,sans-Serif" font-size="10.00">/home/travis/build</text>
<text text-anchor="start" x="529" y="-108" font-family="Helvetica,sans-Serif" font-size="10.00">/AliceO2Group/AliceO2</text>
<text text-anchor="start" x="529" y="-97" font-family="Helvetica,sans-Serif" font-size="10.00">/Detectors/PHOS/testsimulation</text>
<text text-anchor="middle" x="600" y="-86" font-family="Helvetica,sans-Serif" font-size="10.00">/run_sim_phos.C</text>
</a>
</g>
</g>
<!-- Node2&#45;&gt;Node15 -->
<g id="edge15" class="edge"><title>Node2&#45;&gt;Node15</title>
<path fill="none" stroke="midnightblue" d="M2108.5,-193.34C1853.2,-190.566 967.57,-177.79 689,-132 685.823,-131.478 682.6,-130.879 679.356,-130.217"/>
<polygon fill="midnightblue" stroke="midnightblue" points="2108.72,-196.842 2118.75,-193.449 2108.79,-189.842 2108.72,-196.842"/>
</g>
<!-- Node16 -->
<g id="node16" class="node"><title>Node16</title>
<g id="a_node16"><a xlink:href="../../dd/d2b/o2__sim__its__ALP3_8cxx.html" target="_top" xlink:title="/home/travis/build\l/AliceO2Group/AliceO2\l/Framework/TestWorkflows\l/src/o2_sim_its_ALP3.cxx">
<polygon fill="none" stroke="black" points="697.5,-79 697.5,-131 834.5,-131 834.5,-79 697.5,-79"/>
<text text-anchor="start" x="705.5" y="-119" font-family="Helvetica,sans-Serif" font-size="10.00">/home/travis/build</text>
<text text-anchor="start" x="705.5" y="-108" font-family="Helvetica,sans-Serif" font-size="10.00">/AliceO2Group/AliceO2</text>
<text text-anchor="start" x="705.5" y="-97" font-family="Helvetica,sans-Serif" font-size="10.00">/Framework/TestWorkflows</text>
<text text-anchor="middle" x="766" y="-86" font-family="Helvetica,sans-Serif" font-size="10.00">/src/o2_sim_its_ALP3.cxx</text>
</a>
</g>
</g>
<!-- Node2&#45;&gt;Node16 -->
<g id="edge16" class="edge"><title>Node2&#45;&gt;Node16</title>
<path fill="none" stroke="midnightblue" d="M2108.63,-193.291C1870.9,-190.467 1090.21,-177.845 844,-132 840.913,-131.425 837.78,-130.757 834.633,-130.016"/>
<polygon fill="midnightblue" stroke="midnightblue" points="2108.83,-196.793 2118.87,-193.41 2108.91,-189.794 2108.83,-196.793"/>
</g>
<!-- Node17 -->
<g id="node17" class="node"><title>Node17</title>
<g id="a_node17"><a xlink:href="../../d7/d11/o2__sim__tpc_8cxx.html" target="_top" xlink:title="/home/travis/build\l/AliceO2Group/AliceO2\l/Framework/TestWorkflows\l/src/o2_sim_tpc.cxx">
<polygon fill="none" stroke="black" points="852.5,-79 852.5,-131 989.5,-131 989.5,-79 852.5,-79"/>
<text text-anchor="start" x="860.5" y="-119" font-family="Helvetica,sans-Serif" font-size="10.00">/home/travis/build</text>
<text text-anchor="start" x="860.5" y="-108" font-family="Helvetica,sans-Serif" font-size="10.00">/AliceO2Group/AliceO2</text>
<text text-anchor="start" x="860.5" y="-97" font-family="Helvetica,sans-Serif" font-size="10.00">/Framework/TestWorkflows</text>
<text text-anchor="middle" x="921" y="-86" font-family="Helvetica,sans-Serif" font-size="10.00">/src/o2_sim_tpc.cxx</text>
</a>
</g>
</g>
<!-- Node2&#45;&gt;Node17 -->
<g id="edge17" class="edge"><title>Node2&#45;&gt;Node17</title>
<path fill="none" stroke="midnightblue" d="M2108.66,-192.799C1889.55,-188.619 1213.85,-172.684 999,-132 995.915,-131.416 992.783,-130.74 989.637,-129.992"/>
<polygon fill="midnightblue" stroke="midnightblue" points="2108.68,-196.3 2118.75,-192.989 2108.81,-189.301 2108.68,-196.3"/>
</g>
<!-- Node18 -->
<g id="node18" class="node"><title>Node18</title>
<g id="a_node18"><a xlink:href="../../d0/d17/initSimGeomAndField_8C.html" target="_top" xlink:title="/home/travis/build\l/AliceO2Group/AliceO2\l/macro/initSimGeomAndField.C">
<polygon fill="none" stroke="black" points="1007.5,-84.5 1007.5,-125.5 1162.5,-125.5 1162.5,-84.5 1007.5,-84.5"/>
<text text-anchor="start" x="1015.5" y="-113.5" font-family="Helvetica,sans-Serif" font-size="10.00">/home/travis/build</text>
<text text-anchor="start" x="1015.5" y="-102.5" font-family="Helvetica,sans-Serif" font-size="10.00">/AliceO2Group/AliceO2</text>
<text text-anchor="middle" x="1085" y="-91.5" font-family="Helvetica,sans-Serif" font-size="10.00">/macro/initSimGeomAndField.C</text>
</a>
</g>
</g>
<!-- Node2&#45;&gt;Node18 -->
<g id="edge18" class="edge"><title>Node2&#45;&gt;Node18</title>
<path fill="none" stroke="midnightblue" d="M2108.7,-191.794C1911.95,-185.205 1352.57,-164.109 1172,-132 1162.84,-130.372 1153.29,-128.113 1144,-125.601"/>
<polygon fill="midnightblue" stroke="midnightblue" points="2108.79,-195.299 2118.9,-192.134 2109.03,-188.303 2108.79,-195.299"/>
</g>
<!-- Node19 -->
<g id="node19" class="node"><title>Node19</title>
<g id="a_node19"><a xlink:href="../../d3/db7/run__digi__tpc_8C.html" target="_top" xlink:title="/home/travis/build\l/AliceO2Group/AliceO2\l/macro/run_digi_tpc.C">
<polygon fill="none" stroke="black" points="1181,-84.5 1181,-125.5 1299,-125.5 1299,-84.5 1181,-84.5"/>
<text text-anchor="start" x="1189" y="-113.5" font-family="Helvetica,sans-Serif" font-size="10.00">/home/travis/build</text>
<text text-anchor="start" x="1189" y="-102.5" font-family="Helvetica,sans-Serif" font-size="10.00">/AliceO2Group/AliceO2</text>
<text text-anchor="middle" x="1240" y="-91.5" font-family="Helvetica,sans-Serif" font-size="10.00">/macro/run_digi_tpc.C</text>
</a>
</g>
</g>
<!-- Node2&#45;&gt;Node19 -->
<g id="edge19" class="edge"><title>Node2&#45;&gt;Node19</title>
<path fill="none" stroke="midnightblue" d="M2108.83,-191.692C1930.83,-185.333 1460.27,-165.759 1308,-132 1300.72,-130.386 1293.18,-128.135 1285.9,-125.626"/>
<polygon fill="midnightblue" stroke="midnightblue" points="2108.74,-195.191 2118.86,-192.047 2108.99,-188.195 2108.74,-195.191"/>
</g>
<!-- Node21 -->
<g id="node21" class="node"><title>Node21</title>
<g id="a_node21"><a xlink:href="../../d9/d84/run__match__TPCITS_8C.html" target="_top" xlink:title="/home/travis/build\l/AliceO2Group/AliceO2\l/macro/run_match_TPCITS.C">
<polygon fill="none" stroke="black" points="1453.5,-84.5 1453.5,-125.5 1600.5,-125.5 1600.5,-84.5 1453.5,-84.5"/>
<text text-anchor="start" x="1461.5" y="-113.5" font-family="Helvetica,sans-Serif" font-size="10.00">/home/travis/build</text>
<text text-anchor="start" x="1461.5" y="-102.5" font-family="Helvetica,sans-Serif" font-size="10.00">/AliceO2Group/AliceO2</text>
<text text-anchor="middle" x="1527" y="-91.5" font-family="Helvetica,sans-Serif" font-size="10.00">/macro/run_match_TPCITS.C</text>
</a>
</g>
</g>
<!-- Node2&#45;&gt;Node21 -->
<g id="edge21" class="edge"><title>Node2&#45;&gt;Node21</title>
<path fill="none" stroke="midnightblue" d="M2108.86,-190.801C2001.24,-184.848 1787.54,-169.127 1610,-132 1601.58,-130.238 1592.79,-127.972 1584.22,-125.513"/>
<polygon fill="midnightblue" stroke="midnightblue" points="2108.77,-194.3 2118.94,-191.347 2109.15,-187.311 2108.77,-194.3"/>
</g>
<!-- Node22 -->
<g id="node22" class="node"><title>Node22</title>
<g id="a_node22"><a xlink:href="../../dc/d97/run__rec__ca_8C.html" target="_top" xlink:title="/home/travis/build\l/AliceO2Group/AliceO2\l/macro/run_rec_ca.C">
<polygon fill="none" stroke="black" points="1619,-84.5 1619,-125.5 1737,-125.5 1737,-84.5 1619,-84.5"/>
<text text-anchor="start" x="1627" y="-113.5" font-family="Helvetica,sans-Serif" font-size="10.00">/home/travis/build</text>
<text text-anchor="start" x="1627" y="-102.5" font-family="Helvetica,sans-Serif" font-size="10.00">/AliceO2Group/AliceO2</text>
<text text-anchor="middle" x="1678" y="-91.5" font-family="Helvetica,sans-Serif" font-size="10.00">/macro/run_rec_ca.C</text>
</a>
</g>
</g>
<!-- Node2&#45;&gt;Node22 -->
<g id="edge22" class="edge"><title>Node2&#45;&gt;Node22</title>
<path fill="none" stroke="midnightblue" d="M2108.66,-188.834C2022.54,-181.328 1871.62,-164.595 1746,-132 1739.15,-130.222 1732.04,-127.978 1725.12,-125.557"/>
<polygon fill="midnightblue" stroke="midnightblue" points="2108.57,-192.339 2118.84,-189.704 2109.17,-185.364 2108.57,-192.339"/>
</g>
<!-- Node23 -->
<g id="node23" class="node"><title>Node23</title>
<g id="a_node23"><a xlink:href="../../d9/d71/run__sim_8C.html" target="_top" xlink:title="/home/travis/build\l/AliceO2Group/AliceO2\l/macro/run_sim.C">
<polygon fill="none" stroke="black" points="1755,-84.5 1755,-125.5 1873,-125.5 1873,-84.5 1755,-84.5"/>
<text text-anchor="start" x="1763" y="-113.5" font-family="Helvetica,sans-Serif" font-size="10.00">/home/travis/build</text>
<text text-anchor="start" x="1763" y="-102.5" font-family="Helvetica,sans-Serif" font-size="10.00">/AliceO2Group/AliceO2</text>
<text text-anchor="middle" x="1814" y="-91.5" font-family="Helvetica,sans-Serif" font-size="10.00">/macro/run_sim.C</text>
</a>
</g>
</g>
<!-- Node2&#45;&gt;Node23 -->
<g id="edge23" class="edge"><title>Node2&#45;&gt;Node23</title>
<path fill="none" stroke="midnightblue" d="M2108.72,-182.7C2048.23,-172.076 1958.43,-154.461 1882,-132 1875.57,-130.111 1868.89,-127.89 1862.34,-125.555"/>
<polygon fill="midnightblue" stroke="midnightblue" points="2108.46,-186.207 2118.91,-184.473 2109.66,-179.311 2108.46,-186.207"/>
</g>
<!-- Node24 -->
<g id="node24" class="node"><title>Node24</title>
<g id="a_node24"><a xlink:href="../../db/df3/macro_2run__sim__emcal_8C.html" target="_top" xlink:title="/home/travis/build\l/AliceO2Group/AliceO2\l/macro/run_sim_emcal.C">
<polygon fill="none" stroke="black" points="1891,-84.5 1891,-125.5 2017,-125.5 2017,-84.5 1891,-84.5"/>
<text text-anchor="start" x="1899" y="-113.5" font-family="Helvetica,sans-Serif" font-size="10.00">/home/travis/build</text>
<text text-anchor="start" x="1899" y="-102.5" font-family="Helvetica,sans-Serif" font-size="10.00">/AliceO2Group/AliceO2</text>
<text text-anchor="middle" x="1954" y="-91.5" font-family="Helvetica,sans-Serif" font-size="10.00">/macro/run_sim_emcal.C</text>
</a>
</g>
</g>
<!-- Node2&#45;&gt;Node24 -->
<g id="edge24" class="edge"><title>Node2&#45;&gt;Node24</title>
<path fill="none" stroke="midnightblue" d="M2109.44,-167.064C2075.41,-153.696 2035.05,-137.841 2003.98,-125.637"/>
<polygon fill="midnightblue" stroke="midnightblue" points="2108.27,-170.365 2118.85,-170.764 2110.83,-163.85 2108.27,-170.365"/>
</g>
<!-- Node25 -->
<g id="node25" class="node"><title>Node25</title>
<g id="a_node25"><a xlink:href="../../d5/dd2/run__sim__its__ALP3_8C.html" target="_top" xlink:title="/home/travis/build\l/AliceO2Group/AliceO2\l/macro/run_sim_its_ALP3.C">
<polygon fill="none" stroke="black" points="2035,-84.5 2035,-125.5 2175,-125.5 2175,-84.5 2035,-84.5"/>
<text text-anchor="start" x="2043" y="-113.5" font-family="Helvetica,sans-Serif" font-size="10.00">/home/travis/build</text>
<text text-anchor="start" x="2043" y="-102.5" font-family="Helvetica,sans-Serif" font-size="10.00">/AliceO2Group/AliceO2</text>
<text text-anchor="middle" x="2105" y="-91.5" font-family="Helvetica,sans-Serif" font-size="10.00">/macro/run_sim_its_ALP3.C</text>
</a>
</g>
</g>
<!-- Node2&#45;&gt;Node25 -->
<g id="edge25" class="edge"><title>Node2&#45;&gt;Node25</title>
<path fill="none" stroke="midnightblue" d="M2150.27,-160.573C2140.45,-148.739 2129.74,-135.821 2121.2,-125.525"/>
<polygon fill="midnightblue" stroke="midnightblue" points="2147.81,-163.085 2156.89,-168.547 2153.19,-158.616 2147.81,-163.085"/>
</g>
<!-- Node26 -->
<g id="node26" class="node"><title>Node26</title>
<g id="a_node26"><a xlink:href="../../d4/d5f/run__sim__mft_8C.html" target="_top" xlink:title="/home/travis/build\l/AliceO2Group/AliceO2\l/macro/run_sim_mft.C">
<polygon fill="none" stroke="black" points="2193,-84.5 2193,-125.5 2311,-125.5 2311,-84.5 2193,-84.5"/>
<text text-anchor="start" x="2201" y="-113.5" font-family="Helvetica,sans-Serif" font-size="10.00">/home/travis/build</text>
<text text-anchor="start" x="2201" y="-102.5" font-family="Helvetica,sans-Serif" font-size="10.00">/AliceO2Group/AliceO2</text>
<text text-anchor="middle" x="2252" y="-91.5" font-family="Helvetica,sans-Serif" font-size="10.00">/macro/run_sim_mft.C</text>
</a>
</g>
</g>
<!-- Node2&#45;&gt;Node26 -->
<g id="edge26" class="edge"><title>Node2&#45;&gt;Node26</title>
<path fill="none" stroke="midnightblue" d="M2206.11,-160.573C2216.06,-148.739 2226.92,-135.821 2235.58,-125.525"/>
<polygon fill="midnightblue" stroke="midnightblue" points="2203.16,-158.64 2199.4,-168.547 2208.52,-163.146 2203.16,-158.64"/>
</g>
<!-- Node27 -->
<g id="node27" class="node"><title>Node27</title>
<g id="a_node27"><a xlink:href="../../d3/dcc/run__sim__pythia8hi_8C.html" target="_top" xlink:title="/home/travis/build\l/AliceO2Group/AliceO2\l/macro/run_sim_pythia8hi.C">
<polygon fill="none" stroke="black" points="2329.5,-84.5 2329.5,-125.5 2468.5,-125.5 2468.5,-84.5 2329.5,-84.5"/>
<text text-anchor="start" x="2337.5" y="-113.5" font-family="Helvetica,sans-Serif" font-size="10.00">/home/travis/build</text>
<text text-anchor="start" x="2337.5" y="-102.5" font-family="Helvetica,sans-Serif" font-size="10.00">/AliceO2Group/AliceO2</text>
<text text-anchor="middle" x="2399" y="-91.5" font-family="Helvetica,sans-Serif" font-size="10.00">/macro/run_sim_pythia8hi.C</text>
</a>
</g>
</g>
<!-- Node2&#45;&gt;Node27 -->
<g id="edge27" class="edge"><title>Node2&#45;&gt;Node27</title>
<path fill="none" stroke="midnightblue" d="M2246.9,-166.564C2280.21,-153.299 2319.43,-137.683 2349.7,-125.63"/>
<polygon fill="midnightblue" stroke="midnightblue" points="2245.22,-163.466 2237.22,-170.418 2247.81,-169.97 2245.22,-163.466"/>
</g>
<!-- Node28 -->
<g id="node28" class="node"><title>Node28</title>
<g id="a_node28"><a xlink:href="../../dc/d6a/run__sim__tof_8C.html" target="_top" xlink:title="/home/travis/build\l/AliceO2Group/AliceO2\l/macro/run_sim_tof.C">
<polygon fill="none" stroke="black" points="2487,-84.5 2487,-125.5 2605,-125.5 2605,-84.5 2487,-84.5"/>
<text text-anchor="start" x="2495" y="-113.5" font-family="Helvetica,sans-Serif" font-size="10.00">/home/travis/build</text>
<text text-anchor="start" x="2495" y="-102.5" font-family="Helvetica,sans-Serif" font-size="10.00">/AliceO2Group/AliceO2</text>
<text text-anchor="middle" x="2546" y="-91.5" font-family="Helvetica,sans-Serif" font-size="10.00">/macro/run_sim_tof.C</text>
</a>
</g>
</g>
<!-- Node2&#45;&gt;Node28 -->
<g id="edge28" class="edge"><title>Node2&#45;&gt;Node28</title>
<path fill="none" stroke="midnightblue" d="M2246.7,-168.08C2246.8,-168.053 2246.9,-168.027 2247,-168 2347.05,-141.62 2376.95,-158.38 2477,-132 2483.81,-130.205 2490.88,-127.981 2497.78,-125.595"/>
<polygon fill="midnightblue" stroke="midnightblue" points="2245.86,-164.679 2237.22,-170.805 2247.79,-171.407 2245.86,-164.679"/>
</g>
<!-- Node29 -->
<g id="node29" class="node"><title>Node29</title>
<g id="a_node29"><a xlink:href="../../d7/d08/run__sim__tpc_8C.html" target="_top" xlink:title="/home/travis/build\l/AliceO2Group/AliceO2\l/macro/run_sim_tpc.C">
<polygon fill="none" stroke="black" points="1317,-84.5 1317,-125.5 1435,-125.5 1435,-84.5 1317,-84.5"/>
<text text-anchor="start" x="1325" y="-113.5" font-family="Helvetica,sans-Serif" font-size="10.00">/home/travis/build</text>
<text text-anchor="start" x="1325" y="-102.5" font-family="Helvetica,sans-Serif" font-size="10.00">/AliceO2Group/AliceO2</text>
<text text-anchor="middle" x="1376" y="-91.5" font-family="Helvetica,sans-Serif" font-size="10.00">/macro/run_sim_tpc.C</text>
</a>
</g>
</g>
<!-- Node2&#45;&gt;Node29 -->
<g id="edge29" class="edge"><title>Node2&#45;&gt;Node29</title>
<path fill="none" stroke="midnightblue" d="M2108.41,-194.453C1977.05,-193.918 1684.23,-186.092 1445,-132 1437.63,-130.334 1430,-128.055 1422.61,-125.534"/>
<polygon fill="midnightblue" stroke="midnightblue" points="2108.72,-197.953 2118.73,-194.481 2108.74,-190.953 2108.72,-197.953"/>
</g>
<!-- Node30 -->
<g id="node30" class="node"><title>Node30</title>
<g id="a_node30"><a xlink:href="../../d6/db2/run__trac__ca__its_8C.html" target="_top" xlink:title="/home/travis/build\l/AliceO2Group/AliceO2\l/macro/run_trac_ca_its.C">
<polygon fill="none" stroke="black" points="2623.5,-84.5 2623.5,-125.5 2750.5,-125.5 2750.5,-84.5 2623.5,-84.5"/>
<text text-anchor="start" x="2631.5" y="-113.5" font-family="Helvetica,sans-Serif" font-size="10.00">/home/travis/build</text>
<text text-anchor="start" x="2631.5" y="-102.5" font-family="Helvetica,sans-Serif" font-size="10.00">/AliceO2Group/AliceO2</text>
<text text-anchor="middle" x="2687" y="-91.5" font-family="Helvetica,sans-Serif" font-size="10.00">/macro/run_trac_ca_its.C</text>
</a>
</g>
</g>
<!-- Node2&#45;&gt;Node30 -->
<g id="edge31" class="edge"><title>Node2&#45;&gt;Node30</title>
<path fill="none" stroke="midnightblue" d="M2246.7,-168.071C2246.8,-168.047 2246.9,-168.024 2247,-168 2406.61,-130.784 2454.06,-167.761 2614,-132 2621.61,-130.297 2629.53,-128.032 2637.21,-125.545"/>
<polygon fill="midnightblue" stroke="midnightblue" points="2245.94,-164.651 2237.16,-170.58 2247.72,-171.42 2245.94,-164.651"/>
</g>
<!-- Node31 -->
<g id="node31" class="node"><title>Node31</title>
<g id="a_node31"><a xlink:href="../../dd/d4e/run__trac__its_8C.html" target="_top" xlink:title="/home/travis/build\l/AliceO2Group/AliceO2\l/macro/run_trac_its.C">
<polygon fill="none" stroke="black" points="2769,-84.5 2769,-125.5 2887,-125.5 2887,-84.5 2769,-84.5"/>
<text text-anchor="start" x="2777" y="-113.5" font-family="Helvetica,sans-Serif" font-size="10.00">/home/travis/build</text>
<text text-anchor="start" x="2777" y="-102.5" font-family="Helvetica,sans-Serif" font-size="10.00">/AliceO2Group/AliceO2</text>
<text text-anchor="middle" x="2828" y="-91.5" font-family="Helvetica,sans-Serif" font-size="10.00">/macro/run_trac_its.C</text>
</a>
</g>
</g>
<!-- Node2&#45;&gt;Node31 -->
<g id="edge32" class="edge"><title>Node2&#45;&gt;Node31</title>
<path fill="none" stroke="midnightblue" d="M2246.7,-168.067C2246.8,-168.045 2246.9,-168.022 2247,-168 2469.85,-119.27 2536.15,-180.73 2759,-132 2766.38,-130.387 2774.02,-128.136 2781.41,-125.627"/>
<polygon fill="midnightblue" stroke="midnightblue" points="2245.98,-164.638 2237.14,-170.472 2247.69,-171.426 2245.98,-164.638"/>
</g>
<!-- Node32 -->
<g id="node32" class="node"><title>Node32</title>
<g id="a_node32"><a xlink:href="../../d6/d3f/run__trac__mft_8C.html" target="_top" xlink:title="/home/travis/build\l/AliceO2Group/AliceO2\l/macro/run_trac_mft.C">
<polygon fill="none" stroke="black" points="2905,-84.5 2905,-125.5 3023,-125.5 3023,-84.5 2905,-84.5"/>
<text text-anchor="start" x="2913" y="-113.5" font-family="Helvetica,sans-Serif" font-size="10.00">/home/travis/build</text>
<text text-anchor="start" x="2913" y="-102.5" font-family="Helvetica,sans-Serif" font-size="10.00">/AliceO2Group/AliceO2</text>
<text text-anchor="middle" x="2964" y="-91.5" font-family="Helvetica,sans-Serif" font-size="10.00">/macro/run_trac_mft.C</text>
</a>
</g>
</g>
<!-- Node2&#45;&gt;Node32 -->
<g id="edge33" class="edge"><title>Node2&#45;&gt;Node32</title>
<path fill="none" stroke="midnightblue" d="M2246.69,-168.065C2246.8,-168.043 2246.9,-168.021 2247,-168 2529.67,-108.376 2613.48,-192.308 2896,-132 2903.42,-130.417 2911.09,-128.148 2918.5,-125.601"/>
<polygon fill="midnightblue" stroke="midnightblue" points="2246,-164.631 2237.12,-170.414 2247.67,-171.429 2246,-164.631"/>
</g>
<!-- Node33 -->
<g id="node33" class="node"><title>Node33</title>
<g id="a_node33"><a xlink:href="../../d4/da9/run__vert__ca__its_8C.html" target="_top" xlink:title="/home/travis/build\l/AliceO2Group/AliceO2\l/macro/run_vert_ca_its.C">
<polygon fill="none" stroke="black" points="3041.5,-84.5 3041.5,-125.5 3168.5,-125.5 3168.5,-84.5 3041.5,-84.5"/>
<text text-anchor="start" x="3049.5" y="-113.5" font-family="Helvetica,sans-Serif" font-size="10.00">/home/travis/build</text>
<text text-anchor="start" x="3049.5" y="-102.5" font-family="Helvetica,sans-Serif" font-size="10.00">/AliceO2Group/AliceO2</text>
<text text-anchor="middle" x="3105" y="-91.5" font-family="Helvetica,sans-Serif" font-size="10.00">/macro/run_vert_ca_its.C</text>
</a>
</g>
</g>
<!-- Node2&#45;&gt;Node33 -->
<g id="edge34" class="edge"><title>Node2&#45;&gt;Node33</title>
<path fill="none" stroke="midnightblue" d="M2246.69,-168.063C2246.8,-168.042 2246.9,-168.021 2247,-168 2589.08,-97.5553 2689.3,-199.329 3032,-132 3040.05,-130.418 3048.41,-128.114 3056.48,-125.521"/>
<polygon fill="midnightblue" stroke="midnightblue" points="2246.01,-164.627 2237.12,-170.376 2247.66,-171.431 2246.01,-164.627"/>
</g>
<!-- Node3&#45;&gt;Node4 -->
<g id="edge3" class="edge"><title>Node3&#45;&gt;Node4</title>
<path fill="none" stroke="midnightblue" d="M3265.73,-69.9541C3260.57,-60.3259 3255.12,-50.1706 3250.57,-41.6965"/>
<polygon fill="midnightblue" stroke="midnightblue" points="3262.75,-71.795 3270.56,-78.9517 3268.92,-68.4852 3262.75,-71.795"/>
</g>
<!-- Node20 -->
<g id="node20" class="node"><title>Node20</title>
<g id="a_node20"><a xlink:href="../../d3/d56/runTPC_8cxx.html" target="_top" xlink:title="/home/travis/build\l/AliceO2Group/AliceO2\l/run/runTPC.cxx">
<polygon fill="none" stroke="black" points="1249,-0.5 1249,-41.5 1367,-41.5 1367,-0.5 1249,-0.5"/>
<text text-anchor="start" x="1257" y="-29.5" font-family="Helvetica,sans-Serif" font-size="10.00">/home/travis/build</text>
<text text-anchor="start" x="1257" y="-18.5" font-family="Helvetica,sans-Serif" font-size="10.00">/AliceO2Group/AliceO2</text>
<text text-anchor="middle" x="1308" y="-7.5" font-family="Helvetica,sans-Serif" font-size="10.00">/run/runTPC.cxx</text>
</a>
</g>
</g>
<!-- Node19&#45;&gt;Node20 -->
<g id="edge20" class="edge"><title>Node19&#45;&gt;Node20</title>
<path fill="none" stroke="midnightblue" d="M1263.04,-76.2137C1272.45,-64.8686 1283.11,-52.0121 1291.69,-41.6671"/>
<polygon fill="midnightblue" stroke="midnightblue" points="1260.15,-74.2183 1256.46,-84.1501 1265.54,-78.6867 1260.15,-74.2183"/>
</g>
<!-- Node29&#45;&gt;Node20 -->
<g id="edge30" class="edge"><title>Node29&#45;&gt;Node20</title>
<path fill="none" stroke="midnightblue" d="M1352.96,-76.2137C1343.55,-64.8686 1332.89,-52.0121 1324.31,-41.6671"/>
<polygon fill="midnightblue" stroke="midnightblue" points="1350.46,-78.6867 1359.54,-84.1501 1355.85,-74.2183 1350.46,-78.6867"/>
</g>
</g>
</svg>
        <g id="navigator" transform="translate(0 0)" fill="#404254">
                <rect fill="#f2f5e9" fill-opacity="0.5" stroke="#606060" stroke-width=".5" x="0" y="0" width="60" height="60"/>
                <use id="zoomplus" xlink:href="#zoomPlus" x="17" y="9" onmousedown="handleZoom(evt,'in')"/>
                <use id="zoomminus" xlink:href="#zoomMin" x="42" y="9" onmousedown="handleZoom(evt,'out')"/>
                <use id="reset" xlink:href="#resetDef" x="30" y="36" onmousedown="handleReset()"/>
                <g id="arrowUp" xlink:href="#dirArrow" transform="translate(30 24)" onmousedown="handlePan(0,-1)">
                  <use xlink:href="#rim" fill="#404040">
                        <set attributeName="fill" to="#808080" begin="arrowUp.mouseover" end="arrowUp.mouseout"/>
                  </use>
                  <path fill="none" stroke="white" stroke-width="1.5" d="M0,-3.0v7 M-2.5,-0.5L0,-3.0L2.5,-0.5"/>
                </g>
                <g id="arrowRight" xlink:href="#dirArrow" transform="rotate(90) translate(36 -43)" onmousedown="handlePan(1,0)">
                  <use xlink:href="#rim" fill="#404040">
                        <set attributeName="fill" to="#808080" begin="arrowRight.mouseover" end="arrowRight.mouseout"/>
                  </use>
                  <path fill="none" stroke="white" stroke-width="1.5" d="M0,-3.0v7 M-2.5,-0.5L0,-3.0L2.5,-0.5"/>
                </g>
                <g id="arrowDown" xlink:href="#dirArrow" transform="rotate(180) translate(-30 -48)" onmousedown="handlePan(0,1)">
                  <use xlink:href="#rim" fill="#404040">
                        <set attributeName="fill" to="#808080" begin="arrowDown.mouseover" end="arrowDown.mouseout"/>
                  </use>
                  <path fill="none" stroke="white" stroke-width="1.5" d="M0,-3.0v7 M-2.5,-0.5L0,-3.0L2.5,-0.5"/>
                </g>
                <g id="arrowLeft" xlink:href="#dirArrow" transform="rotate(270) translate(-36 17)" onmousedown="handlePan(-1,0)">
                  <use xlink:href="#rim" fill="#404040">
                        <set attributeName="fill" to="#808080" begin="arrowLeft.mouseover" end="arrowLeft.mouseout"/>
                  </use>
                  <path fill="none" stroke="white" stroke-width="1.5" d="M0,-3.0v7 M-2.5,-0.5L0,-3.0L2.5,-0.5"/>
                </g>
        </g>
        <svg viewBox="0 0 15 15" width="100%" height="30px" preserveAspectRatio="xMaxYMin meet">
         <g id="arrow_out" transform="scale(0.3 0.3)">
          <a xlink:href="MagFieldFast_8h__dep__incl_org.svg" target="_base">
           <rect id="button" ry="5" rx="5" y="6" x="6" height="38" width="38"
                fill="#f2f5e9" fill-opacity="0.5" stroke="#606060" stroke-width="1.0"/>
           <path id="arrow"
             d="M 11.500037,31.436501 C 11.940474,20.09759 22.043105,11.32322 32.158766,21.979434 L 37.068811,17.246167 C 37.068811,17.246167 37.088388,32 37.088388,32 L 22.160133,31.978069 C 22.160133,31.978069 26.997745,27.140456 26.997745,27.140456 C 18.528582,18.264221 13.291696,25.230495 11.500037,31.436501 z"
             style="fill:#404040;"/>
          </a>
         </g>
        </svg>
</svg>
