<?xml version="1.0" encoding="UTF-8" standalone="no"?>
<!DOCTYPE svg PUBLIC "-//W3C//DTD SVG 1.1//EN"
 "http://www.w3.org/Graphics/SVG/1.1/DTD/svg11.dtd">
<!-- Generated by graphviz version 2.36.0 (20140111.2315)
 -->
<!-- Title: /home/travis/build/AliceO2Group/AliceO2/Algorithm/test/pageparser.cxx Pages: 1 -->
<!--zoomable 242 -->
<svg id="main" version="1.1" xmlns="http://www.w3.org/2000/svg" xmlns:xlink="http://www.w3.org/1999/xlink" xml:space="preserve" onload="init(evt)">
<style type="text/css"><![CDATA[
.edge:hover path { stroke: red; }
.edge:hover polygon { stroke: red; fill: red; }
]]></style>
<script type="text/javascript"><![CDATA[
var edges = document.getElementsByTagName('g');
if (edges && edges.length) {
  for (var i=0;i<edges.length;i++) {
    if (edges[i].id.substr(0,4)=='edge') {
      edges[i].setAttribute('class','edge');
    }
  }
}
]]></script>
        <defs>
                <circle id="rim" cx="0" cy="0" r="7"/>
                <circle id="rim2" cx="0" cy="0" r="3.5"/>
                <g id="zoomPlus">
                        <use xlink:href="#rim" fill="#404040">
                                <set attributeName="fill" to="#808080" begin="zoomplus.mouseover" end="zoomplus.mouseout"/>
                        </use>
                        <path d="M-4,0h8M0,-4v8" fill="none" stroke="white" stroke-width="1.5" pointer-events="none"/>
                </g>
                <g id="zoomMin">
                        <use xlink:href="#rim" fill="#404040">
                                <set attributeName="fill" to="#808080" begin="zoomminus.mouseover" end="zoomminus.mouseout"/>
                        </use>
                        <path d="M-4,0h8" fill="none" stroke="white" stroke-width="1.5" pointer-events="none"/>
                </g>
                <g id="dirArrow">
                        <path fill="none" stroke="white" stroke-width="1.5" d="M0,-3.0v7 M-2.5,-0.5L0,-3.0L2.5,-0.5"/>
                </g>
               <g id="resetDef">
                       <use xlink:href="#rim2" fill="#404040">
                               <set attributeName="fill" to="#808080" begin="reset.mouseover" end="reset.mouseout"/>
                       </use>
               </g>
        </defs>

<script type="text/javascript">
var viewWidth = 1258;
var viewHeight = 242;
var sectionId = 'dynsection-0';
</script>
<script xlink:href="../../svgpan.js"/>
<svg id="graph" class="graph">
<g id="viewport">
<title>/home/travis/build/AliceO2Group/AliceO2/Algorithm/test/pageparser.cxx</title>
<!-- Node1 -->
<g id="node1" class="node"><title>Node1</title>
<polygon fill="#bfbfbf" stroke="black" points="583,-192.5 583,-233.5 733,-233.5 733,-192.5 583,-192.5"/>
<text text-anchor="start" x="591" y="-221.5" font-family="Helvetica,sans-Serif" font-size="10.00">/home/travis/build</text>
<text text-anchor="start" x="591" y="-210.5" font-family="Helvetica,sans-Serif" font-size="10.00">/AliceO2Group/AliceO2</text>
<text text-anchor="middle" x="658" y="-199.5" font-family="Helvetica,sans-Serif" font-size="10.00">/Algorithm/test/pageparser.cxx</text>
</g>
<!-- Node2 -->
<g id="node2" class="node"><title>Node2</title>
<polygon fill="none" stroke="#bfbfbf" points="321.5,-130.5 321.5,-149.5 440.5,-149.5 440.5,-130.5 321.5,-130.5"/>
<text text-anchor="middle" x="381" y="-137.5" font-family="Helvetica,sans-Serif" font-size="10.00">boost/test/unit_test.hpp</text>
</g>
<!-- Node1&#45;&gt;Node2 -->
<g id="edge1" class="edge"><title>Node1&#45;&gt;Node2</title>
<path fill="none" stroke="midnightblue" d="M582.674,-192.693C531.802,-179.653 466.458,-162.904 424.161,-152.063"/>
<polygon fill="midnightblue" stroke="midnightblue" points="425.008,-148.667 414.452,-149.574 423.27,-155.448 425.008,-148.667"/>
</g>
<!-- Node3 -->
<g id="node3" class="node"><title>Node3</title>
<polygon fill="none" stroke="#bfbfbf" points="459,-130.5 459,-149.5 513,-149.5 513,-130.5 459,-130.5"/>
<text text-anchor="middle" x="486" y="-137.5" font-family="Helvetica,sans-Serif" font-size="10.00">iostream</text>
</g>
<!-- Node1&#45;&gt;Node3 -->
<g id="edge2" class="edge"><title>Node1&#45;&gt;Node3</title>
<path fill="none" stroke="midnightblue" d="M610.461,-192.482C584.34,-181.743 551.37,-168.166 522,-156 520.123,-155.223 518.192,-154.422 516.245,-153.613"/>
<polygon fill="midnightblue" stroke="midnightblue" points="517.132,-150.191 506.554,-149.582 514.443,-156.654 517.132,-150.191"/>
</g>
<!-- Node4 -->
<g id="node4" class="node"><title>Node4</title>
<polygon fill="none" stroke="#bfbfbf" points="531,-130.5 531,-149.5 581,-149.5 581,-130.5 531,-130.5"/>
<text text-anchor="middle" x="556" y="-137.5" font-family="Helvetica,sans-Serif" font-size="10.00">iomanip</text>
</g>
<!-- Node1&#45;&gt;Node4 -->
<g id="edge3" class="edge"><title>Node1&#45;&gt;Node4</title>
<path fill="none" stroke="midnightblue" d="M629.858,-192.411C613,-180.676 591.94,-166.017 576.627,-155.358"/>
<polygon fill="midnightblue" stroke="midnightblue" points="578.557,-152.437 568.35,-149.597 574.558,-158.182 578.557,-152.437"/>
</g>
<!-- Node5 -->
<g id="node5" class="node"><title>Node5</title>
<polygon fill="none" stroke="#bfbfbf" points="1206,-6.5 1206,-25.5 1250,-25.5 1250,-6.5 1206,-6.5"/>
<text text-anchor="middle" x="1228" y="-13.5" font-family="Helvetica,sans-Serif" font-size="10.00">vector</text>
</g>
<!-- Node1&#45;&gt;Node5 -->
<g id="edge4" class="edge"><title>Node1&#45;&gt;Node5</title>
<path fill="none" stroke="midnightblue" d="M733.258,-204.014C794.665,-196.058 883.043,-181.294 957,-156 1054.86,-122.533 1161.37,-59.0676 1206.2,-30.9776"/>
<polygon fill="midnightblue" stroke="midnightblue" points="1208.21,-33.8432 1214.8,-25.544 1204.48,-27.9248 1208.21,-33.8432"/>
</g>
<!-- Node6 -->
<g id="node6" class="node"><title>Node6</title>
<g id="a_node6"><a xlink:href="../../dc/dcd/DataHeader_8h.html" target="_top" xlink:title="Headers/DataHeader.h">
<polygon fill="none" stroke="black" points="599.5,-130.5 599.5,-149.5 716.5,-149.5 716.5,-130.5 599.5,-130.5"/>
<text text-anchor="middle" x="658" y="-137.5" font-family="Helvetica,sans-Serif" font-size="10.00">Headers/DataHeader.h</text>
</a>
</g>
</g>
<!-- Node1&#45;&gt;Node6 -->
<g id="edge5" class="edge"><title>Node1&#45;&gt;Node6</title>
<path fill="none" stroke="midnightblue" d="M658,-192.223C658,-182.086 658,-169.807 658,-159.813"/>
<polygon fill="midnightblue" stroke="midnightblue" points="661.5,-159.735 658,-149.735 654.5,-159.735 661.5,-159.735"/>
</g>
<!-- Node24 -->
<g id="node24" class="node"><title>Node24</title>
<g id="a_node24"><a xlink:href="../../d6/d34/PageParser_8h.html" target="_top" xlink:title="Parser for a set of data objects in consecutive memory pages. ">
<polygon fill="none" stroke="black" points="847.5,-125 847.5,-155 948.5,-155 948.5,-125 847.5,-125"/>
<text text-anchor="start" x="855.5" y="-143" font-family="Helvetica,sans-Serif" font-size="10.00">../include/Algorithm</text>
<text text-anchor="middle" x="898" y="-132" font-family="Helvetica,sans-Serif" font-size="10.00">/PageParser.h</text>
</a>
</g>
</g>
<!-- Node1&#45;&gt;Node24 -->
<g id="edge26" class="edge"><title>Node1&#45;&gt;Node24</title>
<path fill="none" stroke="midnightblue" d="M724.216,-192.411C760.868,-181.568 805.961,-168.228 841.027,-157.855"/>
<polygon fill="midnightblue" stroke="midnightblue" points="842.04,-161.205 850.636,-155.012 840.054,-154.492 842.04,-161.205"/>
</g>
<!-- Node26 -->
<g id="node26" class="node"><title>Node26</title>
<g id="a_node26"><a xlink:href="../../d2/d79/StaticSequenceAllocator_8h.html" target="_top" xlink:title="An allocator for static sequences of object types. ">
<polygon fill="none" stroke="black" points="1109,-130.5 1109,-149.5 1241,-149.5 1241,-130.5 1109,-130.5"/>
<text text-anchor="middle" x="1175" y="-137.5" font-family="Helvetica,sans-Serif" font-size="10.00">StaticSequenceAllocator.h</text>
</a>
</g>
</g>
<!-- Node1&#45;&gt;Node26 -->
<g id="edge32" class="edge"><title>Node1&#45;&gt;Node26</title>
<path fill="none" stroke="midnightblue" d="M733.195,-203.704C820.418,-193.772 968.446,-175.956 1095,-156 1103.72,-154.625 1112.95,-153.027 1121.92,-151.398"/>
<polygon fill="midnightblue" stroke="midnightblue" points="1122.7,-154.813 1131.9,-149.555 1121.43,-147.93 1122.7,-154.813"/>
</g>
<!-- Node7 -->
<g id="node7" class="node"><title>Node7</title>
<polygon fill="none" stroke="#bfbfbf" points="315,-68.5 315,-87.5 361,-87.5 361,-68.5 315,-68.5"/>
<text text-anchor="middle" x="338" y="-75.5" font-family="Helvetica,sans-Serif" font-size="10.00">cstdint</text>
</g>
<!-- Node6&#45;&gt;Node7 -->
<g id="edge6" class="edge"><title>Node6&#45;&gt;Node7</title>
<path fill="none" stroke="midnightblue" d="M621.02,-130.456C610.979,-128.242 600.092,-125.937 590,-124 495.834,-105.924 468.477,-109.204 371.289,-88.0836"/>
<polygon fill="midnightblue" stroke="midnightblue" points="371.861,-84.6259 361.342,-85.8908 370.354,-91.4617 371.861,-84.6259"/>
</g>
<!-- Node8 -->
<g id="node8" class="node"><title>Node8</title>
<polygon fill="none" stroke="#bfbfbf" points="379,-68.5 379,-87.5 431,-87.5 431,-68.5 379,-68.5"/>
<text text-anchor="middle" x="405" y="-75.5" font-family="Helvetica,sans-Serif" font-size="10.00">memory</text>
</g>
<!-- Node6&#45;&gt;Node8 -->
<g id="edge7" class="edge"><title>Node6&#45;&gt;Node8</title>
<path fill="none" stroke="midnightblue" d="M622.02,-130.467C573.977,-119.074 489.354,-99.0049 441.2,-87.5849"/>
<polygon fill="midnightblue" stroke="midnightblue" points="441.756,-84.1197 431.218,-85.2176 440.14,-90.9308 441.756,-84.1197"/>
</g>
<!-- Node9 -->
<g id="node9" class="node"><title>Node9</title>
<polygon fill="none" stroke="#bfbfbf" points="772.5,-68.5 772.5,-87.5 821.5,-87.5 821.5,-68.5 772.5,-68.5"/>
<text text-anchor="middle" x="797" y="-75.5" font-family="Helvetica,sans-Serif" font-size="10.00">cassert</text>
</g>
<!-- Node6&#45;&gt;Node9 -->
<g id="edge8" class="edge"><title>Node6&#45;&gt;Node9</title>
<path fill="none" stroke="midnightblue" d="M677.915,-130.403C701.449,-120.245 740.81,-103.255 767.793,-91.6074"/>
<polygon fill="midnightblue" stroke="midnightblue" points="769.328,-94.7572 777.122,-87.5806 766.553,-88.3303 769.328,-94.7572"/>
</g>
<!-- Node10 -->
<g id="node10" class="node"><title>Node10</title>
<polygon fill="none" stroke="#bfbfbf" points="0,-6.5 0,-25.5 46,-25.5 46,-6.5 0,-6.5"/>
<text text-anchor="middle" x="23" y="-13.5" font-family="Helvetica,sans-Serif" font-size="10.00">cstring</text>
</g>
<!-- Node6&#45;&gt;Node10 -->
<g id="edge9" class="edge"><title>Node6&#45;&gt;Node10</title>
<path fill="none" stroke="midnightblue" d="M622.124,-130.446C611.793,-128.157 600.482,-125.817 590,-124 352.276,-82.8014 283.334,-109.936 55,-32 53.0838,-31.346 51.1299,-30.6113 49.1798,-29.8276"/>
<polygon fill="midnightblue" stroke="midnightblue" points="50.2175,-26.4609 39.6539,-25.6478 47.4048,-32.871 50.2175,-26.4609"/>
</g>
<!-- Node11 -->
<g id="node11" class="node"><title>Node11</title>
<polygon fill="none" stroke="#bfbfbf" points="487,-68.5 487,-87.5 543,-87.5 543,-68.5 487,-68.5"/>
<text text-anchor="middle" x="515" y="-75.5" font-family="Helvetica,sans-Serif" font-size="10.00">algorithm</text>
</g>
<!-- Node6&#45;&gt;Node11 -->
<g id="edge10" class="edge"><title>Node6&#45;&gt;Node11</title>
<path fill="none" stroke="midnightblue" d="M637.512,-130.403C613.194,-120.2 572.451,-103.105 544.683,-91.4544"/>
<polygon fill="midnightblue" stroke="midnightblue" points="546.026,-88.2223 535.45,-87.5806 543.317,-94.6771 546.026,-88.2223"/>
</g>
<!-- Node12 -->
<g id="node12" class="node"><title>Node12</title>
<polygon fill="none" stroke="#bfbfbf" points="839.5,-68.5 839.5,-87.5 898.5,-87.5 898.5,-68.5 839.5,-68.5"/>
<text text-anchor="middle" x="869" y="-75.5" font-family="Helvetica,sans-Serif" font-size="10.00">stdexcept</text>
</g>
<!-- Node6&#45;&gt;Node12 -->
<g id="edge11" class="edge"><title>Node6&#45;&gt;Node12</title>
<path fill="none" stroke="midnightblue" d="M688.231,-130.403C725.392,-119.836 788.55,-101.877 829.513,-90.2285"/>
<polygon fill="midnightblue" stroke="midnightblue" points="830.504,-93.5854 839.166,-87.4837 828.59,-86.8524 830.504,-93.5854"/>
</g>
<!-- Node13 -->
<g id="node13" class="node"><title>Node13</title>
<polygon fill="none" stroke="#bfbfbf" points="64.5,-6.5 64.5,-25.5 105.5,-25.5 105.5,-6.5 64.5,-6.5"/>
<text text-anchor="middle" x="85" y="-13.5" font-family="Helvetica,sans-Serif" font-size="10.00">string</text>
</g>
<!-- Node6&#45;&gt;Node13 -->
<g id="edge12" class="edge"><title>Node6&#45;&gt;Node13</title>
<path fill="none" stroke="midnightblue" d="M618.953,-130.427C581.961,-121.727 525.2,-106.868 478,-88 460.278,-80.9158 458.247,-73.5926 440,-68 301.052,-25.414 254.384,-73.1366 115,-32 113.031,-31.419 111.036,-30.7136 109.059,-29.929"/>
<polygon fill="midnightblue" stroke="midnightblue" points="110.078,-26.5458 99.5291,-25.5566 107.158,-32.9081 110.078,-26.5458"/>
</g>
<!-- Node14 -->
<g id="node14" class="node"><title>Node14</title>
<g id="a_node14"><a xlink:href="../../dc/d03/MemoryResources_8h.html" target="_top" xlink:title="MemoryResources/MemoryResources.h">
<polygon fill="none" stroke="black" points="561.5,-68.5 561.5,-87.5 754.5,-87.5 754.5,-68.5 561.5,-68.5"/>
<text text-anchor="middle" x="658" y="-75.5" font-family="Helvetica,sans-Serif" font-size="10.00">MemoryResources/MemoryResources.h</text>
</a>
</g>
</g>
<!-- Node6&#45;&gt;Node14 -->
<g id="edge13" class="edge"><title>Node6&#45;&gt;Node14</title>
<path fill="none" stroke="midnightblue" d="M658,-130.403C658,-121.938 658,-108.728 658,-97.8199"/>
<polygon fill="midnightblue" stroke="midnightblue" points="661.5,-97.5806 658,-87.5806 654.5,-97.5806 661.5,-97.5806"/>
</g>
<!-- Node14&#45;&gt;Node5 -->
<g id="edge22" class="edge"><title>Node14&#45;&gt;Node5</title>
<path fill="none" stroke="midnightblue" d="M754.762,-68.7781C757.878,-68.5153 760.963,-68.2554 764,-68 955.987,-51.8501 1009.85,-81.6681 1196,-32 1198.35,-31.3727 1200.74,-30.5799 1203.1,-29.6878"/>
<polygon fill="midnightblue" stroke="midnightblue" points="1204.68,-32.8173 1212.47,-25.6318 1201.9,-26.3936 1204.68,-32.8173"/>
</g>
<!-- Node14&#45;&gt;Node10 -->
<g id="edge18" class="edge"><title>Node14&#45;&gt;Node10</title>
<path fill="none" stroke="midnightblue" d="M561.473,-68.8297C557.938,-68.5468 554.438,-68.2694 551,-68 330.651,-50.737 268.855,-87.8369 55,-32 52.5066,-31.349 49.9701,-30.5078 47.4716,-29.5565"/>
<polygon fill="midnightblue" stroke="midnightblue" points="48.7616,-26.3007 38.1963,-25.5101 45.9626,-32.7168 48.7616,-26.3007"/>
</g>
<!-- Node14&#45;&gt;Node13 -->
<g id="edge19" class="edge"><title>Node14&#45;&gt;Node13</title>
<path fill="none" stroke="midnightblue" d="M561.47,-68.8738C557.936,-68.5785 554.437,-68.2864 551,-68 357.235,-51.8515 302.236,-84.4272 115,-32 113.023,-31.4465 111.022,-30.7611 109.041,-29.9905"/>
<polygon fill="midnightblue" stroke="midnightblue" points="110.055,-26.6063 99.5037,-25.6449 107.152,-32.9762 110.055,-26.6063"/>
</g>
<!-- Node15 -->
<g id="node15" class="node"><title>Node15</title>
<polygon fill="none" stroke="#bfbfbf" points="874,-1 874,-31 974,-31 974,-1 874,-1"/>
<text text-anchor="start" x="882" y="-19" font-family="Helvetica,sans-Serif" font-size="10.00">boost/container/flat</text>
<text text-anchor="middle" x="924" y="-8" font-family="Helvetica,sans-Serif" font-size="10.00">_map.hpp</text>
</g>
<!-- Node14&#45;&gt;Node15 -->
<g id="edge14" class="edge"><title>Node14&#45;&gt;Node15</title>
<path fill="none" stroke="midnightblue" d="M698.731,-68.4779C740.346,-59.6829 806.793,-45.3961 864,-32 864.101,-31.9763 864.203,-31.9525 864.304,-31.9287"/>
<polygon fill="midnightblue" stroke="midnightblue" points="865.02,-35.3563 873.937,-29.6347 863.398,-28.5467 865.02,-35.3563"/>
</g>
<!-- Node16 -->
<g id="node16" class="node"><title>Node16</title>
<polygon fill="none" stroke="#bfbfbf" points="992,-1 992,-31 1108,-31 1108,-1 992,-1"/>
<text text-anchor="start" x="1000" y="-19" font-family="Helvetica,sans-Serif" font-size="10.00">boost/container/pmr</text>
<text text-anchor="middle" x="1050" y="-8" font-family="Helvetica,sans-Serif" font-size="10.00">/memory_resource.hpp</text>
</g>
<!-- Node14&#45;&gt;Node16 -->
<g id="edge15" class="edge"><title>Node14&#45;&gt;Node16</title>
<path fill="none" stroke="midnightblue" d="M732.498,-68.4618C796.229,-60.75 890.602,-48.3678 981.98,-32.0974"/>
<polygon fill="midnightblue" stroke="midnightblue" points="982.732,-35.5182 991.955,-30.3034 981.493,-28.6288 982.732,-35.5182"/>
</g>
<!-- Node17 -->
<g id="node17" class="node"><title>Node17</title>
<polygon fill="none" stroke="#bfbfbf" points="124,-1 124,-31 280,-31 280,-1 124,-1"/>
<text text-anchor="start" x="132" y="-19" font-family="Helvetica,sans-Serif" font-size="10.00">boost/container/pmr</text>
<text text-anchor="middle" x="202" y="-8" font-family="Helvetica,sans-Serif" font-size="10.00">/monotonic_buffer_resource.hpp</text>
</g>
<!-- Node14&#45;&gt;Node17 -->
<g id="edge16" class="edge"><title>Node14&#45;&gt;Node17</title>
<path fill="none" stroke="midnightblue" d="M578.67,-68.4718C506.179,-60.4163 395.769,-47.4902 290.405,-32.1652"/>
<polygon fill="midnightblue" stroke="midnightblue" points="290.627,-28.6605 280.225,-30.6747 289.613,-35.5867 290.627,-28.6605"/>
</g>
<!-- Node18 -->
<g id="node18" class="node"><title>Node18</title>
<polygon fill="none" stroke="#bfbfbf" points="298.5,-1 298.5,-31 431.5,-31 431.5,-1 298.5,-1"/>
<text text-anchor="start" x="306.5" y="-19" font-family="Helvetica,sans-Serif" font-size="10.00">boost/container/pmr</text>
<text text-anchor="middle" x="365" y="-8" font-family="Helvetica,sans-Serif" font-size="10.00">/polymorphic_allocator.hpp</text>
</g>
<!-- Node14&#45;&gt;Node18 -->
<g id="edge17" class="edge"><title>Node14&#45;&gt;Node18</title>
<path fill="none" stroke="midnightblue" d="M616.331,-68.4672C570.948,-59.1736 497.377,-44.108 441.533,-32.6724"/>
<polygon fill="midnightblue" stroke="midnightblue" points="442.175,-29.2312 431.676,-30.6538 440.771,-36.0889 442.175,-29.2312"/>
</g>
<!-- Node19 -->
<g id="node19" class="node"><title>Node19</title>
<polygon fill="none" stroke="#bfbfbf" points="1126,-6.5 1126,-25.5 1188,-25.5 1188,-6.5 1126,-6.5"/>
<text text-anchor="middle" x="1157" y="-13.5" font-family="Helvetica,sans-Serif" font-size="10.00">type_traits</text>
</g>
<!-- Node14&#45;&gt;Node19 -->
<g id="edge20" class="edge"><title>Node14&#45;&gt;Node19</title>
<path fill="none" stroke="midnightblue" d="M750.764,-68.4892C879.47,-56.5931 1098.49,-35.9963 1116,-32 1119.69,-31.158 1123.5,-30.0737 1127.24,-28.8737"/>
<polygon fill="midnightblue" stroke="midnightblue" points="1128.58,-32.1143 1136.87,-25.5139 1126.27,-25.5054 1128.58,-32.1143"/>
</g>
<!-- Node20 -->
<g id="node20" class="node"><title>Node20</title>
<polygon fill="none" stroke="#bfbfbf" points="450,-6.5 450,-25.5 490,-25.5 490,-6.5 450,-6.5"/>
<text text-anchor="middle" x="470" y="-13.5" font-family="Helvetica,sans-Serif" font-size="10.00">utility</text>
</g>
<!-- Node14&#45;&gt;Node20 -->
<g id="edge21" class="edge"><title>Node14&#45;&gt;Node20</title>
<path fill="none" stroke="midnightblue" d="M620.646,-68.4488C588.218,-60.535 540.277,-47.6478 500,-32 498.358,-31.3621 496.685,-30.6655 495.012,-29.933"/>
<polygon fill="midnightblue" stroke="midnightblue" points="496.168,-26.6085 485.631,-25.5036 493.179,-32.9384 496.168,-26.6085"/>
</g>
<!-- Node21 -->
<g id="node21" class="node"><title>Node21</title>
<polygon fill="none" stroke="#bfbfbf" points="508.5,-6.5 508.5,-25.5 591.5,-25.5 591.5,-6.5 508.5,-6.5"/>
<text text-anchor="middle" x="550" y="-13.5" font-family="Helvetica,sans-Serif" font-size="10.00">unordered_map</text>
</g>
<!-- Node14&#45;&gt;Node21 -->
<g id="edge23" class="edge"><title>Node14&#45;&gt;Node21</title>
<path fill="none" stroke="midnightblue" d="M642.526,-68.4035C624.722,-58.5123 595.259,-42.1442 574.368,-30.5378"/>
<polygon fill="midnightblue" stroke="midnightblue" points="575.886,-27.3775 565.445,-25.5806 572.487,-33.4966 575.886,-27.3775"/>
</g>
<!-- Node22 -->
<g id="node22" class="node"><title>Node22</title>
<polygon fill="none" stroke="#bfbfbf" points="609.5,-6.5 609.5,-25.5 706.5,-25.5 706.5,-6.5 609.5,-6.5"/>
<text text-anchor="middle" x="658" y="-13.5" font-family="Helvetica,sans-Serif" font-size="10.00">FairMQMessage.h</text>
</g>
<!-- Node14&#45;&gt;Node22 -->
<g id="edge24" class="edge"><title>Node14&#45;&gt;Node22</title>
<path fill="none" stroke="midnightblue" d="M658,-68.4035C658,-59.9381 658,-46.7283 658,-35.8199"/>
<polygon fill="midnightblue" stroke="midnightblue" points="661.5,-35.5806 658,-25.5806 654.5,-35.5806 661.5,-35.5806"/>
</g>
<!-- Node23 -->
<g id="node23" class="node"><title>Node23</title>
<polygon fill="none" stroke="#bfbfbf" points="724.5,-6.5 724.5,-25.5 855.5,-25.5 855.5,-6.5 724.5,-6.5"/>
<text text-anchor="middle" x="790" y="-13.5" font-family="Helvetica,sans-Serif" font-size="10.00">FairMQTransportFactory.h</text>
</g>
<!-- Node14&#45;&gt;Node23 -->
<g id="edge25" class="edge"><title>Node14&#45;&gt;Node23</title>
<path fill="none" stroke="midnightblue" d="M676.912,-68.4035C699.163,-58.2896 736.312,-41.4036 761.926,-29.761"/>
<polygon fill="midnightblue" stroke="midnightblue" points="763.467,-32.905 771.123,-25.5806 760.571,-26.5324 763.467,-32.905"/>
</g>
<!-- Node24&#45;&gt;Node5 -->
<g id="edge28" class="edge"><title>Node24&#45;&gt;Node5</title>
<path fill="none" stroke="midnightblue" d="M910.644,-124.99C926.364,-108.526 954.83,-81.7176 985,-68 1071.6,-28.6246 1105.22,-60.4464 1196,-32 1198.27,-31.2879 1200.59,-30.447 1202.89,-29.5326"/>
<polygon fill="midnightblue" stroke="midnightblue" points="1204.31,-32.7304 1212.06,-25.5025 1201.5,-26.3221 1204.31,-32.7304"/>
</g>
<!-- Node24&#45;&gt;Node9 -->
<g id="edge29" class="edge"><title>Node24&#45;&gt;Node9</title>
<path fill="none" stroke="midnightblue" d="M874.32,-124.933C858.041,-115.262 836.523,-102.479 820.322,-92.8546"/>
<polygon fill="midnightblue" stroke="midnightblue" points="821.862,-89.6983 811.477,-87.6 818.287,-95.7165 821.862,-89.6983"/>
</g>
<!-- Node24&#45;&gt;Node12 -->
<g id="edge31" class="edge"><title>Node24&#45;&gt;Node12</title>
<path fill="none" stroke="midnightblue" d="M891.127,-124.781C887.087,-116.422 881.942,-105.777 877.631,-96.8565"/>
<polygon fill="midnightblue" stroke="midnightblue" points="880.723,-95.2109 873.22,-87.7305 874.42,-98.2571 880.723,-95.2109"/>
</g>
<!-- Node24&#45;&gt;Node19 -->
<g id="edge30" class="edge"><title>Node24&#45;&gt;Node19</title>
<path fill="none" stroke="midnightblue" d="M904.631,-124.85C913.048,-108.509 929.145,-82.0758 951,-68 1014.1,-27.3581 1043.92,-52.9427 1116,-32 1119.13,-31.0906 1122.36,-30.0636 1125.58,-28.984"/>
<polygon fill="midnightblue" stroke="midnightblue" points="1126.78,-32.2724 1135.05,-25.6529 1124.46,-25.6689 1126.78,-32.2724"/>
</g>
<!-- Node25 -->
<g id="node25" class="node"><title>Node25</title>
<polygon fill="none" stroke="#bfbfbf" points="993.5,-68.5 993.5,-87.5 1052.5,-87.5 1052.5,-68.5 993.5,-68.5"/>
<text text-anchor="middle" x="1023" y="-75.5" font-family="Helvetica,sans-Serif" font-size="10.00">functional</text>
</g>
<!-- Node24&#45;&gt;Node25 -->
<g id="edge27" class="edge"><title>Node24&#45;&gt;Node25</title>
<path fill="none" stroke="midnightblue" d="M927.307,-124.933C948.019,-114.991 975.583,-101.76 995.807,-92.0526"/>
<polygon fill="midnightblue" stroke="midnightblue" points="997.583,-95.0827 1005.08,-87.6 994.553,-88.7721 997.583,-95.0827"/>
</g>
</g>
</svg>
        <g id="navigator" transform="translate(0 0)" fill="#404254">
                <rect fill="#f2f5e9" fill-opacity="0.5" stroke="#606060" stroke-width=".5" x="0" y="0" width="60" height="60"/>
                <use id="zoomplus" xlink:href="#zoomPlus" x="17" y="9" onmousedown="handleZoom(evt,'in')"/>
                <use id="zoomminus" xlink:href="#zoomMin" x="42" y="9" onmousedown="handleZoom(evt,'out')"/>
                <use id="reset" xlink:href="#resetDef" x="30" y="36" onmousedown="handleReset()"/>
                <g id="arrowUp" xlink:href="#dirArrow" transform="translate(30 24)" onmousedown="handlePan(0,-1)">
                  <use xlink:href="#rim" fill="#404040">
                        <set attributeName="fill" to="#808080" begin="arrowUp.mouseover" end="arrowUp.mouseout"/>
                  </use>
                  <path fill="none" stroke="white" stroke-width="1.5" d="M0,-3.0v7 M-2.5,-0.5L0,-3.0L2.5,-0.5"/>
                </g>
                <g id="arrowRight" xlink:href="#dirArrow" transform="rotate(90) translate(36 -43)" onmousedown="handlePan(1,0)">
                  <use xlink:href="#rim" fill="#404040">
                        <set attributeName="fill" to="#808080" begin="arrowRight.mouseover" end="arrowRight.mouseout"/>
                  </use>
                  <path fill="none" stroke="white" stroke-width="1.5" d="M0,-3.0v7 M-2.5,-0.5L0,-3.0L2.5,-0.5"/>
                </g>
                <g id="arrowDown" xlink:href="#dirArrow" transform="rotate(180) translate(-30 -48)" onmousedown="handlePan(0,1)">
                  <use xlink:href="#rim" fill="#404040">
                        <set attributeName="fill" to="#808080" begin="arrowDown.mouseover" end="arrowDown.mouseout"/>
                  </use>
                  <path fill="none" stroke="white" stroke-width="1.5" d="M0,-3.0v7 M-2.5,-0.5L0,-3.0L2.5,-0.5"/>
                </g>
                <g id="arrowLeft" xlink:href="#dirArrow" transform="rotate(270) translate(-36 17)" onmousedown="handlePan(-1,0)">
                  <use xlink:href="#rim" fill="#404040">
                        <set attributeName="fill" to="#808080" begin="arrowLeft.mouseover" end="arrowLeft.mouseout"/>
                  </use>
                  <path fill="none" stroke="white" stroke-width="1.5" d="M0,-3.0v7 M-2.5,-0.5L0,-3.0L2.5,-0.5"/>
                </g>
        </g>
        <svg viewBox="0 0 15 15" width="100%" height="30px" preserveAspectRatio="xMaxYMin meet">
         <g id="arrow_out" transform="scale(0.3 0.3)">
          <a xlink:href="pageparser_8cxx__incl_org.svg" target="_base">
           <rect id="button" ry="5" rx="5" y="6" x="6" height="38" width="38"
                fill="#f2f5e9" fill-opacity="0.5" stroke="#606060" stroke-width="1.0"/>
           <path id="arrow"
             d="M 11.500037,31.436501 C 11.940474,20.09759 22.043105,11.32322 32.158766,21.979434 L 37.068811,17.246167 C 37.068811,17.246167 37.088388,32 37.088388,32 L 22.160133,31.978069 C 22.160133,31.978069 26.997745,27.140456 26.997745,27.140456 C 18.528582,18.264221 13.291696,25.230495 11.500037,31.436501 z"
             style="fill:#404040;"/>
          </a>
         </g>
        </svg>
</svg>
