<?xml version="1.0" encoding="UTF-8" standalone="no"?>
<!DOCTYPE svg PUBLIC "-//W3C//DTD SVG 1.1//EN"
 "http://www.w3.org/Graphics/SVG/1.1/DTD/svg11.dtd">
<!-- Generated by graphviz version 2.36.0 (20140111.2315)
 -->
<!-- Title: o2::header::NameHeader&lt; N &gt; Pages: 1 -->
<!--zoomable 1022 -->
<svg id="main" version="1.1" xmlns="http://www.w3.org/2000/svg" xmlns:xlink="http://www.w3.org/1999/xlink" xml:space="preserve" onload="init(evt)">
<style type="text/css"><![CDATA[
.edge:hover path { stroke: red; }
.edge:hover polygon { stroke: red; fill: red; }
]]></style>
<script type="text/javascript"><![CDATA[
var edges = document.getElementsByTagName('g');
if (edges && edges.length) {
  for (var i=0;i<edges.length;i++) {
    if (edges[i].id.substr(0,4)=='edge') {
      edges[i].setAttribute('class','edge');
    }
  }
}
]]></script>
        <defs>
                <circle id="rim" cx="0" cy="0" r="7"/>
                <circle id="rim2" cx="0" cy="0" r="3.5"/>
                <g id="zoomPlus">
                        <use xlink:href="#rim" fill="#404040">
                                <set attributeName="fill" to="#808080" begin="zoomplus.mouseover" end="zoomplus.mouseout"/>
                        </use>
                        <path d="M-4,0h8M0,-4v8" fill="none" stroke="white" stroke-width="1.5" pointer-events="none"/>
                </g>
                <g id="zoomMin">
                        <use xlink:href="#rim" fill="#404040">
                                <set attributeName="fill" to="#808080" begin="zoomminus.mouseover" end="zoomminus.mouseout"/>
                        </use>
                        <path d="M-4,0h8" fill="none" stroke="white" stroke-width="1.5" pointer-events="none"/>
                </g>
                <g id="dirArrow">
                        <path fill="none" stroke="white" stroke-width="1.5" d="M0,-3.0v7 M-2.5,-0.5L0,-3.0L2.5,-0.5"/>
                </g>
               <g id="resetDef">
                       <use xlink:href="#rim2" fill="#404040">
                               <set attributeName="fill" to="#808080" begin="reset.mouseover" end="reset.mouseout"/>
                       </use>
               </g>
        </defs>

<script type="text/javascript">
var viewWidth = 938;
var viewHeight = 1022;
var sectionId = 'dynsection-1';
</script>
<script xlink:href="../../svgpan.js"/>
<svg id="graph" class="graph">
<g id="viewport">
<title>o2::header::NameHeader&lt; N &gt;</title>
<!-- Node1 -->
<g id="node1" class="node"><title>Node1</title>
<polygon fill="#bfbfbf" stroke="black" points="583.146,-1 583.146,-113 735.146,-113 735.146,-1 583.146,-1"/>
<text text-anchor="middle" x="659.146" y="-101" font-family="Helvetica,sans-Serif" font-size="10.00">o2::header::NameHeader&lt; N &gt;</text>
<polyline fill="none" stroke="black" points="583.146,-94 735.146,-94 "/>
<text text-anchor="middle" x="659.146" y="-82" font-family="Helvetica,sans-Serif" font-size="10.00"> </text>
<polyline fill="none" stroke="black" points="583.146,-75 735.146,-75 "/>
<text text-anchor="start" x="591.146" y="-63" font-family="Helvetica,sans-Serif" font-size="10.00">+ NameHeader()</text>
<text text-anchor="start" x="591.146" y="-52" font-family="Helvetica,sans-Serif" font-size="10.00">+ NameHeader()</text>
<text text-anchor="start" x="591.146" y="-41" font-family="Helvetica,sans-Serif" font-size="10.00">+ getName()</text>
<text text-anchor="start" x="591.146" y="-30" font-family="Helvetica,sans-Serif" font-size="10.00">+ getNameLength()</text>
<text text-anchor="start" x="591.146" y="-19" font-family="Helvetica,sans-Serif" font-size="10.00">+ sHeaderType()</text>
<text text-anchor="start" x="591.146" y="-8" font-family="Helvetica,sans-Serif" font-size="10.00">+ sHeaderType()</text>
</g>
<!-- Node2 -->
<g id="node2" class="node"><title>Node2</title>
<g id="a_node2"><a xlink:href="../../d8/dbd/structo2_1_1header_1_1BaseHeader.html" target="_top" xlink:title="the base header struct Every header type must begin (i.e. derive) with this. Don&#39;t use this struct di...">
<polygon fill="none" stroke="black" points="598.146,-152.5 598.146,-297.5 720.146,-297.5 720.146,-152.5 598.146,-152.5"/>
<text text-anchor="middle" x="659.146" y="-285.5" font-family="Helvetica,sans-Serif" font-size="10.00">o2::header::BaseHeader</text>
<polyline fill="none" stroke="black" points="598.146,-278.5 720.146,-278.5 "/>
<text text-anchor="middle" x="659.146" y="-266.5" font-family="Helvetica,sans-Serif" font-size="10.00"> </text>
<polyline fill="none" stroke="black" points="598.146,-259.5 720.146,-259.5 "/>
<text text-anchor="start" x="606.146" y="-247.5" font-family="Helvetica,sans-Serif" font-size="10.00">+ BaseHeader()</text>
<text text-anchor="start" x="606.146" y="-236.5" font-family="Helvetica,sans-Serif" font-size="10.00">+ BaseHeader()</text>
<text text-anchor="start" x="606.146" y="-225.5" font-family="Helvetica,sans-Serif" font-size="10.00">+ BaseHeader()</text>
<text text-anchor="start" x="606.146" y="-214.5" font-family="Helvetica,sans-Serif" font-size="10.00">+ size()</text>
<text text-anchor="start" x="606.146" y="-203.5" font-family="Helvetica,sans-Serif" font-size="10.00">+ data()</text>
<text text-anchor="start" x="606.146" y="-192.5" font-family="Helvetica,sans-Serif" font-size="10.00">+ next()</text>
<text text-anchor="start" x="606.146" y="-181.5" font-family="Helvetica,sans-Serif" font-size="10.00">+ next()</text>
<text text-anchor="start" x="606.146" y="-170.5" font-family="Helvetica,sans-Serif" font-size="10.00">+ get()</text>
<text text-anchor="start" x="606.146" y="-159.5" font-family="Helvetica,sans-Serif" font-size="10.00">+ get()</text>
</a>
</g>
</g>
<!-- Node2&#45;&gt;Node1 -->
<g id="edge1" class="edge"><title>Node2&#45;&gt;Node1</title>
<path fill="none" stroke="midnightblue" d="M659.146,-142.005C659.146,-132.237 659.146,-122.45 659.146,-113.186"/>
<polygon fill="none" stroke="midnightblue" points="655.646,-142.155 659.146,-152.155 662.646,-142.155 655.646,-142.155"/>
</g>
<!-- Node3 -->
<g id="node3" class="node"><title>Node3</title>
<g id="a_node3"><a xlink:href="../../d9/db3/structo2_1_1header_1_1Descriptor.html" target="_top" xlink:title="{o2::header::Descriptor\l\&lt; gSizeHeaderDescriptionString \&gt;\n||+ Descriptor()\l+ Descriptor()\l+ Descriptor()\l+ Descriptor()\l+ operator=()\l+ operator ItgType()\l+ runtimeInit()\l+ operator==()\l+ operator==()\l+ operator!=()\l+ operator!=()\l+ as()\l+ print()\l}">
<polygon fill="none" stroke="black" points="277.146,-423 277.146,-623 443.146,-623 443.146,-423 277.146,-423"/>
<text text-anchor="start" x="285.146" y="-611" font-family="Helvetica,sans-Serif" font-size="10.00">o2::header::Descriptor</text>
<text text-anchor="middle" x="360.146" y="-600" font-family="Helvetica,sans-Serif" font-size="10.00">&lt; gSizeHeaderDescriptionString &gt;</text>
<polyline fill="none" stroke="black" points="277.146,-593 443.146,-593 "/>
<text text-anchor="middle" x="360.146" y="-581" font-family="Helvetica,sans-Serif" font-size="10.00"> </text>
<polyline fill="none" stroke="black" points="277.146,-574 443.146,-574 "/>
<text text-anchor="start" x="285.146" y="-562" font-family="Helvetica,sans-Serif" font-size="10.00">+ Descriptor()</text>
<text text-anchor="start" x="285.146" y="-551" font-family="Helvetica,sans-Serif" font-size="10.00">+ Descriptor()</text>
<text text-anchor="start" x="285.146" y="-540" font-family="Helvetica,sans-Serif" font-size="10.00">+ Descriptor()</text>
<text text-anchor="start" x="285.146" y="-529" font-family="Helvetica,sans-Serif" font-size="10.00">+ Descriptor()</text>
<text text-anchor="start" x="285.146" y="-518" font-family="Helvetica,sans-Serif" font-size="10.00">+ operator=()</text>
<text text-anchor="start" x="285.146" y="-507" font-family="Helvetica,sans-Serif" font-size="10.00">+ operator ItgType()</text>
<text text-anchor="start" x="285.146" y="-496" font-family="Helvetica,sans-Serif" font-size="10.00">+ runtimeInit()</text>
<text text-anchor="start" x="285.146" y="-485" font-family="Helvetica,sans-Serif" font-size="10.00">+ operator==()</text>
<text text-anchor="start" x="285.146" y="-474" font-family="Helvetica,sans-Serif" font-size="10.00">+ operator==()</text>
<text text-anchor="start" x="285.146" y="-463" font-family="Helvetica,sans-Serif" font-size="10.00">+ operator!=()</text>
<text text-anchor="start" x="285.146" y="-452" font-family="Helvetica,sans-Serif" font-size="10.00">+ operator!=()</text>
<text text-anchor="start" x="285.146" y="-441" font-family="Helvetica,sans-Serif" font-size="10.00">+ as()</text>
<text text-anchor="start" x="285.146" y="-430" font-family="Helvetica,sans-Serif" font-size="10.00">+ print()</text>
</a>
</g>
</g>
<!-- Node3&#45;&gt;Node2 -->
<g id="edge2" class="edge"><title>Node3&#45;&gt;Node2</title>
<path fill="none" stroke="#404040" d="M412.649,-422.943C435.285,-386.362 464.168,-346.446 497.146,-316 523.358,-291.8 557.256,-271.679 587.264,-256.644"/>
<polygon fill="none" stroke="#404040" points="587.341,-256.606 590.975,-250.378 598.122,-251.336 594.488,-257.565 587.341,-256.606"/>
<text text-anchor="middle" x="525.646" y="-357.5" font-family="Helvetica,sans-Serif" font-size="10.00"> +description</text>
</g>
<!-- Node4 -->
<g id="node4" class="node"><title>Node4</title>
<polygon fill="none" stroke="#bfbfbf" points="275.146,-955.5 275.146,-1012.5 313.146,-1012.5 313.146,-955.5 275.146,-955.5"/>
<text text-anchor="middle" x="294.146" y="-1000.5" font-family="Helvetica,sans-Serif" font-size="10.00">Type</text>
<polyline fill="none" stroke="#bfbfbf" points="275.146,-993.5 313.146,-993.5 "/>
<text text-anchor="middle" x="294.146" y="-981.5" font-family="Helvetica,sans-Serif" font-size="10.00"> </text>
<polyline fill="none" stroke="#bfbfbf" points="275.146,-974.5 313.146,-974.5 "/>
<text text-anchor="middle" x="294.146" y="-962.5" font-family="Helvetica,sans-Serif" font-size="10.00"> </text>
</g>
<!-- Node4&#45;&gt;Node3 -->
<g id="edge3" class="edge"><title>Node4&#45;&gt;Node3</title>
<path fill="none" stroke="#404040" d="M275.022,-978.862C237.405,-969.548 154.71,-942.978 123.146,-884 80.7837,-804.845 73.4858,-756.792 123.146,-682 160.401,-625.891 207.203,-661.503 263.146,-624 264.474,-623.11 265.798,-622.199 267.117,-621.269"/>
<polygon fill="none" stroke="#404040" points="267.514,-620.973 269.93,-614.178 277.131,-613.795 274.715,-620.589 267.514,-620.973"/>
<text text-anchor="middle" x="133.146" y="-780.5" font-family="Helvetica,sans-Serif" font-size="10.00"> +itg</text>
</g>
<!-- Node8 -->
<g id="node8" class="node"><title>Node8</title>
<g id="a_node8"><a xlink:href="../../d9/db3/structo2_1_1header_1_1Descriptor.html" target="_top" xlink:title="{o2::header::Descriptor\l\&lt; N, PrinterPolicy \&gt;\n||+ Descriptor()\l+ Descriptor()\l+ Descriptor()\l+ operator=()\l+ operator ItgType()\l+ Descriptor()\l+ runtimeInit()\l+ operator==()\l+ operator!=()\l+ operator==()\l+ operator!=()\l+ as()\l+ print()\l}">
<polygon fill="none" stroke="black" points="234.646,-683 234.646,-883 347.646,-883 347.646,-683 234.646,-683"/>
<text text-anchor="start" x="242.646" y="-871" font-family="Helvetica,sans-Serif" font-size="10.00">o2::header::Descriptor</text>
<text text-anchor="middle" x="291.146" y="-860" font-family="Helvetica,sans-Serif" font-size="10.00">&lt; N, PrinterPolicy &gt;</text>
<polyline fill="none" stroke="black" points="234.646,-853 347.646,-853 "/>
<text text-anchor="middle" x="291.146" y="-841" font-family="Helvetica,sans-Serif" font-size="10.00"> </text>
<polyline fill="none" stroke="black" points="234.646,-834 347.646,-834 "/>
<text text-anchor="start" x="242.646" y="-822" font-family="Helvetica,sans-Serif" font-size="10.00">+ Descriptor()</text>
<text text-anchor="start" x="242.646" y="-811" font-family="Helvetica,sans-Serif" font-size="10.00">+ Descriptor()</text>
<text text-anchor="start" x="242.646" y="-800" font-family="Helvetica,sans-Serif" font-size="10.00">+ Descriptor()</text>
<text text-anchor="start" x="242.646" y="-789" font-family="Helvetica,sans-Serif" font-size="10.00">+ operator=()</text>
<text text-anchor="start" x="242.646" y="-778" font-family="Helvetica,sans-Serif" font-size="10.00">+ operator ItgType()</text>
<text text-anchor="start" x="242.646" y="-767" font-family="Helvetica,sans-Serif" font-size="10.00">+ Descriptor()</text>
<text text-anchor="start" x="242.646" y="-756" font-family="Helvetica,sans-Serif" font-size="10.00">+ runtimeInit()</text>
<text text-anchor="start" x="242.646" y="-745" font-family="Helvetica,sans-Serif" font-size="10.00">+ operator==()</text>
<text text-anchor="start" x="242.646" y="-734" font-family="Helvetica,sans-Serif" font-size="10.00">+ operator!=()</text>
<text text-anchor="start" x="242.646" y="-723" font-family="Helvetica,sans-Serif" font-size="10.00">+ operator==()</text>
<text text-anchor="start" x="242.646" y="-712" font-family="Helvetica,sans-Serif" font-size="10.00">+ operator!=()</text>
<text text-anchor="start" x="242.646" y="-701" font-family="Helvetica,sans-Serif" font-size="10.00">+ as()</text>
<text text-anchor="start" x="242.646" y="-690" font-family="Helvetica,sans-Serif" font-size="10.00">+ print()</text>
</a>
</g>
</g>
<!-- Node4&#45;&gt;Node8 -->
<g id="edge8" class="edge"><title>Node4&#45;&gt;Node8</title>
<path fill="none" stroke="#404040" d="M293.729,-955.33C293.486,-939.216 293.162,-917.721 292.826,-895.415"/>
<polygon fill="none" stroke="#404040" points="292.825,-895.335 288.735,-889.396 292.644,-883.336 296.734,-889.275 292.825,-895.335"/>
<text text-anchor="middle" x="304.146" y="-916.5" font-family="Helvetica,sans-Serif" font-size="10.00"> +itg</text>
</g>
<!-- Node10 -->
<g id="node10" class="node"><title>Node10</title>
<g id="a_node10"><a xlink:href="../../d9/db3/structo2_1_1header_1_1Descriptor.html" target="_top" xlink:title="{o2::header::Descriptor\l\&lt; gSizeSerializationMethodString \&gt;\n||+ Descriptor()\l+ Descriptor()\l+ Descriptor()\l+ Descriptor()\l+ operator=()\l+ operator ItgType()\l+ runtimeInit()\l+ operator==()\l+ operator==()\l+ operator!=()\l+ operator!=()\l+ as()\l+ print()\l}">
<polygon fill="none" stroke="black" points="461.146,-423 461.146,-623 631.146,-623 631.146,-423 461.146,-423"/>
<text text-anchor="start" x="469.146" y="-611" font-family="Helvetica,sans-Serif" font-size="10.00">o2::header::Descriptor</text>
<text text-anchor="middle" x="546.146" y="-600" font-family="Helvetica,sans-Serif" font-size="10.00">&lt; gSizeSerializationMethodString &gt;</text>
<polyline fill="none" stroke="black" points="461.146,-593 631.146,-593 "/>
<text text-anchor="middle" x="546.146" y="-581" font-family="Helvetica,sans-Serif" font-size="10.00"> </text>
<polyline fill="none" stroke="black" points="461.146,-574 631.146,-574 "/>
<text text-anchor="start" x="469.146" y="-562" font-family="Helvetica,sans-Serif" font-size="10.00">+ Descriptor()</text>
<text text-anchor="start" x="469.146" y="-551" font-family="Helvetica,sans-Serif" font-size="10.00">+ Descriptor()</text>
<text text-anchor="start" x="469.146" y="-540" font-family="Helvetica,sans-Serif" font-size="10.00">+ Descriptor()</text>
<text text-anchor="start" x="469.146" y="-529" font-family="Helvetica,sans-Serif" font-size="10.00">+ Descriptor()</text>
<text text-anchor="start" x="469.146" y="-518" font-family="Helvetica,sans-Serif" font-size="10.00">+ operator=()</text>
<text text-anchor="start" x="469.146" y="-507" font-family="Helvetica,sans-Serif" font-size="10.00">+ operator ItgType()</text>
<text text-anchor="start" x="469.146" y="-496" font-family="Helvetica,sans-Serif" font-size="10.00">+ runtimeInit()</text>
<text text-anchor="start" x="469.146" y="-485" font-family="Helvetica,sans-Serif" font-size="10.00">+ operator==()</text>
<text text-anchor="start" x="469.146" y="-474" font-family="Helvetica,sans-Serif" font-size="10.00">+ operator==()</text>
<text text-anchor="start" x="469.146" y="-463" font-family="Helvetica,sans-Serif" font-size="10.00">+ operator!=()</text>
<text text-anchor="start" x="469.146" y="-452" font-family="Helvetica,sans-Serif" font-size="10.00">+ operator!=()</text>
<text text-anchor="start" x="469.146" y="-441" font-family="Helvetica,sans-Serif" font-size="10.00">+ as()</text>
<text text-anchor="start" x="469.146" y="-430" font-family="Helvetica,sans-Serif" font-size="10.00">+ print()</text>
</a>
</g>
</g>
<!-- Node4&#45;&gt;Node10 -->
<g id="edge17" class="edge"><title>Node4&#45;&gt;Node10</title>
<path fill="none" stroke="#404040" d="M313.199,-972.259C328.389,-963.343 349.899,-949.91 367.146,-936 367.245,-935.92 419.086,-884.113 419.146,-884 461.79,-803.211 393.616,-747.644 457.146,-682 482.793,-655.5 514.259,-692.096 538.146,-664 545.384,-655.487 550.283,-645.526 553.451,-634.91"/>
<polygon fill="none" stroke="#404040" points="553.466,-634.847 550.959,-628.086 556.236,-623.172 558.743,-629.933 553.466,-634.847"/>
<text text-anchor="middle" x="467.146" y="-780.5" font-family="Helvetica,sans-Serif" font-size="10.00"> +itg</text>
</g>
<!-- Node5 -->
<g id="node5" class="node"><title>Node5</title>
<polygon fill="none" stroke="#bfbfbf" points="433.646,-955.5 433.646,-1012.5 468.646,-1012.5 468.646,-955.5 433.646,-955.5"/>
<text text-anchor="middle" x="451.146" y="-1000.5" font-family="Helvetica,sans-Serif" font-size="10.00">char</text>
<polyline fill="none" stroke="#bfbfbf" points="433.646,-993.5 468.646,-993.5 "/>
<text text-anchor="middle" x="451.146" y="-981.5" font-family="Helvetica,sans-Serif" font-size="10.00"> </text>
<polyline fill="none" stroke="#bfbfbf" points="433.646,-974.5 468.646,-974.5 "/>
<text text-anchor="middle" x="451.146" y="-962.5" font-family="Helvetica,sans-Serif" font-size="10.00"> </text>
</g>
<!-- Node5&#45;&gt;Node2 -->
<g id="edge14" class="edge"><title>Node5&#45;&gt;Node2</title>
<path fill="none" stroke="#404040" d="M468.774,-976.715C500.611,-964.371 567.343,-933.747 599.146,-884 662.158,-785.437 628.228,-740.375 640.146,-624 651.223,-515.834 655.861,-390.455 657.79,-309.776"/>
<polygon fill="none" stroke="#404040" points="657.792,-309.71 653.93,-303.62 658.066,-297.713 661.928,-303.803 657.792,-309.71"/>
<text text-anchor="middle" x="669.646" y="-650.5" font-family="Helvetica,sans-Serif" font-size="10.00"> +magicString</text>
</g>
<!-- Node5&#45;&gt;Node3 -->
<g id="edge4" class="edge"><title>Node5&#45;&gt;Node3</title>
<path fill="none" stroke="#404040" d="M433.619,-958.341C421.057,-939.108 405.165,-911.182 398.146,-884 377.054,-802.317 367.633,-707.315 363.443,-635.42"/>
<polygon fill="none" stroke="#404040" points="363.429,-635.163 359.104,-629.393 362.767,-623.181 367.092,-628.951 363.429,-635.163"/>
<text text-anchor="middle" x="408.646" y="-780.5" font-family="Helvetica,sans-Serif" font-size="10.00"> +str</text>
</g>
<!-- Node5&#45;&gt;Node8 -->
<g id="edge9" class="edge"><title>Node5&#45;&gt;Node8</title>
<path fill="none" stroke="#404040" d="M433.34,-975.995C415.742,-968.343 388.94,-954.645 371.146,-936 359.186,-923.467 348.534,-908.795 339.212,-893.6"/>
<polygon fill="none" stroke="#404040" points="339.067,-893.354 332.574,-890.217 332.972,-883.017 339.465,-886.154 339.067,-893.354"/>
<text text-anchor="middle" x="381.646" y="-916.5" font-family="Helvetica,sans-Serif" font-size="10.00"> +str</text>
</g>
<!-- Node5&#45;&gt;Node10 -->
<g id="edge18" class="edge"><title>Node5&#45;&gt;Node10</title>
<path fill="none" stroke="#404040" d="M468.838,-961.76C474.32,-954.089 479.795,-945.075 483.146,-936 522.492,-829.461 440.293,-770.761 511.146,-682 526.404,-662.886 548.96,-683.922 563.146,-664 569.322,-655.327 572.909,-645.561 574.608,-635.324"/>
<polygon fill="none" stroke="#404040" points="574.633,-635.072 571.224,-628.718 575.779,-623.127 579.187,-629.482 574.633,-635.072"/>
<text text-anchor="middle" x="521.646" y="-780.5" font-family="Helvetica,sans-Serif" font-size="10.00"> +str</text>
</g>
<!-- Node6 -->
<g id="node6" class="node"><title>Node6</title>
<polygon fill="none" stroke="#bfbfbf" points="147.646,-955.5 147.646,-1012.5 176.646,-1012.5 176.646,-955.5 147.646,-955.5"/>
<text text-anchor="middle" x="162.146" y="-1000.5" font-family="Helvetica,sans-Serif" font-size="10.00">int</text>
<polyline fill="none" stroke="#bfbfbf" points="147.646,-993.5 176.646,-993.5 "/>
<text text-anchor="middle" x="162.146" y="-981.5" font-family="Helvetica,sans-Serif" font-size="10.00"> </text>
<polyline fill="none" stroke="#bfbfbf" points="147.646,-974.5 176.646,-974.5 "/>
<text text-anchor="middle" x="162.146" y="-962.5" font-family="Helvetica,sans-Serif" font-size="10.00"> </text>
</g>
<!-- Node6&#45;&gt;Node3 -->
<g id="edge5" class="edge"><title>Node6&#45;&gt;Node3</title>
<path fill="none" stroke="#404040" d="M147.484,-977.002C119.284,-964.553 58.1575,-932.927 34.1461,-884 -5.40718,-803.405 -16.4377,-756.171 34.1461,-682 93.3017,-595.26 169.573,-671.616 263.146,-624 264.332,-623.397 265.511,-622.773 266.684,-622.131"/>
<polygon fill="none" stroke="#404040" points="266.788,-622.068 269.855,-615.541 277.059,-615.863 273.992,-622.389 266.788,-622.068"/>
<text text-anchor="middle" x="59.6461" y="-791.5" font-family="Helvetica,sans-Serif" font-size="10.00"> +arraySize</text>
<text text-anchor="middle" x="59.6461" y="-780.5" font-family="Helvetica,sans-Serif" font-size="10.00">+size</text>
<text text-anchor="middle" x="59.6461" y="-769.5" font-family="Helvetica,sans-Serif" font-size="10.00">+bitcount</text>
</g>
<!-- Node6&#45;&gt;Node8 -->
<g id="edge10" class="edge"><title>Node6&#45;&gt;Node8</title>
<path fill="none" stroke="#404040" d="M176.693,-960.559C189.366,-941.01 208.667,-911.235 227.829,-881.674"/>
<polygon fill="none" stroke="#404040" points="228.063,-881.314 227.97,-874.104 234.59,-871.245 234.683,-878.455 228.063,-881.314"/>
<text text-anchor="middle" x="237.646" y="-927.5" font-family="Helvetica,sans-Serif" font-size="10.00"> +arraySize</text>
<text text-anchor="middle" x="237.646" y="-916.5" font-family="Helvetica,sans-Serif" font-size="10.00">+size</text>
<text text-anchor="middle" x="237.646" y="-905.5" font-family="Helvetica,sans-Serif" font-size="10.00">+bitcount</text>
</g>
<!-- Node6&#45;&gt;Node10 -->
<g id="edge19" class="edge"><title>Node6&#45;&gt;Node10</title>
<path fill="none" stroke="#404040" d="M156.447,-955.193C146.561,-900.043 131.15,-774.187 174.146,-682 225.881,-571.077 331.65,-671.999 449.913,-624.196"/>
<polygon fill="none" stroke="#404040" points="450.053,-624.134 453.919,-618.047 461.025,-619.274 457.159,-625.361 450.053,-624.134"/>
<text text-anchor="middle" x="199.646" y="-791.5" font-family="Helvetica,sans-Serif" font-size="10.00"> +arraySize</text>
<text text-anchor="middle" x="199.646" y="-780.5" font-family="Helvetica,sans-Serif" font-size="10.00">+size</text>
<text text-anchor="middle" x="199.646" y="-769.5" font-family="Helvetica,sans-Serif" font-size="10.00">+bitcount</text>
</g>
<!-- Node7 -->
<g id="node7" class="node"><title>Node7</title>
<polygon fill="none" stroke="#bfbfbf" points="648.646,-955 648.646,-1013 677.646,-1013 677.646,-955 648.646,-955"/>
<polyline fill="none" stroke="#bfbfbf" points="648.646,-993 677.646,-993 "/>
<text text-anchor="middle" x="663.146" y="-981" font-family="Helvetica,sans-Serif" font-size="10.00"> </text>
<polyline fill="none" stroke="#bfbfbf" points="648.646,-974 677.646,-974 "/>
<text text-anchor="middle" x="663.146" y="-962" font-family="Helvetica,sans-Serif" font-size="10.00"> </text>
</g>
<!-- Node7&#45;&gt;Node2 -->
<g id="edge13" class="edge"><title>Node7&#45;&gt;Node2</title>
<path fill="none" stroke="#404040" d="M677.699,-958.794C688.495,-939.352 702.311,-910.94 708.146,-884 734.918,-760.405 688.891,-441.478 673.146,-316 672.889,-313.951 672.622,-311.876 672.346,-309.784"/>
<polygon fill="none" stroke="#404040" points="672.315,-309.558 667.537,-304.157 670.685,-297.669 675.463,-303.07 672.315,-309.558"/>
<text text-anchor="middle" x="727.646" y="-650.5" font-family="Helvetica,sans-Serif" font-size="10.00"> +@16</text>
</g>
<!-- Node7&#45;&gt;Node2 -->
<g id="edge15" class="edge"><title>Node7&#45;&gt;Node2</title>
<path fill="none" stroke="#404040" d="M677.652,-972.119C688.312,-963.421 702.408,-950.342 711.146,-936 723.727,-915.35 722.471,-907.724 727.146,-884 748.013,-778.114 755.651,-749.587 747.146,-642 739.344,-543.3 728.659,-519.621 712.146,-422 704.164,-374.808 705.879,-362.137 693.146,-316 692.555,-313.859 691.934,-311.698 691.287,-309.524"/>
<polygon fill="none" stroke="#404040" points="691.208,-309.272 685.594,-304.747 687.611,-297.824 693.226,-302.349 691.208,-309.272"/>
<text text-anchor="middle" x="764.646" y="-650.5" font-family="Helvetica,sans-Serif" font-size="10.00"> +@18</text>
</g>
<!-- Node7&#45;&gt;Node3 -->
<g id="edge6" class="edge"><title>Node7&#45;&gt;Node3</title>
<path fill="none" stroke="#404040" d="M654.271,-954.816C630.54,-881.128 563.973,-685.436 513.146,-642 494.091,-625.716 479.732,-635.907 453.792,-623.849"/>
<polygon fill="none" stroke="#404040" points="453.758,-623.83 446.573,-624.436 443.249,-618.037 450.435,-617.431 453.758,-623.83"/>
<text text-anchor="middle" x="646.646" y="-780.5" font-family="Helvetica,sans-Serif" font-size="10.00"> +@14</text>
</g>
<!-- Node7&#45;&gt;Node8 -->
<g id="edge11" class="edge"><title>Node7&#45;&gt;Node8</title>
<path fill="none" stroke="#404040" d="M648.407,-978.743C591.29,-962.166 386.494,-901.961 362.146,-884 360.438,-882.74 358.755,-881.426 357.099,-880.065"/>
<polygon fill="none" stroke="#404040" points="356.822,-879.817 349.686,-878.781 347.898,-871.795 355.035,-872.831 356.822,-879.817"/>
<text text-anchor="middle" x="521.646" y="-916.5" font-family="Helvetica,sans-Serif" font-size="10.00"> +@14</text>
</g>
<!-- Node7&#45;&gt;Node10 -->
<g id="edge20" class="edge"><title>Node7&#45;&gt;Node10</title>
<path fill="none" stroke="#404040" d="M664.809,-954.74C669.381,-875.529 681.4,-656.196 675.146,-642 666.963,-623.425 654.252,-606.502 639.937,-591.635"/>
<polygon fill="none" stroke="#404040" points="639.871,-591.569 632.793,-590.188 631.346,-583.123 638.424,-584.505 639.871,-591.569"/>
<text text-anchor="middle" x="692.646" y="-780.5" font-family="Helvetica,sans-Serif" font-size="10.00"> +@14</text>
</g>
<!-- Node8&#45;&gt;Node1 -->
<g id="edge24" class="edge"><title>Node8&#45;&gt;Node1</title>
<path fill="none" stroke="#404040" d="M234.302,-686.394C232.62,-684.871 230.901,-683.403 229.146,-682 210.045,-666.726 197.876,-676.977 177.146,-664 155.836,-650.66 147.912,-646.72 137.146,-624 78.3768,-499.982 41.7858,-431.985 115.146,-316 215.826,-156.822 444.283,-93.904 570.765,-70.5987"/>
<polygon fill="none" stroke="#404040" points="570.867,-70.5805 576.068,-65.5854 582.68,-68.4651 577.479,-73.4602 570.867,-70.5805"/>
<text text-anchor="middle" x="163.646" y="-363" font-family="Helvetica,sans-Serif" font-size="10.00"> +sHeaderType</text>
<text text-anchor="middle" x="163.646" y="-352" font-family="Helvetica,sans-Serif" font-size="10.00">+sSerializationMethod</text>
</g>
<!-- Node8&#45;&gt;Node2 -->
<g id="edge22" class="edge"><title>Node8&#45;&gt;Node2</title>
<path fill="none" stroke="#404040" d="M234.566,-701.065C229.755,-694.566 224.908,-688.142 220.146,-682 199.471,-655.33 182.741,-655.691 171.146,-624 140.299,-539.688 121.367,-496.714 171.146,-422 171.279,-421.801 424.924,-316.089 425.146,-316 478.964,-294.425 540.134,-270.935 586.431,-253.363"/>
<polygon fill="none" stroke="#404040" points="586.647,-253.282 590.839,-247.415 597.868,-249.028 593.675,-254.895 586.647,-253.282"/>
<text text-anchor="middle" x="219.646" y="-526" font-family="Helvetica,sans-Serif" font-size="10.00"> +sHeaderType</text>
<text text-anchor="middle" x="219.646" y="-515" font-family="Helvetica,sans-Serif" font-size="10.00">+sSerializationMethod</text>
</g>
<!-- Node8&#45;&gt;Node3 -->
<g id="edge7" class="edge"><title>Node8&#45;&gt;Node3</title>
<path fill="none" stroke="orange" d="M230.321,-684.827C222.338,-666.67 218.592,-650.68 224.146,-642 234.435,-625.919 247.57,-635.038 263.146,-624 267.784,-620.714 272.387,-617.188 276.924,-613.494"/>
<polygon fill="orange" stroke="orange" points="227.153,-686.315 234.559,-693.892 233.495,-683.351 227.153,-686.315"/>
<text text-anchor="start" x="224.146" y="-656" font-family="Helvetica,sans-Serif" font-size="10.00"> &lt; gSizeHeaderDescription</text>
<text text-anchor="middle" x="283.146" y="-645" font-family="Helvetica,sans-Serif" font-size="10.00">String &gt;</text>
</g>
<!-- Node8&#45;&gt;Node10 -->
<g id="edge21" class="edge"><title>Node8&#45;&gt;Node10</title>
<path fill="none" stroke="orange" d="M354.423,-690.313C356.968,-687.457 359.545,-684.678 362.146,-682 382.708,-660.831 389.982,-657.416 415.146,-642 430.74,-632.447 437.419,-634.841 452.146,-624 455.12,-621.811 458.079,-619.52 461.013,-617.148"/>
<polygon fill="orange" stroke="orange" points="351.647,-688.172 347.767,-698.03 356.948,-692.743 351.647,-688.172"/>
<text text-anchor="start" x="415.146" y="-656" font-family="Helvetica,sans-Serif" font-size="10.00"> &lt; gSizeSerializationMethod</text>
<text text-anchor="middle" x="476.646" y="-645" font-family="Helvetica,sans-Serif" font-size="10.00">String &gt;</text>
</g>
<!-- Node9 -->
<g id="node9" class="node"><title>Node9</title>
<polygon fill="none" stroke="#bfbfbf" points="841.646,-494.5 841.646,-551.5 892.646,-551.5 892.646,-494.5 841.646,-494.5"/>
<text text-anchor="middle" x="867.146" y="-539.5" font-family="Helvetica,sans-Serif" font-size="10.00">uint32_t</text>
<polyline fill="none" stroke="#bfbfbf" points="841.646,-532.5 892.646,-532.5 "/>
<text text-anchor="middle" x="867.146" y="-520.5" font-family="Helvetica,sans-Serif" font-size="10.00"> </text>
<polyline fill="none" stroke="#bfbfbf" points="841.646,-513.5 892.646,-513.5 "/>
<text text-anchor="middle" x="867.146" y="-501.5" font-family="Helvetica,sans-Serif" font-size="10.00"> </text>
</g>
<!-- Node9&#45;&gt;Node1 -->
<g id="edge23" class="edge"><title>Node9&#45;&gt;Node1</title>
<path fill="none" stroke="#404040" d="M878.139,-494.311C892.508,-453.768 913.275,-376.505 890.146,-316 860.214,-237.696 794.36,-168.153 740.594,-121.057"/>
<polygon fill="none" stroke="#404040" points="740.475,-120.954 733.32,-120.06 731.393,-113.111 738.549,-114.005 740.475,-120.954"/>
<text text-anchor="middle" x="906.146" y="-222.5" font-family="Helvetica,sans-Serif" font-size="10.00"> +sVersion</text>
</g>
<!-- Node9&#45;&gt;Node2 -->
<g id="edge12" class="edge"><title>Node9&#45;&gt;Node2</title>
<path fill="none" stroke="#404040" d="M851.736,-494.061C839.247,-470.566 821.86,-435.811 810.146,-404 796.177,-366.065 810.198,-349.208 787.146,-316 772.569,-295.001 751.413,-277.279 730.485,-263.262"/>
<polygon fill="none" stroke="#404040" points="730.35,-263.175 723.14,-263.292 720.259,-256.681 727.469,-256.564 730.35,-263.175"/>
<text text-anchor="middle" x="850.146" y="-396" font-family="Helvetica,sans-Serif" font-size="10.00"> +headerVersion</text>
<text text-anchor="middle" x="850.146" y="-385" font-family="Helvetica,sans-Serif" font-size="10.00">+headerSize</text>
<text text-anchor="middle" x="850.146" y="-374" font-family="Helvetica,sans-Serif" font-size="10.00">+sMagicString</text>
<text text-anchor="middle" x="850.146" y="-363" font-family="Helvetica,sans-Serif" font-size="10.00">+flagsNextHeader</text>
<text text-anchor="middle" x="850.146" y="-352" font-family="Helvetica,sans-Serif" font-size="10.00">+magicStringInt</text>
<text text-anchor="middle" x="850.146" y="-341" font-family="Helvetica,sans-Serif" font-size="10.00">+flagsUnused</text>
<text text-anchor="middle" x="850.146" y="-330" font-family="Helvetica,sans-Serif" font-size="10.00">+flags</text>
<text text-anchor="middle" x="850.146" y="-319" font-family="Helvetica,sans-Serif" font-size="10.00">+sVersion</text>
</g>
<!-- Node10&#45;&gt;Node2 -->
<g id="edge16" class="edge"><title>Node10&#45;&gt;Node2</title>
<path fill="none" stroke="#404040" d="M553.995,-422.944C559.434,-387.947 568.625,-349.09 584.146,-316 586.308,-311.391 588.764,-306.822 591.437,-302.331"/>
<polygon fill="none" stroke="#404040" points="591.57,-302.122 591.427,-294.912 598.027,-292.008 598.17,-299.217 591.57,-302.122"/>
<text text-anchor="middle" x="614.646" y="-357.5" font-family="Helvetica,sans-Serif" font-size="10.00"> +serialization</text>
</g>
</g>
</svg>
        <g id="navigator" transform="translate(0 0)" fill="#404254">
                <rect fill="#f2f5e9" fill-opacity="0.5" stroke="#606060" stroke-width=".5" x="0" y="0" width="60" height="60"/>
                <use id="zoomplus" xlink:href="#zoomPlus" x="17" y="9" onmousedown="handleZoom(evt,'in')"/>
                <use id="zoomminus" xlink:href="#zoomMin" x="42" y="9" onmousedown="handleZoom(evt,'out')"/>
                <use id="reset" xlink:href="#resetDef" x="30" y="36" onmousedown="handleReset()"/>
                <g id="arrowUp" xlink:href="#dirArrow" transform="translate(30 24)" onmousedown="handlePan(0,-1)">
                  <use xlink:href="#rim" fill="#404040">
                        <set attributeName="fill" to="#808080" begin="arrowUp.mouseover" end="arrowUp.mouseout"/>
                  </use>
                  <path fill="none" stroke="white" stroke-width="1.5" d="M0,-3.0v7 M-2.5,-0.5L0,-3.0L2.5,-0.5"/>
                </g>
                <g id="arrowRight" xlink:href="#dirArrow" transform="rotate(90) translate(36 -43)" onmousedown="handlePan(1,0)">
                  <use xlink:href="#rim" fill="#404040">
                        <set attributeName="fill" to="#808080" begin="arrowRight.mouseover" end="arrowRight.mouseout"/>
                  </use>
                  <path fill="none" stroke="white" stroke-width="1.5" d="M0,-3.0v7 M-2.5,-0.5L0,-3.0L2.5,-0.5"/>
                </g>
                <g id="arrowDown" xlink:href="#dirArrow" transform="rotate(180) translate(-30 -48)" onmousedown="handlePan(0,1)">
                  <use xlink:href="#rim" fill="#404040">
                        <set attributeName="fill" to="#808080" begin="arrowDown.mouseover" end="arrowDown.mouseout"/>
                  </use>
                  <path fill="none" stroke="white" stroke-width="1.5" d="M0,-3.0v7 M-2.5,-0.5L0,-3.0L2.5,-0.5"/>
                </g>
                <g id="arrowLeft" xlink:href="#dirArrow" transform="rotate(270) translate(-36 17)" onmousedown="handlePan(-1,0)">
                  <use xlink:href="#rim" fill="#404040">
                        <set attributeName="fill" to="#808080" begin="arrowLeft.mouseover" end="arrowLeft.mouseout"/>
                  </use>
                  <path fill="none" stroke="white" stroke-width="1.5" d="M0,-3.0v7 M-2.5,-0.5L0,-3.0L2.5,-0.5"/>
                </g>
        </g>
        <svg viewBox="0 0 15 15" width="100%" height="30px" preserveAspectRatio="xMaxYMin meet">
         <g id="arrow_out" transform="scale(0.3 0.3)">
          <a xlink:href="structo2_1_1header_1_1NameHeader__coll__graph_org.svg" target="_base">
           <rect id="button" ry="5" rx="5" y="6" x="6" height="38" width="38"
                fill="#f2f5e9" fill-opacity="0.5" stroke="#606060" stroke-width="1.0"/>
           <path id="arrow"
             d="M 11.500037,31.436501 C 11.940474,20.09759 22.043105,11.32322 32.158766,21.979434 L 37.068811,17.246167 C 37.068811,17.246167 37.088388,32 37.088388,32 L 22.160133,31.978069 C 22.160133,31.978069 26.997745,27.140456 26.997745,27.140456 C 18.528582,18.264221 13.291696,25.230495 11.500037,31.436501 z"
             style="fill:#404040;"/>
          </a>
         </g>
        </svg>
</svg>
