<?xml version="1.0" encoding="UTF-8" standalone="no"?>
<!DOCTYPE svg PUBLIC "-//W3C//DTD SVG 1.1//EN"
 "http://www.w3.org/Graphics/SVG/1.1/DTD/svg11.dtd">
<!-- Generated by graphviz version 2.36.0 (20140111.2315)
 -->
<!-- Title: o2::header::DataIdentifier Pages: 1 -->
<svg width="633pt" height="760pt"
 viewBox="0.00 0.00 633.10 760.00" xmlns="http://www.w3.org/2000/svg" xmlns:xlink="http://www.w3.org/1999/xlink">
<g id="graph0" class="graph" transform="scale(1 1) rotate(0) translate(4 756)">
<title>o2::header::DataIdentifier</title>
<!-- Node1 -->
<g id="node1" class="node"><title>Node1</title>
<polygon fill="#bfbfbf" stroke="black" points="184.6,-0.5 184.6,-101.5 311.6,-101.5 311.6,-0.5 184.6,-0.5"/>
<text text-anchor="middle" x="248.1" y="-89.5" font-family="Helvetica,sans-Serif" font-size="10.00">o2::header::DataIdentifier</text>
<polyline fill="none" stroke="black" points="184.6,-82.5 311.6,-82.5 "/>
<text text-anchor="middle" x="248.1" y="-70.5" font-family="Helvetica,sans-Serif" font-size="10.00"> </text>
<polyline fill="none" stroke="black" points="184.6,-63.5 311.6,-63.5 "/>
<text text-anchor="start" x="192.6" y="-51.5" font-family="Helvetica,sans-Serif" font-size="10.00">+ DataIdentifier()</text>
<text text-anchor="start" x="192.6" y="-40.5" font-family="Helvetica,sans-Serif" font-size="10.00">+ DataIdentifier()</text>
<text text-anchor="start" x="192.6" y="-29.5" font-family="Helvetica,sans-Serif" font-size="10.00">+ DataIdentifier()</text>
<text text-anchor="start" x="192.6" y="-18.5" font-family="Helvetica,sans-Serif" font-size="10.00">+ operator==()</text>
<text text-anchor="start" x="192.6" y="-7.5" font-family="Helvetica,sans-Serif" font-size="10.00">+ print()</text>
</g>
<!-- Node2 -->
<g id="node2" class="node"><title>Node2</title>
<g id="a_node2"><a xlink:href="../../d9/db3/structo2_1_1header_1_1Descriptor.html" target="_top" xlink:title="{o2::header::Descriptor\l\&lt; gSizeDataOriginString,\l printDataOrigin \&gt;\n||+ Descriptor()\l+ Descriptor()\l+ Descriptor()\l+ Descriptor()\l+ operator=()\l+ operator ItgType()\l+ runtimeInit()\l+ operator==()\l+ operator==()\l+ operator!=()\l+ operator!=()\l+ as()\l+ print()\l}">
<polygon fill="none" stroke="black" points="49.5999,-150.5 49.5999,-361.5 174.6,-361.5 174.6,-150.5 49.5999,-150.5"/>
<text text-anchor="start" x="57.5999" y="-349.5" font-family="Helvetica,sans-Serif" font-size="10.00">o2::header::Descriptor</text>
<text text-anchor="start" x="57.5999" y="-338.5" font-family="Helvetica,sans-Serif" font-size="10.00">&lt; gSizeDataOriginString,</text>
<text text-anchor="middle" x="112.1" y="-327.5" font-family="Helvetica,sans-Serif" font-size="10.00"> printDataOrigin &gt;</text>
<polyline fill="none" stroke="black" points="49.5999,-320.5 174.6,-320.5 "/>
<text text-anchor="middle" x="112.1" y="-308.5" font-family="Helvetica,sans-Serif" font-size="10.00"> </text>
<polyline fill="none" stroke="black" points="49.5999,-301.5 174.6,-301.5 "/>
<text text-anchor="start" x="57.5999" y="-289.5" font-family="Helvetica,sans-Serif" font-size="10.00">+ Descriptor()</text>
<text text-anchor="start" x="57.5999" y="-278.5" font-family="Helvetica,sans-Serif" font-size="10.00">+ Descriptor()</text>
<text text-anchor="start" x="57.5999" y="-267.5" font-family="Helvetica,sans-Serif" font-size="10.00">+ Descriptor()</text>
<text text-anchor="start" x="57.5999" y="-256.5" font-family="Helvetica,sans-Serif" font-size="10.00">+ Descriptor()</text>
<text text-anchor="start" x="57.5999" y="-245.5" font-family="Helvetica,sans-Serif" font-size="10.00">+ operator=()</text>
<text text-anchor="start" x="57.5999" y="-234.5" font-family="Helvetica,sans-Serif" font-size="10.00">+ operator ItgType()</text>
<text text-anchor="start" x="57.5999" y="-223.5" font-family="Helvetica,sans-Serif" font-size="10.00">+ runtimeInit()</text>
<text text-anchor="start" x="57.5999" y="-212.5" font-family="Helvetica,sans-Serif" font-size="10.00">+ operator==()</text>
<text text-anchor="start" x="57.5999" y="-201.5" font-family="Helvetica,sans-Serif" font-size="10.00">+ operator==()</text>
<text text-anchor="start" x="57.5999" y="-190.5" font-family="Helvetica,sans-Serif" font-size="10.00">+ operator!=()</text>
<text text-anchor="start" x="57.5999" y="-179.5" font-family="Helvetica,sans-Serif" font-size="10.00">+ operator!=()</text>
<text text-anchor="start" x="57.5999" y="-168.5" font-family="Helvetica,sans-Serif" font-size="10.00">+ as()</text>
<text text-anchor="start" x="57.5999" y="-157.5" font-family="Helvetica,sans-Serif" font-size="10.00">+ print()</text>
</a>
</g>
</g>
<!-- Node2&#45;&gt;Node1 -->
<g id="edge1" class="edge"><title>Node2&#45;&gt;Node1</title>
<path fill="none" stroke="#404040" d="M174.726,-161.521C186.106,-144.535 197.688,-127.247 208.187,-111.576"/>
<polygon fill="none" stroke="#404040" points="208.237,-111.501 208.254,-104.289 214.917,-101.531 214.9,-108.742 208.237,-111.501"/>
<text text-anchor="middle" x="228.1" y="-123.5" font-family="Helvetica,sans-Serif" font-size="10.00"> +dataOrigin</text>
</g>
<!-- Node3 -->
<g id="node3" class="node"><title>Node3</title>
<polygon fill="none" stroke="#bfbfbf" points="61.0999,-693.5 61.0999,-750.5 99.0999,-750.5 99.0999,-693.5 61.0999,-693.5"/>
<text text-anchor="middle" x="80.0999" y="-738.5" font-family="Helvetica,sans-Serif" font-size="10.00">Type</text>
<polyline fill="none" stroke="#bfbfbf" points="61.0999,-731.5 99.0999,-731.5 "/>
<text text-anchor="middle" x="80.0999" y="-719.5" font-family="Helvetica,sans-Serif" font-size="10.00"> </text>
<polyline fill="none" stroke="#bfbfbf" points="61.0999,-712.5 99.0999,-712.5 "/>
<text text-anchor="middle" x="80.0999" y="-700.5" font-family="Helvetica,sans-Serif" font-size="10.00"> </text>
</g>
<!-- Node3&#45;&gt;Node2 -->
<g id="edge2" class="edge"><title>Node3&#45;&gt;Node2</title>
<path fill="none" stroke="#404040" d="M61.0331,-698.793C46.0777,-679.815 26.4434,-651.042 18.0999,-622 -6.68942,-535.712 -5.11473,-506.724 18.0999,-420 23.828,-398.601 33.1173,-377.102 43.6791,-357.056"/>
<polygon fill="none" stroke="#404040" points="43.7441,-356.937 43.1011,-349.754 49.4837,-346.398 50.1267,-353.581 43.7441,-356.937"/>
<text text-anchor="middle" x="28.0999" y="-518.5" font-family="Helvetica,sans-Serif" font-size="10.00"> +itg</text>
</g>
<!-- Node7 -->
<g id="node7" class="node"><title>Node7</title>
<g id="a_node7"><a xlink:href="../../d9/db3/structo2_1_1header_1_1Descriptor.html" target="_top" xlink:title="{o2::header::Descriptor\l\&lt; N, PrinterPolicy \&gt;\n||+ Descriptor()\l+ Descriptor()\l+ Descriptor()\l+ operator=()\l+ operator ItgType()\l+ Descriptor()\l+ runtimeInit()\l+ operator==()\l+ operator!=()\l+ operator==()\l+ operator!=()\l+ as()\l+ print()\l}">
<polygon fill="none" stroke="black" points="212.6,-421 212.6,-621 325.6,-621 325.6,-421 212.6,-421"/>
<text text-anchor="start" x="220.6" y="-609" font-family="Helvetica,sans-Serif" font-size="10.00">o2::header::Descriptor</text>
<text text-anchor="middle" x="269.1" y="-598" font-family="Helvetica,sans-Serif" font-size="10.00">&lt; N, PrinterPolicy &gt;</text>
<polyline fill="none" stroke="black" points="212.6,-591 325.6,-591 "/>
<text text-anchor="middle" x="269.1" y="-579" font-family="Helvetica,sans-Serif" font-size="10.00"> </text>
<polyline fill="none" stroke="black" points="212.6,-572 325.6,-572 "/>
<text text-anchor="start" x="220.6" y="-560" font-family="Helvetica,sans-Serif" font-size="10.00">+ Descriptor()</text>
<text text-anchor="start" x="220.6" y="-549" font-family="Helvetica,sans-Serif" font-size="10.00">+ Descriptor()</text>
<text text-anchor="start" x="220.6" y="-538" font-family="Helvetica,sans-Serif" font-size="10.00">+ Descriptor()</text>
<text text-anchor="start" x="220.6" y="-527" font-family="Helvetica,sans-Serif" font-size="10.00">+ operator=()</text>
<text text-anchor="start" x="220.6" y="-516" font-family="Helvetica,sans-Serif" font-size="10.00">+ operator ItgType()</text>
<text text-anchor="start" x="220.6" y="-505" font-family="Helvetica,sans-Serif" font-size="10.00">+ Descriptor()</text>
<text text-anchor="start" x="220.6" y="-494" font-family="Helvetica,sans-Serif" font-size="10.00">+ runtimeInit()</text>
<text text-anchor="start" x="220.6" y="-483" font-family="Helvetica,sans-Serif" font-size="10.00">+ operator==()</text>
<text text-anchor="start" x="220.6" y="-472" font-family="Helvetica,sans-Serif" font-size="10.00">+ operator!=()</text>
<text text-anchor="start" x="220.6" y="-461" font-family="Helvetica,sans-Serif" font-size="10.00">+ operator==()</text>
<text text-anchor="start" x="220.6" y="-450" font-family="Helvetica,sans-Serif" font-size="10.00">+ operator!=()</text>
<text text-anchor="start" x="220.6" y="-439" font-family="Helvetica,sans-Serif" font-size="10.00">+ as()</text>
<text text-anchor="start" x="220.6" y="-428" font-family="Helvetica,sans-Serif" font-size="10.00">+ print()</text>
</a>
</g>
</g>
<!-- Node3&#45;&gt;Node7 -->
<g id="edge7" class="edge"><title>Node3&#45;&gt;Node7</title>
<path fill="none" stroke="#404040" d="M99.3415,-701.571C116.785,-684.437 143.593,-659.267 169.1,-640 181.204,-630.857 187.046,-632.39 198.1,-622 200.117,-620.104 202.112,-618.143 204.082,-616.128"/>
<polygon fill="none" stroke="#404040" points="204.398,-615.788 205.542,-608.668 212.554,-606.985 211.41,-614.105 204.398,-615.788"/>
<text text-anchor="middle" x="179.1" y="-654.5" font-family="Helvetica,sans-Serif" font-size="10.00"> +itg</text>
</g>
<!-- Node8 -->
<g id="node8" class="node"><title>Node8</title>
<g id="a_node8"><a xlink:href="../../d9/db3/structo2_1_1header_1_1Descriptor.html" target="_top" xlink:title="{o2::header::Descriptor\l\&lt; gSizeDataDescriptionString,\l printDataDescription \&gt;\n||+ Descriptor()\l+ Descriptor()\l+ Descriptor()\l+ Descriptor()\l+ operator=()\l+ operator ItgType()\l+ runtimeInit()\l+ operator==()\l+ operator==()\l+ operator!=()\l+ operator!=()\l+ as()\l+ print()\l}">
<polygon fill="none" stroke="black" points="251.6,-150.5 251.6,-361.5 400.6,-361.5 400.6,-150.5 251.6,-150.5"/>
<text text-anchor="start" x="259.6" y="-349.5" font-family="Helvetica,sans-Serif" font-size="10.00">o2::header::Descriptor</text>
<text text-anchor="start" x="259.6" y="-338.5" font-family="Helvetica,sans-Serif" font-size="10.00">&lt; gSizeDataDescriptionString,</text>
<text text-anchor="middle" x="326.1" y="-327.5" font-family="Helvetica,sans-Serif" font-size="10.00"> printDataDescription &gt;</text>
<polyline fill="none" stroke="black" points="251.6,-320.5 400.6,-320.5 "/>
<text text-anchor="middle" x="326.1" y="-308.5" font-family="Helvetica,sans-Serif" font-size="10.00"> </text>
<polyline fill="none" stroke="black" points="251.6,-301.5 400.6,-301.5 "/>
<text text-anchor="start" x="259.6" y="-289.5" font-family="Helvetica,sans-Serif" font-size="10.00">+ Descriptor()</text>
<text text-anchor="start" x="259.6" y="-278.5" font-family="Helvetica,sans-Serif" font-size="10.00">+ Descriptor()</text>
<text text-anchor="start" x="259.6" y="-267.5" font-family="Helvetica,sans-Serif" font-size="10.00">+ Descriptor()</text>
<text text-anchor="start" x="259.6" y="-256.5" font-family="Helvetica,sans-Serif" font-size="10.00">+ Descriptor()</text>
<text text-anchor="start" x="259.6" y="-245.5" font-family="Helvetica,sans-Serif" font-size="10.00">+ operator=()</text>
<text text-anchor="start" x="259.6" y="-234.5" font-family="Helvetica,sans-Serif" font-size="10.00">+ operator ItgType()</text>
<text text-anchor="start" x="259.6" y="-223.5" font-family="Helvetica,sans-Serif" font-size="10.00">+ runtimeInit()</text>
<text text-anchor="start" x="259.6" y="-212.5" font-family="Helvetica,sans-Serif" font-size="10.00">+ operator==()</text>
<text text-anchor="start" x="259.6" y="-201.5" font-family="Helvetica,sans-Serif" font-size="10.00">+ operator==()</text>
<text text-anchor="start" x="259.6" y="-190.5" font-family="Helvetica,sans-Serif" font-size="10.00">+ operator!=()</text>
<text text-anchor="start" x="259.6" y="-179.5" font-family="Helvetica,sans-Serif" font-size="10.00">+ operator!=()</text>
<text text-anchor="start" x="259.6" y="-168.5" font-family="Helvetica,sans-Serif" font-size="10.00">+ as()</text>
<text text-anchor="start" x="259.6" y="-157.5" font-family="Helvetica,sans-Serif" font-size="10.00">+ print()</text>
</a>
</g>
</g>
<!-- Node3&#45;&gt;Node8 -->
<g id="edge12" class="edge"><title>Node3&#45;&gt;Node8</title>
<path fill="none" stroke="#404040" d="M84.6282,-693.245C96.5803,-620.654 128.702,-430.064 138.1,-420 159.437,-397.151 179.765,-418.847 206.1,-402 215.738,-395.834 229.083,-382.191 243.386,-365.622"/>
<polygon fill="none" stroke="#404040" points="243.657,-365.302 244.483,-358.139 251.413,-356.146 250.587,-363.309 243.657,-365.302"/>
<text text-anchor="middle" x="148.1" y="-518.5" font-family="Helvetica,sans-Serif" font-size="10.00"> +itg</text>
</g>
<!-- Node4 -->
<g id="node4" class="node"><title>Node4</title>
<polygon fill="none" stroke="#bfbfbf" points="155.6,-693.5 155.6,-750.5 190.6,-750.5 190.6,-693.5 155.6,-693.5"/>
<text text-anchor="middle" x="173.1" y="-738.5" font-family="Helvetica,sans-Serif" font-size="10.00">char</text>
<polyline fill="none" stroke="#bfbfbf" points="155.6,-731.5 190.6,-731.5 "/>
<text text-anchor="middle" x="173.1" y="-719.5" font-family="Helvetica,sans-Serif" font-size="10.00"> </text>
<polyline fill="none" stroke="#bfbfbf" points="155.6,-712.5 190.6,-712.5 "/>
<text text-anchor="middle" x="173.1" y="-700.5" font-family="Helvetica,sans-Serif" font-size="10.00"> </text>
</g>
<!-- Node4&#45;&gt;Node2 -->
<g id="edge3" class="edge"><title>Node4&#45;&gt;Node2</title>
<path fill="none" stroke="#404040" d="M166.066,-693.378C160.24,-675.783 150.242,-653.784 134.1,-640 112.928,-621.921 90.7189,-644.336 74.0999,-622 21.6479,-551.503 36.7424,-451.025 61.8264,-373.332"/>
<polygon fill="none" stroke="#404040" points="61.9586,-372.936 60.0657,-365.978 65.7606,-361.554 67.6536,-368.512 61.9586,-372.936"/>
<text text-anchor="middle" x="84.5999" y="-518.5" font-family="Helvetica,sans-Serif" font-size="10.00"> +str</text>
</g>
<!-- Node4&#45;&gt;Node7 -->
<g id="edge8" class="edge"><title>Node4&#45;&gt;Node7</title>
<path fill="none" stroke="#404040" d="M184.007,-693.371C190.407,-677.591 198.839,-657.519 207.1,-640 208.328,-637.395 209.584,-634.764 210.861,-632.117"/>
<polygon fill="none" stroke="#404040" points="210.947,-631.94 209.989,-624.793 216.218,-621.159 217.176,-628.306 210.947,-631.94"/>
<text text-anchor="middle" x="217.6" y="-654.5" font-family="Helvetica,sans-Serif" font-size="10.00"> +str</text>
</g>
<!-- Node4&#45;&gt;Node8 -->
<g id="edge13" class="edge"><title>Node4&#45;&gt;Node8</title>
<path fill="none" stroke="#404040" d="M170.057,-693.136C163.43,-626.974 150.678,-462.761 182.1,-420 196.582,-400.292 214.92,-417.174 234.1,-402 245.242,-393.185 255.424,-382.626 264.618,-371.28"/>
<polygon fill="none" stroke="#404040" points="264.771,-371.081 265.273,-363.887 272.107,-361.584 271.605,-368.778 264.771,-371.081"/>
<text text-anchor="middle" x="192.6" y="-518.5" font-family="Helvetica,sans-Serif" font-size="10.00"> +str</text>
</g>
<!-- Node5 -->
<g id="node5" class="node"><title>Node5</title>
<polygon fill="none" stroke="#bfbfbf" points="355.6,-693.5 355.6,-750.5 384.6,-750.5 384.6,-693.5 355.6,-693.5"/>
<text text-anchor="middle" x="370.1" y="-738.5" font-family="Helvetica,sans-Serif" font-size="10.00">int</text>
<polyline fill="none" stroke="#bfbfbf" points="355.6,-731.5 384.6,-731.5 "/>
<text text-anchor="middle" x="370.1" y="-719.5" font-family="Helvetica,sans-Serif" font-size="10.00"> </text>
<polyline fill="none" stroke="#bfbfbf" points="355.6,-712.5 384.6,-712.5 "/>
<text text-anchor="middle" x="370.1" y="-700.5" font-family="Helvetica,sans-Serif" font-size="10.00"> </text>
</g>
<!-- Node5&#45;&gt;Node2 -->
<g id="edge4" class="edge"><title>Node5&#45;&gt;Node2</title>
<path fill="none" stroke="#404040" d="M369.78,-693.444C368.554,-627.966 362.641,-465.155 334.1,-420 321.187,-399.571 261.756,-376.061 242.1,-362 222.911,-348.273 202.794,-332.671 184.276,-317.771"/>
<polygon fill="none" stroke="#404040" points="184.076,-317.609 176.896,-316.941 174.751,-310.057 181.931,-310.725 184.076,-317.609"/>
<text text-anchor="middle" x="393.6" y="-529.5" font-family="Helvetica,sans-Serif" font-size="10.00"> +arraySize</text>
<text text-anchor="middle" x="393.6" y="-518.5" font-family="Helvetica,sans-Serif" font-size="10.00">+size</text>
<text text-anchor="middle" x="393.6" y="-507.5" font-family="Helvetica,sans-Serif" font-size="10.00">+bitcount</text>
</g>
<!-- Node5&#45;&gt;Node7 -->
<g id="edge9" class="edge"><title>Node5&#45;&gt;Node7</title>
<path fill="none" stroke="#404040" d="M355.595,-720.233C329.459,-717.977 274.962,-709.08 251.1,-674 242.868,-661.898 239.012,-647.968 238.029,-633.556"/>
<polygon fill="none" stroke="#404040" points="238.026,-633.365 233.937,-627.426 237.846,-621.366 241.936,-627.306 238.026,-633.365"/>
<text text-anchor="middle" x="276.6" y="-665.5" font-family="Helvetica,sans-Serif" font-size="10.00"> +arraySize</text>
<text text-anchor="middle" x="276.6" y="-654.5" font-family="Helvetica,sans-Serif" font-size="10.00">+size</text>
<text text-anchor="middle" x="276.6" y="-643.5" font-family="Helvetica,sans-Serif" font-size="10.00">+bitcount</text>
</g>
<!-- Node5&#45;&gt;Node8 -->
<g id="edge14" class="edge"><title>Node5&#45;&gt;Node8</title>
<path fill="none" stroke="#404040" d="M384.804,-713.688C410.649,-699.899 463.435,-667.315 484.1,-622 521.35,-540.315 516.835,-503.597 484.1,-420 468.928,-381.255 439.397,-346.744 409.931,-319.565"/>
<polygon fill="none" stroke="#404040" points="409.732,-319.387 402.596,-318.354 400.804,-311.369 407.941,-312.401 409.732,-319.387"/>
<text text-anchor="middle" x="535.6" y="-529.5" font-family="Helvetica,sans-Serif" font-size="10.00"> +arraySize</text>
<text text-anchor="middle" x="535.6" y="-518.5" font-family="Helvetica,sans-Serif" font-size="10.00">+size</text>
<text text-anchor="middle" x="535.6" y="-507.5" font-family="Helvetica,sans-Serif" font-size="10.00">+bitcount</text>
</g>
<!-- Node6 -->
<g id="node6" class="node"><title>Node6</title>
<polygon fill="none" stroke="#bfbfbf" points="434.6,-693 434.6,-751 463.6,-751 463.6,-693 434.6,-693"/>
<polyline fill="none" stroke="#bfbfbf" points="434.6,-731 463.6,-731 "/>
<text text-anchor="middle" x="449.1" y="-719" font-family="Helvetica,sans-Serif" font-size="10.00"> </text>
<polyline fill="none" stroke="#bfbfbf" points="434.6,-712 463.6,-712 "/>
<text text-anchor="middle" x="449.1" y="-700" font-family="Helvetica,sans-Serif" font-size="10.00"> </text>
</g>
<!-- Node6&#45;&gt;Node2 -->
<g id="edge5" class="edge"><title>Node6&#45;&gt;Node2</title>
<path fill="none" stroke="#404040" d="M448.523,-692.86C446.813,-621.996 440.74,-440.371 423.1,-420 400.094,-393.431 378.774,-414.945 346.1,-402 327.957,-394.812 326.108,-387.519 308.1,-380 280.043,-368.285 269.169,-375.847 242.1,-362 222.159,-351.8 202.423,-338.202 184.581,-324.184"/>
<polygon fill="none" stroke="#404040" points="184.223,-323.896 177.04,-323.25 174.874,-316.372 182.056,-317.018 184.223,-323.896"/>
<text text-anchor="middle" x="461.6" y="-518.5" font-family="Helvetica,sans-Serif" font-size="10.00"> +@14</text>
</g>
<!-- Node6&#45;&gt;Node7 -->
<g id="edge10" class="edge"><title>Node6&#45;&gt;Node7</title>
<path fill="none" stroke="#404040" d="M434.42,-709.402C412.576,-691.775 370.798,-656.621 340.1,-622 337.815,-619.424 335.536,-616.774 333.271,-614.07"/>
<polygon fill="none" stroke="#404040" points="333.214,-614 326.323,-611.875 325.634,-604.697 332.525,-606.822 333.214,-614"/>
<text text-anchor="middle" x="407.6" y="-654.5" font-family="Helvetica,sans-Serif" font-size="10.00"> +@14</text>
</g>
<!-- Node6&#45;&gt;Node8 -->
<g id="edge15" class="edge"><title>Node6&#45;&gt;Node8</title>
<path fill="none" stroke="#404040" d="M463.641,-713.975C489.772,-700.428 543.92,-667.92 565.1,-622 602.701,-540.476 607.044,-499.377 565.1,-420 532.885,-359.034 466.484,-316.579 411.83,-290.315"/>
<polygon fill="none" stroke="#404040" points="411.586,-290.201 404.456,-291.282 400.716,-285.116 407.846,-284.035 411.586,-290.201"/>
<text text-anchor="middle" x="609.6" y="-518.5" font-family="Helvetica,sans-Serif" font-size="10.00"> +@14</text>
</g>
<!-- Node7&#45;&gt;Node2 -->
<g id="edge6" class="edge"><title>Node7&#45;&gt;Node2</title>
<path fill="none" stroke="orange" d="M205.015,-425.341C202.761,-423.468 200.455,-421.682 198.1,-420 175.097,-403.572 155.893,-423.115 137.1,-402 126.91,-390.551 120.123,-376.504 115.704,-361.705"/>
<polygon fill="orange" stroke="orange" points="202.695,-427.961 212.479,-432.024 207.364,-422.746 202.695,-427.961"/>
<text text-anchor="start" x="137.1" y="-394" font-family="Helvetica,sans-Serif" font-size="10.00"> &lt; gSizeDataOriginString,</text>
<text text-anchor="middle" x="193.1" y="-383" font-family="Helvetica,sans-Serif" font-size="10.00"> printDataOrigin &gt;</text>
</g>
<!-- Node7&#45;&gt;Node8 -->
<g id="edge16" class="edge"><title>Node7&#45;&gt;Node8</title>
<path fill="none" stroke="orange" d="M300.042,-410.998C300.754,-407.971 301.441,-404.967 302.1,-402 304.974,-389.047 307.671,-375.373 310.144,-361.806"/>
<polygon fill="orange" stroke="orange" points="296.638,-410.185 297.694,-420.727 303.442,-411.827 296.638,-410.185"/>
<text text-anchor="start" x="307.1" y="-394" font-family="Helvetica,sans-Serif" font-size="10.00"> &lt; gSizeDataDescriptionString,</text>
<text text-anchor="middle" x="375.1" y="-383" font-family="Helvetica,sans-Serif" font-size="10.00"> printDataDescription &gt;</text>
</g>
<!-- Node8&#45;&gt;Node1 -->
<g id="edge11" class="edge"><title>Node8&#45;&gt;Node1</title>
<path fill="none" stroke="#404040" d="M285.843,-150.23C280.954,-137.505 276.091,-124.85 271.563,-113.064"/>
<polygon fill="none" stroke="#404040" points="271.461,-112.799 265.575,-108.632 267.157,-101.597 273.043,-105.763 271.461,-112.799"/>
<text text-anchor="middle" x="317.1" y="-123.5" font-family="Helvetica,sans-Serif" font-size="10.00"> +dataDescription</text>
</g>
</g>
</svg>
