<?xml version="1.0" encoding="UTF-8" standalone="no"?>
<!DOCTYPE svg PUBLIC "-//W3C//DTD SVG 1.1//EN"
 "http://www.w3.org/Graphics/SVG/1.1/DTD/svg11.dtd">
<!-- Generated by graphviz version 2.36.0 (20140111.2315)
 -->
<!-- Title: /home/travis/build/AliceO2Group/AliceO2/Framework/Core/include/Framework/DataSpecUtils.h Pages: 1 -->
<!--zoomable 298 -->
<svg id="main" version="1.1" xmlns="http://www.w3.org/2000/svg" xmlns:xlink="http://www.w3.org/1999/xlink" xml:space="preserve" onload="init(evt)">
<style type="text/css"><![CDATA[
.edge:hover path { stroke: red; }
.edge:hover polygon { stroke: red; fill: red; }
]]></style>
<script type="text/javascript"><![CDATA[
var edges = document.getElementsByTagName('g');
if (edges && edges.length) {
  for (var i=0;i<edges.length;i++) {
    if (edges[i].id.substr(0,4)=='edge') {
      edges[i].setAttribute('class','edge');
    }
  }
}
]]></script>
        <defs>
                <circle id="rim" cx="0" cy="0" r="7"/>
                <circle id="rim2" cx="0" cy="0" r="3.5"/>
                <g id="zoomPlus">
                        <use xlink:href="#rim" fill="#404040">
                                <set attributeName="fill" to="#808080" begin="zoomplus.mouseover" end="zoomplus.mouseout"/>
                        </use>
                        <path d="M-4,0h8M0,-4v8" fill="none" stroke="white" stroke-width="1.5" pointer-events="none"/>
                </g>
                <g id="zoomMin">
                        <use xlink:href="#rim" fill="#404040">
                                <set attributeName="fill" to="#808080" begin="zoomminus.mouseover" end="zoomminus.mouseout"/>
                        </use>
                        <path d="M-4,0h8" fill="none" stroke="white" stroke-width="1.5" pointer-events="none"/>
                </g>
                <g id="dirArrow">
                        <path fill="none" stroke="white" stroke-width="1.5" d="M0,-3.0v7 M-2.5,-0.5L0,-3.0L2.5,-0.5"/>
                </g>
               <g id="resetDef">
                       <use xlink:href="#rim2" fill="#404040">
                               <set attributeName="fill" to="#808080" begin="reset.mouseover" end="reset.mouseout"/>
                       </use>
               </g>
        </defs>

<script type="text/javascript">
var viewWidth = 1257;
var viewHeight = 298;
var sectionId = 'dynsection-0';
</script>
<script xlink:href="../../svgpan.js"/>
<svg id="graph" class="graph">
<g id="viewport">
<title>/home/travis/build/AliceO2Group/AliceO2/Framework/Core/include/Framework/DataSpecUtils.h</title>
<!-- Node1 -->
<g id="node1" class="node"><title>Node1</title>
<polygon fill="#bfbfbf" stroke="black" points="930.5,-237 930.5,-289 1073.5,-289 1073.5,-237 930.5,-237"/>
<text text-anchor="start" x="938.5" y="-277" font-family="Helvetica,sans-Serif" font-size="10.00">/home/travis/build</text>
<text text-anchor="start" x="938.5" y="-266" font-family="Helvetica,sans-Serif" font-size="10.00">/AliceO2Group/AliceO2</text>
<text text-anchor="start" x="938.5" y="-255" font-family="Helvetica,sans-Serif" font-size="10.00">/Framework/Core/include</text>
<text text-anchor="middle" x="1002" y="-244" font-family="Helvetica,sans-Serif" font-size="10.00">/Framework/DataSpecUtils.h</text>
</g>
<!-- Node2 -->
<g id="node2" class="node"><title>Node2</title>
<g id="a_node2"><a xlink:href="../../db/d2d/OutputSpec_8h.html" target="_top" xlink:title="Framework/OutputSpec.h">
<polygon fill="none" stroke="black" points="938,-180.5 938,-199.5 1066,-199.5 1066,-180.5 938,-180.5"/>
<text text-anchor="middle" x="1002" y="-187.5" font-family="Helvetica,sans-Serif" font-size="10.00">Framework/OutputSpec.h</text>
</a>
</g>
</g>
<!-- Node1&#45;&gt;Node2 -->
<g id="edge1" class="edge"><title>Node1&#45;&gt;Node2</title>
<path fill="none" stroke="midnightblue" d="M1002,-236.768C1002,-227.89 1002,-218.074 1002,-209.816"/>
<polygon fill="midnightblue" stroke="midnightblue" points="1005.5,-209.757 1002,-199.757 998.5,-209.757 1005.5,-209.757"/>
</g>
<!-- Node3 -->
<g id="node3" class="node"><title>Node3</title>
<g id="a_node3"><a xlink:href="../../dc/dcd/DataHeader_8h.html" target="_top" xlink:title="Headers/DataHeader.h">
<polygon fill="none" stroke="black" points="852.5,-124.5 852.5,-143.5 969.5,-143.5 969.5,-124.5 852.5,-124.5"/>
<text text-anchor="middle" x="911" y="-131.5" font-family="Helvetica,sans-Serif" font-size="10.00">Headers/DataHeader.h</text>
</a>
</g>
</g>
<!-- Node1&#45;&gt;Node3 -->
<g id="edge29" class="edge"><title>Node1&#45;&gt;Node3</title>
<path fill="none" stroke="midnightblue" d="M964.065,-236.902C951.31,-226.789 938.04,-214.153 929,-200 920.038,-185.969 915.478,-167.472 913.195,-153.799"/>
<polygon fill="midnightblue" stroke="midnightblue" points="916.627,-153.066 911.767,-143.652 909.695,-154.042 916.627,-153.066"/>
</g>
<!-- Node23 -->
<g id="node23" class="node"><title>Node23</title>
<g id="a_node23"><a xlink:href="../../d5/d3f/InputSpec_8h.html" target="_top" xlink:title="Framework/InputSpec.h">
<polygon fill="none" stroke="black" points="1084.5,-180.5 1084.5,-199.5 1205.5,-199.5 1205.5,-180.5 1084.5,-180.5"/>
<text text-anchor="middle" x="1145" y="-187.5" font-family="Helvetica,sans-Serif" font-size="10.00">Framework/InputSpec.h</text>
</a>
</g>
</g>
<!-- Node1&#45;&gt;Node23 -->
<g id="edge24" class="edge"><title>Node1&#45;&gt;Node23</title>
<path fill="none" stroke="midnightblue" d="M1052.42,-236.968C1074.74,-225.885 1100.07,-213.306 1118.59,-204.112"/>
<polygon fill="midnightblue" stroke="midnightblue" points="1120.2,-207.221 1127.6,-199.639 1117.09,-200.951 1120.2,-207.221"/>
</g>
<!-- Node2&#45;&gt;Node3 -->
<g id="edge2" class="edge"><title>Node2&#45;&gt;Node3</title>
<path fill="none" stroke="midnightblue" d="M987.379,-180.324C973.051,-171.822 950.987,-158.729 934.251,-148.797"/>
<polygon fill="midnightblue" stroke="midnightblue" points="935.97,-145.748 925.584,-143.655 932.398,-151.768 935.97,-145.748"/>
</g>
<!-- Node22 -->
<g id="node22" class="node"><title>Node22</title>
<g id="a_node22"><a xlink:href="../../dc/dca/Lifetime_8h.html" target="_top" xlink:title="Framework/Lifetime.h">
<polygon fill="none" stroke="black" points="996.5,-124.5 996.5,-143.5 1107.5,-143.5 1107.5,-124.5 996.5,-124.5"/>
<text text-anchor="middle" x="1052" y="-131.5" font-family="Helvetica,sans-Serif" font-size="10.00">Framework/Lifetime.h</text>
</a>
</g>
</g>
<!-- Node2&#45;&gt;Node22 -->
<g id="edge23" class="edge"><title>Node2&#45;&gt;Node22</title>
<path fill="none" stroke="midnightblue" d="M1010.26,-180.083C1017.46,-172.298 1028.11,-160.801 1036.85,-151.367"/>
<polygon fill="midnightblue" stroke="midnightblue" points="1039.67,-153.467 1043.9,-143.751 1034.53,-148.711 1039.67,-153.467"/>
</g>
<!-- Node4 -->
<g id="node4" class="node"><title>Node4</title>
<polygon fill="none" stroke="#bfbfbf" points="743,-68.5 743,-87.5 789,-87.5 789,-68.5 743,-68.5"/>
<text text-anchor="middle" x="766" y="-75.5" font-family="Helvetica,sans-Serif" font-size="10.00">cstdint</text>
</g>
<!-- Node3&#45;&gt;Node4 -->
<g id="edge3" class="edge"><title>Node3&#45;&gt;Node4</title>
<path fill="none" stroke="midnightblue" d="M888.024,-124.444C863.843,-115.438 825.582,-101.189 798.354,-91.049"/>
<polygon fill="midnightblue" stroke="midnightblue" points="799.461,-87.7265 788.868,-87.5164 797.018,-94.2864 799.461,-87.7265"/>
</g>
<!-- Node5 -->
<g id="node5" class="node"><title>Node5</title>
<polygon fill="none" stroke="#bfbfbf" points="959,-68.5 959,-87.5 1011,-87.5 1011,-68.5 959,-68.5"/>
<text text-anchor="middle" x="985" y="-75.5" font-family="Helvetica,sans-Serif" font-size="10.00">memory</text>
</g>
<!-- Node3&#45;&gt;Node5 -->
<g id="edge4" class="edge"><title>Node3&#45;&gt;Node5</title>
<path fill="none" stroke="midnightblue" d="M922.889,-124.324C934.15,-116.107 951.287,-103.602 964.709,-93.8069"/>
<polygon fill="midnightblue" stroke="midnightblue" points="966.88,-96.5559 972.894,-87.8339 962.753,-90.9014 966.88,-96.5559"/>
</g>
<!-- Node6 -->
<g id="node6" class="node"><title>Node6</title>
<polygon fill="none" stroke="#bfbfbf" points="1029.5,-68.5 1029.5,-87.5 1078.5,-87.5 1078.5,-68.5 1029.5,-68.5"/>
<text text-anchor="middle" x="1054" y="-75.5" font-family="Helvetica,sans-Serif" font-size="10.00">cassert</text>
</g>
<!-- Node3&#45;&gt;Node6 -->
<g id="edge5" class="edge"><title>Node3&#45;&gt;Node6</title>
<path fill="none" stroke="midnightblue" d="M933.659,-124.444C957.402,-115.478 994.909,-101.314 1021.74,-91.1827"/>
<polygon fill="midnightblue" stroke="midnightblue" points="1023.33,-94.3235 1031.45,-87.5164 1020.86,-87.7749 1023.33,-94.3235"/>
</g>
<!-- Node7 -->
<g id="node7" class="node"><title>Node7</title>
<polygon fill="none" stroke="#bfbfbf" points="0,-6.5 0,-25.5 46,-25.5 46,-6.5 0,-6.5"/>
<text text-anchor="middle" x="23" y="-13.5" font-family="Helvetica,sans-Serif" font-size="10.00">cstring</text>
</g>
<!-- Node3&#45;&gt;Node7 -->
<g id="edge6" class="edge"><title>Node3&#45;&gt;Node7</title>
<path fill="none" stroke="midnightblue" d="M852.5,-133.016C711.92,-131.582 345.251,-119.054 55,-32 52.719,-31.3159 50.3941,-30.4944 48.091,-29.5929"/>
<polygon fill="midnightblue" stroke="midnightblue" points="49.48,-26.3804 38.9151,-25.5841 46.6775,-32.7949 49.48,-26.3804"/>
</g>
<!-- Node8 -->
<g id="node8" class="node"><title>Node8</title>
<polygon fill="none" stroke="#bfbfbf" points="807,-68.5 807,-87.5 863,-87.5 863,-68.5 807,-68.5"/>
<text text-anchor="middle" x="835" y="-75.5" font-family="Helvetica,sans-Serif" font-size="10.00">algorithm</text>
</g>
<!-- Node3&#45;&gt;Node8 -->
<g id="edge7" class="edge"><title>Node3&#45;&gt;Node8</title>
<path fill="none" stroke="midnightblue" d="M898.789,-124.324C887.224,-116.107 869.625,-103.602 855.839,-93.8069"/>
<polygon fill="midnightblue" stroke="midnightblue" points="857.612,-90.7729 847.433,-87.8339 853.557,-96.4791 857.612,-90.7729"/>
</g>
<!-- Node9 -->
<g id="node9" class="node"><title>Node9</title>
<polygon fill="none" stroke="#bfbfbf" points="881.5,-68.5 881.5,-87.5 940.5,-87.5 940.5,-68.5 881.5,-68.5"/>
<text text-anchor="middle" x="911" y="-75.5" font-family="Helvetica,sans-Serif" font-size="10.00">stdexcept</text>
</g>
<!-- Node3&#45;&gt;Node9 -->
<g id="edge8" class="edge"><title>Node3&#45;&gt;Node9</title>
<path fill="none" stroke="midnightblue" d="M911,-124.083C911,-117.006 911,-106.861 911,-97.9865"/>
<polygon fill="midnightblue" stroke="midnightblue" points="914.5,-97.751 911,-87.7511 907.5,-97.7511 914.5,-97.751"/>
</g>
<!-- Node10 -->
<g id="node10" class="node"><title>Node10</title>
<polygon fill="none" stroke="#bfbfbf" points="1207.5,-6.5 1207.5,-25.5 1248.5,-25.5 1248.5,-6.5 1207.5,-6.5"/>
<text text-anchor="middle" x="1228" y="-13.5" font-family="Helvetica,sans-Serif" font-size="10.00">string</text>
</g>
<!-- Node3&#45;&gt;Node10 -->
<g id="edge9" class="edge"><title>Node3&#45;&gt;Node10</title>
<path fill="none" stroke="midnightblue" d="M955.204,-124.473C991.295,-116.855 1043.29,-104.373 1087,-88 1109.87,-79.432 1169.25,-48.376 1203.21,-30.3005"/>
<polygon fill="midnightblue" stroke="midnightblue" points="1204.89,-33.372 1212.06,-25.5759 1201.59,-27.1965 1204.89,-33.372"/>
</g>
<!-- Node11 -->
<g id="node11" class="node"><title>Node11</title>
<g id="a_node11"><a xlink:href="../../dc/d03/MemoryResources_8h.html" target="_top" xlink:title="MemoryResources/MemoryResources.h">
<polygon fill="none" stroke="black" points="449.5,-68.5 449.5,-87.5 642.5,-87.5 642.5,-68.5 449.5,-68.5"/>
<text text-anchor="middle" x="546" y="-75.5" font-family="Helvetica,sans-Serif" font-size="10.00">MemoryResources/MemoryResources.h</text>
</a>
</g>
</g>
<!-- Node3&#45;&gt;Node11 -->
<g id="edge10" class="edge"><title>Node3&#45;&gt;Node11</title>
<path fill="none" stroke="midnightblue" d="M853.165,-124.444C788.156,-114.826 682.723,-99.2275 613.869,-89.0409"/>
<polygon fill="midnightblue" stroke="midnightblue" points="613.969,-85.5177 603.565,-87.5164 612.945,-92.4423 613.969,-85.5177"/>
</g>
<!-- Node11&#45;&gt;Node7 -->
<g id="edge15" class="edge"><title>Node11&#45;&gt;Node7</title>
<path fill="none" stroke="midnightblue" d="M449.266,-72.1074C327.875,-65.2781 126.875,-51.4953 55,-32 52.6517,-31.363 50.263,-30.5635 47.9029,-29.667"/>
<polygon fill="midnightblue" stroke="midnightblue" points="49.1048,-26.3733 38.5379,-25.6042 46.3188,-32.795 49.1048,-26.3733"/>
</g>
<!-- Node11&#45;&gt;Node10 -->
<g id="edge16" class="edge"><title>Node11&#45;&gt;Node10</title>
<path fill="none" stroke="midnightblue" d="M642.631,-72.4298C811.161,-64.1477 1145.94,-46.2008 1198,-32 1200.19,-31.4024 1202.41,-30.6388 1204.6,-29.7735"/>
<polygon fill="midnightblue" stroke="midnightblue" points="1206.19,-32.8927 1213.81,-25.5301 1203.27,-26.5347 1206.19,-32.8927"/>
</g>
<!-- Node12 -->
<g id="node12" class="node"><title>Node12</title>
<polygon fill="none" stroke="#bfbfbf" points="630,-1 630,-31 730,-31 730,-1 630,-1"/>
<text text-anchor="start" x="638" y="-19" font-family="Helvetica,sans-Serif" font-size="10.00">boost/container/flat</text>
<text text-anchor="middle" x="680" y="-8" font-family="Helvetica,sans-Serif" font-size="10.00">_map.hpp</text>
</g>
<!-- Node11&#45;&gt;Node12 -->
<g id="edge11" class="edge"><title>Node11&#45;&gt;Node12</title>
<path fill="none" stroke="midnightblue" d="M565.199,-68.4035C584.514,-59.7549 614.888,-46.1545 639.543,-35.1152"/>
<polygon fill="midnightblue" stroke="midnightblue" points="640.98,-38.3064 648.677,-31.0253 638.12,-31.9176 640.98,-38.3064"/>
</g>
<!-- Node13 -->
<g id="node13" class="node"><title>Node13</title>
<polygon fill="none" stroke="#bfbfbf" points="748,-1 748,-31 864,-31 864,-1 748,-1"/>
<text text-anchor="start" x="756" y="-19" font-family="Helvetica,sans-Serif" font-size="10.00">boost/container/pmr</text>
<text text-anchor="middle" x="806" y="-8" font-family="Helvetica,sans-Serif" font-size="10.00">/memory_resource.hpp</text>
</g>
<!-- Node11&#45;&gt;Node13 -->
<g id="edge12" class="edge"><title>Node11&#45;&gt;Node13</title>
<path fill="none" stroke="midnightblue" d="M582.976,-68.4672C623.111,-59.2051 688.089,-44.2103 737.581,-32.789"/>
<polygon fill="midnightblue" stroke="midnightblue" points="738.619,-36.1414 747.576,-30.4824 737.045,-29.3207 738.619,-36.1414"/>
</g>
<!-- Node14 -->
<g id="node14" class="node"><title>Node14</title>
<polygon fill="none" stroke="#bfbfbf" points="882,-1 882,-31 1038,-31 1038,-1 882,-1"/>
<text text-anchor="start" x="890" y="-19" font-family="Helvetica,sans-Serif" font-size="10.00">boost/container/pmr</text>
<text text-anchor="middle" x="960" y="-8" font-family="Helvetica,sans-Serif" font-size="10.00">/monotonic_buffer_resource.hpp</text>
</g>
<!-- Node11&#45;&gt;Node14 -->
<g id="edge13" class="edge"><title>Node11&#45;&gt;Node14</title>
<path fill="none" stroke="midnightblue" d="M612.273,-68.4771C676.016,-60.1373 775.353,-46.769 871.877,-31.9876"/>
<polygon fill="midnightblue" stroke="midnightblue" points="872.459,-35.4394 881.811,-30.4598 871.395,-28.5207 872.459,-35.4394"/>
</g>
<!-- Node15 -->
<g id="node15" class="node"><title>Node15</title>
<polygon fill="none" stroke="#bfbfbf" points="1056.5,-1 1056.5,-31 1189.5,-31 1189.5,-1 1056.5,-1"/>
<text text-anchor="start" x="1064.5" y="-19" font-family="Helvetica,sans-Serif" font-size="10.00">boost/container/pmr</text>
<text text-anchor="middle" x="1123" y="-8" font-family="Helvetica,sans-Serif" font-size="10.00">/polymorphic_allocator.hpp</text>
</g>
<!-- Node11&#45;&gt;Node15 -->
<g id="edge14" class="edge"><title>Node11&#45;&gt;Node15</title>
<path fill="none" stroke="midnightblue" d="M642.862,-71.3343C741.76,-64.8563 899.874,-52.5887 1046.27,-32.0012"/>
<polygon fill="midnightblue" stroke="midnightblue" points="1046.93,-35.4421 1056.34,-30.5689 1045.95,-28.5118 1046.93,-35.4421"/>
</g>
<!-- Node16 -->
<g id="node16" class="node"><title>Node16</title>
<polygon fill="none" stroke="#bfbfbf" points="64,-6.5 64,-25.5 126,-25.5 126,-6.5 64,-6.5"/>
<text text-anchor="middle" x="95" y="-13.5" font-family="Helvetica,sans-Serif" font-size="10.00">type_traits</text>
</g>
<!-- Node11&#45;&gt;Node16 -->
<g id="edge17" class="edge"><title>Node11&#45;&gt;Node16</title>
<path fill="none" stroke="midnightblue" d="M449.338,-73.2269C365.306,-68.3385 240.786,-57.2061 135,-32 131.578,-31.1845 128.05,-30.1562 124.574,-29.0219"/>
<polygon fill="midnightblue" stroke="midnightblue" points="125.638,-25.6856 115.043,-25.6334 123.293,-32.2811 125.638,-25.6856"/>
</g>
<!-- Node17 -->
<g id="node17" class="node"><title>Node17</title>
<polygon fill="none" stroke="#bfbfbf" points="144,-6.5 144,-25.5 184,-25.5 184,-6.5 144,-6.5"/>
<text text-anchor="middle" x="164" y="-13.5" font-family="Helvetica,sans-Serif" font-size="10.00">utility</text>
</g>
<!-- Node11&#45;&gt;Node17 -->
<g id="edge18" class="edge"><title>Node11&#45;&gt;Node17</title>
<path fill="none" stroke="midnightblue" d="M449.307,-73.7758C377.257,-69.2056 277.199,-58.2369 193,-32 191.092,-31.4056 189.16,-30.6904 187.247,-29.8991"/>
<polygon fill="midnightblue" stroke="midnightblue" points="188.564,-26.65 178.03,-25.5137 185.556,-32.9709 188.564,-26.65"/>
</g>
<!-- Node18 -->
<g id="node18" class="node"><title>Node18</title>
<polygon fill="none" stroke="#bfbfbf" points="202,-6.5 202,-25.5 246,-25.5 246,-6.5 202,-6.5"/>
<text text-anchor="middle" x="224" y="-13.5" font-family="Helvetica,sans-Serif" font-size="10.00">vector</text>
</g>
<!-- Node11&#45;&gt;Node18 -->
<g id="edge19" class="edge"><title>Node11&#45;&gt;Node18</title>
<path fill="none" stroke="midnightblue" d="M449.357,-69.3213C391.93,-62.9776 318.205,-51.6932 255,-32 252.867,-31.3353 250.695,-30.5449 248.543,-29.6798"/>
<polygon fill="midnightblue" stroke="midnightblue" points="249.956,-26.4779 239.401,-25.5661 247.084,-32.8614 249.956,-26.4779"/>
</g>
<!-- Node19 -->
<g id="node19" class="node"><title>Node19</title>
<polygon fill="none" stroke="#bfbfbf" points="264.5,-6.5 264.5,-25.5 347.5,-25.5 347.5,-6.5 264.5,-6.5"/>
<text text-anchor="middle" x="306" y="-13.5" font-family="Helvetica,sans-Serif" font-size="10.00">unordered_map</text>
</g>
<!-- Node11&#45;&gt;Node19 -->
<g id="edge20" class="edge"><title>Node11&#45;&gt;Node19</title>
<path fill="none" stroke="midnightblue" d="M506.895,-68.4459C468.364,-59.8509 407.896,-45.917 356,-32 351.864,-30.8908 347.551,-29.6801 343.268,-28.4431"/>
<polygon fill="midnightblue" stroke="midnightblue" points="344.007,-25.012 333.425,-25.5445 342.029,-31.7269 344.007,-25.012"/>
</g>
<!-- Node20 -->
<g id="node20" class="node"><title>Node20</title>
<polygon fill="none" stroke="#bfbfbf" points="365.5,-6.5 365.5,-25.5 462.5,-25.5 462.5,-6.5 365.5,-6.5"/>
<text text-anchor="middle" x="414" y="-13.5" font-family="Helvetica,sans-Serif" font-size="10.00">FairMQMessage.h</text>
</g>
<!-- Node11&#45;&gt;Node20 -->
<g id="edge21" class="edge"><title>Node11&#45;&gt;Node20</title>
<path fill="none" stroke="midnightblue" d="M527.088,-68.4035C504.837,-58.2896 467.688,-41.4036 442.074,-29.761"/>
<polygon fill="midnightblue" stroke="midnightblue" points="443.429,-26.5324 432.877,-25.5806 440.533,-32.905 443.429,-26.5324"/>
</g>
<!-- Node21 -->
<g id="node21" class="node"><title>Node21</title>
<polygon fill="none" stroke="#bfbfbf" points="480.5,-6.5 480.5,-25.5 611.5,-25.5 611.5,-6.5 480.5,-6.5"/>
<text text-anchor="middle" x="546" y="-13.5" font-family="Helvetica,sans-Serif" font-size="10.00">FairMQTransportFactory.h</text>
</g>
<!-- Node11&#45;&gt;Node21 -->
<g id="edge22" class="edge"><title>Node11&#45;&gt;Node21</title>
<path fill="none" stroke="midnightblue" d="M546,-68.4035C546,-59.9381 546,-46.7283 546,-35.8199"/>
<polygon fill="midnightblue" stroke="midnightblue" points="549.5,-35.5806 546,-25.5806 542.5,-35.5806 549.5,-35.5806"/>
</g>
<!-- Node23&#45;&gt;Node3 -->
<g id="edge28" class="edge"><title>Node23&#45;&gt;Node3</title>
<path fill="none" stroke="midnightblue" d="M1107.92,-180.444C1067.27,-171.063 1001.97,-155.993 957.816,-145.804"/>
<polygon fill="midnightblue" stroke="midnightblue" points="958.435,-142.355 947.905,-143.516 956.861,-149.175 958.435,-142.355"/>
</g>
<!-- Node23&#45;&gt;Node10 -->
<g id="edge25" class="edge"><title>Node23&#45;&gt;Node10</title>
<path fill="none" stroke="midnightblue" d="M1146.79,-180.343C1149.58,-167.65 1155.53,-143.394 1164,-124 1178.65,-90.4554 1201.87,-54.5394 1215.95,-34.0215"/>
<polygon fill="midnightblue" stroke="midnightblue" points="1218.87,-35.9492 1221.71,-25.7416 1213.12,-31.9513 1218.87,-35.9492"/>
</g>
<!-- Node23&#45;&gt;Node22 -->
<g id="edge27" class="edge"><title>Node23&#45;&gt;Node22</title>
<path fill="none" stroke="midnightblue" d="M1130.06,-180.324C1115.41,-171.822 1092.87,-158.729 1075.76,-148.797"/>
<polygon fill="midnightblue" stroke="midnightblue" points="1077.31,-145.649 1066.9,-143.655 1073.8,-151.703 1077.31,-145.649"/>
</g>
<!-- Node24 -->
<g id="node24" class="node"><title>Node24</title>
<polygon fill="none" stroke="#bfbfbf" points="1173,-124.5 1173,-143.5 1225,-143.5 1225,-124.5 1173,-124.5"/>
<text text-anchor="middle" x="1199" y="-131.5" font-family="Helvetica,sans-Serif" font-size="10.00">ostream</text>
</g>
<!-- Node23&#45;&gt;Node24 -->
<g id="edge26" class="edge"><title>Node23&#45;&gt;Node24</title>
<path fill="none" stroke="midnightblue" d="M1153.92,-180.083C1161.78,-172.22 1173.43,-160.569 1182.92,-151.081"/>
<polygon fill="midnightblue" stroke="midnightblue" points="1185.65,-153.297 1190.25,-143.751 1180.7,-148.347 1185.65,-153.297"/>
</g>
</g>
</svg>
        <g id="navigator" transform="translate(0 0)" fill="#404254">
                <rect fill="#f2f5e9" fill-opacity="0.5" stroke="#606060" stroke-width=".5" x="0" y="0" width="60" height="60"/>
                <use id="zoomplus" xlink:href="#zoomPlus" x="17" y="9" onmousedown="handleZoom(evt,'in')"/>
                <use id="zoomminus" xlink:href="#zoomMin" x="42" y="9" onmousedown="handleZoom(evt,'out')"/>
                <use id="reset" xlink:href="#resetDef" x="30" y="36" onmousedown="handleReset()"/>
                <g id="arrowUp" xlink:href="#dirArrow" transform="translate(30 24)" onmousedown="handlePan(0,-1)">
                  <use xlink:href="#rim" fill="#404040">
                        <set attributeName="fill" to="#808080" begin="arrowUp.mouseover" end="arrowUp.mouseout"/>
                  </use>
                  <path fill="none" stroke="white" stroke-width="1.5" d="M0,-3.0v7 M-2.5,-0.5L0,-3.0L2.5,-0.5"/>
                </g>
                <g id="arrowRight" xlink:href="#dirArrow" transform="rotate(90) translate(36 -43)" onmousedown="handlePan(1,0)">
                  <use xlink:href="#rim" fill="#404040">
                        <set attributeName="fill" to="#808080" begin="arrowRight.mouseover" end="arrowRight.mouseout"/>
                  </use>
                  <path fill="none" stroke="white" stroke-width="1.5" d="M0,-3.0v7 M-2.5,-0.5L0,-3.0L2.5,-0.5"/>
                </g>
                <g id="arrowDown" xlink:href="#dirArrow" transform="rotate(180) translate(-30 -48)" onmousedown="handlePan(0,1)">
                  <use xlink:href="#rim" fill="#404040">
                        <set attributeName="fill" to="#808080" begin="arrowDown.mouseover" end="arrowDown.mouseout"/>
                  </use>
                  <path fill="none" stroke="white" stroke-width="1.5" d="M0,-3.0v7 M-2.5,-0.5L0,-3.0L2.5,-0.5"/>
                </g>
                <g id="arrowLeft" xlink:href="#dirArrow" transform="rotate(270) translate(-36 17)" onmousedown="handlePan(-1,0)">
                  <use xlink:href="#rim" fill="#404040">
                        <set attributeName="fill" to="#808080" begin="arrowLeft.mouseover" end="arrowLeft.mouseout"/>
                  </use>
                  <path fill="none" stroke="white" stroke-width="1.5" d="M0,-3.0v7 M-2.5,-0.5L0,-3.0L2.5,-0.5"/>
                </g>
        </g>
        <svg viewBox="0 0 15 15" width="100%" height="30px" preserveAspectRatio="xMaxYMin meet">
         <g id="arrow_out" transform="scale(0.3 0.3)">
          <a xlink:href="DataSpecUtils_8h__incl_org.svg" target="_base">
           <rect id="button" ry="5" rx="5" y="6" x="6" height="38" width="38"
                fill="#f2f5e9" fill-opacity="0.5" stroke="#606060" stroke-width="1.0"/>
           <path id="arrow"
             d="M 11.500037,31.436501 C 11.940474,20.09759 22.043105,11.32322 32.158766,21.979434 L 37.068811,17.246167 C 37.068811,17.246167 37.088388,32 37.088388,32 L 22.160133,31.978069 C 22.160133,31.978069 26.997745,27.140456 26.997745,27.140456 C 18.528582,18.264221 13.291696,25.230495 11.500037,31.436501 z"
             style="fill:#404040;"/>
          </a>
         </g>
        </svg>
</svg>
