<?xml version="1.0" encoding="UTF-8" standalone="no"?>
<!DOCTYPE svg PUBLIC "-//W3C//DTD SVG 1.1//EN"
 "http://www.w3.org/Graphics/SVG/1.1/DTD/svg11.dtd">
<!-- Generated by graphviz version 2.36.0 (20140111.2315)
 -->
<!-- Title: /home/travis/build/AliceO2Group/AliceO2/Detectors/FIT/simulation/include/FITSimulation/DigitizerTask.h Pages: 1 -->
<svg width="2655pt" height="444pt"
 viewBox="0.00 0.00 2655.00 444.00" xmlns="http://www.w3.org/2000/svg" xmlns:xlink="http://www.w3.org/1999/xlink">
<g id="graph0" class="graph" transform="scale(1 1) rotate(0) translate(4 440)">
<title>/home/travis/build/AliceO2Group/AliceO2/Detectors/FIT/simulation/include/FITSimulation/DigitizerTask.h</title>
<!-- Node1 -->
<g id="node1" class="node"><title>Node1</title>
<polygon fill="#bfbfbf" stroke="black" points="852.5,-372.5 852.5,-435.5 1005.5,-435.5 1005.5,-372.5 852.5,-372.5"/>
<text text-anchor="start" x="860.5" y="-423.5" font-family="Helvetica,sans-Serif" font-size="10.00">/home/travis/build</text>
<text text-anchor="start" x="860.5" y="-412.5" font-family="Helvetica,sans-Serif" font-size="10.00">/AliceO2Group/AliceO2</text>
<text text-anchor="start" x="860.5" y="-401.5" font-family="Helvetica,sans-Serif" font-size="10.00">/Detectors/FIT/simulation</text>
<text text-anchor="start" x="860.5" y="-390.5" font-family="Helvetica,sans-Serif" font-size="10.00">/include/FITSimulation/Digitizer</text>
<text text-anchor="middle" x="929" y="-379.5" font-family="Helvetica,sans-Serif" font-size="10.00">Task.h</text>
</g>
<!-- Node2 -->
<g id="node2" class="node"><title>Node2</title>
<polygon fill="none" stroke="#bfbfbf" points="799.5,-316.5 799.5,-335.5 862.5,-335.5 862.5,-316.5 799.5,-316.5"/>
<text text-anchor="middle" x="831" y="-323.5" font-family="Helvetica,sans-Serif" font-size="10.00">FairTask.h</text>
</g>
<!-- Node1&#45;&gt;Node2 -->
<g id="edge1" class="edge"><title>Node1&#45;&gt;Node2</title>
<path fill="none" stroke="midnightblue" d="M889.422,-372.307C876.009,-361.905 861.616,-350.743 850.473,-342.102"/>
<polygon fill="midnightblue" stroke="midnightblue" points="852.361,-339.136 842.314,-335.774 848.071,-344.668 852.361,-339.136"/>
</g>
<!-- Node3 -->
<g id="node3" class="node"><title>Node3</title>
<polygon fill="none" stroke="#bfbfbf" points="1193,-74.5 1193,-93.5 1249,-93.5 1249,-74.5 1193,-74.5"/>
<text text-anchor="middle" x="1221" y="-81.5" font-family="Helvetica,sans-Serif" font-size="10.00">Rtypes.h</text>
</g>
<!-- Node1&#45;&gt;Node3 -->
<g id="edge2" class="edge"><title>Node1&#45;&gt;Node3</title>
<path fill="none" stroke="midnightblue" d="M914.85,-372.247C904.046,-345.942 891,-306.771 891,-271 891,-271 891,-271 891,-207 891,-168.91 906.756,-156.278 939,-136 1031.79,-77.642 1077.1,-128.31 1183,-100 1186.05,-99.1837 1189.2,-98.1971 1192.3,-97.1242"/>
<polygon fill="midnightblue" stroke="midnightblue" points="1193.82,-100.293 1201.96,-93.5058 1191.36,-93.7379 1193.82,-100.293"/>
</g>
<!-- Node4 -->
<g id="node4" class="node"><title>Node4</title>
<g id="a_node4"><a xlink:href="../../d1/dde/FIT_2base_2include_2FITBase_2Digit_8h.html" target="_top" xlink:title="FITBase/Digit.h">
<polygon fill="none" stroke="black" points="1068,-198.5 1068,-217.5 1154,-217.5 1154,-198.5 1068,-198.5"/>
<text text-anchor="middle" x="1111" y="-205.5" font-family="Helvetica,sans-Serif" font-size="10.00">FITBase/Digit.h</text>
</a>
</g>
</g>
<!-- Node1&#45;&gt;Node4 -->
<g id="edge3" class="edge"><title>Node1&#45;&gt;Node4</title>
<path fill="none" stroke="midnightblue" d="M1005.92,-388.403C1036.86,-378.655 1070.09,-362.534 1091,-336 1115.9,-304.401 1115.65,-254.338 1113.32,-227.478"/>
<polygon fill="midnightblue" stroke="midnightblue" points="1116.8,-227.084 1112.27,-217.509 1109.84,-227.822 1116.8,-227.084"/>
</g>
<!-- Node7 -->
<g id="node7" class="node"><title>Node7</title>
<g id="a_node7"><a xlink:href="../../de/d6b/FIT_2simulation_2include_2FITSimulation_2Detector_8h.html" target="_top" xlink:title="FITSimulation/Detector.h">
<polygon fill="none" stroke="black" points="919,-260.5 919,-279.5 1045,-279.5 1045,-260.5 919,-260.5"/>
<text text-anchor="middle" x="982" y="-267.5" font-family="Helvetica,sans-Serif" font-size="10.00">FITSimulation/Detector.h</text>
</a>
</g>
</g>
<!-- Node1&#45;&gt;Node7 -->
<g id="edge8" class="edge"><title>Node1&#45;&gt;Node7</title>
<path fill="none" stroke="midnightblue" d="M932.946,-372.216C935.899,-355.108 940.871,-333.755 949,-316 953.68,-305.779 960.896,-295.579 967.389,-287.48"/>
<polygon fill="midnightblue" stroke="midnightblue" points="970.243,-289.524 973.996,-279.616 964.884,-285.021 970.243,-289.524"/>
</g>
<!-- Node38 -->
<g id="node38" class="node"><title>Node38</title>
<g id="a_node38"><a xlink:href="../../d3/da0/FIT_2simulation_2include_2FITSimulation_2Digitizer_8h.html" target="_top" xlink:title="FITSimulation/Digitizer.h">
<polygon fill="none" stroke="black" points="957.5,-316.5 957.5,-335.5 1082.5,-335.5 1082.5,-316.5 957.5,-316.5"/>
<text text-anchor="middle" x="1020" y="-323.5" font-family="Helvetica,sans-Serif" font-size="10.00">FITSimulation/Digitizer.h</text>
</a>
</g>
</g>
<!-- Node1&#45;&gt;Node38 -->
<g id="edge46" class="edge"><title>Node1&#45;&gt;Node38</title>
<path fill="none" stroke="midnightblue" d="M965.751,-372.307C978.083,-362.008 991.306,-350.964 1001.61,-342.359"/>
<polygon fill="midnightblue" stroke="midnightblue" points="1004.06,-344.87 1009.49,-335.774 999.576,-339.498 1004.06,-344.87"/>
</g>
<!-- Node4&#45;&gt;Node3 -->
<g id="edge7" class="edge"><title>Node4&#45;&gt;Node3</title>
<path fill="none" stroke="midnightblue" d="M1154.34,-204.907C1188.7,-200.691 1234.67,-188.795 1258,-156 1270.63,-138.255 1253.94,-115.634 1239.09,-100.753"/>
<polygon fill="midnightblue" stroke="midnightblue" points="1241.33,-98.0586 1231.65,-93.7444 1236.53,-103.151 1241.33,-98.0586"/>
</g>
<!-- Node5 -->
<g id="node5" class="node"><title>Node5</title>
<g id="a_node5"><a xlink:href="../../df/d5d/common_2include_2CommonDataFormat_2TimeStamp_8h.html" target="_top" xlink:title="CommonDataFormat/TimeStamp.h">
<polygon fill="none" stroke="black" points="1079,-136.5 1079,-155.5 1249,-155.5 1249,-136.5 1079,-136.5"/>
<text text-anchor="middle" x="1164" y="-143.5" font-family="Helvetica,sans-Serif" font-size="10.00">CommonDataFormat/TimeStamp.h</text>
</a>
</g>
</g>
<!-- Node4&#45;&gt;Node5 -->
<g id="edge4" class="edge"><title>Node4&#45;&gt;Node5</title>
<path fill="none" stroke="midnightblue" d="M1118.59,-198.403C1126.7,-189.225 1139.73,-174.47 1149.76,-163.117"/>
<polygon fill="midnightblue" stroke="midnightblue" points="1152.42,-165.392 1156.42,-155.581 1147.18,-160.758 1152.42,-165.392"/>
</g>
<!-- Node6 -->
<g id="node6" class="node"><title>Node6</title>
<polygon fill="none" stroke="#bfbfbf" points="1129.5,-74.5 1129.5,-93.5 1174.5,-93.5 1174.5,-74.5 1129.5,-74.5"/>
<text text-anchor="middle" x="1152" y="-81.5" font-family="Helvetica,sans-Serif" font-size="10.00">iosfwd</text>
</g>
<!-- Node4&#45;&gt;Node6 -->
<g id="edge6" class="edge"><title>Node4&#45;&gt;Node6</title>
<path fill="none" stroke="midnightblue" d="M1099.55,-198.308C1083.45,-184.977 1057.42,-158.645 1070,-136 1076.14,-124.958 1103.46,-109.243 1124.91,-98.1832"/>
<polygon fill="midnightblue" stroke="midnightblue" points="1126.61,-101.245 1133.95,-93.6093 1123.45,-94.9986 1126.61,-101.245"/>
</g>
<!-- Node5&#45;&gt;Node3 -->
<g id="edge5" class="edge"><title>Node5&#45;&gt;Node3</title>
<path fill="none" stroke="midnightblue" d="M1172.17,-136.403C1180.89,-127.225 1194.9,-112.47 1205.69,-101.117"/>
<polygon fill="midnightblue" stroke="midnightblue" points="1208.5,-103.241 1212.85,-93.5806 1203.42,-98.42 1208.5,-103.241"/>
</g>
<!-- Node8 -->
<g id="node8" class="node"><title>Node8</title>
<g id="a_node8"><a xlink:href="../../d4/d25/BaseHits_8h.html" target="_top" xlink:title="SimulationDataFormat\l/BaseHits.h">
<polygon fill="none" stroke="black" points="704,-193 704,-223 818,-223 818,-193 704,-193"/>
<text text-anchor="start" x="712" y="-211" font-family="Helvetica,sans-Serif" font-size="10.00">SimulationDataFormat</text>
<text text-anchor="middle" x="761" y="-200" font-family="Helvetica,sans-Serif" font-size="10.00">/BaseHits.h</text>
</a>
</g>
</g>
<!-- Node7&#45;&gt;Node8 -->
<g id="edge9" class="edge"><title>Node7&#45;&gt;Node8</title>
<path fill="none" stroke="midnightblue" d="M950.336,-260.403C917.077,-251.374 863.937,-236.947 822.408,-225.672"/>
<polygon fill="midnightblue" stroke="midnightblue" points="823.228,-222.268 812.66,-223.025 821.394,-229.023 823.228,-222.268"/>
</g>
<!-- Node19 -->
<g id="node19" class="node"><title>Node19</title>
<g id="a_node19"><a xlink:href="../../d1/d3a/Base_2include_2DetectorsBase_2Detector_8h.html" target="_top" xlink:title="DetectorsBase/Detector.h">
<polygon fill="none" stroke="black" points="1861.5,-198.5 1861.5,-217.5 1992.5,-217.5 1992.5,-198.5 1861.5,-198.5"/>
<text text-anchor="middle" x="1927" y="-205.5" font-family="Helvetica,sans-Serif" font-size="10.00">DetectorsBase/Detector.h</text>
</a>
</g>
</g>
<!-- Node7&#45;&gt;Node19 -->
<g id="edge22" class="edge"><title>Node7&#45;&gt;Node19</title>
<path fill="none" stroke="midnightblue" d="M1045.1,-264.993C1212.93,-254.338 1669.79,-225.331 1851.24,-213.81"/>
<polygon fill="midnightblue" stroke="midnightblue" points="1851.48,-217.302 1861.23,-213.176 1851.03,-210.316 1851.48,-217.302"/>
</g>
<!-- Node36 -->
<g id="node36" class="node"><title>Node36</title>
<g id="a_node36"><a xlink:href="../../d1/db1/FIT_2base_2include_2FITBase_2Geometry_8h.html" target="_top" xlink:title="FITBase/Geometry.h">
<polygon fill="none" stroke="black" points="928,-198.5 928,-217.5 1036,-217.5 1036,-198.5 928,-198.5"/>
<text text-anchor="middle" x="982" y="-205.5" font-family="Helvetica,sans-Serif" font-size="10.00">FITBase/Geometry.h</text>
</a>
</g>
</g>
<!-- Node7&#45;&gt;Node36 -->
<g id="edge43" class="edge"><title>Node7&#45;&gt;Node36</title>
<path fill="none" stroke="midnightblue" d="M982,-260.403C982,-251.938 982,-238.728 982,-227.82"/>
<polygon fill="midnightblue" stroke="midnightblue" points="985.5,-227.581 982,-217.581 978.5,-227.581 985.5,-227.581"/>
</g>
<!-- Node9 -->
<g id="node9" class="node"><title>Node9</title>
<g id="a_node9"><a xlink:href="../../dd/d76/Cartesian3D_8h.html" target="_top" xlink:title="MathUtils/Cartesian3D.h">
<polygon fill="none" stroke="black" points="665.5,-136.5 665.5,-155.5 790.5,-155.5 790.5,-136.5 665.5,-136.5"/>
<text text-anchor="middle" x="728" y="-143.5" font-family="Helvetica,sans-Serif" font-size="10.00">MathUtils/Cartesian3D.h</text>
</a>
</g>
</g>
<!-- Node8&#45;&gt;Node9 -->
<g id="edge10" class="edge"><title>Node8&#45;&gt;Node9</title>
<path fill="none" stroke="midnightblue" d="M753.179,-192.781C748.532,-184.332 742.601,-173.548 737.663,-164.569"/>
<polygon fill="midnightblue" stroke="midnightblue" points="740.688,-162.806 732.802,-155.731 734.554,-166.179 740.688,-162.806"/>
</g>
<!-- Node9&#45;&gt;Node3 -->
<g id="edge16" class="edge"><title>Node9&#45;&gt;Node3</title>
<path fill="none" stroke="midnightblue" d="M790.626,-140.961C897.398,-133.714 1110.19,-117.608 1183,-100 1186.24,-99.2165 1189.57,-98.215 1192.85,-97.1021"/>
<polygon fill="midnightblue" stroke="midnightblue" points="1194.25,-100.315 1202.39,-93.5354 1191.8,-93.7584 1194.25,-100.315"/>
</g>
<!-- Node9&#45;&gt;Node6 -->
<g id="edge18" class="edge"><title>Node9&#45;&gt;Node6</title>
<path fill="none" stroke="midnightblue" d="M790.736,-140.281C885.296,-132.747 1059.7,-117.1 1120,-100 1122.34,-99.3362 1124.72,-98.5181 1127.08,-97.6095"/>
<polygon fill="midnightblue" stroke="midnightblue" points="1128.67,-100.733 1136.44,-93.5277 1125.88,-94.317 1128.67,-100.733"/>
</g>
<!-- Node10 -->
<g id="node10" class="node"><title>Node10</title>
<polygon fill="none" stroke="#bfbfbf" points="246.5,-69 246.5,-99 397.5,-99 397.5,-69 246.5,-69"/>
<text text-anchor="start" x="254.5" y="-87" font-family="Helvetica,sans-Serif" font-size="10.00">Math/GenVector/Displacement</text>
<text text-anchor="middle" x="322" y="-76" font-family="Helvetica,sans-Serif" font-size="10.00">Vector3D.h</text>
</g>
<!-- Node9&#45;&gt;Node10 -->
<g id="edge11" class="edge"><title>Node9&#45;&gt;Node10</title>
<path fill="none" stroke="midnightblue" d="M665.465,-136.9C602.852,-128.638 503.494,-115.121 407.407,-100.03"/>
<polygon fill="midnightblue" stroke="midnightblue" points="407.944,-96.5717 397.521,-98.4701 406.853,-103.486 407.944,-96.5717"/>
</g>
<!-- Node11 -->
<g id="node11" class="node"><title>Node11</title>
<polygon fill="none" stroke="#bfbfbf" points="416,-74.5 416,-93.5 592,-93.5 592,-74.5 416,-74.5"/>
<text text-anchor="middle" x="504" y="-81.5" font-family="Helvetica,sans-Serif" font-size="10.00">Math/GenVector/PositionVector3D.h</text>
</g>
<!-- Node9&#45;&gt;Node11 -->
<g id="edge12" class="edge"><title>Node9&#45;&gt;Node11</title>
<path fill="none" stroke="midnightblue" d="M695.906,-136.403C656.401,-125.822 589.221,-107.827 545.739,-96.1802"/>
<polygon fill="midnightblue" stroke="midnightblue" points="546.599,-92.7872 536.034,-93.5806 544.788,-99.5488 546.599,-92.7872"/>
</g>
<!-- Node12 -->
<g id="node12" class="node"><title>Node12</title>
<polygon fill="none" stroke="#bfbfbf" points="609.5,-74.5 609.5,-93.5 758.5,-93.5 758.5,-74.5 609.5,-74.5"/>
<text text-anchor="middle" x="684" y="-81.5" font-family="Helvetica,sans-Serif" font-size="10.00">Math/GenVector/Rotation3D.h</text>
</g>
<!-- Node9&#45;&gt;Node12 -->
<g id="edge13" class="edge"><title>Node9&#45;&gt;Node12</title>
<path fill="none" stroke="midnightblue" d="M721.696,-136.403C715.096,-127.403 704.563,-113.041 696.307,-101.782"/>
<polygon fill="midnightblue" stroke="midnightblue" points="699.029,-99.5749 690.292,-93.5806 693.384,-103.714 699.029,-99.5749"/>
</g>
<!-- Node13 -->
<g id="node13" class="node"><title>Node13</title>
<polygon fill="none" stroke="#bfbfbf" points="777,-74.5 777,-93.5 933,-93.5 933,-74.5 777,-74.5"/>
<text text-anchor="middle" x="855" y="-81.5" font-family="Helvetica,sans-Serif" font-size="10.00">Math/GenVector/Transform3D.h</text>
</g>
<!-- Node9&#45;&gt;Node13 -->
<g id="edge14" class="edge"><title>Node9&#45;&gt;Node13</title>
<path fill="none" stroke="midnightblue" d="M746.196,-136.403C767.509,-126.334 803.031,-109.552 827.663,-97.9151"/>
<polygon fill="midnightblue" stroke="midnightblue" points="829.291,-101.017 836.838,-93.5806 826.301,-94.6877 829.291,-101.017"/>
</g>
<!-- Node14 -->
<g id="node14" class="node"><title>Node14</title>
<polygon fill="none" stroke="#bfbfbf" points="951,-74.5 951,-93.5 1111,-93.5 1111,-74.5 951,-74.5"/>
<text text-anchor="middle" x="1031" y="-81.5" font-family="Helvetica,sans-Serif" font-size="10.00">Math/GenVector/Translation3D.h</text>
</g>
<!-- Node9&#45;&gt;Node14 -->
<g id="edge15" class="edge"><title>Node9&#45;&gt;Node14</title>
<path fill="none" stroke="midnightblue" d="M771.091,-136.467C825.611,-125.671 919.468,-107.086 978.227,-95.4501"/>
<polygon fill="midnightblue" stroke="midnightblue" points="978.928,-98.8793 988.058,-93.5034 977.568,-92.0126 978.928,-98.8793"/>
</g>
<!-- Node15 -->
<g id="node15" class="node"><title>Node15</title>
<polygon fill="none" stroke="#bfbfbf" points="9,-74.5 9,-93.5 85,-93.5 85,-74.5 9,-74.5"/>
<text text-anchor="middle" x="47" y="-81.5" font-family="Helvetica,sans-Serif" font-size="10.00">TGeoMatrix.h</text>
</g>
<!-- Node9&#45;&gt;Node15 -->
<g id="edge17" class="edge"><title>Node9&#45;&gt;Node15</title>
<path fill="none" stroke="midnightblue" d="M665.267,-145.462C550.709,-145.223 300.431,-139.678 94,-100 89.429,-99.1214 84.6807,-97.9399 80.0364,-96.6236"/>
<polygon fill="midnightblue" stroke="midnightblue" points="80.7311,-93.1759 70.1445,-93.5923 78.6801,-99.8687 80.7311,-93.1759"/>
</g>
<!-- Node16 -->
<g id="node16" class="node"><title>Node16</title>
<g id="a_node16"><a xlink:href="../../d2/dd0/Cartesian2D_8h.html" target="_top" xlink:title="MathUtils/Cartesian2D.h">
<polygon fill="none" stroke="black" points="103.5,-74.5 103.5,-93.5 228.5,-93.5 228.5,-74.5 103.5,-74.5"/>
<text text-anchor="middle" x="166" y="-81.5" font-family="Helvetica,sans-Serif" font-size="10.00">MathUtils/Cartesian2D.h</text>
</a>
</g>
</g>
<!-- Node9&#45;&gt;Node16 -->
<g id="edge19" class="edge"><title>Node9&#45;&gt;Node16</title>
<path fill="none" stroke="midnightblue" d="M665.325,-141.607C571.711,-136.008 389.99,-123.091 237,-100 228.941,-98.7836 220.42,-97.224 212.187,-95.5724"/>
<polygon fill="midnightblue" stroke="midnightblue" points="212.838,-92.1332 202.336,-93.529 211.417,-98.9873 212.838,-92.1332"/>
</g>
<!-- Node17 -->
<g id="node17" class="node"><title>Node17</title>
<polygon fill="none" stroke="#bfbfbf" points="-0.5,-1 -0.5,-31 150.5,-31 150.5,-1 -0.5,-1"/>
<text text-anchor="start" x="7.5" y="-19" font-family="Helvetica,sans-Serif" font-size="10.00">Math/GenVector/Displacement</text>
<text text-anchor="middle" x="75" y="-8" font-family="Helvetica,sans-Serif" font-size="10.00">Vector2D.h</text>
</g>
<!-- Node16&#45;&gt;Node17 -->
<g id="edge20" class="edge"><title>Node16&#45;&gt;Node17</title>
<path fill="none" stroke="midnightblue" d="M154.103,-74.3717C141.221,-65.0286 120.22,-49.7966 103.093,-37.375"/>
<polygon fill="midnightblue" stroke="midnightblue" points="104.703,-34.2194 94.5532,-31.1815 100.593,-39.8859 104.703,-34.2194"/>
</g>
<!-- Node18 -->
<g id="node18" class="node"><title>Node18</title>
<polygon fill="none" stroke="#bfbfbf" points="169,-6.5 169,-25.5 345,-25.5 345,-6.5 169,-6.5"/>
<text text-anchor="middle" x="257" y="-13.5" font-family="Helvetica,sans-Serif" font-size="10.00">Math/GenVector/PositionVector2D.h</text>
</g>
<!-- Node16&#45;&gt;Node18 -->
<g id="edge21" class="edge"><title>Node16&#45;&gt;Node18</title>
<path fill="none" stroke="midnightblue" d="M177.897,-74.3717C192.884,-63.5015 218.862,-44.6602 236.942,-31.5474"/>
<polygon fill="midnightblue" stroke="midnightblue" points="239.06,-34.3349 245.1,-25.6305 234.95,-28.6684 239.06,-34.3349"/>
</g>
<!-- Node19&#45;&gt;Node3 -->
<g id="edge34" class="edge"><title>Node19&#45;&gt;Node3</title>
<path fill="none" stroke="midnightblue" d="M1861.34,-201.068C1801.85,-194.376 1712.37,-180.998 1638,-156 1619.54,-149.794 1617.59,-141.831 1599,-136 1478.8,-98.2938 1328.51,-88.4645 1259.22,-85.9027"/>
<polygon fill="midnightblue" stroke="midnightblue" points="1259.32,-82.4041 1249.21,-85.5628 1259.09,-89.4001 1259.32,-82.4041"/>
</g>
<!-- Node20 -->
<g id="node20" class="node"><title>Node20</title>
<polygon fill="none" stroke="#bfbfbf" points="2396.5,-74.5 2396.5,-93.5 2431.5,-93.5 2431.5,-74.5 2396.5,-74.5"/>
<text text-anchor="middle" x="2414" y="-81.5" font-family="Helvetica,sans-Serif" font-size="10.00">map</text>
</g>
<!-- Node19&#45;&gt;Node20 -->
<g id="edge23" class="edge"><title>Node19&#45;&gt;Node20</title>
<path fill="none" stroke="midnightblue" d="M1992.92,-206.966C2102.51,-205.706 2316.15,-197.775 2377,-156 2394.86,-143.739 2404.69,-120.09 2409.64,-103.464"/>
<polygon fill="midnightblue" stroke="midnightblue" points="2413.04,-104.308 2412.23,-93.7437 2406.28,-102.506 2413.04,-104.308"/>
</g>
<!-- Node21 -->
<g id="node21" class="node"><title>Node21</title>
<polygon fill="none" stroke="#bfbfbf" points="1647,-136.5 1647,-155.5 1691,-155.5 1691,-136.5 1647,-136.5"/>
<text text-anchor="middle" x="1669" y="-143.5" font-family="Helvetica,sans-Serif" font-size="10.00">vector</text>
</g>
<!-- Node19&#45;&gt;Node21 -->
<g id="edge24" class="edge"><title>Node19&#45;&gt;Node21</title>
<path fill="none" stroke="midnightblue" d="M1885.39,-198.456C1841.78,-189.321 1771.06,-174.007 1701.16,-156.185"/>
<polygon fill="midnightblue" stroke="midnightblue" points="1701.86,-152.751 1691.31,-153.654 1700.12,-159.531 1701.86,-152.751"/>
</g>
<!-- Node22 -->
<g id="node22" class="node"><title>Node22</title>
<polygon fill="none" stroke="#bfbfbf" points="2574.5,-74.5 2574.5,-93.5 2647.5,-93.5 2647.5,-74.5 2574.5,-74.5"/>
<text text-anchor="middle" x="2611" y="-81.5" font-family="Helvetica,sans-Serif" font-size="10.00">initializer_list</text>
</g>
<!-- Node19&#45;&gt;Node22 -->
<g id="edge25" class="edge"><title>Node19&#45;&gt;Node22</title>
<path fill="none" stroke="midnightblue" d="M1992.57,-206.53C2152.89,-204.754 2554.84,-196.29 2599,-156 2613.26,-142.993 2614.68,-119.855 2613.57,-103.534"/>
<polygon fill="midnightblue" stroke="midnightblue" points="2617.04,-103.112 2612.52,-93.5322 2610.08,-103.843 2617.04,-103.112"/>
</g>
<!-- Node23 -->
<g id="node23" class="node"><title>Node23</title>
<polygon fill="none" stroke="#bfbfbf" points="1709,-136.5 1709,-155.5 1761,-155.5 1761,-136.5 1709,-136.5"/>
<text text-anchor="middle" x="1735" y="-143.5" font-family="Helvetica,sans-Serif" font-size="10.00">memory</text>
</g>
<!-- Node19&#45;&gt;Node23 -->
<g id="edge26" class="edge"><title>Node19&#45;&gt;Node23</title>
<path fill="none" stroke="midnightblue" d="M1899.49,-198.403C1865.75,-187.859 1808.45,-169.954 1771.17,-158.304"/>
<polygon fill="midnightblue" stroke="midnightblue" points="1771.81,-154.838 1761.23,-155.195 1769.73,-161.519 1771.81,-154.838"/>
</g>
<!-- Node24 -->
<g id="node24" class="node"><title>Node24</title>
<polygon fill="none" stroke="#bfbfbf" points="1779.5,-136.5 1779.5,-155.5 1858.5,-155.5 1858.5,-136.5 1779.5,-136.5"/>
<text text-anchor="middle" x="1819" y="-143.5" font-family="Helvetica,sans-Serif" font-size="10.00">FairDetector.h</text>
</g>
<!-- Node19&#45;&gt;Node24 -->
<g id="edge27" class="edge"><title>Node19&#45;&gt;Node24</title>
<path fill="none" stroke="midnightblue" d="M1911.53,-198.403C1893.72,-188.512 1864.26,-172.144 1843.37,-160.538"/>
<polygon fill="midnightblue" stroke="midnightblue" points="1844.89,-157.378 1834.45,-155.581 1841.49,-163.497 1844.89,-157.378"/>
</g>
<!-- Node25 -->
<g id="node25" class="node"><title>Node25</title>
<polygon fill="none" stroke="#bfbfbf" points="1877,-136.5 1877,-155.5 1977,-155.5 1977,-136.5 1877,-136.5"/>
<text text-anchor="middle" x="1927" y="-143.5" font-family="Helvetica,sans-Serif" font-size="10.00">FairRootManager.h</text>
</g>
<!-- Node19&#45;&gt;Node25 -->
<g id="edge28" class="edge"><title>Node19&#45;&gt;Node25</title>
<path fill="none" stroke="midnightblue" d="M1927,-198.403C1927,-189.938 1927,-176.728 1927,-165.82"/>
<polygon fill="midnightblue" stroke="midnightblue" points="1930.5,-165.581 1927,-155.581 1923.5,-165.581 1930.5,-165.581"/>
</g>
<!-- Node26 -->
<g id="node26" class="node"><title>Node26</title>
<g id="a_node26"><a xlink:href="../../d0/d9a/MaterialManager_8h.html" target="_top" xlink:title="DetectorsBase/MaterialManager.h">
<polygon fill="none" stroke="black" points="2425.5,-136.5 2425.5,-155.5 2590.5,-155.5 2590.5,-136.5 2425.5,-136.5"/>
<text text-anchor="middle" x="2508" y="-143.5" font-family="Helvetica,sans-Serif" font-size="10.00">DetectorsBase/MaterialManager.h</text>
</a>
</g>
</g>
<!-- Node19&#45;&gt;Node26 -->
<g id="edge29" class="edge"><title>Node19&#45;&gt;Node26</title>
<path fill="none" stroke="midnightblue" d="M1992.52,-200.234C2095.9,-189.558 2297.22,-168.767 2415.36,-156.567"/>
<polygon fill="midnightblue" stroke="midnightblue" points="2415.88,-160.032 2425.47,-155.523 2415.16,-153.069 2415.88,-160.032"/>
</g>
<!-- Node28 -->
<g id="node28" class="node"><title>Node28</title>
<polygon fill="none" stroke="#bfbfbf" points="1995.5,-136.5 1995.5,-155.5 2048.5,-155.5 2048.5,-136.5 1995.5,-136.5"/>
<text text-anchor="middle" x="2022" y="-143.5" font-family="Helvetica,sans-Serif" font-size="10.00">cxxabi.h</text>
</g>
<!-- Node19&#45;&gt;Node28 -->
<g id="edge35" class="edge"><title>Node19&#45;&gt;Node28</title>
<path fill="none" stroke="midnightblue" d="M1940.61,-198.403C1956.06,-188.646 1981.49,-172.585 1999.82,-161.011"/>
<polygon fill="midnightblue" stroke="midnightblue" points="2001.83,-163.88 2008.41,-155.581 1998.09,-157.961 2001.83,-163.88"/>
</g>
<!-- Node29 -->
<g id="node29" class="node"><title>Node29</title>
<polygon fill="none" stroke="#bfbfbf" points="2066.5,-136.5 2066.5,-155.5 2117.5,-155.5 2117.5,-136.5 2066.5,-136.5"/>
<text text-anchor="middle" x="2092" y="-143.5" font-family="Helvetica,sans-Serif" font-size="10.00">typeinfo</text>
</g>
<!-- Node19&#45;&gt;Node29 -->
<g id="edge36" class="edge"><title>Node19&#45;&gt;Node29</title>
<path fill="none" stroke="midnightblue" d="M1950.64,-198.403C1979.07,-188.067 2026.94,-170.656 2059,-158.999"/>
<polygon fill="midnightblue" stroke="midnightblue" points="2060.2,-162.287 2068.4,-155.581 2057.81,-155.709 2060.2,-162.287"/>
</g>
<!-- Node30 -->
<g id="node30" class="node"><title>Node30</title>
<polygon fill="none" stroke="#bfbfbf" points="2136,-136.5 2136,-155.5 2198,-155.5 2198,-136.5 2136,-136.5"/>
<text text-anchor="middle" x="2167" y="-143.5" font-family="Helvetica,sans-Serif" font-size="10.00">type_traits</text>
</g>
<!-- Node19&#45;&gt;Node30 -->
<g id="edge37" class="edge"><title>Node19&#45;&gt;Node30</title>
<path fill="none" stroke="midnightblue" d="M1961.13,-198.467C2004.54,-187.616 2079.41,-168.897 2125.91,-157.273"/>
<polygon fill="midnightblue" stroke="midnightblue" points="2126.81,-160.656 2135.66,-154.835 2125.11,-153.865 2126.81,-160.656"/>
</g>
<!-- Node31 -->
<g id="node31" class="node"><title>Node31</title>
<polygon fill="none" stroke="#bfbfbf" points="2216.5,-136.5 2216.5,-155.5 2257.5,-155.5 2257.5,-136.5 2216.5,-136.5"/>
<text text-anchor="middle" x="2237" y="-143.5" font-family="Helvetica,sans-Serif" font-size="10.00">string</text>
</g>
<!-- Node19&#45;&gt;Node31 -->
<g id="edge38" class="edge"><title>Node19&#45;&gt;Node31</title>
<path fill="none" stroke="midnightblue" d="M1982.93,-198.495C2039.51,-189.489 2129.32,-174.09 2206,-156 2206.21,-155.95 2206.42,-155.9 2206.64,-155.849"/>
<polygon fill="midnightblue" stroke="midnightblue" points="2207.61,-159.212 2216.4,-153.298 2205.84,-152.439 2207.61,-159.212"/>
</g>
<!-- Node32 -->
<g id="node32" class="node"><title>Node32</title>
<polygon fill="none" stroke="#bfbfbf" points="2275.5,-136.5 2275.5,-155.5 2368.5,-155.5 2368.5,-136.5 2275.5,-136.5"/>
<text text-anchor="middle" x="2322" y="-143.5" font-family="Helvetica,sans-Serif" font-size="10.00">FairMQChannel.h</text>
</g>
<!-- Node19&#45;&gt;Node32 -->
<g id="edge39" class="edge"><title>Node19&#45;&gt;Node32</title>
<path fill="none" stroke="midnightblue" d="M1984.91,-198.468C2050.31,-188.792 2160.21,-172.412 2265.12,-156.124"/>
<polygon fill="midnightblue" stroke="midnightblue" points="2265.91,-159.543 2275.25,-154.549 2264.84,-152.626 2265.91,-159.543"/>
</g>
<!-- Node33 -->
<g id="node33" class="node"><title>Node33</title>
<polygon fill="none" stroke="#bfbfbf" points="1305.5,-136.5 1305.5,-155.5 1402.5,-155.5 1402.5,-136.5 1305.5,-136.5"/>
<text text-anchor="middle" x="1354" y="-143.5" font-family="Helvetica,sans-Serif" font-size="10.00">FairMQMessage.h</text>
</g>
<!-- Node19&#45;&gt;Node33 -->
<g id="edge40" class="edge"><title>Node19&#45;&gt;Node33</title>
<path fill="none" stroke="midnightblue" d="M1861.43,-201.674C1765.36,-193.613 1580.5,-177.121 1412.71,-156.024"/>
<polygon fill="midnightblue" stroke="midnightblue" points="1413.07,-152.541 1402.71,-154.758 1412.19,-159.486 1413.07,-152.541"/>
</g>
<!-- Node34 -->
<g id="node34" class="node"><title>Node34</title>
<polygon fill="none" stroke="#bfbfbf" points="1421,-136.5 1421,-155.5 1501,-155.5 1501,-136.5 1421,-136.5"/>
<text text-anchor="middle" x="1461" y="-143.5" font-family="Helvetica,sans-Serif" font-size="10.00">FairMQParts.h</text>
</g>
<!-- Node19&#45;&gt;Node34 -->
<g id="edge41" class="edge"><title>Node19&#45;&gt;Node34</title>
<path fill="none" stroke="midnightblue" d="M1861.28,-200.095C1779.15,-191.203 1634.39,-174.653 1511,-156 1510.9,-155.985 1510.8,-155.969 1510.7,-155.954"/>
<polygon fill="midnightblue" stroke="midnightblue" points="1511.51,-152.54 1501.08,-154.419 1510.41,-159.452 1511.51,-152.54"/>
</g>
<!-- Node35 -->
<g id="node35" class="node"><title>Node35</title>
<polygon fill="none" stroke="#bfbfbf" points="1519.5,-136.5 1519.5,-155.5 1590.5,-155.5 1590.5,-136.5 1519.5,-136.5"/>
<text text-anchor="middle" x="1555" y="-143.5" font-family="Helvetica,sans-Serif" font-size="10.00">TMessage.h</text>
</g>
<!-- Node19&#45;&gt;Node35 -->
<g id="edge42" class="edge"><title>Node19&#45;&gt;Node35</title>
<path fill="none" stroke="midnightblue" d="M1870.81,-198.466C1806.5,-188.615 1698.06,-171.743 1605,-156 1603.56,-155.756 1602.1,-155.507 1600.62,-155.252"/>
<polygon fill="midnightblue" stroke="midnightblue" points="1601.22,-151.804 1590.76,-153.532 1600.01,-158.699 1601.22,-151.804"/>
</g>
<!-- Node26&#45;&gt;Node3 -->
<g id="edge30" class="edge"><title>Node26&#45;&gt;Node3</title>
<path fill="none" stroke="midnightblue" d="M2425.21,-139.003C2409.22,-137.932 2392.59,-136.879 2377,-136 1938.2,-111.251 1405.13,-91.556 1259.39,-86.3516"/>
<polygon fill="midnightblue" stroke="midnightblue" points="1259.3,-82.8463 1249.18,-85.9882 1259.05,-89.8418 1259.3,-82.8463"/>
</g>
<!-- Node26&#45;&gt;Node20 -->
<g id="edge31" class="edge"><title>Node26&#45;&gt;Node20</title>
<path fill="none" stroke="midnightblue" d="M2494.53,-136.403C2479.32,-126.691 2454.31,-110.732 2436.2,-99.1697"/>
<polygon fill="midnightblue" stroke="midnightblue" points="2437.76,-96.0108 2427.44,-93.5806 2433.99,-101.911 2437.76,-96.0108"/>
</g>
<!-- Node26&#45;&gt;Node22 -->
<g id="edge33" class="edge"><title>Node26&#45;&gt;Node22</title>
<path fill="none" stroke="midnightblue" d="M2522.76,-136.403C2539.66,-126.557 2567.58,-110.291 2587.49,-98.6949"/>
<polygon fill="midnightblue" stroke="midnightblue" points="2589.39,-101.638 2596.27,-93.5806 2585.87,-95.5898 2589.39,-101.638"/>
</g>
<!-- Node27 -->
<g id="node27" class="node"><title>Node27</title>
<polygon fill="none" stroke="#bfbfbf" points="2466.5,-74.5 2466.5,-93.5 2549.5,-93.5 2549.5,-74.5 2466.5,-74.5"/>
<text text-anchor="middle" x="2508" y="-81.5" font-family="Helvetica,sans-Serif" font-size="10.00">unordered_map</text>
</g>
<!-- Node26&#45;&gt;Node27 -->
<g id="edge32" class="edge"><title>Node26&#45;&gt;Node27</title>
<path fill="none" stroke="midnightblue" d="M2508,-136.403C2508,-127.938 2508,-114.728 2508,-103.82"/>
<polygon fill="midnightblue" stroke="midnightblue" points="2511.5,-103.581 2508,-93.5806 2504.5,-103.581 2511.5,-103.581"/>
</g>
<!-- Node36&#45;&gt;Node3 -->
<g id="edge44" class="edge"><title>Node36&#45;&gt;Node3</title>
<path fill="none" stroke="midnightblue" d="M972.255,-198.282C957.418,-183.974 932.538,-155.189 949,-136 983.257,-96.0695 1132.22,-113.744 1183,-100 1185.98,-99.1923 1189.05,-98.2247 1192.09,-97.175"/>
<polygon fill="midnightblue" stroke="midnightblue" points="1193.42,-100.417 1201.56,-93.6382 1190.97,-93.8598 1193.42,-100.417"/>
</g>
<!-- Node37 -->
<g id="node37" class="node"><title>Node37</title>
<polygon fill="none" stroke="#bfbfbf" points="957.5,-136.5 957.5,-155.5 1022.5,-155.5 1022.5,-136.5 957.5,-136.5"/>
<text text-anchor="middle" x="990" y="-143.5" font-family="Helvetica,sans-Serif" font-size="10.00">TVector3.h</text>
</g>
<!-- Node36&#45;&gt;Node37 -->
<g id="edge45" class="edge"><title>Node36&#45;&gt;Node37</title>
<path fill="none" stroke="midnightblue" d="M983.146,-198.403C984.275,-189.938 986.036,-176.728 987.491,-165.82"/>
<polygon fill="midnightblue" stroke="midnightblue" points="991.003,-165.955 988.856,-155.581 984.065,-165.03 991.003,-165.955"/>
</g>
<!-- Node38&#45;&gt;Node4 -->
<g id="edge47" class="edge"><title>Node38&#45;&gt;Node4</title>
<path fill="none" stroke="midnightblue" d="M1026.84,-316.281C1041.93,-297.041 1078.31,-250.677 1097.93,-225.664"/>
<polygon fill="midnightblue" stroke="midnightblue" points="1100.91,-227.533 1104.33,-217.505 1095.4,-223.212 1100.91,-227.533"/>
</g>
<!-- Node38&#45;&gt;Node7 -->
<g id="edge48" class="edge"><title>Node38&#45;&gt;Node7</title>
<path fill="none" stroke="midnightblue" d="M1013.73,-316.083C1008.36,-308.455 1000.48,-297.264 993.921,-287.941"/>
<polygon fill="midnightblue" stroke="midnightblue" points="996.775,-285.915 988.158,-279.751 991.051,-289.943 996.775,-285.915"/>
</g>
</g>
</svg>
