<?xml version="1.0" encoding="UTF-8" standalone="no"?>
<!DOCTYPE svg PUBLIC "-//W3C//DTD SVG 1.1//EN"
 "http://www.w3.org/Graphics/SVG/1.1/DTD/svg11.dtd">
<!-- Generated by graphviz version 2.36.0 (20140111.2315)
 -->
<!-- Title: /home/travis/build/AliceO2Group/AliceO2/Framework/Core/include/Framework/ConfigParamsHelper.h Pages: 1 -->
<svg width="598pt" height="230pt"
 viewBox="0.00 0.00 598.00 230.00" xmlns="http://www.w3.org/2000/svg" xmlns:xlink="http://www.w3.org/1999/xlink">
<g id="graph0" class="graph" transform="scale(1 1) rotate(0) translate(4 226)">
<title>/home/travis/build/AliceO2Group/AliceO2/Framework/Core/include/Framework/ConfigParamsHelper.h</title>
<!-- Node1 -->
<g id="node1" class="node"><title>Node1</title>
<polygon fill="#bfbfbf" stroke="black" points="281,-169 281,-221 451,-221 451,-169 281,-169"/>
<text text-anchor="start" x="289" y="-209" font-family="Helvetica,sans-Serif" font-size="10.00">/home/travis/build</text>
<text text-anchor="start" x="289" y="-198" font-family="Helvetica,sans-Serif" font-size="10.00">/AliceO2Group/AliceO2</text>
<text text-anchor="start" x="289" y="-187" font-family="Helvetica,sans-Serif" font-size="10.00">/Framework/Core/include</text>
<text text-anchor="middle" x="366" y="-176" font-family="Helvetica,sans-Serif" font-size="10.00">/Framework/ConfigParamsHelper.h</text>
</g>
<!-- Node2 -->
<g id="node2" class="node"><title>Node2</title>
<g id="a_node2"><a xlink:href="../../d0/d1c/ConfigParamSpec_8h.html" target="_top" xlink:title="Framework/ConfigParamSpec.h">
<polygon fill="none" stroke="black" points="182,-112.5 182,-131.5 338,-131.5 338,-112.5 182,-112.5"/>
<text text-anchor="middle" x="260" y="-119.5" font-family="Helvetica,sans-Serif" font-size="10.00">Framework/ConfigParamSpec.h</text>
</a>
</g>
</g>
<!-- Node1&#45;&gt;Node2 -->
<g id="edge1" class="edge"><title>Node1&#45;&gt;Node2</title>
<path fill="none" stroke="midnightblue" d="M328.628,-168.968C312.84,-158.393 295.02,-146.457 281.496,-137.398"/>
<polygon fill="midnightblue" stroke="midnightblue" points="283.154,-134.296 272.897,-131.639 279.258,-140.112 283.154,-134.296"/>
</g>
<!-- Node3 -->
<g id="node3" class="node"><title>Node3</title>
<polygon fill="none" stroke="#bfbfbf" points="136.5,-56.5 136.5,-75.5 177.5,-75.5 177.5,-56.5 136.5,-56.5"/>
<text text-anchor="middle" x="157" y="-63.5" font-family="Helvetica,sans-Serif" font-size="10.00">string</text>
</g>
<!-- Node1&#45;&gt;Node3 -->
<g id="edge12" class="edge"><title>Node1&#45;&gt;Node3</title>
<path fill="none" stroke="midnightblue" d="M280.954,-185.437C243.085,-177.381 200.847,-161.852 173,-132 161.491,-119.662 157.89,-100.411 156.929,-86.0579"/>
<polygon fill="midnightblue" stroke="midnightblue" points="160.42,-85.7132 156.624,-75.822 153.423,-85.9219 160.42,-85.7132"/>
</g>
<!-- Node5 -->
<g id="node5" class="node"><title>Node5</title>
<polygon fill="none" stroke="#bfbfbf" points="423,-0.5 423,-19.5 485,-19.5 485,-0.5 423,-0.5"/>
<text text-anchor="middle" x="454" y="-7.5" font-family="Helvetica,sans-Serif" font-size="10.00">type_traits</text>
</g>
<!-- Node1&#45;&gt;Node5 -->
<g id="edge14" class="edge"><title>Node1&#45;&gt;Node5</title>
<path fill="none" stroke="midnightblue" d="M369.346,-168.835C372.151,-152.204 377.014,-130.199 385,-112 399.282,-79.4536 424.382,-46.2935 440.05,-27.2332"/>
<polygon fill="midnightblue" stroke="midnightblue" points="442.773,-29.4336 446.513,-19.5209 437.407,-24.9377 442.773,-29.4336"/>
</g>
<!-- Node12 -->
<g id="node12" class="node"><title>Node12</title>
<polygon fill="none" stroke="#bfbfbf" points="394,-112.5 394,-131.5 528,-131.5 528,-112.5 394,-112.5"/>
<text text-anchor="middle" x="461" y="-119.5" font-family="Helvetica,sans-Serif" font-size="10.00">boost/program_options.hpp</text>
</g>
<!-- Node1&#45;&gt;Node12 -->
<g id="edge11" class="edge"><title>Node1&#45;&gt;Node12</title>
<path fill="none" stroke="midnightblue" d="M399.493,-168.968C413.421,-158.559 429.113,-146.831 441.161,-137.827"/>
<polygon fill="midnightblue" stroke="midnightblue" points="443.298,-140.6 449.213,-131.81 439.107,-134.993 443.298,-140.6"/>
</g>
<!-- Node13 -->
<g id="node13" class="node"><title>Node13</title>
<polygon fill="none" stroke="#bfbfbf" points="546,-112.5 546,-131.5 590,-131.5 590,-112.5 546,-112.5"/>
<text text-anchor="middle" x="568" y="-119.5" font-family="Helvetica,sans-Serif" font-size="10.00">vector</text>
</g>
<!-- Node1&#45;&gt;Node13 -->
<g id="edge13" class="edge"><title>Node1&#45;&gt;Node13</title>
<path fill="none" stroke="midnightblue" d="M437.218,-168.968C471.06,-157.073 509.801,-143.456 536.28,-134.149"/>
<polygon fill="midnightblue" stroke="midnightblue" points="537.519,-137.424 545.793,-130.806 535.198,-130.82 537.519,-137.424"/>
</g>
<!-- Node2&#45;&gt;Node3 -->
<g id="edge2" class="edge"><title>Node2&#45;&gt;Node3</title>
<path fill="none" stroke="midnightblue" d="M243.451,-112.324C227.008,-103.703 201.565,-90.3643 182.532,-80.3855"/>
<polygon fill="midnightblue" stroke="midnightblue" points="183.989,-77.198 173.508,-75.6545 180.739,-83.3977 183.989,-77.198"/>
</g>
<!-- Node4 -->
<g id="node4" class="node"><title>Node4</title>
<g id="a_node4"><a xlink:href="../../de/d56/Variant_8h.html" target="_top" xlink:title="Framework/Variant.h">
<polygon fill="none" stroke="black" points="202.5,-56.5 202.5,-75.5 309.5,-75.5 309.5,-56.5 202.5,-56.5"/>
<text text-anchor="middle" x="256" y="-63.5" font-family="Helvetica,sans-Serif" font-size="10.00">Framework/Variant.h</text>
</a>
</g>
</g>
<!-- Node2&#45;&gt;Node4 -->
<g id="edge3" class="edge"><title>Node2&#45;&gt;Node4</title>
<path fill="none" stroke="midnightblue" d="M259.339,-112.083C258.815,-105.006 258.064,-94.8611 257.406,-85.9865"/>
<polygon fill="midnightblue" stroke="midnightblue" points="260.877,-85.4652 256.648,-75.7511 253.897,-85.9823 260.877,-85.4652"/>
</g>
<!-- Node4&#45;&gt;Node5 -->
<g id="edge4" class="edge"><title>Node4&#45;&gt;Node5</title>
<path fill="none" stroke="midnightblue" d="M287.374,-56.4435C321.263,-47.2011 375.403,-32.4356 412.724,-22.2572"/>
<polygon fill="midnightblue" stroke="midnightblue" points="414.046,-25.5243 422.773,-19.5164 412.205,-18.771 414.046,-25.5243"/>
</g>
<!-- Node6 -->
<g id="node6" class="node"><title>Node6</title>
<polygon fill="none" stroke="#bfbfbf" points="0,-0.5 0,-19.5 46,-19.5 46,-0.5 0,-0.5"/>
<text text-anchor="middle" x="23" y="-7.5" font-family="Helvetica,sans-Serif" font-size="10.00">cstring</text>
</g>
<!-- Node4&#45;&gt;Node6 -->
<g id="edge5" class="edge"><title>Node4&#45;&gt;Node6</title>
<path fill="none" stroke="midnightblue" d="M214.656,-56.4252C175.98,-48.2518 116.392,-35.2718 55.7679,-20.0926"/>
<polygon fill="midnightblue" stroke="midnightblue" points="56.5846,-16.689 46.0323,-17.6379 54.8731,-23.4766 56.5846,-16.689"/>
</g>
<!-- Node7 -->
<g id="node7" class="node"><title>Node7</title>
<polygon fill="none" stroke="#bfbfbf" points="64,-0.5 64,-19.5 110,-19.5 110,-0.5 64,-0.5"/>
<text text-anchor="middle" x="87" y="-7.5" font-family="Helvetica,sans-Serif" font-size="10.00">cstdint</text>
</g>
<!-- Node4&#45;&gt;Node7 -->
<g id="edge6" class="edge"><title>Node4&#45;&gt;Node7</title>
<path fill="none" stroke="midnightblue" d="M229.221,-56.4435C199.575,-46.9707 151.771,-31.6961 119.876,-21.5048"/>
<polygon fill="midnightblue" stroke="midnightblue" points="120.714,-18.0982 110.123,-18.3884 118.583,-24.7661 120.714,-18.0982"/>
</g>
<!-- Node8 -->
<g id="node8" class="node"><title>Node8</title>
<polygon fill="none" stroke="#bfbfbf" points="128.5,-0.5 128.5,-19.5 173.5,-19.5 173.5,-0.5 128.5,-0.5"/>
<text text-anchor="middle" x="151" y="-7.5" font-family="Helvetica,sans-Serif" font-size="10.00">cstdlib</text>
</g>
<!-- Node4&#45;&gt;Node8 -->
<g id="edge7" class="edge"><title>Node4&#45;&gt;Node8</title>
<path fill="none" stroke="midnightblue" d="M239.13,-56.324C222.291,-47.6641 196.193,-34.2424 176.762,-24.249"/>
<polygon fill="midnightblue" stroke="midnightblue" points="178.322,-21.1155 167.828,-19.6545 175.12,-27.3405 178.322,-21.1155"/>
</g>
<!-- Node9 -->
<g id="node9" class="node"><title>Node9</title>
<polygon fill="none" stroke="#bfbfbf" points="191.5,-0.5 191.5,-19.5 250.5,-19.5 250.5,-0.5 191.5,-0.5"/>
<text text-anchor="middle" x="221" y="-7.5" font-family="Helvetica,sans-Serif" font-size="10.00">stdexcept</text>
</g>
<!-- Node4&#45;&gt;Node9 -->
<g id="edge8" class="edge"><title>Node4&#45;&gt;Node9</title>
<path fill="none" stroke="midnightblue" d="M250.22,-56.083C245.328,-48.5341 238.173,-37.4948 232.167,-28.2298"/>
<polygon fill="midnightblue" stroke="midnightblue" points="235.048,-26.239 226.672,-19.7511 229.174,-30.0463 235.048,-26.239"/>
</g>
<!-- Node10 -->
<g id="node10" class="node"><title>Node10</title>
<polygon fill="none" stroke="#bfbfbf" points="268.5,-0.5 268.5,-19.5 313.5,-19.5 313.5,-0.5 268.5,-0.5"/>
<text text-anchor="middle" x="291" y="-7.5" font-family="Helvetica,sans-Serif" font-size="10.00">iosfwd</text>
</g>
<!-- Node4&#45;&gt;Node10 -->
<g id="edge9" class="edge"><title>Node4&#45;&gt;Node10</title>
<path fill="none" stroke="midnightblue" d="M261.78,-56.083C266.672,-48.5341 273.827,-37.4948 279.833,-28.2298"/>
<polygon fill="midnightblue" stroke="midnightblue" points="282.826,-30.0463 285.328,-19.7511 276.952,-26.239 282.826,-30.0463"/>
</g>
<!-- Node11 -->
<g id="node11" class="node"><title>Node11</title>
<polygon fill="none" stroke="#bfbfbf" points="331.5,-0.5 331.5,-19.5 404.5,-19.5 404.5,-0.5 331.5,-0.5"/>
<text text-anchor="middle" x="368" y="-7.5" font-family="Helvetica,sans-Serif" font-size="10.00">initializer_list</text>
</g>
<!-- Node4&#45;&gt;Node11 -->
<g id="edge10" class="edge"><title>Node4&#45;&gt;Node11</title>
<path fill="none" stroke="midnightblue" d="M273.995,-56.324C292.038,-47.6247 320.047,-34.1202 340.803,-24.113"/>
<polygon fill="midnightblue" stroke="midnightblue" points="342.562,-27.1502 350.05,-19.6545 339.522,-20.8449 342.562,-27.1502"/>
</g>
</g>
</svg>
