<?xml version="1.0" encoding="UTF-8" standalone="no"?>
<!DOCTYPE svg PUBLIC "-//W3C//DTD SVG 1.1//EN"
 "http://www.w3.org/Graphics/SVG/1.1/DTD/svg11.dtd">
<!-- Generated by graphviz version 2.36.0 (20140111.2315)
 -->
<!-- Title: /home/travis/build/AliceO2Group/AliceO2/Utilities/DataFlow/src/TimeframeParser.cxx Pages: 1 -->
<svg width="1439pt" height="354pt"
 viewBox="0.00 0.00 1439.00 354.00" xmlns="http://www.w3.org/2000/svg" xmlns:xlink="http://www.w3.org/1999/xlink">
<g id="graph0" class="graph" transform="scale(1 1) rotate(0) translate(4 350)">
<title>/home/travis/build/AliceO2Group/AliceO2/Utilities/DataFlow/src/TimeframeParser.cxx</title>
<!-- Node1 -->
<g id="node1" class="node"><title>Node1</title>
<polygon fill="#bfbfbf" stroke="black" points="633,-293 633,-345 751,-345 751,-293 633,-293"/>
<text text-anchor="start" x="641" y="-333" font-family="Helvetica,sans-Serif" font-size="10.00">/home/travis/build</text>
<text text-anchor="start" x="641" y="-322" font-family="Helvetica,sans-Serif" font-size="10.00">/AliceO2Group/AliceO2</text>
<text text-anchor="start" x="641" y="-311" font-family="Helvetica,sans-Serif" font-size="10.00">/Utilities/DataFlow/src</text>
<text text-anchor="middle" x="692" y="-300" font-family="Helvetica,sans-Serif" font-size="10.00">/TimeframeParser.cxx</text>
</g>
<!-- Node2 -->
<g id="node2" class="node"><title>Node2</title>
<polygon fill="none" stroke="#bfbfbf" points="280,-236.5 280,-255.5 324,-255.5 324,-236.5 280,-236.5"/>
<text text-anchor="middle" x="302" y="-243.5" font-family="Helvetica,sans-Serif" font-size="10.00">thread</text>
</g>
<!-- Node1&#45;&gt;Node2 -->
<g id="edge1" class="edge"><title>Node1&#45;&gt;Node2</title>
<path fill="none" stroke="midnightblue" d="M632.873,-308.972C562.383,-297.903 441.147,-277.897 338,-256 336.724,-255.729 335.424,-255.445 334.113,-255.151"/>
<polygon fill="midnightblue" stroke="midnightblue" points="334.563,-251.661 324.027,-252.772 332.956,-258.474 334.563,-251.661"/>
</g>
<!-- Node3 -->
<g id="node3" class="node"><title>Node3</title>
<polygon fill="none" stroke="#bfbfbf" points="341,-124.5 341,-143.5 387,-143.5 387,-124.5 341,-124.5"/>
<text text-anchor="middle" x="364" y="-131.5" font-family="Helvetica,sans-Serif" font-size="10.00">chrono</text>
</g>
<!-- Node1&#45;&gt;Node3 -->
<g id="edge2" class="edge"><title>Node1&#45;&gt;Node3</title>
<path fill="none" stroke="midnightblue" d="M632.99,-304.762C571.482,-288.553 475.028,-256.088 409,-200 393.512,-186.844 380.886,-167.162 372.993,-152.905"/>
<polygon fill="midnightblue" stroke="midnightblue" points="375.873,-150.862 368.109,-143.653 369.682,-154.13 375.873,-150.862"/>
</g>
<!-- Node4 -->
<g id="node4" class="node"><title>Node4</title>
<polygon fill="none" stroke="#bfbfbf" points="1204,-6.5 1204,-25.5 1250,-25.5 1250,-6.5 1204,-6.5"/>
<text text-anchor="middle" x="1227" y="-13.5" font-family="Helvetica,sans-Serif" font-size="10.00">cstring</text>
</g>
<!-- Node1&#45;&gt;Node4 -->
<g id="edge3" class="edge"><title>Node1&#45;&gt;Node4</title>
<path fill="none" stroke="midnightblue" d="M751.169,-311.725C862.714,-298.244 1093,-261.835 1093,-191 1093,-191 1093,-191 1093,-133 1093,-104.067 1165.32,-55.0422 1203.7,-31.0595"/>
<polygon fill="midnightblue" stroke="midnightblue" points="1205.99,-33.7591 1212.66,-25.5292 1202.31,-27.8019 1205.99,-33.7591"/>
</g>
<!-- Node5 -->
<g id="node5" class="node"><title>Node5</title>
<g id="a_node5"><a xlink:href="../../dd/ddb/TimeframeParser_8h.html" target="_top" xlink:title="DataFlow/TimeframeParser.h">
<polygon fill="none" stroke="black" points="1121.5,-236.5 1121.5,-255.5 1266.5,-255.5 1266.5,-236.5 1121.5,-236.5"/>
<text text-anchor="middle" x="1194" y="-243.5" font-family="Helvetica,sans-Serif" font-size="10.00">DataFlow/TimeframeParser.h</text>
</a>
</g>
</g>
<!-- Node1&#45;&gt;Node5 -->
<g id="edge4" class="edge"><title>Node1&#45;&gt;Node5</title>
<path fill="none" stroke="midnightblue" d="M751.062,-309.647C844.025,-296.498 1024.12,-271.027 1123.64,-256.951"/>
<polygon fill="midnightblue" stroke="midnightblue" points="1124.19,-260.408 1133.6,-255.542 1123.21,-253.477 1124.19,-260.408"/>
</g>
<!-- Node8 -->
<g id="node8" class="node"><title>Node8</title>
<g id="a_node8"><a xlink:href="../../d2/d1b/SubframeMetadata_8h.html" target="_top" xlink:title="Headers/SubframeMetadata.h">
<polygon fill="none" stroke="black" points="118.5,-124.5 118.5,-143.5 265.5,-143.5 265.5,-124.5 118.5,-124.5"/>
<text text-anchor="middle" x="192" y="-131.5" font-family="Helvetica,sans-Serif" font-size="10.00">Headers/SubframeMetadata.h</text>
</a>
</g>
</g>
<!-- Node1&#45;&gt;Node8 -->
<g id="edge7" class="edge"><title>Node1&#45;&gt;Node8</title>
<path fill="none" stroke="midnightblue" d="M632.768,-305.1C585.177,-294.055 516.953,-276.682 459,-256 367.713,-223.422 264.476,-172.347 217.595,-148.328"/>
<polygon fill="midnightblue" stroke="midnightblue" points="218.963,-145.096 208.471,-143.63 215.759,-151.32 218.963,-145.096"/>
</g>
<!-- Node10 -->
<g id="node10" class="node"><title>Node10</title>
<g id="a_node10"><a xlink:href="../../dc/dcd/DataHeader_8h.html" target="_top" xlink:title="Headers/DataHeader.h">
<polygon fill="none" stroke="black" points="712.5,-124.5 712.5,-143.5 829.5,-143.5 829.5,-124.5 712.5,-124.5"/>
<text text-anchor="middle" x="771" y="-131.5" font-family="Helvetica,sans-Serif" font-size="10.00">Headers/DataHeader.h</text>
</a>
</g>
</g>
<!-- Node1&#45;&gt;Node10 -->
<g id="edge9" class="edge"><title>Node1&#45;&gt;Node10</title>
<path fill="none" stroke="midnightblue" d="M702.819,-292.938C718.987,-255.487 749.063,-185.816 763.234,-152.99"/>
<polygon fill="midnightblue" stroke="midnightblue" points="766.488,-154.283 767.238,-143.715 760.061,-151.509 766.488,-154.283"/>
</g>
<!-- Node27 -->
<g id="node27" class="node"><title>Node27</title>
<g id="a_node27"><a xlink:href="../../de/dfa/TimeFrame_8h.html" target="_top" xlink:title="TimeFrame/TimeFrame.h">
<polygon fill="none" stroke="black" points="536.5,-236.5 536.5,-255.5 663.5,-255.5 663.5,-236.5 536.5,-236.5"/>
<text text-anchor="middle" x="600" y="-243.5" font-family="Helvetica,sans-Serif" font-size="10.00">TimeFrame/TimeFrame.h</text>
</a>
</g>
</g>
<!-- Node1&#45;&gt;Node27 -->
<g id="edge30" class="edge"><title>Node1&#45;&gt;Node27</title>
<path fill="none" stroke="midnightblue" d="M659.564,-292.968C646.207,-282.66 631.175,-271.059 619.553,-262.09"/>
<polygon fill="midnightblue" stroke="midnightblue" points="621.47,-259.148 611.415,-255.81 617.193,-264.69 621.47,-259.148"/>
</g>
<!-- Node28 -->
<g id="node28" class="node"><title>Node28</title>
<polygon fill="none" stroke="#bfbfbf" points="650,-180.5 650,-199.5 730,-199.5 730,-180.5 650,-180.5"/>
<text text-anchor="middle" x="690" y="-187.5" font-family="Helvetica,sans-Serif" font-size="10.00">FairMQParts.h</text>
</g>
<!-- Node1&#45;&gt;Node28 -->
<g id="edge39" class="edge"><title>Node1&#45;&gt;Node28</title>
<path fill="none" stroke="midnightblue" d="M691.605,-292.909C691.219,-268.409 690.641,-231.69 690.294,-209.664"/>
<polygon fill="midnightblue" stroke="midnightblue" points="693.793,-209.571 690.136,-199.628 686.794,-209.682 693.793,-209.571"/>
</g>
<!-- Node31 -->
<g id="node31" class="node"><title>Node31</title>
<polygon fill="none" stroke="#bfbfbf" points="1285,-236.5 1285,-255.5 1431,-255.5 1431,-236.5 1285,-236.5"/>
<text text-anchor="middle" x="1358" y="-243.5" font-family="Helvetica,sans-Serif" font-size="10.00">options/FairMQProgOptions.h</text>
</g>
<!-- Node1&#45;&gt;Node31 -->
<g id="edge38" class="edge"><title>Node1&#45;&gt;Node31</title>
<path fill="none" stroke="midnightblue" d="M751.175,-311.748C854.761,-300.794 1075.97,-277.363 1274.64,-256.037"/>
<polygon fill="midnightblue" stroke="midnightblue" points="1275.11,-259.506 1284.68,-254.959 1274.36,-252.546 1275.11,-259.506"/>
</g>
<!-- Node6 -->
<g id="node6" class="node"><title>Node6</title>
<polygon fill="none" stroke="#bfbfbf" points="1146.5,-180.5 1146.5,-199.5 1191.5,-199.5 1191.5,-180.5 1146.5,-180.5"/>
<text text-anchor="middle" x="1169" y="-187.5" font-family="Helvetica,sans-Serif" font-size="10.00">iosfwd</text>
</g>
<!-- Node5&#45;&gt;Node6 -->
<g id="edge5" class="edge"><title>Node5&#45;&gt;Node6</title>
<path fill="none" stroke="midnightblue" d="M1189.87,-236.083C1186.49,-228.77 1181.58,-218.181 1177.38,-209.103"/>
<polygon fill="midnightblue" stroke="midnightblue" points="1180.43,-207.355 1173.05,-199.751 1174.08,-210.296 1180.43,-207.355"/>
</g>
<!-- Node7 -->
<g id="node7" class="node"><title>Node7</title>
<polygon fill="none" stroke="#bfbfbf" points="1209.5,-180.5 1209.5,-199.5 1268.5,-199.5 1268.5,-180.5 1209.5,-180.5"/>
<text text-anchor="middle" x="1239" y="-187.5" font-family="Helvetica,sans-Serif" font-size="10.00">functional</text>
</g>
<!-- Node5&#45;&gt;Node7 -->
<g id="edge6" class="edge"><title>Node5&#45;&gt;Node7</title>
<path fill="none" stroke="midnightblue" d="M1201.43,-236.083C1207.85,-228.377 1217.31,-217.033 1225.12,-207.653"/>
<polygon fill="midnightblue" stroke="midnightblue" points="1227.99,-209.674 1231.71,-199.751 1222.62,-205.193 1227.99,-209.674"/>
</g>
<!-- Node9 -->
<g id="node9" class="node"><title>Node9</title>
<polygon fill="none" stroke="#bfbfbf" points="0,-6.5 0,-25.5 44,-25.5 44,-6.5 0,-6.5"/>
<text text-anchor="middle" x="22" y="-13.5" font-family="Helvetica,sans-Serif" font-size="10.00">vector</text>
</g>
<!-- Node8&#45;&gt;Node9 -->
<g id="edge8" class="edge"><title>Node8&#45;&gt;Node9</title>
<path fill="none" stroke="midnightblue" d="M179.499,-124.47C150.64,-104.778 79.1029,-55.9643 43.2265,-31.484"/>
<polygon fill="midnightblue" stroke="midnightblue" points="44.7518,-28.2876 34.5188,-25.5423 40.8063,-34.0698 44.7518,-28.2876"/>
</g>
<!-- Node10&#45;&gt;Node4 -->
<g id="edge13" class="edge"><title>Node10&#45;&gt;Node4</title>
<path fill="none" stroke="midnightblue" d="M829.682,-127.386C883.857,-121.178 966.104,-109.141 1035,-88 1055.54,-81.6985 1058.93,-75.6677 1079,-68 1129.03,-48.8827 1143.97,-51.1173 1194,-32 1195.9,-31.2755 1197.84,-30.4956 1199.78,-29.6855"/>
<polygon fill="midnightblue" stroke="midnightblue" points="1201.6,-32.7135 1209.36,-25.5031 1198.79,-26.2988 1201.6,-32.7135"/>
</g>
<!-- Node11 -->
<g id="node11" class="node"><title>Node11</title>
<polygon fill="none" stroke="#bfbfbf" points="837,-68.5 837,-87.5 883,-87.5 883,-68.5 837,-68.5"/>
<text text-anchor="middle" x="860" y="-75.5" font-family="Helvetica,sans-Serif" font-size="10.00">cstdint</text>
</g>
<!-- Node10&#45;&gt;Node11 -->
<g id="edge10" class="edge"><title>Node10&#45;&gt;Node11</title>
<path fill="none" stroke="midnightblue" d="M785.299,-124.324C799.183,-115.9 820.492,-102.971 836.804,-93.0741"/>
<polygon fill="midnightblue" stroke="midnightblue" points="839.002,-95.8341 845.736,-87.6545 835.371,-89.8495 839.002,-95.8341"/>
</g>
<!-- Node12 -->
<g id="node12" class="node"><title>Node12</title>
<polygon fill="none" stroke="#bfbfbf" points="901,-68.5 901,-87.5 953,-87.5 953,-68.5 901,-68.5"/>
<text text-anchor="middle" x="927" y="-75.5" font-family="Helvetica,sans-Serif" font-size="10.00">memory</text>
</g>
<!-- Node10&#45;&gt;Node12 -->
<g id="edge11" class="edge"><title>Node10&#45;&gt;Node12</title>
<path fill="none" stroke="midnightblue" d="M795.719,-124.444C821.848,-115.399 863.259,-101.064 892.576,-90.9158"/>
<polygon fill="midnightblue" stroke="midnightblue" points="894.092,-94.0951 902.397,-87.5164 891.802,-87.4801 894.092,-94.0951"/>
</g>
<!-- Node13 -->
<g id="node13" class="node"><title>Node13</title>
<polygon fill="none" stroke="#bfbfbf" points="443.5,-68.5 443.5,-87.5 492.5,-87.5 492.5,-68.5 443.5,-68.5"/>
<text text-anchor="middle" x="468" y="-75.5" font-family="Helvetica,sans-Serif" font-size="10.00">cassert</text>
</g>
<!-- Node10&#45;&gt;Node13 -->
<g id="edge12" class="edge"><title>Node10&#45;&gt;Node13</title>
<path fill="none" stroke="midnightblue" d="M712.475,-124.99C659.818,-117.389 580.163,-104.917 502.722,-88.2182"/>
<polygon fill="midnightblue" stroke="midnightblue" points="503.316,-84.7656 492.8,-86.0524 501.823,-91.6046 503.316,-84.7656"/>
</g>
<!-- Node14 -->
<g id="node14" class="node"><title>Node14</title>
<polygon fill="none" stroke="#bfbfbf" points="971,-68.5 971,-87.5 1027,-87.5 1027,-68.5 971,-68.5"/>
<text text-anchor="middle" x="999" y="-75.5" font-family="Helvetica,sans-Serif" font-size="10.00">algorithm</text>
</g>
<!-- Node10&#45;&gt;Node14 -->
<g id="edge14" class="edge"><title>Node10&#45;&gt;Node14</title>
<path fill="none" stroke="midnightblue" d="M807.635,-124.452C844.07,-115.932 901.83,-102.375 960.857,-88.2619"/>
<polygon fill="midnightblue" stroke="midnightblue" points="961.813,-91.632 970.723,-85.9004 960.183,-84.8243 961.813,-91.632"/>
</g>
<!-- Node15 -->
<g id="node15" class="node"><title>Node15</title>
<polygon fill="none" stroke="#bfbfbf" points="510.5,-68.5 510.5,-87.5 569.5,-87.5 569.5,-68.5 510.5,-68.5"/>
<text text-anchor="middle" x="540" y="-75.5" font-family="Helvetica,sans-Serif" font-size="10.00">stdexcept</text>
</g>
<!-- Node10&#45;&gt;Node15 -->
<g id="edge15" class="edge"><title>Node10&#45;&gt;Node15</title>
<path fill="none" stroke="midnightblue" d="M734.351,-124.495C697.57,-115.95 639.014,-102.323 579.766,-88.41"/>
<polygon fill="midnightblue" stroke="midnightblue" points="580.404,-84.9646 569.868,-86.0845 578.803,-91.779 580.404,-84.9646"/>
</g>
<!-- Node16 -->
<g id="node16" class="node"><title>Node16</title>
<polygon fill="none" stroke="#bfbfbf" points="1144.5,-6.5 1144.5,-25.5 1185.5,-25.5 1185.5,-6.5 1144.5,-6.5"/>
<text text-anchor="middle" x="1165" y="-13.5" font-family="Helvetica,sans-Serif" font-size="10.00">string</text>
</g>
<!-- Node10&#45;&gt;Node16 -->
<g id="edge16" class="edge"><title>Node10&#45;&gt;Node16</title>
<path fill="none" stroke="midnightblue" d="M775.641,-124.456C783.99,-110.028 803.021,-81.1252 828,-68 949.613,-4.09794 1003.36,-71.3088 1135,-32 1136.97,-31.4127 1138.96,-30.7027 1140.94,-29.915"/>
<polygon fill="midnightblue" stroke="midnightblue" points="1142.84,-32.8925 1150.46,-25.5364 1139.92,-26.5319 1142.84,-32.8925"/>
</g>
<!-- Node17 -->
<g id="node17" class="node"><title>Node17</title>
<g id="a_node17"><a xlink:href="../../dc/d03/MemoryResources_8h.html" target="_top" xlink:title="MemoryResources/MemoryResources.h">
<polygon fill="none" stroke="black" points="587.5,-68.5 587.5,-87.5 780.5,-87.5 780.5,-68.5 587.5,-68.5"/>
<text text-anchor="middle" x="684" y="-75.5" font-family="Helvetica,sans-Serif" font-size="10.00">MemoryResources/MemoryResources.h</text>
</a>
</g>
</g>
<!-- Node10&#45;&gt;Node17 -->
<g id="edge17" class="edge"><title>Node10&#45;&gt;Node17</title>
<path fill="none" stroke="midnightblue" d="M757.022,-124.324C743.45,-115.9 722.62,-102.971 706.675,-93.0741"/>
<polygon fill="midnightblue" stroke="midnightblue" points="708.286,-89.9544 697.943,-87.6545 704.594,-95.9019 708.286,-89.9544"/>
</g>
<!-- Node17&#45;&gt;Node4 -->
<g id="edge22" class="edge"><title>Node17&#45;&gt;Node4</title>
<path fill="none" stroke="midnightblue" d="M780.507,-70.2504C917.252,-60.417 1155.18,-42.2145 1194,-32 1196.5,-31.3414 1199.05,-30.5072 1201.57,-29.571"/>
<polygon fill="midnightblue" stroke="midnightblue" points="1203.1,-32.7238 1210.95,-25.6094 1200.38,-26.2751 1203.1,-32.7238"/>
</g>
<!-- Node17&#45;&gt;Node9 -->
<g id="edge26" class="edge"><title>Node17&#45;&gt;Node9</title>
<path fill="none" stroke="midnightblue" d="M587.242,-68.7195C584.126,-68.4736 581.038,-68.2332 578,-68 344.804,-50.1061 279.047,-92.0275 53,-32 50.6597,-31.3785 48.284,-30.5783 45.9426,-29.6713"/>
<polygon fill="midnightblue" stroke="midnightblue" points="47.2476,-26.4208 36.6905,-25.5276 44.3863,-32.8094 47.2476,-26.4208"/>
</g>
<!-- Node17&#45;&gt;Node16 -->
<g id="edge23" class="edge"><title>Node17&#45;&gt;Node16</title>
<path fill="none" stroke="midnightblue" d="M778.07,-68.4902C905.224,-56.8596 1118.12,-36.8815 1135,-32 1136.97,-31.4297 1138.97,-30.732 1140.95,-29.9529"/>
<polygon fill="midnightblue" stroke="midnightblue" points="1142.84,-32.9345 1150.48,-25.5909 1139.93,-26.5693 1142.84,-32.9345"/>
</g>
<!-- Node18 -->
<g id="node18" class="node"><title>Node18</title>
<polygon fill="none" stroke="#bfbfbf" points="508,-1 508,-31 608,-31 608,-1 508,-1"/>
<text text-anchor="start" x="516" y="-19" font-family="Helvetica,sans-Serif" font-size="10.00">boost/container/flat</text>
<text text-anchor="middle" x="558" y="-8" font-family="Helvetica,sans-Serif" font-size="10.00">_map.hpp</text>
</g>
<!-- Node17&#45;&gt;Node18 -->
<g id="edge18" class="edge"><title>Node17&#45;&gt;Node18</title>
<path fill="none" stroke="midnightblue" d="M665.947,-68.4035C648.005,-59.8596 619.914,-46.483 596.886,-35.5171"/>
<polygon fill="midnightblue" stroke="midnightblue" points="598.229,-32.2802 587.696,-31.1408 595.22,-38.6002 598.229,-32.2802"/>
</g>
<!-- Node19 -->
<g id="node19" class="node"><title>Node19</title>
<polygon fill="none" stroke="#bfbfbf" points="626,-1 626,-31 742,-31 742,-1 626,-1"/>
<text text-anchor="start" x="634" y="-19" font-family="Helvetica,sans-Serif" font-size="10.00">boost/container/pmr</text>
<text text-anchor="middle" x="684" y="-8" font-family="Helvetica,sans-Serif" font-size="10.00">/memory_resource.hpp</text>
</g>
<!-- Node17&#45;&gt;Node19 -->
<g id="edge19" class="edge"><title>Node17&#45;&gt;Node19</title>
<path fill="none" stroke="midnightblue" d="M684,-68.4035C684,-61.3405 684,-50.975 684,-41.399"/>
<polygon fill="midnightblue" stroke="midnightblue" points="687.5,-41.1408 684,-31.1408 680.5,-41.1408 687.5,-41.1408"/>
</g>
<!-- Node20 -->
<g id="node20" class="node"><title>Node20</title>
<polygon fill="none" stroke="#bfbfbf" points="760,-1 760,-31 916,-31 916,-1 760,-1"/>
<text text-anchor="start" x="768" y="-19" font-family="Helvetica,sans-Serif" font-size="10.00">boost/container/pmr</text>
<text text-anchor="middle" x="838" y="-8" font-family="Helvetica,sans-Serif" font-size="10.00">/monotonic_buffer_resource.hpp</text>
</g>
<!-- Node17&#45;&gt;Node20 -->
<g id="edge20" class="edge"><title>Node17&#45;&gt;Node20</title>
<path fill="none" stroke="midnightblue" d="M706.064,-68.4035C728.556,-59.6406 764.095,-45.7942 792.624,-34.6789"/>
<polygon fill="midnightblue" stroke="midnightblue" points="793.955,-37.9169 802.002,-31.0253 791.413,-31.3945 793.955,-37.9169"/>
</g>
<!-- Node21 -->
<g id="node21" class="node"><title>Node21</title>
<polygon fill="none" stroke="#bfbfbf" points="934.5,-1 934.5,-31 1067.5,-31 1067.5,-1 934.5,-1"/>
<text text-anchor="start" x="942.5" y="-19" font-family="Helvetica,sans-Serif" font-size="10.00">boost/container/pmr</text>
<text text-anchor="middle" x="1001" y="-8" font-family="Helvetica,sans-Serif" font-size="10.00">/polymorphic_allocator.hpp</text>
</g>
<!-- Node17&#45;&gt;Node21 -->
<g id="edge21" class="edge"><title>Node17&#45;&gt;Node21</title>
<path fill="none" stroke="midnightblue" d="M730.678,-68.4309C777.16,-59.8649 850.824,-46.2011 924.376,-32.109"/>
<polygon fill="midnightblue" stroke="midnightblue" points="925.118,-35.5305 934.279,-30.2088 923.799,-28.6559 925.118,-35.5305"/>
</g>
<!-- Node22 -->
<g id="node22" class="node"><title>Node22</title>
<polygon fill="none" stroke="#bfbfbf" points="62,-6.5 62,-25.5 124,-25.5 124,-6.5 62,-6.5"/>
<text text-anchor="middle" x="93" y="-13.5" font-family="Helvetica,sans-Serif" font-size="10.00">type_traits</text>
</g>
<!-- Node17&#45;&gt;Node22 -->
<g id="edge24" class="edge"><title>Node17&#45;&gt;Node22</title>
<path fill="none" stroke="midnightblue" d="M587.239,-68.7684C584.123,-68.5085 581.037,-68.2518 578,-68 380.254,-51.6065 326.652,-75.253 133,-32 129.492,-31.2164 125.878,-30.1918 122.325,-29.0456"/>
<polygon fill="midnightblue" stroke="midnightblue" points="123.202,-25.6431 112.607,-25.5923 120.858,-32.2389 123.202,-25.6431"/>
</g>
<!-- Node23 -->
<g id="node23" class="node"><title>Node23</title>
<polygon fill="none" stroke="#bfbfbf" points="1086,-6.5 1086,-25.5 1126,-25.5 1126,-6.5 1086,-6.5"/>
<text text-anchor="middle" x="1106" y="-13.5" font-family="Helvetica,sans-Serif" font-size="10.00">utility</text>
</g>
<!-- Node17&#45;&gt;Node23 -->
<g id="edge25" class="edge"><title>Node17&#45;&gt;Node23</title>
<path fill="none" stroke="midnightblue" d="M772.406,-68.4932C879.055,-57.9744 1047.64,-40.4306 1076,-32 1077.97,-31.4151 1079.96,-30.7068 1081.94,-29.9203"/>
<polygon fill="midnightblue" stroke="midnightblue" points="1083.84,-32.8984 1091.47,-25.5441 1080.92,-26.5372 1083.84,-32.8984"/>
</g>
<!-- Node24 -->
<g id="node24" class="node"><title>Node24</title>
<polygon fill="none" stroke="#bfbfbf" points="142.5,-6.5 142.5,-25.5 225.5,-25.5 225.5,-6.5 142.5,-6.5"/>
<text text-anchor="middle" x="184" y="-13.5" font-family="Helvetica,sans-Serif" font-size="10.00">unordered_map</text>
</g>
<!-- Node17&#45;&gt;Node24 -->
<g id="edge27" class="edge"><title>Node17&#45;&gt;Node24</title>
<path fill="none" stroke="midnightblue" d="M589.039,-68.4825C467.307,-57.4119 267.84,-38.7035 234,-32 228.962,-31.002 223.704,-29.7107 218.571,-28.305"/>
<polygon fill="midnightblue" stroke="midnightblue" points="219.522,-24.9368 208.943,-25.5076 217.569,-31.6588 219.522,-24.9368"/>
</g>
<!-- Node25 -->
<g id="node25" class="node"><title>Node25</title>
<polygon fill="none" stroke="#bfbfbf" points="243.5,-6.5 243.5,-25.5 340.5,-25.5 340.5,-6.5 243.5,-6.5"/>
<text text-anchor="middle" x="292" y="-13.5" font-family="Helvetica,sans-Serif" font-size="10.00">FairMQMessage.h</text>
</g>
<!-- Node17&#45;&gt;Node25 -->
<g id="edge28" class="edge"><title>Node17&#45;&gt;Node25</title>
<path fill="none" stroke="midnightblue" d="M598.5,-68.4684C530.52,-60.976 433.189,-48.6654 349,-32 343.416,-30.8947 337.568,-29.5615 331.834,-28.1517"/>
<polygon fill="midnightblue" stroke="midnightblue" points="332.272,-24.6513 321.717,-25.5639 330.538,-31.433 332.272,-24.6513"/>
</g>
<!-- Node26 -->
<g id="node26" class="node"><title>Node26</title>
<polygon fill="none" stroke="#bfbfbf" points="358.5,-6.5 358.5,-25.5 489.5,-25.5 489.5,-6.5 358.5,-6.5"/>
<text text-anchor="middle" x="424" y="-13.5" font-family="Helvetica,sans-Serif" font-size="10.00">FairMQTransportFactory.h</text>
</g>
<!-- Node17&#45;&gt;Node26 -->
<g id="edge29" class="edge"><title>Node17&#45;&gt;Node26</title>
<path fill="none" stroke="midnightblue" d="M647.024,-68.4672C600.724,-57.7825 521.365,-39.4687 470.856,-27.8129"/>
<polygon fill="midnightblue" stroke="midnightblue" points="471.379,-24.3417 460.848,-25.5034 469.805,-31.1624 471.379,-24.3417"/>
</g>
<!-- Node27&#45;&gt;Node28 -->
<g id="edge31" class="edge"><title>Node27&#45;&gt;Node28</title>
<path fill="none" stroke="midnightblue" d="M614.46,-236.324C628.5,-227.9 650.048,-214.971 666.543,-205.074"/>
<polygon fill="midnightblue" stroke="midnightblue" points="668.802,-207.801 675.576,-199.655 665.2,-201.798 668.802,-207.801"/>
</g>
<!-- Node29 -->
<g id="node29" class="node"><title>Node29</title>
<polygon fill="none" stroke="#bfbfbf" points="570.5,-180.5 570.5,-199.5 629.5,-199.5 629.5,-180.5 570.5,-180.5"/>
<text text-anchor="middle" x="600" y="-187.5" font-family="Helvetica,sans-Serif" font-size="10.00">TObject.h</text>
</g>
<!-- Node27&#45;&gt;Node29 -->
<g id="edge32" class="edge"><title>Node27&#45;&gt;Node29</title>
<path fill="none" stroke="midnightblue" d="M600,-236.083C600,-229.006 600,-218.861 600,-209.986"/>
<polygon fill="midnightblue" stroke="midnightblue" points="603.5,-209.751 600,-199.751 596.5,-209.751 603.5,-209.751"/>
</g>
<!-- Node30 -->
<g id="node30" class="node"><title>Node30</title>
<g id="a_node30"><a xlink:href="../../d6/d90/Headers_2include_2Headers_2TimeStamp_8h.html" target="_top" xlink:title="Headers/TimeStamp.h">
<polygon fill="none" stroke="black" points="418.5,-180.5 418.5,-199.5 533.5,-199.5 533.5,-180.5 418.5,-180.5"/>
<text text-anchor="middle" x="476" y="-187.5" font-family="Helvetica,sans-Serif" font-size="10.00">Headers/TimeStamp.h</text>
</a>
</g>
</g>
<!-- Node27&#45;&gt;Node30 -->
<g id="edge33" class="edge"><title>Node27&#45;&gt;Node30</title>
<path fill="none" stroke="midnightblue" d="M580.352,-236.444C560.035,-227.596 528.097,-213.687 504.902,-203.586"/>
<polygon fill="midnightblue" stroke="midnightblue" points="506.122,-200.3 495.556,-199.516 503.327,-206.718 506.122,-200.3"/>
</g>
<!-- Node30&#45;&gt;Node3 -->
<g id="edge35" class="edge"><title>Node30&#45;&gt;Node3</title>
<path fill="none" stroke="midnightblue" d="M458.005,-180.324C439.962,-171.625 411.953,-158.12 391.197,-148.113"/>
<polygon fill="midnightblue" stroke="midnightblue" points="392.478,-144.845 381.95,-143.655 389.438,-151.15 392.478,-144.845"/>
</g>
<!-- Node30&#45;&gt;Node10 -->
<g id="edge34" class="edge"><title>Node30&#45;&gt;Node10</title>
<path fill="none" stroke="midnightblue" d="M522.744,-180.444C574.745,-170.925 658.751,-155.547 714.424,-145.356"/>
<polygon fill="midnightblue" stroke="midnightblue" points="715.269,-148.76 724.475,-143.516 714.008,-141.874 715.269,-148.76"/>
</g>
<!-- Node30&#45;&gt;Node13 -->
<g id="edge36" class="edge"><title>Node30&#45;&gt;Node13</title>
<path fill="none" stroke="midnightblue" d="M475.372,-180.368C474.081,-162.617 471.103,-121.666 469.353,-97.5974"/>
<polygon fill="midnightblue" stroke="midnightblue" points="472.841,-97.3112 468.625,-87.5914 465.859,-97.819 472.841,-97.3112"/>
</g>
<!-- Node30&#45;&gt;Node22 -->
<g id="edge37" class="edge"><title>Node30&#45;&gt;Node22</title>
<path fill="none" stroke="midnightblue" d="M467.397,-180.278C453.498,-166.611 424.747,-140.058 396,-124 287.889,-63.6106 249.426,-74.1876 133,-32 130.472,-31.0841 127.858,-30.1268 125.233,-29.1582"/>
<polygon fill="midnightblue" stroke="midnightblue" points="126.406,-25.8599 115.813,-25.6548 123.966,-32.4209 126.406,-25.8599"/>
</g>
</g>
</svg>
