<?xml version="1.0" encoding="UTF-8" standalone="no"?>
<!DOCTYPE svg PUBLIC "-//W3C//DTD SVG 1.1//EN"
 "http://www.w3.org/Graphics/SVG/1.1/DTD/svg11.dtd">
<!-- Generated by graphviz version 2.36.0 (20140111.2315)
 -->
<!-- Title: /home/travis/build/AliceO2Group/AliceO2/Utilities/aliceHLTwrapper/include/aliceHLTwrapper/Component.h Pages: 1 -->
<!--zoomable 364 -->
<svg id="main" version="1.1" xmlns="http://www.w3.org/2000/svg" xmlns:xlink="http://www.w3.org/1999/xlink" xml:space="preserve" onload="init(evt)">
<style type="text/css"><![CDATA[
.edge:hover path { stroke: red; }
.edge:hover polygon { stroke: red; fill: red; }
]]></style>
<script type="text/javascript"><![CDATA[
var edges = document.getElementsByTagName('g');
if (edges && edges.length) {
  for (var i=0;i<edges.length;i++) {
    if (edges[i].id.substr(0,4)=='edge') {
      edges[i].setAttribute('class','edge');
    }
  }
}
]]></script>
        <defs>
                <circle id="rim" cx="0" cy="0" r="7"/>
                <circle id="rim2" cx="0" cy="0" r="3.5"/>
                <g id="zoomPlus">
                        <use xlink:href="#rim" fill="#404040">
                                <set attributeName="fill" to="#808080" begin="zoomplus.mouseover" end="zoomplus.mouseout"/>
                        </use>
                        <path d="M-4,0h8M0,-4v8" fill="none" stroke="white" stroke-width="1.5" pointer-events="none"/>
                </g>
                <g id="zoomMin">
                        <use xlink:href="#rim" fill="#404040">
                                <set attributeName="fill" to="#808080" begin="zoomminus.mouseover" end="zoomminus.mouseout"/>
                        </use>
                        <path d="M-4,0h8" fill="none" stroke="white" stroke-width="1.5" pointer-events="none"/>
                </g>
                <g id="dirArrow">
                        <path fill="none" stroke="white" stroke-width="1.5" d="M0,-3.0v7 M-2.5,-0.5L0,-3.0L2.5,-0.5"/>
                </g>
               <g id="resetDef">
                       <use xlink:href="#rim2" fill="#404040">
                               <set attributeName="fill" to="#808080" begin="reset.mouseover" end="reset.mouseout"/>
                       </use>
               </g>
        </defs>

<script type="text/javascript">
var viewWidth = 1257;
var viewHeight = 364;
var sectionId = 'dynsection-0';
</script>
<script xlink:href="../../svgpan.js"/>
<svg id="graph" class="graph">
<g id="viewport">
<title>/home/travis/build/AliceO2Group/AliceO2/Utilities/aliceHLTwrapper/include/aliceHLTwrapper/Component.h</title>
<!-- Node1 -->
<g id="node1" class="node"><title>Node1</title>
<polygon fill="#bfbfbf" stroke="black" points="563.5,-292.5 563.5,-355.5 692.5,-355.5 692.5,-292.5 563.5,-292.5"/>
<text text-anchor="start" x="571.5" y="-343.5" font-family="Helvetica,sans-Serif" font-size="10.00">/home/travis/build</text>
<text text-anchor="start" x="571.5" y="-332.5" font-family="Helvetica,sans-Serif" font-size="10.00">/AliceO2Group/AliceO2</text>
<text text-anchor="start" x="571.5" y="-321.5" font-family="Helvetica,sans-Serif" font-size="10.00">/Utilities/aliceHLTwrapper</text>
<text text-anchor="start" x="571.5" y="-310.5" font-family="Helvetica,sans-Serif" font-size="10.00">/include/aliceHLTwrapper</text>
<text text-anchor="middle" x="628" y="-299.5" font-family="Helvetica,sans-Serif" font-size="10.00">/Component.h</text>
</g>
<!-- Node2 -->
<g id="node2" class="node"><title>Node2</title>
<g id="a_node2"><a xlink:href="../../d6/d34/AliHLTDataTypes_8h.html" target="_top" xlink:title="Data type declaration for the HLT module. ">
<polygon fill="none" stroke="black" points="550.5,-124.5 550.5,-143.5 653.5,-143.5 653.5,-124.5 550.5,-124.5"/>
<text text-anchor="middle" x="602" y="-131.5" font-family="Helvetica,sans-Serif" font-size="10.00">AliHLTDataTypes.h</text>
</a>
</g>
</g>
<!-- Node1&#45;&gt;Node2 -->
<g id="edge1" class="edge"><title>Node1&#45;&gt;Node2</title>
<path fill="none" stroke="midnightblue" d="M655.936,-292.411C679.656,-262.542 706.67,-216.398 685,-180 675.904,-164.721 659.612,-154.31 643.856,-147.386"/>
<polygon fill="midnightblue" stroke="midnightblue" points="644.769,-143.981 634.185,-143.512 642.167,-150.479 644.769,-143.981"/>
</g>
<!-- Node3 -->
<g id="node3" class="node"><title>Node3</title>
<g id="a_node3"><a xlink:href="../../d2/dda/MessageFormat_8h.html" target="_top" xlink:title="MessageFormat.h">
<polygon fill="none" stroke="black" points="370.5,-236.5 370.5,-255.5 465.5,-255.5 465.5,-236.5 370.5,-236.5"/>
<text text-anchor="middle" x="418" y="-243.5" font-family="Helvetica,sans-Serif" font-size="10.00">MessageFormat.h</text>
</a>
</g>
</g>
<!-- Node1&#45;&gt;Node3 -->
<g id="edge2" class="edge"><title>Node1&#45;&gt;Node3</title>
<path fill="none" stroke="midnightblue" d="M563.28,-299.577C526.142,-286.137 481.08,-269.829 451.086,-258.974"/>
<polygon fill="midnightblue" stroke="midnightblue" points="452.119,-255.626 441.525,-255.514 449.737,-262.208 452.119,-255.626"/>
</g>
<!-- Node5 -->
<g id="node5" class="node"><title>Node5</title>
<polygon fill="none" stroke="#bfbfbf" points="0,-6.5 0,-25.5 44,-25.5 44,-6.5 0,-6.5"/>
<text text-anchor="middle" x="22" y="-13.5" font-family="Helvetica,sans-Serif" font-size="10.00">vector</text>
</g>
<!-- Node1&#45;&gt;Node5 -->
<g id="edge35" class="edge"><title>Node1&#45;&gt;Node5</title>
<path fill="none" stroke="midnightblue" d="M563.492,-321.892C411.961,-317.545 46,-296.162 46,-191 46,-191 46,-191 46,-133 46,-97.8299 35.2897,-57.8826 28.1786,-35.2358"/>
<polygon fill="midnightblue" stroke="midnightblue" points="31.4662,-34.0279 25.0396,-25.6048 24.8108,-36.1972 31.4662,-34.0279"/>
</g>
<!-- Node7 -->
<g id="node7" class="node"><title>Node7</title>
<polygon fill="none" stroke="#bfbfbf" points="579,-180.5 579,-199.5 677,-199.5 677,-180.5 579,-180.5"/>
<text text-anchor="middle" x="628" y="-187.5" font-family="Helvetica,sans-Serif" font-size="10.00">boost/signals2.hpp</text>
</g>
<!-- Node1&#45;&gt;Node7 -->
<g id="edge36" class="edge"><title>Node1&#45;&gt;Node7</title>
<path fill="none" stroke="midnightblue" d="M628,-292.385C628,-266.82 628,-231.199 628,-209.695"/>
<polygon fill="midnightblue" stroke="midnightblue" points="631.5,-209.61 628,-199.61 624.5,-209.61 631.5,-209.61"/>
</g>
<!-- Node28 -->
<g id="node28" class="node"><title>Node28</title>
<polygon fill="none" stroke="#bfbfbf" points="733,-236.5 733,-255.5 867,-255.5 867,-236.5 733,-236.5"/>
<text text-anchor="middle" x="800" y="-243.5" font-family="Helvetica,sans-Serif" font-size="10.00">boost/program_options.hpp</text>
</g>
<!-- Node1&#45;&gt;Node28 -->
<g id="edge37" class="edge"><title>Node1&#45;&gt;Node28</title>
<path fill="none" stroke="midnightblue" d="M692.536,-294.484C719.649,-282.504 749.804,-269.18 771.253,-259.702"/>
<polygon fill="midnightblue" stroke="midnightblue" points="772.72,-262.88 780.453,-255.637 769.891,-256.478 772.72,-262.88"/>
</g>
<!-- Node3&#45;&gt;Node2 -->
<g id="edge3" class="edge"><title>Node3&#45;&gt;Node2</title>
<path fill="none" stroke="midnightblue" d="M420.696,-236.466C425.521,-222.574 436.948,-195.105 456,-180 471.293,-167.875 517.251,-154.819 553.564,-145.91"/>
<polygon fill="midnightblue" stroke="midnightblue" points="554.616,-149.257 563.517,-143.511 552.975,-142.452 554.616,-149.257"/>
</g>
<!-- Node4 -->
<g id="node4" class="node"><title>Node4</title>
<g id="a_node4"><a xlink:href="../../d2/de6/HOMERFactory_8h.html" target="_top" xlink:title="HOMERFactory.h">
<polygon fill="none" stroke="black" points="465.5,-180.5 465.5,-199.5 560.5,-199.5 560.5,-180.5 465.5,-180.5"/>
<text text-anchor="middle" x="513" y="-187.5" font-family="Helvetica,sans-Serif" font-size="10.00">HOMERFactory.h</text>
</a>
</g>
</g>
<!-- Node3&#45;&gt;Node4 -->
<g id="edge4" class="edge"><title>Node3&#45;&gt;Node4</title>
<path fill="none" stroke="midnightblue" d="M433.263,-236.324C448.221,-227.822 471.255,-214.729 488.727,-204.797"/>
<polygon fill="midnightblue" stroke="midnightblue" points="490.81,-207.639 497.774,-199.655 487.351,-201.553 490.81,-207.639"/>
</g>
<!-- Node3&#45;&gt;Node5 -->
<g id="edge6" class="edge"><title>Node3&#45;&gt;Node5</title>
<path fill="none" stroke="midnightblue" d="M370.406,-242.199C326.492,-237.932 260.624,-227.165 210,-200 130.08,-157.115 60.7444,-70.2257 33.8809,-33.7342"/>
<polygon fill="midnightblue" stroke="midnightblue" points="36.688,-31.6432 27.9856,-25.6 31.02,-35.751 36.688,-31.6432"/>
</g>
<!-- Node6 -->
<g id="node6" class="node"><title>Node6</title>
<polygon fill="none" stroke="#bfbfbf" points="183,-68.5 183,-87.5 229,-87.5 229,-68.5 183,-68.5"/>
<text text-anchor="middle" x="206" y="-75.5" font-family="Helvetica,sans-Serif" font-size="10.00">cstdint</text>
</g>
<!-- Node3&#45;&gt;Node6 -->
<g id="edge7" class="edge"><title>Node3&#45;&gt;Node6</title>
<path fill="none" stroke="midnightblue" d="M370.238,-239.861C319.931,-233.434 245.357,-220.687 226,-200 200.022,-172.237 200.554,-124.33 203.253,-97.8908"/>
<polygon fill="midnightblue" stroke="midnightblue" points="206.759,-98.0528 204.514,-87.6986 199.812,-97.193 206.759,-98.0528"/>
</g>
<!-- Node3&#45;&gt;Node7 -->
<g id="edge8" class="edge"><title>Node3&#45;&gt;Node7</title>
<path fill="none" stroke="midnightblue" d="M451.275,-236.444C487.448,-227.142 545.377,-212.246 584.981,-202.062"/>
<polygon fill="midnightblue" stroke="midnightblue" points="586.067,-205.397 594.881,-199.516 584.324,-198.617 586.067,-205.397"/>
</g>
<!-- Node8 -->
<g id="node8" class="node"><title>Node8</title>
<g id="a_node8"><a xlink:href="../../dc/dcd/DataHeader_8h.html" target="_top" xlink:title="Headers/DataHeader.h">
<polygon fill="none" stroke="black" points="415.5,-124.5 415.5,-143.5 532.5,-143.5 532.5,-124.5 415.5,-124.5"/>
<text text-anchor="middle" x="474" y="-131.5" font-family="Helvetica,sans-Serif" font-size="10.00">Headers/DataHeader.h</text>
</a>
</g>
</g>
<!-- Node3&#45;&gt;Node8 -->
<g id="edge9" class="edge"><title>Node3&#45;&gt;Node8</title>
<path fill="none" stroke="midnightblue" d="M416.709,-236.468C415.162,-223.512 413.813,-198.437 423,-180 429.172,-167.615 440.38,-157.139 450.72,-149.42"/>
<polygon fill="midnightblue" stroke="midnightblue" points="452.867,-152.19 459.073,-143.602 448.866,-146.446 452.867,-152.19"/>
</g>
<!-- Node25 -->
<g id="node25" class="node"><title>Node25</title>
<g id="a_node25"><a xlink:href="../../d2/d09/HeartbeatFrame_8h.html" target="_top" xlink:title="Headers/HeartbeatFrame.h">
<polygon fill="none" stroke="black" points="235.5,-180.5 235.5,-199.5 370.5,-199.5 370.5,-180.5 235.5,-180.5"/>
<text text-anchor="middle" x="303" y="-187.5" font-family="Helvetica,sans-Serif" font-size="10.00">Headers/HeartbeatFrame.h</text>
</a>
</g>
</g>
<!-- Node3&#45;&gt;Node25 -->
<g id="edge30" class="edge"><title>Node3&#45;&gt;Node25</title>
<path fill="none" stroke="midnightblue" d="M399.778,-236.444C381.104,-227.675 351.844,-213.935 330.383,-203.858"/>
<polygon fill="midnightblue" stroke="midnightblue" points="331.676,-200.599 321.137,-199.516 328.701,-206.935 331.676,-200.599"/>
</g>
<!-- Node4&#45;&gt;Node2 -->
<g id="edge5" class="edge"><title>Node4&#45;&gt;Node2</title>
<path fill="none" stroke="midnightblue" d="M527.299,-180.324C541.183,-171.9 562.492,-158.971 578.804,-149.074"/>
<polygon fill="midnightblue" stroke="midnightblue" points="581.002,-151.834 587.736,-143.655 577.371,-145.85 581.002,-151.834"/>
</g>
<!-- Node8&#45;&gt;Node6 -->
<g id="edge10" class="edge"><title>Node8&#45;&gt;Node6</title>
<path fill="none" stroke="midnightblue" d="M431.535,-124.444C378.182,-113.693 287.747,-95.4714 239.184,-85.6863"/>
<polygon fill="midnightblue" stroke="midnightblue" points="239.696,-82.2192 229.201,-83.6749 238.313,-89.0813 239.696,-82.2192"/>
</g>
<!-- Node9 -->
<g id="node9" class="node"><title>Node9</title>
<polygon fill="none" stroke="#bfbfbf" points="771,-68.5 771,-87.5 823,-87.5 823,-68.5 771,-68.5"/>
<text text-anchor="middle" x="797" y="-75.5" font-family="Helvetica,sans-Serif" font-size="10.00">memory</text>
</g>
<!-- Node8&#45;&gt;Node9 -->
<g id="edge11" class="edge"><title>Node8&#45;&gt;Node9</title>
<path fill="none" stroke="midnightblue" d="M532.384,-124.477C599.064,-114.639 705.081,-98.654 760.898,-87.8198"/>
<polygon fill="midnightblue" stroke="midnightblue" points="761.595,-91.25 770.716,-85.8594 760.224,-84.3855 761.595,-91.25"/>
</g>
<!-- Node10 -->
<g id="node10" class="node"><title>Node10</title>
<polygon fill="none" stroke="#bfbfbf" points="340.5,-68.5 340.5,-87.5 389.5,-87.5 389.5,-68.5 340.5,-68.5"/>
<text text-anchor="middle" x="365" y="-75.5" font-family="Helvetica,sans-Serif" font-size="10.00">cassert</text>
</g>
<!-- Node8&#45;&gt;Node10 -->
<g id="edge12" class="edge"><title>Node8&#45;&gt;Node10</title>
<path fill="none" stroke="midnightblue" d="M456.487,-124.324C438.928,-115.625 411.669,-102.12 391.469,-92.113"/>
<polygon fill="midnightblue" stroke="midnightblue" points="392.984,-88.9575 382.469,-87.6545 389.876,-95.23 392.984,-88.9575"/>
</g>
<!-- Node11 -->
<g id="node11" class="node"><title>Node11</title>
<polygon fill="none" stroke="#bfbfbf" points="1203,-6.5 1203,-25.5 1249,-25.5 1249,-6.5 1203,-6.5"/>
<text text-anchor="middle" x="1226" y="-13.5" font-family="Helvetica,sans-Serif" font-size="10.00">cstring</text>
</g>
<!-- Node8&#45;&gt;Node11 -->
<g id="edge13" class="edge"><title>Node8&#45;&gt;Node11</title>
<path fill="none" stroke="midnightblue" d="M532.805,-124.928C535.574,-124.603 538.316,-124.291 541,-124 733.863,-103.08 784.723,-120.354 976,-88 1074.21,-71.3881 1099.08,-65.1783 1193,-32 1195.12,-31.2506 1197.29,-30.4179 1199.46,-29.5399"/>
<polygon fill="midnightblue" stroke="midnightblue" points="1200.97,-32.6991 1208.76,-25.5178 1198.2,-26.274 1200.97,-32.6991"/>
</g>
<!-- Node12 -->
<g id="node12" class="node"><title>Node12</title>
<polygon fill="none" stroke="#bfbfbf" points="408,-68.5 408,-87.5 464,-87.5 464,-68.5 408,-68.5"/>
<text text-anchor="middle" x="436" y="-75.5" font-family="Helvetica,sans-Serif" font-size="10.00">algorithm</text>
</g>
<!-- Node8&#45;&gt;Node12 -->
<g id="edge14" class="edge"><title>Node8&#45;&gt;Node12</title>
<path fill="none" stroke="midnightblue" d="M467.725,-124.083C462.358,-116.455 454.482,-105.264 447.921,-95.9408"/>
<polygon fill="midnightblue" stroke="midnightblue" points="450.775,-93.9149 442.158,-87.7511 445.051,-97.9434 450.775,-93.9149"/>
</g>
<!-- Node13 -->
<g id="node13" class="node"><title>Node13</title>
<polygon fill="none" stroke="#bfbfbf" points="482.5,-68.5 482.5,-87.5 541.5,-87.5 541.5,-68.5 482.5,-68.5"/>
<text text-anchor="middle" x="512" y="-75.5" font-family="Helvetica,sans-Serif" font-size="10.00">stdexcept</text>
</g>
<!-- Node8&#45;&gt;Node13 -->
<g id="edge15" class="edge"><title>Node8&#45;&gt;Node13</title>
<path fill="none" stroke="midnightblue" d="M480.275,-124.083C485.642,-116.455 493.518,-105.264 500.079,-95.9408"/>
<polygon fill="midnightblue" stroke="midnightblue" points="502.949,-97.9434 505.842,-87.7511 497.225,-93.9149 502.949,-97.9434"/>
</g>
<!-- Node14 -->
<g id="node14" class="node"><title>Node14</title>
<polygon fill="none" stroke="#bfbfbf" points="1143.5,-6.5 1143.5,-25.5 1184.5,-25.5 1184.5,-6.5 1143.5,-6.5"/>
<text text-anchor="middle" x="1164" y="-13.5" font-family="Helvetica,sans-Serif" font-size="10.00">string</text>
</g>
<!-- Node8&#45;&gt;Node14 -->
<g id="edge16" class="edge"><title>Node8&#45;&gt;Node14</title>
<path fill="none" stroke="midnightblue" d="M532.822,-125.063C535.586,-124.701 538.323,-124.345 541,-124 805.516,-89.8731 881.126,-116.783 1134,-32 1135.86,-31.3753 1137.76,-30.6545 1139.64,-29.874"/>
<polygon fill="midnightblue" stroke="midnightblue" points="1141.18,-33.0178 1148.78,-25.6403 1138.24,-26.6656 1141.18,-33.0178"/>
</g>
<!-- Node15 -->
<g id="node15" class="node"><title>Node15</title>
<g id="a_node15"><a xlink:href="../../dc/d03/MemoryResources_8h.html" target="_top" xlink:title="MemoryResources/MemoryResources.h">
<polygon fill="none" stroke="black" points="559.5,-68.5 559.5,-87.5 752.5,-87.5 752.5,-68.5 559.5,-68.5"/>
<text text-anchor="middle" x="656" y="-75.5" font-family="Helvetica,sans-Serif" font-size="10.00">MemoryResources/MemoryResources.h</text>
</a>
</g>
</g>
<!-- Node8&#45;&gt;Node15 -->
<g id="edge17" class="edge"><title>Node8&#45;&gt;Node15</title>
<path fill="none" stroke="midnightblue" d="M502.838,-124.444C533.856,-115.241 583.329,-100.562 617.618,-90.3879"/>
<polygon fill="midnightblue" stroke="midnightblue" points="618.705,-93.7164 627.296,-87.5164 616.714,-87.0055 618.705,-93.7164"/>
</g>
<!-- Node15&#45;&gt;Node5 -->
<g id="edge26" class="edge"><title>Node15&#45;&gt;Node5</title>
<path fill="none" stroke="midnightblue" d="M559.241,-68.7343C556.125,-68.4842 553.038,-68.2388 550,-68 328.771,-50.6127 265.995,-90.7426 52,-32 49.81,-31.3988 47.591,-30.6327 45.4027,-29.7658"/>
<polygon fill="midnightblue" stroke="midnightblue" points="46.7374,-26.5272 36.1905,-25.5198 43.8072,-32.8844 46.7374,-26.5272"/>
</g>
<!-- Node15&#45;&gt;Node11 -->
<g id="edge22" class="edge"><title>Node15&#45;&gt;Node11</title>
<path fill="none" stroke="midnightblue" d="M752.762,-68.7788C755.878,-68.5159 758.963,-68.2557 762,-68 953.545,-51.8689 1006.99,-80.4836 1193,-32 1195.5,-31.3472 1198.06,-30.5171 1200.57,-29.5834"/>
<polygon fill="midnightblue" stroke="midnightblue" points="1202.1,-32.7369 1209.96,-25.6255 1199.38,-26.2872 1202.1,-32.7369"/>
</g>
<!-- Node15&#45;&gt;Node14 -->
<g id="edge23" class="edge"><title>Node15&#45;&gt;Node14</title>
<path fill="none" stroke="midnightblue" d="M751.009,-68.4968C887.786,-56.1933 1124.9,-34.6053 1134,-32 1135.97,-31.4352 1137.97,-30.7415 1139.95,-29.9652"/>
<polygon fill="midnightblue" stroke="midnightblue" points="1141.85,-32.9482 1149.49,-25.6086 1138.94,-26.5814 1141.85,-32.9482"/>
</g>
<!-- Node16 -->
<g id="node16" class="node"><title>Node16</title>
<polygon fill="none" stroke="#bfbfbf" points="326,-1 326,-31 426,-31 426,-1 326,-1"/>
<text text-anchor="start" x="334" y="-19" font-family="Helvetica,sans-Serif" font-size="10.00">boost/container/flat</text>
<text text-anchor="middle" x="376" y="-8" font-family="Helvetica,sans-Serif" font-size="10.00">_map.hpp</text>
</g>
<!-- Node15&#45;&gt;Node16 -->
<g id="edge18" class="edge"><title>Node15&#45;&gt;Node16</title>
<path fill="none" stroke="midnightblue" d="M610.997,-68.4944C568.341,-60.285 502.247,-47.1853 435.952,-32.1607"/>
<polygon fill="midnightblue" stroke="midnightblue" points="436.7,-28.7415 426.172,-29.9304 435.144,-35.5663 436.7,-28.7415"/>
</g>
<!-- Node17 -->
<g id="node17" class="node"><title>Node17</title>
<polygon fill="none" stroke="#bfbfbf" points="444,-1 444,-31 560,-31 560,-1 444,-1"/>
<text text-anchor="start" x="452" y="-19" font-family="Helvetica,sans-Serif" font-size="10.00">boost/container/pmr</text>
<text text-anchor="middle" x="502" y="-8" font-family="Helvetica,sans-Serif" font-size="10.00">/memory_resource.hpp</text>
</g>
<!-- Node15&#45;&gt;Node17 -->
<g id="edge19" class="edge"><title>Node15&#45;&gt;Node17</title>
<path fill="none" stroke="midnightblue" d="M633.936,-68.4035C611.444,-59.6406 575.905,-45.7942 547.376,-34.6789"/>
<polygon fill="midnightblue" stroke="midnightblue" points="548.587,-31.3945 537.998,-31.0253 546.045,-37.9169 548.587,-31.3945"/>
</g>
<!-- Node18 -->
<g id="node18" class="node"><title>Node18</title>
<polygon fill="none" stroke="#bfbfbf" points="578,-1 578,-31 734,-31 734,-1 578,-1"/>
<text text-anchor="start" x="586" y="-19" font-family="Helvetica,sans-Serif" font-size="10.00">boost/container/pmr</text>
<text text-anchor="middle" x="656" y="-8" font-family="Helvetica,sans-Serif" font-size="10.00">/monotonic_buffer_resource.hpp</text>
</g>
<!-- Node15&#45;&gt;Node18 -->
<g id="edge20" class="edge"><title>Node15&#45;&gt;Node18</title>
<path fill="none" stroke="midnightblue" d="M656,-68.4035C656,-61.3405 656,-50.975 656,-41.399"/>
<polygon fill="midnightblue" stroke="midnightblue" points="659.5,-41.1408 656,-31.1408 652.5,-41.1408 659.5,-41.1408"/>
</g>
<!-- Node19 -->
<g id="node19" class="node"><title>Node19</title>
<polygon fill="none" stroke="#bfbfbf" points="752.5,-1 752.5,-31 885.5,-31 885.5,-1 752.5,-1"/>
<text text-anchor="start" x="760.5" y="-19" font-family="Helvetica,sans-Serif" font-size="10.00">boost/container/pmr</text>
<text text-anchor="middle" x="819" y="-8" font-family="Helvetica,sans-Serif" font-size="10.00">/polymorphic_allocator.hpp</text>
</g>
<!-- Node15&#45;&gt;Node19 -->
<g id="edge21" class="edge"><title>Node15&#45;&gt;Node19</title>
<path fill="none" stroke="midnightblue" d="M679.354,-68.4035C703.263,-59.6025 741.103,-45.6737 771.366,-34.534"/>
<polygon fill="midnightblue" stroke="midnightblue" points="772.723,-37.7643 780.898,-31.0253 770.304,-31.1952 772.723,-37.7643"/>
</g>
<!-- Node20 -->
<g id="node20" class="node"><title>Node20</title>
<polygon fill="none" stroke="#bfbfbf" points="904,-6.5 904,-25.5 966,-25.5 966,-6.5 904,-6.5"/>
<text text-anchor="middle" x="935" y="-13.5" font-family="Helvetica,sans-Serif" font-size="10.00">type_traits</text>
</g>
<!-- Node15&#45;&gt;Node20 -->
<g id="edge24" class="edge"><title>Node15&#45;&gt;Node20</title>
<path fill="none" stroke="midnightblue" d="M715.792,-68.4787C764.301,-60.9018 834.201,-48.4725 894,-32 897.215,-31.1143 900.536,-30.09 903.832,-29.0008"/>
<polygon fill="midnightblue" stroke="midnightblue" points="905.229,-32.22 913.511,-25.6126 902.917,-25.6131 905.229,-32.22"/>
</g>
<!-- Node21 -->
<g id="node21" class="node"><title>Node21</title>
<polygon fill="none" stroke="#bfbfbf" points="984,-6.5 984,-25.5 1024,-25.5 1024,-6.5 984,-6.5"/>
<text text-anchor="middle" x="1004" y="-13.5" font-family="Helvetica,sans-Serif" font-size="10.00">utility</text>
</g>
<!-- Node15&#45;&gt;Node21 -->
<g id="edge25" class="edge"><title>Node15&#45;&gt;Node21</title>
<path fill="none" stroke="midnightblue" d="M737.54,-68.4847C816.775,-59.6659 931.214,-45.3344 974,-32 975.918,-31.4023 977.864,-30.6932 979.795,-29.9137"/>
<polygon fill="midnightblue" stroke="midnightblue" points="981.513,-32.9762 989.136,-25.6181 978.588,-26.6165 981.513,-32.9762"/>
</g>
<!-- Node22 -->
<g id="node22" class="node"><title>Node22</title>
<polygon fill="none" stroke="#bfbfbf" points="1042.5,-6.5 1042.5,-25.5 1125.5,-25.5 1125.5,-6.5 1042.5,-6.5"/>
<text text-anchor="middle" x="1084" y="-13.5" font-family="Helvetica,sans-Serif" font-size="10.00">unordered_map</text>
</g>
<!-- Node15&#45;&gt;Node22 -->
<g id="edge27" class="edge"><title>Node15&#45;&gt;Node22</title>
<path fill="none" stroke="midnightblue" d="M741.466,-68.4773C835.078,-58.8439 979.084,-43.0656 1033,-32 1038.01,-30.9711 1043.25,-29.6841 1048.37,-28.2991"/>
<polygon fill="midnightblue" stroke="midnightblue" points="1049.34,-31.6614 1058,-25.5571 1047.43,-24.9289 1049.34,-31.6614"/>
</g>
<!-- Node23 -->
<g id="node23" class="node"><title>Node23</title>
<polygon fill="none" stroke="#bfbfbf" points="61.5,-6.5 61.5,-25.5 158.5,-25.5 158.5,-6.5 61.5,-6.5"/>
<text text-anchor="middle" x="110" y="-13.5" font-family="Helvetica,sans-Serif" font-size="10.00">FairMQMessage.h</text>
</g>
<!-- Node15&#45;&gt;Node23 -->
<g id="edge28" class="edge"><title>Node15&#45;&gt;Node23</title>
<path fill="none" stroke="midnightblue" d="M559.286,-68.5135C422.251,-56.4288 185.983,-35.3474 167,-32 161.061,-30.9527 154.835,-29.5925 148.769,-28.1191"/>
<polygon fill="midnightblue" stroke="midnightblue" points="149.347,-24.6543 138.792,-25.5678 147.613,-31.4361 149.347,-24.6543"/>
</g>
<!-- Node24 -->
<g id="node24" class="node"><title>Node24</title>
<polygon fill="none" stroke="#bfbfbf" points="176.5,-6.5 176.5,-25.5 307.5,-25.5 307.5,-6.5 176.5,-6.5"/>
<text text-anchor="middle" x="242" y="-13.5" font-family="Helvetica,sans-Serif" font-size="10.00">FairMQTransportFactory.h</text>
</g>
<!-- Node15&#45;&gt;Node24 -->
<g id="edge29" class="edge"><title>Node15&#45;&gt;Node24</title>
<path fill="none" stroke="midnightblue" d="M581.059,-68.4793C512.227,-60.3149 407.486,-47.0378 317,-32 308.898,-30.6535 300.333,-29.0821 292.002,-27.473"/>
<polygon fill="midnightblue" stroke="midnightblue" points="292.49,-24.002 282.002,-25.5041 291.137,-30.8701 292.49,-24.002"/>
</g>
<!-- Node25&#45;&gt;Node5 -->
<g id="edge34" class="edge"><title>Node25&#45;&gt;Node5</title>
<path fill="none" stroke="midnightblue" d="M297.625,-180.487C292.028,-171.522 283.102,-156.938 276,-144 257.827,-110.895 268.083,-90.8296 238,-68 170.927,-17.0987 131.728,-59.0788 52,-32 50.1391,-31.368 48.2475,-30.6419 46.3655,-29.8575"/>
<polygon fill="midnightblue" stroke="midnightblue" points="47.7681,-26.6499 37.2238,-25.6157 44.8217,-32.9997 47.7681,-26.6499"/>
</g>
<!-- Node25&#45;&gt;Node8 -->
<g id="edge31" class="edge"><title>Node25&#45;&gt;Node8</title>
<path fill="none" stroke="midnightblue" d="M330.095,-180.444C358.988,-171.32 404.925,-156.813 437.105,-146.651"/>
<polygon fill="midnightblue" stroke="midnightblue" points="438.549,-149.865 447.031,-143.516 436.441,-143.19 438.549,-149.865"/>
</g>
<!-- Node26 -->
<g id="node26" class="node"><title>Node26</title>
<polygon fill="none" stroke="#bfbfbf" points="338.5,-124.5 338.5,-143.5 397.5,-143.5 397.5,-124.5 338.5,-124.5"/>
<text text-anchor="middle" x="368" y="-131.5" font-family="Helvetica,sans-Serif" font-size="10.00">functional</text>
</g>
<!-- Node25&#45;&gt;Node26 -->
<g id="edge32" class="edge"><title>Node25&#45;&gt;Node26</title>
<path fill="none" stroke="midnightblue" d="M313.443,-180.324C323.146,-172.263 337.815,-160.077 349.5,-150.369"/>
<polygon fill="midnightblue" stroke="midnightblue" points="351.911,-152.916 357.367,-143.834 347.438,-147.532 351.911,-152.916"/>
</g>
<!-- Node27 -->
<g id="node27" class="node"><title>Node27</title>
<polygon fill="none" stroke="#bfbfbf" points="285.5,-124.5 285.5,-143.5 320.5,-143.5 320.5,-124.5 285.5,-124.5"/>
<text text-anchor="middle" x="303" y="-131.5" font-family="Helvetica,sans-Serif" font-size="10.00">map</text>
</g>
<!-- Node25&#45;&gt;Node27 -->
<g id="edge33" class="edge"><title>Node25&#45;&gt;Node27</title>
<path fill="none" stroke="midnightblue" d="M303,-180.083C303,-173.006 303,-162.861 303,-153.986"/>
<polygon fill="midnightblue" stroke="midnightblue" points="306.5,-153.751 303,-143.751 299.5,-153.751 306.5,-153.751"/>
</g>
</g>
</svg>
        <g id="navigator" transform="translate(0 0)" fill="#404254">
                <rect fill="#f2f5e9" fill-opacity="0.5" stroke="#606060" stroke-width=".5" x="0" y="0" width="60" height="60"/>
                <use id="zoomplus" xlink:href="#zoomPlus" x="17" y="9" onmousedown="handleZoom(evt,'in')"/>
                <use id="zoomminus" xlink:href="#zoomMin" x="42" y="9" onmousedown="handleZoom(evt,'out')"/>
                <use id="reset" xlink:href="#resetDef" x="30" y="36" onmousedown="handleReset()"/>
                <g id="arrowUp" xlink:href="#dirArrow" transform="translate(30 24)" onmousedown="handlePan(0,-1)">
                  <use xlink:href="#rim" fill="#404040">
                        <set attributeName="fill" to="#808080" begin="arrowUp.mouseover" end="arrowUp.mouseout"/>
                  </use>
                  <path fill="none" stroke="white" stroke-width="1.5" d="M0,-3.0v7 M-2.5,-0.5L0,-3.0L2.5,-0.5"/>
                </g>
                <g id="arrowRight" xlink:href="#dirArrow" transform="rotate(90) translate(36 -43)" onmousedown="handlePan(1,0)">
                  <use xlink:href="#rim" fill="#404040">
                        <set attributeName="fill" to="#808080" begin="arrowRight.mouseover" end="arrowRight.mouseout"/>
                  </use>
                  <path fill="none" stroke="white" stroke-width="1.5" d="M0,-3.0v7 M-2.5,-0.5L0,-3.0L2.5,-0.5"/>
                </g>
                <g id="arrowDown" xlink:href="#dirArrow" transform="rotate(180) translate(-30 -48)" onmousedown="handlePan(0,1)">
                  <use xlink:href="#rim" fill="#404040">
                        <set attributeName="fill" to="#808080" begin="arrowDown.mouseover" end="arrowDown.mouseout"/>
                  </use>
                  <path fill="none" stroke="white" stroke-width="1.5" d="M0,-3.0v7 M-2.5,-0.5L0,-3.0L2.5,-0.5"/>
                </g>
                <g id="arrowLeft" xlink:href="#dirArrow" transform="rotate(270) translate(-36 17)" onmousedown="handlePan(-1,0)">
                  <use xlink:href="#rim" fill="#404040">
                        <set attributeName="fill" to="#808080" begin="arrowLeft.mouseover" end="arrowLeft.mouseout"/>
                  </use>
                  <path fill="none" stroke="white" stroke-width="1.5" d="M0,-3.0v7 M-2.5,-0.5L0,-3.0L2.5,-0.5"/>
                </g>
        </g>
        <svg viewBox="0 0 15 15" width="100%" height="30px" preserveAspectRatio="xMaxYMin meet">
         <g id="arrow_out" transform="scale(0.3 0.3)">
          <a xlink:href="Component_8h__incl_org.svg" target="_base">
           <rect id="button" ry="5" rx="5" y="6" x="6" height="38" width="38"
                fill="#f2f5e9" fill-opacity="0.5" stroke="#606060" stroke-width="1.0"/>
           <path id="arrow"
             d="M 11.500037,31.436501 C 11.940474,20.09759 22.043105,11.32322 32.158766,21.979434 L 37.068811,17.246167 C 37.068811,17.246167 37.088388,32 37.088388,32 L 22.160133,31.978069 C 22.160133,31.978069 26.997745,27.140456 26.997745,27.140456 C 18.528582,18.264221 13.291696,25.230495 11.500037,31.436501 z"
             style="fill:#404040;"/>
          </a>
         </g>
        </svg>
</svg>
