<?xml version="1.0" encoding="UTF-8" standalone="no"?>
<!DOCTYPE svg PUBLIC "-//W3C//DTD SVG 1.1//EN"
 "http://www.w3.org/Graphics/SVG/1.1/DTD/svg11.dtd">
<!-- Generated by graphviz version 2.36.0 (20140111.2315)
 -->
<!-- Title: /home/travis/build/AliceO2Group/AliceO2/Utilities/Publishers/src/DataPublisherDevice.cxx Pages: 1 -->
<svg width="1467pt" height="422pt"
 viewBox="0.00 0.00 1467.00 422.00" xmlns="http://www.w3.org/2000/svg" xmlns:xlink="http://www.w3.org/1999/xlink">
<g id="graph0" class="graph" transform="scale(1 1) rotate(0) translate(4 418)">
<title>/home/travis/build/AliceO2Group/AliceO2/Utilities/Publishers/src/DataPublisherDevice.cxx</title>
<!-- Node1 -->
<g id="node1" class="node"><title>Node1</title>
<polygon fill="#bfbfbf" stroke="black" points="1053.5,-361 1053.5,-413 1200.5,-413 1200.5,-361 1053.5,-361"/>
<text text-anchor="start" x="1061.5" y="-401" font-family="Helvetica,sans-Serif" font-size="10.00">/home/travis/build</text>
<text text-anchor="start" x="1061.5" y="-390" font-family="Helvetica,sans-Serif" font-size="10.00">/AliceO2Group/AliceO2</text>
<text text-anchor="start" x="1061.5" y="-379" font-family="Helvetica,sans-Serif" font-size="10.00">/Utilities/Publishers</text>
<text text-anchor="middle" x="1127" y="-368" font-family="Helvetica,sans-Serif" font-size="10.00">/src/DataPublisherDevice.cxx</text>
</g>
<!-- Node2 -->
<g id="node2" class="node"><title>Node2</title>
<g id="a_node2"><a xlink:href="../../d8/d9b/DataPublisherDevice_8h.html" target="_top" xlink:title="Utility device for data publishing. ">
<polygon fill="none" stroke="black" points="1063.5,-293 1063.5,-323 1190.5,-323 1190.5,-293 1063.5,-293"/>
<text text-anchor="start" x="1071.5" y="-311" font-family="Helvetica,sans-Serif" font-size="10.00">Publishers/DataPublisher</text>
<text text-anchor="middle" x="1127" y="-300" font-family="Helvetica,sans-Serif" font-size="10.00">Device.h</text>
</a>
</g>
</g>
<!-- Node1&#45;&gt;Node2 -->
<g id="edge1" class="edge"><title>Node1&#45;&gt;Node2</title>
<path fill="none" stroke="midnightblue" d="M1127,-360.787C1127,-352.029 1127,-342.225 1127,-333.523"/>
<polygon fill="midnightblue" stroke="midnightblue" points="1130.5,-333.252 1127,-323.252 1123.5,-333.252 1130.5,-333.252"/>
</g>
<!-- Node3 -->
<g id="node3" class="node"><title>Node3</title>
<g id="a_node3"><a xlink:href="../../dc/dcd/DataHeader_8h.html" target="_top" xlink:title="Headers/DataHeader.h">
<polygon fill="none" stroke="black" points="909.5,-124.5 909.5,-143.5 1026.5,-143.5 1026.5,-124.5 909.5,-124.5"/>
<text text-anchor="middle" x="968" y="-131.5" font-family="Helvetica,sans-Serif" font-size="10.00">Headers/DataHeader.h</text>
</a>
</g>
</g>
<!-- Node1&#45;&gt;Node3 -->
<g id="edge40" class="edge"><title>Node1&#45;&gt;Node3</title>
<path fill="none" stroke="midnightblue" d="M1091.38,-360.978C1078.42,-350.619 1064.42,-337.799 1054,-324 1012.05,-268.451 984.452,-189.168 973.426,-153.562"/>
<polygon fill="midnightblue" stroke="midnightblue" points="976.667,-152.186 970.43,-143.621 969.964,-154.206 976.667,-152.186"/>
</g>
<!-- Node22 -->
<g id="node22" class="node"><title>Node22</title>
<g id="a_node22"><a xlink:href="../../d2/d09/HeartbeatFrame_8h.html" target="_top" xlink:title="Headers/HeartbeatFrame.h">
<polygon fill="none" stroke="black" points="1231.5,-236.5 1231.5,-255.5 1366.5,-255.5 1366.5,-236.5 1231.5,-236.5"/>
<text text-anchor="middle" x="1299" y="-243.5" font-family="Helvetica,sans-Serif" font-size="10.00">Headers/HeartbeatFrame.h</text>
</a>
</g>
</g>
<!-- Node1&#45;&gt;Node22 -->
<g id="edge41" class="edge"><title>Node1&#45;&gt;Node22</title>
<path fill="none" stroke="midnightblue" d="M1158.15,-360.828C1193.92,-331.919 1251.43,-285.447 1280.66,-261.822"/>
<polygon fill="midnightblue" stroke="midnightblue" points="1282.86,-264.54 1288.44,-255.532 1278.46,-259.096 1282.86,-264.54"/>
</g>
<!-- Node27 -->
<g id="node27" class="node"><title>Node27</title>
<polygon fill="none" stroke="#bfbfbf" points="371,-180.5 371,-199.5 517,-199.5 517,-180.5 371,-180.5"/>
<text text-anchor="middle" x="444" y="-187.5" font-family="Helvetica,sans-Serif" font-size="10.00">options/FairMQProgOptions.h</text>
</g>
<!-- Node1&#45;&gt;Node27 -->
<g id="edge44" class="edge"><title>Node1&#45;&gt;Node27</title>
<path fill="none" stroke="midnightblue" d="M1053.13,-368.46C955.95,-344.964 780.143,-300.992 632,-256 577.028,-239.305 514.111,-216.859 476.789,-203.187"/>
<polygon fill="midnightblue" stroke="midnightblue" points="477.563,-199.742 466.969,-199.575 475.146,-206.312 477.563,-199.742"/>
</g>
<!-- Node31 -->
<g id="node31" class="node"><title>Node31</title>
<g id="a_node31"><a xlink:href="../../d2/d1b/SubframeMetadata_8h.html" target="_top" xlink:title="Headers/SubframeMetadata.h">
<polygon fill="none" stroke="black" points="1311.5,-298.5 1311.5,-317.5 1458.5,-317.5 1458.5,-298.5 1311.5,-298.5"/>
<text text-anchor="middle" x="1385" y="-305.5" font-family="Helvetica,sans-Serif" font-size="10.00">Headers/SubframeMetadata.h</text>
</a>
</g>
</g>
<!-- Node1&#45;&gt;Node31 -->
<g id="edge42" class="edge"><title>Node1&#45;&gt;Node31</title>
<path fill="none" stroke="midnightblue" d="M1200.59,-364.038C1248.17,-349.838 1308.16,-331.932 1346.56,-320.472"/>
<polygon fill="midnightblue" stroke="midnightblue" points="1347.73,-323.776 1356.31,-317.562 1345.73,-317.068 1347.73,-323.776"/>
</g>
<!-- Node2&#45;&gt;Node3 -->
<g id="edge2" class="edge"><title>Node2&#45;&gt;Node3</title>
<path fill="none" stroke="midnightblue" d="M1114.59,-292.679C1093.91,-268.919 1050.9,-220.004 1013,-180 1003.69,-170.175 992.987,-159.449 984.355,-150.934"/>
<polygon fill="midnightblue" stroke="midnightblue" points="986.698,-148.33 977.109,-143.825 981.796,-153.327 986.698,-148.33"/>
</g>
<!-- Node7 -->
<g id="node7" class="node"><title>Node7</title>
<polygon fill="none" stroke="#bfbfbf" points="1142,-6.5 1142,-25.5 1188,-25.5 1188,-6.5 1142,-6.5"/>
<text text-anchor="middle" x="1165" y="-13.5" font-family="Helvetica,sans-Serif" font-size="10.00">cstring</text>
</g>
<!-- Node2&#45;&gt;Node7 -->
<g id="edge38" class="edge"><title>Node2&#45;&gt;Node7</title>
<path fill="none" stroke="midnightblue" d="M1128.88,-292.619C1135.18,-244.598 1155.46,-89.7757 1162.54,-35.784"/>
<polygon fill="midnightblue" stroke="midnightblue" points="1166.04,-35.9797 1163.87,-25.6096 1159.1,-35.0701 1166.04,-35.9797"/>
</g>
<!-- Node18 -->
<g id="node18" class="node"><title>Node18</title>
<polygon fill="none" stroke="#bfbfbf" points="1278,-6.5 1278,-25.5 1322,-25.5 1322,-6.5 1278,-6.5"/>
<text text-anchor="middle" x="1300" y="-13.5" font-family="Helvetica,sans-Serif" font-size="10.00">vector</text>
</g>
<!-- Node2&#45;&gt;Node18 -->
<g id="edge39" class="edge"><title>Node2&#45;&gt;Node18</title>
<path fill="none" stroke="midnightblue" d="M1144.25,-292.853C1166.67,-272.754 1203,-233.615 1203,-191 1203,-191 1203,-191 1203,-133 1203,-87.5183 1247.43,-50.4687 1276.15,-31.2688"/>
<polygon fill="midnightblue" stroke="midnightblue" points="1278.33,-34.028 1284.84,-25.6743 1274.54,-28.1409 1278.33,-34.028"/>
</g>
<!-- Node2&#45;&gt;Node22 -->
<g id="edge23" class="edge"><title>Node2&#45;&gt;Node22</title>
<path fill="none" stroke="midnightblue" d="M1167.33,-292.933C1196.95,-282.598 1236.76,-268.711 1264.83,-258.92"/>
<polygon fill="midnightblue" stroke="midnightblue" points="1266.31,-262.111 1274.6,-255.513 1264,-255.502 1266.31,-262.111"/>
</g>
<!-- Node25 -->
<g id="node25" class="node"><title>Node25</title>
<g id="a_node25"><a xlink:href="../../d2/dee/O2Device_8h.html" target="_top" xlink:title="O2Device/O2Device.h">
<polygon fill="none" stroke="black" points="641.5,-236.5 641.5,-255.5 756.5,-255.5 756.5,-236.5 641.5,-236.5"/>
<text text-anchor="middle" x="699" y="-243.5" font-family="Helvetica,sans-Serif" font-size="10.00">O2Device/O2Device.h</text>
</a>
</g>
</g>
<!-- Node2&#45;&gt;Node25 -->
<g id="edge28" class="edge"><title>Node2&#45;&gt;Node25</title>
<path fill="none" stroke="midnightblue" d="M1063.39,-298.082C983.886,-286.937 848.395,-267.943 766.929,-256.523"/>
<polygon fill="midnightblue" stroke="midnightblue" points="767.17,-253.022 756.781,-255.1 766.198,-259.955 767.17,-253.022"/>
</g>
<!-- Node4 -->
<g id="node4" class="node"><title>Node4</title>
<polygon fill="none" stroke="#bfbfbf" points="983,-68.5 983,-87.5 1029,-87.5 1029,-68.5 983,-68.5"/>
<text text-anchor="middle" x="1006" y="-75.5" font-family="Helvetica,sans-Serif" font-size="10.00">cstdint</text>
</g>
<!-- Node3&#45;&gt;Node4 -->
<g id="edge3" class="edge"><title>Node3&#45;&gt;Node4</title>
<path fill="none" stroke="midnightblue" d="M974.275,-124.083C979.642,-116.455 987.518,-105.264 994.079,-95.9408"/>
<polygon fill="midnightblue" stroke="midnightblue" points="996.949,-97.9434 999.842,-87.7511 991.225,-93.9149 996.949,-97.9434"/>
</g>
<!-- Node5 -->
<g id="node5" class="node"><title>Node5</title>
<polygon fill="none" stroke="#bfbfbf" points="1047,-68.5 1047,-87.5 1099,-87.5 1099,-68.5 1047,-68.5"/>
<text text-anchor="middle" x="1073" y="-75.5" font-family="Helvetica,sans-Serif" font-size="10.00">memory</text>
</g>
<!-- Node3&#45;&gt;Node5 -->
<g id="edge4" class="edge"><title>Node3&#45;&gt;Node5</title>
<path fill="none" stroke="midnightblue" d="M984.87,-124.324C1001.71,-115.664 1027.81,-102.242 1047.24,-92.249"/>
<polygon fill="midnightblue" stroke="midnightblue" points="1048.88,-95.3405 1056.17,-87.6545 1045.68,-89.1155 1048.88,-95.3405"/>
</g>
<!-- Node6 -->
<g id="node6" class="node"><title>Node6</title>
<polygon fill="none" stroke="#bfbfbf" points="803.5,-68.5 803.5,-87.5 852.5,-87.5 852.5,-68.5 803.5,-68.5"/>
<text text-anchor="middle" x="828" y="-75.5" font-family="Helvetica,sans-Serif" font-size="10.00">cassert</text>
</g>
<!-- Node3&#45;&gt;Node6 -->
<g id="edge5" class="edge"><title>Node3&#45;&gt;Node6</title>
<path fill="none" stroke="midnightblue" d="M945.817,-124.444C922.572,-115.478 885.851,-101.314 859.585,-91.1827"/>
<polygon fill="midnightblue" stroke="midnightblue" points="860.669,-87.8497 850.08,-87.5164 858.15,-94.3807 860.669,-87.8497"/>
</g>
<!-- Node3&#45;&gt;Node7 -->
<g id="edge6" class="edge"><title>Node3&#45;&gt;Node7</title>
<path fill="none" stroke="midnightblue" d="M1017.48,-124.47C1045.8,-117.862 1080.97,-106.596 1108,-88 1128.27,-74.0501 1144.97,-50.8081 1154.94,-34.7355"/>
<polygon fill="midnightblue" stroke="midnightblue" points="1158.15,-36.1859 1160.25,-25.8016 1152.13,-32.6085 1158.15,-36.1859"/>
</g>
<!-- Node8 -->
<g id="node8" class="node"><title>Node8</title>
<polygon fill="none" stroke="#bfbfbf" points="909,-68.5 909,-87.5 965,-87.5 965,-68.5 909,-68.5"/>
<text text-anchor="middle" x="937" y="-75.5" font-family="Helvetica,sans-Serif" font-size="10.00">algorithm</text>
</g>
<!-- Node3&#45;&gt;Node8 -->
<g id="edge7" class="edge"><title>Node3&#45;&gt;Node8</title>
<path fill="none" stroke="midnightblue" d="M962.881,-124.083C958.592,-116.613 952.342,-105.724 947.058,-96.5199"/>
<polygon fill="midnightblue" stroke="midnightblue" points="950.038,-94.6811 942.024,-87.7511 943.967,-98.1662 950.038,-94.6811"/>
</g>
<!-- Node9 -->
<g id="node9" class="node"><title>Node9</title>
<polygon fill="none" stroke="#bfbfbf" points="515.5,-68.5 515.5,-87.5 574.5,-87.5 574.5,-68.5 515.5,-68.5"/>
<text text-anchor="middle" x="545" y="-75.5" font-family="Helvetica,sans-Serif" font-size="10.00">stdexcept</text>
</g>
<!-- Node3&#45;&gt;Node9 -->
<g id="edge8" class="edge"><title>Node3&#45;&gt;Node9</title>
<path fill="none" stroke="midnightblue" d="M909.316,-128.277C835.631,-121.873 705.198,-108.967 584.921,-88.1764"/>
<polygon fill="midnightblue" stroke="midnightblue" points="585.257,-84.6819 574.803,-86.4042 584.049,-91.577 585.257,-84.6819"/>
</g>
<!-- Node10 -->
<g id="node10" class="node"><title>Node10</title>
<polygon fill="none" stroke="#bfbfbf" points="1082.5,-6.5 1082.5,-25.5 1123.5,-25.5 1123.5,-6.5 1082.5,-6.5"/>
<text text-anchor="middle" x="1103" y="-13.5" font-family="Helvetica,sans-Serif" font-size="10.00">string</text>
</g>
<!-- Node3&#45;&gt;Node10 -->
<g id="edge9" class="edge"><title>Node3&#45;&gt;Node10</title>
<path fill="none" stroke="midnightblue" d="M946.919,-124.46C920.813,-112.666 881.876,-90.3096 900,-68 949.245,-7.38083 998.075,-57.1967 1072,-32 1073.91,-31.349 1075.86,-30.6089 1077.79,-29.8146"/>
<polygon fill="midnightblue" stroke="midnightblue" points="1079.55,-32.8597 1087.23,-25.5519 1076.67,-26.4809 1079.55,-32.8597"/>
</g>
<!-- Node11 -->
<g id="node11" class="node"><title>Node11</title>
<g id="a_node11"><a xlink:href="../../dc/d03/MemoryResources_8h.html" target="_top" xlink:title="MemoryResources/MemoryResources.h">
<polygon fill="none" stroke="black" points="592.5,-68.5 592.5,-87.5 785.5,-87.5 785.5,-68.5 592.5,-68.5"/>
<text text-anchor="middle" x="689" y="-75.5" font-family="Helvetica,sans-Serif" font-size="10.00">MemoryResources/MemoryResources.h</text>
</a>
</g>
</g>
<!-- Node3&#45;&gt;Node11 -->
<g id="edge10" class="edge"><title>Node3&#45;&gt;Node11</title>
<path fill="none" stroke="midnightblue" d="M923.792,-124.444C874.713,-114.944 795.49,-99.611 742.836,-89.4198"/>
<polygon fill="midnightblue" stroke="midnightblue" points="743.484,-85.9805 733.002,-87.5164 742.154,-92.853 743.484,-85.9805"/>
</g>
<!-- Node11&#45;&gt;Node7 -->
<g id="edge15" class="edge"><title>Node11&#45;&gt;Node7</title>
<path fill="none" stroke="midnightblue" d="M780.331,-68.485C905.076,-56.7435 1115.29,-36.5156 1132,-32 1134.5,-31.3248 1137.05,-30.4795 1139.56,-29.5361"/>
<polygon fill="midnightblue" stroke="midnightblue" points="1141.1,-32.6866 1148.94,-25.564 1138.37,-26.2408 1141.1,-32.6866"/>
</g>
<!-- Node11&#45;&gt;Node10 -->
<g id="edge16" class="edge"><title>Node11&#45;&gt;Node10</title>
<path fill="none" stroke="midnightblue" d="M774.457,-68.4793C878.589,-57.8594 1044.16,-40.1198 1072,-32 1074.19,-31.3607 1076.42,-30.5783 1078.62,-29.7098"/>
<polygon fill="midnightblue" stroke="midnightblue" points="1080.26,-32.8126 1087.95,-25.5274 1077.39,-26.4253 1080.26,-32.8126"/>
</g>
<!-- Node12 -->
<g id="node12" class="node"><title>Node12</title>
<polygon fill="none" stroke="#bfbfbf" points="424,-1 424,-31 524,-31 524,-1 424,-1"/>
<text text-anchor="start" x="432" y="-19" font-family="Helvetica,sans-Serif" font-size="10.00">boost/container/flat</text>
<text text-anchor="middle" x="474" y="-8" font-family="Helvetica,sans-Serif" font-size="10.00">_map.hpp</text>
</g>
<!-- Node11&#45;&gt;Node12 -->
<g id="edge11" class="edge"><title>Node11&#45;&gt;Node12</title>
<path fill="none" stroke="midnightblue" d="M658.196,-68.4035C625.908,-59.393 574.36,-45.0075 533.996,-33.7432"/>
<polygon fill="midnightblue" stroke="midnightblue" points="534.83,-30.3422 524.257,-31.0253 532.949,-37.0846 534.83,-30.3422"/>
</g>
<!-- Node13 -->
<g id="node13" class="node"><title>Node13</title>
<polygon fill="none" stroke="#bfbfbf" points="542,-1 542,-31 658,-31 658,-1 542,-1"/>
<text text-anchor="start" x="550" y="-19" font-family="Helvetica,sans-Serif" font-size="10.00">boost/container/pmr</text>
<text text-anchor="middle" x="600" y="-8" font-family="Helvetica,sans-Serif" font-size="10.00">/memory_resource.hpp</text>
</g>
<!-- Node11&#45;&gt;Node13 -->
<g id="edge12" class="edge"><title>Node11&#45;&gt;Node13</title>
<path fill="none" stroke="midnightblue" d="M676.248,-68.4035C664.082,-60.2014 645.309,-47.5454 629.435,-36.8441"/>
<polygon fill="midnightblue" stroke="midnightblue" points="631.224,-33.8287 620.976,-31.1408 627.311,-39.6329 631.224,-33.8287"/>
</g>
<!-- Node14 -->
<g id="node14" class="node"><title>Node14</title>
<polygon fill="none" stroke="#bfbfbf" points="676,-1 676,-31 832,-31 832,-1 676,-1"/>
<text text-anchor="start" x="684" y="-19" font-family="Helvetica,sans-Serif" font-size="10.00">boost/container/pmr</text>
<text text-anchor="middle" x="754" y="-8" font-family="Helvetica,sans-Serif" font-size="10.00">/monotonic_buffer_resource.hpp</text>
</g>
<!-- Node11&#45;&gt;Node14 -->
<g id="edge13" class="edge"><title>Node11&#45;&gt;Node14</title>
<path fill="none" stroke="midnightblue" d="M698.313,-68.4035C706.869,-60.5051 719.9,-48.4768 731.206,-38.0409"/>
<polygon fill="midnightblue" stroke="midnightblue" points="733.707,-40.4955 738.681,-31.1408 728.959,-35.3518 733.707,-40.4955"/>
</g>
<!-- Node15 -->
<g id="node15" class="node"><title>Node15</title>
<polygon fill="none" stroke="#bfbfbf" points="850.5,-1 850.5,-31 983.5,-31 983.5,-1 850.5,-1"/>
<text text-anchor="start" x="858.5" y="-19" font-family="Helvetica,sans-Serif" font-size="10.00">boost/container/pmr</text>
<text text-anchor="middle" x="917" y="-8" font-family="Helvetica,sans-Serif" font-size="10.00">/polymorphic_allocator.hpp</text>
</g>
<!-- Node11&#45;&gt;Node15 -->
<g id="edge14" class="edge"><title>Node11&#45;&gt;Node15</title>
<path fill="none" stroke="midnightblue" d="M721.667,-68.4035C756.051,-59.3549 811.034,-44.8857 853.918,-33.6005"/>
<polygon fill="midnightblue" stroke="midnightblue" points="854.924,-36.9551 863.704,-31.0253 853.142,-30.1856 854.924,-36.9551"/>
</g>
<!-- Node16 -->
<g id="node16" class="node"><title>Node16</title>
<polygon fill="none" stroke="#bfbfbf" points="1002,-6.5 1002,-25.5 1064,-25.5 1064,-6.5 1002,-6.5"/>
<text text-anchor="middle" x="1033" y="-13.5" font-family="Helvetica,sans-Serif" font-size="10.00">type_traits</text>
</g>
<!-- Node11&#45;&gt;Node16 -->
<g id="edge17" class="edge"><title>Node11&#45;&gt;Node16</title>
<path fill="none" stroke="midnightblue" d="M779.109,-68.474C839.877,-61.543 921.519,-49.9278 992,-32 995.409,-31.1329 998.929,-30.0873 1002.41,-28.9563"/>
<polygon fill="midnightblue" stroke="midnightblue" points="1003.69,-32.217 1011.98,-25.6205 1001.38,-25.607 1003.69,-32.217"/>
</g>
<!-- Node17 -->
<g id="node17" class="node"><title>Node17</title>
<polygon fill="none" stroke="#bfbfbf" points="0,-6.5 0,-25.5 40,-25.5 40,-6.5 0,-6.5"/>
<text text-anchor="middle" x="20" y="-13.5" font-family="Helvetica,sans-Serif" font-size="10.00">utility</text>
</g>
<!-- Node11&#45;&gt;Node17 -->
<g id="edge18" class="edge"><title>Node11&#45;&gt;Node17</title>
<path fill="none" stroke="midnightblue" d="M592.243,-68.7149C589.126,-68.4704 586.039,-68.2314 583,-68 345.815,-49.9372 278.106,-95.9819 49,-32 47.0346,-31.4511 45.0485,-30.76 43.0863,-29.9775"/>
<polygon fill="midnightblue" stroke="midnightblue" points="44.2196,-26.6421 33.6823,-25.5387 41.2316,-32.9724 44.2196,-26.6421"/>
</g>
<!-- Node11&#45;&gt;Node18 -->
<g id="edge19" class="edge"><title>Node11&#45;&gt;Node18</title>
<path fill="none" stroke="midnightblue" d="M785.619,-68.5822C927.308,-56.2175 1176.94,-34.3474 1197,-32 1220.84,-29.2101 1247.68,-25.2765 1267.98,-22.1374"/>
<polygon fill="midnightblue" stroke="midnightblue" points="1268.61,-25.5815 1277.95,-20.5786 1267.53,-18.6655 1268.61,-25.5815"/>
</g>
<!-- Node19 -->
<g id="node19" class="node"><title>Node19</title>
<polygon fill="none" stroke="#bfbfbf" points="58.5,-6.5 58.5,-25.5 141.5,-25.5 141.5,-6.5 58.5,-6.5"/>
<text text-anchor="middle" x="100" y="-13.5" font-family="Helvetica,sans-Serif" font-size="10.00">unordered_map</text>
</g>
<!-- Node11&#45;&gt;Node19 -->
<g id="edge20" class="edge"><title>Node11&#45;&gt;Node19</title>
<path fill="none" stroke="midnightblue" d="M592.238,-68.7773C589.122,-68.5148 586.037,-68.2552 583,-68 390.57,-51.8314 339.735,-67.9398 150,-32 144.899,-31.0338 139.578,-29.7491 134.39,-28.3366"/>
<polygon fill="midnightblue" stroke="midnightblue" points="135.251,-24.9419 124.671,-25.5133 133.298,-31.664 135.251,-24.9419"/>
</g>
<!-- Node20 -->
<g id="node20" class="node"><title>Node20</title>
<polygon fill="none" stroke="#bfbfbf" points="159.5,-6.5 159.5,-25.5 256.5,-25.5 256.5,-6.5 159.5,-6.5"/>
<text text-anchor="middle" x="208" y="-13.5" font-family="Helvetica,sans-Serif" font-size="10.00">FairMQMessage.h</text>
</g>
<!-- Node11&#45;&gt;Node20 -->
<g id="edge21" class="edge"><title>Node11&#45;&gt;Node20</title>
<path fill="none" stroke="midnightblue" d="M592.463,-68.468C487.221,-58.8617 325.704,-43.1422 265,-32 259.133,-30.923 252.982,-29.5587 246.981,-28.0938"/>
<polygon fill="midnightblue" stroke="midnightblue" points="247.654,-24.6535 237.099,-25.5663 245.92,-31.4352 247.654,-24.6535"/>
</g>
<!-- Node21 -->
<g id="node21" class="node"><title>Node21</title>
<polygon fill="none" stroke="#bfbfbf" points="274.5,-6.5 274.5,-25.5 405.5,-25.5 405.5,-6.5 274.5,-6.5"/>
<text text-anchor="middle" x="340" y="-13.5" font-family="Helvetica,sans-Serif" font-size="10.00">FairMQTransportFactory.h</text>
</g>
<!-- Node11&#45;&gt;Node21 -->
<g id="edge22" class="edge"><title>Node11&#45;&gt;Node21</title>
<path fill="none" stroke="midnightblue" d="M633.537,-68.4681C578.118,-59.8072 490.528,-45.7506 415,-32 407.284,-30.5952 399.136,-29.0402 391.167,-27.4791"/>
<polygon fill="midnightblue" stroke="midnightblue" points="391.702,-24.0173 381.213,-25.5092 390.343,-30.8841 391.702,-24.0173"/>
</g>
<!-- Node22&#45;&gt;Node3 -->
<g id="edge24" class="edge"><title>Node22&#45;&gt;Node3</title>
<path fill="none" stroke="midnightblue" d="M1273.3,-236.46C1214.64,-216.966 1070.79,-169.159 1003.62,-146.839"/>
<polygon fill="midnightblue" stroke="midnightblue" points="1004.5,-143.443 993.909,-143.61 1002.3,-150.086 1004.5,-143.443"/>
</g>
<!-- Node22&#45;&gt;Node18 -->
<g id="edge27" class="edge"><title>Node22&#45;&gt;Node18</title>
<path fill="none" stroke="midnightblue" d="M1315.33,-236.387C1327.96,-228.72 1344.5,-216.213 1352,-200 1378.88,-141.915 1335.27,-66.9095 1312.49,-33.8815"/>
<polygon fill="midnightblue" stroke="midnightblue" points="1315.33,-31.8489 1306.69,-25.7281 1309.63,-35.9058 1315.33,-31.8489"/>
</g>
<!-- Node23 -->
<g id="node23" class="node"><title>Node23</title>
<polygon fill="none" stroke="#bfbfbf" points="1231.5,-180.5 1231.5,-199.5 1290.5,-199.5 1290.5,-180.5 1231.5,-180.5"/>
<text text-anchor="middle" x="1261" y="-187.5" font-family="Helvetica,sans-Serif" font-size="10.00">functional</text>
</g>
<!-- Node22&#45;&gt;Node23 -->
<g id="edge25" class="edge"><title>Node22&#45;&gt;Node23</title>
<path fill="none" stroke="midnightblue" d="M1292.73,-236.083C1287.36,-228.455 1279.48,-217.264 1272.92,-207.941"/>
<polygon fill="midnightblue" stroke="midnightblue" points="1275.78,-205.915 1267.16,-199.751 1270.05,-209.943 1275.78,-205.915"/>
</g>
<!-- Node24 -->
<g id="node24" class="node"><title>Node24</title>
<polygon fill="none" stroke="#bfbfbf" points="1308.5,-180.5 1308.5,-199.5 1343.5,-199.5 1343.5,-180.5 1308.5,-180.5"/>
<text text-anchor="middle" x="1326" y="-187.5" font-family="Helvetica,sans-Serif" font-size="10.00">map</text>
</g>
<!-- Node22&#45;&gt;Node24 -->
<g id="edge26" class="edge"><title>Node22&#45;&gt;Node24</title>
<path fill="none" stroke="midnightblue" d="M1303.46,-236.083C1307.15,-228.691 1312.52,-217.953 1317.09,-208.811"/>
<polygon fill="midnightblue" stroke="midnightblue" points="1320.28,-210.261 1321.62,-199.751 1314.02,-207.13 1320.28,-210.261"/>
</g>
<!-- Node25&#45;&gt;Node9 -->
<g id="edge37" class="edge"><title>Node25&#45;&gt;Node9</title>
<path fill="none" stroke="midnightblue" d="M643.19,-236.482C619.454,-230.151 593.315,-219.138 576,-200 550.019,-171.284 545.2,-123.754 544.662,-97.6294"/>
<polygon fill="midnightblue" stroke="midnightblue" points="548.162,-97.564 544.65,-87.5684 541.162,-97.5728 548.162,-97.564"/>
</g>
<!-- Node26 -->
<g id="node26" class="node"><title>Node26</title>
<polygon fill="none" stroke="#bfbfbf" points="707,-180.5 707,-199.5 795,-199.5 795,-180.5 707,-180.5"/>
<text text-anchor="middle" x="751" y="-187.5" font-family="Helvetica,sans-Serif" font-size="10.00">FairMQDevice.h</text>
</g>
<!-- Node25&#45;&gt;Node26 -->
<g id="edge29" class="edge"><title>Node25&#45;&gt;Node26</title>
<path fill="none" stroke="midnightblue" d="M707.587,-236.083C715.159,-228.22 726.378,-216.569 735.514,-207.081"/>
<polygon fill="midnightblue" stroke="midnightblue" points="738.158,-209.382 742.573,-199.751 733.115,-204.527 738.158,-209.382"/>
</g>
<!-- Node25&#45;&gt;Node27 -->
<g id="edge30" class="edge"><title>Node25&#45;&gt;Node27</title>
<path fill="none" stroke="midnightblue" d="M658.594,-236.444C614.017,-227.004 542.232,-211.802 494.108,-201.611"/>
<polygon fill="midnightblue" stroke="midnightblue" points="494.725,-198.164 484.216,-199.516 493.274,-205.012 494.725,-198.164"/>
</g>
<!-- Node28 -->
<g id="node28" class="node"><title>Node28</title>
<g id="a_node28"><a xlink:href="../../d7/db2/Utilities_8h.html" target="_top" xlink:title="O2Device/Utilities.h">
<polygon fill="none" stroke="black" points="585,-180.5 585,-199.5 689,-199.5 689,-180.5 585,-180.5"/>
<text text-anchor="middle" x="637" y="-187.5" font-family="Helvetica,sans-Serif" font-size="10.00">O2Device/Utilities.h</text>
</a>
</g>
</g>
<!-- Node25&#45;&gt;Node28 -->
<g id="edge31" class="edge"><title>Node25&#45;&gt;Node28</title>
<path fill="none" stroke="midnightblue" d="M689.039,-236.324C679.873,-228.341 666.063,-216.313 654.972,-206.653"/>
<polygon fill="midnightblue" stroke="midnightblue" points="656.982,-203.762 647.143,-199.834 652.385,-209.041 656.982,-203.762"/>
</g>
<!-- Node30 -->
<g id="node30" class="node"><title>Node30</title>
<polygon fill="none" stroke="#bfbfbf" points="813.5,-180.5 813.5,-199.5 964.5,-199.5 964.5,-180.5 813.5,-180.5"/>
<text text-anchor="middle" x="889" y="-187.5" font-family="Helvetica,sans-Serif" font-size="10.00">Monitoring/MonitoringFactory.h</text>
</g>
<!-- Node25&#45;&gt;Node30 -->
<g id="edge36" class="edge"><title>Node25&#45;&gt;Node30</title>
<path fill="none" stroke="midnightblue" d="M729.106,-236.444C761.626,-227.201 813.579,-212.436 849.391,-202.257"/>
<polygon fill="midnightblue" stroke="midnightblue" points="850.373,-205.617 859.035,-199.516 848.459,-198.884 850.373,-205.617"/>
</g>
<!-- Node28&#45;&gt;Node3 -->
<g id="edge33" class="edge"><title>Node28&#45;&gt;Node3</title>
<path fill="none" stroke="midnightblue" d="M689.083,-180.503C747.719,-170.937 842.952,-155.401 905.538,-145.19"/>
<polygon fill="midnightblue" stroke="midnightblue" points="906.369,-148.601 915.675,-143.536 905.242,-141.692 906.369,-148.601"/>
</g>
<!-- Node28&#45;&gt;Node11 -->
<g id="edge32" class="edge"><title>Node28&#45;&gt;Node11</title>
<path fill="none" stroke="midnightblue" d="M638.553,-180.233C641.045,-167.402 646.632,-142.976 656,-124 660.976,-113.92 668.221,-103.733 674.655,-95.6069"/>
<polygon fill="midnightblue" stroke="midnightblue" points="677.513,-97.6427 681.174,-87.7004 672.112,-93.1898 677.513,-97.6427"/>
</g>
<!-- Node28&#45;&gt;Node17 -->
<g id="edge34" class="edge"><title>Node28&#45;&gt;Node17</title>
<path fill="none" stroke="midnightblue" d="M592.071,-180.473C492.252,-160.785 245.346,-107.959 49,-32 47.4008,-31.3813 45.7747,-30.6994 44.1502,-29.9779"/>
<polygon fill="midnightblue" stroke="midnightblue" points="45.5905,-26.7866 35.0651,-25.5759 42.5382,-33.0861 45.5905,-26.7866"/>
</g>
<!-- Node29 -->
<g id="node29" class="node"><title>Node29</title>
<polygon fill="none" stroke="#bfbfbf" points="665.5,-124.5 665.5,-143.5 710.5,-143.5 710.5,-124.5 665.5,-124.5"/>
<text text-anchor="middle" x="688" y="-131.5" font-family="Helvetica,sans-Serif" font-size="10.00">gsl/gsl</text>
</g>
<!-- Node28&#45;&gt;Node29 -->
<g id="edge35" class="edge"><title>Node28&#45;&gt;Node29</title>
<path fill="none" stroke="midnightblue" d="M645.422,-180.083C652.848,-172.22 663.852,-160.569 672.812,-151.081"/>
<polygon fill="midnightblue" stroke="midnightblue" points="675.413,-153.424 679.735,-143.751 670.324,-148.618 675.413,-153.424"/>
</g>
<!-- Node31&#45;&gt;Node18 -->
<g id="edge43" class="edge"><title>Node31&#45;&gt;Node18</title>
<path fill="none" stroke="midnightblue" d="M1388.17,-298.406C1394.89,-279.351 1410,-231.997 1410,-191 1410,-191 1410,-191 1410,-133 1410,-85.0053 1359.81,-48.9202 1327.23,-30.5551"/>
<polygon fill="midnightblue" stroke="midnightblue" points="1328.62,-27.329 1318.16,-25.6401 1325.29,-33.4829 1328.62,-27.329"/>
</g>
</g>
</svg>
