<?xml version="1.0" encoding="UTF-8" standalone="no"?>
<!DOCTYPE svg PUBLIC "-//W3C//DTD SVG 1.1//EN"
 "http://www.w3.org/Graphics/SVG/1.1/DTD/svg11.dtd">
<!-- Generated by graphviz version 2.36.0 (20140111.2315)
 -->
<!-- Title: /home/travis/build/AliceO2Group/AliceO2/Algorithm/test/o2formatparser.cxx Pages: 1 -->
<!--zoomable 354 -->
<svg id="main" version="1.1" xmlns="http://www.w3.org/2000/svg" xmlns:xlink="http://www.w3.org/1999/xlink" xml:space="preserve" onload="init(evt)">
<style type="text/css"><![CDATA[
.edge:hover path { stroke: red; }
.edge:hover polygon { stroke: red; fill: red; }
]]></style>
<script type="text/javascript"><![CDATA[
var edges = document.getElementsByTagName('g');
if (edges && edges.length) {
  for (var i=0;i<edges.length;i++) {
    if (edges[i].id.substr(0,4)=='edge') {
      edges[i].setAttribute('class','edge');
    }
  }
}
]]></script>
        <defs>
                <circle id="rim" cx="0" cy="0" r="7"/>
                <circle id="rim2" cx="0" cy="0" r="3.5"/>
                <g id="zoomPlus">
                        <use xlink:href="#rim" fill="#404040">
                                <set attributeName="fill" to="#808080" begin="zoomplus.mouseover" end="zoomplus.mouseout"/>
                        </use>
                        <path d="M-4,0h8M0,-4v8" fill="none" stroke="white" stroke-width="1.5" pointer-events="none"/>
                </g>
                <g id="zoomMin">
                        <use xlink:href="#rim" fill="#404040">
                                <set attributeName="fill" to="#808080" begin="zoomminus.mouseover" end="zoomminus.mouseout"/>
                        </use>
                        <path d="M-4,0h8" fill="none" stroke="white" stroke-width="1.5" pointer-events="none"/>
                </g>
                <g id="dirArrow">
                        <path fill="none" stroke="white" stroke-width="1.5" d="M0,-3.0v7 M-2.5,-0.5L0,-3.0L2.5,-0.5"/>
                </g>
               <g id="resetDef">
                       <use xlink:href="#rim2" fill="#404040">
                               <set attributeName="fill" to="#808080" begin="reset.mouseover" end="reset.mouseout"/>
                       </use>
               </g>
        </defs>

<script type="text/javascript">
var viewWidth = 1257;
var viewHeight = 354;
var sectionId = 'dynsection-0';
</script>
<script xlink:href="../../svgpan.js"/>
<svg id="graph" class="graph">
<g id="viewport">
<title>/home/travis/build/AliceO2Group/AliceO2/Algorithm/test/o2formatparser.cxx</title>
<!-- Node1 -->
<g id="node1" class="node"><title>Node1</title>
<polygon fill="#bfbfbf" stroke="black" points="406.5,-304.5 406.5,-345.5 573.5,-345.5 573.5,-304.5 406.5,-304.5"/>
<text text-anchor="start" x="414.5" y="-333.5" font-family="Helvetica,sans-Serif" font-size="10.00">/home/travis/build</text>
<text text-anchor="start" x="414.5" y="-322.5" font-family="Helvetica,sans-Serif" font-size="10.00">/AliceO2Group/AliceO2</text>
<text text-anchor="middle" x="490" y="-311.5" font-family="Helvetica,sans-Serif" font-size="10.00">/Algorithm/test/o2formatparser.cxx</text>
</g>
<!-- Node2 -->
<g id="node2" class="node"><title>Node2</title>
<polygon fill="none" stroke="#bfbfbf" points="229.5,-242.5 229.5,-261.5 348.5,-261.5 348.5,-242.5 229.5,-242.5"/>
<text text-anchor="middle" x="289" y="-249.5" font-family="Helvetica,sans-Serif" font-size="10.00">boost/test/unit_test.hpp</text>
</g>
<!-- Node1&#45;&gt;Node2 -->
<g id="edge1" class="edge"><title>Node1&#45;&gt;Node2</title>
<path fill="none" stroke="midnightblue" d="M434.544,-304.411C398.735,-291.762 353.306,-275.715 322.81,-264.943"/>
<polygon fill="midnightblue" stroke="midnightblue" points="323.671,-261.535 313.076,-261.504 321.339,-268.135 323.671,-261.535"/>
</g>
<!-- Node3 -->
<g id="node3" class="node"><title>Node3</title>
<polygon fill="none" stroke="#bfbfbf" points="367,-242.5 367,-261.5 421,-261.5 421,-242.5 367,-242.5"/>
<text text-anchor="middle" x="394" y="-249.5" font-family="Helvetica,sans-Serif" font-size="10.00">iostream</text>
</g>
<!-- Node1&#45;&gt;Node3 -->
<g id="edge2" class="edge"><title>Node1&#45;&gt;Node3</title>
<path fill="none" stroke="midnightblue" d="M463.513,-304.411C447.795,-292.786 428.196,-278.291 413.819,-267.658"/>
<polygon fill="midnightblue" stroke="midnightblue" points="415.745,-264.729 405.624,-261.597 411.583,-270.357 415.745,-264.729"/>
</g>
<!-- Node4 -->
<g id="node4" class="node"><title>Node4</title>
<polygon fill="none" stroke="#bfbfbf" points="439,-242.5 439,-261.5 489,-261.5 489,-242.5 439,-242.5"/>
<text text-anchor="middle" x="464" y="-249.5" font-family="Helvetica,sans-Serif" font-size="10.00">iomanip</text>
</g>
<!-- Node1&#45;&gt;Node4 -->
<g id="edge3" class="edge"><title>Node1&#45;&gt;Node4</title>
<path fill="none" stroke="midnightblue" d="M482.758,-304.223C478.966,-293.868 474.355,-281.278 470.654,-271.171"/>
<polygon fill="midnightblue" stroke="midnightblue" points="473.924,-269.922 467.199,-261.735 467.351,-272.329 473.924,-269.922"/>
</g>
<!-- Node5 -->
<g id="node5" class="node"><title>Node5</title>
<polygon fill="none" stroke="#bfbfbf" points="1203,-6.5 1203,-25.5 1249,-25.5 1249,-6.5 1203,-6.5"/>
<text text-anchor="middle" x="1226" y="-13.5" font-family="Helvetica,sans-Serif" font-size="10.00">cstring</text>
</g>
<!-- Node1&#45;&gt;Node5 -->
<g id="edge4" class="edge"><title>Node1&#45;&gt;Node5</title>
<path fill="none" stroke="midnightblue" d="M573.827,-324.293C750.3,-322.643 1144,-306.069 1144,-191 1144,-191 1144,-191 1144,-133 1144,-90.2008 1181.68,-52.1221 1205.96,-32.0315"/>
<polygon fill="midnightblue" stroke="midnightblue" points="1208.26,-34.6683 1213.9,-25.6971 1203.9,-29.1952 1208.26,-34.6683"/>
</g>
<!-- Node6 -->
<g id="node6" class="node"><title>Node6</title>
<g id="a_node6"><a xlink:href="../../dc/dcd/DataHeader_8h.html" target="_top" xlink:title="Headers/DataHeader.h">
<polygon fill="none" stroke="black" points="458.5,-124.5 458.5,-143.5 575.5,-143.5 575.5,-124.5 458.5,-124.5"/>
<text text-anchor="middle" x="517" y="-131.5" font-family="Helvetica,sans-Serif" font-size="10.00">Headers/DataHeader.h</text>
</a>
</g>
</g>
<!-- Node1&#45;&gt;Node6 -->
<g id="edge5" class="edge"><title>Node1&#45;&gt;Node6</title>
<path fill="none" stroke="midnightblue" d="M492.788,-304.486C498.016,-267.891 509.225,-189.425 514.348,-153.567"/>
<polygon fill="midnightblue" stroke="midnightblue" points="517.832,-153.923 515.782,-143.529 510.902,-152.933 517.832,-153.923"/>
</g>
<!-- Node24 -->
<g id="node24" class="node"><title>Node24</title>
<g id="a_node24"><a xlink:href="../../dd/d87/O2FormatParser_8h.html" target="_top" xlink:title="Parser for the O2 data format. ">
<polygon fill="none" stroke="black" points="545.5,-237 545.5,-267 646.5,-267 646.5,-237 545.5,-237"/>
<text text-anchor="start" x="553.5" y="-255" font-family="Helvetica,sans-Serif" font-size="10.00">../include/Algorithm</text>
<text text-anchor="middle" x="596" y="-244" font-family="Helvetica,sans-Serif" font-size="10.00">/O2FormatParser.h</text>
</a>
</g>
</g>
<!-- Node1&#45;&gt;Node24 -->
<g id="edge26" class="edge"><title>Node1&#45;&gt;Node24</title>
<path fill="none" stroke="midnightblue" d="M519.246,-304.411C533.861,-294.622 551.515,-282.797 566.205,-272.957"/>
<polygon fill="midnightblue" stroke="midnightblue" points="568.555,-275.596 574.915,-267.123 564.659,-269.78 568.555,-275.596"/>
</g>
<!-- Node6&#45;&gt;Node5 -->
<g id="edge9" class="edge"><title>Node6&#45;&gt;Node5</title>
<path fill="none" stroke="midnightblue" d="M575.656,-129.92C694.473,-122.451 971.144,-98.7895 1193,-32 1195.34,-31.2959 1197.73,-30.4605 1200.1,-29.5498"/>
<polygon fill="midnightblue" stroke="midnightblue" points="1201.72,-32.6631 1209.55,-25.5257 1198.98,-26.2224 1201.72,-32.6631"/>
</g>
<!-- Node7 -->
<g id="node7" class="node"><title>Node7</title>
<polygon fill="none" stroke="#bfbfbf" points="287,-68.5 287,-87.5 333,-87.5 333,-68.5 287,-68.5"/>
<text text-anchor="middle" x="310" y="-75.5" font-family="Helvetica,sans-Serif" font-size="10.00">cstdint</text>
</g>
<!-- Node6&#45;&gt;Node7 -->
<g id="edge6" class="edge"><title>Node6&#45;&gt;Node7</title>
<path fill="none" stroke="midnightblue" d="M482.737,-124.432C449.414,-116.045 397.119,-102.742 342.848,-88.1857"/>
<polygon fill="midnightblue" stroke="midnightblue" points="343.621,-84.7692 333.055,-85.551 341.802,-91.5289 343.621,-84.7692"/>
</g>
<!-- Node8 -->
<g id="node8" class="node"><title>Node8</title>
<polygon fill="none" stroke="#bfbfbf" points="351,-68.5 351,-87.5 403,-87.5 403,-68.5 351,-68.5"/>
<text text-anchor="middle" x="377" y="-75.5" font-family="Helvetica,sans-Serif" font-size="10.00">memory</text>
</g>
<!-- Node6&#45;&gt;Node8 -->
<g id="edge7" class="edge"><title>Node6&#45;&gt;Node8</title>
<path fill="none" stroke="midnightblue" d="M494.817,-124.444C471.572,-115.478 434.851,-101.314 408.585,-91.1827"/>
<polygon fill="midnightblue" stroke="midnightblue" points="409.669,-87.8497 399.08,-87.5164 407.15,-94.3807 409.669,-87.8497"/>
</g>
<!-- Node9 -->
<g id="node9" class="node"><title>Node9</title>
<polygon fill="none" stroke="#bfbfbf" points="421.5,-68.5 421.5,-87.5 470.5,-87.5 470.5,-68.5 421.5,-68.5"/>
<text text-anchor="middle" x="446" y="-75.5" font-family="Helvetica,sans-Serif" font-size="10.00">cassert</text>
</g>
<!-- Node6&#45;&gt;Node9 -->
<g id="edge8" class="edge"><title>Node6&#45;&gt;Node9</title>
<path fill="none" stroke="midnightblue" d="M505.593,-124.324C494.891,-116.185 478.659,-103.839 465.837,-94.0874"/>
<polygon fill="midnightblue" stroke="midnightblue" points="467.693,-91.1018 457.615,-87.8339 463.456,-96.6734 467.693,-91.1018"/>
</g>
<!-- Node10 -->
<g id="node10" class="node"><title>Node10</title>
<polygon fill="none" stroke="#bfbfbf" points="489,-68.5 489,-87.5 545,-87.5 545,-68.5 489,-68.5"/>
<text text-anchor="middle" x="517" y="-75.5" font-family="Helvetica,sans-Serif" font-size="10.00">algorithm</text>
</g>
<!-- Node6&#45;&gt;Node10 -->
<g id="edge10" class="edge"><title>Node6&#45;&gt;Node10</title>
<path fill="none" stroke="midnightblue" d="M517,-124.083C517,-117.006 517,-106.861 517,-97.9865"/>
<polygon fill="midnightblue" stroke="midnightblue" points="520.5,-97.751 517,-87.7511 513.5,-97.7511 520.5,-97.751"/>
</g>
<!-- Node11 -->
<g id="node11" class="node"><title>Node11</title>
<polygon fill="none" stroke="#bfbfbf" points="563.5,-68.5 563.5,-87.5 622.5,-87.5 622.5,-68.5 563.5,-68.5"/>
<text text-anchor="middle" x="593" y="-75.5" font-family="Helvetica,sans-Serif" font-size="10.00">stdexcept</text>
</g>
<!-- Node6&#45;&gt;Node11 -->
<g id="edge11" class="edge"><title>Node6&#45;&gt;Node11</title>
<path fill="none" stroke="midnightblue" d="M529.211,-124.324C540.776,-116.107 558.375,-103.602 572.161,-93.8069"/>
<polygon fill="midnightblue" stroke="midnightblue" points="574.443,-96.4791 580.567,-87.8339 570.388,-90.7729 574.443,-96.4791"/>
</g>
<!-- Node12 -->
<g id="node12" class="node"><title>Node12</title>
<polygon fill="none" stroke="#bfbfbf" points="-0.5,-6.5 -0.5,-25.5 40.5,-25.5 40.5,-6.5 -0.5,-6.5"/>
<text text-anchor="middle" x="20" y="-13.5" font-family="Helvetica,sans-Serif" font-size="10.00">string</text>
</g>
<!-- Node6&#45;&gt;Node12 -->
<g id="edge12" class="edge"><title>Node6&#45;&gt;Node12</title>
<path fill="none" stroke="midnightblue" d="M458.387,-125.669C368.442,-113.241 191.896,-84.1576 50,-32 48.3467,-31.3923 46.6652,-30.7187 44.9853,-30.0034"/>
<polygon fill="midnightblue" stroke="midnightblue" points="46.1301,-26.6753 35.5883,-25.617 43.1693,-33.0183 46.1301,-26.6753"/>
</g>
<!-- Node13 -->
<g id="node13" class="node"><title>Node13</title>
<g id="a_node13"><a xlink:href="../../dc/d03/MemoryResources_8h.html" target="_top" xlink:title="MemoryResources/MemoryResources.h">
<polygon fill="none" stroke="black" points="640.5,-68.5 640.5,-87.5 833.5,-87.5 833.5,-68.5 640.5,-68.5"/>
<text text-anchor="middle" x="737" y="-75.5" font-family="Helvetica,sans-Serif" font-size="10.00">MemoryResources/MemoryResources.h</text>
</a>
</g>
</g>
<!-- Node6&#45;&gt;Node13 -->
<g id="edge13" class="edge"><title>Node6&#45;&gt;Node13</title>
<path fill="none" stroke="midnightblue" d="M551.86,-124.444C589.916,-115.102 650.958,-100.119 692.46,-89.9326"/>
<polygon fill="midnightblue" stroke="midnightblue" points="693.426,-93.2994 702.303,-87.5164 691.757,-86.5012 693.426,-93.2994"/>
</g>
<!-- Node13&#45;&gt;Node5 -->
<g id="edge18" class="edge"><title>Node13&#45;&gt;Node5</title>
<path fill="none" stroke="midnightblue" d="M833.834,-76.5806C927.284,-74.0526 1072,-64.5126 1193,-32 1195.5,-31.3284 1198.05,-30.4855 1200.56,-29.5436"/>
<polygon fill="midnightblue" stroke="midnightblue" points="1202.1,-32.6947 1209.94,-25.5738 1199.37,-26.2483 1202.1,-32.6947"/>
</g>
<!-- Node13&#45;&gt;Node12 -->
<g id="edge19" class="edge"><title>Node13&#45;&gt;Node12</title>
<path fill="none" stroke="midnightblue" d="M640.244,-68.6933C637.127,-68.4549 634.039,-68.2232 631,-68 501.989,-58.5274 174.919,-65.6012 50,-32 47.8069,-31.4101 45.5858,-30.6518 43.3961,-29.7901"/>
<polygon fill="midnightblue" stroke="midnightblue" points="44.7294,-26.5509 34.1817,-25.5523 41.8044,-32.9106 44.7294,-26.5509"/>
</g>
<!-- Node14 -->
<g id="node14" class="node"><title>Node14</title>
<polygon fill="none" stroke="#bfbfbf" points="59,-1 59,-31 159,-31 159,-1 59,-1"/>
<text text-anchor="start" x="67" y="-19" font-family="Helvetica,sans-Serif" font-size="10.00">boost/container/flat</text>
<text text-anchor="middle" x="109" y="-8" font-family="Helvetica,sans-Serif" font-size="10.00">_map.hpp</text>
</g>
<!-- Node13&#45;&gt;Node14 -->
<g id="edge14" class="edge"><title>Node13&#45;&gt;Node14</title>
<path fill="none" stroke="midnightblue" d="M640.24,-68.756C637.124,-68.4996 634.037,-68.247 631,-68 428.595,-51.5387 373.421,-65.0991 169.241,-32.0193"/>
<polygon fill="midnightblue" stroke="midnightblue" points="169.523,-28.5189 159.089,-30.3562 168.391,-35.4268 169.523,-28.5189"/>
</g>
<!-- Node15 -->
<g id="node15" class="node"><title>Node15</title>
<polygon fill="none" stroke="#bfbfbf" points="177,-1 177,-31 293,-31 293,-1 177,-1"/>
<text text-anchor="start" x="185" y="-19" font-family="Helvetica,sans-Serif" font-size="10.00">boost/container/pmr</text>
<text text-anchor="middle" x="235" y="-8" font-family="Helvetica,sans-Serif" font-size="10.00">/memory_resource.hpp</text>
</g>
<!-- Node13&#45;&gt;Node15 -->
<g id="edge15" class="edge"><title>Node13&#45;&gt;Node15</title>
<path fill="none" stroke="midnightblue" d="M641.888,-68.4749C538.954,-59.0263 380.276,-43.7603 303.325,-32.0543"/>
<polygon fill="midnightblue" stroke="midnightblue" points="303.447,-28.5303 293.024,-30.4271 302.355,-35.4446 303.447,-28.5303"/>
</g>
<!-- Node16 -->
<g id="node16" class="node"><title>Node16</title>
<polygon fill="none" stroke="#bfbfbf" points="311,-1 311,-31 467,-31 467,-1 311,-1"/>
<text text-anchor="start" x="319" y="-19" font-family="Helvetica,sans-Serif" font-size="10.00">boost/container/pmr</text>
<text text-anchor="middle" x="389" y="-8" font-family="Helvetica,sans-Serif" font-size="10.00">/monotonic_buffer_resource.hpp</text>
</g>
<!-- Node13&#45;&gt;Node16 -->
<g id="edge16" class="edge"><title>Node13&#45;&gt;Node16</title>
<path fill="none" stroke="midnightblue" d="M687.51,-68.4672C632.893,-59.0505 543.905,-43.7078 477.275,-32.2198"/>
<polygon fill="midnightblue" stroke="midnightblue" points="477.647,-28.7324 467.198,-30.4824 476.458,-35.6307 477.647,-28.7324"/>
</g>
<!-- Node17 -->
<g id="node17" class="node"><title>Node17</title>
<polygon fill="none" stroke="#bfbfbf" points="485.5,-1 485.5,-31 618.5,-31 618.5,-1 485.5,-1"/>
<text text-anchor="start" x="493.5" y="-19" font-family="Helvetica,sans-Serif" font-size="10.00">boost/container/pmr</text>
<text text-anchor="middle" x="552" y="-8" font-family="Helvetica,sans-Serif" font-size="10.00">/polymorphic_allocator.hpp</text>
</g>
<!-- Node13&#45;&gt;Node17 -->
<g id="edge17" class="edge"><title>Node13&#45;&gt;Node17</title>
<path fill="none" stroke="midnightblue" d="M710.494,-68.4035C683.123,-59.5263 639.666,-45.4321 605.173,-34.2453"/>
<polygon fill="midnightblue" stroke="midnightblue" points="605.837,-30.7811 595.245,-31.0253 603.677,-37.4397 605.837,-30.7811"/>
</g>
<!-- Node18 -->
<g id="node18" class="node"><title>Node18</title>
<polygon fill="none" stroke="#bfbfbf" points="637,-6.5 637,-25.5 699,-25.5 699,-6.5 637,-6.5"/>
<text text-anchor="middle" x="668" y="-13.5" font-family="Helvetica,sans-Serif" font-size="10.00">type_traits</text>
</g>
<!-- Node13&#45;&gt;Node18 -->
<g id="edge20" class="edge"><title>Node13&#45;&gt;Node18</title>
<path fill="none" stroke="midnightblue" d="M727.114,-68.4035C716.354,-59.047 698.929,-43.8948 685.779,-32.4599"/>
<polygon fill="midnightblue" stroke="midnightblue" points="687.71,-29.5013 677.868,-25.5806 683.117,-34.7835 687.71,-29.5013"/>
</g>
<!-- Node19 -->
<g id="node19" class="node"><title>Node19</title>
<polygon fill="none" stroke="#bfbfbf" points="717,-6.5 717,-25.5 757,-25.5 757,-6.5 717,-6.5"/>
<text text-anchor="middle" x="737" y="-13.5" font-family="Helvetica,sans-Serif" font-size="10.00">utility</text>
</g>
<!-- Node13&#45;&gt;Node19 -->
<g id="edge21" class="edge"><title>Node13&#45;&gt;Node19</title>
<path fill="none" stroke="midnightblue" d="M737,-68.4035C737,-59.9381 737,-46.7283 737,-35.8199"/>
<polygon fill="midnightblue" stroke="midnightblue" points="740.5,-35.5806 737,-25.5806 733.5,-35.5806 740.5,-35.5806"/>
</g>
<!-- Node20 -->
<g id="node20" class="node"><title>Node20</title>
<polygon fill="none" stroke="#bfbfbf" points="775,-6.5 775,-25.5 819,-25.5 819,-6.5 775,-6.5"/>
<text text-anchor="middle" x="797" y="-13.5" font-family="Helvetica,sans-Serif" font-size="10.00">vector</text>
</g>
<!-- Node13&#45;&gt;Node20 -->
<g id="edge22" class="edge"><title>Node13&#45;&gt;Node20</title>
<path fill="none" stroke="midnightblue" d="M745.597,-68.4035C754.864,-59.1361 769.817,-44.1828 781.212,-32.7876"/>
<polygon fill="midnightblue" stroke="midnightblue" points="783.823,-35.1266 788.419,-25.5806 778.873,-30.1768 783.823,-35.1266"/>
</g>
<!-- Node21 -->
<g id="node21" class="node"><title>Node21</title>
<polygon fill="none" stroke="#bfbfbf" points="837.5,-6.5 837.5,-25.5 920.5,-25.5 920.5,-6.5 837.5,-6.5"/>
<text text-anchor="middle" x="879" y="-13.5" font-family="Helvetica,sans-Serif" font-size="10.00">unordered_map</text>
</g>
<!-- Node13&#45;&gt;Node21 -->
<g id="edge23" class="edge"><title>Node13&#45;&gt;Node21</title>
<path fill="none" stroke="midnightblue" d="M757.345,-68.4035C781.387,-58.245 821.597,-41.2547 849.163,-29.6074"/>
<polygon fill="midnightblue" stroke="midnightblue" points="850.843,-32.6968 858.693,-25.5806 848.119,-26.2488 850.843,-32.6968"/>
</g>
<!-- Node22 -->
<g id="node22" class="node"><title>Node22</title>
<polygon fill="none" stroke="#bfbfbf" points="938.5,-6.5 938.5,-25.5 1035.5,-25.5 1035.5,-6.5 938.5,-6.5"/>
<text text-anchor="middle" x="987" y="-13.5" font-family="Helvetica,sans-Serif" font-size="10.00">FairMQMessage.h</text>
</g>
<!-- Node13&#45;&gt;Node22 -->
<g id="edge24" class="edge"><title>Node13&#45;&gt;Node22</title>
<path fill="none" stroke="midnightblue" d="M774.587,-68.4578C813.338,-59.5884 875.481,-45.1906 929,-32 934.046,-30.7563 939.332,-29.4267 944.572,-28.092"/>
<polygon fill="midnightblue" stroke="midnightblue" points="945.7,-31.4159 954.517,-25.5404 943.961,-24.6355 945.7,-31.4159"/>
</g>
<!-- Node23 -->
<g id="node23" class="node"><title>Node23</title>
<polygon fill="none" stroke="#bfbfbf" points="1053.5,-6.5 1053.5,-25.5 1184.5,-25.5 1184.5,-6.5 1053.5,-6.5"/>
<text text-anchor="middle" x="1119" y="-13.5" font-family="Helvetica,sans-Serif" font-size="10.00">FairMQTransportFactory.h</text>
</g>
<!-- Node13&#45;&gt;Node23 -->
<g id="edge25" class="edge"><title>Node13&#45;&gt;Node23</title>
<path fill="none" stroke="midnightblue" d="M801.839,-68.4901C864.08,-60.0864 960.667,-46.4307 1044,-32 1051.82,-30.6459 1060.08,-29.1064 1068.14,-27.5421"/>
<polygon fill="midnightblue" stroke="midnightblue" points="1069.07,-30.9267 1078.2,-25.5592 1067.71,-24.0588 1069.07,-30.9267"/>
</g>
<!-- Node25 -->
<g id="node25" class="node"><title>Node25</title>
<g id="a_node25"><a xlink:href="../../d5/d11/HeaderStack_8h.html" target="_top" xlink:title="Utilities for the O2 header stack. ">
<polygon fill="none" stroke="black" points="550,-180.5 550,-199.5 632,-199.5 632,-180.5 550,-180.5"/>
<text text-anchor="middle" x="591" y="-187.5" font-family="Helvetica,sans-Serif" font-size="10.00">HeaderStack.h</text>
</a>
</g>
</g>
<!-- Node24&#45;&gt;Node25 -->
<g id="edge27" class="edge"><title>Node24&#45;&gt;Node25</title>
<path fill="none" stroke="midnightblue" d="M594.815,-236.781C594.141,-228.691 593.288,-218.462 592.56,-209.725"/>
<polygon fill="midnightblue" stroke="midnightblue" points="596.046,-209.405 591.728,-199.731 589.07,-209.987 596.046,-209.405"/>
</g>
<!-- Node25&#45;&gt;Node6 -->
<g id="edge28" class="edge"><title>Node25&#45;&gt;Node6</title>
<path fill="none" stroke="midnightblue" d="M579.111,-180.324C567.85,-172.107 550.713,-159.602 537.291,-149.807"/>
<polygon fill="midnightblue" stroke="midnightblue" points="539.247,-146.901 529.106,-143.834 535.12,-152.556 539.247,-146.901"/>
</g>
</g>
</svg>
        <g id="navigator" transform="translate(0 0)" fill="#404254">
                <rect fill="#f2f5e9" fill-opacity="0.5" stroke="#606060" stroke-width=".5" x="0" y="0" width="60" height="60"/>
                <use id="zoomplus" xlink:href="#zoomPlus" x="17" y="9" onmousedown="handleZoom(evt,'in')"/>
                <use id="zoomminus" xlink:href="#zoomMin" x="42" y="9" onmousedown="handleZoom(evt,'out')"/>
                <use id="reset" xlink:href="#resetDef" x="30" y="36" onmousedown="handleReset()"/>
                <g id="arrowUp" xlink:href="#dirArrow" transform="translate(30 24)" onmousedown="handlePan(0,-1)">
                  <use xlink:href="#rim" fill="#404040">
                        <set attributeName="fill" to="#808080" begin="arrowUp.mouseover" end="arrowUp.mouseout"/>
                  </use>
                  <path fill="none" stroke="white" stroke-width="1.5" d="M0,-3.0v7 M-2.5,-0.5L0,-3.0L2.5,-0.5"/>
                </g>
                <g id="arrowRight" xlink:href="#dirArrow" transform="rotate(90) translate(36 -43)" onmousedown="handlePan(1,0)">
                  <use xlink:href="#rim" fill="#404040">
                        <set attributeName="fill" to="#808080" begin="arrowRight.mouseover" end="arrowRight.mouseout"/>
                  </use>
                  <path fill="none" stroke="white" stroke-width="1.5" d="M0,-3.0v7 M-2.5,-0.5L0,-3.0L2.5,-0.5"/>
                </g>
                <g id="arrowDown" xlink:href="#dirArrow" transform="rotate(180) translate(-30 -48)" onmousedown="handlePan(0,1)">
                  <use xlink:href="#rim" fill="#404040">
                        <set attributeName="fill" to="#808080" begin="arrowDown.mouseover" end="arrowDown.mouseout"/>
                  </use>
                  <path fill="none" stroke="white" stroke-width="1.5" d="M0,-3.0v7 M-2.5,-0.5L0,-3.0L2.5,-0.5"/>
                </g>
                <g id="arrowLeft" xlink:href="#dirArrow" transform="rotate(270) translate(-36 17)" onmousedown="handlePan(-1,0)">
                  <use xlink:href="#rim" fill="#404040">
                        <set attributeName="fill" to="#808080" begin="arrowLeft.mouseover" end="arrowLeft.mouseout"/>
                  </use>
                  <path fill="none" stroke="white" stroke-width="1.5" d="M0,-3.0v7 M-2.5,-0.5L0,-3.0L2.5,-0.5"/>
                </g>
        </g>
        <svg viewBox="0 0 15 15" width="100%" height="30px" preserveAspectRatio="xMaxYMin meet">
         <g id="arrow_out" transform="scale(0.3 0.3)">
          <a xlink:href="o2formatparser_8cxx__incl_org.svg" target="_base">
           <rect id="button" ry="5" rx="5" y="6" x="6" height="38" width="38"
                fill="#f2f5e9" fill-opacity="0.5" stroke="#606060" stroke-width="1.0"/>
           <path id="arrow"
             d="M 11.500037,31.436501 C 11.940474,20.09759 22.043105,11.32322 32.158766,21.979434 L 37.068811,17.246167 C 37.068811,17.246167 37.088388,32 37.088388,32 L 22.160133,31.978069 C 22.160133,31.978069 26.997745,27.140456 26.997745,27.140456 C 18.528582,18.264221 13.291696,25.230495 11.500037,31.436501 z"
             style="fill:#404040;"/>
          </a>
         </g>
        </svg>
</svg>
