<?xml version="1.0" encoding="UTF-8" standalone="no"?>
<!DOCTYPE svg PUBLIC "-//W3C//DTD SVG 1.1//EN"
 "http://www.w3.org/Graphics/SVG/1.1/DTD/svg11.dtd">
<!-- Generated by graphviz version 2.36.0 (20140111.2315)
 -->
<!-- Title: o2::header::HeartbeatFrameEnvelope Pages: 1 -->
<svg width="1594pt" height="998pt"
 viewBox="0.00 0.00 1593.89 998.00" xmlns="http://www.w3.org/2000/svg" xmlns:xlink="http://www.w3.org/1999/xlink">
<g id="graph0" class="graph" transform="scale(1 1) rotate(0) translate(4 994)">
<title>o2::header::HeartbeatFrameEnvelope</title>
<!-- Node1 -->
<g id="node1" class="node"><title>Node1</title>
<polygon fill="#bfbfbf" stroke="black" points="818.758,-0.5 818.758,-79.5 961.758,-79.5 961.758,-0.5 818.758,-0.5"/>
<text text-anchor="start" x="826.758" y="-67.5" font-family="Helvetica,sans-Serif" font-size="10.00">o2::header::HeartbeatFrame</text>
<text text-anchor="middle" x="890.258" y="-56.5" font-family="Helvetica,sans-Serif" font-size="10.00">Envelope</text>
<polyline fill="none" stroke="black" points="818.758,-49.5 961.758,-49.5 "/>
<text text-anchor="middle" x="890.258" y="-37.5" font-family="Helvetica,sans-Serif" font-size="10.00"> </text>
<polyline fill="none" stroke="black" points="818.758,-30.5 961.758,-30.5 "/>
<text text-anchor="start" x="826.758" y="-18.5" font-family="Helvetica,sans-Serif" font-size="10.00">+ HeartbeatFrameEnvelope()</text>
<text text-anchor="start" x="826.758" y="-7.5" font-family="Helvetica,sans-Serif" font-size="10.00">+ HeartbeatFrameEnvelope()</text>
</g>
<!-- Node2 -->
<g id="node2" class="node"><title>Node2</title>
<g id="a_node2"><a xlink:href="../../d8/dbd/structo2_1_1header_1_1BaseHeader.html" target="_top" xlink:title="the base header struct Every header type must begin (i.e. derive) with this. Don&#39;t use this struct di...">
<polygon fill="none" stroke="black" points="634.258,-128.5 634.258,-273.5 756.258,-273.5 756.258,-128.5 634.258,-128.5"/>
<text text-anchor="middle" x="695.258" y="-261.5" font-family="Helvetica,sans-Serif" font-size="10.00">o2::header::BaseHeader</text>
<polyline fill="none" stroke="black" points="634.258,-254.5 756.258,-254.5 "/>
<text text-anchor="middle" x="695.258" y="-242.5" font-family="Helvetica,sans-Serif" font-size="10.00"> </text>
<polyline fill="none" stroke="black" points="634.258,-235.5 756.258,-235.5 "/>
<text text-anchor="start" x="642.258" y="-223.5" font-family="Helvetica,sans-Serif" font-size="10.00">+ BaseHeader()</text>
<text text-anchor="start" x="642.258" y="-212.5" font-family="Helvetica,sans-Serif" font-size="10.00">+ BaseHeader()</text>
<text text-anchor="start" x="642.258" y="-201.5" font-family="Helvetica,sans-Serif" font-size="10.00">+ BaseHeader()</text>
<text text-anchor="start" x="642.258" y="-190.5" font-family="Helvetica,sans-Serif" font-size="10.00">+ size()</text>
<text text-anchor="start" x="642.258" y="-179.5" font-family="Helvetica,sans-Serif" font-size="10.00">+ data()</text>
<text text-anchor="start" x="642.258" y="-168.5" font-family="Helvetica,sans-Serif" font-size="10.00">+ next()</text>
<text text-anchor="start" x="642.258" y="-157.5" font-family="Helvetica,sans-Serif" font-size="10.00">+ next()</text>
<text text-anchor="start" x="642.258" y="-146.5" font-family="Helvetica,sans-Serif" font-size="10.00">+ get()</text>
<text text-anchor="start" x="642.258" y="-135.5" font-family="Helvetica,sans-Serif" font-size="10.00">+ get()</text>
</a>
</g>
</g>
<!-- Node2&#45;&gt;Node1 -->
<g id="edge1" class="edge"><title>Node2&#45;&gt;Node1</title>
<path fill="none" stroke="midnightblue" d="M764.389,-143.632C790.394,-122.428 819.348,-98.819 842.924,-79.5957"/>
<polygon fill="none" stroke="midnightblue" points="761.961,-141.096 756.422,-150.128 766.384,-146.521 761.961,-141.096"/>
</g>
<!-- Node3 -->
<g id="node3" class="node"><title>Node3</title>
<g id="a_node3"><a xlink:href="../../d9/db3/structo2_1_1header_1_1Descriptor.html" target="_top" xlink:title="{o2::header::Descriptor\l\&lt; gSizeHeaderDescriptionString \&gt;\n||+ Descriptor()\l+ Descriptor()\l+ Descriptor()\l+ Descriptor()\l+ operator=()\l+ operator ItgType()\l+ runtimeInit()\l+ operator==()\l+ operator==()\l+ operator!=()\l+ operator!=()\l+ as()\l+ print()\l}">
<polygon fill="none" stroke="black" points="13.258,-399 13.258,-599 179.258,-599 179.258,-399 13.258,-399"/>
<text text-anchor="start" x="21.258" y="-587" font-family="Helvetica,sans-Serif" font-size="10.00">o2::header::Descriptor</text>
<text text-anchor="middle" x="96.258" y="-576" font-family="Helvetica,sans-Serif" font-size="10.00">&lt; gSizeHeaderDescriptionString &gt;</text>
<polyline fill="none" stroke="black" points="13.258,-569 179.258,-569 "/>
<text text-anchor="middle" x="96.258" y="-557" font-family="Helvetica,sans-Serif" font-size="10.00"> </text>
<polyline fill="none" stroke="black" points="13.258,-550 179.258,-550 "/>
<text text-anchor="start" x="21.258" y="-538" font-family="Helvetica,sans-Serif" font-size="10.00">+ Descriptor()</text>
<text text-anchor="start" x="21.258" y="-527" font-family="Helvetica,sans-Serif" font-size="10.00">+ Descriptor()</text>
<text text-anchor="start" x="21.258" y="-516" font-family="Helvetica,sans-Serif" font-size="10.00">+ Descriptor()</text>
<text text-anchor="start" x="21.258" y="-505" font-family="Helvetica,sans-Serif" font-size="10.00">+ Descriptor()</text>
<text text-anchor="start" x="21.258" y="-494" font-family="Helvetica,sans-Serif" font-size="10.00">+ operator=()</text>
<text text-anchor="start" x="21.258" y="-483" font-family="Helvetica,sans-Serif" font-size="10.00">+ operator ItgType()</text>
<text text-anchor="start" x="21.258" y="-472" font-family="Helvetica,sans-Serif" font-size="10.00">+ runtimeInit()</text>
<text text-anchor="start" x="21.258" y="-461" font-family="Helvetica,sans-Serif" font-size="10.00">+ operator==()</text>
<text text-anchor="start" x="21.258" y="-450" font-family="Helvetica,sans-Serif" font-size="10.00">+ operator==()</text>
<text text-anchor="start" x="21.258" y="-439" font-family="Helvetica,sans-Serif" font-size="10.00">+ operator!=()</text>
<text text-anchor="start" x="21.258" y="-428" font-family="Helvetica,sans-Serif" font-size="10.00">+ operator!=()</text>
<text text-anchor="start" x="21.258" y="-417" font-family="Helvetica,sans-Serif" font-size="10.00">+ as()</text>
<text text-anchor="start" x="21.258" y="-406" font-family="Helvetica,sans-Serif" font-size="10.00">+ print()</text>
</a>
</g>
</g>
<!-- Node3&#45;&gt;Node2 -->
<g id="edge2" class="edge"><title>Node3&#45;&gt;Node2</title>
<path fill="none" stroke="#404040" d="M120.355,-398.992C134.713,-360.051 157.051,-318.423 191.258,-292 257.395,-240.914 498.304,-216.318 621.547,-206.859"/>
<polygon fill="none" stroke="#404040" points="621.85,-206.837 627.533,-202.399 633.816,-205.938 628.133,-210.376 621.85,-206.837"/>
<text text-anchor="middle" x="219.758" y="-333.5" font-family="Helvetica,sans-Serif" font-size="10.00"> +description</text>
</g>
<!-- Node4 -->
<g id="node4" class="node"><title>Node4</title>
<polygon fill="none" stroke="#bfbfbf" points="6.25805,-931.5 6.25805,-988.5 44.258,-988.5 44.258,-931.5 6.25805,-931.5"/>
<text text-anchor="middle" x="25.258" y="-976.5" font-family="Helvetica,sans-Serif" font-size="10.00">Type</text>
<polyline fill="none" stroke="#bfbfbf" points="6.25805,-969.5 44.258,-969.5 "/>
<text text-anchor="middle" x="25.258" y="-957.5" font-family="Helvetica,sans-Serif" font-size="10.00"> </text>
<polyline fill="none" stroke="#bfbfbf" points="6.25805,-950.5 44.258,-950.5 "/>
<text text-anchor="middle" x="25.258" y="-938.5" font-family="Helvetica,sans-Serif" font-size="10.00"> </text>
</g>
<!-- Node4&#45;&gt;Node3 -->
<g id="edge3" class="edge"><title>Node4&#45;&gt;Node3</title>
<path fill="none" stroke="#404040" d="M18.9339,-931.498C7.73075,-877.92 -12.2248,-756.206 12.258,-658 16.2491,-641.991 22.1995,-625.824 29.1245,-610.254"/>
<polygon fill="none" stroke="#404040" points="29.2791,-609.92 28.1729,-602.795 34.3251,-599.033 35.4313,-606.159 29.2791,-609.92"/>
<text text-anchor="middle" x="22.258" y="-756.5" font-family="Helvetica,sans-Serif" font-size="10.00"> +itg</text>
</g>
<!-- Node8 -->
<g id="node8" class="node"><title>Node8</title>
<g id="a_node8"><a xlink:href="../../d9/db3/structo2_1_1header_1_1Descriptor.html" target="_top" xlink:title="{o2::header::Descriptor\l\&lt; N, PrinterPolicy \&gt;\n||+ Descriptor()\l+ Descriptor()\l+ Descriptor()\l+ operator=()\l+ operator ItgType()\l+ Descriptor()\l+ runtimeInit()\l+ operator==()\l+ operator!=()\l+ operator==()\l+ operator!=()\l+ as()\l+ print()\l}">
<polygon fill="none" stroke="black" points="213.758,-659 213.758,-859 326.758,-859 326.758,-659 213.758,-659"/>
<text text-anchor="start" x="221.758" y="-847" font-family="Helvetica,sans-Serif" font-size="10.00">o2::header::Descriptor</text>
<text text-anchor="middle" x="270.258" y="-836" font-family="Helvetica,sans-Serif" font-size="10.00">&lt; N, PrinterPolicy &gt;</text>
<polyline fill="none" stroke="black" points="213.758,-829 326.758,-829 "/>
<text text-anchor="middle" x="270.258" y="-817" font-family="Helvetica,sans-Serif" font-size="10.00"> </text>
<polyline fill="none" stroke="black" points="213.758,-810 326.758,-810 "/>
<text text-anchor="start" x="221.758" y="-798" font-family="Helvetica,sans-Serif" font-size="10.00">+ Descriptor()</text>
<text text-anchor="start" x="221.758" y="-787" font-family="Helvetica,sans-Serif" font-size="10.00">+ Descriptor()</text>
<text text-anchor="start" x="221.758" y="-776" font-family="Helvetica,sans-Serif" font-size="10.00">+ Descriptor()</text>
<text text-anchor="start" x="221.758" y="-765" font-family="Helvetica,sans-Serif" font-size="10.00">+ operator=()</text>
<text text-anchor="start" x="221.758" y="-754" font-family="Helvetica,sans-Serif" font-size="10.00">+ operator ItgType()</text>
<text text-anchor="start" x="221.758" y="-743" font-family="Helvetica,sans-Serif" font-size="10.00">+ Descriptor()</text>
<text text-anchor="start" x="221.758" y="-732" font-family="Helvetica,sans-Serif" font-size="10.00">+ runtimeInit()</text>
<text text-anchor="start" x="221.758" y="-721" font-family="Helvetica,sans-Serif" font-size="10.00">+ operator==()</text>
<text text-anchor="start" x="221.758" y="-710" font-family="Helvetica,sans-Serif" font-size="10.00">+ operator!=()</text>
<text text-anchor="start" x="221.758" y="-699" font-family="Helvetica,sans-Serif" font-size="10.00">+ operator==()</text>
<text text-anchor="start" x="221.758" y="-688" font-family="Helvetica,sans-Serif" font-size="10.00">+ operator!=()</text>
<text text-anchor="start" x="221.758" y="-677" font-family="Helvetica,sans-Serif" font-size="10.00">+ as()</text>
<text text-anchor="start" x="221.758" y="-666" font-family="Helvetica,sans-Serif" font-size="10.00">+ print()</text>
</a>
</g>
</g>
<!-- Node4&#45;&gt;Node8 -->
<g id="edge8" class="edge"><title>Node4&#45;&gt;Node8</title>
<path fill="none" stroke="#404040" d="M44.6364,-946.757C72.4612,-928.878 124.931,-894.038 166.258,-860 179.094,-849.428 192.266,-837.615 204.737,-825.914"/>
<polygon fill="none" stroke="#404040" points="204.972,-825.692 206.573,-818.66 213.679,-817.434 212.078,-824.465 204.972,-825.692"/>
<text text-anchor="middle" x="151.258" y="-892.5" font-family="Helvetica,sans-Serif" font-size="10.00"> +itg</text>
</g>
<!-- Node10 -->
<g id="node10" class="node"><title>Node10</title>
<g id="a_node10"><a xlink:href="../../d9/db3/structo2_1_1header_1_1Descriptor.html" target="_top" xlink:title="{o2::header::Descriptor\l\&lt; gSizeSerializationMethodString \&gt;\n||+ Descriptor()\l+ Descriptor()\l+ Descriptor()\l+ Descriptor()\l+ operator=()\l+ operator ItgType()\l+ runtimeInit()\l+ operator==()\l+ operator==()\l+ operator!=()\l+ operator!=()\l+ as()\l+ print()\l}">
<polygon fill="none" stroke="black" points="431.258,-399 431.258,-599 601.258,-599 601.258,-399 431.258,-399"/>
<text text-anchor="start" x="439.258" y="-587" font-family="Helvetica,sans-Serif" font-size="10.00">o2::header::Descriptor</text>
<text text-anchor="middle" x="516.258" y="-576" font-family="Helvetica,sans-Serif" font-size="10.00">&lt; gSizeSerializationMethodString &gt;</text>
<polyline fill="none" stroke="black" points="431.258,-569 601.258,-569 "/>
<text text-anchor="middle" x="516.258" y="-557" font-family="Helvetica,sans-Serif" font-size="10.00"> </text>
<polyline fill="none" stroke="black" points="431.258,-550 601.258,-550 "/>
<text text-anchor="start" x="439.258" y="-538" font-family="Helvetica,sans-Serif" font-size="10.00">+ Descriptor()</text>
<text text-anchor="start" x="439.258" y="-527" font-family="Helvetica,sans-Serif" font-size="10.00">+ Descriptor()</text>
<text text-anchor="start" x="439.258" y="-516" font-family="Helvetica,sans-Serif" font-size="10.00">+ Descriptor()</text>
<text text-anchor="start" x="439.258" y="-505" font-family="Helvetica,sans-Serif" font-size="10.00">+ Descriptor()</text>
<text text-anchor="start" x="439.258" y="-494" font-family="Helvetica,sans-Serif" font-size="10.00">+ operator=()</text>
<text text-anchor="start" x="439.258" y="-483" font-family="Helvetica,sans-Serif" font-size="10.00">+ operator ItgType()</text>
<text text-anchor="start" x="439.258" y="-472" font-family="Helvetica,sans-Serif" font-size="10.00">+ runtimeInit()</text>
<text text-anchor="start" x="439.258" y="-461" font-family="Helvetica,sans-Serif" font-size="10.00">+ operator==()</text>
<text text-anchor="start" x="439.258" y="-450" font-family="Helvetica,sans-Serif" font-size="10.00">+ operator==()</text>
<text text-anchor="start" x="439.258" y="-439" font-family="Helvetica,sans-Serif" font-size="10.00">+ operator!=()</text>
<text text-anchor="start" x="439.258" y="-428" font-family="Helvetica,sans-Serif" font-size="10.00">+ operator!=()</text>
<text text-anchor="start" x="439.258" y="-417" font-family="Helvetica,sans-Serif" font-size="10.00">+ as()</text>
<text text-anchor="start" x="439.258" y="-406" font-family="Helvetica,sans-Serif" font-size="10.00">+ print()</text>
</a>
</g>
</g>
<!-- Node4&#45;&gt;Node10 -->
<g id="edge17" class="edge"><title>Node4&#45;&gt;Node10</title>
<path fill="none" stroke="#404040" d="M44.6282,-956.571C109.386,-948.371 314.876,-921.689 325.258,-912 409.916,-832.998 302.645,-741.126 383.258,-658 405.322,-635.249 427.989,-660.383 452.258,-640 462.364,-631.512 470.952,-621.089 478.233,-609.794"/>
<polygon fill="none" stroke="#404040" points="478.404,-609.508 478.046,-602.306 484.557,-599.206 484.915,-606.408 478.404,-609.508"/>
<text text-anchor="middle" x="393.258" y="-756.5" font-family="Helvetica,sans-Serif" font-size="10.00"> +itg</text>
</g>
<!-- Node5 -->
<g id="node5" class="node"><title>Node5</title>
<polygon fill="none" stroke="#bfbfbf" points="448.758,-931.5 448.758,-988.5 483.758,-988.5 483.758,-931.5 448.758,-931.5"/>
<text text-anchor="middle" x="466.258" y="-976.5" font-family="Helvetica,sans-Serif" font-size="10.00">char</text>
<polyline fill="none" stroke="#bfbfbf" points="448.758,-969.5 483.758,-969.5 "/>
<text text-anchor="middle" x="466.258" y="-957.5" font-family="Helvetica,sans-Serif" font-size="10.00"> </text>
<polyline fill="none" stroke="#bfbfbf" points="448.758,-950.5 483.758,-950.5 "/>
<text text-anchor="middle" x="466.258" y="-938.5" font-family="Helvetica,sans-Serif" font-size="10.00"> </text>
</g>
<!-- Node5&#45;&gt;Node2 -->
<g id="edge14" class="edge"><title>Node5&#45;&gt;Node2</title>
<path fill="none" stroke="#404040" d="M483.819,-956.883C525.792,-950.768 631.674,-928.872 675.258,-860 723.267,-784.137 712.772,-739.564 675.258,-658 670.121,-646.832 659.395,-651.168 654.258,-640 626.189,-578.972 656.053,-395.011 677.487,-285.873"/>
<polygon fill="none" stroke="#404040" points="677.522,-285.696 674.767,-279.032 679.858,-273.926 682.613,-280.589 677.522,-285.696"/>
<text text-anchor="middle" x="684.758" y="-626.5" font-family="Helvetica,sans-Serif" font-size="10.00"> +magicString</text>
</g>
<!-- Node5&#45;&gt;Node3 -->
<g id="edge4" class="edge"><title>Node5&#45;&gt;Node3</title>
<path fill="none" stroke="#404040" d="M448.537,-956.828C412.892,-952.033 330.448,-938.78 266.258,-912 226.084,-895.239 209.912,-894.416 183.258,-860 125.594,-785.542 171.223,-736.542 119.258,-658 112.475,-647.748 103.474,-651.131 98.258,-640 93.9952,-630.903 91.0565,-621.095 89.1257,-611.042"/>
<polygon fill="none" stroke="#404040" points="89.122,-611.017 84.2587,-605.693 87.303,-599.156 92.1663,-604.48 89.122,-611.017"/>
<text text-anchor="middle" x="193.758" y="-756.5" font-family="Helvetica,sans-Serif" font-size="10.00"> +str</text>
</g>
<!-- Node5&#45;&gt;Node8 -->
<g id="edge9" class="edge"><title>Node5&#45;&gt;Node8</title>
<path fill="none" stroke="#404040" d="M448.392,-947.274C422.89,-930.025 375.367,-895.946 341.258,-860 339.033,-857.655 336.823,-855.237 334.633,-852.763"/>
<polygon fill="none" stroke="#404040" points="334.591,-852.714 327.654,-850.746 326.802,-843.585 333.74,-845.553 334.591,-852.714"/>
<text text-anchor="middle" x="410.758" y="-892.5" font-family="Helvetica,sans-Serif" font-size="10.00"> +str</text>
</g>
<!-- Node5&#45;&gt;Node10 -->
<g id="edge18" class="edge"><title>Node5&#45;&gt;Node10</title>
<path fill="none" stroke="#404040" d="M484.047,-937.328C489.269,-929.763 494.355,-920.923 497.258,-912 514.742,-858.265 517.89,-714.18 517.732,-611.579"/>
<polygon fill="none" stroke="#404040" points="517.731,-611.281 513.714,-605.293 517.697,-599.282 521.714,-605.27 517.731,-611.281"/>
<text text-anchor="middle" x="528.758" y="-756.5" font-family="Helvetica,sans-Serif" font-size="10.00"> +str</text>
</g>
<!-- Node6 -->
<g id="node6" class="node"><title>Node6</title>
<polygon fill="none" stroke="#bfbfbf" points="255.758,-931.5 255.758,-988.5 284.758,-988.5 284.758,-931.5 255.758,-931.5"/>
<text text-anchor="middle" x="270.258" y="-976.5" font-family="Helvetica,sans-Serif" font-size="10.00">int</text>
<polyline fill="none" stroke="#bfbfbf" points="255.758,-969.5 284.758,-969.5 "/>
<text text-anchor="middle" x="270.258" y="-957.5" font-family="Helvetica,sans-Serif" font-size="10.00"> </text>
<polyline fill="none" stroke="#bfbfbf" points="255.758,-950.5 284.758,-950.5 "/>
<text text-anchor="middle" x="270.258" y="-938.5" font-family="Helvetica,sans-Serif" font-size="10.00"> </text>
</g>
<!-- Node6&#45;&gt;Node3 -->
<g id="edge5" class="edge"><title>Node6&#45;&gt;Node3</title>
<path fill="none" stroke="#404040" d="M255.729,-957.737C215.231,-953.301 101.853,-934.39 68.258,-860 33.0631,-782.067 43.3241,-684.976 60.5923,-611.269"/>
<polygon fill="none" stroke="#404040" points="60.6958,-610.843 58.2288,-604.067 63.5347,-599.184 66.0017,-605.96 60.6958,-610.843"/>
<text text-anchor="middle" x="93.758" y="-767.5" font-family="Helvetica,sans-Serif" font-size="10.00"> +arraySize</text>
<text text-anchor="middle" x="93.758" y="-756.5" font-family="Helvetica,sans-Serif" font-size="10.00">+size</text>
<text text-anchor="middle" x="93.758" y="-745.5" font-family="Helvetica,sans-Serif" font-size="10.00">+bitcount</text>
</g>
<!-- Node6&#45;&gt;Node8 -->
<g id="edge10" class="edge"><title>Node6&#45;&gt;Node8</title>
<path fill="none" stroke="#404040" d="M270.258,-931.33C270.258,-915.216 270.258,-893.721 270.258,-871.415"/>
<polygon fill="none" stroke="#404040" points="270.258,-871.336 266.258,-865.336 270.258,-859.336 274.258,-865.336 270.258,-871.336"/>
<text text-anchor="middle" x="295.758" y="-903.5" font-family="Helvetica,sans-Serif" font-size="10.00"> +arraySize</text>
<text text-anchor="middle" x="295.758" y="-892.5" font-family="Helvetica,sans-Serif" font-size="10.00">+size</text>
<text text-anchor="middle" x="295.758" y="-881.5" font-family="Helvetica,sans-Serif" font-size="10.00">+bitcount</text>
</g>
<!-- Node6&#45;&gt;Node10 -->
<g id="edge19" class="edge"><title>Node6&#45;&gt;Node10</title>
<path fill="none" stroke="#404040" d="M284.947,-956.341C307.417,-951.51 350.242,-939.165 374.258,-912 452.562,-823.427 385.105,-754.601 453.258,-658 460.944,-647.105 469.735,-651.008 477.258,-640 483.426,-630.974 488.624,-620.993 493.002,-610.639"/>
<polygon fill="none" stroke="#404040" points="493.071,-610.461 491.53,-603.417 497.439,-599.285 498.981,-606.329 493.071,-610.461"/>
<text text-anchor="middle" x="478.758" y="-767.5" font-family="Helvetica,sans-Serif" font-size="10.00"> +arraySize</text>
<text text-anchor="middle" x="478.758" y="-756.5" font-family="Helvetica,sans-Serif" font-size="10.00">+size</text>
<text text-anchor="middle" x="478.758" y="-745.5" font-family="Helvetica,sans-Serif" font-size="10.00">+bitcount</text>
</g>
<!-- Node7 -->
<g id="node7" class="node"><title>Node7</title>
<polygon fill="none" stroke="#bfbfbf" points="722.758,-931 722.758,-989 751.758,-989 751.758,-931 722.758,-931"/>
<polyline fill="none" stroke="#bfbfbf" points="722.758,-969 751.758,-969 "/>
<text text-anchor="middle" x="737.258" y="-957" font-family="Helvetica,sans-Serif" font-size="10.00"> </text>
<polyline fill="none" stroke="#bfbfbf" points="722.758,-950 751.758,-950 "/>
<text text-anchor="middle" x="737.258" y="-938" font-family="Helvetica,sans-Serif" font-size="10.00"> </text>
</g>
<!-- Node7&#45;&gt;Node2 -->
<g id="edge13" class="edge"><title>Node7&#45;&gt;Node2</title>
<path fill="none" stroke="#404040" d="M735.688,-930.706C729.848,-825.439 709.233,-453.88 699.904,-285.745"/>
<polygon fill="none" stroke="#404040" points="699.891,-285.494 695.564,-279.725 699.226,-273.512 703.552,-279.281 699.891,-285.494"/>
<text text-anchor="middle" x="734.758" y="-626.5" font-family="Helvetica,sans-Serif" font-size="10.00"> +@16</text>
</g>
<!-- Node7&#45;&gt;Node2 -->
<g id="edge15" class="edge"><title>Node7&#45;&gt;Node2</title>
<path fill="none" stroke="#404040" d="M744.851,-930.84C746.231,-924.675 747.479,-918.152 748.258,-912 763.451,-792.04 752.925,-760.911 754.258,-640 755.973,-484.471 744.55,-445.125 717.258,-292 716.873,-289.837 716.466,-287.65 716.041,-285.445"/>
<polygon fill="none" stroke="#404040" points="716.013,-285.307 710.894,-280.227 713.615,-273.549 718.733,-278.628 716.013,-285.307"/>
<text text-anchor="middle" x="770.758" y="-626.5" font-family="Helvetica,sans-Serif" font-size="10.00"> +@18</text>
</g>
<!-- Node7&#45;&gt;Node3 -->
<g id="edge6" class="edge"><title>Node7&#45;&gt;Node3</title>
<path fill="none" stroke="#404040" d="M722.698,-955.544C688.276,-946.535 601.887,-918.832 563.258,-860 538.475,-822.255 573.694,-689.413 541.258,-658 503.635,-621.563 355.769,-657.082 306.258,-640 264.977,-625.757 224.01,-601.386 189.37,-576.931"/>
<polygon fill="none" stroke="#404040" points="189.047,-576.699 181.84,-576.446 179.302,-569.696 186.509,-569.949 189.047,-576.699"/>
<text text-anchor="middle" x="578.758" y="-756.5" font-family="Helvetica,sans-Serif" font-size="10.00"> +@14</text>
</g>
<!-- Node7&#45;&gt;Node8 -->
<g id="edge11" class="edge"><title>Node7&#45;&gt;Node8</title>
<path fill="none" stroke="#404040" d="M722.531,-955.805C689.559,-948.585 607.346,-930.219 539.258,-912 488.183,-898.333 476.48,-891.105 425.258,-878 388.269,-868.537 373.148,-880.996 341.258,-860 339.702,-858.976 338.169,-857.904 336.66,-856.791"/>
<polygon fill="none" stroke="#404040" points="336.309,-856.501 329.134,-855.774 327.046,-848.872 334.221,-849.599 336.309,-856.501"/>
<text text-anchor="middle" x="554.758" y="-892.5" font-family="Helvetica,sans-Serif" font-size="10.00"> +@14</text>
</g>
<!-- Node7&#45;&gt;Node10 -->
<g id="edge20" class="edge"><title>Node7&#45;&gt;Node10</title>
<path fill="none" stroke="#404040" d="M724.511,-930.963C695.24,-866.654 623.778,-710.074 598.258,-658 590.634,-642.442 582.416,-626.121 574.23,-610.117"/>
<polygon fill="none" stroke="#404040" points="574.056,-609.777 567.758,-606.265 568.577,-599.101 574.875,-602.612 574.056,-609.777"/>
<text text-anchor="middle" x="707.758" y="-756.5" font-family="Helvetica,sans-Serif" font-size="10.00"> +@14</text>
</g>
<!-- Node11 -->
<g id="node11" class="node"><title>Node11</title>
<g id="a_node11"><a xlink:href="../../dd/da3/structo2_1_1header_1_1HeartbeatHeader.html" target="_top" xlink:title="{o2::header::HeartbeatHeader\n||+ operator bool()\l+ operator\&lt;()\l+ operator uint64_t()\l}">
<polygon fill="none" stroke="black" points="1295.76,-161.5 1295.76,-240.5 1438.76,-240.5 1438.76,-161.5 1295.76,-161.5"/>
<text text-anchor="middle" x="1367.26" y="-228.5" font-family="Helvetica,sans-Serif" font-size="10.00">o2::header::HeartbeatHeader</text>
<polyline fill="none" stroke="black" points="1295.76,-221.5 1438.76,-221.5 "/>
<text text-anchor="middle" x="1367.26" y="-209.5" font-family="Helvetica,sans-Serif" font-size="10.00"> </text>
<polyline fill="none" stroke="black" points="1295.76,-202.5 1438.76,-202.5 "/>
<text text-anchor="start" x="1303.76" y="-190.5" font-family="Helvetica,sans-Serif" font-size="10.00">+ operator bool()</text>
<text text-anchor="start" x="1303.76" y="-179.5" font-family="Helvetica,sans-Serif" font-size="10.00">+ operator&lt;()</text>
<text text-anchor="start" x="1303.76" y="-168.5" font-family="Helvetica,sans-Serif" font-size="10.00">+ operator uint64_t()</text>
</a>
</g>
</g>
<!-- Node7&#45;&gt;Node11 -->
<g id="edge27" class="edge"><title>Node7&#45;&gt;Node11</title>
<path fill="none" stroke="#404040" d="M751.815,-955.393C851.016,-929.874 1427.97,-766.283 1572.26,-380 1585.94,-343.361 1593.64,-324.746 1572.26,-292 1545.28,-250.7 1494.67,-228.229 1450.49,-216.07"/>
<polygon fill="none" stroke="#404040" points="1450.44,-216.056 1443.63,-218.426 1438.82,-213.051 1445.63,-210.681 1450.44,-216.056"/>
<text text-anchor="middle" x="1418.76" y="-626.5" font-family="Helvetica,sans-Serif" font-size="10.00"> +@22</text>
</g>
<!-- Node15 -->
<g id="node15" class="node"><title>Node15</title>
<g id="a_node15"><a xlink:href="../../d1/dfe/structo2_1_1header_1_1HeartbeatTrailer.html" target="_top" xlink:title="{o2::header::HeartbeatTrailer\n||+ operator bool()\l+ operator uint64_t()\l}">
<polygon fill="none" stroke="black" points="982.258,-167 982.258,-235 1120.26,-235 1120.26,-167 982.258,-167"/>
<text text-anchor="middle" x="1051.26" y="-223" font-family="Helvetica,sans-Serif" font-size="10.00">o2::header::HeartbeatTrailer</text>
<polyline fill="none" stroke="black" points="982.258,-216 1120.26,-216 "/>
<text text-anchor="middle" x="1051.26" y="-204" font-family="Helvetica,sans-Serif" font-size="10.00"> </text>
<polyline fill="none" stroke="black" points="982.258,-197 1120.26,-197 "/>
<text text-anchor="start" x="990.258" y="-185" font-family="Helvetica,sans-Serif" font-size="10.00">+ operator bool()</text>
<text text-anchor="start" x="990.258" y="-174" font-family="Helvetica,sans-Serif" font-size="10.00">+ operator uint64_t()</text>
</a>
</g>
</g>
<!-- Node7&#45;&gt;Node15 -->
<g id="edge35" class="edge"><title>Node7&#45;&gt;Node15</title>
<path fill="none" stroke="#404040" d="M751.826,-938.675C789.136,-885.655 888.872,-737.686 941.258,-600 991.042,-469.154 961.508,-424.31 1007.26,-292 1012.55,-276.695 1019.81,-260.618 1026.91,-246.354"/>
<polygon fill="none" stroke="#404040" points="1027.07,-246.041 1026.24,-238.878 1032.53,-235.354 1033.36,-242.517 1027.07,-246.041"/>
<text text-anchor="middle" x="949.758" y="-626.5" font-family="Helvetica,sans-Serif" font-size="10.00"> +@26</text>
</g>
<!-- Node8&#45;&gt;Node1 -->
<g id="edge36" class="edge"><title>Node8&#45;&gt;Node1</title>
<path fill="none" stroke="#404040" d="M263.944,-658.968C256.671,-531.279 248.016,-321.979 267.258,-292 385.488,-107.793 665.287,-58.7742 806.152,-45.7298"/>
<polygon fill="none" stroke="#404040" points="806.564,-45.6937 812.191,-41.1843 818.518,-44.6443 812.891,-49.1537 806.564,-45.6937"/>
<text text-anchor="middle" x="315.758" y="-339" font-family="Helvetica,sans-Serif" font-size="10.00"> +sHeaderType</text>
<text text-anchor="middle" x="315.758" y="-328" font-family="Helvetica,sans-Serif" font-size="10.00">+sSerializationMethod</text>
</g>
<!-- Node8&#45;&gt;Node2 -->
<g id="edge22" class="edge"><title>Node8&#45;&gt;Node2</title>
<path fill="none" stroke="#404040" d="M280.381,-658.941C291.329,-559.564 309.352,-418.369 325.258,-398 338.009,-381.671 349.58,-388.964 368.258,-380 417.265,-356.48 543.034,-287.027 623.541,-242.153"/>
<polygon fill="none" stroke="#404040" points="623.62,-242.109 626.911,-235.693 634.1,-236.263 630.808,-242.679 623.62,-242.109"/>
<text text-anchor="middle" x="373.758" y="-502" font-family="Helvetica,sans-Serif" font-size="10.00"> +sHeaderType</text>
<text text-anchor="middle" x="373.758" y="-491" font-family="Helvetica,sans-Serif" font-size="10.00">+sSerializationMethod</text>
</g>
<!-- Node8&#45;&gt;Node3 -->
<g id="edge7" class="edge"><title>Node8&#45;&gt;Node3</title>
<path fill="none" stroke="orange" d="M205.961,-687.991C193.548,-676.942 180.08,-666.41 166.258,-658 145.006,-645.069 128.941,-659.311 113.258,-640 103.688,-628.217 97.7562,-613.929 94.2618,-599.042"/>
<polygon fill="orange" stroke="orange" points="203.804,-690.761 213.547,-694.922 208.526,-685.593 203.804,-690.761"/>
<text text-anchor="start" x="113.258" y="-632" font-family="Helvetica,sans-Serif" font-size="10.00"> &lt; gSizeHeaderDescription</text>
<text text-anchor="middle" x="172.258" y="-621" font-family="Helvetica,sans-Serif" font-size="10.00">String &gt;</text>
</g>
<!-- Node8&#45;&gt;Node10 -->
<g id="edge21" class="edge"><title>Node8&#45;&gt;Node10</title>
<path fill="none" stroke="orange" d="M302.615,-649.76C309.819,-637.766 318.591,-626.748 329.258,-618 360.127,-592.686 382.15,-619.002 417.258,-600 421.985,-597.442 426.63,-594.585 431.173,-591.499"/>
<polygon fill="orange" stroke="orange" points="299.47,-648.213 297.641,-658.648 305.578,-651.631 299.47,-648.213"/>
<text text-anchor="start" x="329.258" y="-632" font-family="Helvetica,sans-Serif" font-size="10.00"> &lt; gSizeSerializationMethod</text>
<text text-anchor="middle" x="390.758" y="-621" font-family="Helvetica,sans-Serif" font-size="10.00">String &gt;</text>
</g>
<!-- Node9 -->
<g id="node9" class="node"><title>Node9</title>
<polygon fill="none" stroke="#bfbfbf" points="881.758,-470.5 881.758,-527.5 932.758,-527.5 932.758,-470.5 881.758,-470.5"/>
<text text-anchor="middle" x="907.258" y="-515.5" font-family="Helvetica,sans-Serif" font-size="10.00">uint32_t</text>
<polyline fill="none" stroke="#bfbfbf" points="881.758,-508.5 932.758,-508.5 "/>
<text text-anchor="middle" x="907.258" y="-496.5" font-family="Helvetica,sans-Serif" font-size="10.00"> </text>
<polyline fill="none" stroke="#bfbfbf" points="881.758,-489.5 932.758,-489.5 "/>
<text text-anchor="middle" x="907.258" y="-477.5" font-family="Helvetica,sans-Serif" font-size="10.00"> </text>
</g>
<!-- Node9&#45;&gt;Node1 -->
<g id="edge29" class="edge"><title>Node9&#45;&gt;Node1</title>
<path fill="none" stroke="#404040" d="M906.233,-470.442C903.451,-395.661 895.729,-188.075 892.139,-91.5528"/>
<polygon fill="none" stroke="#404040" points="892.137,-91.5127 887.917,-85.6656 891.691,-79.521 895.911,-85.3681 892.137,-91.5127"/>
<text text-anchor="middle" x="923.258" y="-198.5" font-family="Helvetica,sans-Serif" font-size="10.00"> +sVersion</text>
</g>
<!-- Node9&#45;&gt;Node2 -->
<g id="edge12" class="edge"><title>Node9&#45;&gt;Node2</title>
<path fill="none" stroke="#404040" d="M881.326,-477.277C855.953,-455.627 818.039,-419.378 796.258,-380 776.692,-344.626 792.1,-327.765 773.258,-292 770.351,-286.482 767.046,-281.015 763.478,-275.663"/>
<polygon fill="none" stroke="#404040" points="763.246,-275.334 756.518,-272.739 756.325,-265.531 763.053,-268.126 763.246,-275.334"/>
<text text-anchor="middle" x="836.258" y="-372" font-family="Helvetica,sans-Serif" font-size="10.00"> +headerVersion</text>
<text text-anchor="middle" x="836.258" y="-361" font-family="Helvetica,sans-Serif" font-size="10.00">+headerSize</text>
<text text-anchor="middle" x="836.258" y="-350" font-family="Helvetica,sans-Serif" font-size="10.00">+sMagicString</text>
<text text-anchor="middle" x="836.258" y="-339" font-family="Helvetica,sans-Serif" font-size="10.00">+flagsNextHeader</text>
<text text-anchor="middle" x="836.258" y="-328" font-family="Helvetica,sans-Serif" font-size="10.00">+magicStringInt</text>
<text text-anchor="middle" x="836.258" y="-317" font-family="Helvetica,sans-Serif" font-size="10.00">+flagsUnused</text>
<text text-anchor="middle" x="836.258" y="-306" font-family="Helvetica,sans-Serif" font-size="10.00">+flags</text>
<text text-anchor="middle" x="836.258" y="-295" font-family="Helvetica,sans-Serif" font-size="10.00">+sVersion</text>
</g>
<!-- Node9&#45;&gt;Node11 -->
<g id="edge24" class="edge"><title>Node9&#45;&gt;Node11</title>
<path fill="none" stroke="#404040" d="M925.96,-470.227C941.713,-446.54 964.599,-411.43 983.258,-380 1006,-341.692 995.169,-318.123 1031.26,-292 1067.13,-266.034 1086.22,-284.428 1129.26,-274 1181.27,-261.399 1238.71,-244.12 1284.13,-229.647"/>
<polygon fill="none" stroke="#404040" points="1284.28,-229.599 1288.77,-223.959 1295.71,-225.937 1291.22,-231.577 1284.28,-229.599"/>
<text text-anchor="middle" x="1045.26" y="-333.5" font-family="Helvetica,sans-Serif" font-size="10.00"> +orbit</text>
</g>
<!-- Node9&#45;&gt;Node15 -->
<g id="edge31" class="edge"><title>Node9&#45;&gt;Node15</title>
<path fill="none" stroke="#404040" d="M906.702,-470.275C906.179,-421.265 907.324,-321.692 924.258,-292 928.498,-284.566 959.64,-262.451 990.021,-242.005"/>
<polygon fill="none" stroke="#404040" points="990.282,-241.831 993.044,-235.17 1000.26,-235.159 997.493,-241.819 990.282,-241.831"/>
<text text-anchor="middle" x="951.758" y="-339" font-family="Helvetica,sans-Serif" font-size="10.00"> +status</text>
<text text-anchor="middle" x="951.758" y="-328" font-family="Helvetica,sans-Serif" font-size="10.00">+dataLength</text>
</g>
<!-- Node10&#45;&gt;Node2 -->
<g id="edge16" class="edge"><title>Node10&#45;&gt;Node2</title>
<path fill="none" stroke="#404040" d="M532.89,-398.882C542.186,-363.01 556.472,-323.592 578.258,-292 590.42,-274.364 607.114,-258.65 624.085,-245.482"/>
<polygon fill="none" stroke="#404040" points="624.458,-245.204 626.875,-238.41 634.076,-238.028 631.659,-244.822 624.458,-245.204"/>
<text text-anchor="middle" x="608.758" y="-333.5" font-family="Helvetica,sans-Serif" font-size="10.00"> +serialization</text>
</g>
<!-- Node11&#45;&gt;Node1 -->
<g id="edge23" class="edge"><title>Node11&#45;&gt;Node1</title>
<path fill="none" stroke="#404040" d="M1295.59,-176.11C1209.29,-147.344 1064.61,-99.1184 973.467,-68.7362"/>
<polygon fill="none" stroke="#404040" points="973.458,-68.7335 966.501,-70.6308 962.074,-64.9387 969.031,-63.0414 973.458,-68.7335"/>
<text text-anchor="middle" x="1105.76" y="-101.5" font-family="Helvetica,sans-Serif" font-size="10.00"> +header</text>
</g>
<!-- Node12 -->
<g id="node12" class="node"><title>Node12</title>
<polygon fill="none" stroke="#bfbfbf" points="1085.76,-470.5 1085.76,-527.5 1136.76,-527.5 1136.76,-470.5 1085.76,-470.5"/>
<text text-anchor="middle" x="1111.26" y="-515.5" font-family="Helvetica,sans-Serif" font-size="10.00">uint64_t</text>
<polyline fill="none" stroke="#bfbfbf" points="1085.76,-508.5 1136.76,-508.5 "/>
<text text-anchor="middle" x="1111.26" y="-496.5" font-family="Helvetica,sans-Serif" font-size="10.00"> </text>
<polyline fill="none" stroke="#bfbfbf" points="1085.76,-489.5 1136.76,-489.5 "/>
<text text-anchor="middle" x="1111.26" y="-477.5" font-family="Helvetica,sans-Serif" font-size="10.00"> </text>
</g>
<!-- Node12&#45;&gt;Node11 -->
<g id="edge25" class="edge"><title>Node12&#45;&gt;Node11</title>
<path fill="none" stroke="#404040" d="M1132.22,-470.188C1151.11,-447.187 1180.97,-415.548 1214.26,-398 1249.96,-379.182 1274.54,-408.349 1303.26,-380 1331.74,-351.893 1308.98,-329.746 1322.26,-292 1326.96,-278.616 1333.21,-264.667 1339.55,-251.858"/>
<polygon fill="none" stroke="#404040" points="1339.67,-251.632 1338.82,-244.47 1345.11,-240.937 1345.95,-248.099 1339.67,-251.632"/>
<text text-anchor="middle" x="1353.26" y="-333.5" font-family="Helvetica,sans-Serif" font-size="10.00"> +headerWord</text>
</g>
<!-- Node12&#45;&gt;Node15 -->
<g id="edge32" class="edge"><title>Node12&#45;&gt;Node15</title>
<path fill="none" stroke="#404040" d="M1102.42,-470.107C1095.14,-446.347 1084.96,-411.196 1078.26,-380 1068.63,-335.169 1061.17,-283.265 1056.55,-247.117"/>
<polygon fill="none" stroke="#404040" points="1056.53,-246.933 1051.82,-241.475 1055.04,-235.025 1059.76,-240.483 1056.53,-246.933"/>
<text text-anchor="middle" x="1106.76" y="-333.5" font-family="Helvetica,sans-Serif" font-size="10.00"> +trailerWord</text>
</g>
<!-- Node13 -->
<g id="node13" class="node"><title>Node13</title>
<polygon fill="none" stroke="#bfbfbf" points="1321.76,-470.5 1321.76,-527.5 1372.76,-527.5 1372.76,-470.5 1321.76,-470.5"/>
<text text-anchor="middle" x="1347.26" y="-515.5" font-family="Helvetica,sans-Serif" font-size="10.00">uint16_t</text>
<polyline fill="none" stroke="#bfbfbf" points="1321.76,-508.5 1372.76,-508.5 "/>
<text text-anchor="middle" x="1347.26" y="-496.5" font-family="Helvetica,sans-Serif" font-size="10.00"> </text>
<polyline fill="none" stroke="#bfbfbf" points="1321.76,-489.5 1372.76,-489.5 "/>
<text text-anchor="middle" x="1347.26" y="-477.5" font-family="Helvetica,sans-Serif" font-size="10.00"> </text>
</g>
<!-- Node13&#45;&gt;Node11 -->
<g id="edge26" class="edge"><title>Node13&#45;&gt;Node11</title>
<path fill="none" stroke="#404040" d="M1372.85,-488.043C1410.4,-471.86 1479.02,-435.918 1507.26,-380 1524.89,-345.089 1526,-326.328 1507.26,-292 1494.35,-268.358 1472.28,-250 1449.43,-236.212"/>
<polygon fill="none" stroke="#404040" points="1449.32,-236.152 1442.13,-236.647 1438.91,-230.197 1446.1,-229.702 1449.32,-236.152"/>
<text text-anchor="middle" x="1544.76" y="-339" font-family="Helvetica,sans-Serif" font-size="10.00"> +reserved</text>
<text text-anchor="middle" x="1544.76" y="-328" font-family="Helvetica,sans-Serif" font-size="10.00">+bcid</text>
</g>
<!-- Node13&#45;&gt;Node15 -->
<g id="edge33" class="edge"><title>Node13&#45;&gt;Node15</title>
<path fill="none" stroke="#404040" d="M1334.08,-470.422C1322.23,-448.189 1302.89,-417.514 1278.26,-398 1261.05,-384.369 1246.49,-396.717 1232.26,-380 1206.32,-349.532 1237.09,-324.137 1213.26,-292 1192.86,-264.503 1161.43,-244.315 1131.67,-230.111"/>
<polygon fill="none" stroke="#404040" points="1131.29,-229.937 1124.17,-231.087 1120.37,-224.958 1127.49,-223.808 1131.29,-229.937"/>
<text text-anchor="middle" x="1265.76" y="-350" font-family="Helvetica,sans-Serif" font-size="10.00"> +hbfTruncated</text>
<text text-anchor="middle" x="1265.76" y="-339" font-family="Helvetica,sans-Serif" font-size="10.00">+hbfStatus</text>
<text text-anchor="middle" x="1265.76" y="-328" font-family="Helvetica,sans-Serif" font-size="10.00">+trailerLength</text>
<text text-anchor="middle" x="1265.76" y="-317" font-family="Helvetica,sans-Serif" font-size="10.00">+hbAccept</text>
</g>
<!-- Node14 -->
<g id="node14" class="node"><title>Node14</title>
<polygon fill="none" stroke="#bfbfbf" points="1223.26,-470.5 1223.26,-527.5 1269.26,-527.5 1269.26,-470.5 1223.26,-470.5"/>
<text text-anchor="middle" x="1246.26" y="-515.5" font-family="Helvetica,sans-Serif" font-size="10.00">uint8_t</text>
<polyline fill="none" stroke="#bfbfbf" points="1223.26,-508.5 1269.26,-508.5 "/>
<text text-anchor="middle" x="1246.26" y="-496.5" font-family="Helvetica,sans-Serif" font-size="10.00"> </text>
<polyline fill="none" stroke="#bfbfbf" points="1223.26,-489.5 1269.26,-489.5 "/>
<text text-anchor="middle" x="1246.26" y="-477.5" font-family="Helvetica,sans-Serif" font-size="10.00"> </text>
</g>
<!-- Node14&#45;&gt;Node11 -->
<g id="edge28" class="edge"><title>Node14&#45;&gt;Node11</title>
<path fill="none" stroke="#404040" d="M1257.47,-470.413C1268.18,-447.552 1286.51,-415.994 1312.26,-398 1340.71,-378.115 1366.73,-407.227 1388.26,-380 1416.57,-344.201 1405.54,-290.992 1390.97,-252.074"/>
<polygon fill="none" stroke="#404040" points="1390.9,-251.9 1384.97,-247.797 1386.47,-240.745 1392.4,-244.848 1390.9,-251.9"/>
<text text-anchor="middle" x="1454.26" y="-350" font-family="Helvetica,sans-Serif" font-size="10.00"> +triggerType</text>
<text text-anchor="middle" x="1454.26" y="-339" font-family="Helvetica,sans-Serif" font-size="10.00">+headerLength</text>
<text text-anchor="middle" x="1454.26" y="-328" font-family="Helvetica,sans-Serif" font-size="10.00">+blockType</text>
<text text-anchor="middle" x="1454.26" y="-317" font-family="Helvetica,sans-Serif" font-size="10.00">+reservedTriggerType</text>
</g>
<!-- Node14&#45;&gt;Node15 -->
<g id="edge34" class="edge"><title>Node14&#45;&gt;Node15</title>
<path fill="none" stroke="#404040" d="M1223.21,-473.178C1203.33,-450.504 1175.2,-415.238 1158.26,-380 1140.74,-343.568 1154.76,-327.412 1135.26,-292 1125.7,-274.645 1112.05,-258.058 1098.53,-243.959"/>
<polygon fill="none" stroke="#404040" points="1098.16,-243.585 1091.09,-242.145 1089.7,-235.069 1096.77,-236.509 1098.16,-243.585"/>
<text text-anchor="middle" x="1185.76" y="-333.5" font-family="Helvetica,sans-Serif" font-size="10.00"> +blockType</text>
</g>
<!-- Node15&#45;&gt;Node1 -->
<g id="edge30" class="edge"><title>Node15&#45;&gt;Node1</title>
<path fill="none" stroke="#404040" d="M1017.51,-166.668C994.494,-143.942 963.682,-113.511 938.141,-88.2879"/>
<polygon fill="none" stroke="#404040" points="937.886,-88.0365 930.806,-86.6665 929.348,-79.6044 936.428,-80.9744 937.886,-88.0365"/>
<text text-anchor="middle" x="974.258" y="-101.5" font-family="Helvetica,sans-Serif" font-size="10.00"> +trailer</text>
</g>
</g>
</svg>
