<?xml version="1.0" encoding="UTF-8" standalone="no"?>
<!DOCTYPE svg PUBLIC "-//W3C//DTD SVG 1.1//EN"
 "http://www.w3.org/Graphics/SVG/1.1/DTD/svg11.dtd">
<!-- Generated by graphviz version 2.36.0 (20140111.2315)
 -->
<!-- Title: /home/travis/build/AliceO2Group/AliceO2/Framework/Core/src/BoostOptionsRetriever.cxx Pages: 1 -->
<!--zoomable 286 -->
<svg id="main" version="1.1" xmlns="http://www.w3.org/2000/svg" xmlns:xlink="http://www.w3.org/1999/xlink" xml:space="preserve" onload="init(evt)">
<style type="text/css"><![CDATA[
.edge:hover path { stroke: red; }
.edge:hover polygon { stroke: red; fill: red; }
]]></style>
<script type="text/javascript"><![CDATA[
var edges = document.getElementsByTagName('g');
if (edges && edges.length) {
  for (var i=0;i<edges.length;i++) {
    if (edges[i].id.substr(0,4)=='edge') {
      edges[i].setAttribute('class','edge');
    }
  }
}
]]></script>
        <defs>
                <circle id="rim" cx="0" cy="0" r="7"/>
                <circle id="rim2" cx="0" cy="0" r="3.5"/>
                <g id="zoomPlus">
                        <use xlink:href="#rim" fill="#404040">
                                <set attributeName="fill" to="#808080" begin="zoomplus.mouseover" end="zoomplus.mouseout"/>
                        </use>
                        <path d="M-4,0h8M0,-4v8" fill="none" stroke="white" stroke-width="1.5" pointer-events="none"/>
                </g>
                <g id="zoomMin">
                        <use xlink:href="#rim" fill="#404040">
                                <set attributeName="fill" to="#808080" begin="zoomminus.mouseover" end="zoomminus.mouseout"/>
                        </use>
                        <path d="M-4,0h8" fill="none" stroke="white" stroke-width="1.5" pointer-events="none"/>
                </g>
                <g id="dirArrow">
                        <path fill="none" stroke="white" stroke-width="1.5" d="M0,-3.0v7 M-2.5,-0.5L0,-3.0L2.5,-0.5"/>
                </g>
               <g id="resetDef">
                       <use xlink:href="#rim2" fill="#404040">
                               <set attributeName="fill" to="#808080" begin="reset.mouseover" end="reset.mouseout"/>
                       </use>
               </g>
        </defs>

<script type="text/javascript">
var viewWidth = 688;
var viewHeight = 286;
var sectionId = 'dynsection-0';
</script>
<script xlink:href="../../svgpan.js"/>
<svg id="graph" class="graph">
<g id="viewport">
<title>/home/travis/build/AliceO2Group/AliceO2/Framework/Core/src/BoostOptionsRetriever.cxx</title>
<!-- Node1 -->
<g id="node1" class="node"><title>Node1</title>
<polygon fill="#bfbfbf" stroke="black" points="467.5,-225 467.5,-277 638.5,-277 638.5,-225 467.5,-225"/>
<text text-anchor="start" x="475.5" y="-265" font-family="Helvetica,sans-Serif" font-size="10.00">/home/travis/build</text>
<text text-anchor="start" x="475.5" y="-254" font-family="Helvetica,sans-Serif" font-size="10.00">/AliceO2Group/AliceO2</text>
<text text-anchor="start" x="475.5" y="-243" font-family="Helvetica,sans-Serif" font-size="10.00">/Framework/Core/src/BoostOptions</text>
<text text-anchor="middle" x="553" y="-232" font-family="Helvetica,sans-Serif" font-size="10.00">Retriever.cxx</text>
</g>
<!-- Node2 -->
<g id="node2" class="node"><title>Node2</title>
<g id="a_node2"><a xlink:href="../../d3/d7e/BoostOptionsRetriever_8h.html" target="_top" xlink:title="Framework/BoostOptionsRetriever.h">
<polygon fill="none" stroke="black" points="309,-168.5 309,-187.5 485,-187.5 485,-168.5 309,-168.5"/>
<text text-anchor="middle" x="397" y="-175.5" font-family="Helvetica,sans-Serif" font-size="10.00">Framework/BoostOptionsRetriever.h</text>
</a>
</g>
</g>
<!-- Node1&#45;&gt;Node2 -->
<g id="edge1" class="edge"><title>Node1&#45;&gt;Node2</title>
<path fill="none" stroke="midnightblue" d="M498,-224.968C473.425,-213.783 445.503,-201.075 425.256,-191.86"/>
<polygon fill="midnightblue" stroke="midnightblue" points="426.533,-188.596 415.981,-187.639 423.633,-194.967 426.533,-188.596"/>
</g>
<!-- Node3 -->
<g id="node3" class="node"><title>Node3</title>
<g id="a_node3"><a xlink:href="../../d0/d1c/ConfigParamSpec_8h.html" target="_top" xlink:title="Framework/ConfigParamSpec.h">
<polygon fill="none" stroke="black" points="34,-112.5 34,-131.5 190,-131.5 190,-112.5 34,-112.5"/>
<text text-anchor="middle" x="112" y="-119.5" font-family="Helvetica,sans-Serif" font-size="10.00">Framework/ConfigParamSpec.h</text>
</a>
</g>
</g>
<!-- Node1&#45;&gt;Node3 -->
<g id="edge18" class="edge"><title>Node1&#45;&gt;Node3</title>
<path fill="none" stroke="midnightblue" d="M467.221,-245.236C394.714,-238.784 289.326,-223.619 204,-188 174.998,-175.893 146.153,-153.372 128.698,-138.283"/>
<polygon fill="midnightblue" stroke="midnightblue" points="130.9,-135.558 121.093,-131.55 126.26,-140.799 130.9,-135.558"/>
</g>
<!-- Node4 -->
<g id="node4" class="node"><title>Node4</title>
<polygon fill="none" stroke="#bfbfbf" points="235.5,-56.5 235.5,-75.5 276.5,-75.5 276.5,-56.5 235.5,-56.5"/>
<text text-anchor="middle" x="256" y="-63.5" font-family="Helvetica,sans-Serif" font-size="10.00">string</text>
</g>
<!-- Node1&#45;&gt;Node4 -->
<g id="edge20" class="edge"><title>Node1&#45;&gt;Node4</title>
<path fill="none" stroke="midnightblue" d="M467.213,-244.018C415.142,-236.919 349.422,-221.481 300,-188 274.678,-170.845 270.225,-160.826 260,-132 254.738,-117.165 254.016,-99.2422 254.453,-85.977"/>
<polygon fill="midnightblue" stroke="midnightblue" points="257.963,-85.8998 255.05,-75.7135 250.975,-85.4935 257.963,-85.8998"/>
</g>
<!-- Node7 -->
<g id="node7" class="node"><title>Node7</title>
<polygon fill="none" stroke="#bfbfbf" points="506,-0.5 506,-19.5 552,-19.5 552,-0.5 506,-0.5"/>
<text text-anchor="middle" x="529" y="-7.5" font-family="Helvetica,sans-Serif" font-size="10.00">cstring</text>
</g>
<!-- Node1&#45;&gt;Node7 -->
<g id="edge23" class="edge"><title>Node1&#45;&gt;Node7</title>
<path fill="none" stroke="midnightblue" d="M601.367,-224.936C615.609,-215.257 629.819,-202.882 639,-188 656.858,-159.052 662.288,-142.867 648,-112 629.101,-71.1711 584.661,-40.8186 555.76,-24.5271"/>
<polygon fill="midnightblue" stroke="midnightblue" points="557.429,-21.4511 546.974,-19.7363 554.078,-27.5967 557.429,-21.4511"/>
</g>
<!-- Node9 -->
<g id="node9" class="node"><title>Node9</title>
<polygon fill="none" stroke="#bfbfbf" points="635.5,-0.5 635.5,-19.5 680.5,-19.5 680.5,-0.5 635.5,-0.5"/>
<text text-anchor="middle" x="658" y="-7.5" font-family="Helvetica,sans-Serif" font-size="10.00">cstdlib</text>
</g>
<!-- Node1&#45;&gt;Node9 -->
<g id="edge22" class="edge"><title>Node1&#45;&gt;Node9</title>
<path fill="none" stroke="midnightblue" d="M617.245,-224.86C633.277,-215.605 648.789,-203.485 659,-188 691.513,-138.692 674.642,-63.6538 664.214,-29.3138"/>
<polygon fill="midnightblue" stroke="midnightblue" points="667.511,-28.1329 661.125,-19.6787 660.845,-30.2698 667.511,-28.1329"/>
</g>
<!-- Node14 -->
<g id="node14" class="node"><title>Node14</title>
<polygon fill="none" stroke="#bfbfbf" points="436,-56.5 436,-75.5 480,-75.5 480,-56.5 436,-56.5"/>
<text text-anchor="middle" x="458" y="-63.5" font-family="Helvetica,sans-Serif" font-size="10.00">vector</text>
</g>
<!-- Node1&#45;&gt;Node14 -->
<g id="edge21" class="edge"><title>Node1&#45;&gt;Node14</title>
<path fill="none" stroke="midnightblue" d="M583.997,-224.934C615.803,-196.165 656.971,-148.284 629,-112 612.169,-90.167 534.788,-76.8198 490.102,-70.7978"/>
<polygon fill="midnightblue" stroke="midnightblue" points="490.4,-67.3072 480.033,-69.4901 489.499,-74.2489 490.4,-67.3072"/>
</g>
<!-- Node15 -->
<g id="node15" class="node"><title>Node15</title>
<polygon fill="none" stroke="#bfbfbf" points="486,-112.5 486,-131.5 620,-131.5 620,-112.5 486,-112.5"/>
<text text-anchor="middle" x="553" y="-119.5" font-family="Helvetica,sans-Serif" font-size="10.00">boost/program_options.hpp</text>
</g>
<!-- Node1&#45;&gt;Node15 -->
<g id="edge19" class="edge"><title>Node1&#45;&gt;Node15</title>
<path fill="none" stroke="midnightblue" d="M553,-224.909C553,-200.409 553,-163.69 553,-141.664"/>
<polygon fill="midnightblue" stroke="midnightblue" points="556.5,-141.628 553,-131.628 549.5,-141.628 556.5,-141.628"/>
</g>
<!-- Node2&#45;&gt;Node3 -->
<g id="edge2" class="edge"><title>Node2&#45;&gt;Node3</title>
<path fill="none" stroke="midnightblue" d="M351.841,-168.444C301.706,-158.944 220.78,-143.611 166.994,-133.42"/>
<polygon fill="midnightblue" stroke="midnightblue" points="167.425,-129.939 156.948,-131.516 166.121,-136.817 167.425,-129.939"/>
</g>
<!-- Node2&#45;&gt;Node4 -->
<g id="edge16" class="edge"><title>Node2&#45;&gt;Node4</title>
<path fill="none" stroke="midnightblue" d="M343.169,-168.44C319.362,-162.084 292.791,-151.062 275,-132 263.353,-119.521 258.806,-100.29 257.051,-85.9787"/>
<polygon fill="midnightblue" stroke="midnightblue" points="260.518,-85.4372 256.161,-75.7797 253.544,-86.0463 260.518,-85.4372"/>
</g>
<!-- Node13 -->
<g id="node13" class="node"><title>Node13</title>
<g id="a_node13"><a xlink:href="../../df/d72/ParamRetriever_8h.html" target="_top" xlink:title="Framework/ParamRetriever.h">
<polygon fill="none" stroke="black" points="284.5,-112.5 284.5,-131.5 429.5,-131.5 429.5,-112.5 284.5,-112.5"/>
<text text-anchor="middle" x="357" y="-119.5" font-family="Helvetica,sans-Serif" font-size="10.00">Framework/ParamRetriever.h</text>
</a>
</g>
</g>
<!-- Node2&#45;&gt;Node13 -->
<g id="edge12" class="edge"><title>Node2&#45;&gt;Node13</title>
<path fill="none" stroke="midnightblue" d="M390.395,-168.083C384.745,-160.455 376.455,-149.264 369.549,-139.941"/>
<polygon fill="midnightblue" stroke="midnightblue" points="372.247,-137.703 363.482,-131.751 366.622,-141.87 372.247,-137.703"/>
</g>
<!-- Node2&#45;&gt;Node14 -->
<g id="edge17" class="edge"><title>Node2&#45;&gt;Node14</title>
<path fill="none" stroke="midnightblue" d="M407.139,-168.32C416.389,-159.897 429.826,-146.319 438,-132 446.231,-117.581 451.454,-99.3892 454.49,-85.9209"/>
<polygon fill="midnightblue" stroke="midnightblue" points="457.964,-86.404 456.544,-75.9048 451.107,-84.9978 457.964,-86.404"/>
</g>
<!-- Node2&#45;&gt;Node15 -->
<g id="edge15" class="edge"><title>Node2&#45;&gt;Node15</title>
<path fill="none" stroke="midnightblue" d="M421.719,-168.444C447.848,-159.399 489.259,-145.064 518.576,-134.916"/>
<polygon fill="midnightblue" stroke="midnightblue" points="520.092,-138.095 528.397,-131.516 517.802,-131.48 520.092,-138.095"/>
</g>
<!-- Node3&#45;&gt;Node4 -->
<g id="edge3" class="edge"><title>Node3&#45;&gt;Node4</title>
<path fill="none" stroke="midnightblue" d="M134.817,-112.444C159.397,-103.226 198.625,-88.5157 225.759,-78.3402"/>
<polygon fill="midnightblue" stroke="midnightblue" points="227.025,-81.6036 235.16,-74.8151 224.567,-75.0492 227.025,-81.6036"/>
</g>
<!-- Node5 -->
<g id="node5" class="node"><title>Node5</title>
<g id="a_node5"><a xlink:href="../../de/d56/Variant_8h.html" target="_top" xlink:title="Framework/Variant.h">
<polygon fill="none" stroke="black" points="110.5,-56.5 110.5,-75.5 217.5,-75.5 217.5,-56.5 110.5,-56.5"/>
<text text-anchor="middle" x="164" y="-63.5" font-family="Helvetica,sans-Serif" font-size="10.00">Framework/Variant.h</text>
</a>
</g>
</g>
<!-- Node3&#45;&gt;Node5 -->
<g id="edge4" class="edge"><title>Node3&#45;&gt;Node5</title>
<path fill="none" stroke="midnightblue" d="M120.587,-112.083C128.159,-104.22 139.378,-92.5688 148.514,-83.0813"/>
<polygon fill="midnightblue" stroke="midnightblue" points="151.158,-85.3821 155.573,-75.7511 146.115,-80.5266 151.158,-85.3821"/>
</g>
<!-- Node6 -->
<g id="node6" class="node"><title>Node6</title>
<polygon fill="none" stroke="#bfbfbf" points="296,-0.5 296,-19.5 358,-19.5 358,-0.5 296,-0.5"/>
<text text-anchor="middle" x="327" y="-7.5" font-family="Helvetica,sans-Serif" font-size="10.00">type_traits</text>
</g>
<!-- Node5&#45;&gt;Node6 -->
<g id="edge5" class="edge"><title>Node5&#45;&gt;Node6</title>
<path fill="none" stroke="midnightblue" d="M189.828,-56.4435C217.249,-47.3591 260.777,-32.9388 291.432,-22.7831"/>
<polygon fill="midnightblue" stroke="midnightblue" points="292.901,-25.9837 301.293,-19.5164 290.7,-19.3389 292.901,-25.9837"/>
</g>
<!-- Node5&#45;&gt;Node7 -->
<g id="edge6" class="edge"><title>Node5&#45;&gt;Node7</title>
<path fill="none" stroke="midnightblue" d="M217.857,-57.0321C294.34,-45.7169 432.154,-25.3279 495.497,-15.9565"/>
<polygon fill="midnightblue" stroke="midnightblue" points="496.337,-19.3705 505.717,-14.4446 495.312,-12.4459 496.337,-19.3705"/>
</g>
<!-- Node8 -->
<g id="node8" class="node"><title>Node8</title>
<polygon fill="none" stroke="#bfbfbf" points="0,-0.5 0,-19.5 46,-19.5 46,-0.5 0,-0.5"/>
<text text-anchor="middle" x="23" y="-7.5" font-family="Helvetica,sans-Serif" font-size="10.00">cstdint</text>
</g>
<!-- Node5&#45;&gt;Node8 -->
<g id="edge7" class="edge"><title>Node5&#45;&gt;Node8</title>
<path fill="none" stroke="midnightblue" d="M141.658,-56.4435C118.247,-47.4776 81.2644,-33.314 54.8104,-23.1827"/>
<polygon fill="midnightblue" stroke="midnightblue" points="55.8277,-19.8245 45.2373,-19.5164 53.3241,-26.3615 55.8277,-19.8245"/>
</g>
<!-- Node5&#45;&gt;Node9 -->
<g id="edge8" class="edge"><title>Node5&#45;&gt;Node9</title>
<path fill="none" stroke="midnightblue" d="M217.751,-57.0621C220.539,-56.6926 223.302,-56.3362 226,-56 303.488,-46.3441 538.352,-22.8582 625.231,-14.2401"/>
<polygon fill="midnightblue" stroke="midnightblue" points="625.701,-17.7108 635.307,-13.2415 625.01,-10.7449 625.701,-17.7108"/>
</g>
<!-- Node10 -->
<g id="node10" class="node"><title>Node10</title>
<polygon fill="none" stroke="#bfbfbf" points="64.5,-0.5 64.5,-19.5 123.5,-19.5 123.5,-0.5 64.5,-0.5"/>
<text text-anchor="middle" x="94" y="-7.5" font-family="Helvetica,sans-Serif" font-size="10.00">stdexcept</text>
</g>
<!-- Node5&#45;&gt;Node10 -->
<g id="edge9" class="edge"><title>Node5&#45;&gt;Node10</title>
<path fill="none" stroke="midnightblue" d="M152.753,-56.324C142.203,-48.1849 126.199,-35.8395 113.558,-26.0874"/>
<polygon fill="midnightblue" stroke="midnightblue" points="115.507,-23.1707 105.451,-19.8339 111.231,-28.7132 115.507,-23.1707"/>
</g>
<!-- Node11 -->
<g id="node11" class="node"><title>Node11</title>
<polygon fill="none" stroke="#bfbfbf" points="141.5,-0.5 141.5,-19.5 186.5,-19.5 186.5,-0.5 141.5,-0.5"/>
<text text-anchor="middle" x="164" y="-7.5" font-family="Helvetica,sans-Serif" font-size="10.00">iosfwd</text>
</g>
<!-- Node5&#45;&gt;Node11 -->
<g id="edge10" class="edge"><title>Node5&#45;&gt;Node11</title>
<path fill="none" stroke="midnightblue" d="M164,-56.083C164,-49.0059 164,-38.8611 164,-29.9865"/>
<polygon fill="midnightblue" stroke="midnightblue" points="167.5,-29.751 164,-19.7511 160.5,-29.7511 167.5,-29.751"/>
</g>
<!-- Node12 -->
<g id="node12" class="node"><title>Node12</title>
<polygon fill="none" stroke="#bfbfbf" points="204.5,-0.5 204.5,-19.5 277.5,-19.5 277.5,-0.5 204.5,-0.5"/>
<text text-anchor="middle" x="241" y="-7.5" font-family="Helvetica,sans-Serif" font-size="10.00">initializer_list</text>
</g>
<!-- Node5&#45;&gt;Node12 -->
<g id="edge11" class="edge"><title>Node5&#45;&gt;Node12</title>
<path fill="none" stroke="midnightblue" d="M176.371,-56.324C188.158,-48.0577 206.132,-35.4527 220.136,-25.6322"/>
<polygon fill="midnightblue" stroke="midnightblue" points="222.482,-28.2619 228.659,-19.6545 218.462,-22.5307 222.482,-28.2619"/>
</g>
<!-- Node13&#45;&gt;Node4 -->
<g id="edge13" class="edge"><title>Node13&#45;&gt;Node4</title>
<path fill="none" stroke="midnightblue" d="M340.773,-112.324C324.649,-103.703 299.7,-90.3643 281.036,-80.3855"/>
<polygon fill="midnightblue" stroke="midnightblue" points="282.656,-77.283 272.187,-75.6545 279.356,-83.456 282.656,-77.283"/>
</g>
<!-- Node13&#45;&gt;Node14 -->
<g id="edge14" class="edge"><title>Node13&#45;&gt;Node14</title>
<path fill="none" stroke="midnightblue" d="M373.227,-112.324C389.351,-103.703 414.3,-90.3643 432.964,-80.3855"/>
<polygon fill="midnightblue" stroke="midnightblue" points="434.644,-83.456 441.813,-75.6545 431.344,-77.283 434.644,-83.456"/>
</g>
</g>
</svg>
        <g id="navigator" transform="translate(0 0)" fill="#404254">
                <rect fill="#f2f5e9" fill-opacity="0.5" stroke="#606060" stroke-width=".5" x="0" y="0" width="60" height="60"/>
                <use id="zoomplus" xlink:href="#zoomPlus" x="17" y="9" onmousedown="handleZoom(evt,'in')"/>
                <use id="zoomminus" xlink:href="#zoomMin" x="42" y="9" onmousedown="handleZoom(evt,'out')"/>
                <use id="reset" xlink:href="#resetDef" x="30" y="36" onmousedown="handleReset()"/>
                <g id="arrowUp" xlink:href="#dirArrow" transform="translate(30 24)" onmousedown="handlePan(0,-1)">
                  <use xlink:href="#rim" fill="#404040">
                        <set attributeName="fill" to="#808080" begin="arrowUp.mouseover" end="arrowUp.mouseout"/>
                  </use>
                  <path fill="none" stroke="white" stroke-width="1.5" d="M0,-3.0v7 M-2.5,-0.5L0,-3.0L2.5,-0.5"/>
                </g>
                <g id="arrowRight" xlink:href="#dirArrow" transform="rotate(90) translate(36 -43)" onmousedown="handlePan(1,0)">
                  <use xlink:href="#rim" fill="#404040">
                        <set attributeName="fill" to="#808080" begin="arrowRight.mouseover" end="arrowRight.mouseout"/>
                  </use>
                  <path fill="none" stroke="white" stroke-width="1.5" d="M0,-3.0v7 M-2.5,-0.5L0,-3.0L2.5,-0.5"/>
                </g>
                <g id="arrowDown" xlink:href="#dirArrow" transform="rotate(180) translate(-30 -48)" onmousedown="handlePan(0,1)">
                  <use xlink:href="#rim" fill="#404040">
                        <set attributeName="fill" to="#808080" begin="arrowDown.mouseover" end="arrowDown.mouseout"/>
                  </use>
                  <path fill="none" stroke="white" stroke-width="1.5" d="M0,-3.0v7 M-2.5,-0.5L0,-3.0L2.5,-0.5"/>
                </g>
                <g id="arrowLeft" xlink:href="#dirArrow" transform="rotate(270) translate(-36 17)" onmousedown="handlePan(-1,0)">
                  <use xlink:href="#rim" fill="#404040">
                        <set attributeName="fill" to="#808080" begin="arrowLeft.mouseover" end="arrowLeft.mouseout"/>
                  </use>
                  <path fill="none" stroke="white" stroke-width="1.5" d="M0,-3.0v7 M-2.5,-0.5L0,-3.0L2.5,-0.5"/>
                </g>
        </g>
        <svg viewBox="0 0 15 15" width="100%" height="30px" preserveAspectRatio="xMaxYMin meet">
         <g id="arrow_out" transform="scale(0.3 0.3)">
          <a xlink:href="BoostOptionsRetriever_8cxx__incl_org.svg" target="_base">
           <rect id="button" ry="5" rx="5" y="6" x="6" height="38" width="38"
                fill="#f2f5e9" fill-opacity="0.5" stroke="#606060" stroke-width="1.0"/>
           <path id="arrow"
             d="M 11.500037,31.436501 C 11.940474,20.09759 22.043105,11.32322 32.158766,21.979434 L 37.068811,17.246167 C 37.068811,17.246167 37.088388,32 37.088388,32 L 22.160133,31.978069 C 22.160133,31.978069 26.997745,27.140456 26.997745,27.140456 C 18.528582,18.264221 13.291696,25.230495 11.500037,31.436501 z"
             style="fill:#404040;"/>
          </a>
         </g>
        </svg>
</svg>
