<?xml version="1.0" encoding="UTF-8" standalone="no"?>
<!DOCTYPE svg PUBLIC "-//W3C//DTD SVG 1.1//EN"
 "http://www.w3.org/Graphics/SVG/1.1/DTD/svg11.dtd">
<!-- Generated by graphviz version 2.36.0 (20140111.2315)
 -->
<!-- Title: /home/travis/build/AliceO2Group/AliceO2/Utilities/DataFlow/src/TimeframeWriterDevice.cxx Pages: 1 -->
<svg width="1407pt" height="422pt"
 viewBox="0.00 0.00 1407.00 422.00" xmlns="http://www.w3.org/2000/svg" xmlns:xlink="http://www.w3.org/1999/xlink">
<g id="graph0" class="graph" transform="scale(1 1) rotate(0) translate(4 418)">
<title>/home/travis/build/AliceO2Group/AliceO2/Utilities/DataFlow/src/TimeframeWriterDevice.cxx</title>
<!-- Node1 -->
<g id="node1" class="node"><title>Node1</title>
<polygon fill="#bfbfbf" stroke="black" points="572,-361 572,-413 714,-413 714,-361 572,-361"/>
<text text-anchor="start" x="580" y="-401" font-family="Helvetica,sans-Serif" font-size="10.00">/home/travis/build</text>
<text text-anchor="start" x="580" y="-390" font-family="Helvetica,sans-Serif" font-size="10.00">/AliceO2Group/AliceO2</text>
<text text-anchor="start" x="580" y="-379" font-family="Helvetica,sans-Serif" font-size="10.00">/Utilities/DataFlow/src</text>
<text text-anchor="middle" x="643" y="-368" font-family="Helvetica,sans-Serif" font-size="10.00">/TimeframeWriterDevice.cxx</text>
</g>
<!-- Node2 -->
<g id="node2" class="node"><title>Node2</title>
<polygon fill="none" stroke="#bfbfbf" points="0,-298.5 0,-317.5 44,-317.5 44,-298.5 0,-298.5"/>
<text text-anchor="middle" x="22" y="-305.5" font-family="Helvetica,sans-Serif" font-size="10.00">thread</text>
</g>
<!-- Node1&#45;&gt;Node2 -->
<g id="edge1" class="edge"><title>Node1&#45;&gt;Node2</title>
<path fill="none" stroke="midnightblue" d="M571.596,-385.039C460.209,-382.073 239.081,-370.274 58,-324 55.0131,-323.237 51.95,-322.27 48.9321,-321.198"/>
<polygon fill="midnightblue" stroke="midnightblue" points="50.1823,-317.928 39.5951,-317.525 47.6199,-324.443 50.1823,-317.928"/>
</g>
<!-- Node3 -->
<g id="node3" class="node"><title>Node3</title>
<polygon fill="none" stroke="#bfbfbf" points="27,-124.5 27,-143.5 73,-143.5 73,-124.5 27,-124.5"/>
<text text-anchor="middle" x="50" y="-131.5" font-family="Helvetica,sans-Serif" font-size="10.00">chrono</text>
</g>
<!-- Node1&#45;&gt;Node3 -->
<g id="edge2" class="edge"><title>Node1&#45;&gt;Node3</title>
<path fill="none" stroke="midnightblue" d="M571.824,-379.258C457.758,-365.026 232.495,-322.394 91,-200 76.0594,-187.076 64.6862,-167.359 57.7517,-153.029"/>
<polygon fill="midnightblue" stroke="midnightblue" points="60.8383,-151.363 53.4992,-143.721 54.4713,-154.272 60.8383,-151.363"/>
</g>
<!-- Node4 -->
<g id="node4" class="node"><title>Node4</title>
<g id="a_node4"><a xlink:href="../../dd/dcc/TimeframeWriterDevice_8h.html" target="_top" xlink:title="DataFlow/TimeframeWriter\lDevice.h">
<polygon fill="none" stroke="black" points="576,-293 576,-323 710,-323 710,-293 576,-293"/>
<text text-anchor="start" x="584" y="-311" font-family="Helvetica,sans-Serif" font-size="10.00">DataFlow/TimeframeWriter</text>
<text text-anchor="middle" x="643" y="-300" font-family="Helvetica,sans-Serif" font-size="10.00">Device.h</text>
</a>
</g>
</g>
<!-- Node1&#45;&gt;Node4 -->
<g id="edge3" class="edge"><title>Node1&#45;&gt;Node4</title>
<path fill="none" stroke="midnightblue" d="M643,-360.787C643,-352.029 643,-342.225 643,-333.523"/>
<polygon fill="midnightblue" stroke="midnightblue" points="646.5,-333.252 643,-323.252 639.5,-333.252 646.5,-333.252"/>
</g>
<!-- Node7 -->
<g id="node7" class="node"><title>Node7</title>
<polygon fill="none" stroke="#bfbfbf" points="926,-180.5 926,-199.5 1072,-199.5 1072,-180.5 926,-180.5"/>
<text text-anchor="middle" x="999" y="-187.5" font-family="Helvetica,sans-Serif" font-size="10.00">options/FairMQProgOptions.h</text>
</g>
<!-- Node1&#45;&gt;Node7 -->
<g id="edge49" class="edge"><title>Node1&#45;&gt;Node7</title>
<path fill="none" stroke="midnightblue" d="M688.812,-360.906C764.949,-319.202 915.005,-237.008 974.174,-204.599"/>
<polygon fill="midnightblue" stroke="midnightblue" points="976.093,-207.538 983.182,-199.664 972.73,-201.399 976.093,-207.538"/>
</g>
<!-- Node22 -->
<g id="node22" class="node"><title>Node22</title>
<g id="a_node22"><a xlink:href="../../dc/dcd/DataHeader_8h.html" target="_top" xlink:title="Headers/DataHeader.h">
<polygon fill="none" stroke="black" points="354.5,-124.5 354.5,-143.5 471.5,-143.5 471.5,-124.5 354.5,-124.5"/>
<text text-anchor="middle" x="413" y="-131.5" font-family="Helvetica,sans-Serif" font-size="10.00">Headers/DataHeader.h</text>
</a>
</g>
</g>
<!-- Node1&#45;&gt;Node22 -->
<g id="edge48" class="edge"><title>Node1&#45;&gt;Node22</title>
<path fill="none" stroke="midnightblue" d="M609.201,-360.836C595.558,-350.075 580,-337.008 567,-324 508.747,-265.713 450.026,-186.765 425.243,-152.297"/>
<polygon fill="midnightblue" stroke="midnightblue" points="427.841,-149.912 419.181,-143.808 422.144,-153.98 427.841,-149.912"/>
</g>
<!-- Node31 -->
<g id="node31" class="node"><title>Node31</title>
<g id="a_node31"><a xlink:href="../../dd/ddb/TimeframeParser_8h.html" target="_top" xlink:title="DataFlow/TimeframeParser.h">
<polygon fill="none" stroke="black" points="1128.5,-298.5 1128.5,-317.5 1273.5,-317.5 1273.5,-298.5 1128.5,-298.5"/>
<text text-anchor="middle" x="1201" y="-305.5" font-family="Helvetica,sans-Serif" font-size="10.00">DataFlow/TimeframeParser.h</text>
</a>
</g>
</g>
<!-- Node1&#45;&gt;Node31 -->
<g id="edge35" class="edge"><title>Node1&#45;&gt;Node31</title>
<path fill="none" stroke="midnightblue" d="M714.142,-377.531C806.475,-366.335 972.528,-345.498 1114,-324 1123.56,-322.547 1133.69,-320.9 1143.53,-319.241"/>
<polygon fill="midnightblue" stroke="midnightblue" points="1144.38,-322.648 1153.65,-317.517 1143.2,-315.748 1144.38,-322.648"/>
</g>
<!-- Node34 -->
<g id="node34" class="node"><title>Node34</title>
<g id="a_node34"><a xlink:href="../../de/dfa/TimeFrame_8h.html" target="_top" xlink:title="TimeFrame/TimeFrame.h">
<polygon fill="none" stroke="black" points="249.5,-236.5 249.5,-255.5 376.5,-255.5 376.5,-236.5 249.5,-236.5"/>
<text text-anchor="middle" x="313" y="-243.5" font-family="Helvetica,sans-Serif" font-size="10.00">TimeFrame/TimeFrame.h</text>
</a>
</g>
</g>
<!-- Node1&#45;&gt;Node34 -->
<g id="edge38" class="edge"><title>Node1&#45;&gt;Node34</title>
<path fill="none" stroke="midnightblue" d="M571.829,-372.13C527.917,-362.061 471.165,-346.273 424,-324 388.398,-307.188 351.758,-279.314 330.749,-262.116"/>
<polygon fill="midnightblue" stroke="midnightblue" points="332.927,-259.374 323,-255.672 328.451,-264.757 332.927,-259.374"/>
</g>
<!-- Node38 -->
<g id="node38" class="node"><title>Node38</title>
<g id="a_node38"><a xlink:href="../../d2/d1b/SubframeMetadata_8h.html" target="_top" xlink:title="Headers/SubframeMetadata.h">
<polygon fill="none" stroke="black" points="1075.5,-124.5 1075.5,-143.5 1222.5,-143.5 1222.5,-124.5 1075.5,-124.5"/>
<text text-anchor="middle" x="1149" y="-131.5" font-family="Helvetica,sans-Serif" font-size="10.00">Headers/SubframeMetadata.h</text>
</a>
</g>
</g>
<!-- Node1&#45;&gt;Node38 -->
<g id="edge46" class="edge"><title>Node1&#45;&gt;Node38</title>
<path fill="none" stroke="midnightblue" d="M714.223,-364.994C804.451,-336.38 962.454,-279.465 1081,-200 1101.87,-186.013 1122.21,-165.369 1135.12,-151.116"/>
<polygon fill="midnightblue" stroke="midnightblue" points="1137.8,-153.368 1141.81,-143.562 1132.56,-148.726 1137.8,-153.368"/>
</g>
<!-- Node39 -->
<g id="node39" class="node"><title>Node39</title>
<polygon fill="none" stroke="#bfbfbf" points="1291.5,-298.5 1291.5,-317.5 1398.5,-317.5 1398.5,-298.5 1291.5,-298.5"/>
<text text-anchor="middle" x="1345" y="-305.5" font-family="Helvetica,sans-Serif" font-size="10.00">boost/filesystem.hpp</text>
</g>
<!-- Node1&#45;&gt;Node39 -->
<g id="edge50" class="edge"><title>Node1&#45;&gt;Node39</title>
<path fill="none" stroke="midnightblue" d="M714.335,-382.277C832.846,-375.377 1077.51,-358.099 1282,-324 1288.78,-322.869 1295.92,-321.423 1302.85,-319.877"/>
<polygon fill="midnightblue" stroke="midnightblue" points="1303.85,-323.237 1312.8,-317.564 1302.27,-316.419 1303.85,-323.237"/>
</g>
<!-- Node5 -->
<g id="node5" class="node"><title>Node5</title>
<g id="a_node5"><a xlink:href="../../d2/dee/O2Device_8h.html" target="_top" xlink:title="O2Device/O2Device.h">
<polygon fill="none" stroke="black" points="636.5,-236.5 636.5,-255.5 751.5,-255.5 751.5,-236.5 636.5,-236.5"/>
<text text-anchor="middle" x="694" y="-243.5" font-family="Helvetica,sans-Serif" font-size="10.00">O2Device/O2Device.h</text>
</a>
</g>
</g>
<!-- Node4&#45;&gt;Node5 -->
<g id="edge4" class="edge"><title>Node4&#45;&gt;Node5</title>
<path fill="none" stroke="midnightblue" d="M655.086,-292.781C662.574,-283.972 672.218,-272.626 680.032,-263.433"/>
<polygon fill="midnightblue" stroke="midnightblue" points="682.769,-265.617 686.579,-255.731 677.436,-261.083 682.769,-265.617"/>
</g>
<!-- Node30 -->
<g id="node30" class="node"><title>Node30</title>
<polygon fill="none" stroke="#bfbfbf" points="568,-236.5 568,-255.5 618,-255.5 618,-236.5 568,-236.5"/>
<text text-anchor="middle" x="593" y="-243.5" font-family="Helvetica,sans-Serif" font-size="10.00">fstream</text>
</g>
<!-- Node4&#45;&gt;Node30 -->
<g id="edge34" class="edge"><title>Node4&#45;&gt;Node30</title>
<path fill="none" stroke="midnightblue" d="M631.151,-292.781C623.81,-283.972 614.355,-272.626 606.694,-263.433"/>
<polygon fill="midnightblue" stroke="midnightblue" points="609.366,-261.172 600.275,-255.731 603.989,-265.653 609.366,-261.172"/>
</g>
<!-- Node6 -->
<g id="node6" class="node"><title>Node6</title>
<polygon fill="none" stroke="#bfbfbf" points="650,-180.5 650,-199.5 738,-199.5 738,-180.5 650,-180.5"/>
<text text-anchor="middle" x="694" y="-187.5" font-family="Helvetica,sans-Serif" font-size="10.00">FairMQDevice.h</text>
</g>
<!-- Node5&#45;&gt;Node6 -->
<g id="edge5" class="edge"><title>Node5&#45;&gt;Node6</title>
<path fill="none" stroke="midnightblue" d="M694,-236.083C694,-229.006 694,-218.861 694,-209.986"/>
<polygon fill="midnightblue" stroke="midnightblue" points="697.5,-209.751 694,-199.751 690.5,-209.751 697.5,-209.751"/>
</g>
<!-- Node5&#45;&gt;Node7 -->
<g id="edge6" class="edge"><title>Node5&#45;&gt;Node7</title>
<path fill="none" stroke="midnightblue" d="M742.328,-236.444C796.204,-226.905 883.307,-211.483 940.864,-201.293"/>
<polygon fill="midnightblue" stroke="midnightblue" points="941.661,-204.706 950.898,-199.516 940.441,-197.813 941.661,-204.706"/>
</g>
<!-- Node8 -->
<g id="node8" class="node"><title>Node8</title>
<g id="a_node8"><a xlink:href="../../d7/db2/Utilities_8h.html" target="_top" xlink:title="O2Device/Utilities.h">
<polygon fill="none" stroke="black" points="528,-180.5 528,-199.5 632,-199.5 632,-180.5 528,-180.5"/>
<text text-anchor="middle" x="580" y="-187.5" font-family="Helvetica,sans-Serif" font-size="10.00">O2Device/Utilities.h</text>
</a>
</g>
</g>
<!-- Node5&#45;&gt;Node8 -->
<g id="edge7" class="edge"><title>Node5&#45;&gt;Node8</title>
<path fill="none" stroke="midnightblue" d="M675.936,-236.444C657.425,-227.675 628.419,-213.935 607.145,-203.858"/>
<polygon fill="midnightblue" stroke="midnightblue" points="608.515,-200.634 597.979,-199.516 605.518,-206.96 608.515,-200.634"/>
</g>
<!-- Node27 -->
<g id="node27" class="node"><title>Node27</title>
<polygon fill="none" stroke="#bfbfbf" points="481.5,-68.5 481.5,-87.5 540.5,-87.5 540.5,-68.5 481.5,-68.5"/>
<text text-anchor="middle" x="511" y="-75.5" font-family="Helvetica,sans-Serif" font-size="10.00">stdexcept</text>
</g>
<!-- Node5&#45;&gt;Node27 -->
<g id="edge33" class="edge"><title>Node5&#45;&gt;Node27</title>
<path fill="none" stroke="midnightblue" d="M636.112,-237.486C591.139,-230.362 533.973,-218.047 519,-200 494.995,-171.067 500.587,-123.622 506.165,-97.5697"/>
<polygon fill="midnightblue" stroke="midnightblue" points="509.642,-98.0765 508.545,-87.5386 502.831,-96.4607 509.642,-98.0765"/>
</g>
<!-- Node29 -->
<g id="node29" class="node"><title>Node29</title>
<polygon fill="none" stroke="#bfbfbf" points="756.5,-180.5 756.5,-199.5 907.5,-199.5 907.5,-180.5 756.5,-180.5"/>
<text text-anchor="middle" x="832" y="-187.5" font-family="Helvetica,sans-Serif" font-size="10.00">Monitoring/MonitoringFactory.h</text>
</g>
<!-- Node5&#45;&gt;Node29 -->
<g id="edge32" class="edge"><title>Node5&#45;&gt;Node29</title>
<path fill="none" stroke="midnightblue" d="M715.867,-236.444C738.779,-227.478 774.975,-213.314 800.866,-203.183"/>
<polygon fill="midnightblue" stroke="midnightblue" points="802.199,-206.42 810.236,-199.516 799.648,-199.901 802.199,-206.42"/>
</g>
<!-- Node9 -->
<g id="node9" class="node"><title>Node9</title>
<g id="a_node9"><a xlink:href="../../dc/d03/MemoryResources_8h.html" target="_top" xlink:title="MemoryResources/MemoryResources.h">
<polygon fill="none" stroke="black" points="558.5,-68.5 558.5,-87.5 751.5,-87.5 751.5,-68.5 558.5,-68.5"/>
<text text-anchor="middle" x="655" y="-75.5" font-family="Helvetica,sans-Serif" font-size="10.00">MemoryResources/MemoryResources.h</text>
</a>
</g>
</g>
<!-- Node8&#45;&gt;Node9 -->
<g id="edge8" class="edge"><title>Node8&#45;&gt;Node9</title>
<path fill="none" stroke="midnightblue" d="M580.865,-180.306C582.523,-167.138 587.111,-141.79 599,-124 607.257,-111.645 619.959,-101.042 631.179,-93.2378"/>
<polygon fill="midnightblue" stroke="midnightblue" points="633.318,-96.02 639.747,-87.5983 629.47,-90.1729 633.318,-96.02"/>
</g>
<!-- Node17 -->
<g id="node17" class="node"><title>Node17</title>
<polygon fill="none" stroke="#bfbfbf" points="1217,-6.5 1217,-25.5 1257,-25.5 1257,-6.5 1217,-6.5"/>
<text text-anchor="middle" x="1237" y="-13.5" font-family="Helvetica,sans-Serif" font-size="10.00">utility</text>
</g>
<!-- Node8&#45;&gt;Node17 -->
<g id="edge30" class="edge"><title>Node8&#45;&gt;Node17</title>
<path fill="none" stroke="midnightblue" d="M630.865,-180.438C739.325,-161.29 1000.36,-110.431 1208,-32 1209.6,-31.3941 1211.23,-30.722 1212.86,-30.0077"/>
<polygon fill="midnightblue" stroke="midnightblue" points="1214.47,-33.1197 1221.95,-25.6239 1211.43,-26.8143 1214.47,-33.1197"/>
</g>
<!-- Node8&#45;&gt;Node22 -->
<g id="edge21" class="edge"><title>Node8&#45;&gt;Node22</title>
<path fill="none" stroke="midnightblue" d="M553.538,-180.444C525.322,-171.32 480.46,-156.813 449.032,-146.651"/>
<polygon fill="midnightblue" stroke="midnightblue" points="449.93,-143.263 439.338,-143.516 447.776,-149.923 449.93,-143.263"/>
</g>
<!-- Node28 -->
<g id="node28" class="node"><title>Node28</title>
<polygon fill="none" stroke="#bfbfbf" points="608.5,-124.5 608.5,-143.5 653.5,-143.5 653.5,-124.5 608.5,-124.5"/>
<text text-anchor="middle" x="631" y="-131.5" font-family="Helvetica,sans-Serif" font-size="10.00">gsl/gsl</text>
</g>
<!-- Node8&#45;&gt;Node28 -->
<g id="edge31" class="edge"><title>Node8&#45;&gt;Node28</title>
<path fill="none" stroke="midnightblue" d="M588.422,-180.083C595.848,-172.22 606.852,-160.569 615.812,-151.081"/>
<polygon fill="midnightblue" stroke="midnightblue" points="618.413,-153.424 622.735,-143.751 613.324,-148.618 618.413,-153.424"/>
</g>
<!-- Node10 -->
<g id="node10" class="node"><title>Node10</title>
<polygon fill="none" stroke="#bfbfbf" points="1099,-1 1099,-31 1199,-31 1199,-1 1099,-1"/>
<text text-anchor="start" x="1107" y="-19" font-family="Helvetica,sans-Serif" font-size="10.00">boost/container/flat</text>
<text text-anchor="middle" x="1149" y="-8" font-family="Helvetica,sans-Serif" font-size="10.00">_map.hpp</text>
</g>
<!-- Node9&#45;&gt;Node10 -->
<g id="edge9" class="edge"><title>Node9&#45;&gt;Node10</title>
<path fill="none" stroke="midnightblue" d="M751.644,-70.9194C837.628,-64.6023 966.888,-52.8845 1088.81,-31.8545"/>
<polygon fill="midnightblue" stroke="midnightblue" points="1089.45,-35.2957 1098.7,-30.1253 1088.24,-28.4003 1089.45,-35.2957"/>
</g>
<!-- Node11 -->
<g id="node11" class="node"><title>Node11</title>
<polygon fill="none" stroke="#bfbfbf" points="274,-1 274,-31 390,-31 390,-1 274,-1"/>
<text text-anchor="start" x="282" y="-19" font-family="Helvetica,sans-Serif" font-size="10.00">boost/container/pmr</text>
<text text-anchor="middle" x="332" y="-8" font-family="Helvetica,sans-Serif" font-size="10.00">/memory_resource.hpp</text>
</g>
<!-- Node9&#45;&gt;Node11 -->
<g id="edge10" class="edge"><title>Node9&#45;&gt;Node11</title>
<path fill="none" stroke="midnightblue" d="M602.406,-68.4856C552.788,-60.2884 476.082,-47.1939 400.273,-32.2035"/>
<polygon fill="midnightblue" stroke="midnightblue" points="400.561,-28.6922 390.07,-30.1732 399.194,-35.5576 400.561,-28.6922"/>
</g>
<!-- Node12 -->
<g id="node12" class="node"><title>Node12</title>
<polygon fill="none" stroke="#bfbfbf" points="408,-1 408,-31 564,-31 564,-1 408,-1"/>
<text text-anchor="start" x="416" y="-19" font-family="Helvetica,sans-Serif" font-size="10.00">boost/container/pmr</text>
<text text-anchor="middle" x="486" y="-8" font-family="Helvetica,sans-Serif" font-size="10.00">/monotonic_buffer_resource.hpp</text>
</g>
<!-- Node9&#45;&gt;Node12 -->
<g id="edge11" class="edge"><title>Node9&#45;&gt;Node12</title>
<path fill="none" stroke="midnightblue" d="M630.786,-68.4035C605.89,-59.5644 566.424,-45.553 534.98,-34.3895"/>
<polygon fill="midnightblue" stroke="midnightblue" points="536.099,-31.0728 525.505,-31.0253 533.757,-37.6694 536.099,-31.0728"/>
</g>
<!-- Node13 -->
<g id="node13" class="node"><title>Node13</title>
<polygon fill="none" stroke="#bfbfbf" points="582.5,-1 582.5,-31 715.5,-31 715.5,-1 582.5,-1"/>
<text text-anchor="start" x="590.5" y="-19" font-family="Helvetica,sans-Serif" font-size="10.00">boost/container/pmr</text>
<text text-anchor="middle" x="649" y="-8" font-family="Helvetica,sans-Serif" font-size="10.00">/polymorphic_allocator.hpp</text>
</g>
<!-- Node9&#45;&gt;Node13 -->
<g id="edge12" class="edge"><title>Node9&#45;&gt;Node13</title>
<path fill="none" stroke="midnightblue" d="M654.14,-68.4035C653.434,-61.3405 652.398,-50.975 651.44,-41.399"/>
<polygon fill="midnightblue" stroke="midnightblue" points="654.892,-40.7429 650.414,-31.1408 647.927,-41.4395 654.892,-40.7429"/>
</g>
<!-- Node14 -->
<g id="node14" class="node"><title>Node14</title>
<polygon fill="none" stroke="#bfbfbf" points="150,-6.5 150,-25.5 196,-25.5 196,-6.5 150,-6.5"/>
<text text-anchor="middle" x="173" y="-13.5" font-family="Helvetica,sans-Serif" font-size="10.00">cstring</text>
</g>
<!-- Node9&#45;&gt;Node14 -->
<g id="edge13" class="edge"><title>Node9&#45;&gt;Node14</title>
<path fill="none" stroke="midnightblue" d="M561.688,-68.4784C434.898,-56.7814 221.924,-36.6657 205,-32 202.654,-31.3533 200.268,-30.5471 197.909,-29.6462"/>
<polygon fill="midnightblue" stroke="midnightblue" points="199.112,-26.3529 188.545,-25.5765 196.321,-32.7727 199.112,-26.3529"/>
</g>
<!-- Node15 -->
<g id="node15" class="node"><title>Node15</title>
<polygon fill="none" stroke="#bfbfbf" points="214.5,-6.5 214.5,-25.5 255.5,-25.5 255.5,-6.5 214.5,-6.5"/>
<text text-anchor="middle" x="235" y="-13.5" font-family="Helvetica,sans-Serif" font-size="10.00">string</text>
</g>
<!-- Node9&#45;&gt;Node15 -->
<g id="edge14" class="edge"><title>Node9&#45;&gt;Node15</title>
<path fill="none" stroke="midnightblue" d="M567.045,-68.4824C460.94,-57.9522 293.213,-40.3963 265,-32 263.033,-31.4145 261.038,-30.7058 259.062,-29.919"/>
<polygon fill="midnightblue" stroke="midnightblue" points="260.081,-26.5359 249.533,-25.5423 257.16,-32.897 260.081,-26.5359"/>
</g>
<!-- Node16 -->
<g id="node16" class="node"><title>Node16</title>
<polygon fill="none" stroke="#bfbfbf" points="70,-6.5 70,-25.5 132,-25.5 132,-6.5 70,-6.5"/>
<text text-anchor="middle" x="101" y="-13.5" font-family="Helvetica,sans-Serif" font-size="10.00">type_traits</text>
</g>
<!-- Node9&#45;&gt;Node16 -->
<g id="edge15" class="edge"><title>Node9&#45;&gt;Node16</title>
<path fill="none" stroke="midnightblue" d="M558.289,-68.6973C410.792,-56.0117 146.037,-33.1424 141,-32 137.494,-31.2048 133.882,-30.1731 130.33,-29.0228"/>
<polygon fill="midnightblue" stroke="midnightblue" points="131.208,-25.6204 120.613,-25.5653 128.861,-32.2153 131.208,-25.6204"/>
</g>
<!-- Node9&#45;&gt;Node17 -->
<g id="edge16" class="edge"><title>Node9&#45;&gt;Node17</title>
<path fill="none" stroke="midnightblue" d="M751.652,-73.7192C886.788,-68.3489 1124.96,-55.814 1208,-32 1209.92,-31.4492 1211.86,-30.7657 1213.78,-29.9965"/>
<polygon fill="midnightblue" stroke="midnightblue" points="1215.45,-33.0783 1223.01,-25.6535 1212.47,-26.7446 1215.45,-33.0783"/>
</g>
<!-- Node18 -->
<g id="node18" class="node"><title>Node18</title>
<polygon fill="none" stroke="#bfbfbf" points="1275,-6.5 1275,-25.5 1319,-25.5 1319,-6.5 1275,-6.5"/>
<text text-anchor="middle" x="1297" y="-13.5" font-family="Helvetica,sans-Serif" font-size="10.00">vector</text>
</g>
<!-- Node9&#45;&gt;Node18 -->
<g id="edge17" class="edge"><title>Node9&#45;&gt;Node18</title>
<path fill="none" stroke="midnightblue" d="M751.578,-74.3006C898.682,-69.4426 1171.74,-57.2851 1266,-32 1268.34,-31.3726 1270.71,-30.5683 1273.05,-29.6588"/>
<polygon fill="midnightblue" stroke="midnightblue" points="1274.61,-32.7959 1282.31,-25.5111 1271.75,-26.4085 1274.61,-32.7959"/>
</g>
<!-- Node19 -->
<g id="node19" class="node"><title>Node19</title>
<polygon fill="none" stroke="#bfbfbf" points="733.5,-6.5 733.5,-25.5 816.5,-25.5 816.5,-6.5 733.5,-6.5"/>
<text text-anchor="middle" x="775" y="-13.5" font-family="Helvetica,sans-Serif" font-size="10.00">unordered_map</text>
</g>
<!-- Node9&#45;&gt;Node19 -->
<g id="edge18" class="edge"><title>Node9&#45;&gt;Node19</title>
<path fill="none" stroke="midnightblue" d="M672.193,-68.4035C692.243,-58.3787 725.599,-41.7006 748.86,-30.0699"/>
<polygon fill="midnightblue" stroke="midnightblue" points="750.46,-33.1833 757.839,-25.5806 747.329,-26.9223 750.46,-33.1833"/>
</g>
<!-- Node20 -->
<g id="node20" class="node"><title>Node20</title>
<polygon fill="none" stroke="#bfbfbf" points="834.5,-6.5 834.5,-25.5 931.5,-25.5 931.5,-6.5 834.5,-6.5"/>
<text text-anchor="middle" x="883" y="-13.5" font-family="Helvetica,sans-Serif" font-size="10.00">FairMQMessage.h</text>
</g>
<!-- Node9&#45;&gt;Node20 -->
<g id="edge19" class="edge"><title>Node9&#45;&gt;Node20</title>
<path fill="none" stroke="midnightblue" d="M687.667,-68.4035C727.877,-57.8217 796.258,-39.8269 840.515,-28.1802"/>
<polygon fill="midnightblue" stroke="midnightblue" points="841.614,-31.5104 850.394,-25.5806 839.832,-24.7408 841.614,-31.5104"/>
</g>
<!-- Node21 -->
<g id="node21" class="node"><title>Node21</title>
<polygon fill="none" stroke="#bfbfbf" points="949.5,-6.5 949.5,-25.5 1080.5,-25.5 1080.5,-6.5 949.5,-6.5"/>
<text text-anchor="middle" x="1015" y="-13.5" font-family="Helvetica,sans-Serif" font-size="10.00">FairMQTransportFactory.h</text>
</g>
<!-- Node9&#45;&gt;Node21 -->
<g id="edge20" class="edge"><title>Node9&#45;&gt;Node21</title>
<path fill="none" stroke="midnightblue" d="M713.521,-68.4732C771.217,-59.8987 861.844,-45.9797 940,-32 947.72,-30.6191 955.87,-29.0769 963.841,-27.5214"/>
<polygon fill="midnightblue" stroke="midnightblue" points="964.663,-30.9268 973.795,-25.5552 963.306,-24.0595 964.663,-30.9268"/>
</g>
<!-- Node22&#45;&gt;Node9 -->
<g id="edge29" class="edge"><title>Node22&#45;&gt;Node9</title>
<path fill="none" stroke="midnightblue" d="M451.346,-124.444C493.473,-115.043 561.206,-99.9291 606.872,-89.7393"/>
<polygon fill="midnightblue" stroke="midnightblue" points="607.836,-93.1103 616.834,-87.5164 606.312,-86.2784 607.836,-93.1103"/>
</g>
<!-- Node22&#45;&gt;Node14 -->
<g id="edge25" class="edge"><title>Node22&#45;&gt;Node14</title>
<path fill="none" stroke="midnightblue" d="M413.293,-124.386C413.266,-110.379 411.025,-82.7491 395,-68 331.76,-9.79691 286.776,-58.4475 205,-32 202.866,-31.3097 200.688,-30.5106 198.523,-29.6478"/>
<polygon fill="midnightblue" stroke="midnightblue" points="199.852,-26.4088 189.288,-25.5983 197.041,-32.8195 199.852,-26.4088"/>
</g>
<!-- Node22&#45;&gt;Node15 -->
<g id="edge28" class="edge"><title>Node22&#45;&gt;Node15</title>
<path fill="none" stroke="midnightblue" d="M419.265,-124.422C428.273,-110.952 442.402,-84.6629 429,-68 382.23,-9.85028 335.356,-56.8768 265,-32 263.147,-31.3448 261.261,-30.6017 259.384,-29.8052"/>
<polygon fill="midnightblue" stroke="midnightblue" points="260.792,-26.6002 250.251,-25.5379 257.829,-32.9421 260.792,-26.6002"/>
</g>
<!-- Node23 -->
<g id="node23" class="node"><title>Node23</title>
<polygon fill="none" stroke="#bfbfbf" points="197,-68.5 197,-87.5 243,-87.5 243,-68.5 197,-68.5"/>
<text text-anchor="middle" x="220" y="-75.5" font-family="Helvetica,sans-Serif" font-size="10.00">cstdint</text>
</g>
<!-- Node22&#45;&gt;Node23 -->
<g id="edge22" class="edge"><title>Node22&#45;&gt;Node23</title>
<path fill="none" stroke="midnightblue" d="M382.431,-124.472C352.003,-115.979 303.71,-102.491 252.918,-88.2544"/>
<polygon fill="midnightblue" stroke="midnightblue" points="253.644,-84.8231 243.071,-85.4935 251.755,-91.5632 253.644,-84.8231"/>
</g>
<!-- Node24 -->
<g id="node24" class="node"><title>Node24</title>
<polygon fill="none" stroke="#bfbfbf" points="261,-68.5 261,-87.5 313,-87.5 313,-68.5 261,-68.5"/>
<text text-anchor="middle" x="287" y="-75.5" font-family="Helvetica,sans-Serif" font-size="10.00">memory</text>
</g>
<!-- Node22&#45;&gt;Node24 -->
<g id="edge23" class="edge"><title>Node22&#45;&gt;Node24</title>
<path fill="none" stroke="midnightblue" d="M393.035,-124.444C372.391,-115.596 339.937,-101.687 316.368,-91.5865"/>
<polygon fill="midnightblue" stroke="midnightblue" points="317.442,-88.2387 306.872,-87.5164 314.684,-94.6727 317.442,-88.2387"/>
</g>
<!-- Node25 -->
<g id="node25" class="node"><title>Node25</title>
<polygon fill="none" stroke="#bfbfbf" points="129.5,-68.5 129.5,-87.5 178.5,-87.5 178.5,-68.5 129.5,-68.5"/>
<text text-anchor="middle" x="154" y="-75.5" font-family="Helvetica,sans-Serif" font-size="10.00">cassert</text>
</g>
<!-- Node22&#45;&gt;Node25 -->
<g id="edge24" class="edge"><title>Node22&#45;&gt;Node25</title>
<path fill="none" stroke="midnightblue" d="M365.847,-124.441C322.337,-116.348 255.725,-103.465 188.724,-88.0549"/>
<polygon fill="midnightblue" stroke="midnightblue" points="189.371,-84.612 178.839,-85.7631 187.79,-91.4312 189.371,-84.612"/>
</g>
<!-- Node26 -->
<g id="node26" class="node"><title>Node26</title>
<polygon fill="none" stroke="#bfbfbf" points="331,-68.5 331,-87.5 387,-87.5 387,-68.5 331,-68.5"/>
<text text-anchor="middle" x="359" y="-75.5" font-family="Helvetica,sans-Serif" font-size="10.00">algorithm</text>
</g>
<!-- Node22&#45;&gt;Node26 -->
<g id="edge26" class="edge"><title>Node22&#45;&gt;Node26</title>
<path fill="none" stroke="midnightblue" d="M404.083,-124.083C396.22,-116.22 384.569,-104.569 375.081,-95.0813"/>
<polygon fill="midnightblue" stroke="midnightblue" points="377.297,-92.3473 367.751,-87.7511 372.347,-97.2971 377.297,-92.3473"/>
</g>
<!-- Node22&#45;&gt;Node27 -->
<g id="edge27" class="edge"><title>Node22&#45;&gt;Node27</title>
<path fill="none" stroke="midnightblue" d="M428.745,-124.324C444.319,-115.743 468.377,-102.486 486.459,-92.5224"/>
<polygon fill="midnightblue" stroke="midnightblue" points="488.224,-95.546 495.294,-87.6545 484.846,-89.4152 488.224,-95.546"/>
</g>
<!-- Node32 -->
<g id="node32" class="node"><title>Node32</title>
<polygon fill="none" stroke="#bfbfbf" points="1226.5,-236.5 1226.5,-255.5 1271.5,-255.5 1271.5,-236.5 1226.5,-236.5"/>
<text text-anchor="middle" x="1249" y="-243.5" font-family="Helvetica,sans-Serif" font-size="10.00">iosfwd</text>
</g>
<!-- Node31&#45;&gt;Node32 -->
<g id="edge36" class="edge"><title>Node31&#45;&gt;Node32</title>
<path fill="none" stroke="midnightblue" d="M1207.88,-298.403C1215.15,-289.314 1226.8,-274.756 1235.84,-263.449"/>
<polygon fill="midnightblue" stroke="midnightblue" points="1238.62,-265.576 1242.14,-255.581 1233.16,-261.203 1238.62,-265.576"/>
</g>
<!-- Node33 -->
<g id="node33" class="node"><title>Node33</title>
<polygon fill="none" stroke="#bfbfbf" points="1149.5,-236.5 1149.5,-255.5 1208.5,-255.5 1208.5,-236.5 1149.5,-236.5"/>
<text text-anchor="middle" x="1179" y="-243.5" font-family="Helvetica,sans-Serif" font-size="10.00">functional</text>
</g>
<!-- Node31&#45;&gt;Node33 -->
<g id="edge37" class="edge"><title>Node31&#45;&gt;Node33</title>
<path fill="none" stroke="midnightblue" d="M1197.85,-298.403C1194.68,-289.76 1189.7,-276.17 1185.65,-265.134"/>
<polygon fill="midnightblue" stroke="midnightblue" points="1188.87,-263.764 1182.15,-255.581 1182.3,-266.174 1188.87,-263.764"/>
</g>
<!-- Node35 -->
<g id="node35" class="node"><title>Node35</title>
<polygon fill="none" stroke="#bfbfbf" points="246,-180.5 246,-199.5 326,-199.5 326,-180.5 246,-180.5"/>
<text text-anchor="middle" x="286" y="-187.5" font-family="Helvetica,sans-Serif" font-size="10.00">FairMQParts.h</text>
</g>
<!-- Node34&#45;&gt;Node35 -->
<g id="edge39" class="edge"><title>Node34&#45;&gt;Node35</title>
<path fill="none" stroke="midnightblue" d="M308.541,-236.083C304.846,-228.691 299.477,-217.953 294.906,-208.811"/>
<polygon fill="midnightblue" stroke="midnightblue" points="297.978,-207.13 290.376,-199.751 291.717,-210.261 297.978,-207.13"/>
</g>
<!-- Node36 -->
<g id="node36" class="node"><title>Node36</title>
<polygon fill="none" stroke="#bfbfbf" points="344.5,-180.5 344.5,-199.5 403.5,-199.5 403.5,-180.5 344.5,-180.5"/>
<text text-anchor="middle" x="374" y="-187.5" font-family="Helvetica,sans-Serif" font-size="10.00">TObject.h</text>
</g>
<!-- Node34&#45;&gt;Node36 -->
<g id="edge40" class="edge"><title>Node34&#45;&gt;Node36</title>
<path fill="none" stroke="midnightblue" d="M322.801,-236.324C331.818,-228.341 345.406,-216.313 356.318,-206.653"/>
<polygon fill="midnightblue" stroke="midnightblue" points="358.853,-209.083 364.021,-199.834 354.213,-203.842 358.853,-209.083"/>
</g>
<!-- Node37 -->
<g id="node37" class="node"><title>Node37</title>
<g id="a_node37"><a xlink:href="../../d6/d90/Headers_2include_2Headers_2TimeStamp_8h.html" target="_top" xlink:title="Headers/TimeStamp.h">
<polygon fill="none" stroke="black" points="100.5,-180.5 100.5,-199.5 215.5,-199.5 215.5,-180.5 100.5,-180.5"/>
<text text-anchor="middle" x="158" y="-187.5" font-family="Helvetica,sans-Serif" font-size="10.00">Headers/TimeStamp.h</text>
</a>
</g>
</g>
<!-- Node34&#45;&gt;Node37 -->
<g id="edge41" class="edge"><title>Node34&#45;&gt;Node37</title>
<path fill="none" stroke="midnightblue" d="M288.44,-236.444C262.477,-227.399 221.332,-213.064 192.203,-202.916"/>
<polygon fill="midnightblue" stroke="midnightblue" points="193.04,-199.501 182.445,-199.516 190.737,-206.112 193.04,-199.501"/>
</g>
<!-- Node37&#45;&gt;Node3 -->
<g id="edge43" class="edge"><title>Node37&#45;&gt;Node3</title>
<path fill="none" stroke="midnightblue" d="M140.648,-180.324C123.328,-171.664 96.4847,-158.242 76.4981,-148.249"/>
<polygon fill="midnightblue" stroke="midnightblue" points="77.8186,-144.996 67.309,-143.655 74.688,-151.257 77.8186,-144.996"/>
</g>
<!-- Node37&#45;&gt;Node16 -->
<g id="edge45" class="edge"><title>Node37&#45;&gt;Node16</title>
<path fill="none" stroke="midnightblue" d="M154.458,-180.454C147.37,-163.178 131.168,-122.784 120,-88 114.398,-70.5525 109.102,-50.337 105.532,-35.9497"/>
<polygon fill="midnightblue" stroke="midnightblue" points="108.833,-34.7126 103.065,-25.8251 102.032,-36.3694 108.833,-34.7126"/>
</g>
<!-- Node37&#45;&gt;Node22 -->
<g id="edge42" class="edge"><title>Node37&#45;&gt;Node22</title>
<path fill="none" stroke="midnightblue" d="M198.406,-180.444C242.983,-171.004 314.768,-155.802 362.892,-145.611"/>
<polygon fill="midnightblue" stroke="midnightblue" points="363.726,-149.012 372.784,-143.516 362.275,-142.164 363.726,-149.012"/>
</g>
<!-- Node37&#45;&gt;Node25 -->
<g id="edge44" class="edge"><title>Node37&#45;&gt;Node25</title>
<path fill="none" stroke="midnightblue" d="M157.686,-180.368C157.041,-162.617 155.552,-121.666 154.676,-97.5974"/>
<polygon fill="midnightblue" stroke="midnightblue" points="158.174,-97.4576 154.312,-87.5914 151.178,-97.712 158.174,-97.4576"/>
</g>
<!-- Node38&#45;&gt;Node18 -->
<g id="edge47" class="edge"><title>Node38&#45;&gt;Node18</title>
<path fill="none" stroke="midnightblue" d="M1160.12,-124.281C1185.32,-104.535 1246.96,-56.2175 1278.2,-31.7346"/>
<polygon fill="midnightblue" stroke="midnightblue" points="1280.44,-34.4283 1286.15,-25.5048 1276.12,-28.9189 1280.44,-34.4283"/>
</g>
</g>
</svg>
