<?xml version="1.0" encoding="UTF-8" standalone="no"?>
<!DOCTYPE svg PUBLIC "-//W3C//DTD SVG 1.1//EN"
 "http://www.w3.org/Graphics/SVG/1.1/DTD/svg11.dtd">
<!-- Generated by graphviz version 2.36.0 (20140111.2315)
 -->
<!-- Title: /home/travis/build/AliceO2Group/AliceO2/Detectors/FIT/macros/run_reco_fit.C Pages: 1 -->
<svg width="3201pt" height="502pt"
 viewBox="0.00 0.00 3200.90 502.00" xmlns="http://www.w3.org/2000/svg" xmlns:xlink="http://www.w3.org/1999/xlink">
<g id="graph0" class="graph" transform="scale(1 1) rotate(0) translate(4 498)">
<title>/home/travis/build/AliceO2Group/AliceO2/Detectors/FIT/macros/run_reco_fit.C</title>
<!-- Node1 -->
<g id="node1" class="node"><title>Node1</title>
<polygon fill="#bfbfbf" stroke="black" points="2514,-441 2514,-493 2632,-493 2632,-441 2514,-441"/>
<text text-anchor="start" x="2522" y="-481" font-family="Helvetica,sans-Serif" font-size="10.00">/home/travis/build</text>
<text text-anchor="start" x="2522" y="-470" font-family="Helvetica,sans-Serif" font-size="10.00">/AliceO2Group/AliceO2</text>
<text text-anchor="start" x="2522" y="-459" font-family="Helvetica,sans-Serif" font-size="10.00">/Detectors/FIT/macros</text>
<text text-anchor="middle" x="2573" y="-448" font-family="Helvetica,sans-Serif" font-size="10.00">/run_reco_fit.C</text>
</g>
<!-- Node2 -->
<g id="node2" class="node"><title>Node2</title>
<polygon fill="none" stroke="#bfbfbf" points="2443,-74.5 2443,-93.5 2499,-93.5 2499,-74.5 2443,-74.5"/>
<text text-anchor="middle" x="2471" y="-81.5" font-family="Helvetica,sans-Serif" font-size="10.00">Rtypes.h</text>
</g>
<!-- Node1&#45;&gt;Node2 -->
<g id="edge1" class="edge"><title>Node1&#45;&gt;Node2</title>
<path fill="none" stroke="midnightblue" d="M2632.12,-463.697C2775.29,-457.589 3131.77,-438.998 3172,-404 3198.59,-380.864 3191,-362.249 3191,-327 3191,-327 3191,-327 3191,-207 3191,-137.202 2658.22,-97.2103 2509.27,-87.3936"/>
<polygon fill="midnightblue" stroke="midnightblue" points="2509.43,-83.8966 2499.22,-86.739 2508.98,-90.8818 2509.43,-83.8966"/>
</g>
<!-- Node3 -->
<g id="node3" class="node"><title>Node3</title>
<polygon fill="none" stroke="#bfbfbf" points="2121,-378.5 2121,-397.5 2177,-397.5 2177,-378.5 2121,-378.5"/>
<text text-anchor="middle" x="2149" y="-385.5" font-family="Helvetica,sans-Serif" font-size="10.00">TString.h</text>
</g>
<!-- Node1&#45;&gt;Node3 -->
<g id="edge2" class="edge"><title>Node1&#45;&gt;Node3</title>
<path fill="none" stroke="midnightblue" d="M2513.76,-460.715C2437.05,-452.921 2299.72,-435.718 2186,-404 2183.18,-403.214 2180.29,-402.28 2177.42,-401.268"/>
<polygon fill="midnightblue" stroke="midnightblue" points="2178.51,-397.936 2167.92,-397.628 2176,-404.473 2178.51,-397.936"/>
</g>
<!-- Node4 -->
<g id="node4" class="node"><title>Node4</title>
<polygon fill="none" stroke="#bfbfbf" points="2195.5,-378.5 2195.5,-397.5 2272.5,-397.5 2272.5,-378.5 2195.5,-378.5"/>
<text text-anchor="middle" x="2234" y="-385.5" font-family="Helvetica,sans-Serif" font-size="10.00">TStopwatch.h</text>
</g>
<!-- Node1&#45;&gt;Node4 -->
<g id="edge3" class="edge"><title>Node1&#45;&gt;Node4</title>
<path fill="none" stroke="midnightblue" d="M2513.82,-455.066C2454.75,-443.76 2361.57,-424.861 2282,-404 2277.91,-402.929 2273.66,-401.727 2269.44,-400.482"/>
<polygon fill="midnightblue" stroke="midnightblue" points="2270.37,-397.104 2259.78,-397.54 2268.33,-403.801 2270.37,-397.104"/>
</g>
<!-- Node5 -->
<g id="node5" class="node"><title>Node5</title>
<polygon fill="none" stroke="#bfbfbf" points="2291,-378.5 2291,-397.5 2377,-397.5 2377,-378.5 2291,-378.5"/>
<text text-anchor="middle" x="2334" y="-385.5" font-family="Helvetica,sans-Serif" font-size="10.00">TGeoManager.h</text>
</g>
<!-- Node1&#45;&gt;Node5 -->
<g id="edge4" class="edge"><title>Node1&#45;&gt;Node5</title>
<path fill="none" stroke="midnightblue" d="M2513.92,-446.966C2468.87,-432.453 2408.28,-412.932 2370.18,-400.657"/>
<polygon fill="midnightblue" stroke="midnightblue" points="2371.13,-397.284 2360.54,-397.549 2368.98,-403.947 2371.13,-397.284"/>
</g>
<!-- Node6 -->
<g id="node6" class="node"><title>Node6</title>
<polygon fill="none" stroke="#bfbfbf" points="2395.5,-378.5 2395.5,-397.5 2466.5,-397.5 2466.5,-378.5 2395.5,-378.5"/>
<text text-anchor="middle" x="2431" y="-385.5" font-family="Helvetica,sans-Serif" font-size="10.00">FairLogger.h</text>
</g>
<!-- Node1&#45;&gt;Node6 -->
<g id="edge5" class="edge"><title>Node1&#45;&gt;Node6</title>
<path fill="none" stroke="midnightblue" d="M2526.5,-440.787C2502.87,-427.972 2475.11,-412.918 2455.63,-402.354"/>
<polygon fill="midnightblue" stroke="midnightblue" points="2457.24,-399.248 2446.78,-397.558 2453.9,-405.401 2457.24,-399.248"/>
</g>
<!-- Node7 -->
<g id="node7" class="node"><title>Node7</title>
<polygon fill="none" stroke="#bfbfbf" points="2484.5,-378.5 2484.5,-397.5 2561.5,-397.5 2561.5,-378.5 2484.5,-378.5"/>
<text text-anchor="middle" x="2523" y="-385.5" font-family="Helvetica,sans-Serif" font-size="10.00">FairRunAna.h</text>
</g>
<!-- Node1&#45;&gt;Node7 -->
<g id="edge6" class="edge"><title>Node1&#45;&gt;Node7</title>
<path fill="none" stroke="midnightblue" d="M2556.63,-440.787C2549.21,-429.37 2540.65,-416.176 2534.01,-405.962"/>
<polygon fill="midnightblue" stroke="midnightblue" points="2536.94,-404.039 2528.56,-397.558 2531.07,-407.851 2536.94,-404.039"/>
</g>
<!-- Node8 -->
<g id="node8" class="node"><title>Node8</title>
<polygon fill="none" stroke="#bfbfbf" points="2580,-378.5 2580,-397.5 2668,-397.5 2668,-378.5 2580,-378.5"/>
<text text-anchor="middle" x="2624" y="-385.5" font-family="Helvetica,sans-Serif" font-size="10.00">FairFileSource.h</text>
</g>
<!-- Node1&#45;&gt;Node8 -->
<g id="edge7" class="edge"><title>Node1&#45;&gt;Node8</title>
<path fill="none" stroke="midnightblue" d="M2589.7,-440.787C2597.26,-429.37 2606,-416.176 2612.77,-405.962"/>
<polygon fill="midnightblue" stroke="midnightblue" points="2615.73,-407.828 2618.33,-397.558 2609.89,-403.962 2615.73,-407.828"/>
</g>
<!-- Node9 -->
<g id="node9" class="node"><title>Node9</title>
<polygon fill="none" stroke="#bfbfbf" points="2686,-378.5 2686,-397.5 2778,-397.5 2778,-378.5 2686,-378.5"/>
<text text-anchor="middle" x="2732" y="-385.5" font-family="Helvetica,sans-Serif" font-size="10.00">FairSystemInfo.h</text>
</g>
<!-- Node1&#45;&gt;Node9 -->
<g id="edge8" class="edge"><title>Node1&#45;&gt;Node9</title>
<path fill="none" stroke="midnightblue" d="M2625.06,-440.787C2651.89,-427.797 2683.46,-412.507 2705.31,-401.924"/>
<polygon fill="midnightblue" stroke="midnightblue" points="2706.85,-405.066 2714.33,-397.558 2703.8,-398.766 2706.85,-405.066"/>
</g>
<!-- Node10 -->
<g id="node10" class="node"><title>Node10</title>
<polygon fill="none" stroke="#bfbfbf" points="2796.5,-378.5 2796.5,-397.5 2887.5,-397.5 2887.5,-378.5 2796.5,-378.5"/>
<text text-anchor="middle" x="2842" y="-385.5" font-family="Helvetica,sans-Serif" font-size="10.00">FairRuntimeDb.h</text>
</g>
<!-- Node1&#45;&gt;Node10 -->
<g id="edge9" class="edge"><title>Node1&#45;&gt;Node10</title>
<path fill="none" stroke="midnightblue" d="M2632.03,-449.102C2683.8,-434.285 2757.6,-413.158 2802.52,-400.301"/>
<polygon fill="midnightblue" stroke="midnightblue" points="2803.54,-403.649 2812.19,-397.532 2801.62,-396.919 2803.54,-403.649"/>
</g>
<!-- Node11 -->
<g id="node11" class="node"><title>Node11</title>
<polygon fill="none" stroke="#bfbfbf" points="2905.5,-378.5 2905.5,-397.5 3006.5,-397.5 3006.5,-378.5 2905.5,-378.5"/>
<text text-anchor="middle" x="2956" y="-385.5" font-family="Helvetica,sans-Serif" font-size="10.00">FairParRootFileIo.h</text>
</g>
<!-- Node1&#45;&gt;Node11 -->
<g id="edge10" class="edge"><title>Node1&#45;&gt;Node11</title>
<path fill="none" stroke="midnightblue" d="M2632.14,-455.662C2697.07,-444.077 2804.28,-424.252 2896,-404 2901.71,-402.739 2907.7,-401.336 2913.61,-399.909"/>
<polygon fill="midnightblue" stroke="midnightblue" points="2914.51,-403.291 2923.38,-397.503 2912.83,-396.494 2914.51,-403.291"/>
</g>
<!-- Node12 -->
<g id="node12" class="node"><title>Node12</title>
<g id="a_node12"><a xlink:href="../../d4/dcd/FIT_2simulation_2include_2FITSimulation_2DigitizerTask_8h.html" target="_top" xlink:title="FITSimulation/DigitizerTask.h">
<polygon fill="none" stroke="black" points="1957,-378.5 1957,-397.5 2103,-397.5 2103,-378.5 1957,-378.5"/>
<text text-anchor="middle" x="2030" y="-385.5" font-family="Helvetica,sans-Serif" font-size="10.00">FITSimulation/DigitizerTask.h</text>
</a>
</g>
</g>
<!-- Node1&#45;&gt;Node12 -->
<g id="edge11" class="edge"><title>Node1&#45;&gt;Node12</title>
<path fill="none" stroke="midnightblue" d="M2513.92,-458.961C2426.1,-448.292 2255.96,-426.835 2112,-404 2103.17,-402.6 2093.83,-401.002 2084.74,-399.384"/>
<polygon fill="midnightblue" stroke="midnightblue" points="2085.08,-395.889 2074.62,-397.558 2083.84,-402.778 2085.08,-395.889"/>
</g>
<!-- Node49 -->
<g id="node49" class="node"><title>Node49</title>
<g id="a_node49"><a xlink:href="../../d1/d6c/CollisionTimeRecoTask_8h.html" target="_top" xlink:title="Definition of the FIT collision time reconstruction task. ">
<polygon fill="none" stroke="black" points="3025,-373 3025,-403 3163,-403 3163,-373 3025,-373"/>
<text text-anchor="start" x="3033" y="-391" font-family="Helvetica,sans-Serif" font-size="10.00">FITReconstruction/Collision</text>
<text text-anchor="middle" x="3094" y="-380" font-family="Helvetica,sans-Serif" font-size="10.00">TimeRecoTask.h</text>
</a>
</g>
</g>
<!-- Node1&#45;&gt;Node49 -->
<g id="edge60" class="edge"><title>Node1&#45;&gt;Node49</title>
<path fill="none" stroke="midnightblue" d="M2632.12,-458.629C2715.12,-448.077 2871.13,-427.497 3014.79,-403.985"/>
<polygon fill="midnightblue" stroke="midnightblue" points="3015.37,-407.436 3024.67,-402.36 3014.24,-400.529 3015.37,-407.436"/>
</g>
<!-- Node12&#45;&gt;Node2 -->
<g id="edge13" class="edge"><title>Node12&#45;&gt;Node2</title>
<path fill="none" stroke="midnightblue" d="M2060.96,-378.465C2146.43,-354.322 2382.79,-283.434 2435,-224 2465.21,-189.611 2470.6,-133.04 2471.24,-103.802"/>
<polygon fill="midnightblue" stroke="midnightblue" points="2474.74,-103.736 2471.29,-93.7192 2467.74,-103.702 2474.74,-103.736"/>
</g>
<!-- Node13 -->
<g id="node13" class="node"><title>Node13</title>
<polygon fill="none" stroke="#bfbfbf" points="2584.5,-316.5 2584.5,-335.5 2647.5,-335.5 2647.5,-316.5 2584.5,-316.5"/>
<text text-anchor="middle" x="2616" y="-323.5" font-family="Helvetica,sans-Serif" font-size="10.00">FairTask.h</text>
</g>
<!-- Node12&#45;&gt;Node13 -->
<g id="edge12" class="edge"><title>Node12&#45;&gt;Node13</title>
<path fill="none" stroke="midnightblue" d="M2072.01,-378.461C2084.8,-376.091 2098.94,-373.703 2112,-372 2314.47,-345.595 2367.7,-363.648 2570,-336 2571.46,-335.8 2572.95,-335.584 2574.44,-335.354"/>
<polygon fill="midnightblue" stroke="midnightblue" points="2575.13,-338.788 2584.41,-333.676 2573.96,-331.885 2575.13,-338.788"/>
</g>
<!-- Node14 -->
<g id="node14" class="node"><title>Node14</title>
<g id="a_node14"><a xlink:href="../../d1/dde/FIT_2base_2include_2FITBase_2Digit_8h.html" target="_top" xlink:title="FITBase/Digit.h">
<polygon fill="none" stroke="black" points="2513,-260.5 2513,-279.5 2599,-279.5 2599,-260.5 2513,-260.5"/>
<text text-anchor="middle" x="2556" y="-267.5" font-family="Helvetica,sans-Serif" font-size="10.00">FITBase/Digit.h</text>
</a>
</g>
</g>
<!-- Node12&#45;&gt;Node14 -->
<g id="edge14" class="edge"><title>Node12&#45;&gt;Node14</title>
<path fill="none" stroke="midnightblue" d="M2072.44,-378.434C2085.12,-376.091 2099.09,-373.725 2112,-372 2205.73,-359.478 2462.38,-395.349 2536,-336 2549.62,-325.017 2554.18,-304.962 2555.59,-290.023"/>
<polygon fill="midnightblue" stroke="midnightblue" points="2559.1,-290.011 2556.17,-279.83 2552.11,-289.619 2559.1,-290.011"/>
</g>
<!-- Node17 -->
<g id="node17" class="node"><title>Node17</title>
<g id="a_node17"><a xlink:href="../../de/d6b/FIT_2simulation_2include_2FITSimulation_2Detector_8h.html" target="_top" xlink:title="FITSimulation/Detector.h">
<polygon fill="none" stroke="black" points="1967,-260.5 1967,-279.5 2093,-279.5 2093,-260.5 1967,-260.5"/>
<text text-anchor="middle" x="2030" y="-267.5" font-family="Helvetica,sans-Serif" font-size="10.00">FITSimulation/Detector.h</text>
</a>
</g>
</g>
<!-- Node12&#45;&gt;Node17 -->
<g id="edge19" class="edge"><title>Node12&#45;&gt;Node17</title>
<path fill="none" stroke="midnightblue" d="M2030,-378.281C2030,-359.547 2030,-315.098 2030,-289.682"/>
<polygon fill="midnightblue" stroke="midnightblue" points="2033.5,-289.505 2030,-279.505 2026.5,-289.505 2033.5,-289.505"/>
</g>
<!-- Node48 -->
<g id="node48" class="node"><title>Node48</title>
<g id="a_node48"><a xlink:href="../../d3/da0/FIT_2simulation_2include_2FITSimulation_2Digitizer_8h.html" target="_top" xlink:title="FITSimulation/Digitizer.h">
<polygon fill="none" stroke="black" points="2402.5,-316.5 2402.5,-335.5 2527.5,-335.5 2527.5,-316.5 2402.5,-316.5"/>
<text text-anchor="middle" x="2465" y="-323.5" font-family="Helvetica,sans-Serif" font-size="10.00">FITSimulation/Digitizer.h</text>
</a>
</g>
</g>
<!-- Node12&#45;&gt;Node48 -->
<g id="edge57" class="edge"><title>Node12&#45;&gt;Node48</title>
<path fill="none" stroke="midnightblue" d="M2074.18,-378.464C2086.41,-376.226 2099.7,-373.907 2112,-372 2164.34,-363.883 2304.92,-346.452 2392.06,-335.825"/>
<polygon fill="midnightblue" stroke="midnightblue" points="2392.65,-339.28 2402.15,-334.596 2391.8,-332.331 2392.65,-339.28"/>
</g>
<!-- Node14&#45;&gt;Node2 -->
<g id="edge18" class="edge"><title>Node14&#45;&gt;Node2</title>
<path fill="none" stroke="midnightblue" d="M2549.97,-260.291C2543.97,-251.408 2534.71,-237.107 2528,-224 2506.6,-182.163 2487.09,-130.363 2477.41,-103.348"/>
<polygon fill="midnightblue" stroke="midnightblue" points="2480.62,-101.943 2473.99,-93.6843 2474.02,-104.279 2480.62,-101.943"/>
</g>
<!-- Node15 -->
<g id="node15" class="node"><title>Node15</title>
<g id="a_node15"><a xlink:href="../../df/d5d/common_2include_2CommonDataFormat_2TimeStamp_8h.html" target="_top" xlink:title="CommonDataFormat/TimeStamp.h">
<polygon fill="none" stroke="black" points="2537,-198.5 2537,-217.5 2707,-217.5 2707,-198.5 2537,-198.5"/>
<text text-anchor="middle" x="2622" y="-205.5" font-family="Helvetica,sans-Serif" font-size="10.00">CommonDataFormat/TimeStamp.h</text>
</a>
</g>
</g>
<!-- Node14&#45;&gt;Node15 -->
<g id="edge15" class="edge"><title>Node14&#45;&gt;Node15</title>
<path fill="none" stroke="midnightblue" d="M2565.46,-260.403C2575.75,-251.047 2592.42,-235.895 2604.99,-224.46"/>
<polygon fill="midnightblue" stroke="midnightblue" points="2607.52,-226.897 2612.56,-217.581 2602.81,-221.718 2607.52,-226.897"/>
</g>
<!-- Node16 -->
<g id="node16" class="node"><title>Node16</title>
<polygon fill="none" stroke="#bfbfbf" points="1119.5,-74.5 1119.5,-93.5 1164.5,-93.5 1164.5,-74.5 1119.5,-74.5"/>
<text text-anchor="middle" x="1142" y="-81.5" font-family="Helvetica,sans-Serif" font-size="10.00">iosfwd</text>
</g>
<!-- Node14&#45;&gt;Node16 -->
<g id="edge17" class="edge"><title>Node14&#45;&gt;Node16</title>
<path fill="none" stroke="midnightblue" d="M2512.89,-267.489C2269.02,-258.738 1071.57,-212.956 1020,-156 974.08,-105.281 1015.69,-140.924 1110,-100 1111.59,-99.3115 1113.21,-98.5928 1114.85,-97.8589"/>
<polygon fill="midnightblue" stroke="midnightblue" points="1116.51,-100.945 1124.14,-93.5932 1113.59,-94.5831 1116.51,-100.945"/>
</g>
<!-- Node15&#45;&gt;Node2 -->
<g id="edge16" class="edge"><title>Node15&#45;&gt;Node2</title>
<path fill="none" stroke="midnightblue" d="M2611.14,-198.226C2585.67,-177.651 2521.85,-126.086 2489.88,-100.252"/>
<polygon fill="midnightblue" stroke="midnightblue" points="2491.74,-97.2566 2481.76,-93.6944 2487.34,-102.702 2491.74,-97.2566"/>
</g>
<!-- Node18 -->
<g id="node18" class="node"><title>Node18</title>
<g id="a_node18"><a xlink:href="../../d4/d25/BaseHits_8h.html" target="_top" xlink:title="SimulationDataFormat\l/BaseHits.h">
<polygon fill="none" stroke="black" points="738,-193 738,-223 852,-223 852,-193 738,-193"/>
<text text-anchor="start" x="746" y="-211" font-family="Helvetica,sans-Serif" font-size="10.00">SimulationDataFormat</text>
<text text-anchor="middle" x="795" y="-200" font-family="Helvetica,sans-Serif" font-size="10.00">/BaseHits.h</text>
</a>
</g>
</g>
<!-- Node17&#45;&gt;Node18 -->
<g id="edge20" class="edge"><title>Node17&#45;&gt;Node18</title>
<path fill="none" stroke="midnightblue" d="M1966.75,-267.461C1800.93,-263.185 1339.99,-249.745 957,-224 925.866,-221.907 891.435,-218.827 862.349,-216.002"/>
<polygon fill="midnightblue" stroke="midnightblue" points="862.593,-212.509 852.299,-215.015 861.909,-219.475 862.593,-212.509"/>
</g>
<!-- Node29 -->
<g id="node29" class="node"><title>Node29</title>
<g id="a_node29"><a xlink:href="../../d1/d3a/Base_2include_2DetectorsBase_2Detector_8h.html" target="_top" xlink:title="DetectorsBase/Detector.h">
<polygon fill="none" stroke="black" points="1712.5,-198.5 1712.5,-217.5 1843.5,-217.5 1843.5,-198.5 1712.5,-198.5"/>
<text text-anchor="middle" x="1778" y="-205.5" font-family="Helvetica,sans-Serif" font-size="10.00">DetectorsBase/Detector.h</text>
</a>
</g>
</g>
<!-- Node17&#45;&gt;Node29 -->
<g id="edge33" class="edge"><title>Node17&#45;&gt;Node29</title>
<path fill="none" stroke="midnightblue" d="M1994.16,-260.467C1949.38,-249.805 1872.69,-231.545 1823.72,-219.886"/>
<polygon fill="midnightblue" stroke="midnightblue" points="1824.25,-216.415 1813.71,-217.503 1822.63,-223.224 1824.25,-216.415"/>
</g>
<!-- Node46 -->
<g id="node46" class="node"><title>Node46</title>
<g id="a_node46"><a xlink:href="../../d1/db1/FIT_2base_2include_2FITBase_2Geometry_8h.html" target="_top" xlink:title="FITBase/Geometry.h">
<polygon fill="none" stroke="black" points="2318,-198.5 2318,-217.5 2426,-217.5 2426,-198.5 2318,-198.5"/>
<text text-anchor="middle" x="2372" y="-205.5" font-family="Helvetica,sans-Serif" font-size="10.00">FITBase/Geometry.h</text>
</a>
</g>
</g>
<!-- Node17&#45;&gt;Node46 -->
<g id="edge54" class="edge"><title>Node17&#45;&gt;Node46</title>
<path fill="none" stroke="midnightblue" d="M2078.64,-260.467C2140.56,-249.604 2247.43,-230.855 2313.66,-219.235"/>
<polygon fill="midnightblue" stroke="midnightblue" points="2314.29,-222.679 2323.53,-217.503 2313.08,-215.784 2314.29,-222.679"/>
</g>
<!-- Node19 -->
<g id="node19" class="node"><title>Node19</title>
<g id="a_node19"><a xlink:href="../../dd/d76/Cartesian3D_8h.html" target="_top" xlink:title="MathUtils/Cartesian3D.h">
<polygon fill="none" stroke="black" points="667.5,-136.5 667.5,-155.5 792.5,-155.5 792.5,-136.5 667.5,-136.5"/>
<text text-anchor="middle" x="730" y="-143.5" font-family="Helvetica,sans-Serif" font-size="10.00">MathUtils/Cartesian3D.h</text>
</a>
</g>
</g>
<!-- Node18&#45;&gt;Node19 -->
<g id="edge21" class="edge"><title>Node18&#45;&gt;Node19</title>
<path fill="none" stroke="midnightblue" d="M779.596,-192.781C769.761,-183.703 757.007,-171.929 746.895,-162.595"/>
<polygon fill="midnightblue" stroke="midnightblue" points="749.18,-159.942 739.458,-155.731 744.432,-165.085 749.18,-159.942"/>
</g>
<!-- Node19&#45;&gt;Node2 -->
<g id="edge27" class="edge"><title>Node19&#45;&gt;Node2</title>
<path fill="none" stroke="midnightblue" d="M792.734,-142.838C1073.29,-133.169 2208.97,-94.0304 2432.64,-86.3219"/>
<polygon fill="midnightblue" stroke="midnightblue" points="2433.02,-89.8112 2442.89,-85.9687 2432.78,-82.8153 2433.02,-89.8112"/>
</g>
<!-- Node19&#45;&gt;Node16 -->
<g id="edge29" class="edge"><title>Node19&#45;&gt;Node16</title>
<path fill="none" stroke="midnightblue" d="M792.737,-143.687C869.076,-140.704 1001.24,-131.05 1110,-100 1112.34,-99.332 1114.72,-98.511 1117.08,-97.6005"/>
<polygon fill="midnightblue" stroke="midnightblue" points="1118.67,-100.724 1126.44,-93.5158 1115.87,-94.3082 1118.67,-100.724"/>
</g>
<!-- Node20 -->
<g id="node20" class="node"><title>Node20</title>
<polygon fill="none" stroke="#bfbfbf" points="589.5,-69 589.5,-99 740.5,-99 740.5,-69 589.5,-69"/>
<text text-anchor="start" x="597.5" y="-87" font-family="Helvetica,sans-Serif" font-size="10.00">Math/GenVector/Displacement</text>
<text text-anchor="middle" x="665" y="-76" font-family="Helvetica,sans-Serif" font-size="10.00">Vector3D.h</text>
</g>
<!-- Node19&#45;&gt;Node20 -->
<g id="edge22" class="edge"><title>Node19&#45;&gt;Node20</title>
<path fill="none" stroke="midnightblue" d="M720.687,-136.403C712.131,-128.505 699.1,-116.477 687.794,-106.041"/>
<polygon fill="midnightblue" stroke="midnightblue" points="690.041,-103.352 680.319,-99.1408 685.293,-108.495 690.041,-103.352"/>
</g>
<!-- Node21 -->
<g id="node21" class="node"><title>Node21</title>
<polygon fill="none" stroke="#bfbfbf" points="759,-74.5 759,-93.5 935,-93.5 935,-74.5 759,-74.5"/>
<text text-anchor="middle" x="847" y="-81.5" font-family="Helvetica,sans-Serif" font-size="10.00">Math/GenVector/PositionVector3D.h</text>
</g>
<!-- Node19&#45;&gt;Node21 -->
<g id="edge23" class="edge"><title>Node19&#45;&gt;Node21</title>
<path fill="none" stroke="midnightblue" d="M746.763,-136.403C766.225,-126.423 798.545,-109.849 821.211,-98.2253"/>
<polygon fill="midnightblue" stroke="midnightblue" points="822.967,-101.258 830.268,-93.5806 819.773,-95.0294 822.967,-101.258"/>
</g>
<!-- Node22 -->
<g id="node22" class="node"><title>Node22</title>
<polygon fill="none" stroke="#bfbfbf" points="952.5,-74.5 952.5,-93.5 1101.5,-93.5 1101.5,-74.5 952.5,-74.5"/>
<text text-anchor="middle" x="1027" y="-81.5" font-family="Helvetica,sans-Serif" font-size="10.00">Math/GenVector/Rotation3D.h</text>
</g>
<!-- Node19&#45;&gt;Node22 -->
<g id="edge24" class="edge"><title>Node19&#45;&gt;Node22</title>
<path fill="none" stroke="midnightblue" d="M772.237,-136.467C825.568,-125.693 917.296,-107.162 974.914,-95.5223"/>
<polygon fill="midnightblue" stroke="midnightblue" points="975.799,-98.9144 984.908,-93.5034 974.413,-92.053 975.799,-98.9144"/>
</g>
<!-- Node23 -->
<g id="node23" class="node"><title>Node23</title>
<polygon fill="none" stroke="#bfbfbf" points="0,-74.5 0,-93.5 156,-93.5 156,-74.5 0,-74.5"/>
<text text-anchor="middle" x="78" y="-81.5" font-family="Helvetica,sans-Serif" font-size="10.00">Math/GenVector/Transform3D.h</text>
</g>
<!-- Node19&#45;&gt;Node23 -->
<g id="edge25" class="edge"><title>Node19&#45;&gt;Node23</title>
<path fill="none" stroke="midnightblue" d="M667.103,-141.869C562.569,-136.245 346.595,-122.838 165,-100 154.628,-98.6956 143.608,-97.0216 133.02,-95.2674"/>
<polygon fill="midnightblue" stroke="midnightblue" points="133.483,-91.7959 123.038,-93.5705 132.31,-98.6969 133.483,-91.7959"/>
</g>
<!-- Node24 -->
<g id="node24" class="node"><title>Node24</title>
<polygon fill="none" stroke="#bfbfbf" points="174,-74.5 174,-93.5 334,-93.5 334,-74.5 174,-74.5"/>
<text text-anchor="middle" x="254" y="-81.5" font-family="Helvetica,sans-Serif" font-size="10.00">Math/GenVector/Translation3D.h</text>
</g>
<!-- Node19&#45;&gt;Node24 -->
<g id="edge26" class="edge"><title>Node19&#45;&gt;Node24</title>
<path fill="none" stroke="midnightblue" d="M667.201,-138.697C590.538,-130.772 457.009,-116.225 343,-100 332.994,-98.576 322.381,-96.9174 312.101,-95.2327"/>
<polygon fill="midnightblue" stroke="midnightblue" points="312.406,-91.7355 301.967,-93.5472 311.257,-98.6406 312.406,-91.7355"/>
</g>
<!-- Node25 -->
<g id="node25" class="node"><title>Node25</title>
<polygon fill="none" stroke="#bfbfbf" points="352,-74.5 352,-93.5 428,-93.5 428,-74.5 352,-74.5"/>
<text text-anchor="middle" x="390" y="-81.5" font-family="Helvetica,sans-Serif" font-size="10.00">TGeoMatrix.h</text>
</g>
<!-- Node19&#45;&gt;Node25 -->
<g id="edge28" class="edge"><title>Node19&#45;&gt;Node25</title>
<path fill="none" stroke="midnightblue" d="M667.441,-138.269C607.745,-131.172 515.534,-118.443 437,-100 432.779,-99.0087 428.389,-97.8228 424.062,-96.5581"/>
<polygon fill="midnightblue" stroke="midnightblue" points="424.778,-93.1165 414.191,-93.5186 422.718,-99.8065 424.778,-93.1165"/>
</g>
<!-- Node26 -->
<g id="node26" class="node"><title>Node26</title>
<g id="a_node26"><a xlink:href="../../d2/dd0/Cartesian2D_8h.html" target="_top" xlink:title="MathUtils/Cartesian2D.h">
<polygon fill="none" stroke="black" points="446.5,-74.5 446.5,-93.5 571.5,-93.5 571.5,-74.5 446.5,-74.5"/>
<text text-anchor="middle" x="509" y="-81.5" font-family="Helvetica,sans-Serif" font-size="10.00">MathUtils/Cartesian2D.h</text>
</a>
</g>
</g>
<!-- Node19&#45;&gt;Node26 -->
<g id="edge30" class="edge"><title>Node19&#45;&gt;Node26</title>
<path fill="none" stroke="midnightblue" d="M698.336,-136.403C659.442,-125.844 593.358,-107.903 550.452,-96.2538"/>
<polygon fill="midnightblue" stroke="midnightblue" points="551.173,-92.823 540.605,-93.5806 549.339,-99.5785 551.173,-92.823"/>
</g>
<!-- Node27 -->
<g id="node27" class="node"><title>Node27</title>
<polygon fill="none" stroke="#bfbfbf" points="342.5,-1 342.5,-31 493.5,-31 493.5,-1 342.5,-1"/>
<text text-anchor="start" x="350.5" y="-19" font-family="Helvetica,sans-Serif" font-size="10.00">Math/GenVector/Displacement</text>
<text text-anchor="middle" x="418" y="-8" font-family="Helvetica,sans-Serif" font-size="10.00">Vector2D.h</text>
</g>
<!-- Node26&#45;&gt;Node27 -->
<g id="edge31" class="edge"><title>Node26&#45;&gt;Node27</title>
<path fill="none" stroke="midnightblue" d="M497.103,-74.3717C484.221,-65.0286 463.22,-49.7966 446.093,-37.375"/>
<polygon fill="midnightblue" stroke="midnightblue" points="447.703,-34.2194 437.553,-31.1815 443.593,-39.8859 447.703,-34.2194"/>
</g>
<!-- Node28 -->
<g id="node28" class="node"><title>Node28</title>
<polygon fill="none" stroke="#bfbfbf" points="512,-6.5 512,-25.5 688,-25.5 688,-6.5 512,-6.5"/>
<text text-anchor="middle" x="600" y="-13.5" font-family="Helvetica,sans-Serif" font-size="10.00">Math/GenVector/PositionVector2D.h</text>
</g>
<!-- Node26&#45;&gt;Node28 -->
<g id="edge32" class="edge"><title>Node26&#45;&gt;Node28</title>
<path fill="none" stroke="midnightblue" d="M520.897,-74.3717C535.884,-63.5015 561.862,-44.6602 579.942,-31.5474"/>
<polygon fill="midnightblue" stroke="midnightblue" points="582.06,-34.3349 588.1,-25.6305 577.95,-28.6684 582.06,-34.3349"/>
</g>
<!-- Node29&#45;&gt;Node2 -->
<g id="edge45" class="edge"><title>Node29&#45;&gt;Node2</title>
<path fill="none" stroke="midnightblue" d="M1843.66,-205.112C1938.74,-201.274 2119.83,-189.805 2270,-156 2278.48,-154.092 2382.7,-116.77 2437.62,-97.0227"/>
<polygon fill="midnightblue" stroke="midnightblue" points="2439.04,-100.231 2447.27,-93.5525 2436.67,-93.644 2439.04,-100.231"/>
</g>
<!-- Node30 -->
<g id="node30" class="node"><title>Node30</title>
<polygon fill="none" stroke="#bfbfbf" points="1182.5,-74.5 1182.5,-93.5 1217.5,-93.5 1217.5,-74.5 1182.5,-74.5"/>
<text text-anchor="middle" x="1200" y="-81.5" font-family="Helvetica,sans-Serif" font-size="10.00">map</text>
</g>
<!-- Node29&#45;&gt;Node30 -->
<g id="edge34" class="edge"><title>Node29&#45;&gt;Node30</title>
<path fill="none" stroke="midnightblue" d="M1712.42,-207.529C1538.25,-208.251 1074.22,-205.469 1028,-156 1021.93,-149.505 1022.52,-143.002 1028,-136 1068.91,-83.6956 1111.22,-124.335 1173,-100 1174.4,-99.4473 1175.82,-98.835 1177.24,-98.1828"/>
<polygon fill="midnightblue" stroke="midnightblue" points="1179.04,-101.196 1186.33,-93.5107 1175.84,-94.9704 1179.04,-101.196"/>
</g>
<!-- Node31 -->
<g id="node31" class="node"><title>Node31</title>
<polygon fill="none" stroke="#bfbfbf" points="2033,-136.5 2033,-155.5 2077,-155.5 2077,-136.5 2033,-136.5"/>
<text text-anchor="middle" x="2055" y="-143.5" font-family="Helvetica,sans-Serif" font-size="10.00">vector</text>
</g>
<!-- Node29&#45;&gt;Node31 -->
<g id="edge35" class="edge"><title>Node29&#45;&gt;Node31</title>
<path fill="none" stroke="midnightblue" d="M1823.82,-198.442C1871.08,-189.396 1947.11,-174.238 2022.52,-155.971"/>
<polygon fill="midnightblue" stroke="midnightblue" points="2023.79,-159.264 2032.67,-153.492 2022.13,-152.464 2023.79,-159.264"/>
</g>
<!-- Node32 -->
<g id="node32" class="node"><title>Node32</title>
<polygon fill="none" stroke="#bfbfbf" points="1786.5,-74.5 1786.5,-93.5 1859.5,-93.5 1859.5,-74.5 1786.5,-74.5"/>
<text text-anchor="middle" x="1823" y="-81.5" font-family="Helvetica,sans-Serif" font-size="10.00">initializer_list</text>
</g>
<!-- Node29&#45;&gt;Node32 -->
<g id="edge36" class="edge"><title>Node29&#45;&gt;Node32</title>
<path fill="none" stroke="midnightblue" d="M1843.84,-204.721C1967.86,-199.747 2226.15,-185.885 2253,-156 2305.33,-97.7534 1991.99,-87.2808 1870.04,-85.4058"/>
<polygon fill="midnightblue" stroke="midnightblue" points="1869.93,-81.904 1859.88,-85.2628 1869.83,-88.9033 1869.93,-81.904"/>
</g>
<!-- Node33 -->
<g id="node33" class="node"><title>Node33</title>
<polygon fill="none" stroke="#bfbfbf" points="2095,-136.5 2095,-155.5 2147,-155.5 2147,-136.5 2095,-136.5"/>
<text text-anchor="middle" x="2121" y="-143.5" font-family="Helvetica,sans-Serif" font-size="10.00">memory</text>
</g>
<!-- Node29&#45;&gt;Node33 -->
<g id="edge37" class="edge"><title>Node29&#45;&gt;Node33</title>
<path fill="none" stroke="midnightblue" d="M1837.98,-198.494C1897.87,-189.671 1992.74,-174.809 2084.67,-155.913"/>
<polygon fill="midnightblue" stroke="midnightblue" points="2085.63,-159.29 2094.71,-153.832 2084.21,-152.435 2085.63,-159.29"/>
</g>
<!-- Node34 -->
<g id="node34" class="node"><title>Node34</title>
<polygon fill="none" stroke="#bfbfbf" points="2165.5,-136.5 2165.5,-155.5 2244.5,-155.5 2244.5,-136.5 2165.5,-136.5"/>
<text text-anchor="middle" x="2205" y="-143.5" font-family="Helvetica,sans-Serif" font-size="10.00">FairDetector.h</text>
</g>
<!-- Node29&#45;&gt;Node34 -->
<g id="edge38" class="edge"><title>Node29&#45;&gt;Node34</title>
<path fill="none" stroke="midnightblue" d="M1843.69,-199.098C1917.07,-190.056 2039.6,-174.311 2155.35,-156.036"/>
<polygon fill="midnightblue" stroke="midnightblue" points="2156.12,-159.457 2165.45,-154.431 2155.02,-152.543 2156.12,-159.457"/>
</g>
<!-- Node35 -->
<g id="node35" class="node"><title>Node35</title>
<polygon fill="none" stroke="#bfbfbf" points="1037,-136.5 1037,-155.5 1137,-155.5 1137,-136.5 1037,-136.5"/>
<text text-anchor="middle" x="1087" y="-143.5" font-family="Helvetica,sans-Serif" font-size="10.00">FairRootManager.h</text>
</g>
<!-- Node29&#45;&gt;Node35 -->
<g id="edge39" class="edge"><title>Node29&#45;&gt;Node35</title>
<path fill="none" stroke="midnightblue" d="M1712.34,-203.24C1599.14,-196.418 1359.74,-180.513 1147.28,-156.072"/>
<polygon fill="midnightblue" stroke="midnightblue" points="1147.52,-152.577 1137.18,-154.902 1146.71,-159.53 1147.52,-152.577"/>
</g>
<!-- Node36 -->
<g id="node36" class="node"><title>Node36</title>
<g id="a_node36"><a xlink:href="../../d0/d9a/MaterialManager_8h.html" target="_top" xlink:title="DetectorsBase/MaterialManager.h">
<polygon fill="none" stroke="black" points="1155.5,-136.5 1155.5,-155.5 1320.5,-155.5 1320.5,-136.5 1155.5,-136.5"/>
<text text-anchor="middle" x="1238" y="-143.5" font-family="Helvetica,sans-Serif" font-size="10.00">DetectorsBase/MaterialManager.h</text>
</a>
</g>
</g>
<!-- Node29&#45;&gt;Node36 -->
<g id="edge40" class="edge"><title>Node29&#45;&gt;Node36</title>
<path fill="none" stroke="midnightblue" d="M1712.33,-199.703C1615.12,-188.902 1432.81,-168.646 1324.73,-156.636"/>
<polygon fill="midnightblue" stroke="midnightblue" points="1324.83,-153.126 1314.5,-155.5 1324.06,-160.083 1324.83,-153.126"/>
</g>
<!-- Node38 -->
<g id="node38" class="node"><title>Node38</title>
<polygon fill="none" stroke="#bfbfbf" points="1338.5,-136.5 1338.5,-155.5 1391.5,-155.5 1391.5,-136.5 1338.5,-136.5"/>
<text text-anchor="middle" x="1365" y="-143.5" font-family="Helvetica,sans-Serif" font-size="10.00">cxxabi.h</text>
</g>
<!-- Node29&#45;&gt;Node38 -->
<g id="edge46" class="edge"><title>Node29&#45;&gt;Node38</title>
<path fill="none" stroke="midnightblue" d="M1712.4,-200.517C1638.85,-192.717 1515.91,-178.09 1401.65,-156.143"/>
<polygon fill="midnightblue" stroke="midnightblue" points="1402.16,-152.678 1391.68,-154.205 1400.83,-159.549 1402.16,-152.678"/>
</g>
<!-- Node39 -->
<g id="node39" class="node"><title>Node39</title>
<polygon fill="none" stroke="#bfbfbf" points="1409.5,-136.5 1409.5,-155.5 1460.5,-155.5 1460.5,-136.5 1409.5,-136.5"/>
<text text-anchor="middle" x="1435" y="-143.5" font-family="Helvetica,sans-Serif" font-size="10.00">typeinfo</text>
</g>
<!-- Node29&#45;&gt;Node39 -->
<g id="edge47" class="edge"><title>Node29&#45;&gt;Node39</title>
<path fill="none" stroke="midnightblue" d="M1716.93,-198.499C1656.76,-189.761 1562.07,-175.036 1470.54,-155.95"/>
<polygon fill="midnightblue" stroke="midnightblue" points="1471.06,-152.482 1460.55,-153.846 1469.62,-159.332 1471.06,-152.482"/>
</g>
<!-- Node40 -->
<g id="node40" class="node"><title>Node40</title>
<polygon fill="none" stroke="#bfbfbf" points="1479,-136.5 1479,-155.5 1541,-155.5 1541,-136.5 1479,-136.5"/>
<text text-anchor="middle" x="1510" y="-143.5" font-family="Helvetica,sans-Serif" font-size="10.00">type_traits</text>
</g>
<!-- Node29&#45;&gt;Node40 -->
<g id="edge48" class="edge"><title>Node29&#45;&gt;Node40</title>
<path fill="none" stroke="midnightblue" d="M1739.67,-198.442C1696.31,-188.757 1623.3,-172.44 1550.77,-156.171"/>
<polygon fill="midnightblue" stroke="midnightblue" points="1551.53,-152.755 1541.01,-153.981 1550,-159.585 1551.53,-152.755"/>
</g>
<!-- Node41 -->
<g id="node41" class="node"><title>Node41</title>
<polygon fill="none" stroke="#bfbfbf" points="1559.5,-136.5 1559.5,-155.5 1600.5,-155.5 1600.5,-136.5 1559.5,-136.5"/>
<text text-anchor="middle" x="1580" y="-143.5" font-family="Helvetica,sans-Serif" font-size="10.00">string</text>
</g>
<!-- Node29&#45;&gt;Node41 -->
<g id="edge49" class="edge"><title>Node29&#45;&gt;Node41</title>
<path fill="none" stroke="midnightblue" d="M1749.57,-198.495C1717.87,-188.996 1664.83,-173.051 1610.4,-156.414"/>
<polygon fill="midnightblue" stroke="midnightblue" points="1611.18,-152.991 1600.59,-153.411 1609.13,-159.684 1611.18,-152.991"/>
</g>
<!-- Node42 -->
<g id="node42" class="node"><title>Node42</title>
<polygon fill="none" stroke="#bfbfbf" points="1618.5,-136.5 1618.5,-155.5 1711.5,-155.5 1711.5,-136.5 1618.5,-136.5"/>
<text text-anchor="middle" x="1665" y="-143.5" font-family="Helvetica,sans-Serif" font-size="10.00">FairMQChannel.h</text>
</g>
<!-- Node29&#45;&gt;Node42 -->
<g id="edge50" class="edge"><title>Node29&#45;&gt;Node42</title>
<path fill="none" stroke="midnightblue" d="M1761.81,-198.403C1743.1,-188.468 1712.08,-171.997 1690.2,-160.381"/>
<polygon fill="midnightblue" stroke="midnightblue" points="1691.63,-157.179 1681.16,-155.581 1688.35,-163.362 1691.63,-157.179"/>
</g>
<!-- Node43 -->
<g id="node43" class="node"><title>Node43</title>
<polygon fill="none" stroke="#bfbfbf" points="1729.5,-136.5 1729.5,-155.5 1826.5,-155.5 1826.5,-136.5 1729.5,-136.5"/>
<text text-anchor="middle" x="1778" y="-143.5" font-family="Helvetica,sans-Serif" font-size="10.00">FairMQMessage.h</text>
</g>
<!-- Node29&#45;&gt;Node43 -->
<g id="edge51" class="edge"><title>Node29&#45;&gt;Node43</title>
<path fill="none" stroke="midnightblue" d="M1778,-198.403C1778,-189.938 1778,-176.728 1778,-165.82"/>
<polygon fill="midnightblue" stroke="midnightblue" points="1781.5,-165.581 1778,-155.581 1774.5,-165.581 1781.5,-165.581"/>
</g>
<!-- Node44 -->
<g id="node44" class="node"><title>Node44</title>
<polygon fill="none" stroke="#bfbfbf" points="1845,-136.5 1845,-155.5 1925,-155.5 1925,-136.5 1845,-136.5"/>
<text text-anchor="middle" x="1885" y="-143.5" font-family="Helvetica,sans-Serif" font-size="10.00">FairMQParts.h</text>
</g>
<!-- Node29&#45;&gt;Node44 -->
<g id="edge52" class="edge"><title>Node29&#45;&gt;Node44</title>
<path fill="none" stroke="midnightblue" d="M1793.33,-198.403C1810.97,-188.512 1840.16,-172.144 1860.86,-160.538"/>
<polygon fill="midnightblue" stroke="midnightblue" points="1862.69,-163.524 1869.7,-155.581 1859.26,-157.419 1862.69,-163.524"/>
</g>
<!-- Node45 -->
<g id="node45" class="node"><title>Node45</title>
<polygon fill="none" stroke="#bfbfbf" points="1943.5,-136.5 1943.5,-155.5 2014.5,-155.5 2014.5,-136.5 1943.5,-136.5"/>
<text text-anchor="middle" x="1979" y="-143.5" font-family="Helvetica,sans-Serif" font-size="10.00">TMessage.h</text>
</g>
<!-- Node29&#45;&gt;Node45 -->
<g id="edge53" class="edge"><title>Node29&#45;&gt;Node45</title>
<path fill="none" stroke="midnightblue" d="M1806.8,-198.403C1841.87,-187.933 1901.26,-170.205 1940.31,-158.55"/>
<polygon fill="midnightblue" stroke="midnightblue" points="1941.67,-161.795 1950.26,-155.581 1939.67,-155.087 1941.67,-161.795"/>
</g>
<!-- Node36&#45;&gt;Node2 -->
<g id="edge41" class="edge"><title>Node36&#45;&gt;Node2</title>
<path fill="none" stroke="midnightblue" d="M1320.81,-136.619C1323.57,-136.4 1326.31,-136.193 1329,-136 1761.59,-104.972 2287.8,-89.7536 2432.57,-85.9637"/>
<polygon fill="midnightblue" stroke="midnightblue" points="2432.81,-89.4588 2442.71,-85.7006 2432.63,-82.4611 2432.81,-89.4588"/>
</g>
<!-- Node36&#45;&gt;Node30 -->
<g id="edge42" class="edge"><title>Node36&#45;&gt;Node30</title>
<path fill="none" stroke="midnightblue" d="M1232.56,-136.403C1226.91,-127.493 1217.94,-113.325 1210.84,-102.118"/>
<polygon fill="midnightblue" stroke="midnightblue" points="1213.74,-100.156 1205.43,-93.5806 1207.83,-103.901 1213.74,-100.156"/>
</g>
<!-- Node36&#45;&gt;Node32 -->
<g id="edge44" class="edge"><title>Node36&#45;&gt;Node32</title>
<path fill="none" stroke="midnightblue" d="M1320.58,-136.531C1445.29,-123.739 1677.63,-99.9101 1776.51,-89.7679"/>
<polygon fill="midnightblue" stroke="midnightblue" points="1776.91,-93.2458 1786.5,-88.7437 1776.19,-86.2823 1776.91,-93.2458"/>
</g>
<!-- Node37 -->
<g id="node37" class="node"><title>Node37</title>
<polygon fill="none" stroke="#bfbfbf" points="1235.5,-74.5 1235.5,-93.5 1318.5,-93.5 1318.5,-74.5 1235.5,-74.5"/>
<text text-anchor="middle" x="1277" y="-81.5" font-family="Helvetica,sans-Serif" font-size="10.00">unordered_map</text>
</g>
<!-- Node36&#45;&gt;Node37 -->
<g id="edge43" class="edge"><title>Node36&#45;&gt;Node37</title>
<path fill="none" stroke="midnightblue" d="M1243.59,-136.403C1249.38,-127.493 1258.59,-113.325 1265.87,-102.118"/>
<polygon fill="midnightblue" stroke="midnightblue" points="1268.91,-103.873 1271.42,-93.5806 1263.04,-100.058 1268.91,-103.873"/>
</g>
<!-- Node46&#45;&gt;Node2 -->
<g id="edge55" class="edge"><title>Node46&#45;&gt;Node2</title>
<path fill="none" stroke="midnightblue" d="M2379.12,-198.226C2395.53,-178.002 2436.24,-127.84 2457.53,-101.599"/>
<polygon fill="midnightblue" stroke="midnightblue" points="2460.36,-103.665 2463.94,-93.6944 2454.93,-99.2541 2460.36,-103.665"/>
</g>
<!-- Node47 -->
<g id="node47" class="node"><title>Node47</title>
<polygon fill="none" stroke="#bfbfbf" points="2339.5,-136.5 2339.5,-155.5 2404.5,-155.5 2404.5,-136.5 2339.5,-136.5"/>
<text text-anchor="middle" x="2372" y="-143.5" font-family="Helvetica,sans-Serif" font-size="10.00">TVector3.h</text>
</g>
<!-- Node46&#45;&gt;Node47 -->
<g id="edge56" class="edge"><title>Node46&#45;&gt;Node47</title>
<path fill="none" stroke="midnightblue" d="M2372,-198.403C2372,-189.938 2372,-176.728 2372,-165.82"/>
<polygon fill="midnightblue" stroke="midnightblue" points="2375.5,-165.581 2372,-155.581 2368.5,-165.581 2375.5,-165.581"/>
</g>
<!-- Node48&#45;&gt;Node14 -->
<g id="edge58" class="edge"><title>Node48&#45;&gt;Node14</title>
<path fill="none" stroke="midnightblue" d="M2479.62,-316.324C2493.95,-307.822 2516.01,-294.729 2532.75,-284.797"/>
<polygon fill="midnightblue" stroke="midnightblue" points="2534.6,-287.768 2541.42,-279.655 2531.03,-281.748 2534.6,-287.768"/>
</g>
<!-- Node48&#45;&gt;Node17 -->
<g id="edge59" class="edge"><title>Node48&#45;&gt;Node17</title>
<path fill="none" stroke="midnightblue" d="M2402.21,-317.206C2322.97,-307.368 2186.91,-290.479 2103.08,-280.072"/>
<polygon fill="midnightblue" stroke="midnightblue" points="2103.48,-276.595 2093.12,-278.836 2102.62,-283.541 2103.48,-276.595"/>
</g>
<!-- Node49&#45;&gt;Node13 -->
<g id="edge61" class="edge"><title>Node49&#45;&gt;Node13</title>
<path fill="none" stroke="midnightblue" d="M3024.69,-373.492C3021.42,-372.963 3018.18,-372.463 3015,-372 2858.94,-349.27 2817.99,-359.165 2662,-336 2660.54,-335.783 2659.06,-335.552 2657.56,-335.31"/>
<polygon fill="midnightblue" stroke="midnightblue" points="2658.06,-331.844 2647.61,-333.579 2656.86,-338.741 2658.06,-331.844"/>
</g>
<!-- Node49&#45;&gt;Node14 -->
<g id="edge62" class="edge"><title>Node49&#45;&gt;Node14</title>
<path fill="none" stroke="midnightblue" d="M3024.69,-373.533C3021.42,-372.994 3018.17,-372.479 3015,-372 2873.48,-350.636 2832.02,-377.328 2695,-336 2676.35,-330.375 2673.55,-324.444 2656,-316 2632.26,-304.582 2604.97,-292.361 2584.91,-283.541"/>
<polygon fill="midnightblue" stroke="midnightblue" points="2586.25,-280.307 2575.68,-279.502 2583.44,-286.719 2586.25,-280.307"/>
</g>
<!-- Node50 -->
<g id="node50" class="node"><title>Node50</title>
<g id="a_node50"><a xlink:href="../../d4/d57/RecPoints_8h.html" target="_top" xlink:title="Definition of the FIT RecPoints class. ">
<polygon fill="none" stroke="black" points="2704.5,-316.5 2704.5,-335.5 2859.5,-335.5 2859.5,-316.5 2704.5,-316.5"/>
<text text-anchor="middle" x="2782" y="-323.5" font-family="Helvetica,sans-Serif" font-size="10.00">FITReconstruction/RecPoints.h</text>
</a>
</g>
</g>
<!-- Node49&#45;&gt;Node50 -->
<g id="edge63" class="edge"><title>Node49&#45;&gt;Node50</title>
<path fill="none" stroke="midnightblue" d="M3024.76,-373.684C2968.04,-362.777 2888.88,-347.554 2836.58,-337.496"/>
<polygon fill="midnightblue" stroke="midnightblue" points="2836.97,-334.007 2826.49,-335.556 2835.65,-340.881 2836.97,-334.007"/>
</g>
<!-- Node50&#45;&gt;Node2 -->
<g id="edge66" class="edge"><title>Node50&#45;&gt;Node2</title>
<path fill="none" stroke="midnightblue" d="M2776.02,-316.265C2770.06,-307.361 2760.83,-293.044 2754,-280 2734.25,-242.254 2746.06,-222.186 2716,-192 2657.66,-133.419 2561.89,-104.556 2509.03,-92.4176"/>
<polygon fill="midnightblue" stroke="midnightblue" points="2509.57,-88.953 2499.05,-90.2089 2508.06,-95.7876 2509.57,-88.953"/>
</g>
<!-- Node50&#45;&gt;Node14 -->
<g id="edge68" class="edge"><title>Node50&#45;&gt;Node14</title>
<path fill="none" stroke="midnightblue" d="M2746.19,-316.444C2707.01,-307.083 2644.12,-292.056 2601.48,-281.868"/>
<polygon fill="midnightblue" stroke="midnightblue" points="2602.18,-278.436 2591.64,-279.516 2600.56,-285.245 2602.18,-278.436"/>
</g>
<!-- Node50&#45;&gt;Node15 -->
<g id="edge64" class="edge"><title>Node50&#45;&gt;Node15</title>
<path fill="none" stroke="midnightblue" d="M2770.23,-316.47C2743.07,-296.778 2675.74,-247.964 2641.98,-223.484"/>
<polygon fill="midnightblue" stroke="midnightblue" points="2643.93,-220.578 2633.78,-217.542 2639.82,-226.246 2643.93,-220.578"/>
</g>
<!-- Node51 -->
<g id="node51" class="node"><title>Node51</title>
<polygon fill="none" stroke="#bfbfbf" points="2763,-260.5 2763,-279.5 2801,-279.5 2801,-260.5 2763,-260.5"/>
<text text-anchor="middle" x="2782" y="-267.5" font-family="Helvetica,sans-Serif" font-size="10.00">array</text>
</g>
<!-- Node50&#45;&gt;Node51 -->
<g id="edge65" class="edge"><title>Node50&#45;&gt;Node51</title>
<path fill="none" stroke="midnightblue" d="M2782,-316.083C2782,-309.006 2782,-298.861 2782,-289.986"/>
<polygon fill="midnightblue" stroke="midnightblue" points="2785.5,-289.751 2782,-279.751 2778.5,-289.751 2785.5,-289.751"/>
</g>
<!-- Node52 -->
<g id="node52" class="node"><title>Node52</title>
<polygon fill="none" stroke="#bfbfbf" points="2819.5,-260.5 2819.5,-279.5 2878.5,-279.5 2878.5,-260.5 2819.5,-260.5"/>
<text text-anchor="middle" x="2849" y="-267.5" font-family="Helvetica,sans-Serif" font-size="10.00">TObject.h</text>
</g>
<!-- Node50&#45;&gt;Node52 -->
<g id="edge67" class="edge"><title>Node50&#45;&gt;Node52</title>
<path fill="none" stroke="midnightblue" d="M2792.76,-316.324C2802.77,-308.263 2817.89,-296.077 2829.93,-286.369"/>
<polygon fill="midnightblue" stroke="midnightblue" points="2832.45,-288.834 2838.04,-279.834 2828.06,-283.384 2832.45,-288.834"/>
</g>
</g>
</svg>
