<?xml version="1.0" encoding="UTF-8" standalone="no"?>
<!DOCTYPE svg PUBLIC "-//W3C//DTD SVG 1.1//EN"
 "http://www.w3.org/Graphics/SVG/1.1/DTD/svg11.dtd">
<!-- Generated by graphviz version 2.36.0 (20140111.2315)
 -->
<!-- Title: o2::framework::OutputSpec Pages: 1 -->
<svg width="751pt" height="796pt"
 viewBox="0.00 0.00 751.00 796.00" xmlns="http://www.w3.org/2000/svg" xmlns:xlink="http://www.w3.org/1999/xlink">
<g id="graph0" class="graph" transform="scale(1 1) rotate(0) translate(4 792)">
<title>o2::framework::OutputSpec</title>
<!-- Node1 -->
<g id="node1" class="node"><title>Node1</title>
<polygon fill="#bfbfbf" stroke="black" points="182.5,-0.5 182.5,-101.5 319.5,-101.5 319.5,-0.5 182.5,-0.5"/>
<text text-anchor="middle" x="251" y="-89.5" font-family="Helvetica,sans-Serif" font-size="10.00">o2::framework::OutputSpec</text>
<polyline fill="none" stroke="black" points="182.5,-82.5 319.5,-82.5 "/>
<text text-anchor="middle" x="251" y="-70.5" font-family="Helvetica,sans-Serif" font-size="10.00"> </text>
<polyline fill="none" stroke="black" points="182.5,-63.5 319.5,-63.5 "/>
<text text-anchor="start" x="190.5" y="-51.5" font-family="Helvetica,sans-Serif" font-size="10.00">+ OutputSpec()</text>
<text text-anchor="start" x="190.5" y="-40.5" font-family="Helvetica,sans-Serif" font-size="10.00">+ OutputSpec()</text>
<text text-anchor="start" x="190.5" y="-29.5" font-family="Helvetica,sans-Serif" font-size="10.00">+ OutputSpec()</text>
<text text-anchor="start" x="190.5" y="-18.5" font-family="Helvetica,sans-Serif" font-size="10.00">+ OutputSpec()</text>
<text text-anchor="start" x="190.5" y="-7.5" font-family="Helvetica,sans-Serif" font-size="10.00">+ operator==()</text>
</g>
<!-- Node2 -->
<g id="node2" class="node"><title>Node2</title>
<polygon fill="none" stroke="#bfbfbf" points="-0.5,-227.5 -0.5,-284.5 50.5,-284.5 50.5,-227.5 -0.5,-227.5"/>
<text text-anchor="middle" x="25" y="-272.5" font-family="Helvetica,sans-Serif" font-size="10.00">uint64_t</text>
<polyline fill="none" stroke="#bfbfbf" points="-0.5,-265.5 50.5,-265.5 "/>
<text text-anchor="middle" x="25" y="-253.5" font-family="Helvetica,sans-Serif" font-size="10.00"> </text>
<polyline fill="none" stroke="#bfbfbf" points="-0.5,-246.5 50.5,-246.5 "/>
<text text-anchor="middle" x="25" y="-234.5" font-family="Helvetica,sans-Serif" font-size="10.00"> </text>
</g>
<!-- Node2&#45;&gt;Node1 -->
<g id="edge1" class="edge"><title>Node2&#45;&gt;Node1</title>
<path fill="none" stroke="#404040" d="M28.0692,-227.151C31.8846,-204.161 40.3526,-171.871 59,-150 88.1711,-115.786 132.249,-92.1012 170.817,-76.5987"/>
<polygon fill="none" stroke="#404040" points="170.868,-76.5791 175.018,-70.6819 182.058,-72.2447 177.907,-78.1419 170.868,-76.5791"/>
<text text-anchor="middle" x="113" y="-123.5" font-family="Helvetica,sans-Serif" font-size="10.00"> +subSpec</text>
</g>
<!-- Node3 -->
<g id="node3" class="node"><title>Node3</title>
<g id="a_node3"><a xlink:href="../../d9/db3/structo2_1_1header_1_1Descriptor.html" target="_top" xlink:title="{o2::header::Descriptor\l\&lt; gSizeDataOriginString,\l printDataOrigin \&gt;\n||+ Descriptor()\l+ Descriptor()\l+ Descriptor()\l+ Descriptor()\l+ operator=()\l+ operator ItgType()\l+ runtimeInit()\l+ operator==()\l+ operator==()\l+ operator!=()\l+ operator!=()\l+ as()\l+ print()\l}">
<polygon fill="none" stroke="black" points="68.5,-150.5 68.5,-361.5 193.5,-361.5 193.5,-150.5 68.5,-150.5"/>
<text text-anchor="start" x="76.5" y="-349.5" font-family="Helvetica,sans-Serif" font-size="10.00">o2::header::Descriptor</text>
<text text-anchor="start" x="76.5" y="-338.5" font-family="Helvetica,sans-Serif" font-size="10.00">&lt; gSizeDataOriginString,</text>
<text text-anchor="middle" x="131" y="-327.5" font-family="Helvetica,sans-Serif" font-size="10.00"> printDataOrigin &gt;</text>
<polyline fill="none" stroke="black" points="68.5,-320.5 193.5,-320.5 "/>
<text text-anchor="middle" x="131" y="-308.5" font-family="Helvetica,sans-Serif" font-size="10.00"> </text>
<polyline fill="none" stroke="black" points="68.5,-301.5 193.5,-301.5 "/>
<text text-anchor="start" x="76.5" y="-289.5" font-family="Helvetica,sans-Serif" font-size="10.00">+ Descriptor()</text>
<text text-anchor="start" x="76.5" y="-278.5" font-family="Helvetica,sans-Serif" font-size="10.00">+ Descriptor()</text>
<text text-anchor="start" x="76.5" y="-267.5" font-family="Helvetica,sans-Serif" font-size="10.00">+ Descriptor()</text>
<text text-anchor="start" x="76.5" y="-256.5" font-family="Helvetica,sans-Serif" font-size="10.00">+ Descriptor()</text>
<text text-anchor="start" x="76.5" y="-245.5" font-family="Helvetica,sans-Serif" font-size="10.00">+ operator=()</text>
<text text-anchor="start" x="76.5" y="-234.5" font-family="Helvetica,sans-Serif" font-size="10.00">+ operator ItgType()</text>
<text text-anchor="start" x="76.5" y="-223.5" font-family="Helvetica,sans-Serif" font-size="10.00">+ runtimeInit()</text>
<text text-anchor="start" x="76.5" y="-212.5" font-family="Helvetica,sans-Serif" font-size="10.00">+ operator==()</text>
<text text-anchor="start" x="76.5" y="-201.5" font-family="Helvetica,sans-Serif" font-size="10.00">+ operator==()</text>
<text text-anchor="start" x="76.5" y="-190.5" font-family="Helvetica,sans-Serif" font-size="10.00">+ operator!=()</text>
<text text-anchor="start" x="76.5" y="-179.5" font-family="Helvetica,sans-Serif" font-size="10.00">+ operator!=()</text>
<text text-anchor="start" x="76.5" y="-168.5" font-family="Helvetica,sans-Serif" font-size="10.00">+ as()</text>
<text text-anchor="start" x="76.5" y="-157.5" font-family="Helvetica,sans-Serif" font-size="10.00">+ print()</text>
</a>
</g>
</g>
<!-- Node3&#45;&gt;Node1 -->
<g id="edge2" class="edge"><title>Node3&#45;&gt;Node1</title>
<path fill="none" stroke="#404040" d="M192.933,-150.23C200.69,-137.108 208.404,-124.059 215.555,-111.961"/>
<polygon fill="none" stroke="#404040" points="215.575,-111.927 215.185,-104.727 221.682,-101.597 222.072,-108.798 215.575,-111.927"/>
<text text-anchor="middle" x="225.5" y="-123.5" font-family="Helvetica,sans-Serif" font-size="10.00"> +origin</text>
</g>
<!-- Node4 -->
<g id="node4" class="node"><title>Node4</title>
<polygon fill="none" stroke="#bfbfbf" points="372,-729.5 372,-786.5 410,-786.5 410,-729.5 372,-729.5"/>
<text text-anchor="middle" x="391" y="-774.5" font-family="Helvetica,sans-Serif" font-size="10.00">Type</text>
<polyline fill="none" stroke="#bfbfbf" points="372,-767.5 410,-767.5 "/>
<text text-anchor="middle" x="391" y="-755.5" font-family="Helvetica,sans-Serif" font-size="10.00"> </text>
<polyline fill="none" stroke="#bfbfbf" points="372,-748.5 410,-748.5 "/>
<text text-anchor="middle" x="391" y="-736.5" font-family="Helvetica,sans-Serif" font-size="10.00"> </text>
</g>
<!-- Node4&#45;&gt;Node3 -->
<g id="edge3" class="edge"><title>Node4&#45;&gt;Node3</title>
<path fill="none" stroke="#404040" d="M395.854,-729.277C404.17,-673.193 415.556,-544.121 363,-456 355.613,-443.613 347.507,-446.695 336,-438 304.308,-414.052 303.082,-398.63 268,-380 241.525,-365.941 227.398,-379.416 203,-362 202.899,-361.928 202.798,-361.855 202.697,-361.783"/>
<polygon fill="none" stroke="#404040" points="202.97,-362.001 195.785,-361.39 193.586,-354.522 200.771,-355.133 202.97,-362.001"/>
<text text-anchor="middle" x="414" y="-554.5" font-family="Helvetica,sans-Serif" font-size="10.00"> +itg</text>
</g>
<!-- Node8 -->
<g id="node8" class="node"><title>Node8</title>
<g id="a_node8"><a xlink:href="../../d9/db3/structo2_1_1header_1_1Descriptor.html" target="_top" xlink:title="{o2::header::Descriptor\l\&lt; N, PrinterPolicy \&gt;\n||+ Descriptor()\l+ Descriptor()\l+ Descriptor()\l+ operator=()\l+ operator ItgType()\l+ Descriptor()\l+ runtimeInit()\l+ operator==()\l+ operator!=()\l+ operator==()\l+ operator!=()\l+ as()\l+ print()\l}">
<polygon fill="none" stroke="black" points="241.5,-457 241.5,-657 354.5,-657 354.5,-457 241.5,-457"/>
<text text-anchor="start" x="249.5" y="-645" font-family="Helvetica,sans-Serif" font-size="10.00">o2::header::Descriptor</text>
<text text-anchor="middle" x="298" y="-634" font-family="Helvetica,sans-Serif" font-size="10.00">&lt; N, PrinterPolicy &gt;</text>
<polyline fill="none" stroke="black" points="241.5,-627 354.5,-627 "/>
<text text-anchor="middle" x="298" y="-615" font-family="Helvetica,sans-Serif" font-size="10.00"> </text>
<polyline fill="none" stroke="black" points="241.5,-608 354.5,-608 "/>
<text text-anchor="start" x="249.5" y="-596" font-family="Helvetica,sans-Serif" font-size="10.00">+ Descriptor()</text>
<text text-anchor="start" x="249.5" y="-585" font-family="Helvetica,sans-Serif" font-size="10.00">+ Descriptor()</text>
<text text-anchor="start" x="249.5" y="-574" font-family="Helvetica,sans-Serif" font-size="10.00">+ Descriptor()</text>
<text text-anchor="start" x="249.5" y="-563" font-family="Helvetica,sans-Serif" font-size="10.00">+ operator=()</text>
<text text-anchor="start" x="249.5" y="-552" font-family="Helvetica,sans-Serif" font-size="10.00">+ operator ItgType()</text>
<text text-anchor="start" x="249.5" y="-541" font-family="Helvetica,sans-Serif" font-size="10.00">+ Descriptor()</text>
<text text-anchor="start" x="249.5" y="-530" font-family="Helvetica,sans-Serif" font-size="10.00">+ runtimeInit()</text>
<text text-anchor="start" x="249.5" y="-519" font-family="Helvetica,sans-Serif" font-size="10.00">+ operator==()</text>
<text text-anchor="start" x="249.5" y="-508" font-family="Helvetica,sans-Serif" font-size="10.00">+ operator!=()</text>
<text text-anchor="start" x="249.5" y="-497" font-family="Helvetica,sans-Serif" font-size="10.00">+ operator==()</text>
<text text-anchor="start" x="249.5" y="-486" font-family="Helvetica,sans-Serif" font-size="10.00">+ operator!=()</text>
<text text-anchor="start" x="249.5" y="-475" font-family="Helvetica,sans-Serif" font-size="10.00">+ as()</text>
<text text-anchor="start" x="249.5" y="-464" font-family="Helvetica,sans-Serif" font-size="10.00">+ print()</text>
</a>
</g>
</g>
<!-- Node4&#45;&gt;Node8 -->
<g id="edge8" class="edge"><title>Node4&#45;&gt;Node8</title>
<path fill="none" stroke="#404040" d="M371.763,-732.901C366.576,-725.771 361.235,-717.785 357,-710 349.902,-696.952 343.234,-682.868 337.12,-668.719"/>
<polygon fill="none" stroke="#404040" points="337,-668.434 330.982,-664.46 332.337,-657.377 338.354,-661.351 337,-668.434"/>
<text text-anchor="middle" x="367" y="-690.5" font-family="Helvetica,sans-Serif" font-size="10.00"> +itg</text>
</g>
<!-- Node10 -->
<g id="node10" class="node"><title>Node10</title>
<g id="a_node10"><a xlink:href="../../d9/db3/structo2_1_1header_1_1Descriptor.html" target="_top" xlink:title="{o2::header::Descriptor\l\&lt; gSizeDataDescriptionString,\l printDataDescription \&gt;\n||+ Descriptor()\l+ Descriptor()\l+ Descriptor()\l+ Descriptor()\l+ operator=()\l+ operator ItgType()\l+ runtimeInit()\l+ operator==()\l+ operator==()\l+ operator!=()\l+ operator!=()\l+ as()\l+ print()\l}">
<polygon fill="none" stroke="black" points="308.5,-150.5 308.5,-361.5 457.5,-361.5 457.5,-150.5 308.5,-150.5"/>
<text text-anchor="start" x="316.5" y="-349.5" font-family="Helvetica,sans-Serif" font-size="10.00">o2::header::Descriptor</text>
<text text-anchor="start" x="316.5" y="-338.5" font-family="Helvetica,sans-Serif" font-size="10.00">&lt; gSizeDataDescriptionString,</text>
<text text-anchor="middle" x="383" y="-327.5" font-family="Helvetica,sans-Serif" font-size="10.00"> printDataDescription &gt;</text>
<polyline fill="none" stroke="black" points="308.5,-320.5 457.5,-320.5 "/>
<text text-anchor="middle" x="383" y="-308.5" font-family="Helvetica,sans-Serif" font-size="10.00"> </text>
<polyline fill="none" stroke="black" points="308.5,-301.5 457.5,-301.5 "/>
<text text-anchor="start" x="316.5" y="-289.5" font-family="Helvetica,sans-Serif" font-size="10.00">+ Descriptor()</text>
<text text-anchor="start" x="316.5" y="-278.5" font-family="Helvetica,sans-Serif" font-size="10.00">+ Descriptor()</text>
<text text-anchor="start" x="316.5" y="-267.5" font-family="Helvetica,sans-Serif" font-size="10.00">+ Descriptor()</text>
<text text-anchor="start" x="316.5" y="-256.5" font-family="Helvetica,sans-Serif" font-size="10.00">+ Descriptor()</text>
<text text-anchor="start" x="316.5" y="-245.5" font-family="Helvetica,sans-Serif" font-size="10.00">+ operator=()</text>
<text text-anchor="start" x="316.5" y="-234.5" font-family="Helvetica,sans-Serif" font-size="10.00">+ operator ItgType()</text>
<text text-anchor="start" x="316.5" y="-223.5" font-family="Helvetica,sans-Serif" font-size="10.00">+ runtimeInit()</text>
<text text-anchor="start" x="316.5" y="-212.5" font-family="Helvetica,sans-Serif" font-size="10.00">+ operator==()</text>
<text text-anchor="start" x="316.5" y="-201.5" font-family="Helvetica,sans-Serif" font-size="10.00">+ operator==()</text>
<text text-anchor="start" x="316.5" y="-190.5" font-family="Helvetica,sans-Serif" font-size="10.00">+ operator!=()</text>
<text text-anchor="start" x="316.5" y="-179.5" font-family="Helvetica,sans-Serif" font-size="10.00">+ operator!=()</text>
<text text-anchor="start" x="316.5" y="-168.5" font-family="Helvetica,sans-Serif" font-size="10.00">+ as()</text>
<text text-anchor="start" x="316.5" y="-157.5" font-family="Helvetica,sans-Serif" font-size="10.00">+ print()</text>
</a>
</g>
</g>
<!-- Node4&#45;&gt;Node10 -->
<g id="edge14" class="edge"><title>Node4&#45;&gt;Node10</title>
<path fill="none" stroke="#404040" d="M410.091,-755.043C435.735,-751.28 480.454,-740.48 501,-710 511.208,-694.857 529.763,-722.643 502,-456 498.425,-421.667 504.551,-409.109 486,-380 480.626,-371.567 475.12,-370.958 466.89,-365.336"/>
<polygon fill="none" stroke="#404040" points="466.839,-365.293 459.673,-364.492 457.656,-357.568 464.823,-358.37 466.839,-365.293"/>
<text text-anchor="middle" x="527" y="-554.5" font-family="Helvetica,sans-Serif" font-size="10.00"> +itg</text>
</g>
<!-- Node5 -->
<g id="node5" class="node"><title>Node5</title>
<polygon fill="none" stroke="#bfbfbf" points="184.5,-729.5 184.5,-786.5 219.5,-786.5 219.5,-729.5 184.5,-729.5"/>
<text text-anchor="middle" x="202" y="-774.5" font-family="Helvetica,sans-Serif" font-size="10.00">char</text>
<polyline fill="none" stroke="#bfbfbf" points="184.5,-767.5 219.5,-767.5 "/>
<text text-anchor="middle" x="202" y="-755.5" font-family="Helvetica,sans-Serif" font-size="10.00"> </text>
<polyline fill="none" stroke="#bfbfbf" points="184.5,-748.5 219.5,-748.5 "/>
<text text-anchor="middle" x="202" y="-736.5" font-family="Helvetica,sans-Serif" font-size="10.00"> </text>
</g>
<!-- Node5&#45;&gt;Node3 -->
<g id="edge4" class="edge"><title>Node5&#45;&gt;Node3</title>
<path fill="none" stroke="#404040" d="M195.16,-729.146C189.415,-711.453 179.436,-689.432 163,-676 137.793,-655.399 111.992,-683.692 92,-658 58.5835,-615.055 80.1923,-476.187 102.284,-373.859"/>
<polygon fill="none" stroke="#404040" points="102.34,-373.606 99.7161,-366.889 104.907,-361.884 107.531,-368.601 102.34,-373.606"/>
<text text-anchor="middle" x="102.5" y="-554.5" font-family="Helvetica,sans-Serif" font-size="10.00"> +str</text>
</g>
<!-- Node5&#45;&gt;Node8 -->
<g id="edge9" class="edge"><title>Node5&#45;&gt;Node8</title>
<path fill="none" stroke="#404040" d="M215.348,-729.33C223.265,-712.919 233.875,-690.926 244.848,-668.18"/>
<polygon fill="none" stroke="#404040" points="244.865,-668.144 243.869,-661.002 250.079,-657.336 251.075,-664.478 244.865,-668.144"/>
<text text-anchor="middle" x="249.5" y="-690.5" font-family="Helvetica,sans-Serif" font-size="10.00"> +str</text>
</g>
<!-- Node5&#45;&gt;Node10 -->
<g id="edge15" class="edge"><title>Node5&#45;&gt;Node10</title>
<path fill="none" stroke="#404040" d="M199.181,-729.294C193.053,-663.483 181.323,-499.99 211,-456 222.13,-439.502 236.513,-450.498 252,-438 275.082,-419.373 296.063,-395.725 314.138,-371.717"/>
<polygon fill="none" stroke="#404040" points="314.332,-371.453 314.665,-364.25 321.442,-361.786 321.109,-368.989 314.332,-371.453"/>
<text text-anchor="middle" x="221.5" y="-554.5" font-family="Helvetica,sans-Serif" font-size="10.00"> +str</text>
</g>
<!-- Node6 -->
<g id="node6" class="node"><title>Node6</title>
<polygon fill="none" stroke="#bfbfbf" points="554.5,-729.5 554.5,-786.5 583.5,-786.5 583.5,-729.5 554.5,-729.5"/>
<text text-anchor="middle" x="569" y="-774.5" font-family="Helvetica,sans-Serif" font-size="10.00">int</text>
<polyline fill="none" stroke="#bfbfbf" points="554.5,-767.5 583.5,-767.5 "/>
<text text-anchor="middle" x="569" y="-755.5" font-family="Helvetica,sans-Serif" font-size="10.00"> </text>
<polyline fill="none" stroke="#bfbfbf" points="554.5,-748.5 583.5,-748.5 "/>
<text text-anchor="middle" x="569" y="-736.5" font-family="Helvetica,sans-Serif" font-size="10.00"> </text>
</g>
<!-- Node6&#45;&gt;Node3 -->
<g id="edge5" class="edge"><title>Node6&#45;&gt;Node3</title>
<path fill="none" stroke="#404040" d="M554.404,-733.335C542.169,-715.298 523.169,-691.072 501,-676 480.079,-661.776 462.883,-677.691 447,-658 390.301,-587.708 482.913,-525.294 425,-456 406.873,-434.311 387.594,-453.566 364,-438 336.07,-419.573 345.059,-396.588 316,-380 274.853,-356.511 249.603,-384.756 203.923,-361.261"/>
<polygon fill="none" stroke="#404040" points="203.897,-361.245 196.699,-361.687 193.524,-355.212 200.721,-354.771 203.897,-361.245"/>
<text text-anchor="middle" x="472.5" y="-565.5" font-family="Helvetica,sans-Serif" font-size="10.00"> +arraySize</text>
<text text-anchor="middle" x="472.5" y="-554.5" font-family="Helvetica,sans-Serif" font-size="10.00">+size</text>
<text text-anchor="middle" x="472.5" y="-543.5" font-family="Helvetica,sans-Serif" font-size="10.00">+bitcount</text>
</g>
<!-- Node6&#45;&gt;Node8 -->
<g id="edge10" class="edge"><title>Node6&#45;&gt;Node8</title>
<path fill="none" stroke="#404040" d="M554.265,-752.509C519.084,-741.233 428.675,-708.932 369,-658 367.178,-656.445 365.379,-654.833 363.605,-653.174"/>
<polygon fill="none" stroke="#404040" points="363.426,-652.995 356.355,-651.578 354.944,-644.507 362.014,-645.923 363.426,-652.995"/>
<text text-anchor="middle" x="471.5" y="-701.5" font-family="Helvetica,sans-Serif" font-size="10.00"> +arraySize</text>
<text text-anchor="middle" x="471.5" y="-690.5" font-family="Helvetica,sans-Serif" font-size="10.00">+size</text>
<text text-anchor="middle" x="471.5" y="-679.5" font-family="Helvetica,sans-Serif" font-size="10.00">+bitcount</text>
</g>
<!-- Node6&#45;&gt;Node10 -->
<g id="edge16" class="edge"><title>Node6&#45;&gt;Node10</title>
<path fill="none" stroke="#404040" d="M574.353,-729.306C586.106,-659.337 605.856,-474.333 508,-380 494.911,-367.382 483.946,-372.423 468.18,-365.053"/>
<polygon fill="none" stroke="#404040" points="467.901,-364.881 460.694,-365.143 457.681,-358.592 464.887,-358.33 467.901,-364.881"/>
<text text-anchor="middle" x="610.5" y="-565.5" font-family="Helvetica,sans-Serif" font-size="10.00"> +arraySize</text>
<text text-anchor="middle" x="610.5" y="-554.5" font-family="Helvetica,sans-Serif" font-size="10.00">+size</text>
<text text-anchor="middle" x="610.5" y="-543.5" font-family="Helvetica,sans-Serif" font-size="10.00">+bitcount</text>
</g>
<!-- Node11 -->
<g id="node11" class="node"><title>Node11</title>
<g id="a_node11"><a xlink:href="../../de/d1b/structo2_1_1framework_1_1OutputLabel.html" target="_top" xlink:title="{o2::framework::OutputLabel\n||}">
<polygon fill="none" stroke="black" points="605.5,-380.5 605.5,-437.5 742.5,-437.5 742.5,-380.5 605.5,-380.5"/>
<text text-anchor="middle" x="674" y="-425.5" font-family="Helvetica,sans-Serif" font-size="10.00">o2::framework::OutputLabel</text>
<polyline fill="none" stroke="black" points="605.5,-418.5 742.5,-418.5 "/>
<text text-anchor="middle" x="674" y="-406.5" font-family="Helvetica,sans-Serif" font-size="10.00"> </text>
<polyline fill="none" stroke="black" points="605.5,-399.5 742.5,-399.5 "/>
<text text-anchor="middle" x="674" y="-387.5" font-family="Helvetica,sans-Serif" font-size="10.00"> </text>
</a>
</g>
</g>
<!-- Node6&#45;&gt;Node11 -->
<g id="edge20" class="edge"><title>Node6&#45;&gt;Node11</title>
<path fill="none" stroke="#404040" d="M583.651,-743.172C601.494,-725.352 630.984,-692.533 645,-658 673.12,-588.719 676.512,-500.213 675.733,-449.84"/>
<polygon fill="none" stroke="#404040" points="675.727,-449.587 671.588,-443.681 675.448,-437.59 679.586,-443.495 675.727,-449.587"/>
<text text-anchor="middle" x="652.5" y="-690.5" font-family="Helvetica,sans-Serif" font-size="10.00"> +value</text>
</g>
<!-- Node7 -->
<g id="node7" class="node"><title>Node7</title>
<polygon fill="none" stroke="#bfbfbf" points="83.5,-729 83.5,-787 112.5,-787 112.5,-729 83.5,-729"/>
<polyline fill="none" stroke="#bfbfbf" points="83.5,-767 112.5,-767 "/>
<text text-anchor="middle" x="98" y="-755" font-family="Helvetica,sans-Serif" font-size="10.00"> </text>
<polyline fill="none" stroke="#bfbfbf" points="83.5,-748 112.5,-748 "/>
<text text-anchor="middle" x="98" y="-736" font-family="Helvetica,sans-Serif" font-size="10.00"> </text>
</g>
<!-- Node7&#45;&gt;Node3 -->
<g id="edge6" class="edge"><title>Node7&#45;&gt;Node3</title>
<path fill="none" stroke="#404040" d="M83.2849,-743.288C65.4828,-725.588 36.4734,-692.892 25,-658 -3.04378,-572.715 3.91613,-543.267 25,-456 32.7985,-423.722 47.0683,-390.984 62.6642,-361.636"/>
<polygon fill="none" stroke="#404040" points="62.7249,-361.524 62.0792,-354.342 68.4606,-350.983 69.1063,-358.166 62.7249,-361.524"/>
<text text-anchor="middle" x="40.5" y="-554.5" font-family="Helvetica,sans-Serif" font-size="10.00"> +@14</text>
</g>
<!-- Node7&#45;&gt;Node8 -->
<g id="edge11" class="edge"><title>Node7&#45;&gt;Node8</title>
<path fill="none" stroke="#404040" d="M112.505,-742.27C130.035,-724.986 160.934,-696.135 191,-676 205.863,-666.046 213.417,-669.64 227,-658 229.036,-656.255 231.044,-654.44 233.021,-652.566"/>
<polygon fill="none" stroke="#404040" points="233.049,-652.536 234.423,-645.457 241.486,-644.003 240.112,-651.082 233.049,-652.536"/>
<text text-anchor="middle" x="206.5" y="-690.5" font-family="Helvetica,sans-Serif" font-size="10.00"> +@14</text>
</g>
<!-- Node7&#45;&gt;Node10 -->
<g id="edge17" class="edge"><title>Node7&#45;&gt;Node10</title>
<path fill="none" stroke="#404040" d="M102.668,-728.982C114.904,-656.197 147.61,-466.061 157,-456 178.039,-433.459 200.254,-457.668 224,-438 246.045,-419.741 230.927,-399.373 252,-380 268.467,-364.861 280.938,-375.195 299,-362 299.1,-361.927 299.2,-361.854 299.3,-361.78"/>
<polygon fill="none" stroke="#404040" points="299.029,-361.995 301.254,-355.135 308.442,-354.551 306.216,-361.41 299.029,-361.995"/>
<text text-anchor="middle" x="172.5" y="-554.5" font-family="Helvetica,sans-Serif" font-size="10.00"> +@14</text>
</g>
<!-- Node8&#45;&gt;Node3 -->
<g id="edge7" class="edge"><title>Node8&#45;&gt;Node3</title>
<path fill="none" stroke="orange" d="M233.324,-460.675C231.26,-459.037 229.151,-457.475 227,-456 200.148,-437.596 177.706,-462.261 156,-438 137.387,-417.196 128.616,-389.307 125.12,-361.662"/>
<polygon fill="orange" stroke="orange" points="231.205,-463.47 241.064,-467.347 235.775,-458.168 231.205,-463.47"/>
<text text-anchor="start" x="156" y="-412" font-family="Helvetica,sans-Serif" font-size="10.00"> &lt; gSizeDataOriginString,</text>
<text text-anchor="middle" x="212" y="-401" font-family="Helvetica,sans-Serif" font-size="10.00"> printDataOrigin &gt;</text>
</g>
<!-- Node8&#45;&gt;Node10 -->
<g id="edge18" class="edge"><title>Node8&#45;&gt;Node10</title>
<path fill="none" stroke="orange" d="M328.966,-447.072C336.901,-419.159 345.417,-389.205 353.287,-361.52"/>
<polygon fill="orange" stroke="orange" points="325.554,-446.277 326.186,-456.853 332.287,-448.191 325.554,-446.277"/>
<text text-anchor="start" x="346" y="-412" font-family="Helvetica,sans-Serif" font-size="10.00"> &lt; gSizeDataDescriptionString,</text>
<text text-anchor="middle" x="414" y="-401" font-family="Helvetica,sans-Serif" font-size="10.00"> printDataDescription &gt;</text>
</g>
<!-- Node9 -->
<g id="node9" class="node"><title>Node9</title>
<polygon fill="none" stroke="#bfbfbf" points="212,-227.5 212,-284.5 290,-284.5 290,-227.5 212,-227.5"/>
<text text-anchor="middle" x="251" y="-272.5" font-family="Helvetica,sans-Serif" font-size="10.00">enum Lifetime</text>
<polyline fill="none" stroke="#bfbfbf" points="212,-265.5 290,-265.5 "/>
<text text-anchor="middle" x="251" y="-253.5" font-family="Helvetica,sans-Serif" font-size="10.00"> </text>
<polyline fill="none" stroke="#bfbfbf" points="212,-246.5 290,-246.5 "/>
<text text-anchor="middle" x="251" y="-234.5" font-family="Helvetica,sans-Serif" font-size="10.00"> </text>
</g>
<!-- Node9&#45;&gt;Node1 -->
<g id="edge12" class="edge"><title>Node9&#45;&gt;Node1</title>
<path fill="none" stroke="#404040" d="M251,-227.199C251,-198.224 251,-151.865 251,-114.111"/>
<polygon fill="none" stroke="#404040" points="251,-113.675 247,-107.675 251,-101.675 255,-107.675 251,-113.675"/>
<text text-anchor="middle" x="271.5" y="-123.5" font-family="Helvetica,sans-Serif" font-size="10.00"> +lifetime</text>
</g>
<!-- Node10&#45;&gt;Node1 -->
<g id="edge13" class="edge"><title>Node10&#45;&gt;Node1</title>
<path fill="none" stroke="#404040" d="M315.681,-150.264C309.047,-140.027 302.403,-129.805 296,-120 294.246,-117.315 292.45,-114.572 290.634,-111.803"/>
<polygon fill="none" stroke="#404040" points="290.596,-111.745 283.957,-108.93 284.002,-101.719 290.641,-104.534 290.596,-111.745"/>
<text text-anchor="middle" x="332.5" y="-123.5" font-family="Helvetica,sans-Serif" font-size="10.00"> +description</text>
</g>
<!-- Node11&#45;&gt;Node1 -->
<g id="edge19" class="edge"><title>Node11&#45;&gt;Node1</title>
<path fill="none" stroke="#404040" d="M657.863,-380.387C626.635,-328.989 553.27,-217.728 466,-150 425.777,-118.784 374.016,-94.8001 331.362,-78.3741"/>
<polygon fill="none" stroke="#404040" points="331.105,-78.2773 324.08,-79.9053 319.875,-74.0469 326.9,-72.4189 331.105,-78.2773"/>
<text text-anchor="middle" x="665" y="-253.5" font-family="Helvetica,sans-Serif" font-size="10.00"> +binding</text>
</g>
</g>
</svg>
