<?xml version="1.0" encoding="UTF-8" standalone="no"?>
<!DOCTYPE svg PUBLIC "-//W3C//DTD SVG 1.1//EN"
 "http://www.w3.org/Graphics/SVG/1.1/DTD/svg11.dtd">
<!-- Generated by graphviz version 2.36.0 (20140111.2315)
 -->
<!-- Title: o2::framework::Output Pages: 1 -->
<svg width="664pt" height="772pt"
 viewBox="0.00 0.00 664.00 772.00" xmlns="http://www.w3.org/2000/svg" xmlns:xlink="http://www.w3.org/1999/xlink">
<g id="graph0" class="graph" transform="scale(1 1) rotate(0) translate(4 768)">
<title>o2::framework::Output</title>
<!-- Node1 -->
<g id="node1" class="node"><title>Node1</title>
<polygon fill="#bfbfbf" stroke="black" points="194,-1 194,-113 308,-113 308,-1 194,-1"/>
<text text-anchor="middle" x="251" y="-101" font-family="Helvetica,sans-Serif" font-size="10.00">o2::framework::Output</text>
<polyline fill="none" stroke="black" points="194,-94 308,-94 "/>
<text text-anchor="middle" x="251" y="-82" font-family="Helvetica,sans-Serif" font-size="10.00"> </text>
<polyline fill="none" stroke="black" points="194,-75 308,-75 "/>
<text text-anchor="start" x="202" y="-63" font-family="Helvetica,sans-Serif" font-size="10.00">+ Output()</text>
<text text-anchor="start" x="202" y="-52" font-family="Helvetica,sans-Serif" font-size="10.00">+ Output()</text>
<text text-anchor="start" x="202" y="-41" font-family="Helvetica,sans-Serif" font-size="10.00">+ Output()</text>
<text text-anchor="start" x="202" y="-30" font-family="Helvetica,sans-Serif" font-size="10.00">+ Output()</text>
<text text-anchor="start" x="202" y="-19" font-family="Helvetica,sans-Serif" font-size="10.00">+ Output()</text>
<text text-anchor="start" x="202" y="-8" font-family="Helvetica,sans-Serif" font-size="10.00">+ operator==()</text>
</g>
<!-- Node2 -->
<g id="node2" class="node"><title>Node2</title>
<polygon fill="none" stroke="#bfbfbf" points="-0.5,-239.5 -0.5,-296.5 50.5,-296.5 50.5,-239.5 -0.5,-239.5"/>
<text text-anchor="middle" x="25" y="-284.5" font-family="Helvetica,sans-Serif" font-size="10.00">uint64_t</text>
<polyline fill="none" stroke="#bfbfbf" points="-0.5,-277.5 50.5,-277.5 "/>
<text text-anchor="middle" x="25" y="-265.5" font-family="Helvetica,sans-Serif" font-size="10.00"> </text>
<polyline fill="none" stroke="#bfbfbf" points="-0.5,-258.5 50.5,-258.5 "/>
<text text-anchor="middle" x="25" y="-246.5" font-family="Helvetica,sans-Serif" font-size="10.00"> </text>
</g>
<!-- Node2&#45;&gt;Node1 -->
<g id="edge1" class="edge"><title>Node2&#45;&gt;Node1</title>
<path fill="none" stroke="#404040" d="M28.2076,-239.268C32.1074,-216.349 40.6216,-184.098 59,-162 91.1282,-123.37 141.454,-96.8629 182.522,-80.2808"/>
<polygon fill="none" stroke="#404040" points="182.658,-80.2278 186.793,-74.3202 193.837,-75.8652 189.702,-81.7728 182.658,-80.2278"/>
<text text-anchor="middle" x="113" y="-135.5" font-family="Helvetica,sans-Serif" font-size="10.00"> +subSpec</text>
</g>
<!-- Node3 -->
<g id="node3" class="node"><title>Node3</title>
<g id="a_node3"><a xlink:href="../../d9/db3/structo2_1_1header_1_1Descriptor.html" target="_top" xlink:title="{o2::header::Descriptor\l\&lt; gSizeDataOriginString,\l printDataOrigin \&gt;\n||+ Descriptor()\l+ Descriptor()\l+ Descriptor()\l+ Descriptor()\l+ operator=()\l+ operator ItgType()\l+ runtimeInit()\l+ operator==()\l+ operator==()\l+ operator!=()\l+ operator!=()\l+ as()\l+ print()\l}">
<polygon fill="none" stroke="black" points="68.5,-162.5 68.5,-373.5 193.5,-373.5 193.5,-162.5 68.5,-162.5"/>
<text text-anchor="start" x="76.5" y="-361.5" font-family="Helvetica,sans-Serif" font-size="10.00">o2::header::Descriptor</text>
<text text-anchor="start" x="76.5" y="-350.5" font-family="Helvetica,sans-Serif" font-size="10.00">&lt; gSizeDataOriginString,</text>
<text text-anchor="middle" x="131" y="-339.5" font-family="Helvetica,sans-Serif" font-size="10.00"> printDataOrigin &gt;</text>
<polyline fill="none" stroke="black" points="68.5,-332.5 193.5,-332.5 "/>
<text text-anchor="middle" x="131" y="-320.5" font-family="Helvetica,sans-Serif" font-size="10.00"> </text>
<polyline fill="none" stroke="black" points="68.5,-313.5 193.5,-313.5 "/>
<text text-anchor="start" x="76.5" y="-301.5" font-family="Helvetica,sans-Serif" font-size="10.00">+ Descriptor()</text>
<text text-anchor="start" x="76.5" y="-290.5" font-family="Helvetica,sans-Serif" font-size="10.00">+ Descriptor()</text>
<text text-anchor="start" x="76.5" y="-279.5" font-family="Helvetica,sans-Serif" font-size="10.00">+ Descriptor()</text>
<text text-anchor="start" x="76.5" y="-268.5" font-family="Helvetica,sans-Serif" font-size="10.00">+ Descriptor()</text>
<text text-anchor="start" x="76.5" y="-257.5" font-family="Helvetica,sans-Serif" font-size="10.00">+ operator=()</text>
<text text-anchor="start" x="76.5" y="-246.5" font-family="Helvetica,sans-Serif" font-size="10.00">+ operator ItgType()</text>
<text text-anchor="start" x="76.5" y="-235.5" font-family="Helvetica,sans-Serif" font-size="10.00">+ runtimeInit()</text>
<text text-anchor="start" x="76.5" y="-224.5" font-family="Helvetica,sans-Serif" font-size="10.00">+ operator==()</text>
<text text-anchor="start" x="76.5" y="-213.5" font-family="Helvetica,sans-Serif" font-size="10.00">+ operator==()</text>
<text text-anchor="start" x="76.5" y="-202.5" font-family="Helvetica,sans-Serif" font-size="10.00">+ operator!=()</text>
<text text-anchor="start" x="76.5" y="-191.5" font-family="Helvetica,sans-Serif" font-size="10.00">+ operator!=()</text>
<text text-anchor="start" x="76.5" y="-180.5" font-family="Helvetica,sans-Serif" font-size="10.00">+ as()</text>
<text text-anchor="start" x="76.5" y="-169.5" font-family="Helvetica,sans-Serif" font-size="10.00">+ print()</text>
</a>
</g>
</g>
<!-- Node3&#45;&gt;Node1 -->
<g id="edge2" class="edge"><title>Node3&#45;&gt;Node1</title>
<path fill="none" stroke="#404040" d="M191.176,-162.194C198.729,-149.038 206.279,-135.889 213.346,-123.581"/>
<polygon fill="none" stroke="#404040" points="213.445,-123.408 212.964,-116.213 219.42,-113.001 219.902,-120.196 213.445,-123.408"/>
<text text-anchor="middle" x="222.5" y="-135.5" font-family="Helvetica,sans-Serif" font-size="10.00"> +origin</text>
</g>
<!-- Node4 -->
<g id="node4" class="node"><title>Node4</title>
<polygon fill="none" stroke="#bfbfbf" points="89,-705.5 89,-762.5 127,-762.5 127,-705.5 89,-705.5"/>
<text text-anchor="middle" x="108" y="-750.5" font-family="Helvetica,sans-Serif" font-size="10.00">Type</text>
<polyline fill="none" stroke="#bfbfbf" points="89,-743.5 127,-743.5 "/>
<text text-anchor="middle" x="108" y="-731.5" font-family="Helvetica,sans-Serif" font-size="10.00"> </text>
<polyline fill="none" stroke="#bfbfbf" points="89,-724.5 127,-724.5 "/>
<text text-anchor="middle" x="108" y="-712.5" font-family="Helvetica,sans-Serif" font-size="10.00"> </text>
</g>
<!-- Node4&#45;&gt;Node3 -->
<g id="edge3" class="edge"><title>Node4&#45;&gt;Node3</title>
<path fill="none" stroke="#404040" d="M88.9332,-710.793C73.9778,-691.815 54.3435,-663.042 46,-634 21.2107,-547.712 24.63,-519.197 46,-432 50.0738,-415.377 56.1706,-398.567 63.2641,-382.376"/>
<polygon fill="none" stroke="#404040" points="63.3461,-382.195 62.1939,-375.077 68.3216,-371.276 69.4739,-378.394 63.3461,-382.195"/>
<text text-anchor="middle" x="56" y="-530.5" font-family="Helvetica,sans-Serif" font-size="10.00"> +itg</text>
</g>
<!-- Node8 -->
<g id="node8" class="node"><title>Node8</title>
<g id="a_node8"><a xlink:href="../../d9/db3/structo2_1_1header_1_1Descriptor.html" target="_top" xlink:title="{o2::header::Descriptor\l\&lt; N, PrinterPolicy \&gt;\n||+ Descriptor()\l+ Descriptor()\l+ Descriptor()\l+ operator=()\l+ operator ItgType()\l+ Descriptor()\l+ runtimeInit()\l+ operator==()\l+ operator!=()\l+ operator==()\l+ operator!=()\l+ as()\l+ print()\l}">
<polygon fill="none" stroke="black" points="240.5,-433 240.5,-633 353.5,-633 353.5,-433 240.5,-433"/>
<text text-anchor="start" x="248.5" y="-621" font-family="Helvetica,sans-Serif" font-size="10.00">o2::header::Descriptor</text>
<text text-anchor="middle" x="297" y="-610" font-family="Helvetica,sans-Serif" font-size="10.00">&lt; N, PrinterPolicy &gt;</text>
<polyline fill="none" stroke="black" points="240.5,-603 353.5,-603 "/>
<text text-anchor="middle" x="297" y="-591" font-family="Helvetica,sans-Serif" font-size="10.00"> </text>
<polyline fill="none" stroke="black" points="240.5,-584 353.5,-584 "/>
<text text-anchor="start" x="248.5" y="-572" font-family="Helvetica,sans-Serif" font-size="10.00">+ Descriptor()</text>
<text text-anchor="start" x="248.5" y="-561" font-family="Helvetica,sans-Serif" font-size="10.00">+ Descriptor()</text>
<text text-anchor="start" x="248.5" y="-550" font-family="Helvetica,sans-Serif" font-size="10.00">+ Descriptor()</text>
<text text-anchor="start" x="248.5" y="-539" font-family="Helvetica,sans-Serif" font-size="10.00">+ operator=()</text>
<text text-anchor="start" x="248.5" y="-528" font-family="Helvetica,sans-Serif" font-size="10.00">+ operator ItgType()</text>
<text text-anchor="start" x="248.5" y="-517" font-family="Helvetica,sans-Serif" font-size="10.00">+ Descriptor()</text>
<text text-anchor="start" x="248.5" y="-506" font-family="Helvetica,sans-Serif" font-size="10.00">+ runtimeInit()</text>
<text text-anchor="start" x="248.5" y="-495" font-family="Helvetica,sans-Serif" font-size="10.00">+ operator==()</text>
<text text-anchor="start" x="248.5" y="-484" font-family="Helvetica,sans-Serif" font-size="10.00">+ operator!=()</text>
<text text-anchor="start" x="248.5" y="-473" font-family="Helvetica,sans-Serif" font-size="10.00">+ operator==()</text>
<text text-anchor="start" x="248.5" y="-462" font-family="Helvetica,sans-Serif" font-size="10.00">+ operator!=()</text>
<text text-anchor="start" x="248.5" y="-451" font-family="Helvetica,sans-Serif" font-size="10.00">+ as()</text>
<text text-anchor="start" x="248.5" y="-440" font-family="Helvetica,sans-Serif" font-size="10.00">+ print()</text>
</a>
</g>
</g>
<!-- Node4&#45;&gt;Node8 -->
<g id="edge8" class="edge"><title>Node4&#45;&gt;Node8</title>
<path fill="none" stroke="#404040" d="M127.242,-713.571C144.685,-696.437 171.493,-671.267 197,-652 209.105,-642.857 214.946,-644.39 226,-634 228.017,-632.104 230.012,-630.143 231.982,-628.128"/>
<polygon fill="none" stroke="#404040" points="232.298,-627.788 233.442,-620.668 240.454,-618.985 239.31,-626.105 232.298,-627.788"/>
<text text-anchor="middle" x="207" y="-666.5" font-family="Helvetica,sans-Serif" font-size="10.00"> +itg</text>
</g>
<!-- Node10 -->
<g id="node10" class="node"><title>Node10</title>
<g id="a_node10"><a xlink:href="../../d9/db3/structo2_1_1header_1_1Descriptor.html" target="_top" xlink:title="{o2::header::Descriptor\l\&lt; gSizeDataDescriptionString,\l printDataDescription \&gt;\n||+ Descriptor()\l+ Descriptor()\l+ Descriptor()\l+ Descriptor()\l+ operator=()\l+ operator ItgType()\l+ runtimeInit()\l+ operator==()\l+ operator==()\l+ operator!=()\l+ operator!=()\l+ as()\l+ print()\l}">
<polygon fill="none" stroke="black" points="308.5,-162.5 308.5,-373.5 457.5,-373.5 457.5,-162.5 308.5,-162.5"/>
<text text-anchor="start" x="316.5" y="-361.5" font-family="Helvetica,sans-Serif" font-size="10.00">o2::header::Descriptor</text>
<text text-anchor="start" x="316.5" y="-350.5" font-family="Helvetica,sans-Serif" font-size="10.00">&lt; gSizeDataDescriptionString,</text>
<text text-anchor="middle" x="383" y="-339.5" font-family="Helvetica,sans-Serif" font-size="10.00"> printDataDescription &gt;</text>
<polyline fill="none" stroke="black" points="308.5,-332.5 457.5,-332.5 "/>
<text text-anchor="middle" x="383" y="-320.5" font-family="Helvetica,sans-Serif" font-size="10.00"> </text>
<polyline fill="none" stroke="black" points="308.5,-313.5 457.5,-313.5 "/>
<text text-anchor="start" x="316.5" y="-301.5" font-family="Helvetica,sans-Serif" font-size="10.00">+ Descriptor()</text>
<text text-anchor="start" x="316.5" y="-290.5" font-family="Helvetica,sans-Serif" font-size="10.00">+ Descriptor()</text>
<text text-anchor="start" x="316.5" y="-279.5" font-family="Helvetica,sans-Serif" font-size="10.00">+ Descriptor()</text>
<text text-anchor="start" x="316.5" y="-268.5" font-family="Helvetica,sans-Serif" font-size="10.00">+ Descriptor()</text>
<text text-anchor="start" x="316.5" y="-257.5" font-family="Helvetica,sans-Serif" font-size="10.00">+ operator=()</text>
<text text-anchor="start" x="316.5" y="-246.5" font-family="Helvetica,sans-Serif" font-size="10.00">+ operator ItgType()</text>
<text text-anchor="start" x="316.5" y="-235.5" font-family="Helvetica,sans-Serif" font-size="10.00">+ runtimeInit()</text>
<text text-anchor="start" x="316.5" y="-224.5" font-family="Helvetica,sans-Serif" font-size="10.00">+ operator==()</text>
<text text-anchor="start" x="316.5" y="-213.5" font-family="Helvetica,sans-Serif" font-size="10.00">+ operator==()</text>
<text text-anchor="start" x="316.5" y="-202.5" font-family="Helvetica,sans-Serif" font-size="10.00">+ operator!=()</text>
<text text-anchor="start" x="316.5" y="-191.5" font-family="Helvetica,sans-Serif" font-size="10.00">+ operator!=()</text>
<text text-anchor="start" x="316.5" y="-180.5" font-family="Helvetica,sans-Serif" font-size="10.00">+ as()</text>
<text text-anchor="start" x="316.5" y="-169.5" font-family="Helvetica,sans-Serif" font-size="10.00">+ print()</text>
</a>
</g>
</g>
<!-- Node4&#45;&gt;Node10 -->
<g id="edge14" class="edge"><title>Node4&#45;&gt;Node10</title>
<path fill="none" stroke="#404040" d="M112.528,-705.245C124.48,-632.654 156.602,-442.064 166,-432 187.337,-409.151 206.02,-427.946 234,-414 248.164,-406.94 248.586,-400.398 262,-392 277.5,-382.296 284.716,-385.419 299,-374 299.1,-373.92 299.199,-373.84 299.299,-373.76"/>
<polygon fill="none" stroke="#404040" points="299.311,-373.75 301.273,-366.811 308.433,-365.953 306.471,-372.892 299.311,-373.75"/>
<text text-anchor="middle" x="176" y="-530.5" font-family="Helvetica,sans-Serif" font-size="10.00"> +itg</text>
</g>
<!-- Node5 -->
<g id="node5" class="node"><title>Node5</title>
<polygon fill="none" stroke="#bfbfbf" points="183.5,-705.5 183.5,-762.5 218.5,-762.5 218.5,-705.5 183.5,-705.5"/>
<text text-anchor="middle" x="201" y="-750.5" font-family="Helvetica,sans-Serif" font-size="10.00">char</text>
<polyline fill="none" stroke="#bfbfbf" points="183.5,-743.5 218.5,-743.5 "/>
<text text-anchor="middle" x="201" y="-731.5" font-family="Helvetica,sans-Serif" font-size="10.00"> </text>
<polyline fill="none" stroke="#bfbfbf" points="183.5,-724.5 218.5,-724.5 "/>
<text text-anchor="middle" x="201" y="-712.5" font-family="Helvetica,sans-Serif" font-size="10.00"> </text>
</g>
<!-- Node5&#45;&gt;Node3 -->
<g id="edge4" class="edge"><title>Node5&#45;&gt;Node3</title>
<path fill="none" stroke="#404040" d="M193.966,-705.378C188.14,-687.783 178.142,-665.784 162,-652 140.828,-633.921 118.619,-656.336 102,-634 73.5999,-595.829 88.3272,-477.504 105.457,-385.811"/>
<polygon fill="none" stroke="#404040" points="105.477,-385.704 102.669,-379.062 107.72,-373.916 110.528,-380.557 105.477,-385.704"/>
<text text-anchor="middle" x="112.5" y="-530.5" font-family="Helvetica,sans-Serif" font-size="10.00"> +str</text>
</g>
<!-- Node5&#45;&gt;Node8 -->
<g id="edge9" class="edge"><title>Node5&#45;&gt;Node8</title>
<path fill="none" stroke="#404040" d="M211.907,-705.371C218.307,-689.591 226.74,-669.519 235,-652 236.228,-649.395 237.484,-646.764 238.761,-644.117"/>
<polygon fill="none" stroke="#404040" points="238.847,-643.94 237.889,-636.793 244.118,-633.159 245.076,-640.306 238.847,-643.94"/>
<text text-anchor="middle" x="245.5" y="-666.5" font-family="Helvetica,sans-Serif" font-size="10.00"> +str</text>
</g>
<!-- Node5&#45;&gt;Node10 -->
<g id="edge15" class="edge"><title>Node5&#45;&gt;Node10</title>
<path fill="none" stroke="#404040" d="M197.957,-705.136C191.33,-638.974 178.578,-474.761 210,-432 224.482,-412.292 241.527,-427.378 262,-414 275.583,-405.124 288.436,-394.261 300.334,-382.512"/>
<polygon fill="none" stroke="#404040" points="300.443,-382.401 301.772,-375.313 308.826,-373.815 307.496,-380.902 300.443,-382.401"/>
<text text-anchor="middle" x="220.5" y="-530.5" font-family="Helvetica,sans-Serif" font-size="10.00"> +str</text>
</g>
<!-- Node6 -->
<g id="node6" class="node"><title>Node6</title>
<polygon fill="none" stroke="#bfbfbf" points="383.5,-705.5 383.5,-762.5 412.5,-762.5 412.5,-705.5 383.5,-705.5"/>
<text text-anchor="middle" x="398" y="-750.5" font-family="Helvetica,sans-Serif" font-size="10.00">int</text>
<polyline fill="none" stroke="#bfbfbf" points="383.5,-743.5 412.5,-743.5 "/>
<text text-anchor="middle" x="398" y="-731.5" font-family="Helvetica,sans-Serif" font-size="10.00"> </text>
<polyline fill="none" stroke="#bfbfbf" points="383.5,-724.5 412.5,-724.5 "/>
<text text-anchor="middle" x="398" y="-712.5" font-family="Helvetica,sans-Serif" font-size="10.00"> </text>
</g>
<!-- Node6&#45;&gt;Node3 -->
<g id="edge5" class="edge"><title>Node6&#45;&gt;Node3</title>
<path fill="none" stroke="#404040" d="M398.016,-705.217C397.537,-639.236 393.156,-475.392 362,-432 337.883,-398.411 316.983,-405.789 278,-392 248.838,-381.685 234.232,-391.15 204.104,-373.595"/>
<polygon fill="none" stroke="#404040" points="203.813,-373.406 196.603,-373.504 193.739,-366.886 200.949,-366.788 203.813,-373.406"/>
<text text-anchor="middle" x="422.5" y="-541.5" font-family="Helvetica,sans-Serif" font-size="10.00"> +arraySize</text>
<text text-anchor="middle" x="422.5" y="-530.5" font-family="Helvetica,sans-Serif" font-size="10.00">+size</text>
<text text-anchor="middle" x="422.5" y="-519.5" font-family="Helvetica,sans-Serif" font-size="10.00">+bitcount</text>
</g>
<!-- Node6&#45;&gt;Node8 -->
<g id="edge10" class="edge"><title>Node6&#45;&gt;Node8</title>
<path fill="none" stroke="#404040" d="M383.496,-732.233C357.359,-729.977 302.862,-721.08 279,-686 270.768,-673.898 266.912,-659.968 265.929,-645.556"/>
<polygon fill="none" stroke="#404040" points="265.926,-645.365 261.837,-639.426 265.746,-633.366 269.836,-639.306 265.926,-645.365"/>
<text text-anchor="middle" x="304.5" y="-677.5" font-family="Helvetica,sans-Serif" font-size="10.00"> +arraySize</text>
<text text-anchor="middle" x="304.5" y="-666.5" font-family="Helvetica,sans-Serif" font-size="10.00">+size</text>
<text text-anchor="middle" x="304.5" y="-655.5" font-family="Helvetica,sans-Serif" font-size="10.00">+bitcount</text>
</g>
<!-- Node6&#45;&gt;Node10 -->
<g id="edge16" class="edge"><title>Node6&#45;&gt;Node10</title>
<path fill="none" stroke="#404040" d="M412.704,-725.688C438.549,-711.899 491.335,-679.315 512,-634 549.25,-552.315 539.7,-517.398 512,-432 505.225,-411.113 496.756,-409.116 483,-392 476.295,-383.657 473.901,-382.182 467,-374 466.518,-373.428 466.035,-372.855 465.55,-372.279"/>
<polygon fill="none" stroke="#404040" points="465.328,-372.012 458.412,-369.97 457.637,-362.801 464.553,-364.843 465.328,-372.012"/>
<text text-anchor="middle" x="562.5" y="-541.5" font-family="Helvetica,sans-Serif" font-size="10.00"> +arraySize</text>
<text text-anchor="middle" x="562.5" y="-530.5" font-family="Helvetica,sans-Serif" font-size="10.00">+size</text>
<text text-anchor="middle" x="562.5" y="-519.5" font-family="Helvetica,sans-Serif" font-size="10.00">+bitcount</text>
</g>
<!-- Node7 -->
<g id="node7" class="node"><title>Node7</title>
<polygon fill="none" stroke="#bfbfbf" points="462.5,-705 462.5,-763 491.5,-763 491.5,-705 462.5,-705"/>
<polyline fill="none" stroke="#bfbfbf" points="462.5,-743 491.5,-743 "/>
<text text-anchor="middle" x="477" y="-731" font-family="Helvetica,sans-Serif" font-size="10.00"> </text>
<polyline fill="none" stroke="#bfbfbf" points="462.5,-724 491.5,-724 "/>
<text text-anchor="middle" x="477" y="-712" font-family="Helvetica,sans-Serif" font-size="10.00"> </text>
</g>
<!-- Node7&#45;&gt;Node3 -->
<g id="edge6" class="edge"><title>Node7&#45;&gt;Node3</title>
<path fill="none" stroke="#404040" d="M476.523,-704.86C475.065,-633.996 469.63,-452.369 452,-432 428.717,-405.099 407.678,-425.471 374,-414 351.786,-406.434 348.504,-398.655 326,-392 276.434,-377.342 252.989,-399.94 204.211,-373.635"/>
<polygon fill="none" stroke="#404040" points="204.092,-373.565 196.892,-373.966 193.752,-367.474 200.952,-367.073 204.092,-373.565"/>
<text text-anchor="middle" x="490.5" y="-530.5" font-family="Helvetica,sans-Serif" font-size="10.00"> +@14</text>
</g>
<!-- Node7&#45;&gt;Node8 -->
<g id="edge11" class="edge"><title>Node7&#45;&gt;Node8</title>
<path fill="none" stroke="#404040" d="M462.32,-721.402C440.476,-703.775 398.698,-668.621 368,-634 365.716,-631.424 363.436,-628.774 361.171,-626.07"/>
<polygon fill="none" stroke="#404040" points="361.114,-626 354.223,-623.875 353.534,-616.697 360.425,-618.822 361.114,-626"/>
<text text-anchor="middle" x="435.5" y="-666.5" font-family="Helvetica,sans-Serif" font-size="10.00"> +@14</text>
</g>
<!-- Node7&#45;&gt;Node10 -->
<g id="edge17" class="edge"><title>Node7&#45;&gt;Node10</title>
<path fill="none" stroke="#404040" d="M491.829,-725.724C517.894,-711.993 571.133,-679.497 592,-634 629.427,-552.396 640.105,-507.802 592,-432 575.592,-406.145 491.202,-392.762 467,-374 466.902,-373.924 466.804,-373.848 466.706,-373.772"/>
<polygon fill="none" stroke="#404040" points="466.964,-373.986 459.793,-373.226 457.737,-366.315 464.908,-367.075 466.964,-373.986"/>
<text text-anchor="middle" x="640.5" y="-530.5" font-family="Helvetica,sans-Serif" font-size="10.00"> +@14</text>
</g>
<!-- Node8&#45;&gt;Node3 -->
<g id="edge7" class="edge"><title>Node8&#45;&gt;Node3</title>
<path fill="none" stroke="orange" d="M232.905,-437.355C230.654,-435.478 228.352,-433.687 226,-432 203.38,-415.769 185.142,-434.217 166,-414 155.228,-402.623 147.593,-388.525 142.213,-373.628"/>
<polygon fill="orange" stroke="orange" points="230.582,-439.973 240.36,-444.05 235.259,-434.765 230.582,-439.973"/>
<text text-anchor="start" x="166" y="-406" font-family="Helvetica,sans-Serif" font-size="10.00"> &lt; gSizeDataOriginString,</text>
<text text-anchor="middle" x="222" y="-395" font-family="Helvetica,sans-Serif" font-size="10.00"> printDataOrigin &gt;</text>
</g>
<!-- Node8&#45;&gt;Node10 -->
<g id="edge18" class="edge"><title>Node8&#45;&gt;Node10</title>
<path fill="none" stroke="orange" d="M332.531,-423.341C337.901,-406.919 343.432,-390.006 348.773,-373.67"/>
<polygon fill="orange" stroke="orange" points="329.172,-422.353 329.39,-432.946 335.825,-424.529 329.172,-422.353"/>
<text text-anchor="start" x="343" y="-406" font-family="Helvetica,sans-Serif" font-size="10.00"> &lt; gSizeDataDescriptionString,</text>
<text text-anchor="middle" x="411" y="-395" font-family="Helvetica,sans-Serif" font-size="10.00"> printDataDescription &gt;</text>
</g>
<!-- Node9 -->
<g id="node9" class="node"><title>Node9</title>
<polygon fill="none" stroke="#bfbfbf" points="212,-239.5 212,-296.5 290,-296.5 290,-239.5 212,-239.5"/>
<text text-anchor="middle" x="251" y="-284.5" font-family="Helvetica,sans-Serif" font-size="10.00">enum Lifetime</text>
<polyline fill="none" stroke="#bfbfbf" points="212,-277.5 290,-277.5 "/>
<text text-anchor="middle" x="251" y="-265.5" font-family="Helvetica,sans-Serif" font-size="10.00"> </text>
<polyline fill="none" stroke="#bfbfbf" points="212,-258.5 290,-258.5 "/>
<text text-anchor="middle" x="251" y="-246.5" font-family="Helvetica,sans-Serif" font-size="10.00"> </text>
</g>
<!-- Node9&#45;&gt;Node1 -->
<g id="edge12" class="edge"><title>Node9&#45;&gt;Node1</title>
<path fill="none" stroke="#404040" d="M251,-239.246C251,-210.39 251,-164.133 251,-125.574"/>
<polygon fill="none" stroke="#404040" points="251,-125.357 247,-119.357 251,-113.357 255,-119.357 251,-125.357"/>
<text text-anchor="middle" x="271.5" y="-135.5" font-family="Helvetica,sans-Serif" font-size="10.00"> +lifetime</text>
</g>
<!-- Node10&#45;&gt;Node1 -->
<g id="edge13" class="edge"><title>Node10&#45;&gt;Node1</title>
<path fill="none" stroke="#404040" d="M316.807,-162.194C308.414,-148.905 300.025,-135.624 292.184,-123.208"/>
<polygon fill="none" stroke="#404040" points="292.146,-123.147 285.56,-120.21 285.738,-113.001 292.324,-115.938 292.146,-123.147"/>
<text text-anchor="middle" x="334.5" y="-135.5" font-family="Helvetica,sans-Serif" font-size="10.00"> +description</text>
</g>
<!-- Node11 -->
<g id="node11" class="node"><title>Node11</title>
<g id="a_node11"><a xlink:href="../../d0/d66/structo2_1_1header_1_1Stack.html" target="_top" xlink:title="a move&#45;only header stack with serialized headers This is the flat buffer where all the headers in a m...">
<polygon fill="none" stroke="black" points="476,-179 476,-357 570,-357 570,-179 476,-179"/>
<text text-anchor="middle" x="523" y="-345" font-family="Helvetica,sans-Serif" font-size="10.00">o2::header::Stack</text>
<polyline fill="none" stroke="black" points="476,-338 570,-338 "/>
<text text-anchor="middle" x="523" y="-326" font-family="Helvetica,sans-Serif" font-size="10.00"> </text>
<polyline fill="none" stroke="black" points="476,-319 570,-319 "/>
<text text-anchor="start" x="484" y="-307" font-family="Helvetica,sans-Serif" font-size="10.00">+ Stack()</text>
<text text-anchor="start" x="484" y="-296" font-family="Helvetica,sans-Serif" font-size="10.00">+ Stack()</text>
<text text-anchor="start" x="484" y="-285" font-family="Helvetica,sans-Serif" font-size="10.00">+ Stack()</text>
<text text-anchor="start" x="484" y="-274" font-family="Helvetica,sans-Serif" font-size="10.00">+ operator=()</text>
<text text-anchor="start" x="484" y="-263" font-family="Helvetica,sans-Serif" font-size="10.00">+ operator=()</text>
<text text-anchor="start" x="484" y="-252" font-family="Helvetica,sans-Serif" font-size="10.00">+ data()</text>
<text text-anchor="start" x="484" y="-241" font-family="Helvetica,sans-Serif" font-size="10.00">+ size()</text>
<text text-anchor="start" x="484" y="-230" font-family="Helvetica,sans-Serif" font-size="10.00">+ get_allocator()</text>
<text text-anchor="start" x="484" y="-219" font-family="Helvetica,sans-Serif" font-size="10.00">+ getFreefnHint()</text>
<text text-anchor="start" x="484" y="-208" font-family="Helvetica,sans-Serif" font-size="10.00">+ Stack()</text>
<text text-anchor="start" x="484" y="-197" font-family="Helvetica,sans-Serif" font-size="10.00">+ Stack()</text>
<text text-anchor="start" x="484" y="-186" font-family="Helvetica,sans-Serif" font-size="10.00">+ getFreefn()</text>
</a>
</g>
</g>
<!-- Node11&#45;&gt;Node1 -->
<g id="edge19" class="edge"><title>Node11&#45;&gt;Node1</title>
<path fill="none" stroke="#404040" d="M480.841,-178.811C476.273,-172.776 471.327,-167.083 466,-162 424.657,-122.548 365.515,-95.4326 319.721,-78.8048"/>
<polygon fill="none" stroke="#404040" points="319.701,-78.7976 312.711,-80.5717 308.385,-74.8022 315.375,-73.0281 319.701,-78.7976"/>
<text text-anchor="middle" x="473.5" y="-135.5" font-family="Helvetica,sans-Serif" font-size="10.00"> +metaHeader</text>
</g>
</g>
</svg>
