<?xml version="1.0" encoding="UTF-8" standalone="no"?>
<!DOCTYPE svg PUBLIC "-//W3C//DTD SVG 1.1//EN"
 "http://www.w3.org/Graphics/SVG/1.1/DTD/svg11.dtd">
<!-- Generated by graphviz version 2.36.0 (20140111.2315)
 -->
<!-- Title: /home/travis/build/AliceO2Group/AliceO2/Generators Pages: 1 -->
<svg width="234pt" height="148pt"
 viewBox="0.00 0.00 234.00 148.00" xmlns="http://www.w3.org/2000/svg" xmlns:xlink="http://www.w3.org/1999/xlink">
<g id="graph0" class="graph" transform="scale(1 1) rotate(0) translate(4 144)">
<title>/home/travis/build/AliceO2Group/AliceO2/Generators</title>
<g id="clust1" class="cluster"><title>clusterdir_0b342c6c6b7d2278121a0bb9c4985063</title>
<g id="a_clust1"><a xlink:href="dir_0b342c6c6b7d2278121a0bb9c4985063.html" target="_top">
<polygon fill="#eeeeff" stroke="black" points="8,-8 8,-132 162,-132 162,-8 8,-8"/>
</a>
</g>
</g>
<!-- dir_0b342c6c6b7d2278121a0bb9c4985063 -->
<g id="node1" class="node"><title>dir_0b342c6c6b7d2278121a0bb9c4985063</title>
<text text-anchor="middle" x="121" y="-103.5" font-family="Helvetica,sans-Serif" font-size="10.00">Generators</text>
</g>
<!-- dir_dc16c1a7f621fbfbc9e5d9a781b7ebe8 -->
<g id="node2" class="node"><title>dir_dc16c1a7f621fbfbc9e5d9a781b7ebe8</title>
<g id="a_node2"><a xlink:href="dir_dc16c1a7f621fbfbc9e5d9a781b7ebe8.html" target="_top" xlink:title="include">
<polygon fill="white" stroke="red" points="70,-52 16,-52 16,-16 70,-16 70,-52"/>
<text text-anchor="middle" x="43" y="-31.5" font-family="Helvetica,sans-Serif" font-size="10.00">include</text>
</a>
</g>
</g>
<!-- dir_a843049037bef15f6bb8ca700bc7dfa2 -->
<g id="node3" class="node"><title>dir_a843049037bef15f6bb8ca700bc7dfa2</title>
<g id="a_node3"><a xlink:href="dir_a843049037bef15f6bb8ca700bc7dfa2.html" target="_top" xlink:title="src">
<polygon fill="white" stroke="black" points="70,-124 16,-124 16,-88 70,-88 70,-124"/>
<text text-anchor="middle" x="43" y="-103.5" font-family="Helvetica,sans-Serif" font-size="10.00">src</text>
</a>
</g>
</g>
<!-- dir_a843049037bef15f6bb8ca700bc7dfa2&#45;&gt;dir_dc16c1a7f621fbfbc9e5d9a781b7ebe8 -->
<g id="edge2" class="edge"><title>dir_a843049037bef15f6bb8ca700bc7dfa2&#45;&gt;dir_dc16c1a7f621fbfbc9e5d9a781b7ebe8</title>
<path fill="none" stroke="black" d="M43,-87.6966C43,-79.9827 43,-70.7125 43,-62.1124"/>
<polygon fill="black" stroke="black" points="46.5001,-62.1043 43,-52.1043 39.5001,-62.1044 46.5001,-62.1043"/>
<g id="a_edge2&#45;headlabel"><a xlink:href="dir_000417_000415.html" target="_top" xlink:title="7">
<text text-anchor="middle" x="49.3393" y="-63.199" font-family="Helvetica,sans-Serif" font-size="10.00">7</text>
</a>
</g>
</g>
<!-- dir_4ab6b4cc6a7edbff49100e9123df213f -->
<g id="node4" class="node"><title>dir_4ab6b4cc6a7edbff49100e9123df213f</title>
<g id="a_node4"><a xlink:href="dir_4ab6b4cc6a7edbff49100e9123df213f.html" target="_top" xlink:title="Common">
<polygon fill="none" stroke="red" points="225.5,-52 170.5,-52 170.5,-16 225.5,-16 225.5,-52"/>
<text text-anchor="middle" x="198" y="-31.5" font-family="Helvetica,sans-Serif" font-size="10.00">Common</text>
</a>
</g>
</g>
<!-- dir_a843049037bef15f6bb8ca700bc7dfa2&#45;&gt;dir_4ab6b4cc6a7edbff49100e9123df213f -->
<g id="edge1" class="edge"><title>dir_a843049037bef15f6bb8ca700bc7dfa2&#45;&gt;dir_4ab6b4cc6a7edbff49100e9123df213f</title>
<path fill="none" stroke="black" d="M70.0297,-92.4515C73.3797,-90.9346 76.7634,-89.4205 80,-88 114.978,-72.6488 126.728,-70.0819 160.943,-54.3001"/>
<polygon fill="black" stroke="black" points="162.581,-57.3977 170.153,-49.9873 159.612,-51.0583 162.581,-57.3977"/>
<g id="a_edge1&#45;headlabel"><a xlink:href="dir_000417_000016.html" target="_top" xlink:title="1">
<text text-anchor="middle" x="160.53" y="-58.9934" font-family="Helvetica,sans-Serif" font-size="10.00">1</text>
</a>
</g>
</g>
</g>
</svg>
