<?xml version="1.0" encoding="UTF-8" standalone="no"?>
<!DOCTYPE svg PUBLIC "-//W3C//DTD SVG 1.1//EN"
 "http://www.w3.org/Graphics/SVG/1.1/DTD/svg11.dtd">
<!-- Generated by graphviz version 2.36.0 (20140111.2315)
 -->
<!-- Title: /home/travis/build/AliceO2Group/AliceO2/Detectors/MUON Pages: 1 -->
<svg width="282pt" height="375pt"
 viewBox="0.00 0.00 282.07 375.00" xmlns="http://www.w3.org/2000/svg" xmlns:xlink="http://www.w3.org/1999/xlink">
<g id="graph0" class="graph" transform="scale(1 1) rotate(0) translate(4 371)">
<title>/home/travis/build/AliceO2Group/AliceO2/Detectors/MUON</title>
<g id="clust1" class="cluster"><title>clusterdir_051dca18e802f8e9474f2e30d29c04e0</title>
<g id="a_clust1"><a xlink:href="dir_051dca18e802f8e9474f2e30d29c04e0.html" target="_top" xlink:title="Detectors">
<polygon fill="#ddddee" stroke="black" points="36.0705,-272 36.0705,-359 266.07,-359 266.07,-272 36.0705,-272"/>
<text text-anchor="middle" x="151.07" y="-347" font-family="Helvetica,sans-Serif" font-size="10.00">Detectors</text>
</a>
</g>
</g>
<g id="clust2" class="cluster"><title>clusterdir_1cc233fd3b1202b9dad36810b41b97af</title>
<g id="a_clust2"><a xlink:href="dir_1cc233fd3b1202b9dad36810b41b97af.html" target="_top">
<polygon fill="#eeeeff" stroke="black" points="44.0705,-280 44.0705,-332 258.07,-332 258.07,-280 44.0705,-280"/>
</a>
</g>
</g>
<!-- dir_1cc233fd3b1202b9dad36810b41b97af -->
<g id="node1" class="node"><title>dir_1cc233fd3b1202b9dad36810b41b97af</title>
<text text-anchor="middle" x="223.07" y="-303.5" font-family="Helvetica,sans-Serif" font-size="10.00">MUON</text>
</g>
<!-- dir_061f7088060f41729027f6c2fce0273e -->
<g id="node2" class="node"><title>dir_061f7088060f41729027f6c2fce0273e</title>
<g id="a_node2"><a xlink:href="dir_061f7088060f41729027f6c2fce0273e.html" target="_top" xlink:title="MCH">
<polygon fill="white" stroke="red" points="106.07,-324 52.0705,-324 52.0705,-288 106.07,-288 106.07,-324"/>
<text text-anchor="middle" x="79.0705" y="-303.5" font-family="Helvetica,sans-Serif" font-size="10.00">MCH</text>
</a>
</g>
</g>
<!-- dir_4ab6b4cc6a7edbff49100e9123df213f -->
<g id="node4" class="node"><title>dir_4ab6b4cc6a7edbff49100e9123df213f</title>
<g id="a_node4"><a xlink:href="dir_4ab6b4cc6a7edbff49100e9123df213f.html" target="_top" xlink:title="Common">
<polygon fill="none" stroke="red" points="151.57,-180 96.5705,-180 96.5705,-144 151.57,-144 151.57,-180"/>
<text text-anchor="middle" x="124.07" y="-159.5" font-family="Helvetica,sans-Serif" font-size="10.00">Common</text>
</a>
</g>
</g>
<!-- dir_061f7088060f41729027f6c2fce0273e&#45;&gt;dir_4ab6b4cc6a7edbff49100e9123df213f -->
<g id="edge8" class="edge"><title>dir_061f7088060f41729027f6c2fce0273e&#45;&gt;dir_4ab6b4cc6a7edbff49100e9123df213f</title>
<path fill="none" stroke="black" d="M88.8525,-287.798C94.2798,-277.647 100.78,-264.397 105.07,-252 112.079,-231.751 116.994,-207.978 120.067,-190.098"/>
<polygon fill="black" stroke="black" points="123.547,-190.501 121.705,-180.067 116.639,-189.373 123.547,-190.501"/>
<g id="a_edge8&#45;headlabel"><a xlink:href="dir_000142_000016.html" target="_top" xlink:title="1">
<text text-anchor="middle" x="125.77" y="-192.006" font-family="Helvetica,sans-Serif" font-size="10.00">1</text>
</a>
</g>
</g>
<!-- dir_b05a5fa85f84bfc9013183c9d87f9a36 -->
<g id="node5" class="node"><title>dir_b05a5fa85f84bfc9013183c9d87f9a36</title>
<g id="a_node5"><a xlink:href="dir_b05a5fa85f84bfc9013183c9d87f9a36.html" target="_top" xlink:title="Utilities">
<polygon fill="none" stroke="red" points="96.0705,-252 42.0705,-252 42.0705,-216 96.0705,-216 96.0705,-252"/>
<text text-anchor="middle" x="69.0705" y="-231.5" font-family="Helvetica,sans-Serif" font-size="10.00">Utilities</text>
</a>
</g>
</g>
<!-- dir_061f7088060f41729027f6c2fce0273e&#45;&gt;dir_b05a5fa85f84bfc9013183c9d87f9a36 -->
<g id="edge9" class="edge"><title>dir_061f7088060f41729027f6c2fce0273e&#45;&gt;dir_b05a5fa85f84bfc9013183c9d87f9a36</title>
<path fill="none" stroke="black" d="M76.5986,-287.697C75.4966,-279.983 74.1723,-270.712 72.9437,-262.112"/>
<polygon fill="black" stroke="black" points="76.3931,-261.509 71.514,-252.104 69.4634,-262.499 76.3931,-261.509"/>
<g id="a_edge9&#45;headlabel"><a xlink:href="dir_000142_000387.html" target="_top" xlink:title="4">
<text text-anchor="middle" x="79.7121" y="-262.166" font-family="Helvetica,sans-Serif" font-size="10.00">4</text>
</a>
</g>
</g>
<!-- dir_37c90836491b695b472bf98d1be8336b -->
<g id="node6" class="node"><title>dir_37c90836491b695b472bf98d1be8336b</title>
<g id="a_node6"><a xlink:href="dir_37c90836491b695b472bf98d1be8336b.html" target="_top" xlink:title="Base">
<polygon fill="none" stroke="red" points="95.0705,-36 41.0705,-36 41.0705,-0 95.0705,-0 95.0705,-36"/>
<text text-anchor="middle" x="68.0705" y="-15.5" font-family="Helvetica,sans-Serif" font-size="10.00">Base</text>
</a>
</g>
</g>
<!-- dir_061f7088060f41729027f6c2fce0273e&#45;&gt;dir_37c90836491b695b472bf98d1be8336b -->
<g id="edge10" class="edge"><title>dir_061f7088060f41729027f6c2fce0273e&#45;&gt;dir_37c90836491b695b472bf98d1be8336b</title>
<path fill="none" stroke="black" d="M52.9906,-287.797C41.5459,-278.669 29.3124,-266.364 23.0705,-252 -8.81355,-178.627 -5.91743,-146.946 22.0705,-72 25.9466,-61.6206 32.8734,-51.9274 40.1945,-43.7427"/>
<polygon fill="black" stroke="black" points="42.8545,-46.0256 47.2477,-36.3845 37.8011,-41.1816 42.8545,-46.0256"/>
<g id="a_edge10&#45;headlabel"><a xlink:href="dir_000142_000158.html" target="_top" xlink:title="5">
<text text-anchor="middle" x="42.4168" y="-48.0853" font-family="Helvetica,sans-Serif" font-size="10.00">5</text>
</a>
</g>
</g>
<!-- dir_2171f7ec022c5423887b07c69b2f5b48 -->
<g id="node7" class="node"><title>dir_2171f7ec022c5423887b07c69b2f5b48</title>
<g id="a_node7"><a xlink:href="dir_2171f7ec022c5423887b07c69b2f5b48.html" target="_top" xlink:title="DataFormats">
<polygon fill="none" stroke="red" points="105.07,-108 31.0705,-108 31.0705,-72 105.07,-72 105.07,-108"/>
<text text-anchor="middle" x="68.0705" y="-87.5" font-family="Helvetica,sans-Serif" font-size="10.00">DataFormats</text>
</a>
</g>
</g>
<!-- dir_061f7088060f41729027f6c2fce0273e&#45;&gt;dir_2171f7ec022c5423887b07c69b2f5b48 -->
<g id="edge11" class="edge"><title>dir_061f7088060f41729027f6c2fce0273e&#45;&gt;dir_2171f7ec022c5423887b07c69b2f5b48</title>
<path fill="none" stroke="black" d="M58.2477,-287.615C48.6125,-278.198 38.1854,-265.697 33.0705,-252 16.021,-206.345 37.1678,-150.148 53.2211,-117.663"/>
<polygon fill="black" stroke="black" points="56.5336,-118.875 57.9918,-108.381 50.3077,-115.675 56.5336,-118.875"/>
<g id="a_edge11&#45;headlabel"><a xlink:href="dir_000142_000056.html" target="_top" xlink:title="3">
<text text-anchor="middle" x="57.4158" y="-120.87" font-family="Helvetica,sans-Serif" font-size="10.00">3</text>
</a>
</g>
</g>
<!-- dir_9e24c537087392bd208449d0b48c466c -->
<g id="node3" class="node"><title>dir_9e24c537087392bd208449d0b48c466c</title>
<g id="a_node3"><a xlink:href="dir_9e24c537087392bd208449d0b48c466c.html" target="_top" xlink:title="MID">
<polygon fill="white" stroke="red" points="178.07,-324 124.07,-324 124.07,-288 178.07,-288 178.07,-324"/>
<text text-anchor="middle" x="151.07" y="-303.5" font-family="Helvetica,sans-Serif" font-size="10.00">MID</text>
</a>
</g>
</g>
<!-- dir_9e24c537087392bd208449d0b48c466c&#45;&gt;dir_4ab6b4cc6a7edbff49100e9123df213f -->
<g id="edge1" class="edge"><title>dir_9e24c537087392bd208449d0b48c466c&#45;&gt;dir_4ab6b4cc6a7edbff49100e9123df213f</title>
<path fill="none" stroke="black" d="M149.149,-287.838C146.997,-269.841 143.137,-240.784 138.07,-216 136.328,-207.477 134.045,-198.284 131.83,-189.985"/>
<polygon fill="black" stroke="black" points="135.13,-188.785 129.106,-180.07 128.38,-190.64 135.13,-188.785"/>
<g id="a_edge1&#45;headlabel"><a xlink:href="dir_000123_000016.html" target="_top" xlink:title="3">
<text text-anchor="middle" x="138.82" y="-188.999" font-family="Helvetica,sans-Serif" font-size="10.00">3</text>
</a>
</g>
</g>
<!-- dir_9e24c537087392bd208449d0b48c466c&#45;&gt;dir_2171f7ec022c5423887b07c69b2f5b48 -->
<g id="edge2" class="edge"><title>dir_9e24c537087392bd208449d0b48c466c&#45;&gt;dir_2171f7ec022c5423887b07c69b2f5b48</title>
<path fill="none" stroke="black" d="M157.864,-287.597C168.837,-256.431 186.688,-190.052 160.07,-144 150.108,-126.764 132.178,-114.638 114.775,-106.378"/>
<polygon fill="black" stroke="black" points="115.779,-102.996 105.215,-102.179 112.964,-109.405 115.779,-102.996"/>
<g id="a_edge2&#45;headlabel"><a xlink:href="dir_000123_000056.html" target="_top" xlink:title="14">
<text text-anchor="middle" x="120.212" y="-99.3422" font-family="Helvetica,sans-Serif" font-size="10.00">14</text>
</a>
</g>
</g>
<!-- dir_4ab6b4cc6a7edbff49100e9123df213f&#45;&gt;dir_2171f7ec022c5423887b07c69b2f5b48 -->
<g id="edge3" class="edge"><title>dir_4ab6b4cc6a7edbff49100e9123df213f&#45;&gt;dir_2171f7ec022c5423887b07c69b2f5b48</title>
<path fill="none" stroke="black" d="M104.312,-143.697C96.8859,-135.474 88.6918,-125.483 81.887,-116.421"/>
<polygon fill="black" stroke="black" points="84.5617,-114.147 75.8589,-108.104 78.8939,-118.255 84.5617,-114.147"/>
<g id="a_edge3&#45;headlabel"><a xlink:href="dir_000016_000056.html" target="_top" xlink:title="3">
<text text-anchor="middle" x="88.9701" y="-112.891" font-family="Helvetica,sans-Serif" font-size="10.00">3</text>
</a>
</g>
</g>
<!-- dir_b05a5fa85f84bfc9013183c9d87f9a36&#45;&gt;dir_4ab6b4cc6a7edbff49100e9123df213f -->
<g id="edge4" class="edge"><title>dir_b05a5fa85f84bfc9013183c9d87f9a36&#45;&gt;dir_4ab6b4cc6a7edbff49100e9123df213f</title>
<path fill="none" stroke="black" d="M82.666,-215.697C89.1932,-207.389 97.1385,-197.277 104.317,-188.141"/>
<polygon fill="black" stroke="black" points="107.205,-190.13 110.631,-180.104 101.701,-185.805 107.205,-190.13"/>
<g id="a_edge4&#45;headlabel"><a xlink:href="dir_000387_000016.html" target="_top" xlink:title="1">
<text text-anchor="middle" x="107.217" y="-192.211" font-family="Helvetica,sans-Serif" font-size="10.00">1</text>
</a>
</g>
</g>
<!-- dir_b05a5fa85f84bfc9013183c9d87f9a36&#45;&gt;dir_2171f7ec022c5423887b07c69b2f5b48 -->
<g id="edge5" class="edge"><title>dir_b05a5fa85f84bfc9013183c9d87f9a36&#45;&gt;dir_2171f7ec022c5423887b07c69b2f5b48</title>
<path fill="none" stroke="black" d="M68.9499,-215.871C68.7794,-191.67 68.4663,-147.211 68.2634,-118.393"/>
<polygon fill="black" stroke="black" points="71.762,-118.164 68.1915,-108.189 64.7622,-118.214 71.762,-118.164"/>
<g id="a_edge5&#45;headlabel"><a xlink:href="dir_000387_000056.html" target="_top" xlink:title="44">
<text text-anchor="middle" x="74.6264" y="-119.239" font-family="Helvetica,sans-Serif" font-size="10.00">44</text>
</a>
</g>
</g>
<!-- dir_37c90836491b695b472bf98d1be8336b&#45;&gt;dir_4ab6b4cc6a7edbff49100e9123df213f -->
<g id="edge6" class="edge"><title>dir_37c90836491b695b472bf98d1be8336b&#45;&gt;dir_4ab6b4cc6a7edbff49100e9123df213f</title>
<path fill="none" stroke="black" d="M87.7789,-36.1731C97.3729,-45.7127 108.1,-58.3877 114.07,-72 122.593,-91.4297 124.871,-115.432 125.14,-133.613"/>
<polygon fill="black" stroke="black" points="121.64,-133.81 125.093,-143.826 128.639,-133.843 121.64,-133.81"/>
<g id="a_edge6&#45;headlabel"><a xlink:href="dir_000158_000016.html" target="_top" xlink:title="5">
<text text-anchor="middle" x="118.817" y="-127.702" font-family="Helvetica,sans-Serif" font-size="10.00">5</text>
</a>
</g>
</g>
<!-- dir_37c90836491b695b472bf98d1be8336b&#45;&gt;dir_2171f7ec022c5423887b07c69b2f5b48 -->
<g id="edge7" class="edge"><title>dir_37c90836491b695b472bf98d1be8336b&#45;&gt;dir_2171f7ec022c5423887b07c69b2f5b48</title>
<path fill="none" stroke="black" d="M73.9655,-36.1043C74.771,-43.7913 75.0074,-53.0537 74.6745,-61.6651"/>
<polygon fill="black" stroke="black" points="71.179,-61.4805 73.9862,-71.6966 78.1626,-61.9597 71.179,-61.4805"/>
<g id="a_edge7&#45;headlabel"><a xlink:href="dir_000158_000056.html" target="_top" xlink:title="5">
<text text-anchor="middle" x="68.5924" y="-55.2" font-family="Helvetica,sans-Serif" font-size="10.00">5</text>
</a>
</g>
</g>
<!-- dir_2171f7ec022c5423887b07c69b2f5b48&#45;&gt;dir_4ab6b4cc6a7edbff49100e9123df213f -->
<g id="edge12" class="edge"><title>dir_2171f7ec022c5423887b07c69b2f5b48&#45;&gt;dir_4ab6b4cc6a7edbff49100e9123df213f</title>
<path fill="none" stroke="black" d="M87.649,-108.104C95.0626,-116.298 103.262,-126.282 110.089,-135.359"/>
<polygon fill="black" stroke="black" points="107.435,-137.662 116.144,-143.697 113.099,-133.549 107.435,-137.662"/>
<g id="a_edge12&#45;headlabel"><a xlink:href="dir_000056_000016.html" target="_top" xlink:title="19">
<text text-anchor="middle" x="103.026" y="-133.922" font-family="Helvetica,sans-Serif" font-size="10.00">19</text>
</a>
</g>
</g>
<!-- dir_2171f7ec022c5423887b07c69b2f5b48&#45;&gt;dir_37c90836491b695b472bf98d1be8336b -->
<g id="edge13" class="edge"><title>dir_2171f7ec022c5423887b07c69b2f5b48&#45;&gt;dir_37c90836491b695b472bf98d1be8336b</title>
<path fill="none" stroke="black" d="M62.1548,-71.6966C61.3591,-63.9827 61.1326,-54.7125 61.4752,-46.1124"/>
<polygon fill="black" stroke="black" points="64.9689,-46.3243 62.1755,-36.1043 57.9859,-45.8356 64.9689,-46.3243"/>
<g id="a_edge13&#45;headlabel"><a xlink:href="dir_000056_000158.html" target="_top" xlink:title="1">
<text text-anchor="middle" x="67.5504" y="-47.6083" font-family="Helvetica,sans-Serif" font-size="10.00">1</text>
</a>
</g>
</g>
</g>
</svg>
