<?xml version="1.0" encoding="UTF-8" standalone="no"?>
<!DOCTYPE svg PUBLIC "-//W3C//DTD SVG 1.1//EN"
 "http://www.w3.org/Graphics/SVG/1.1/DTD/svg11.dtd">
<!-- Generated by graphviz version 2.36.0 (20140111.2315)
 -->
<!-- Title: /home/travis/build/AliceO2Group/AliceO2/Detectors/MUON/MID Pages: 1 -->
<svg width="262pt" height="303pt"
 viewBox="0.00 0.00 262.00 303.00" xmlns="http://www.w3.org/2000/svg" xmlns:xlink="http://www.w3.org/1999/xlink">
<g id="graph0" class="graph" transform="scale(1 1) rotate(0) translate(4 299)">
<title>/home/travis/build/AliceO2Group/AliceO2/Detectors/MUON/MID</title>
<g id="clust1" class="cluster"><title>clusterdir_1cc233fd3b1202b9dad36810b41b97af</title>
<g id="a_clust1"><a xlink:href="dir_1cc233fd3b1202b9dad36810b41b97af.html" target="_top" xlink:title="MUON">
<polygon fill="#ddddee" stroke="black" points="8,-128 8,-287 246,-287 246,-128 8,-128"/>
<text text-anchor="middle" x="127" y="-275" font-family="Helvetica,sans-Serif" font-size="10.00">MUON</text>
</a>
</g>
</g>
<g id="clust2" class="cluster"><title>clusterdir_9e24c537087392bd208449d0b48c466c</title>
<g id="a_clust2"><a xlink:href="dir_9e24c537087392bd208449d0b48c466c.html" target="_top">
<polygon fill="#eeeeff" stroke="black" points="16,-136 16,-260 238,-260 238,-136 16,-136"/>
</a>
</g>
</g>
<!-- dir_9e24c537087392bd208449d0b48c466c -->
<g id="node1" class="node"><title>dir_9e24c537087392bd208449d0b48c466c</title>
<text text-anchor="middle" x="203" y="-231.5" font-family="Helvetica,sans-Serif" font-size="10.00">MID</text>
</g>
<!-- dir_b5547b1068d53f0f904ee5a2a84992af -->
<g id="node2" class="node"><title>dir_b5547b1068d53f0f904ee5a2a84992af</title>
<g id="a_node2"><a xlink:href="dir_b5547b1068d53f0f904ee5a2a84992af.html" target="_top" xlink:title="Base">
<polygon fill="white" stroke="red" points="78,-180 24,-180 24,-144 78,-144 78,-180"/>
<text text-anchor="middle" x="51" y="-159.5" font-family="Helvetica,sans-Serif" font-size="10.00">Base</text>
</a>
</g>
</g>
<!-- dir_4ab6b4cc6a7edbff49100e9123df213f -->
<g id="node6" class="node"><title>dir_4ab6b4cc6a7edbff49100e9123df213f</title>
<g id="a_node6"><a xlink:href="dir_4ab6b4cc6a7edbff49100e9123df213f.html" target="_top" xlink:title="Common">
<polygon fill="none" stroke="red" points="78.5,-108 23.5,-108 23.5,-72 78.5,-72 78.5,-108"/>
<text text-anchor="middle" x="51" y="-87.5" font-family="Helvetica,sans-Serif" font-size="10.00">Common</text>
</a>
</g>
</g>
<!-- dir_b5547b1068d53f0f904ee5a2a84992af&#45;&gt;dir_4ab6b4cc6a7edbff49100e9123df213f -->
<g id="edge8" class="edge"><title>dir_b5547b1068d53f0f904ee5a2a84992af&#45;&gt;dir_4ab6b4cc6a7edbff49100e9123df213f</title>
<path fill="none" stroke="black" d="M51,-143.697C51,-135.983 51,-126.712 51,-118.112"/>
<polygon fill="black" stroke="black" points="54.5001,-118.104 51,-108.104 47.5001,-118.104 54.5001,-118.104"/>
<g id="a_edge8&#45;headlabel"><a xlink:href="dir_000124_000016.html" target="_top" xlink:title="3">
<text text-anchor="middle" x="57.3393" y="-119.199" font-family="Helvetica,sans-Serif" font-size="10.00">3</text>
</a>
</g>
</g>
<!-- dir_2171f7ec022c5423887b07c69b2f5b48 -->
<g id="node7" class="node"><title>dir_2171f7ec022c5423887b07c69b2f5b48</title>
<g id="a_node7"><a xlink:href="dir_2171f7ec022c5423887b07c69b2f5b48.html" target="_top" xlink:title="DataFormats">
<polygon fill="none" stroke="red" points="163,-36 89,-36 89,-0 163,-0 163,-36"/>
<text text-anchor="middle" x="126" y="-15.5" font-family="Helvetica,sans-Serif" font-size="10.00">DataFormats</text>
</a>
</g>
</g>
<!-- dir_b5547b1068d53f0f904ee5a2a84992af&#45;&gt;dir_2171f7ec022c5423887b07c69b2f5b48 -->
<g id="edge9" class="edge"><title>dir_b5547b1068d53f0f904ee5a2a84992af&#45;&gt;dir_2171f7ec022c5423887b07c69b2f5b48</title>
<path fill="none" stroke="black" d="M63.8353,-143.846C71.1137,-133.712 80.1137,-120.462 87,-108 98.2215,-87.693 108.642,-63.5181 115.883,-45.4923"/>
<polygon fill="black" stroke="black" points="119.145,-46.7607 119.564,-36.1741 112.635,-44.1889 119.145,-46.7607"/>
<g id="a_edge9&#45;headlabel"><a xlink:href="dir_000124_000056.html" target="_top" xlink:title="2">
<text text-anchor="middle" x="120.466" y="-48.647" font-family="Helvetica,sans-Serif" font-size="10.00">2</text>
</a>
</g>
</g>
<!-- dir_754f2fe7806627988f6bd801b7f2fe5b -->
<g id="node3" class="node"><title>dir_754f2fe7806627988f6bd801b7f2fe5b</title>
<g id="a_node3"><a xlink:href="dir_754f2fe7806627988f6bd801b7f2fe5b.html" target="_top" xlink:title="Clustering">
<polygon fill="white" stroke="red" points="85.25,-252 24.75,-252 24.75,-216 85.25,-216 85.25,-252"/>
<text text-anchor="middle" x="55" y="-231.5" font-family="Helvetica,sans-Serif" font-size="10.00">Clustering</text>
</a>
</g>
</g>
<!-- dir_754f2fe7806627988f6bd801b7f2fe5b&#45;&gt;dir_b5547b1068d53f0f904ee5a2a84992af -->
<g id="edge2" class="edge"><title>dir_754f2fe7806627988f6bd801b7f2fe5b&#45;&gt;dir_b5547b1068d53f0f904ee5a2a84992af</title>
<path fill="none" stroke="black" d="M54.0112,-215.697C53.5704,-207.983 53.0407,-198.712 52.5493,-190.112"/>
<polygon fill="black" stroke="black" points="56.0423,-189.888 51.9774,-180.104 49.0537,-190.288 56.0423,-189.888"/>
<g id="a_edge2&#45;headlabel"><a xlink:href="dir_000318_000124.html" target="_top" xlink:title="4">
<text text-anchor="middle" x="59.0819" y="-190.815" font-family="Helvetica,sans-Serif" font-size="10.00">4</text>
</a>
</g>
</g>
<!-- dir_754f2fe7806627988f6bd801b7f2fe5b&#45;&gt;dir_2171f7ec022c5423887b07c69b2f5b48 -->
<g id="edge3" class="edge"><title>dir_754f2fe7806627988f6bd801b7f2fe5b&#45;&gt;dir_2171f7ec022c5423887b07c69b2f5b48</title>
<path fill="none" stroke="black" d="M85.5021,-219.828C88.699,-218.51 91.9091,-217.212 95,-216 138.976,-198.755 167.838,-218.646 195,-180 225.758,-136.237 181.673,-76.6033 151.073,-43.5698"/>
<polygon fill="black" stroke="black" points="153.449,-40.9895 144.019,-36.1598 148.379,-45.816 153.449,-40.9895"/>
<g id="a_edge3&#45;headlabel"><a xlink:href="dir_000318_000056.html" target="_top" xlink:title="4">
<text text-anchor="middle" x="157.984" y="-39.1354" font-family="Helvetica,sans-Serif" font-size="10.00">4</text>
</a>
</g>
</g>
<!-- dir_3ffb816f6d71c6665c34f0fe3ab9978a -->
<g id="node4" class="node"><title>dir_3ffb816f6d71c6665c34f0fe3ab9978a</title>
<g id="a_node4"><a xlink:href="dir_3ffb816f6d71c6665c34f0fe3ab9978a.html" target="_top" xlink:title="TestingSimTools">
<polygon fill="white" stroke="red" points="186,-180 96,-180 96,-144 186,-144 186,-180"/>
<text text-anchor="middle" x="141" y="-159.5" font-family="Helvetica,sans-Serif" font-size="10.00">TestingSimTools</text>
</a>
</g>
</g>
<!-- dir_3ffb816f6d71c6665c34f0fe3ab9978a&#45;&gt;dir_2171f7ec022c5423887b07c69b2f5b48 -->
<g id="edge7" class="edge"><title>dir_3ffb816f6d71c6665c34f0fe3ab9978a&#45;&gt;dir_2171f7ec022c5423887b07c69b2f5b48</title>
<path fill="none" stroke="black" d="M139.191,-143.871C136.634,-119.67 131.938,-75.2108 128.894,-46.3932"/>
<polygon fill="black" stroke="black" points="132.347,-45.7662 127.816,-36.1893 125.386,-46.5016 132.347,-45.7662"/>
<g id="a_edge7&#45;headlabel"><a xlink:href="dir_000323_000056.html" target="_top" xlink:title="1">
<text text-anchor="middle" x="135.548" y="-46.5427" font-family="Helvetica,sans-Serif" font-size="10.00">1</text>
</a>
</g>
</g>
<!-- dir_c6781640d5720511e35c6e7f87460ee7 -->
<g id="node5" class="node"><title>dir_c6781640d5720511e35c6e7f87460ee7</title>
<g id="a_node5"><a xlink:href="dir_c6781640d5720511e35c6e7f87460ee7.html" target="_top" xlink:title="Tracking">
<polygon fill="white" stroke="red" points="158,-252 104,-252 104,-216 158,-216 158,-252"/>
<text text-anchor="middle" x="131" y="-231.5" font-family="Helvetica,sans-Serif" font-size="10.00">Tracking</text>
</a>
</g>
</g>
<!-- dir_c6781640d5720511e35c6e7f87460ee7&#45;&gt;dir_b5547b1068d53f0f904ee5a2a84992af -->
<g id="edge5" class="edge"><title>dir_c6781640d5720511e35c6e7f87460ee7&#45;&gt;dir_b5547b1068d53f0f904ee5a2a84992af</title>
<path fill="none" stroke="black" d="M111.225,-215.697C101.246,-206.965 88.9891,-196.24 78.1432,-186.75"/>
<polygon fill="black" stroke="black" points="80.3784,-184.055 70.5478,-180.104 75.7688,-189.323 80.3784,-184.055"/>
<g id="a_edge5&#45;headlabel"><a xlink:href="dir_000284_000124.html" target="_top" xlink:title="9">
<text text-anchor="middle" x="84.9532" y="-181.786" font-family="Helvetica,sans-Serif" font-size="10.00">9</text>
</a>
</g>
</g>
<!-- dir_c6781640d5720511e35c6e7f87460ee7&#45;&gt;dir_3ffb816f6d71c6665c34f0fe3ab9978a -->
<g id="edge4" class="edge"><title>dir_c6781640d5720511e35c6e7f87460ee7&#45;&gt;dir_3ffb816f6d71c6665c34f0fe3ab9978a</title>
<path fill="none" stroke="black" d="M133.472,-215.697C134.574,-207.983 135.898,-198.712 137.127,-190.112"/>
<polygon fill="black" stroke="black" points="140.607,-190.499 138.557,-180.104 133.677,-189.509 140.607,-190.499"/>
<g id="a_edge4&#45;headlabel"><a xlink:href="dir_000284_000323.html" target="_top" xlink:title="2">
<text text-anchor="middle" x="142.91" y="-191.959" font-family="Helvetica,sans-Serif" font-size="10.00">2</text>
</a>
</g>
</g>
<!-- dir_c6781640d5720511e35c6e7f87460ee7&#45;&gt;dir_2171f7ec022c5423887b07c69b2f5b48 -->
<g id="edge6" class="edge"><title>dir_c6781640d5720511e35c6e7f87460ee7&#45;&gt;dir_2171f7ec022c5423887b07c69b2f5b48</title>
<path fill="none" stroke="black" d="M158.023,-220.007C185.306,-206.615 223.986,-186.767 228,-180 252.487,-138.716 252.917,-113.026 228,-72 215.882,-52.0478 193.542,-39.2635 172.852,-31.2623"/>
<polygon fill="black" stroke="black" points="173.787,-27.8799 163.193,-27.8113 171.432,-34.4719 173.787,-27.8799"/>
<g id="a_edge6&#45;headlabel"><a xlink:href="dir_000284_000056.html" target="_top" xlink:title="7">
<text text-anchor="middle" x="178.128" y="-23.9156" font-family="Helvetica,sans-Serif" font-size="10.00">7</text>
</a>
</g>
</g>
<!-- dir_4ab6b4cc6a7edbff49100e9123df213f&#45;&gt;dir_2171f7ec022c5423887b07c69b2f5b48 -->
<g id="edge1" class="edge"><title>dir_4ab6b4cc6a7edbff49100e9123df213f&#45;&gt;dir_2171f7ec022c5423887b07c69b2f5b48</title>
<path fill="none" stroke="black" d="M63.6236,-71.6966C72.0778,-62.9655 83.3974,-52.2405 94.1232,-42.7503"/>
<polygon fill="black" stroke="black" points="96.5218,-45.3029 101.779,-36.1043 91.9329,-40.0169 96.5218,-45.3029"/>
<g id="a_edge1&#45;headlabel"><a xlink:href="dir_000016_000056.html" target="_top" xlink:title="3">
<text text-anchor="middle" x="95.6686" y="-47.3034" font-family="Helvetica,sans-Serif" font-size="10.00">3</text>
</a>
</g>
</g>
<!-- dir_2171f7ec022c5423887b07c69b2f5b48&#45;&gt;dir_4ab6b4cc6a7edbff49100e9123df213f -->
<g id="edge10" class="edge"><title>dir_2171f7ec022c5423887b07c69b2f5b48&#45;&gt;dir_4ab6b4cc6a7edbff49100e9123df213f</title>
<path fill="none" stroke="black" d="M113.569,-36.1043C105.159,-44.8049 93.8565,-55.524 83.1218,-65.0328"/>
<polygon fill="black" stroke="black" points="80.7065,-62.4948 75.4551,-71.6966 85.2986,-67.7781 80.7065,-62.4948"/>
<g id="a_edge10&#45;headlabel"><a xlink:href="dir_000056_000016.html" target="_top" xlink:title="19">
<text text-anchor="middle" x="81.5569" y="-55.4938" font-family="Helvetica,sans-Serif" font-size="10.00">19</text>
</a>
</g>
</g>
</g>
</svg>
