<?xml version="1.0" encoding="UTF-8" standalone="no"?>
<!DOCTYPE svg PUBLIC "-//W3C//DTD SVG 1.1//EN"
 "http://www.w3.org/Graphics/SVG/1.1/DTD/svg11.dtd">
<!-- Generated by graphviz version 2.36.0 (20140111.2315)
 -->
<!-- Title: Graphical Class Hierarchy Pages: 1 -->
<svg width="280pt" height="66pt"
 viewBox="0.00 0.00 280.00 66.00" xmlns="http://www.w3.org/2000/svg" xmlns:xlink="http://www.w3.org/1999/xlink">
<g id="graph0" class="graph" transform="scale(1 1) rotate(0) translate(4 62)">
<title>Graphical Class Hierarchy</title>
<!-- Node1 -->
<g id="node1" class="node"><title>Node1</title>
<g id="a_node1"><a xlink:href="d0/d94/classo2_1_1dataformats_1_1TimeStamp.html" target="_top" xlink:title="o2::dataformats::TimeStamp\l\&lt; double \&gt;">
<polygon fill="none" stroke="black" points="0.5,-14 0.5,-44 141.5,-44 141.5,-14 0.5,-14"/>
<text text-anchor="start" x="8.5" y="-32" font-family="Helvetica,sans-Serif" font-size="10.00">o2::dataformats::TimeStamp</text>
<text text-anchor="middle" x="71" y="-21" font-family="Helvetica,sans-Serif" font-size="10.00">&lt; double &gt;</text>
</a>
</g>
</g>
<!-- Node2 -->
<g id="node2" class="node"><title>Node2</title>
<g id="a_node2"><a xlink:href="d5/d5a/classo2_1_1EMCAL_1_1Digit.html" target="_top" xlink:title="EMCAL digit implementation. ">
<polygon fill="none" stroke="black" points="178,-38.5 178,-57.5 272,-57.5 272,-38.5 178,-38.5"/>
<text text-anchor="middle" x="225" y="-45.5" font-family="Helvetica,sans-Serif" font-size="10.00">o2::EMCAL::Digit</text>
</a>
</g>
</g>
<!-- Node1&#45;&gt;Node2 -->
<g id="edge1" class="edge"><title>Node1&#45;&gt;Node2</title>
<path fill="none" stroke="midnightblue" d="M151.781,-38.9727C160.644,-40.0805 169.438,-41.1797 177.679,-42.2099"/>
<polygon fill="midnightblue" stroke="midnightblue" points="152.129,-35.4889 141.772,-37.7215 151.26,-42.4349 152.129,-35.4889"/>
</g>
<!-- Node3 -->
<g id="node3" class="node"><title>Node3</title>
<g id="a_node3"><a xlink:href="d8/db4/classo2_1_1tof_1_1Digit.html" target="_top" xlink:title="TOF digit implementation. ">
<polygon fill="none" stroke="black" points="189.5,-0.5 189.5,-19.5 260.5,-19.5 260.5,-0.5 189.5,-0.5"/>
<text text-anchor="middle" x="225" y="-7.5" font-family="Helvetica,sans-Serif" font-size="10.00">o2::tof::Digit</text>
</a>
</g>
</g>
<!-- Node1&#45;&gt;Node3 -->
<g id="edge2" class="edge"><title>Node1&#45;&gt;Node3</title>
<path fill="none" stroke="midnightblue" d="M151.877,-19.0154C165.085,-17.3643 178.137,-15.7328 189.432,-14.321"/>
<polygon fill="midnightblue" stroke="midnightblue" points="151.26,-15.5651 141.772,-20.2785 152.129,-22.5111 151.26,-15.5651"/>
</g>
</g>
</svg>
