<?xml version="1.0" encoding="UTF-8" standalone="no"?>
<!DOCTYPE svg PUBLIC "-//W3C//DTD SVG 1.1//EN"
 "http://www.w3.org/Graphics/SVG/1.1/DTD/svg11.dtd">
<!-- Generated by graphviz version 2.36.0 (20140111.2315)
 -->
<!-- Title: Graphical Class Hierarchy Pages: 1 -->
<svg width="198pt" height="66pt"
 viewBox="0.00 0.00 198.00 66.00" xmlns="http://www.w3.org/2000/svg" xmlns:xlink="http://www.w3.org/1999/xlink">
<g id="graph0" class="graph" transform="scale(1 1) rotate(0) translate(4 62)">
<title>Graphical Class Hierarchy</title>
<!-- Node1 -->
<g id="node1" class="node"><title>Node1</title>
<g id="a_node1"><a xlink:href="de/dac/classo2_1_1framework_1_1Task.html" target="_top" xlink:title="o2::framework::Task">
<polygon fill="none" stroke="black" points="0.5,-19.5 0.5,-38.5 107.5,-38.5 107.5,-19.5 0.5,-19.5"/>
<text text-anchor="middle" x="54" y="-26.5" font-family="Helvetica,sans-Serif" font-size="10.00">o2::framework::Task</text>
</a>
</g>
</g>
<!-- Node2 -->
<g id="node2" class="node"><title>Node2</title>
<g id="a_node2"><a xlink:href="dd/d33/classATask.html" target="_top" xlink:title="ATask">
<polygon fill="none" stroke="black" points="144.5,-38.5 144.5,-57.5 189.5,-57.5 189.5,-38.5 144.5,-38.5"/>
<text text-anchor="middle" x="167" y="-45.5" font-family="Helvetica,sans-Serif" font-size="10.00">ATask</text>
</a>
</g>
</g>
<!-- Node1&#45;&gt;Node2 -->
<g id="edge1" class="edge"><title>Node1&#45;&gt;Node2</title>
<path fill="none" stroke="midnightblue" d="M117.623,-39.7193C127.212,-41.3607 136.513,-42.9528 144.355,-44.295"/>
<polygon fill="midnightblue" stroke="midnightblue" points="118.022,-36.2367 107.574,-37.9992 116.841,-43.1363 118.022,-36.2367"/>
</g>
<!-- Node3 -->
<g id="node3" class="node"><title>Node3</title>
<g id="a_node3"><a xlink:href="d7/d29/classBTask.html" target="_top" xlink:title="BTask">
<polygon fill="none" stroke="black" points="144.5,-0.5 144.5,-19.5 189.5,-19.5 189.5,-0.5 144.5,-0.5"/>
<text text-anchor="middle" x="167" y="-7.5" font-family="Helvetica,sans-Serif" font-size="10.00">BTask</text>
</a>
</g>
</g>
<!-- Node1&#45;&gt;Node3 -->
<g id="edge2" class="edge"><title>Node1&#45;&gt;Node3</title>
<path fill="none" stroke="midnightblue" d="M117.623,-18.2807C127.212,-16.6393 136.513,-15.0472 144.355,-13.705"/>
<polygon fill="midnightblue" stroke="midnightblue" points="116.841,-14.8637 107.574,-20.0008 118.022,-21.7633 116.841,-14.8637"/>
</g>
</g>
</svg>
