<?xml version="1.0" encoding="UTF-8" standalone="no"?>
<!DOCTYPE svg PUBLIC "-//W3C//DTD SVG 1.1//EN"
 "http://www.w3.org/Graphics/SVG/1.1/DTD/svg11.dtd">
<!-- Generated by graphviz version 2.36.0 (20140111.2315)
 -->
<!-- Title: Graphical Class Hierarchy Pages: 1 -->
<svg width="502pt" height="408pt"
 viewBox="0.00 0.00 502.00 408.00" xmlns="http://www.w3.org/2000/svg" xmlns:xlink="http://www.w3.org/1999/xlink">
<g id="graph0" class="graph" transform="scale(1 1) rotate(0) translate(4 404)">
<title>Graphical Class Hierarchy</title>
<!-- Node1 -->
<g id="node1" class="node"><title>Node1</title>
<g id="a_node1"><a xlink:href="d6/d0c/classFairDetector.html" target="_top" xlink:title="FairDetector">
<polygon fill="none" stroke="black" points="0.5,-147.5 0.5,-166.5 71.5,-166.5 71.5,-147.5 0.5,-147.5"/>
<text text-anchor="middle" x="36" y="-154.5" font-family="Helvetica,sans-Serif" font-size="10.00">FairDetector</text>
</a>
</g>
</g>
<!-- Node2 -->
<g id="node2" class="node"><title>Node2</title>
<g id="a_node2"><a xlink:href="d7/d02/classo2_1_1Base_1_1Detector.html" target="_top" xlink:title="o2::Base::Detector">
<polygon fill="none" stroke="black" points="108.5,-166.5 108.5,-185.5 207.5,-185.5 207.5,-166.5 108.5,-166.5"/>
<text text-anchor="middle" x="158" y="-173.5" font-family="Helvetica,sans-Serif" font-size="10.00">o2::Base::Detector</text>
</a>
</g>
</g>
<!-- Node1&#45;&gt;Node2 -->
<g id="edge1" class="edge"><title>Node1&#45;&gt;Node2</title>
<path fill="none" stroke="midnightblue" d="M81.5911,-164.06C90.2281,-165.428 99.322,-166.868 108.089,-168.256"/>
<polygon fill="midnightblue" stroke="midnightblue" points="82.1333,-160.603 71.709,-162.496 81.0386,-167.516 82.1333,-160.603"/>
</g>
<!-- Node16 -->
<g id="node16" class="node"><title>Node16</title>
<g id="a_node16"><a xlink:href="db/df6/classo2_1_1Passive_1_1Cave.html" target="_top" xlink:title="o2::Passive::Cave">
<polygon fill="none" stroke="black" points="109,-128.5 109,-147.5 207,-147.5 207,-128.5 109,-128.5"/>
<text text-anchor="middle" x="158" y="-135.5" font-family="Helvetica,sans-Serif" font-size="10.00">o2::Passive::Cave</text>
</a>
</g>
</g>
<!-- Node1&#45;&gt;Node16 -->
<g id="edge15" class="edge"><title>Node1&#45;&gt;Node16</title>
<path fill="none" stroke="midnightblue" d="M81.8385,-149.901C90.695,-148.498 100.023,-147.021 108.98,-145.603"/>
<polygon fill="midnightblue" stroke="midnightblue" points="81.0386,-146.484 71.709,-151.504 82.1333,-153.397 81.0386,-146.484"/>
</g>
<!-- Node3 -->
<g id="node3" class="node"><title>Node3</title>
<g id="a_node3"><a xlink:href="d4/d8a/classo2_1_1Base_1_1DetImpl.html" target="_top" xlink:title="o2::Base::DetImpl\&lt;\l Detector \&gt;">
<polygon fill="none" stroke="black" points="244,-185 244,-215 346,-215 346,-185 244,-185"/>
<text text-anchor="start" x="252" y="-203" font-family="Helvetica,sans-Serif" font-size="10.00">o2::Base::DetImpl&lt;</text>
<text text-anchor="middle" x="295" y="-192" font-family="Helvetica,sans-Serif" font-size="10.00"> Detector &gt;</text>
</a>
</g>
</g>
<!-- Node2&#45;&gt;Node3 -->
<g id="edge2" class="edge"><title>Node2&#45;&gt;Node3</title>
<path fill="none" stroke="midnightblue" d="M217.84,-186.46C226.553,-188.009 235.461,-189.593 243.971,-191.106"/>
<polygon fill="midnightblue" stroke="midnightblue" points="218.196,-182.969 207.738,-184.665 216.971,-189.861 218.196,-182.969"/>
</g>
<!-- Node15 -->
<g id="node15" class="node"><title>Node15</title>
<g id="a_node15"><a xlink:href="d4/d8a/classo2_1_1Base_1_1DetImpl.html" target="_top" xlink:title="o2::Base::DetImpl\&lt;\l Det \&gt;">
<polygon fill="none" stroke="black" points="244,-136 244,-166 346,-166 346,-136 244,-136"/>
<text text-anchor="start" x="252" y="-154" font-family="Helvetica,sans-Serif" font-size="10.00">o2::Base::DetImpl&lt;</text>
<text text-anchor="middle" x="295" y="-143" font-family="Helvetica,sans-Serif" font-size="10.00"> Det &gt;</text>
</a>
</g>
</g>
<!-- Node2&#45;&gt;Node15 -->
<g id="edge14" class="edge"><title>Node2&#45;&gt;Node15</title>
<path fill="none" stroke="midnightblue" d="M217.84,-165.104C226.553,-163.49 235.461,-161.841 243.971,-160.265"/>
<polygon fill="midnightblue" stroke="midnightblue" points="216.934,-161.712 207.738,-166.974 218.208,-168.595 216.934,-161.712"/>
</g>
<!-- Node4 -->
<g id="node4" class="node"><title>Node4</title>
<g id="a_node4"><a xlink:href="df/d30/classo2_1_1EMCAL_1_1Detector.html" target="_top" xlink:title="o2::EMCAL::Detector">
<polygon fill="none" stroke="black" points="382.5,-380.5 382.5,-399.5 493.5,-399.5 493.5,-380.5 382.5,-380.5"/>
<text text-anchor="middle" x="438" y="-387.5" font-family="Helvetica,sans-Serif" font-size="10.00">o2::EMCAL::Detector</text>
</a>
</g>
</g>
<!-- Node3&#45;&gt;Node4 -->
<g id="edge3" class="edge"><title>Node3&#45;&gt;Node4</title>
<path fill="none" stroke="midnightblue" d="M302.142,-225.16C312.451,-262.221 336.7,-331.371 382,-371 386.41,-374.858 391.645,-377.943 397.105,-380.407"/>
<polygon fill="midnightblue" stroke="midnightblue" points="305.441,-223.947 299.49,-215.182 298.676,-225.745 305.441,-223.947"/>
</g>
<!-- Node5 -->
<g id="node5" class="node"><title>Node5</title>
<g id="a_node5"><a xlink:href="d2/d64/classo2_1_1fit_1_1Detector.html" target="_top" xlink:title="o2::fit::Detector">
<polygon fill="none" stroke="black" points="395.5,-342.5 395.5,-361.5 480.5,-361.5 480.5,-342.5 395.5,-342.5"/>
<text text-anchor="middle" x="438" y="-349.5" font-family="Helvetica,sans-Serif" font-size="10.00">o2::fit::Detector</text>
</a>
</g>
</g>
<!-- Node3&#45;&gt;Node5 -->
<g id="edge4" class="edge"><title>Node3&#45;&gt;Node5</title>
<path fill="none" stroke="midnightblue" d="M305.769,-224.345C318.87,-254.049 344.861,-303.895 382,-333 386.93,-336.863 392.698,-339.97 398.609,-342.46"/>
<polygon fill="midnightblue" stroke="midnightblue" points="308.968,-222.926 301.822,-215.103 302.531,-225.674 308.968,-222.926"/>
</g>
<!-- Node6 -->
<g id="node6" class="node"><title>Node6</title>
<g id="a_node6"><a xlink:href="dc/daf/classo2_1_1hmpid_1_1Detector.html" target="_top" xlink:title="o2::hmpid::Detector">
<polygon fill="none" stroke="black" points="386.5,-304.5 386.5,-323.5 489.5,-323.5 489.5,-304.5 386.5,-304.5"/>
<text text-anchor="middle" x="438" y="-311.5" font-family="Helvetica,sans-Serif" font-size="10.00">o2::hmpid::Detector</text>
</a>
</g>
</g>
<!-- Node3&#45;&gt;Node6 -->
<g id="edge5" class="edge"><title>Node3&#45;&gt;Node6</title>
<path fill="none" stroke="midnightblue" d="M311.727,-223.222C327.296,-244.599 352.961,-275.814 382,-295 387.732,-298.787 394.299,-301.902 400.854,-304.436"/>
<polygon fill="midnightblue" stroke="midnightblue" points="314.531,-221.126 305.884,-215.004 308.826,-225.182 314.531,-221.126"/>
</g>
<!-- Node7 -->
<g id="node7" class="node"><title>Node7</title>
<g id="a_node7"><a xlink:href="d6/dd3/classo2_1_1ITS_1_1Detector.html" target="_top" xlink:title="o2::ITS::Detector">
<polygon fill="none" stroke="black" points="392,-266.5 392,-285.5 484,-285.5 484,-266.5 392,-266.5"/>
<text text-anchor="middle" x="438" y="-273.5" font-family="Helvetica,sans-Serif" font-size="10.00">o2::ITS::Detector</text>
</a>
</g>
</g>
<!-- Node3&#45;&gt;Node7 -->
<g id="edge6" class="edge"><title>Node3&#45;&gt;Node7</title>
<path fill="none" stroke="midnightblue" d="M324.137,-221.277C340.428,-232.912 361.676,-246.957 382,-257 389.245,-260.58 397.334,-263.779 405.03,-266.484"/>
<polygon fill="midnightblue" stroke="midnightblue" points="325.782,-218.146 315.634,-215.102 321.669,-223.81 325.782,-218.146"/>
</g>
<!-- Node8 -->
<g id="node8" class="node"><title>Node8</title>
<g id="a_node8"><a xlink:href="d5/d10/classo2_1_1mch_1_1Detector.html" target="_top" xlink:title="o2::mch::Detector">
<polygon fill="none" stroke="black" points="390.5,-228.5 390.5,-247.5 485.5,-247.5 485.5,-228.5 390.5,-228.5"/>
<text text-anchor="middle" x="438" y="-235.5" font-family="Helvetica,sans-Serif" font-size="10.00">o2::mch::Detector</text>
</a>
</g>
</g>
<!-- Node3&#45;&gt;Node8 -->
<g id="edge7" class="edge"><title>Node3&#45;&gt;Node8</title>
<path fill="none" stroke="midnightblue" d="M356.171,-216.216C371.682,-220.397 387.875,-224.761 401.659,-228.475"/>
<polygon fill="midnightblue" stroke="midnightblue" points="356.675,-212.727 346.108,-213.504 354.853,-219.486 356.675,-212.727"/>
</g>
<!-- Node9 -->
<g id="node9" class="node"><title>Node9</title>
<g id="a_node9"><a xlink:href="dd/d98/classo2_1_1MFT_1_1Detector.html" target="_top" xlink:title="o2::MFT::Detector">
<polygon fill="none" stroke="black" points="389.5,-190.5 389.5,-209.5 486.5,-209.5 486.5,-190.5 389.5,-190.5"/>
<text text-anchor="middle" x="438" y="-197.5" font-family="Helvetica,sans-Serif" font-size="10.00">o2::MFT::Detector</text>
</a>
</g>
</g>
<!-- Node3&#45;&gt;Node9 -->
<g id="edge8" class="edge"><title>Node3&#45;&gt;Node9</title>
<path fill="none" stroke="midnightblue" d="M356.178,-200C367.286,-200 378.743,-200 389.414,-200"/>
<polygon fill="midnightblue" stroke="midnightblue" points="356.108,-196.5 346.108,-200 356.108,-203.5 356.108,-196.5"/>
</g>
<!-- Node10 -->
<g id="node10" class="node"><title>Node10</title>
<g id="a_node10"><a xlink:href="d0/d35/classo2_1_1phos_1_1Detector.html" target="_top" xlink:title="Detector class for the PHOS detector. ">
<polygon fill="none" stroke="black" points="389,-152.5 389,-171.5 487,-171.5 487,-152.5 389,-152.5"/>
<text text-anchor="middle" x="438" y="-159.5" font-family="Helvetica,sans-Serif" font-size="10.00">o2::phos::Detector</text>
</a>
</g>
</g>
<!-- Node3&#45;&gt;Node10 -->
<g id="edge9" class="edge"><title>Node3&#45;&gt;Node10</title>
<path fill="none" stroke="midnightblue" d="M356.171,-183.784C371.682,-179.603 387.875,-175.239 401.659,-171.525"/>
<polygon fill="midnightblue" stroke="midnightblue" points="354.853,-180.514 346.108,-186.496 356.675,-187.273 354.853,-180.514"/>
</g>
<!-- Node11 -->
<g id="node11" class="node"><title>Node11</title>
<g id="a_node11"><a xlink:href="db/d30/classo2_1_1tof_1_1Detector.html" target="_top" xlink:title="o2::tof::Detector">
<polygon fill="none" stroke="black" points="394,-114.5 394,-133.5 482,-133.5 482,-114.5 394,-114.5"/>
<text text-anchor="middle" x="438" y="-121.5" font-family="Helvetica,sans-Serif" font-size="10.00">o2::tof::Detector</text>
</a>
</g>
</g>
<!-- Node3&#45;&gt;Node11 -->
<g id="edge10" class="edge"><title>Node3&#45;&gt;Node11</title>
<path fill="none" stroke="midnightblue" d="M338.079,-179.994C340.806,-178.383 343.47,-176.713 346,-175 363.727,-162.998 363.526,-153.815 382,-143 388.364,-139.274 395.571,-136.128 402.623,-133.535"/>
<polygon fill="midnightblue" stroke="midnightblue" points="336.271,-176.995 329.243,-184.923 339.681,-183.108 336.271,-176.995"/>
</g>
<!-- Node12 -->
<g id="node12" class="node"><title>Node12</title>
<g id="a_node12"><a xlink:href="d3/dcb/classo2_1_1TPC_1_1Detector.html" target="_top" xlink:title="o2::TPC::Detector">
<polygon fill="none" stroke="black" points="389.5,-76.5 389.5,-95.5 486.5,-95.5 486.5,-76.5 389.5,-76.5"/>
<text text-anchor="middle" x="438" y="-83.5" font-family="Helvetica,sans-Serif" font-size="10.00">o2::TPC::Detector</text>
</a>
</g>
</g>
<!-- Node3&#45;&gt;Node12 -->
<g id="edge11" class="edge"><title>Node3&#45;&gt;Node12</title>
<path fill="none" stroke="midnightblue" d="M341.469,-179.03C343.058,-177.75 344.577,-176.407 346,-175 370.878,-150.403 355.565,-127.915 382,-105 386.504,-101.096 391.853,-97.9821 397.419,-95.5018"/>
<polygon fill="midnightblue" stroke="midnightblue" points="339.245,-176.313 333.048,-184.907 343.251,-182.054 339.245,-176.313"/>
</g>
<!-- Node13 -->
<g id="node13" class="node"><title>Node13</title>
<g id="a_node13"><a xlink:href="d5/da6/classo2_1_1trd_1_1Detector.html" target="_top" xlink:title="o2::trd::Detector">
<polygon fill="none" stroke="black" points="394,-38.5 394,-57.5 482,-57.5 482,-38.5 394,-38.5"/>
<text text-anchor="middle" x="438" y="-45.5" font-family="Helvetica,sans-Serif" font-size="10.00">o2::trd::Detector</text>
</a>
</g>
</g>
<!-- Node3&#45;&gt;Node13 -->
<g id="edge12" class="edge"><title>Node3&#45;&gt;Node13</title>
<path fill="none" stroke="midnightblue" d="M342.352,-178.75C343.642,-177.56 344.863,-176.311 346,-175 379.151,-136.777 346.418,-102.971 382,-67 385.836,-63.1216 390.502,-60.0341 395.475,-57.5762"/>
<polygon fill="midnightblue" stroke="midnightblue" points="340.12,-176.052 334.35,-184.938 344.402,-181.59 340.12,-176.052"/>
</g>
<!-- Node14 -->
<g id="node14" class="node"><title>Node14</title>
<g id="a_node14"><a xlink:href="d4/da3/classo2_1_1zdc_1_1Detector.html" target="_top" xlink:title="o2::zdc::Detector">
<polygon fill="none" stroke="black" points="392,-0.5 392,-19.5 484,-19.5 484,-0.5 392,-0.5"/>
<text text-anchor="middle" x="438" y="-7.5" font-family="Helvetica,sans-Serif" font-size="10.00">o2::zdc::Detector</text>
</a>
</g>
</g>
<!-- Node3&#45;&gt;Node14 -->
<g id="edge13" class="edge"><title>Node3&#45;&gt;Node14</title>
<path fill="none" stroke="midnightblue" d="M342.959,-178.401C344.035,-177.317 345.053,-176.184 346,-175 387.735,-122.801 336.937,-78.3552 382,-29 385.542,-25.1205 389.914,-22.0332 394.634,-19.5762"/>
<polygon fill="midnightblue" stroke="midnightblue" points="340.625,-175.789 335.136,-184.851 345.079,-181.19 340.625,-175.789"/>
</g>
</g>
</svg>
