<?xml version="1.0" encoding="UTF-8" standalone="no"?>
<!DOCTYPE svg PUBLIC "-//W3C//DTD SVG 1.1//EN"
 "http://www.w3.org/Graphics/SVG/1.1/DTD/svg11.dtd">
<!-- Generated by graphviz version 2.36.0 (20140111.2315)
 -->
<!-- Title: /home/travis/build/AliceO2Group/AliceO2/Utilities/Publishers/include/Publishers/DataPublisherDevice.h Pages: 1 -->
<svg width="1258pt" height="364pt"
 viewBox="0.00 0.00 1258.00 364.00" xmlns="http://www.w3.org/2000/svg" xmlns:xlink="http://www.w3.org/1999/xlink">
<g id="graph0" class="graph" transform="scale(1 1) rotate(0) translate(4 360)">
<title>/home/travis/build/AliceO2Group/AliceO2/Utilities/Publishers/include/Publishers/DataPublisherDevice.h</title>
<!-- Node1 -->
<g id="node1" class="node"><title>Node1</title>
<polygon fill="#bfbfbf" stroke="black" points="364,-292.5 364,-355.5 528,-355.5 528,-292.5 364,-292.5"/>
<text text-anchor="start" x="372" y="-343.5" font-family="Helvetica,sans-Serif" font-size="10.00">/home/travis/build</text>
<text text-anchor="start" x="372" y="-332.5" font-family="Helvetica,sans-Serif" font-size="10.00">/AliceO2Group/AliceO2</text>
<text text-anchor="start" x="372" y="-321.5" font-family="Helvetica,sans-Serif" font-size="10.00">/Utilities/Publishers</text>
<text text-anchor="start" x="372" y="-310.5" font-family="Helvetica,sans-Serif" font-size="10.00">/include/Publishers/DataPublisher</text>
<text text-anchor="middle" x="446" y="-299.5" font-family="Helvetica,sans-Serif" font-size="10.00">Device.h</text>
</g>
<!-- Node2 -->
<g id="node2" class="node"><title>Node2</title>
<g id="a_node2"><a xlink:href="../../dc/dcd/DataHeader_8h.html" target="_top" xlink:title="Headers/DataHeader.h">
<polygon fill="none" stroke="black" points="385.5,-124.5 385.5,-143.5 502.5,-143.5 502.5,-124.5 385.5,-124.5"/>
<text text-anchor="middle" x="444" y="-131.5" font-family="Helvetica,sans-Serif" font-size="10.00">Headers/DataHeader.h</text>
</a>
</g>
</g>
<!-- Node1&#45;&gt;Node2 -->
<g id="edge1" class="edge"><title>Node1&#45;&gt;Node2</title>
<path fill="none" stroke="midnightblue" d="M445.674,-292.376C445.258,-253.271 444.551,-186.774 444.204,-154.173"/>
<polygon fill="midnightblue" stroke="midnightblue" points="447.7,-153.771 444.094,-143.809 440.7,-153.845 447.7,-153.771"/>
</g>
<!-- Node6 -->
<g id="node6" class="node"><title>Node6</title>
<polygon fill="none" stroke="#bfbfbf" points="0,-6.5 0,-25.5 46,-25.5 46,-6.5 0,-6.5"/>
<text text-anchor="middle" x="23" y="-13.5" font-family="Helvetica,sans-Serif" font-size="10.00">cstring</text>
</g>
<!-- Node1&#45;&gt;Node6 -->
<g id="edge37" class="edge"><title>Node1&#45;&gt;Node6</title>
<path fill="none" stroke="midnightblue" d="M363.614,-312.278C248.374,-294.937 53,-255.957 53,-191 53,-191 53,-191 53,-133 53,-97.2645 39.4901,-57.2525 30.6024,-34.7964"/>
<polygon fill="midnightblue" stroke="midnightblue" points="33.8356,-33.456 26.7995,-25.5349 27.3603,-36.1149 33.8356,-33.456"/>
</g>
<!-- Node17 -->
<g id="node17" class="node"><title>Node17</title>
<polygon fill="none" stroke="#bfbfbf" points="1206,-6.5 1206,-25.5 1250,-25.5 1250,-6.5 1206,-6.5"/>
<text text-anchor="middle" x="1228" y="-13.5" font-family="Helvetica,sans-Serif" font-size="10.00">vector</text>
</g>
<!-- Node1&#45;&gt;Node17 -->
<g id="edge38" class="edge"><title>Node1&#45;&gt;Node17</title>
<path fill="none" stroke="midnightblue" d="M528.043,-316.823C720.145,-301.262 1183,-256.928 1183,-191 1183,-191 1183,-191 1183,-133 1183,-95.7431 1203.43,-56.034 1216.76,-34.0887"/>
<polygon fill="midnightblue" stroke="midnightblue" points="1219.75,-35.9052 1222.12,-25.5787 1213.83,-32.1737 1219.75,-35.9052"/>
</g>
<!-- Node21 -->
<g id="node21" class="node"><title>Node21</title>
<g id="a_node21"><a xlink:href="../../d2/d09/HeartbeatFrame_8h.html" target="_top" xlink:title="Headers/HeartbeatFrame.h">
<polygon fill="none" stroke="black" points="282.5,-180.5 282.5,-199.5 417.5,-199.5 417.5,-180.5 282.5,-180.5"/>
<text text-anchor="middle" x="350" y="-187.5" font-family="Helvetica,sans-Serif" font-size="10.00">Headers/HeartbeatFrame.h</text>
</a>
</g>
</g>
<!-- Node1&#45;&gt;Node21 -->
<g id="edge22" class="edge"><title>Node1&#45;&gt;Node21</title>
<path fill="none" stroke="midnightblue" d="M423.734,-292.385C404.628,-266.113 377.797,-229.221 362.323,-207.945"/>
<polygon fill="midnightblue" stroke="midnightblue" points="364.974,-205.639 356.262,-199.61 359.313,-209.756 364.974,-205.639"/>
</g>
<!-- Node24 -->
<g id="node24" class="node"><title>Node24</title>
<g id="a_node24"><a xlink:href="../../d2/dee/O2Device_8h.html" target="_top" xlink:title="O2Device/O2Device.h">
<polygon fill="none" stroke="black" points="729.5,-236.5 729.5,-255.5 844.5,-255.5 844.5,-236.5 729.5,-236.5"/>
<text text-anchor="middle" x="787" y="-243.5" font-family="Helvetica,sans-Serif" font-size="10.00">O2Device/O2Device.h</text>
</a>
</g>
</g>
<!-- Node1&#45;&gt;Node24 -->
<g id="edge27" class="edge"><title>Node1&#45;&gt;Node24</title>
<path fill="none" stroke="midnightblue" d="M528.112,-304.699C593.974,-290.021 684.157,-269.921 738.85,-257.731"/>
<polygon fill="midnightblue" stroke="midnightblue" points="739.636,-261.142 748.635,-255.55 738.114,-254.31 739.636,-261.142"/>
</g>
<!-- Node3 -->
<g id="node3" class="node"><title>Node3</title>
<polygon fill="none" stroke="#bfbfbf" points="235,-68.5 235,-87.5 281,-87.5 281,-68.5 235,-68.5"/>
<text text-anchor="middle" x="258" y="-75.5" font-family="Helvetica,sans-Serif" font-size="10.00">cstdint</text>
</g>
<!-- Node2&#45;&gt;Node3 -->
<g id="edge2" class="edge"><title>Node2&#45;&gt;Node3</title>
<path fill="none" stroke="midnightblue" d="M414.528,-124.444C380.871,-114.672 325.95,-98.7275 290.918,-88.5567"/>
<polygon fill="midnightblue" stroke="midnightblue" points="291.743,-85.152 281.164,-85.7251 289.792,-91.8745 291.743,-85.152"/>
</g>
<!-- Node4 -->
<g id="node4" class="node"><title>Node4</title>
<polygon fill="none" stroke="#bfbfbf" points="299,-68.5 299,-87.5 351,-87.5 351,-68.5 299,-68.5"/>
<text text-anchor="middle" x="325" y="-75.5" font-family="Helvetica,sans-Serif" font-size="10.00">memory</text>
</g>
<!-- Node2&#45;&gt;Node4 -->
<g id="edge3" class="edge"><title>Node2&#45;&gt;Node4</title>
<path fill="none" stroke="midnightblue" d="M425.144,-124.444C405.734,-115.636 375.27,-101.812 353.035,-91.722"/>
<polygon fill="midnightblue" stroke="midnightblue" points="354.32,-88.4615 343.768,-87.5164 351.428,-94.836 354.32,-88.4615"/>
</g>
<!-- Node5 -->
<g id="node5" class="node"><title>Node5</title>
<polygon fill="none" stroke="#bfbfbf" points="369.5,-68.5 369.5,-87.5 418.5,-87.5 418.5,-68.5 369.5,-68.5"/>
<text text-anchor="middle" x="394" y="-75.5" font-family="Helvetica,sans-Serif" font-size="10.00">cassert</text>
</g>
<!-- Node2&#45;&gt;Node5 -->
<g id="edge4" class="edge"><title>Node2&#45;&gt;Node5</title>
<path fill="none" stroke="midnightblue" d="M435.744,-124.083C428.535,-116.298 417.89,-104.801 409.154,-95.3665"/>
<polygon fill="midnightblue" stroke="midnightblue" points="411.465,-92.7108 402.103,-87.7511 406.329,-97.4666 411.465,-92.7108"/>
</g>
<!-- Node2&#45;&gt;Node6 -->
<g id="edge5" class="edge"><title>Node2&#45;&gt;Node6</title>
<path fill="none" stroke="midnightblue" d="M385.225,-125.125C318.035,-115.785 212.391,-99.9741 174,-88 127.041,-73.3536 75.9429,-46.8995 46.8569,-30.7457"/>
<polygon fill="midnightblue" stroke="midnightblue" points="48.3065,-27.5454 37.8747,-25.6943 44.8752,-33.6468 48.3065,-27.5454"/>
</g>
<!-- Node7 -->
<g id="node7" class="node"><title>Node7</title>
<polygon fill="none" stroke="#bfbfbf" points="437,-68.5 437,-87.5 493,-87.5 493,-68.5 437,-68.5"/>
<text text-anchor="middle" x="465" y="-75.5" font-family="Helvetica,sans-Serif" font-size="10.00">algorithm</text>
</g>
<!-- Node2&#45;&gt;Node7 -->
<g id="edge6" class="edge"><title>Node2&#45;&gt;Node7</title>
<path fill="none" stroke="midnightblue" d="M447.468,-124.083C450.312,-116.77 454.429,-106.181 457.96,-97.1034"/>
<polygon fill="midnightblue" stroke="midnightblue" points="461.234,-98.3397 461.597,-87.7511 454.71,-95.8025 461.234,-98.3397"/>
</g>
<!-- Node8 -->
<g id="node8" class="node"><title>Node8</title>
<polygon fill="none" stroke="#bfbfbf" points="761.5,-68.5 761.5,-87.5 820.5,-87.5 820.5,-68.5 761.5,-68.5"/>
<text text-anchor="middle" x="791" y="-75.5" font-family="Helvetica,sans-Serif" font-size="10.00">stdexcept</text>
</g>
<!-- Node2&#45;&gt;Node8 -->
<g id="edge7" class="edge"><title>Node2&#45;&gt;Node8</title>
<path fill="none" stroke="midnightblue" d="M498.983,-124.444C569.257,-113.508 689.219,-94.8391 751.247,-85.1864"/>
<polygon fill="midnightblue" stroke="midnightblue" points="752.066,-88.6011 761.409,-83.6049 750.99,-81.6843 752.066,-88.6011"/>
</g>
<!-- Node9 -->
<g id="node9" class="node"><title>Node9</title>
<polygon fill="none" stroke="#bfbfbf" points="64.5,-6.5 64.5,-25.5 105.5,-25.5 105.5,-6.5 64.5,-6.5"/>
<text text-anchor="middle" x="85" y="-13.5" font-family="Helvetica,sans-Serif" font-size="10.00">string</text>
</g>
<!-- Node2&#45;&gt;Node9 -->
<g id="edge8" class="edge"><title>Node2&#45;&gt;Node9</title>
<path fill="none" stroke="midnightblue" d="M385.059,-125.088C340.552,-118.1 278.398,-106.159 226,-88 182.218,-72.8269 134.768,-46.7284 107.59,-30.7527"/>
<polygon fill="midnightblue" stroke="midnightblue" points="109.245,-27.6648 98.8612,-25.5587 105.665,-33.6803 109.245,-27.6648"/>
</g>
<!-- Node10 -->
<g id="node10" class="node"><title>Node10</title>
<g id="a_node10"><a xlink:href="../../dc/d03/MemoryResources_8h.html" target="_top" xlink:title="MemoryResources/MemoryResources.h">
<polygon fill="none" stroke="black" points="511.5,-68.5 511.5,-87.5 704.5,-87.5 704.5,-68.5 511.5,-68.5"/>
<text text-anchor="middle" x="608" y="-75.5" font-family="Helvetica,sans-Serif" font-size="10.00">MemoryResources/MemoryResources.h</text>
</a>
</g>
</g>
<!-- Node2&#45;&gt;Node10 -->
<g id="edge9" class="edge"><title>Node2&#45;&gt;Node10</title>
<path fill="none" stroke="midnightblue" d="M469.986,-124.444C497.696,-115.32 541.752,-100.813 572.616,-90.6509"/>
<polygon fill="midnightblue" stroke="midnightblue" points="573.732,-93.9684 582.135,-87.5164 571.542,-87.3196 573.732,-93.9684"/>
</g>
<!-- Node10&#45;&gt;Node6 -->
<g id="edge14" class="edge"><title>Node10&#45;&gt;Node6</title>
<path fill="none" stroke="midnightblue" d="M511.47,-68.8656C507.936,-68.5726 504.437,-68.2833 501,-68 302.805,-51.6658 247.212,-83.0171 55,-32 52.6483,-31.3758 50.2573,-30.585 47.8956,-29.6943"/>
<polygon fill="midnightblue" stroke="midnightblue" points="49.0957,-26.4 38.5281,-25.6405 46.3156,-32.8243 49.0957,-26.4"/>
</g>
<!-- Node10&#45;&gt;Node9 -->
<g id="edge15" class="edge"><title>Node10&#45;&gt;Node9</title>
<path fill="none" stroke="midnightblue" d="M511.261,-68.6575C370.133,-56.4208 123.423,-34.7514 114,-32 112.082,-31.44 110.142,-30.7497 108.223,-29.9758"/>
<polygon fill="midnightblue" stroke="midnightblue" points="109.534,-26.7245 98.9969,-25.6238 106.548,-33.0555 109.534,-26.7245"/>
</g>
<!-- Node11 -->
<g id="node11" class="node"><title>Node11</title>
<polygon fill="none" stroke="#bfbfbf" points="388,-1 388,-31 488,-31 488,-1 388,-1"/>
<text text-anchor="start" x="396" y="-19" font-family="Helvetica,sans-Serif" font-size="10.00">boost/container/flat</text>
<text text-anchor="middle" x="438" y="-8" font-family="Helvetica,sans-Serif" font-size="10.00">_map.hpp</text>
</g>
<!-- Node10&#45;&gt;Node11 -->
<g id="edge10" class="edge"><title>Node10&#45;&gt;Node11</title>
<path fill="none" stroke="midnightblue" d="M583.643,-68.4035C558.599,-59.5644 518.9,-45.553 487.27,-34.3895"/>
<polygon fill="midnightblue" stroke="midnightblue" points="488.333,-31.0531 477.738,-31.0253 486.003,-37.6541 488.333,-31.0531"/>
</g>
<!-- Node12 -->
<g id="node12" class="node"><title>Node12</title>
<polygon fill="none" stroke="#bfbfbf" points="506,-1 506,-31 622,-31 622,-1 506,-1"/>
<text text-anchor="start" x="514" y="-19" font-family="Helvetica,sans-Serif" font-size="10.00">boost/container/pmr</text>
<text text-anchor="middle" x="564" y="-8" font-family="Helvetica,sans-Serif" font-size="10.00">/memory_resource.hpp</text>
</g>
<!-- Node10&#45;&gt;Node12 -->
<g id="edge11" class="edge"><title>Node10&#45;&gt;Node12</title>
<path fill="none" stroke="midnightblue" d="M601.696,-68.4035C596.127,-60.8089 587.757,-49.3959 580.318,-39.2518"/>
<polygon fill="midnightblue" stroke="midnightblue" points="583.106,-37.1351 574.37,-31.1408 577.461,-41.2747 583.106,-37.1351"/>
</g>
<!-- Node13 -->
<g id="node13" class="node"><title>Node13</title>
<polygon fill="none" stroke="#bfbfbf" points="640,-1 640,-31 796,-31 796,-1 640,-1"/>
<text text-anchor="start" x="648" y="-19" font-family="Helvetica,sans-Serif" font-size="10.00">boost/container/pmr</text>
<text text-anchor="middle" x="718" y="-8" font-family="Helvetica,sans-Serif" font-size="10.00">/monotonic_buffer_resource.hpp</text>
</g>
<!-- Node10&#45;&gt;Node13 -->
<g id="edge12" class="edge"><title>Node10&#45;&gt;Node13</title>
<path fill="none" stroke="midnightblue" d="M623.76,-68.4035C639.215,-59.9735 663.295,-46.8389 683.245,-35.957"/>
<polygon fill="midnightblue" stroke="midnightblue" points="684.972,-39.002 692.075,-31.1408 681.62,-32.8567 684.972,-39.002"/>
</g>
<!-- Node14 -->
<g id="node14" class="node"><title>Node14</title>
<polygon fill="none" stroke="#bfbfbf" points="814.5,-1 814.5,-31 947.5,-31 947.5,-1 814.5,-1"/>
<text text-anchor="start" x="822.5" y="-19" font-family="Helvetica,sans-Serif" font-size="10.00">boost/container/pmr</text>
<text text-anchor="middle" x="881" y="-8" font-family="Helvetica,sans-Serif" font-size="10.00">/polymorphic_allocator.hpp</text>
</g>
<!-- Node10&#45;&gt;Node14 -->
<g id="edge13" class="edge"><title>Node10&#45;&gt;Node14</title>
<path fill="none" stroke="midnightblue" d="M646.824,-68.4672C688.451,-59.3184 755.528,-44.5763 807.246,-33.2097"/>
<polygon fill="midnightblue" stroke="midnightblue" points="808.027,-36.6216 817.043,-31.0565 806.525,-29.7848 808.027,-36.6216"/>
</g>
<!-- Node15 -->
<g id="node15" class="node"><title>Node15</title>
<polygon fill="none" stroke="#bfbfbf" points="966,-6.5 966,-25.5 1028,-25.5 1028,-6.5 966,-6.5"/>
<text text-anchor="middle" x="997" y="-13.5" font-family="Helvetica,sans-Serif" font-size="10.00">type_traits</text>
</g>
<!-- Node10&#45;&gt;Node15 -->
<g id="edge16" class="edge"><title>Node10&#45;&gt;Node15</title>
<path fill="none" stroke="midnightblue" d="M690.543,-68.4641C777.119,-59.1293 907.252,-43.9121 956,-32 959.493,-31.1465 963.099,-30.0943 966.656,-28.9463"/>
<polygon fill="midnightblue" stroke="midnightblue" points="968.129,-32.1396 976.42,-25.5427 965.825,-25.5297 968.129,-32.1396"/>
</g>
<!-- Node16 -->
<g id="node16" class="node"><title>Node16</title>
<polygon fill="none" stroke="#bfbfbf" points="1148,-6.5 1148,-25.5 1188,-25.5 1188,-6.5 1148,-6.5"/>
<text text-anchor="middle" x="1168" y="-13.5" font-family="Helvetica,sans-Serif" font-size="10.00">utility</text>
</g>
<!-- Node10&#45;&gt;Node16 -->
<g id="edge17" class="edge"><title>Node10&#45;&gt;Node16</title>
<path fill="none" stroke="midnightblue" d="M704.662,-69.0217C856.136,-56.4879 1132.84,-33.4513 1138,-32 1139.98,-31.4442 1141.98,-30.7571 1143.96,-29.9854"/>
<polygon fill="midnightblue" stroke="midnightblue" points="1145.85,-32.9706 1153.49,-25.6376 1142.94,-26.6013 1145.85,-32.9706"/>
</g>
<!-- Node10&#45;&gt;Node17 -->
<g id="edge18" class="edge"><title>Node10&#45;&gt;Node17</title>
<path fill="none" stroke="midnightblue" d="M704.559,-69.1375C709.442,-68.7503 714.278,-68.3693 719,-68 931.398,-51.3912 991.275,-87.3703 1197,-32 1199.34,-31.3707 1201.71,-30.565 1204.05,-29.6546"/>
<polygon fill="midnightblue" stroke="midnightblue" points="1205.61,-32.7915 1213.3,-25.5058 1202.75,-26.4045 1205.61,-32.7915"/>
</g>
<!-- Node18 -->
<g id="node18" class="node"><title>Node18</title>
<polygon fill="none" stroke="#bfbfbf" points="1046.5,-6.5 1046.5,-25.5 1129.5,-25.5 1129.5,-6.5 1046.5,-6.5"/>
<text text-anchor="middle" x="1088" y="-13.5" font-family="Helvetica,sans-Serif" font-size="10.00">unordered_map</text>
</g>
<!-- Node10&#45;&gt;Node18 -->
<g id="edge19" class="edge"><title>Node10&#45;&gt;Node18</title>
<path fill="none" stroke="midnightblue" d="M704.543,-68.8412C810.799,-59.5078 974.677,-43.9715 1036,-32 1041.17,-30.9907 1046.57,-29.7041 1051.85,-28.31"/>
<polygon fill="midnightblue" stroke="midnightblue" points="1053.08,-31.6017 1061.77,-25.5414 1051.19,-24.8596 1053.08,-31.6017"/>
</g>
<!-- Node19 -->
<g id="node19" class="node"><title>Node19</title>
<polygon fill="none" stroke="#bfbfbf" points="123.5,-6.5 123.5,-25.5 220.5,-25.5 220.5,-6.5 123.5,-6.5"/>
<text text-anchor="middle" x="172" y="-13.5" font-family="Helvetica,sans-Serif" font-size="10.00">FairMQMessage.h</text>
</g>
<!-- Node10&#45;&gt;Node19 -->
<g id="edge20" class="edge"><title>Node10&#45;&gt;Node19</title>
<path fill="none" stroke="midnightblue" d="M524.658,-68.4742C430.685,-58.6183 283.844,-42.4197 229,-32 223.204,-30.8988 217.127,-29.5328 211.191,-28.077"/>
<polygon fill="midnightblue" stroke="midnightblue" points="211.961,-24.6615 201.406,-25.5734 210.226,-31.4431 211.961,-24.6615"/>
</g>
<!-- Node20 -->
<g id="node20" class="node"><title>Node20</title>
<polygon fill="none" stroke="#bfbfbf" points="238.5,-6.5 238.5,-25.5 369.5,-25.5 369.5,-6.5 238.5,-6.5"/>
<text text-anchor="middle" x="304" y="-13.5" font-family="Helvetica,sans-Serif" font-size="10.00">FairMQTransportFactory.h</text>
</g>
<!-- Node10&#45;&gt;Node20 -->
<g id="edge21" class="edge"><title>Node10&#45;&gt;Node20</title>
<path fill="none" stroke="midnightblue" d="M564.091,-68.417C517.986,-59.3942 443.385,-44.7645 379,-32 371.664,-30.5457 363.926,-29.0052 356.318,-27.487"/>
<polygon fill="midnightblue" stroke="midnightblue" points="356.927,-24.0396 346.435,-25.5129 355.556,-30.904 356.927,-24.0396"/>
</g>
<!-- Node21&#45;&gt;Node2 -->
<g id="edge23" class="edge"><title>Node21&#45;&gt;Node2</title>
<path fill="none" stroke="midnightblue" d="M365.103,-180.324C379.903,-171.822 402.694,-158.729 419.982,-148.797"/>
<polygon fill="midnightblue" stroke="midnightblue" points="422.007,-151.671 428.935,-143.655 418.52,-145.601 422.007,-151.671"/>
</g>
<!-- Node21&#45;&gt;Node17 -->
<g id="edge26" class="edge"><title>Node21&#45;&gt;Node17</title>
<path fill="none" stroke="midnightblue" d="M390.886,-180.47C459.025,-165.63 599.525,-132.354 713,-88 731.143,-80.9084 733.264,-73.3325 752,-68 942.844,-13.682 1005.54,-84.1016 1197,-32 1199.2,-31.4005 1201.44,-30.6461 1203.65,-29.7963"/>
<polygon fill="midnightblue" stroke="midnightblue" points="1205.27,-32.9061 1212.98,-25.6451 1202.42,-26.5098 1205.27,-32.9061"/>
</g>
<!-- Node22 -->
<g id="node22" class="node"><title>Node22</title>
<polygon fill="none" stroke="#bfbfbf" points="255.5,-124.5 255.5,-143.5 314.5,-143.5 314.5,-124.5 255.5,-124.5"/>
<text text-anchor="middle" x="285" y="-131.5" font-family="Helvetica,sans-Serif" font-size="10.00">functional</text>
</g>
<!-- Node21&#45;&gt;Node22 -->
<g id="edge24" class="edge"><title>Node21&#45;&gt;Node22</title>
<path fill="none" stroke="midnightblue" d="M339.557,-180.324C329.854,-172.263 315.185,-160.077 303.5,-150.369"/>
<polygon fill="midnightblue" stroke="midnightblue" points="305.562,-147.532 295.633,-143.834 301.089,-152.916 305.562,-147.532"/>
</g>
<!-- Node23 -->
<g id="node23" class="node"><title>Node23</title>
<polygon fill="none" stroke="#bfbfbf" points="332.5,-124.5 332.5,-143.5 367.5,-143.5 367.5,-124.5 332.5,-124.5"/>
<text text-anchor="middle" x="350" y="-131.5" font-family="Helvetica,sans-Serif" font-size="10.00">map</text>
</g>
<!-- Node21&#45;&gt;Node23 -->
<g id="edge25" class="edge"><title>Node21&#45;&gt;Node23</title>
<path fill="none" stroke="midnightblue" d="M350,-180.083C350,-173.006 350,-162.861 350,-153.986"/>
<polygon fill="midnightblue" stroke="midnightblue" points="353.5,-153.751 350,-143.751 346.5,-153.751 353.5,-153.751"/>
</g>
<!-- Node24&#45;&gt;Node8 -->
<g id="edge36" class="edge"><title>Node24&#45;&gt;Node8</title>
<path fill="none" stroke="midnightblue" d="M844.666,-239.13C871.629,-233.392 901.925,-222.113 921,-200 943.253,-174.203 951.069,-151.531 931,-124 908.27,-92.8182 863.579,-82.7702 830.782,-79.7702"/>
<polygon fill="midnightblue" stroke="midnightblue" points="830.823,-76.264 820.595,-79.026 830.313,-83.2454 830.823,-76.264"/>
</g>
<!-- Node25 -->
<g id="node25" class="node"><title>Node25</title>
<polygon fill="none" stroke="#bfbfbf" points="979,-180.5 979,-199.5 1067,-199.5 1067,-180.5 979,-180.5"/>
<text text-anchor="middle" x="1023" y="-187.5" font-family="Helvetica,sans-Serif" font-size="10.00">FairMQDevice.h</text>
</g>
<!-- Node24&#45;&gt;Node25 -->
<g id="edge28" class="edge"><title>Node24&#45;&gt;Node25</title>
<path fill="none" stroke="midnightblue" d="M824.395,-236.444C865.392,-227.063 931.254,-211.993 975.784,-201.804"/>
<polygon fill="midnightblue" stroke="midnightblue" points="976.813,-205.159 985.78,-199.516 975.251,-198.335 976.813,-205.159"/>
</g>
<!-- Node26 -->
<g id="node26" class="node"><title>Node26</title>
<polygon fill="none" stroke="#bfbfbf" points="474,-180.5 474,-199.5 620,-199.5 620,-180.5 474,-180.5"/>
<text text-anchor="middle" x="547" y="-187.5" font-family="Helvetica,sans-Serif" font-size="10.00">options/FairMQProgOptions.h</text>
</g>
<!-- Node24&#45;&gt;Node26 -->
<g id="edge29" class="edge"><title>Node24&#45;&gt;Node26</title>
<path fill="none" stroke="midnightblue" d="M748.971,-236.444C707.192,-227.043 640.018,-211.929 594.73,-201.739"/>
<polygon fill="midnightblue" stroke="midnightblue" points="595.375,-198.297 584.851,-199.516 593.839,-205.126 595.375,-198.297"/>
</g>
<!-- Node27 -->
<g id="node27" class="node"><title>Node27</title>
<g id="a_node27"><a xlink:href="../../d7/db2/Utilities_8h.html" target="_top" xlink:title="O2Device/Utilities.h">
<polygon fill="none" stroke="black" points="808,-180.5 808,-199.5 912,-199.5 912,-180.5 808,-180.5"/>
<text text-anchor="middle" x="860" y="-187.5" font-family="Helvetica,sans-Serif" font-size="10.00">O2Device/Utilities.h</text>
</a>
</g>
</g>
<!-- Node24&#45;&gt;Node27 -->
<g id="edge30" class="edge"><title>Node24&#45;&gt;Node27</title>
<path fill="none" stroke="midnightblue" d="M798.729,-236.324C809.837,-228.107 826.742,-215.602 839.983,-205.807"/>
<polygon fill="midnightblue" stroke="midnightblue" points="842.1,-208.595 848.058,-199.834 837.937,-202.967 842.1,-208.595"/>
</g>
<!-- Node29 -->
<g id="node29" class="node"><title>Node29</title>
<polygon fill="none" stroke="#bfbfbf" points="638.5,-180.5 638.5,-199.5 789.5,-199.5 789.5,-180.5 638.5,-180.5"/>
<text text-anchor="middle" x="714" y="-187.5" font-family="Helvetica,sans-Serif" font-size="10.00">Monitoring/MonitoringFactory.h</text>
</g>
<!-- Node24&#45;&gt;Node29 -->
<g id="edge35" class="edge"><title>Node24&#45;&gt;Node29</title>
<path fill="none" stroke="midnightblue" d="M775.271,-236.324C764.163,-228.107 747.258,-215.602 734.017,-205.807"/>
<polygon fill="midnightblue" stroke="midnightblue" points="736.063,-202.967 725.942,-199.834 731.9,-208.595 736.063,-202.967"/>
</g>
<!-- Node27&#45;&gt;Node2 -->
<g id="edge32" class="edge"><title>Node27&#45;&gt;Node2</title>
<path fill="none" stroke="midnightblue" d="M807.914,-181.371C804.56,-180.901 801.233,-180.44 798,-180 698.973,-166.52 584.182,-152.16 512.816,-143.382"/>
<polygon fill="midnightblue" stroke="midnightblue" points="512.961,-139.873 502.609,-142.128 512.107,-146.821 512.961,-139.873"/>
</g>
<!-- Node27&#45;&gt;Node10 -->
<g id="edge31" class="edge"><title>Node27&#45;&gt;Node10</title>
<path fill="none" stroke="midnightblue" d="M840.226,-180.368C795.971,-161.051 688.776,-114.259 636.976,-91.6481"/>
<polygon fill="midnightblue" stroke="midnightblue" points="638.247,-88.3843 627.682,-87.5914 635.447,-94.7998 638.247,-88.3843"/>
</g>
<!-- Node27&#45;&gt;Node16 -->
<g id="edge33" class="edge"><title>Node27&#45;&gt;Node16</title>
<path fill="none" stroke="midnightblue" d="M858.411,-180.32C856.445,-166.711 854.806,-140.235 868,-124 947.954,-25.617 1021.04,-80.904 1138,-32 1139.59,-31.3359 1141.21,-30.6252 1142.84,-29.8875"/>
<polygon fill="midnightblue" stroke="midnightblue" points="1144.49,-32.9779 1151.99,-25.5033 1141.46,-26.664 1144.49,-32.9779"/>
</g>
<!-- Node28 -->
<g id="node28" class="node"><title>Node28</title>
<polygon fill="none" stroke="#bfbfbf" points="877.5,-124.5 877.5,-143.5 922.5,-143.5 922.5,-124.5 877.5,-124.5"/>
<text text-anchor="middle" x="900" y="-131.5" font-family="Helvetica,sans-Serif" font-size="10.00">gsl/gsl</text>
</g>
<!-- Node27&#45;&gt;Node28 -->
<g id="edge34" class="edge"><title>Node27&#45;&gt;Node28</title>
<path fill="none" stroke="midnightblue" d="M866.605,-180.083C872.255,-172.455 880.545,-161.264 887.451,-151.941"/>
<polygon fill="midnightblue" stroke="midnightblue" points="890.378,-153.87 893.518,-143.751 884.753,-149.703 890.378,-153.87"/>
</g>
</g>
</svg>
