<?xml version="1.0" encoding="UTF-8" standalone="no"?>
<!DOCTYPE svg PUBLIC "-//W3C//DTD SVG 1.1//EN"
 "http://www.w3.org/Graphics/SVG/1.1/DTD/svg11.dtd">
<!-- Generated by graphviz version 2.36.0 (20140111.2315)
 -->
<!-- Title: /home/travis/build/AliceO2Group/AliceO2/Framework/Core/src/ConfigParamsHelper.cxx Pages: 1 -->
<svg width="685pt" height="286pt"
 viewBox="0.00 0.00 685.00 286.00" xmlns="http://www.w3.org/2000/svg" xmlns:xlink="http://www.w3.org/1999/xlink">
<g id="graph0" class="graph" transform="scale(1 1) rotate(0) translate(4 282)">
<title>/home/travis/build/AliceO2Group/AliceO2/Framework/Core/src/ConfigParamsHelper.cxx</title>
<!-- Node1 -->
<g id="node1" class="node"><title>Node1</title>
<polygon fill="#bfbfbf" stroke="black" points="350,-225 350,-277 524,-277 524,-225 350,-225"/>
<text text-anchor="start" x="358" y="-265" font-family="Helvetica,sans-Serif" font-size="10.00">/home/travis/build</text>
<text text-anchor="start" x="358" y="-254" font-family="Helvetica,sans-Serif" font-size="10.00">/AliceO2Group/AliceO2</text>
<text text-anchor="start" x="358" y="-243" font-family="Helvetica,sans-Serif" font-size="10.00">/Framework/Core/src/ConfigParams</text>
<text text-anchor="middle" x="437" y="-232" font-family="Helvetica,sans-Serif" font-size="10.00">Helper.cxx</text>
</g>
<!-- Node2 -->
<g id="node2" class="node"><title>Node2</title>
<g id="a_node2"><a xlink:href="../../dd/d2b/ConfigParamsHelper_8h.html" target="_top" xlink:title="Framework/ConfigParamsHelper.h">
<polygon fill="none" stroke="black" points="353.5,-168.5 353.5,-187.5 520.5,-187.5 520.5,-168.5 353.5,-168.5"/>
<text text-anchor="middle" x="437" y="-175.5" font-family="Helvetica,sans-Serif" font-size="10.00">Framework/ConfigParamsHelper.h</text>
</a>
</g>
</g>
<!-- Node1&#45;&gt;Node2 -->
<g id="edge1" class="edge"><title>Node1&#45;&gt;Node2</title>
<path fill="none" stroke="midnightblue" d="M437,-224.768C437,-215.89 437,-206.074 437,-197.816"/>
<polygon fill="midnightblue" stroke="midnightblue" points="440.5,-197.757 437,-187.757 433.5,-197.757 440.5,-197.757"/>
</g>
<!-- Node3 -->
<g id="node3" class="node"><title>Node3</title>
<g id="a_node3"><a xlink:href="../../d0/d1c/ConfigParamSpec_8h.html" target="_top" xlink:title="Framework/ConfigParamSpec.h">
<polygon fill="none" stroke="black" points="231,-112.5 231,-131.5 387,-131.5 387,-112.5 231,-112.5"/>
<text text-anchor="middle" x="309" y="-119.5" font-family="Helvetica,sans-Serif" font-size="10.00">Framework/ConfigParamSpec.h</text>
</a>
</g>
</g>
<!-- Node1&#45;&gt;Node3 -->
<g id="edge16" class="edge"><title>Node1&#45;&gt;Node3</title>
<path fill="none" stroke="midnightblue" d="M390.036,-224.978C374.109,-214.951 357.061,-202.351 344,-188 331.489,-174.253 321.92,-155.22 315.975,-141.303"/>
<polygon fill="midnightblue" stroke="midnightblue" points="319.139,-139.789 312.147,-131.829 312.649,-142.412 319.139,-139.789"/>
</g>
<!-- Node4 -->
<g id="node4" class="node"><title>Node4</title>
<polygon fill="none" stroke="#bfbfbf" points="310.5,-56.5 310.5,-75.5 351.5,-75.5 351.5,-56.5 310.5,-56.5"/>
<text text-anchor="middle" x="331" y="-63.5" font-family="Helvetica,sans-Serif" font-size="10.00">string</text>
</g>
<!-- Node1&#45;&gt;Node4 -->
<g id="edge18" class="edge"><title>Node1&#45;&gt;Node4</title>
<path fill="none" stroke="midnightblue" d="M349.771,-225.967C303.09,-208.17 249.651,-178.718 222,-132 217.472,-124.351 217.057,-119.388 222,-112 226.654,-105.044 269.832,-88.615 300.423,-77.6523"/>
<polygon fill="midnightblue" stroke="midnightblue" points="301.989,-80.8105 310.241,-74.1657 299.646,-74.2141 301.989,-80.8105"/>
</g>
<!-- Node13 -->
<g id="node13" class="node"><title>Node13</title>
<polygon fill="none" stroke="#bfbfbf" points="481,-112.5 481,-131.5 615,-131.5 615,-112.5 481,-112.5"/>
<text text-anchor="middle" x="548" y="-119.5" font-family="Helvetica,sans-Serif" font-size="10.00">boost/program_options.hpp</text>
</g>
<!-- Node1&#45;&gt;Node13 -->
<g id="edge17" class="edge"><title>Node1&#45;&gt;Node13</title>
<path fill="none" stroke="midnightblue" d="M487.585,-224.807C502.751,-215.12 518.204,-202.773 529,-188 538.863,-174.503 543.631,-155.947 545.922,-142.116"/>
<polygon fill="midnightblue" stroke="midnightblue" points="549.442,-142.203 547.32,-131.823 542.505,-141.261 549.442,-142.203"/>
</g>
<!-- Node14 -->
<g id="node14" class="node"><title>Node14</title>
<polygon fill="none" stroke="#bfbfbf" points="633,-112.5 633,-131.5 677,-131.5 677,-112.5 633,-112.5"/>
<text text-anchor="middle" x="655" y="-119.5" font-family="Helvetica,sans-Serif" font-size="10.00">vector</text>
</g>
<!-- Node1&#45;&gt;Node14 -->
<g id="edge19" class="edge"><title>Node1&#45;&gt;Node14</title>
<path fill="none" stroke="midnightblue" d="M483.306,-224.969C503.586,-213.851 527.592,-200.481 549,-188 578.241,-170.952 611.428,-150.403 632.757,-137.037"/>
<polygon fill="midnightblue" stroke="midnightblue" points="634.79,-139.894 641.396,-131.61 631.066,-133.966 634.79,-139.894"/>
</g>
<!-- Node2&#45;&gt;Node3 -->
<g id="edge2" class="edge"><title>Node2&#45;&gt;Node3</title>
<path fill="none" stroke="midnightblue" d="M416.718,-168.444C395.653,-159.557 362.483,-145.563 338.514,-135.451"/>
<polygon fill="midnightblue" stroke="midnightblue" points="339.761,-132.179 329.187,-131.516 337.04,-138.628 339.761,-132.179"/>
</g>
<!-- Node2&#45;&gt;Node4 -->
<g id="edge13" class="edge"><title>Node2&#45;&gt;Node4</title>
<path fill="none" stroke="midnightblue" d="M432.914,-168.242C426.435,-154.99 412.799,-129.534 396,-112 384.31,-99.7983 368.83,-88.9248 355.909,-80.9241"/>
<polygon fill="midnightblue" stroke="midnightblue" points="357.424,-77.752 347.044,-75.6281 353.834,-83.7613 357.424,-77.752"/>
</g>
<!-- Node6 -->
<g id="node6" class="node"><title>Node6</title>
<polygon fill="none" stroke="#bfbfbf" points="422,-0.5 422,-19.5 484,-19.5 484,-0.5 422,-0.5"/>
<text text-anchor="middle" x="453" y="-7.5" font-family="Helvetica,sans-Serif" font-size="10.00">type_traits</text>
</g>
<!-- Node2&#45;&gt;Node6 -->
<g id="edge15" class="edge"><title>Node2&#45;&gt;Node6</title>
<path fill="none" stroke="midnightblue" d="M437.86,-168.075C440.379,-141.945 447.775,-65.2106 451.209,-29.577"/>
<polygon fill="midnightblue" stroke="midnightblue" points="454.699,-29.8578 452.174,-19.5681 447.731,-29.1862 454.699,-29.8578"/>
</g>
<!-- Node2&#45;&gt;Node13 -->
<g id="edge12" class="edge"><title>Node2&#45;&gt;Node13</title>
<path fill="none" stroke="midnightblue" d="M454.834,-168.324C472.716,-159.625 500.475,-146.12 521.046,-136.113"/>
<polygon fill="midnightblue" stroke="midnightblue" points="522.749,-139.177 530.21,-131.655 519.687,-132.882 522.749,-139.177"/>
</g>
<!-- Node2&#45;&gt;Node14 -->
<g id="edge14" class="edge"><title>Node2&#45;&gt;Node14</title>
<path fill="none" stroke="midnightblue" d="M474.738,-168.461C510.528,-160.241 566.033,-147.186 622.819,-132.228"/>
<polygon fill="midnightblue" stroke="midnightblue" points="623.914,-135.558 632.683,-129.613 622.12,-128.792 623.914,-135.558"/>
</g>
<!-- Node3&#45;&gt;Node4 -->
<g id="edge3" class="edge"><title>Node3&#45;&gt;Node4</title>
<path fill="none" stroke="midnightblue" d="M312.633,-112.083C315.612,-104.77 319.926,-94.1814 323.625,-85.1034"/>
<polygon fill="midnightblue" stroke="midnightblue" points="326.903,-86.3326 327.435,-75.7511 320.42,-83.6914 326.903,-86.3326"/>
</g>
<!-- Node5 -->
<g id="node5" class="node"><title>Node5</title>
<g id="a_node5"><a xlink:href="../../de/d56/Variant_8h.html" target="_top" xlink:title="Framework/Variant.h">
<polygon fill="none" stroke="black" points="185.5,-56.5 185.5,-75.5 292.5,-75.5 292.5,-56.5 185.5,-56.5"/>
<text text-anchor="middle" x="239" y="-63.5" font-family="Helvetica,sans-Serif" font-size="10.00">Framework/Variant.h</text>
</a>
</g>
</g>
<!-- Node3&#45;&gt;Node5 -->
<g id="edge4" class="edge"><title>Node3&#45;&gt;Node5</title>
<path fill="none" stroke="midnightblue" d="M297.753,-112.324C287.203,-104.185 271.199,-91.8395 258.558,-82.0874"/>
<polygon fill="midnightblue" stroke="midnightblue" points="260.507,-79.1707 250.451,-75.8339 256.231,-84.7132 260.507,-79.1707"/>
</g>
<!-- Node5&#45;&gt;Node6 -->
<g id="edge5" class="edge"><title>Node5&#45;&gt;Node6</title>
<path fill="none" stroke="midnightblue" d="M272.909,-56.4435C310.61,-46.9302 371.501,-31.5652 411.887,-21.3743"/>
<polygon fill="midnightblue" stroke="midnightblue" points="412.847,-24.7419 421.687,-18.9015 411.134,-17.9546 412.847,-24.7419"/>
</g>
<!-- Node7 -->
<g id="node7" class="node"><title>Node7</title>
<polygon fill="none" stroke="#bfbfbf" points="294,-0.5 294,-19.5 340,-19.5 340,-0.5 294,-0.5"/>
<text text-anchor="middle" x="317" y="-7.5" font-family="Helvetica,sans-Serif" font-size="10.00">cstring</text>
</g>
<!-- Node5&#45;&gt;Node7 -->
<g id="edge6" class="edge"><title>Node5&#45;&gt;Node7</title>
<path fill="none" stroke="midnightblue" d="M251.532,-56.324C263.586,-47.979 282.027,-35.2122 296.269,-25.3524"/>
<polygon fill="midnightblue" stroke="midnightblue" points="298.269,-28.2243 304.499,-19.6545 294.285,-22.469 298.269,-28.2243"/>
</g>
<!-- Node8 -->
<g id="node8" class="node"><title>Node8</title>
<polygon fill="none" stroke="#bfbfbf" points="358,-0.5 358,-19.5 404,-19.5 404,-0.5 358,-0.5"/>
<text text-anchor="middle" x="381" y="-7.5" font-family="Helvetica,sans-Serif" font-size="10.00">cstdint</text>
</g>
<!-- Node5&#45;&gt;Node8 -->
<g id="edge7" class="edge"><title>Node5&#45;&gt;Node8</title>
<path fill="none" stroke="midnightblue" d="M261.5,-56.4435C285.077,-47.4776 322.322,-33.314 348.964,-23.1827"/>
<polygon fill="midnightblue" stroke="midnightblue" points="350.502,-26.3424 358.605,-19.5164 348.014,-19.7995 350.502,-26.3424"/>
</g>
<!-- Node9 -->
<g id="node9" class="node"><title>Node9</title>
<polygon fill="none" stroke="#bfbfbf" points="-0.5,-0.5 -0.5,-19.5 44.5,-19.5 44.5,-0.5 -0.5,-0.5"/>
<text text-anchor="middle" x="22" y="-7.5" font-family="Helvetica,sans-Serif" font-size="10.00">cstdlib</text>
</g>
<!-- Node5&#45;&gt;Node9 -->
<g id="edge8" class="edge"><title>Node5&#45;&gt;Node9</title>
<path fill="none" stroke="midnightblue" d="M201.467,-56.4444C165.87,-48.2137 110.664,-35.149 54.4217,-20.2995"/>
<polygon fill="midnightblue" stroke="midnightblue" points="55.2173,-16.8895 44.6539,-17.705 53.4203,-23.6549 55.2173,-16.8895"/>
</g>
<!-- Node10 -->
<g id="node10" class="node"><title>Node10</title>
<polygon fill="none" stroke="#bfbfbf" points="62.5,-0.5 62.5,-19.5 121.5,-19.5 121.5,-0.5 62.5,-0.5"/>
<text text-anchor="middle" x="92" y="-7.5" font-family="Helvetica,sans-Serif" font-size="10.00">stdexcept</text>
</g>
<!-- Node5&#45;&gt;Node10 -->
<g id="edge9" class="edge"><title>Node5&#45;&gt;Node10</title>
<path fill="none" stroke="midnightblue" d="M215.707,-56.4435C191.193,-47.4381 152.404,-33.1891 124.8,-23.049"/>
<polygon fill="midnightblue" stroke="midnightblue" points="125.777,-19.6793 115.184,-19.5164 123.363,-26.25 125.777,-19.6793"/>
</g>
<!-- Node11 -->
<g id="node11" class="node"><title>Node11</title>
<polygon fill="none" stroke="#bfbfbf" points="139.5,-0.5 139.5,-19.5 184.5,-19.5 184.5,-0.5 139.5,-0.5"/>
<text text-anchor="middle" x="162" y="-7.5" font-family="Helvetica,sans-Serif" font-size="10.00">iosfwd</text>
</g>
<!-- Node5&#45;&gt;Node11 -->
<g id="edge10" class="edge"><title>Node5&#45;&gt;Node11</title>
<path fill="none" stroke="midnightblue" d="M226.629,-56.324C214.842,-48.0577 196.868,-35.4527 182.864,-25.6322"/>
<polygon fill="midnightblue" stroke="midnightblue" points="184.538,-22.5307 174.341,-19.6545 180.518,-28.2619 184.538,-22.5307"/>
</g>
<!-- Node12 -->
<g id="node12" class="node"><title>Node12</title>
<polygon fill="none" stroke="#bfbfbf" points="202.5,-0.5 202.5,-19.5 275.5,-19.5 275.5,-0.5 202.5,-0.5"/>
<text text-anchor="middle" x="239" y="-7.5" font-family="Helvetica,sans-Serif" font-size="10.00">initializer_list</text>
</g>
<!-- Node5&#45;&gt;Node12 -->
<g id="edge11" class="edge"><title>Node5&#45;&gt;Node12</title>
<path fill="none" stroke="midnightblue" d="M239,-56.083C239,-49.0059 239,-38.8611 239,-29.9865"/>
<polygon fill="midnightblue" stroke="midnightblue" points="242.5,-29.751 239,-19.7511 235.5,-29.7511 242.5,-29.751"/>
</g>
</g>
</svg>
