<?xml version="1.0" encoding="UTF-8" standalone="no"?>
<!DOCTYPE svg PUBLIC "-//W3C//DTD SVG 1.1//EN"
 "http://www.w3.org/Graphics/SVG/1.1/DTD/svg11.dtd">
<!-- Generated by graphviz version 2.36.0 (20140111.2315)
 -->
<!-- Title: /home/travis/build/AliceO2Group/AliceO2/Detectors/Base/include/DetectorsBase/Propagator.h Pages: 1 -->
<svg width="1126pt" height="152pt"
 viewBox="0.00 0.00 1126.00 152.00" xmlns="http://www.w3.org/2000/svg" xmlns:xlink="http://www.w3.org/1999/xlink">
<g id="graph0" class="graph" transform="scale(1 1) rotate(0) translate(4 148)">
<title>/home/travis/build/AliceO2Group/AliceO2/Detectors/Base/include/DetectorsBase/Propagator.h</title>
<!-- Node1 -->
<g id="node1" class="node"><title>Node1</title>
<polygon fill="#bfbfbf" stroke="black" points="546.5,-91 546.5,-143 689.5,-143 689.5,-91 546.5,-91"/>
<text text-anchor="start" x="554.5" y="-131" font-family="Helvetica,sans-Serif" font-size="10.00">/home/travis/build</text>
<text text-anchor="start" x="554.5" y="-120" font-family="Helvetica,sans-Serif" font-size="10.00">/AliceO2Group/AliceO2</text>
<text text-anchor="start" x="554.5" y="-109" font-family="Helvetica,sans-Serif" font-size="10.00">/Detectors/Base/include</text>
<text text-anchor="middle" x="618" y="-98" font-family="Helvetica,sans-Serif" font-size="10.00">/DetectorsBase/Propagator.h</text>
</g>
<!-- Node2 -->
<g id="node2" class="node"><title>Node2</title>
<g id="a_node2"><a xlink:href="../../d8/dee/Propagator_8cxx.html" target="_top" xlink:title="/home/travis/build\l/AliceO2Group/AliceO2\l/Detectors/Base/src/Propagator.cxx">
<polygon fill="none" stroke="black" points="-0.5,-6.5 -0.5,-47.5 172.5,-47.5 172.5,-6.5 -0.5,-6.5"/>
<text text-anchor="start" x="7.5" y="-35.5" font-family="Helvetica,sans-Serif" font-size="10.00">/home/travis/build</text>
<text text-anchor="start" x="7.5" y="-24.5" font-family="Helvetica,sans-Serif" font-size="10.00">/AliceO2Group/AliceO2</text>
<text text-anchor="middle" x="86" y="-13.5" font-family="Helvetica,sans-Serif" font-size="10.00">/Detectors/Base/src/Propagator.cxx</text>
</a>
</g>
</g>
<!-- Node1&#45;&gt;Node2 -->
<g id="edge1" class="edge"><title>Node1&#45;&gt;Node2</title>
<path fill="none" stroke="midnightblue" d="M536.432,-107.544C448.252,-97.6782 303.831,-79.4161 181,-54 171.958,-52.129 162.503,-49.8905 153.213,-47.5227"/>
<polygon fill="midnightblue" stroke="midnightblue" points="536.047,-111.022 546.372,-108.647 536.819,-104.065 536.047,-111.022"/>
</g>
<!-- Node3 -->
<g id="node3" class="node"><title>Node3</title>
<g id="a_node3"><a xlink:href="../../dc/d59/MatchTPCITS_8cxx.html" target="_top" xlink:title="/home/travis/build\l/AliceO2Group/AliceO2\l/Detectors/GlobalTracking\l/src/MatchTPCITS.cxx">
<polygon fill="none" stroke="black" points="190.5,-1 190.5,-53 321.5,-53 321.5,-1 190.5,-1"/>
<text text-anchor="start" x="198.5" y="-41" font-family="Helvetica,sans-Serif" font-size="10.00">/home/travis/build</text>
<text text-anchor="start" x="198.5" y="-30" font-family="Helvetica,sans-Serif" font-size="10.00">/AliceO2Group/AliceO2</text>
<text text-anchor="start" x="198.5" y="-19" font-family="Helvetica,sans-Serif" font-size="10.00">/Detectors/GlobalTracking</text>
<text text-anchor="middle" x="256" y="-8" font-family="Helvetica,sans-Serif" font-size="10.00">/src/MatchTPCITS.cxx</text>
</a>
</g>
</g>
<!-- Node1&#45;&gt;Node3 -->
<g id="edge2" class="edge"><title>Node1&#45;&gt;Node3</title>
<path fill="none" stroke="midnightblue" d="M536.181,-101.06C478.409,-89.8468 399.415,-73.1726 331,-54 327.948,-53.1447 324.839,-52.2332 321.708,-51.2825"/>
<polygon fill="midnightblue" stroke="midnightblue" points="535.869,-104.564 546.351,-103.02 537.194,-97.6904 535.869,-104.564"/>
</g>
<!-- Node4 -->
<g id="node4" class="node"><title>Node4</title>
<g id="a_node4"><a xlink:href="../../d7/dca/CookedTracker_8cxx.html" target="_top" xlink:title="Implementation of the &quot;Cooked Matrix&quot; ITS tracker. ">
<polygon fill="none" stroke="black" points="340,-1 340,-53 526,-53 526,-1 340,-1"/>
<text text-anchor="start" x="348" y="-41" font-family="Helvetica,sans-Serif" font-size="10.00">/home/travis/build</text>
<text text-anchor="start" x="348" y="-30" font-family="Helvetica,sans-Serif" font-size="10.00">/AliceO2Group/AliceO2</text>
<text text-anchor="start" x="348" y="-19" font-family="Helvetica,sans-Serif" font-size="10.00">/Detectors/ITSMFT/ITS</text>
<text text-anchor="middle" x="433" y="-8" font-family="Helvetica,sans-Serif" font-size="10.00">/reconstruction/src/CookedTracker.cxx</text>
</a>
</g>
</g>
<!-- Node1&#45;&gt;Node4 -->
<g id="edge3" class="edge"><title>Node1&#45;&gt;Node4</title>
<path fill="none" stroke="midnightblue" d="M555.759,-86.3935C533.017,-75.5755 507.532,-63.453 485.701,-53.0687"/>
<polygon fill="midnightblue" stroke="midnightblue" points="554.453,-89.6478 564.986,-90.7827 557.459,-83.3265 554.453,-89.6478"/>
</g>
<!-- Node5 -->
<g id="node5" class="node"><title>Node5</title>
<g id="a_node5"><a xlink:href="../../d9/d84/run__match__TPCITS_8C.html" target="_top" xlink:title="/home/travis/build\l/AliceO2Group/AliceO2\l/macro/run_match_TPCITS.C">
<polygon fill="none" stroke="black" points="544.5,-6.5 544.5,-47.5 691.5,-47.5 691.5,-6.5 544.5,-6.5"/>
<text text-anchor="start" x="552.5" y="-35.5" font-family="Helvetica,sans-Serif" font-size="10.00">/home/travis/build</text>
<text text-anchor="start" x="552.5" y="-24.5" font-family="Helvetica,sans-Serif" font-size="10.00">/AliceO2Group/AliceO2</text>
<text text-anchor="middle" x="618" y="-13.5" font-family="Helvetica,sans-Serif" font-size="10.00">/macro/run_match_TPCITS.C</text>
</a>
</g>
</g>
<!-- Node1&#45;&gt;Node5 -->
<g id="edge4" class="edge"><title>Node1&#45;&gt;Node5</title>
<path fill="none" stroke="midnightblue" d="M618,-80.5147C618,-69.2575 618,-57.227 618,-47.5249"/>
<polygon fill="midnightblue" stroke="midnightblue" points="614.5,-80.5467 618,-90.5468 621.5,-80.5468 614.5,-80.5467"/>
</g>
<!-- Node6 -->
<g id="node6" class="node"><title>Node6</title>
<g id="a_node6"><a xlink:href="../../dc/d97/run__rec__ca_8C.html" target="_top" xlink:title="/home/travis/build\l/AliceO2Group/AliceO2\l/macro/run_rec_ca.C">
<polygon fill="none" stroke="black" points="710,-6.5 710,-47.5 828,-47.5 828,-6.5 710,-6.5"/>
<text text-anchor="start" x="718" y="-35.5" font-family="Helvetica,sans-Serif" font-size="10.00">/home/travis/build</text>
<text text-anchor="start" x="718" y="-24.5" font-family="Helvetica,sans-Serif" font-size="10.00">/AliceO2Group/AliceO2</text>
<text text-anchor="middle" x="769" y="-13.5" font-family="Helvetica,sans-Serif" font-size="10.00">/macro/run_rec_ca.C</text>
</a>
</g>
</g>
<!-- Node1&#45;&gt;Node6 -->
<g id="edge5" class="edge"><title>Node1&#45;&gt;Node6</title>
<path fill="none" stroke="midnightblue" d="M670.024,-85.6816C691.645,-73.0813 716.118,-58.8186 735.32,-47.6283"/>
<polygon fill="midnightblue" stroke="midnightblue" points="668.148,-82.7236 661.271,-90.7827 671.673,-88.7715 668.148,-82.7236"/>
</g>
<!-- Node7 -->
<g id="node7" class="node"><title>Node7</title>
<g id="a_node7"><a xlink:href="../../d6/db2/run__trac__ca__its_8C.html" target="_top" xlink:title="/home/travis/build\l/AliceO2Group/AliceO2\l/macro/run_trac_ca_its.C">
<polygon fill="none" stroke="black" points="846.5,-6.5 846.5,-47.5 973.5,-47.5 973.5,-6.5 846.5,-6.5"/>
<text text-anchor="start" x="854.5" y="-35.5" font-family="Helvetica,sans-Serif" font-size="10.00">/home/travis/build</text>
<text text-anchor="start" x="854.5" y="-24.5" font-family="Helvetica,sans-Serif" font-size="10.00">/AliceO2Group/AliceO2</text>
<text text-anchor="middle" x="910" y="-13.5" font-family="Helvetica,sans-Serif" font-size="10.00">/macro/run_trac_ca_its.C</text>
</a>
</g>
</g>
<!-- Node1&#45;&gt;Node7 -->
<g id="edge6" class="edge"><title>Node1&#45;&gt;Node7</title>
<path fill="none" stroke="midnightblue" d="M699.621,-94.2759C740.979,-82.9185 791.87,-68.4077 837,-54 843.28,-51.9951 849.83,-49.8052 856.317,-47.5745"/>
<polygon fill="midnightblue" stroke="midnightblue" points="698.588,-90.93 689.866,-96.945 700.435,-97.6818 698.588,-90.93"/>
</g>
<!-- Node8 -->
<g id="node8" class="node"><title>Node8</title>
<g id="a_node8"><a xlink:href="../../d4/da9/run__vert__ca__its_8C.html" target="_top" xlink:title="/home/travis/build\l/AliceO2Group/AliceO2\l/macro/run_vert_ca_its.C">
<polygon fill="none" stroke="black" points="991.5,-6.5 991.5,-47.5 1118.5,-47.5 1118.5,-6.5 991.5,-6.5"/>
<text text-anchor="start" x="999.5" y="-35.5" font-family="Helvetica,sans-Serif" font-size="10.00">/home/travis/build</text>
<text text-anchor="start" x="999.5" y="-24.5" font-family="Helvetica,sans-Serif" font-size="10.00">/AliceO2Group/AliceO2</text>
<text text-anchor="middle" x="1055" y="-13.5" font-family="Helvetica,sans-Serif" font-size="10.00">/macro/run_vert_ca_its.C</text>
</a>
</g>
</g>
<!-- Node1&#45;&gt;Node8 -->
<g id="edge7" class="edge"><title>Node1&#45;&gt;Node8</title>
<path fill="none" stroke="midnightblue" d="M699.809,-106.196C774.151,-96.3145 886.478,-78.9443 982,-54 989.029,-52.1644 996.341,-49.9464 1003.5,-47.5889"/>
<polygon fill="midnightblue" stroke="midnightblue" points="699.036,-102.768 689.577,-107.541 699.948,-109.708 699.036,-102.768"/>
</g>
</g>
</svg>
