<?xml version="1.0" encoding="UTF-8" standalone="no"?>
<!DOCTYPE svg PUBLIC "-//W3C//DTD SVG 1.1//EN"
 "http://www.w3.org/Graphics/SVG/1.1/DTD/svg11.dtd">
<!-- Generated by graphviz version 2.36.0 (20140111.2315)
 -->
<!-- Title: /home/travis/build/AliceO2Group/AliceO2/Algorithm/include/Algorithm/HeaderStack.h Pages: 1 -->
<!--zoomable 242 -->
<svg id="main" version="1.1" xmlns="http://www.w3.org/2000/svg" xmlns:xlink="http://www.w3.org/1999/xlink" xml:space="preserve" onload="init(evt)">
<style type="text/css"><![CDATA[
.edge:hover path { stroke: red; }
.edge:hover polygon { stroke: red; fill: red; }
]]></style>
<script type="text/javascript"><![CDATA[
var edges = document.getElementsByTagName('g');
if (edges && edges.length) {
  for (var i=0;i<edges.length;i++) {
    if (edges[i].id.substr(0,4)=='edge') {
      edges[i].setAttribute('class','edge');
    }
  }
}
]]></script>
        <defs>
                <circle id="rim" cx="0" cy="0" r="7"/>
                <circle id="rim2" cx="0" cy="0" r="3.5"/>
                <g id="zoomPlus">
                        <use xlink:href="#rim" fill="#404040">
                                <set attributeName="fill" to="#808080" begin="zoomplus.mouseover" end="zoomplus.mouseout"/>
                        </use>
                        <path d="M-4,0h8M0,-4v8" fill="none" stroke="white" stroke-width="1.5" pointer-events="none"/>
                </g>
                <g id="zoomMin">
                        <use xlink:href="#rim" fill="#404040">
                                <set attributeName="fill" to="#808080" begin="zoomminus.mouseover" end="zoomminus.mouseout"/>
                        </use>
                        <path d="M-4,0h8" fill="none" stroke="white" stroke-width="1.5" pointer-events="none"/>
                </g>
                <g id="dirArrow">
                        <path fill="none" stroke="white" stroke-width="1.5" d="M0,-3.0v7 M-2.5,-0.5L0,-3.0L2.5,-0.5"/>
                </g>
               <g id="resetDef">
                       <use xlink:href="#rim2" fill="#404040">
                               <set attributeName="fill" to="#808080" begin="reset.mouseover" end="reset.mouseout"/>
                       </use>
               </g>
        </defs>

<script type="text/javascript">
var viewWidth = 1258;
var viewHeight = 242;
var sectionId = 'dynsection-0';
</script>
<script xlink:href="../../svgpan.js"/>
<svg id="graph" class="graph">
<g id="viewport">
<title>/home/travis/build/AliceO2Group/AliceO2/Algorithm/include/Algorithm/HeaderStack.h</title>
<!-- Node1 -->
<g id="node1" class="node"><title>Node1</title>
<polygon fill="#bfbfbf" stroke="black" points="188.5,-181 188.5,-233 327.5,-233 327.5,-181 188.5,-181"/>
<text text-anchor="start" x="196.5" y="-221" font-family="Helvetica,sans-Serif" font-size="10.00">/home/travis/build</text>
<text text-anchor="start" x="196.5" y="-210" font-family="Helvetica,sans-Serif" font-size="10.00">/AliceO2Group/AliceO2</text>
<text text-anchor="start" x="196.5" y="-199" font-family="Helvetica,sans-Serif" font-size="10.00">/Algorithm/include/Algorithm</text>
<text text-anchor="middle" x="258" y="-188" font-family="Helvetica,sans-Serif" font-size="10.00">/HeaderStack.h</text>
</g>
<!-- Node2 -->
<g id="node2" class="node"><title>Node2</title>
<g id="a_node2"><a xlink:href="../../dc/dcd/DataHeader_8h.html" target="_top" xlink:title="Headers/DataHeader.h">
<polygon fill="none" stroke="black" points="199.5,-124.5 199.5,-143.5 316.5,-143.5 316.5,-124.5 199.5,-124.5"/>
<text text-anchor="middle" x="258" y="-131.5" font-family="Helvetica,sans-Serif" font-size="10.00">Headers/DataHeader.h</text>
</a>
</g>
</g>
<!-- Node1&#45;&gt;Node2 -->
<g id="edge1" class="edge"><title>Node1&#45;&gt;Node2</title>
<path fill="none" stroke="midnightblue" d="M258,-180.768C258,-171.89 258,-162.074 258,-153.816"/>
<polygon fill="midnightblue" stroke="midnightblue" points="261.5,-153.757 258,-143.757 254.5,-153.757 261.5,-153.757"/>
</g>
<!-- Node3 -->
<g id="node3" class="node"><title>Node3</title>
<polygon fill="none" stroke="#bfbfbf" points="27,-68.5 27,-87.5 73,-87.5 73,-68.5 27,-68.5"/>
<text text-anchor="middle" x="50" y="-75.5" font-family="Helvetica,sans-Serif" font-size="10.00">cstdint</text>
</g>
<!-- Node2&#45;&gt;Node3 -->
<g id="edge2" class="edge"><title>Node2&#45;&gt;Node3</title>
<path fill="none" stroke="midnightblue" d="M223.538,-124.447C190.022,-116.071 137.426,-102.778 82.8937,-88.1947"/>
<polygon fill="midnightblue" stroke="midnightblue" points="83.6194,-84.7657 73.054,-85.5547 81.8054,-91.5266 83.6194,-84.7657"/>
</g>
<!-- Node4 -->
<g id="node4" class="node"><title>Node4</title>
<polygon fill="none" stroke="#bfbfbf" points="91,-68.5 91,-87.5 143,-87.5 143,-68.5 91,-68.5"/>
<text text-anchor="middle" x="117" y="-75.5" font-family="Helvetica,sans-Serif" font-size="10.00">memory</text>
</g>
<!-- Node2&#45;&gt;Node4 -->
<g id="edge3" class="edge"><title>Node2&#45;&gt;Node4</title>
<path fill="none" stroke="midnightblue" d="M235.658,-124.444C212.247,-115.478 175.264,-101.314 148.81,-91.1827"/>
<polygon fill="midnightblue" stroke="midnightblue" points="149.828,-87.8245 139.237,-87.5164 147.324,-94.3615 149.828,-87.8245"/>
</g>
<!-- Node5 -->
<g id="node5" class="node"><title>Node5</title>
<polygon fill="none" stroke="#bfbfbf" points="161.5,-68.5 161.5,-87.5 210.5,-87.5 210.5,-68.5 161.5,-68.5"/>
<text text-anchor="middle" x="186" y="-75.5" font-family="Helvetica,sans-Serif" font-size="10.00">cassert</text>
</g>
<!-- Node2&#45;&gt;Node5 -->
<g id="edge4" class="edge"><title>Node2&#45;&gt;Node5</title>
<path fill="none" stroke="midnightblue" d="M246.432,-124.324C235.58,-116.185 219.119,-103.839 206.117,-94.0874"/>
<polygon fill="midnightblue" stroke="midnightblue" points="207.879,-91.0339 197.779,-87.8339 203.679,-96.6339 207.879,-91.0339"/>
</g>
<!-- Node6 -->
<g id="node6" class="node"><title>Node6</title>
<polygon fill="none" stroke="#bfbfbf" points="0,-6.5 0,-25.5 46,-25.5 46,-6.5 0,-6.5"/>
<text text-anchor="middle" x="23" y="-13.5" font-family="Helvetica,sans-Serif" font-size="10.00">cstring</text>
</g>
<!-- Node2&#45;&gt;Node6 -->
<g id="edge5" class="edge"><title>Node2&#45;&gt;Node6</title>
<path fill="none" stroke="midnightblue" d="M255.305,-124.283C250.457,-110.126 238.876,-82.2868 219,-68 158.405,-24.4446 125.665,-55.9845 55,-32 52.8757,-31.279 50.7054,-30.458 48.5457,-29.5802"/>
<polygon fill="midnightblue" stroke="midnightblue" points="49.8811,-26.3438 39.3197,-25.503 47.0515,-32.7465 49.8811,-26.3438"/>
</g>
<!-- Node7 -->
<g id="node7" class="node"><title>Node7</title>
<polygon fill="none" stroke="#bfbfbf" points="517,-68.5 517,-87.5 573,-87.5 573,-68.5 517,-68.5"/>
<text text-anchor="middle" x="545" y="-75.5" font-family="Helvetica,sans-Serif" font-size="10.00">algorithm</text>
</g>
<!-- Node2&#45;&gt;Node7 -->
<g id="edge6" class="edge"><title>Node2&#45;&gt;Node7</title>
<path fill="none" stroke="midnightblue" d="M309.661,-124.497C360.13,-115.994 439.054,-102.175 507,-88 507.1,-87.9792 507.199,-87.9584 507.299,-87.9375"/>
<polygon fill="midnightblue" stroke="midnightblue" points="507.796,-91.4116 516.816,-85.8532 506.299,-84.5737 507.796,-91.4116"/>
</g>
<!-- Node8 -->
<g id="node8" class="node"><title>Node8</title>
<polygon fill="none" stroke="#bfbfbf" points="591.5,-68.5 591.5,-87.5 650.5,-87.5 650.5,-68.5 591.5,-68.5"/>
<text text-anchor="middle" x="621" y="-75.5" font-family="Helvetica,sans-Serif" font-size="10.00">stdexcept</text>
</g>
<!-- Node2&#45;&gt;Node8 -->
<g id="edge7" class="edge"><title>Node2&#45;&gt;Node8</title>
<path fill="none" stroke="midnightblue" d="M316.583,-126.32C381.475,-118.576 489.087,-104.713 581,-88 581.105,-87.9809 581.21,-87.9617 581.316,-87.9424"/>
<polygon fill="midnightblue" stroke="midnightblue" points="582.218,-91.3319 591.349,-85.9589 580.86,-84.4649 582.218,-91.3319"/>
</g>
<!-- Node9 -->
<g id="node9" class="node"><title>Node9</title>
<polygon fill="none" stroke="#bfbfbf" points="64.5,-6.5 64.5,-25.5 105.5,-25.5 105.5,-6.5 64.5,-6.5"/>
<text text-anchor="middle" x="85" y="-13.5" font-family="Helvetica,sans-Serif" font-size="10.00">string</text>
</g>
<!-- Node2&#45;&gt;Node9 -->
<g id="edge8" class="edge"><title>Node2&#45;&gt;Node9</title>
<path fill="none" stroke="midnightblue" d="M260.205,-124.259C263.095,-110.567 266.355,-83.979 253,-68 212.351,-19.3646 174.336,-54.2945 115,-32 113.351,-31.3804 111.673,-30.6979 109.996,-29.9758"/>
<polygon fill="midnightblue" stroke="midnightblue" points="111.145,-26.6491 100.605,-25.5725 108.173,-32.9869 111.145,-26.6491"/>
</g>
<!-- Node10 -->
<g id="node10" class="node"><title>Node10</title>
<g id="a_node10"><a xlink:href="../../dc/d03/MemoryResources_8h.html" target="_top" xlink:title="MemoryResources/MemoryResources.h">
<polygon fill="none" stroke="black" points="305.5,-68.5 305.5,-87.5 498.5,-87.5 498.5,-68.5 305.5,-68.5"/>
<text text-anchor="middle" x="402" y="-75.5" font-family="Helvetica,sans-Serif" font-size="10.00">MemoryResources/MemoryResources.h</text>
</a>
</g>
</g>
<!-- Node2&#45;&gt;Node10 -->
<g id="edge9" class="edge"><title>Node2&#45;&gt;Node10</title>
<path fill="none" stroke="midnightblue" d="M280.817,-124.444C304.832,-115.438 342.829,-101.189 369.869,-91.049"/>
<polygon fill="midnightblue" stroke="midnightblue" points="371.155,-94.3049 379.29,-87.5164 368.697,-87.7506 371.155,-94.3049"/>
</g>
<!-- Node10&#45;&gt;Node6 -->
<g id="edge14" class="edge"><title>Node10&#45;&gt;Node6</title>
<path fill="none" stroke="midnightblue" d="M305.372,-72.4835C234.833,-67.2673 137.523,-56.0563 55,-32 52.7138,-31.3335 50.3852,-30.5244 48.0797,-29.6311"/>
<polygon fill="midnightblue" stroke="midnightblue" points="49.4659,-26.4173 38.8999,-25.6356 46.6722,-32.8357 49.4659,-26.4173"/>
</g>
<!-- Node10&#45;&gt;Node9 -->
<g id="edge15" class="edge"><title>Node10&#45;&gt;Node9</title>
<path fill="none" stroke="midnightblue" d="M305.276,-69.3252C248.799,-63.0061 176.728,-51.7452 115,-32 113.087,-31.3879 111.144,-30.6684 109.215,-29.8815"/>
<polygon fill="midnightblue" stroke="midnightblue" points="110.425,-26.5853 99.879,-25.5711 107.491,-32.9406 110.425,-26.5853"/>
</g>
<!-- Node11 -->
<g id="node11" class="node"><title>Node11</title>
<polygon fill="none" stroke="#bfbfbf" points="552,-1 552,-31 652,-31 652,-1 552,-1"/>
<text text-anchor="start" x="560" y="-19" font-family="Helvetica,sans-Serif" font-size="10.00">boost/container/flat</text>
<text text-anchor="middle" x="602" y="-8" font-family="Helvetica,sans-Serif" font-size="10.00">_map.hpp</text>
</g>
<!-- Node10&#45;&gt;Node11 -->
<g id="edge10" class="edge"><title>Node10&#45;&gt;Node11</title>
<path fill="none" stroke="midnightblue" d="M430.655,-68.4035C460.5,-59.4501 508.034,-45.1897 545.474,-33.9579"/>
<polygon fill="midnightblue" stroke="midnightblue" points="546.676,-37.2513 555.249,-31.0253 544.665,-30.5465 546.676,-37.2513"/>
</g>
<!-- Node12 -->
<g id="node12" class="node"><title>Node12</title>
<polygon fill="none" stroke="#bfbfbf" points="670,-1 670,-31 786,-31 786,-1 670,-1"/>
<text text-anchor="start" x="678" y="-19" font-family="Helvetica,sans-Serif" font-size="10.00">boost/container/pmr</text>
<text text-anchor="middle" x="728" y="-8" font-family="Helvetica,sans-Serif" font-size="10.00">/memory_resource.hpp</text>
</g>
<!-- Node10&#45;&gt;Node12 -->
<g id="edge11" class="edge"><title>Node10&#45;&gt;Node12</title>
<path fill="none" stroke="midnightblue" d="M455.712,-68.4435C506.039,-60.2511 583.59,-47.18 660.12,-32.1229"/>
<polygon fill="midnightblue" stroke="midnightblue" points="660.802,-35.5559 669.932,-30.1802 659.442,-28.6892 660.802,-35.5559"/>
</g>
<!-- Node13 -->
<g id="node13" class="node"><title>Node13</title>
<polygon fill="none" stroke="#bfbfbf" points="804,-1 804,-31 960,-31 960,-1 804,-1"/>
<text text-anchor="start" x="812" y="-19" font-family="Helvetica,sans-Serif" font-size="10.00">boost/container/pmr</text>
<text text-anchor="middle" x="882" y="-8" font-family="Helvetica,sans-Serif" font-size="10.00">/monotonic_buffer_resource.hpp</text>
</g>
<!-- Node10&#45;&gt;Node13 -->
<g id="edge12" class="edge"><title>Node10&#45;&gt;Node13</title>
<path fill="none" stroke="midnightblue" d="M488.204,-68.4694C565.414,-60.5146 681.981,-47.7327 793.722,-31.9866"/>
<polygon fill="midnightblue" stroke="midnightblue" points="794.416,-35.4233 803.825,-30.5529 793.432,-28.4928 794.416,-35.4233"/>
</g>
<!-- Node14 -->
<g id="node14" class="node"><title>Node14</title>
<polygon fill="none" stroke="#bfbfbf" points="978.5,-1 978.5,-31 1111.5,-31 1111.5,-1 978.5,-1"/>
<text text-anchor="start" x="986.5" y="-19" font-family="Helvetica,sans-Serif" font-size="10.00">boost/container/pmr</text>
<text text-anchor="middle" x="1045" y="-8" font-family="Helvetica,sans-Serif" font-size="10.00">/polymorphic_allocator.hpp</text>
</g>
<!-- Node10&#45;&gt;Node14 -->
<g id="edge13" class="edge"><title>Node10&#45;&gt;Node14</title>
<path fill="none" stroke="midnightblue" d="M498.761,-68.7573C501.877,-68.5005 504.963,-68.2475 508,-68 709.533,-51.5756 763.663,-59.673 968.176,-32.0018"/>
<polygon fill="midnightblue" stroke="midnightblue" points="968.911,-35.4339 978.346,-30.6132 967.964,-28.4983 968.911,-35.4339"/>
</g>
<!-- Node15 -->
<g id="node15" class="node"><title>Node15</title>
<polygon fill="none" stroke="#bfbfbf" points="1130,-6.5 1130,-25.5 1192,-25.5 1192,-6.5 1130,-6.5"/>
<text text-anchor="middle" x="1161" y="-13.5" font-family="Helvetica,sans-Serif" font-size="10.00">type_traits</text>
</g>
<!-- Node10&#45;&gt;Node15 -->
<g id="edge16" class="edge"><title>Node10&#45;&gt;Node15</title>
<path fill="none" stroke="midnightblue" d="M498.755,-68.6808C501.872,-68.446 504.96,-68.2184 508,-68 779.77,-48.4727 853.221,-87.3971 1120,-32 1123.9,-31.191 1127.92,-30.0829 1131.85,-28.8325"/>
<polygon fill="midnightblue" stroke="midnightblue" points="1133.04,-32.1256 1141.32,-25.5203 1130.73,-25.5181 1133.04,-32.1256"/>
</g>
<!-- Node16 -->
<g id="node16" class="node"><title>Node16</title>
<polygon fill="none" stroke="#bfbfbf" points="1210,-6.5 1210,-25.5 1250,-25.5 1250,-6.5 1210,-6.5"/>
<text text-anchor="middle" x="1230" y="-13.5" font-family="Helvetica,sans-Serif" font-size="10.00">utility</text>
</g>
<!-- Node10&#45;&gt;Node16 -->
<g id="edge17" class="edge"><title>Node10&#45;&gt;Node16</title>
<path fill="none" stroke="midnightblue" d="M498.753,-68.6537C501.871,-68.4268 504.96,-68.2081 508,-68 661.626,-57.4849 1051.1,-71.261 1200,-32 1202.2,-31.421 1204.42,-30.6702 1206.61,-29.8136"/>
<polygon fill="midnightblue" stroke="midnightblue" points="1208.2,-32.9359 1215.83,-25.5836 1205.28,-26.5739 1208.2,-32.9359"/>
</g>
<!-- Node17 -->
<g id="node17" class="node"><title>Node17</title>
<polygon fill="none" stroke="#bfbfbf" points="124,-6.5 124,-25.5 168,-25.5 168,-6.5 124,-6.5"/>
<text text-anchor="middle" x="146" y="-13.5" font-family="Helvetica,sans-Serif" font-size="10.00">vector</text>
</g>
<!-- Node10&#45;&gt;Node17 -->
<g id="edge18" class="edge"><title>Node10&#45;&gt;Node17</title>
<path fill="none" stroke="midnightblue" d="M336.859,-68.4407C291.313,-61.3814 229.491,-49.6298 177,-32 175.087,-31.3575 173.14,-30.6238 171.2,-29.8339"/>
<polygon fill="midnightblue" stroke="midnightblue" points="172.32,-26.4995 161.765,-25.5806 169.443,-32.8811 172.32,-26.4995"/>
</g>
<!-- Node18 -->
<g id="node18" class="node"><title>Node18</title>
<polygon fill="none" stroke="#bfbfbf" points="186.5,-6.5 186.5,-25.5 269.5,-25.5 269.5,-6.5 186.5,-6.5"/>
<text text-anchor="middle" x="228" y="-13.5" font-family="Helvetica,sans-Serif" font-size="10.00">unordered_map</text>
</g>
<!-- Node10&#45;&gt;Node18 -->
<g id="edge19" class="edge"><title>Node10&#45;&gt;Node18</title>
<path fill="none" stroke="midnightblue" d="M377.07,-68.4035C346.964,-58.0222 296.168,-40.5062 262.362,-28.849"/>
<polygon fill="midnightblue" stroke="midnightblue" points="263.478,-25.5318 252.884,-25.5806 261.196,-32.1494 263.478,-25.5318"/>
</g>
<!-- Node19 -->
<g id="node19" class="node"><title>Node19</title>
<polygon fill="none" stroke="#bfbfbf" points="287.5,-6.5 287.5,-25.5 384.5,-25.5 384.5,-6.5 287.5,-6.5"/>
<text text-anchor="middle" x="336" y="-13.5" font-family="Helvetica,sans-Serif" font-size="10.00">FairMQMessage.h</text>
</g>
<!-- Node10&#45;&gt;Node19 -->
<g id="edge20" class="edge"><title>Node10&#45;&gt;Node19</title>
<path fill="none" stroke="midnightblue" d="M392.544,-68.4035C382.252,-59.047 365.584,-43.8948 353.006,-32.4599"/>
<polygon fill="midnightblue" stroke="midnightblue" points="355.192,-29.7176 345.439,-25.5806 350.484,-34.8971 355.192,-29.7176"/>
</g>
<!-- Node20 -->
<g id="node20" class="node"><title>Node20</title>
<polygon fill="none" stroke="#bfbfbf" points="402.5,-6.5 402.5,-25.5 533.5,-25.5 533.5,-6.5 402.5,-6.5"/>
<text text-anchor="middle" x="468" y="-13.5" font-family="Helvetica,sans-Serif" font-size="10.00">FairMQTransportFactory.h</text>
</g>
<!-- Node10&#45;&gt;Node20 -->
<g id="edge21" class="edge"><title>Node10&#45;&gt;Node20</title>
<path fill="none" stroke="midnightblue" d="M411.456,-68.4035C421.748,-59.047 438.416,-43.8948 450.994,-32.4599"/>
<polygon fill="midnightblue" stroke="midnightblue" points="453.516,-34.8971 458.561,-25.5806 448.808,-29.7176 453.516,-34.8971"/>
</g>
</g>
</svg>
        <g id="navigator" transform="translate(0 0)" fill="#404254">
                <rect fill="#f2f5e9" fill-opacity="0.5" stroke="#606060" stroke-width=".5" x="0" y="0" width="60" height="60"/>
                <use id="zoomplus" xlink:href="#zoomPlus" x="17" y="9" onmousedown="handleZoom(evt,'in')"/>
                <use id="zoomminus" xlink:href="#zoomMin" x="42" y="9" onmousedown="handleZoom(evt,'out')"/>
                <use id="reset" xlink:href="#resetDef" x="30" y="36" onmousedown="handleReset()"/>
                <g id="arrowUp" xlink:href="#dirArrow" transform="translate(30 24)" onmousedown="handlePan(0,-1)">
                  <use xlink:href="#rim" fill="#404040">
                        <set attributeName="fill" to="#808080" begin="arrowUp.mouseover" end="arrowUp.mouseout"/>
                  </use>
                  <path fill="none" stroke="white" stroke-width="1.5" d="M0,-3.0v7 M-2.5,-0.5L0,-3.0L2.5,-0.5"/>
                </g>
                <g id="arrowRight" xlink:href="#dirArrow" transform="rotate(90) translate(36 -43)" onmousedown="handlePan(1,0)">
                  <use xlink:href="#rim" fill="#404040">
                        <set attributeName="fill" to="#808080" begin="arrowRight.mouseover" end="arrowRight.mouseout"/>
                  </use>
                  <path fill="none" stroke="white" stroke-width="1.5" d="M0,-3.0v7 M-2.5,-0.5L0,-3.0L2.5,-0.5"/>
                </g>
                <g id="arrowDown" xlink:href="#dirArrow" transform="rotate(180) translate(-30 -48)" onmousedown="handlePan(0,1)">
                  <use xlink:href="#rim" fill="#404040">
                        <set attributeName="fill" to="#808080" begin="arrowDown.mouseover" end="arrowDown.mouseout"/>
                  </use>
                  <path fill="none" stroke="white" stroke-width="1.5" d="M0,-3.0v7 M-2.5,-0.5L0,-3.0L2.5,-0.5"/>
                </g>
                <g id="arrowLeft" xlink:href="#dirArrow" transform="rotate(270) translate(-36 17)" onmousedown="handlePan(-1,0)">
                  <use xlink:href="#rim" fill="#404040">
                        <set attributeName="fill" to="#808080" begin="arrowLeft.mouseover" end="arrowLeft.mouseout"/>
                  </use>
                  <path fill="none" stroke="white" stroke-width="1.5" d="M0,-3.0v7 M-2.5,-0.5L0,-3.0L2.5,-0.5"/>
                </g>
        </g>
        <svg viewBox="0 0 15 15" width="100%" height="30px" preserveAspectRatio="xMaxYMin meet">
         <g id="arrow_out" transform="scale(0.3 0.3)">
          <a xlink:href="HeaderStack_8h__incl_org.svg" target="_base">
           <rect id="button" ry="5" rx="5" y="6" x="6" height="38" width="38"
                fill="#f2f5e9" fill-opacity="0.5" stroke="#606060" stroke-width="1.0"/>
           <path id="arrow"
             d="M 11.500037,31.436501 C 11.940474,20.09759 22.043105,11.32322 32.158766,21.979434 L 37.068811,17.246167 C 37.068811,17.246167 37.088388,32 37.088388,32 L 22.160133,31.978069 C 22.160133,31.978069 26.997745,27.140456 26.997745,27.140456 C 18.528582,18.264221 13.291696,25.230495 11.500037,31.436501 z"
             style="fill:#404040;"/>
          </a>
         </g>
        </svg>
</svg>
