<?xml version="1.0" encoding="UTF-8" standalone="no"?>
<!DOCTYPE svg PUBLIC "-//W3C//DTD SVG 1.1//EN"
 "http://www.w3.org/Graphics/SVG/1.1/DTD/svg11.dtd">
<!-- Generated by graphviz version 2.36.0 (20140111.2315)
 -->
<!-- Title: /home/travis/build/AliceO2Group/AliceO2/Generators/src/GeneratorFactory.cxx Pages: 1 -->
<svg width="1024pt" height="174pt"
 viewBox="0.00 0.00 1024.00 174.00" xmlns="http://www.w3.org/2000/svg" xmlns:xlink="http://www.w3.org/1999/xlink">
<g id="graph0" class="graph" transform="scale(1 1) rotate(0) translate(4 170)">
<title>/home/travis/build/AliceO2Group/AliceO2/Generators/src/GeneratorFactory.cxx</title>
<!-- Node1 -->
<g id="node1" class="node"><title>Node1</title>
<polygon fill="#bfbfbf" stroke="black" points="356,-124.5 356,-165.5 538,-165.5 538,-124.5 356,-124.5"/>
<text text-anchor="start" x="364" y="-153.5" font-family="Helvetica,sans-Serif" font-size="10.00">/home/travis/build</text>
<text text-anchor="start" x="364" y="-142.5" font-family="Helvetica,sans-Serif" font-size="10.00">/AliceO2Group/AliceO2</text>
<text text-anchor="middle" x="447" y="-131.5" font-family="Helvetica,sans-Serif" font-size="10.00">/Generators/src/GeneratorFactory.cxx</text>
</g>
<!-- Node2 -->
<g id="node2" class="node"><title>Node2</title>
<g id="a_node2"><a xlink:href="../../d4/d6f/GeneratorFactory_8h.html" target="_top" xlink:title="Generators/GeneratorFactory.h">
<polygon fill="none" stroke="black" points="0,-62.5 0,-81.5 152,-81.5 152,-62.5 0,-62.5"/>
<text text-anchor="middle" x="76" y="-69.5" font-family="Helvetica,sans-Serif" font-size="10.00">Generators/GeneratorFactory.h</text>
</a>
</g>
</g>
<!-- Node1&#45;&gt;Node2 -->
<g id="edge1" class="edge"><title>Node1&#45;&gt;Node2</title>
<path fill="none" stroke="midnightblue" d="M355.768,-126.541C285.188,-113.033 189.809,-94.7802 130.637,-83.4561"/>
<polygon fill="midnightblue" stroke="midnightblue" points="131.222,-80.0047 120.743,-81.5626 129.906,-86.8799 131.222,-80.0047"/>
</g>
<!-- Node3 -->
<g id="node3" class="node"><title>Node3</title>
<polygon fill="none" stroke="#bfbfbf" points="170,-62.5 170,-81.5 288,-81.5 288,-62.5 170,-62.5"/>
<text text-anchor="middle" x="229" y="-69.5" font-family="Helvetica,sans-Serif" font-size="10.00">FairPrimaryGenerator.h</text>
</g>
<!-- Node1&#45;&gt;Node3 -->
<g id="edge2" class="edge"><title>Node1&#45;&gt;Node3</title>
<path fill="none" stroke="midnightblue" d="M386.853,-124.411C347.678,-111.652 297.888,-95.4359 264.811,-84.6631"/>
<polygon fill="midnightblue" stroke="midnightblue" points="265.705,-81.2734 255.112,-81.5045 263.537,-87.9293 265.705,-81.2734"/>
</g>
<!-- Node4 -->
<g id="node4" class="node"><title>Node4</title>
<polygon fill="none" stroke="#bfbfbf" points="577,-0.5 577,-19.5 661,-19.5 661,-0.5 577,-0.5"/>
<text text-anchor="middle" x="619" y="-7.5" font-family="Helvetica,sans-Serif" font-size="10.00">FairGenerator.h</text>
</g>
<!-- Node1&#45;&gt;Node4 -->
<g id="edge3" class="edge"><title>Node1&#45;&gt;Node4</title>
<path fill="none" stroke="midnightblue" d="M389.748,-124.427C351.279,-108.216 311.554,-83.4541 335,-56 364.222,-21.7836 493.117,-13.4421 566.818,-11.5012"/>
<polygon fill="midnightblue" stroke="midnightblue" points="566.92,-14.9999 576.836,-11.2678 566.757,-8.00178 566.92,-14.9999"/>
</g>
<!-- Node5 -->
<g id="node5" class="node"><title>Node5</title>
<polygon fill="none" stroke="#bfbfbf" points="344.5,-62.5 344.5,-81.5 445.5,-81.5 445.5,-62.5 344.5,-62.5"/>
<text text-anchor="middle" x="395" y="-69.5" font-family="Helvetica,sans-Serif" font-size="10.00">FairBoxGenerator.h</text>
</g>
<!-- Node1&#45;&gt;Node5 -->
<g id="edge4" class="edge"><title>Node1&#45;&gt;Node5</title>
<path fill="none" stroke="midnightblue" d="M432.515,-124.223C424.612,-113.432 414.931,-100.214 407.383,-89.9078"/>
<polygon fill="midnightblue" stroke="midnightblue" points="410.13,-87.7345 401.397,-81.7349 404.482,-91.8706 410.13,-87.7345"/>
</g>
<!-- Node6 -->
<g id="node6" class="node"><title>Node6</title>
<polygon fill="none" stroke="#bfbfbf" points="463.5,-62.5 463.5,-81.5 534.5,-81.5 534.5,-62.5 463.5,-62.5"/>
<text text-anchor="middle" x="499" y="-69.5" font-family="Helvetica,sans-Serif" font-size="10.00">FairLogger.h</text>
</g>
<!-- Node1&#45;&gt;Node6 -->
<g id="edge5" class="edge"><title>Node1&#45;&gt;Node6</title>
<path fill="none" stroke="midnightblue" d="M461.485,-124.223C469.388,-113.432 479.069,-100.214 486.617,-89.9078"/>
<polygon fill="midnightblue" stroke="midnightblue" points="489.518,-91.8706 492.603,-81.7349 483.87,-87.7345 489.518,-91.8706"/>
</g>
<!-- Node7 -->
<g id="node7" class="node"><title>Node7</title>
<g id="a_node7"><a xlink:href="../../d4/dee/SimConfig_8h.html" target="_top" xlink:title="SimConfig/SimConfig.h">
<polygon fill="none" stroke="black" points="874.5,-62.5 874.5,-81.5 993.5,-81.5 993.5,-62.5 874.5,-62.5"/>
<text text-anchor="middle" x="934" y="-69.5" font-family="Helvetica,sans-Serif" font-size="10.00">SimConfig/SimConfig.h</text>
</a>
</g>
</g>
<!-- Node1&#45;&gt;Node7 -->
<g id="edge6" class="edge"><title>Node1&#45;&gt;Node7</title>
<path fill="none" stroke="midnightblue" d="M538.243,-133.931C623.144,-124.051 753.038,-107.636 865,-88 872.222,-86.7333 879.836,-85.2397 887.265,-83.6944"/>
<polygon fill="midnightblue" stroke="midnightblue" points="888.174,-87.0792 897.225,-81.5715 886.715,-80.2329 888.174,-87.0792"/>
</g>
<!-- Node10 -->
<g id="node10" class="node"><title>Node10</title>
<g id="a_node10"><a xlink:href="../../de/daf/GeneratorFromFile_8h.html" target="_top" xlink:title="Generators/GeneratorFrom\lFile.h">
<polygon fill="none" stroke="black" points="552.5,-57 552.5,-87 685.5,-87 685.5,-57 552.5,-57"/>
<text text-anchor="start" x="560.5" y="-75" font-family="Helvetica,sans-Serif" font-size="10.00">Generators/GeneratorFrom</text>
<text text-anchor="middle" x="619" y="-64" font-family="Helvetica,sans-Serif" font-size="10.00">File.h</text>
</a>
</g>
</g>
<!-- Node1&#45;&gt;Node10 -->
<g id="edge9" class="edge"><title>Node1&#45;&gt;Node10</title>
<path fill="none" stroke="midnightblue" d="M494.455,-124.411C519.824,-113.939 550.836,-101.138 575.567,-90.9287"/>
<polygon fill="midnightblue" stroke="midnightblue" points="577.148,-94.0626 585.056,-87.0117 574.477,-87.5922 577.148,-94.0626"/>
</g>
<!-- Node11 -->
<g id="node11" class="node"><title>Node11</title>
<g id="a_node11"><a xlink:href="../../d6/df5/Pythia8Generator_8h.html" target="_top" xlink:title="Generators/Pythia8Generator.h">
<polygon fill="none" stroke="black" points="704,-62.5 704,-81.5 856,-81.5 856,-62.5 704,-62.5"/>
<text text-anchor="middle" x="780" y="-69.5" font-family="Helvetica,sans-Serif" font-size="10.00">Generators/Pythia8Generator.h</text>
</a>
</g>
</g>
<!-- Node1&#45;&gt;Node11 -->
<g id="edge11" class="edge"><title>Node1&#45;&gt;Node11</title>
<path fill="none" stroke="midnightblue" d="M538.434,-124.505C600.219,-111.332 679.446,-94.4394 729.983,-83.6644"/>
<polygon fill="midnightblue" stroke="midnightblue" points="730.953,-87.0361 740.004,-81.5277 729.494,-80.19 730.953,-87.0361"/>
</g>
<!-- Node8 -->
<g id="node8" class="node"><title>Node8</title>
<polygon fill="none" stroke="#bfbfbf" points="808,-0.5 808,-19.5 864,-19.5 864,-0.5 808,-0.5"/>
<text text-anchor="middle" x="836" y="-7.5" font-family="Helvetica,sans-Serif" font-size="10.00">Rtypes.h</text>
</g>
<!-- Node7&#45;&gt;Node8 -->
<g id="edge7" class="edge"><title>Node7&#45;&gt;Node8</title>
<path fill="none" stroke="midnightblue" d="M919.959,-62.4035C903.949,-52.6014 877.55,-36.4385 858.626,-24.8526"/>
<polygon fill="midnightblue" stroke="midnightblue" points="860.371,-21.8172 850.015,-19.5806 856.716,-27.7872 860.371,-21.8172"/>
</g>
<!-- Node9 -->
<g id="node9" class="node"><title>Node9</title>
<polygon fill="none" stroke="#bfbfbf" points="882,-0.5 882,-19.5 1016,-19.5 1016,-0.5 882,-0.5"/>
<text text-anchor="middle" x="949" y="-7.5" font-family="Helvetica,sans-Serif" font-size="10.00">boost/program_options.hpp</text>
</g>
<!-- Node7&#45;&gt;Node9 -->
<g id="edge8" class="edge"><title>Node7&#45;&gt;Node9</title>
<path fill="none" stroke="midnightblue" d="M936.149,-62.4035C938.288,-53.849 941.638,-40.4497 944.381,-29.4762"/>
<polygon fill="midnightblue" stroke="midnightblue" points="947.825,-30.1309 946.855,-19.5806 941.034,-28.4331 947.825,-30.1309"/>
</g>
<!-- Node10&#45;&gt;Node4 -->
<g id="edge10" class="edge"><title>Node10&#45;&gt;Node4</title>
<path fill="none" stroke="midnightblue" d="M619,-56.7808C619,-48.7812 619,-38.6887 619,-30.0168"/>
<polygon fill="midnightblue" stroke="midnightblue" points="622.5,-29.7305 619,-19.7305 615.5,-29.7306 622.5,-29.7305"/>
</g>
<!-- Node11&#45;&gt;Node4 -->
<g id="edge12" class="edge"><title>Node11&#45;&gt;Node4</title>
<path fill="none" stroke="midnightblue" d="M756.933,-62.4035C729.315,-52.1113 682.88,-34.8064 651.604,-23.1504"/>
<polygon fill="midnightblue" stroke="midnightblue" points="652.617,-19.7931 642.025,-19.5806 650.173,-26.3524 652.617,-19.7931"/>
</g>
<!-- Node11&#45;&gt;Node8 -->
<g id="edge13" class="edge"><title>Node11&#45;&gt;Node8</title>
<path fill="none" stroke="midnightblue" d="M788.023,-62.4035C796.59,-53.2252 810.361,-38.4699 820.957,-27.1173"/>
<polygon fill="midnightblue" stroke="midnightblue" points="823.727,-29.2793 827.991,-19.5806 818.61,-24.503 823.727,-29.2793"/>
</g>
<!-- Node12 -->
<g id="node12" class="node"><title>Node12</title>
<polygon fill="none" stroke="#bfbfbf" points="738,-0.5 738,-19.5 790,-19.5 790,-0.5 738,-0.5"/>
<text text-anchor="middle" x="764" y="-7.5" font-family="Helvetica,sans-Serif" font-size="10.00">memory</text>
</g>
<!-- Node11&#45;&gt;Node12 -->
<g id="edge14" class="edge"><title>Node11&#45;&gt;Node12</title>
<path fill="none" stroke="midnightblue" d="M777.708,-62.4035C775.426,-53.849 771.853,-40.4497 768.927,-29.4762"/>
<polygon fill="midnightblue" stroke="midnightblue" points="772.247,-28.3411 766.288,-19.5806 765.483,-30.1448 772.247,-28.3411"/>
</g>
</g>
</svg>
