<?xml version="1.0" encoding="UTF-8" standalone="no"?>
<!DOCTYPE svg PUBLIC "-//W3C//DTD SVG 1.1//EN"
 "http://www.w3.org/Graphics/SVG/1.1/DTD/svg11.dtd">
<!-- Generated by graphviz version 2.36.0 (20140111.2315)
 -->
<!-- Title: /home/travis/build/AliceO2Group/AliceO2/Utilities/aliceHLTwrapper/include/aliceHLTwrapper/MessageFormat.h Pages: 1 -->
<svg width="1258pt" height="308pt"
 viewBox="0.00 0.00 1258.00 308.00" xmlns="http://www.w3.org/2000/svg" xmlns:xlink="http://www.w3.org/1999/xlink">
<g id="graph0" class="graph" transform="scale(1 1) rotate(0) translate(4 304)">
<title>/home/travis/build/AliceO2Group/AliceO2/Utilities/aliceHLTwrapper/include/aliceHLTwrapper/MessageFormat.h</title>
<!-- Node1 -->
<g id="node1" class="node"><title>Node1</title>
<polygon fill="#bfbfbf" stroke="black" points="369.5,-236.5 369.5,-299.5 498.5,-299.5 498.5,-236.5 369.5,-236.5"/>
<text text-anchor="start" x="377.5" y="-287.5" font-family="Helvetica,sans-Serif" font-size="10.00">/home/travis/build</text>
<text text-anchor="start" x="377.5" y="-276.5" font-family="Helvetica,sans-Serif" font-size="10.00">/AliceO2Group/AliceO2</text>
<text text-anchor="start" x="377.5" y="-265.5" font-family="Helvetica,sans-Serif" font-size="10.00">/Utilities/aliceHLTwrapper</text>
<text text-anchor="start" x="377.5" y="-254.5" font-family="Helvetica,sans-Serif" font-size="10.00">/include/aliceHLTwrapper</text>
<text text-anchor="middle" x="434" y="-243.5" font-family="Helvetica,sans-Serif" font-size="10.00">/MessageFormat.h</text>
</g>
<!-- Node2 -->
<g id="node2" class="node"><title>Node2</title>
<g id="a_node2"><a xlink:href="../../d6/d34/AliHLTDataTypes_8h.html" target="_top" xlink:title="Data type declaration for the HLT module. ">
<polygon fill="none" stroke="black" points="223.5,-124.5 223.5,-143.5 326.5,-143.5 326.5,-124.5 223.5,-124.5"/>
<text text-anchor="middle" x="275" y="-131.5" font-family="Helvetica,sans-Serif" font-size="10.00">AliHLTDataTypes.h</text>
</a>
</g>
</g>
<!-- Node1&#45;&gt;Node2 -->
<g id="edge1" class="edge"><title>Node1&#45;&gt;Node2</title>
<path fill="none" stroke="midnightblue" d="M397.123,-236.385C364.626,-209.406 318.638,-171.228 293.383,-150.262"/>
<polygon fill="midnightblue" stroke="midnightblue" points="295.301,-147.305 285.371,-143.61 290.83,-152.691 295.301,-147.305"/>
</g>
<!-- Node3 -->
<g id="node3" class="node"><title>Node3</title>
<g id="a_node3"><a xlink:href="../../d2/de6/HOMERFactory_8h.html" target="_top" xlink:title="HOMERFactory.h">
<polygon fill="none" stroke="black" points="210.5,-180.5 210.5,-199.5 305.5,-199.5 305.5,-180.5 210.5,-180.5"/>
<text text-anchor="middle" x="258" y="-187.5" font-family="Helvetica,sans-Serif" font-size="10.00">HOMERFactory.h</text>
</a>
</g>
</g>
<!-- Node1&#45;&gt;Node3 -->
<g id="edge2" class="edge"><title>Node1&#45;&gt;Node3</title>
<path fill="none" stroke="midnightblue" d="M369.463,-239.132C341.262,-226.954 309.592,-213.278 287.238,-203.625"/>
<polygon fill="midnightblue" stroke="midnightblue" points="288.536,-200.373 277.967,-199.622 285.76,-206.8 288.536,-200.373"/>
</g>
<!-- Node4 -->
<g id="node4" class="node"><title>Node4</title>
<polygon fill="none" stroke="#bfbfbf" points="1206,-6.5 1206,-25.5 1250,-25.5 1250,-6.5 1206,-6.5"/>
<text text-anchor="middle" x="1228" y="-13.5" font-family="Helvetica,sans-Serif" font-size="10.00">vector</text>
</g>
<!-- Node1&#45;&gt;Node4 -->
<g id="edge4" class="edge"><title>Node1&#45;&gt;Node4</title>
<path fill="none" stroke="midnightblue" d="M498.574,-257.842C567.415,-247.247 679.201,-227.643 773,-200 940.36,-150.678 1131.33,-63.0588 1200.88,-30.058"/>
<polygon fill="midnightblue" stroke="midnightblue" points="1202.72,-33.058 1210.24,-25.5964 1199.7,-26.7388 1202.72,-33.058"/>
</g>
<!-- Node5 -->
<g id="node5" class="node"><title>Node5</title>
<polygon fill="none" stroke="#bfbfbf" points="143,-68.5 143,-87.5 189,-87.5 189,-68.5 143,-68.5"/>
<text text-anchor="middle" x="166" y="-75.5" font-family="Helvetica,sans-Serif" font-size="10.00">cstdint</text>
</g>
<!-- Node1&#45;&gt;Node5 -->
<g id="edge5" class="edge"><title>Node1&#45;&gt;Node5</title>
<path fill="none" stroke="midnightblue" d="M420.871,-236.421C405.207,-203.627 375.905,-152.444 335,-124 284.596,-88.9503 258.835,-104.136 199.082,-89.2362"/>
<polygon fill="midnightblue" stroke="midnightblue" points="199.757,-85.7935 189.191,-86.5744 197.937,-92.5529 199.757,-85.7935"/>
</g>
<!-- Node6 -->
<g id="node6" class="node"><title>Node6</title>
<polygon fill="none" stroke="#bfbfbf" points="462,-180.5 462,-199.5 560,-199.5 560,-180.5 462,-180.5"/>
<text text-anchor="middle" x="511" y="-187.5" font-family="Helvetica,sans-Serif" font-size="10.00">boost/signals2.hpp</text>
</g>
<!-- Node1&#45;&gt;Node6 -->
<g id="edge6" class="edge"><title>Node1&#45;&gt;Node6</title>
<path fill="none" stroke="midnightblue" d="M465.319,-236.088C475.52,-226.019 486.418,-215.263 495.01,-206.782"/>
<polygon fill="midnightblue" stroke="midnightblue" points="497.509,-209.234 502.167,-199.718 492.591,-204.252 497.509,-209.234"/>
</g>
<!-- Node7 -->
<g id="node7" class="node"><title>Node7</title>
<g id="a_node7"><a xlink:href="../../dc/dcd/DataHeader_8h.html" target="_top" xlink:title="Headers/DataHeader.h">
<polygon fill="none" stroke="black" points="400.5,-124.5 400.5,-143.5 517.5,-143.5 517.5,-124.5 400.5,-124.5"/>
<text text-anchor="middle" x="459" y="-131.5" font-family="Helvetica,sans-Serif" font-size="10.00">Headers/DataHeader.h</text>
</a>
</g>
</g>
<!-- Node1&#45;&gt;Node7 -->
<g id="edge7" class="edge"><title>Node1&#45;&gt;Node7</title>
<path fill="none" stroke="midnightblue" d="M439.798,-236.385C444.64,-210.82 451.387,-175.199 455.459,-153.695"/>
<polygon fill="midnightblue" stroke="midnightblue" points="458.947,-154.087 457.369,-143.61 452.07,-152.784 458.947,-154.087"/>
</g>
<!-- Node24 -->
<g id="node24" class="node"><title>Node24</title>
<g id="a_node24"><a xlink:href="../../d2/d09/HeartbeatFrame_8h.html" target="_top" xlink:title="Headers/HeartbeatFrame.h">
<polygon fill="none" stroke="black" points="629.5,-180.5 629.5,-199.5 764.5,-199.5 764.5,-180.5 629.5,-180.5"/>
<text text-anchor="middle" x="697" y="-187.5" font-family="Helvetica,sans-Serif" font-size="10.00">Headers/HeartbeatFrame.h</text>
</a>
</g>
</g>
<!-- Node1&#45;&gt;Node24 -->
<g id="edge28" class="edge"><title>Node1&#45;&gt;Node24</title>
<path fill="none" stroke="midnightblue" d="M498.674,-248.311C548.414,-233.937 615.527,-214.544 657.526,-202.407"/>
<polygon fill="midnightblue" stroke="midnightblue" points="658.743,-205.698 667.379,-199.56 656.8,-198.974 658.743,-205.698"/>
</g>
<!-- Node3&#45;&gt;Node2 -->
<g id="edge3" class="edge"><title>Node3&#45;&gt;Node2</title>
<path fill="none" stroke="midnightblue" d="M260.807,-180.083C263.085,-172.849 266.371,-162.409 269.208,-153.397"/>
<polygon fill="midnightblue" stroke="midnightblue" points="272.581,-154.341 272.245,-143.751 265.904,-152.239 272.581,-154.341"/>
</g>
<!-- Node7&#45;&gt;Node5 -->
<g id="edge8" class="edge"><title>Node7&#45;&gt;Node5</title>
<path fill="none" stroke="midnightblue" d="M404.371,-124.447C352.406,-116.063 272.124,-102.467 203,-88 201.726,-87.7334 200.429,-87.4546 199.121,-87.167"/>
<polygon fill="midnightblue" stroke="midnightblue" points="199.57,-83.6791 189.04,-84.848 198.001,-90.5009 199.57,-83.6791"/>
</g>
<!-- Node8 -->
<g id="node8" class="node"><title>Node8</title>
<polygon fill="none" stroke="#bfbfbf" points="646,-68.5 646,-87.5 698,-87.5 698,-68.5 646,-68.5"/>
<text text-anchor="middle" x="672" y="-75.5" font-family="Helvetica,sans-Serif" font-size="10.00">memory</text>
</g>
<!-- Node7&#45;&gt;Node8 -->
<g id="edge9" class="edge"><title>Node7&#45;&gt;Node8</title>
<path fill="none" stroke="midnightblue" d="M492.75,-124.444C531.814,-114.54 595.892,-98.2949 635.92,-88.1471"/>
<polygon fill="midnightblue" stroke="midnightblue" points="636.96,-91.4941 645.794,-85.6439 635.24,-84.7087 636.96,-91.4941"/>
</g>
<!-- Node9 -->
<g id="node9" class="node"><title>Node9</title>
<polygon fill="none" stroke="#bfbfbf" points="716.5,-68.5 716.5,-87.5 765.5,-87.5 765.5,-68.5 716.5,-68.5"/>
<text text-anchor="middle" x="741" y="-75.5" font-family="Helvetica,sans-Serif" font-size="10.00">cassert</text>
</g>
<!-- Node7&#45;&gt;Node9 -->
<g id="edge10" class="edge"><title>Node7&#45;&gt;Node9</title>
<path fill="none" stroke="midnightblue" d="M512.946,-124.478C561.085,-116.588 633.698,-103.988 705.979,-88.0812"/>
<polygon fill="midnightblue" stroke="midnightblue" points="707.171,-91.4016 716.173,-85.8149 705.652,-84.5684 707.171,-91.4016"/>
</g>
<!-- Node10 -->
<g id="node10" class="node"><title>Node10</title>
<polygon fill="none" stroke="#bfbfbf" points="0,-6.5 0,-25.5 46,-25.5 46,-6.5 0,-6.5"/>
<text text-anchor="middle" x="23" y="-13.5" font-family="Helvetica,sans-Serif" font-size="10.00">cstring</text>
</g>
<!-- Node7&#45;&gt;Node10 -->
<g id="edge11" class="edge"><title>Node7&#45;&gt;Node10</title>
<path fill="none" stroke="midnightblue" d="M404.298,-124.461C347.261,-115.156 261.941,-99.9961 231,-88 215.01,-81.8005 213.825,-74.6112 198,-68 137.527,-42.7352 116.732,-54.0094 55,-32 53.0928,-31.32 51.1456,-30.5661 49.2004,-29.7686"/>
<polygon fill="midnightblue" stroke="midnightblue" points="50.2461,-26.4041 39.6851,-25.5585 47.4137,-32.8055 50.2461,-26.4041"/>
</g>
<!-- Node11 -->
<g id="node11" class="node"><title>Node11</title>
<polygon fill="none" stroke="#bfbfbf" points="283,-68.5 283,-87.5 339,-87.5 339,-68.5 283,-68.5"/>
<text text-anchor="middle" x="311" y="-75.5" font-family="Helvetica,sans-Serif" font-size="10.00">algorithm</text>
</g>
<!-- Node7&#45;&gt;Node11 -->
<g id="edge12" class="edge"><title>Node7&#45;&gt;Node11</title>
<path fill="none" stroke="midnightblue" d="M435.549,-124.444C410.867,-115.438 371.815,-101.189 344.023,-91.049"/>
<polygon fill="midnightblue" stroke="midnightblue" points="344.935,-87.6561 334.341,-87.5164 342.536,-94.2321 344.935,-87.6561"/>
</g>
<!-- Node12 -->
<g id="node12" class="node"><title>Node12</title>
<polygon fill="none" stroke="#bfbfbf" points="357.5,-68.5 357.5,-87.5 416.5,-87.5 416.5,-68.5 357.5,-68.5"/>
<text text-anchor="middle" x="387" y="-75.5" font-family="Helvetica,sans-Serif" font-size="10.00">stdexcept</text>
</g>
<!-- Node7&#45;&gt;Node12 -->
<g id="edge13" class="edge"><title>Node7&#45;&gt;Node12</title>
<path fill="none" stroke="midnightblue" d="M447.432,-124.324C436.58,-116.185 420.119,-103.839 407.117,-94.0874"/>
<polygon fill="midnightblue" stroke="midnightblue" points="408.879,-91.0339 398.779,-87.8339 404.679,-96.6339 408.879,-91.0339"/>
</g>
<!-- Node13 -->
<g id="node13" class="node"><title>Node13</title>
<polygon fill="none" stroke="#bfbfbf" points="64.5,-6.5 64.5,-25.5 105.5,-25.5 105.5,-6.5 64.5,-6.5"/>
<text text-anchor="middle" x="85" y="-13.5" font-family="Helvetica,sans-Serif" font-size="10.00">string</text>
</g>
<!-- Node7&#45;&gt;Node13 -->
<g id="edge14" class="edge"><title>Node7&#45;&gt;Node13</title>
<path fill="none" stroke="midnightblue" d="M413.038,-124.445C375.157,-116.773 320.325,-104.23 274,-88 254.108,-81.0311 250.665,-75.5852 231,-68 180.636,-48.5734 165.085,-52.1372 115,-32 113.403,-31.3578 111.774,-30.6639 110.143,-29.9388"/>
<polygon fill="midnightblue" stroke="midnightblue" points="111.506,-26.7115 100.971,-25.5875 108.506,-33.0359 111.506,-26.7115"/>
</g>
<!-- Node14 -->
<g id="node14" class="node"><title>Node14</title>
<g id="a_node14"><a xlink:href="../../dc/d03/MemoryResources_8h.html" target="_top" xlink:title="MemoryResources/MemoryResources.h">
<polygon fill="none" stroke="black" points="434.5,-68.5 434.5,-87.5 627.5,-87.5 627.5,-68.5 434.5,-68.5"/>
<text text-anchor="middle" x="531" y="-75.5" font-family="Helvetica,sans-Serif" font-size="10.00">MemoryResources/MemoryResources.h</text>
</a>
</g>
</g>
<!-- Node7&#45;&gt;Node14 -->
<g id="edge15" class="edge"><title>Node7&#45;&gt;Node14</title>
<path fill="none" stroke="midnightblue" d="M470.568,-124.324C481.42,-116.185 497.881,-103.839 510.883,-94.0874"/>
<polygon fill="midnightblue" stroke="midnightblue" points="513.321,-96.6339 519.221,-87.8339 509.121,-91.0339 513.321,-96.6339"/>
</g>
<!-- Node14&#45;&gt;Node4 -->
<g id="edge24" class="edge"><title>Node14&#45;&gt;Node4</title>
<path fill="none" stroke="midnightblue" d="M627.756,-68.703C630.874,-68.4618 633.961,-68.2268 637,-68 885.268,-49.4679 954.862,-93.9128 1196,-32 1198.5,-31.3591 1201.03,-30.5248 1203.53,-29.5778"/>
<polygon fill="midnightblue" stroke="midnightblue" points="1205.04,-32.7394 1212.81,-25.5373 1202.24,-26.3216 1205.04,-32.7394"/>
</g>
<!-- Node14&#45;&gt;Node10 -->
<g id="edge20" class="edge"><title>Node14&#45;&gt;Node10</title>
<path fill="none" stroke="midnightblue" d="M434.259,-68.7079C300.393,-57.1094 72.9933,-36.9081 55,-32 52.6526,-31.3597 50.2646,-30.5578 47.9049,-29.6598"/>
<polygon fill="midnightblue" stroke="midnightblue" points="49.1072,-26.3662 38.5405,-25.5946 46.3197,-32.7873 49.1072,-26.3662"/>
</g>
<!-- Node14&#45;&gt;Node13 -->
<g id="edge21" class="edge"><title>Node14&#45;&gt;Node13</title>
<path fill="none" stroke="midnightblue" d="M435.706,-68.4881C322.457,-58.091 144.971,-40.8034 115,-32 113.031,-31.4215 111.035,-30.7179 109.057,-29.9347"/>
<polygon fill="midnightblue" stroke="midnightblue" points="110.075,-26.5513 99.5267,-25.5647 107.158,-32.9143 110.075,-26.5513"/>
</g>
<!-- Node15 -->
<g id="node15" class="node"><title>Node15</title>
<polygon fill="none" stroke="#bfbfbf" points="548,-1 548,-31 648,-31 648,-1 548,-1"/>
<text text-anchor="start" x="556" y="-19" font-family="Helvetica,sans-Serif" font-size="10.00">boost/container/flat</text>
<text text-anchor="middle" x="598" y="-8" font-family="Helvetica,sans-Serif" font-size="10.00">_map.hpp</text>
</g>
<!-- Node14&#45;&gt;Node15 -->
<g id="edge16" class="edge"><title>Node14&#45;&gt;Node15</title>
<path fill="none" stroke="midnightblue" d="M540.599,-68.4035C549.419,-60.5051 562.851,-48.4768 574.504,-38.0409"/>
<polygon fill="midnightblue" stroke="midnightblue" points="577.095,-40.4194 582.209,-31.1408 572.425,-35.2047 577.095,-40.4194"/>
</g>
<!-- Node16 -->
<g id="node16" class="node"><title>Node16</title>
<polygon fill="none" stroke="#bfbfbf" points="666,-1 666,-31 782,-31 782,-1 666,-1"/>
<text text-anchor="start" x="674" y="-19" font-family="Helvetica,sans-Serif" font-size="10.00">boost/container/pmr</text>
<text text-anchor="middle" x="724" y="-8" font-family="Helvetica,sans-Serif" font-size="10.00">/memory_resource.hpp</text>
</g>
<!-- Node14&#45;&gt;Node16 -->
<g id="edge17" class="edge"><title>Node14&#45;&gt;Node16</title>
<path fill="none" stroke="midnightblue" d="M558.652,-68.4035C587.33,-59.4882 632.933,-45.311 668.99,-34.1014"/>
<polygon fill="midnightblue" stroke="midnightblue" points="670.375,-37.3363 678.885,-31.0253 668.297,-30.6518 670.375,-37.3363"/>
</g>
<!-- Node17 -->
<g id="node17" class="node"><title>Node17</title>
<polygon fill="none" stroke="#bfbfbf" points="800,-1 800,-31 956,-31 956,-1 800,-1"/>
<text text-anchor="start" x="808" y="-19" font-family="Helvetica,sans-Serif" font-size="10.00">boost/container/pmr</text>
<text text-anchor="middle" x="878" y="-8" font-family="Helvetica,sans-Serif" font-size="10.00">/monotonic_buffer_resource.hpp</text>
</g>
<!-- Node14&#45;&gt;Node17 -->
<g id="edge18" class="edge"><title>Node14&#45;&gt;Node17</title>
<path fill="none" stroke="midnightblue" d="M580.348,-68.4672C634.719,-59.0658 723.25,-43.7579 789.653,-32.2761"/>
<polygon fill="midnightblue" stroke="midnightblue" points="790.439,-35.6922 799.697,-30.5395 789.247,-28.7946 790.439,-35.6922"/>
</g>
<!-- Node18 -->
<g id="node18" class="node"><title>Node18</title>
<polygon fill="none" stroke="#bfbfbf" points="974.5,-1 974.5,-31 1107.5,-31 1107.5,-1 974.5,-1"/>
<text text-anchor="start" x="982.5" y="-19" font-family="Helvetica,sans-Serif" font-size="10.00">boost/container/pmr</text>
<text text-anchor="middle" x="1041" y="-8" font-family="Helvetica,sans-Serif" font-size="10.00">/polymorphic_allocator.hpp</text>
</g>
<!-- Node14&#45;&gt;Node18 -->
<g id="edge19" class="edge"><title>Node14&#45;&gt;Node18</title>
<path fill="none" stroke="midnightblue" d="M622.997,-68.4596C725.72,-58.7549 886.663,-43.0047 964.38,-31.9731"/>
<polygon fill="midnightblue" stroke="midnightblue" points="964.944,-35.4279 974.332,-30.5167 963.931,-28.5016 964.944,-35.4279"/>
</g>
<!-- Node19 -->
<g id="node19" class="node"><title>Node19</title>
<polygon fill="none" stroke="#bfbfbf" points="1126,-6.5 1126,-25.5 1188,-25.5 1188,-6.5 1126,-6.5"/>
<text text-anchor="middle" x="1157" y="-13.5" font-family="Helvetica,sans-Serif" font-size="10.00">type_traits</text>
</g>
<!-- Node14&#45;&gt;Node19 -->
<g id="edge22" class="edge"><title>Node14&#45;&gt;Node19</title>
<path fill="none" stroke="midnightblue" d="M627.76,-68.7457C630.876,-68.4923 633.962,-68.2431 637,-68 849.809,-50.9691 907.33,-77.1034 1116,-32 1119.7,-31.2004 1123.52,-30.1419 1127.26,-28.956"/>
<polygon fill="midnightblue" stroke="midnightblue" points="1128.59,-32.1989 1136.89,-25.6097 1126.3,-25.5869 1128.59,-32.1989"/>
</g>
<!-- Node20 -->
<g id="node20" class="node"><title>Node20</title>
<polygon fill="none" stroke="#bfbfbf" points="124,-6.5 124,-25.5 164,-25.5 164,-6.5 124,-6.5"/>
<text text-anchor="middle" x="144" y="-13.5" font-family="Helvetica,sans-Serif" font-size="10.00">utility</text>
</g>
<!-- Node14&#45;&gt;Node20 -->
<g id="edge23" class="edge"><title>Node14&#45;&gt;Node20</title>
<path fill="none" stroke="midnightblue" d="M434.132,-68.6799C345.156,-60.3381 220.185,-46.6576 173,-32 171.092,-31.4072 169.159,-30.6933 167.245,-29.9029"/>
<polygon fill="midnightblue" stroke="midnightblue" points="168.562,-26.6536 158.029,-25.519 165.556,-32.975 168.562,-26.6536"/>
</g>
<!-- Node21 -->
<g id="node21" class="node"><title>Node21</title>
<polygon fill="none" stroke="#bfbfbf" points="182.5,-6.5 182.5,-25.5 265.5,-25.5 265.5,-6.5 182.5,-6.5"/>
<text text-anchor="middle" x="224" y="-13.5" font-family="Helvetica,sans-Serif" font-size="10.00">unordered_map</text>
</g>
<!-- Node14&#45;&gt;Node21 -->
<g id="edge25" class="edge"><title>Node14&#45;&gt;Node21</title>
<path fill="none" stroke="midnightblue" d="M470.613,-68.4885C418.27,-60.621 340.67,-47.779 274,-32 269.513,-30.9381 264.835,-29.7059 260.219,-28.4129"/>
<polygon fill="midnightblue" stroke="midnightblue" points="260.89,-24.9631 250.31,-25.5281 258.933,-31.684 260.89,-24.9631"/>
</g>
<!-- Node22 -->
<g id="node22" class="node"><title>Node22</title>
<polygon fill="none" stroke="#bfbfbf" points="283.5,-6.5 283.5,-25.5 380.5,-25.5 380.5,-6.5 283.5,-6.5"/>
<text text-anchor="middle" x="332" y="-13.5" font-family="Helvetica,sans-Serif" font-size="10.00">FairMQMessage.h</text>
</g>
<!-- Node14&#45;&gt;Node22 -->
<g id="edge26" class="edge"><title>Node14&#45;&gt;Node22</title>
<path fill="none" stroke="midnightblue" d="M502.488,-68.4035C467.762,-57.9331 408.963,-40.2049 370.308,-28.5501"/>
<polygon fill="midnightblue" stroke="midnightblue" points="371.044,-25.1164 360.459,-25.5806 369.023,-31.8184 371.044,-25.1164"/>
</g>
<!-- Node23 -->
<g id="node23" class="node"><title>Node23</title>
<polygon fill="none" stroke="#bfbfbf" points="398.5,-6.5 398.5,-25.5 529.5,-25.5 529.5,-6.5 398.5,-6.5"/>
<text text-anchor="middle" x="464" y="-13.5" font-family="Helvetica,sans-Serif" font-size="10.00">FairMQTransportFactory.h</text>
</g>
<!-- Node14&#45;&gt;Node23 -->
<g id="edge27" class="edge"><title>Node14&#45;&gt;Node23</title>
<path fill="none" stroke="midnightblue" d="M521.401,-68.4035C510.952,-59.047 494.032,-43.8948 481.264,-32.4599"/>
<polygon fill="midnightblue" stroke="midnightblue" points="483.366,-29.6445 473.582,-25.5806 478.696,-34.8592 483.366,-29.6445"/>
</g>
<!-- Node24&#45;&gt;Node4 -->
<g id="edge32" class="edge"><title>Node24&#45;&gt;Node4</title>
<path fill="none" stroke="midnightblue" d="M709.642,-180.368C730.363,-166.583 773.233,-139.573 813,-124 894.505,-92.0822 1113.39,-60.9464 1196,-32 1197.91,-31.3304 1199.86,-30.5842 1201.81,-29.7923"/>
<polygon fill="midnightblue" stroke="midnightblue" points="1203.59,-32.8317 1211.33,-25.5943 1200.77,-26.4268 1203.59,-32.8317"/>
</g>
<!-- Node24&#45;&gt;Node7 -->
<g id="edge29" class="edge"><title>Node24&#45;&gt;Node7</title>
<path fill="none" stroke="midnightblue" d="M659.288,-180.444C617.857,-171.043 551.243,-155.929 506.333,-145.739"/>
<polygon fill="midnightblue" stroke="midnightblue" points="507.062,-142.316 496.535,-143.516 505.513,-149.142 507.062,-142.316"/>
</g>
<!-- Node25 -->
<g id="node25" class="node"><title>Node25</title>
<polygon fill="none" stroke="#bfbfbf" points="822.5,-124.5 822.5,-143.5 881.5,-143.5 881.5,-124.5 822.5,-124.5"/>
<text text-anchor="middle" x="852" y="-131.5" font-family="Helvetica,sans-Serif" font-size="10.00">functional</text>
</g>
<!-- Node24&#45;&gt;Node25 -->
<g id="edge30" class="edge"><title>Node24&#45;&gt;Node25</title>
<path fill="none" stroke="midnightblue" d="M721.56,-180.444C747.523,-171.399 788.668,-157.064 817.797,-146.916"/>
<polygon fill="midnightblue" stroke="midnightblue" points="819.263,-150.112 827.555,-143.516 816.96,-143.501 819.263,-150.112"/>
</g>
<!-- Node26 -->
<g id="node26" class="node"><title>Node26</title>
<polygon fill="none" stroke="#bfbfbf" points="679.5,-124.5 679.5,-143.5 714.5,-143.5 714.5,-124.5 679.5,-124.5"/>
<text text-anchor="middle" x="697" y="-131.5" font-family="Helvetica,sans-Serif" font-size="10.00">map</text>
</g>
<!-- Node24&#45;&gt;Node26 -->
<g id="edge31" class="edge"><title>Node24&#45;&gt;Node26</title>
<path fill="none" stroke="midnightblue" d="M697,-180.083C697,-173.006 697,-162.861 697,-153.986"/>
<polygon fill="midnightblue" stroke="midnightblue" points="700.5,-153.751 697,-143.751 693.5,-153.751 700.5,-153.751"/>
</g>
</g>
</svg>
