<?xml version="1.0" encoding="UTF-8" standalone="no"?>
<!DOCTYPE svg PUBLIC "-//W3C//DTD SVG 1.1//EN"
 "http://www.w3.org/Graphics/SVG/1.1/DTD/svg11.dtd">
<!-- Generated by graphviz version 2.36.0 (20140111.2315)
 -->
<!-- Title: /home/travis/build/AliceO2Group/AliceO2/Algorithm/test/headerstack.cxx Pages: 1 -->
<svg width="1289pt" height="298pt"
 viewBox="0.00 0.00 1289.00 298.00" xmlns="http://www.w3.org/2000/svg" xmlns:xlink="http://www.w3.org/1999/xlink">
<g id="graph0" class="graph" transform="scale(1 1) rotate(0) translate(4 294)">
<title>/home/travis/build/AliceO2Group/AliceO2/Algorithm/test/headerstack.cxx</title>
<!-- Node1 -->
<g id="node1" class="node"><title>Node1</title>
<polygon fill="#bfbfbf" stroke="black" points="209.5,-248.5 209.5,-289.5 364.5,-289.5 364.5,-248.5 209.5,-248.5"/>
<text text-anchor="start" x="217.5" y="-277.5" font-family="Helvetica,sans-Serif" font-size="10.00">/home/travis/build</text>
<text text-anchor="start" x="217.5" y="-266.5" font-family="Helvetica,sans-Serif" font-size="10.00">/AliceO2Group/AliceO2</text>
<text text-anchor="middle" x="287" y="-255.5" font-family="Helvetica,sans-Serif" font-size="10.00">/Algorithm/test/headerstack.cxx</text>
</g>
<!-- Node2 -->
<g id="node2" class="node"><title>Node2</title>
<polygon fill="none" stroke="#bfbfbf" points="-0.5,-186.5 -0.5,-205.5 118.5,-205.5 118.5,-186.5 -0.5,-186.5"/>
<text text-anchor="middle" x="59" y="-193.5" font-family="Helvetica,sans-Serif" font-size="10.00">boost/test/unit_test.hpp</text>
</g>
<!-- Node1&#45;&gt;Node2 -->
<g id="edge1" class="edge"><title>Node1&#45;&gt;Node2</title>
<path fill="none" stroke="midnightblue" d="M224.094,-248.411C182.946,-235.597 130.598,-219.296 96.007,-208.524"/>
<polygon fill="midnightblue" stroke="midnightblue" points="96.8985,-205.136 86.3101,-205.504 94.8172,-211.819 96.8985,-205.136"/>
</g>
<!-- Node3 -->
<g id="node3" class="node"><title>Node3</title>
<polygon fill="none" stroke="#bfbfbf" points="137,-186.5 137,-205.5 191,-205.5 191,-186.5 137,-186.5"/>
<text text-anchor="middle" x="164" y="-193.5" font-family="Helvetica,sans-Serif" font-size="10.00">iostream</text>
</g>
<!-- Node1&#45;&gt;Node3 -->
<g id="edge2" class="edge"><title>Node1&#45;&gt;Node3</title>
<path fill="none" stroke="midnightblue" d="M253.064,-248.411C232.26,-236.402 206.15,-221.33 187.591,-210.618"/>
<polygon fill="midnightblue" stroke="midnightblue" points="189.304,-207.565 178.893,-205.597 185.804,-213.627 189.304,-207.565"/>
</g>
<!-- Node4 -->
<g id="node4" class="node"><title>Node4</title>
<polygon fill="none" stroke="#bfbfbf" points="209,-186.5 209,-205.5 259,-205.5 259,-186.5 209,-186.5"/>
<text text-anchor="middle" x="234" y="-193.5" font-family="Helvetica,sans-Serif" font-size="10.00">iomanip</text>
</g>
<!-- Node1&#45;&gt;Node4 -->
<g id="edge3" class="edge"><title>Node1&#45;&gt;Node4</title>
<path fill="none" stroke="midnightblue" d="M272.237,-248.223C264.182,-237.432 254.315,-224.214 246.621,-213.908"/>
<polygon fill="midnightblue" stroke="midnightblue" points="249.307,-211.655 240.52,-205.735 243.698,-215.842 249.307,-211.655"/>
</g>
<!-- Node5 -->
<g id="node5" class="node"><title>Node5</title>
<polygon fill="none" stroke="#bfbfbf" points="33,-6.5 33,-25.5 79,-25.5 79,-6.5 33,-6.5"/>
<text text-anchor="middle" x="56" y="-13.5" font-family="Helvetica,sans-Serif" font-size="10.00">cstring</text>
</g>
<!-- Node1&#45;&gt;Node5 -->
<g id="edge4" class="edge"><title>Node1&#45;&gt;Node5</title>
<path fill="none" stroke="midnightblue" d="M286.582,-248.361C285.345,-229.5 281.201,-200.871 268,-180 221.544,-106.554 129.68,-53.3677 83.6498,-30.0808"/>
<polygon fill="midnightblue" stroke="midnightblue" points="85.0695,-26.8781 74.5559,-25.569 81.9583,-33.1488 85.0695,-26.8781"/>
</g>
<!-- Node6 -->
<g id="node6" class="node"><title>Node6</title>
<g id="a_node6"><a xlink:href="../../dc/dcd/DataHeader_8h.html" target="_top" xlink:title="Headers/DataHeader.h">
<polygon fill="none" stroke="black" points="495.5,-124.5 495.5,-143.5 612.5,-143.5 612.5,-124.5 495.5,-124.5"/>
<text text-anchor="middle" x="554" y="-131.5" font-family="Helvetica,sans-Serif" font-size="10.00">Headers/DataHeader.h</text>
</a>
</g>
</g>
<!-- Node1&#45;&gt;Node6 -->
<g id="edge5" class="edge"><title>Node1&#45;&gt;Node6</title>
<path fill="none" stroke="midnightblue" d="M297.782,-248.32C309.953,-228.013 331.67,-196.98 359,-180 396.872,-156.47 445.776,-145.223 485.134,-139.856"/>
<polygon fill="midnightblue" stroke="midnightblue" points="485.701,-143.313 495.182,-138.585 484.822,-136.368 485.701,-143.313"/>
</g>
<!-- Node24 -->
<g id="node24" class="node"><title>Node24</title>
<g id="a_node24"><a xlink:href="../../d6/d2e/NameHeader_8h.html" target="_top" xlink:title="Headers/NameHeader.h">
<polygon fill="none" stroke="black" points="493,-186.5 493,-205.5 615,-205.5 615,-186.5 493,-186.5"/>
<text text-anchor="middle" x="554" y="-193.5" font-family="Helvetica,sans-Serif" font-size="10.00">Headers/NameHeader.h</text>
</a>
</g>
</g>
<!-- Node1&#45;&gt;Node24 -->
<g id="edge26" class="edge"><title>Node1&#45;&gt;Node24</title>
<path fill="none" stroke="midnightblue" d="M360.666,-248.411C409.474,-235.432 471.735,-218.876 512.217,-208.111"/>
<polygon fill="midnightblue" stroke="midnightblue" points="513.254,-211.457 522.018,-205.504 511.455,-204.692 513.254,-211.457"/>
</g>
<!-- Node25 -->
<g id="node25" class="node"><title>Node25</title>
<g id="a_node25"><a xlink:href="../../d5/d11/HeaderStack_8h.html" target="_top" xlink:title="Utilities for the O2 header stack. ">
<polygon fill="none" stroke="black" points="367.5,-181 367.5,-211 468.5,-211 468.5,-181 367.5,-181"/>
<text text-anchor="start" x="375.5" y="-199" font-family="Helvetica,sans-Serif" font-size="10.00">../include/Algorithm</text>
<text text-anchor="middle" x="418" y="-188" font-family="Helvetica,sans-Serif" font-size="10.00">/HeaderStack.h</text>
</a>
</g>
</g>
<!-- Node1&#45;&gt;Node25 -->
<g id="edge29" class="edge"><title>Node1&#45;&gt;Node25</title>
<path fill="none" stroke="midnightblue" d="M323.143,-248.411C341.802,-238.298 364.468,-226.014 382.964,-215.989"/>
<polygon fill="midnightblue" stroke="midnightblue" points="384.818,-218.965 391.942,-211.123 381.483,-212.811 384.818,-218.965"/>
</g>
<!-- Node6&#45;&gt;Node5 -->
<g id="edge9" class="edge"><title>Node6&#45;&gt;Node5</title>
<path fill="none" stroke="midnightblue" d="M566.446,-124.3C583.846,-111.125 611.551,-85.7681 595,-68 556.506,-26.676 142.654,-46.2244 88,-32 85.5061,-31.3509 82.9692,-30.5111 80.4705,-29.5606"/>
<polygon fill="midnightblue" stroke="midnightblue" points="81.7603,-26.3048 71.195,-25.5154 78.962,-32.7211 81.7603,-26.3048"/>
</g>
<!-- Node7 -->
<g id="node7" class="node"><title>Node7</title>
<polygon fill="none" stroke="#bfbfbf" points="893,-68.5 893,-87.5 939,-87.5 939,-68.5 893,-68.5"/>
<text text-anchor="middle" x="916" y="-75.5" font-family="Helvetica,sans-Serif" font-size="10.00">cstdint</text>
</g>
<!-- Node6&#45;&gt;Node7 -->
<g id="edge6" class="edge"><title>Node6&#45;&gt;Node7</title>
<path fill="none" stroke="midnightblue" d="M612.707,-126.68C678.02,-119.23 786.531,-105.601 879,-88 880.279,-87.7566 881.579,-87.4975 882.891,-87.2264"/>
<polygon fill="midnightblue" stroke="midnightblue" points="883.985,-90.5685 892.986,-84.9789 882.464,-83.7358 883.985,-90.5685"/>
</g>
<!-- Node8 -->
<g id="node8" class="node"><title>Node8</title>
<polygon fill="none" stroke="#bfbfbf" points="315,-68.5 315,-87.5 367,-87.5 367,-68.5 315,-68.5"/>
<text text-anchor="middle" x="341" y="-75.5" font-family="Helvetica,sans-Serif" font-size="10.00">memory</text>
</g>
<!-- Node6&#45;&gt;Node8 -->
<g id="edge7" class="edge"><title>Node6&#45;&gt;Node8</title>
<path fill="none" stroke="midnightblue" d="M520.25,-124.444C481.186,-114.54 417.108,-98.2949 377.08,-88.1471"/>
<polygon fill="midnightblue" stroke="midnightblue" points="377.76,-84.7087 367.206,-85.6439 376.04,-91.4941 377.76,-84.7087"/>
</g>
<!-- Node9 -->
<g id="node9" class="node"><title>Node9</title>
<polygon fill="none" stroke="#bfbfbf" points="385.5,-68.5 385.5,-87.5 434.5,-87.5 434.5,-68.5 385.5,-68.5"/>
<text text-anchor="middle" x="410" y="-75.5" font-family="Helvetica,sans-Serif" font-size="10.00">cassert</text>
</g>
<!-- Node6&#45;&gt;Node9 -->
<g id="edge8" class="edge"><title>Node6&#45;&gt;Node9</title>
<path fill="none" stroke="midnightblue" d="M531.183,-124.444C507.168,-115.438 469.171,-101.189 442.131,-91.049"/>
<polygon fill="midnightblue" stroke="midnightblue" points="443.303,-87.7506 432.71,-87.5164 440.845,-94.3049 443.303,-87.7506"/>
</g>
<!-- Node10 -->
<g id="node10" class="node"><title>Node10</title>
<polygon fill="none" stroke="#bfbfbf" points="453,-68.5 453,-87.5 509,-87.5 509,-68.5 453,-68.5"/>
<text text-anchor="middle" x="481" y="-75.5" font-family="Helvetica,sans-Serif" font-size="10.00">algorithm</text>
</g>
<!-- Node6&#45;&gt;Node10 -->
<g id="edge10" class="edge"><title>Node6&#45;&gt;Node10</title>
<path fill="none" stroke="midnightblue" d="M542.271,-124.324C531.163,-116.107 514.258,-103.602 501.017,-93.8069"/>
<polygon fill="midnightblue" stroke="midnightblue" points="503.063,-90.9671 492.942,-87.8339 498.9,-96.5948 503.063,-90.9671"/>
</g>
<!-- Node11 -->
<g id="node11" class="node"><title>Node11</title>
<polygon fill="none" stroke="#bfbfbf" points="527.5,-68.5 527.5,-87.5 586.5,-87.5 586.5,-68.5 527.5,-68.5"/>
<text text-anchor="middle" x="557" y="-75.5" font-family="Helvetica,sans-Serif" font-size="10.00">stdexcept</text>
</g>
<!-- Node6&#45;&gt;Node11 -->
<g id="edge11" class="edge"><title>Node6&#45;&gt;Node11</title>
<path fill="none" stroke="midnightblue" d="M554.495,-124.083C554.889,-117.006 555.452,-106.861 555.945,-97.9865"/>
<polygon fill="midnightblue" stroke="midnightblue" points="559.454,-97.9299 556.514,-87.7511 552.464,-97.5415 559.454,-97.9299"/>
</g>
<!-- Node12 -->
<g id="node12" class="node"><title>Node12</title>
<polygon fill="none" stroke="#bfbfbf" points="1240.5,-6.5 1240.5,-25.5 1281.5,-25.5 1281.5,-6.5 1240.5,-6.5"/>
<text text-anchor="middle" x="1261" y="-13.5" font-family="Helvetica,sans-Serif" font-size="10.00">string</text>
</g>
<!-- Node6&#45;&gt;Node12 -->
<g id="edge12" class="edge"><title>Node6&#45;&gt;Node12</title>
<path fill="none" stroke="midnightblue" d="M612.692,-129.454C672.386,-124.575 766.953,-113.314 845,-88 863.529,-81.9901 865.326,-73.5444 884,-68 1032.64,-23.8691 1082.14,-75.372 1231,-32 1232.97,-31.4258 1234.97,-30.7254 1236.95,-29.9443"/>
<polygon fill="midnightblue" stroke="midnightblue" points="1238.84,-32.925 1246.48,-25.5785 1235.93,-26.5608 1238.84,-32.925"/>
</g>
<!-- Node13 -->
<g id="node13" class="node"><title>Node13</title>
<g id="a_node13"><a xlink:href="../../dc/d03/MemoryResources_8h.html" target="_top" xlink:title="MemoryResources/MemoryResources.h">
<polygon fill="none" stroke="black" points="643.5,-68.5 643.5,-87.5 836.5,-87.5 836.5,-68.5 643.5,-68.5"/>
<text text-anchor="middle" x="740" y="-75.5" font-family="Helvetica,sans-Serif" font-size="10.00">MemoryResources/MemoryResources.h</text>
</a>
</g>
</g>
<!-- Node6&#45;&gt;Node13 -->
<g id="edge13" class="edge"><title>Node6&#45;&gt;Node13</title>
<path fill="none" stroke="midnightblue" d="M583.472,-124.444C615.171,-115.241 665.732,-100.562 700.775,-90.3879"/>
<polygon fill="midnightblue" stroke="midnightblue" points="702.038,-93.6658 710.666,-87.5164 700.086,-86.9434 702.038,-93.6658"/>
</g>
<!-- Node13&#45;&gt;Node5 -->
<g id="edge18" class="edge"><title>Node13&#45;&gt;Node5</title>
<path fill="none" stroke="midnightblue" d="M643.445,-69.0869C638.56,-68.713 633.724,-68.3487 629,-68 388.678,-50.2622 321.342,-92.1766 88,-32 85.5047,-31.3565 82.9668,-30.5204 80.4675,-29.5722"/>
<polygon fill="midnightblue" stroke="midnightblue" points="81.7568,-26.3162 71.1911,-25.5302 78.9605,-32.7334 81.7568,-26.3162"/>
</g>
<!-- Node13&#45;&gt;Node12 -->
<g id="edge19" class="edge"><title>Node13&#45;&gt;Node12</title>
<path fill="none" stroke="midnightblue" d="M836.654,-69.0659C974.31,-57.6322 1212.36,-37.3097 1231,-32 1232.97,-31.4376 1234.97,-30.7457 1236.95,-29.9706"/>
<polygon fill="midnightblue" stroke="midnightblue" points="1238.85,-32.9542 1246.49,-25.6164 1235.94,-26.5867 1238.85,-32.9542"/>
</g>
<!-- Node14 -->
<g id="node14" class="node"><title>Node14</title>
<polygon fill="none" stroke="#bfbfbf" points="97,-1 97,-31 197,-31 197,-1 97,-1"/>
<text text-anchor="start" x="105" y="-19" font-family="Helvetica,sans-Serif" font-size="10.00">boost/container/flat</text>
<text text-anchor="middle" x="147" y="-8" font-family="Helvetica,sans-Serif" font-size="10.00">_map.hpp</text>
</g>
<!-- Node13&#45;&gt;Node14 -->
<g id="edge14" class="edge"><title>Node13&#45;&gt;Node14</title>
<path fill="none" stroke="midnightblue" d="M643.23,-69.0481C504.921,-57.6568 262.051,-37.5484 207.209,-31.5962"/>
<polygon fill="midnightblue" stroke="midnightblue" points="207.449,-28.099 197.092,-30.3337 206.582,-35.0452 207.449,-28.099"/>
</g>
<!-- Node15 -->
<g id="node15" class="node"><title>Node15</title>
<polygon fill="none" stroke="#bfbfbf" points="215,-1 215,-31 331,-31 331,-1 215,-1"/>
<text text-anchor="start" x="223" y="-19" font-family="Helvetica,sans-Serif" font-size="10.00">boost/container/pmr</text>
<text text-anchor="middle" x="273" y="-8" font-family="Helvetica,sans-Serif" font-size="10.00">/memory_resource.hpp</text>
</g>
<!-- Node13&#45;&gt;Node15 -->
<g id="edge15" class="edge"><title>Node13&#45;&gt;Node15</title>
<path fill="none" stroke="midnightblue" d="M643.414,-69.0862C564.604,-61.9451 450.213,-50.0263 341.22,-32.0923"/>
<polygon fill="midnightblue" stroke="midnightblue" points="341.468,-28.5855 331.029,-30.395 340.318,-35.4904 341.468,-28.5855"/>
</g>
<!-- Node16 -->
<g id="node16" class="node"><title>Node16</title>
<polygon fill="none" stroke="#bfbfbf" points="349,-1 349,-31 505,-31 505,-1 349,-1"/>
<text text-anchor="start" x="357" y="-19" font-family="Helvetica,sans-Serif" font-size="10.00">boost/container/pmr</text>
<text text-anchor="middle" x="427" y="-8" font-family="Helvetica,sans-Serif" font-size="10.00">/monotonic_buffer_resource.hpp</text>
</g>
<!-- Node13&#45;&gt;Node16 -->
<g id="edge16" class="edge"><title>Node13&#45;&gt;Node16</title>
<path fill="none" stroke="midnightblue" d="M695.487,-68.4672C647.464,-59.2614 569.896,-44.3921 510.453,-32.9975"/>
<polygon fill="midnightblue" stroke="midnightblue" points="510.808,-29.5018 500.328,-31.0565 509.49,-36.3767 510.808,-29.5018"/>
</g>
<!-- Node17 -->
<g id="node17" class="node"><title>Node17</title>
<polygon fill="none" stroke="#bfbfbf" points="523.5,-1 523.5,-31 656.5,-31 656.5,-1 523.5,-1"/>
<text text-anchor="start" x="531.5" y="-19" font-family="Helvetica,sans-Serif" font-size="10.00">boost/container/pmr</text>
<text text-anchor="middle" x="590" y="-8" font-family="Helvetica,sans-Serif" font-size="10.00">/polymorphic_allocator.hpp</text>
</g>
<!-- Node13&#45;&gt;Node17 -->
<g id="edge17" class="edge"><title>Node13&#45;&gt;Node17</title>
<path fill="none" stroke="midnightblue" d="M718.509,-68.4035C696.697,-59.6787 662.286,-45.9145 634.56,-34.824"/>
<polygon fill="midnightblue" stroke="midnightblue" points="635.648,-31.4896 625.063,-31.0253 633.048,-37.989 635.648,-31.4896"/>
</g>
<!-- Node18 -->
<g id="node18" class="node"><title>Node18</title>
<polygon fill="none" stroke="#bfbfbf" points="675,-6.5 675,-25.5 737,-25.5 737,-6.5 675,-6.5"/>
<text text-anchor="middle" x="706" y="-13.5" font-family="Helvetica,sans-Serif" font-size="10.00">type_traits</text>
</g>
<!-- Node13&#45;&gt;Node18 -->
<g id="edge20" class="edge"><title>Node13&#45;&gt;Node18</title>
<path fill="none" stroke="midnightblue" d="M735.129,-68.4035C730.13,-59.5816 722.211,-45.6075 715.891,-34.4548"/>
<polygon fill="midnightblue" stroke="midnightblue" points="718.838,-32.5553 710.862,-25.5806 712.747,-36.0064 718.838,-32.5553"/>
</g>
<!-- Node19 -->
<g id="node19" class="node"><title>Node19</title>
<polygon fill="none" stroke="#bfbfbf" points="755,-6.5 755,-25.5 795,-25.5 795,-6.5 755,-6.5"/>
<text text-anchor="middle" x="775" y="-13.5" font-family="Helvetica,sans-Serif" font-size="10.00">utility</text>
</g>
<!-- Node13&#45;&gt;Node19 -->
<g id="edge21" class="edge"><title>Node13&#45;&gt;Node19</title>
<path fill="none" stroke="midnightblue" d="M745.015,-68.4035C750.161,-59.5816 758.312,-45.6075 764.818,-34.4548"/>
<polygon fill="midnightblue" stroke="midnightblue" points="767.979,-35.982 769.995,-25.5806 761.933,-32.4548 767.979,-35.982"/>
</g>
<!-- Node20 -->
<g id="node20" class="node"><title>Node20</title>
<polygon fill="none" stroke="#bfbfbf" points="813,-6.5 813,-25.5 857,-25.5 857,-6.5 813,-6.5"/>
<text text-anchor="middle" x="835" y="-13.5" font-family="Helvetica,sans-Serif" font-size="10.00">vector</text>
</g>
<!-- Node13&#45;&gt;Node20 -->
<g id="edge22" class="edge"><title>Node13&#45;&gt;Node20</title>
<path fill="none" stroke="midnightblue" d="M753.611,-68.4035C769.061,-58.646 794.49,-42.5854 812.816,-31.0109"/>
<polygon fill="midnightblue" stroke="midnightblue" points="814.828,-33.8798 821.414,-25.5806 811.09,-27.9613 814.828,-33.8798"/>
</g>
<!-- Node21 -->
<g id="node21" class="node"><title>Node21</title>
<polygon fill="none" stroke="#bfbfbf" points="875.5,-6.5 875.5,-25.5 958.5,-25.5 958.5,-6.5 875.5,-6.5"/>
<text text-anchor="middle" x="917" y="-13.5" font-family="Helvetica,sans-Serif" font-size="10.00">unordered_map</text>
</g>
<!-- Node13&#45;&gt;Node21 -->
<g id="edge23" class="edge"><title>Node13&#45;&gt;Node21</title>
<path fill="none" stroke="midnightblue" d="M765.36,-68.4035C795.984,-58.0222 847.657,-40.5062 882.046,-28.849"/>
<polygon fill="midnightblue" stroke="midnightblue" points="883.34,-32.1058 891.687,-25.5806 881.093,-25.4763 883.34,-32.1058"/>
</g>
<!-- Node22 -->
<g id="node22" class="node"><title>Node22</title>
<polygon fill="none" stroke="#bfbfbf" points="976.5,-6.5 976.5,-25.5 1073.5,-25.5 1073.5,-6.5 976.5,-6.5"/>
<text text-anchor="middle" x="1025" y="-13.5" font-family="Helvetica,sans-Serif" font-size="10.00">FairMQMessage.h</text>
</g>
<!-- Node13&#45;&gt;Node22 -->
<g id="edge24" class="edge"><title>Node13&#45;&gt;Node22</title>
<path fill="none" stroke="midnightblue" d="M787.12,-68.4751C833.148,-59.9557 905.112,-46.1247 967,-32 972.387,-30.7705 978.036,-29.4054 983.606,-28.0138"/>
<polygon fill="midnightblue" stroke="midnightblue" points="984.645,-31.3611 993.473,-25.504 982.919,-24.5771 984.645,-31.3611"/>
</g>
<!-- Node23 -->
<g id="node23" class="node"><title>Node23</title>
<polygon fill="none" stroke="#bfbfbf" points="1091.5,-6.5 1091.5,-25.5 1222.5,-25.5 1222.5,-6.5 1091.5,-6.5"/>
<text text-anchor="middle" x="1157" y="-13.5" font-family="Helvetica,sans-Serif" font-size="10.00">FairMQTransportFactory.h</text>
</g>
<!-- Node13&#45;&gt;Node23 -->
<g id="edge25" class="edge"><title>Node13&#45;&gt;Node23</title>
<path fill="none" stroke="midnightblue" d="M815.944,-68.4768C885.391,-60.3343 990.866,-47.0919 1082,-32 1090.1,-30.6582 1098.67,-29.0891 1107,-27.481"/>
<polygon fill="midnightblue" stroke="midnightblue" points="1107.86,-30.8781 1117,-25.5127 1106.51,-24.0099 1107.86,-30.8781"/>
</g>
<!-- Node24&#45;&gt;Node6 -->
<g id="edge28" class="edge"><title>Node24&#45;&gt;Node6</title>
<path fill="none" stroke="midnightblue" d="M554,-186.403C554,-177.938 554,-164.728 554,-153.82"/>
<polygon fill="midnightblue" stroke="midnightblue" points="557.5,-153.581 554,-143.581 550.5,-153.581 557.5,-153.581"/>
</g>
<!-- Node24&#45;&gt;Node12 -->
<g id="edge27" class="edge"><title>Node24&#45;&gt;Node12</title>
<path fill="none" stroke="midnightblue" d="M607.002,-186.477C722.7,-166.961 1005.57,-114.277 1231,-32 1232.65,-31.3961 1234.34,-30.7254 1236.02,-30.0122"/>
<polygon fill="midnightblue" stroke="midnightblue" points="1237.83,-33.0284 1245.42,-25.6313 1234.87,-26.6837 1237.83,-33.0284"/>
</g>
<!-- Node25&#45;&gt;Node6 -->
<g id="edge30" class="edge"><title>Node25&#45;&gt;Node6</title>
<path fill="none" stroke="midnightblue" d="M449.886,-180.933C472.728,-170.855 503.23,-157.399 525.31,-147.657"/>
<polygon fill="midnightblue" stroke="midnightblue" points="526.77,-150.839 534.507,-143.6 523.945,-144.434 526.77,-150.839"/>
</g>
</g>
</svg>
