<?xml version="1.0" encoding="UTF-8" standalone="no"?>
<!DOCTYPE svg PUBLIC "-//W3C//DTD SVG 1.1//EN"
 "http://www.w3.org/Graphics/SVG/1.1/DTD/svg11.dtd">
<!-- Generated by graphviz version 2.36.0 (20140111.2315)
 -->
<!-- Title: /home/travis/build/AliceO2Group/AliceO2/Utilities/aliceHLTwrapper/test/testMessageFormat.cxx Pages: 1 -->
<!--zoomable 354 -->
<svg id="main" version="1.1" xmlns="http://www.w3.org/2000/svg" xmlns:xlink="http://www.w3.org/1999/xlink" xml:space="preserve" onload="init(evt)">
<style type="text/css"><![CDATA[
.edge:hover path { stroke: red; }
.edge:hover polygon { stroke: red; fill: red; }
]]></style>
<script type="text/javascript"><![CDATA[
var edges = document.getElementsByTagName('g');
if (edges && edges.length) {
  for (var i=0;i<edges.length;i++) {
    if (edges[i].id.substr(0,4)=='edge') {
      edges[i].setAttribute('class','edge');
    }
  }
}
]]></script>
        <defs>
                <circle id="rim" cx="0" cy="0" r="7"/>
                <circle id="rim2" cx="0" cy="0" r="3.5"/>
                <g id="zoomPlus">
                        <use xlink:href="#rim" fill="#404040">
                                <set attributeName="fill" to="#808080" begin="zoomplus.mouseover" end="zoomplus.mouseout"/>
                        </use>
                        <path d="M-4,0h8M0,-4v8" fill="none" stroke="white" stroke-width="1.5" pointer-events="none"/>
                </g>
                <g id="zoomMin">
                        <use xlink:href="#rim" fill="#404040">
                                <set attributeName="fill" to="#808080" begin="zoomminus.mouseover" end="zoomminus.mouseout"/>
                        </use>
                        <path d="M-4,0h8" fill="none" stroke="white" stroke-width="1.5" pointer-events="none"/>
                </g>
                <g id="dirArrow">
                        <path fill="none" stroke="white" stroke-width="1.5" d="M0,-3.0v7 M-2.5,-0.5L0,-3.0L2.5,-0.5"/>
                </g>
               <g id="resetDef">
                       <use xlink:href="#rim2" fill="#404040">
                               <set attributeName="fill" to="#808080" begin="reset.mouseover" end="reset.mouseout"/>
                       </use>
               </g>
        </defs>

<script type="text/javascript">
var viewWidth = 1353;
var viewHeight = 354;
var sectionId = 'dynsection-0';
</script>
<script xlink:href="../../svgpan.js"/>
<svg id="graph" class="graph">
<g id="viewport">
<title>/home/travis/build/AliceO2Group/AliceO2/Utilities/aliceHLTwrapper/test/testMessageFormat.cxx</title>
<!-- Node1 -->
<g id="node1" class="node"><title>Node1</title>
<polygon fill="#bfbfbf" stroke="black" points="225.5,-293 225.5,-345 370.5,-345 370.5,-293 225.5,-293"/>
<text text-anchor="start" x="233.5" y="-333" font-family="Helvetica,sans-Serif" font-size="10.00">/home/travis/build</text>
<text text-anchor="start" x="233.5" y="-322" font-family="Helvetica,sans-Serif" font-size="10.00">/AliceO2Group/AliceO2</text>
<text text-anchor="start" x="233.5" y="-311" font-family="Helvetica,sans-Serif" font-size="10.00">/Utilities/aliceHLTwrapper</text>
<text text-anchor="middle" x="298" y="-300" font-family="Helvetica,sans-Serif" font-size="10.00">/test/testMessageFormat.cxx</text>
</g>
<!-- Node2 -->
<g id="node2" class="node"><title>Node2</title>
<polygon fill="none" stroke="#bfbfbf" points="-0.5,-236.5 -0.5,-255.5 118.5,-255.5 118.5,-236.5 -0.5,-236.5"/>
<text text-anchor="middle" x="59" y="-243.5" font-family="Helvetica,sans-Serif" font-size="10.00">boost/test/unit_test.hpp</text>
</g>
<!-- Node1&#45;&gt;Node2 -->
<g id="edge1" class="edge"><title>Node1&#45;&gt;Node2</title>
<path fill="none" stroke="midnightblue" d="M225.319,-296.408C183.195,-283.895 131.853,-268.642 97.4539,-258.424"/>
<polygon fill="midnightblue" stroke="midnightblue" points="98.3703,-255.045 87.7877,-255.552 96.3769,-261.755 98.3703,-255.045"/>
</g>
<!-- Node3 -->
<g id="node3" class="node"><title>Node3</title>
<polygon fill="none" stroke="#bfbfbf" points="137,-236.5 137,-255.5 191,-255.5 191,-236.5 137,-236.5"/>
<text text-anchor="middle" x="164" y="-243.5" font-family="Helvetica,sans-Serif" font-size="10.00">iostream</text>
</g>
<!-- Node1&#45;&gt;Node3 -->
<g id="edge2" class="edge"><title>Node1&#45;&gt;Node3</title>
<path fill="none" stroke="midnightblue" d="M250.757,-292.968C230.031,-281.986 206.534,-269.537 189.226,-260.366"/>
<polygon fill="midnightblue" stroke="midnightblue" points="190.779,-257.228 180.304,-255.639 187.502,-263.414 190.779,-257.228"/>
</g>
<!-- Node4 -->
<g id="node4" class="node"><title>Node4</title>
<polygon fill="none" stroke="#bfbfbf" points="209,-236.5 209,-255.5 259,-255.5 259,-236.5 209,-236.5"/>
<text text-anchor="middle" x="234" y="-243.5" font-family="Helvetica,sans-Serif" font-size="10.00">iomanip</text>
</g>
<!-- Node1&#45;&gt;Node4 -->
<g id="edge3" class="edge"><title>Node1&#45;&gt;Node4</title>
<path fill="none" stroke="midnightblue" d="M275.256,-292.768C266.434,-282.982 256.586,-272.056 248.724,-263.335"/>
<polygon fill="midnightblue" stroke="midnightblue" points="251.189,-260.842 241.894,-255.757 245.99,-265.528 251.189,-260.842"/>
</g>
<!-- Node5 -->
<g id="node5" class="node"><title>Node5</title>
<g id="a_node5"><a xlink:href="../../d2/dda/MessageFormat_8h.html" target="_top" xlink:title="aliceHLTwrapper/MessageFormat.h">
<polygon fill="none" stroke="black" points="277,-236.5 277,-255.5 449,-255.5 449,-236.5 277,-236.5"/>
<text text-anchor="middle" x="363" y="-243.5" font-family="Helvetica,sans-Serif" font-size="10.00">aliceHLTwrapper/MessageFormat.h</text>
</a>
</g>
</g>
<!-- Node1&#45;&gt;Node5 -->
<g id="edge4" class="edge"><title>Node1&#45;&gt;Node5</title>
<path fill="none" stroke="midnightblue" d="M321.1,-292.768C330.059,-282.982 340.061,-272.056 348.046,-263.335"/>
<polygon fill="midnightblue" stroke="midnightblue" points="350.812,-265.496 354.983,-255.757 345.649,-260.77 350.812,-265.496"/>
</g>
<!-- Node11 -->
<g id="node11" class="node"><title>Node11</title>
<g id="a_node11"><a xlink:href="../../dc/dcd/DataHeader_8h.html" target="_top" xlink:title="Headers/DataHeader.h">
<polygon fill="none" stroke="black" points="380.5,-124.5 380.5,-143.5 497.5,-143.5 497.5,-124.5 380.5,-124.5"/>
<text text-anchor="middle" x="439" y="-131.5" font-family="Helvetica,sans-Serif" font-size="10.00">Headers/DataHeader.h</text>
</a>
</g>
</g>
<!-- Node1&#45;&gt;Node11 -->
<g id="edge37" class="edge"><title>Node1&#45;&gt;Node11</title>
<path fill="none" stroke="midnightblue" d="M370.867,-308.447C403.19,-300.178 438.304,-284.756 458,-256 479.545,-224.545 461.591,-177.797 448.897,-152.607"/>
<polygon fill="midnightblue" stroke="midnightblue" points="451.851,-150.707 444.068,-143.519 445.67,-153.992 451.851,-150.707"/>
</g>
<!-- Node28 -->
<g id="node28" class="node"><title>Node28</title>
<g id="a_node28"><a xlink:href="../../d2/d09/HeartbeatFrame_8h.html" target="_top" xlink:title="Headers/HeartbeatFrame.h">
<polygon fill="none" stroke="black" points="805.5,-180.5 805.5,-199.5 940.5,-199.5 940.5,-180.5 805.5,-180.5"/>
<text text-anchor="middle" x="873" y="-187.5" font-family="Helvetica,sans-Serif" font-size="10.00">Headers/HeartbeatFrame.h</text>
</a>
</g>
</g>
<!-- Node1&#45;&gt;Node28 -->
<g id="edge38" class="edge"><title>Node1&#45;&gt;Node28</title>
<path fill="none" stroke="midnightblue" d="M370.533,-301.98C489.623,-275.676 723.45,-224.031 824.539,-201.704"/>
<polygon fill="midnightblue" stroke="midnightblue" points="825.465,-205.084 834.474,-199.509 823.955,-198.248 825.465,-205.084"/>
</g>
<!-- Node6 -->
<g id="node6" class="node"><title>Node6</title>
<g id="a_node6"><a xlink:href="../../d6/d34/AliHLTDataTypes_8h.html" target="_top" xlink:title="Data type declaration for the HLT module. ">
<polygon fill="none" stroke="black" points="259.5,-124.5 259.5,-143.5 362.5,-143.5 362.5,-124.5 259.5,-124.5"/>
<text text-anchor="middle" x="311" y="-131.5" font-family="Helvetica,sans-Serif" font-size="10.00">AliHLTDataTypes.h</text>
</a>
</g>
</g>
<!-- Node5&#45;&gt;Node6 -->
<g id="edge5" class="edge"><title>Node5&#45;&gt;Node6</title>
<path fill="none" stroke="midnightblue" d="M344.918,-236.39C331.438,-228.872 314.028,-216.565 306,-200 298.912,-185.373 301.35,-166.702 304.856,-153.127"/>
<polygon fill="midnightblue" stroke="midnightblue" points="308.221,-154.091 307.736,-143.507 301.515,-152.083 308.221,-154.091"/>
</g>
<!-- Node7 -->
<g id="node7" class="node"><title>Node7</title>
<g id="a_node7"><a xlink:href="../../d2/de6/HOMERFactory_8h.html" target="_top" xlink:title="HOMERFactory.h">
<polygon fill="none" stroke="black" points="315.5,-180.5 315.5,-199.5 410.5,-199.5 410.5,-180.5 315.5,-180.5"/>
<text text-anchor="middle" x="363" y="-187.5" font-family="Helvetica,sans-Serif" font-size="10.00">HOMERFactory.h</text>
</a>
</g>
</g>
<!-- Node5&#45;&gt;Node7 -->
<g id="edge6" class="edge"><title>Node5&#45;&gt;Node7</title>
<path fill="none" stroke="midnightblue" d="M363,-236.083C363,-229.006 363,-218.861 363,-209.986"/>
<polygon fill="midnightblue" stroke="midnightblue" points="366.5,-209.751 363,-199.751 359.5,-209.751 366.5,-209.751"/>
</g>
<!-- Node8 -->
<g id="node8" class="node"><title>Node8</title>
<polygon fill="none" stroke="#bfbfbf" points="1301,-6.5 1301,-25.5 1345,-25.5 1345,-6.5 1301,-6.5"/>
<text text-anchor="middle" x="1323" y="-13.5" font-family="Helvetica,sans-Serif" font-size="10.00">vector</text>
</g>
<!-- Node5&#45;&gt;Node8 -->
<g id="edge8" class="edge"><title>Node5&#45;&gt;Node8</title>
<path fill="none" stroke="midnightblue" d="M392.64,-236.48C465.393,-215.722 658.751,-161.489 822,-124 925.514,-100.229 1190.05,-65.0081 1291,-32 1293.13,-31.3028 1295.31,-30.4988 1297.47,-29.6327"/>
<polygon fill="midnightblue" stroke="midnightblue" points="1298.96,-32.8032 1306.7,-25.5769 1296.14,-26.3942 1298.96,-32.8032"/>
</g>
<!-- Node9 -->
<g id="node9" class="node"><title>Node9</title>
<polygon fill="none" stroke="#bfbfbf" points="126,-68.5 126,-87.5 172,-87.5 172,-68.5 126,-68.5"/>
<text text-anchor="middle" x="149" y="-75.5" font-family="Helvetica,sans-Serif" font-size="10.00">cstdint</text>
</g>
<!-- Node5&#45;&gt;Node9 -->
<g id="edge9" class="edge"><title>Node5&#45;&gt;Node9</title>
<path fill="none" stroke="midnightblue" d="M349.843,-236.323C336.564,-227.464 315.564,-213.181 298,-200 249.451,-163.565 194.553,-117.718 166.922,-94.3004"/>
<polygon fill="midnightblue" stroke="midnightblue" points="169.146,-91.5972 159.259,-87.7882 164.612,-96.9311 169.146,-91.5972"/>
</g>
<!-- Node10 -->
<g id="node10" class="node"><title>Node10</title>
<polygon fill="none" stroke="#bfbfbf" points="105,-180.5 105,-199.5 203,-199.5 203,-180.5 105,-180.5"/>
<text text-anchor="middle" x="154" y="-187.5" font-family="Helvetica,sans-Serif" font-size="10.00">boost/signals2.hpp</text>
</g>
<!-- Node5&#45;&gt;Node10 -->
<g id="edge10" class="edge"><title>Node5&#45;&gt;Node10</title>
<path fill="none" stroke="midnightblue" d="M329.883,-236.444C293.882,-227.142 236.23,-212.246 196.814,-202.062"/>
<polygon fill="midnightblue" stroke="midnightblue" points="197.519,-198.629 186.962,-199.516 195.768,-205.407 197.519,-198.629"/>
</g>
<!-- Node5&#45;&gt;Node11 -->
<g id="edge11" class="edge"><title>Node5&#45;&gt;Node11</title>
<path fill="none" stroke="midnightblue" d="M378.197,-236.364C390.842,-228.44 408.425,-215.584 419,-200 428.426,-186.108 433.551,-167.596 436.245,-153.882"/>
<polygon fill="midnightblue" stroke="midnightblue" points="439.751,-154.142 437.977,-143.696 432.85,-152.968 439.751,-154.142"/>
</g>
<!-- Node5&#45;&gt;Node28 -->
<g id="edge32" class="edge"><title>Node5&#45;&gt;Node28</title>
<path fill="none" stroke="midnightblue" d="M445.062,-236.484C531.228,-227.516 670.654,-212.931 791,-200 792.468,-199.842 793.952,-199.683 795.446,-199.521"/>
<polygon fill="midnightblue" stroke="midnightblue" points="795.868,-202.996 805.433,-198.441 795.115,-196.037 795.868,-202.996"/>
</g>
<!-- Node7&#45;&gt;Node6 -->
<g id="edge7" class="edge"><title>Node7&#45;&gt;Node6</title>
<path fill="none" stroke="midnightblue" d="M354.413,-180.083C346.841,-172.22 335.622,-160.569 326.486,-151.081"/>
<polygon fill="midnightblue" stroke="midnightblue" points="328.885,-148.527 319.427,-143.751 323.842,-153.382 328.885,-148.527"/>
</g>
<!-- Node11&#45;&gt;Node9 -->
<g id="edge12" class="edge"><title>Node11&#45;&gt;Node9</title>
<path fill="none" stroke="midnightblue" d="M385.507,-124.484C334.17,-116.076 254.543,-102.417 186,-88 184.726,-87.7321 183.43,-87.4522 182.121,-87.1637"/>
<polygon fill="midnightblue" stroke="midnightblue" points="182.572,-83.676 172.042,-84.8408 181,-90.4972 182.572,-83.676"/>
</g>
<!-- Node12 -->
<g id="node12" class="node"><title>Node12</title>
<polygon fill="none" stroke="#bfbfbf" points="344,-68.5 344,-87.5 396,-87.5 396,-68.5 344,-68.5"/>
<text text-anchor="middle" x="370" y="-75.5" font-family="Helvetica,sans-Serif" font-size="10.00">memory</text>
</g>
<!-- Node11&#45;&gt;Node12 -->
<g id="edge13" class="edge"><title>Node11&#45;&gt;Node12</title>
<path fill="none" stroke="midnightblue" d="M427.914,-124.324C417.514,-116.185 401.739,-103.839 389.278,-94.0874"/>
<polygon fill="midnightblue" stroke="midnightblue" points="391.32,-91.2407 381.288,-87.8339 387.006,-96.7533 391.32,-91.2407"/>
</g>
<!-- Node13 -->
<g id="node13" class="node"><title>Node13</title>
<polygon fill="none" stroke="#bfbfbf" points="414.5,-68.5 414.5,-87.5 463.5,-87.5 463.5,-68.5 414.5,-68.5"/>
<text text-anchor="middle" x="439" y="-75.5" font-family="Helvetica,sans-Serif" font-size="10.00">cassert</text>
</g>
<!-- Node11&#45;&gt;Node13 -->
<g id="edge14" class="edge"><title>Node11&#45;&gt;Node13</title>
<path fill="none" stroke="midnightblue" d="M439,-124.083C439,-117.006 439,-106.861 439,-97.9865"/>
<polygon fill="midnightblue" stroke="midnightblue" points="442.5,-97.751 439,-87.7511 435.5,-97.7511 442.5,-97.751"/>
</g>
<!-- Node14 -->
<g id="node14" class="node"><title>Node14</title>
<polygon fill="none" stroke="#bfbfbf" points="155,-6.5 155,-25.5 201,-25.5 201,-6.5 155,-6.5"/>
<text text-anchor="middle" x="178" y="-13.5" font-family="Helvetica,sans-Serif" font-size="10.00">cstring</text>
</g>
<!-- Node11&#45;&gt;Node14 -->
<g id="edge15" class="edge"><title>Node11&#45;&gt;Node14</title>
<path fill="none" stroke="midnightblue" d="M394.096,-124.5C348.229,-115.359 280.512,-100.458 257,-88 230.914,-74.1778 206.559,-49.8766 191.972,-33.6084"/>
<polygon fill="midnightblue" stroke="midnightblue" points="194.487,-31.1676 185.277,-25.9315 189.212,-35.7685 194.487,-31.1676"/>
</g>
<!-- Node15 -->
<g id="node15" class="node"><title>Node15</title>
<polygon fill="none" stroke="#bfbfbf" points="693,-68.5 693,-87.5 749,-87.5 749,-68.5 693,-68.5"/>
<text text-anchor="middle" x="721" y="-75.5" font-family="Helvetica,sans-Serif" font-size="10.00">algorithm</text>
</g>
<!-- Node11&#45;&gt;Node15 -->
<g id="edge16" class="edge"><title>Node11&#45;&gt;Node15</title>
<path fill="none" stroke="midnightblue" d="M489.615,-124.429C539.065,-115.875 616.4,-102.019 683,-88 683.1,-87.9791 683.199,-87.958 683.299,-87.937"/>
<polygon fill="midnightblue" stroke="midnightblue" points="683.8,-91.4105 692.814,-85.8419 682.295,-84.5743 683.8,-91.4105"/>
</g>
<!-- Node16 -->
<g id="node16" class="node"><title>Node16</title>
<polygon fill="none" stroke="#bfbfbf" points="266.5,-68.5 266.5,-87.5 325.5,-87.5 325.5,-68.5 266.5,-68.5"/>
<text text-anchor="middle" x="296" y="-75.5" font-family="Helvetica,sans-Serif" font-size="10.00">stdexcept</text>
</g>
<!-- Node11&#45;&gt;Node16 -->
<g id="edge17" class="edge"><title>Node11&#45;&gt;Node16</title>
<path fill="none" stroke="midnightblue" d="M416.341,-124.444C392.598,-115.478 355.091,-101.314 328.262,-91.1827"/>
<polygon fill="midnightblue" stroke="midnightblue" points="329.144,-87.7749 318.553,-87.5164 326.671,-94.3235 329.144,-87.7749"/>
</g>
<!-- Node17 -->
<g id="node17" class="node"><title>Node17</title>
<polygon fill="none" stroke="#bfbfbf" points="95.5,-6.5 95.5,-25.5 136.5,-25.5 136.5,-6.5 95.5,-6.5"/>
<text text-anchor="middle" x="116" y="-13.5" font-family="Helvetica,sans-Serif" font-size="10.00">string</text>
</g>
<!-- Node11&#45;&gt;Node17 -->
<g id="edge18" class="edge"><title>Node11&#45;&gt;Node17</title>
<path fill="none" stroke="midnightblue" d="M387.585,-124.439C333.988,-115.115 253.854,-99.9384 225,-88 190.489,-73.7211 155.079,-48.2613 134.333,-32.0251"/>
<polygon fill="midnightblue" stroke="midnightblue" points="136.387,-29.1863 126.386,-25.6908 132.024,-34.6605 136.387,-29.1863"/>
</g>
<!-- Node18 -->
<g id="node18" class="node"><title>Node18</title>
<g id="a_node18"><a xlink:href="../../dc/d03/MemoryResources_8h.html" target="_top" xlink:title="MemoryResources/MemoryResources.h">
<polygon fill="none" stroke="black" points="481.5,-68.5 481.5,-87.5 674.5,-87.5 674.5,-68.5 481.5,-68.5"/>
<text text-anchor="middle" x="578" y="-75.5" font-family="Helvetica,sans-Serif" font-size="10.00">MemoryResources/MemoryResources.h</text>
</a>
</g>
</g>
<!-- Node11&#45;&gt;Node18 -->
<g id="edge19" class="edge"><title>Node11&#45;&gt;Node18</title>
<path fill="none" stroke="midnightblue" d="M461.025,-124.444C484.104,-115.478 520.562,-101.314 546.641,-91.1827"/>
<polygon fill="midnightblue" stroke="midnightblue" points="548.024,-94.4002 556.078,-87.5164 545.489,-87.8753 548.024,-94.4002"/>
</g>
<!-- Node18&#45;&gt;Node8 -->
<g id="edge28" class="edge"><title>Node18&#45;&gt;Node8</title>
<path fill="none" stroke="midnightblue" d="M674.755,-68.6827C677.872,-68.4474 680.961,-68.2191 684,-68 818.776,-58.2833 1160.03,-65.2719 1291,-32 1293.5,-31.3655 1296.04,-30.5354 1298.54,-29.591"/>
<polygon fill="midnightblue" stroke="midnightblue" points="1300.04,-32.7534 1307.82,-25.5543 1297.25,-26.3347 1300.04,-32.7534"/>
</g>
<!-- Node18&#45;&gt;Node14 -->
<g id="edge24" class="edge"><title>Node18&#45;&gt;Node14</title>
<path fill="none" stroke="midnightblue" d="M481.149,-68.6451C389.635,-60.1195 259.254,-46.1637 210,-32 207.662,-31.3276 205.28,-30.5035 202.924,-29.591"/>
<polygon fill="midnightblue" stroke="midnightblue" points="204.131,-26.2989 193.566,-25.5031 201.329,-32.7135 204.131,-26.2989"/>
</g>
<!-- Node18&#45;&gt;Node17 -->
<g id="edge25" class="edge"><title>Node18&#45;&gt;Node17</title>
<path fill="none" stroke="midnightblue" d="M481.341,-68.7776C363.857,-58.4955 177.332,-41.1359 146,-32 144.029,-31.4254 142.033,-30.7247 140.054,-29.9434"/>
<polygon fill="midnightblue" stroke="midnightblue" points="141.072,-26.5599 130.523,-25.5772 138.157,-32.924 141.072,-26.5599"/>
</g>
<!-- Node19 -->
<g id="node19" class="node"><title>Node19</title>
<polygon fill="none" stroke="#bfbfbf" points="723,-1 723,-31 823,-31 823,-1 723,-1"/>
<text text-anchor="start" x="731" y="-19" font-family="Helvetica,sans-Serif" font-size="10.00">boost/container/flat</text>
<text text-anchor="middle" x="773" y="-8" font-family="Helvetica,sans-Serif" font-size="10.00">_map.hpp</text>
</g>
<!-- Node18&#45;&gt;Node19 -->
<g id="edge20" class="edge"><title>Node18&#45;&gt;Node19</title>
<path fill="none" stroke="midnightblue" d="M605.939,-68.4035C634.913,-59.4882 680.989,-45.311 717.42,-34.1014"/>
<polygon fill="midnightblue" stroke="midnightblue" points="718.889,-37.3115 727.418,-31.0253 716.831,-30.621 718.889,-37.3115"/>
</g>
<!-- Node20 -->
<g id="node20" class="node"><title>Node20</title>
<polygon fill="none" stroke="#bfbfbf" points="841,-1 841,-31 957,-31 957,-1 841,-1"/>
<text text-anchor="start" x="849" y="-19" font-family="Helvetica,sans-Serif" font-size="10.00">boost/container/pmr</text>
<text text-anchor="middle" x="899" y="-8" font-family="Helvetica,sans-Serif" font-size="10.00">/memory_resource.hpp</text>
</g>
<!-- Node18&#45;&gt;Node20 -->
<g id="edge21" class="edge"><title>Node18&#45;&gt;Node20</title>
<path fill="none" stroke="midnightblue" d="M630.18,-68.4598C679.408,-60.244 755.513,-47.1357 830.797,-32.192"/>
<polygon fill="midnightblue" stroke="midnightblue" points="831.808,-35.5591 840.929,-30.1684 830.437,-28.6947 831.808,-35.5591"/>
</g>
<!-- Node21 -->
<g id="node21" class="node"><title>Node21</title>
<polygon fill="none" stroke="#bfbfbf" points="975,-1 975,-31 1131,-31 1131,-1 975,-1"/>
<text text-anchor="start" x="983" y="-19" font-family="Helvetica,sans-Serif" font-size="10.00">boost/container/pmr</text>
<text text-anchor="middle" x="1053" y="-8" font-family="Helvetica,sans-Serif" font-size="10.00">/monotonic_buffer_resource.hpp</text>
</g>
<!-- Node18&#45;&gt;Node21 -->
<g id="edge22" class="edge"><title>Node18&#45;&gt;Node21</title>
<path fill="none" stroke="midnightblue" d="M662.341,-68.4963C738.551,-60.5127 854.043,-47.6718 964.809,-31.9758"/>
<polygon fill="midnightblue" stroke="midnightblue" points="965.418,-35.4244 974.824,-30.5469 964.43,-28.4946 965.418,-35.4244"/>
</g>
<!-- Node22 -->
<g id="node22" class="node"><title>Node22</title>
<polygon fill="none" stroke="#bfbfbf" points="1149.5,-1 1149.5,-31 1282.5,-31 1282.5,-1 1149.5,-1"/>
<text text-anchor="start" x="1157.5" y="-19" font-family="Helvetica,sans-Serif" font-size="10.00">boost/container/pmr</text>
<text text-anchor="middle" x="1216" y="-8" font-family="Helvetica,sans-Serif" font-size="10.00">/polymorphic_allocator.hpp</text>
</g>
<!-- Node18&#45;&gt;Node22 -->
<g id="edge23" class="edge"><title>Node18&#45;&gt;Node22</title>
<path fill="none" stroke="midnightblue" d="M674.761,-68.7607C677.877,-68.503 680.963,-68.2488 684,-68 883.354,-51.6678 936.888,-59.4673 1139.28,-31.9887"/>
<polygon fill="midnightblue" stroke="midnightblue" points="1139.91,-35.4349 1149.35,-30.61 1138.96,-28.4996 1139.91,-35.4349"/>
</g>
<!-- Node23 -->
<g id="node23" class="node"><title>Node23</title>
<polygon fill="none" stroke="#bfbfbf" points="219,-6.5 219,-25.5 281,-25.5 281,-6.5 219,-6.5"/>
<text text-anchor="middle" x="250" y="-13.5" font-family="Helvetica,sans-Serif" font-size="10.00">type_traits</text>
</g>
<!-- Node18&#45;&gt;Node23 -->
<g id="edge26" class="edge"><title>Node18&#45;&gt;Node23</title>
<path fill="none" stroke="midnightblue" d="M494.208,-68.4788C436.242,-61.476 357.668,-49.7755 290,-32 286.772,-31.152 283.443,-30.1387 280.148,-29.0444"/>
<polygon fill="midnightblue" stroke="midnightblue" points="281.096,-25.6664 270.501,-25.6025 278.743,-32.2594 281.096,-25.6664"/>
</g>
<!-- Node24 -->
<g id="node24" class="node"><title>Node24</title>
<polygon fill="none" stroke="#bfbfbf" points="299,-6.5 299,-25.5 339,-25.5 339,-6.5 299,-6.5"/>
<text text-anchor="middle" x="319" y="-13.5" font-family="Helvetica,sans-Serif" font-size="10.00">utility</text>
</g>
<!-- Node18&#45;&gt;Node24 -->
<g id="edge27" class="edge"><title>Node18&#45;&gt;Node24</title>
<path fill="none" stroke="midnightblue" d="M507.444,-68.4948C461.221,-61.6416 399.966,-50.1067 348,-32 346.344,-31.423 344.665,-30.7664 342.992,-30.0578"/>
<polygon fill="midnightblue" stroke="midnightblue" points="344.224,-26.7676 333.691,-25.6244 341.212,-33.0865 344.224,-26.7676"/>
</g>
<!-- Node25 -->
<g id="node25" class="node"><title>Node25</title>
<polygon fill="none" stroke="#bfbfbf" points="357.5,-6.5 357.5,-25.5 440.5,-25.5 440.5,-6.5 357.5,-6.5"/>
<text text-anchor="middle" x="399" y="-13.5" font-family="Helvetica,sans-Serif" font-size="10.00">unordered_map</text>
</g>
<!-- Node18&#45;&gt;Node25 -->
<g id="edge29" class="edge"><title>Node18&#45;&gt;Node25</title>
<path fill="none" stroke="midnightblue" d="M552.354,-68.4035C521.383,-58.0222 469.127,-40.5062 434.349,-28.849"/>
<polygon fill="midnightblue" stroke="midnightblue" points="435.193,-25.4403 424.599,-25.5806 432.968,-32.0774 435.193,-25.4403"/>
</g>
<!-- Node26 -->
<g id="node26" class="node"><title>Node26</title>
<polygon fill="none" stroke="#bfbfbf" points="458.5,-6.5 458.5,-25.5 555.5,-25.5 555.5,-6.5 458.5,-6.5"/>
<text text-anchor="middle" x="507" y="-13.5" font-family="Helvetica,sans-Serif" font-size="10.00">FairMQMessage.h</text>
</g>
<!-- Node18&#45;&gt;Node26 -->
<g id="edge30" class="edge"><title>Node18&#45;&gt;Node26</title>
<path fill="none" stroke="midnightblue" d="M567.827,-68.4035C556.65,-58.9579 538.483,-43.6056 524.909,-32.1342"/>
<polygon fill="midnightblue" stroke="midnightblue" points="527.051,-29.3619 517.154,-25.5806 522.533,-34.7085 527.051,-29.3619"/>
</g>
<!-- Node27 -->
<g id="node27" class="node"><title>Node27</title>
<polygon fill="none" stroke="#bfbfbf" points="573.5,-6.5 573.5,-25.5 704.5,-25.5 704.5,-6.5 573.5,-6.5"/>
<text text-anchor="middle" x="639" y="-13.5" font-family="Helvetica,sans-Serif" font-size="10.00">FairMQTransportFactory.h</text>
</g>
<!-- Node18&#45;&gt;Node27 -->
<g id="edge31" class="edge"><title>Node18&#45;&gt;Node27</title>
<path fill="none" stroke="midnightblue" d="M586.74,-68.4035C596.162,-59.1361 611.364,-44.1828 622.949,-32.7876"/>
<polygon fill="midnightblue" stroke="midnightblue" points="625.601,-35.0883 630.276,-25.5806 620.693,-30.0978 625.601,-35.0883"/>
</g>
<!-- Node28&#45;&gt;Node8 -->
<g id="edge36" class="edge"><title>Node28&#45;&gt;Node8</title>
<path fill="none" stroke="midnightblue" d="M897.767,-180.469C962.852,-157.884 1143.84,-94.012 1291,-32 1292.63,-31.312 1294.3,-30.5884 1295.98,-29.8459"/>
<polygon fill="midnightblue" stroke="midnightblue" points="1297.86,-32.8377 1305.51,-25.5045 1294.96,-26.4684 1297.86,-32.8377"/>
</g>
<!-- Node28&#45;&gt;Node11 -->
<g id="edge33" class="edge"><title>Node28&#45;&gt;Node11</title>
<path fill="none" stroke="midnightblue" d="M805.188,-180.562C724.14,-170.478 589.278,-153.698 507.797,-143.56"/>
<polygon fill="midnightblue" stroke="midnightblue" points="508,-140.058 497.644,-142.297 507.135,-147.005 508,-140.058"/>
</g>
<!-- Node29 -->
<g id="node29" class="node"><title>Node29</title>
<polygon fill="none" stroke="#bfbfbf" points="883.5,-124.5 883.5,-143.5 942.5,-143.5 942.5,-124.5 883.5,-124.5"/>
<text text-anchor="middle" x="913" y="-131.5" font-family="Helvetica,sans-Serif" font-size="10.00">functional</text>
</g>
<!-- Node28&#45;&gt;Node29 -->
<g id="edge34" class="edge"><title>Node28&#45;&gt;Node29</title>
<path fill="none" stroke="midnightblue" d="M879.605,-180.083C885.255,-172.455 893.545,-161.264 900.451,-151.941"/>
<polygon fill="midnightblue" stroke="midnightblue" points="903.378,-153.87 906.518,-143.751 897.753,-149.703 903.378,-153.87"/>
</g>
<!-- Node30 -->
<g id="node30" class="node"><title>Node30</title>
<polygon fill="none" stroke="#bfbfbf" points="830.5,-124.5 830.5,-143.5 865.5,-143.5 865.5,-124.5 830.5,-124.5"/>
<text text-anchor="middle" x="848" y="-131.5" font-family="Helvetica,sans-Serif" font-size="10.00">map</text>
</g>
<!-- Node28&#45;&gt;Node30 -->
<g id="edge35" class="edge"><title>Node28&#45;&gt;Node30</title>
<path fill="none" stroke="midnightblue" d="M868.872,-180.083C865.486,-172.77 860.584,-162.181 856.381,-153.103"/>
<polygon fill="midnightblue" stroke="midnightblue" points="859.429,-151.355 852.051,-143.751 853.077,-154.296 859.429,-151.355"/>
</g>
</g>
</svg>
        <g id="navigator" transform="translate(0 0)" fill="#404254">
                <rect fill="#f2f5e9" fill-opacity="0.5" stroke="#606060" stroke-width=".5" x="0" y="0" width="60" height="60"/>
                <use id="zoomplus" xlink:href="#zoomPlus" x="17" y="9" onmousedown="handleZoom(evt,'in')"/>
                <use id="zoomminus" xlink:href="#zoomMin" x="42" y="9" onmousedown="handleZoom(evt,'out')"/>
                <use id="reset" xlink:href="#resetDef" x="30" y="36" onmousedown="handleReset()"/>
                <g id="arrowUp" xlink:href="#dirArrow" transform="translate(30 24)" onmousedown="handlePan(0,-1)">
                  <use xlink:href="#rim" fill="#404040">
                        <set attributeName="fill" to="#808080" begin="arrowUp.mouseover" end="arrowUp.mouseout"/>
                  </use>
                  <path fill="none" stroke="white" stroke-width="1.5" d="M0,-3.0v7 M-2.5,-0.5L0,-3.0L2.5,-0.5"/>
                </g>
                <g id="arrowRight" xlink:href="#dirArrow" transform="rotate(90) translate(36 -43)" onmousedown="handlePan(1,0)">
                  <use xlink:href="#rim" fill="#404040">
                        <set attributeName="fill" to="#808080" begin="arrowRight.mouseover" end="arrowRight.mouseout"/>
                  </use>
                  <path fill="none" stroke="white" stroke-width="1.5" d="M0,-3.0v7 M-2.5,-0.5L0,-3.0L2.5,-0.5"/>
                </g>
                <g id="arrowDown" xlink:href="#dirArrow" transform="rotate(180) translate(-30 -48)" onmousedown="handlePan(0,1)">
                  <use xlink:href="#rim" fill="#404040">
                        <set attributeName="fill" to="#808080" begin="arrowDown.mouseover" end="arrowDown.mouseout"/>
                  </use>
                  <path fill="none" stroke="white" stroke-width="1.5" d="M0,-3.0v7 M-2.5,-0.5L0,-3.0L2.5,-0.5"/>
                </g>
                <g id="arrowLeft" xlink:href="#dirArrow" transform="rotate(270) translate(-36 17)" onmousedown="handlePan(-1,0)">
                  <use xlink:href="#rim" fill="#404040">
                        <set attributeName="fill" to="#808080" begin="arrowLeft.mouseover" end="arrowLeft.mouseout"/>
                  </use>
                  <path fill="none" stroke="white" stroke-width="1.5" d="M0,-3.0v7 M-2.5,-0.5L0,-3.0L2.5,-0.5"/>
                </g>
        </g>
        <svg viewBox="0 0 15 15" width="100%" height="30px" preserveAspectRatio="xMaxYMin meet">
         <g id="arrow_out" transform="scale(0.3 0.3)">
          <a xlink:href="testMessageFormat_8cxx__incl_org.svg" target="_base">
           <rect id="button" ry="5" rx="5" y="6" x="6" height="38" width="38"
                fill="#f2f5e9" fill-opacity="0.5" stroke="#606060" stroke-width="1.0"/>
           <path id="arrow"
             d="M 11.500037,31.436501 C 11.940474,20.09759 22.043105,11.32322 32.158766,21.979434 L 37.068811,17.246167 C 37.068811,17.246167 37.088388,32 37.088388,32 L 22.160133,31.978069 C 22.160133,31.978069 26.997745,27.140456 26.997745,27.140456 C 18.528582,18.264221 13.291696,25.230495 11.500037,31.436501 z"
             style="fill:#404040;"/>
          </a>
         </g>
        </svg>
</svg>
