<?xml version="1.0" encoding="UTF-8" standalone="no"?>
<!DOCTYPE svg PUBLIC "-//W3C//DTD SVG 1.1//EN"
 "http://www.w3.org/Graphics/SVG/1.1/DTD/svg11.dtd">
<!-- Generated by graphviz version 2.36.0 (20140111.2315)
 -->
<!-- Title: o2::framework::Task Pages: 1 -->
<svg width="131pt" height="204pt"
 viewBox="0.00 0.00 131.00 204.00" xmlns="http://www.w3.org/2000/svg" xmlns:xlink="http://www.w3.org/1999/xlink">
<g id="graph0" class="graph" transform="scale(1 1) rotate(0) translate(4 200)">
<title>o2::framework::Task</title>
<!-- Node1 -->
<g id="node1" class="node"><title>Node1</title>
<polygon fill="#bfbfbf" stroke="black" points="11.5,-116.5 11.5,-195.5 118.5,-195.5 118.5,-116.5 11.5,-116.5"/>
<text text-anchor="middle" x="65" y="-183.5" font-family="Helvetica,sans-Serif" font-size="10.00">o2::framework::Task</text>
<polyline fill="none" stroke="black" points="11.5,-176.5 118.5,-176.5 "/>
<text text-anchor="middle" x="65" y="-164.5" font-family="Helvetica,sans-Serif" font-size="10.00"> </text>
<polyline fill="none" stroke="black" points="11.5,-157.5 118.5,-157.5 "/>
<text text-anchor="start" x="19.5" y="-145.5" font-family="Helvetica,sans-Serif" font-size="10.00">+ ~Task()</text>
<text text-anchor="start" x="19.5" y="-134.5" font-family="Helvetica,sans-Serif" font-size="10.00">+ init()</text>
<text text-anchor="start" x="19.5" y="-123.5" font-family="Helvetica,sans-Serif" font-size="10.00">+ run()</text>
</g>
<!-- Node2 -->
<g id="node2" class="node"><title>Node2</title>
<g id="a_node2"><a xlink:href="../../dd/d33/classATask.html" target="_top" xlink:title="{ATask\n||+ ATask()\l+ init()\l+ run()\l}">
<polygon fill="none" stroke="black" points="0,-0.5 0,-79.5 60,-79.5 60,-0.5 0,-0.5"/>
<text text-anchor="middle" x="30" y="-67.5" font-family="Helvetica,sans-Serif" font-size="10.00">ATask</text>
<polyline fill="none" stroke="black" points="0,-60.5 60,-60.5 "/>
<text text-anchor="middle" x="30" y="-48.5" font-family="Helvetica,sans-Serif" font-size="10.00"> </text>
<polyline fill="none" stroke="black" points="0,-41.5 60,-41.5 "/>
<text text-anchor="start" x="8" y="-29.5" font-family="Helvetica,sans-Serif" font-size="10.00">+ ATask()</text>
<text text-anchor="start" x="8" y="-18.5" font-family="Helvetica,sans-Serif" font-size="10.00">+ init()</text>
<text text-anchor="start" x="8" y="-7.5" font-family="Helvetica,sans-Serif" font-size="10.00">+ run()</text>
</a>
</g>
</g>
<!-- Node1&#45;&gt;Node2 -->
<g id="edge1" class="edge"><title>Node1&#45;&gt;Node2</title>
<path fill="none" stroke="midnightblue" d="M50.1788,-106.725C47.3939,-97.6546 44.5163,-88.2818 41.8372,-79.5555"/>
<polygon fill="none" stroke="midnightblue" points="46.8697,-107.872 53.1506,-116.405 53.5614,-105.818 46.8697,-107.872"/>
</g>
<!-- Node3 -->
<g id="node3" class="node"><title>Node3</title>
<g id="a_node3"><a xlink:href="../../d7/d29/classBTask.html" target="_top" xlink:title="{BTask\n||+ run()\l}">
<polygon fill="none" stroke="black" points="78.5,-11.5 78.5,-68.5 123.5,-68.5 123.5,-11.5 78.5,-11.5"/>
<text text-anchor="middle" x="101" y="-56.5" font-family="Helvetica,sans-Serif" font-size="10.00">BTask</text>
<polyline fill="none" stroke="black" points="78.5,-49.5 123.5,-49.5 "/>
<text text-anchor="middle" x="101" y="-37.5" font-family="Helvetica,sans-Serif" font-size="10.00"> </text>
<polyline fill="none" stroke="black" points="78.5,-30.5 123.5,-30.5 "/>
<text text-anchor="start" x="86.5" y="-18.5" font-family="Helvetica,sans-Serif" font-size="10.00">+ run()</text>
</a>
</g>
</g>
<!-- Node1&#45;&gt;Node3 -->
<g id="edge2" class="edge"><title>Node1&#45;&gt;Node3</title>
<path fill="none" stroke="midnightblue" d="M80.2625,-106.669C84.3511,-93.7215 88.6326,-80.1633 92.2366,-68.7509"/>
<polygon fill="none" stroke="midnightblue" points="76.8618,-105.815 77.188,-116.405 83.5369,-107.923 76.8618,-105.815"/>
</g>
</g>
</svg>
