<?xml version="1.0" encoding="UTF-8" standalone="no"?>
<!DOCTYPE svg PUBLIC "-//W3C//DTD SVG 1.1//EN"
 "http://www.w3.org/Graphics/SVG/1.1/DTD/svg11.dtd">
<!-- Generated by graphviz version 2.36.0 (20140111.2315)
 -->
<!-- Title: /home/travis/build/AliceO2Group/AliceO2/Detectors/MUON/MCH/PreClustering/src/PreClusterFinderDevice.cxx Pages: 1 -->
<!--zoomable 422 -->
<svg id="main" version="1.1" xmlns="http://www.w3.org/2000/svg" xmlns:xlink="http://www.w3.org/1999/xlink" xml:space="preserve" onload="init(evt)">
<style type="text/css"><![CDATA[
.edge:hover path { stroke: red; }
.edge:hover polygon { stroke: red; fill: red; }
]]></style>
<script type="text/javascript"><![CDATA[
var edges = document.getElementsByTagName('g');
if (edges && edges.length) {
  for (var i=0;i<edges.length;i++) {
    if (edges[i].id.substr(0,4)=='edge') {
      edges[i].setAttribute('class','edge');
    }
  }
}
]]></script>
        <defs>
                <circle id="rim" cx="0" cy="0" r="7"/>
                <circle id="rim2" cx="0" cy="0" r="3.5"/>
                <g id="zoomPlus">
                        <use xlink:href="#rim" fill="#404040">
                                <set attributeName="fill" to="#808080" begin="zoomplus.mouseover" end="zoomplus.mouseout"/>
                        </use>
                        <path d="M-4,0h8M0,-4v8" fill="none" stroke="white" stroke-width="1.5" pointer-events="none"/>
                </g>
                <g id="zoomMin">
                        <use xlink:href="#rim" fill="#404040">
                                <set attributeName="fill" to="#808080" begin="zoomminus.mouseover" end="zoomminus.mouseout"/>
                        </use>
                        <path d="M-4,0h8" fill="none" stroke="white" stroke-width="1.5" pointer-events="none"/>
                </g>
                <g id="dirArrow">
                        <path fill="none" stroke="white" stroke-width="1.5" d="M0,-3.0v7 M-2.5,-0.5L0,-3.0L2.5,-0.5"/>
                </g>
               <g id="resetDef">
                       <use xlink:href="#rim2" fill="#404040">
                               <set attributeName="fill" to="#808080" begin="reset.mouseover" end="reset.mouseout"/>
                       </use>
               </g>
        </defs>

<script type="text/javascript">
var viewWidth = 1955;
var viewHeight = 422;
var sectionId = 'dynsection-0';
</script>
<script xlink:href="../../svgpan.js"/>
<svg id="graph" class="graph">
<g id="viewport">
<title>/home/travis/build/AliceO2Group/AliceO2/Detectors/MUON/MCH/PreClustering/src/PreClusterFinderDevice.cxx</title>
<!-- Node1 -->
<g id="node1" class="node"><title>Node1</title>
<polygon fill="#bfbfbf" stroke="black" points="1408.5,-361 1408.5,-413 1593.5,-413 1593.5,-361 1408.5,-361"/>
<text text-anchor="start" x="1416.5" y="-401" font-family="Helvetica,sans-Serif" font-size="10.00">/home/travis/build</text>
<text text-anchor="start" x="1416.5" y="-390" font-family="Helvetica,sans-Serif" font-size="10.00">/AliceO2Group/AliceO2</text>
<text text-anchor="start" x="1416.5" y="-379" font-family="Helvetica,sans-Serif" font-size="10.00">/Detectors/MUON/MCH/PreClustering</text>
<text text-anchor="middle" x="1501" y="-368" font-family="Helvetica,sans-Serif" font-size="10.00">/src/PreClusterFinderDevice.cxx</text>
</g>
<!-- Node2 -->
<g id="node2" class="node"><title>Node2</title>
<g id="a_node2"><a xlink:href="../../dd/db2/PreClusterFinderDevice_8h.html" target="_top" xlink:title="PreClusterFinderDevice.h">
<polygon fill="none" stroke="black" points="1254.5,-304.5 1254.5,-323.5 1383.5,-323.5 1383.5,-304.5 1254.5,-304.5"/>
<text text-anchor="middle" x="1319" y="-311.5" font-family="Helvetica,sans-Serif" font-size="10.00">PreClusterFinderDevice.h</text>
</a>
</g>
</g>
<!-- Node1&#45;&gt;Node2 -->
<g id="edge1" class="edge"><title>Node1&#45;&gt;Node2</title>
<path fill="none" stroke="midnightblue" d="M1436.83,-360.968C1407.64,-349.58 1374.4,-336.613 1350.69,-327.361"/>
<polygon fill="midnightblue" stroke="midnightblue" points="1351.73,-324.013 1341.14,-323.639 1349.19,-330.534 1351.73,-324.013"/>
</g>
<!-- Node5 -->
<g id="node5" class="node"><title>Node5</title>
<g id="a_node5"><a xlink:href="../../db/da1/PreClusterBlock_8h.html" target="_top" xlink:title="MCHBase/PreClusterBlock.h">
<polygon fill="none" stroke="black" points="1482.5,-192.5 1482.5,-211.5 1627.5,-211.5 1627.5,-192.5 1482.5,-192.5"/>
<text text-anchor="middle" x="1555" y="-199.5" font-family="Helvetica,sans-Serif" font-size="10.00">MCHBase/PreClusterBlock.h</text>
</a>
</g>
</g>
<!-- Node1&#45;&gt;Node5 -->
<g id="edge64" class="edge"><title>Node1&#45;&gt;Node5</title>
<path fill="none" stroke="midnightblue" d="M1508.4,-360.938C1519.4,-323.649 1539.83,-254.419 1549.56,-221.419"/>
<polygon fill="midnightblue" stroke="midnightblue" points="1552.96,-222.297 1552.43,-211.715 1546.24,-220.315 1552.96,-222.297"/>
</g>
<!-- Node7 -->
<g id="node7" class="node"><title>Node7</title>
<polygon fill="none" stroke="#bfbfbf" points="1366,-6.5 1366,-25.5 1410,-25.5 1410,-6.5 1366,-6.5"/>
<text text-anchor="middle" x="1388" y="-13.5" font-family="Helvetica,sans-Serif" font-size="10.00">vector</text>
</g>
<!-- Node1&#45;&gt;Node7 -->
<g id="edge59" class="edge"><title>Node1&#45;&gt;Node7</title>
<path fill="none" stroke="midnightblue" d="M1537.33,-360.933C1581.65,-326.954 1649.15,-262.385 1636,-192 1625.15,-133.909 1632.21,-107.214 1588,-68 1540.7,-26.044 1463.59,-17.6962 1420.23,-16.5594"/>
<polygon fill="midnightblue" stroke="midnightblue" points="1420.28,-13.0599 1410.23,-16.4105 1420.18,-20.0591 1420.28,-13.0599"/>
</g>
<!-- Node8 -->
<g id="node8" class="node"><title>Node8</title>
<g id="a_node8"><a xlink:href="../../db/df0/DigitBlock_8h.html" target="_top" xlink:title="DigitBlock.h">
<polygon fill="none" stroke="black" points="1454,-130.5 1454,-149.5 1524,-149.5 1524,-130.5 1454,-130.5"/>
<text text-anchor="middle" x="1489" y="-137.5" font-family="Helvetica,sans-Serif" font-size="10.00">DigitBlock.h</text>
</a>
</g>
</g>
<!-- Node1&#45;&gt;Node8 -->
<g id="edge63" class="edge"><title>Node1&#45;&gt;Node8</title>
<path fill="none" stroke="midnightblue" d="M1492.61,-360.866C1481.34,-323.86 1463.73,-252.547 1473,-192 1474.69,-180.937 1478.34,-168.978 1481.73,-159.423"/>
<polygon fill="midnightblue" stroke="midnightblue" points="1485.09,-160.425 1485.32,-149.832 1478.54,-157.969 1485.09,-160.425"/>
</g>
<!-- Node13 -->
<g id="node13" class="node"><title>Node13</title>
<polygon fill="none" stroke="#bfbfbf" points="799,-68.5 799,-87.5 851,-87.5 851,-68.5 799,-68.5"/>
<text text-anchor="middle" x="825" y="-75.5" font-family="Helvetica,sans-Serif" font-size="10.00">memory</text>
</g>
<!-- Node1&#45;&gt;Node13 -->
<g id="edge57" class="edge"><title>Node1&#45;&gt;Node13</title>
<path fill="none" stroke="midnightblue" d="M1408.44,-380.885C1212.39,-367.891 765.873,-326.148 676,-212 651.559,-180.958 684.518,-153.928 720,-124 740.114,-107.034 767.583,-95.5668 789.381,-88.4556"/>
<polygon fill="midnightblue" stroke="midnightblue" points="790.434,-91.7937 798.95,-85.4908 788.362,-85.1072 790.434,-91.7937"/>
</g>
<!-- Node22 -->
<g id="node22" class="node"><title>Node22</title>
<polygon fill="none" stroke="#bfbfbf" points="291.5,-68.5 291.5,-87.5 350.5,-87.5 350.5,-68.5 291.5,-68.5"/>
<text text-anchor="middle" x="321" y="-75.5" font-family="Helvetica,sans-Serif" font-size="10.00">stdexcept</text>
</g>
<!-- Node1&#45;&gt;Node22 -->
<g id="edge58" class="edge"><title>Node1&#45;&gt;Node22</title>
<path fill="none" stroke="midnightblue" d="M1408.12,-384.685C1147.46,-379.772 428,-357.306 428,-259 428,-259 428,-259 428,-201 428,-151.512 377.621,-112.497 346,-92.883"/>
<polygon fill="midnightblue" stroke="midnightblue" points="347.63,-89.7794 337.251,-87.6503 344.037,-95.7869 347.63,-89.7794"/>
</g>
<!-- Node31 -->
<g id="node31" class="node"><title>Node31</title>
<polygon fill="none" stroke="#bfbfbf" points="-0.5,-6.5 -0.5,-25.5 96.5,-25.5 96.5,-6.5 -0.5,-6.5"/>
<text text-anchor="middle" x="48" y="-13.5" font-family="Helvetica,sans-Serif" font-size="10.00">FairMQMessage.h</text>
</g>
<!-- Node1&#45;&gt;Node31 -->
<g id="edge61" class="edge"><title>Node1&#45;&gt;Node31</title>
<path fill="none" stroke="midnightblue" d="M1408.28,-382.136C1103.5,-368.828 152,-322.22 152,-259 152,-259 152,-259 152,-139 152,-90.0679 102.948,-50.8045 72.2193,-31.0083"/>
<polygon fill="midnightblue" stroke="midnightblue" points="73.6878,-27.8004 63.3456,-25.5005 69.9962,-33.7479 73.6878,-27.8004"/>
</g>
<!-- Node36 -->
<g id="node36" class="node"><title>Node36</title>
<polygon fill="none" stroke="#bfbfbf" points="1633,-304.5 1633,-323.5 1679,-323.5 1679,-304.5 1633,-304.5"/>
<text text-anchor="middle" x="1656" y="-311.5" font-family="Helvetica,sans-Serif" font-size="10.00">chrono</text>
</g>
<!-- Node1&#45;&gt;Node36 -->
<g id="edge56" class="edge"><title>Node1&#45;&gt;Node36</title>
<path fill="none" stroke="midnightblue" d="M1555.65,-360.968C1580.07,-349.783 1607.81,-337.075 1627.93,-327.86"/>
<polygon fill="midnightblue" stroke="midnightblue" points="1629.51,-330.986 1637.14,-323.639 1626.59,-324.621 1629.51,-330.986"/>
</g>
<!-- Node37 -->
<g id="node37" class="node"><title>Node37</title>
<polygon fill="none" stroke="#bfbfbf" points="1697,-304.5 1697,-323.5 1783,-323.5 1783,-304.5 1697,-304.5"/>
<text text-anchor="middle" x="1740" y="-311.5" font-family="Helvetica,sans-Serif" font-size="10.00">FairMQLogger.h</text>
</g>
<!-- Node1&#45;&gt;Node37 -->
<g id="edge60" class="edge"><title>Node1&#45;&gt;Node37</title>
<path fill="none" stroke="midnightblue" d="M1585.26,-360.968C1624.92,-349.188 1670.26,-335.718 1701.56,-326.419"/>
<polygon fill="midnightblue" stroke="midnightblue" points="1702.62,-329.757 1711.21,-323.554 1700.62,-323.047 1702.62,-329.757"/>
</g>
<!-- Node38 -->
<g id="node38" class="node"><title>Node38</title>
<polygon fill="none" stroke="#bfbfbf" points="1801,-304.5 1801,-323.5 1947,-323.5 1947,-304.5 1801,-304.5"/>
<text text-anchor="middle" x="1874" y="-311.5" font-family="Helvetica,sans-Serif" font-size="10.00">options/FairMQProgOptions.h</text>
</g>
<!-- Node1&#45;&gt;Node38 -->
<g id="edge62" class="edge"><title>Node1&#45;&gt;Node38</title>
<path fill="none" stroke="midnightblue" d="M1593.68,-368.358C1664.66,-354.848 1760.15,-336.671 1819.35,-325.402"/>
<polygon fill="midnightblue" stroke="midnightblue" points="1820.08,-328.826 1829.25,-323.517 1818.78,-321.949 1820.08,-328.826"/>
</g>
<!-- Node3 -->
<g id="node3" class="node"><title>Node3</title>
<polygon fill="none" stroke="#bfbfbf" points="1203,-248.5 1203,-267.5 1291,-267.5 1291,-248.5 1203,-248.5"/>
<text text-anchor="middle" x="1247" y="-255.5" font-family="Helvetica,sans-Serif" font-size="10.00">FairMQDevice.h</text>
</g>
<!-- Node2&#45;&gt;Node3 -->
<g id="edge2" class="edge"><title>Node2&#45;&gt;Node3</title>
<path fill="none" stroke="midnightblue" d="M1307.43,-304.324C1296.58,-296.185 1280.12,-283.839 1267.12,-274.087"/>
<polygon fill="midnightblue" stroke="midnightblue" points="1268.88,-271.034 1258.78,-267.834 1264.68,-276.634 1268.88,-271.034"/>
</g>
<!-- Node4 -->
<g id="node4" class="node"><title>Node4</title>
<polygon fill="none" stroke="#bfbfbf" points="1234,-68.5 1234,-87.5 1280,-87.5 1280,-68.5 1234,-68.5"/>
<text text-anchor="middle" x="1257" y="-75.5" font-family="Helvetica,sans-Serif" font-size="10.00">cstdint</text>
</g>
<!-- Node2&#45;&gt;Node4 -->
<g id="edge3" class="edge"><title>Node2&#45;&gt;Node4</title>
<path fill="none" stroke="midnightblue" d="M1316.54,-304.082C1313,-291.477 1306.11,-267.777 1299,-248 1284.03,-206.369 1270.73,-199.156 1261,-156 1256.59,-136.456 1255.97,-113.444 1256.22,-97.7008"/>
<polygon fill="midnightblue" stroke="midnightblue" points="1259.72,-97.7718 1256.51,-87.675 1252.72,-97.5699 1259.72,-97.7718"/>
</g>
<!-- Node2&#45;&gt;Node5 -->
<g id="edge4" class="edge"><title>Node2&#45;&gt;Node5</title>
<path fill="none" stroke="midnightblue" d="M1337.52,-304.368C1378.79,-285.131 1478.52,-238.648 1527.26,-215.931"/>
<polygon fill="midnightblue" stroke="midnightblue" points="1528.98,-218.988 1536.57,-211.591 1526.03,-212.644 1528.98,-218.988"/>
</g>
<!-- Node9 -->
<g id="node9" class="node"><title>Node9</title>
<g id="a_node9"><a xlink:href="../../db/dad/PreClusterFinder_8h.html" target="_top" xlink:title="PreClusterFinder.h">
<polygon fill="none" stroke="black" points="1294,-192.5 1294,-211.5 1392,-211.5 1392,-192.5 1294,-192.5"/>
<text text-anchor="middle" x="1343" y="-199.5" font-family="Helvetica,sans-Serif" font-size="10.00">PreClusterFinder.h</text>
</a>
</g>
</g>
<!-- Node2&#45;&gt;Node9 -->
<g id="edge11" class="edge"><title>Node2&#45;&gt;Node9</title>
<path fill="none" stroke="midnightblue" d="M1322.07,-304.478C1325.2,-295.504 1330.02,-280.914 1333,-268 1336.54,-252.685 1339.16,-235.044 1340.83,-222.007"/>
<polygon fill="midnightblue" stroke="midnightblue" points="1344.33,-222.259 1342.06,-211.911 1337.38,-221.418 1344.33,-222.259"/>
</g>
<!-- Node15 -->
<g id="node15" class="node"><title>Node15</title>
<g id="a_node15"><a xlink:href="../../d6/d34/AliHLTDataTypes_8h.html" target="_top" xlink:title="Data type declaration for the HLT module. ">
<polygon fill="none" stroke="black" points="898,-125 898,-155 1042,-155 1042,-125 898,-125"/>
<text text-anchor="start" x="906" y="-143" font-family="Helvetica,sans-Serif" font-size="10.00">aliceHLTwrapper/AliHLTData</text>
<text text-anchor="middle" x="970" y="-132" font-family="Helvetica,sans-Serif" font-size="10.00">Types.h</text>
</a>
</g>
</g>
<!-- Node2&#45;&gt;Node15 -->
<g id="edge22" class="edge"><title>Node2&#45;&gt;Node15</title>
<path fill="none" stroke="midnightblue" d="M1286.72,-304.473C1260.73,-296.893 1223.77,-284.462 1194,-268 1146.07,-241.499 1144.44,-219.367 1097,-192 1073.85,-178.643 1046.52,-167.177 1023.15,-158.519"/>
<polygon fill="midnightblue" stroke="midnightblue" points="1024.34,-155.225 1013.74,-155.102 1021.95,-161.805 1024.34,-155.225"/>
</g>
<!-- Node16 -->
<g id="node16" class="node"><title>Node16</title>
<g id="a_node16"><a xlink:href="../../d2/dda/MessageFormat_8h.html" target="_top" xlink:title="aliceHLTwrapper/MessageFormat.h">
<polygon fill="none" stroke="black" points="917,-248.5 917,-267.5 1089,-267.5 1089,-248.5 917,-248.5"/>
<text text-anchor="middle" x="1003" y="-255.5" font-family="Helvetica,sans-Serif" font-size="10.00">aliceHLTwrapper/MessageFormat.h</text>
</a>
</g>
</g>
<!-- Node2&#45;&gt;Node16 -->
<g id="edge23" class="edge"><title>Node2&#45;&gt;Node16</title>
<path fill="none" stroke="midnightblue" d="M1268.93,-304.444C1212.99,-294.885 1122.49,-279.419 1062.86,-269.23"/>
<polygon fill="midnightblue" stroke="midnightblue" points="1063.28,-265.751 1052.84,-267.516 1062.1,-272.651 1063.28,-265.751"/>
</g>
<!-- Node5&#45;&gt;Node4 -->
<g id="edge5" class="edge"><title>Node5&#45;&gt;Node4</title>
<path fill="none" stroke="midnightblue" d="M1555.33,-192.267C1555.41,-176.108 1553.08,-141.591 1533,-124 1493.87,-89.7148 1357.47,-98.3916 1290.47,-87.8075"/>
<polygon fill="midnightblue" stroke="midnightblue" points="1290.8,-84.3105 1280.33,-85.9339 1289.53,-91.1938 1290.8,-84.3105"/>
</g>
<!-- Node6 -->
<g id="node6" class="node"><title>Node6</title>
<polygon fill="none" stroke="#bfbfbf" points="1505,-68.5 1505,-87.5 1557,-87.5 1557,-68.5 1505,-68.5"/>
<text text-anchor="middle" x="1531" y="-75.5" font-family="Helvetica,sans-Serif" font-size="10.00">ostream</text>
</g>
<!-- Node5&#45;&gt;Node6 -->
<g id="edge6" class="edge"><title>Node5&#45;&gt;Node6</title>
<path fill="none" stroke="midnightblue" d="M1558.85,-192.206C1564.65,-177.64 1574.15,-147.758 1566,-124 1562.28,-113.161 1554.77,-102.922 1547.65,-94.9566"/>
<polygon fill="midnightblue" stroke="midnightblue" points="1550,-92.3498 1540.56,-87.5497 1544.95,-97.1922 1550,-92.3498"/>
</g>
<!-- Node5&#45;&gt;Node7 -->
<g id="edge7" class="edge"><title>Node5&#45;&gt;Node7</title>
<path fill="none" stroke="midnightblue" d="M1562.15,-192.364C1568.77,-183.763 1578.16,-169.873 1582,-156 1592.61,-117.69 1594.1,-96.1196 1566,-68 1526.97,-28.9447 1460.19,-19.3385 1420.46,-17.2455"/>
<polygon fill="midnightblue" stroke="midnightblue" points="1420.39,-13.74 1410.26,-16.8424 1420.12,-20.7346 1420.39,-13.74"/>
</g>
<!-- Node5&#45;&gt;Node8 -->
<g id="edge8" class="edge"><title>Node5&#45;&gt;Node8</title>
<path fill="none" stroke="midnightblue" d="M1545.54,-192.403C1535.25,-183.047 1518.58,-167.895 1506.01,-156.46"/>
<polygon fill="midnightblue" stroke="midnightblue" points="1508.19,-153.718 1498.44,-149.581 1503.48,-158.897 1508.19,-153.718"/>
</g>
<!-- Node8&#45;&gt;Node4 -->
<g id="edge9" class="edge"><title>Node8&#45;&gt;Node4</title>
<path fill="none" stroke="midnightblue" d="M1454.25,-130.412C1416.25,-120.962 1353.33,-105.137 1289.83,-88.1767"/>
<polygon fill="midnightblue" stroke="midnightblue" points="1290.62,-84.7638 1280.05,-85.5565 1288.81,-91.5253 1290.62,-84.7638"/>
</g>
<!-- Node8&#45;&gt;Node6 -->
<g id="edge10" class="edge"><title>Node8&#45;&gt;Node6</title>
<path fill="none" stroke="midnightblue" d="M1495.02,-130.403C1501.32,-121.403 1511.37,-107.041 1519.25,-95.7824"/>
<polygon fill="midnightblue" stroke="midnightblue" points="1522.13,-97.7801 1524.99,-87.5806 1516.39,-93.7658 1522.13,-97.7801"/>
</g>
<!-- Node9&#45;&gt;Node4 -->
<g id="edge13" class="edge"><title>Node9&#45;&gt;Node4</title>
<path fill="none" stroke="midnightblue" d="M1324.66,-192.478C1310.22,-184.863 1290.65,-172.383 1279,-156 1266.69,-138.693 1261.24,-114.625 1258.84,-98.0267"/>
<polygon fill="midnightblue" stroke="midnightblue" points="1262.3,-97.4141 1257.63,-87.9036 1255.35,-98.25 1262.3,-97.4141"/>
</g>
<!-- Node9&#45;&gt;Node7 -->
<g id="edge15" class="edge"><title>Node9&#45;&gt;Node7</title>
<path fill="none" stroke="midnightblue" d="M1364.48,-192.36C1379.39,-185.09 1398.11,-173.117 1407,-156 1427.5,-116.517 1409.07,-62.6098 1396.83,-34.9648"/>
<polygon fill="midnightblue" stroke="midnightblue" points="1399.93,-33.3285 1392.54,-25.7403 1393.59,-36.2831 1399.93,-33.3285"/>
</g>
<!-- Node9&#45;&gt;Node8 -->
<g id="edge16" class="edge"><title>Node9&#45;&gt;Node8</title>
<path fill="none" stroke="midnightblue" d="M1363.92,-192.403C1388.75,-182.2 1430.34,-165.105 1458.69,-153.454"/>
<polygon fill="midnightblue" stroke="midnightblue" points="1460.2,-156.619 1468.12,-149.581 1457.54,-150.144 1460.2,-156.619"/>
</g>
<!-- Node10 -->
<g id="node10" class="node"><title>Node10</title>
<polygon fill="none" stroke="#bfbfbf" points="731.5,-68.5 731.5,-87.5 780.5,-87.5 780.5,-68.5 731.5,-68.5"/>
<text text-anchor="middle" x="756" y="-75.5" font-family="Helvetica,sans-Serif" font-size="10.00">cassert</text>
</g>
<!-- Node9&#45;&gt;Node10 -->
<g id="edge12" class="edge"><title>Node9&#45;&gt;Node10</title>
<path fill="none" stroke="midnightblue" d="M1293.81,-192.9C1250.67,-185.233 1186.5,-172.454 1132,-156 1094.94,-144.814 1088.44,-133.826 1051,-124 940.834,-95.0879 906.673,-110.144 790.773,-87.9039"/>
<polygon fill="midnightblue" stroke="midnightblue" points="791.289,-84.4383 780.801,-85.938 789.935,-91.3061 791.289,-84.4383"/>
</g>
<!-- Node11 -->
<g id="node11" class="node"><title>Node11</title>
<polygon fill="none" stroke="#bfbfbf" points="1104.5,-6.5 1104.5,-25.5 1187.5,-25.5 1187.5,-6.5 1104.5,-6.5"/>
<text text-anchor="middle" x="1146" y="-13.5" font-family="Helvetica,sans-Serif" font-size="10.00">unordered_map</text>
</g>
<!-- Node9&#45;&gt;Node11 -->
<g id="edge14" class="edge"><title>Node9&#45;&gt;Node11</title>
<path fill="none" stroke="midnightblue" d="M1322.47,-192.384C1305.03,-184.472 1279.9,-171.623 1261,-156 1216.1,-118.889 1175.75,-62.3393 1157.03,-34.1801"/>
<polygon fill="midnightblue" stroke="midnightblue" points="1159.94,-32.2376 1151.53,-25.7879 1154.08,-36.0716 1159.94,-32.2376"/>
</g>
<!-- Node12 -->
<g id="node12" class="node"><title>Node12</title>
<g id="a_node12"><a xlink:href="../../d9/d9d/MCH_2Base_2include_2MCHBase_2Mapping_8h.html" target="_top" xlink:title="MCHBase/Mapping.h">
<polygon fill="none" stroke="black" points="1288,-130.5 1288,-149.5 1398,-149.5 1398,-130.5 1288,-130.5"/>
<text text-anchor="middle" x="1343" y="-137.5" font-family="Helvetica,sans-Serif" font-size="10.00">MCHBase/Mapping.h</text>
</a>
</g>
</g>
<!-- Node9&#45;&gt;Node12 -->
<g id="edge17" class="edge"><title>Node9&#45;&gt;Node12</title>
<path fill="none" stroke="midnightblue" d="M1343,-192.403C1343,-183.938 1343,-170.728 1343,-159.82"/>
<polygon fill="midnightblue" stroke="midnightblue" points="1346.5,-159.581 1343,-149.581 1339.5,-159.581 1346.5,-159.581"/>
</g>
<!-- Node12&#45;&gt;Node4 -->
<g id="edge18" class="edge"><title>Node12&#45;&gt;Node4</title>
<path fill="none" stroke="midnightblue" d="M1330.68,-130.403C1316.88,-120.78 1294.3,-105.024 1277.77,-93.4891"/>
<polygon fill="midnightblue" stroke="midnightblue" points="1279.5,-90.432 1269.3,-87.5806 1275.5,-96.1729 1279.5,-90.432"/>
</g>
<!-- Node12&#45;&gt;Node7 -->
<g id="edge20" class="edge"><title>Node12&#45;&gt;Node7</title>
<path fill="none" stroke="midnightblue" d="M1347.93,-130.191C1353.38,-120.194 1362.15,-103.289 1368,-88 1374.63,-70.6518 1380.17,-50.1724 1383.72,-35.6775"/>
<polygon fill="midnightblue" stroke="midnightblue" points="1387.14,-36.4485 1386.04,-25.9107 1380.33,-34.8332 1387.14,-36.4485"/>
</g>
<!-- Node12&#45;&gt;Node13 -->
<g id="edge19" class="edge"><title>Node12&#45;&gt;Node13</title>
<path fill="none" stroke="midnightblue" d="M1287.56,-132.579C1181.1,-120.247 950.664,-93.5557 861.376,-83.2134"/>
<polygon fill="midnightblue" stroke="midnightblue" points="861.541,-79.7092 851.204,-82.0352 860.735,-86.6627 861.541,-79.7092"/>
</g>
<!-- Node14 -->
<g id="node14" class="node"><title>Node14</title>
<polygon fill="none" stroke="#bfbfbf" points="1298,-68.5 1298,-87.5 1360,-87.5 1360,-68.5 1298,-68.5"/>
<text text-anchor="middle" x="1329" y="-75.5" font-family="Helvetica,sans-Serif" font-size="10.00">TExMap.h</text>
</g>
<!-- Node12&#45;&gt;Node14 -->
<g id="edge21" class="edge"><title>Node12&#45;&gt;Node14</title>
<path fill="none" stroke="midnightblue" d="M1340.99,-130.403C1339,-121.849 1335.87,-108.45 1333.31,-97.4762"/>
<polygon fill="midnightblue" stroke="midnightblue" points="1336.68,-96.5237 1331,-87.5806 1329.87,-98.1143 1336.68,-96.5237"/>
</g>
<!-- Node16&#45;&gt;Node4 -->
<g id="edge28" class="edge"><title>Node16&#45;&gt;Node4</title>
<path fill="none" stroke="midnightblue" d="M1043.52,-248.443C1070,-241.535 1104.47,-229.957 1131,-212 1174.04,-182.87 1171.7,-161.187 1208,-124 1217.98,-113.772 1229.77,-102.918 1239.27,-94.4317"/>
<polygon fill="midnightblue" stroke="midnightblue" points="1241.76,-96.9027 1246.94,-87.6596 1237.13,-91.6559 1241.76,-96.9027"/>
</g>
<!-- Node16&#45;&gt;Node7 -->
<g id="edge27" class="edge"><title>Node16&#45;&gt;Node7</title>
<path fill="none" stroke="midnightblue" d="M1027.25,-248.485C1047.15,-240.798 1075.46,-228.214 1097,-212 1165.41,-160.498 1153.08,-114.474 1225,-68 1265.85,-41.6025 1321.27,-28.0948 1355.82,-21.7964"/>
<polygon fill="midnightblue" stroke="midnightblue" points="1356.57,-25.2181 1365.83,-20.0669 1355.38,-18.3202 1356.57,-25.2181"/>
</g>
<!-- Node16&#45;&gt;Node15 -->
<g id="edge24" class="edge"><title>Node16&#45;&gt;Node15</title>
<path fill="none" stroke="midnightblue" d="M998.664,-248.235C994.401,-239.309 987.972,-224.974 984,-212 979.327,-196.738 975.845,-179.139 973.522,-165.281"/>
<polygon fill="midnightblue" stroke="midnightblue" points="976.928,-164.414 971.907,-155.085 970.014,-165.51 976.928,-164.414"/>
</g>
<!-- Node17 -->
<g id="node17" class="node"><title>Node17</title>
<g id="a_node17"><a xlink:href="../../d2/de6/HOMERFactory_8h.html" target="_top" xlink:title="HOMERFactory.h">
<polygon fill="none" stroke="black" points="993.5,-192.5 993.5,-211.5 1088.5,-211.5 1088.5,-192.5 993.5,-192.5"/>
<text text-anchor="middle" x="1041" y="-199.5" font-family="Helvetica,sans-Serif" font-size="10.00">HOMERFactory.h</text>
</a>
</g>
</g>
<!-- Node16&#45;&gt;Node17 -->
<g id="edge25" class="edge"><title>Node16&#45;&gt;Node17</title>
<path fill="none" stroke="midnightblue" d="M1009.27,-248.083C1014.64,-240.455 1022.52,-229.264 1029.08,-219.941"/>
<polygon fill="midnightblue" stroke="midnightblue" points="1031.95,-221.943 1034.84,-211.751 1026.22,-217.915 1031.95,-221.943"/>
</g>
<!-- Node18 -->
<g id="node18" class="node"><title>Node18</title>
<polygon fill="none" stroke="#bfbfbf" points="839,-192.5 839,-211.5 937,-211.5 937,-192.5 839,-192.5"/>
<text text-anchor="middle" x="888" y="-199.5" font-family="Helvetica,sans-Serif" font-size="10.00">boost/signals2.hpp</text>
</g>
<!-- Node16&#45;&gt;Node18 -->
<g id="edge29" class="edge"><title>Node16&#45;&gt;Node18</title>
<path fill="none" stroke="midnightblue" d="M984.778,-248.444C966.104,-239.675 936.844,-225.935 915.383,-215.858"/>
<polygon fill="midnightblue" stroke="midnightblue" points="916.676,-212.599 906.137,-211.516 913.701,-218.935 916.676,-212.599"/>
</g>
<!-- Node19 -->
<g id="node19" class="node"><title>Node19</title>
<g id="a_node19"><a xlink:href="../../dc/dcd/DataHeader_8h.html" target="_top" xlink:title="Headers/DataHeader.h">
<polygon fill="none" stroke="black" points="555.5,-130.5 555.5,-149.5 672.5,-149.5 672.5,-130.5 555.5,-130.5"/>
<text text-anchor="middle" x="614" y="-137.5" font-family="Helvetica,sans-Serif" font-size="10.00">Headers/DataHeader.h</text>
</a>
</g>
</g>
<!-- Node16&#45;&gt;Node19 -->
<g id="edge30" class="edge"><title>Node16&#45;&gt;Node19</title>
<path fill="none" stroke="midnightblue" d="M916.942,-251.975C834.361,-245.945 716.408,-233.806 676,-212 653.126,-199.656 634.77,-175.3 624.13,-158.588"/>
<polygon fill="midnightblue" stroke="midnightblue" points="626.964,-156.511 618.782,-149.78 620.981,-160.144 626.964,-156.511"/>
</g>
<!-- Node33 -->
<g id="node33" class="node"><title>Node33</title>
<g id="a_node33"><a xlink:href="../../d2/d09/HeartbeatFrame_8h.html" target="_top" xlink:title="Headers/HeartbeatFrame.h">
<polygon fill="none" stroke="black" points="685.5,-192.5 685.5,-211.5 820.5,-211.5 820.5,-192.5 685.5,-192.5"/>
<text text-anchor="middle" x="753" y="-199.5" font-family="Helvetica,sans-Serif" font-size="10.00">Headers/HeartbeatFrame.h</text>
</a>
</g>
</g>
<!-- Node16&#45;&gt;Node33 -->
<g id="edge51" class="edge"><title>Node16&#45;&gt;Node33</title>
<path fill="none" stroke="midnightblue" d="M963.387,-248.444C919.775,-239.023 849.6,-223.866 802.422,-213.675"/>
<polygon fill="midnightblue" stroke="midnightblue" points="802.941,-210.207 792.428,-211.516 801.464,-217.049 802.941,-210.207"/>
</g>
<!-- Node17&#45;&gt;Node15 -->
<g id="edge26" class="edge"><title>Node17&#45;&gt;Node15</title>
<path fill="none" stroke="midnightblue" d="M1030.83,-192.403C1021.39,-184.429 1006.97,-172.245 994.543,-161.74"/>
<polygon fill="midnightblue" stroke="midnightblue" points="996.63,-158.922 986.733,-155.141 992.112,-164.269 996.63,-158.922"/>
</g>
<!-- Node19&#45;&gt;Node4 -->
<g id="edge31" class="edge"><title>Node19&#45;&gt;Node4</title>
<path fill="none" stroke="midnightblue" d="M670.036,-130.462C686.142,-128.174 703.747,-125.829 720,-124 910.347,-102.574 1139.71,-86.6361 1223.93,-81.1128"/>
<polygon fill="midnightblue" stroke="midnightblue" points="1224.17,-84.6044 1233.92,-80.4616 1223.72,-77.6192 1224.17,-84.6044"/>
</g>
<!-- Node19&#45;&gt;Node10 -->
<g id="edge33" class="edge"><title>Node19&#45;&gt;Node10</title>
<path fill="none" stroke="midnightblue" d="M634.345,-130.403C658.387,-120.245 698.597,-103.255 726.163,-91.6074"/>
<polygon fill="midnightblue" stroke="midnightblue" points="727.843,-94.6968 735.693,-87.5806 725.119,-88.2488 727.843,-94.6968"/>
</g>
<!-- Node19&#45;&gt;Node13 -->
<g id="edge32" class="edge"><title>Node19&#45;&gt;Node13</title>
<path fill="none" stroke="midnightblue" d="M644.231,-130.403C682.469,-119.53 748.233,-100.829 789.017,-89.232"/>
<polygon fill="midnightblue" stroke="midnightblue" points="790.155,-92.5474 798.816,-86.4456 788.24,-85.8143 790.155,-92.5474"/>
</g>
<!-- Node20 -->
<g id="node20" class="node"><title>Node20</title>
<polygon fill="none" stroke="#bfbfbf" points="1040,-6.5 1040,-25.5 1086,-25.5 1086,-6.5 1040,-6.5"/>
<text text-anchor="middle" x="1063" y="-13.5" font-family="Helvetica,sans-Serif" font-size="10.00">cstring</text>
</g>
<!-- Node19&#45;&gt;Node20 -->
<g id="edge34" class="edge"><title>Node19&#45;&gt;Node20</title>
<path fill="none" stroke="midnightblue" d="M615.368,-130.238C618.29,-114.77 626.702,-82.856 648,-68 717.932,-19.2189 947.607,-53.9443 1030,-32 1032.5,-31.3339 1035.05,-30.4947 1037.57,-29.5553"/>
<polygon fill="midnightblue" stroke="midnightblue" points="1039.1,-32.707 1046.95,-25.589 1036.37,-26.2597 1039.1,-32.707"/>
</g>
<!-- Node21 -->
<g id="node21" class="node"><title>Node21</title>
<polygon fill="none" stroke="#bfbfbf" points="657,-68.5 657,-87.5 713,-87.5 713,-68.5 657,-68.5"/>
<text text-anchor="middle" x="685" y="-75.5" font-family="Helvetica,sans-Serif" font-size="10.00">algorithm</text>
</g>
<!-- Node19&#45;&gt;Node21 -->
<g id="edge35" class="edge"><title>Node19&#45;&gt;Node21</title>
<path fill="none" stroke="midnightblue" d="M624.173,-130.403C635.35,-120.958 653.517,-105.606 667.091,-94.1342"/>
<polygon fill="midnightblue" stroke="midnightblue" points="669.467,-96.7085 674.846,-87.5806 664.949,-91.3619 669.467,-96.7085"/>
</g>
<!-- Node19&#45;&gt;Node22 -->
<g id="edge36" class="edge"><title>Node19&#45;&gt;Node22</title>
<path fill="none" stroke="midnightblue" d="M572.331,-130.467C515.929,-118.917 415.993,-98.4525 360.652,-87.1198"/>
<polygon fill="midnightblue" stroke="midnightblue" points="361.03,-83.6246 350.531,-85.0473 359.625,-90.4823 361.03,-83.6246"/>
</g>
<!-- Node23 -->
<g id="node23" class="node"><title>Node23</title>
<polygon fill="none" stroke="#bfbfbf" points="114.5,-6.5 114.5,-25.5 155.5,-25.5 155.5,-6.5 114.5,-6.5"/>
<text text-anchor="middle" x="135" y="-13.5" font-family="Helvetica,sans-Serif" font-size="10.00">string</text>
</g>
<!-- Node19&#45;&gt;Node23 -->
<g id="edge37" class="edge"><title>Node19&#45;&gt;Node23</title>
<path fill="none" stroke="midnightblue" d="M562.351,-130.447C517.937,-122.237 452.597,-108.107 398,-88 379.721,-81.2682 377.437,-74.2876 359,-68 276,-39.694 248.144,-59.8821 165,-32 163.137,-31.3751 161.243,-30.6543 159.36,-29.8737"/>
<polygon fill="midnightblue" stroke="midnightblue" points="160.761,-26.6654 150.216,-25.6398 157.82,-33.0175 160.761,-26.6654"/>
</g>
<!-- Node24 -->
<g id="node24" class="node"><title>Node24</title>
<g id="a_node24"><a xlink:href="../../dc/d03/MemoryResources_8h.html" target="_top" xlink:title="MemoryResources/MemoryResources.h">
<polygon fill="none" stroke="black" points="407.5,-68.5 407.5,-87.5 600.5,-87.5 600.5,-68.5 407.5,-68.5"/>
<text text-anchor="middle" x="504" y="-75.5" font-family="Helvetica,sans-Serif" font-size="10.00">MemoryResources/MemoryResources.h</text>
</a>
</g>
</g>
<!-- Node19&#45;&gt;Node24 -->
<g id="edge38" class="edge"><title>Node19&#45;&gt;Node24</title>
<path fill="none" stroke="midnightblue" d="M598.24,-130.403C580.024,-120.468 549.827,-103.997 528.532,-92.3812"/>
<polygon fill="midnightblue" stroke="midnightblue" points="530.186,-89.2965 519.731,-87.5806 526.834,-95.4418 530.186,-89.2965"/>
</g>
<!-- Node24&#45;&gt;Node7 -->
<g id="edge47" class="edge"><title>Node24&#45;&gt;Node7</title>
<path fill="none" stroke="midnightblue" d="M600.644,-70.8717C762.832,-60.5609 1083.12,-40.0793 1196,-32 1252.24,-27.9745 1317.71,-22.7431 1355.83,-19.6416"/>
<polygon fill="midnightblue" stroke="midnightblue" points="1356.15,-23.1275 1365.83,-18.8261 1355.58,-16.1507 1356.15,-23.1275"/>
</g>
<!-- Node24&#45;&gt;Node11 -->
<g id="edge48" class="edge"><title>Node24&#45;&gt;Node11</title>
<path fill="none" stroke="midnightblue" d="M600.591,-70.7607C755.711,-60.5731 1047.81,-40.6377 1095,-32 1100.2,-31.0482 1105.63,-29.7714 1110.92,-28.3626"/>
<polygon fill="midnightblue" stroke="midnightblue" points="1112.17,-31.6451 1120.83,-25.5416 1110.25,-24.9124 1112.17,-31.6451"/>
</g>
<!-- Node24&#45;&gt;Node20 -->
<g id="edge43" class="edge"><title>Node24&#45;&gt;Node20</title>
<path fill="none" stroke="midnightblue" d="M600.571,-69.155C749.619,-56.9888 1019.75,-34.6832 1030,-32 1032.5,-31.3447 1035.05,-30.5128 1037.57,-29.5781"/>
<polygon fill="midnightblue" stroke="midnightblue" points="1039.1,-32.7313 1046.96,-25.6186 1036.38,-26.282 1039.1,-32.7313"/>
</g>
<!-- Node24&#45;&gt;Node23 -->
<g id="edge44" class="edge"><title>Node24&#45;&gt;Node23</title>
<path fill="none" stroke="midnightblue" d="M414.307,-68.4792C329.966,-59.8545 210.122,-45.8496 165,-32 163.079,-31.4105 161.132,-30.7075 159.199,-29.9322"/>
<polygon fill="midnightblue" stroke="midnightblue" points="160.404,-26.6345 149.856,-25.6452 157.485,-32.9967 160.404,-26.6345"/>
</g>
<!-- Node25 -->
<g id="node25" class="node"><title>Node25</title>
<polygon fill="none" stroke="#bfbfbf" points="462,-1 462,-31 562,-31 562,-1 462,-1"/>
<text text-anchor="start" x="470" y="-19" font-family="Helvetica,sans-Serif" font-size="10.00">boost/container/flat</text>
<text text-anchor="middle" x="512" y="-8" font-family="Helvetica,sans-Serif" font-size="10.00">_map.hpp</text>
</g>
<!-- Node24&#45;&gt;Node25 -->
<g id="edge39" class="edge"><title>Node24&#45;&gt;Node25</title>
<path fill="none" stroke="midnightblue" d="M505.146,-68.4035C506.098,-61.2646 507.5,-50.7517 508.788,-41.0903"/>
<polygon fill="midnightblue" stroke="midnightblue" points="512.262,-41.5157 510.115,-31.1408 505.324,-40.5905 512.262,-41.5157"/>
</g>
<!-- Node26 -->
<g id="node26" class="node"><title>Node26</title>
<polygon fill="none" stroke="#bfbfbf" points="580,-1 580,-31 696,-31 696,-1 580,-1"/>
<text text-anchor="start" x="588" y="-19" font-family="Helvetica,sans-Serif" font-size="10.00">boost/container/pmr</text>
<text text-anchor="middle" x="638" y="-8" font-family="Helvetica,sans-Serif" font-size="10.00">/memory_resource.hpp</text>
</g>
<!-- Node24&#45;&gt;Node26 -->
<g id="edge40" class="edge"><title>Node24&#45;&gt;Node26</title>
<path fill="none" stroke="midnightblue" d="M523.199,-68.4035C542.514,-59.7549 572.888,-46.1545 597.543,-35.1152"/>
<polygon fill="midnightblue" stroke="midnightblue" points="598.98,-38.3064 606.677,-31.0253 596.12,-31.9176 598.98,-38.3064"/>
</g>
<!-- Node27 -->
<g id="node27" class="node"><title>Node27</title>
<polygon fill="none" stroke="#bfbfbf" points="714,-1 714,-31 870,-31 870,-1 714,-1"/>
<text text-anchor="start" x="722" y="-19" font-family="Helvetica,sans-Serif" font-size="10.00">boost/container/pmr</text>
<text text-anchor="middle" x="792" y="-8" font-family="Helvetica,sans-Serif" font-size="10.00">/monotonic_buffer_resource.hpp</text>
</g>
<!-- Node24&#45;&gt;Node27 -->
<g id="edge41" class="edge"><title>Node24&#45;&gt;Node27</title>
<path fill="none" stroke="midnightblue" d="M544.958,-68.4672C588.963,-59.2994 659.928,-44.5149 714.533,-33.1389"/>
<polygon fill="midnightblue" stroke="midnightblue" points="715.453,-36.5226 724.529,-31.0565 714.025,-29.6697 715.453,-36.5226"/>
</g>
<!-- Node28 -->
<g id="node28" class="node"><title>Node28</title>
<polygon fill="none" stroke="#bfbfbf" points="888.5,-1 888.5,-31 1021.5,-31 1021.5,-1 888.5,-1"/>
<text text-anchor="start" x="896.5" y="-19" font-family="Helvetica,sans-Serif" font-size="10.00">boost/container/pmr</text>
<text text-anchor="middle" x="955" y="-8" font-family="Helvetica,sans-Serif" font-size="10.00">/polymorphic_allocator.hpp</text>
</g>
<!-- Node24&#45;&gt;Node28 -->
<g id="edge42" class="edge"><title>Node24&#45;&gt;Node28</title>
<path fill="none" stroke="midnightblue" d="M590.644,-68.4769C664.435,-60.7858 773.487,-48.402 878.204,-32.0503"/>
<polygon fill="midnightblue" stroke="midnightblue" points="878.99,-35.4697 888.323,-30.4555 877.9,-28.555 878.99,-35.4697"/>
</g>
<!-- Node29 -->
<g id="node29" class="node"><title>Node29</title>
<polygon fill="none" stroke="#bfbfbf" points="174,-6.5 174,-25.5 236,-25.5 236,-6.5 174,-6.5"/>
<text text-anchor="middle" x="205" y="-13.5" font-family="Helvetica,sans-Serif" font-size="10.00">type_traits</text>
</g>
<!-- Node24&#45;&gt;Node29 -->
<g id="edge45" class="edge"><title>Node24&#45;&gt;Node29</title>
<path fill="none" stroke="midnightblue" d="M434.247,-68.4811C381.67,-61.1955 308.089,-49.1482 245,-32 241.779,-31.1246 238.455,-30.0935 235.163,-28.9884"/>
<polygon fill="midnightblue" stroke="midnightblue" points="236.114,-25.6113 225.519,-25.5332 233.753,-32.2011 236.114,-25.6113"/>
</g>
<!-- Node30 -->
<g id="node30" class="node"><title>Node30</title>
<polygon fill="none" stroke="#bfbfbf" points="254,-6.5 254,-25.5 294,-25.5 294,-6.5 254,-6.5"/>
<text text-anchor="middle" x="274" y="-13.5" font-family="Helvetica,sans-Serif" font-size="10.00">utility</text>
</g>
<!-- Node24&#45;&gt;Node30 -->
<g id="edge46" class="edge"><title>Node24&#45;&gt;Node30</title>
<path fill="none" stroke="midnightblue" d="M447.879,-68.4248C406.946,-61.2177 350.553,-49.2934 303,-32 301.352,-31.4007 299.679,-30.7271 298.01,-30.006"/>
<polygon fill="midnightblue" stroke="midnightblue" points="299.249,-26.7182 288.72,-25.5424 296.218,-33.0278 299.249,-26.7182"/>
</g>
<!-- Node24&#45;&gt;Node31 -->
<g id="edge49" class="edge"><title>Node24&#45;&gt;Node31</title>
<path fill="none" stroke="midnightblue" d="M407.48,-70.0592C326.309,-63.2812 207.442,-51.1514 105,-32 99.1362,-30.9038 92.9872,-29.529 86.9869,-28.0593"/>
<polygon fill="midnightblue" stroke="midnightblue" points="87.6616,-24.6192 77.1059,-25.5288 85.925,-31.4003 87.6616,-24.6192"/>
</g>
<!-- Node32 -->
<g id="node32" class="node"><title>Node32</title>
<polygon fill="none" stroke="#bfbfbf" points="312.5,-6.5 312.5,-25.5 443.5,-25.5 443.5,-6.5 312.5,-6.5"/>
<text text-anchor="middle" x="378" y="-13.5" font-family="Helvetica,sans-Serif" font-size="10.00">FairMQTransportFactory.h</text>
</g>
<!-- Node24&#45;&gt;Node32 -->
<g id="edge50" class="edge"><title>Node24&#45;&gt;Node32</title>
<path fill="none" stroke="midnightblue" d="M485.947,-68.4035C464.802,-58.3341 429.56,-41.5522 405.122,-29.9151"/>
<polygon fill="midnightblue" stroke="midnightblue" points="406.553,-26.72 396.019,-25.5806 403.543,-33.04 406.553,-26.72"/>
</g>
<!-- Node33&#45;&gt;Node7 -->
<g id="edge55" class="edge"><title>Node33&#45;&gt;Node7</title>
<path fill="none" stroke="midnightblue" d="M775.79,-192.344C795.997,-184.229 825.946,-171.105 850,-156 868.988,-144.076 869.381,-134.854 889,-124 957.5,-86.1026 979.922,-86.455 1056,-68 1164.3,-41.7279 1295.92,-26.2595 1355.69,-20.1055"/>
<polygon fill="midnightblue" stroke="midnightblue" points="1356.4,-23.5521 1365.99,-19.0643 1355.69,-16.5876 1356.4,-23.5521"/>
</g>
<!-- Node33&#45;&gt;Node19 -->
<g id="edge52" class="edge"><title>Node33&#45;&gt;Node19</title>
<path fill="none" stroke="midnightblue" d="M733.085,-192.403C709.551,-182.245 670.19,-165.255 643.207,-153.607"/>
<polygon fill="midnightblue" stroke="midnightblue" points="644.447,-150.33 633.878,-149.581 641.672,-156.757 644.447,-150.33"/>
</g>
<!-- Node34 -->
<g id="node34" class="node"><title>Node34</title>
<polygon fill="none" stroke="#bfbfbf" points="782.5,-130.5 782.5,-149.5 841.5,-149.5 841.5,-130.5 782.5,-130.5"/>
<text text-anchor="middle" x="812" y="-137.5" font-family="Helvetica,sans-Serif" font-size="10.00">functional</text>
</g>
<!-- Node33&#45;&gt;Node34 -->
<g id="edge53" class="edge"><title>Node33&#45;&gt;Node34</title>
<path fill="none" stroke="midnightblue" d="M761.453,-192.403C770.566,-183.136 785.27,-168.183 796.476,-156.788"/>
<polygon fill="midnightblue" stroke="midnightblue" points="799.047,-159.165 803.562,-149.581 794.055,-154.257 799.047,-159.165"/>
</g>
<!-- Node35 -->
<g id="node35" class="node"><title>Node35</title>
<polygon fill="none" stroke="#bfbfbf" points="729.5,-130.5 729.5,-149.5 764.5,-149.5 764.5,-130.5 729.5,-130.5"/>
<text text-anchor="middle" x="747" y="-137.5" font-family="Helvetica,sans-Serif" font-size="10.00">map</text>
</g>
<!-- Node33&#45;&gt;Node35 -->
<g id="edge54" class="edge"><title>Node33&#45;&gt;Node35</title>
<path fill="none" stroke="midnightblue" d="M752.14,-192.403C751.294,-183.938 749.973,-170.728 748.882,-159.82"/>
<polygon fill="midnightblue" stroke="midnightblue" points="752.336,-159.183 747.858,-149.581 745.371,-159.879 752.336,-159.183"/>
</g>
</g>
</svg>
        <g id="navigator" transform="translate(0 0)" fill="#404254">
                <rect fill="#f2f5e9" fill-opacity="0.5" stroke="#606060" stroke-width=".5" x="0" y="0" width="60" height="60"/>
                <use id="zoomplus" xlink:href="#zoomPlus" x="17" y="9" onmousedown="handleZoom(evt,'in')"/>
                <use id="zoomminus" xlink:href="#zoomMin" x="42" y="9" onmousedown="handleZoom(evt,'out')"/>
                <use id="reset" xlink:href="#resetDef" x="30" y="36" onmousedown="handleReset()"/>
                <g id="arrowUp" xlink:href="#dirArrow" transform="translate(30 24)" onmousedown="handlePan(0,-1)">
                  <use xlink:href="#rim" fill="#404040">
                        <set attributeName="fill" to="#808080" begin="arrowUp.mouseover" end="arrowUp.mouseout"/>
                  </use>
                  <path fill="none" stroke="white" stroke-width="1.5" d="M0,-3.0v7 M-2.5,-0.5L0,-3.0L2.5,-0.5"/>
                </g>
                <g id="arrowRight" xlink:href="#dirArrow" transform="rotate(90) translate(36 -43)" onmousedown="handlePan(1,0)">
                  <use xlink:href="#rim" fill="#404040">
                        <set attributeName="fill" to="#808080" begin="arrowRight.mouseover" end="arrowRight.mouseout"/>
                  </use>
                  <path fill="none" stroke="white" stroke-width="1.5" d="M0,-3.0v7 M-2.5,-0.5L0,-3.0L2.5,-0.5"/>
                </g>
                <g id="arrowDown" xlink:href="#dirArrow" transform="rotate(180) translate(-30 -48)" onmousedown="handlePan(0,1)">
                  <use xlink:href="#rim" fill="#404040">
                        <set attributeName="fill" to="#808080" begin="arrowDown.mouseover" end="arrowDown.mouseout"/>
                  </use>
                  <path fill="none" stroke="white" stroke-width="1.5" d="M0,-3.0v7 M-2.5,-0.5L0,-3.0L2.5,-0.5"/>
                </g>
                <g id="arrowLeft" xlink:href="#dirArrow" transform="rotate(270) translate(-36 17)" onmousedown="handlePan(-1,0)">
                  <use xlink:href="#rim" fill="#404040">
                        <set attributeName="fill" to="#808080" begin="arrowLeft.mouseover" end="arrowLeft.mouseout"/>
                  </use>
                  <path fill="none" stroke="white" stroke-width="1.5" d="M0,-3.0v7 M-2.5,-0.5L0,-3.0L2.5,-0.5"/>
                </g>
        </g>
        <svg viewBox="0 0 15 15" width="100%" height="30px" preserveAspectRatio="xMaxYMin meet">
         <g id="arrow_out" transform="scale(0.3 0.3)">
          <a xlink:href="PreClusterFinderDevice_8cxx__incl_org.svg" target="_base">
           <rect id="button" ry="5" rx="5" y="6" x="6" height="38" width="38"
                fill="#f2f5e9" fill-opacity="0.5" stroke="#606060" stroke-width="1.0"/>
           <path id="arrow"
             d="M 11.500037,31.436501 C 11.940474,20.09759 22.043105,11.32322 32.158766,21.979434 L 37.068811,17.246167 C 37.068811,17.246167 37.088388,32 37.088388,32 L 22.160133,31.978069 C 22.160133,31.978069 26.997745,27.140456 26.997745,27.140456 C 18.528582,18.264221 13.291696,25.230495 11.500037,31.436501 z"
             style="fill:#404040;"/>
          </a>
         </g>
        </svg>
</svg>
