<?xml version="1.0" encoding="UTF-8" standalone="no"?>
<!DOCTYPE svg PUBLIC "-//W3C//DTD SVG 1.1//EN"
 "http://www.w3.org/Graphics/SVG/1.1/DTD/svg11.dtd">
<!-- Generated by graphviz version 2.36.0 (20140111.2315)
 -->
<!-- Title: o2::header::BaseHeader Pages: 1 -->
<!--zoomable 870 -->
<svg id="main" version="1.1" xmlns="http://www.w3.org/2000/svg" xmlns:xlink="http://www.w3.org/1999/xlink" xml:space="preserve" onload="init(evt)">
<style type="text/css"><![CDATA[
.edge:hover path { stroke: red; }
.edge:hover polygon { stroke: red; fill: red; }
]]></style>
<script type="text/javascript"><![CDATA[
var edges = document.getElementsByTagName('g');
if (edges && edges.length) {
  for (var i=0;i<edges.length;i++) {
    if (edges[i].id.substr(0,4)=='edge') {
      edges[i].setAttribute('class','edge');
    }
  }
}
]]></script>
        <defs>
                <circle id="rim" cx="0" cy="0" r="7"/>
                <circle id="rim2" cx="0" cy="0" r="3.5"/>
                <g id="zoomPlus">
                        <use xlink:href="#rim" fill="#404040">
                                <set attributeName="fill" to="#808080" begin="zoomplus.mouseover" end="zoomplus.mouseout"/>
                        </use>
                        <path d="M-4,0h8M0,-4v8" fill="none" stroke="white" stroke-width="1.5" pointer-events="none"/>
                </g>
                <g id="zoomMin">
                        <use xlink:href="#rim" fill="#404040">
                                <set attributeName="fill" to="#808080" begin="zoomminus.mouseover" end="zoomminus.mouseout"/>
                        </use>
                        <path d="M-4,0h8" fill="none" stroke="white" stroke-width="1.5" pointer-events="none"/>
                </g>
                <g id="dirArrow">
                        <path fill="none" stroke="white" stroke-width="1.5" d="M0,-3.0v7 M-2.5,-0.5L0,-3.0L2.5,-0.5"/>
                </g>
               <g id="resetDef">
                       <use xlink:href="#rim2" fill="#404040">
                               <set attributeName="fill" to="#808080" begin="reset.mouseover" end="reset.mouseout"/>
                       </use>
               </g>
        </defs>

<script type="text/javascript">
var viewWidth = 918;
var viewHeight = 870;
var sectionId = 'dynsection-1';
</script>
<script xlink:href="../../svgpan.js"/>
<svg id="graph" class="graph">
<g id="viewport">
<title>o2::header::BaseHeader</title>
<!-- Node1 -->
<g id="node1" class="node"><title>Node1</title>
<polygon fill="#bfbfbf" stroke="black" points="438.846,-0.5 438.846,-145.5 560.846,-145.5 560.846,-0.5 438.846,-0.5"/>
<text text-anchor="middle" x="499.846" y="-133.5" font-family="Helvetica,sans-Serif" font-size="10.00">o2::header::BaseHeader</text>
<polyline fill="none" stroke="black" points="438.846,-126.5 560.846,-126.5 "/>
<text text-anchor="middle" x="499.846" y="-114.5" font-family="Helvetica,sans-Serif" font-size="10.00"> </text>
<polyline fill="none" stroke="black" points="438.846,-107.5 560.846,-107.5 "/>
<text text-anchor="start" x="446.846" y="-95.5" font-family="Helvetica,sans-Serif" font-size="10.00">+ BaseHeader()</text>
<text text-anchor="start" x="446.846" y="-84.5" font-family="Helvetica,sans-Serif" font-size="10.00">+ BaseHeader()</text>
<text text-anchor="start" x="446.846" y="-73.5" font-family="Helvetica,sans-Serif" font-size="10.00">+ BaseHeader()</text>
<text text-anchor="start" x="446.846" y="-62.5" font-family="Helvetica,sans-Serif" font-size="10.00">+ size()</text>
<text text-anchor="start" x="446.846" y="-51.5" font-family="Helvetica,sans-Serif" font-size="10.00">+ data()</text>
<text text-anchor="start" x="446.846" y="-40.5" font-family="Helvetica,sans-Serif" font-size="10.00">+ next()</text>
<text text-anchor="start" x="446.846" y="-29.5" font-family="Helvetica,sans-Serif" font-size="10.00">+ next()</text>
<text text-anchor="start" x="446.846" y="-18.5" font-family="Helvetica,sans-Serif" font-size="10.00">+ get()</text>
<text text-anchor="start" x="446.846" y="-7.5" font-family="Helvetica,sans-Serif" font-size="10.00">+ get()</text>
</g>
<!-- Node2 -->
<g id="node2" class="node"><title>Node2</title>
<g id="a_node2"><a xlink:href="../../d9/db3/structo2_1_1header_1_1Descriptor.html" target="_top" xlink:title="{o2::header::Descriptor\l\&lt; gSizeHeaderDescriptionString \&gt;\n||+ Descriptor()\l+ Descriptor()\l+ Descriptor()\l+ Descriptor()\l+ operator=()\l+ operator ItgType()\l+ runtimeInit()\l+ operator==()\l+ operator==()\l+ operator!=()\l+ operator!=()\l+ as()\l+ print()\l}">
<polygon fill="none" stroke="black" points="416.846,-271 416.846,-471 582.846,-471 582.846,-271 416.846,-271"/>
<text text-anchor="start" x="424.846" y="-459" font-family="Helvetica,sans-Serif" font-size="10.00">o2::header::Descriptor</text>
<text text-anchor="middle" x="499.846" y="-448" font-family="Helvetica,sans-Serif" font-size="10.00">&lt; gSizeHeaderDescriptionString &gt;</text>
<polyline fill="none" stroke="black" points="416.846,-441 582.846,-441 "/>
<text text-anchor="middle" x="499.846" y="-429" font-family="Helvetica,sans-Serif" font-size="10.00"> </text>
<polyline fill="none" stroke="black" points="416.846,-422 582.846,-422 "/>
<text text-anchor="start" x="424.846" y="-410" font-family="Helvetica,sans-Serif" font-size="10.00">+ Descriptor()</text>
<text text-anchor="start" x="424.846" y="-399" font-family="Helvetica,sans-Serif" font-size="10.00">+ Descriptor()</text>
<text text-anchor="start" x="424.846" y="-388" font-family="Helvetica,sans-Serif" font-size="10.00">+ Descriptor()</text>
<text text-anchor="start" x="424.846" y="-377" font-family="Helvetica,sans-Serif" font-size="10.00">+ Descriptor()</text>
<text text-anchor="start" x="424.846" y="-366" font-family="Helvetica,sans-Serif" font-size="10.00">+ operator=()</text>
<text text-anchor="start" x="424.846" y="-355" font-family="Helvetica,sans-Serif" font-size="10.00">+ operator ItgType()</text>
<text text-anchor="start" x="424.846" y="-344" font-family="Helvetica,sans-Serif" font-size="10.00">+ runtimeInit()</text>
<text text-anchor="start" x="424.846" y="-333" font-family="Helvetica,sans-Serif" font-size="10.00">+ operator==()</text>
<text text-anchor="start" x="424.846" y="-322" font-family="Helvetica,sans-Serif" font-size="10.00">+ operator==()</text>
<text text-anchor="start" x="424.846" y="-311" font-family="Helvetica,sans-Serif" font-size="10.00">+ operator!=()</text>
<text text-anchor="start" x="424.846" y="-300" font-family="Helvetica,sans-Serif" font-size="10.00">+ operator!=()</text>
<text text-anchor="start" x="424.846" y="-289" font-family="Helvetica,sans-Serif" font-size="10.00">+ as()</text>
<text text-anchor="start" x="424.846" y="-278" font-family="Helvetica,sans-Serif" font-size="10.00">+ print()</text>
</a>
</g>
</g>
<!-- Node2&#45;&gt;Node1 -->
<g id="edge1" class="edge"><title>Node2&#45;&gt;Node1</title>
<path fill="none" stroke="#404040" d="M499.846,-270.613C499.846,-233.955 499.846,-192.821 499.846,-157.689"/>
<polygon fill="none" stroke="#404040" points="499.846,-157.529 495.846,-151.53 499.846,-145.529 503.846,-151.529 499.846,-157.529"/>
<text text-anchor="middle" x="528.346" y="-205.5" font-family="Helvetica,sans-Serif" font-size="10.00"> +description</text>
</g>
<!-- Node3 -->
<g id="node3" class="node"><title>Node3</title>
<polygon fill="none" stroke="#bfbfbf" points="287.846,-803.5 287.846,-860.5 325.846,-860.5 325.846,-803.5 287.846,-803.5"/>
<text text-anchor="middle" x="306.846" y="-848.5" font-family="Helvetica,sans-Serif" font-size="10.00">Type</text>
<polyline fill="none" stroke="#bfbfbf" points="287.846,-841.5 325.846,-841.5 "/>
<text text-anchor="middle" x="306.846" y="-829.5" font-family="Helvetica,sans-Serif" font-size="10.00"> </text>
<polyline fill="none" stroke="#bfbfbf" points="287.846,-822.5 325.846,-822.5 "/>
<text text-anchor="middle" x="306.846" y="-810.5" font-family="Helvetica,sans-Serif" font-size="10.00"> </text>
</g>
<!-- Node3&#45;&gt;Node2 -->
<g id="edge2" class="edge"><title>Node3&#45;&gt;Node2</title>
<path fill="none" stroke="#404040" d="M326.078,-828.285C351.072,-823.71 394.294,-812.045 417.846,-784 423.897,-776.794 412.185,-870.15 478.846,-512 480.589,-502.638 482.285,-492.903 483.909,-483.122"/>
<polygon fill="none" stroke="#404040" points="483.923,-483.035 480.939,-476.47 485.852,-471.191 488.835,-477.756 483.923,-483.035"/>
<text text-anchor="middle" x="484.846" y="-628.5" font-family="Helvetica,sans-Serif" font-size="10.00"> +itg</text>
</g>
<!-- Node7 -->
<g id="node7" class="node"><title>Node7</title>
<g id="a_node7"><a xlink:href="../../d9/db3/structo2_1_1header_1_1Descriptor.html" target="_top" xlink:title="{o2::header::Descriptor\l\&lt; N, PrinterPolicy \&gt;\n||+ Descriptor()\l+ Descriptor()\l+ Descriptor()\l+ operator=()\l+ operator ItgType()\l+ Descriptor()\l+ runtimeInit()\l+ operator==()\l+ operator!=()\l+ operator==()\l+ operator!=()\l+ as()\l+ print()\l}">
<polygon fill="none" stroke="black" points="250.346,-531 250.346,-731 363.346,-731 363.346,-531 250.346,-531"/>
<text text-anchor="start" x="258.346" y="-719" font-family="Helvetica,sans-Serif" font-size="10.00">o2::header::Descriptor</text>
<text text-anchor="middle" x="306.846" y="-708" font-family="Helvetica,sans-Serif" font-size="10.00">&lt; N, PrinterPolicy &gt;</text>
<polyline fill="none" stroke="black" points="250.346,-701 363.346,-701 "/>
<text text-anchor="middle" x="306.846" y="-689" font-family="Helvetica,sans-Serif" font-size="10.00"> </text>
<polyline fill="none" stroke="black" points="250.346,-682 363.346,-682 "/>
<text text-anchor="start" x="258.346" y="-670" font-family="Helvetica,sans-Serif" font-size="10.00">+ Descriptor()</text>
<text text-anchor="start" x="258.346" y="-659" font-family="Helvetica,sans-Serif" font-size="10.00">+ Descriptor()</text>
<text text-anchor="start" x="258.346" y="-648" font-family="Helvetica,sans-Serif" font-size="10.00">+ Descriptor()</text>
<text text-anchor="start" x="258.346" y="-637" font-family="Helvetica,sans-Serif" font-size="10.00">+ operator=()</text>
<text text-anchor="start" x="258.346" y="-626" font-family="Helvetica,sans-Serif" font-size="10.00">+ operator ItgType()</text>
<text text-anchor="start" x="258.346" y="-615" font-family="Helvetica,sans-Serif" font-size="10.00">+ Descriptor()</text>
<text text-anchor="start" x="258.346" y="-604" font-family="Helvetica,sans-Serif" font-size="10.00">+ runtimeInit()</text>
<text text-anchor="start" x="258.346" y="-593" font-family="Helvetica,sans-Serif" font-size="10.00">+ operator==()</text>
<text text-anchor="start" x="258.346" y="-582" font-family="Helvetica,sans-Serif" font-size="10.00">+ operator!=()</text>
<text text-anchor="start" x="258.346" y="-571" font-family="Helvetica,sans-Serif" font-size="10.00">+ operator==()</text>
<text text-anchor="start" x="258.346" y="-560" font-family="Helvetica,sans-Serif" font-size="10.00">+ operator!=()</text>
<text text-anchor="start" x="258.346" y="-549" font-family="Helvetica,sans-Serif" font-size="10.00">+ as()</text>
<text text-anchor="start" x="258.346" y="-538" font-family="Helvetica,sans-Serif" font-size="10.00">+ print()</text>
</a>
</g>
</g>
<!-- Node3&#45;&gt;Node7 -->
<g id="edge7" class="edge"><title>Node3&#45;&gt;Node7</title>
<path fill="none" stroke="#404040" d="M306.846,-803.33C306.846,-787.216 306.846,-765.721 306.846,-743.415"/>
<polygon fill="none" stroke="#404040" points="306.846,-743.336 302.846,-737.336 306.846,-731.336 310.846,-737.336 306.846,-743.336"/>
<text text-anchor="middle" x="316.846" y="-764.5" font-family="Helvetica,sans-Serif" font-size="10.00"> +itg</text>
</g>
<!-- Node9 -->
<g id="node9" class="node"><title>Node9</title>
<g id="a_node9"><a xlink:href="../../d9/db3/structo2_1_1header_1_1Descriptor.html" target="_top" xlink:title="{o2::header::Descriptor\l\&lt; gSizeSerializationMethodString \&gt;\n||+ Descriptor()\l+ Descriptor()\l+ Descriptor()\l+ Descriptor()\l+ operator=()\l+ operator ItgType()\l+ runtimeInit()\l+ operator==()\l+ operator==()\l+ operator!=()\l+ operator!=()\l+ as()\l+ print()\l}">
<polygon fill="none" stroke="black" points="61.8461,-271 61.8461,-471 231.846,-471 231.846,-271 61.8461,-271"/>
<text text-anchor="start" x="69.8461" y="-459" font-family="Helvetica,sans-Serif" font-size="10.00">o2::header::Descriptor</text>
<text text-anchor="middle" x="146.846" y="-448" font-family="Helvetica,sans-Serif" font-size="10.00">&lt; gSizeSerializationMethodString &gt;</text>
<polyline fill="none" stroke="black" points="61.8461,-441 231.846,-441 "/>
<text text-anchor="middle" x="146.846" y="-429" font-family="Helvetica,sans-Serif" font-size="10.00"> </text>
<polyline fill="none" stroke="black" points="61.8461,-422 231.846,-422 "/>
<text text-anchor="start" x="69.8461" y="-410" font-family="Helvetica,sans-Serif" font-size="10.00">+ Descriptor()</text>
<text text-anchor="start" x="69.8461" y="-399" font-family="Helvetica,sans-Serif" font-size="10.00">+ Descriptor()</text>
<text text-anchor="start" x="69.8461" y="-388" font-family="Helvetica,sans-Serif" font-size="10.00">+ Descriptor()</text>
<text text-anchor="start" x="69.8461" y="-377" font-family="Helvetica,sans-Serif" font-size="10.00">+ Descriptor()</text>
<text text-anchor="start" x="69.8461" y="-366" font-family="Helvetica,sans-Serif" font-size="10.00">+ operator=()</text>
<text text-anchor="start" x="69.8461" y="-355" font-family="Helvetica,sans-Serif" font-size="10.00">+ operator ItgType()</text>
<text text-anchor="start" x="69.8461" y="-344" font-family="Helvetica,sans-Serif" font-size="10.00">+ runtimeInit()</text>
<text text-anchor="start" x="69.8461" y="-333" font-family="Helvetica,sans-Serif" font-size="10.00">+ operator==()</text>
<text text-anchor="start" x="69.8461" y="-322" font-family="Helvetica,sans-Serif" font-size="10.00">+ operator==()</text>
<text text-anchor="start" x="69.8461" y="-311" font-family="Helvetica,sans-Serif" font-size="10.00">+ operator!=()</text>
<text text-anchor="start" x="69.8461" y="-300" font-family="Helvetica,sans-Serif" font-size="10.00">+ operator!=()</text>
<text text-anchor="start" x="69.8461" y="-289" font-family="Helvetica,sans-Serif" font-size="10.00">+ as()</text>
<text text-anchor="start" x="69.8461" y="-278" font-family="Helvetica,sans-Serif" font-size="10.00">+ print()</text>
</a>
</g>
</g>
<!-- Node3&#45;&gt;Node9 -->
<g id="edge16" class="edge"><title>Node3&#45;&gt;Node9</title>
<path fill="none" stroke="#404040" d="M287.785,-830.014C255.56,-827.422 189.741,-818.027 147.846,-784 127.471,-767.452 126.263,-757.452 119.846,-732 99.2785,-650.421 107.704,-555.413 120.372,-483.49"/>
<polygon fill="none" stroke="#404040" points="120.452,-483.051 117.595,-476.43 122.608,-471.247 125.465,-477.868 120.452,-483.051"/>
<text text-anchor="middle" x="129.846" y="-628.5" font-family="Helvetica,sans-Serif" font-size="10.00"> +itg</text>
</g>
<!-- Node4 -->
<g id="node4" class="node"><title>Node4</title>
<polygon fill="none" stroke="#bfbfbf" points="47.3461,-803.5 47.3461,-860.5 82.3461,-860.5 82.3461,-803.5 47.3461,-803.5"/>
<text text-anchor="middle" x="64.8461" y="-848.5" font-family="Helvetica,sans-Serif" font-size="10.00">char</text>
<polyline fill="none" stroke="#bfbfbf" points="47.3461,-841.5 82.3461,-841.5 "/>
<text text-anchor="middle" x="64.8461" y="-829.5" font-family="Helvetica,sans-Serif" font-size="10.00"> </text>
<polyline fill="none" stroke="#bfbfbf" points="47.3461,-822.5 82.3461,-822.5 "/>
<text text-anchor="middle" x="64.8461" y="-810.5" font-family="Helvetica,sans-Serif" font-size="10.00"> </text>
</g>
<!-- Node4&#45;&gt;Node1 -->
<g id="edge13" class="edge"><title>Node4&#45;&gt;Node1</title>
<path fill="none" stroke="#404040" d="M54.9071,-803.41C25.7363,-717.355 -51.2551,-448.934 52.8461,-270 129.802,-137.724 320.643,-94.5344 426.385,-80.5681"/>
<polygon fill="none" stroke="#404040" points="426.626,-80.538 432.081,-75.8216 438.532,-79.0429 433.077,-83.7593 426.626,-80.538"/>
<text text-anchor="middle" x="31.3461" y="-498.5" font-family="Helvetica,sans-Serif" font-size="10.00"> +magicString</text>
</g>
<!-- Node4&#45;&gt;Node2 -->
<g id="edge3" class="edge"><title>Node4&#45;&gt;Node2</title>
<path fill="none" stroke="#404040" d="M82.678,-829.508C135.215,-824.857 288.386,-809.395 330.846,-784 432.536,-723.181 337.276,-622.083 411.846,-530 424.627,-514.217 440.127,-526.974 453.846,-512 461.883,-503.228 468.517,-493.024 473.994,-482.197"/>
<polygon fill="none" stroke="#404040" points="474.048,-482.08 472.942,-474.955 479.094,-471.193 480.2,-478.319 474.048,-482.08"/>
<text text-anchor="middle" x="422.346" y="-628.5" font-family="Helvetica,sans-Serif" font-size="10.00"> +str</text>
</g>
<!-- Node4&#45;&gt;Node7 -->
<g id="edge8" class="edge"><title>Node4&#45;&gt;Node7</title>
<path fill="none" stroke="#404040" d="M82.741,-821.383C112.264,-805.085 172.334,-770.077 216.846,-732 225.343,-724.732 233.809,-716.685 241.958,-708.405"/>
<polygon fill="none" stroke="#404040" points="242.002,-708.36 243.282,-701.263 250.325,-699.715 249.045,-706.812 242.002,-708.36"/>
<text text-anchor="middle" x="204.346" y="-764.5" font-family="Helvetica,sans-Serif" font-size="10.00"> +str</text>
</g>
<!-- Node4&#45;&gt;Node9 -->
<g id="edge17" class="edge"><title>Node4&#45;&gt;Node9</title>
<path fill="none" stroke="#404040" d="M60.1728,-803.482C52.0451,-749.877 38.3855,-628.116 62.8461,-530 66.8372,-513.991 72.7876,-497.824 79.7126,-482.254"/>
<polygon fill="none" stroke="#404040" points="79.8671,-481.92 78.761,-474.795 84.9132,-471.033 86.0193,-478.159 79.8671,-481.92"/>
<text text-anchor="middle" x="73.3461" y="-628.5" font-family="Helvetica,sans-Serif" font-size="10.00"> +str</text>
</g>
<!-- Node5 -->
<g id="node5" class="node"><title>Node5</title>
<polygon fill="none" stroke="#bfbfbf" points="450.346,-803.5 450.346,-860.5 479.346,-860.5 479.346,-803.5 450.346,-803.5"/>
<text text-anchor="middle" x="464.846" y="-848.5" font-family="Helvetica,sans-Serif" font-size="10.00">int</text>
<polyline fill="none" stroke="#bfbfbf" points="450.346,-841.5 479.346,-841.5 "/>
<text text-anchor="middle" x="464.846" y="-829.5" font-family="Helvetica,sans-Serif" font-size="10.00"> </text>
<polyline fill="none" stroke="#bfbfbf" points="450.346,-822.5 479.346,-822.5 "/>
<text text-anchor="middle" x="464.846" y="-810.5" font-family="Helvetica,sans-Serif" font-size="10.00"> </text>
</g>
<!-- Node5&#45;&gt;Node2 -->
<g id="edge4" class="edge"><title>Node5&#45;&gt;Node2</title>
<path fill="none" stroke="#404040" d="M479.709,-829.42C503.724,-825.976 550.429,-815.387 570.846,-784 588.779,-756.431 644.041,-973.852 552.846,-530 549.691,-514.643 545.497,-498.708 540.845,-483.128"/>
<polygon fill="none" stroke="#404040" points="540.734,-482.769 535.148,-478.209 537.208,-471.298 542.795,-475.858 540.734,-482.769"/>
<text text-anchor="middle" x="618.346" y="-639.5" font-family="Helvetica,sans-Serif" font-size="10.00"> +arraySize</text>
<text text-anchor="middle" x="618.346" y="-628.5" font-family="Helvetica,sans-Serif" font-size="10.00">+size</text>
<text text-anchor="middle" x="618.346" y="-617.5" font-family="Helvetica,sans-Serif" font-size="10.00">+bitcount</text>
</g>
<!-- Node5&#45;&gt;Node7 -->
<g id="edge9" class="edge"><title>Node5&#45;&gt;Node7</title>
<path fill="none" stroke="#404040" d="M450.107,-813.656C433.517,-794.031 405.875,-761.02 382.846,-732 378.964,-727.108 374.999,-722.059 371.019,-716.949"/>
<polygon fill="none" stroke="#404040" points="370.715,-716.557 363.877,-714.266 363.363,-707.073 370.2,-709.364 370.715,-716.557"/>
<text text-anchor="middle" x="451.346" y="-775.5" font-family="Helvetica,sans-Serif" font-size="10.00"> +arraySize</text>
<text text-anchor="middle" x="451.346" y="-764.5" font-family="Helvetica,sans-Serif" font-size="10.00">+size</text>
<text text-anchor="middle" x="451.346" y="-753.5" font-family="Helvetica,sans-Serif" font-size="10.00">+bitcount</text>
</g>
<!-- Node5&#45;&gt;Node9 -->
<g id="edge18" class="edge"><title>Node5&#45;&gt;Node9</title>
<path fill="none" stroke="#404040" d="M449.993,-827.836C397.72,-816.389 223.588,-775.504 189.846,-732 160.542,-694.217 150.875,-574.485 147.858,-483.381"/>
<polygon fill="none" stroke="#404040" points="147.856,-483.287 143.675,-477.411 147.491,-471.293 151.672,-477.168 147.856,-483.287"/>
<text text-anchor="middle" x="215.346" y="-639.5" font-family="Helvetica,sans-Serif" font-size="10.00"> +arraySize</text>
<text text-anchor="middle" x="215.346" y="-628.5" font-family="Helvetica,sans-Serif" font-size="10.00">+size</text>
<text text-anchor="middle" x="215.346" y="-617.5" font-family="Helvetica,sans-Serif" font-size="10.00">+bitcount</text>
</g>
<!-- Node6 -->
<g id="node6" class="node"><title>Node6</title>
<polygon fill="none" stroke="#bfbfbf" points="657.346,-803 657.346,-861 686.346,-861 686.346,-803 657.346,-803"/>
<polyline fill="none" stroke="#bfbfbf" points="657.346,-841 686.346,-841 "/>
<text text-anchor="middle" x="671.846" y="-829" font-family="Helvetica,sans-Serif" font-size="10.00"> </text>
<polyline fill="none" stroke="#bfbfbf" points="657.346,-822 686.346,-822 "/>
<text text-anchor="middle" x="671.846" y="-810" font-family="Helvetica,sans-Serif" font-size="10.00"> </text>
</g>
<!-- Node6&#45;&gt;Node1 -->
<g id="edge12" class="edge"><title>Node6&#45;&gt;Node1</title>
<path fill="none" stroke="#404040" d="M686.528,-805.949C697.025,-786.511 710.247,-758.499 715.846,-732 734.405,-644.161 733.708,-617.983 715.846,-530 680.699,-356.879 645.247,-319.186 560.846,-164 559.406,-161.352 557.908,-158.684 556.365,-156.009"/>
<polygon fill="none" stroke="#404040" points="556.357,-155.996 549.851,-152.886 550.22,-145.684 556.726,-148.794 556.357,-155.996"/>
<text text-anchor="middle" x="727.346" y="-498.5" font-family="Helvetica,sans-Serif" font-size="10.00"> +@16</text>
</g>
<!-- Node6&#45;&gt;Node1 -->
<g id="edge14" class="edge"><title>Node6&#45;&gt;Node1</title>
<path fill="none" stroke="#404040" d="M686.771,-819.23C697.021,-810.466 710.274,-797.694 718.846,-784 731.823,-763.27 732.243,-756.02 736.846,-732 757.106,-626.276 763.58,-596.339 746.846,-490 722.139,-332.994 705.838,-282.436 599.846,-164 590.69,-153.769 580.467,-143.492 570.149,-133.728"/>
<polygon fill="none" stroke="#404040" points="569.868,-133.467 562.75,-132.31 561.081,-125.295 568.199,-126.452 569.868,-133.467"/>
<text text-anchor="middle" x="766.346" y="-498.5" font-family="Helvetica,sans-Serif" font-size="10.00"> +@18</text>
</g>
<!-- Node6&#45;&gt;Node2 -->
<g id="edge5" class="edge"><title>Node6&#45;&gt;Node2</title>
<path fill="none" stroke="#404040" d="M675.539,-802.955C681.542,-747.915 688.957,-623.02 647.846,-530 634.778,-500.431 613.784,-472.896 591.666,-449.366"/>
<polygon fill="none" stroke="#404040" points="591.485,-449.179 584.439,-447.642 583.148,-440.548 590.193,-442.084 591.485,-449.179"/>
<text text-anchor="middle" x="696.346" y="-628.5" font-family="Helvetica,sans-Serif" font-size="10.00"> +@14</text>
</g>
<!-- Node6&#45;&gt;Node7 -->
<g id="edge10" class="edge"><title>Node6&#45;&gt;Node7</title>
<path fill="none" stroke="#404040" d="M657.316,-824.62C615.882,-806.458 498.959,-755.432 480.846,-750 438.428,-737.279 420.57,-755.195 382.846,-732 379.41,-729.887 376.073,-727.557 372.84,-725.053"/>
<polygon fill="none" stroke="#404040" points="372.589,-724.839 365.427,-723.994 363.453,-717.059 370.614,-717.904 372.589,-724.839"/>
<text text-anchor="middle" x="579.346" y="-764.5" font-family="Helvetica,sans-Serif" font-size="10.00"> +@14</text>
</g>
<!-- Node6&#45;&gt;Node9 -->
<g id="edge19" class="edge"><title>Node6&#45;&gt;Node9</title>
<path fill="none" stroke="#404040" d="M657.257,-809.359C643.572,-790.771 621.42,-764.711 595.846,-750 565.007,-732.26 541.472,-758.601 517.846,-732 487.861,-698.239 514.839,-570.966 495.846,-530 485.532,-507.754 479.82,-500.883 457.846,-490 391.741,-457.261 362.025,-497.614 292.846,-472 275.711,-465.656 258.658,-456.862 242.573,-447.1"/>
<polygon fill="none" stroke="#404040" points="242.317,-446.939 235.108,-447.138 232.152,-440.561 239.361,-440.362 242.317,-446.939"/>
<text text-anchor="middle" x="533.346" y="-628.5" font-family="Helvetica,sans-Serif" font-size="10.00"> +@14</text>
</g>
<!-- Node7&#45;&gt;Node1 -->
<g id="edge21" class="edge"><title>Node7&#45;&gt;Node1</title>
<path fill="none" stroke="#404040" d="M299.849,-530.922C294.952,-440.911 292.2,-315.469 310.846,-270 335.024,-211.041 386.146,-159.827 429.131,-124.55"/>
<polygon fill="none" stroke="#404040" points="429.382,-124.348 431.547,-117.47 438.729,-116.823 436.564,-123.701 429.382,-124.348"/>
<text text-anchor="middle" x="359.346" y="-374" font-family="Helvetica,sans-Serif" font-size="10.00"> +sHeaderType</text>
<text text-anchor="middle" x="359.346" y="-363" font-family="Helvetica,sans-Serif" font-size="10.00">+sSerializationMethod</text>
</g>
<!-- Node7&#45;&gt;Node2 -->
<g id="edge6" class="edge"><title>Node7&#45;&gt;Node2</title>
<path fill="none" stroke="orange" d="M316.633,-520.929C321.231,-509.531 327.463,-498.886 335.846,-490 357.005,-467.572 376.267,-487.628 402.846,-472 407.537,-469.242 412.153,-466.196 416.671,-462.934"/>
<polygon fill="orange" stroke="orange" points="313.225,-520.063 313.144,-530.658 319.814,-522.426 313.225,-520.063"/>
<text text-anchor="start" x="335.846" y="-504" font-family="Helvetica,sans-Serif" font-size="10.00"> &lt; gSizeHeaderDescription</text>
<text text-anchor="middle" x="394.846" y="-493" font-family="Helvetica,sans-Serif" font-size="10.00">String &gt;</text>
</g>
<!-- Node7&#45;&gt;Node9 -->
<g id="edge20" class="edge"><title>Node7&#45;&gt;Node9</title>
<path fill="none" stroke="orange" d="M242.765,-550.672C234.562,-543.07 225.862,-535.98 216.846,-530 196.465,-516.483 180.276,-530.975 164.846,-512 155.261,-500.212 149.262,-485.922 145.676,-471.034"/>
<polygon fill="orange" stroke="orange" points="240.521,-553.369 250.154,-557.78 245.374,-548.325 240.521,-553.369"/>
<text text-anchor="start" x="164.846" y="-504" font-family="Helvetica,sans-Serif" font-size="10.00"> &lt; gSizeSerializationMethod</text>
<text text-anchor="middle" x="226.346" y="-493" font-family="Helvetica,sans-Serif" font-size="10.00">String &gt;</text>
</g>
<!-- Node8 -->
<g id="node8" class="node"><title>Node8</title>
<polygon fill="none" stroke="#bfbfbf" points="805.346,-342.5 805.346,-399.5 856.346,-399.5 856.346,-342.5 805.346,-342.5"/>
<text text-anchor="middle" x="830.846" y="-387.5" font-family="Helvetica,sans-Serif" font-size="10.00">uint32_t</text>
<polyline fill="none" stroke="#bfbfbf" points="805.346,-380.5 856.346,-380.5 "/>
<text text-anchor="middle" x="830.846" y="-368.5" font-family="Helvetica,sans-Serif" font-size="10.00"> </text>
<polyline fill="none" stroke="#bfbfbf" points="805.346,-361.5 856.346,-361.5 "/>
<text text-anchor="middle" x="830.846" y="-349.5" font-family="Helvetica,sans-Serif" font-size="10.00"> </text>
</g>
<!-- Node8&#45;&gt;Node1 -->
<g id="edge11" class="edge"><title>Node8&#45;&gt;Node1</title>
<path fill="none" stroke="#404040" d="M833.734,-342.476C836.698,-298.945 835.737,-214.029 790.846,-164 735.738,-102.584 639.697,-82.6002 573.096,-76.3581"/>
<polygon fill="none" stroke="#404040" points="572.978,-76.3483 566.664,-79.8329 561.019,-75.3456 567.333,-71.8609 572.978,-76.3483"/>
<text text-anchor="middle" x="869.846" y="-244" font-family="Helvetica,sans-Serif" font-size="10.00"> +headerVersion</text>
<text text-anchor="middle" x="869.846" y="-233" font-family="Helvetica,sans-Serif" font-size="10.00">+headerSize</text>
<text text-anchor="middle" x="869.846" y="-222" font-family="Helvetica,sans-Serif" font-size="10.00">+sMagicString</text>
<text text-anchor="middle" x="869.846" y="-211" font-family="Helvetica,sans-Serif" font-size="10.00">+flagsNextHeader</text>
<text text-anchor="middle" x="869.846" y="-200" font-family="Helvetica,sans-Serif" font-size="10.00">+magicStringInt</text>
<text text-anchor="middle" x="869.846" y="-189" font-family="Helvetica,sans-Serif" font-size="10.00">+flagsUnused</text>
<text text-anchor="middle" x="869.846" y="-178" font-family="Helvetica,sans-Serif" font-size="10.00">+flags</text>
<text text-anchor="middle" x="869.846" y="-167" font-family="Helvetica,sans-Serif" font-size="10.00">+sVersion</text>
</g>
<!-- Node9&#45;&gt;Node1 -->
<g id="edge15" class="edge"><title>Node9&#45;&gt;Node1</title>
<path fill="none" stroke="#404040" d="M166.261,-270.868C178.125,-233.079 197.004,-192.33 226.846,-164 281.277,-112.327 365.97,-90.3061 426.586,-80.9309"/>
<polygon fill="none" stroke="#404040" points="426.877,-80.8888 432.241,-76.0696 438.753,-79.1678 433.389,-83.9869 426.877,-80.8888"/>
<text text-anchor="middle" x="257.346" y="-205.5" font-family="Helvetica,sans-Serif" font-size="10.00"> +serialization</text>
</g>
</g>
</svg>
        <g id="navigator" transform="translate(0 0)" fill="#404254">
                <rect fill="#f2f5e9" fill-opacity="0.5" stroke="#606060" stroke-width=".5" x="0" y="0" width="60" height="60"/>
                <use id="zoomplus" xlink:href="#zoomPlus" x="17" y="9" onmousedown="handleZoom(evt,'in')"/>
                <use id="zoomminus" xlink:href="#zoomMin" x="42" y="9" onmousedown="handleZoom(evt,'out')"/>
                <use id="reset" xlink:href="#resetDef" x="30" y="36" onmousedown="handleReset()"/>
                <g id="arrowUp" xlink:href="#dirArrow" transform="translate(30 24)" onmousedown="handlePan(0,-1)">
                  <use xlink:href="#rim" fill="#404040">
                        <set attributeName="fill" to="#808080" begin="arrowUp.mouseover" end="arrowUp.mouseout"/>
                  </use>
                  <path fill="none" stroke="white" stroke-width="1.5" d="M0,-3.0v7 M-2.5,-0.5L0,-3.0L2.5,-0.5"/>
                </g>
                <g id="arrowRight" xlink:href="#dirArrow" transform="rotate(90) translate(36 -43)" onmousedown="handlePan(1,0)">
                  <use xlink:href="#rim" fill="#404040">
                        <set attributeName="fill" to="#808080" begin="arrowRight.mouseover" end="arrowRight.mouseout"/>
                  </use>
                  <path fill="none" stroke="white" stroke-width="1.5" d="M0,-3.0v7 M-2.5,-0.5L0,-3.0L2.5,-0.5"/>
                </g>
                <g id="arrowDown" xlink:href="#dirArrow" transform="rotate(180) translate(-30 -48)" onmousedown="handlePan(0,1)">
                  <use xlink:href="#rim" fill="#404040">
                        <set attributeName="fill" to="#808080" begin="arrowDown.mouseover" end="arrowDown.mouseout"/>
                  </use>
                  <path fill="none" stroke="white" stroke-width="1.5" d="M0,-3.0v7 M-2.5,-0.5L0,-3.0L2.5,-0.5"/>
                </g>
                <g id="arrowLeft" xlink:href="#dirArrow" transform="rotate(270) translate(-36 17)" onmousedown="handlePan(-1,0)">
                  <use xlink:href="#rim" fill="#404040">
                        <set attributeName="fill" to="#808080" begin="arrowLeft.mouseover" end="arrowLeft.mouseout"/>
                  </use>
                  <path fill="none" stroke="white" stroke-width="1.5" d="M0,-3.0v7 M-2.5,-0.5L0,-3.0L2.5,-0.5"/>
                </g>
        </g>
        <svg viewBox="0 0 15 15" width="100%" height="30px" preserveAspectRatio="xMaxYMin meet">
         <g id="arrow_out" transform="scale(0.3 0.3)">
          <a xlink:href="structo2_1_1header_1_1BaseHeader__coll__graph_org.svg" target="_base">
           <rect id="button" ry="5" rx="5" y="6" x="6" height="38" width="38"
                fill="#f2f5e9" fill-opacity="0.5" stroke="#606060" stroke-width="1.0"/>
           <path id="arrow"
             d="M 11.500037,31.436501 C 11.940474,20.09759 22.043105,11.32322 32.158766,21.979434 L 37.068811,17.246167 C 37.068811,17.246167 37.088388,32 37.088388,32 L 22.160133,31.978069 C 22.160133,31.978069 26.997745,27.140456 26.997745,27.140456 C 18.528582,18.264221 13.291696,25.230495 11.500037,31.436501 z"
             style="fill:#404040;"/>
          </a>
         </g>
        </svg>
</svg>
