<?xml version="1.0" encoding="UTF-8" standalone="no"?>
<!DOCTYPE svg PUBLIC "-//W3C//DTD SVG 1.1//EN"
 "http://www.w3.org/Graphics/SVG/1.1/DTD/svg11.dtd">
<!-- Generated by graphviz version 2.36.0 (20140111.2315)
 -->
<!-- Title: /home/travis/build/AliceO2Group/AliceO2/DataFormats/Headers/include/Headers/DataHeader.h Pages: 1 -->
<svg width="1258pt" height="186pt"
 viewBox="0.00 0.00 1258.00 186.00" xmlns="http://www.w3.org/2000/svg" xmlns:xlink="http://www.w3.org/1999/xlink">
<g id="graph0" class="graph" transform="scale(1 1) rotate(0) translate(4 182)">
<title>/home/travis/build/AliceO2Group/AliceO2/DataFormats/Headers/include/Headers/DataHeader.h</title>
<!-- Node1 -->
<g id="node1" class="node"><title>Node1</title>
<polygon fill="#bfbfbf" stroke="black" points="183,-125 183,-177 333,-177 333,-125 183,-125"/>
<text text-anchor="start" x="191" y="-165" font-family="Helvetica,sans-Serif" font-size="10.00">/home/travis/build</text>
<text text-anchor="start" x="191" y="-154" font-family="Helvetica,sans-Serif" font-size="10.00">/AliceO2Group/AliceO2</text>
<text text-anchor="start" x="191" y="-143" font-family="Helvetica,sans-Serif" font-size="10.00">/DataFormats/Headers/include</text>
<text text-anchor="middle" x="258" y="-132" font-family="Helvetica,sans-Serif" font-size="10.00">/Headers/DataHeader.h</text>
</g>
<!-- Node2 -->
<g id="node2" class="node"><title>Node2</title>
<polygon fill="none" stroke="#bfbfbf" points="27,-68.5 27,-87.5 73,-87.5 73,-68.5 27,-68.5"/>
<text text-anchor="middle" x="50" y="-75.5" font-family="Helvetica,sans-Serif" font-size="10.00">cstdint</text>
</g>
<!-- Node1&#45;&gt;Node2 -->
<g id="edge1" class="edge"><title>Node1&#45;&gt;Node2</title>
<path fill="none" stroke="midnightblue" d="M184.667,-124.968C150.027,-113.144 110.402,-99.6181 83.1501,-90.3157"/>
<polygon fill="midnightblue" stroke="midnightblue" points="83.9419,-86.8877 73.3474,-86.9696 81.6806,-93.5124 83.9419,-86.8877"/>
</g>
<!-- Node3 -->
<g id="node3" class="node"><title>Node3</title>
<polygon fill="none" stroke="#bfbfbf" points="91,-68.5 91,-87.5 143,-87.5 143,-68.5 91,-68.5"/>
<text text-anchor="middle" x="117" y="-75.5" font-family="Helvetica,sans-Serif" font-size="10.00">memory</text>
</g>
<!-- Node1&#45;&gt;Node3 -->
<g id="edge2" class="edge"><title>Node1&#45;&gt;Node3</title>
<path fill="none" stroke="midnightblue" d="M208.289,-124.968C186.379,-113.935 161.527,-101.422 143.292,-92.2391"/>
<polygon fill="midnightblue" stroke="midnightblue" points="144.662,-89.0103 134.156,-87.6389 141.514,-95.2624 144.662,-89.0103"/>
</g>
<!-- Node4 -->
<g id="node4" class="node"><title>Node4</title>
<polygon fill="none" stroke="#bfbfbf" points="161.5,-68.5 161.5,-87.5 210.5,-87.5 210.5,-68.5 161.5,-68.5"/>
<text text-anchor="middle" x="186" y="-75.5" font-family="Helvetica,sans-Serif" font-size="10.00">cassert</text>
</g>
<!-- Node1&#45;&gt;Node4 -->
<g id="edge3" class="edge"><title>Node1&#45;&gt;Node4</title>
<path fill="none" stroke="midnightblue" d="M232.413,-124.768C222.284,-114.78 210.952,-103.605 202.02,-94.798"/>
<polygon fill="midnightblue" stroke="midnightblue" points="204.458,-92.2865 194.88,-87.7572 199.543,-97.2708 204.458,-92.2865"/>
</g>
<!-- Node5 -->
<g id="node5" class="node"><title>Node5</title>
<polygon fill="none" stroke="#bfbfbf" points="0,-6.5 0,-25.5 46,-25.5 46,-6.5 0,-6.5"/>
<text text-anchor="middle" x="23" y="-13.5" font-family="Helvetica,sans-Serif" font-size="10.00">cstring</text>
</g>
<!-- Node1&#45;&gt;Node5 -->
<g id="edge4" class="edge"><title>Node1&#45;&gt;Node5</title>
<path fill="none" stroke="midnightblue" d="M252.342,-124.757C246.891,-106.303 236.772,-82.1228 219,-68 160.576,-21.5735 125.665,-55.9845 55,-32 52.8757,-31.279 50.7054,-30.458 48.5457,-29.5802"/>
<polygon fill="midnightblue" stroke="midnightblue" points="49.8811,-26.3438 39.3197,-25.503 47.0515,-32.7465 49.8811,-26.3438"/>
</g>
<!-- Node6 -->
<g id="node6" class="node"><title>Node6</title>
<polygon fill="none" stroke="#bfbfbf" points="517,-68.5 517,-87.5 573,-87.5 573,-68.5 517,-68.5"/>
<text text-anchor="middle" x="545" y="-75.5" font-family="Helvetica,sans-Serif" font-size="10.00">algorithm</text>
</g>
<!-- Node1&#45;&gt;Node6 -->
<g id="edge5" class="edge"><title>Node1&#45;&gt;Node6</title>
<path fill="none" stroke="midnightblue" d="M333.031,-131.438C388.963,-117.601 463.022,-99.2804 507.163,-88.3603"/>
<polygon fill="midnightblue" stroke="midnightblue" points="508.044,-91.748 516.911,-85.9488 506.363,-84.9528 508.044,-91.748"/>
</g>
<!-- Node7 -->
<g id="node7" class="node"><title>Node7</title>
<polygon fill="none" stroke="#bfbfbf" points="591.5,-68.5 591.5,-87.5 650.5,-87.5 650.5,-68.5 591.5,-68.5"/>
<text text-anchor="middle" x="621" y="-75.5" font-family="Helvetica,sans-Serif" font-size="10.00">stdexcept</text>
</g>
<!-- Node1&#45;&gt;Node7 -->
<g id="edge6" class="edge"><title>Node1&#45;&gt;Node7</title>
<path fill="none" stroke="midnightblue" d="M333.19,-136.264C398.739,-124.124 496.313,-105.65 581,-88 581.105,-87.9782 581.209,-87.9564 581.314,-87.9345"/>
<polygon fill="midnightblue" stroke="midnightblue" points="582.272,-91.3086 591.316,-85.7888 580.804,-84.4643 582.272,-91.3086"/>
</g>
<!-- Node8 -->
<g id="node8" class="node"><title>Node8</title>
<polygon fill="none" stroke="#bfbfbf" points="64.5,-6.5 64.5,-25.5 105.5,-25.5 105.5,-6.5 64.5,-6.5"/>
<text text-anchor="middle" x="85" y="-13.5" font-family="Helvetica,sans-Serif" font-size="10.00">string</text>
</g>
<!-- Node1&#45;&gt;Node8 -->
<g id="edge7" class="edge"><title>Node1&#45;&gt;Node8</title>
<path fill="none" stroke="midnightblue" d="M263.613,-124.628C265.993,-106.83 265.774,-83.5322 253,-68 212.738,-19.0436 174.336,-54.2945 115,-32 113.351,-31.3804 111.673,-30.6979 109.996,-29.9758"/>
<polygon fill="midnightblue" stroke="midnightblue" points="111.145,-26.6491 100.605,-25.5725 108.173,-32.9869 111.145,-26.6491"/>
</g>
<!-- Node9 -->
<g id="node9" class="node"><title>Node9</title>
<g id="a_node9"><a xlink:href="../../dc/d03/MemoryResources_8h.html" target="_top" xlink:title="MemoryResources/MemoryResources.h">
<polygon fill="none" stroke="black" points="305.5,-68.5 305.5,-87.5 498.5,-87.5 498.5,-68.5 305.5,-68.5"/>
<text text-anchor="middle" x="402" y="-75.5" font-family="Helvetica,sans-Serif" font-size="10.00">MemoryResources/MemoryResources.h</text>
</a>
</g>
</g>
<!-- Node1&#45;&gt;Node9 -->
<g id="edge8" class="edge"><title>Node1&#45;&gt;Node9</title>
<path fill="none" stroke="midnightblue" d="M308.769,-124.968C331.248,-113.885 356.759,-101.306 375.406,-92.1123"/>
<polygon fill="midnightblue" stroke="midnightblue" points="377.058,-95.2004 384.479,-87.6389 373.962,-88.922 377.058,-95.2004"/>
</g>
<!-- Node9&#45;&gt;Node5 -->
<g id="edge13" class="edge"><title>Node9&#45;&gt;Node5</title>
<path fill="none" stroke="midnightblue" d="M305.372,-72.4835C234.833,-67.2673 137.523,-56.0563 55,-32 52.7138,-31.3335 50.3852,-30.5244 48.0797,-29.6311"/>
<polygon fill="midnightblue" stroke="midnightblue" points="49.4659,-26.4173 38.8999,-25.6356 46.6722,-32.8357 49.4659,-26.4173"/>
</g>
<!-- Node9&#45;&gt;Node8 -->
<g id="edge14" class="edge"><title>Node9&#45;&gt;Node8</title>
<path fill="none" stroke="midnightblue" d="M305.276,-69.3252C248.799,-63.0061 176.728,-51.7452 115,-32 113.087,-31.3879 111.144,-30.6684 109.215,-29.8815"/>
<polygon fill="midnightblue" stroke="midnightblue" points="110.425,-26.5853 99.879,-25.5711 107.491,-32.9406 110.425,-26.5853"/>
</g>
<!-- Node10 -->
<g id="node10" class="node"><title>Node10</title>
<polygon fill="none" stroke="#bfbfbf" points="552,-1 552,-31 652,-31 652,-1 552,-1"/>
<text text-anchor="start" x="560" y="-19" font-family="Helvetica,sans-Serif" font-size="10.00">boost/container/flat</text>
<text text-anchor="middle" x="602" y="-8" font-family="Helvetica,sans-Serif" font-size="10.00">_map.hpp</text>
</g>
<!-- Node9&#45;&gt;Node10 -->
<g id="edge9" class="edge"><title>Node9&#45;&gt;Node10</title>
<path fill="none" stroke="midnightblue" d="M430.655,-68.4035C460.5,-59.4501 508.034,-45.1897 545.474,-33.9579"/>
<polygon fill="midnightblue" stroke="midnightblue" points="546.676,-37.2513 555.249,-31.0253 544.665,-30.5465 546.676,-37.2513"/>
</g>
<!-- Node11 -->
<g id="node11" class="node"><title>Node11</title>
<polygon fill="none" stroke="#bfbfbf" points="670,-1 670,-31 786,-31 786,-1 670,-1"/>
<text text-anchor="start" x="678" y="-19" font-family="Helvetica,sans-Serif" font-size="10.00">boost/container/pmr</text>
<text text-anchor="middle" x="728" y="-8" font-family="Helvetica,sans-Serif" font-size="10.00">/memory_resource.hpp</text>
</g>
<!-- Node9&#45;&gt;Node11 -->
<g id="edge10" class="edge"><title>Node9&#45;&gt;Node11</title>
<path fill="none" stroke="midnightblue" d="M455.712,-68.4435C506.039,-60.2511 583.59,-47.18 660.12,-32.1229"/>
<polygon fill="midnightblue" stroke="midnightblue" points="660.802,-35.5559 669.932,-30.1802 659.442,-28.6892 660.802,-35.5559"/>
</g>
<!-- Node12 -->
<g id="node12" class="node"><title>Node12</title>
<polygon fill="none" stroke="#bfbfbf" points="804,-1 804,-31 960,-31 960,-1 804,-1"/>
<text text-anchor="start" x="812" y="-19" font-family="Helvetica,sans-Serif" font-size="10.00">boost/container/pmr</text>
<text text-anchor="middle" x="882" y="-8" font-family="Helvetica,sans-Serif" font-size="10.00">/monotonic_buffer_resource.hpp</text>
</g>
<!-- Node9&#45;&gt;Node12 -->
<g id="edge11" class="edge"><title>Node9&#45;&gt;Node12</title>
<path fill="none" stroke="midnightblue" d="M488.204,-68.4694C565.414,-60.5146 681.981,-47.7327 793.722,-31.9866"/>
<polygon fill="midnightblue" stroke="midnightblue" points="794.416,-35.4233 803.825,-30.5529 793.432,-28.4928 794.416,-35.4233"/>
</g>
<!-- Node13 -->
<g id="node13" class="node"><title>Node13</title>
<polygon fill="none" stroke="#bfbfbf" points="978.5,-1 978.5,-31 1111.5,-31 1111.5,-1 978.5,-1"/>
<text text-anchor="start" x="986.5" y="-19" font-family="Helvetica,sans-Serif" font-size="10.00">boost/container/pmr</text>
<text text-anchor="middle" x="1045" y="-8" font-family="Helvetica,sans-Serif" font-size="10.00">/polymorphic_allocator.hpp</text>
</g>
<!-- Node9&#45;&gt;Node13 -->
<g id="edge12" class="edge"><title>Node9&#45;&gt;Node13</title>
<path fill="none" stroke="midnightblue" d="M498.761,-68.7573C501.877,-68.5005 504.963,-68.2475 508,-68 709.533,-51.5756 763.663,-59.673 968.176,-32.0018"/>
<polygon fill="midnightblue" stroke="midnightblue" points="968.911,-35.4339 978.346,-30.6132 967.964,-28.4983 968.911,-35.4339"/>
</g>
<!-- Node14 -->
<g id="node14" class="node"><title>Node14</title>
<polygon fill="none" stroke="#bfbfbf" points="1130,-6.5 1130,-25.5 1192,-25.5 1192,-6.5 1130,-6.5"/>
<text text-anchor="middle" x="1161" y="-13.5" font-family="Helvetica,sans-Serif" font-size="10.00">type_traits</text>
</g>
<!-- Node9&#45;&gt;Node14 -->
<g id="edge15" class="edge"><title>Node9&#45;&gt;Node14</title>
<path fill="none" stroke="midnightblue" d="M498.755,-68.6808C501.872,-68.446 504.96,-68.2184 508,-68 779.77,-48.4727 853.221,-87.3971 1120,-32 1123.9,-31.191 1127.92,-30.0829 1131.85,-28.8325"/>
<polygon fill="midnightblue" stroke="midnightblue" points="1133.04,-32.1256 1141.32,-25.5203 1130.73,-25.5181 1133.04,-32.1256"/>
</g>
<!-- Node15 -->
<g id="node15" class="node"><title>Node15</title>
<polygon fill="none" stroke="#bfbfbf" points="1210,-6.5 1210,-25.5 1250,-25.5 1250,-6.5 1210,-6.5"/>
<text text-anchor="middle" x="1230" y="-13.5" font-family="Helvetica,sans-Serif" font-size="10.00">utility</text>
</g>
<!-- Node9&#45;&gt;Node15 -->
<g id="edge16" class="edge"><title>Node9&#45;&gt;Node15</title>
<path fill="none" stroke="midnightblue" d="M498.753,-68.6537C501.871,-68.4268 504.96,-68.2081 508,-68 661.626,-57.4849 1051.1,-71.261 1200,-32 1202.2,-31.421 1204.42,-30.6702 1206.61,-29.8136"/>
<polygon fill="midnightblue" stroke="midnightblue" points="1208.2,-32.9359 1215.83,-25.5836 1205.28,-26.5739 1208.2,-32.9359"/>
</g>
<!-- Node16 -->
<g id="node16" class="node"><title>Node16</title>
<polygon fill="none" stroke="#bfbfbf" points="124,-6.5 124,-25.5 168,-25.5 168,-6.5 124,-6.5"/>
<text text-anchor="middle" x="146" y="-13.5" font-family="Helvetica,sans-Serif" font-size="10.00">vector</text>
</g>
<!-- Node9&#45;&gt;Node16 -->
<g id="edge17" class="edge"><title>Node9&#45;&gt;Node16</title>
<path fill="none" stroke="midnightblue" d="M336.859,-68.4407C291.313,-61.3814 229.491,-49.6298 177,-32 175.087,-31.3575 173.14,-30.6238 171.2,-29.8339"/>
<polygon fill="midnightblue" stroke="midnightblue" points="172.32,-26.4995 161.765,-25.5806 169.443,-32.8811 172.32,-26.4995"/>
</g>
<!-- Node17 -->
<g id="node17" class="node"><title>Node17</title>
<polygon fill="none" stroke="#bfbfbf" points="186.5,-6.5 186.5,-25.5 269.5,-25.5 269.5,-6.5 186.5,-6.5"/>
<text text-anchor="middle" x="228" y="-13.5" font-family="Helvetica,sans-Serif" font-size="10.00">unordered_map</text>
</g>
<!-- Node9&#45;&gt;Node17 -->
<g id="edge18" class="edge"><title>Node9&#45;&gt;Node17</title>
<path fill="none" stroke="midnightblue" d="M377.07,-68.4035C346.964,-58.0222 296.168,-40.5062 262.362,-28.849"/>
<polygon fill="midnightblue" stroke="midnightblue" points="263.478,-25.5318 252.884,-25.5806 261.196,-32.1494 263.478,-25.5318"/>
</g>
<!-- Node18 -->
<g id="node18" class="node"><title>Node18</title>
<polygon fill="none" stroke="#bfbfbf" points="287.5,-6.5 287.5,-25.5 384.5,-25.5 384.5,-6.5 287.5,-6.5"/>
<text text-anchor="middle" x="336" y="-13.5" font-family="Helvetica,sans-Serif" font-size="10.00">FairMQMessage.h</text>
</g>
<!-- Node9&#45;&gt;Node18 -->
<g id="edge19" class="edge"><title>Node9&#45;&gt;Node18</title>
<path fill="none" stroke="midnightblue" d="M392.544,-68.4035C382.252,-59.047 365.584,-43.8948 353.006,-32.4599"/>
<polygon fill="midnightblue" stroke="midnightblue" points="355.192,-29.7176 345.439,-25.5806 350.484,-34.8971 355.192,-29.7176"/>
</g>
<!-- Node19 -->
<g id="node19" class="node"><title>Node19</title>
<polygon fill="none" stroke="#bfbfbf" points="402.5,-6.5 402.5,-25.5 533.5,-25.5 533.5,-6.5 402.5,-6.5"/>
<text text-anchor="middle" x="468" y="-13.5" font-family="Helvetica,sans-Serif" font-size="10.00">FairMQTransportFactory.h</text>
</g>
<!-- Node9&#45;&gt;Node19 -->
<g id="edge20" class="edge"><title>Node9&#45;&gt;Node19</title>
<path fill="none" stroke="midnightblue" d="M411.456,-68.4035C421.748,-59.047 438.416,-43.8948 450.994,-32.4599"/>
<polygon fill="midnightblue" stroke="midnightblue" points="453.516,-34.8971 458.561,-25.5806 448.808,-29.7176 453.516,-34.8971"/>
</g>
</g>
</svg>
