<?xml version="1.0" encoding="UTF-8" standalone="no"?>
<!DOCTYPE svg PUBLIC "-//W3C//DTD SVG 1.1//EN"
 "http://www.w3.org/Graphics/SVG/1.1/DTD/svg11.dtd">
<!-- Generated by graphviz version 2.36.0 (20140111.2315)
 -->
<!-- Title: /home/travis/build/AliceO2Group/AliceO2/Steer/test/testHitProcessingManager.cxx Pages: 1 -->
<!--zoomable 310 -->
<svg id="main" version="1.1" xmlns="http://www.w3.org/2000/svg" xmlns:xlink="http://www.w3.org/1999/xlink" xml:space="preserve" onload="init(evt)">
<style type="text/css"><![CDATA[
.edge:hover path { stroke: red; }
.edge:hover polygon { stroke: red; fill: red; }
]]></style>
<script type="text/javascript"><![CDATA[
var edges = document.getElementsByTagName('g');
if (edges && edges.length) {
  for (var i=0;i<edges.length;i++) {
    if (edges[i].id.substr(0,4)=='edge') {
      edges[i].setAttribute('class','edge');
    }
  }
}
]]></script>
        <defs>
                <circle id="rim" cx="0" cy="0" r="7"/>
                <circle id="rim2" cx="0" cy="0" r="3.5"/>
                <g id="zoomPlus">
                        <use xlink:href="#rim" fill="#404040">
                                <set attributeName="fill" to="#808080" begin="zoomplus.mouseover" end="zoomplus.mouseout"/>
                        </use>
                        <path d="M-4,0h8M0,-4v8" fill="none" stroke="white" stroke-width="1.5" pointer-events="none"/>
                </g>
                <g id="zoomMin">
                        <use xlink:href="#rim" fill="#404040">
                                <set attributeName="fill" to="#808080" begin="zoomminus.mouseover" end="zoomminus.mouseout"/>
                        </use>
                        <path d="M-4,0h8" fill="none" stroke="white" stroke-width="1.5" pointer-events="none"/>
                </g>
                <g id="dirArrow">
                        <path fill="none" stroke="white" stroke-width="1.5" d="M0,-3.0v7 M-2.5,-0.5L0,-3.0L2.5,-0.5"/>
                </g>
               <g id="resetDef">
                       <use xlink:href="#rim2" fill="#404040">
                               <set attributeName="fill" to="#808080" begin="reset.mouseover" end="reset.mouseout"/>
                       </use>
               </g>
        </defs>

<script type="text/javascript">
var viewWidth = 756;
var viewHeight = 310;
var sectionId = 'dynsection-0';
</script>
<script xlink:href="../../svgpan.js"/>
<svg id="graph" class="graph">
<g id="viewport">
<title>/home/travis/build/AliceO2Group/AliceO2/Steer/test/testHitProcessingManager.cxx</title>
<!-- Node1 -->
<g id="node1" class="node"><title>Node1</title>
<polygon fill="#bfbfbf" stroke="black" points="329.839,-249 329.839,-301 472.839,-301 472.839,-249 329.839,-249"/>
<text text-anchor="start" x="337.839" y="-289" font-family="Helvetica,sans-Serif" font-size="10.00">/home/travis/build</text>
<text text-anchor="start" x="337.839" y="-278" font-family="Helvetica,sans-Serif" font-size="10.00">/AliceO2Group/AliceO2</text>
<text text-anchor="start" x="337.839" y="-267" font-family="Helvetica,sans-Serif" font-size="10.00">/Steer/test/testHitProcessing</text>
<text text-anchor="middle" x="401.339" y="-256" font-family="Helvetica,sans-Serif" font-size="10.00">Manager.cxx</text>
</g>
<!-- Node2 -->
<g id="node2" class="node"><title>Node2</title>
<polygon fill="none" stroke="#bfbfbf" points="63.3392,-192.5 63.3392,-211.5 119.339,-211.5 119.339,-192.5 63.3392,-192.5"/>
<text text-anchor="middle" x="91.3392" y="-199.5" font-family="Helvetica,sans-Serif" font-size="10.00">algorithm</text>
</g>
<!-- Node1&#45;&gt;Node2 -->
<g id="edge1" class="edge"><title>Node1&#45;&gt;Node2</title>
<path fill="none" stroke="midnightblue" d="M329.708,-258.046C276.97,-246.228 203.249,-229.556 129.537,-212.257"/>
<polygon fill="midnightblue" stroke="midnightblue" points="130.146,-208.805 119.61,-209.924 128.544,-215.619 130.146,-208.805"/>
</g>
<!-- Node3 -->
<g id="node3" class="node"><title>Node3</title>
<polygon fill="none" stroke="#bfbfbf" points="137.839,-192.5 137.839,-211.5 256.839,-211.5 256.839,-192.5 137.839,-192.5"/>
<text text-anchor="middle" x="197.339" y="-199.5" font-family="Helvetica,sans-Serif" font-size="10.00">boost/test/unit_test.hpp</text>
</g>
<!-- Node1&#45;&gt;Node3 -->
<g id="edge2" class="edge"><title>Node1&#45;&gt;Node3</title>
<path fill="none" stroke="midnightblue" d="M329.703,-249.068C296.516,-237.518 258.611,-224.325 231.894,-215.026"/>
<polygon fill="midnightblue" stroke="midnightblue" points="232.83,-211.646 222.235,-211.665 230.529,-218.257 232.83,-211.646"/>
</g>
<!-- Node4 -->
<g id="node4" class="node"><title>Node4</title>
<g id="a_node4"><a xlink:href="../../dd/d40/HitProcessingManager_8h.html" target="_top" xlink:title="Steer/HitProcessingManager.h">
<polygon fill="none" stroke="black" points="275.339,-192.5 275.339,-211.5 425.339,-211.5 425.339,-192.5 275.339,-192.5"/>
<text text-anchor="middle" x="350.339" y="-199.5" font-family="Helvetica,sans-Serif" font-size="10.00">Steer/HitProcessingManager.h</text>
</a>
</g>
</g>
<!-- Node1&#45;&gt;Node4 -->
<g id="edge3" class="edge"><title>Node1&#45;&gt;Node4</title>
<path fill="none" stroke="midnightblue" d="M383.215,-248.768C376.403,-239.284 368.822,-228.731 362.658,-220.15"/>
<polygon fill="midnightblue" stroke="midnightblue" points="365.306,-217.837 356.63,-211.757 359.621,-221.921 365.306,-217.837"/>
</g>
<!-- Node19 -->
<g id="node19" class="node"><title>Node19</title>
<polygon fill="none" stroke="#bfbfbf" points="609.839,-130.5 609.839,-149.5 650.839,-149.5 650.839,-130.5 609.839,-130.5"/>
<text text-anchor="middle" x="630.339" y="-137.5" font-family="Helvetica,sans-Serif" font-size="10.00">string</text>
</g>
<!-- Node1&#45;&gt;Node19 -->
<g id="edge30" class="edge"><title>Node1&#45;&gt;Node19</title>
<path fill="none" stroke="midnightblue" d="M417.651,-248.629C430.651,-230.356 450.432,-206.465 473.339,-192 522.945,-160.676 545.64,-177.212 600.339,-156 601.982,-155.363 603.655,-154.667 605.328,-153.935"/>
<polygon fill="midnightblue" stroke="midnightblue" points="607.16,-156.941 614.71,-149.507 604.172,-150.611 607.16,-156.941"/>
</g>
<!-- Node22 -->
<g id="node22" class="node"><title>Node22</title>
<polygon fill="none" stroke="#bfbfbf" points="481.839,-192.5 481.839,-211.5 528.839,-211.5 528.839,-192.5 481.839,-192.5"/>
<text text-anchor="middle" x="505.339" y="-199.5" font-family="Helvetica,sans-Serif" font-size="10.00">TFile.h</text>
</g>
<!-- Node1&#45;&gt;Node22 -->
<g id="edge28" class="edge"><title>Node1&#45;&gt;Node22</title>
<path fill="none" stroke="midnightblue" d="M438.006,-248.968C453.401,-238.458 470.765,-226.603 484.004,-217.565"/>
<polygon fill="midnightblue" stroke="midnightblue" points="486.15,-220.339 492.435,-211.81 482.203,-214.557 486.15,-220.339"/>
</g>
<!-- Node23 -->
<g id="node23" class="node"><title>Node23</title>
<polygon fill="none" stroke="#bfbfbf" points="547.339,-192.5 547.339,-211.5 597.339,-211.5 597.339,-192.5 547.339,-192.5"/>
<text text-anchor="middle" x="572.339" y="-199.5" font-family="Helvetica,sans-Serif" font-size="10.00">TTree.h</text>
</g>
<!-- Node1&#45;&gt;Node23 -->
<g id="edge29" class="edge"><title>Node1&#45;&gt;Node23</title>
<path fill="none" stroke="midnightblue" d="M461.627,-248.968C488.933,-237.63 520.007,-224.728 542.269,-215.485"/>
<polygon fill="midnightblue" stroke="midnightblue" points="543.639,-218.706 551.533,-211.639 540.955,-212.241 543.639,-218.706"/>
</g>
<!-- Node5 -->
<g id="node5" class="node"><title>Node5</title>
<g id="a_node5"><a xlink:href="../../d9/d80/InteractionRecord_8h.html" target="_top" xlink:title="CommonDataFormat/Interaction\lRecord.h">
<polygon fill="none" stroke="black" points="235.839,-57 235.839,-87 392.839,-87 392.839,-57 235.839,-57"/>
<text text-anchor="start" x="243.839" y="-75" font-family="Helvetica,sans-Serif" font-size="10.00">CommonDataFormat/Interaction</text>
<text text-anchor="middle" x="314.339" y="-64" font-family="Helvetica,sans-Serif" font-size="10.00">Record.h</text>
</a>
</g>
</g>
<!-- Node4&#45;&gt;Node5 -->
<g id="edge4" class="edge"><title>Node4&#45;&gt;Node5</title>
<path fill="none" stroke="midnightblue" d="M356.979,-192.17C367.101,-177.553 384.133,-147.599 373.339,-124 367.74,-111.759 357.591,-101.333 347.271,-93.1598"/>
<polygon fill="midnightblue" stroke="midnightblue" points="349.168,-90.2101 339.041,-87.0958 345.015,-95.8455 349.168,-90.2101"/>
</g>
<!-- Node10 -->
<g id="node10" class="node"><title>Node10</title>
<g id="a_node10"><a xlink:href="../../d5/d3f/RunContext_8h.html" target="_top" xlink:title="SimulationDataFormat\l/RunContext.h">
<polygon fill="none" stroke="black" points="250.339,-125 250.339,-155 364.339,-155 364.339,-125 250.339,-125"/>
<text text-anchor="start" x="258.339" y="-143" font-family="Helvetica,sans-Serif" font-size="10.00">SimulationDataFormat</text>
<text text-anchor="middle" x="307.339" y="-132" font-family="Helvetica,sans-Serif" font-size="10.00">/RunContext.h</text>
</a>
</g>
</g>
<!-- Node4&#45;&gt;Node10 -->
<g id="edge9" class="edge"><title>Node4&#45;&gt;Node10</title>
<path fill="none" stroke="midnightblue" d="M344.178,-192.403C338.79,-184.885 330.72,-173.624 323.505,-163.556"/>
<polygon fill="midnightblue" stroke="midnightblue" points="326.144,-161.23 317.473,-155.141 320.454,-165.308 326.144,-161.23"/>
</g>
<!-- Node11 -->
<g id="node11" class="node"><title>Node11</title>
<polygon fill="none" stroke="#bfbfbf" points="411.339,-62.5 411.339,-81.5 455.339,-81.5 455.339,-62.5 411.339,-62.5"/>
<text text-anchor="middle" x="433.339" y="-69.5" font-family="Helvetica,sans-Serif" font-size="10.00">vector</text>
</g>
<!-- Node4&#45;&gt;Node11 -->
<g id="edge24" class="edge"><title>Node4&#45;&gt;Node11</title>
<path fill="none" stroke="midnightblue" d="M358.471,-192.462C366.577,-183.712 379.114,-169.512 388.339,-156 402.881,-134.7 416.547,-108.229 424.92,-90.9892"/>
<polygon fill="midnightblue" stroke="midnightblue" points="428.263,-92.1096 429.41,-81.577 421.945,-89.0956 428.263,-92.1096"/>
</g>
<!-- Node12 -->
<g id="node12" class="node"><title>Node12</title>
<polygon fill="none" stroke="#bfbfbf" points="22.3392,-62.5 22.3392,-81.5 78.3392,-81.5 78.3392,-62.5 22.3392,-62.5"/>
<text text-anchor="middle" x="50.3392" y="-69.5" font-family="Helvetica,sans-Serif" font-size="10.00">TChain.h</text>
</g>
<!-- Node4&#45;&gt;Node12 -->
<g id="edge27" class="edge"><title>Node4&#45;&gt;Node12</title>
<path fill="none" stroke="midnightblue" d="M275.646,-192.464C175.805,-180.88 10.7656,-161.043 6.33921,-156 -11.7351,-135.407 12.8623,-106.097 31.9088,-88.3802"/>
<polygon fill="midnightblue" stroke="midnightblue" points="34.4392,-90.8139 39.5911,-81.556 29.7904,-85.5805 34.4392,-90.8139"/>
</g>
<!-- Node14 -->
<g id="node14" class="node"><title>Node14</title>
<g id="a_node14"><a xlink:href="../../df/dff/InteractionSampler_8h.html" target="_top" xlink:title="Steer/InteractionSampler.h">
<polygon fill="none" stroke="black" points="458.839,-130.5 458.839,-149.5 591.839,-149.5 591.839,-130.5 458.839,-130.5"/>
<text text-anchor="middle" x="525.339" y="-137.5" font-family="Helvetica,sans-Serif" font-size="10.00">Steer/InteractionSampler.h</text>
</a>
</g>
</g>
<!-- Node4&#45;&gt;Node14 -->
<g id="edge14" class="edge"><title>Node4&#45;&gt;Node14</title>
<path fill="none" stroke="midnightblue" d="M375.412,-192.403C405.691,-182.022 456.78,-164.506 490.78,-152.849"/>
<polygon fill="midnightblue" stroke="midnightblue" points="491.988,-156.135 500.312,-149.581 489.718,-149.513 491.988,-156.135"/>
</g>
<!-- Node18 -->
<g id="node18" class="node"><title>Node18</title>
<polygon fill="none" stroke="#bfbfbf" points="15.3392,-130.5 15.3392,-149.5 101.339,-149.5 101.339,-130.5 15.3392,-130.5"/>
<text text-anchor="middle" x="58.3392" y="-137.5" font-family="Helvetica,sans-Serif" font-size="10.00">TGeoManager.h</text>
</g>
<!-- Node4&#45;&gt;Node18 -->
<g id="edge22" class="edge"><title>Node4&#45;&gt;Node18</title>
<path fill="none" stroke="midnightblue" d="M296.65,-192.443C247.807,-184.301 173.859,-171.08 110.339,-156 105.617,-154.879 100.683,-153.599 95.8155,-152.271"/>
<polygon fill="midnightblue" stroke="midnightblue" points="96.58,-148.851 86.0058,-149.512 94.6843,-155.589 96.58,-148.851"/>
</g>
<!-- Node4&#45;&gt;Node19 -->
<g id="edge23" class="edge"><title>Node4&#45;&gt;Node19</title>
<path fill="none" stroke="midnightblue" d="M425.564,-193.149C475.932,-186.519 543.215,-174.986 600.339,-156 602.246,-155.366 604.183,-154.631 606.109,-153.833"/>
<polygon fill="midnightblue" stroke="midnightblue" points="607.842,-156.887 615.437,-149.5 604.893,-150.539 607.842,-156.887"/>
</g>
<!-- Node20 -->
<g id="node20" class="node"><title>Node20</title>
<polygon fill="none" stroke="#bfbfbf" points="119.839,-130.5 119.839,-149.5 154.839,-149.5 154.839,-130.5 119.839,-130.5"/>
<text text-anchor="middle" x="137.339" y="-137.5" font-family="Helvetica,sans-Serif" font-size="10.00">map</text>
</g>
<!-- Node4&#45;&gt;Node20 -->
<g id="edge25" class="edge"><title>Node4&#45;&gt;Node20</title>
<path fill="none" stroke="midnightblue" d="M297.508,-192.481C259.355,-185.33 207.068,-173.452 163.339,-156 162.114,-155.511 160.877,-154.972 159.642,-154.398"/>
<polygon fill="midnightblue" stroke="midnightblue" points="160.94,-151.125 150.463,-149.549 157.671,-157.315 160.94,-151.125"/>
</g>
<!-- Node21 -->
<g id="node21" class="node"><title>Node21</title>
<polygon fill="none" stroke="#bfbfbf" points="172.839,-130.5 172.839,-149.5 231.839,-149.5 231.839,-130.5 172.839,-130.5"/>
<text text-anchor="middle" x="202.339" y="-137.5" font-family="Helvetica,sans-Serif" font-size="10.00">functional</text>
</g>
<!-- Node4&#45;&gt;Node21 -->
<g id="edge26" class="edge"><title>Node4&#45;&gt;Node21</title>
<path fill="none" stroke="midnightblue" d="M329.134,-192.403C303.967,-182.2 261.799,-165.105 233.06,-153.454"/>
<polygon fill="midnightblue" stroke="midnightblue" points="234.087,-150.094 223.505,-149.581 231.457,-156.581 234.087,-150.094"/>
</g>
<!-- Node6 -->
<g id="node6" class="node"><title>Node6</title>
<polygon fill="none" stroke="#bfbfbf" points="522.339,-0.5 522.339,-19.5 578.339,-19.5 578.339,-0.5 522.339,-0.5"/>
<text text-anchor="middle" x="550.339" y="-7.5" font-family="Helvetica,sans-Serif" font-size="10.00">Rtypes.h</text>
</g>
<!-- Node5&#45;&gt;Node6 -->
<g id="edge5" class="edge"><title>Node5&#45;&gt;Node6</title>
<path fill="none" stroke="midnightblue" d="M369.671,-56.9327C413.568,-45.7723 473.766,-30.4678 512.363,-20.655"/>
<polygon fill="midnightblue" stroke="midnightblue" points="513.337,-24.0189 522.166,-18.1627 511.612,-17.2347 513.337,-24.0189"/>
</g>
<!-- Node7 -->
<g id="node7" class="node"><title>Node7</title>
<polygon fill="none" stroke="#bfbfbf" points="200.839,-0.5 200.839,-19.5 245.839,-19.5 245.839,-0.5 200.839,-0.5"/>
<text text-anchor="middle" x="223.339" y="-7.5" font-family="Helvetica,sans-Serif" font-size="10.00">iosfwd</text>
</g>
<!-- Node5&#45;&gt;Node7 -->
<g id="edge6" class="edge"><title>Node5&#45;&gt;Node7</title>
<path fill="none" stroke="midnightblue" d="M292.773,-56.7808C278.373,-47.2862 259.502,-34.8434 245.068,-25.3267"/>
<polygon fill="midnightblue" stroke="midnightblue" points="246.591,-22.1383 236.315,-19.5557 242.737,-27.9823 246.591,-22.1383"/>
</g>
<!-- Node8 -->
<g id="node8" class="node"><title>Node8</title>
<polygon fill="none" stroke="#bfbfbf" points="264.339,-0.5 264.339,-19.5 308.339,-19.5 308.339,-0.5 264.339,-0.5"/>
<text text-anchor="middle" x="286.339" y="-7.5" font-family="Helvetica,sans-Serif" font-size="10.00">cmath</text>
</g>
<!-- Node5&#45;&gt;Node8 -->
<g id="edge7" class="edge"><title>Node5&#45;&gt;Node8</title>
<path fill="none" stroke="midnightblue" d="M307.704,-56.7808C303.803,-48.4217 298.835,-37.7773 294.672,-28.8565"/>
<polygon fill="midnightblue" stroke="midnightblue" points="297.814,-27.3123 290.413,-19.7305 291.471,-30.2725 297.814,-27.3123"/>
</g>
<!-- Node9 -->
<g id="node9" class="node"><title>Node9</title>
<g id="a_node9"><a xlink:href="../../d4/dc6/LHCConstants_8h.html" target="_top" xlink:title="Header to collect LHC related constants. ">
<polygon fill="none" stroke="black" points="326.339,-0.5 326.339,-19.5 504.339,-19.5 504.339,-0.5 326.339,-0.5"/>
<text text-anchor="middle" x="415.339" y="-7.5" font-family="Helvetica,sans-Serif" font-size="10.00">CommonConstants/LHCConstants.h</text>
</a>
</g>
</g>
<!-- Node5&#45;&gt;Node9 -->
<g id="edge8" class="edge"><title>Node5&#45;&gt;Node9</title>
<path fill="none" stroke="midnightblue" d="M338.019,-56.9327C354.298,-47.2619 375.816,-34.4793 392.017,-24.8546"/>
<polygon fill="midnightblue" stroke="midnightblue" points="394.053,-27.7165 400.862,-19.6 390.478,-21.6983 394.053,-27.7165"/>
</g>
<!-- Node10&#45;&gt;Node5 -->
<g id="edge13" class="edge"><title>Node10&#45;&gt;Node5</title>
<path fill="none" stroke="midnightblue" d="M308.858,-124.679C309.702,-116.722 310.775,-106.605 311.748,-97.4356"/>
<polygon fill="midnightblue" stroke="midnightblue" points="315.249,-97.6065 312.823,-87.2931 308.288,-96.8681 315.249,-97.6065"/>
</g>
<!-- Node10&#45;&gt;Node11 -->
<g id="edge10" class="edge"><title>Node10&#45;&gt;Node11</title>
<path fill="none" stroke="midnightblue" d="M334.369,-124.841C356.066,-113.476 386.322,-97.628 407.654,-86.454"/>
<polygon fill="midnightblue" stroke="midnightblue" points="409.53,-89.4224 416.765,-81.6819 406.282,-83.2216 409.53,-89.4224"/>
</g>
<!-- Node10&#45;&gt;Node12 -->
<g id="edge11" class="edge"><title>Node10&#45;&gt;Node12</title>
<path fill="none" stroke="midnightblue" d="M252.521,-124.922C203.117,-112.235 131.765,-93.9108 88.3639,-82.7651"/>
<polygon fill="midnightblue" stroke="midnightblue" points="89.0467,-79.3269 78.4904,-80.2295 87.3055,-86.1069 89.0467,-79.3269"/>
</g>
<!-- Node13 -->
<g id="node13" class="node"><title>Node13</title>
<polygon fill="none" stroke="#bfbfbf" points="155.339,-62.5 155.339,-81.5 217.339,-81.5 217.339,-62.5 155.339,-62.5"/>
<text text-anchor="middle" x="186.339" y="-69.5" font-family="Helvetica,sans-Serif" font-size="10.00">TBranch.h</text>
</g>
<!-- Node10&#45;&gt;Node13 -->
<g id="edge12" class="edge"><title>Node10&#45;&gt;Node13</title>
<path fill="none" stroke="midnightblue" d="M281.382,-124.841C260.64,-113.528 231.752,-97.7707 211.282,-86.6053"/>
<polygon fill="midnightblue" stroke="midnightblue" points="212.711,-83.3978 202.256,-81.6819 209.359,-89.5431 212.711,-83.3978"/>
</g>
<!-- Node14&#45;&gt;Node5 -->
<g id="edge20" class="edge"><title>Node14&#45;&gt;Node5</title>
<path fill="none" stroke="midnightblue" d="M497.755,-130.372C465.178,-120.182 410.209,-102.988 368.924,-90.0738"/>
<polygon fill="midnightblue" stroke="midnightblue" points="369.865,-86.7012 359.277,-87.0562 367.776,-93.382 369.865,-86.7012"/>
</g>
<!-- Node14&#45;&gt;Node6 -->
<g id="edge15" class="edge"><title>Node14&#45;&gt;Node6</title>
<path fill="none" stroke="midnightblue" d="M527.001,-130.273C529.886,-115.144 536.023,-83.0719 541.339,-56 543.049,-47.2928 544.975,-37.6445 546.605,-29.522"/>
<polygon fill="midnightblue" stroke="midnightblue" points="550.055,-30.1172 548.596,-19.6233 543.192,-28.7365 550.055,-30.1172"/>
</g>
<!-- Node14&#45;&gt;Node9 -->
<g id="edge21" class="edge"><title>Node14&#45;&gt;Node9</title>
<path fill="none" stroke="midnightblue" d="M519.643,-130.374C509.237,-114.855 486.119,-81.4743 463.339,-56 454.034,-45.5945 442.675,-34.8691 433.344,-26.5004"/>
<polygon fill="midnightblue" stroke="midnightblue" points="435.583,-23.8085 425.767,-19.82 430.953,-29.0589 435.583,-23.8085"/>
</g>
<!-- Node14&#45;&gt;Node11 -->
<g id="edge19" class="edge"><title>Node14&#45;&gt;Node11</title>
<path fill="none" stroke="midnightblue" d="M513.312,-130.372C498.16,-119.502 471.896,-100.66 453.617,-87.5474"/>
<polygon fill="midnightblue" stroke="midnightblue" points="455.535,-84.6157 445.37,-81.6305 451.455,-90.3035 455.535,-84.6157"/>
</g>
<!-- Node15 -->
<g id="node15" class="node"><title>Node15</title>
<polygon fill="none" stroke="#bfbfbf" points="549.839,-62.5 549.839,-81.5 602.839,-81.5 602.839,-62.5 549.839,-62.5"/>
<text text-anchor="middle" x="576.339" y="-69.5" font-family="Helvetica,sans-Serif" font-size="10.00">TMath.h</text>
</g>
<!-- Node14&#45;&gt;Node15 -->
<g id="edge16" class="edge"><title>Node14&#45;&gt;Node15</title>
<path fill="none" stroke="midnightblue" d="M532.007,-130.372C539.904,-120.151 553.247,-102.884 563.236,-89.9571"/>
<polygon fill="midnightblue" stroke="midnightblue" points="566.162,-91.8941 569.507,-81.8411 560.623,-87.6139 566.162,-91.8941"/>
</g>
<!-- Node16 -->
<g id="node16" class="node"><title>Node16</title>
<polygon fill="none" stroke="#bfbfbf" points="621.339,-62.5 621.339,-81.5 689.339,-81.5 689.339,-62.5 621.339,-62.5"/>
<text text-anchor="middle" x="655.339" y="-69.5" font-family="Helvetica,sans-Serif" font-size="10.00">TRandom.h</text>
</g>
<!-- Node14&#45;&gt;Node16 -->
<g id="edge17" class="edge"><title>Node14&#45;&gt;Node16</title>
<path fill="none" stroke="midnightblue" d="M542.334,-130.372C564.427,-119.156 603.235,-99.4532 629.115,-86.3136"/>
<polygon fill="midnightblue" stroke="midnightblue" points="631.008,-89.2783 638.34,-81.6305 627.839,-83.0366 631.008,-89.2783"/>
</g>
<!-- Node17 -->
<g id="node17" class="node"><title>Node17</title>
<polygon fill="none" stroke="#bfbfbf" points="707.839,-62.5 707.839,-81.5 748.839,-81.5 748.839,-62.5 707.839,-62.5"/>
<text text-anchor="middle" x="728.339" y="-69.5" font-family="Helvetica,sans-Serif" font-size="10.00">bitset</text>
</g>
<!-- Node14&#45;&gt;Node17 -->
<g id="edge18" class="edge"><title>Node14&#45;&gt;Node17</title>
<path fill="none" stroke="midnightblue" d="M561.077,-130.44C596.498,-121.499 652.015,-106.243 698.339,-88 699.941,-87.3692 701.573,-86.6841 703.206,-85.9656"/>
<polygon fill="midnightblue" stroke="midnightblue" points="704.837,-89.0661 712.386,-81.6313 701.849,-82.7362 704.837,-89.0661"/>
</g>
</g>
</svg>
        <g id="navigator" transform="translate(0 0)" fill="#404254">
                <rect fill="#f2f5e9" fill-opacity="0.5" stroke="#606060" stroke-width=".5" x="0" y="0" width="60" height="60"/>
                <use id="zoomplus" xlink:href="#zoomPlus" x="17" y="9" onmousedown="handleZoom(evt,'in')"/>
                <use id="zoomminus" xlink:href="#zoomMin" x="42" y="9" onmousedown="handleZoom(evt,'out')"/>
                <use id="reset" xlink:href="#resetDef" x="30" y="36" onmousedown="handleReset()"/>
                <g id="arrowUp" xlink:href="#dirArrow" transform="translate(30 24)" onmousedown="handlePan(0,-1)">
                  <use xlink:href="#rim" fill="#404040">
                        <set attributeName="fill" to="#808080" begin="arrowUp.mouseover" end="arrowUp.mouseout"/>
                  </use>
                  <path fill="none" stroke="white" stroke-width="1.5" d="M0,-3.0v7 M-2.5,-0.5L0,-3.0L2.5,-0.5"/>
                </g>
                <g id="arrowRight" xlink:href="#dirArrow" transform="rotate(90) translate(36 -43)" onmousedown="handlePan(1,0)">
                  <use xlink:href="#rim" fill="#404040">
                        <set attributeName="fill" to="#808080" begin="arrowRight.mouseover" end="arrowRight.mouseout"/>
                  </use>
                  <path fill="none" stroke="white" stroke-width="1.5" d="M0,-3.0v7 M-2.5,-0.5L0,-3.0L2.5,-0.5"/>
                </g>
                <g id="arrowDown" xlink:href="#dirArrow" transform="rotate(180) translate(-30 -48)" onmousedown="handlePan(0,1)">
                  <use xlink:href="#rim" fill="#404040">
                        <set attributeName="fill" to="#808080" begin="arrowDown.mouseover" end="arrowDown.mouseout"/>
                  </use>
                  <path fill="none" stroke="white" stroke-width="1.5" d="M0,-3.0v7 M-2.5,-0.5L0,-3.0L2.5,-0.5"/>
                </g>
                <g id="arrowLeft" xlink:href="#dirArrow" transform="rotate(270) translate(-36 17)" onmousedown="handlePan(-1,0)">
                  <use xlink:href="#rim" fill="#404040">
                        <set attributeName="fill" to="#808080" begin="arrowLeft.mouseover" end="arrowLeft.mouseout"/>
                  </use>
                  <path fill="none" stroke="white" stroke-width="1.5" d="M0,-3.0v7 M-2.5,-0.5L0,-3.0L2.5,-0.5"/>
                </g>
        </g>
        <svg viewBox="0 0 15 15" width="100%" height="30px" preserveAspectRatio="xMaxYMin meet">
         <g id="arrow_out" transform="scale(0.3 0.3)">
          <a xlink:href="testHitProcessingManager_8cxx__incl_org.svg" target="_base">
           <rect id="button" ry="5" rx="5" y="6" x="6" height="38" width="38"
                fill="#f2f5e9" fill-opacity="0.5" stroke="#606060" stroke-width="1.0"/>
           <path id="arrow"
             d="M 11.500037,31.436501 C 11.940474,20.09759 22.043105,11.32322 32.158766,21.979434 L 37.068811,17.246167 C 37.068811,17.246167 37.088388,32 37.088388,32 L 22.160133,31.978069 C 22.160133,31.978069 26.997745,27.140456 26.997745,27.140456 C 18.528582,18.264221 13.291696,25.230495 11.500037,31.436501 z"
             style="fill:#404040;"/>
          </a>
         </g>
        </svg>
</svg>
