<?xml version="1.0" encoding="UTF-8" standalone="no"?>
<!DOCTYPE svg PUBLIC "-//W3C//DTD SVG 1.1//EN"
 "http://www.w3.org/Graphics/SVG/1.1/DTD/svg11.dtd">
<!-- Generated by graphviz version 2.36.0 (20140111.2315)
 -->
<!-- Title: o2::utilities::DataPublisherDevice Pages: 1 -->
<svg width="371pt" height="432pt"
 viewBox="0.00 0.00 371.00 432.00" xmlns="http://www.w3.org/2000/svg" xmlns:xlink="http://www.w3.org/1999/xlink">
<g id="graph0" class="graph" transform="scale(1 1) rotate(0) translate(4 428)">
<title>o2::utilities::DataPublisherDevice</title>
<!-- Node1 -->
<g id="node1" class="node"><title>Node1</title>
<polygon fill="#bfbfbf" stroke="black" points="131.5,-0.5 131.5,-123.5 262.5,-123.5 262.5,-0.5 131.5,-0.5"/>
<text text-anchor="start" x="139.5" y="-111.5" font-family="Helvetica,sans-Serif" font-size="10.00">o2::utilities::DataPublisher</text>
<text text-anchor="middle" x="197" y="-100.5" font-family="Helvetica,sans-Serif" font-size="10.00">Device</text>
<polyline fill="none" stroke="black" points="131.5,-93.5 262.5,-93.5 "/>
<text text-anchor="middle" x="197" y="-81.5" font-family="Helvetica,sans-Serif" font-size="10.00"> </text>
<polyline fill="none" stroke="black" points="131.5,-74.5 262.5,-74.5 "/>
<text text-anchor="start" x="139.5" y="-62.5" font-family="Helvetica,sans-Serif" font-size="10.00">+ DataPublisherDevice()</text>
<text text-anchor="start" x="139.5" y="-51.5" font-family="Helvetica,sans-Serif" font-size="10.00">+ ~DataPublisherDevice()</text>
<text text-anchor="start" x="139.5" y="-40.5" font-family="Helvetica,sans-Serif" font-size="10.00"># InitTask()</text>
<text text-anchor="start" x="139.5" y="-29.5" font-family="Helvetica,sans-Serif" font-size="10.00"># HandleData()</text>
<text text-anchor="start" x="139.5" y="-18.5" font-family="Helvetica,sans-Serif" font-size="10.00"># HandleO2LogicalBlock()</text>
<text text-anchor="start" x="139.5" y="-7.5" font-family="Helvetica,sans-Serif" font-size="10.00"># AppendFile()</text>
</g>
<!-- Node2 -->
<g id="node2" class="node"><title>Node2</title>
<g id="a_node2"><a xlink:href="../../da/df6/classo2_1_1Base_1_1O2Device.html" target="_top" xlink:title="{o2::Base::O2Device\n||+ ~O2Device()\l+ GetMonitoring()\l+ Init()\l}">
<polygon fill="none" stroke="black" points="49.5,-226.5 49.5,-305.5 154.5,-305.5 154.5,-226.5 49.5,-226.5"/>
<text text-anchor="middle" x="102" y="-293.5" font-family="Helvetica,sans-Serif" font-size="10.00">o2::Base::O2Device</text>
<polyline fill="none" stroke="black" points="49.5,-286.5 154.5,-286.5 "/>
<text text-anchor="middle" x="102" y="-274.5" font-family="Helvetica,sans-Serif" font-size="10.00"> </text>
<polyline fill="none" stroke="black" points="49.5,-267.5 154.5,-267.5 "/>
<text text-anchor="start" x="57.5" y="-255.5" font-family="Helvetica,sans-Serif" font-size="10.00">+ ~O2Device()</text>
<text text-anchor="start" x="57.5" y="-244.5" font-family="Helvetica,sans-Serif" font-size="10.00">+ GetMonitoring()</text>
<text text-anchor="start" x="57.5" y="-233.5" font-family="Helvetica,sans-Serif" font-size="10.00">+ Init()</text>
</a>
</g>
</g>
<!-- Node2&#45;&gt;Node1 -->
<g id="edge1" class="edge"><title>Node2&#45;&gt;Node1</title>
<path fill="none" stroke="midnightblue" d="M124.627,-216.889C137.76,-188.962 154.428,-153.522 168.457,-123.692"/>
<polygon fill="none" stroke="midnightblue" points="121.406,-215.514 120.317,-226.052 127.74,-218.493 121.406,-215.514"/>
</g>
<!-- Node3 -->
<g id="node3" class="node"><title>Node3</title>
<g id="a_node3"><a xlink:href="../../db/dfe/classFairMQDevice.html" target="_top" xlink:title="{FairMQDevice\n||}">
<polygon fill="none" stroke="black" points="0,-360.5 0,-417.5 80,-417.5 80,-360.5 0,-360.5"/>
<text text-anchor="middle" x="40" y="-405.5" font-family="Helvetica,sans-Serif" font-size="10.00">FairMQDevice</text>
<polyline fill="none" stroke="black" points="0,-398.5 80,-398.5 "/>
<text text-anchor="middle" x="40" y="-386.5" font-family="Helvetica,sans-Serif" font-size="10.00"> </text>
<polyline fill="none" stroke="black" points="0,-379.5 80,-379.5 "/>
<text text-anchor="middle" x="40" y="-367.5" font-family="Helvetica,sans-Serif" font-size="10.00"> </text>
</a>
</g>
</g>
<!-- Node3&#45;&gt;Node2 -->
<g id="edge2" class="edge"><title>Node3&#45;&gt;Node2</title>
<path fill="none" stroke="midnightblue" d="M58.8953,-351.124C66.275,-336.721 74.7403,-320.2 82.2043,-305.633"/>
<polygon fill="none" stroke="midnightblue" points="55.6694,-349.744 54.2241,-360.24 61.8992,-352.937 55.6694,-349.744"/>
</g>
<!-- Node4 -->
<g id="node4" class="node"><title>Node4</title>
<polygon fill="none" stroke="#bfbfbf" points="98,-355 98,-423 230,-423 230,-355 98,-355"/>
<text text-anchor="start" x="106" y="-411" font-family="Helvetica,sans-Serif" font-size="10.00">unique_ptr&lt; o2::monitoring</text>
<text text-anchor="middle" x="164" y="-400" font-family="Helvetica,sans-Serif" font-size="10.00">::Monitoring &gt;</text>
<polyline fill="none" stroke="#bfbfbf" points="98,-393 230,-393 "/>
<text text-anchor="middle" x="164" y="-381" font-family="Helvetica,sans-Serif" font-size="10.00"> </text>
<polyline fill="none" stroke="#bfbfbf" points="98,-374 230,-374 "/>
<text text-anchor="middle" x="164" y="-362" font-family="Helvetica,sans-Serif" font-size="10.00"> </text>
</g>
<!-- Node4&#45;&gt;Node2 -->
<g id="edge3" class="edge"><title>Node4&#45;&gt;Node2</title>
<path fill="none" stroke="#404040" d="M147.058,-354.936C140.952,-343.019 133.922,-329.3 127.259,-316.296"/>
<polygon fill="none" stroke="#404040" points="127.249,-316.277 120.953,-312.761 121.777,-305.597 128.073,-309.113 127.249,-316.277"/>
<text text-anchor="middle" x="164.5" y="-327.5" font-family="Helvetica,sans-Serif" font-size="10.00"> +monitoring</text>
</g>
<!-- Node5 -->
<g id="node5" class="node"><title>Node5</title>
<polygon fill="none" stroke="#bfbfbf" points="172.5,-232 172.5,-300 285.5,-300 285.5,-232 172.5,-232"/>
<text text-anchor="start" x="180.5" y="-288" font-family="Helvetica,sans-Serif" font-size="10.00">static constexpr const</text>
<text text-anchor="middle" x="229" y="-277" font-family="Helvetica,sans-Serif" font-size="10.00"> char *</text>
<polyline fill="none" stroke="#bfbfbf" points="172.5,-270 285.5,-270 "/>
<text text-anchor="middle" x="229" y="-258" font-family="Helvetica,sans-Serif" font-size="10.00"> </text>
<polyline fill="none" stroke="#bfbfbf" points="172.5,-251 285.5,-251 "/>
<text text-anchor="middle" x="229" y="-239" font-family="Helvetica,sans-Serif" font-size="10.00"> </text>
</g>
<!-- Node5&#45;&gt;Node1 -->
<g id="edge4" class="edge"><title>Node5&#45;&gt;Node1</title>
<path fill="none" stroke="#404040" d="M223.716,-231.644C219.589,-205.596 213.703,-168.438 208.505,-135.628"/>
<polygon fill="none" stroke="#404040" points="208.504,-135.617 203.614,-130.317 206.626,-123.765 211.516,-129.065 208.504,-135.617"/>
<text text-anchor="middle" x="291" y="-200" font-family="Helvetica,sans-Serif" font-size="10.00"> +OptionKeyFileName</text>
<text text-anchor="middle" x="291" y="-189" font-family="Helvetica,sans-Serif" font-size="10.00">+OptionKeySubspecification</text>
<text text-anchor="middle" x="291" y="-178" font-family="Helvetica,sans-Serif" font-size="10.00">+OptionKeyOutputChannelName</text>
<text text-anchor="middle" x="291" y="-167" font-family="Helvetica,sans-Serif" font-size="10.00">+OptionKeyDataOrigin</text>
<text text-anchor="middle" x="291" y="-156" font-family="Helvetica,sans-Serif" font-size="10.00">+OptionKeyDataDescription</text>
<text text-anchor="middle" x="291" y="-145" font-family="Helvetica,sans-Serif" font-size="10.00">+OptionKeyInputChannelName</text>
</g>
</g>
</svg>
