<?xml version="1.0" encoding="UTF-8" standalone="no"?>
<!DOCTYPE svg PUBLIC "-//W3C//DTD SVG 1.1//EN"
 "http://www.w3.org/Graphics/SVG/1.1/DTD/svg11.dtd">
<!-- Generated by graphviz version 2.36.0 (20140111.2315)
 -->
<!-- Title: o2::framework::DataProcessingHeader Pages: 1 -->
<svg width="1008pt" height="1042pt"
 viewBox="0.00 0.00 1007.61 1042.00" xmlns="http://www.w3.org/2000/svg" xmlns:xlink="http://www.w3.org/1999/xlink">
<g id="graph0" class="graph" transform="scale(1 1) rotate(0) translate(4 1038)">
<title>o2::framework::DataProcessingHeader</title>
<!-- Node1 -->
<g id="node1" class="node"><title>Node1</title>
<polygon fill="#bfbfbf" stroke="black" points="757.106,-1 757.106,-113 912.106,-113 912.106,-1 757.106,-1"/>
<text text-anchor="start" x="765.106" y="-101" font-family="Helvetica,sans-Serif" font-size="10.00">o2::framework::DataProcessing</text>
<text text-anchor="middle" x="834.606" y="-90" font-family="Helvetica,sans-Serif" font-size="10.00">Header</text>
<polyline fill="none" stroke="black" points="757.106,-83 912.106,-83 "/>
<text text-anchor="middle" x="834.606" y="-71" font-family="Helvetica,sans-Serif" font-size="10.00"> </text>
<polyline fill="none" stroke="black" points="757.106,-64 912.106,-64 "/>
<text text-anchor="start" x="765.106" y="-52" font-family="Helvetica,sans-Serif" font-size="10.00">+ DataProcessingHeader()</text>
<text text-anchor="start" x="765.106" y="-41" font-family="Helvetica,sans-Serif" font-size="10.00">+ DataProcessingHeader()</text>
<text text-anchor="start" x="765.106" y="-30" font-family="Helvetica,sans-Serif" font-size="10.00">+ DataProcessingHeader()</text>
<text text-anchor="start" x="765.106" y="-19" font-family="Helvetica,sans-Serif" font-size="10.00">+ DataProcessingHeader()</text>
<text text-anchor="start" x="765.106" y="-8" font-family="Helvetica,sans-Serif" font-size="10.00">+ Get()</text>
</g>
<!-- Node2 -->
<g id="node2" class="node"><title>Node2</title>
<g id="a_node2"><a xlink:href="../../d8/dbd/structo2_1_1header_1_1BaseHeader.html" target="_top" xlink:title="the base header struct Every header type must begin (i.e. derive) with this. Don&#39;t use this struct di...">
<polygon fill="none" stroke="black" points="632.606,-172.5 632.606,-317.5 754.606,-317.5 754.606,-172.5 632.606,-172.5"/>
<text text-anchor="middle" x="693.606" y="-305.5" font-family="Helvetica,sans-Serif" font-size="10.00">o2::header::BaseHeader</text>
<polyline fill="none" stroke="black" points="632.606,-298.5 754.606,-298.5 "/>
<text text-anchor="middle" x="693.606" y="-286.5" font-family="Helvetica,sans-Serif" font-size="10.00"> </text>
<polyline fill="none" stroke="black" points="632.606,-279.5 754.606,-279.5 "/>
<text text-anchor="start" x="640.606" y="-267.5" font-family="Helvetica,sans-Serif" font-size="10.00">+ BaseHeader()</text>
<text text-anchor="start" x="640.606" y="-256.5" font-family="Helvetica,sans-Serif" font-size="10.00">+ BaseHeader()</text>
<text text-anchor="start" x="640.606" y="-245.5" font-family="Helvetica,sans-Serif" font-size="10.00">+ BaseHeader()</text>
<text text-anchor="start" x="640.606" y="-234.5" font-family="Helvetica,sans-Serif" font-size="10.00">+ size()</text>
<text text-anchor="start" x="640.606" y="-223.5" font-family="Helvetica,sans-Serif" font-size="10.00">+ data()</text>
<text text-anchor="start" x="640.606" y="-212.5" font-family="Helvetica,sans-Serif" font-size="10.00">+ next()</text>
<text text-anchor="start" x="640.606" y="-201.5" font-family="Helvetica,sans-Serif" font-size="10.00">+ next()</text>
<text text-anchor="start" x="640.606" y="-190.5" font-family="Helvetica,sans-Serif" font-size="10.00">+ get()</text>
<text text-anchor="start" x="640.606" y="-179.5" font-family="Helvetica,sans-Serif" font-size="10.00">+ get()</text>
</a>
</g>
</g>
<!-- Node2&#45;&gt;Node1 -->
<g id="edge1" class="edge"><title>Node2&#45;&gt;Node1</title>
<path fill="none" stroke="midnightblue" d="M754.255,-163.995C767.253,-146.848 780.707,-129.101 792.802,-113.145"/>
<polygon fill="none" stroke="midnightblue" points="751.171,-162.27 747.919,-172.354 756.749,-166.499 751.171,-162.27"/>
</g>
<!-- Node3 -->
<g id="node3" class="node"><title>Node3</title>
<g id="a_node3"><a xlink:href="../../d9/db3/structo2_1_1header_1_1Descriptor.html" target="_top" xlink:title="{o2::header::Descriptor\l\&lt; gSizeHeaderDescriptionString \&gt;\n||+ Descriptor()\l+ Descriptor()\l+ Descriptor()\l+ Descriptor()\l+ operator=()\l+ operator ItgType()\l+ runtimeInit()\l+ operator==()\l+ operator==()\l+ operator!=()\l+ operator!=()\l+ as()\l+ print()\l}">
<polygon fill="none" stroke="black" points="283.606,-443 283.606,-643 449.606,-643 449.606,-443 283.606,-443"/>
<text text-anchor="start" x="291.606" y="-631" font-family="Helvetica,sans-Serif" font-size="10.00">o2::header::Descriptor</text>
<text text-anchor="middle" x="366.606" y="-620" font-family="Helvetica,sans-Serif" font-size="10.00">&lt; gSizeHeaderDescriptionString &gt;</text>
<polyline fill="none" stroke="black" points="283.606,-613 449.606,-613 "/>
<text text-anchor="middle" x="366.606" y="-601" font-family="Helvetica,sans-Serif" font-size="10.00"> </text>
<polyline fill="none" stroke="black" points="283.606,-594 449.606,-594 "/>
<text text-anchor="start" x="291.606" y="-582" font-family="Helvetica,sans-Serif" font-size="10.00">+ Descriptor()</text>
<text text-anchor="start" x="291.606" y="-571" font-family="Helvetica,sans-Serif" font-size="10.00">+ Descriptor()</text>
<text text-anchor="start" x="291.606" y="-560" font-family="Helvetica,sans-Serif" font-size="10.00">+ Descriptor()</text>
<text text-anchor="start" x="291.606" y="-549" font-family="Helvetica,sans-Serif" font-size="10.00">+ Descriptor()</text>
<text text-anchor="start" x="291.606" y="-538" font-family="Helvetica,sans-Serif" font-size="10.00">+ operator=()</text>
<text text-anchor="start" x="291.606" y="-527" font-family="Helvetica,sans-Serif" font-size="10.00">+ operator ItgType()</text>
<text text-anchor="start" x="291.606" y="-516" font-family="Helvetica,sans-Serif" font-size="10.00">+ runtimeInit()</text>
<text text-anchor="start" x="291.606" y="-505" font-family="Helvetica,sans-Serif" font-size="10.00">+ operator==()</text>
<text text-anchor="start" x="291.606" y="-494" font-family="Helvetica,sans-Serif" font-size="10.00">+ operator==()</text>
<text text-anchor="start" x="291.606" y="-483" font-family="Helvetica,sans-Serif" font-size="10.00">+ operator!=()</text>
<text text-anchor="start" x="291.606" y="-472" font-family="Helvetica,sans-Serif" font-size="10.00">+ operator!=()</text>
<text text-anchor="start" x="291.606" y="-461" font-family="Helvetica,sans-Serif" font-size="10.00">+ as()</text>
<text text-anchor="start" x="291.606" y="-450" font-family="Helvetica,sans-Serif" font-size="10.00">+ print()</text>
</a>
</g>
</g>
<!-- Node3&#45;&gt;Node2 -->
<g id="edge2" class="edge"><title>Node3&#45;&gt;Node2</title>
<path fill="none" stroke="#404040" d="M415.7,-442.99C437.758,-405.882 466.544,-365.587 500.606,-336 535.386,-305.789 582.035,-283.665 620.758,-268.913"/>
<polygon fill="none" stroke="#404040" points="621.244,-268.733 625.484,-262.9 632.499,-264.571 628.259,-270.404 621.244,-268.733"/>
<text text-anchor="middle" x="529.106" y="-377.5" font-family="Helvetica,sans-Serif" font-size="10.00"> +description</text>
</g>
<!-- Node4 -->
<g id="node4" class="node"><title>Node4</title>
<polygon fill="none" stroke="#bfbfbf" points="275.606,-975.5 275.606,-1032.5 313.606,-1032.5 313.606,-975.5 275.606,-975.5"/>
<text text-anchor="middle" x="294.606" y="-1020.5" font-family="Helvetica,sans-Serif" font-size="10.00">Type</text>
<polyline fill="none" stroke="#bfbfbf" points="275.606,-1013.5 313.606,-1013.5 "/>
<text text-anchor="middle" x="294.606" y="-1001.5" font-family="Helvetica,sans-Serif" font-size="10.00"> </text>
<polyline fill="none" stroke="#bfbfbf" points="275.606,-994.5 313.606,-994.5 "/>
<text text-anchor="middle" x="294.606" y="-982.5" font-family="Helvetica,sans-Serif" font-size="10.00"> </text>
</g>
<!-- Node4&#45;&gt;Node3 -->
<g id="edge3" class="edge"><title>Node4&#45;&gt;Node3</title>
<path fill="none" stroke="#404040" d="M275.482,-998.862C237.865,-989.548 155.17,-962.978 123.606,-904 81.2438,-824.845 73.5353,-776.518 123.606,-702 143.077,-673.023 240.399,-663.123 269.606,-644 270.915,-643.143 272.22,-642.265 273.52,-641.369"/>
<polygon fill="none" stroke="#404040" points="273.698,-641.239 276.176,-634.467 283.381,-634.151 280.902,-640.922 273.698,-641.239"/>
<text text-anchor="middle" x="133.606" y="-800.5" font-family="Helvetica,sans-Serif" font-size="10.00"> +itg</text>
</g>
<!-- Node8 -->
<g id="node8" class="node"><title>Node8</title>
<g id="a_node8"><a xlink:href="../../d9/db3/structo2_1_1header_1_1Descriptor.html" target="_top" xlink:title="{o2::header::Descriptor\l\&lt; N, PrinterPolicy \&gt;\n||+ Descriptor()\l+ Descriptor()\l+ Descriptor()\l+ operator=()\l+ operator ItgType()\l+ Descriptor()\l+ runtimeInit()\l+ operator==()\l+ operator!=()\l+ operator==()\l+ operator!=()\l+ as()\l+ print()\l}">
<polygon fill="none" stroke="black" points="235.106,-703 235.106,-903 348.106,-903 348.106,-703 235.106,-703"/>
<text text-anchor="start" x="243.106" y="-891" font-family="Helvetica,sans-Serif" font-size="10.00">o2::header::Descriptor</text>
<text text-anchor="middle" x="291.606" y="-880" font-family="Helvetica,sans-Serif" font-size="10.00">&lt; N, PrinterPolicy &gt;</text>
<polyline fill="none" stroke="black" points="235.106,-873 348.106,-873 "/>
<text text-anchor="middle" x="291.606" y="-861" font-family="Helvetica,sans-Serif" font-size="10.00"> </text>
<polyline fill="none" stroke="black" points="235.106,-854 348.106,-854 "/>
<text text-anchor="start" x="243.106" y="-842" font-family="Helvetica,sans-Serif" font-size="10.00">+ Descriptor()</text>
<text text-anchor="start" x="243.106" y="-831" font-family="Helvetica,sans-Serif" font-size="10.00">+ Descriptor()</text>
<text text-anchor="start" x="243.106" y="-820" font-family="Helvetica,sans-Serif" font-size="10.00">+ Descriptor()</text>
<text text-anchor="start" x="243.106" y="-809" font-family="Helvetica,sans-Serif" font-size="10.00">+ operator=()</text>
<text text-anchor="start" x="243.106" y="-798" font-family="Helvetica,sans-Serif" font-size="10.00">+ operator ItgType()</text>
<text text-anchor="start" x="243.106" y="-787" font-family="Helvetica,sans-Serif" font-size="10.00">+ Descriptor()</text>
<text text-anchor="start" x="243.106" y="-776" font-family="Helvetica,sans-Serif" font-size="10.00">+ runtimeInit()</text>
<text text-anchor="start" x="243.106" y="-765" font-family="Helvetica,sans-Serif" font-size="10.00">+ operator==()</text>
<text text-anchor="start" x="243.106" y="-754" font-family="Helvetica,sans-Serif" font-size="10.00">+ operator!=()</text>
<text text-anchor="start" x="243.106" y="-743" font-family="Helvetica,sans-Serif" font-size="10.00">+ operator==()</text>
<text text-anchor="start" x="243.106" y="-732" font-family="Helvetica,sans-Serif" font-size="10.00">+ operator!=()</text>
<text text-anchor="start" x="243.106" y="-721" font-family="Helvetica,sans-Serif" font-size="10.00">+ as()</text>
<text text-anchor="start" x="243.106" y="-710" font-family="Helvetica,sans-Serif" font-size="10.00">+ print()</text>
</a>
</g>
</g>
<!-- Node4&#45;&gt;Node8 -->
<g id="edge8" class="edge"><title>Node4&#45;&gt;Node8</title>
<path fill="none" stroke="#404040" d="M294.189,-975.33C293.946,-959.216 293.622,-937.721 293.286,-915.415"/>
<polygon fill="none" stroke="#404040" points="293.285,-915.335 289.195,-909.396 293.104,-903.336 297.194,-909.275 293.285,-915.335"/>
<text text-anchor="middle" x="304.606" y="-936.5" font-family="Helvetica,sans-Serif" font-size="10.00"> +itg</text>
</g>
<!-- Node10 -->
<g id="node10" class="node"><title>Node10</title>
<g id="a_node10"><a xlink:href="../../d9/db3/structo2_1_1header_1_1Descriptor.html" target="_top" xlink:title="{o2::header::Descriptor\l\&lt; gSizeSerializationMethodString \&gt;\n||+ Descriptor()\l+ Descriptor()\l+ Descriptor()\l+ Descriptor()\l+ operator=()\l+ operator ItgType()\l+ runtimeInit()\l+ operator==()\l+ operator==()\l+ operator!=()\l+ operator!=()\l+ as()\l+ print()\l}">
<polygon fill="none" stroke="black" points="467.606,-443 467.606,-643 637.606,-643 637.606,-443 467.606,-443"/>
<text text-anchor="start" x="475.606" y="-631" font-family="Helvetica,sans-Serif" font-size="10.00">o2::header::Descriptor</text>
<text text-anchor="middle" x="552.606" y="-620" font-family="Helvetica,sans-Serif" font-size="10.00">&lt; gSizeSerializationMethodString &gt;</text>
<polyline fill="none" stroke="black" points="467.606,-613 637.606,-613 "/>
<text text-anchor="middle" x="552.606" y="-601" font-family="Helvetica,sans-Serif" font-size="10.00"> </text>
<polyline fill="none" stroke="black" points="467.606,-594 637.606,-594 "/>
<text text-anchor="start" x="475.606" y="-582" font-family="Helvetica,sans-Serif" font-size="10.00">+ Descriptor()</text>
<text text-anchor="start" x="475.606" y="-571" font-family="Helvetica,sans-Serif" font-size="10.00">+ Descriptor()</text>
<text text-anchor="start" x="475.606" y="-560" font-family="Helvetica,sans-Serif" font-size="10.00">+ Descriptor()</text>
<text text-anchor="start" x="475.606" y="-549" font-family="Helvetica,sans-Serif" font-size="10.00">+ Descriptor()</text>
<text text-anchor="start" x="475.606" y="-538" font-family="Helvetica,sans-Serif" font-size="10.00">+ operator=()</text>
<text text-anchor="start" x="475.606" y="-527" font-family="Helvetica,sans-Serif" font-size="10.00">+ operator ItgType()</text>
<text text-anchor="start" x="475.606" y="-516" font-family="Helvetica,sans-Serif" font-size="10.00">+ runtimeInit()</text>
<text text-anchor="start" x="475.606" y="-505" font-family="Helvetica,sans-Serif" font-size="10.00">+ operator==()</text>
<text text-anchor="start" x="475.606" y="-494" font-family="Helvetica,sans-Serif" font-size="10.00">+ operator==()</text>
<text text-anchor="start" x="475.606" y="-483" font-family="Helvetica,sans-Serif" font-size="10.00">+ operator!=()</text>
<text text-anchor="start" x="475.606" y="-472" font-family="Helvetica,sans-Serif" font-size="10.00">+ operator!=()</text>
<text text-anchor="start" x="475.606" y="-461" font-family="Helvetica,sans-Serif" font-size="10.00">+ as()</text>
<text text-anchor="start" x="475.606" y="-450" font-family="Helvetica,sans-Serif" font-size="10.00">+ print()</text>
</a>
</g>
</g>
<!-- Node4&#45;&gt;Node10 -->
<g id="edge17" class="edge"><title>Node4&#45;&gt;Node10</title>
<path fill="none" stroke="#404040" d="M313.659,-992.259C328.849,-983.343 350.359,-969.91 367.606,-956 367.706,-955.92 419.547,-904.113 419.606,-904 462.25,-823.211 393.828,-767.403 457.606,-702 484.263,-674.665 516.457,-712.728 541.606,-684 549.036,-675.513 554.139,-665.521 557.515,-654.845"/>
<polygon fill="none" stroke="#404040" points="557.562,-654.659 555.169,-647.856 560.528,-643.031 562.921,-649.833 557.562,-654.659"/>
<text text-anchor="middle" x="467.606" y="-800.5" font-family="Helvetica,sans-Serif" font-size="10.00"> +itg</text>
</g>
<!-- Node5 -->
<g id="node5" class="node"><title>Node5</title>
<polygon fill="none" stroke="#bfbfbf" points="434.106,-975.5 434.106,-1032.5 469.106,-1032.5 469.106,-975.5 434.106,-975.5"/>
<text text-anchor="middle" x="451.606" y="-1020.5" font-family="Helvetica,sans-Serif" font-size="10.00">char</text>
<polyline fill="none" stroke="#bfbfbf" points="434.106,-1013.5 469.106,-1013.5 "/>
<text text-anchor="middle" x="451.606" y="-1001.5" font-family="Helvetica,sans-Serif" font-size="10.00"> </text>
<polyline fill="none" stroke="#bfbfbf" points="434.106,-994.5 469.106,-994.5 "/>
<text text-anchor="middle" x="451.606" y="-982.5" font-family="Helvetica,sans-Serif" font-size="10.00"> </text>
</g>
<!-- Node5&#45;&gt;Node2 -->
<g id="edge14" class="edge"><title>Node5&#45;&gt;Node2</title>
<path fill="none" stroke="#404040" d="M469.127,-996.646C500.789,-984.188 567.247,-953.387 599.606,-904 630.591,-856.711 669.222,-496.23 685.635,-329.772"/>
<polygon fill="none" stroke="#404040" points="685.653,-329.591 682.258,-323.229 686.825,-317.648 690.22,-324.01 685.653,-329.591"/>
<text text-anchor="middle" x="678.106" y="-670.5" font-family="Helvetica,sans-Serif" font-size="10.00"> +magicString</text>
</g>
<!-- Node5&#45;&gt;Node3 -->
<g id="edge4" class="edge"><title>Node5&#45;&gt;Node3</title>
<path fill="none" stroke="#404040" d="M433.951,-978.374C421.321,-959.158 405.401,-931.239 398.606,-904 378.221,-822.277 370.416,-727.277 367.603,-655.393"/>
<polygon fill="none" stroke="#404040" points="367.594,-655.148 363.381,-649.296 367.163,-643.156 371.376,-649.008 367.594,-655.148"/>
<text text-anchor="middle" x="409.106" y="-800.5" font-family="Helvetica,sans-Serif" font-size="10.00"> +str</text>
</g>
<!-- Node5&#45;&gt;Node8 -->
<g id="edge9" class="edge"><title>Node5&#45;&gt;Node8</title>
<path fill="none" stroke="#404040" d="M433.801,-995.995C416.202,-988.343 389.4,-974.645 371.606,-956 359.646,-943.467 348.994,-928.795 339.672,-913.6"/>
<polygon fill="none" stroke="#404040" points="339.527,-913.354 333.034,-910.217 333.432,-903.017 339.925,-906.154 339.527,-913.354"/>
<text text-anchor="middle" x="382.106" y="-936.5" font-family="Helvetica,sans-Serif" font-size="10.00"> +str</text>
</g>
<!-- Node5&#45;&gt;Node10 -->
<g id="edge18" class="edge"><title>Node5&#45;&gt;Node10</title>
<path fill="none" stroke="#404040" d="M469.298,-981.76C474.78,-974.089 480.255,-965.075 483.606,-956 522.953,-849.461 440.003,-790.157 511.606,-702 527.822,-682.035 551.51,-704.824 566.606,-684 572.84,-675.4 576.553,-665.682 578.42,-655.475"/>
<polygon fill="none" stroke="#404040" points="578.448,-655.228 575.152,-648.814 579.805,-643.304 583.101,-649.718 578.448,-655.228"/>
<text text-anchor="middle" x="522.106" y="-800.5" font-family="Helvetica,sans-Serif" font-size="10.00"> +str</text>
</g>
<!-- Node6 -->
<g id="node6" class="node"><title>Node6</title>
<polygon fill="none" stroke="#bfbfbf" points="148.106,-975.5 148.106,-1032.5 177.106,-1032.5 177.106,-975.5 148.106,-975.5"/>
<text text-anchor="middle" x="162.606" y="-1020.5" font-family="Helvetica,sans-Serif" font-size="10.00">int</text>
<polyline fill="none" stroke="#bfbfbf" points="148.106,-1013.5 177.106,-1013.5 "/>
<text text-anchor="middle" x="162.606" y="-1001.5" font-family="Helvetica,sans-Serif" font-size="10.00"> </text>
<polyline fill="none" stroke="#bfbfbf" points="148.106,-994.5 177.106,-994.5 "/>
<text text-anchor="middle" x="162.606" y="-982.5" font-family="Helvetica,sans-Serif" font-size="10.00"> </text>
</g>
<!-- Node6&#45;&gt;Node3 -->
<g id="edge5" class="edge"><title>Node6&#45;&gt;Node3</title>
<path fill="none" stroke="#404040" d="M147.945,-997.002C119.745,-984.553 58.6177,-952.927 34.6062,-904 -4.94705,-823.405 -17.1102,-775.386 34.6062,-702 96.5766,-614.064 173.838,-693.005 269.606,-644 270.79,-643.394 271.969,-642.768 273.14,-642.123"/>
<polygon fill="none" stroke="#404040" points="273.245,-642.059 276.301,-635.527 283.505,-635.836 280.45,-642.367 273.245,-642.059"/>
<text text-anchor="middle" x="60.1062" y="-811.5" font-family="Helvetica,sans-Serif" font-size="10.00"> +arraySize</text>
<text text-anchor="middle" x="60.1062" y="-800.5" font-family="Helvetica,sans-Serif" font-size="10.00">+size</text>
<text text-anchor="middle" x="60.1062" y="-789.5" font-family="Helvetica,sans-Serif" font-size="10.00">+bitcount</text>
</g>
<!-- Node6&#45;&gt;Node8 -->
<g id="edge10" class="edge"><title>Node6&#45;&gt;Node8</title>
<path fill="none" stroke="#404040" d="M177.153,-980.559C189.826,-961.01 209.127,-931.235 228.29,-901.674"/>
<polygon fill="none" stroke="#404040" points="228.523,-901.314 228.43,-894.104 235.051,-891.245 235.143,-898.455 228.523,-901.314"/>
<text text-anchor="middle" x="238.106" y="-947.5" font-family="Helvetica,sans-Serif" font-size="10.00"> +arraySize</text>
<text text-anchor="middle" x="238.106" y="-936.5" font-family="Helvetica,sans-Serif" font-size="10.00">+size</text>
<text text-anchor="middle" x="238.106" y="-925.5" font-family="Helvetica,sans-Serif" font-size="10.00">+bitcount</text>
</g>
<!-- Node6&#45;&gt;Node10 -->
<g id="edge19" class="edge"><title>Node6&#45;&gt;Node10</title>
<path fill="none" stroke="#404040" d="M156.726,-975.495C146.383,-920.349 129.994,-793.706 174.606,-702 229.256,-589.66 335.688,-692.921 456.163,-644.288"/>
<polygon fill="none" stroke="#404040" points="456.513,-644.133 460.381,-638.047 467.487,-639.277 463.618,-645.363 456.513,-644.133"/>
<text text-anchor="middle" x="200.106" y="-811.5" font-family="Helvetica,sans-Serif" font-size="10.00"> +arraySize</text>
<text text-anchor="middle" x="200.106" y="-800.5" font-family="Helvetica,sans-Serif" font-size="10.00">+size</text>
<text text-anchor="middle" x="200.106" y="-789.5" font-family="Helvetica,sans-Serif" font-size="10.00">+bitcount</text>
</g>
<!-- Node7 -->
<g id="node7" class="node"><title>Node7</title>
<polygon fill="none" stroke="#bfbfbf" points="649.106,-975 649.106,-1033 678.106,-1033 678.106,-975 649.106,-975"/>
<polyline fill="none" stroke="#bfbfbf" points="649.106,-1013 678.106,-1013 "/>
<text text-anchor="middle" x="663.606" y="-1001" font-family="Helvetica,sans-Serif" font-size="10.00"> </text>
<polyline fill="none" stroke="#bfbfbf" points="649.106,-994 678.106,-994 "/>
<text text-anchor="middle" x="663.606" y="-982" font-family="Helvetica,sans-Serif" font-size="10.00"> </text>
</g>
<!-- Node7&#45;&gt;Node2 -->
<g id="edge13" class="edge"><title>Node7&#45;&gt;Node2</title>
<path fill="none" stroke="#404040" d="M678.159,-978.794C688.955,-959.352 702.771,-930.94 708.606,-904 731.776,-797.036 711.871,-481.713 700.383,-329.75"/>
<polygon fill="none" stroke="#404040" points="700.382,-329.736 695.937,-324.058 699.469,-317.771 703.914,-323.449 700.382,-329.736"/>
<text text-anchor="middle" x="735.106" y="-670.5" font-family="Helvetica,sans-Serif" font-size="10.00"> +@16</text>
</g>
<!-- Node7&#45;&gt;Node2 -->
<g id="edge15" class="edge"><title>Node7&#45;&gt;Node2</title>
<path fill="none" stroke="#404040" d="M678.485,-991.709C689.053,-982.99 702.866,-970.067 711.606,-956 724.438,-935.347 723.376,-927.746 728.606,-904 782.918,-657.427 766.405,-583.918 718.606,-336 718.216,-333.975 717.802,-331.929 717.369,-329.869"/>
<polygon fill="none" stroke="#404040" points="717.326,-329.677 712.109,-324.699 714.697,-317.968 719.914,-322.946 717.326,-329.677"/>
<text text-anchor="middle" x="778.106" y="-670.5" font-family="Helvetica,sans-Serif" font-size="10.00"> +@18</text>
</g>
<!-- Node7&#45;&gt;Node3 -->
<g id="edge6" class="edge"><title>Node7&#45;&gt;Node3</title>
<path fill="none" stroke="#404040" d="M654.88,-974.941C631.554,-901.561 566.163,-706.559 516.606,-662 498.888,-646.068 485.028,-655.482 460.232,-643.839"/>
<polygon fill="none" stroke="#404040" points="460.221,-643.833 453.032,-644.399 449.744,-637.981 456.933,-637.415 460.221,-643.833"/>
<text text-anchor="middle" x="647.106" y="-800.5" font-family="Helvetica,sans-Serif" font-size="10.00"> +@14</text>
</g>
<!-- Node7&#45;&gt;Node8 -->
<g id="edge11" class="edge"><title>Node7&#45;&gt;Node8</title>
<path fill="none" stroke="#404040" d="M648.868,-998.743C591.75,-982.166 386.954,-921.961 362.606,-904 360.898,-902.74 359.215,-901.426 357.559,-900.065"/>
<polygon fill="none" stroke="#404040" points="357.283,-899.817 350.146,-898.781 348.358,-891.795 355.495,-892.831 357.283,-899.817"/>
<text text-anchor="middle" x="522.106" y="-936.5" font-family="Helvetica,sans-Serif" font-size="10.00"> +@14</text>
</g>
<!-- Node7&#45;&gt;Node10 -->
<g id="edge20" class="edge"><title>Node7&#45;&gt;Node10</title>
<path fill="none" stroke="#404040" d="M665.252,-974.747C669.78,-895.556 681.691,-676.27 675.606,-662 668.56,-645.476 657.94,-630.154 645.836,-616.393"/>
<polygon fill="none" stroke="#404040" points="645.835,-616.391 638.825,-614.699 637.691,-607.578 644.701,-609.27 645.835,-616.391"/>
<text text-anchor="middle" x="693.106" y="-800.5" font-family="Helvetica,sans-Serif" font-size="10.00"> +@14</text>
</g>
<!-- Node8&#45;&gt;Node1 -->
<g id="edge25" class="edge"><title>Node8&#45;&gt;Node1</title>
<path fill="none" stroke="#404040" d="M234.669,-706.507C233.015,-704.949 231.327,-703.444 229.606,-702 213.105,-688.154 202.662,-695.747 184.606,-684 163.267,-670.117 154.494,-667.012 143.606,-644 84.9475,-520.028 47.3021,-449.287 124.606,-336 266.085,-128.667 587.496,-75.956 744.677,-62.5606"/>
<polygon fill="none" stroke="#404040" points="745.118,-62.525 750.776,-58.0538 757.079,-61.5565 751.421,-66.0277 745.118,-62.525"/>
<text text-anchor="middle" x="158.606" y="-377.5" font-family="Helvetica,sans-Serif" font-size="10.00"> +sHeaderType</text>
</g>
<!-- Node8&#45;&gt;Node2 -->
<g id="edge22" class="edge"><title>Node8&#45;&gt;Node2</title>
<path fill="none" stroke="#404040" d="M235.104,-709.51C233.278,-706.96 231.443,-704.452 229.606,-702 208.849,-674.292 189.979,-676.335 177.606,-644 145.522,-560.151 128.203,-516.962 177.606,-442 227.976,-365.572 490.513,-294.065 620.516,-262.694"/>
<polygon fill="none" stroke="#404040" points="620.623,-262.669 625.527,-257.382 632.293,-259.875 627.389,-265.162 620.623,-262.669"/>
<text text-anchor="middle" x="226.106" y="-546" font-family="Helvetica,sans-Serif" font-size="10.00"> +sHeaderType</text>
<text text-anchor="middle" x="226.106" y="-535" font-family="Helvetica,sans-Serif" font-size="10.00">+sSerializationMethod</text>
</g>
<!-- Node8&#45;&gt;Node3 -->
<g id="edge7" class="edge"><title>Node8&#45;&gt;Node3</title>
<path fill="none" stroke="orange" d="M231.199,-700.067C224.911,-683.827 222.455,-669.812 227.606,-662 238.786,-645.045 252.876,-655.513 269.606,-644 274.288,-640.778 278.928,-637.304 283.495,-633.653"/>
<polygon fill="orange" stroke="orange" points="227.971,-701.42 235.062,-709.292 234.428,-698.716 227.971,-701.42"/>
<text text-anchor="start" x="227.606" y="-676" font-family="Helvetica,sans-Serif" font-size="10.00"> &lt; gSizeHeaderDescription</text>
<text text-anchor="middle" x="286.606" y="-665" font-family="Helvetica,sans-Serif" font-size="10.00">String &gt;</text>
</g>
<!-- Node8&#45;&gt;Node10 -->
<g id="edge21" class="edge"><title>Node8&#45;&gt;Node10</title>
<path fill="none" stroke="orange" d="M354.909,-710.095C357.442,-707.31 360.01,-704.603 362.606,-702 384.203,-680.342 392.087,-677.239 418.606,-662 435.509,-652.287 442.735,-655.321 458.606,-644 461.613,-641.855 464.6,-639.604 467.559,-637.266"/>
<polygon fill="orange" stroke="orange" points="352.26,-707.807 348.291,-717.631 357.519,-712.426 352.26,-707.807"/>
<text text-anchor="start" x="418.606" y="-676" font-family="Helvetica,sans-Serif" font-size="10.00"> &lt; gSizeSerializationMethod</text>
<text text-anchor="middle" x="480.106" y="-665" font-family="Helvetica,sans-Serif" font-size="10.00">String &gt;</text>
</g>
<!-- Node9 -->
<g id="node9" class="node"><title>Node9</title>
<polygon fill="none" stroke="#bfbfbf" points="826.106,-514.5 826.106,-571.5 877.106,-571.5 877.106,-514.5 826.106,-514.5"/>
<text text-anchor="middle" x="851.606" y="-559.5" font-family="Helvetica,sans-Serif" font-size="10.00">uint32_t</text>
<polyline fill="none" stroke="#bfbfbf" points="826.106,-552.5 877.106,-552.5 "/>
<text text-anchor="middle" x="851.606" y="-540.5" font-family="Helvetica,sans-Serif" font-size="10.00"> </text>
<polyline fill="none" stroke="#bfbfbf" points="826.106,-533.5 877.106,-533.5 "/>
<text text-anchor="middle" x="851.606" y="-521.5" font-family="Helvetica,sans-Serif" font-size="10.00"> </text>
</g>
<!-- Node9&#45;&gt;Node1 -->
<g id="edge23" class="edge"><title>Node9&#45;&gt;Node1</title>
<path fill="none" stroke="#404040" d="M856.412,-514.45C860.315,-490.604 865.504,-455.146 867.606,-424 874.652,-319.599 859.125,-198.743 847.056,-125.369"/>
<polygon fill="none" stroke="#404040" points="846.987,-124.959 842.049,-119.703 845.001,-113.124 849.939,-118.379 846.987,-124.959"/>
<text text-anchor="middle" x="892.606" y="-242.5" font-family="Helvetica,sans-Serif" font-size="10.00"> +sVersion</text>
</g>
<!-- Node9&#45;&gt;Node2 -->
<g id="edge12" class="edge"><title>Node9&#45;&gt;Node2</title>
<path fill="none" stroke="#404040" d="M834.098,-514.315C819.954,-490.97 800.367,-456.295 787.606,-424 772.751,-386.404 782.617,-372.191 764.606,-336 763.316,-333.407 761.942,-330.817 760.5,-328.24"/>
<polygon fill="none" stroke="#404040" points="760.374,-328.03 753.862,-324.934 754.215,-317.732 760.727,-320.828 760.374,-328.03"/>
<text text-anchor="middle" x="827.606" y="-416" font-family="Helvetica,sans-Serif" font-size="10.00"> +headerVersion</text>
<text text-anchor="middle" x="827.606" y="-405" font-family="Helvetica,sans-Serif" font-size="10.00">+headerSize</text>
<text text-anchor="middle" x="827.606" y="-394" font-family="Helvetica,sans-Serif" font-size="10.00">+sMagicString</text>
<text text-anchor="middle" x="827.606" y="-383" font-family="Helvetica,sans-Serif" font-size="10.00">+flagsNextHeader</text>
<text text-anchor="middle" x="827.606" y="-372" font-family="Helvetica,sans-Serif" font-size="10.00">+magicStringInt</text>
<text text-anchor="middle" x="827.606" y="-361" font-family="Helvetica,sans-Serif" font-size="10.00">+flagsUnused</text>
<text text-anchor="middle" x="827.606" y="-350" font-family="Helvetica,sans-Serif" font-size="10.00">+flags</text>
<text text-anchor="middle" x="827.606" y="-339" font-family="Helvetica,sans-Serif" font-size="10.00">+sVersion</text>
</g>
<!-- Node10&#45;&gt;Node2 -->
<g id="edge16" class="edge"><title>Node10&#45;&gt;Node2</title>
<path fill="none" stroke="#404040" d="M557.43,-442.785C562.542,-407.296 572.299,-368.158 590.606,-336 598.973,-321.304 610.655,-307.819 623.161,-296.009"/>
<polygon fill="none" stroke="#404040" points="623.459,-295.741 625.242,-288.754 632.377,-287.713 630.594,-294.7 623.459,-295.741"/>
<text text-anchor="middle" x="621.106" y="-377.5" font-family="Helvetica,sans-Serif" font-size="10.00"> +serialization</text>
</g>
<!-- Node11 -->
<g id="node11" class="node"><title>Node11</title>
<polygon fill="none" stroke="#bfbfbf" points="948.106,-216.5 948.106,-273.5 999.106,-273.5 999.106,-216.5 948.106,-216.5"/>
<text text-anchor="middle" x="973.606" y="-261.5" font-family="Helvetica,sans-Serif" font-size="10.00">uint64_t</text>
<polyline fill="none" stroke="#bfbfbf" points="948.106,-254.5 999.106,-254.5 "/>
<text text-anchor="middle" x="973.606" y="-242.5" font-family="Helvetica,sans-Serif" font-size="10.00"> </text>
<polyline fill="none" stroke="#bfbfbf" points="948.106,-235.5 999.106,-235.5 "/>
<text text-anchor="middle" x="973.606" y="-223.5" font-family="Helvetica,sans-Serif" font-size="10.00"> </text>
</g>
<!-- Node11&#45;&gt;Node1 -->
<g id="edge24" class="edge"><title>Node11&#45;&gt;Node1</title>
<path fill="none" stroke="#404040" d="M959.889,-216.184C952.699,-202.474 943.37,-185.937 933.606,-172 921.851,-155.22 908.045,-138.059 894.537,-122.315"/>
<polygon fill="none" stroke="#404040" points="894.507,-122.28 887.552,-120.375 886.636,-113.222 893.591,-115.128 894.507,-122.28"/>
<text text-anchor="middle" x="943.606" y="-146" font-family="Helvetica,sans-Serif" font-size="10.00"> +duration</text>
<text text-anchor="middle" x="943.606" y="-135" font-family="Helvetica,sans-Serif" font-size="10.00">+startTime</text>
</g>
</g>
</svg>
