<?xml version="1.0" encoding="UTF-8" standalone="no"?>
<!DOCTYPE svg PUBLIC "-//W3C//DTD SVG 1.1//EN"
 "http://www.w3.org/Graphics/SVG/1.1/DTD/svg11.dtd">
<!-- Generated by graphviz version 2.36.0 (20140111.2315)
 -->
<!-- Title: /home/travis/build/AliceO2Group/AliceO2/Framework/Core/src/DataSamplingConditionPayloadSize.cxx Pages: 1 -->
<!--zoomable 254 -->
<svg id="main" version="1.1" xmlns="http://www.w3.org/2000/svg" xmlns:xlink="http://www.w3.org/1999/xlink" xml:space="preserve" onload="init(evt)">
<style type="text/css"><![CDATA[
.edge:hover path { stroke: red; }
.edge:hover polygon { stroke: red; fill: red; }
]]></style>
<script type="text/javascript"><![CDATA[
var edges = document.getElementsByTagName('g');
if (edges && edges.length) {
  for (var i=0;i<edges.length;i++) {
    if (edges[i].id.substr(0,4)=='edge') {
      edges[i].setAttribute('class','edge');
    }
  }
}
]]></script>
        <defs>
                <circle id="rim" cx="0" cy="0" r="7"/>
                <circle id="rim2" cx="0" cy="0" r="3.5"/>
                <g id="zoomPlus">
                        <use xlink:href="#rim" fill="#404040">
                                <set attributeName="fill" to="#808080" begin="zoomplus.mouseover" end="zoomplus.mouseout"/>
                        </use>
                        <path d="M-4,0h8M0,-4v8" fill="none" stroke="white" stroke-width="1.5" pointer-events="none"/>
                </g>
                <g id="zoomMin">
                        <use xlink:href="#rim" fill="#404040">
                                <set attributeName="fill" to="#808080" begin="zoomminus.mouseover" end="zoomminus.mouseout"/>
                        </use>
                        <path d="M-4,0h8" fill="none" stroke="white" stroke-width="1.5" pointer-events="none"/>
                </g>
                <g id="dirArrow">
                        <path fill="none" stroke="white" stroke-width="1.5" d="M0,-3.0v7 M-2.5,-0.5L0,-3.0L2.5,-0.5"/>
                </g>
               <g id="resetDef">
                       <use xlink:href="#rim2" fill="#404040">
                               <set attributeName="fill" to="#808080" begin="reset.mouseover" end="reset.mouseout"/>
                       </use>
               </g>
        </defs>

<script type="text/javascript">
var viewWidth = 1508;
var viewHeight = 254;
var sectionId = 'dynsection-0';
</script>
<script xlink:href="../../svgpan.js"/>
<svg id="graph" class="graph">
<g id="viewport">
<title>/home/travis/build/AliceO2Group/AliceO2/Framework/Core/src/DataSamplingConditionPayloadSize.cxx</title>
<!-- Node1 -->
<g id="node1" class="node"><title>Node1</title>
<polygon fill="#bfbfbf" stroke="black" points="208.5,-193 208.5,-245 381.5,-245 381.5,-193 208.5,-193"/>
<text text-anchor="start" x="216.5" y="-233" font-family="Helvetica,sans-Serif" font-size="10.00">/home/travis/build</text>
<text text-anchor="start" x="216.5" y="-222" font-family="Helvetica,sans-Serif" font-size="10.00">/AliceO2Group/AliceO2</text>
<text text-anchor="start" x="216.5" y="-211" font-family="Helvetica,sans-Serif" font-size="10.00">/Framework/Core/src/DataSampling</text>
<text text-anchor="middle" x="295" y="-200" font-family="Helvetica,sans-Serif" font-size="10.00">ConditionPayloadSize.cxx</text>
</g>
<!-- Node2 -->
<g id="node2" class="node"><title>Node2</title>
<g id="a_node2"><a xlink:href="../../dd/dcf/DataSamplingCondition_8h.html" target="_top" xlink:title="A standarised data sampling condition, to decide if given data sample should be passed forward...">
<polygon fill="none" stroke="black" points="91.5,-68.5 91.5,-87.5 270.5,-87.5 270.5,-68.5 91.5,-68.5"/>
<text text-anchor="middle" x="181" y="-75.5" font-family="Helvetica,sans-Serif" font-size="10.00">Framework/DataSamplingCondition.h</text>
</a>
</g>
</g>
<!-- Node1&#45;&gt;Node2 -->
<g id="edge1" class="edge"><title>Node1&#45;&gt;Node2</title>
<path fill="none" stroke="midnightblue" d="M295.499,-192.7C294.631,-172.172 290.379,-143.533 275,-124 262.723,-108.407 243.71,-97.9151 225.987,-91.0154"/>
<polygon fill="midnightblue" stroke="midnightblue" points="226.919,-87.6312 216.324,-87.5422 224.551,-94.2186 226.919,-87.6312"/>
</g>
<!-- Node5 -->
<g id="node5" class="node"><title>Node5</title>
<g id="a_node5"><a xlink:href="../../de/dca/DataSamplingConditionFactory_8h.html" target="_top" xlink:title="A definition of DataSamplingConditionFactory. ">
<polygon fill="none" stroke="black" points="95.5,-125 95.5,-155 266.5,-155 266.5,-125 95.5,-125"/>
<text text-anchor="start" x="103.5" y="-143" font-family="Helvetica,sans-Serif" font-size="10.00">Framework/DataSamplingCondition</text>
<text text-anchor="middle" x="181" y="-132" font-family="Helvetica,sans-Serif" font-size="10.00">Factory.h</text>
</a>
</g>
</g>
<!-- Node1&#45;&gt;Node5 -->
<g id="edge4" class="edge"><title>Node1&#45;&gt;Node5</title>
<path fill="none" stroke="midnightblue" d="M257.672,-192.787C242.292,-182.399 224.735,-170.54 210.305,-160.794"/>
<polygon fill="midnightblue" stroke="midnightblue" points="212.019,-157.728 201.773,-155.031 208.1,-163.528 212.019,-157.728"/>
</g>
<!-- Node6 -->
<g id="node6" class="node"><title>Node6</title>
<g id="a_node6"><a xlink:href="../../dc/dcd/DataHeader_8h.html" target="_top" xlink:title="Headers/DataHeader.h">
<polygon fill="none" stroke="black" points="815.5,-130.5 815.5,-149.5 932.5,-149.5 932.5,-130.5 815.5,-130.5"/>
<text text-anchor="middle" x="874" y="-137.5" font-family="Helvetica,sans-Serif" font-size="10.00">Headers/DataHeader.h</text>
</a>
</g>
</g>
<!-- Node1&#45;&gt;Node6 -->
<g id="edge6" class="edge"><title>Node1&#45;&gt;Node6</title>
<path fill="none" stroke="midnightblue" d="M381.682,-206.472C497.357,-191.089 699.849,-164.16 805.482,-150.112"/>
<polygon fill="midnightblue" stroke="midnightblue" points="805.944,-153.581 815.396,-148.794 805.022,-146.643 805.944,-153.581"/>
</g>
<!-- Node3 -->
<g id="node3" class="node"><title>Node3</title>
<g id="a_node3"><a xlink:href="../../d5/dfb/DataRef_8h.html" target="_top" xlink:title="Framework/DataRef.h">
<polygon fill="none" stroke="black" points="-0.5,-6.5 -0.5,-25.5 112.5,-25.5 112.5,-6.5 -0.5,-6.5"/>
<text text-anchor="middle" x="56" y="-13.5" font-family="Helvetica,sans-Serif" font-size="10.00">Framework/DataRef.h</text>
</a>
</g>
</g>
<!-- Node2&#45;&gt;Node3 -->
<g id="edge2" class="edge"><title>Node2&#45;&gt;Node3</title>
<path fill="none" stroke="midnightblue" d="M163.091,-68.4035C142.113,-58.3341 107.15,-41.5522 82.9065,-29.9151"/>
<polygon fill="midnightblue" stroke="midnightblue" points="84.406,-26.7526 73.8762,-25.5806 81.3769,-33.0633 84.406,-26.7526"/>
</g>
<!-- Node4 -->
<g id="node4" class="node"><title>Node4</title>
<polygon fill="none" stroke="#bfbfbf" points="130.5,-1 130.5,-31 231.5,-31 231.5,-1 130.5,-1"/>
<text text-anchor="start" x="138.5" y="-19" font-family="Helvetica,sans-Serif" font-size="10.00">boost/property_tree</text>
<text text-anchor="middle" x="181" y="-8" font-family="Helvetica,sans-Serif" font-size="10.00">/ptree.hpp</text>
</g>
<!-- Node2&#45;&gt;Node4 -->
<g id="edge3" class="edge"><title>Node2&#45;&gt;Node4</title>
<path fill="none" stroke="midnightblue" d="M181,-68.4035C181,-61.3405 181,-50.975 181,-41.399"/>
<polygon fill="midnightblue" stroke="midnightblue" points="184.5,-41.1408 181,-31.1408 177.5,-41.1408 184.5,-41.1408"/>
</g>
<!-- Node5&#45;&gt;Node2 -->
<g id="edge5" class="edge"><title>Node5&#45;&gt;Node2</title>
<path fill="none" stroke="midnightblue" d="M181,-124.781C181,-116.781 181,-106.689 181,-98.0168"/>
<polygon fill="midnightblue" stroke="midnightblue" points="184.5,-97.7305 181,-87.7305 177.5,-97.7306 184.5,-97.7305"/>
</g>
<!-- Node7 -->
<g id="node7" class="node"><title>Node7</title>
<polygon fill="none" stroke="#bfbfbf" points="998,-68.5 998,-87.5 1044,-87.5 1044,-68.5 998,-68.5"/>
<text text-anchor="middle" x="1021" y="-75.5" font-family="Helvetica,sans-Serif" font-size="10.00">cstdint</text>
</g>
<!-- Node6&#45;&gt;Node7 -->
<g id="edge7" class="edge"><title>Node6&#45;&gt;Node7</title>
<path fill="none" stroke="midnightblue" d="M895.062,-130.403C920.059,-120.2 961.942,-103.105 990.487,-91.4544"/>
<polygon fill="midnightblue" stroke="midnightblue" points="992.042,-94.6001 999.978,-87.5806 989.396,-88.1192 992.042,-94.6001"/>
</g>
<!-- Node8 -->
<g id="node8" class="node"><title>Node8</title>
<polygon fill="none" stroke="#bfbfbf" points="1062,-68.5 1062,-87.5 1114,-87.5 1114,-68.5 1062,-68.5"/>
<text text-anchor="middle" x="1088" y="-75.5" font-family="Helvetica,sans-Serif" font-size="10.00">memory</text>
</g>
<!-- Node6&#45;&gt;Node8 -->
<g id="edge8" class="edge"><title>Node6&#45;&gt;Node8</title>
<path fill="none" stroke="midnightblue" d="M904.661,-130.403C943.632,-119.477 1010.79,-100.647 1052.11,-89.063"/>
<polygon fill="midnightblue" stroke="midnightblue" points="1053.09,-92.4237 1061.77,-86.3539 1051.2,-85.6836 1053.09,-92.4237"/>
</g>
<!-- Node9 -->
<g id="node9" class="node"><title>Node9</title>
<polygon fill="none" stroke="#bfbfbf" points="1132.5,-68.5 1132.5,-87.5 1181.5,-87.5 1181.5,-68.5 1132.5,-68.5"/>
<text text-anchor="middle" x="1157" y="-75.5" font-family="Helvetica,sans-Serif" font-size="10.00">cassert</text>
</g>
<!-- Node6&#45;&gt;Node9 -->
<g id="edge9" class="edge"><title>Node6&#45;&gt;Node9</title>
<path fill="none" stroke="midnightblue" d="M919.606,-130.465C967.615,-121.3 1045.6,-105.905 1122.32,-88.0535"/>
<polygon fill="midnightblue" stroke="midnightblue" points="1123.22,-91.4383 1132.16,-85.7498 1121.62,-84.6228 1123.22,-91.4383"/>
</g>
<!-- Node10 -->
<g id="node10" class="node"><title>Node10</title>
<polygon fill="none" stroke="#bfbfbf" points="250,-6.5 250,-25.5 296,-25.5 296,-6.5 250,-6.5"/>
<text text-anchor="middle" x="273" y="-13.5" font-family="Helvetica,sans-Serif" font-size="10.00">cstring</text>
</g>
<!-- Node6&#45;&gt;Node10 -->
<g id="edge10" class="edge"><title>Node6&#45;&gt;Node10</title>
<path fill="none" stroke="midnightblue" d="M815.483,-134.585C738.546,-128.05 599.482,-113.712 483,-88 402.016,-70.1238 382.274,-62.1115 305,-32 303.156,-31.2816 301.269,-30.5061 299.379,-29.6993"/>
<polygon fill="midnightblue" stroke="midnightblue" points="300.644,-26.4307 290.088,-25.5244 297.775,-32.8157 300.644,-26.4307"/>
</g>
<!-- Node11 -->
<g id="node11" class="node"><title>Node11</title>
<polygon fill="none" stroke="#bfbfbf" points="846,-68.5 846,-87.5 902,-87.5 902,-68.5 846,-68.5"/>
<text text-anchor="middle" x="874" y="-75.5" font-family="Helvetica,sans-Serif" font-size="10.00">algorithm</text>
</g>
<!-- Node6&#45;&gt;Node11 -->
<g id="edge11" class="edge"><title>Node6&#45;&gt;Node11</title>
<path fill="none" stroke="midnightblue" d="M874,-130.403C874,-121.938 874,-108.728 874,-97.8199"/>
<polygon fill="midnightblue" stroke="midnightblue" points="877.5,-97.5806 874,-87.5806 870.5,-97.5806 877.5,-97.5806"/>
</g>
<!-- Node12 -->
<g id="node12" class="node"><title>Node12</title>
<polygon fill="none" stroke="#bfbfbf" points="920.5,-68.5 920.5,-87.5 979.5,-87.5 979.5,-68.5 920.5,-68.5"/>
<text text-anchor="middle" x="950" y="-75.5" font-family="Helvetica,sans-Serif" font-size="10.00">stdexcept</text>
</g>
<!-- Node6&#45;&gt;Node12 -->
<g id="edge12" class="edge"><title>Node6&#45;&gt;Node12</title>
<path fill="none" stroke="midnightblue" d="M884.889,-130.403C896.966,-120.869 916.667,-105.315 931.24,-93.8106"/>
<polygon fill="midnightblue" stroke="midnightblue" points="933.451,-96.5242 939.131,-87.5806 929.114,-91.03 933.451,-96.5242"/>
</g>
<!-- Node13 -->
<g id="node13" class="node"><title>Node13</title>
<polygon fill="none" stroke="#bfbfbf" points="314.5,-6.5 314.5,-25.5 355.5,-25.5 355.5,-6.5 314.5,-6.5"/>
<text text-anchor="middle" x="335" y="-13.5" font-family="Helvetica,sans-Serif" font-size="10.00">string</text>
</g>
<!-- Node6&#45;&gt;Node13 -->
<g id="edge13" class="edge"><title>Node6&#45;&gt;Node13</title>
<path fill="none" stroke="midnightblue" d="M815.415,-131.745C719.309,-118.731 523.056,-87.4662 365,-32 363.146,-31.3492 361.259,-30.6093 359.38,-29.8151"/>
<polygon fill="midnightblue" stroke="midnightblue" points="360.788,-26.6096 350.246,-25.5527 357.828,-32.953 360.788,-26.6096"/>
</g>
<!-- Node14 -->
<g id="node14" class="node"><title>Node14</title>
<g id="a_node14"><a xlink:href="../../dc/d03/MemoryResources_8h.html" target="_top" xlink:title="MemoryResources/MemoryResources.h">
<polygon fill="none" stroke="black" points="634.5,-68.5 634.5,-87.5 827.5,-87.5 827.5,-68.5 634.5,-68.5"/>
<text text-anchor="middle" x="731" y="-75.5" font-family="Helvetica,sans-Serif" font-size="10.00">MemoryResources/MemoryResources.h</text>
</a>
</g>
</g>
<!-- Node6&#45;&gt;Node14 -->
<g id="edge14" class="edge"><title>Node6&#45;&gt;Node14</title>
<path fill="none" stroke="midnightblue" d="M853.512,-130.403C829.194,-120.2 788.451,-103.105 760.683,-91.4544"/>
<polygon fill="midnightblue" stroke="midnightblue" points="762.026,-88.2223 751.45,-87.5806 759.317,-94.6771 762.026,-88.2223"/>
</g>
<!-- Node14&#45;&gt;Node10 -->
<g id="edge19" class="edge"><title>Node14&#45;&gt;Node10</title>
<path fill="none" stroke="midnightblue" d="M634.123,-75.889C546.648,-72.7527 415.146,-62.6962 305,-32 302.656,-31.3468 300.271,-30.536 297.912,-29.6322"/>
<polygon fill="midnightblue" stroke="midnightblue" points="299.117,-26.3392 288.551,-25.5579 296.323,-32.7577 299.117,-26.3392"/>
</g>
<!-- Node14&#45;&gt;Node13 -->
<g id="edge20" class="edge"><title>Node14&#45;&gt;Node13</title>
<path fill="none" stroke="midnightblue" d="M634.368,-74.0776C559.488,-69.6867 453.873,-58.8108 365,-32 363.035,-31.4072 361.042,-30.6932 359.067,-29.9027"/>
<polygon fill="midnightblue" stroke="midnightblue" points="360.088,-26.5199 349.54,-25.5188 357.161,-32.8788 360.088,-26.5199"/>
</g>
<!-- Node15 -->
<g id="node15" class="node"><title>Node15</title>
<polygon fill="none" stroke="#bfbfbf" points="1266,-1 1266,-31 1366,-31 1366,-1 1266,-1"/>
<text text-anchor="start" x="1274" y="-19" font-family="Helvetica,sans-Serif" font-size="10.00">boost/container/flat</text>
<text text-anchor="middle" x="1316" y="-8" font-family="Helvetica,sans-Serif" font-size="10.00">_map.hpp</text>
</g>
<!-- Node14&#45;&gt;Node15 -->
<g id="edge15" class="edge"><title>Node14&#45;&gt;Node15</title>
<path fill="none" stroke="midnightblue" d="M827.618,-68.7665C964.385,-57.1057 1202.94,-36.7426 1255.64,-31.3561"/>
<polygon fill="midnightblue" stroke="midnightblue" points="1256.18,-34.8173 1265.71,-30.1915 1255.37,-27.8636 1256.18,-34.8173"/>
</g>
<!-- Node16 -->
<g id="node16" class="node"><title>Node16</title>
<polygon fill="none" stroke="#bfbfbf" points="1384,-1 1384,-31 1500,-31 1500,-1 1384,-1"/>
<text text-anchor="start" x="1392" y="-19" font-family="Helvetica,sans-Serif" font-size="10.00">boost/container/pmr</text>
<text text-anchor="middle" x="1442" y="-8" font-family="Helvetica,sans-Serif" font-size="10.00">/memory_resource.hpp</text>
</g>
<!-- Node14&#45;&gt;Node16 -->
<g id="edge16" class="edge"><title>Node14&#45;&gt;Node16</title>
<path fill="none" stroke="midnightblue" d="M827.757,-68.713C830.874,-68.4689 833.961,-68.2306 837,-68 1072.69,-50.1101 1136.09,-65.8364 1374,-31.9937"/>
<polygon fill="midnightblue" stroke="midnightblue" points="1374.6,-35.4444 1384,-30.5576 1373.6,-28.5155 1374.6,-35.4444"/>
</g>
<!-- Node17 -->
<g id="node17" class="node"><title>Node17</title>
<polygon fill="none" stroke="#bfbfbf" points="374,-1 374,-31 530,-31 530,-1 374,-1"/>
<text text-anchor="start" x="382" y="-19" font-family="Helvetica,sans-Serif" font-size="10.00">boost/container/pmr</text>
<text text-anchor="middle" x="452" y="-8" font-family="Helvetica,sans-Serif" font-size="10.00">/monotonic_buffer_resource.hpp</text>
</g>
<!-- Node14&#45;&gt;Node17 -->
<g id="edge17" class="edge"><title>Node14&#45;&gt;Node17</title>
<path fill="none" stroke="midnightblue" d="M691.322,-68.4672C648.781,-59.3184 580.23,-44.5763 527.375,-33.2097"/>
<polygon fill="midnightblue" stroke="midnightblue" points="527.875,-29.7373 517.363,-31.0565 526.403,-36.5808 527.875,-29.7373"/>
</g>
<!-- Node18 -->
<g id="node18" class="node"><title>Node18</title>
<polygon fill="none" stroke="#bfbfbf" points="548.5,-1 548.5,-31 681.5,-31 681.5,-1 548.5,-1"/>
<text text-anchor="start" x="556.5" y="-19" font-family="Helvetica,sans-Serif" font-size="10.00">boost/container/pmr</text>
<text text-anchor="middle" x="615" y="-8" font-family="Helvetica,sans-Serif" font-size="10.00">/polymorphic_allocator.hpp</text>
</g>
<!-- Node14&#45;&gt;Node18 -->
<g id="edge18" class="edge"><title>Node14&#45;&gt;Node18</title>
<path fill="none" stroke="midnightblue" d="M714.38,-68.4035C698.009,-59.9355 672.459,-46.7204 651.366,-35.8101"/>
<polygon fill="midnightblue" stroke="midnightblue" points="652.829,-32.6263 642.339,-31.1408 649.613,-38.8439 652.829,-32.6263"/>
</g>
<!-- Node19 -->
<g id="node19" class="node"><title>Node19</title>
<polygon fill="none" stroke="#bfbfbf" points="700,-6.5 700,-25.5 762,-25.5 762,-6.5 700,-6.5"/>
<text text-anchor="middle" x="731" y="-13.5" font-family="Helvetica,sans-Serif" font-size="10.00">type_traits</text>
</g>
<!-- Node14&#45;&gt;Node19 -->
<g id="edge21" class="edge"><title>Node14&#45;&gt;Node19</title>
<path fill="none" stroke="midnightblue" d="M731,-68.4035C731,-59.9381 731,-46.7283 731,-35.8199"/>
<polygon fill="midnightblue" stroke="midnightblue" points="734.5,-35.5806 731,-25.5806 727.5,-35.5806 734.5,-35.5806"/>
</g>
<!-- Node20 -->
<g id="node20" class="node"><title>Node20</title>
<polygon fill="none" stroke="#bfbfbf" points="780,-6.5 780,-25.5 820,-25.5 820,-6.5 780,-6.5"/>
<text text-anchor="middle" x="800" y="-13.5" font-family="Helvetica,sans-Serif" font-size="10.00">utility</text>
</g>
<!-- Node14&#45;&gt;Node20 -->
<g id="edge22" class="edge"><title>Node14&#45;&gt;Node20</title>
<path fill="none" stroke="midnightblue" d="M740.886,-68.4035C751.646,-59.047 769.071,-43.8948 782.221,-32.4599"/>
<polygon fill="midnightblue" stroke="midnightblue" points="784.883,-34.7835 790.132,-25.5806 780.29,-29.5013 784.883,-34.7835"/>
</g>
<!-- Node21 -->
<g id="node21" class="node"><title>Node21</title>
<polygon fill="none" stroke="#bfbfbf" points="838,-6.5 838,-25.5 882,-25.5 882,-6.5 838,-6.5"/>
<text text-anchor="middle" x="860" y="-13.5" font-family="Helvetica,sans-Serif" font-size="10.00">vector</text>
</g>
<!-- Node14&#45;&gt;Node21 -->
<g id="edge23" class="edge"><title>Node14&#45;&gt;Node21</title>
<path fill="none" stroke="midnightblue" d="M749.84,-68.4855C769.609,-59.5187 801.567,-44.9339 829,-32 830.352,-31.3626 831.736,-30.7066 833.132,-30.0418"/>
<polygon fill="midnightblue" stroke="midnightblue" points="834.824,-33.1117 842.325,-25.6287 831.795,-26.8012 834.824,-33.1117"/>
</g>
<!-- Node22 -->
<g id="node22" class="node"><title>Node22</title>
<polygon fill="none" stroke="#bfbfbf" points="900.5,-6.5 900.5,-25.5 983.5,-25.5 983.5,-6.5 900.5,-6.5"/>
<text text-anchor="middle" x="942" y="-13.5" font-family="Helvetica,sans-Serif" font-size="10.00">unordered_map</text>
</g>
<!-- Node14&#45;&gt;Node22 -->
<g id="edge24" class="edge"><title>Node14&#45;&gt;Node22</title>
<path fill="none" stroke="midnightblue" d="M761.494,-68.4187C793.511,-59.3974 845.313,-44.7687 890,-32 894.116,-30.8238 898.414,-29.5912 902.699,-28.3594"/>
<polygon fill="midnightblue" stroke="midnightblue" points="903.941,-31.6442 912.582,-25.5139 902.004,-24.9175 903.941,-31.6442"/>
</g>
<!-- Node23 -->
<g id="node23" class="node"><title>Node23</title>
<polygon fill="none" stroke="#bfbfbf" points="1001.5,-6.5 1001.5,-25.5 1098.5,-25.5 1098.5,-6.5 1001.5,-6.5"/>
<text text-anchor="middle" x="1050" y="-13.5" font-family="Helvetica,sans-Serif" font-size="10.00">FairMQMessage.h</text>
</g>
<!-- Node14&#45;&gt;Node23 -->
<g id="edge25" class="edge"><title>Node14&#45;&gt;Node23</title>
<path fill="none" stroke="midnightblue" d="M788.542,-68.4736C841.602,-60.2816 922.436,-46.9657 992,-32 997.465,-30.8242 1003.19,-29.4809 1008.83,-28.0923"/>
<polygon fill="midnightblue" stroke="midnightblue" points="1009.97,-31.4144 1018.81,-25.5701 1008.25,-24.6279 1009.97,-31.4144"/>
</g>
<!-- Node24 -->
<g id="node24" class="node"><title>Node24</title>
<polygon fill="none" stroke="#bfbfbf" points="1116.5,-6.5 1116.5,-25.5 1247.5,-25.5 1247.5,-6.5 1116.5,-6.5"/>
<text text-anchor="middle" x="1182" y="-13.5" font-family="Helvetica,sans-Serif" font-size="10.00">FairMQTransportFactory.h</text>
</g>
<!-- Node14&#45;&gt;Node24 -->
<g id="edge26" class="edge"><title>Node14&#45;&gt;Node24</title>
<path fill="none" stroke="midnightblue" d="M818.641,-68.4733C895.017,-60.575 1008.64,-47.6967 1107,-32 1115.29,-30.6764 1124.07,-29.0912 1132.58,-27.4544"/>
<polygon fill="midnightblue" stroke="midnightblue" points="1133.27,-30.8862 1142.4,-25.5219 1131.92,-24.0178 1133.27,-30.8862"/>
</g>
</g>
</svg>
        <g id="navigator" transform="translate(0 0)" fill="#404254">
                <rect fill="#f2f5e9" fill-opacity="0.5" stroke="#606060" stroke-width=".5" x="0" y="0" width="60" height="60"/>
                <use id="zoomplus" xlink:href="#zoomPlus" x="17" y="9" onmousedown="handleZoom(evt,'in')"/>
                <use id="zoomminus" xlink:href="#zoomMin" x="42" y="9" onmousedown="handleZoom(evt,'out')"/>
                <use id="reset" xlink:href="#resetDef" x="30" y="36" onmousedown="handleReset()"/>
                <g id="arrowUp" xlink:href="#dirArrow" transform="translate(30 24)" onmousedown="handlePan(0,-1)">
                  <use xlink:href="#rim" fill="#404040">
                        <set attributeName="fill" to="#808080" begin="arrowUp.mouseover" end="arrowUp.mouseout"/>
                  </use>
                  <path fill="none" stroke="white" stroke-width="1.5" d="M0,-3.0v7 M-2.5,-0.5L0,-3.0L2.5,-0.5"/>
                </g>
                <g id="arrowRight" xlink:href="#dirArrow" transform="rotate(90) translate(36 -43)" onmousedown="handlePan(1,0)">
                  <use xlink:href="#rim" fill="#404040">
                        <set attributeName="fill" to="#808080" begin="arrowRight.mouseover" end="arrowRight.mouseout"/>
                  </use>
                  <path fill="none" stroke="white" stroke-width="1.5" d="M0,-3.0v7 M-2.5,-0.5L0,-3.0L2.5,-0.5"/>
                </g>
                <g id="arrowDown" xlink:href="#dirArrow" transform="rotate(180) translate(-30 -48)" onmousedown="handlePan(0,1)">
                  <use xlink:href="#rim" fill="#404040">
                        <set attributeName="fill" to="#808080" begin="arrowDown.mouseover" end="arrowDown.mouseout"/>
                  </use>
                  <path fill="none" stroke="white" stroke-width="1.5" d="M0,-3.0v7 M-2.5,-0.5L0,-3.0L2.5,-0.5"/>
                </g>
                <g id="arrowLeft" xlink:href="#dirArrow" transform="rotate(270) translate(-36 17)" onmousedown="handlePan(-1,0)">
                  <use xlink:href="#rim" fill="#404040">
                        <set attributeName="fill" to="#808080" begin="arrowLeft.mouseover" end="arrowLeft.mouseout"/>
                  </use>
                  <path fill="none" stroke="white" stroke-width="1.5" d="M0,-3.0v7 M-2.5,-0.5L0,-3.0L2.5,-0.5"/>
                </g>
        </g>
        <svg viewBox="0 0 15 15" width="100%" height="30px" preserveAspectRatio="xMaxYMin meet">
         <g id="arrow_out" transform="scale(0.3 0.3)">
          <a xlink:href="DataSamplingConditionPayloadSize_8cxx__incl_org.svg" target="_base">
           <rect id="button" ry="5" rx="5" y="6" x="6" height="38" width="38"
                fill="#f2f5e9" fill-opacity="0.5" stroke="#606060" stroke-width="1.0"/>
           <path id="arrow"
             d="M 11.500037,31.436501 C 11.940474,20.09759 22.043105,11.32322 32.158766,21.979434 L 37.068811,17.246167 C 37.068811,17.246167 37.088388,32 37.088388,32 L 22.160133,31.978069 C 22.160133,31.978069 26.997745,27.140456 26.997745,27.140456 C 18.528582,18.264221 13.291696,25.230495 11.500037,31.436501 z"
             style="fill:#404040;"/>
          </a>
         </g>
        </svg>
</svg>
