<?xml version="1.0" encoding="UTF-8" standalone="no"?>
<!DOCTYPE svg PUBLIC "-//W3C//DTD SVG 1.1//EN"
 "http://www.w3.org/Graphics/SVG/1.1/DTD/svg11.dtd">
<!-- Generated by graphviz version 2.36.0 (20140111.2315)
 -->
<!-- Title: o2::conf::SimConfigData Pages: 1 -->
<svg width="462pt" height="226pt"
 viewBox="0.00 0.00 462.00 226.00" xmlns="http://www.w3.org/2000/svg" xmlns:xlink="http://www.w3.org/1999/xlink">
<g id="graph0" class="graph" transform="scale(1 1) rotate(0) translate(4 222)">
<title>o2::conf::SimConfigData</title>
<!-- Node1 -->
<g id="node1" class="node"><title>Node1</title>
<polygon fill="#bfbfbf" stroke="black" points="153.5,-0.5 153.5,-57.5 278.5,-57.5 278.5,-0.5 153.5,-0.5"/>
<text text-anchor="middle" x="216" y="-45.5" font-family="Helvetica,sans-Serif" font-size="10.00">o2::conf::SimConfigData</text>
<polyline fill="none" stroke="black" points="153.5,-38.5 278.5,-38.5 "/>
<text text-anchor="middle" x="216" y="-26.5" font-family="Helvetica,sans-Serif" font-size="10.00"> </text>
<polyline fill="none" stroke="black" points="153.5,-19.5 278.5,-19.5 "/>
<text text-anchor="start" x="161.5" y="-7.5" font-family="Helvetica,sans-Serif" font-size="10.00">+ ClassDefNV()</text>
</g>
<!-- Node2 -->
<g id="node2" class="node"><title>Node2</title>
<g id="a_node2"><a xlink:href="../../d4/dc3/classfloat.html" target="_top" xlink:title="{float\n||}">
<polygon fill="none" stroke="black" points="-0.5,-160.5 -0.5,-217.5 34.5,-217.5 34.5,-160.5 -0.5,-160.5"/>
<text text-anchor="middle" x="17" y="-205.5" font-family="Helvetica,sans-Serif" font-size="10.00">float</text>
<polyline fill="none" stroke="black" points="-0.5,-198.5 34.5,-198.5 "/>
<text text-anchor="middle" x="17" y="-186.5" font-family="Helvetica,sans-Serif" font-size="10.00"> </text>
<polyline fill="none" stroke="black" points="-0.5,-179.5 34.5,-179.5 "/>
<text text-anchor="middle" x="17" y="-167.5" font-family="Helvetica,sans-Serif" font-size="10.00"> </text>
</a>
</g>
</g>
<!-- Node2&#45;&gt;Node1 -->
<g id="edge1" class="edge"><title>Node2&#45;&gt;Node1</title>
<path fill="none" stroke="#404040" d="M19.8011,-160.183C23.8151,-134.829 33.5358,-98.0659 57,-76 79.8145,-54.5451 112.021,-43.0208 141.487,-36.8603"/>
<polygon fill="none" stroke="#404040" points="141.685,-36.8232 146.843,-31.7841 153.479,-34.6075 148.321,-39.6465 141.685,-36.8232"/>
<text text-anchor="middle" x="78.5" y="-106.5" font-family="Helvetica,sans-Serif" font-size="10.00"> +mBMax</text>
</g>
<!-- Node3 -->
<g id="node3" class="node"><title>Node3</title>
<polygon fill="none" stroke="#bfbfbf" points="52.5,-160.5 52.5,-217.5 157.5,-217.5 157.5,-160.5 52.5,-160.5"/>
<text text-anchor="middle" x="105" y="-205.5" font-family="Helvetica,sans-Serif" font-size="10.00">vector&lt; std::string &gt;</text>
<polyline fill="none" stroke="#bfbfbf" points="52.5,-198.5 157.5,-198.5 "/>
<text text-anchor="middle" x="105" y="-186.5" font-family="Helvetica,sans-Serif" font-size="10.00"> </text>
<polyline fill="none" stroke="#bfbfbf" points="52.5,-179.5 157.5,-179.5 "/>
<text text-anchor="middle" x="105" y="-167.5" font-family="Helvetica,sans-Serif" font-size="10.00"> </text>
</g>
<!-- Node3&#45;&gt;Node1 -->
<g id="edge2" class="edge"><title>Node3&#45;&gt;Node1</title>
<path fill="none" stroke="#404040" d="M103.035,-160.451C102.717,-135.978 105.92,-100.405 124,-76 129.189,-68.9959 135.744,-62.9904 142.955,-57.8573"/>
<polygon fill="none" stroke="#404040" points="143.003,-57.8266 145.919,-51.2314 153.129,-51.3866 150.213,-57.9818 143.003,-57.8266"/>
<text text-anchor="middle" x="168" y="-106.5" font-family="Helvetica,sans-Serif" font-size="10.00"> +mActiveDetectors</text>
</g>
<!-- Node4 -->
<g id="node4" class="node"><title>Node4</title>
<polygon fill="none" stroke="#bfbfbf" points="201.5,-160.5 201.5,-217.5 230.5,-217.5 230.5,-160.5 201.5,-160.5"/>
<text text-anchor="middle" x="216" y="-205.5" font-family="Helvetica,sans-Serif" font-size="10.00">int</text>
<polyline fill="none" stroke="#bfbfbf" points="201.5,-198.5 230.5,-198.5 "/>
<text text-anchor="middle" x="216" y="-186.5" font-family="Helvetica,sans-Serif" font-size="10.00"> </text>
<polyline fill="none" stroke="#bfbfbf" points="201.5,-179.5 230.5,-179.5 "/>
<text text-anchor="middle" x="216" y="-167.5" font-family="Helvetica,sans-Serif" font-size="10.00"> </text>
</g>
<!-- Node4&#45;&gt;Node1 -->
<g id="edge3" class="edge"><title>Node4&#45;&gt;Node1</title>
<path fill="none" stroke="#404040" d="M216,-160.479C216,-135.484 216,-98.3112 216,-70.0293"/>
<polygon fill="none" stroke="#404040" points="216,-69.7362 212,-63.7363 216,-57.7362 220,-63.7362 216,-69.7362"/>
<text text-anchor="middle" x="259" y="-134" font-family="Helvetica,sans-Serif" font-size="10.00"> +mOutputPrefix</text>
<text text-anchor="middle" x="259" y="-123" font-family="Helvetica,sans-Serif" font-size="10.00">+mMCEngine</text>
<text text-anchor="middle" x="259" y="-112" font-family="Helvetica,sans-Serif" font-size="10.00">+mLogSeverity</text>
<text text-anchor="middle" x="259" y="-101" font-family="Helvetica,sans-Serif" font-size="10.00">+mGenerator</text>
<text text-anchor="middle" x="259" y="-90" font-family="Helvetica,sans-Serif" font-size="10.00">+mLogVerbosity</text>
<text text-anchor="middle" x="259" y="-79" font-family="Helvetica,sans-Serif" font-size="10.00">+mExtKinFileName</text>
</g>
<!-- Node5 -->
<g id="node5" class="node"><title>Node5</title>
<polygon fill="none" stroke="#bfbfbf" points="307.5,-160.5 307.5,-217.5 342.5,-217.5 342.5,-160.5 307.5,-160.5"/>
<text text-anchor="middle" x="325" y="-205.5" font-family="Helvetica,sans-Serif" font-size="10.00">bool</text>
<polyline fill="none" stroke="#bfbfbf" points="307.5,-198.5 342.5,-198.5 "/>
<text text-anchor="middle" x="325" y="-186.5" font-family="Helvetica,sans-Serif" font-size="10.00"> </text>
<polyline fill="none" stroke="#bfbfbf" points="307.5,-179.5 342.5,-179.5 "/>
<text text-anchor="middle" x="325" y="-167.5" font-family="Helvetica,sans-Serif" font-size="10.00"> </text>
</g>
<!-- Node5&#45;&gt;Node1 -->
<g id="edge4" class="edge"><title>Node5&#45;&gt;Node1</title>
<path fill="none" stroke="#404040" d="M325.976,-160.492C325.468,-136.047 321.205,-100.492 303,-76 298.987,-70.6007 294.15,-65.7741 288.838,-61.4718"/>
<polygon fill="none" stroke="#404040" points="288.581,-61.2876 281.375,-61.0334 278.838,-54.2833 286.044,-54.5375 288.581,-61.2876"/>
<text text-anchor="middle" x="345" y="-106.5" font-family="Helvetica,sans-Serif" font-size="10.00"> +mIsMT</text>
</g>
<!-- Node6 -->
<g id="node6" class="node"><title>Node6</title>
<polygon fill="none" stroke="#bfbfbf" points="361,-160.5 361,-217.5 417,-217.5 417,-160.5 361,-160.5"/>
<text text-anchor="middle" x="389" y="-205.5" font-family="Helvetica,sans-Serif" font-size="10.00">unsigned</text>
<polyline fill="none" stroke="#bfbfbf" points="361,-198.5 417,-198.5 "/>
<text text-anchor="middle" x="389" y="-186.5" font-family="Helvetica,sans-Serif" font-size="10.00"> </text>
<polyline fill="none" stroke="#bfbfbf" points="361,-179.5 417,-179.5 "/>
<text text-anchor="middle" x="389" y="-167.5" font-family="Helvetica,sans-Serif" font-size="10.00"> </text>
</g>
<!-- Node6&#45;&gt;Node1 -->
<g id="edge5" class="edge"><title>Node6&#45;&gt;Node1</title>
<path fill="none" stroke="#404040" d="M391.042,-160.1C391.309,-135.045 387.586,-98.795 367,-76 347.56,-54.4743 318.385,-42.8848 290.847,-36.6949"/>
<polygon fill="none" stroke="#404040" points="290.534,-36.6327 283.868,-39.3827 278.765,-34.287 285.432,-31.537 290.534,-36.6327"/>
<text text-anchor="middle" x="422" y="-112" font-family="Helvetica,sans-Serif" font-size="10.00"> +mStartEvent</text>
<text text-anchor="middle" x="422" y="-101" font-family="Helvetica,sans-Serif" font-size="10.00">+mNEvents</text>
</g>
</g>
</svg>
