<?xml version="1.0" encoding="UTF-8" standalone="no"?>
<!DOCTYPE svg PUBLIC "-//W3C//DTD SVG 1.1//EN"
 "http://www.w3.org/Graphics/SVG/1.1/DTD/svg11.dtd">
<!-- Generated by graphviz version 2.36.0 (20140111.2315)
 -->
<!-- Title: /home/travis/build/AliceO2Group/AliceO2/Framework/Core/src/DataProcessingHeader.cxx Pages: 1 -->
<svg width="1256pt" height="310pt"
 viewBox="0.00 0.00 1256.00 310.00" xmlns="http://www.w3.org/2000/svg" xmlns:xlink="http://www.w3.org/1999/xlink">
<g id="graph0" class="graph" transform="scale(1 1) rotate(0) translate(4 306)">
<title>/home/travis/build/AliceO2Group/AliceO2/Framework/Core/src/DataProcessingHeader.cxx</title>
<!-- Node1 -->
<g id="node1" class="node"><title>Node1</title>
<polygon fill="#bfbfbf" stroke="black" points="108,-249 108,-301 290,-301 290,-249 108,-249"/>
<text text-anchor="start" x="116" y="-289" font-family="Helvetica,sans-Serif" font-size="10.00">/home/travis/build</text>
<text text-anchor="start" x="116" y="-278" font-family="Helvetica,sans-Serif" font-size="10.00">/AliceO2Group/AliceO2</text>
<text text-anchor="start" x="116" y="-267" font-family="Helvetica,sans-Serif" font-size="10.00">/Framework/Core/src/DataProcessing</text>
<text text-anchor="middle" x="199" y="-256" font-family="Helvetica,sans-Serif" font-size="10.00">Header.cxx</text>
</g>
<!-- Node2 -->
<g id="node2" class="node"><title>Node2</title>
<g id="a_node2"><a xlink:href="../../d6/dc9/DataProcessingHeader_8h.html" target="_top" xlink:title="Framework/DataProcessing\lHeader.h">
<polygon fill="none" stroke="black" points="75,-181 75,-211 213,-211 213,-181 75,-181"/>
<text text-anchor="start" x="83" y="-199" font-family="Helvetica,sans-Serif" font-size="10.00">Framework/DataProcessing</text>
<text text-anchor="middle" x="144" y="-188" font-family="Helvetica,sans-Serif" font-size="10.00">Header.h</text>
</a>
</g>
</g>
<!-- Node1&#45;&gt;Node2 -->
<g id="edge1" class="edge"><title>Node1&#45;&gt;Node2</title>
<path fill="none" stroke="midnightblue" d="M180.991,-248.787C174.248,-239.348 166.638,-228.694 160.081,-219.514"/>
<polygon fill="midnightblue" stroke="midnightblue" points="162.841,-217.355 154.18,-211.252 157.144,-221.424 162.841,-217.355"/>
</g>
<!-- Node3 -->
<g id="node3" class="node"><title>Node3</title>
<g id="a_node3"><a xlink:href="../../dc/dcd/DataHeader_8h.html" target="_top" xlink:title="Headers/DataHeader.h">
<polygon fill="none" stroke="black" points="203.5,-124.5 203.5,-143.5 320.5,-143.5 320.5,-124.5 203.5,-124.5"/>
<text text-anchor="middle" x="262" y="-131.5" font-family="Helvetica,sans-Serif" font-size="10.00">Headers/DataHeader.h</text>
</a>
</g>
</g>
<!-- Node1&#45;&gt;Node3 -->
<g id="edge27" class="edge"><title>Node1&#45;&gt;Node3</title>
<path fill="none" stroke="midnightblue" d="M210.409,-248.828C223.006,-221.035 242.959,-177.011 253.996,-152.659"/>
<polygon fill="midnightblue" stroke="midnightblue" points="257.193,-154.085 258.133,-143.532 250.817,-151.196 257.193,-154.085"/>
</g>
<!-- Node2&#45;&gt;Node3 -->
<g id="edge2" class="edge"><title>Node2&#45;&gt;Node3</title>
<path fill="none" stroke="midnightblue" d="M171.666,-180.933C191.129,-171.036 217.002,-157.88 236.069,-148.185"/>
<polygon fill="midnightblue" stroke="midnightblue" points="237.759,-151.252 245.087,-143.6 234.586,-145.013 237.759,-151.252"/>
</g>
<!-- Node4 -->
<g id="node4" class="node"><title>Node4</title>
<polygon fill="none" stroke="#bfbfbf" points="85,-68.5 85,-87.5 131,-87.5 131,-68.5 85,-68.5"/>
<text text-anchor="middle" x="108" y="-75.5" font-family="Helvetica,sans-Serif" font-size="10.00">cstdint</text>
</g>
<!-- Node2&#45;&gt;Node4 -->
<g id="edge23" class="edge"><title>Node2&#45;&gt;Node4</title>
<path fill="none" stroke="midnightblue" d="M139.586,-180.776C133.07,-159.781 120.876,-120.488 113.694,-97.3487"/>
<polygon fill="midnightblue" stroke="midnightblue" points="117.009,-96.2202 110.702,-87.707 110.324,-98.2951 117.009,-96.2202"/>
</g>
<!-- Node5 -->
<g id="node5" class="node"><title>Node5</title>
<polygon fill="none" stroke="#bfbfbf" points="149,-68.5 149,-87.5 201,-87.5 201,-68.5 149,-68.5"/>
<text text-anchor="middle" x="175" y="-75.5" font-family="Helvetica,sans-Serif" font-size="10.00">memory</text>
</g>
<!-- Node2&#45;&gt;Node5 -->
<g id="edge25" class="edge"><title>Node2&#45;&gt;Node5</title>
<path fill="none" stroke="midnightblue" d="M147.801,-180.776C153.387,-159.876 163.818,-120.844 170.012,-97.6638"/>
<polygon fill="midnightblue" stroke="midnightblue" points="173.473,-98.2716 172.673,-87.707 166.71,-96.4643 173.473,-98.2716"/>
</g>
<!-- Node6 -->
<g id="node6" class="node"><title>Node6</title>
<polygon fill="none" stroke="#bfbfbf" points="15.5,-68.5 15.5,-87.5 64.5,-87.5 64.5,-68.5 15.5,-68.5"/>
<text text-anchor="middle" x="40" y="-75.5" font-family="Helvetica,sans-Serif" font-size="10.00">cassert</text>
</g>
<!-- Node2&#45;&gt;Node6 -->
<g id="edge26" class="edge"><title>Node2&#45;&gt;Node6</title>
<path fill="none" stroke="midnightblue" d="M105.305,-180.84C87.8416,-172.602 68.3952,-160.529 56,-144 46.086,-130.78 42.249,-112.193 40.7968,-98.2798"/>
<polygon fill="midnightblue" stroke="midnightblue" points="44.2599,-97.6374 40.0568,-87.912 37.2777,-98.1358 44.2599,-97.6374"/>
</g>
<!-- Node22 -->
<g id="node22" class="node"><title>Node22</title>
<polygon fill="none" stroke="#bfbfbf" points="65.5,-124.5 65.5,-143.5 108.5,-143.5 108.5,-124.5 65.5,-124.5"/>
<text text-anchor="middle" x="87" y="-131.5" font-family="Helvetica,sans-Serif" font-size="10.00">cstdio</text>
</g>
<!-- Node2&#45;&gt;Node22 -->
<g id="edge24" class="edge"><title>Node2&#45;&gt;Node22</title>
<path fill="none" stroke="midnightblue" d="M130.492,-180.781C122.038,-171.882 111.125,-160.394 102.345,-151.152"/>
<polygon fill="midnightblue" stroke="midnightblue" points="104.719,-148.57 95.294,-143.731 99.644,-153.391 104.719,-148.57"/>
</g>
<!-- Node3&#45;&gt;Node4 -->
<g id="edge3" class="edge"><title>Node3&#45;&gt;Node4</title>
<path fill="none" stroke="midnightblue" d="M237.598,-124.444C211.5,-115.292 169.959,-100.726 140.966,-90.5594"/>
<polygon fill="midnightblue" stroke="midnightblue" points="141.874,-87.1691 131.28,-87.1629 139.558,-93.7748 141.874,-87.1691"/>
</g>
<!-- Node3&#45;&gt;Node5 -->
<g id="edge4" class="edge"><title>Node3&#45;&gt;Node5</title>
<path fill="none" stroke="midnightblue" d="M248.022,-124.324C234.45,-115.9 213.62,-102.971 197.675,-93.0741"/>
<polygon fill="midnightblue" stroke="midnightblue" points="199.286,-89.9544 188.943,-87.6545 195.594,-95.9019 199.286,-89.9544"/>
</g>
<!-- Node3&#45;&gt;Node6 -->
<g id="edge5" class="edge"><title>Node3&#45;&gt;Node6</title>
<path fill="none" stroke="midnightblue" d="M226.323,-124.454C188.865,-115.461 128.264,-100.855 76,-88 75.5464,-87.8884 75.0897,-87.776 74.6303,-87.6628"/>
<polygon fill="midnightblue" stroke="midnightblue" points="75.3304,-84.2304 64.782,-85.2218 73.6463,-91.0248 75.3304,-84.2304"/>
</g>
<!-- Node7 -->
<g id="node7" class="node"><title>Node7</title>
<polygon fill="none" stroke="#bfbfbf" points="1202,-6.5 1202,-25.5 1248,-25.5 1248,-6.5 1202,-6.5"/>
<text text-anchor="middle" x="1225" y="-13.5" font-family="Helvetica,sans-Serif" font-size="10.00">cstring</text>
</g>
<!-- Node3&#45;&gt;Node7 -->
<g id="edge6" class="edge"><title>Node3&#45;&gt;Node7</title>
<path fill="none" stroke="midnightblue" d="M320.732,-133.275C469.603,-132.557 872.658,-121.762 1193,-32 1195.34,-31.3435 1197.73,-30.5304 1200.09,-29.6251"/>
<polygon fill="midnightblue" stroke="midnightblue" points="1201.68,-32.7501 1209.45,-25.5485 1198.88,-26.3323 1201.68,-32.7501"/>
</g>
<!-- Node8 -->
<g id="node8" class="node"><title>Node8</title>
<polygon fill="none" stroke="#bfbfbf" points="219,-68.5 219,-87.5 275,-87.5 275,-68.5 219,-68.5"/>
<text text-anchor="middle" x="247" y="-75.5" font-family="Helvetica,sans-Serif" font-size="10.00">algorithm</text>
</g>
<!-- Node3&#45;&gt;Node8 -->
<g id="edge7" class="edge"><title>Node3&#45;&gt;Node8</title>
<path fill="none" stroke="midnightblue" d="M259.523,-124.083C257.514,-116.849 254.614,-106.409 252.11,-97.3968"/>
<polygon fill="midnightblue" stroke="midnightblue" points="255.48,-96.4495 249.431,-87.7511 248.735,-98.323 255.48,-96.4495"/>
</g>
<!-- Node9 -->
<g id="node9" class="node"><title>Node9</title>
<polygon fill="none" stroke="#bfbfbf" points="293.5,-68.5 293.5,-87.5 352.5,-87.5 352.5,-68.5 293.5,-68.5"/>
<text text-anchor="middle" x="323" y="-75.5" font-family="Helvetica,sans-Serif" font-size="10.00">stdexcept</text>
</g>
<!-- Node3&#45;&gt;Node9 -->
<g id="edge8" class="edge"><title>Node3&#45;&gt;Node9</title>
<path fill="none" stroke="midnightblue" d="M271.801,-124.324C280.818,-116.341 294.406,-104.313 305.318,-94.6529"/>
<polygon fill="midnightblue" stroke="midnightblue" points="307.853,-97.083 313.021,-87.8339 303.213,-91.8416 307.853,-97.083"/>
</g>
<!-- Node10 -->
<g id="node10" class="node"><title>Node10</title>
<polygon fill="none" stroke="#bfbfbf" points="-0.5,-6.5 -0.5,-25.5 40.5,-25.5 40.5,-6.5 -0.5,-6.5"/>
<text text-anchor="middle" x="20" y="-13.5" font-family="Helvetica,sans-Serif" font-size="10.00">string</text>
</g>
<!-- Node3&#45;&gt;Node10 -->
<g id="edge9" class="edge"><title>Node3&#45;&gt;Node10</title>
<path fill="none" stroke="midnightblue" d="M296.87,-124.475C333.868,-113.84 384.051,-93.8639 361,-68 314.563,-15.8969 115.756,-52.3659 49,-32 47.0889,-31.417 45.1542,-30.7101 43.2387,-29.9245"/>
<polygon fill="midnightblue" stroke="midnightblue" points="44.5539,-26.6746 34.0189,-25.5501 41.5533,-32.9989 44.5539,-26.6746"/>
</g>
<!-- Node11 -->
<g id="node11" class="node"><title>Node11</title>
<g id="a_node11"><a xlink:href="../../dc/d03/MemoryResources_8h.html" target="_top" xlink:title="MemoryResources/MemoryResources.h">
<polygon fill="none" stroke="black" points="409.5,-68.5 409.5,-87.5 602.5,-87.5 602.5,-68.5 409.5,-68.5"/>
<text text-anchor="middle" x="506" y="-75.5" font-family="Helvetica,sans-Serif" font-size="10.00">MemoryResources/MemoryResources.h</text>
</a>
</g>
</g>
<!-- Node3&#45;&gt;Node11 -->
<g id="edge10" class="edge"><title>Node3&#45;&gt;Node11</title>
<path fill="none" stroke="midnightblue" d="M300.663,-124.444C343.138,-115.043 411.431,-99.9291 457.474,-89.7393"/>
<polygon fill="midnightblue" stroke="midnightblue" points="458.511,-93.0946 467.518,-87.5164 456.998,-86.26 458.511,-93.0946"/>
</g>
<!-- Node11&#45;&gt;Node7 -->
<g id="edge15" class="edge"><title>Node11&#45;&gt;Node7</title>
<path fill="none" stroke="midnightblue" d="M602.635,-75.0885C764.691,-71.1442 1084.19,-60.0008 1193,-32 1195.5,-31.3578 1198.03,-30.5225 1200.53,-29.5749"/>
<polygon fill="midnightblue" stroke="midnightblue" points="1202.04,-32.7363 1209.81,-25.5337 1199.24,-26.3188 1202.04,-32.7363"/>
</g>
<!-- Node11&#45;&gt;Node10 -->
<g id="edge16" class="edge"><title>Node11&#45;&gt;Node10</title>
<path fill="none" stroke="midnightblue" d="M410.128,-68.4882C281.21,-56.9068 66.0451,-37.0447 49,-32 47.0841,-31.433 45.1459,-30.7377 43.228,-29.9602"/>
<polygon fill="midnightblue" stroke="midnightblue" points="44.5403,-26.7093 34.0035,-25.6014 41.5496,-33.0383 44.5403,-26.7093"/>
</g>
<!-- Node12 -->
<g id="node12" class="node"><title>Node12</title>
<polygon fill="none" stroke="#bfbfbf" points="776,-1 776,-31 876,-31 876,-1 776,-1"/>
<text text-anchor="start" x="784" y="-19" font-family="Helvetica,sans-Serif" font-size="10.00">boost/container/flat</text>
<text text-anchor="middle" x="826" y="-8" font-family="Helvetica,sans-Serif" font-size="10.00">_map.hpp</text>
</g>
<!-- Node11&#45;&gt;Node12 -->
<g id="edge11" class="edge"><title>Node11&#45;&gt;Node12</title>
<path fill="none" stroke="midnightblue" d="M562.271,-68.4864C615.087,-60.206 696.191,-46.7463 766,-32 766.102,-31.9785 766.204,-31.957 766.306,-31.9354"/>
<polygon fill="midnightblue" stroke="midnightblue" points="766.964,-35.3743 775.974,-29.7992 765.454,-28.5392 766.964,-35.3743"/>
</g>
<!-- Node13 -->
<g id="node13" class="node"><title>Node13</title>
<polygon fill="none" stroke="#bfbfbf" points="894,-1 894,-31 1010,-31 1010,-1 894,-1"/>
<text text-anchor="start" x="902" y="-19" font-family="Helvetica,sans-Serif" font-size="10.00">boost/container/pmr</text>
<text text-anchor="middle" x="952" y="-8" font-family="Helvetica,sans-Serif" font-size="10.00">/memory_resource.hpp</text>
</g>
<!-- Node11&#45;&gt;Node13 -->
<g id="edge12" class="edge"><title>Node11&#45;&gt;Node13</title>
<path fill="none" stroke="midnightblue" d="M600.615,-68.4716C675.116,-61.1276 781.748,-49.2315 884.079,-32.052"/>
<polygon fill="midnightblue" stroke="midnightblue" points="884.694,-35.4977 893.967,-30.3729 883.522,-28.5965 884.694,-35.4977"/>
</g>
<!-- Node14 -->
<g id="node14" class="node"><title>Node14</title>
<polygon fill="none" stroke="#bfbfbf" points="1028,-1 1028,-31 1184,-31 1184,-1 1028,-1"/>
<text text-anchor="start" x="1036" y="-19" font-family="Helvetica,sans-Serif" font-size="10.00">boost/container/pmr</text>
<text text-anchor="middle" x="1106" y="-8" font-family="Helvetica,sans-Serif" font-size="10.00">/monotonic_buffer_resource.hpp</text>
</g>
<!-- Node11&#45;&gt;Node14 -->
<g id="edge13" class="edge"><title>Node11&#45;&gt;Node14</title>
<path fill="none" stroke="midnightblue" d="M602.504,-70.8636C703.406,-63.9119 866.553,-51.1649 1017.89,-31.9373"/>
<polygon fill="midnightblue" stroke="midnightblue" points="1018.37,-35.4049 1027.84,-30.6615 1017.48,-28.4618 1018.37,-35.4049"/>
</g>
<!-- Node15 -->
<g id="node15" class="node"><title>Node15</title>
<polygon fill="none" stroke="#bfbfbf" points="58.5,-1 58.5,-31 191.5,-31 191.5,-1 58.5,-1"/>
<text text-anchor="start" x="66.5" y="-19" font-family="Helvetica,sans-Serif" font-size="10.00">boost/container/pmr</text>
<text text-anchor="middle" x="125" y="-8" font-family="Helvetica,sans-Serif" font-size="10.00">/polymorphic_allocator.hpp</text>
</g>
<!-- Node11&#45;&gt;Node15 -->
<g id="edge14" class="edge"><title>Node11&#45;&gt;Node15</title>
<path fill="none" stroke="midnightblue" d="M442.183,-68.4998C382.61,-60.3567 290.991,-47.3038 201.722,-32.0746"/>
<polygon fill="midnightblue" stroke="midnightblue" points="202.142,-28.5957 191.694,-30.3529 200.958,-35.4947 202.142,-28.5957"/>
</g>
<!-- Node16 -->
<g id="node16" class="node"><title>Node16</title>
<polygon fill="none" stroke="#bfbfbf" points="210,-6.5 210,-25.5 272,-25.5 272,-6.5 210,-6.5"/>
<text text-anchor="middle" x="241" y="-13.5" font-family="Helvetica,sans-Serif" font-size="10.00">type_traits</text>
</g>
<!-- Node11&#45;&gt;Node16 -->
<g id="edge17" class="edge"><title>Node11&#45;&gt;Node16</title>
<path fill="none" stroke="midnightblue" d="M450.387,-68.4497C404.484,-60.7805 337.884,-48.2392 281,-32 277.862,-31.1042 274.621,-30.0732 271.405,-28.9799"/>
<polygon fill="midnightblue" stroke="midnightblue" points="272.556,-25.6743 261.961,-25.5864 270.189,-32.2619 272.556,-25.6743"/>
</g>
<!-- Node17 -->
<g id="node17" class="node"><title>Node17</title>
<polygon fill="none" stroke="#bfbfbf" points="290,-6.5 290,-25.5 330,-25.5 330,-6.5 290,-6.5"/>
<text text-anchor="middle" x="310" y="-13.5" font-family="Helvetica,sans-Serif" font-size="10.00">utility</text>
</g>
<!-- Node11&#45;&gt;Node17 -->
<g id="edge18" class="edge"><title>Node11&#45;&gt;Node17</title>
<path fill="none" stroke="midnightblue" d="M464.724,-68.4727C430.439,-60.7784 380.708,-48.1904 339,-32 337.402,-31.3795 335.776,-30.6962 334.152,-29.9736"/>
<polygon fill="midnightblue" stroke="midnightblue" points="335.593,-26.7826 325.068,-25.569 332.539,-33.0813 335.593,-26.7826"/>
</g>
<!-- Node18 -->
<g id="node18" class="node"><title>Node18</title>
<polygon fill="none" stroke="#bfbfbf" points="348,-6.5 348,-25.5 392,-25.5 392,-6.5 348,-6.5"/>
<text text-anchor="middle" x="370" y="-13.5" font-family="Helvetica,sans-Serif" font-size="10.00">vector</text>
</g>
<!-- Node11&#45;&gt;Node18 -->
<g id="edge19" class="edge"><title>Node11&#45;&gt;Node18</title>
<path fill="none" stroke="midnightblue" d="M485.594,-68.3842C464.567,-59.4561 430.878,-45.0123 402,-32 400.423,-31.2895 398.806,-30.5536 397.176,-29.8065"/>
<polygon fill="midnightblue" stroke="midnightblue" points="398.441,-26.5354 387.896,-25.5043 395.496,-32.886 398.441,-26.5354"/>
</g>
<!-- Node19 -->
<g id="node19" class="node"><title>Node19</title>
<polygon fill="none" stroke="#bfbfbf" points="410.5,-6.5 410.5,-25.5 493.5,-25.5 493.5,-6.5 410.5,-6.5"/>
<text text-anchor="middle" x="452" y="-13.5" font-family="Helvetica,sans-Serif" font-size="10.00">unordered_map</text>
</g>
<!-- Node11&#45;&gt;Node19 -->
<g id="edge20" class="edge"><title>Node11&#45;&gt;Node19</title>
<path fill="none" stroke="midnightblue" d="M498.263,-68.4035C490.003,-59.2252 476.723,-44.4699 466.506,-33.1173"/>
<polygon fill="midnightblue" stroke="midnightblue" points="469.014,-30.6722 459.723,-25.5806 463.811,-35.3549 469.014,-30.6722"/>
</g>
<!-- Node20 -->
<g id="node20" class="node"><title>Node20</title>
<polygon fill="none" stroke="#bfbfbf" points="511.5,-6.5 511.5,-25.5 608.5,-25.5 608.5,-6.5 511.5,-6.5"/>
<text text-anchor="middle" x="560" y="-13.5" font-family="Helvetica,sans-Serif" font-size="10.00">FairMQMessage.h</text>
</g>
<!-- Node11&#45;&gt;Node20 -->
<g id="edge21" class="edge"><title>Node11&#45;&gt;Node20</title>
<path fill="none" stroke="midnightblue" d="M513.737,-68.4035C521.997,-59.2252 535.277,-44.4699 545.494,-33.1173"/>
<polygon fill="midnightblue" stroke="midnightblue" points="548.189,-35.3549 552.277,-25.5806 542.986,-30.6722 548.189,-35.3549"/>
</g>
<!-- Node21 -->
<g id="node21" class="node"><title>Node21</title>
<polygon fill="none" stroke="#bfbfbf" points="626.5,-6.5 626.5,-25.5 757.5,-25.5 757.5,-6.5 626.5,-6.5"/>
<text text-anchor="middle" x="692" y="-13.5" font-family="Helvetica,sans-Serif" font-size="10.00">FairMQTransportFactory.h</text>
</g>
<!-- Node11&#45;&gt;Node21 -->
<g id="edge22" class="edge"><title>Node11&#45;&gt;Node21</title>
<path fill="none" stroke="midnightblue" d="M532.649,-68.4035C564.969,-57.9777 619.597,-40.3557 655.733,-28.6992"/>
<polygon fill="midnightblue" stroke="midnightblue" points="656.958,-31.9817 665.4,-25.5806 654.809,-25.3197 656.958,-31.9817"/>
</g>
</g>
</svg>
