<?xml version="1.0" encoding="UTF-8" standalone="no"?>
<!DOCTYPE svg PUBLIC "-//W3C//DTD SVG 1.1//EN"
 "http://www.w3.org/Graphics/SVG/1.1/DTD/svg11.dtd">
<!-- Generated by graphviz version 2.36.0 (20140111.2315)
 -->
<!-- Title: o2::ITSMFT::ITSMFTDPLDigitWriter Pages: 1 -->
<svg width="699pt" height="608pt"
 viewBox="0.00 0.00 699.00 608.00" xmlns="http://www.w3.org/2000/svg" xmlns:xlink="http://www.w3.org/1999/xlink">
<g id="graph0" class="graph" transform="scale(1 1) rotate(0) translate(4 604)">
<title>o2::ITSMFT::ITSMFTDPLDigitWriter</title>
<!-- Node1 -->
<g id="node1" class="node"><title>Node1</title>
<polygon fill="#bfbfbf" stroke="black" points="350.5,-0.5 350.5,-101.5 501.5,-101.5 501.5,-0.5 350.5,-0.5"/>
<text text-anchor="start" x="358.5" y="-89.5" font-family="Helvetica,sans-Serif" font-size="10.00">o2::ITSMFT::ITSMFTDPLDigit</text>
<text text-anchor="middle" x="426" y="-78.5" font-family="Helvetica,sans-Serif" font-size="10.00">Writer</text>
<polyline fill="none" stroke="black" points="350.5,-71.5 501.5,-71.5 "/>
<text text-anchor="middle" x="426" y="-59.5" font-family="Helvetica,sans-Serif" font-size="10.00"> </text>
<polyline fill="none" stroke="black" points="350.5,-52.5 501.5,-52.5 "/>
<text text-anchor="start" x="358.5" y="-40.5" font-family="Helvetica,sans-Serif" font-size="10.00">+ init()</text>
<text text-anchor="start" x="358.5" y="-29.5" font-family="Helvetica,sans-Serif" font-size="10.00">+ run()</text>
<text text-anchor="start" x="358.5" y="-18.5" font-family="Helvetica,sans-Serif" font-size="10.00"># ITSMFTDPLDigitWriter()</text>
<text text-anchor="start" x="358.5" y="-7.5" font-family="Helvetica,sans-Serif" font-size="10.00"># getOrMakeBranch()</text>
</g>
<!-- Node2 -->
<g id="node2" class="node"><title>Node2</title>
<polygon fill="none" stroke="#bfbfbf" points="0,-233 0,-301 142,-301 142,-233 0,-233"/>
<text text-anchor="start" x="8" y="-289" font-family="Helvetica,sans-Serif" font-size="10.00">Descriptor&lt; gSizeDataOrigin</text>
<text text-anchor="middle" x="71" y="-278" font-family="Helvetica,sans-Serif" font-size="10.00">String, printDataOrigin &gt;</text>
<polyline fill="none" stroke="#bfbfbf" points="0,-271 142,-271 "/>
<text text-anchor="middle" x="71" y="-259" font-family="Helvetica,sans-Serif" font-size="10.00"> </text>
<polyline fill="none" stroke="#bfbfbf" points="0,-252 142,-252 "/>
<text text-anchor="middle" x="71" y="-240" font-family="Helvetica,sans-Serif" font-size="10.00"> </text>
</g>
<!-- Node2&#45;&gt;Node1 -->
<g id="edge1" class="edge"><title>Node2&#45;&gt;Node1</title>
<path fill="none" stroke="#404040" d="M86.5053,-232.992C100.179,-207.134 122.377,-171.972 151,-150 206.103,-107.701 281.028,-82.6042 338.756,-68.4143"/>
<polygon fill="none" stroke="#404040" points="338.756,-68.4143 343.667,-63.1333 350.43,-65.6348 345.52,-70.9158 338.756,-68.4143"/>
<text text-anchor="middle" x="219.5" y="-123.5" font-family="Helvetica,sans-Serif" font-size="10.00"> #mOrigin</text>
</g>
<!-- Node3 -->
<g id="node3" class="node"><title>Node3</title>
<polygon fill="none" stroke="#bfbfbf" points="160.5,-238.5 160.5,-295.5 261.5,-295.5 261.5,-238.5 160.5,-238.5"/>
<text text-anchor="middle" x="211" y="-283.5" font-family="Helvetica,sans-Serif" font-size="10.00">unique_ptr&lt; TFile &gt;</text>
<polyline fill="none" stroke="#bfbfbf" points="160.5,-276.5 261.5,-276.5 "/>
<text text-anchor="middle" x="211" y="-264.5" font-family="Helvetica,sans-Serif" font-size="10.00"> </text>
<polyline fill="none" stroke="#bfbfbf" points="160.5,-257.5 261.5,-257.5 "/>
<text text-anchor="middle" x="211" y="-245.5" font-family="Helvetica,sans-Serif" font-size="10.00"> </text>
</g>
<!-- Node3&#45;&gt;Node1 -->
<g id="edge2" class="edge"><title>Node3&#45;&gt;Node1</title>
<path fill="none" stroke="#404040" d="M220.557,-238.174C230.262,-212.962 247.247,-175.901 271,-150 290.488,-128.75 315.585,-110.271 339.884,-95.261"/>
<polygon fill="none" stroke="#404040" points="339.945,-95.2243 343.028,-88.7051 350.231,-89.0427 347.149,-95.562 339.945,-95.2243"/>
<text text-anchor="middle" x="325.5" y="-123.5" font-family="Helvetica,sans-Serif" font-size="10.00"> #mOutFile</text>
</g>
<!-- Node4 -->
<g id="node4" class="node"><title>Node4</title>
<g id="a_node4"><a xlink:href="../../d6/dd5/classo2_1_1detectors_1_1DetID.html" target="_top" xlink:title="Static class with identifiers, bitmasks and names for ALICE detectors. ">
<polygon fill="none" stroke="black" points="280,-150.5 280,-383.5 386,-383.5 386,-150.5 280,-150.5"/>
<text text-anchor="middle" x="333" y="-371.5" font-family="Helvetica,sans-Serif" font-size="10.00">o2::detectors::DetID</text>
<polyline fill="none" stroke="black" points="280,-364.5 386,-364.5 "/>
<text text-anchor="start" x="288" y="-352.5" font-family="Helvetica,sans-Serif" font-size="10.00">+ TOF</text>
<text text-anchor="start" x="288" y="-341.5" font-family="Helvetica,sans-Serif" font-size="10.00">+ PHS</text>
<text text-anchor="start" x="288" y="-330.5" font-family="Helvetica,sans-Serif" font-size="10.00">+ EMC</text>
<text text-anchor="start" x="288" y="-319.5" font-family="Helvetica,sans-Serif" font-size="10.00">+ HMP</text>
<text text-anchor="start" x="288" y="-308.5" font-family="Helvetica,sans-Serif" font-size="10.00">+ MFT</text>
<text text-anchor="start" x="288" y="-297.5" font-family="Helvetica,sans-Serif" font-size="10.00">+ Last</text>
<polyline fill="none" stroke="black" points="280,-290.5 386,-290.5 "/>
<text text-anchor="start" x="288" y="-278.5" font-family="Helvetica,sans-Serif" font-size="10.00">+ DetID()</text>
<text text-anchor="start" x="288" y="-267.5" font-family="Helvetica,sans-Serif" font-size="10.00">+ DetID()</text>
<text text-anchor="start" x="288" y="-256.5" font-family="Helvetica,sans-Serif" font-size="10.00">+ DetID()</text>
<text text-anchor="start" x="288" y="-245.5" font-family="Helvetica,sans-Serif" font-size="10.00">+ operator=()</text>
<text text-anchor="start" x="288" y="-234.5" font-family="Helvetica,sans-Serif" font-size="10.00">+ getID()</text>
<text text-anchor="start" x="288" y="-223.5" font-family="Helvetica,sans-Serif" font-size="10.00">+ getMask()</text>
<text text-anchor="start" x="288" y="-212.5" font-family="Helvetica,sans-Serif" font-size="10.00">+ getName()</text>
<text text-anchor="start" x="288" y="-201.5" font-family="Helvetica,sans-Serif" font-size="10.00">+ operator int()</text>
<text text-anchor="start" x="288" y="-190.5" font-family="Helvetica,sans-Serif" font-size="10.00">+ DetID()</text>
<text text-anchor="start" x="288" y="-179.5" font-family="Helvetica,sans-Serif" font-size="10.00">+ getNDetectors()</text>
<text text-anchor="start" x="288" y="-168.5" font-family="Helvetica,sans-Serif" font-size="10.00">+ getName()</text>
<text text-anchor="start" x="288" y="-157.5" font-family="Helvetica,sans-Serif" font-size="10.00">+ getMask()</text>
</a>
</g>
</g>
<!-- Node4&#45;&gt;Node1 -->
<g id="edge3" class="edge"><title>Node4&#45;&gt;Node1</title>
<path fill="none" stroke="#404040" d="M383.311,-150.231C388.954,-137.246 394.522,-124.433 399.679,-112.566"/>
<polygon fill="none" stroke="#404040" points="399.704,-112.509 398.427,-105.412 404.487,-101.503 405.764,-108.6 399.704,-112.509"/>
<text text-anchor="middle" x="410" y="-123.5" font-family="Helvetica,sans-Serif" font-size="10.00"> #mID</text>
</g>
<!-- Node5 -->
<g id="node5" class="node"><title>Node5</title>
<polygon fill="none" stroke="#bfbfbf" points="242,-542.5 242,-599.5 342,-599.5 342,-542.5 242,-542.5"/>
<text text-anchor="middle" x="292" y="-587.5" font-family="Helvetica,sans-Serif" font-size="10.00">static constexpr ID</text>
<polyline fill="none" stroke="#bfbfbf" points="242,-580.5 342,-580.5 "/>
<text text-anchor="middle" x="292" y="-568.5" font-family="Helvetica,sans-Serif" font-size="10.00"> </text>
<polyline fill="none" stroke="#bfbfbf" points="242,-561.5 342,-561.5 "/>
<text text-anchor="middle" x="292" y="-549.5" font-family="Helvetica,sans-Serif" font-size="10.00"> </text>
</g>
<!-- Node5&#45;&gt;Node4 -->
<g id="edge4" class="edge"><title>Node5&#45;&gt;Node4</title>
<path fill="none" stroke="#404040" d="M295.747,-542.399C300.296,-508.892 308.281,-450.075 315.695,-395.468"/>
<polygon fill="none" stroke="#404040" points="315.701,-395.418 312.545,-388.935 317.316,-383.527 320.472,-390.011 315.701,-395.418"/>
<text text-anchor="middle" x="329.5" y="-515.5" font-family="Helvetica,sans-Serif" font-size="10.00"> +ACO</text>
<text text-anchor="middle" x="329.5" y="-504.5" font-family="Helvetica,sans-Serif" font-size="10.00">+First</text>
<text text-anchor="middle" x="329.5" y="-493.5" font-family="Helvetica,sans-Serif" font-size="10.00">+FIT</text>
<text text-anchor="middle" x="329.5" y="-482.5" font-family="Helvetica,sans-Serif" font-size="10.00">+MCH</text>
<text text-anchor="middle" x="329.5" y="-471.5" font-family="Helvetica,sans-Serif" font-size="10.00">+TRD</text>
<text text-anchor="middle" x="329.5" y="-460.5" font-family="Helvetica,sans-Serif" font-size="10.00">+TPC</text>
<text text-anchor="middle" x="329.5" y="-449.5" font-family="Helvetica,sans-Serif" font-size="10.00">+ZDC</text>
<text text-anchor="middle" x="329.5" y="-438.5" font-family="Helvetica,sans-Serif" font-size="10.00">+MID</text>
<text text-anchor="middle" x="329.5" y="-427.5" font-family="Helvetica,sans-Serif" font-size="10.00">+ITS</text>
<text text-anchor="middle" x="329.5" y="-416.5" font-family="Helvetica,sans-Serif" font-size="10.00">+CPV</text>
<text text-anchor="middle" x="329.5" y="-405.5" font-family="Helvetica,sans-Serif" font-size="10.00">...</text>
</g>
<!-- Node6 -->
<g id="node6" class="node"><title>Node6</title>
<polygon fill="none" stroke="#bfbfbf" points="360.5,-542.5 360.5,-599.5 389.5,-599.5 389.5,-542.5 360.5,-542.5"/>
<text text-anchor="middle" x="375" y="-587.5" font-family="Helvetica,sans-Serif" font-size="10.00">int</text>
<polyline fill="none" stroke="#bfbfbf" points="360.5,-580.5 389.5,-580.5 "/>
<text text-anchor="middle" x="375" y="-568.5" font-family="Helvetica,sans-Serif" font-size="10.00"> </text>
<polyline fill="none" stroke="#bfbfbf" points="360.5,-561.5 389.5,-561.5 "/>
<text text-anchor="middle" x="375" y="-549.5" font-family="Helvetica,sans-Serif" font-size="10.00"> </text>
</g>
<!-- Node6&#45;&gt;Node4 -->
<g id="edge5" class="edge"><title>Node6&#45;&gt;Node4</title>
<path fill="none" stroke="#404040" d="M371.161,-542.399C366.502,-508.892 358.322,-450.075 350.727,-395.468"/>
<polygon fill="none" stroke="#404040" points="350.72,-395.413 345.931,-390.021 349.067,-383.527 353.855,-388.919 350.72,-395.413"/>
<text text-anchor="middle" x="397" y="-460.5" font-family="Helvetica,sans-Serif" font-size="10.00"> +nDetectors</text>
</g>
<!-- Node7 -->
<g id="node7" class="node"><title>Node7</title>
<polygon fill="none" stroke="#bfbfbf" points="404.5,-238.5 404.5,-295.5 509.5,-295.5 509.5,-238.5 404.5,-238.5"/>
<text text-anchor="middle" x="457" y="-283.5" font-family="Helvetica,sans-Serif" font-size="10.00">unique_ptr&lt; TTree &gt;</text>
<polyline fill="none" stroke="#bfbfbf" points="404.5,-276.5 509.5,-276.5 "/>
<text text-anchor="middle" x="457" y="-264.5" font-family="Helvetica,sans-Serif" font-size="10.00"> </text>
<polyline fill="none" stroke="#bfbfbf" points="404.5,-257.5 509.5,-257.5 "/>
<text text-anchor="middle" x="457" y="-245.5" font-family="Helvetica,sans-Serif" font-size="10.00"> </text>
</g>
<!-- Node7&#45;&gt;Node1 -->
<g id="edge6" class="edge"><title>Node7&#45;&gt;Node1</title>
<path fill="none" stroke="#404040" d="M453.011,-238.461C448.481,-207.192 440.947,-155.179 434.984,-114.021"/>
<polygon fill="none" stroke="#404040" points="434.95,-113.783 430.131,-108.418 433.229,-101.907 438.048,-107.271 434.95,-113.783"/>
<text text-anchor="middle" x="463" y="-123.5" font-family="Helvetica,sans-Serif" font-size="10.00"> #mOutTree</text>
</g>
<!-- Node8 -->
<g id="node8" class="node"><title>Node8</title>
<polygon fill="none" stroke="#bfbfbf" points="528,-233 528,-301 638,-301 638,-233 528,-233"/>
<text text-anchor="start" x="536" y="-289" font-family="Helvetica,sans-Serif" font-size="10.00">vector&lt; o2::ITSMFT</text>
<text text-anchor="middle" x="583" y="-278" font-family="Helvetica,sans-Serif" font-size="10.00">::o2::ITSMFT::Digit &gt;</text>
<polyline fill="none" stroke="#bfbfbf" points="528,-271 638,-271 "/>
<text text-anchor="middle" x="583" y="-259" font-family="Helvetica,sans-Serif" font-size="10.00"> </text>
<polyline fill="none" stroke="#bfbfbf" points="528,-252 638,-252 "/>
<text text-anchor="middle" x="583" y="-240" font-family="Helvetica,sans-Serif" font-size="10.00"> </text>
</g>
<!-- Node8&#45;&gt;Node1 -->
<g id="edge7" class="edge"><title>Node8&#45;&gt;Node1</title>
<path fill="none" stroke="#404040" d="M566.474,-232.786C554.17,-209.05 536.387,-176.719 518,-150 508.161,-135.702 504.656,-132.859 493,-120 490.188,-116.898 487.278,-113.745 484.317,-110.583"/>
<polygon fill="none" stroke="#404040" points="484.133,-110.388 477.102,-108.784 475.878,-101.678 482.909,-103.281 484.133,-110.388"/>
<text text-anchor="middle" x="526.5" y="-123.5" font-family="Helvetica,sans-Serif" font-size="10.00"> #mDigits</text>
</g>
<!-- Node9 -->
<g id="node9" class="node"><title>Node9</title>
<polygon fill="none" stroke="#bfbfbf" points="656.5,-238.5 656.5,-295.5 691.5,-295.5 691.5,-238.5 656.5,-238.5"/>
<text text-anchor="middle" x="674" y="-283.5" font-family="Helvetica,sans-Serif" font-size="10.00">bool</text>
<polyline fill="none" stroke="#bfbfbf" points="656.5,-276.5 691.5,-276.5 "/>
<text text-anchor="middle" x="674" y="-264.5" font-family="Helvetica,sans-Serif" font-size="10.00"> </text>
<polyline fill="none" stroke="#bfbfbf" points="656.5,-257.5 691.5,-257.5 "/>
<text text-anchor="middle" x="674" y="-245.5" font-family="Helvetica,sans-Serif" font-size="10.00"> </text>
</g>
<!-- Node9&#45;&gt;Node1 -->
<g id="edge8" class="edge"><title>Node9&#45;&gt;Node1</title>
<path fill="none" stroke="#404040" d="M674.27,-238.106C673.087,-212.494 667.559,-174.856 647,-150 613.339,-109.302 559.372,-84.9354 513.195,-70.6783"/>
<polygon fill="none" stroke="#404040" points="513.149,-70.6648 506.262,-72.8026 501.64,-67.2676 508.527,-65.1298 513.149,-70.6648"/>
<text text-anchor="middle" x="657" y="-123.5" font-family="Helvetica,sans-Serif" font-size="10.00"> #mFinished</text>
</g>
</g>
</svg>
