<?xml version="1.0" encoding="UTF-8" standalone="no"?>
<!DOCTYPE svg PUBLIC "-//W3C//DTD SVG 1.1//EN"
 "http://www.w3.org/Graphics/SVG/1.1/DTD/svg11.dtd">
<!-- Generated by graphviz version 2.36.0 (20140111.2315)
 -->
<!-- Title: /home/travis/build/AliceO2Group/AliceO2/Framework/Core/include/Framework/DataRelayer.h Pages: 1 -->
<svg width="1269pt" height="354pt"
 viewBox="0.00 0.00 1268.92 354.00" xmlns="http://www.w3.org/2000/svg" xmlns:xlink="http://www.w3.org/1999/xlink">
<g id="graph0" class="graph" transform="scale(1 1) rotate(0) translate(4 350)">
<title>/home/travis/build/AliceO2Group/AliceO2/Framework/Core/include/Framework/DataRelayer.h</title>
<!-- Node1 -->
<g id="node1" class="node"><title>Node1</title>
<polygon fill="#bfbfbf" stroke="black" points="474.921,-293 474.921,-345 608.921,-345 608.921,-293 474.921,-293"/>
<text text-anchor="start" x="482.921" y="-333" font-family="Helvetica,sans-Serif" font-size="10.00">/home/travis/build</text>
<text text-anchor="start" x="482.921" y="-322" font-family="Helvetica,sans-Serif" font-size="10.00">/AliceO2Group/AliceO2</text>
<text text-anchor="start" x="482.921" y="-311" font-family="Helvetica,sans-Serif" font-size="10.00">/Framework/Core/include</text>
<text text-anchor="middle" x="541.921" y="-300" font-family="Helvetica,sans-Serif" font-size="10.00">/Framework/DataRelayer.h</text>
</g>
<!-- Node2 -->
<g id="node2" class="node"><title>Node2</title>
<g id="a_node2"><a xlink:href="../../d5/d19/InputRoute_8h.html" target="_top" xlink:title="Framework/InputRoute.h">
<polygon fill="none" stroke="black" points="157.421,-236.5 157.421,-255.5 282.421,-255.5 282.421,-236.5 157.421,-236.5"/>
<text text-anchor="middle" x="219.921" y="-243.5" font-family="Helvetica,sans-Serif" font-size="10.00">Framework/InputRoute.h</text>
</a>
</g>
</g>
<!-- Node1&#45;&gt;Node2 -->
<g id="edge1" class="edge"><title>Node1&#45;&gt;Node2</title>
<path fill="none" stroke="midnightblue" d="M474.811,-303.202C413.213,-289.62 323.431,-269.824 268.502,-257.712"/>
<polygon fill="midnightblue" stroke="midnightblue" points="269.185,-254.279 258.666,-255.543 267.678,-261.114 269.185,-254.279"/>
</g>
<!-- Node23 -->
<g id="node23" class="node"><title>Node23</title>
<polygon fill="none" stroke="#bfbfbf" points="1216.92,-6.5 1216.92,-25.5 1260.92,-25.5 1260.92,-6.5 1216.92,-6.5"/>
<text text-anchor="middle" x="1238.92" y="-13.5" font-family="Helvetica,sans-Serif" font-size="10.00">vector</text>
</g>
<!-- Node1&#45;&gt;Node23 -->
<g id="edge46" class="edge"><title>Node1&#45;&gt;Node23</title>
<path fill="none" stroke="midnightblue" d="M609.022,-316.364C754.695,-310.991 1086.92,-288.092 1086.92,-191 1086.92,-191 1086.92,-191 1086.92,-133 1086.92,-101.61 1169.88,-53.2901 1213.22,-30.1865"/>
<polygon fill="midnightblue" stroke="midnightblue" points="1214.86,-33.281 1222.07,-25.5247 1211.59,-27.0873 1214.86,-33.281"/>
</g>
<!-- Node27 -->
<g id="node27" class="node"><title>Node27</title>
<polygon fill="none" stroke="#bfbfbf" points="239.421,-180.5 239.421,-199.5 288.421,-199.5 288.421,-180.5 239.421,-180.5"/>
<text text-anchor="middle" x="263.921" y="-187.5" font-family="Helvetica,sans-Serif" font-size="10.00">cstddef</text>
</g>
<!-- Node1&#45;&gt;Node27 -->
<g id="edge45" class="edge"><title>Node1&#45;&gt;Node27</title>
<path fill="none" stroke="midnightblue" d="M474.859,-294.559C445.616,-283.73 411.174,-270.145 380.921,-256 347.25,-240.257 309.976,-218.81 286.749,-204.934"/>
<polygon fill="midnightblue" stroke="midnightblue" points="288.367,-201.822 277.994,-199.664 284.757,-207.82 288.367,-201.822"/>
</g>
<!-- Node28 -->
<g id="node28" class="node"><title>Node28</title>
<g id="a_node28"><a xlink:href="../../d7/d12/ForwardRoute_8h.html" target="_top" xlink:title="Framework/ForwardRoute.h">
<polygon fill="none" stroke="black" points="389.921,-236.5 389.921,-255.5 527.921,-255.5 527.921,-236.5 389.921,-236.5"/>
<text text-anchor="middle" x="458.921" y="-243.5" font-family="Helvetica,sans-Serif" font-size="10.00">Framework/ForwardRoute.h</text>
</a>
</g>
</g>
<!-- Node1&#45;&gt;Node28 -->
<g id="edge33" class="edge"><title>Node1&#45;&gt;Node28</title>
<path fill="none" stroke="midnightblue" d="M512.425,-292.768C500.512,-282.578 487.156,-271.153 476.768,-262.267"/>
<polygon fill="midnightblue" stroke="midnightblue" points="479.032,-259.598 469.158,-255.757 474.482,-264.917 479.032,-259.598"/>
</g>
<!-- Node29 -->
<g id="node29" class="node"><title>Node29</title>
<g id="a_node29"><a xlink:href="../../df/dd6/CompletionPolicy_8h.html" target="_top" xlink:title="Framework/CompletionPolicy.h">
<polygon fill="none" stroke="black" points="602.421,-180.5 602.421,-199.5 755.421,-199.5 755.421,-180.5 602.421,-180.5"/>
<text text-anchor="middle" x="678.921" y="-187.5" font-family="Helvetica,sans-Serif" font-size="10.00">Framework/CompletionPolicy.h</text>
</a>
</g>
</g>
<!-- Node1&#45;&gt;Node29 -->
<g id="edge37" class="edge"><title>Node1&#45;&gt;Node29</title>
<path fill="none" stroke="midnightblue" d="M568.988,-292.909C596.751,-267.173 639.058,-227.953 662.259,-206.445"/>
<polygon fill="midnightblue" stroke="midnightblue" points="664.66,-208.993 669.614,-199.628 659.901,-203.859 664.66,-208.993"/>
</g>
<!-- Node30 -->
<g id="node30" class="node"><title>Node30</title>
<g id="a_node30"><a xlink:href="../../d9/d32/PartRef_8h.html" target="_top" xlink:title="Framework/PartRef.h">
<polygon fill="none" stroke="black" points="819.921,-124.5 819.921,-143.5 929.921,-143.5 929.921,-124.5 819.921,-124.5"/>
<text text-anchor="middle" x="874.921" y="-131.5" font-family="Helvetica,sans-Serif" font-size="10.00">Framework/PartRef.h</text>
</a>
</g>
</g>
<!-- Node1&#45;&gt;Node30 -->
<g id="edge44" class="edge"><title>Node1&#45;&gt;Node30</title>
<path fill="none" stroke="midnightblue" d="M590.736,-292.79C635.925,-269.279 704.848,-232.977 763.921,-200 794.632,-182.856 829.569,-162.203 851.908,-148.849"/>
<polygon fill="midnightblue" stroke="midnightblue" points="853.882,-151.746 860.661,-143.604 850.284,-145.742 853.882,-151.746"/>
</g>
<!-- Node3 -->
<g id="node3" class="node"><title>Node3</title>
<g id="a_node3"><a xlink:href="../../d2/dd9/ExpirationHandler_8h.html" target="_top" xlink:title="Framework/ExpirationHandler.h">
<polygon fill="none" stroke="black" points="28.921,-180.5 28.921,-199.5 182.921,-199.5 182.921,-180.5 28.921,-180.5"/>
<text text-anchor="middle" x="105.921" y="-187.5" font-family="Helvetica,sans-Serif" font-size="10.00">Framework/ExpirationHandler.h</text>
</a>
</g>
</g>
<!-- Node2&#45;&gt;Node3 -->
<g id="edge2" class="edge"><title>Node2&#45;&gt;Node3</title>
<path fill="none" stroke="midnightblue" d="M201.857,-236.444C183.346,-227.675 154.34,-213.935 133.065,-203.858"/>
<polygon fill="midnightblue" stroke="midnightblue" points="134.436,-200.634 123.9,-199.516 131.439,-206.96 134.436,-200.634"/>
</g>
<!-- Node5 -->
<g id="node5" class="node"><title>Node5</title>
<polygon fill="none" stroke="#bfbfbf" points="71.421,-124.5 71.421,-143.5 130.421,-143.5 130.421,-124.5 71.421,-124.5"/>
<text text-anchor="middle" x="100.921" y="-131.5" font-family="Helvetica,sans-Serif" font-size="10.00">functional</text>
</g>
<!-- Node2&#45;&gt;Node5 -->
<g id="edge32" class="edge"><title>Node2&#45;&gt;Node5</title>
<path fill="none" stroke="midnightblue" d="M218.215,-236.359C215.139,-222.804 207.482,-196.401 191.921,-180 177.796,-165.113 157.694,-154.459 139.975,-147.267"/>
<polygon fill="midnightblue" stroke="midnightblue" points="141.02,-143.92 130.429,-143.623 138.523,-150.459 141.02,-143.92"/>
</g>
<!-- Node6 -->
<g id="node6" class="node"><title>Node6</title>
<g id="a_node6"><a xlink:href="../../d5/d3f/InputSpec_8h.html" target="_top" xlink:title="Framework/InputSpec.h">
<polygon fill="none" stroke="black" points="306.421,-180.5 306.421,-199.5 427.421,-199.5 427.421,-180.5 306.421,-180.5"/>
<text text-anchor="middle" x="366.921" y="-187.5" font-family="Helvetica,sans-Serif" font-size="10.00">Framework/InputSpec.h</text>
</a>
</g>
</g>
<!-- Node2&#45;&gt;Node6 -->
<g id="edge5" class="edge"><title>Node2&#45;&gt;Node6</title>
<path fill="none" stroke="midnightblue" d="M243.214,-236.444C267.728,-227.438 306.517,-213.189 334.121,-203.049"/>
<polygon fill="midnightblue" stroke="midnightblue" points="335.558,-206.25 343.737,-199.516 333.144,-199.679 335.558,-206.25"/>
</g>
<!-- Node7 -->
<g id="node7" class="node"><title>Node7</title>
<polygon fill="none" stroke="#bfbfbf" points="11.421,-6.5 11.421,-25.5 52.421,-25.5 52.421,-6.5 11.421,-6.5"/>
<text text-anchor="middle" x="31.921" y="-13.5" font-family="Helvetica,sans-Serif" font-size="10.00">string</text>
</g>
<!-- Node2&#45;&gt;Node7 -->
<g id="edge31" class="edge"><title>Node2&#45;&gt;Node7</title>
<path fill="none" stroke="midnightblue" d="M157.36,-239.363C105.269,-233.221 36.957,-221.295 19.921,-200 -18.8189,-151.575 8.33683,-70.904 23.5422,-35.0863"/>
<polygon fill="midnightblue" stroke="midnightblue" points="26.7768,-36.4258 27.6209,-25.8646 20.375,-33.5943 26.7768,-36.4258"/>
</g>
<!-- Node2&#45;&gt;Node27 -->
<g id="edge30" class="edge"><title>Node2&#45;&gt;Node27</title>
<path fill="none" stroke="midnightblue" d="M227.187,-236.083C233.466,-228.377 242.709,-217.033 250.352,-207.653"/>
<polygon fill="midnightblue" stroke="midnightblue" points="253.187,-209.714 256.79,-199.751 247.76,-205.293 253.187,-209.714"/>
</g>
<!-- Node4 -->
<g id="node4" class="node"><title>Node4</title>
<polygon fill="none" stroke="#bfbfbf" points="194.921,-68.5 194.921,-87.5 240.921,-87.5 240.921,-68.5 194.921,-68.5"/>
<text text-anchor="middle" x="217.921" y="-75.5" font-family="Helvetica,sans-Serif" font-size="10.00">cstdint</text>
</g>
<!-- Node3&#45;&gt;Node4 -->
<g id="edge3" class="edge"><title>Node3&#45;&gt;Node4</title>
<path fill="none" stroke="midnightblue" d="M92.6907,-180.398C74.9183,-167.773 47.1747,-143.601 61.921,-124 76.6837,-104.377 143.614,-90.6199 184.862,-83.8339"/>
<polygon fill="midnightblue" stroke="midnightblue" points="185.423,-87.2888 194.748,-82.2595 184.322,-80.3759 185.423,-87.2888"/>
</g>
<!-- Node3&#45;&gt;Node5 -->
<g id="edge4" class="edge"><title>Node3&#45;&gt;Node5</title>
<path fill="none" stroke="midnightblue" d="M105.095,-180.083C104.44,-173.006 103.501,-162.861 102.679,-153.986"/>
<polygon fill="midnightblue" stroke="midnightblue" points="106.138,-153.386 101.731,-143.751 99.1682,-154.031 106.138,-153.386"/>
</g>
<!-- Node6&#45;&gt;Node7 -->
<g id="edge6" class="edge"><title>Node6&#45;&gt;Node7</title>
<path fill="none" stroke="midnightblue" d="M319.894,-180.474C272.307,-171.375 202.37,-156.568 177.921,-144 122.113,-115.311 70.0186,-60.8773 45.9289,-33.5397"/>
<polygon fill="midnightblue" stroke="midnightblue" points="48.3156,-30.9493 39.1224,-25.6829 43.0249,-35.5328 48.3156,-30.9493"/>
</g>
<!-- Node8 -->
<g id="node8" class="node"><title>Node8</title>
<polygon fill="none" stroke="#bfbfbf" points="316.921,-124.5 316.921,-143.5 368.921,-143.5 368.921,-124.5 316.921,-124.5"/>
<text text-anchor="middle" x="342.921" y="-131.5" font-family="Helvetica,sans-Serif" font-size="10.00">ostream</text>
</g>
<!-- Node6&#45;&gt;Node8 -->
<g id="edge7" class="edge"><title>Node6&#45;&gt;Node8</title>
<path fill="none" stroke="midnightblue" d="M362.958,-180.083C359.708,-172.77 355.002,-162.181 350.967,-153.103"/>
<polygon fill="midnightblue" stroke="midnightblue" points="354.07,-151.468 346.81,-143.751 347.673,-154.311 354.07,-151.468"/>
</g>
<!-- Node9 -->
<g id="node9" class="node"><title>Node9</title>
<g id="a_node9"><a xlink:href="../../dc/dca/Lifetime_8h.html" target="_top" xlink:title="Framework/Lifetime.h">
<polygon fill="none" stroke="black" points="187.421,-124.5 187.421,-143.5 298.421,-143.5 298.421,-124.5 187.421,-124.5"/>
<text text-anchor="middle" x="242.921" y="-131.5" font-family="Helvetica,sans-Serif" font-size="10.00">Framework/Lifetime.h</text>
</a>
</g>
</g>
<!-- Node6&#45;&gt;Node9 -->
<g id="edge8" class="edge"><title>Node6&#45;&gt;Node9</title>
<path fill="none" stroke="midnightblue" d="M347.273,-180.444C326.956,-171.596 295.018,-157.687 271.823,-147.586"/>
<polygon fill="midnightblue" stroke="midnightblue" points="273.043,-144.3 262.477,-143.516 270.248,-150.718 273.043,-144.3"/>
</g>
<!-- Node10 -->
<g id="node10" class="node"><title>Node10</title>
<g id="a_node10"><a xlink:href="../../dc/dcd/DataHeader_8h.html" target="_top" xlink:title="Headers/DataHeader.h">
<polygon fill="none" stroke="black" points="387.421,-124.5 387.421,-143.5 504.421,-143.5 504.421,-124.5 387.421,-124.5"/>
<text text-anchor="middle" x="445.921" y="-131.5" font-family="Helvetica,sans-Serif" font-size="10.00">Headers/DataHeader.h</text>
</a>
</g>
</g>
<!-- Node6&#45;&gt;Node10 -->
<g id="edge9" class="edge"><title>Node6&#45;&gt;Node10</title>
<path fill="none" stroke="midnightblue" d="M379.614,-180.324C391.822,-171.979 410.499,-159.212 424.924,-149.352"/>
<polygon fill="midnightblue" stroke="midnightblue" points="426.979,-152.187 433.26,-143.655 423.029,-146.408 426.979,-152.187"/>
</g>
<!-- Node10&#45;&gt;Node4 -->
<g id="edge10" class="edge"><title>Node10&#45;&gt;Node4</title>
<path fill="none" stroke="midnightblue" d="M409.794,-124.444C366.061,-114.086 293.041,-96.7916 250.815,-86.7907"/>
<polygon fill="midnightblue" stroke="midnightblue" points="251.569,-83.3726 241.032,-84.4736 249.956,-90.1841 251.569,-83.3726"/>
</g>
<!-- Node10&#45;&gt;Node7 -->
<g id="edge16" class="edge"><title>Node10&#45;&gt;Node7</title>
<path fill="none" stroke="midnightblue" d="M455.159,-124.444C468.582,-111.006 490.286,-84.7592 474.921,-68 412.514,0.0689994 149.619,-57.7018 60.921,-32 59.0018,-31.4439 57.0613,-30.7565 55.1418,-29.9846"/>
<polygon fill="midnightblue" stroke="midnightblue" points="56.4522,-26.733 45.9142,-25.6365 53.4683,-33.0652 56.4522,-26.733"/>
</g>
<!-- Node11 -->
<g id="node11" class="node"><title>Node11</title>
<polygon fill="none" stroke="#bfbfbf" points="848.921,-68.5 848.921,-87.5 900.921,-87.5 900.921,-68.5 848.921,-68.5"/>
<text text-anchor="middle" x="874.921" y="-75.5" font-family="Helvetica,sans-Serif" font-size="10.00">memory</text>
</g>
<!-- Node10&#45;&gt;Node11 -->
<g id="edge11" class="edge"><title>Node10&#45;&gt;Node11</title>
<path fill="none" stroke="midnightblue" d="M504.519,-128.175C580.896,-121.439 718.465,-107.78 834.921,-88 836.184,-87.7855 837.467,-87.5566 838.762,-87.3165"/>
<polygon fill="midnightblue" stroke="midnightblue" points="839.637,-90.7106 848.75,-85.3065 838.256,-83.8482 839.637,-90.7106"/>
</g>
<!-- Node12 -->
<g id="node12" class="node"><title>Node12</title>
<polygon fill="none" stroke="#bfbfbf" points="417.421,-68.5 417.421,-87.5 466.421,-87.5 466.421,-68.5 417.421,-68.5"/>
<text text-anchor="middle" x="441.921" y="-75.5" font-family="Helvetica,sans-Serif" font-size="10.00">cassert</text>
</g>
<!-- Node10&#45;&gt;Node12 -->
<g id="edge12" class="edge"><title>Node10&#45;&gt;Node12</title>
<path fill="none" stroke="midnightblue" d="M445.26,-124.083C444.736,-117.006 443.985,-106.861 443.327,-97.9865"/>
<polygon fill="midnightblue" stroke="midnightblue" points="446.798,-97.4652 442.569,-87.7511 439.818,-97.9823 446.798,-97.4652"/>
</g>
<!-- Node13 -->
<g id="node13" class="node"><title>Node13</title>
<polygon fill="none" stroke="#bfbfbf" points="1152.92,-6.5 1152.92,-25.5 1198.92,-25.5 1198.92,-6.5 1152.92,-6.5"/>
<text text-anchor="middle" x="1175.92" y="-13.5" font-family="Helvetica,sans-Serif" font-size="10.00">cstring</text>
</g>
<!-- Node10&#45;&gt;Node13 -->
<g id="edge13" class="edge"><title>Node10&#45;&gt;Node13</title>
<path fill="none" stroke="midnightblue" d="M504.718,-131.755C576.22,-128.84 699.876,-119.254 800.921,-88 819.531,-82.2439 821.289,-73.6832 839.921,-68 969.635,-28.4349 1012.31,-68.4916 1142.92,-32 1145.41,-31.3036 1147.96,-30.4438 1150.47,-29.4912"/>
<polygon fill="midnightblue" stroke="midnightblue" points="1152.01,-32.6389 1159.85,-25.5057 1149.27,-26.1968 1152.01,-32.6389"/>
</g>
<!-- Node14 -->
<g id="node14" class="node"><title>Node14</title>
<polygon fill="none" stroke="#bfbfbf" points="265.921,-68.5 265.921,-87.5 321.921,-87.5 321.921,-68.5 265.921,-68.5"/>
<text text-anchor="middle" x="293.921" y="-75.5" font-family="Helvetica,sans-Serif" font-size="10.00">algorithm</text>
</g>
<!-- Node10&#45;&gt;Node14 -->
<g id="edge14" class="edge"><title>Node10&#45;&gt;Node14</title>
<path fill="none" stroke="midnightblue" d="M421.836,-124.444C396.376,-115.399 356.027,-101.064 327.462,-90.9158"/>
<polygon fill="midnightblue" stroke="midnightblue" points="328.488,-87.5661 317.893,-87.5164 326.144,-94.1622 328.488,-87.5661"/>
</g>
<!-- Node15 -->
<g id="node15" class="node"><title>Node15</title>
<polygon fill="none" stroke="#bfbfbf" points="340.421,-68.5 340.421,-87.5 399.421,-87.5 399.421,-68.5 340.421,-68.5"/>
<text text-anchor="middle" x="369.921" y="-75.5" font-family="Helvetica,sans-Serif" font-size="10.00">stdexcept</text>
</g>
<!-- Node10&#45;&gt;Node15 -->
<g id="edge15" class="edge"><title>Node10&#45;&gt;Node15</title>
<path fill="none" stroke="midnightblue" d="M433.71,-124.324C422.145,-116.107 404.546,-103.602 390.76,-93.8069"/>
<polygon fill="midnightblue" stroke="midnightblue" points="392.533,-90.7729 382.354,-87.8339 388.478,-96.4791 392.533,-90.7729"/>
</g>
<!-- Node16 -->
<g id="node16" class="node"><title>Node16</title>
<g id="a_node16"><a xlink:href="../../dc/d03/MemoryResources_8h.html" target="_top" xlink:title="MemoryResources/MemoryResources.h">
<polygon fill="none" stroke="black" points="599.421,-68.5 599.421,-87.5 792.421,-87.5 792.421,-68.5 599.421,-68.5"/>
<text text-anchor="middle" x="695.921" y="-75.5" font-family="Helvetica,sans-Serif" font-size="10.00">MemoryResources/MemoryResources.h</text>
</a>
</g>
</g>
<!-- Node10&#45;&gt;Node16 -->
<g id="edge17" class="edge"><title>Node10&#45;&gt;Node16</title>
<path fill="none" stroke="midnightblue" d="M485.534,-124.444C529.146,-115.023 599.321,-99.8656 646.499,-89.6752"/>
<polygon fill="midnightblue" stroke="midnightblue" points="647.457,-93.0489 656.493,-87.5164 645.979,-86.2067 647.457,-93.0489"/>
</g>
<!-- Node16&#45;&gt;Node7 -->
<g id="edge23" class="edge"><title>Node16&#45;&gt;Node7</title>
<path fill="none" stroke="midnightblue" d="M599.365,-69.0993C594.481,-68.7222 589.645,-68.3537 584.921,-68 352.135,-50.5669 285.716,-94.9331 60.921,-32 58.9559,-31.4499 56.97,-30.7578 55.0081,-29.9747"/>
<polygon fill="midnightblue" stroke="midnightblue" points="56.1415,-26.6394 45.6044,-25.5347 53.1528,-32.9693 56.1415,-26.6394"/>
</g>
<!-- Node16&#45;&gt;Node13 -->
<g id="edge22" class="edge"><title>Node16&#45;&gt;Node13</title>
<path fill="none" stroke="midnightblue" d="M792.479,-68.9604C913.751,-58.6017 1110.02,-40.8745 1142.92,-32 1145.42,-31.3259 1147.97,-30.4814 1150.48,-29.5384"/>
<polygon fill="midnightblue" stroke="midnightblue" points="1152.02,-32.6892 1159.86,-25.5671 1149.29,-26.2432 1152.02,-32.6892"/>
</g>
<!-- Node17 -->
<g id="node17" class="node"><title>Node17</title>
<polygon fill="none" stroke="#bfbfbf" points="334.921,-1 334.921,-31 434.921,-31 434.921,-1 334.921,-1"/>
<text text-anchor="start" x="342.921" y="-19" font-family="Helvetica,sans-Serif" font-size="10.00">boost/container/flat</text>
<text text-anchor="middle" x="384.921" y="-8" font-family="Helvetica,sans-Serif" font-size="10.00">_map.hpp</text>
</g>
<!-- Node16&#45;&gt;Node17 -->
<g id="edge18" class="edge"><title>Node16&#45;&gt;Node17</title>
<path fill="none" stroke="midnightblue" d="M641.626,-68.4689C592.639,-60.5087 518.403,-47.7958 444.96,-32.1398"/>
<polygon fill="midnightblue" stroke="midnightblue" points="445.587,-28.6948 435.075,-30.0134 444.115,-35.5382 445.587,-28.6948"/>
</g>
<!-- Node18 -->
<g id="node18" class="node"><title>Node18</title>
<polygon fill="none" stroke="#bfbfbf" points="452.921,-1 452.921,-31 568.921,-31 568.921,-1 452.921,-1"/>
<text text-anchor="start" x="460.921" y="-19" font-family="Helvetica,sans-Serif" font-size="10.00">boost/container/pmr</text>
<text text-anchor="middle" x="510.921" y="-8" font-family="Helvetica,sans-Serif" font-size="10.00">/memory_resource.hpp</text>
</g>
<!-- Node16&#45;&gt;Node18 -->
<g id="edge19" class="edge"><title>Node16&#45;&gt;Node18</title>
<path fill="none" stroke="midnightblue" d="M669.415,-68.4035C642.044,-59.5263 598.587,-45.4321 564.094,-34.2453"/>
<polygon fill="midnightblue" stroke="midnightblue" points="564.758,-30.7811 554.166,-31.0253 562.598,-37.4397 564.758,-30.7811"/>
</g>
<!-- Node19 -->
<g id="node19" class="node"><title>Node19</title>
<polygon fill="none" stroke="#bfbfbf" points="586.921,-1 586.921,-31 742.921,-31 742.921,-1 586.921,-1"/>
<text text-anchor="start" x="594.921" y="-19" font-family="Helvetica,sans-Serif" font-size="10.00">boost/container/pmr</text>
<text text-anchor="middle" x="664.921" y="-8" font-family="Helvetica,sans-Serif" font-size="10.00">/monotonic_buffer_resource.hpp</text>
</g>
<!-- Node16&#45;&gt;Node19 -->
<g id="edge20" class="edge"><title>Node16&#45;&gt;Node19</title>
<path fill="none" stroke="midnightblue" d="M691.479,-68.4035C687.673,-61.0368 682.011,-50.0773 676.891,-40.168"/>
<polygon fill="midnightblue" stroke="midnightblue" points="679.927,-38.4185 672.227,-31.1408 673.708,-41.6317 679.927,-38.4185"/>
</g>
<!-- Node20 -->
<g id="node20" class="node"><title>Node20</title>
<polygon fill="none" stroke="#bfbfbf" points="761.421,-1 761.421,-31 894.421,-31 894.421,-1 761.421,-1"/>
<text text-anchor="start" x="769.421" y="-19" font-family="Helvetica,sans-Serif" font-size="10.00">boost/container/pmr</text>
<text text-anchor="middle" x="827.921" y="-8" font-family="Helvetica,sans-Serif" font-size="10.00">/polymorphic_allocator.hpp</text>
</g>
<!-- Node16&#45;&gt;Node20 -->
<g id="edge21" class="edge"><title>Node16&#45;&gt;Node20</title>
<path fill="none" stroke="midnightblue" d="M714.833,-68.4035C733.776,-59.793 763.518,-46.2742 787.746,-35.2612"/>
<polygon fill="midnightblue" stroke="midnightblue" points="789.41,-38.3497 797.065,-31.0253 786.513,-31.9771 789.41,-38.3497"/>
</g>
<!-- Node21 -->
<g id="node21" class="node"><title>Node21</title>
<polygon fill="none" stroke="#bfbfbf" points="912.921,-6.5 912.921,-25.5 974.921,-25.5 974.921,-6.5 912.921,-6.5"/>
<text text-anchor="middle" x="943.921" y="-13.5" font-family="Helvetica,sans-Serif" font-size="10.00">type_traits</text>
</g>
<!-- Node16&#45;&gt;Node21 -->
<g id="edge24" class="edge"><title>Node16&#45;&gt;Node21</title>
<path fill="none" stroke="midnightblue" d="M744.072,-68.4665C786.325,-60.5207 849.234,-47.5771 902.921,-32 906.051,-31.0918 909.286,-30.0655 912.503,-28.9864"/>
<polygon fill="midnightblue" stroke="midnightblue" points="913.702,-32.275 921.975,-25.656 911.38,-25.6713 913.702,-32.275"/>
</g>
<!-- Node22 -->
<g id="node22" class="node"><title>Node22</title>
<polygon fill="none" stroke="#bfbfbf" points="992.921,-6.5 992.921,-25.5 1032.92,-25.5 1032.92,-6.5 992.921,-6.5"/>
<text text-anchor="middle" x="1012.92" y="-13.5" font-family="Helvetica,sans-Serif" font-size="10.00">utility</text>
</g>
<!-- Node16&#45;&gt;Node22 -->
<g id="edge25" class="edge"><title>Node16&#45;&gt;Node22</title>
<path fill="none" stroke="midnightblue" d="M792.645,-69.3252C849.122,-63.0061 921.193,-51.7452 982.921,-32 984.834,-31.3879 986.777,-30.6684 988.706,-29.8815"/>
<polygon fill="midnightblue" stroke="midnightblue" points="990.43,-32.9406 998.042,-25.5711 987.496,-26.5853 990.43,-32.9406"/>
</g>
<!-- Node16&#45;&gt;Node23 -->
<g id="edge26" class="edge"><title>Node16&#45;&gt;Node23</title>
<path fill="none" stroke="midnightblue" d="M792.554,-70.4007C929.831,-60.7368 1169.05,-42.7225 1207.92,-32 1210.12,-31.3928 1212.36,-30.6331 1214.56,-29.7797"/>
<polygon fill="midnightblue" stroke="midnightblue" points="1216.19,-32.8881 1223.9,-25.6225 1213.34,-26.4936 1216.19,-32.8881"/>
</g>
<!-- Node24 -->
<g id="node24" class="node"><title>Node24</title>
<polygon fill="none" stroke="#bfbfbf" points="1051.42,-6.5 1051.42,-25.5 1134.42,-25.5 1134.42,-6.5 1051.42,-6.5"/>
<text text-anchor="middle" x="1092.92" y="-13.5" font-family="Helvetica,sans-Serif" font-size="10.00">unordered_map</text>
</g>
<!-- Node16&#45;&gt;Node24 -->
<g id="edge27" class="edge"><title>Node16&#45;&gt;Node24</title>
<path fill="none" stroke="midnightblue" d="M792.432,-68.5403C862.213,-61.4323 958.493,-49.5807 1041.92,-32 1046.93,-30.9447 1052.16,-29.6427 1057.28,-28.2505"/>
<polygon fill="midnightblue" stroke="midnightblue" points="1058.26,-31.6122 1066.91,-25.5031 1056.34,-24.8807 1058.26,-31.6122"/>
</g>
<!-- Node25 -->
<g id="node25" class="node"><title>Node25</title>
<polygon fill="none" stroke="#bfbfbf" points="70.421,-6.5 70.421,-25.5 167.421,-25.5 167.421,-6.5 70.421,-6.5"/>
<text text-anchor="middle" x="118.921" y="-13.5" font-family="Helvetica,sans-Serif" font-size="10.00">FairMQMessage.h</text>
</g>
<!-- Node16&#45;&gt;Node25 -->
<g id="edge28" class="edge"><title>Node16&#45;&gt;Node25</title>
<path fill="none" stroke="midnightblue" d="M599.353,-69.0718C454.695,-57.1338 196.4,-35.5538 175.921,-32 169.914,-30.9576 163.616,-29.588 157.488,-28.0999"/>
<polygon fill="midnightblue" stroke="midnightblue" points="157.971,-24.6108 147.415,-25.5206 156.234,-31.392 157.971,-24.6108"/>
</g>
<!-- Node26 -->
<g id="node26" class="node"><title>Node26</title>
<polygon fill="none" stroke="#bfbfbf" points="185.421,-6.5 185.421,-25.5 316.421,-25.5 316.421,-6.5 185.421,-6.5"/>
<text text-anchor="middle" x="250.921" y="-13.5" font-family="Helvetica,sans-Serif" font-size="10.00">FairMQTransportFactory.h</text>
</g>
<!-- Node16&#45;&gt;Node26 -->
<g id="edge29" class="edge"><title>Node16&#45;&gt;Node26</title>
<path fill="none" stroke="midnightblue" d="M610.425,-68.4747C535.266,-60.5341 423.035,-47.5937 325.921,-32 317.628,-30.6685 308.855,-29.0792 300.345,-27.4409"/>
<polygon fill="midnightblue" stroke="midnightblue" points="301.008,-24.0044 290.521,-25.5077 299.657,-30.8726 301.008,-24.0044"/>
</g>
<!-- Node28&#45;&gt;Node6 -->
<g id="edge34" class="edge"><title>Node28&#45;&gt;Node6</title>
<path fill="none" stroke="midnightblue" d="M444.14,-236.324C429.654,-227.822 407.348,-214.729 390.428,-204.797"/>
<polygon fill="midnightblue" stroke="midnightblue" points="392.062,-201.698 381.666,-199.655 388.518,-207.735 392.062,-201.698"/>
</g>
<!-- Node28&#45;&gt;Node7 -->
<g id="edge36" class="edge"><title>Node28&#45;&gt;Node7</title>
<path fill="none" stroke="midnightblue" d="M465.428,-236.424C477.638,-219.727 503.594,-181.225 512.921,-144 521.438,-110.007 519.868,-89.1431 491.921,-68 415.274,-10.0125 153.28,-58.5922 60.921,-32 59.0009,-31.4472 57.0597,-30.7622 55.1397,-29.9919"/>
<polygon fill="midnightblue" stroke="midnightblue" points="56.4495,-26.7401 45.9112,-25.6469 53.4677,-33.0733 56.4495,-26.7401"/>
</g>
<!-- Node28&#45;&gt;Node27 -->
<g id="edge35" class="edge"><title>Node28&#45;&gt;Node27</title>
<path fill="none" stroke="midnightblue" d="M428.023,-236.444C392.684,-226.657 334.985,-210.679 298.265,-200.511"/>
<polygon fill="midnightblue" stroke="midnightblue" points="299.072,-197.102 288.501,-197.807 297.204,-203.849 299.072,-197.102"/>
</g>
<!-- Node29&#45;&gt;Node5 -->
<g id="edge40" class="edge"><title>Node29&#45;&gt;Node5</title>
<path fill="none" stroke="midnightblue" d="M602.043,-182.738C503.656,-174.576 327.983,-159.506 177.921,-144 165.806,-142.748 152.635,-141.257 140.668,-139.852"/>
<polygon fill="midnightblue" stroke="midnightblue" points="140.861,-136.35 130.518,-138.647 140.036,-143.301 140.861,-136.35"/>
</g>
<!-- Node29&#45;&gt;Node7 -->
<g id="edge41" class="edge"><title>Node29&#45;&gt;Node7</title>
<path fill="none" stroke="midnightblue" d="M672.757,-180.204C655.839,-156.886 605.992,-93.5299 546.921,-68 348.103,17.9267 269.337,-90.9487 60.921,-32 58.9574,-31.4446 56.9726,-30.7488 55.0113,-29.963"/>
<polygon fill="midnightblue" stroke="midnightblue" points="56.1456,-26.6279 45.609,-25.5183 53.1539,-32.9564 56.1456,-26.6279"/>
</g>
<!-- Node29&#45;&gt;Node23 -->
<g id="edge42" class="edge"><title>Node29&#45;&gt;Node23</title>
<path fill="none" stroke="midnightblue" d="M684.333,-180.203C693.61,-165.933 713.985,-137.933 738.921,-124 750.511,-117.524 1195.33,-36.2037 1207.92,-32 1209.83,-31.3611 1211.78,-30.6299 1213.72,-29.8419"/>
<polygon fill="midnightblue" stroke="midnightblue" points="1215.48,-32.8899 1223.16,-25.5925 1212.6,-26.5072 1215.48,-32.8899"/>
</g>
<!-- Node29&#45;&gt;Node30 -->
<g id="edge38" class="edge"><title>Node29&#45;&gt;Node30</title>
<path fill="none" stroke="midnightblue" d="M709.978,-180.444C743.524,-171.201 797.118,-156.436 834.061,-146.257"/>
<polygon fill="midnightblue" stroke="midnightblue" points="835.298,-149.547 844.009,-143.516 833.439,-142.798 835.298,-149.547"/>
</g>
<!-- Node31 -->
<g id="node31" class="node"><title>Node31</title>
<polygon fill="none" stroke="#bfbfbf" points="748.421,-124.5 748.421,-143.5 801.421,-143.5 801.421,-124.5 748.421,-124.5"/>
<text text-anchor="middle" x="774.921" y="-131.5" font-family="Helvetica,sans-Serif" font-size="10.00">gsl/span</text>
</g>
<!-- Node29&#45;&gt;Node31 -->
<g id="edge43" class="edge"><title>Node29&#45;&gt;Node31</title>
<path fill="none" stroke="midnightblue" d="M694.345,-180.324C709.46,-171.822 732.736,-158.729 750.392,-148.797"/>
<polygon fill="midnightblue" stroke="midnightblue" points="752.535,-151.608 759.535,-143.655 749.103,-145.507 752.535,-151.608"/>
</g>
<!-- Node30&#45;&gt;Node11 -->
<g id="edge39" class="edge"><title>Node30&#45;&gt;Node11</title>
<path fill="none" stroke="midnightblue" d="M874.921,-124.083C874.921,-117.006 874.921,-106.861 874.921,-97.9865"/>
<polygon fill="midnightblue" stroke="midnightblue" points="878.421,-97.751 874.921,-87.7511 871.421,-97.7511 878.421,-97.751"/>
</g>
</g>
</svg>
