<?xml version="1.0" encoding="UTF-8" standalone="no"?>
<!DOCTYPE svg PUBLIC "-//W3C//DTD SVG 1.1//EN"
 "http://www.w3.org/Graphics/SVG/1.1/DTD/svg11.dtd">
<!-- Generated by graphviz version 2.36.0 (20140111.2315)
 -->
<!-- Title: /home/travis/build/AliceO2Group/AliceO2/Framework/Core/src/LifetimeHelpers.cxx Pages: 1 -->
<!--zoomable 366 -->
<svg id="main" version="1.1" xmlns="http://www.w3.org/2000/svg" xmlns:xlink="http://www.w3.org/1999/xlink" xml:space="preserve" onload="init(evt)">
<style type="text/css"><![CDATA[
.edge:hover path { stroke: red; }
.edge:hover polygon { stroke: red; fill: red; }
]]></style>
<script type="text/javascript"><![CDATA[
var edges = document.getElementsByTagName('g');
if (edges && edges.length) {
  for (var i=0;i<edges.length;i++) {
    if (edges[i].id.substr(0,4)=='edge') {
      edges[i].setAttribute('class','edge');
    }
  }
}
]]></script>
        <defs>
                <circle id="rim" cx="0" cy="0" r="7"/>
                <circle id="rim2" cx="0" cy="0" r="3.5"/>
                <g id="zoomPlus">
                        <use xlink:href="#rim" fill="#404040">
                                <set attributeName="fill" to="#808080" begin="zoomplus.mouseover" end="zoomplus.mouseout"/>
                        </use>
                        <path d="M-4,0h8M0,-4v8" fill="none" stroke="white" stroke-width="1.5" pointer-events="none"/>
                </g>
                <g id="zoomMin">
                        <use xlink:href="#rim" fill="#404040">
                                <set attributeName="fill" to="#808080" begin="zoomminus.mouseover" end="zoomminus.mouseout"/>
                        </use>
                        <path d="M-4,0h8" fill="none" stroke="white" stroke-width="1.5" pointer-events="none"/>
                </g>
                <g id="dirArrow">
                        <path fill="none" stroke="white" stroke-width="1.5" d="M0,-3.0v7 M-2.5,-0.5L0,-3.0L2.5,-0.5"/>
                </g>
               <g id="resetDef">
                       <use xlink:href="#rim2" fill="#404040">
                               <set attributeName="fill" to="#808080" begin="reset.mouseover" end="reset.mouseout"/>
                       </use>
               </g>
        </defs>

<script type="text/javascript">
var viewWidth = 1532;
var viewHeight = 366;
var sectionId = 'dynsection-0';
</script>
<script xlink:href="../../svgpan.js"/>
<svg id="graph" class="graph">
<g id="viewport">
<title>/home/travis/build/AliceO2Group/AliceO2/Framework/Core/src/LifetimeHelpers.cxx</title>
<!-- Node1 -->
<g id="node1" class="node"><title>Node1</title>
<polygon fill="#bfbfbf" stroke="black" points="839,-305 839,-357 985,-357 985,-305 839,-305"/>
<text text-anchor="start" x="847" y="-345" font-family="Helvetica,sans-Serif" font-size="10.00">/home/travis/build</text>
<text text-anchor="start" x="847" y="-334" font-family="Helvetica,sans-Serif" font-size="10.00">/AliceO2Group/AliceO2</text>
<text text-anchor="start" x="847" y="-323" font-family="Helvetica,sans-Serif" font-size="10.00">/Framework/Core/src/Lifetime</text>
<text text-anchor="middle" x="912" y="-312" font-family="Helvetica,sans-Serif" font-size="10.00">Helpers.cxx</text>
</g>
<!-- Node2 -->
<g id="node2" class="node"><title>Node2</title>
<g id="a_node2"><a xlink:href="../../d8/deb/LifetimeHelpers_8h.html" target="_top" xlink:title="Framework/LifetimeHelpers.h">
<polygon fill="none" stroke="black" points="222.5,-186.5 222.5,-205.5 367.5,-205.5 367.5,-186.5 222.5,-186.5"/>
<text text-anchor="middle" x="295" y="-193.5" font-family="Helvetica,sans-Serif" font-size="10.00">Framework/LifetimeHelpers.h</text>
</a>
</g>
</g>
<!-- Node1&#45;&gt;Node2 -->
<g id="edge1" class="edge"><title>Node1&#45;&gt;Node2</title>
<path fill="none" stroke="midnightblue" d="M838.799,-314.221C711.548,-286.791 452.794,-231.014 344.454,-207.66"/>
<polygon fill="midnightblue" stroke="midnightblue" points="344.961,-204.189 334.448,-205.503 343.486,-211.032 344.961,-204.189"/>
</g>
<!-- Node9 -->
<g id="node9" class="node"><title>Node9</title>
<g id="a_node9"><a xlink:href="../../d8/d17/ServiceRegistry_8h.html" target="_top" xlink:title="Framework/ServiceRegistry.h">
<polygon fill="none" stroke="black" points="73,-124.5 73,-143.5 219,-143.5 219,-124.5 73,-124.5"/>
<text text-anchor="middle" x="146" y="-131.5" font-family="Helvetica,sans-Serif" font-size="10.00">Framework/ServiceRegistry.h</text>
</a>
</g>
</g>
<!-- Node1&#45;&gt;Node9 -->
<g id="edge9" class="edge"><title>Node1&#45;&gt;Node9</title>
<path fill="none" stroke="midnightblue" d="M838.767,-323.909C682.034,-309.875 319.68,-271.81 213,-212 187.96,-197.961 167.781,-170.856 156.338,-152.843"/>
<polygon fill="midnightblue" stroke="midnightblue" points="159.092,-150.635 150.904,-143.912 153.112,-154.274 159.092,-150.635"/>
</g>
<!-- Node15 -->
<g id="node15" class="node"><title>Node15</title>
<g id="a_node15"><a xlink:href="../../d9/d66/RawDeviceService_8h.html" target="_top" xlink:title="Framework/RawDeviceService.h">
<polygon fill="none" stroke="black" points="1086.5,-68.5 1086.5,-87.5 1247.5,-87.5 1247.5,-68.5 1086.5,-68.5"/>
<text text-anchor="middle" x="1167" y="-75.5" font-family="Helvetica,sans-Serif" font-size="10.00">Framework/RawDeviceService.h</text>
</a>
</g>
</g>
<!-- Node1&#45;&gt;Node15 -->
<g id="edge16" class="edge"><title>Node1&#45;&gt;Node15</title>
<path fill="none" stroke="midnightblue" d="M937.854,-304.551C990.302,-252.927 1107.87,-137.206 1150.86,-94.8887"/>
<polygon fill="midnightblue" stroke="midnightblue" points="1153.31,-97.3827 1157.99,-87.8733 1148.4,-92.3939 1153.31,-97.3827"/>
</g>
<!-- Node18 -->
<g id="node18" class="node"><title>Node18</title>
<g id="a_node18"><a xlink:href="../../d5/d19/InputRoute_8h.html" target="_top" xlink:title="Framework/InputRoute.h">
<polygon fill="none" stroke="black" points="1027.5,-248.5 1027.5,-267.5 1152.5,-267.5 1152.5,-248.5 1027.5,-248.5"/>
<text text-anchor="middle" x="1090" y="-255.5" font-family="Helvetica,sans-Serif" font-size="10.00">Framework/InputRoute.h</text>
</a>
</g>
</g>
<!-- Node1&#45;&gt;Node18 -->
<g id="edge20" class="edge"><title>Node1&#45;&gt;Node18</title>
<path fill="none" stroke="midnightblue" d="M974.756,-304.968C1003.31,-293.58 1035.82,-280.613 1059.01,-271.361"/>
<polygon fill="midnightblue" stroke="midnightblue" points="1060.35,-274.595 1068.34,-267.639 1057.76,-268.093 1060.35,-274.595"/>
</g>
<!-- Node22 -->
<g id="node22" class="node"><title>Node22</title>
<g id="a_node22"><a xlink:href="../../dc/dcd/DataHeader_8h.html" target="_top" xlink:title="Headers/DataHeader.h">
<polygon fill="none" stroke="black" points="853.5,-124.5 853.5,-143.5 970.5,-143.5 970.5,-124.5 853.5,-124.5"/>
<text text-anchor="middle" x="912" y="-131.5" font-family="Helvetica,sans-Serif" font-size="10.00">Headers/DataHeader.h</text>
</a>
</g>
</g>
<!-- Node1&#45;&gt;Node22 -->
<g id="edge50" class="edge"><title>Node1&#45;&gt;Node22</title>
<path fill="none" stroke="midnightblue" d="M912,-304.906C912,-265.352 912,-189.374 912,-153.995"/>
<polygon fill="midnightblue" stroke="midnightblue" points="915.5,-153.664 912,-143.664 908.5,-153.664 915.5,-153.664"/>
</g>
<!-- Node36 -->
<g id="node36" class="node"><title>Node36</title>
<g id="a_node36"><a xlink:href="../../d6/dc9/DataProcessingHeader_8h.html" target="_top" xlink:title="Framework/DataProcessing\lHeader.h">
<polygon fill="none" stroke="black" points="732,-181 732,-211 870,-211 870,-181 732,-181"/>
<text text-anchor="start" x="740" y="-199" font-family="Helvetica,sans-Serif" font-size="10.00">Framework/DataProcessing</text>
<text text-anchor="middle" x="801" y="-188" font-family="Helvetica,sans-Serif" font-size="10.00">Header.h</text>
</a>
</g>
</g>
<!-- Node1&#45;&gt;Node36 -->
<g id="edge51" class="edge"><title>Node1&#45;&gt;Node36</title>
<path fill="none" stroke="midnightblue" d="M891.122,-304.984C870.449,-280.213 839.104,-242.657 819.357,-218.995"/>
<polygon fill="midnightblue" stroke="midnightblue" points="821.987,-216.684 812.892,-211.249 816.613,-221.169 821.987,-216.684"/>
</g>
<!-- Node38 -->
<g id="node38" class="node"><title>Node38</title>
<polygon fill="none" stroke="#bfbfbf" points="1171,-248.5 1171,-267.5 1289,-267.5 1289,-248.5 1171,-248.5"/>
<text text-anchor="middle" x="1230" y="-255.5" font-family="Helvetica,sans-Serif" font-size="10.00">fairmq/FairMQDevice.h</text>
</g>
<!-- Node1&#45;&gt;Node38 -->
<g id="edge57" class="edge"><title>Node1&#45;&gt;Node38</title>
<path fill="none" stroke="midnightblue" d="M985.355,-313.622C1045.71,-300.146 1129.54,-281.43 1181.74,-269.775"/>
<polygon fill="midnightblue" stroke="midnightblue" points="1182.74,-273.137 1191.74,-267.542 1181.22,-266.306 1182.74,-273.137"/>
</g>
<!-- Node3 -->
<g id="node3" class="node"><title>Node3</title>
<polygon fill="none" stroke="#bfbfbf" points="300.5,-68.5 300.5,-87.5 359.5,-87.5 359.5,-68.5 300.5,-68.5"/>
<text text-anchor="middle" x="330" y="-75.5" font-family="Helvetica,sans-Serif" font-size="10.00">functional</text>
</g>
<!-- Node2&#45;&gt;Node3 -->
<g id="edge2" class="edge"><title>Node2&#45;&gt;Node3</title>
<path fill="none" stroke="midnightblue" d="M297.631,-186.281C303.309,-167.463 316.816,-122.697 324.466,-97.3399"/>
<polygon fill="midnightblue" stroke="midnightblue" points="327.896,-98.0895 327.434,-87.5048 321.194,-96.0674 327.896,-98.0895"/>
</g>
<!-- Node4 -->
<g id="node4" class="node"><title>Node4</title>
<polygon fill="none" stroke="#bfbfbf" points="237,-124.5 237,-143.5 283,-143.5 283,-124.5 237,-124.5"/>
<text text-anchor="middle" x="260" y="-131.5" font-family="Helvetica,sans-Serif" font-size="10.00">chrono</text>
</g>
<!-- Node2&#45;&gt;Node4 -->
<g id="edge3" class="edge"><title>Node2&#45;&gt;Node4</title>
<path fill="none" stroke="midnightblue" d="M289.985,-186.403C284.839,-177.582 276.688,-163.608 270.182,-152.455"/>
<polygon fill="midnightblue" stroke="midnightblue" points="273.067,-150.455 265.005,-143.581 267.021,-153.982 273.067,-150.455"/>
</g>
<!-- Node5 -->
<g id="node5" class="node"><title>Node5</title>
<g id="a_node5"><a xlink:href="../../d2/dd9/ExpirationHandler_8h.html" target="_top" xlink:title="Framework/ExpirationHandler.h">
<polygon fill="none" stroke="black" points="505,-124.5 505,-143.5 659,-143.5 659,-124.5 505,-124.5"/>
<text text-anchor="middle" x="582" y="-131.5" font-family="Helvetica,sans-Serif" font-size="10.00">Framework/ExpirationHandler.h</text>
</a>
</g>
</g>
<!-- Node2&#45;&gt;Node5 -->
<g id="edge4" class="edge"><title>Node2&#45;&gt;Node5</title>
<path fill="none" stroke="midnightblue" d="M335.815,-186.467C387.244,-175.716 475.623,-157.239 531.322,-145.595"/>
<polygon fill="midnightblue" stroke="midnightblue" points="532.253,-148.976 541.325,-143.503 530.821,-142.124 532.253,-148.976"/>
</g>
<!-- Node7 -->
<g id="node7" class="node"><title>Node7</title>
<g id="a_node7"><a xlink:href="../../d9/d32/PartRef_8h.html" target="_top" xlink:title="Framework/PartRef.h">
<polygon fill="none" stroke="black" points="377,-124.5 377,-143.5 487,-143.5 487,-124.5 377,-124.5"/>
<text text-anchor="middle" x="432" y="-131.5" font-family="Helvetica,sans-Serif" font-size="10.00">Framework/PartRef.h</text>
</a>
</g>
</g>
<!-- Node2&#45;&gt;Node7 -->
<g id="edge7" class="edge"><title>Node2&#45;&gt;Node7</title>
<path fill="none" stroke="midnightblue" d="M314.629,-186.403C337.824,-176.245 376.619,-159.255 403.213,-147.607"/>
<polygon fill="midnightblue" stroke="midnightblue" points="404.652,-150.798 412.408,-143.581 401.843,-144.386 404.652,-150.798"/>
</g>
<!-- Node5&#45;&gt;Node3 -->
<g id="edge6" class="edge"><title>Node5&#45;&gt;Node3</title>
<path fill="none" stroke="midnightblue" d="M542.07,-124.444C494.747,-114.303 416.398,-97.5138 369.337,-87.4293"/>
<polygon fill="midnightblue" stroke="midnightblue" points="370.019,-83.996 359.507,-85.323 368.552,-90.8406 370.019,-83.996"/>
</g>
<!-- Node6 -->
<g id="node6" class="node"><title>Node6</title>
<polygon fill="none" stroke="#bfbfbf" points="476,-68.5 476,-87.5 522,-87.5 522,-68.5 476,-68.5"/>
<text text-anchor="middle" x="499" y="-75.5" font-family="Helvetica,sans-Serif" font-size="10.00">cstdint</text>
</g>
<!-- Node5&#45;&gt;Node6 -->
<g id="edge5" class="edge"><title>Node5&#45;&gt;Node6</title>
<path fill="none" stroke="midnightblue" d="M568.665,-124.324C555.838,-115.979 536.215,-103.212 521.06,-93.3524"/>
<polygon fill="midnightblue" stroke="midnightblue" points="522.593,-90.1742 512.302,-87.6545 518.776,-96.0417 522.593,-90.1742"/>
</g>
<!-- Node8 -->
<g id="node8" class="node"><title>Node8</title>
<polygon fill="none" stroke="#bfbfbf" points="406,-68.5 406,-87.5 458,-87.5 458,-68.5 406,-68.5"/>
<text text-anchor="middle" x="432" y="-75.5" font-family="Helvetica,sans-Serif" font-size="10.00">memory</text>
</g>
<!-- Node7&#45;&gt;Node8 -->
<g id="edge8" class="edge"><title>Node7&#45;&gt;Node8</title>
<path fill="none" stroke="midnightblue" d="M432,-124.083C432,-117.006 432,-106.861 432,-97.9865"/>
<polygon fill="midnightblue" stroke="midnightblue" points="435.5,-97.751 432,-87.7511 428.5,-97.7511 435.5,-97.751"/>
</g>
<!-- Node9&#45;&gt;Node3 -->
<g id="edge11" class="edge"><title>Node9&#45;&gt;Node3</title>
<path fill="none" stroke="midnightblue" d="M175.155,-124.444C206.513,-115.241 256.531,-100.562 291.197,-90.3879"/>
<polygon fill="midnightblue" stroke="midnightblue" points="292.371,-93.6909 300.981,-87.5164 290.4,-86.9742 292.371,-93.6909"/>
</g>
<!-- Node10 -->
<g id="node10" class="node"><title>Node10</title>
<polygon fill="none" stroke="#bfbfbf" points="52.5,-68.5 52.5,-87.5 111.5,-87.5 111.5,-68.5 52.5,-68.5"/>
<text text-anchor="middle" x="82" y="-75.5" font-family="Helvetica,sans-Serif" font-size="10.00">exception</text>
</g>
<!-- Node9&#45;&gt;Node10 -->
<g id="edge10" class="edge"><title>Node9&#45;&gt;Node10</title>
<path fill="none" stroke="midnightblue" d="M135.717,-124.324C126.164,-116.263 111.72,-104.077 100.216,-94.3695"/>
<polygon fill="midnightblue" stroke="midnightblue" points="102.37,-91.6076 92.4698,-87.8339 97.8557,-96.9577 102.37,-91.6076"/>
</g>
<!-- Node11 -->
<g id="node11" class="node"><title>Node11</title>
<polygon fill="none" stroke="#bfbfbf" points="1217.5,-6.5 1217.5,-25.5 1258.5,-25.5 1258.5,-6.5 1217.5,-6.5"/>
<text text-anchor="middle" x="1238" y="-13.5" font-family="Helvetica,sans-Serif" font-size="10.00">string</text>
</g>
<!-- Node9&#45;&gt;Node11 -->
<g id="edge12" class="edge"><title>Node9&#45;&gt;Node11</title>
<path fill="none" stroke="midnightblue" d="M219.3,-124.766C222.237,-124.496 225.146,-124.239 228,-124 365.527,-112.468 714.841,-124.269 848,-88 866.795,-82.8807 868.35,-73.6251 887,-68 1024.02,-26.6716 1069.51,-71.7368 1207,-32 1209.19,-31.3661 1211.42,-30.5875 1213.63,-29.7215"/>
<polygon fill="midnightblue" stroke="midnightblue" points="1215.26,-32.8253 1222.96,-25.5434 1212.4,-26.4368 1215.26,-32.8253"/>
</g>
<!-- Node12 -->
<g id="node12" class="node"><title>Node12</title>
<polygon fill="none" stroke="#bfbfbf" points="110,-6.5 110,-25.5 172,-25.5 172,-6.5 110,-6.5"/>
<text text-anchor="middle" x="141" y="-13.5" font-family="Helvetica,sans-Serif" font-size="10.00">type_traits</text>
</g>
<!-- Node9&#45;&gt;Node12 -->
<g id="edge13" class="edge"><title>Node9&#45;&gt;Node12</title>
<path fill="none" stroke="midnightblue" d="M158.545,-124.41C174.163,-112.558 197.779,-90.1365 189,-68 183.341,-53.7304 171.59,-41.1316 161.131,-32.0261"/>
<polygon fill="midnightblue" stroke="midnightblue" points="163.118,-29.1298 153.162,-25.5075 158.686,-34.5481 163.118,-29.1298"/>
</g>
<!-- Node13 -->
<g id="node13" class="node"><title>Node13</title>
<polygon fill="none" stroke="#bfbfbf" points="129.5,-68.5 129.5,-87.5 180.5,-87.5 180.5,-68.5 129.5,-68.5"/>
<text text-anchor="middle" x="155" y="-75.5" font-family="Helvetica,sans-Serif" font-size="10.00">typeinfo</text>
</g>
<!-- Node9&#45;&gt;Node13 -->
<g id="edge14" class="edge"><title>Node9&#45;&gt;Node13</title>
<path fill="none" stroke="midnightblue" d="M147.486,-124.083C148.679,-116.927 150.394,-106.635 151.885,-97.6911"/>
<polygon fill="midnightblue" stroke="midnightblue" points="155.35,-98.1904 153.541,-87.7511 148.445,-97.0396 155.35,-98.1904"/>
</g>
<!-- Node14 -->
<g id="node14" class="node"><title>Node14</title>
<polygon fill="none" stroke="#bfbfbf" points="-0.5,-6.5 -0.5,-25.5 82.5,-25.5 82.5,-6.5 -0.5,-6.5"/>
<text text-anchor="middle" x="41" y="-13.5" font-family="Helvetica,sans-Serif" font-size="10.00">unordered_map</text>
</g>
<!-- Node9&#45;&gt;Node14 -->
<g id="edge15" class="edge"><title>Node9&#45;&gt;Node14</title>
<path fill="none" stroke="midnightblue" d="M99.4379,-124.428C78.5746,-118.047 55.824,-107.008 43,-88 32.6775,-72.7001 33.7416,-51.0212 36.4062,-35.6521"/>
<polygon fill="midnightblue" stroke="midnightblue" points="39.854,-36.2643 38.4895,-25.7577 33.0042,-34.822 39.854,-36.2643"/>
</g>
<!-- Node15&#45;&gt;Node11 -->
<g id="edge18" class="edge"><title>Node15&#45;&gt;Node11</title>
<path fill="none" stroke="midnightblue" d="M1177.17,-68.4035C1188.35,-58.9579 1206.52,-43.6056 1220.09,-32.1342"/>
<polygon fill="midnightblue" stroke="midnightblue" points="1222.47,-34.7085 1227.85,-25.5806 1217.95,-29.3619 1222.47,-34.7085"/>
</g>
<!-- Node16 -->
<g id="node16" class="node"><title>Node16</title>
<polygon fill="none" stroke="#bfbfbf" points="1276.5,-6.5 1276.5,-25.5 1311.5,-25.5 1311.5,-6.5 1276.5,-6.5"/>
<text text-anchor="middle" x="1294" y="-13.5" font-family="Helvetica,sans-Serif" font-size="10.00">map</text>
</g>
<!-- Node15&#45;&gt;Node16 -->
<g id="edge17" class="edge"><title>Node15&#45;&gt;Node16</title>
<path fill="none" stroke="midnightblue" d="M1187.54,-68.3602C1207.92,-59.6451 1239.94,-45.5733 1267,-32 1267.98,-31.5071 1268.98,-30.9969 1269.99,-30.4754"/>
<polygon fill="midnightblue" stroke="midnightblue" points="1271.83,-33.4558 1278.98,-25.6363 1268.52,-27.2909 1271.83,-33.4558"/>
</g>
<!-- Node17 -->
<g id="node17" class="node"><title>Node17</title>
<polygon fill="none" stroke="#bfbfbf" points="1155,-6.5 1155,-25.5 1199,-25.5 1199,-6.5 1155,-6.5"/>
<text text-anchor="middle" x="1177" y="-13.5" font-family="Helvetica,sans-Serif" font-size="10.00">vector</text>
</g>
<!-- Node15&#45;&gt;Node17 -->
<g id="edge19" class="edge"><title>Node15&#45;&gt;Node17</title>
<path fill="none" stroke="midnightblue" d="M1168.43,-68.4035C1169.86,-59.849 1172.09,-46.4497 1173.92,-35.4762"/>
<polygon fill="midnightblue" stroke="midnightblue" points="1177.38,-36.02 1175.57,-25.5806 1170.47,-34.8691 1177.38,-36.02"/>
</g>
<!-- Node18&#45;&gt;Node3 -->
<g id="edge49" class="edge"><title>Node18&#45;&gt;Node3</title>
<path fill="none" stroke="midnightblue" d="M1027.31,-254.538C871.605,-247.291 472.275,-221.441 368,-144 352.293,-132.335 341.963,-112.092 336.092,-97.288"/>
<polygon fill="midnightblue" stroke="midnightblue" points="339.301,-95.8704 332.592,-87.6705 332.723,-98.2645 339.301,-95.8704"/>
</g>
<!-- Node18&#45;&gt;Node5 -->
<g id="edge21" class="edge"><title>Node18&#45;&gt;Node5</title>
<path fill="none" stroke="midnightblue" d="M1027.44,-256.441C953.141,-254.17 826.283,-245.19 723,-212 677.156,-197.268 629.018,-167.386 602.53,-149.489"/>
<polygon fill="midnightblue" stroke="midnightblue" points="604.328,-146.478 594.104,-143.702 600.366,-152.248 604.328,-146.478"/>
</g>
<!-- Node18&#45;&gt;Node11 -->
<g id="edge48" class="edge"><title>Node18&#45;&gt;Node11</title>
<path fill="none" stroke="midnightblue" d="M1104.08,-248.366C1138.11,-226.564 1224.32,-165.465 1256,-88 1263.2,-70.4038 1255.85,-49.1457 1248.49,-34.5037"/>
<polygon fill="midnightblue" stroke="midnightblue" points="1251.45,-32.6302 1243.57,-25.5502 1245.32,-36.0001 1251.45,-32.6302"/>
</g>
<!-- Node19 -->
<g id="node19" class="node"><title>Node19</title>
<g id="a_node19"><a xlink:href="../../d5/d3f/InputSpec_8h.html" target="_top" xlink:title="Framework/InputSpec.h">
<polygon fill="none" stroke="black" points="1304.5,-186.5 1304.5,-205.5 1425.5,-205.5 1425.5,-186.5 1304.5,-186.5"/>
<text text-anchor="middle" x="1365" y="-193.5" font-family="Helvetica,sans-Serif" font-size="10.00">Framework/InputSpec.h</text>
</a>
</g>
</g>
<!-- Node18&#45;&gt;Node19 -->
<g id="edge22" class="edge"><title>Node18&#45;&gt;Node19</title>
<path fill="none" stroke="midnightblue" d="M1129.11,-248.467C1178.28,-237.738 1262.72,-219.316 1316.11,-207.667"/>
<polygon fill="midnightblue" stroke="midnightblue" points="1317,-211.055 1326.03,-205.503 1315.51,-204.216 1317,-211.055"/>
</g>
<!-- Node35 -->
<g id="node35" class="node"><title>Node35</title>
<polygon fill="none" stroke="#bfbfbf" points="1443.5,-186.5 1443.5,-205.5 1492.5,-205.5 1492.5,-186.5 1443.5,-186.5"/>
<text text-anchor="middle" x="1468" y="-193.5" font-family="Helvetica,sans-Serif" font-size="10.00">cstddef</text>
</g>
<!-- Node18&#45;&gt;Node35 -->
<g id="edge47" class="edge"><title>Node18&#45;&gt;Node35</title>
<path fill="none" stroke="midnightblue" d="M1152.76,-249.019C1250.15,-236.602 1427.28,-213.879 1434,-212 1436.5,-211.3 1439.06,-210.45 1441.59,-209.513"/>
<polygon fill="midnightblue" stroke="midnightblue" points="1443.14,-212.658 1451.05,-205.612 1440.48,-206.186 1443.14,-212.658"/>
</g>
<!-- Node19&#45;&gt;Node11 -->
<g id="edge23" class="edge"><title>Node19&#45;&gt;Node11</title>
<path fill="none" stroke="midnightblue" d="M1359.44,-186.411C1352.96,-176.334 1341.99,-159.083 1333,-144 1313.13,-110.665 1313.64,-98.7779 1290,-68 1279.93,-54.8945 1266.59,-41.8786 1255.95,-32.2763"/>
<polygon fill="midnightblue" stroke="midnightblue" points="1258.24,-29.6368 1248.43,-25.6538 1253.62,-34.8898 1258.24,-29.6368"/>
</g>
<!-- Node20 -->
<g id="node20" class="node"><title>Node20</title>
<polygon fill="none" stroke="#bfbfbf" points="1342,-124.5 1342,-143.5 1394,-143.5 1394,-124.5 1342,-124.5"/>
<text text-anchor="middle" x="1368" y="-131.5" font-family="Helvetica,sans-Serif" font-size="10.00">ostream</text>
</g>
<!-- Node19&#45;&gt;Node20 -->
<g id="edge24" class="edge"><title>Node19&#45;&gt;Node20</title>
<path fill="none" stroke="midnightblue" d="M1365.43,-186.403C1365.85,-177.938 1366.51,-164.728 1367.06,-153.82"/>
<polygon fill="midnightblue" stroke="midnightblue" points="1370.57,-153.743 1367.57,-143.581 1363.58,-153.393 1370.57,-153.743"/>
</g>
<!-- Node21 -->
<g id="node21" class="node"><title>Node21</title>
<g id="a_node21"><a xlink:href="../../dc/dca/Lifetime_8h.html" target="_top" xlink:title="Framework/Lifetime.h">
<polygon fill="none" stroke="black" points="1412.5,-124.5 1412.5,-143.5 1523.5,-143.5 1523.5,-124.5 1412.5,-124.5"/>
<text text-anchor="middle" x="1468" y="-131.5" font-family="Helvetica,sans-Serif" font-size="10.00">Framework/Lifetime.h</text>
</a>
</g>
</g>
<!-- Node19&#45;&gt;Node21 -->
<g id="edge25" class="edge"><title>Node19&#45;&gt;Node21</title>
<path fill="none" stroke="midnightblue" d="M1379.76,-186.403C1396.66,-176.557 1424.58,-160.291 1444.49,-148.695"/>
<polygon fill="midnightblue" stroke="midnightblue" points="1446.39,-151.638 1453.27,-143.581 1442.87,-145.59 1446.39,-151.638"/>
</g>
<!-- Node19&#45;&gt;Node22 -->
<g id="edge26" class="edge"><title>Node19&#45;&gt;Node22</title>
<path fill="none" stroke="midnightblue" d="M1304.38,-186.97C1220.43,-175.851 1069.18,-155.818 980.997,-144.139"/>
<polygon fill="midnightblue" stroke="midnightblue" points="981.201,-140.635 970.828,-142.792 980.282,-147.575 981.201,-140.635"/>
</g>
<!-- Node22&#45;&gt;Node6 -->
<g id="edge27" class="edge"><title>Node22&#45;&gt;Node6</title>
<path fill="none" stroke="midnightblue" d="M853.174,-127.191C766.189,-118.417 606.381,-101.547 532.199,-87.9142"/>
<polygon fill="midnightblue" stroke="midnightblue" points="532.798,-84.4652 522.317,-86.0132 531.475,-91.3392 532.798,-84.4652"/>
</g>
<!-- Node22&#45;&gt;Node8 -->
<g id="edge28" class="edge"><title>Node22&#45;&gt;Node8</title>
<path fill="none" stroke="midnightblue" d="M853.298,-129.893C769.714,-124.845 611.533,-112.986 468.14,-87.9574"/>
<polygon fill="midnightblue" stroke="midnightblue" points="468.737,-84.5088 458.28,-86.2112 467.516,-91.4015 468.737,-84.5088"/>
</g>
<!-- Node22&#45;&gt;Node11 -->
<g id="edge33" class="edge"><title>Node22&#45;&gt;Node11</title>
<path fill="none" stroke="midnightblue" d="M939.435,-124.353C965.231,-115.954 1004.74,-102.392 1038,-88 1055.88,-80.2632 1058.85,-75.0805 1077,-68 1132.85,-46.2085 1150.9,-53.1425 1207,-32 1208.85,-31.3042 1210.73,-30.5385 1212.62,-29.7326"/>
<polygon fill="midnightblue" stroke="midnightblue" points="1214.2,-32.8553 1221.83,-25.5039 1211.28,-26.493 1214.2,-32.8553"/>
</g>
<!-- Node23 -->
<g id="node23" class="node"><title>Node23</title>
<polygon fill="none" stroke="#bfbfbf" points="540.5,-68.5 540.5,-87.5 589.5,-87.5 589.5,-68.5 540.5,-68.5"/>
<text text-anchor="middle" x="565" y="-75.5" font-family="Helvetica,sans-Serif" font-size="10.00">cassert</text>
</g>
<!-- Node22&#45;&gt;Node23 -->
<g id="edge29" class="edge"><title>Node22&#45;&gt;Node23</title>
<path fill="none" stroke="midnightblue" d="M853.289,-125.006C777.698,-114.611 650.536,-96.754 604,-88 602.549,-87.727 601.07,-87.4373 599.578,-87.1356"/>
<polygon fill="midnightblue" stroke="midnightblue" points="600.205,-83.6906 589.694,-85.019 598.739,-90.5355 600.205,-83.6906"/>
</g>
<!-- Node24 -->
<g id="node24" class="node"><title>Node24</title>
<polygon fill="none" stroke="#bfbfbf" points="190,-6.5 190,-25.5 236,-25.5 236,-6.5 190,-6.5"/>
<text text-anchor="middle" x="213" y="-13.5" font-family="Helvetica,sans-Serif" font-size="10.00">cstring</text>
</g>
<!-- Node22&#45;&gt;Node24 -->
<g id="edge30" class="edge"><title>Node22&#45;&gt;Node24</title>
<path fill="none" stroke="midnightblue" d="M853.273,-125.57C784.831,-116.529 676.117,-100.877 637,-88 618.497,-81.9089 616.679,-73.5281 598,-68 446.781,-23.246 396.99,-74.0618 245,-32 242.655,-31.351 240.269,-30.5432 237.91,-29.6413"/>
<polygon fill="midnightblue" stroke="midnightblue" points="239.113,-26.3481 228.547,-25.57 236.322,-32.7674 239.113,-26.3481"/>
</g>
<!-- Node25 -->
<g id="node25" class="node"><title>Node25</title>
<polygon fill="none" stroke="#bfbfbf" points="974,-68.5 974,-87.5 1030,-87.5 1030,-68.5 974,-68.5"/>
<text text-anchor="middle" x="1002" y="-75.5" font-family="Helvetica,sans-Serif" font-size="10.00">algorithm</text>
</g>
<!-- Node22&#45;&gt;Node25 -->
<g id="edge31" class="edge"><title>Node22&#45;&gt;Node25</title>
<path fill="none" stroke="midnightblue" d="M926.46,-124.324C940.5,-115.9 962.048,-102.971 978.543,-93.0741"/>
<polygon fill="midnightblue" stroke="midnightblue" points="980.802,-95.8007 987.576,-87.6545 977.2,-89.7983 980.802,-95.8007"/>
</g>
<!-- Node26 -->
<g id="node26" class="node"><title>Node26</title>
<polygon fill="none" stroke="#bfbfbf" points="896.5,-68.5 896.5,-87.5 955.5,-87.5 955.5,-68.5 896.5,-68.5"/>
<text text-anchor="middle" x="926" y="-75.5" font-family="Helvetica,sans-Serif" font-size="10.00">stdexcept</text>
</g>
<!-- Node22&#45;&gt;Node26 -->
<g id="edge32" class="edge"><title>Node22&#45;&gt;Node26</title>
<path fill="none" stroke="midnightblue" d="M914.312,-124.083C916.167,-116.927 918.835,-106.635 921.154,-97.6911"/>
<polygon fill="midnightblue" stroke="midnightblue" points="924.609,-98.3094 923.731,-87.7511 917.834,-96.5527 924.609,-98.3094"/>
</g>
<!-- Node27 -->
<g id="node27" class="node"><title>Node27</title>
<g id="a_node27"><a xlink:href="../../dc/d03/MemoryResources_8h.html" target="_top" xlink:title="MemoryResources/MemoryResources.h">
<polygon fill="none" stroke="black" points="646.5,-68.5 646.5,-87.5 839.5,-87.5 839.5,-68.5 646.5,-68.5"/>
<text text-anchor="middle" x="743" y="-75.5" font-family="Helvetica,sans-Serif" font-size="10.00">MemoryResources/MemoryResources.h</text>
</a>
</g>
</g>
<!-- Node22&#45;&gt;Node27 -->
<g id="edge34" class="edge"><title>Node22&#45;&gt;Node27</title>
<path fill="none" stroke="midnightblue" d="M885.221,-124.444C856.667,-115.32 811.267,-100.813 779.463,-90.6509"/>
<polygon fill="midnightblue" stroke="midnightblue" points="780.244,-87.2262 769.653,-87.5164 778.114,-93.8941 780.244,-87.2262"/>
</g>
<!-- Node27&#45;&gt;Node11 -->
<g id="edge40" class="edge"><title>Node27&#45;&gt;Node11</title>
<path fill="none" stroke="midnightblue" d="M839.772,-68.4909C970.58,-56.8611 1189.6,-36.884 1207,-32 1209.2,-31.3829 1211.43,-30.6162 1213.64,-29.7581"/>
<polygon fill="midnightblue" stroke="midnightblue" points="1215.26,-32.8648 1222.97,-25.5932 1212.41,-26.4725 1215.26,-32.8648"/>
</g>
<!-- Node27&#45;&gt;Node12 -->
<g id="edge41" class="edge"><title>Node27&#45;&gt;Node12</title>
<path fill="none" stroke="midnightblue" d="M646.282,-70.7288C497.525,-60.8608 225.066,-41.8233 181,-32 177.491,-31.2178 173.877,-30.1942 170.324,-29.0485"/>
<polygon fill="midnightblue" stroke="midnightblue" points="171.201,-25.6459 160.607,-25.5957 168.858,-32.2419 171.201,-25.6459"/>
</g>
<!-- Node27&#45;&gt;Node14 -->
<g id="edge44" class="edge"><title>Node27&#45;&gt;Node14</title>
<path fill="none" stroke="midnightblue" d="M646.304,-70.6684C473.557,-59.2945 127.415,-36.1945 101,-32 94.3027,-30.9365 87.2581,-29.4848 80.4452,-27.9012"/>
<polygon fill="midnightblue" stroke="midnightblue" points="81.242,-24.493 70.6967,-25.5164 79.5786,-31.2925 81.242,-24.493"/>
</g>
<!-- Node27&#45;&gt;Node17 -->
<g id="edge43" class="edge"><title>Node27&#45;&gt;Node17</title>
<path fill="none" stroke="midnightblue" d="M833.868,-68.4929C943.49,-57.9738 1116.79,-40.4295 1146,-32 1148.19,-31.367 1150.42,-30.589 1152.63,-29.7235"/>
<polygon fill="midnightblue" stroke="midnightblue" points="1154.26,-32.8274 1161.96,-25.5461 1151.4,-26.4387 1154.26,-32.8274"/>
</g>
<!-- Node27&#45;&gt;Node24 -->
<g id="edge39" class="edge"><title>Node27&#45;&gt;Node24</title>
<path fill="none" stroke="midnightblue" d="M646.427,-69.1392C507.058,-57.6698 264.038,-37.1507 245,-32 242.651,-31.3645 240.262,-30.566 237.902,-29.6702"/>
<polygon fill="midnightblue" stroke="midnightblue" points="239.104,-26.3764 228.537,-25.6085 236.318,-32.7985 239.104,-26.3764"/>
</g>
<!-- Node28 -->
<g id="node28" class="node"><title>Node28</title>
<polygon fill="none" stroke="#bfbfbf" points="1037,-1 1037,-31 1137,-31 1137,-1 1037,-1"/>
<text text-anchor="start" x="1045" y="-19" font-family="Helvetica,sans-Serif" font-size="10.00">boost/container/flat</text>
<text text-anchor="middle" x="1087" y="-8" font-family="Helvetica,sans-Serif" font-size="10.00">_map.hpp</text>
</g>
<!-- Node27&#45;&gt;Node28 -->
<g id="edge35" class="edge"><title>Node27&#45;&gt;Node28</title>
<path fill="none" stroke="midnightblue" d="M807.017,-68.4947C864.767,-60.4336 951.915,-47.3034 1027,-32 1027.1,-31.9792 1027.2,-31.9584 1027.31,-31.9375"/>
<polygon fill="midnightblue" stroke="midnightblue" points="1027.95,-35.3801 1036.98,-29.8529 1026.47,-28.537 1027.95,-35.3801"/>
</g>
<!-- Node29 -->
<g id="node29" class="node"><title>Node29</title>
<polygon fill="none" stroke="#bfbfbf" points="254,-1 254,-31 370,-31 370,-1 254,-1"/>
<text text-anchor="start" x="262" y="-19" font-family="Helvetica,sans-Serif" font-size="10.00">boost/container/pmr</text>
<text text-anchor="middle" x="312" y="-8" font-family="Helvetica,sans-Serif" font-size="10.00">/memory_resource.hpp</text>
</g>
<!-- Node27&#45;&gt;Node29 -->
<g id="edge36" class="edge"><title>Node27&#45;&gt;Node29</title>
<path fill="none" stroke="midnightblue" d="M654.381,-68.4795C582.837,-61.0371 479.406,-49.0095 379.956,-32.0648"/>
<polygon fill="midnightblue" stroke="midnightblue" points="380.485,-28.6044 370.036,-30.3556 379.296,-35.5027 380.485,-28.6044"/>
</g>
<!-- Node30 -->
<g id="node30" class="node"><title>Node30</title>
<polygon fill="none" stroke="#bfbfbf" points="388,-1 388,-31 544,-31 544,-1 388,-1"/>
<text text-anchor="start" x="396" y="-19" font-family="Helvetica,sans-Serif" font-size="10.00">boost/container/pmr</text>
<text text-anchor="middle" x="466" y="-8" font-family="Helvetica,sans-Serif" font-size="10.00">/monotonic_buffer_resource.hpp</text>
</g>
<!-- Node27&#45;&gt;Node30 -->
<g id="edge37" class="edge"><title>Node27&#45;&gt;Node30</title>
<path fill="none" stroke="midnightblue" d="M703.607,-68.4672C661.37,-59.3184 593.31,-44.5763 540.835,-33.2097"/>
<polygon fill="midnightblue" stroke="midnightblue" points="541.409,-29.7529 530.894,-31.0565 539.927,-36.5943 541.409,-29.7529"/>
</g>
<!-- Node31 -->
<g id="node31" class="node"><title>Node31</title>
<polygon fill="none" stroke="#bfbfbf" points="562.5,-1 562.5,-31 695.5,-31 695.5,-1 562.5,-1"/>
<text text-anchor="start" x="570.5" y="-19" font-family="Helvetica,sans-Serif" font-size="10.00">boost/container/pmr</text>
<text text-anchor="middle" x="629" y="-8" font-family="Helvetica,sans-Serif" font-size="10.00">/polymorphic_allocator.hpp</text>
</g>
<!-- Node27&#45;&gt;Node31 -->
<g id="edge38" class="edge"><title>Node27&#45;&gt;Node31</title>
<path fill="none" stroke="midnightblue" d="M726.667,-68.4035C710.578,-59.9355 685.469,-46.7204 664.739,-35.8101"/>
<polygon fill="midnightblue" stroke="midnightblue" points="666.347,-32.7011 655.868,-31.1408 663.087,-38.8955 666.347,-32.7011"/>
</g>
<!-- Node32 -->
<g id="node32" class="node"><title>Node32</title>
<polygon fill="none" stroke="#bfbfbf" points="714,-6.5 714,-25.5 754,-25.5 754,-6.5 714,-6.5"/>
<text text-anchor="middle" x="734" y="-13.5" font-family="Helvetica,sans-Serif" font-size="10.00">utility</text>
</g>
<!-- Node27&#45;&gt;Node32 -->
<g id="edge42" class="edge"><title>Node27&#45;&gt;Node32</title>
<path fill="none" stroke="midnightblue" d="M741.711,-68.4035C740.427,-59.849 738.417,-46.4497 736.771,-35.4762"/>
<polygon fill="midnightblue" stroke="midnightblue" points="740.232,-34.9507 735.287,-25.5806 733.309,-35.9892 740.232,-34.9507"/>
</g>
<!-- Node33 -->
<g id="node33" class="node"><title>Node33</title>
<polygon fill="none" stroke="#bfbfbf" points="772.5,-6.5 772.5,-25.5 869.5,-25.5 869.5,-6.5 772.5,-6.5"/>
<text text-anchor="middle" x="821" y="-13.5" font-family="Helvetica,sans-Serif" font-size="10.00">FairMQMessage.h</text>
</g>
<!-- Node27&#45;&gt;Node33 -->
<g id="edge45" class="edge"><title>Node27&#45;&gt;Node33</title>
<path fill="none" stroke="midnightblue" d="M754.175,-68.4035C766.571,-58.8688 786.79,-43.3154 801.746,-31.8106"/>
<polygon fill="midnightblue" stroke="midnightblue" points="804.053,-34.4519 809.845,-25.5806 799.785,-28.9035 804.053,-34.4519"/>
</g>
<!-- Node34 -->
<g id="node34" class="node"><title>Node34</title>
<polygon fill="none" stroke="#bfbfbf" points="887.5,-6.5 887.5,-25.5 1018.5,-25.5 1018.5,-6.5 887.5,-6.5"/>
<text text-anchor="middle" x="953" y="-13.5" font-family="Helvetica,sans-Serif" font-size="10.00">FairMQTransportFactory.h</text>
</g>
<!-- Node27&#45;&gt;Node34 -->
<g id="edge46" class="edge"><title>Node27&#45;&gt;Node34</title>
<path fill="none" stroke="midnightblue" d="M773.088,-68.4035C809.89,-57.8886 872.311,-40.0539 913.094,-28.4016"/>
<polygon fill="midnightblue" stroke="midnightblue" points="914.314,-31.6932 922.968,-25.5806 912.391,-24.9625 914.314,-31.6932"/>
</g>
<!-- Node36&#45;&gt;Node6 -->
<g id="edge53" class="edge"><title>Node36&#45;&gt;Node6</title>
<path fill="none" stroke="midnightblue" d="M797.581,-180.999C792.785,-164.544 782.39,-137.745 763,-124 680.451,-65.4825 635.72,-107.447 532.207,-87.9264"/>
<polygon fill="midnightblue" stroke="midnightblue" points="532.835,-84.4826 522.337,-85.9134 531.436,-91.3413 532.835,-84.4826"/>
</g>
<!-- Node36&#45;&gt;Node8 -->
<g id="edge55" class="edge"><title>Node36&#45;&gt;Node8</title>
<path fill="none" stroke="midnightblue" d="M791.148,-180.808C778.74,-164.166 755.775,-137.182 729,-124 626.431,-73.5044 584.633,-108.631 468.291,-87.9853"/>
<polygon fill="midnightblue" stroke="midnightblue" points="468.773,-84.5148 458.299,-86.1088 467.481,-91.3946 468.773,-84.5148"/>
</g>
<!-- Node36&#45;&gt;Node22 -->
<g id="edge52" class="edge"><title>Node36&#45;&gt;Node22</title>
<path fill="none" stroke="midnightblue" d="M827.025,-180.933C845.083,-171.171 869.006,-158.24 886.867,-148.586"/>
<polygon fill="midnightblue" stroke="midnightblue" points="888.957,-151.434 896.09,-143.6 885.629,-145.276 888.957,-151.434"/>
</g>
<!-- Node36&#45;&gt;Node23 -->
<g id="edge56" class="edge"><title>Node36&#45;&gt;Node23</title>
<path fill="none" stroke="midnightblue" d="M805.78,-180.955C810.166,-165.207 814.183,-139.81 801,-124 772.5,-89.8202 647.582,-97.0058 604,-88 602.554,-87.7012 601.079,-87.39 599.591,-87.0705"/>
<polygon fill="midnightblue" stroke="midnightblue" points="600.24,-83.6296 589.72,-84.8852 598.727,-90.4641 600.24,-83.6296"/>
</g>
<!-- Node37 -->
<g id="node37" class="node"><title>Node37</title>
<polygon fill="none" stroke="#bfbfbf" points="677.5,-124.5 677.5,-143.5 720.5,-143.5 720.5,-124.5 677.5,-124.5"/>
<text text-anchor="middle" x="699" y="-131.5" font-family="Helvetica,sans-Serif" font-size="10.00">cstdio</text>
</g>
<!-- Node36&#45;&gt;Node37 -->
<g id="edge54" class="edge"><title>Node36&#45;&gt;Node37</title>
<path fill="none" stroke="midnightblue" d="M777.086,-180.933C760.645,-171.262 738.915,-158.479 722.553,-148.855"/>
<polygon fill="midnightblue" stroke="midnightblue" points="724.014,-145.654 713.62,-143.6 720.465,-151.687 724.014,-145.654"/>
</g>
</g>
</svg>
        <g id="navigator" transform="translate(0 0)" fill="#404254">
                <rect fill="#f2f5e9" fill-opacity="0.5" stroke="#606060" stroke-width=".5" x="0" y="0" width="60" height="60"/>
                <use id="zoomplus" xlink:href="#zoomPlus" x="17" y="9" onmousedown="handleZoom(evt,'in')"/>
                <use id="zoomminus" xlink:href="#zoomMin" x="42" y="9" onmousedown="handleZoom(evt,'out')"/>
                <use id="reset" xlink:href="#resetDef" x="30" y="36" onmousedown="handleReset()"/>
                <g id="arrowUp" xlink:href="#dirArrow" transform="translate(30 24)" onmousedown="handlePan(0,-1)">
                  <use xlink:href="#rim" fill="#404040">
                        <set attributeName="fill" to="#808080" begin="arrowUp.mouseover" end="arrowUp.mouseout"/>
                  </use>
                  <path fill="none" stroke="white" stroke-width="1.5" d="M0,-3.0v7 M-2.5,-0.5L0,-3.0L2.5,-0.5"/>
                </g>
                <g id="arrowRight" xlink:href="#dirArrow" transform="rotate(90) translate(36 -43)" onmousedown="handlePan(1,0)">
                  <use xlink:href="#rim" fill="#404040">
                        <set attributeName="fill" to="#808080" begin="arrowRight.mouseover" end="arrowRight.mouseout"/>
                  </use>
                  <path fill="none" stroke="white" stroke-width="1.5" d="M0,-3.0v7 M-2.5,-0.5L0,-3.0L2.5,-0.5"/>
                </g>
                <g id="arrowDown" xlink:href="#dirArrow" transform="rotate(180) translate(-30 -48)" onmousedown="handlePan(0,1)">
                  <use xlink:href="#rim" fill="#404040">
                        <set attributeName="fill" to="#808080" begin="arrowDown.mouseover" end="arrowDown.mouseout"/>
                  </use>
                  <path fill="none" stroke="white" stroke-width="1.5" d="M0,-3.0v7 M-2.5,-0.5L0,-3.0L2.5,-0.5"/>
                </g>
                <g id="arrowLeft" xlink:href="#dirArrow" transform="rotate(270) translate(-36 17)" onmousedown="handlePan(-1,0)">
                  <use xlink:href="#rim" fill="#404040">
                        <set attributeName="fill" to="#808080" begin="arrowLeft.mouseover" end="arrowLeft.mouseout"/>
                  </use>
                  <path fill="none" stroke="white" stroke-width="1.5" d="M0,-3.0v7 M-2.5,-0.5L0,-3.0L2.5,-0.5"/>
                </g>
        </g>
        <svg viewBox="0 0 15 15" width="100%" height="30px" preserveAspectRatio="xMaxYMin meet">
         <g id="arrow_out" transform="scale(0.3 0.3)">
          <a xlink:href="LifetimeHelpers_8cxx__incl_org.svg" target="_base">
           <rect id="button" ry="5" rx="5" y="6" x="6" height="38" width="38"
                fill="#f2f5e9" fill-opacity="0.5" stroke="#606060" stroke-width="1.0"/>
           <path id="arrow"
             d="M 11.500037,31.436501 C 11.940474,20.09759 22.043105,11.32322 32.158766,21.979434 L 37.068811,17.246167 C 37.068811,17.246167 37.088388,32 37.088388,32 L 22.160133,31.978069 C 22.160133,31.978069 26.997745,27.140456 26.997745,27.140456 C 18.528582,18.264221 13.291696,25.230495 11.500037,31.436501 z"
             style="fill:#404040;"/>
          </a>
         </g>
        </svg>
</svg>
