<?xml version="1.0" encoding="UTF-8" standalone="no"?>
<!DOCTYPE svg PUBLIC "-//W3C//DTD SVG 1.1//EN"
 "http://www.w3.org/Graphics/SVG/1.1/DTD/svg11.dtd">
<!-- Generated by graphviz version 2.36.0 (20140111.2315)
 -->
<!-- Title: /home/travis/build/AliceO2Group/AliceO2/Framework/Core/include/Framework/InputRecord.h Pages: 1 -->
<!--zoomable 354 -->
<svg id="main" version="1.1" xmlns="http://www.w3.org/2000/svg" xmlns:xlink="http://www.w3.org/1999/xlink" xml:space="preserve" onload="init(evt)">
<style type="text/css"><![CDATA[
.edge:hover path { stroke: red; }
.edge:hover polygon { stroke: red; fill: red; }
]]></style>
<script type="text/javascript"><![CDATA[
var edges = document.getElementsByTagName('g');
if (edges && edges.length) {
  for (var i=0;i<edges.length;i++) {
    if (edges[i].id.substr(0,4)=='edge') {
      edges[i].setAttribute('class','edge');
    }
  }
}
]]></script>
        <defs>
                <circle id="rim" cx="0" cy="0" r="7"/>
                <circle id="rim2" cx="0" cy="0" r="3.5"/>
                <g id="zoomPlus">
                        <use xlink:href="#rim" fill="#404040">
                                <set attributeName="fill" to="#808080" begin="zoomplus.mouseover" end="zoomplus.mouseout"/>
                        </use>
                        <path d="M-4,0h8M0,-4v8" fill="none" stroke="white" stroke-width="1.5" pointer-events="none"/>
                </g>
                <g id="zoomMin">
                        <use xlink:href="#rim" fill="#404040">
                                <set attributeName="fill" to="#808080" begin="zoomminus.mouseover" end="zoomminus.mouseout"/>
                        </use>
                        <path d="M-4,0h8" fill="none" stroke="white" stroke-width="1.5" pointer-events="none"/>
                </g>
                <g id="dirArrow">
                        <path fill="none" stroke="white" stroke-width="1.5" d="M0,-3.0v7 M-2.5,-0.5L0,-3.0L2.5,-0.5"/>
                </g>
               <g id="resetDef">
                       <use xlink:href="#rim2" fill="#404040">
                               <set attributeName="fill" to="#808080" begin="reset.mouseover" end="reset.mouseout"/>
                       </use>
               </g>
        </defs>

<script type="text/javascript">
var viewWidth = 1877;
var viewHeight = 354;
var sectionId = 'dynsection-0';
</script>
<script xlink:href="../../svgpan.js"/>
<svg id="graph" class="graph">
<g id="viewport">
<title>/home/travis/build/AliceO2Group/AliceO2/Framework/Core/include/Framework/InputRecord.h</title>
<!-- Node1 -->
<g id="node1" class="node"><title>Node1</title>
<polygon fill="#bfbfbf" stroke="black" points="1134.5,-293 1134.5,-345 1267.5,-345 1267.5,-293 1134.5,-293"/>
<text text-anchor="start" x="1142.5" y="-333" font-family="Helvetica,sans-Serif" font-size="10.00">/home/travis/build</text>
<text text-anchor="start" x="1142.5" y="-322" font-family="Helvetica,sans-Serif" font-size="10.00">/AliceO2Group/AliceO2</text>
<text text-anchor="start" x="1142.5" y="-311" font-family="Helvetica,sans-Serif" font-size="10.00">/Framework/Core/include</text>
<text text-anchor="middle" x="1201" y="-300" font-family="Helvetica,sans-Serif" font-size="10.00">/Framework/InputRecord.h</text>
</g>
<!-- Node2 -->
<g id="node2" class="node"><title>Node2</title>
<g id="a_node2"><a xlink:href="../../d5/dfb/DataRef_8h.html" target="_top" xlink:title="Framework/DataRef.h">
<polygon fill="none" stroke="black" points="28.5,-180.5 28.5,-199.5 141.5,-199.5 141.5,-180.5 28.5,-180.5"/>
<text text-anchor="middle" x="85" y="-187.5" font-family="Helvetica,sans-Serif" font-size="10.00">Framework/DataRef.h</text>
</a>
</g>
</g>
<!-- Node1&#45;&gt;Node2 -->
<g id="edge1" class="edge"><title>Node1&#45;&gt;Node2</title>
<path fill="none" stroke="midnightblue" d="M1134.36,-311.516C1024.15,-300.691 796.985,-277.956 605,-256 405.201,-233.151 355.53,-225.089 156,-200 154.536,-199.816 153.055,-199.63 151.562,-199.442"/>
<polygon fill="midnightblue" stroke="midnightblue" points="151.939,-195.961 141.58,-198.183 151.063,-202.906 151.939,-195.961"/>
</g>
<!-- Node3 -->
<g id="node3" class="node"><title>Node3</title>
<g id="a_node3"><a xlink:href="../../d5/db8/DataRefUtils_8h.html" target="_top" xlink:title="Framework/DataRefUtils.h">
<polygon fill="none" stroke="black" points="614,-236.5 614,-255.5 748,-255.5 748,-236.5 614,-236.5"/>
<text text-anchor="middle" x="681" y="-243.5" font-family="Helvetica,sans-Serif" font-size="10.00">Framework/DataRefUtils.h</text>
</a>
</g>
</g>
<!-- Node1&#45;&gt;Node3 -->
<g id="edge2" class="edge"><title>Node1&#45;&gt;Node3</title>
<path fill="none" stroke="midnightblue" d="M1134.35,-308.9C1036.45,-295.532 854.467,-270.685 753.393,-256.884"/>
<polygon fill="midnightblue" stroke="midnightblue" points="753.654,-253.388 743.272,-255.503 752.707,-260.323 753.654,-253.388"/>
</g>
<!-- Node6 -->
<g id="node6" class="node"><title>Node6</title>
<polygon fill="none" stroke="#bfbfbf" points="1061,-68.5 1061,-87.5 1113,-87.5 1113,-68.5 1061,-68.5"/>
<text text-anchor="middle" x="1087" y="-75.5" font-family="Helvetica,sans-Serif" font-size="10.00">memory</text>
</g>
<!-- Node1&#45;&gt;Node6 -->
<g id="edge69" class="edge"><title>Node1&#45;&gt;Node6</title>
<path fill="none" stroke="midnightblue" d="M1187.17,-292.839C1181.13,-281.64 1174.05,-268.242 1168,-256 1139.61,-198.572 1108.85,-129.137 1094.8,-96.9688"/>
<polygon fill="midnightblue" stroke="midnightblue" points="1097.9,-95.3305 1090.7,-87.5594 1091.48,-98.1253 1097.9,-95.3305"/>
</g>
<!-- Node7 -->
<g id="node7" class="node"><title>Node7</title>
<polygon fill="none" stroke="#bfbfbf" points="1246.5,-68.5 1246.5,-87.5 1295.5,-87.5 1295.5,-68.5 1246.5,-68.5"/>
<text text-anchor="middle" x="1271" y="-75.5" font-family="Helvetica,sans-Serif" font-size="10.00">cassert</text>
</g>
<!-- Node1&#45;&gt;Node7 -->
<g id="edge67" class="edge"><title>Node1&#45;&gt;Node7</title>
<path fill="none" stroke="midnightblue" d="M1202.53,-292.814C1205.59,-254.827 1214.41,-181.233 1239,-124 1243.39,-113.78 1250.38,-103.58 1256.7,-95.4812"/>
<polygon fill="midnightblue" stroke="midnightblue" points="1259.52,-97.5681 1263.15,-87.6165 1254.1,-93.129 1259.52,-97.5681"/>
</g>
<!-- Node8 -->
<g id="node8" class="node"><title>Node8</title>
<polygon fill="none" stroke="#bfbfbf" points="1375,-6.5 1375,-25.5 1421,-25.5 1421,-6.5 1375,-6.5"/>
<text text-anchor="middle" x="1398" y="-13.5" font-family="Helvetica,sans-Serif" font-size="10.00">cstring</text>
</g>
<!-- Node1&#45;&gt;Node8 -->
<g id="edge66" class="edge"><title>Node1&#45;&gt;Node8</title>
<path fill="none" stroke="midnightblue" d="M1232.41,-292.883C1270.12,-261.395 1333.37,-204.201 1374,-144 1389.15,-121.555 1392.56,-114.525 1398,-88 1401.56,-70.6597 1401.13,-50.4312 1400.06,-36.0117"/>
<polygon fill="midnightblue" stroke="midnightblue" points="1403.53,-35.4993 1399.13,-25.8592 1396.55,-36.1361 1403.53,-35.4993"/>
</g>
<!-- Node11 -->
<g id="node11" class="node"><title>Node11</title>
<polygon fill="none" stroke="#bfbfbf" points="1491.5,-6.5 1491.5,-25.5 1532.5,-25.5 1532.5,-6.5 1491.5,-6.5"/>
<text text-anchor="middle" x="1512" y="-13.5" font-family="Helvetica,sans-Serif" font-size="10.00">string</text>
</g>
<!-- Node1&#45;&gt;Node11 -->
<g id="edge64" class="edge"><title>Node1&#45;&gt;Node11</title>
<path fill="none" stroke="midnightblue" d="M1245.47,-292.973C1262.81,-282.43 1282.46,-269.482 1299,-256 1386.72,-184.508 1469.64,-75.5588 1499.91,-33.9541"/>
<polygon fill="midnightblue" stroke="midnightblue" points="1502.84,-35.873 1505.85,-25.7154 1497.16,-31.7775 1502.84,-35.873"/>
</g>
<!-- Node17 -->
<g id="node17" class="node"><title>Node17</title>
<polygon fill="none" stroke="#bfbfbf" points="69,-6.5 69,-25.5 131,-25.5 131,-6.5 69,-6.5"/>
<text text-anchor="middle" x="100" y="-13.5" font-family="Helvetica,sans-Serif" font-size="10.00">type_traits</text>
</g>
<!-- Node1&#45;&gt;Node17 -->
<g id="edge70" class="edge"><title>Node1&#45;&gt;Node17</title>
<path fill="none" stroke="midnightblue" d="M1134.29,-318.006C881.937,-317.163 0,-305.991 0,-191 0,-191 0,-191 0,-133 0,-86.7349 46.1975,-49.7723 75.7928,-30.8399"/>
<polygon fill="midnightblue" stroke="midnightblue" points="77.6967,-33.7779 84.375,-25.5529 74.0251,-27.8181 77.6967,-33.7779"/>
</g>
<!-- Node19 -->
<g id="node19" class="node"><title>Node19</title>
<polygon fill="none" stroke="#bfbfbf" points="1214,-6.5 1214,-25.5 1258,-25.5 1258,-6.5 1214,-6.5"/>
<text text-anchor="middle" x="1236" y="-13.5" font-family="Helvetica,sans-Serif" font-size="10.00">vector</text>
</g>
<!-- Node1&#45;&gt;Node19 -->
<g id="edge65" class="edge"><title>Node1&#45;&gt;Node19</title>
<path fill="none" stroke="midnightblue" d="M1193,-292.916C1175.97,-237.567 1139.31,-106.81 1160,-68 1165.62,-57.4694 1190.81,-41.738 1210.67,-30.5346"/>
<polygon fill="midnightblue" stroke="midnightblue" points="1212.55,-33.4943 1219.6,-25.591 1209.16,-27.3691 1212.55,-33.4943"/>
</g>
<!-- Node33 -->
<g id="node33" class="node"><title>Node33</title>
<g id="a_node33"><a xlink:href="../../d0/d95/TypeTraits_8h.html" target="_top" xlink:title="Framework/TypeTraits.h">
<polygon fill="none" stroke="black" points="885.5,-124.5 885.5,-143.5 1008.5,-143.5 1008.5,-124.5 885.5,-124.5"/>
<text text-anchor="middle" x="947" y="-131.5" font-family="Helvetica,sans-Serif" font-size="10.00">Framework/TypeTraits.h</text>
</a>
</g>
</g>
<!-- Node1&#45;&gt;Node33 -->
<g id="edge59" class="edge"><title>Node1&#45;&gt;Node33</title>
<path fill="none" stroke="midnightblue" d="M1134.31,-309.289C1071.43,-299.633 983.577,-281.92 961,-256 936.196,-227.525 939.184,-179.899 943.261,-153.695"/>
<polygon fill="midnightblue" stroke="midnightblue" points="946.751,-154.06 945.055,-143.601 939.859,-152.834 946.751,-154.06"/>
</g>
<!-- Node37 -->
<g id="node37" class="node"><title>Node37</title>
<g id="a_node37"><a xlink:href="../../d5/d19/InputRoute_8h.html" target="_top" xlink:title="Framework/InputRoute.h">
<polygon fill="none" stroke="black" points="1602.5,-236.5 1602.5,-255.5 1727.5,-255.5 1727.5,-236.5 1602.5,-236.5"/>
<text text-anchor="middle" x="1665" y="-243.5" font-family="Helvetica,sans-Serif" font-size="10.00">Framework/InputRoute.h</text>
</a>
</g>
</g>
<!-- Node1&#45;&gt;Node37 -->
<g id="edge47" class="edge"><title>Node1&#45;&gt;Node37</title>
<path fill="none" stroke="midnightblue" d="M1267.97,-307.752C1356.45,-294.213 1511.32,-270.516 1599.2,-257.068"/>
<polygon fill="midnightblue" stroke="midnightblue" points="1599.96,-260.493 1609.32,-255.52 1598.9,-253.573 1599.96,-260.493"/>
</g>
<!-- Node44 -->
<g id="node44" class="node"><title>Node44</title>
<g id="a_node44"><a xlink:href="../../da/d0f/InputSpan_8h.html" target="_top" xlink:title="Framework/InputSpan.h">
<polygon fill="none" stroke="black" points="1456.5,-236.5 1456.5,-255.5 1577.5,-255.5 1577.5,-236.5 1456.5,-236.5"/>
<text text-anchor="middle" x="1517" y="-243.5" font-family="Helvetica,sans-Serif" font-size="10.00">Framework/InputSpan.h</text>
</a>
</g>
</g>
<!-- Node1&#45;&gt;Node44 -->
<g id="edge60" class="edge"><title>Node1&#45;&gt;Node44</title>
<path fill="none" stroke="midnightblue" d="M1267.63,-303.029C1327.85,-289.499 1415.05,-269.907 1468.77,-257.836"/>
<polygon fill="midnightblue" stroke="midnightblue" points="1469.74,-261.206 1478.73,-255.599 1468.2,-254.377 1469.74,-261.206"/>
</g>
<!-- Node45 -->
<g id="node45" class="node"><title>Node45</title>
<g id="a_node45"><a xlink:href="../../dc/d03/TableConsumer_8h.html" target="_top" xlink:title="Framework/TableConsumer.h">
<polygon fill="none" stroke="black" points="970,-236.5 970,-255.5 1116,-255.5 1116,-236.5 970,-236.5"/>
<text text-anchor="middle" x="1043" y="-243.5" font-family="Helvetica,sans-Serif" font-size="10.00">Framework/TableConsumer.h</text>
</a>
</g>
</g>
<!-- Node1&#45;&gt;Node45 -->
<g id="edge61" class="edge"><title>Node1&#45;&gt;Node45</title>
<path fill="none" stroke="midnightblue" d="M1145.3,-292.968C1120.4,-281.783 1092.13,-269.075 1071.62,-259.86"/>
<polygon fill="midnightblue" stroke="midnightblue" points="1072.78,-256.545 1062.22,-255.639 1069.91,-262.93 1072.78,-256.545"/>
</g>
<!-- Node46 -->
<g id="node46" class="node"><title>Node46</title>
<polygon fill="none" stroke="#bfbfbf" points="1745.5,-236.5 1745.5,-255.5 1792.5,-255.5 1792.5,-236.5 1745.5,-236.5"/>
<text text-anchor="middle" x="1769" y="-243.5" font-family="Helvetica,sans-Serif" font-size="10.00">iterator</text>
</g>
<!-- Node1&#45;&gt;Node46 -->
<g id="edge63" class="edge"><title>Node1&#45;&gt;Node46</title>
<path fill="none" stroke="midnightblue" d="M1267.8,-313.513C1367.66,-306.088 1561.77,-288.885 1735.48,-255.814"/>
<polygon fill="midnightblue" stroke="midnightblue" points="1736.15,-259.249 1745.31,-253.921 1734.83,-252.375 1736.15,-259.249"/>
</g>
<!-- Node47 -->
<g id="node47" class="node"><title>Node47</title>
<polygon fill="none" stroke="#bfbfbf" points="1810.5,-236.5 1810.5,-255.5 1869.5,-255.5 1869.5,-236.5 1810.5,-236.5"/>
<text text-anchor="middle" x="1840" y="-243.5" font-family="Helvetica,sans-Serif" font-size="10.00">exception</text>
</g>
<!-- Node1&#45;&gt;Node47 -->
<g id="edge68" class="edge"><title>Node1&#45;&gt;Node47</title>
<path fill="none" stroke="midnightblue" d="M1267.5,-313.83C1376.73,-306.388 1601,-288.617 1800.2,-255.93"/>
<polygon fill="midnightblue" stroke="midnightblue" points="1800.97,-259.349 1810.27,-254.261 1799.83,-252.443 1800.97,-259.349"/>
</g>
<!-- Node3&#45;&gt;Node2 -->
<g id="edge3" class="edge"><title>Node3&#45;&gt;Node2</title>
<path fill="none" stroke="midnightblue" d="M613.788,-240.116C513.847,-232.656 320.198,-217.437 156,-200 154.533,-199.844 153.049,-199.683 151.553,-199.519"/>
<polygon fill="midnightblue" stroke="midnightblue" points="151.889,-196.034 141.557,-198.379 151.096,-202.989 151.889,-196.034"/>
</g>
<!-- Node4 -->
<g id="node4" class="node"><title>Node4</title>
<g id="a_node4"><a xlink:href="../../dc/dcd/DataHeader_8h.html" target="_top" xlink:title="Headers/DataHeader.h">
<polygon fill="none" stroke="black" points="1248.5,-124.5 1248.5,-143.5 1365.5,-143.5 1365.5,-124.5 1248.5,-124.5"/>
<text text-anchor="middle" x="1307" y="-131.5" font-family="Helvetica,sans-Serif" font-size="10.00">Headers/DataHeader.h</text>
</a>
</g>
</g>
<!-- Node3&#45;&gt;Node4 -->
<g id="edge4" class="edge"><title>Node3&#45;&gt;Node4</title>
<path fill="none" stroke="midnightblue" d="M739.088,-236.483C797.131,-227.833 888.874,-213.785 968,-200 1069.85,-182.256 1188.38,-158.908 1254.86,-145.567"/>
<polygon fill="midnightblue" stroke="midnightblue" points="1255.95,-148.917 1265.07,-143.514 1254.58,-142.054 1255.95,-148.917"/>
</g>
<!-- Node10 -->
<g id="node10" class="node"><title>Node10</title>
<polygon fill="none" stroke="#bfbfbf" points="1169.5,-68.5 1169.5,-87.5 1228.5,-87.5 1228.5,-68.5 1169.5,-68.5"/>
<text text-anchor="middle" x="1199" y="-75.5" font-family="Helvetica,sans-Serif" font-size="10.00">stdexcept</text>
</g>
<!-- Node3&#45;&gt;Node10 -->
<g id="edge43" class="edge"><title>Node3&#45;&gt;Node10</title>
<path fill="none" stroke="midnightblue" d="M748.217,-236.629C797.112,-229.536 864.533,-217.665 922,-200 922.801,-199.754 1098.89,-122.773 1169.86,-91.7421"/>
<polygon fill="midnightblue" stroke="midnightblue" points="1171.39,-94.8943 1179.15,-87.6812 1168.58,-88.4806 1171.39,-94.8943"/>
</g>
<!-- Node3&#45;&gt;Node17 -->
<g id="edge45" class="edge"><title>Node3&#45;&gt;Node17</title>
<path fill="none" stroke="midnightblue" d="M613.749,-238.372C466.913,-222.362 125.279,-176.238 57,-88 43.0548,-69.9783 62.7423,-47.1316 79.8348,-32.2961"/>
<polygon fill="midnightblue" stroke="midnightblue" points="82.3475,-34.7619 87.8584,-25.7131 77.9074,-29.3502 82.3475,-34.7619"/>
</g>
<!-- Node23 -->
<g id="node23" class="node"><title>Node23</title>
<g id="a_node23"><a xlink:href="../../d8/d3c/TMessageSerializer_8h.html" target="_top" xlink:title="Framework/TMessageSerializer.h">
<polygon fill="none" stroke="black" points="404.5,-124.5 404.5,-143.5 567.5,-143.5 567.5,-124.5 404.5,-124.5"/>
<text text-anchor="middle" x="486" y="-131.5" font-family="Helvetica,sans-Serif" font-size="10.00">Framework/TMessageSerializer.h</text>
</a>
</g>
</g>
<!-- Node3&#45;&gt;Node23 -->
<g id="edge25" class="edge"><title>Node3&#45;&gt;Node23</title>
<path fill="none" stroke="midnightblue" d="M613.908,-243.441C577.341,-239.128 533.801,-227.836 505,-200 492.593,-188.008 488.167,-168.402 486.649,-153.854"/>
<polygon fill="midnightblue" stroke="midnightblue" points="490.117,-153.258 485.958,-143.513 483.132,-153.724 490.117,-153.258"/>
</g>
<!-- Node32 -->
<g id="node32" class="node"><title>Node32</title>
<g id="a_node32"><a xlink:href="../../d1/d53/SerializationMethods_8h.html" target="_top" xlink:title="Type wrappers for enfording a specific serialization method. ">
<polygon fill="none" stroke="black" points="721.5,-180.5 721.5,-199.5 888.5,-199.5 888.5,-180.5 721.5,-180.5"/>
<text text-anchor="middle" x="805" y="-187.5" font-family="Helvetica,sans-Serif" font-size="10.00">Framework/SerializationMethods.h</text>
</a>
</g>
</g>
<!-- Node3&#45;&gt;Node32 -->
<g id="edge36" class="edge"><title>Node3&#45;&gt;Node32</title>
<path fill="none" stroke="midnightblue" d="M700.648,-236.444C720.965,-227.596 752.903,-213.687 776.098,-203.586"/>
<polygon fill="midnightblue" stroke="midnightblue" points="777.673,-206.718 785.444,-199.516 774.878,-200.3 777.673,-206.718"/>
</g>
<!-- Node3&#45;&gt;Node33 -->
<g id="edge41" class="edge"><title>Node3&#45;&gt;Node33</title>
<path fill="none" stroke="midnightblue" d="M748.318,-242.991C793.381,-238.893 852.382,-227.988 897,-200 915.402,-188.457 929.63,-167.583 938.122,-152.602"/>
<polygon fill="midnightblue" stroke="midnightblue" points="941.219,-154.233 942.861,-143.766 935.05,-150.924 941.219,-154.233"/>
</g>
<!-- Node34 -->
<g id="node34" class="node"><title>Node34</title>
<polygon fill="none" stroke="#bfbfbf" points="514,-180.5 514,-199.5 570,-199.5 570,-180.5 514,-180.5"/>
<text text-anchor="middle" x="542" y="-187.5" font-family="Helvetica,sans-Serif" font-size="10.00">TClass.h</text>
</g>
<!-- Node3&#45;&gt;Node34 -->
<g id="edge42" class="edge"><title>Node3&#45;&gt;Node34</title>
<path fill="none" stroke="midnightblue" d="M658.975,-236.444C635.896,-227.478 599.438,-213.314 573.359,-203.183"/>
<polygon fill="midnightblue" stroke="midnightblue" points="574.511,-199.875 563.922,-199.516 571.976,-206.4 574.511,-199.875"/>
</g>
<!-- Node35 -->
<g id="node35" class="node"><title>Node35</title>
<polygon fill="none" stroke="#bfbfbf" points="588,-180.5 588,-199.5 640,-199.5 640,-180.5 588,-180.5"/>
<text text-anchor="middle" x="614" y="-187.5" font-family="Helvetica,sans-Serif" font-size="10.00">sstream</text>
</g>
<!-- Node3&#45;&gt;Node35 -->
<g id="edge44" class="edge"><title>Node3&#45;&gt;Node35</title>
<path fill="none" stroke="midnightblue" d="M670.235,-236.324C660.234,-228.263 645.113,-216.077 633.07,-206.369"/>
<polygon fill="midnightblue" stroke="midnightblue" points="634.943,-203.384 624.961,-199.834 630.55,-208.834 634.943,-203.384"/>
</g>
<!-- Node36 -->
<g id="node36" class="node"><title>Node36</title>
<polygon fill="none" stroke="#bfbfbf" points="658.5,-180.5 658.5,-199.5 703.5,-199.5 703.5,-180.5 658.5,-180.5"/>
<text text-anchor="middle" x="681" y="-187.5" font-family="Helvetica,sans-Serif" font-size="10.00">gsl/gsl</text>
</g>
<!-- Node3&#45;&gt;Node36 -->
<g id="edge46" class="edge"><title>Node3&#45;&gt;Node36</title>
<path fill="none" stroke="midnightblue" d="M681,-236.083C681,-229.006 681,-218.861 681,-209.986"/>
<polygon fill="midnightblue" stroke="midnightblue" points="684.5,-209.751 681,-199.751 677.5,-209.751 684.5,-209.751"/>
</g>
<!-- Node5 -->
<g id="node5" class="node"><title>Node5</title>
<polygon fill="none" stroke="#bfbfbf" points="1597,-68.5 1597,-87.5 1643,-87.5 1643,-68.5 1597,-68.5"/>
<text text-anchor="middle" x="1620" y="-75.5" font-family="Helvetica,sans-Serif" font-size="10.00">cstdint</text>
</g>
<!-- Node4&#45;&gt;Node5 -->
<g id="edge5" class="edge"><title>Node4&#45;&gt;Node5</title>
<path fill="none" stroke="midnightblue" d="M1356.6,-124.444C1421.05,-113.324 1531.84,-94.2098 1586.92,-84.7078"/>
<polygon fill="midnightblue" stroke="midnightblue" points="1587.58,-88.1443 1596.84,-82.9951 1586.39,-81.2462 1587.58,-88.1443"/>
</g>
<!-- Node4&#45;&gt;Node6 -->
<g id="edge6" class="edge"><title>Node4&#45;&gt;Node6</title>
<path fill="none" stroke="midnightblue" d="M1272.14,-124.444C1231.37,-114.437 1164.23,-97.9554 1122.98,-87.8317"/>
<polygon fill="midnightblue" stroke="midnightblue" points="1123.63,-84.3874 1113.08,-85.4026 1121.96,-91.1856 1123.63,-84.3874"/>
</g>
<!-- Node4&#45;&gt;Node7 -->
<g id="edge7" class="edge"><title>Node4&#45;&gt;Node7</title>
<path fill="none" stroke="midnightblue" d="M1301.06,-124.083C1296.02,-116.534 1288.66,-105.495 1282.49,-96.2298"/>
<polygon fill="midnightblue" stroke="midnightblue" points="1285.29,-94.1301 1276.83,-87.7511 1279.47,-98.0131 1285.29,-94.1301"/>
</g>
<!-- Node4&#45;&gt;Node8 -->
<g id="edge8" class="edge"><title>Node4&#45;&gt;Node8</title>
<path fill="none" stroke="midnightblue" d="M1328.67,-124.374C1344.55,-116.985 1365.45,-104.853 1378,-88 1389.34,-72.778 1394.25,-51.3821 1396.38,-36.064"/>
<polygon fill="midnightblue" stroke="midnightblue" points="1399.9,-36.0624 1397.52,-25.7378 1392.94,-35.2916 1399.9,-36.0624"/>
</g>
<!-- Node9 -->
<g id="node9" class="node"><title>Node9</title>
<polygon fill="none" stroke="#bfbfbf" points="1314,-68.5 1314,-87.5 1370,-87.5 1370,-68.5 1314,-68.5"/>
<text text-anchor="middle" x="1342" y="-75.5" font-family="Helvetica,sans-Serif" font-size="10.00">algorithm</text>
</g>
<!-- Node4&#45;&gt;Node9 -->
<g id="edge9" class="edge"><title>Node4&#45;&gt;Node9</title>
<path fill="none" stroke="midnightblue" d="M1312.78,-124.083C1317.67,-116.534 1324.83,-105.495 1330.83,-96.2298"/>
<polygon fill="midnightblue" stroke="midnightblue" points="1333.83,-98.0463 1336.33,-87.7511 1327.95,-94.239 1333.83,-98.0463"/>
</g>
<!-- Node4&#45;&gt;Node10 -->
<g id="edge10" class="edge"><title>Node4&#45;&gt;Node10</title>
<path fill="none" stroke="midnightblue" d="M1289.65,-124.324C1272.33,-115.664 1245.48,-102.242 1225.5,-92.249"/>
<polygon fill="midnightblue" stroke="midnightblue" points="1226.82,-88.9962 1216.31,-87.6545 1223.69,-95.2572 1226.82,-88.9962"/>
</g>
<!-- Node4&#45;&gt;Node11 -->
<g id="edge11" class="edge"><title>Node4&#45;&gt;Node11</title>
<path fill="none" stroke="midnightblue" d="M1325.75,-124.387C1344.34,-115.692 1373.52,-101.635 1398,-88 1431.12,-69.5542 1468.16,-45.8977 1490.77,-31.091"/>
<polygon fill="midnightblue" stroke="midnightblue" points="1492.82,-33.9323 1499.25,-25.5116 1488.98,-28.0847 1492.82,-33.9323"/>
</g>
<!-- Node12 -->
<g id="node12" class="node"><title>Node12</title>
<g id="a_node12"><a xlink:href="../../dc/d03/MemoryResources_8h.html" target="_top" xlink:title="MemoryResources/MemoryResources.h">
<polygon fill="none" stroke="black" points="811.5,-68.5 811.5,-87.5 1004.5,-87.5 1004.5,-68.5 811.5,-68.5"/>
<text text-anchor="middle" x="908" y="-75.5" font-family="Helvetica,sans-Serif" font-size="10.00">MemoryResources/MemoryResources.h</text>
</a>
</g>
</g>
<!-- Node4&#45;&gt;Node12 -->
<g id="edge12" class="edge"><title>Node4&#45;&gt;Node12</title>
<path fill="none" stroke="midnightblue" d="M1248.13,-125.032C1177.17,-115.43 1057.94,-99.2927 981.15,-88.9"/>
<polygon fill="midnightblue" stroke="midnightblue" points="981.45,-85.4088 971.071,-87.536 980.512,-92.3456 981.45,-85.4088"/>
</g>
<!-- Node12&#45;&gt;Node8 -->
<g id="edge17" class="edge"><title>Node12&#45;&gt;Node8</title>
<path fill="none" stroke="midnightblue" d="M977.425,-68.499C1084.34,-55.4076 1285.23,-30.809 1364.55,-21.0954"/>
<polygon fill="midnightblue" stroke="midnightblue" points="1365.42,-24.5158 1374.92,-19.8263 1364.57,-17.5677 1365.42,-24.5158"/>
</g>
<!-- Node12&#45;&gt;Node11 -->
<g id="edge18" class="edge"><title>Node12&#45;&gt;Node11</title>
<path fill="none" stroke="midnightblue" d="M1004.74,-69.7664C1132.46,-60.0248 1350.44,-42.6815 1430,-32 1447.02,-29.7156 1465.87,-26.3275 1481.2,-23.349"/>
<polygon fill="midnightblue" stroke="midnightblue" points="1482.06,-26.7471 1491.19,-21.3711 1480.7,-19.8804 1482.06,-26.7471"/>
</g>
<!-- Node13 -->
<g id="node13" class="node"><title>Node13</title>
<polygon fill="none" stroke="#bfbfbf" points="578,-1 578,-31 678,-31 678,-1 578,-1"/>
<text text-anchor="start" x="586" y="-19" font-family="Helvetica,sans-Serif" font-size="10.00">boost/container/flat</text>
<text text-anchor="middle" x="628" y="-8" font-family="Helvetica,sans-Serif" font-size="10.00">_map.hpp</text>
</g>
<!-- Node12&#45;&gt;Node13 -->
<g id="edge13" class="edge"><title>Node12&#45;&gt;Node13</title>
<path fill="none" stroke="midnightblue" d="M862.997,-68.4944C820.341,-60.285 754.247,-47.1853 687.952,-32.1607"/>
<polygon fill="midnightblue" stroke="midnightblue" points="688.7,-28.7415 678.172,-29.9304 687.144,-35.5663 688.7,-28.7415"/>
</g>
<!-- Node14 -->
<g id="node14" class="node"><title>Node14</title>
<polygon fill="none" stroke="#bfbfbf" points="696,-1 696,-31 812,-31 812,-1 696,-1"/>
<text text-anchor="start" x="704" y="-19" font-family="Helvetica,sans-Serif" font-size="10.00">boost/container/pmr</text>
<text text-anchor="middle" x="754" y="-8" font-family="Helvetica,sans-Serif" font-size="10.00">/memory_resource.hpp</text>
</g>
<!-- Node12&#45;&gt;Node14 -->
<g id="edge14" class="edge"><title>Node12&#45;&gt;Node14</title>
<path fill="none" stroke="midnightblue" d="M885.936,-68.4035C863.444,-59.6406 827.905,-45.7942 799.376,-34.6789"/>
<polygon fill="midnightblue" stroke="midnightblue" points="800.587,-31.3945 789.998,-31.0253 798.045,-37.9169 800.587,-31.3945"/>
</g>
<!-- Node15 -->
<g id="node15" class="node"><title>Node15</title>
<polygon fill="none" stroke="#bfbfbf" points="830,-1 830,-31 986,-31 986,-1 830,-1"/>
<text text-anchor="start" x="838" y="-19" font-family="Helvetica,sans-Serif" font-size="10.00">boost/container/pmr</text>
<text text-anchor="middle" x="908" y="-8" font-family="Helvetica,sans-Serif" font-size="10.00">/monotonic_buffer_resource.hpp</text>
</g>
<!-- Node12&#45;&gt;Node15 -->
<g id="edge15" class="edge"><title>Node12&#45;&gt;Node15</title>
<path fill="none" stroke="midnightblue" d="M908,-68.4035C908,-61.3405 908,-50.975 908,-41.399"/>
<polygon fill="midnightblue" stroke="midnightblue" points="911.5,-41.1408 908,-31.1408 904.5,-41.1408 911.5,-41.1408"/>
</g>
<!-- Node16 -->
<g id="node16" class="node"><title>Node16</title>
<polygon fill="none" stroke="#bfbfbf" points="1004.5,-1 1004.5,-31 1137.5,-31 1137.5,-1 1004.5,-1"/>
<text text-anchor="start" x="1012.5" y="-19" font-family="Helvetica,sans-Serif" font-size="10.00">boost/container/pmr</text>
<text text-anchor="middle" x="1071" y="-8" font-family="Helvetica,sans-Serif" font-size="10.00">/polymorphic_allocator.hpp</text>
</g>
<!-- Node12&#45;&gt;Node16 -->
<g id="edge16" class="edge"><title>Node12&#45;&gt;Node16</title>
<path fill="none" stroke="midnightblue" d="M931.354,-68.4035C955.263,-59.6025 993.103,-45.6737 1023.37,-34.534"/>
<polygon fill="midnightblue" stroke="midnightblue" points="1024.72,-37.7643 1032.9,-31.0253 1022.3,-31.1952 1024.72,-37.7643"/>
</g>
<!-- Node12&#45;&gt;Node17 -->
<g id="edge19" class="edge"><title>Node12&#45;&gt;Node17</title>
<path fill="none" stroke="midnightblue" d="M811.447,-69.0526C806.562,-68.6878 801.725,-68.3347 797,-68 533.177,-49.3118 466.094,-59.0815 203,-32 182.525,-29.8924 159.879,-26.6907 141.047,-23.7857"/>
<polygon fill="midnightblue" stroke="midnightblue" points="141.437,-20.3042 131.016,-22.2112 140.352,-27.2196 141.437,-20.3042"/>
</g>
<!-- Node18 -->
<g id="node18" class="node"><title>Node18</title>
<polygon fill="none" stroke="#bfbfbf" points="1156,-6.5 1156,-25.5 1196,-25.5 1196,-6.5 1156,-6.5"/>
<text text-anchor="middle" x="1176" y="-13.5" font-family="Helvetica,sans-Serif" font-size="10.00">utility</text>
</g>
<!-- Node12&#45;&gt;Node18 -->
<g id="edge20" class="edge"><title>Node12&#45;&gt;Node18</title>
<path fill="none" stroke="midnightblue" d="M981.461,-68.4641C1029.2,-61.6203 1092.31,-50.1073 1146,-32 1147.86,-31.372 1149.75,-30.6488 1151.64,-29.8666"/>
<polygon fill="midnightblue" stroke="midnightblue" points="1153.18,-33.0097 1160.78,-25.6292 1150.24,-26.6586 1153.18,-33.0097"/>
</g>
<!-- Node12&#45;&gt;Node19 -->
<g id="edge21" class="edge"><title>Node12&#45;&gt;Node19</title>
<path fill="none" stroke="midnightblue" d="M981.036,-68.4798C1055.1,-59.3847 1164.4,-44.5815 1205,-32 1207.13,-31.3385 1209.31,-30.5505 1211.46,-29.6869"/>
<polygon fill="midnightblue" stroke="midnightblue" points="1212.92,-32.8691 1220.6,-25.5759 1210.05,-26.4848 1212.92,-32.8691"/>
</g>
<!-- Node20 -->
<g id="node20" class="node"><title>Node20</title>
<polygon fill="none" stroke="#bfbfbf" points="212.5,-6.5 212.5,-25.5 295.5,-25.5 295.5,-6.5 212.5,-6.5"/>
<text text-anchor="middle" x="254" y="-13.5" font-family="Helvetica,sans-Serif" font-size="10.00">unordered_map</text>
</g>
<!-- Node12&#45;&gt;Node20 -->
<g id="edge22" class="edge"><title>Node12&#45;&gt;Node20</title>
<path fill="none" stroke="midnightblue" d="M811.442,-69.1243C806.558,-68.7406 801.723,-68.3639 797,-68 577.955,-51.1225 520.059,-71.8018 304,-32 298.895,-31.0595 293.571,-29.7889 288.382,-28.383"/>
<polygon fill="midnightblue" stroke="midnightblue" points="289.241,-24.9881 278.662,-25.5639 287.291,-31.711 289.241,-24.9881"/>
</g>
<!-- Node21 -->
<g id="node21" class="node"><title>Node21</title>
<polygon fill="none" stroke="#bfbfbf" points="313.5,-6.5 313.5,-25.5 410.5,-25.5 410.5,-6.5 313.5,-6.5"/>
<text text-anchor="middle" x="362" y="-13.5" font-family="Helvetica,sans-Serif" font-size="10.00">FairMQMessage.h</text>
</g>
<!-- Node12&#45;&gt;Node21 -->
<g id="edge23" class="edge"><title>Node12&#45;&gt;Node21</title>
<path fill="none" stroke="midnightblue" d="M811.264,-68.9643C679.739,-57.9053 456.493,-38.6115 419,-32 413.061,-30.9527 406.835,-29.5925 400.769,-28.1191"/>
<polygon fill="midnightblue" stroke="midnightblue" points="401.347,-24.6543 390.792,-25.5678 399.613,-31.4361 401.347,-24.6543"/>
</g>
<!-- Node22 -->
<g id="node22" class="node"><title>Node22</title>
<polygon fill="none" stroke="#bfbfbf" points="428.5,-6.5 428.5,-25.5 559.5,-25.5 559.5,-6.5 428.5,-6.5"/>
<text text-anchor="middle" x="494" y="-13.5" font-family="Helvetica,sans-Serif" font-size="10.00">FairMQTransportFactory.h</text>
</g>
<!-- Node12&#45;&gt;Node22 -->
<g id="edge24" class="edge"><title>Node12&#45;&gt;Node22</title>
<path fill="none" stroke="midnightblue" d="M833.059,-68.4793C764.227,-60.3149 659.486,-47.0378 569,-32 560.898,-30.6535 552.333,-29.0821 544.002,-27.473"/>
<polygon fill="midnightblue" stroke="midnightblue" points="544.49,-24.002 534.002,-25.5041 543.137,-30.8701 544.49,-24.002"/>
</g>
<!-- Node23&#45;&gt;Node6 -->
<g id="edge33" class="edge"><title>Node23&#45;&gt;Node6</title>
<path fill="none" stroke="midnightblue" d="M567.789,-126.93C671.471,-119.024 855.67,-104.279 1013,-88 1025.35,-86.7225 1038.83,-85.1391 1050.86,-83.6582"/>
<polygon fill="midnightblue" stroke="midnightblue" points="1051.51,-87.1046 1061,-82.3935 1050.64,-80.1585 1051.51,-87.1046"/>
</g>
<!-- Node23&#45;&gt;Node12 -->
<g id="edge35" class="edge"><title>Node23&#45;&gt;Node12</title>
<path fill="none" stroke="midnightblue" d="M552.867,-124.444C628.645,-114.747 751.931,-98.9709 831.485,-88.791"/>
<polygon fill="midnightblue" stroke="midnightblue" points="831.971,-92.2575 841.446,-87.5164 831.082,-85.3141 831.971,-92.2575"/>
</g>
<!-- Node24 -->
<g id="node24" class="node"><title>Node24</title>
<polygon fill="none" stroke="#bfbfbf" points="473.5,-68.5 473.5,-87.5 600.5,-87.5 600.5,-68.5 473.5,-68.5"/>
<text text-anchor="middle" x="537" y="-75.5" font-family="Helvetica,sans-Serif" font-size="10.00">fairmq/FairMQMessage.h</text>
</g>
<!-- Node23&#45;&gt;Node24 -->
<g id="edge26" class="edge"><title>Node23&#45;&gt;Node24</title>
<path fill="none" stroke="midnightblue" d="M494.422,-124.083C501.848,-116.22 512.852,-104.569 521.812,-95.0813"/>
<polygon fill="midnightblue" stroke="midnightblue" points="524.413,-97.4244 528.735,-87.7511 519.324,-92.618 524.413,-97.4244"/>
</g>
<!-- Node25 -->
<g id="node25" class="node"><title>Node25</title>
<polygon fill="none" stroke="#bfbfbf" points="618.5,-68.5 618.5,-87.5 665.5,-87.5 665.5,-68.5 618.5,-68.5"/>
<text text-anchor="middle" x="642" y="-75.5" font-family="Helvetica,sans-Serif" font-size="10.00">TList.h</text>
</g>
<!-- Node23&#45;&gt;Node25 -->
<g id="edge27" class="edge"><title>Node23&#45;&gt;Node25</title>
<path fill="none" stroke="midnightblue" d="M510.719,-124.444C537.156,-115.292 579.236,-100.726 608.606,-90.5594"/>
<polygon fill="midnightblue" stroke="midnightblue" points="610.113,-93.7416 618.418,-87.1629 607.823,-87.1267 610.113,-93.7416"/>
</g>
<!-- Node26 -->
<g id="node26" class="node"><title>Node26</title>
<polygon fill="none" stroke="#bfbfbf" points="683.5,-68.5 683.5,-87.5 754.5,-87.5 754.5,-68.5 683.5,-68.5"/>
<text text-anchor="middle" x="719" y="-75.5" font-family="Helvetica,sans-Serif" font-size="10.00">TMessage.h</text>
</g>
<!-- Node23&#45;&gt;Node26 -->
<g id="edge28" class="edge"><title>Node23&#45;&gt;Node26</title>
<path fill="none" stroke="midnightblue" d="M522.92,-124.444C563.753,-114.98 629.57,-99.7262 673.543,-89.535"/>
<polygon fill="midnightblue" stroke="midnightblue" points="674.448,-92.9183 683.399,-87.2508 672.867,-86.099 674.448,-92.9183"/>
</g>
<!-- Node27 -->
<g id="node27" class="node"><title>Node27</title>
<polygon fill="none" stroke="#bfbfbf" points="66.5,-68.5 66.5,-87.5 135.5,-87.5 135.5,-68.5 66.5,-68.5"/>
<text text-anchor="middle" x="101" y="-75.5" font-family="Helvetica,sans-Serif" font-size="10.00">TObjArray.h</text>
</g>
<!-- Node23&#45;&gt;Node27 -->
<g id="edge29" class="edge"><title>Node23&#45;&gt;Node27</title>
<path fill="none" stroke="midnightblue" d="M408.328,-124.474C341.221,-116.719 241.432,-104.261 145.824,-88.2127"/>
<polygon fill="midnightblue" stroke="midnightblue" points="146.135,-84.7156 135.691,-86.4955 144.966,-91.6172 146.135,-84.7156"/>
</g>
<!-- Node28 -->
<g id="node28" class="node"><title>Node28</title>
<polygon fill="none" stroke="#bfbfbf" points="153.5,-68.5 153.5,-87.5 240.5,-87.5 240.5,-68.5 153.5,-68.5"/>
<text text-anchor="middle" x="197" y="-75.5" font-family="Helvetica,sans-Serif" font-size="10.00">TStreamerInfo.h</text>
</g>
<!-- Node23&#45;&gt;Node28 -->
<g id="edge30" class="edge"><title>Node23&#45;&gt;Node28</title>
<path fill="none" stroke="midnightblue" d="M440.207,-124.444C388.771,-114.833 305.372,-99.2494 250.852,-89.0623"/>
<polygon fill="midnightblue" stroke="midnightblue" points="251.16,-85.5593 240.687,-87.1629 249.874,-92.4402 251.16,-85.5593"/>
</g>
<!-- Node29 -->
<g id="node29" class="node"><title>Node29</title>
<polygon fill="none" stroke="#bfbfbf" points="258.5,-68.5 258.5,-87.5 321.5,-87.5 321.5,-68.5 258.5,-68.5"/>
<text text-anchor="middle" x="290" y="-75.5" font-family="Helvetica,sans-Serif" font-size="10.00">gsl/gsl_util</text>
</g>
<!-- Node23&#45;&gt;Node29 -->
<g id="edge31" class="edge"><title>Node23&#45;&gt;Node29</title>
<path fill="none" stroke="midnightblue" d="M454.943,-124.444C421.397,-115.201 367.803,-100.436 330.859,-90.2572"/>
<polygon fill="midnightblue" stroke="midnightblue" points="331.482,-86.7984 320.911,-87.5164 329.623,-93.5469 331.482,-86.7984"/>
</g>
<!-- Node30 -->
<g id="node30" class="node"><title>Node30</title>
<polygon fill="none" stroke="#bfbfbf" points="339.5,-68.5 339.5,-87.5 392.5,-87.5 392.5,-68.5 339.5,-68.5"/>
<text text-anchor="middle" x="366" y="-75.5" font-family="Helvetica,sans-Serif" font-size="10.00">gsl/span</text>
</g>
<!-- Node23&#45;&gt;Node30 -->
<g id="edge32" class="edge"><title>Node23&#45;&gt;Node30</title>
<path fill="none" stroke="midnightblue" d="M466.986,-124.444C447.412,-115.636 416.692,-101.812 394.271,-91.722"/>
<polygon fill="midnightblue" stroke="midnightblue" points="395.481,-88.4284 384.925,-87.5164 392.608,-94.8119 395.481,-88.4284"/>
</g>
<!-- Node31 -->
<g id="node31" class="node"><title>Node31</title>
<polygon fill="none" stroke="#bfbfbf" points="411,-68.5 411,-87.5 455,-87.5 455,-68.5 411,-68.5"/>
<text text-anchor="middle" x="433" y="-75.5" font-family="Helvetica,sans-Serif" font-size="10.00">mutex</text>
</g>
<!-- Node23&#45;&gt;Node31 -->
<g id="edge34" class="edge"><title>Node23&#45;&gt;Node31</title>
<path fill="none" stroke="midnightblue" d="M477.248,-124.083C469.53,-116.22 458.095,-104.569 448.783,-95.0813"/>
<polygon fill="midnightblue" stroke="midnightblue" points="451.092,-92.4363 441.589,-87.7511 446.096,-97.3396 451.092,-92.4363"/>
</g>
<!-- Node32&#45;&gt;Node33 -->
<g id="edge37" class="edge"><title>Node32&#45;&gt;Node33</title>
<path fill="none" stroke="midnightblue" d="M827.5,-180.444C851.077,-171.478 888.322,-157.314 914.964,-147.183"/>
<polygon fill="midnightblue" stroke="midnightblue" points="916.502,-150.342 924.605,-143.516 914.014,-143.8 916.502,-150.342"/>
</g>
<!-- Node33&#45;&gt;Node6 -->
<g id="edge40" class="edge"><title>Node33&#45;&gt;Node6</title>
<path fill="none" stroke="midnightblue" d="M969.183,-124.444C992.428,-115.478 1029.15,-101.314 1055.42,-91.1827"/>
<polygon fill="midnightblue" stroke="midnightblue" points="1056.85,-94.3807 1064.92,-87.5164 1054.33,-87.8497 1056.85,-94.3807"/>
</g>
<!-- Node33&#45;&gt;Node17 -->
<g id="edge38" class="edge"><title>Node33&#45;&gt;Node17</title>
<path fill="none" stroke="midnightblue" d="M913.895,-124.486C884.131,-116.418 839.462,-103.284 802,-88 783.964,-80.6412 781.779,-73.1775 763,-68 522.568,-1.71102 451.045,-57.9918 203,-32 182.529,-29.8549 159.883,-26.649 141.051,-23.7511"/>
<polygon fill="midnightblue" stroke="midnightblue" points="141.439,-20.2694 131.019,-22.1814 140.357,-27.1853 141.439,-20.2694"/>
</g>
<!-- Node33&#45;&gt;Node19 -->
<g id="edge39" class="edge"><title>Node33&#45;&gt;Node19</title>
<path fill="none" stroke="midnightblue" d="M959.841,-124.321C983.43,-108.501 1032.98,-75.8763 1052,-68 1116.54,-41.2669 1139.16,-55.3541 1205,-32 1206.86,-31.3404 1208.75,-30.6016 1210.65,-29.815"/>
<polygon fill="midnightblue" stroke="midnightblue" points="1212.22,-32.9461 1219.88,-25.6286 1209.32,-26.571 1212.22,-32.9461"/>
</g>
<!-- Node37&#45;&gt;Node11 -->
<g id="edge57" class="edge"><title>Node37&#45;&gt;Node11</title>
<path fill="none" stroke="midnightblue" d="M1727.55,-237.264C1772.6,-230.256 1827.84,-218.209 1842,-200 1852.25,-186.812 1855.93,-148.939 1836,-124 1762.61,-32.165 1608.3,-18.411 1542.63,-16.868"/>
<polygon fill="midnightblue" stroke="midnightblue" points="1542.57,-13.3668 1532.52,-16.7125 1542.46,-20.366 1542.57,-13.3668"/>
</g>
<!-- Node38 -->
<g id="node38" class="node"><title>Node38</title>
<g id="a_node38"><a xlink:href="../../d2/dd9/ExpirationHandler_8h.html" target="_top" xlink:title="Framework/ExpirationHandler.h">
<polygon fill="none" stroke="black" points="1596,-180.5 1596,-199.5 1750,-199.5 1750,-180.5 1596,-180.5"/>
<text text-anchor="middle" x="1673" y="-187.5" font-family="Helvetica,sans-Serif" font-size="10.00">Framework/ExpirationHandler.h</text>
</a>
</g>
</g>
<!-- Node37&#45;&gt;Node38 -->
<g id="edge48" class="edge"><title>Node37&#45;&gt;Node38</title>
<path fill="none" stroke="midnightblue" d="M1666.32,-236.083C1667.38,-228.927 1668.91,-218.635 1670.23,-209.691"/>
<polygon fill="midnightblue" stroke="midnightblue" points="1673.7,-210.156 1671.7,-199.751 1666.78,-209.13 1673.7,-210.156"/>
</g>
<!-- Node39 -->
<g id="node39" class="node"><title>Node39</title>
<polygon fill="none" stroke="#bfbfbf" points="1768.5,-124.5 1768.5,-143.5 1827.5,-143.5 1827.5,-124.5 1768.5,-124.5"/>
<text text-anchor="middle" x="1798" y="-131.5" font-family="Helvetica,sans-Serif" font-size="10.00">functional</text>
</g>
<!-- Node37&#45;&gt;Node39 -->
<g id="edge58" class="edge"><title>Node37&#45;&gt;Node39</title>
<path fill="none" stroke="midnightblue" d="M1721.96,-236.487C1762.97,-229.057 1813.24,-216.82 1826,-200 1837.19,-185.247 1825.5,-165.336 1813.99,-151.453"/>
<polygon fill="midnightblue" stroke="midnightblue" points="1816.33,-148.814 1807.05,-143.688 1811.11,-153.477 1816.33,-148.814"/>
</g>
<!-- Node40 -->
<g id="node40" class="node"><title>Node40</title>
<g id="a_node40"><a xlink:href="../../d5/d3f/InputSpec_8h.html" target="_top" xlink:title="Framework/InputSpec.h">
<polygon fill="none" stroke="black" points="1456.5,-180.5 1456.5,-199.5 1577.5,-199.5 1577.5,-180.5 1456.5,-180.5"/>
<text text-anchor="middle" x="1517" y="-187.5" font-family="Helvetica,sans-Serif" font-size="10.00">Framework/InputSpec.h</text>
</a>
</g>
</g>
<!-- Node37&#45;&gt;Node40 -->
<g id="edge51" class="edge"><title>Node37&#45;&gt;Node40</title>
<path fill="none" stroke="midnightblue" d="M1641.55,-236.444C1616.87,-227.438 1577.81,-213.189 1550.02,-203.049"/>
<polygon fill="midnightblue" stroke="midnightblue" points="1550.94,-199.656 1540.34,-199.516 1548.54,-206.232 1550.94,-199.656"/>
</g>
<!-- Node43 -->
<g id="node43" class="node"><title>Node43</title>
<polygon fill="none" stroke="#bfbfbf" points="1768.5,-180.5 1768.5,-199.5 1817.5,-199.5 1817.5,-180.5 1768.5,-180.5"/>
<text text-anchor="middle" x="1793" y="-187.5" font-family="Helvetica,sans-Serif" font-size="10.00">cstddef</text>
</g>
<!-- Node37&#45;&gt;Node43 -->
<g id="edge56" class="edge"><title>Node37&#45;&gt;Node43</title>
<path fill="none" stroke="midnightblue" d="M1685.28,-236.444C1706.35,-227.557 1739.52,-213.563 1763.49,-203.451"/>
<polygon fill="midnightblue" stroke="midnightblue" points="1764.96,-206.628 1772.81,-199.516 1762.24,-200.179 1764.96,-206.628"/>
</g>
<!-- Node38&#45;&gt;Node5 -->
<g id="edge49" class="edge"><title>Node38&#45;&gt;Node5</title>
<path fill="none" stroke="midnightblue" d="M1670.67,-180.31C1667.1,-167.575 1659.64,-143.268 1650,-124 1645.11,-114.239 1638.48,-104.064 1632.69,-95.863"/>
<polygon fill="midnightblue" stroke="midnightblue" points="1635.37,-93.5955 1626.66,-87.5706 1629.71,-97.7153 1635.37,-93.5955"/>
</g>
<!-- Node38&#45;&gt;Node39 -->
<g id="edge50" class="edge"><title>Node38&#45;&gt;Node39</title>
<path fill="none" stroke="midnightblue" d="M1692.81,-180.444C1713.29,-171.596 1745.48,-157.687 1768.86,-147.586"/>
<polygon fill="midnightblue" stroke="midnightblue" points="1770.49,-150.695 1778.29,-143.516 1767.72,-144.269 1770.49,-150.695"/>
</g>
<!-- Node40&#45;&gt;Node4 -->
<g id="edge55" class="edge"><title>Node40&#45;&gt;Node4</title>
<path fill="none" stroke="midnightblue" d="M1483.72,-180.444C1447.55,-171.142 1389.62,-156.246 1350.02,-146.062"/>
<polygon fill="midnightblue" stroke="midnightblue" points="1350.68,-142.617 1340.12,-143.516 1348.93,-149.397 1350.68,-142.617"/>
</g>
<!-- Node40&#45;&gt;Node11 -->
<g id="edge52" class="edge"><title>Node40&#45;&gt;Node11</title>
<path fill="none" stroke="midnightblue" d="M1558.18,-180.431C1592.94,-172.28 1638.79,-159.054 1650,-144 1670.18,-116.9 1671.38,-95.6814 1652,-68 1627.37,-32.8148 1575.8,-21.8169 1542.59,-18.4324"/>
<polygon fill="midnightblue" stroke="midnightblue" points="1542.78,-14.9353 1532.52,-17.5801 1542.19,-21.9104 1542.78,-14.9353"/>
</g>
<!-- Node41 -->
<g id="node41" class="node"><title>Node41</title>
<polygon fill="none" stroke="#bfbfbf" points="1460,-124.5 1460,-143.5 1512,-143.5 1512,-124.5 1460,-124.5"/>
<text text-anchor="middle" x="1486" y="-131.5" font-family="Helvetica,sans-Serif" font-size="10.00">ostream</text>
</g>
<!-- Node40&#45;&gt;Node41 -->
<g id="edge53" class="edge"><title>Node40&#45;&gt;Node41</title>
<path fill="none" stroke="midnightblue" d="M1511.88,-180.083C1507.59,-172.613 1501.34,-161.724 1496.06,-152.52"/>
<polygon fill="midnightblue" stroke="midnightblue" points="1499.04,-150.681 1491.02,-143.751 1492.97,-154.166 1499.04,-150.681"/>
</g>
<!-- Node42 -->
<g id="node42" class="node"><title>Node42</title>
<g id="a_node42"><a xlink:href="../../dc/dca/Lifetime_8h.html" target="_top" xlink:title="Framework/Lifetime.h">
<polygon fill="none" stroke="black" points="1530.5,-124.5 1530.5,-143.5 1641.5,-143.5 1641.5,-124.5 1530.5,-124.5"/>
<text text-anchor="middle" x="1586" y="-131.5" font-family="Helvetica,sans-Serif" font-size="10.00">Framework/Lifetime.h</text>
</a>
</g>
</g>
<!-- Node40&#45;&gt;Node42 -->
<g id="edge54" class="edge"><title>Node40&#45;&gt;Node42</title>
<path fill="none" stroke="midnightblue" d="M1528.09,-180.324C1538.49,-172.185 1554.26,-159.839 1566.72,-150.087"/>
<polygon fill="midnightblue" stroke="midnightblue" points="1568.99,-152.753 1574.71,-143.834 1564.68,-147.241 1568.99,-152.753"/>
</g>
<!-- Node45&#45;&gt;Node6 -->
<g id="edge62" class="edge"><title>Node45&#45;&gt;Node6</title>
<path fill="none" stroke="midnightblue" d="M1045.37,-236.075C1052.29,-209.945 1072.63,-133.211 1082.08,-97.577"/>
<polygon fill="midnightblue" stroke="midnightblue" points="1085.55,-98.1311 1084.73,-87.5681 1078.78,-96.3375 1085.55,-98.1311"/>
</g>
</g>
</svg>
        <g id="navigator" transform="translate(0 0)" fill="#404254">
                <rect fill="#f2f5e9" fill-opacity="0.5" stroke="#606060" stroke-width=".5" x="0" y="0" width="60" height="60"/>
                <use id="zoomplus" xlink:href="#zoomPlus" x="17" y="9" onmousedown="handleZoom(evt,'in')"/>
                <use id="zoomminus" xlink:href="#zoomMin" x="42" y="9" onmousedown="handleZoom(evt,'out')"/>
                <use id="reset" xlink:href="#resetDef" x="30" y="36" onmousedown="handleReset()"/>
                <g id="arrowUp" xlink:href="#dirArrow" transform="translate(30 24)" onmousedown="handlePan(0,-1)">
                  <use xlink:href="#rim" fill="#404040">
                        <set attributeName="fill" to="#808080" begin="arrowUp.mouseover" end="arrowUp.mouseout"/>
                  </use>
                  <path fill="none" stroke="white" stroke-width="1.5" d="M0,-3.0v7 M-2.5,-0.5L0,-3.0L2.5,-0.5"/>
                </g>
                <g id="arrowRight" xlink:href="#dirArrow" transform="rotate(90) translate(36 -43)" onmousedown="handlePan(1,0)">
                  <use xlink:href="#rim" fill="#404040">
                        <set attributeName="fill" to="#808080" begin="arrowRight.mouseover" end="arrowRight.mouseout"/>
                  </use>
                  <path fill="none" stroke="white" stroke-width="1.5" d="M0,-3.0v7 M-2.5,-0.5L0,-3.0L2.5,-0.5"/>
                </g>
                <g id="arrowDown" xlink:href="#dirArrow" transform="rotate(180) translate(-30 -48)" onmousedown="handlePan(0,1)">
                  <use xlink:href="#rim" fill="#404040">
                        <set attributeName="fill" to="#808080" begin="arrowDown.mouseover" end="arrowDown.mouseout"/>
                  </use>
                  <path fill="none" stroke="white" stroke-width="1.5" d="M0,-3.0v7 M-2.5,-0.5L0,-3.0L2.5,-0.5"/>
                </g>
                <g id="arrowLeft" xlink:href="#dirArrow" transform="rotate(270) translate(-36 17)" onmousedown="handlePan(-1,0)">
                  <use xlink:href="#rim" fill="#404040">
                        <set attributeName="fill" to="#808080" begin="arrowLeft.mouseover" end="arrowLeft.mouseout"/>
                  </use>
                  <path fill="none" stroke="white" stroke-width="1.5" d="M0,-3.0v7 M-2.5,-0.5L0,-3.0L2.5,-0.5"/>
                </g>
        </g>
        <svg viewBox="0 0 15 15" width="100%" height="30px" preserveAspectRatio="xMaxYMin meet">
         <g id="arrow_out" transform="scale(0.3 0.3)">
          <a xlink:href="InputRecord_8h__incl_org.svg" target="_base">
           <rect id="button" ry="5" rx="5" y="6" x="6" height="38" width="38"
                fill="#f2f5e9" fill-opacity="0.5" stroke="#606060" stroke-width="1.0"/>
           <path id="arrow"
             d="M 11.500037,31.436501 C 11.940474,20.09759 22.043105,11.32322 32.158766,21.979434 L 37.068811,17.246167 C 37.068811,17.246167 37.088388,32 37.088388,32 L 22.160133,31.978069 C 22.160133,31.978069 26.997745,27.140456 26.997745,27.140456 C 18.528582,18.264221 13.291696,25.230495 11.500037,31.436501 z"
             style="fill:#404040;"/>
          </a>
         </g>
        </svg>
</svg>
