<?xml version="1.0" encoding="UTF-8" standalone="no"?>
<!DOCTYPE svg PUBLIC "-//W3C//DTD SVG 1.1//EN"
 "http://www.w3.org/Graphics/SVG/1.1/DTD/svg11.dtd">
<!-- Generated by graphviz version 2.36.0 (20140111.2315)
 -->
<!-- Title: /home/travis/build/AliceO2Group/AliceO2/Framework/Core/include/Framework/OutputRoute.h Pages: 1 -->
<svg width="1256pt" height="298pt"
 viewBox="0.00 0.00 1256.00 298.00" xmlns="http://www.w3.org/2000/svg" xmlns:xlink="http://www.w3.org/1999/xlink">
<g id="graph0" class="graph" transform="scale(1 1) rotate(0) translate(4 294)">
<title>/home/travis/build/AliceO2Group/AliceO2/Framework/Core/include/Framework/OutputRoute.h</title>
<!-- Node1 -->
<g id="node1" class="node"><title>Node1</title>
<polygon fill="#bfbfbf" stroke="black" points="1095.5,-237 1095.5,-289 1230.5,-289 1230.5,-237 1095.5,-237"/>
<text text-anchor="start" x="1103.5" y="-277" font-family="Helvetica,sans-Serif" font-size="10.00">/home/travis/build</text>
<text text-anchor="start" x="1103.5" y="-266" font-family="Helvetica,sans-Serif" font-size="10.00">/AliceO2Group/AliceO2</text>
<text text-anchor="start" x="1103.5" y="-255" font-family="Helvetica,sans-Serif" font-size="10.00">/Framework/Core/include</text>
<text text-anchor="middle" x="1163" y="-244" font-family="Helvetica,sans-Serif" font-size="10.00">/Framework/OutputRoute.h</text>
</g>
<!-- Node2 -->
<g id="node2" class="node"><title>Node2</title>
<g id="a_node2"><a xlink:href="../../db/d2d/OutputSpec_8h.html" target="_top" xlink:title="Framework/OutputSpec.h">
<polygon fill="none" stroke="black" points="534,-180.5 534,-199.5 662,-199.5 662,-180.5 534,-180.5"/>
<text text-anchor="middle" x="598" y="-187.5" font-family="Helvetica,sans-Serif" font-size="10.00">Framework/OutputSpec.h</text>
</a>
</g>
</g>
<!-- Node1&#45;&gt;Node2 -->
<g id="edge1" class="edge"><title>Node1&#45;&gt;Node2</title>
<path fill="none" stroke="midnightblue" d="M1095.41,-253.506C988.894,-240.121 782.763,-214.218 672.253,-200.331"/>
<polygon fill="midnightblue" stroke="midnightblue" points="672.547,-196.84 662.189,-199.066 671.674,-203.786 672.547,-196.84"/>
</g>
<!-- Node10 -->
<g id="node10" class="node"><title>Node10</title>
<polygon fill="none" stroke="#bfbfbf" points="1207.5,-6.5 1207.5,-25.5 1248.5,-25.5 1248.5,-6.5 1207.5,-6.5"/>
<text text-anchor="middle" x="1228" y="-13.5" font-family="Helvetica,sans-Serif" font-size="10.00">string</text>
</g>
<!-- Node1&#45;&gt;Node10 -->
<g id="edge25" class="edge"><title>Node1&#45;&gt;Node10</title>
<path fill="none" stroke="midnightblue" d="M1168.93,-236.829C1172.81,-220.58 1178.06,-199.004 1183,-180 1196.62,-127.596 1213.97,-66.0947 1222.61,-35.8057"/>
<polygon fill="midnightblue" stroke="midnightblue" points="1226.08,-36.3862 1225.47,-25.8094 1219.35,-34.4623 1226.08,-36.3862"/>
</g>
<!-- Node23 -->
<g id="node23" class="node"><title>Node23</title>
<polygon fill="none" stroke="#bfbfbf" points="1191.5,-180.5 1191.5,-199.5 1240.5,-199.5 1240.5,-180.5 1191.5,-180.5"/>
<text text-anchor="middle" x="1216" y="-187.5" font-family="Helvetica,sans-Serif" font-size="10.00">cstddef</text>
</g>
<!-- Node1&#45;&gt;Node23 -->
<g id="edge24" class="edge"><title>Node1&#45;&gt;Node23</title>
<path fill="none" stroke="midnightblue" d="M1181.84,-236.768C1188.99,-227.183 1196.96,-216.506 1203.4,-207.877"/>
<polygon fill="midnightblue" stroke="midnightblue" points="1206.29,-209.864 1209.46,-199.757 1200.68,-205.677 1206.29,-209.864"/>
</g>
<!-- Node3 -->
<g id="node3" class="node"><title>Node3</title>
<g id="a_node3"><a xlink:href="../../dc/dcd/DataHeader_8h.html" target="_top" xlink:title="Headers/DataHeader.h">
<polygon fill="none" stroke="black" points="539.5,-124.5 539.5,-143.5 656.5,-143.5 656.5,-124.5 539.5,-124.5"/>
<text text-anchor="middle" x="598" y="-131.5" font-family="Helvetica,sans-Serif" font-size="10.00">Headers/DataHeader.h</text>
</a>
</g>
</g>
<!-- Node2&#45;&gt;Node3 -->
<g id="edge2" class="edge"><title>Node2&#45;&gt;Node3</title>
<path fill="none" stroke="midnightblue" d="M598,-180.083C598,-173.006 598,-162.861 598,-153.986"/>
<polygon fill="midnightblue" stroke="midnightblue" points="601.5,-153.751 598,-143.751 594.5,-153.751 601.5,-153.751"/>
</g>
<!-- Node22 -->
<g id="node22" class="node"><title>Node22</title>
<g id="a_node22"><a xlink:href="../../dc/dca/Lifetime_8h.html" target="_top" xlink:title="Framework/Lifetime.h">
<polygon fill="none" stroke="black" points="410.5,-124.5 410.5,-143.5 521.5,-143.5 521.5,-124.5 410.5,-124.5"/>
<text text-anchor="middle" x="466" y="-131.5" font-family="Helvetica,sans-Serif" font-size="10.00">Framework/Lifetime.h</text>
</a>
</g>
</g>
<!-- Node2&#45;&gt;Node22 -->
<g id="edge23" class="edge"><title>Node2&#45;&gt;Node22</title>
<path fill="none" stroke="midnightblue" d="M577.084,-180.444C555.264,-171.517 520.85,-157.439 496.108,-147.317"/>
<polygon fill="midnightblue" stroke="midnightblue" points="497.399,-144.063 486.818,-143.516 494.748,-150.542 497.399,-144.063"/>
</g>
<!-- Node4 -->
<g id="node4" class="node"><title>Node4</title>
<polygon fill="none" stroke="#bfbfbf" points="857,-68.5 857,-87.5 903,-87.5 903,-68.5 857,-68.5"/>
<text text-anchor="middle" x="880" y="-75.5" font-family="Helvetica,sans-Serif" font-size="10.00">cstdint</text>
</g>
<!-- Node3&#45;&gt;Node4 -->
<g id="edge3" class="edge"><title>Node3&#45;&gt;Node4</title>
<path fill="none" stroke="midnightblue" d="M653.171,-124.451C703.814,-116.268 780.802,-102.978 847,-88 847.101,-87.9771 847.203,-87.954 847.305,-87.9309"/>
<polygon fill="midnightblue" stroke="midnightblue" points="848.109,-91.3373 856.986,-85.5526 846.439,-84.5395 848.109,-91.3373"/>
</g>
<!-- Node5 -->
<g id="node5" class="node"><title>Node5</title>
<polygon fill="none" stroke="#bfbfbf" points="318,-68.5 318,-87.5 370,-87.5 370,-68.5 318,-68.5"/>
<text text-anchor="middle" x="344" y="-75.5" font-family="Helvetica,sans-Serif" font-size="10.00">memory</text>
</g>
<!-- Node3&#45;&gt;Node5 -->
<g id="edge4" class="edge"><title>Node3&#45;&gt;Node5</title>
<path fill="none" stroke="midnightblue" d="M552.981,-124.42C510.775,-116.225 445.685,-103.206 380.393,-88.2402"/>
<polygon fill="midnightblue" stroke="midnightblue" points="380.87,-84.7584 370.339,-85.9205 379.296,-91.5792 380.87,-84.7584"/>
</g>
<!-- Node6 -->
<g id="node6" class="node"><title>Node6</title>
<polygon fill="none" stroke="#bfbfbf" points="388.5,-68.5 388.5,-87.5 437.5,-87.5 437.5,-68.5 388.5,-68.5"/>
<text text-anchor="middle" x="413" y="-75.5" font-family="Helvetica,sans-Serif" font-size="10.00">cassert</text>
</g>
<!-- Node3&#45;&gt;Node6 -->
<g id="edge5" class="edge"><title>Node3&#45;&gt;Node6</title>
<path fill="none" stroke="midnightblue" d="M568.686,-124.444C535.767,-114.835 482.395,-99.2558 447.494,-89.0686"/>
<polygon fill="midnightblue" stroke="midnightblue" points="448.316,-85.6626 437.736,-86.2203 446.355,-92.3822 448.316,-85.6626"/>
</g>
<!-- Node7 -->
<g id="node7" class="node"><title>Node7</title>
<polygon fill="none" stroke="#bfbfbf" points="0,-6.5 0,-25.5 46,-25.5 46,-6.5 0,-6.5"/>
<text text-anchor="middle" x="23" y="-13.5" font-family="Helvetica,sans-Serif" font-size="10.00">cstring</text>
</g>
<!-- Node3&#45;&gt;Node7 -->
<g id="edge6" class="edge"><title>Node3&#45;&gt;Node7</title>
<path fill="none" stroke="midnightblue" d="M574.79,-124.495C551.756,-115.883 515.569,-101.887 485,-88 467.265,-79.943 464.706,-73.4363 446,-68 278.421,-19.2976 223.418,-77.7191 55,-32 52.6518,-31.3626 50.2633,-30.5627 47.9032,-29.6659"/>
<polygon fill="midnightblue" stroke="midnightblue" points="49.1051,-26.3722 38.5383,-25.6028 46.3189,-32.7939 49.1051,-26.3722"/>
</g>
<!-- Node8 -->
<g id="node8" class="node"><title>Node8</title>
<polygon fill="none" stroke="#bfbfbf" points="494,-68.5 494,-87.5 550,-87.5 550,-68.5 494,-68.5"/>
<text text-anchor="middle" x="522" y="-75.5" font-family="Helvetica,sans-Serif" font-size="10.00">algorithm</text>
</g>
<!-- Node3&#45;&gt;Node8 -->
<g id="edge7" class="edge"><title>Node3&#45;&gt;Node8</title>
<path fill="none" stroke="midnightblue" d="M585.789,-124.324C574.224,-116.107 556.625,-103.602 542.839,-93.8069"/>
<polygon fill="midnightblue" stroke="midnightblue" points="544.612,-90.7729 534.433,-87.8339 540.557,-96.4791 544.612,-90.7729"/>
</g>
<!-- Node9 -->
<g id="node9" class="node"><title>Node9</title>
<polygon fill="none" stroke="#bfbfbf" points="568.5,-68.5 568.5,-87.5 627.5,-87.5 627.5,-68.5 568.5,-68.5"/>
<text text-anchor="middle" x="598" y="-75.5" font-family="Helvetica,sans-Serif" font-size="10.00">stdexcept</text>
</g>
<!-- Node3&#45;&gt;Node9 -->
<g id="edge8" class="edge"><title>Node3&#45;&gt;Node9</title>
<path fill="none" stroke="midnightblue" d="M598,-124.083C598,-117.006 598,-106.861 598,-97.9865"/>
<polygon fill="midnightblue" stroke="midnightblue" points="601.5,-97.751 598,-87.7511 594.5,-97.7511 601.5,-97.751"/>
</g>
<!-- Node3&#45;&gt;Node10 -->
<g id="edge9" class="edge"><title>Node3&#45;&gt;Node10</title>
<path fill="none" stroke="midnightblue" d="M656.608,-129.425C765.773,-121.403 1006.53,-97.2627 1198,-32 1199.86,-31.3659 1201.75,-30.6384 1203.63,-29.8529"/>
<polygon fill="midnightblue" stroke="midnightblue" points="1205.18,-32.9946 1212.77,-25.6089 1202.23,-26.6456 1205.18,-32.9946"/>
</g>
<!-- Node11 -->
<g id="node11" class="node"><title>Node11</title>
<g id="a_node11"><a xlink:href="../../dc/d03/MemoryResources_8h.html" target="_top" xlink:title="MemoryResources/MemoryResources.h">
<polygon fill="none" stroke="black" points="645.5,-68.5 645.5,-87.5 838.5,-87.5 838.5,-68.5 645.5,-68.5"/>
<text text-anchor="middle" x="742" y="-75.5" font-family="Helvetica,sans-Serif" font-size="10.00">MemoryResources/MemoryResources.h</text>
</a>
</g>
</g>
<!-- Node3&#45;&gt;Node11 -->
<g id="edge10" class="edge"><title>Node3&#45;&gt;Node11</title>
<path fill="none" stroke="midnightblue" d="M620.817,-124.444C644.832,-115.438 682.829,-101.189 709.869,-91.049"/>
<polygon fill="midnightblue" stroke="midnightblue" points="711.155,-94.3049 719.29,-87.5164 708.697,-87.7506 711.155,-94.3049"/>
</g>
<!-- Node11&#45;&gt;Node7 -->
<g id="edge15" class="edge"><title>Node11&#45;&gt;Node7</title>
<path fill="none" stroke="midnightblue" d="M645.244,-68.6933C642.127,-68.4549 639.039,-68.2232 636,-68 377.977,-49.0549 305.668,-96.0352 55,-32 52.5032,-31.3622 49.9644,-30.5299 47.4645,-29.5841"/>
<polygon fill="midnightblue" stroke="midnightblue" points="48.7531,-26.3279 38.1872,-25.5454 45.959,-32.7461 48.7531,-26.3279"/>
</g>
<!-- Node11&#45;&gt;Node10 -->
<g id="edge16" class="edge"><title>Node11&#45;&gt;Node10</title>
<path fill="none" stroke="midnightblue" d="M837.382,-68.478C965.977,-56.8585 1180.95,-36.9224 1198,-32 1199.97,-31.4308 1201.97,-30.7339 1203.95,-29.9553"/>
<polygon fill="midnightblue" stroke="midnightblue" points="1205.84,-32.9372 1213.48,-25.5944 1202.93,-26.5716 1205.84,-32.9372"/>
</g>
<!-- Node12 -->
<g id="node12" class="node"><title>Node12</title>
<polygon fill="none" stroke="#bfbfbf" points="64,-1 64,-31 164,-31 164,-1 64,-1"/>
<text text-anchor="start" x="72" y="-19" font-family="Helvetica,sans-Serif" font-size="10.00">boost/container/flat</text>
<text text-anchor="middle" x="114" y="-8" font-family="Helvetica,sans-Serif" font-size="10.00">_map.hpp</text>
</g>
<!-- Node11&#45;&gt;Node12 -->
<g id="edge11" class="edge"><title>Node11&#45;&gt;Node12</title>
<path fill="none" stroke="midnightblue" d="M645.24,-68.756C642.124,-68.4996 639.037,-68.247 636,-68 433.595,-51.5387 378.421,-65.0991 174.241,-32.0193"/>
<polygon fill="midnightblue" stroke="midnightblue" points="174.523,-28.5189 164.089,-30.3562 173.391,-35.4268 174.523,-28.5189"/>
</g>
<!-- Node13 -->
<g id="node13" class="node"><title>Node13</title>
<polygon fill="none" stroke="#bfbfbf" points="182,-1 182,-31 298,-31 298,-1 182,-1"/>
<text text-anchor="start" x="190" y="-19" font-family="Helvetica,sans-Serif" font-size="10.00">boost/container/pmr</text>
<text text-anchor="middle" x="240" y="-8" font-family="Helvetica,sans-Serif" font-size="10.00">/memory_resource.hpp</text>
</g>
<!-- Node11&#45;&gt;Node13 -->
<g id="edge12" class="edge"><title>Node11&#45;&gt;Node13</title>
<path fill="none" stroke="midnightblue" d="M646.888,-68.4749C543.954,-59.0263 385.276,-43.7603 308.325,-32.0543"/>
<polygon fill="midnightblue" stroke="midnightblue" points="308.447,-28.5303 298.024,-30.4271 307.355,-35.4446 308.447,-28.5303"/>
</g>
<!-- Node14 -->
<g id="node14" class="node"><title>Node14</title>
<polygon fill="none" stroke="#bfbfbf" points="316,-1 316,-31 472,-31 472,-1 316,-1"/>
<text text-anchor="start" x="324" y="-19" font-family="Helvetica,sans-Serif" font-size="10.00">boost/container/pmr</text>
<text text-anchor="middle" x="394" y="-8" font-family="Helvetica,sans-Serif" font-size="10.00">/monotonic_buffer_resource.hpp</text>
</g>
<!-- Node11&#45;&gt;Node14 -->
<g id="edge13" class="edge"><title>Node11&#45;&gt;Node14</title>
<path fill="none" stroke="midnightblue" d="M692.51,-68.4672C637.893,-59.0505 548.905,-43.7078 482.275,-32.2198"/>
<polygon fill="midnightblue" stroke="midnightblue" points="482.647,-28.7324 472.198,-30.4824 481.458,-35.6307 482.647,-28.7324"/>
</g>
<!-- Node15 -->
<g id="node15" class="node"><title>Node15</title>
<polygon fill="none" stroke="#bfbfbf" points="490.5,-1 490.5,-31 623.5,-31 623.5,-1 490.5,-1"/>
<text text-anchor="start" x="498.5" y="-19" font-family="Helvetica,sans-Serif" font-size="10.00">boost/container/pmr</text>
<text text-anchor="middle" x="557" y="-8" font-family="Helvetica,sans-Serif" font-size="10.00">/polymorphic_allocator.hpp</text>
</g>
<!-- Node11&#45;&gt;Node15 -->
<g id="edge14" class="edge"><title>Node11&#45;&gt;Node15</title>
<path fill="none" stroke="midnightblue" d="M715.494,-68.4035C688.123,-59.5263 644.666,-45.4321 610.173,-34.2453"/>
<polygon fill="midnightblue" stroke="midnightblue" points="610.837,-30.7811 600.245,-31.0253 608.677,-37.4397 610.837,-30.7811"/>
</g>
<!-- Node16 -->
<g id="node16" class="node"><title>Node16</title>
<polygon fill="none" stroke="#bfbfbf" points="642,-6.5 642,-25.5 704,-25.5 704,-6.5 642,-6.5"/>
<text text-anchor="middle" x="673" y="-13.5" font-family="Helvetica,sans-Serif" font-size="10.00">type_traits</text>
</g>
<!-- Node11&#45;&gt;Node16 -->
<g id="edge17" class="edge"><title>Node11&#45;&gt;Node16</title>
<path fill="none" stroke="midnightblue" d="M732.114,-68.4035C721.354,-59.047 703.929,-43.8948 690.779,-32.4599"/>
<polygon fill="midnightblue" stroke="midnightblue" points="692.71,-29.5013 682.868,-25.5806 688.117,-34.7835 692.71,-29.5013"/>
</g>
<!-- Node17 -->
<g id="node17" class="node"><title>Node17</title>
<polygon fill="none" stroke="#bfbfbf" points="722,-6.5 722,-25.5 762,-25.5 762,-6.5 722,-6.5"/>
<text text-anchor="middle" x="742" y="-13.5" font-family="Helvetica,sans-Serif" font-size="10.00">utility</text>
</g>
<!-- Node11&#45;&gt;Node17 -->
<g id="edge18" class="edge"><title>Node11&#45;&gt;Node17</title>
<path fill="none" stroke="midnightblue" d="M742,-68.4035C742,-59.9381 742,-46.7283 742,-35.8199"/>
<polygon fill="midnightblue" stroke="midnightblue" points="745.5,-35.5806 742,-25.5806 738.5,-35.5806 745.5,-35.5806"/>
</g>
<!-- Node18 -->
<g id="node18" class="node"><title>Node18</title>
<polygon fill="none" stroke="#bfbfbf" points="780,-6.5 780,-25.5 824,-25.5 824,-6.5 780,-6.5"/>
<text text-anchor="middle" x="802" y="-13.5" font-family="Helvetica,sans-Serif" font-size="10.00">vector</text>
</g>
<!-- Node11&#45;&gt;Node18 -->
<g id="edge19" class="edge"><title>Node11&#45;&gt;Node18</title>
<path fill="none" stroke="midnightblue" d="M750.597,-68.4035C759.864,-59.1361 774.817,-44.1828 786.212,-32.7876"/>
<polygon fill="midnightblue" stroke="midnightblue" points="788.823,-35.1266 793.419,-25.5806 783.873,-30.1768 788.823,-35.1266"/>
</g>
<!-- Node19 -->
<g id="node19" class="node"><title>Node19</title>
<polygon fill="none" stroke="#bfbfbf" points="842.5,-6.5 842.5,-25.5 925.5,-25.5 925.5,-6.5 842.5,-6.5"/>
<text text-anchor="middle" x="884" y="-13.5" font-family="Helvetica,sans-Serif" font-size="10.00">unordered_map</text>
</g>
<!-- Node11&#45;&gt;Node19 -->
<g id="edge20" class="edge"><title>Node11&#45;&gt;Node19</title>
<path fill="none" stroke="midnightblue" d="M762.345,-68.4035C786.387,-58.245 826.597,-41.2547 854.163,-29.6074"/>
<polygon fill="midnightblue" stroke="midnightblue" points="855.843,-32.6968 863.693,-25.5806 853.119,-26.2488 855.843,-32.6968"/>
</g>
<!-- Node20 -->
<g id="node20" class="node"><title>Node20</title>
<polygon fill="none" stroke="#bfbfbf" points="943.5,-6.5 943.5,-25.5 1040.5,-25.5 1040.5,-6.5 943.5,-6.5"/>
<text text-anchor="middle" x="992" y="-13.5" font-family="Helvetica,sans-Serif" font-size="10.00">FairMQMessage.h</text>
</g>
<!-- Node11&#45;&gt;Node20 -->
<g id="edge21" class="edge"><title>Node11&#45;&gt;Node20</title>
<path fill="none" stroke="midnightblue" d="M779.587,-68.4578C818.338,-59.5884 880.481,-45.1906 934,-32 939.046,-30.7563 944.332,-29.4267 949.572,-28.092"/>
<polygon fill="midnightblue" stroke="midnightblue" points="950.7,-31.4159 959.517,-25.5404 948.961,-24.6355 950.7,-31.4159"/>
</g>
<!-- Node21 -->
<g id="node21" class="node"><title>Node21</title>
<polygon fill="none" stroke="#bfbfbf" points="1058.5,-6.5 1058.5,-25.5 1189.5,-25.5 1189.5,-6.5 1058.5,-6.5"/>
<text text-anchor="middle" x="1124" y="-13.5" font-family="Helvetica,sans-Serif" font-size="10.00">FairMQTransportFactory.h</text>
</g>
<!-- Node11&#45;&gt;Node21 -->
<g id="edge22" class="edge"><title>Node11&#45;&gt;Node21</title>
<path fill="none" stroke="midnightblue" d="M806.839,-68.4901C869.08,-60.0864 965.667,-46.4307 1049,-32 1056.82,-30.6459 1065.08,-29.1064 1073.14,-27.5421"/>
<polygon fill="midnightblue" stroke="midnightblue" points="1074.07,-30.9267 1083.2,-25.5592 1072.71,-24.0588 1074.07,-30.9267"/>
</g>
</g>
</svg>
