<?xml version="1.0" encoding="UTF-8" standalone="no"?>
<!DOCTYPE svg PUBLIC "-//W3C//DTD SVG 1.1//EN"
 "http://www.w3.org/Graphics/SVG/1.1/DTD/svg11.dtd">
<!-- Generated by graphviz version 2.36.0 (20140111.2315)
 -->
<!-- Title: /home/travis/build/AliceO2Group/AliceO2/macro/readITSDigits.C Pages: 1 -->
<!--zoomable 242 -->
<svg id="main" version="1.1" xmlns="http://www.w3.org/2000/svg" xmlns:xlink="http://www.w3.org/1999/xlink" xml:space="preserve" onload="init(evt)">
<style type="text/css"><![CDATA[
.edge:hover path { stroke: red; }
.edge:hover polygon { stroke: red; fill: red; }
]]></style>
<script type="text/javascript"><![CDATA[
var edges = document.getElementsByTagName('g');
if (edges && edges.length) {
  for (var i=0;i<edges.length;i++) {
    if (edges[i].id.substr(0,4)=='edge') {
      edges[i].setAttribute('class','edge');
    }
  }
}
]]></script>
        <defs>
                <circle id="rim" cx="0" cy="0" r="7"/>
                <circle id="rim2" cx="0" cy="0" r="3.5"/>
                <g id="zoomPlus">
                        <use xlink:href="#rim" fill="#404040">
                                <set attributeName="fill" to="#808080" begin="zoomplus.mouseover" end="zoomplus.mouseout"/>
                        </use>
                        <path d="M-4,0h8M0,-4v8" fill="none" stroke="white" stroke-width="1.5" pointer-events="none"/>
                </g>
                <g id="zoomMin">
                        <use xlink:href="#rim" fill="#404040">
                                <set attributeName="fill" to="#808080" begin="zoomminus.mouseover" end="zoomminus.mouseout"/>
                        </use>
                        <path d="M-4,0h8" fill="none" stroke="white" stroke-width="1.5" pointer-events="none"/>
                </g>
                <g id="dirArrow">
                        <path fill="none" stroke="white" stroke-width="1.5" d="M0,-3.0v7 M-2.5,-0.5L0,-3.0L2.5,-0.5"/>
                </g>
               <g id="resetDef">
                       <use xlink:href="#rim2" fill="#404040">
                               <set attributeName="fill" to="#808080" begin="reset.mouseover" end="reset.mouseout"/>
                       </use>
               </g>
        </defs>

<script type="text/javascript">
var viewWidth = 1267;
var viewHeight = 242;
var sectionId = 'dynsection-0';
</script>
<script xlink:href="../../svgpan.js"/>
<svg id="graph" class="graph">
<g id="viewport">
<title>/home/travis/build/AliceO2Group/AliceO2/macro/readITSDigits.C</title>
<!-- Node1 -->
<g id="node1" class="node"><title>Node1</title>
<polygon fill="#bfbfbf" stroke="black" points="330,-192.5 330,-233.5 450,-233.5 450,-192.5 330,-192.5"/>
<text text-anchor="start" x="338" y="-221.5" font-family="Helvetica,sans-Serif" font-size="10.00">/home/travis/build</text>
<text text-anchor="start" x="338" y="-210.5" font-family="Helvetica,sans-Serif" font-size="10.00">/AliceO2Group/AliceO2</text>
<text text-anchor="middle" x="390" y="-199.5" font-family="Helvetica,sans-Serif" font-size="10.00">/macro/readITSDigits.C</text>
</g>
<!-- Node2 -->
<g id="node2" class="node"><title>Node2</title>
<polygon fill="none" stroke="#bfbfbf" points="-0.5,-130.5 -0.5,-149.5 46.5,-149.5 46.5,-130.5 -0.5,-130.5"/>
<text text-anchor="middle" x="23" y="-137.5" font-family="Helvetica,sans-Serif" font-size="10.00">TFile.h</text>
</g>
<!-- Node1&#45;&gt;Node2 -->
<g id="edge1" class="edge"><title>Node1&#45;&gt;Node2</title>
<path fill="none" stroke="midnightblue" d="M329.794,-206.672C262.071,-199.589 149.345,-184.505 56,-156 53.7147,-155.302 51.3814,-154.481 49.0646,-153.589"/>
<polygon fill="midnightblue" stroke="midnightblue" points="50.3713,-150.342 39.7987,-149.655 47.6355,-156.785 50.3713,-150.342"/>
</g>
<!-- Node3 -->
<g id="node3" class="node"><title>Node3</title>
<polygon fill="none" stroke="#bfbfbf" points="65,-130.5 65,-149.5 115,-149.5 115,-130.5 65,-130.5"/>
<text text-anchor="middle" x="90" y="-137.5" font-family="Helvetica,sans-Serif" font-size="10.00">TTree.h</text>
</g>
<!-- Node1&#45;&gt;Node3 -->
<g id="edge2" class="edge"><title>Node1&#45;&gt;Node3</title>
<path fill="none" stroke="midnightblue" d="M329.913,-203.022C275.387,-194.015 193.18,-178.274 124,-156 121.72,-155.266 119.386,-154.429 117.062,-153.535"/>
<polygon fill="midnightblue" stroke="midnightblue" points="118.304,-150.261 107.727,-149.653 115.617,-156.725 118.304,-150.261"/>
</g>
<!-- Node4 -->
<g id="node4" class="node"><title>Node4</title>
<polygon fill="none" stroke="#bfbfbf" points="133.5,-130.5 133.5,-149.5 210.5,-149.5 210.5,-130.5 133.5,-130.5"/>
<text text-anchor="middle" x="172" y="-137.5" font-family="Helvetica,sans-Serif" font-size="10.00">TStopwatch.h</text>
</g>
<!-- Node1&#45;&gt;Node4 -->
<g id="edge3" class="edge"><title>Node1&#45;&gt;Node4</title>
<path fill="none" stroke="midnightblue" d="M329.853,-192.411C290.678,-179.652 240.888,-163.436 207.811,-152.663"/>
<polygon fill="midnightblue" stroke="midnightblue" points="208.705,-149.273 198.112,-149.504 206.537,-155.929 208.705,-149.273"/>
</g>
<!-- Node5 -->
<g id="node5" class="node"><title>Node5</title>
<polygon fill="none" stroke="#bfbfbf" points="229,-130.5 229,-149.5 281,-149.5 281,-130.5 229,-130.5"/>
<text text-anchor="middle" x="255" y="-137.5" font-family="Helvetica,sans-Serif" font-size="10.00">memory</text>
</g>
<!-- Node1&#45;&gt;Node5 -->
<g id="edge4" class="edge"><title>Node1&#45;&gt;Node5</title>
<path fill="none" stroke="midnightblue" d="M352.753,-192.411C329.711,-180.292 300.738,-165.055 280.337,-154.325"/>
<polygon fill="midnightblue" stroke="midnightblue" points="281.826,-151.154 271.346,-149.597 278.568,-157.349 281.826,-151.154"/>
</g>
<!-- Node6 -->
<g id="node6" class="node"><title>Node6</title>
<polygon fill="none" stroke="#bfbfbf" points="299.5,-130.5 299.5,-149.5 370.5,-149.5 370.5,-130.5 299.5,-130.5"/>
<text text-anchor="middle" x="335" y="-137.5" font-family="Helvetica,sans-Serif" font-size="10.00">FairLogger.h</text>
</g>
<!-- Node1&#45;&gt;Node6 -->
<g id="edge5" class="edge"><title>Node1&#45;&gt;Node6</title>
<path fill="none" stroke="midnightblue" d="M374.679,-192.223C366.321,-181.432 356.081,-168.214 348.098,-157.908"/>
<polygon fill="midnightblue" stroke="midnightblue" points="350.657,-155.497 341.766,-149.735 345.124,-159.784 350.657,-155.497"/>
</g>
<!-- Node7 -->
<g id="node7" class="node"><title>Node7</title>
<g id="a_node7"><a xlink:href="../../d5/d08/ROFRecord_8h.html" target="_top" xlink:title="Definition of the ITSMFT ROFrame (trigger) record. ">
<polygon fill="none" stroke="black" points="521.5,-130.5 521.5,-149.5 694.5,-149.5 694.5,-130.5 521.5,-130.5"/>
<text text-anchor="middle" x="608" y="-137.5" font-family="Helvetica,sans-Serif" font-size="10.00">DataFormatsITSMFT/ROFRecord.h</text>
</a>
</g>
</g>
<!-- Node1&#45;&gt;Node7 -->
<g id="edge6" class="edge"><title>Node1&#45;&gt;Node7</title>
<path fill="none" stroke="midnightblue" d="M450.147,-192.411C489.322,-179.652 539.112,-163.436 572.189,-152.663"/>
<polygon fill="midnightblue" stroke="midnightblue" points="573.463,-155.929 581.888,-149.504 571.295,-149.273 573.463,-155.929"/>
</g>
<!-- Node14 -->
<g id="node14" class="node"><title>Node14</title>
<g id="a_node14"><a xlink:href="../../d0/d06/ITSMFT_2common_2base_2include_2ITSMFTBase_2Digit_8h.html" target="_top" xlink:title="ITSMFTBase/Digit.h">
<polygon fill="none" stroke="black" points="712.5,-130.5 712.5,-149.5 819.5,-149.5 819.5,-130.5 712.5,-130.5"/>
<text text-anchor="middle" x="766" y="-137.5" font-family="Helvetica,sans-Serif" font-size="10.00">ITSMFTBase/Digit.h</text>
</a>
</g>
</g>
<!-- Node1&#45;&gt;Node14 -->
<g id="edge14" class="edge"><title>Node1&#45;&gt;Node14</title>
<path fill="none" stroke="midnightblue" d="M450.199,-202.271C513.365,-191.82 615.451,-174.239 703,-156 709.14,-154.721 715.595,-153.287 721.937,-151.827"/>
<polygon fill="midnightblue" stroke="midnightblue" points="722.809,-155.217 731.747,-149.528 721.213,-148.402 722.809,-155.217"/>
</g>
<!-- Node16 -->
<g id="node16" class="node"><title>Node16</title>
<g id="a_node16"><a xlink:href="../../d5/d3f/RunContext_8h.html" target="_top" xlink:title="SimulationDataFormat\l/RunContext.h">
<polygon fill="none" stroke="black" points="389,-125 389,-155 503,-155 503,-125 389,-125"/>
<text text-anchor="start" x="397" y="-143" font-family="Helvetica,sans-Serif" font-size="10.00">SimulationDataFormat</text>
<text text-anchor="middle" x="446" y="-132" font-family="Helvetica,sans-Serif" font-size="10.00">/RunContext.h</text>
</a>
</g>
</g>
<!-- Node1&#45;&gt;Node16 -->
<g id="edge17" class="edge"><title>Node1&#45;&gt;Node16</title>
<path fill="none" stroke="midnightblue" d="M405.599,-192.223C412.735,-183.175 421.218,-172.42 428.564,-163.106"/>
<polygon fill="midnightblue" stroke="midnightblue" points="431.475,-165.068 434.919,-155.049 425.978,-160.733 431.475,-165.068"/>
</g>
<!-- Node20 -->
<g id="node20" class="node"><title>Node20</title>
<g id="a_node20"><a xlink:href="../../db/d14/MCTruthContainer_8h.html" target="_top" xlink:title="Definition of a container to keep Monte Carlo truth external to simulation objects. ">
<polygon fill="none" stroke="black" points="1005,-125 1005,-155 1119,-155 1119,-125 1005,-125"/>
<text text-anchor="start" x="1013" y="-143" font-family="Helvetica,sans-Serif" font-size="10.00">SimulationDataFormat</text>
<text text-anchor="middle" x="1062" y="-132" font-family="Helvetica,sans-Serif" font-size="10.00">/MCTruthContainer.h</text>
</a>
</g>
</g>
<!-- Node1&#45;&gt;Node20 -->
<g id="edge22" class="edge"><title>Node1&#45;&gt;Node20</title>
<path fill="none" stroke="midnightblue" d="M450.12,-207.093C554.32,-198.367 775.143,-178.901 961,-156 971.911,-154.656 983.463,-153.082 994.705,-151.47"/>
<polygon fill="midnightblue" stroke="midnightblue" points="995.523,-154.888 1004.91,-149.983 994.514,-147.961 995.523,-154.888"/>
</g>
<!-- Node26 -->
<g id="node26" class="node"><title>Node26</title>
<g id="a_node26"><a xlink:href="../../d7/dcd/MCCompLabel_8h.html" target="_top" xlink:title="SimulationDataFormat\l/MCCompLabel.h">
<polygon fill="none" stroke="black" points="838,-125 838,-155 952,-155 952,-125 838,-125"/>
<text text-anchor="start" x="846" y="-143" font-family="Helvetica,sans-Serif" font-size="10.00">SimulationDataFormat</text>
<text text-anchor="middle" x="895" y="-132" font-family="Helvetica,sans-Serif" font-size="10.00">/MCCompLabel.h</text>
</a>
</g>
</g>
<!-- Node1&#45;&gt;Node26 -->
<g id="edge28" class="edge"><title>Node1&#45;&gt;Node26</title>
<path fill="none" stroke="midnightblue" d="M450.132,-206.103C532.806,-197.599 686.374,-180.383 827.546,-155.969"/>
<polygon fill="midnightblue" stroke="midnightblue" points="828.439,-159.367 837.688,-154.199 827.235,-152.471 828.439,-159.367"/>
</g>
<!-- Node8 -->
<g id="node8" class="node"><title>Node8</title>
<g id="a_node8"><a xlink:href="../../d6/ddf/EvIndex_8h.html" target="_top" xlink:title="Class to store event ID and index in the event for objects like track, cluster... ...">
<polygon fill="none" stroke="black" points="595.5,-62.5 595.5,-81.5 750.5,-81.5 750.5,-62.5 595.5,-62.5"/>
<text text-anchor="middle" x="673" y="-69.5" font-family="Helvetica,sans-Serif" font-size="10.00">CommonDataFormat/EvIndex.h</text>
</a>
</g>
</g>
<!-- Node7&#45;&gt;Node8 -->
<g id="edge7" class="edge"><title>Node7&#45;&gt;Node8</title>
<path fill="none" stroke="midnightblue" d="M616.498,-130.372C626.757,-119.955 644.225,-102.217 657.029,-89.2162"/>
<polygon fill="midnightblue" stroke="midnightblue" points="659.77,-91.4219 664.293,-81.8411 654.782,-86.5101 659.77,-91.4219"/>
</g>
<!-- Node10 -->
<g id="node10" class="node"><title>Node10</title>
<g id="a_node10"><a xlink:href="../../d9/d80/InteractionRecord_8h.html" target="_top" xlink:title="CommonDataFormat/Interaction\lRecord.h">
<polygon fill="none" stroke="black" points="420.5,-57 420.5,-87 577.5,-87 577.5,-57 420.5,-57"/>
<text text-anchor="start" x="428.5" y="-75" font-family="Helvetica,sans-Serif" font-size="10.00">CommonDataFormat/Interaction</text>
<text text-anchor="middle" x="499" y="-64" font-family="Helvetica,sans-Serif" font-size="10.00">Record.h</text>
</a>
</g>
</g>
<!-- Node7&#45;&gt;Node10 -->
<g id="edge9" class="edge"><title>Node7&#45;&gt;Node10</title>
<path fill="none" stroke="midnightblue" d="M593.75,-130.372C577.966,-120.814 552.005,-105.095 531.245,-92.5248"/>
<polygon fill="midnightblue" stroke="midnightblue" points="532.788,-89.3671 522.421,-87.1815 529.162,-95.355 532.788,-89.3671"/>
</g>
<!-- Node9 -->
<g id="node9" class="node"><title>Node9</title>
<polygon fill="none" stroke="#bfbfbf" points="743,-0.5 743,-19.5 799,-19.5 799,-0.5 743,-0.5"/>
<text text-anchor="middle" x="771" y="-7.5" font-family="Helvetica,sans-Serif" font-size="10.00">Rtypes.h</text>
</g>
<!-- Node8&#45;&gt;Node9 -->
<g id="edge8" class="edge"><title>Node8&#45;&gt;Node9</title>
<path fill="none" stroke="midnightblue" d="M687.041,-62.4035C703.051,-52.6014 729.45,-36.4385 748.374,-24.8526"/>
<polygon fill="midnightblue" stroke="midnightblue" points="750.284,-27.7872 756.985,-19.5806 746.629,-21.8172 750.284,-27.7872"/>
</g>
<!-- Node10&#45;&gt;Node9 -->
<g id="edge10" class="edge"><title>Node10&#45;&gt;Node9</title>
<path fill="none" stroke="midnightblue" d="M562.772,-56.9327C615.54,-45.2926 688.746,-29.1443 732.827,-19.4206"/>
<polygon fill="midnightblue" stroke="midnightblue" points="733.83,-22.7835 742.841,-17.2115 732.322,-15.9478 733.83,-22.7835"/>
</g>
<!-- Node11 -->
<g id="node11" class="node"><title>Node11</title>
<polygon fill="none" stroke="#bfbfbf" points="413.5,-0.5 413.5,-19.5 458.5,-19.5 458.5,-0.5 413.5,-0.5"/>
<text text-anchor="middle" x="436" y="-7.5" font-family="Helvetica,sans-Serif" font-size="10.00">iosfwd</text>
</g>
<!-- Node10&#45;&gt;Node11 -->
<g id="edge11" class="edge"><title>Node10&#45;&gt;Node11</title>
<path fill="none" stroke="midnightblue" d="M484.07,-56.7808C474.632,-47.7925 462.42,-36.162 452.667,-26.8731"/>
<polygon fill="midnightblue" stroke="midnightblue" points="454.822,-24.0926 445.167,-19.7305 449.995,-29.1616 454.822,-24.0926"/>
</g>
<!-- Node12 -->
<g id="node12" class="node"><title>Node12</title>
<polygon fill="none" stroke="#bfbfbf" points="477,-0.5 477,-19.5 521,-19.5 521,-0.5 477,-0.5"/>
<text text-anchor="middle" x="499" y="-7.5" font-family="Helvetica,sans-Serif" font-size="10.00">cmath</text>
</g>
<!-- Node10&#45;&gt;Node12 -->
<g id="edge12" class="edge"><title>Node10&#45;&gt;Node12</title>
<path fill="none" stroke="midnightblue" d="M499,-56.7808C499,-48.7812 499,-38.6887 499,-30.0168"/>
<polygon fill="midnightblue" stroke="midnightblue" points="502.5,-29.7305 499,-19.7305 495.5,-29.7306 502.5,-29.7305"/>
</g>
<!-- Node13 -->
<g id="node13" class="node"><title>Node13</title>
<g id="a_node13"><a xlink:href="../../d4/dc6/LHCConstants_8h.html" target="_top" xlink:title="Header to collect LHC related constants. ">
<polygon fill="none" stroke="black" points="539,-0.5 539,-19.5 717,-19.5 717,-0.5 539,-0.5"/>
<text text-anchor="middle" x="628" y="-7.5" font-family="Helvetica,sans-Serif" font-size="10.00">CommonConstants/LHCConstants.h</text>
</a>
</g>
</g>
<!-- Node10&#45;&gt;Node13 -->
<g id="edge13" class="edge"><title>Node10&#45;&gt;Node13</title>
<path fill="none" stroke="midnightblue" d="M529.245,-56.9327C550.717,-46.9455 579.325,-33.6397 600.221,-23.9205"/>
<polygon fill="midnightblue" stroke="midnightblue" points="601.919,-26.9909 609.51,-19.6 598.967,-20.6439 601.919,-26.9909"/>
</g>
<!-- Node14&#45;&gt;Node9 -->
<g id="edge15" class="edge"><title>Node14&#45;&gt;Node9</title>
<path fill="none" stroke="midnightblue" d="M766.344,-130.202C767.15,-109.551 769.179,-57.6064 770.274,-29.5937"/>
<polygon fill="midnightblue" stroke="midnightblue" points="773.774,-29.6515 770.667,-19.5224 766.779,-29.3782 773.774,-29.6515"/>
</g>
<!-- Node15 -->
<g id="node15" class="node"><title>Node15</title>
<polygon fill="none" stroke="#bfbfbf" points="807.5,-62.5 807.5,-81.5 852.5,-81.5 852.5,-62.5 807.5,-62.5"/>
<text text-anchor="middle" x="830" y="-69.5" font-family="Helvetica,sans-Serif" font-size="10.00">climits</text>
</g>
<!-- Node14&#45;&gt;Node15 -->
<g id="edge16" class="edge"><title>Node14&#45;&gt;Node15</title>
<path fill="none" stroke="midnightblue" d="M774.367,-130.372C784.468,-119.955 801.668,-102.217 814.275,-89.2162"/>
<polygon fill="midnightblue" stroke="midnightblue" points="816.978,-91.4567 821.427,-81.8411 811.953,-86.5836 816.978,-91.4567"/>
</g>
<!-- Node16&#45;&gt;Node10 -->
<g id="edge21" class="edge"><title>Node16&#45;&gt;Node10</title>
<path fill="none" stroke="midnightblue" d="M457.5,-124.679C464.376,-116.117 473.261,-105.053 481.044,-95.3604"/>
<polygon fill="midnightblue" stroke="midnightblue" points="483.99,-97.2817 487.522,-87.2931 478.532,-92.8988 483.99,-97.2817"/>
</g>
<!-- Node17 -->
<g id="node17" class="node"><title>Node17</title>
<polygon fill="none" stroke="#bfbfbf" points="284,-62.5 284,-81.5 328,-81.5 328,-62.5 284,-62.5"/>
<text text-anchor="middle" x="306" y="-69.5" font-family="Helvetica,sans-Serif" font-size="10.00">vector</text>
</g>
<!-- Node16&#45;&gt;Node17 -->
<g id="edge18" class="edge"><title>Node16&#45;&gt;Node17</title>
<path fill="none" stroke="midnightblue" d="M415.41,-124.817C393.535,-114.643 363.412,-100.568 337,-88 335.65,-87.3577 334.269,-86.6979 332.874,-86.03"/>
<polygon fill="midnightblue" stroke="midnightblue" points="334.214,-82.7908 323.686,-81.6067 331.178,-89.098 334.214,-82.7908"/>
</g>
<!-- Node18 -->
<g id="node18" class="node"><title>Node18</title>
<polygon fill="none" stroke="#bfbfbf" points="346,-62.5 346,-81.5 402,-81.5 402,-62.5 346,-62.5"/>
<text text-anchor="middle" x="374" y="-69.5" font-family="Helvetica,sans-Serif" font-size="10.00">TChain.h</text>
</g>
<!-- Node16&#45;&gt;Node18 -->
<g id="edge19" class="edge"><title>Node16&#45;&gt;Node18</title>
<path fill="none" stroke="midnightblue" d="M430.377,-124.679C418.817,-114.082 403.078,-99.6546 391.167,-88.7362"/>
<polygon fill="midnightblue" stroke="midnightblue" points="393.367,-86.0055 383.631,-81.8283 388.637,-91.1656 393.367,-86.0055"/>
</g>
<!-- Node19 -->
<g id="node19" class="node"><title>Node19</title>
<polygon fill="none" stroke="#bfbfbf" points="204,-62.5 204,-81.5 266,-81.5 266,-62.5 204,-62.5"/>
<text text-anchor="middle" x="235" y="-69.5" font-family="Helvetica,sans-Serif" font-size="10.00">TBranch.h</text>
</g>
<!-- Node16&#45;&gt;Node19 -->
<g id="edge20" class="edge"><title>Node16&#45;&gt;Node19</title>
<path fill="none" stroke="midnightblue" d="M395.581,-124.952C361.374,-115.179 315.23,-101.524 275,-88 272.232,-87.0694 269.369,-86.0703 266.506,-85.0456"/>
<polygon fill="midnightblue" stroke="midnightblue" points="267.503,-81.6833 256.909,-81.5264 265.093,-88.2553 267.503,-81.6833"/>
</g>
<!-- Node21 -->
<g id="node21" class="node"><title>Node21</title>
<polygon fill="none" stroke="#bfbfbf" points="1053,-62.5 1053,-81.5 1115,-81.5 1115,-62.5 1053,-62.5"/>
<text text-anchor="middle" x="1084" y="-69.5" font-family="Helvetica,sans-Serif" font-size="10.00">TNamed.h</text>
</g>
<!-- Node20&#45;&gt;Node21 -->
<g id="edge23" class="edge"><title>Node20&#45;&gt;Node21</title>
<path fill="none" stroke="midnightblue" d="M1066.77,-124.679C1070,-114.999 1074.29,-102.123 1077.79,-91.6449"/>
<polygon fill="midnightblue" stroke="midnightblue" points="1081.22,-92.422 1081.06,-81.8283 1074.57,-90.2083 1081.22,-92.422"/>
</g>
<!-- Node22 -->
<g id="node22" class="node"><title>Node22</title>
<polygon fill="none" stroke="#bfbfbf" points="1133.5,-62.5 1133.5,-81.5 1182.5,-81.5 1182.5,-62.5 1133.5,-62.5"/>
<text text-anchor="middle" x="1158" y="-69.5" font-family="Helvetica,sans-Serif" font-size="10.00">cassert</text>
</g>
<!-- Node20&#45;&gt;Node22 -->
<g id="edge24" class="edge"><title>Node20&#45;&gt;Node22</title>
<path fill="none" stroke="midnightblue" d="M1082.83,-124.679C1098.78,-113.713 1120.7,-98.645 1136.75,-87.6085"/>
<polygon fill="midnightblue" stroke="midnightblue" points="1139.18,-90.1874 1145.44,-81.6379 1135.21,-84.4191 1139.18,-90.1874"/>
</g>
<!-- Node23 -->
<g id="node23" class="node"><title>Node23</title>
<polygon fill="none" stroke="#bfbfbf" points="1200.5,-62.5 1200.5,-81.5 1259.5,-81.5 1259.5,-62.5 1200.5,-62.5"/>
<text text-anchor="middle" x="1230" y="-69.5" font-family="Helvetica,sans-Serif" font-size="10.00">stdexcept</text>
</g>
<!-- Node20&#45;&gt;Node23 -->
<g id="edge25" class="edge"><title>Node20&#45;&gt;Node23</title>
<path fill="none" stroke="midnightblue" d="M1098.04,-124.841C1127.88,-113.118 1169.87,-96.6241 1198.41,-85.4113"/>
<polygon fill="midnightblue" stroke="midnightblue" points="1199.87,-88.5961 1207.9,-81.6819 1197.31,-82.0808 1199.87,-88.5961"/>
</g>
<!-- Node24 -->
<g id="node24" class="node"><title>Node24</title>
<polygon fill="none" stroke="#bfbfbf" points="909.5,-62.5 909.5,-81.5 954.5,-81.5 954.5,-62.5 909.5,-62.5"/>
<text text-anchor="middle" x="932" y="-69.5" font-family="Helvetica,sans-Serif" font-size="10.00">gsl/gsl</text>
</g>
<!-- Node20&#45;&gt;Node24 -->
<g id="edge26" class="edge"><title>Node20&#45;&gt;Node24</title>
<path fill="none" stroke="midnightblue" d="M1034.11,-124.841C1011.63,-113.425 980.228,-97.4852 958.204,-86.3033"/>
<polygon fill="midnightblue" stroke="midnightblue" points="959.602,-83.088 949.101,-81.6819 956.433,-89.3297 959.602,-83.088"/>
</g>
<!-- Node25 -->
<g id="node25" class="node"><title>Node25</title>
<polygon fill="none" stroke="#bfbfbf" points="973,-62.5 973,-81.5 1035,-81.5 1035,-62.5 973,-62.5"/>
<text text-anchor="middle" x="1004" y="-69.5" font-family="Helvetica,sans-Serif" font-size="10.00">type_traits</text>
</g>
<!-- Node20&#45;&gt;Node25 -->
<g id="edge27" class="edge"><title>Node20&#45;&gt;Node25</title>
<path fill="none" stroke="midnightblue" d="M1049.41,-124.679C1040.28,-114.286 1027.91,-100.208 1018.39,-89.37"/>
<polygon fill="midnightblue" stroke="midnightblue" points="1020.99,-87.0296 1011.76,-81.8283 1015.73,-91.6504 1020.99,-87.0296"/>
</g>
<!-- Node26&#45;&gt;Node9 -->
<g id="edge29" class="edge"><title>Node26&#45;&gt;Node9</title>
<path fill="none" stroke="midnightblue" d="M892.374,-124.711C888.408,-106.71 879.323,-75.7485 861,-56 846.864,-40.7646 826.43,-29.9711 808.604,-22.7814"/>
<polygon fill="midnightblue" stroke="midnightblue" points="809.617,-19.4225 799.026,-19.1526 807.137,-25.9685 809.617,-19.4225"/>
</g>
</g>
</svg>
        <g id="navigator" transform="translate(0 0)" fill="#404254">
                <rect fill="#f2f5e9" fill-opacity="0.5" stroke="#606060" stroke-width=".5" x="0" y="0" width="60" height="60"/>
                <use id="zoomplus" xlink:href="#zoomPlus" x="17" y="9" onmousedown="handleZoom(evt,'in')"/>
                <use id="zoomminus" xlink:href="#zoomMin" x="42" y="9" onmousedown="handleZoom(evt,'out')"/>
                <use id="reset" xlink:href="#resetDef" x="30" y="36" onmousedown="handleReset()"/>
                <g id="arrowUp" xlink:href="#dirArrow" transform="translate(30 24)" onmousedown="handlePan(0,-1)">
                  <use xlink:href="#rim" fill="#404040">
                        <set attributeName="fill" to="#808080" begin="arrowUp.mouseover" end="arrowUp.mouseout"/>
                  </use>
                  <path fill="none" stroke="white" stroke-width="1.5" d="M0,-3.0v7 M-2.5,-0.5L0,-3.0L2.5,-0.5"/>
                </g>
                <g id="arrowRight" xlink:href="#dirArrow" transform="rotate(90) translate(36 -43)" onmousedown="handlePan(1,0)">
                  <use xlink:href="#rim" fill="#404040">
                        <set attributeName="fill" to="#808080" begin="arrowRight.mouseover" end="arrowRight.mouseout"/>
                  </use>
                  <path fill="none" stroke="white" stroke-width="1.5" d="M0,-3.0v7 M-2.5,-0.5L0,-3.0L2.5,-0.5"/>
                </g>
                <g id="arrowDown" xlink:href="#dirArrow" transform="rotate(180) translate(-30 -48)" onmousedown="handlePan(0,1)">
                  <use xlink:href="#rim" fill="#404040">
                        <set attributeName="fill" to="#808080" begin="arrowDown.mouseover" end="arrowDown.mouseout"/>
                  </use>
                  <path fill="none" stroke="white" stroke-width="1.5" d="M0,-3.0v7 M-2.5,-0.5L0,-3.0L2.5,-0.5"/>
                </g>
                <g id="arrowLeft" xlink:href="#dirArrow" transform="rotate(270) translate(-36 17)" onmousedown="handlePan(-1,0)">
                  <use xlink:href="#rim" fill="#404040">
                        <set attributeName="fill" to="#808080" begin="arrowLeft.mouseover" end="arrowLeft.mouseout"/>
                  </use>
                  <path fill="none" stroke="white" stroke-width="1.5" d="M0,-3.0v7 M-2.5,-0.5L0,-3.0L2.5,-0.5"/>
                </g>
        </g>
        <svg viewBox="0 0 15 15" width="100%" height="30px" preserveAspectRatio="xMaxYMin meet">
         <g id="arrow_out" transform="scale(0.3 0.3)">
          <a xlink:href="readITSDigits_8C__incl_org.svg" target="_base">
           <rect id="button" ry="5" rx="5" y="6" x="6" height="38" width="38"
                fill="#f2f5e9" fill-opacity="0.5" stroke="#606060" stroke-width="1.0"/>
           <path id="arrow"
             d="M 11.500037,31.436501 C 11.940474,20.09759 22.043105,11.32322 32.158766,21.979434 L 37.068811,17.246167 C 37.068811,17.246167 37.088388,32 37.088388,32 L 22.160133,31.978069 C 22.160133,31.978069 26.997745,27.140456 26.997745,27.140456 C 18.528582,18.264221 13.291696,25.230495 11.500037,31.436501 z"
             style="fill:#404040;"/>
          </a>
         </g>
        </svg>
</svg>
