<?xml version="1.0" encoding="UTF-8" standalone="no"?>
<!DOCTYPE svg PUBLIC "-//W3C//DTD SVG 1.1//EN"
 "http://www.w3.org/Graphics/SVG/1.1/DTD/svg11.dtd">
<!-- Generated by graphviz version 2.36.0 (20140111.2315)
 -->
<!-- Title: /home/travis/build/AliceO2Group/AliceO2/Utilities/DataFlow/src/TimeframeReaderDevice.cxx Pages: 1 -->
<svg width="1258pt" height="422pt"
 viewBox="0.00 0.00 1258.00 422.00" xmlns="http://www.w3.org/2000/svg" xmlns:xlink="http://www.w3.org/1999/xlink">
<g id="graph0" class="graph" transform="scale(1 1) rotate(0) translate(4 418)">
<title>/home/travis/build/AliceO2Group/AliceO2/Utilities/DataFlow/src/TimeframeReaderDevice.cxx</title>
<!-- Node1 -->
<g id="node1" class="node"><title>Node1</title>
<polygon fill="#bfbfbf" stroke="black" points="721.5,-361 721.5,-413 868.5,-413 868.5,-361 721.5,-361"/>
<text text-anchor="start" x="729.5" y="-401" font-family="Helvetica,sans-Serif" font-size="10.00">/home/travis/build</text>
<text text-anchor="start" x="729.5" y="-390" font-family="Helvetica,sans-Serif" font-size="10.00">/AliceO2Group/AliceO2</text>
<text text-anchor="start" x="729.5" y="-379" font-family="Helvetica,sans-Serif" font-size="10.00">/Utilities/DataFlow/src</text>
<text text-anchor="middle" x="795" y="-368" font-family="Helvetica,sans-Serif" font-size="10.00">/TimeframeReaderDevice.cxx</text>
</g>
<!-- Node2 -->
<g id="node2" class="node"><title>Node2</title>
<polygon fill="none" stroke="#bfbfbf" points="0,-6.5 0,-25.5 46,-25.5 46,-6.5 0,-6.5"/>
<text text-anchor="middle" x="23" y="-13.5" font-family="Helvetica,sans-Serif" font-size="10.00">cstring</text>
</g>
<!-- Node1&#45;&gt;Node2 -->
<g id="edge1" class="edge"><title>Node1&#45;&gt;Node2</title>
<path fill="none" stroke="midnightblue" d="M721.428,-380.117C531.954,-363.983 42,-315.629 42,-247 42,-247 42,-247 42,-133 42,-98.2591 33.5979,-58.426 27.9684,-35.6363"/>
<polygon fill="midnightblue" stroke="midnightblue" points="31.282,-34.4679 25.4064,-25.6516 24.5017,-36.2077 31.282,-34.4679"/>
</g>
<!-- Node3 -->
<g id="node3" class="node"><title>Node3</title>
<g id="a_node3"><a xlink:href="../../da/d74/TimeframeReaderDevice_8h.html" target="_top" xlink:title="DataFlow/TimeframeReader\lDevice.h">
<polygon fill="none" stroke="black" points="623,-293 623,-323 763,-323 763,-293 623,-293"/>
<text text-anchor="start" x="631" y="-311" font-family="Helvetica,sans-Serif" font-size="10.00">DataFlow/TimeframeReader</text>
<text text-anchor="middle" x="693" y="-300" font-family="Helvetica,sans-Serif" font-size="10.00">Device.h</text>
</a>
</g>
</g>
<!-- Node1&#45;&gt;Node3 -->
<g id="edge2" class="edge"><title>Node1&#45;&gt;Node3</title>
<path fill="none" stroke="midnightblue" d="M761.601,-360.787C747.97,-350.497 732.427,-338.764 719.587,-329.07"/>
<polygon fill="midnightblue" stroke="midnightblue" points="721.676,-326.262 711.586,-323.031 717.459,-331.849 721.676,-326.262"/>
</g>
<!-- Node6 -->
<g id="node6" class="node"><title>Node6</title>
<polygon fill="none" stroke="#bfbfbf" points="760,-180.5 760,-199.5 906,-199.5 906,-180.5 760,-180.5"/>
<text text-anchor="middle" x="833" y="-187.5" font-family="Helvetica,sans-Serif" font-size="10.00">options/FairMQProgOptions.h</text>
</g>
<!-- Node1&#45;&gt;Node6 -->
<g id="edge40" class="edge"><title>Node1&#45;&gt;Node6</title>
<path fill="none" stroke="midnightblue" d="M799.89,-360.906C807.632,-321.18 822.533,-244.713 829.388,-209.536"/>
<polygon fill="midnightblue" stroke="midnightblue" points="832.834,-210.149 831.312,-199.664 825.963,-208.81 832.834,-210.149"/>
</g>
<!-- Node20 -->
<g id="node20" class="node"><title>Node20</title>
<g id="a_node20"><a xlink:href="../../dc/dcd/DataHeader_8h.html" target="_top" xlink:title="Headers/DataHeader.h">
<polygon fill="none" stroke="black" points="313.5,-124.5 313.5,-143.5 430.5,-143.5 430.5,-124.5 313.5,-124.5"/>
<text text-anchor="middle" x="372" y="-131.5" font-family="Helvetica,sans-Serif" font-size="10.00">Headers/DataHeader.h</text>
</a>
</g>
</g>
<!-- Node1&#45;&gt;Node20 -->
<g id="edge39" class="edge"><title>Node1&#45;&gt;Node20</title>
<path fill="none" stroke="midnightblue" d="M721.136,-379.886C617.507,-366.831 432.729,-326.149 353,-200 343.712,-185.304 351.493,-165.897 359.724,-152.126"/>
<polygon fill="midnightblue" stroke="midnightblue" points="362.743,-153.904 365.289,-143.62 356.886,-150.072 362.743,-153.904"/>
</g>
<!-- Node29 -->
<g id="node29" class="node"><title>Node29</title>
<g id="a_node29"><a xlink:href="../../dd/ddb/TimeframeParser_8h.html" target="_top" xlink:title="DataFlow/TimeframeParser.h">
<polygon fill="none" stroke="black" points="962.5,-298.5 962.5,-317.5 1107.5,-317.5 1107.5,-298.5 962.5,-298.5"/>
<text text-anchor="middle" x="1035" y="-305.5" font-family="Helvetica,sans-Serif" font-size="10.00">DataFlow/TimeframeParser.h</text>
</a>
</g>
</g>
<!-- Node1&#45;&gt;Node29 -->
<g id="edge34" class="edge"><title>Node1&#45;&gt;Node29</title>
<path fill="none" stroke="midnightblue" d="M868.639,-362.374C911.78,-348.533 964.369,-331.661 998.718,-320.64"/>
<polygon fill="midnightblue" stroke="midnightblue" points="999.878,-323.944 1008.33,-317.557 997.739,-317.279 999.878,-323.944"/>
</g>
<!-- Node32 -->
<g id="node32" class="node"><title>Node32</title>
<g id="a_node32"><a xlink:href="../../d2/d1b/SubframeMetadata_8h.html" target="_top" xlink:title="Headers/SubframeMetadata.h">
<polygon fill="none" stroke="black" points="944.5,-124.5 944.5,-143.5 1091.5,-143.5 1091.5,-124.5 944.5,-124.5"/>
<text text-anchor="middle" x="1018" y="-131.5" font-family="Helvetica,sans-Serif" font-size="10.00">Headers/SubframeMetadata.h</text>
</a>
</g>
</g>
<!-- Node1&#45;&gt;Node32 -->
<g id="edge37" class="edge"><title>Node1&#45;&gt;Node32</title>
<path fill="none" stroke="midnightblue" d="M817.61,-360.551C863.285,-309.141 965.435,-194.165 1003.41,-151.419"/>
<polygon fill="midnightblue" stroke="midnightblue" points="1006.09,-153.674 1010.12,-143.873 1000.86,-149.024 1006.09,-153.674"/>
</g>
<!-- Node4 -->
<g id="node4" class="node"><title>Node4</title>
<g id="a_node4"><a xlink:href="../../d2/dee/O2Device_8h.html" target="_top" xlink:title="O2Device/O2Device.h">
<polygon fill="none" stroke="black" points="483.5,-236.5 483.5,-255.5 598.5,-255.5 598.5,-236.5 483.5,-236.5"/>
<text text-anchor="middle" x="541" y="-243.5" font-family="Helvetica,sans-Serif" font-size="10.00">O2Device/O2Device.h</text>
</a>
</g>
</g>
<!-- Node3&#45;&gt;Node4 -->
<g id="edge3" class="edge"><title>Node3&#45;&gt;Node4</title>
<path fill="none" stroke="midnightblue" d="M657.363,-292.933C631.604,-282.765 597.131,-269.157 572.404,-259.396"/>
<polygon fill="midnightblue" stroke="midnightblue" points="573.373,-256.016 562.787,-255.6 570.803,-262.527 573.373,-256.016"/>
</g>
<!-- Node28 -->
<g id="node28" class="node"><title>Node28</title>
<polygon fill="none" stroke="#bfbfbf" points="668,-236.5 668,-255.5 718,-255.5 718,-236.5 668,-236.5"/>
<text text-anchor="middle" x="693" y="-243.5" font-family="Helvetica,sans-Serif" font-size="10.00">fstream</text>
</g>
<!-- Node3&#45;&gt;Node28 -->
<g id="edge33" class="edge"><title>Node3&#45;&gt;Node28</title>
<path fill="none" stroke="midnightblue" d="M693,-292.781C693,-284.781 693,-274.689 693,-266.017"/>
<polygon fill="midnightblue" stroke="midnightblue" points="696.5,-265.73 693,-255.731 689.5,-265.731 696.5,-265.73"/>
</g>
<!-- Node5 -->
<g id="node5" class="node"><title>Node5</title>
<polygon fill="none" stroke="#bfbfbf" points="484,-180.5 484,-199.5 572,-199.5 572,-180.5 484,-180.5"/>
<text text-anchor="middle" x="528" y="-187.5" font-family="Helvetica,sans-Serif" font-size="10.00">FairMQDevice.h</text>
</g>
<!-- Node4&#45;&gt;Node5 -->
<g id="edge4" class="edge"><title>Node4&#45;&gt;Node5</title>
<path fill="none" stroke="midnightblue" d="M538.853,-236.083C537.131,-228.927 534.653,-218.635 532.5,-209.691"/>
<polygon fill="midnightblue" stroke="midnightblue" points="535.85,-208.654 530.107,-199.751 529.045,-210.293 535.85,-208.654"/>
</g>
<!-- Node4&#45;&gt;Node6 -->
<g id="edge5" class="edge"><title>Node4&#45;&gt;Node6</title>
<path fill="none" stroke="midnightblue" d="M587.268,-236.444C638.741,-226.925 721.893,-211.547 776.999,-201.356"/>
<polygon fill="midnightblue" stroke="midnightblue" points="777.751,-204.777 786.948,-199.516 776.478,-197.893 777.751,-204.777"/>
</g>
<!-- Node7 -->
<g id="node7" class="node"><title>Node7</title>
<g id="a_node7"><a xlink:href="../../d7/db2/Utilities_8h.html" target="_top" xlink:title="O2Device/Utilities.h">
<polygon fill="none" stroke="black" points="362,-180.5 362,-199.5 466,-199.5 466,-180.5 362,-180.5"/>
<text text-anchor="middle" x="414" y="-187.5" font-family="Helvetica,sans-Serif" font-size="10.00">O2Device/Utilities.h</text>
</a>
</g>
</g>
<!-- Node4&#45;&gt;Node7 -->
<g id="edge6" class="edge"><title>Node4&#45;&gt;Node7</title>
<path fill="none" stroke="midnightblue" d="M520.876,-236.444C499.976,-227.557 467.065,-213.563 443.284,-203.451"/>
<polygon fill="midnightblue" stroke="midnightblue" points="444.602,-200.208 434.029,-199.516 441.862,-206.65 444.602,-200.208"/>
</g>
<!-- Node25 -->
<g id="node25" class="node"><title>Node25</title>
<polygon fill="none" stroke="#bfbfbf" points="90.5,-68.5 90.5,-87.5 149.5,-87.5 149.5,-68.5 90.5,-68.5"/>
<text text-anchor="middle" x="120" y="-75.5" font-family="Helvetica,sans-Serif" font-size="10.00">stdexcept</text>
</g>
<!-- Node4&#45;&gt;Node25 -->
<g id="edge32" class="edge"><title>Node4&#45;&gt;Node25</title>
<path fill="none" stroke="midnightblue" d="M490.934,-236.47C452.479,-229.099 398.438,-216.946 353,-200 271.776,-169.709 182.64,-117.643 142.176,-92.8739"/>
<polygon fill="midnightblue" stroke="midnightblue" points="143.982,-89.8756 133.633,-87.6058 140.308,-95.8338 143.982,-89.8756"/>
</g>
<!-- Node27 -->
<g id="node27" class="node"><title>Node27</title>
<polygon fill="none" stroke="#bfbfbf" points="590.5,-180.5 590.5,-199.5 741.5,-199.5 741.5,-180.5 590.5,-180.5"/>
<text text-anchor="middle" x="666" y="-187.5" font-family="Helvetica,sans-Serif" font-size="10.00">Monitoring/MonitoringFactory.h</text>
</g>
<!-- Node4&#45;&gt;Node27 -->
<g id="edge31" class="edge"><title>Node4&#45;&gt;Node27</title>
<path fill="none" stroke="midnightblue" d="M560.807,-236.444C581.287,-227.596 613.483,-213.687 636.865,-203.586"/>
<polygon fill="midnightblue" stroke="midnightblue" points="638.494,-206.695 646.286,-199.516 635.718,-200.269 638.494,-206.695"/>
</g>
<!-- Node8 -->
<g id="node8" class="node"><title>Node8</title>
<g id="a_node8"><a xlink:href="../../dc/d03/MemoryResources_8h.html" target="_top" xlink:title="MemoryResources/MemoryResources.h">
<polygon fill="none" stroke="black" points="520.5,-68.5 520.5,-87.5 713.5,-87.5 713.5,-68.5 520.5,-68.5"/>
<text text-anchor="middle" x="617" y="-75.5" font-family="Helvetica,sans-Serif" font-size="10.00">MemoryResources/MemoryResources.h</text>
</a>
</g>
</g>
<!-- Node7&#45;&gt;Node8 -->
<g id="edge7" class="edge"><title>Node7&#45;&gt;Node8</title>
<path fill="none" stroke="midnightblue" d="M431.31,-180.416C449.137,-171.513 477.671,-157.089 502,-144 533.951,-126.81 570.331,-106.043 593.463,-92.6845"/>
<polygon fill="midnightblue" stroke="midnightblue" points="595.322,-95.6524 602.224,-87.6136 591.815,-89.5941 595.322,-95.6524"/>
</g>
<!-- Node15 -->
<g id="node15" class="node"><title>Node15</title>
<polygon fill="none" stroke="#bfbfbf" points="1148,-6.5 1148,-25.5 1188,-25.5 1188,-6.5 1148,-6.5"/>
<text text-anchor="middle" x="1168" y="-13.5" font-family="Helvetica,sans-Serif" font-size="10.00">utility</text>
</g>
<!-- Node7&#45;&gt;Node15 -->
<g id="edge29" class="edge"><title>Node7&#45;&gt;Node15</title>
<path fill="none" stroke="midnightblue" d="M460.888,-180.422C600.196,-154.685 1009.86,-77.1245 1138,-32 1139.85,-31.3472 1141.74,-30.6058 1143.62,-29.8106"/>
<polygon fill="midnightblue" stroke="midnightblue" points="1145.17,-32.948 1152.75,-25.5459 1142.21,-26.6053 1145.17,-32.948"/>
</g>
<!-- Node7&#45;&gt;Node20 -->
<g id="edge20" class="edge"><title>Node7&#45;&gt;Node20</title>
<path fill="none" stroke="midnightblue" d="M407.065,-180.083C401.071,-172.377 392.248,-161.033 384.952,-151.653"/>
<polygon fill="midnightblue" stroke="midnightblue" points="387.709,-149.496 378.806,-143.751 382.183,-153.793 387.709,-149.496"/>
</g>
<!-- Node26 -->
<g id="node26" class="node"><title>Node26</title>
<polygon fill="none" stroke="#bfbfbf" points="448.5,-124.5 448.5,-143.5 493.5,-143.5 493.5,-124.5 448.5,-124.5"/>
<text text-anchor="middle" x="471" y="-131.5" font-family="Helvetica,sans-Serif" font-size="10.00">gsl/gsl</text>
</g>
<!-- Node7&#45;&gt;Node26 -->
<g id="edge30" class="edge"><title>Node7&#45;&gt;Node26</title>
<path fill="none" stroke="midnightblue" d="M423.158,-180.324C431.501,-172.42 444.032,-160.548 454.177,-150.938"/>
<polygon fill="midnightblue" stroke="midnightblue" points="456.823,-153.252 461.675,-143.834 452.009,-148.171 456.823,-153.252"/>
</g>
<!-- Node8&#45;&gt;Node2 -->
<g id="edge12" class="edge"><title>Node8&#45;&gt;Node2</title>
<path fill="none" stroke="midnightblue" d="M520.239,-68.7607C517.123,-68.503 514.037,-68.2488 511,-68 308.382,-51.4003 251.539,-83.9809 55,-32 52.6477,-31.3779 50.2563,-30.5885 47.8944,-29.6987"/>
<polygon fill="midnightblue" stroke="midnightblue" points="49.0943,-26.4044 38.5266,-25.6464 46.315,-32.829 49.0943,-26.4044"/>
</g>
<!-- Node9 -->
<g id="node9" class="node"><title>Node9</title>
<polygon fill="none" stroke="#bfbfbf" points="124,-1 124,-31 224,-31 224,-1 124,-1"/>
<text text-anchor="start" x="132" y="-19" font-family="Helvetica,sans-Serif" font-size="10.00">boost/container/flat</text>
<text text-anchor="middle" x="174" y="-8" font-family="Helvetica,sans-Serif" font-size="10.00">_map.hpp</text>
</g>
<!-- Node8&#45;&gt;Node9 -->
<g id="edge8" class="edge"><title>Node8&#45;&gt;Node9</title>
<path fill="none" stroke="midnightblue" d="M532.997,-68.4695C442.464,-59.0547 303.126,-43.87 234.161,-32.0184"/>
<polygon fill="midnightblue" stroke="midnightblue" points="234.572,-28.5365 224.112,-30.2207 233.34,-35.4271 234.572,-28.5365"/>
</g>
<!-- Node10 -->
<g id="node10" class="node"><title>Node10</title>
<polygon fill="none" stroke="#bfbfbf" points="242,-1 242,-31 358,-31 358,-1 242,-1"/>
<text text-anchor="start" x="250" y="-19" font-family="Helvetica,sans-Serif" font-size="10.00">boost/container/pmr</text>
<text text-anchor="middle" x="300" y="-8" font-family="Helvetica,sans-Serif" font-size="10.00">/memory_resource.hpp</text>
</g>
<!-- Node8&#45;&gt;Node10 -->
<g id="edge9" class="edge"><title>Node8&#45;&gt;Node10</title>
<path fill="none" stroke="midnightblue" d="M566.126,-68.4895C517.701,-60.2429 442.537,-47.0667 368.093,-32.1745"/>
<polygon fill="midnightblue" stroke="midnightblue" points="368.567,-28.6998 358.073,-30.1586 367.186,-35.5623 368.567,-28.6998"/>
</g>
<!-- Node11 -->
<g id="node11" class="node"><title>Node11</title>
<polygon fill="none" stroke="#bfbfbf" points="376,-1 376,-31 532,-31 532,-1 376,-1"/>
<text text-anchor="start" x="384" y="-19" font-family="Helvetica,sans-Serif" font-size="10.00">boost/container/pmr</text>
<text text-anchor="middle" x="454" y="-8" font-family="Helvetica,sans-Serif" font-size="10.00">/monotonic_buffer_resource.hpp</text>
</g>
<!-- Node8&#45;&gt;Node11 -->
<g id="edge10" class="edge"><title>Node8&#45;&gt;Node11</title>
<path fill="none" stroke="midnightblue" d="M593.646,-68.4035C569.737,-59.6025 531.897,-45.6737 501.634,-34.534"/>
<polygon fill="midnightblue" stroke="midnightblue" points="502.696,-31.1952 492.102,-31.0253 500.277,-37.7643 502.696,-31.1952"/>
</g>
<!-- Node12 -->
<g id="node12" class="node"><title>Node12</title>
<polygon fill="none" stroke="#bfbfbf" points="550.5,-1 550.5,-31 683.5,-31 683.5,-1 550.5,-1"/>
<text text-anchor="start" x="558.5" y="-19" font-family="Helvetica,sans-Serif" font-size="10.00">boost/container/pmr</text>
<text text-anchor="middle" x="617" y="-8" font-family="Helvetica,sans-Serif" font-size="10.00">/polymorphic_allocator.hpp</text>
</g>
<!-- Node8&#45;&gt;Node12 -->
<g id="edge11" class="edge"><title>Node8&#45;&gt;Node12</title>
<path fill="none" stroke="midnightblue" d="M617,-68.4035C617,-61.3405 617,-50.975 617,-41.399"/>
<polygon fill="midnightblue" stroke="midnightblue" points="620.5,-41.1408 617,-31.1408 613.5,-41.1408 620.5,-41.1408"/>
</g>
<!-- Node13 -->
<g id="node13" class="node"><title>Node13</title>
<polygon fill="none" stroke="#bfbfbf" points="64.5,-6.5 64.5,-25.5 105.5,-25.5 105.5,-6.5 64.5,-6.5"/>
<text text-anchor="middle" x="85" y="-13.5" font-family="Helvetica,sans-Serif" font-size="10.00">string</text>
</g>
<!-- Node8&#45;&gt;Node13 -->
<g id="edge13" class="edge"><title>Node8&#45;&gt;Node13</title>
<path fill="none" stroke="midnightblue" d="M520.463,-68.801C377.359,-56.5832 124.634,-34.7342 115,-32 113.025,-31.4396 111.026,-30.7491 109.045,-29.975"/>
<polygon fill="midnightblue" stroke="midnightblue" points="110.06,-26.591 99.51,-25.6227 107.154,-32.9591 110.06,-26.591"/>
</g>
<!-- Node14 -->
<g id="node14" class="node"><title>Node14</title>
<polygon fill="none" stroke="#bfbfbf" points="702,-6.5 702,-25.5 764,-25.5 764,-6.5 702,-6.5"/>
<text text-anchor="middle" x="733" y="-13.5" font-family="Helvetica,sans-Serif" font-size="10.00">type_traits</text>
</g>
<!-- Node8&#45;&gt;Node14 -->
<g id="edge14" class="edge"><title>Node8&#45;&gt;Node14</title>
<path fill="none" stroke="midnightblue" d="M633.62,-68.4035C652.915,-58.4232 684.959,-41.8487 707.431,-30.2253"/>
<polygon fill="midnightblue" stroke="midnightblue" points="709.137,-33.2836 716.411,-25.5806 705.921,-27.0661 709.137,-33.2836"/>
</g>
<!-- Node8&#45;&gt;Node15 -->
<g id="edge15" class="edge"><title>Node8&#45;&gt;Node15</title>
<path fill="none" stroke="midnightblue" d="M713.674,-72.9942C841.832,-66.936 1060.78,-53.7798 1138,-32 1139.98,-31.4428 1141.98,-30.7547 1143.96,-29.9822"/>
<polygon fill="midnightblue" stroke="midnightblue" points="1145.85,-32.967 1153.49,-25.633 1142.94,-26.5981 1145.85,-32.967"/>
</g>
<!-- Node16 -->
<g id="node16" class="node"><title>Node16</title>
<polygon fill="none" stroke="#bfbfbf" points="1206,-6.5 1206,-25.5 1250,-25.5 1250,-6.5 1206,-6.5"/>
<text text-anchor="middle" x="1228" y="-13.5" font-family="Helvetica,sans-Serif" font-size="10.00">vector</text>
</g>
<!-- Node8&#45;&gt;Node16 -->
<g id="edge16" class="edge"><title>Node8&#45;&gt;Node16</title>
<path fill="none" stroke="midnightblue" d="M713.582,-73.8516C854.311,-68.525 1108.58,-55.9044 1197,-32 1199.2,-31.4041 1201.44,-30.6522 1203.65,-29.8041"/>
<polygon fill="midnightblue" stroke="midnightblue" points="1205.27,-32.9146 1212.99,-25.6559 1202.43,-26.5175 1205.27,-32.9146"/>
</g>
<!-- Node17 -->
<g id="node17" class="node"><title>Node17</title>
<polygon fill="none" stroke="#bfbfbf" points="782.5,-6.5 782.5,-25.5 865.5,-25.5 865.5,-6.5 782.5,-6.5"/>
<text text-anchor="middle" x="824" y="-13.5" font-family="Helvetica,sans-Serif" font-size="10.00">unordered_map</text>
</g>
<!-- Node8&#45;&gt;Node17 -->
<g id="edge17" class="edge"><title>Node8&#45;&gt;Node17</title>
<path fill="none" stroke="midnightblue" d="M646.658,-68.4035C682.934,-57.8886 744.464,-40.0539 784.664,-28.4016"/>
<polygon fill="midnightblue" stroke="midnightblue" points="785.767,-31.7263 794.397,-25.5806 783.818,-25.003 785.767,-31.7263"/>
</g>
<!-- Node18 -->
<g id="node18" class="node"><title>Node18</title>
<polygon fill="none" stroke="#bfbfbf" points="883.5,-6.5 883.5,-25.5 980.5,-25.5 980.5,-6.5 883.5,-6.5"/>
<text text-anchor="middle" x="932" y="-13.5" font-family="Helvetica,sans-Serif" font-size="10.00">FairMQMessage.h</text>
</g>
<!-- Node8&#45;&gt;Node18 -->
<g id="edge18" class="edge"><title>Node8&#45;&gt;Node18</title>
<path fill="none" stroke="midnightblue" d="M673.149,-68.4907C725.383,-60.2622 805.269,-46.8802 874,-32 879.464,-30.8171 885.19,-29.4697 890.828,-28.0789"/>
<polygon fill="midnightblue" stroke="midnightblue" points="891.968,-31.4008 900.804,-25.5551 890.251,-24.6146 891.968,-31.4008"/>
</g>
<!-- Node19 -->
<g id="node19" class="node"><title>Node19</title>
<polygon fill="none" stroke="#bfbfbf" points="998.5,-6.5 998.5,-25.5 1129.5,-25.5 1129.5,-6.5 998.5,-6.5"/>
<text text-anchor="middle" x="1064" y="-13.5" font-family="Helvetica,sans-Serif" font-size="10.00">FairMQTransportFactory.h</text>
</g>
<!-- Node8&#45;&gt;Node19 -->
<g id="edge19" class="edge"><title>Node8&#45;&gt;Node19</title>
<path fill="none" stroke="midnightblue" d="M703.332,-68.4611C778.897,-60.5335 891.524,-47.6196 989,-32 997.293,-30.6711 1006.07,-29.0833 1014.58,-27.4455"/>
<polygon fill="midnightblue" stroke="midnightblue" points="1015.26,-30.8772 1024.4,-25.5125 1013.91,-24.0089 1015.26,-30.8772"/>
</g>
<!-- Node20&#45;&gt;Node2 -->
<g id="edge24" class="edge"><title>Node20&#45;&gt;Node2</title>
<path fill="none" stroke="midnightblue" d="M327.653,-124.45C291.765,-116.857 240.26,-104.42 197,-88 178.788,-81.0873 175.903,-75.6762 158,-68 113.431,-48.8906 99.9017,-50.315 55,-32 53.3596,-31.3309 51.6821,-30.6219 49.9967,-29.8905"/>
<polygon fill="midnightblue" stroke="midnightblue" points="51.0161,-26.5103 40.4623,-25.5788 48.1317,-32.8884 51.0161,-26.5103"/>
</g>
<!-- Node20&#45;&gt;Node8 -->
<g id="edge28" class="edge"><title>Node20&#45;&gt;Node8</title>
<path fill="none" stroke="midnightblue" d="M410.821,-124.444C453.561,-115.023 522.332,-99.8656 568.566,-89.6752"/>
<polygon fill="midnightblue" stroke="midnightblue" points="569.348,-93.0869 578.361,-87.5164 567.842,-86.251 569.348,-93.0869"/>
</g>
<!-- Node20&#45;&gt;Node13 -->
<g id="edge27" class="edge"><title>Node20&#45;&gt;Node13</title>
<path fill="none" stroke="midnightblue" d="M382.928,-124.471C398.525,-111.299 423.642,-85.6811 408,-68 364.534,-18.8662 177.806,-50.9441 115,-32 113.035,-31.4072 111.042,-30.6933 109.066,-29.9028"/>
<polygon fill="midnightblue" stroke="midnightblue" points="110.088,-26.52 99.5403,-25.519 107.161,-32.879 110.088,-26.52"/>
</g>
<!-- Node21 -->
<g id="node21" class="node"><title>Node21</title>
<polygon fill="none" stroke="#bfbfbf" points="456,-68.5 456,-87.5 502,-87.5 502,-68.5 456,-68.5"/>
<text text-anchor="middle" x="479" y="-75.5" font-family="Helvetica,sans-Serif" font-size="10.00">cstdint</text>
</g>
<!-- Node20&#45;&gt;Node21 -->
<g id="edge21" class="edge"><title>Node20&#45;&gt;Node21</title>
<path fill="none" stroke="midnightblue" d="M389.191,-124.324C406.351,-115.664 432.946,-102.242 452.747,-92.249"/>
<polygon fill="midnightblue" stroke="midnightblue" points="454.501,-95.2847 461.851,-87.6545 451.347,-89.0354 454.501,-95.2847"/>
</g>
<!-- Node22 -->
<g id="node22" class="node"><title>Node22</title>
<polygon fill="none" stroke="#bfbfbf" points="206,-68.5 206,-87.5 258,-87.5 258,-68.5 206,-68.5"/>
<text text-anchor="middle" x="232" y="-75.5" font-family="Helvetica,sans-Serif" font-size="10.00">memory</text>
</g>
<!-- Node20&#45;&gt;Node22 -->
<g id="edge22" class="edge"><title>Node20&#45;&gt;Node22</title>
<path fill="none" stroke="midnightblue" d="M349.817,-124.444C326.572,-115.478 289.851,-101.314 263.585,-91.1827"/>
<polygon fill="midnightblue" stroke="midnightblue" points="264.669,-87.8497 254.08,-87.5164 262.15,-94.3807 264.669,-87.8497"/>
</g>
<!-- Node23 -->
<g id="node23" class="node"><title>Node23</title>
<polygon fill="none" stroke="#bfbfbf" points="276.5,-68.5 276.5,-87.5 325.5,-87.5 325.5,-68.5 276.5,-68.5"/>
<text text-anchor="middle" x="301" y="-75.5" font-family="Helvetica,sans-Serif" font-size="10.00">cassert</text>
</g>
<!-- Node20&#45;&gt;Node23 -->
<g id="edge23" class="edge"><title>Node20&#45;&gt;Node23</title>
<path fill="none" stroke="midnightblue" d="M360.593,-124.324C349.891,-116.185 333.659,-103.839 320.837,-94.0874"/>
<polygon fill="midnightblue" stroke="midnightblue" points="322.693,-91.1018 312.615,-87.8339 318.456,-96.6734 322.693,-91.1018"/>
</g>
<!-- Node24 -->
<g id="node24" class="node"><title>Node24</title>
<polygon fill="none" stroke="#bfbfbf" points="344,-68.5 344,-87.5 400,-87.5 400,-68.5 344,-68.5"/>
<text text-anchor="middle" x="372" y="-75.5" font-family="Helvetica,sans-Serif" font-size="10.00">algorithm</text>
</g>
<!-- Node20&#45;&gt;Node24 -->
<g id="edge25" class="edge"><title>Node20&#45;&gt;Node24</title>
<path fill="none" stroke="midnightblue" d="M372,-124.083C372,-117.006 372,-106.861 372,-97.9865"/>
<polygon fill="midnightblue" stroke="midnightblue" points="375.5,-97.751 372,-87.7511 368.5,-97.7511 375.5,-97.751"/>
</g>
<!-- Node20&#45;&gt;Node25 -->
<g id="edge26" class="edge"><title>Node20&#45;&gt;Node25</title>
<path fill="none" stroke="midnightblue" d="M332.07,-124.444C284.747,-114.303 206.398,-97.5138 159.337,-87.4293"/>
<polygon fill="midnightblue" stroke="midnightblue" points="160.019,-83.996 149.507,-85.323 158.552,-90.8406 160.019,-83.996"/>
</g>
<!-- Node30 -->
<g id="node30" class="node"><title>Node30</title>
<polygon fill="none" stroke="#bfbfbf" points="987.5,-236.5 987.5,-255.5 1032.5,-255.5 1032.5,-236.5 987.5,-236.5"/>
<text text-anchor="middle" x="1010" y="-243.5" font-family="Helvetica,sans-Serif" font-size="10.00">iosfwd</text>
</g>
<!-- Node29&#45;&gt;Node30 -->
<g id="edge35" class="edge"><title>Node29&#45;&gt;Node30</title>
<path fill="none" stroke="midnightblue" d="M1031.42,-298.403C1027.82,-289.76 1022.15,-276.17 1017.56,-265.134"/>
<polygon fill="midnightblue" stroke="midnightblue" points="1020.65,-263.465 1013.58,-255.581 1014.19,-266.158 1020.65,-263.465"/>
</g>
<!-- Node31 -->
<g id="node31" class="node"><title>Node31</title>
<polygon fill="none" stroke="#bfbfbf" points="1050.5,-236.5 1050.5,-255.5 1109.5,-255.5 1109.5,-236.5 1050.5,-236.5"/>
<text text-anchor="middle" x="1080" y="-243.5" font-family="Helvetica,sans-Serif" font-size="10.00">functional</text>
</g>
<!-- Node29&#45;&gt;Node31 -->
<g id="edge36" class="edge"><title>Node29&#45;&gt;Node31</title>
<path fill="none" stroke="midnightblue" d="M1041.45,-298.403C1048.2,-289.403 1058.97,-275.041 1067.41,-263.782"/>
<polygon fill="midnightblue" stroke="midnightblue" points="1070.36,-265.681 1073.56,-255.581 1064.76,-261.481 1070.36,-265.681"/>
</g>
<!-- Node32&#45;&gt;Node16 -->
<g id="edge38" class="edge"><title>Node32&#45;&gt;Node16</title>
<path fill="none" stroke="midnightblue" d="M1033.44,-124.47C1069.62,-104.485 1160.11,-54.5038 1203.73,-30.4066"/>
<polygon fill="midnightblue" stroke="midnightblue" points="1205.47,-33.4412 1212.54,-25.5423 1202.09,-27.3138 1205.47,-33.4412"/>
</g>
</g>
</svg>
