<?xml version="1.0" encoding="UTF-8" standalone="no"?>
<!DOCTYPE svg PUBLIC "-//W3C//DTD SVG 1.1//EN"
 "http://www.w3.org/Graphics/SVG/1.1/DTD/svg11.dtd">
<!-- Generated by graphviz version 2.36.0 (20140111.2315)
 -->
<!-- Title: FairTask Pages: 1 -->
<!--zoomable 348 -->
<svg id="main" version="1.1" xmlns="http://www.w3.org/2000/svg" xmlns:xlink="http://www.w3.org/1999/xlink" xml:space="preserve" onload="init(evt)">
<style type="text/css"><![CDATA[
.edge:hover path { stroke: red; }
.edge:hover polygon { stroke: red; fill: red; }
]]></style>
<script type="text/javascript"><![CDATA[
var edges = document.getElementsByTagName('g');
if (edges && edges.length) {
  for (var i=0;i<edges.length;i++) {
    if (edges[i].id.substr(0,4)=='edge') {
      edges[i].setAttribute('class','edge');
    }
  }
}
]]></script>
        <defs>
                <circle id="rim" cx="0" cy="0" r="7"/>
                <circle id="rim2" cx="0" cy="0" r="3.5"/>
                <g id="zoomPlus">
                        <use xlink:href="#rim" fill="#404040">
                                <set attributeName="fill" to="#808080" begin="zoomplus.mouseover" end="zoomplus.mouseout"/>
                        </use>
                        <path d="M-4,0h8M0,-4v8" fill="none" stroke="white" stroke-width="1.5" pointer-events="none"/>
                </g>
                <g id="zoomMin">
                        <use xlink:href="#rim" fill="#404040">
                                <set attributeName="fill" to="#808080" begin="zoomminus.mouseover" end="zoomminus.mouseout"/>
                        </use>
                        <path d="M-4,0h8" fill="none" stroke="white" stroke-width="1.5" pointer-events="none"/>
                </g>
                <g id="dirArrow">
                        <path fill="none" stroke="white" stroke-width="1.5" d="M0,-3.0v7 M-2.5,-0.5L0,-3.0L2.5,-0.5"/>
                </g>
               <g id="resetDef">
                       <use xlink:href="#rim2" fill="#404040">
                               <set attributeName="fill" to="#808080" begin="reset.mouseover" end="reset.mouseout"/>
                       </use>
               </g>
        </defs>

<script type="text/javascript">
var viewWidth = 2481;
var viewHeight = 348;
var sectionId = 'dynsection-0';
</script>
<script xlink:href="../../svgpan.js"/>
<svg id="graph" class="graph">
<g id="viewport">
<title>FairTask</title>
<!-- Node1 -->
<g id="node1" class="node"><title>Node1</title>
<polygon fill="#bfbfbf" stroke="black" points="1225.5,-282.5 1225.5,-339.5 1280.5,-339.5 1280.5,-282.5 1225.5,-282.5"/>
<text text-anchor="middle" x="1253" y="-327.5" font-family="Helvetica,sans-Serif" font-size="10.00">FairTask</text>
<polyline fill="none" stroke="black" points="1225.5,-320.5 1280.5,-320.5 "/>
<text text-anchor="middle" x="1253" y="-308.5" font-family="Helvetica,sans-Serif" font-size="10.00"> </text>
<polyline fill="none" stroke="black" points="1225.5,-301.5 1280.5,-301.5 "/>
<text text-anchor="middle" x="1253" y="-289.5" font-family="Helvetica,sans-Serif" font-size="10.00"> </text>
</g>
<!-- Node2 -->
<g id="node2" class="node"><title>Node2</title>
<g id="a_node2"><a xlink:href="../../de/d8a/classo2_1_1EMCAL_1_1DigitizerTask.html" target="_top" xlink:title="{o2::EMCAL::DigitizerTask\n||+ DigitizerTask()\l+ ~DigitizerTask()\l+ Init()\l+ Exec()\l+ FinishTask()\l+ getDigitizer()\l+ setFairTimeUnitInNS()\l+ getFairTimeUnitInNS()\l}">
<polygon fill="none" stroke="black" points="-0.5,-56 -0.5,-190 130.5,-190 130.5,-56 -0.5,-56"/>
<text text-anchor="middle" x="65" y="-178" font-family="Helvetica,sans-Serif" font-size="10.00">o2::EMCAL::DigitizerTask</text>
<polyline fill="none" stroke="black" points="-0.5,-171 130.5,-171 "/>
<text text-anchor="middle" x="65" y="-159" font-family="Helvetica,sans-Serif" font-size="10.00"> </text>
<polyline fill="none" stroke="black" points="-0.5,-152 130.5,-152 "/>
<text text-anchor="start" x="7.5" y="-140" font-family="Helvetica,sans-Serif" font-size="10.00">+ DigitizerTask()</text>
<text text-anchor="start" x="7.5" y="-129" font-family="Helvetica,sans-Serif" font-size="10.00">+ ~DigitizerTask()</text>
<text text-anchor="start" x="7.5" y="-118" font-family="Helvetica,sans-Serif" font-size="10.00">+ Init()</text>
<text text-anchor="start" x="7.5" y="-107" font-family="Helvetica,sans-Serif" font-size="10.00">+ Exec()</text>
<text text-anchor="start" x="7.5" y="-96" font-family="Helvetica,sans-Serif" font-size="10.00">+ FinishTask()</text>
<text text-anchor="start" x="7.5" y="-85" font-family="Helvetica,sans-Serif" font-size="10.00">+ getDigitizer()</text>
<text text-anchor="start" x="7.5" y="-74" font-family="Helvetica,sans-Serif" font-size="10.00">+ setFairTimeUnitInNS()</text>
<text text-anchor="start" x="7.5" y="-63" font-family="Helvetica,sans-Serif" font-size="10.00">+ getFairTimeUnitInNS()</text>
</a>
</g>
</g>
<!-- Node1&#45;&gt;Node2 -->
<g id="edge1" class="edge"><title>Node1&#45;&gt;Node2</title>
<path fill="none" stroke="midnightblue" d="M1215.19,-309.883C1031.14,-309.039 233.979,-302.145 140,-246 118.549,-233.185 102.382,-211.629 90.6556,-190.171"/>
<polygon fill="none" stroke="midnightblue" points="1215.44,-313.384 1225.45,-309.926 1215.47,-306.384 1215.44,-313.384"/>
</g>
<!-- Node3 -->
<g id="node3" class="node"><title>Node3</title>
<g id="a_node3"><a xlink:href="../../d4/d59/classo2_1_1fit_1_1CollisionTimeRecoTask.html" target="_top" xlink:title="{o2::fit::CollisionTimeRecoTask\n||+ CollisionTimeRecoTask()\l+ ~CollisionTimeRecoTask()\l+ Init()\l+ Exec()\l+ FinishTask()\l}">
<polygon fill="none" stroke="black" points="149,-72.5 149,-173.5 301,-173.5 301,-72.5 149,-72.5"/>
<text text-anchor="middle" x="225" y="-161.5" font-family="Helvetica,sans-Serif" font-size="10.00">o2::fit::CollisionTimeRecoTask</text>
<polyline fill="none" stroke="black" points="149,-154.5 301,-154.5 "/>
<text text-anchor="middle" x="225" y="-142.5" font-family="Helvetica,sans-Serif" font-size="10.00"> </text>
<polyline fill="none" stroke="black" points="149,-135.5 301,-135.5 "/>
<text text-anchor="start" x="157" y="-123.5" font-family="Helvetica,sans-Serif" font-size="10.00">+ CollisionTimeRecoTask()</text>
<text text-anchor="start" x="157" y="-112.5" font-family="Helvetica,sans-Serif" font-size="10.00">+ ~CollisionTimeRecoTask()</text>
<text text-anchor="start" x="157" y="-101.5" font-family="Helvetica,sans-Serif" font-size="10.00">+ Init()</text>
<text text-anchor="start" x="157" y="-90.5" font-family="Helvetica,sans-Serif" font-size="10.00">+ Exec()</text>
<text text-anchor="start" x="157" y="-79.5" font-family="Helvetica,sans-Serif" font-size="10.00">+ FinishTask()</text>
</a>
</g>
</g>
<!-- Node1&#45;&gt;Node3 -->
<g id="edge2" class="edge"><title>Node1&#45;&gt;Node3</title>
<path fill="none" stroke="midnightblue" d="M1214.78,-309.345C1048.12,-306.227 389.738,-291.129 310,-246 281.581,-229.916 260.493,-199.938 246.43,-173.725"/>
<polygon fill="none" stroke="midnightblue" points="1214.97,-312.849 1225.03,-309.533 1215.1,-305.85 1214.97,-312.849"/>
</g>
<!-- Node4 -->
<g id="node4" class="node"><title>Node4</title>
<g id="a_node4"><a xlink:href="../../de/d40/classo2_1_1fit_1_1DigitizerTask.html" target="_top" xlink:title="{o2::fit::DigitizerTask\n||+ DigitizerTask()\l+ ~DigitizerTask()\l+ Init()\l+ Exec()\l+ FinishTask()\l+ getDigitizer()\l+ setContinuous()\l+ isContinuous()\l}">
<polygon fill="none" stroke="black" points="319.5,-56 319.5,-190 424.5,-190 424.5,-56 319.5,-56"/>
<text text-anchor="middle" x="372" y="-178" font-family="Helvetica,sans-Serif" font-size="10.00">o2::fit::DigitizerTask</text>
<polyline fill="none" stroke="black" points="319.5,-171 424.5,-171 "/>
<text text-anchor="middle" x="372" y="-159" font-family="Helvetica,sans-Serif" font-size="10.00"> </text>
<polyline fill="none" stroke="black" points="319.5,-152 424.5,-152 "/>
<text text-anchor="start" x="327.5" y="-140" font-family="Helvetica,sans-Serif" font-size="10.00">+ DigitizerTask()</text>
<text text-anchor="start" x="327.5" y="-129" font-family="Helvetica,sans-Serif" font-size="10.00">+ ~DigitizerTask()</text>
<text text-anchor="start" x="327.5" y="-118" font-family="Helvetica,sans-Serif" font-size="10.00">+ Init()</text>
<text text-anchor="start" x="327.5" y="-107" font-family="Helvetica,sans-Serif" font-size="10.00">+ Exec()</text>
<text text-anchor="start" x="327.5" y="-96" font-family="Helvetica,sans-Serif" font-size="10.00">+ FinishTask()</text>
<text text-anchor="start" x="327.5" y="-85" font-family="Helvetica,sans-Serif" font-size="10.00">+ getDigitizer()</text>
<text text-anchor="start" x="327.5" y="-74" font-family="Helvetica,sans-Serif" font-size="10.00">+ setContinuous()</text>
<text text-anchor="start" x="327.5" y="-63" font-family="Helvetica,sans-Serif" font-size="10.00">+ isContinuous()</text>
</a>
</g>
</g>
<!-- Node1&#45;&gt;Node4 -->
<g id="edge3" class="edge"><title>Node1&#45;&gt;Node4</title>
<path fill="none" stroke="midnightblue" d="M1214.82,-309.192C1062.01,-305.664 499.492,-289.784 434,-246 414.347,-232.861 400.606,-211.506 391.149,-190.306"/>
<polygon fill="none" stroke="midnightblue" points="1215.03,-312.697 1225.11,-309.424 1215.19,-305.699 1215.03,-312.697"/>
</g>
<!-- Node5 -->
<g id="node5" class="node"><title>Node5</title>
<g id="a_node5"><a xlink:href="../../db/df6/classo2_1_1ITS_1_1ClustererTask.html" target="_top" xlink:title="{o2::ITS::ClustererTask\n||+ ClustererTask()\l+ ~ClustererTask()\l+ Init()\l+ Exec()\l+ getClusterer()\l+ run()\l+ setSelfManagedMode()\l+ isSelfManagedMode()\l+ attachFairManagerIO()\l+ getReader()\l}">
<polygon fill="none" stroke="black" points="443,-45 443,-201 569,-201 569,-45 443,-45"/>
<text text-anchor="middle" x="506" y="-189" font-family="Helvetica,sans-Serif" font-size="10.00">o2::ITS::ClustererTask</text>
<polyline fill="none" stroke="black" points="443,-182 569,-182 "/>
<text text-anchor="middle" x="506" y="-170" font-family="Helvetica,sans-Serif" font-size="10.00"> </text>
<polyline fill="none" stroke="black" points="443,-163 569,-163 "/>
<text text-anchor="start" x="451" y="-151" font-family="Helvetica,sans-Serif" font-size="10.00">+ ClustererTask()</text>
<text text-anchor="start" x="451" y="-140" font-family="Helvetica,sans-Serif" font-size="10.00">+ ~ClustererTask()</text>
<text text-anchor="start" x="451" y="-129" font-family="Helvetica,sans-Serif" font-size="10.00">+ Init()</text>
<text text-anchor="start" x="451" y="-118" font-family="Helvetica,sans-Serif" font-size="10.00">+ Exec()</text>
<text text-anchor="start" x="451" y="-107" font-family="Helvetica,sans-Serif" font-size="10.00">+ getClusterer()</text>
<text text-anchor="start" x="451" y="-96" font-family="Helvetica,sans-Serif" font-size="10.00">+ run()</text>
<text text-anchor="start" x="451" y="-85" font-family="Helvetica,sans-Serif" font-size="10.00">+ setSelfManagedMode()</text>
<text text-anchor="start" x="451" y="-74" font-family="Helvetica,sans-Serif" font-size="10.00">+ isSelfManagedMode()</text>
<text text-anchor="start" x="451" y="-63" font-family="Helvetica,sans-Serif" font-size="10.00">+ attachFairManagerIO()</text>
<text text-anchor="start" x="451" y="-52" font-family="Helvetica,sans-Serif" font-size="10.00">+ getReader()</text>
</a>
</g>
</g>
<!-- Node1&#45;&gt;Node5 -->
<g id="edge4" class="edge"><title>Node1&#45;&gt;Node5</title>
<path fill="none" stroke="midnightblue" d="M1215.2,-308.411C1080.92,-302.495 631.988,-280.307 578,-246 560.875,-235.118 547.31,-218.579 536.789,-201.16"/>
<polygon fill="none" stroke="midnightblue" points="1215.26,-311.917 1225.41,-308.856 1215.57,-304.923 1215.26,-311.917"/>
</g>
<!-- Node6 -->
<g id="node6" class="node"><title>Node6</title>
<g id="a_node6"><a xlink:href="../../d8/d68/classo2_1_1ITS_1_1CookedTrackerTask.html" target="_top" xlink:title="{o2::ITS::CookedTrackerTask\n||+ CookedTrackerTask()\l+ ~CookedTrackerTask()\l+ Init()\l+ Exec()\l+ setBz()\l+ setContinuousMode()\l+ getContinuousMode()\l+ getVertexer()\l}">
<polygon fill="none" stroke="black" points="587.5,-56 587.5,-190 730.5,-190 730.5,-56 587.5,-56"/>
<text text-anchor="middle" x="659" y="-178" font-family="Helvetica,sans-Serif" font-size="10.00">o2::ITS::CookedTrackerTask</text>
<polyline fill="none" stroke="black" points="587.5,-171 730.5,-171 "/>
<text text-anchor="middle" x="659" y="-159" font-family="Helvetica,sans-Serif" font-size="10.00"> </text>
<polyline fill="none" stroke="black" points="587.5,-152 730.5,-152 "/>
<text text-anchor="start" x="595.5" y="-140" font-family="Helvetica,sans-Serif" font-size="10.00">+ CookedTrackerTask()</text>
<text text-anchor="start" x="595.5" y="-129" font-family="Helvetica,sans-Serif" font-size="10.00">+ ~CookedTrackerTask()</text>
<text text-anchor="start" x="595.5" y="-118" font-family="Helvetica,sans-Serif" font-size="10.00">+ Init()</text>
<text text-anchor="start" x="595.5" y="-107" font-family="Helvetica,sans-Serif" font-size="10.00">+ Exec()</text>
<text text-anchor="start" x="595.5" y="-96" font-family="Helvetica,sans-Serif" font-size="10.00">+ setBz()</text>
<text text-anchor="start" x="595.5" y="-85" font-family="Helvetica,sans-Serif" font-size="10.00">+ setContinuousMode()</text>
<text text-anchor="start" x="595.5" y="-74" font-family="Helvetica,sans-Serif" font-size="10.00">+ getContinuousMode()</text>
<text text-anchor="start" x="595.5" y="-63" font-family="Helvetica,sans-Serif" font-size="10.00">+ getVertexer()</text>
</a>
</g>
</g>
<!-- Node1&#45;&gt;Node6 -->
<g id="edge5" class="edge"><title>Node1&#45;&gt;Node6</title>
<path fill="none" stroke="midnightblue" d="M1215.19,-309.339C1110.4,-306.884 818.695,-295.648 739,-246 717.61,-232.674 700.762,-211.277 688.156,-190.096"/>
<polygon fill="none" stroke="midnightblue" points="1215.24,-312.841 1225.31,-309.562 1215.39,-305.842 1215.24,-312.841"/>
</g>
<!-- Node7 -->
<g id="node7" class="node"><title>Node7</title>
<g id="a_node7"><a xlink:href="../../de/d22/classo2_1_1ITS_1_1DigitizerTask.html" target="_top" xlink:title="{o2::ITS::DigitizerTask\n||+ DigitizerTask()\l+ ~DigitizerTask()\l+ Init()\l+ Exec()\l+ FinishTask()\l+ getDigitizer()\l+ getDigiParams()\l+ getDigiParams()\l+ setContinuous()\l+ isContinuous()\l+ setFairTimeUnitInNS()\l+ getFairTimeUnitInNS()\l+ setAlpideROFramLength()\l+ getAlpideROFramLength()\l+ setQEDInput()\l}">
<polygon fill="none" stroke="black" points="748.5,-17.5 748.5,-228.5 887.5,-228.5 887.5,-17.5 748.5,-17.5"/>
<text text-anchor="middle" x="818" y="-216.5" font-family="Helvetica,sans-Serif" font-size="10.00">o2::ITS::DigitizerTask</text>
<polyline fill="none" stroke="black" points="748.5,-209.5 887.5,-209.5 "/>
<text text-anchor="middle" x="818" y="-197.5" font-family="Helvetica,sans-Serif" font-size="10.00"> </text>
<polyline fill="none" stroke="black" points="748.5,-190.5 887.5,-190.5 "/>
<text text-anchor="start" x="756.5" y="-178.5" font-family="Helvetica,sans-Serif" font-size="10.00">+ DigitizerTask()</text>
<text text-anchor="start" x="756.5" y="-167.5" font-family="Helvetica,sans-Serif" font-size="10.00">+ ~DigitizerTask()</text>
<text text-anchor="start" x="756.5" y="-156.5" font-family="Helvetica,sans-Serif" font-size="10.00">+ Init()</text>
<text text-anchor="start" x="756.5" y="-145.5" font-family="Helvetica,sans-Serif" font-size="10.00">+ Exec()</text>
<text text-anchor="start" x="756.5" y="-134.5" font-family="Helvetica,sans-Serif" font-size="10.00">+ FinishTask()</text>
<text text-anchor="start" x="756.5" y="-123.5" font-family="Helvetica,sans-Serif" font-size="10.00">+ getDigitizer()</text>
<text text-anchor="start" x="756.5" y="-112.5" font-family="Helvetica,sans-Serif" font-size="10.00">+ getDigiParams()</text>
<text text-anchor="start" x="756.5" y="-101.5" font-family="Helvetica,sans-Serif" font-size="10.00">+ getDigiParams()</text>
<text text-anchor="start" x="756.5" y="-90.5" font-family="Helvetica,sans-Serif" font-size="10.00">+ setContinuous()</text>
<text text-anchor="start" x="756.5" y="-79.5" font-family="Helvetica,sans-Serif" font-size="10.00">+ isContinuous()</text>
<text text-anchor="start" x="756.5" y="-68.5" font-family="Helvetica,sans-Serif" font-size="10.00">+ setFairTimeUnitInNS()</text>
<text text-anchor="start" x="756.5" y="-57.5" font-family="Helvetica,sans-Serif" font-size="10.00">+ getFairTimeUnitInNS()</text>
<text text-anchor="start" x="756.5" y="-46.5" font-family="Helvetica,sans-Serif" font-size="10.00">+ setAlpideROFramLength()</text>
<text text-anchor="start" x="756.5" y="-35.5" font-family="Helvetica,sans-Serif" font-size="10.00">+ getAlpideROFramLength()</text>
<text text-anchor="start" x="756.5" y="-24.5" font-family="Helvetica,sans-Serif" font-size="10.00">+ setQEDInput()</text>
</a>
</g>
</g>
<!-- Node1&#45;&gt;Node7 -->
<g id="edge6" class="edge"><title>Node1&#45;&gt;Node7</title>
<path fill="none" stroke="midnightblue" d="M1215.02,-307.033C1134.13,-300.107 947.963,-280.767 896,-246 888.583,-241.037 881.722,-235.105 875.408,-228.567"/>
<polygon fill="none" stroke="midnightblue" points="1215,-310.543 1225.26,-307.891 1215.59,-303.568 1215,-310.543"/>
</g>
<!-- Node8 -->
<g id="node8" class="node"><title>Node8</title>
<g id="a_node8"><a xlink:href="../../d6/df5/classo2_1_1ITS_1_1HitAnalysis.html" target="_top" xlink:title="{o2::ITS::HitAnalysis\n||+ HitAnalysis()\l+ ~HitAnalysis()\l+ Init()\l+ Exec()\l+ FinishTask()\l# ProcessHits()\l}">
<polygon fill="none" stroke="black" points="905.5,-67 905.5,-179 1010.5,-179 1010.5,-67 905.5,-67"/>
<text text-anchor="middle" x="958" y="-167" font-family="Helvetica,sans-Serif" font-size="10.00">o2::ITS::HitAnalysis</text>
<polyline fill="none" stroke="black" points="905.5,-160 1010.5,-160 "/>
<text text-anchor="middle" x="958" y="-148" font-family="Helvetica,sans-Serif" font-size="10.00"> </text>
<polyline fill="none" stroke="black" points="905.5,-141 1010.5,-141 "/>
<text text-anchor="start" x="913.5" y="-129" font-family="Helvetica,sans-Serif" font-size="10.00">+ HitAnalysis()</text>
<text text-anchor="start" x="913.5" y="-118" font-family="Helvetica,sans-Serif" font-size="10.00">+ ~HitAnalysis()</text>
<text text-anchor="start" x="913.5" y="-107" font-family="Helvetica,sans-Serif" font-size="10.00">+ Init()</text>
<text text-anchor="start" x="913.5" y="-96" font-family="Helvetica,sans-Serif" font-size="10.00">+ Exec()</text>
<text text-anchor="start" x="913.5" y="-85" font-family="Helvetica,sans-Serif" font-size="10.00">+ FinishTask()</text>
<text text-anchor="start" x="913.5" y="-74" font-family="Helvetica,sans-Serif" font-size="10.00"># ProcessHits()</text>
</a>
</g>
</g>
<!-- Node1&#45;&gt;Node8 -->
<g id="edge7" class="edge"><title>Node1&#45;&gt;Node8</title>
<path fill="none" stroke="midnightblue" d="M1215.1,-308.903C1164.93,-305.565 1076.15,-292.886 1019,-246 998.129,-228.877 983.75,-202.812 974.219,-179.163"/>
<polygon fill="none" stroke="midnightblue" points="1215.01,-312.404 1225.2,-309.482 1215.41,-305.415 1215.01,-312.404"/>
</g>
<!-- Node9 -->
<g id="node9" class="node"><title>Node9</title>
<g id="a_node9"><a xlink:href="../../db/d78/classo2_1_1ITS_1_1TrivialClustererTask.html" target="_top" xlink:title="{o2::ITS::TrivialClustererTask\n||+ TrivialClustererTask()\l+ ~TrivialClustererTask()\l+ Init()\l+ Exec()\l}">
<polygon fill="none" stroke="black" points="1028.5,-78 1028.5,-168 1171.5,-168 1171.5,-78 1028.5,-78"/>
<text text-anchor="middle" x="1100" y="-156" font-family="Helvetica,sans-Serif" font-size="10.00">o2::ITS::TrivialClustererTask</text>
<polyline fill="none" stroke="black" points="1028.5,-149 1171.5,-149 "/>
<text text-anchor="middle" x="1100" y="-137" font-family="Helvetica,sans-Serif" font-size="10.00"> </text>
<polyline fill="none" stroke="black" points="1028.5,-130 1171.5,-130 "/>
<text text-anchor="start" x="1036.5" y="-118" font-family="Helvetica,sans-Serif" font-size="10.00">+ TrivialClustererTask()</text>
<text text-anchor="start" x="1036.5" y="-107" font-family="Helvetica,sans-Serif" font-size="10.00">+ ~TrivialClustererTask()</text>
<text text-anchor="start" x="1036.5" y="-96" font-family="Helvetica,sans-Serif" font-size="10.00">+ Init()</text>
<text text-anchor="start" x="1036.5" y="-85" font-family="Helvetica,sans-Serif" font-size="10.00">+ Exec()</text>
</a>
</g>
</g>
<!-- Node1&#45;&gt;Node9 -->
<g id="edge8" class="edge"><title>Node1&#45;&gt;Node9</title>
<path fill="none" stroke="midnightblue" d="M1217.62,-281.759C1205.37,-271.174 1191.98,-258.637 1181,-246 1160.08,-221.91 1140.2,-192.119 1125.38,-168.007"/>
<polygon fill="none" stroke="midnightblue" points="1215.58,-284.615 1225.47,-288.414 1220.11,-279.276 1215.58,-284.615"/>
</g>
<!-- Node10 -->
<g id="node10" class="node"><title>Node10</title>
<g id="a_node10"><a xlink:href="../../d7/d6d/classo2_1_1MFT_1_1ClustererTask.html" target="_top" xlink:title="{o2::MFT::ClustererTask\n||+ ClustererTask()\l+ ~ClustererTask()\l+ Init()\l+ Exec()\l+ getClusterer()\l+ run()\l+ setSelfManagedMode()\l+ isSelfManagedMode()\l+ attachFairManagerIO()\l+ getReader()\l}">
<polygon fill="none" stroke="black" points="1190,-45 1190,-201 1316,-201 1316,-45 1190,-45"/>
<text text-anchor="middle" x="1253" y="-189" font-family="Helvetica,sans-Serif" font-size="10.00">o2::MFT::ClustererTask</text>
<polyline fill="none" stroke="black" points="1190,-182 1316,-182 "/>
<text text-anchor="middle" x="1253" y="-170" font-family="Helvetica,sans-Serif" font-size="10.00"> </text>
<polyline fill="none" stroke="black" points="1190,-163 1316,-163 "/>
<text text-anchor="start" x="1198" y="-151" font-family="Helvetica,sans-Serif" font-size="10.00">+ ClustererTask()</text>
<text text-anchor="start" x="1198" y="-140" font-family="Helvetica,sans-Serif" font-size="10.00">+ ~ClustererTask()</text>
<text text-anchor="start" x="1198" y="-129" font-family="Helvetica,sans-Serif" font-size="10.00">+ Init()</text>
<text text-anchor="start" x="1198" y="-118" font-family="Helvetica,sans-Serif" font-size="10.00">+ Exec()</text>
<text text-anchor="start" x="1198" y="-107" font-family="Helvetica,sans-Serif" font-size="10.00">+ getClusterer()</text>
<text text-anchor="start" x="1198" y="-96" font-family="Helvetica,sans-Serif" font-size="10.00">+ run()</text>
<text text-anchor="start" x="1198" y="-85" font-family="Helvetica,sans-Serif" font-size="10.00">+ setSelfManagedMode()</text>
<text text-anchor="start" x="1198" y="-74" font-family="Helvetica,sans-Serif" font-size="10.00">+ isSelfManagedMode()</text>
<text text-anchor="start" x="1198" y="-63" font-family="Helvetica,sans-Serif" font-size="10.00">+ attachFairManagerIO()</text>
<text text-anchor="start" x="1198" y="-52" font-family="Helvetica,sans-Serif" font-size="10.00">+ getReader()</text>
</a>
</g>
</g>
<!-- Node1&#45;&gt;Node10 -->
<g id="edge9" class="edge"><title>Node1&#45;&gt;Node10</title>
<path fill="none" stroke="midnightblue" d="M1253,-272.008C1253,-251.569 1253,-225.597 1253,-201.135"/>
<polygon fill="none" stroke="midnightblue" points="1249.5,-272.154 1253,-282.154 1256.5,-272.154 1249.5,-272.154"/>
</g>
<!-- Node11 -->
<g id="node11" class="node"><title>Node11</title>
<g id="a_node11"><a xlink:href="../../d0/d22/classo2_1_1MFT_1_1DigitizerTask.html" target="_top" xlink:title="{o2::MFT::DigitizerTask\n||+ DigitizerTask()\l+ ~DigitizerTask()\l+ Init()\l+ Exec()\l+ FinishTask()\l+ getDigitizer()\l+ getDigiParams()\l+ getDigiParams()\l+ setContinuous()\l+ isContinuous()\l+ setFairTimeUnitInNS()\l+ getFairTimeUnitInNS()\l+ setAlpideROFramLength()\l+ getAlpideROFramLength()\l+ setQEDInput()\l}">
<polygon fill="none" stroke="black" points="1334.5,-17.5 1334.5,-228.5 1473.5,-228.5 1473.5,-17.5 1334.5,-17.5"/>
<text text-anchor="middle" x="1404" y="-216.5" font-family="Helvetica,sans-Serif" font-size="10.00">o2::MFT::DigitizerTask</text>
<polyline fill="none" stroke="black" points="1334.5,-209.5 1473.5,-209.5 "/>
<text text-anchor="middle" x="1404" y="-197.5" font-family="Helvetica,sans-Serif" font-size="10.00"> </text>
<polyline fill="none" stroke="black" points="1334.5,-190.5 1473.5,-190.5 "/>
<text text-anchor="start" x="1342.5" y="-178.5" font-family="Helvetica,sans-Serif" font-size="10.00">+ DigitizerTask()</text>
<text text-anchor="start" x="1342.5" y="-167.5" font-family="Helvetica,sans-Serif" font-size="10.00">+ ~DigitizerTask()</text>
<text text-anchor="start" x="1342.5" y="-156.5" font-family="Helvetica,sans-Serif" font-size="10.00">+ Init()</text>
<text text-anchor="start" x="1342.5" y="-145.5" font-family="Helvetica,sans-Serif" font-size="10.00">+ Exec()</text>
<text text-anchor="start" x="1342.5" y="-134.5" font-family="Helvetica,sans-Serif" font-size="10.00">+ FinishTask()</text>
<text text-anchor="start" x="1342.5" y="-123.5" font-family="Helvetica,sans-Serif" font-size="10.00">+ getDigitizer()</text>
<text text-anchor="start" x="1342.5" y="-112.5" font-family="Helvetica,sans-Serif" font-size="10.00">+ getDigiParams()</text>
<text text-anchor="start" x="1342.5" y="-101.5" font-family="Helvetica,sans-Serif" font-size="10.00">+ getDigiParams()</text>
<text text-anchor="start" x="1342.5" y="-90.5" font-family="Helvetica,sans-Serif" font-size="10.00">+ setContinuous()</text>
<text text-anchor="start" x="1342.5" y="-79.5" font-family="Helvetica,sans-Serif" font-size="10.00">+ isContinuous()</text>
<text text-anchor="start" x="1342.5" y="-68.5" font-family="Helvetica,sans-Serif" font-size="10.00">+ setFairTimeUnitInNS()</text>
<text text-anchor="start" x="1342.5" y="-57.5" font-family="Helvetica,sans-Serif" font-size="10.00">+ getFairTimeUnitInNS()</text>
<text text-anchor="start" x="1342.5" y="-46.5" font-family="Helvetica,sans-Serif" font-size="10.00">+ setAlpideROFramLength()</text>
<text text-anchor="start" x="1342.5" y="-35.5" font-family="Helvetica,sans-Serif" font-size="10.00">+ getAlpideROFramLength()</text>
<text text-anchor="start" x="1342.5" y="-24.5" font-family="Helvetica,sans-Serif" font-size="10.00">+ setQEDInput()</text>
</a>
</g>
</g>
<!-- Node1&#45;&gt;Node11 -->
<g id="edge10" class="edge"><title>Node1&#45;&gt;Node11</title>
<path fill="none" stroke="midnightblue" d="M1288.46,-281.829C1300.72,-271.251 1314.1,-258.7 1325,-246 1329.77,-240.448 1334.47,-234.588 1339.06,-228.561"/>
<polygon fill="none" stroke="midnightblue" points="1285.98,-279.345 1280.61,-288.477 1290.5,-284.688 1285.98,-279.345"/>
</g>
<!-- Node12 -->
<g id="node12" class="node"><title>Node12</title>
<g id="a_node12"><a xlink:href="../../dc/d5b/classo2_1_1MFT_1_1TrackerTask.html" target="_top" xlink:title="{o2::MFT::TrackerTask\n||+ TrackerTask()\l+ ~TrackerTask()\l+ Init()\l+ Exec()\l+ setContinuousMode()\l+ getContinuousMode()\l}">
<polygon fill="none" stroke="black" points="1491.5,-67 1491.5,-179 1610.5,-179 1610.5,-67 1491.5,-67"/>
<text text-anchor="middle" x="1551" y="-167" font-family="Helvetica,sans-Serif" font-size="10.00">o2::MFT::TrackerTask</text>
<polyline fill="none" stroke="black" points="1491.5,-160 1610.5,-160 "/>
<text text-anchor="middle" x="1551" y="-148" font-family="Helvetica,sans-Serif" font-size="10.00"> </text>
<polyline fill="none" stroke="black" points="1491.5,-141 1610.5,-141 "/>
<text text-anchor="start" x="1499.5" y="-129" font-family="Helvetica,sans-Serif" font-size="10.00">+ TrackerTask()</text>
<text text-anchor="start" x="1499.5" y="-118" font-family="Helvetica,sans-Serif" font-size="10.00">+ ~TrackerTask()</text>
<text text-anchor="start" x="1499.5" y="-107" font-family="Helvetica,sans-Serif" font-size="10.00">+ Init()</text>
<text text-anchor="start" x="1499.5" y="-96" font-family="Helvetica,sans-Serif" font-size="10.00">+ Exec()</text>
<text text-anchor="start" x="1499.5" y="-85" font-family="Helvetica,sans-Serif" font-size="10.00">+ setContinuousMode()</text>
<text text-anchor="start" x="1499.5" y="-74" font-family="Helvetica,sans-Serif" font-size="10.00">+ getContinuousMode()</text>
</a>
</g>
</g>
<!-- Node1&#45;&gt;Node12 -->
<g id="edge11" class="edge"><title>Node1&#45;&gt;Node12</title>
<path fill="none" stroke="midnightblue" d="M1290.84,-308.153C1339.77,-303.969 1425.38,-290.338 1482,-246 1503.84,-228.898 1519.91,-202.834 1531.02,-179.182"/>
<polygon fill="none" stroke="midnightblue" points="1290.4,-304.677 1280.69,-308.93 1290.93,-311.657 1290.4,-304.677"/>
</g>
<!-- Node13 -->
<g id="node13" class="node"><title>Node13</title>
<g id="a_node13"><a xlink:href="../../d1/df7/classo2_1_1phos_1_1ClustererTask.html" target="_top" xlink:title="{o2::phos::ClustererTask\n||+ ClustererTask()\l+ ~ClustererTask()\l+ Init()\l+ Exec()\l}">
<polygon fill="none" stroke="black" points="1629,-78 1629,-168 1751,-168 1751,-78 1629,-78"/>
<text text-anchor="middle" x="1690" y="-156" font-family="Helvetica,sans-Serif" font-size="10.00">o2::phos::ClustererTask</text>
<polyline fill="none" stroke="black" points="1629,-149 1751,-149 "/>
<text text-anchor="middle" x="1690" y="-137" font-family="Helvetica,sans-Serif" font-size="10.00"> </text>
<polyline fill="none" stroke="black" points="1629,-130 1751,-130 "/>
<text text-anchor="start" x="1637" y="-118" font-family="Helvetica,sans-Serif" font-size="10.00">+ ClustererTask()</text>
<text text-anchor="start" x="1637" y="-107" font-family="Helvetica,sans-Serif" font-size="10.00">+ ~ClustererTask()</text>
<text text-anchor="start" x="1637" y="-96" font-family="Helvetica,sans-Serif" font-size="10.00">+ Init()</text>
<text text-anchor="start" x="1637" y="-85" font-family="Helvetica,sans-Serif" font-size="10.00">+ Exec()</text>
</a>
</g>
</g>
<!-- Node1&#45;&gt;Node13 -->
<g id="edge12" class="edge"><title>Node1&#45;&gt;Node13</title>
<path fill="none" stroke="midnightblue" d="M1290.89,-307.399C1373.41,-301.102 1566.2,-282.779 1619,-246 1645.84,-227.3 1664,-194.926 1675.23,-168.225"/>
<polygon fill="none" stroke="midnightblue" points="1290.41,-303.925 1280.7,-308.158 1290.93,-310.905 1290.41,-303.925"/>
</g>
<!-- Node14 -->
<g id="node14" class="node"><title>Node14</title>
<g id="a_node14"><a xlink:href="../../d2/d40/classo2_1_1phos_1_1DigitizerTask.html" target="_top" xlink:title="{o2::phos::DigitizerTask\n||+ DigitizerTask()\l+ ~DigitizerTask()\l+ Init()\l+ Exec()\l+ FinishTask()\l+ getDigitizer()\l+ setFairTimeUnitInNS()\l+ getFairTimeUnitInNS()\l}">
<polygon fill="none" stroke="black" points="1769,-56 1769,-190 1893,-190 1893,-56 1769,-56"/>
<text text-anchor="middle" x="1831" y="-178" font-family="Helvetica,sans-Serif" font-size="10.00">o2::phos::DigitizerTask</text>
<polyline fill="none" stroke="black" points="1769,-171 1893,-171 "/>
<text text-anchor="middle" x="1831" y="-159" font-family="Helvetica,sans-Serif" font-size="10.00"> </text>
<polyline fill="none" stroke="black" points="1769,-152 1893,-152 "/>
<text text-anchor="start" x="1777" y="-140" font-family="Helvetica,sans-Serif" font-size="10.00">+ DigitizerTask()</text>
<text text-anchor="start" x="1777" y="-129" font-family="Helvetica,sans-Serif" font-size="10.00">+ ~DigitizerTask()</text>
<text text-anchor="start" x="1777" y="-118" font-family="Helvetica,sans-Serif" font-size="10.00">+ Init()</text>
<text text-anchor="start" x="1777" y="-107" font-family="Helvetica,sans-Serif" font-size="10.00">+ Exec()</text>
<text text-anchor="start" x="1777" y="-96" font-family="Helvetica,sans-Serif" font-size="10.00">+ FinishTask()</text>
<text text-anchor="start" x="1777" y="-85" font-family="Helvetica,sans-Serif" font-size="10.00">+ getDigitizer()</text>
<text text-anchor="start" x="1777" y="-74" font-family="Helvetica,sans-Serif" font-size="10.00">+ setFairTimeUnitInNS()</text>
<text text-anchor="start" x="1777" y="-63" font-family="Helvetica,sans-Serif" font-size="10.00">+ getFairTimeUnitInNS()</text>
</a>
</g>
</g>
<!-- Node1&#45;&gt;Node14 -->
<g id="edge13" class="edge"><title>Node1&#45;&gt;Node14</title>
<path fill="none" stroke="midnightblue" d="M1290.79,-309.482C1394.83,-307.405 1682.84,-297.067 1760,-246 1780.23,-232.61 1795.43,-211.331 1806.47,-190.267"/>
<polygon fill="none" stroke="midnightblue" points="1290.67,-305.984 1280.74,-309.668 1290.8,-312.983 1290.67,-305.984"/>
</g>
<!-- Node15 -->
<g id="node15" class="node"><title>Node15</title>
<g id="a_node15"><a xlink:href="../../d0/dc6/classo2_1_1tof_1_1ClustererTask.html" target="_top" xlink:title="{o2::tof::ClustererTask\n||+ ClustererTask()\l+ ~ClustererTask()\l+ Init()\l+ Exec()\l}">
<polygon fill="none" stroke="black" points="1911,-78 1911,-168 2023,-168 2023,-78 1911,-78"/>
<text text-anchor="middle" x="1967" y="-156" font-family="Helvetica,sans-Serif" font-size="10.00">o2::tof::ClustererTask</text>
<polyline fill="none" stroke="black" points="1911,-149 2023,-149 "/>
<text text-anchor="middle" x="1967" y="-137" font-family="Helvetica,sans-Serif" font-size="10.00"> </text>
<polyline fill="none" stroke="black" points="1911,-130 2023,-130 "/>
<text text-anchor="start" x="1919" y="-118" font-family="Helvetica,sans-Serif" font-size="10.00">+ ClustererTask()</text>
<text text-anchor="start" x="1919" y="-107" font-family="Helvetica,sans-Serif" font-size="10.00">+ ~ClustererTask()</text>
<text text-anchor="start" x="1919" y="-96" font-family="Helvetica,sans-Serif" font-size="10.00">+ Init()</text>
<text text-anchor="start" x="1919" y="-85" font-family="Helvetica,sans-Serif" font-size="10.00">+ Exec()</text>
</a>
</g>
</g>
<!-- Node1&#45;&gt;Node15 -->
<g id="edge14" class="edge"><title>Node1&#45;&gt;Node15</title>
<path fill="none" stroke="midnightblue" d="M1291.03,-308.311C1422.15,-302.209 1850.06,-279.86 1901,-246 1927.97,-228.069 1944.82,-195.304 1954.74,-168.241"/>
<polygon fill="none" stroke="midnightblue" points="1290.52,-304.831 1280.69,-308.787 1290.85,-311.824 1290.52,-304.831"/>
</g>
<!-- Node16 -->
<g id="node16" class="node"><title>Node16</title>
<g id="a_node16"><a xlink:href="../../d0/dad/classo2_1_1tof_1_1DigitizerTask.html" target="_top" xlink:title="{o2::tof::DigitizerTask\n||+ DigitizerTask()\l+ ~DigitizerTask()\l+ Init()\l+ Exec()\l+ FinishTask()\l+ getDigitizer()\l+ setContinuous()\l+ isContinuous()\l}">
<polygon fill="none" stroke="black" points="2041,-56 2041,-190 2149,-190 2149,-56 2041,-56"/>
<text text-anchor="middle" x="2095" y="-178" font-family="Helvetica,sans-Serif" font-size="10.00">o2::tof::DigitizerTask</text>
<polyline fill="none" stroke="black" points="2041,-171 2149,-171 "/>
<text text-anchor="middle" x="2095" y="-159" font-family="Helvetica,sans-Serif" font-size="10.00"> </text>
<polyline fill="none" stroke="black" points="2041,-152 2149,-152 "/>
<text text-anchor="start" x="2049" y="-140" font-family="Helvetica,sans-Serif" font-size="10.00">+ DigitizerTask()</text>
<text text-anchor="start" x="2049" y="-129" font-family="Helvetica,sans-Serif" font-size="10.00">+ ~DigitizerTask()</text>
<text text-anchor="start" x="2049" y="-118" font-family="Helvetica,sans-Serif" font-size="10.00">+ Init()</text>
<text text-anchor="start" x="2049" y="-107" font-family="Helvetica,sans-Serif" font-size="10.00">+ Exec()</text>
<text text-anchor="start" x="2049" y="-96" font-family="Helvetica,sans-Serif" font-size="10.00">+ FinishTask()</text>
<text text-anchor="start" x="2049" y="-85" font-family="Helvetica,sans-Serif" font-size="10.00">+ getDigitizer()</text>
<text text-anchor="start" x="2049" y="-74" font-family="Helvetica,sans-Serif" font-size="10.00">+ setContinuous()</text>
<text text-anchor="start" x="2049" y="-63" font-family="Helvetica,sans-Serif" font-size="10.00">+ isContinuous()</text>
</a>
</g>
</g>
<!-- Node1&#45;&gt;Node16 -->
<g id="edge15" class="edge"><title>Node1&#45;&gt;Node16</title>
<path fill="none" stroke="midnightblue" d="M1291.15,-309C1438.97,-304.839 1968.85,-287.152 2031,-246 2050.84,-232.861 2064.93,-211.505 2074.74,-190.305"/>
<polygon fill="none" stroke="midnightblue" points="1290.69,-305.512 1280.79,-309.287 1290.88,-312.509 1290.69,-305.512"/>
</g>
<!-- Node17 -->
<g id="node17" class="node"><title>Node17</title>
<g id="a_node17"><a xlink:href="../../db/df7/classo2_1_1TPC_1_1ClustererTask.html" target="_top" xlink:title="{o2::TPC::ClustererTask\n||+ ClustererTask()\l+ ~ClustererTask()\l+ Init()\l+ Exec()\l+ FinishTask()\l+ setContinuousReadout()\l}">
<polygon fill="none" stroke="black" points="2167.5,-67 2167.5,-179 2298.5,-179 2298.5,-67 2167.5,-67"/>
<text text-anchor="middle" x="2233" y="-167" font-family="Helvetica,sans-Serif" font-size="10.00">o2::TPC::ClustererTask</text>
<polyline fill="none" stroke="black" points="2167.5,-160 2298.5,-160 "/>
<text text-anchor="middle" x="2233" y="-148" font-family="Helvetica,sans-Serif" font-size="10.00"> </text>
<polyline fill="none" stroke="black" points="2167.5,-141 2298.5,-141 "/>
<text text-anchor="start" x="2175.5" y="-129" font-family="Helvetica,sans-Serif" font-size="10.00">+ ClustererTask()</text>
<text text-anchor="start" x="2175.5" y="-118" font-family="Helvetica,sans-Serif" font-size="10.00">+ ~ClustererTask()</text>
<text text-anchor="start" x="2175.5" y="-107" font-family="Helvetica,sans-Serif" font-size="10.00">+ Init()</text>
<text text-anchor="start" x="2175.5" y="-96" font-family="Helvetica,sans-Serif" font-size="10.00">+ Exec()</text>
<text text-anchor="start" x="2175.5" y="-85" font-family="Helvetica,sans-Serif" font-size="10.00">+ FinishTask()</text>
<text text-anchor="start" x="2175.5" y="-74" font-family="Helvetica,sans-Serif" font-size="10.00">+ setContinuousReadout()</text>
</a>
</g>
</g>
<!-- Node1&#45;&gt;Node17 -->
<g id="edge16" class="edge"><title>Node1&#45;&gt;Node17</title>
<path fill="none" stroke="midnightblue" d="M1291.29,-309.338C1453.99,-306.253 2083.04,-291.456 2158,-246 2182.98,-230.853 2200.83,-203.909 2212.83,-179.188"/>
<polygon fill="none" stroke="midnightblue" points="1290.76,-305.848 1280.83,-309.533 1290.89,-312.846 1290.76,-305.848"/>
</g>
<!-- Node18 -->
<g id="node18" class="node"><title>Node18</title>
<g id="a_node18"><a xlink:href="../../dd/d64/classo2_1_1TPC_1_1DigitizerTask.html" target="_top" xlink:title="{o2::TPC::DigitizerTask\n||+ DigitizerTask()\l+ ~DigitizerTask()\l+ Init()\l+ Init2()\l+ setDebugOutput()\l+ setContinuousReadout()\l+ setMaximalTimeBinWriteOut()\l+ setTimeChunkProcessing()\l+ setupSector()\l+ setStartTime()\l+ setEndTime()\l+ Exec()\l+ Exec2()\l+ FinishTask()\l+ FinishTask2()\l+ setData()\l+ setOutputData()\l+ initBunchTrainStructure()\l}">
<polygon fill="none" stroke="black" points="2316.5,-1 2316.5,-245 2473.5,-245 2473.5,-1 2316.5,-1"/>
<text text-anchor="middle" x="2395" y="-233" font-family="Helvetica,sans-Serif" font-size="10.00">o2::TPC::DigitizerTask</text>
<polyline fill="none" stroke="black" points="2316.5,-226 2473.5,-226 "/>
<text text-anchor="middle" x="2395" y="-214" font-family="Helvetica,sans-Serif" font-size="10.00"> </text>
<polyline fill="none" stroke="black" points="2316.5,-207 2473.5,-207 "/>
<text text-anchor="start" x="2324.5" y="-195" font-family="Helvetica,sans-Serif" font-size="10.00">+ DigitizerTask()</text>
<text text-anchor="start" x="2324.5" y="-184" font-family="Helvetica,sans-Serif" font-size="10.00">+ ~DigitizerTask()</text>
<text text-anchor="start" x="2324.5" y="-173" font-family="Helvetica,sans-Serif" font-size="10.00">+ Init()</text>
<text text-anchor="start" x="2324.5" y="-162" font-family="Helvetica,sans-Serif" font-size="10.00">+ Init2()</text>
<text text-anchor="start" x="2324.5" y="-151" font-family="Helvetica,sans-Serif" font-size="10.00">+ setDebugOutput()</text>
<text text-anchor="start" x="2324.5" y="-140" font-family="Helvetica,sans-Serif" font-size="10.00">+ setContinuousReadout()</text>
<text text-anchor="start" x="2324.5" y="-129" font-family="Helvetica,sans-Serif" font-size="10.00">+ setMaximalTimeBinWriteOut()</text>
<text text-anchor="start" x="2324.5" y="-118" font-family="Helvetica,sans-Serif" font-size="10.00">+ setTimeChunkProcessing()</text>
<text text-anchor="start" x="2324.5" y="-107" font-family="Helvetica,sans-Serif" font-size="10.00">+ setupSector()</text>
<text text-anchor="start" x="2324.5" y="-96" font-family="Helvetica,sans-Serif" font-size="10.00">+ setStartTime()</text>
<text text-anchor="start" x="2324.5" y="-85" font-family="Helvetica,sans-Serif" font-size="10.00">+ setEndTime()</text>
<text text-anchor="start" x="2324.5" y="-74" font-family="Helvetica,sans-Serif" font-size="10.00">+ Exec()</text>
<text text-anchor="start" x="2324.5" y="-63" font-family="Helvetica,sans-Serif" font-size="10.00">+ Exec2()</text>
<text text-anchor="start" x="2324.5" y="-52" font-family="Helvetica,sans-Serif" font-size="10.00">+ FinishTask()</text>
<text text-anchor="start" x="2324.5" y="-41" font-family="Helvetica,sans-Serif" font-size="10.00">+ FinishTask2()</text>
<text text-anchor="start" x="2324.5" y="-30" font-family="Helvetica,sans-Serif" font-size="10.00">+ setData()</text>
<text text-anchor="start" x="2324.5" y="-19" font-family="Helvetica,sans-Serif" font-size="10.00">+ setOutputData()</text>
<text text-anchor="start" x="2324.5" y="-8" font-family="Helvetica,sans-Serif" font-size="10.00">+ initBunchTrainStructure()</text>
</a>
</g>
</g>
<!-- Node1&#45;&gt;Node18 -->
<g id="edge17" class="edge"><title>Node1&#45;&gt;Node18</title>
<path fill="none" stroke="midnightblue" d="M1290.71,-309.611C1468.31,-307.525 2216.51,-295.822 2307,-246 2310.2,-244.237 2313.32,-242.301 2316.35,-240.218"/>
<polygon fill="none" stroke="midnightblue" points="1290.51,-306.113 1280.55,-309.727 1290.59,-313.112 1290.51,-306.113"/>
</g>
</g>
</svg>
        <g id="navigator" transform="translate(0 0)" fill="#404254">
                <rect fill="#f2f5e9" fill-opacity="0.5" stroke="#606060" stroke-width=".5" x="0" y="0" width="60" height="60"/>
                <use id="zoomplus" xlink:href="#zoomPlus" x="17" y="9" onmousedown="handleZoom(evt,'in')"/>
                <use id="zoomminus" xlink:href="#zoomMin" x="42" y="9" onmousedown="handleZoom(evt,'out')"/>
                <use id="reset" xlink:href="#resetDef" x="30" y="36" onmousedown="handleReset()"/>
                <g id="arrowUp" xlink:href="#dirArrow" transform="translate(30 24)" onmousedown="handlePan(0,-1)">
                  <use xlink:href="#rim" fill="#404040">
                        <set attributeName="fill" to="#808080" begin="arrowUp.mouseover" end="arrowUp.mouseout"/>
                  </use>
                  <path fill="none" stroke="white" stroke-width="1.5" d="M0,-3.0v7 M-2.5,-0.5L0,-3.0L2.5,-0.5"/>
                </g>
                <g id="arrowRight" xlink:href="#dirArrow" transform="rotate(90) translate(36 -43)" onmousedown="handlePan(1,0)">
                  <use xlink:href="#rim" fill="#404040">
                        <set attributeName="fill" to="#808080" begin="arrowRight.mouseover" end="arrowRight.mouseout"/>
                  </use>
                  <path fill="none" stroke="white" stroke-width="1.5" d="M0,-3.0v7 M-2.5,-0.5L0,-3.0L2.5,-0.5"/>
                </g>
                <g id="arrowDown" xlink:href="#dirArrow" transform="rotate(180) translate(-30 -48)" onmousedown="handlePan(0,1)">
                  <use xlink:href="#rim" fill="#404040">
                        <set attributeName="fill" to="#808080" begin="arrowDown.mouseover" end="arrowDown.mouseout"/>
                  </use>
                  <path fill="none" stroke="white" stroke-width="1.5" d="M0,-3.0v7 M-2.5,-0.5L0,-3.0L2.5,-0.5"/>
                </g>
                <g id="arrowLeft" xlink:href="#dirArrow" transform="rotate(270) translate(-36 17)" onmousedown="handlePan(-1,0)">
                  <use xlink:href="#rim" fill="#404040">
                        <set attributeName="fill" to="#808080" begin="arrowLeft.mouseover" end="arrowLeft.mouseout"/>
                  </use>
                  <path fill="none" stroke="white" stroke-width="1.5" d="M0,-3.0v7 M-2.5,-0.5L0,-3.0L2.5,-0.5"/>
                </g>
        </g>
        <svg viewBox="0 0 15 15" width="100%" height="30px" preserveAspectRatio="xMaxYMin meet">
         <g id="arrow_out" transform="scale(0.3 0.3)">
          <a xlink:href="classFairTask__inherit__graph_org.svg" target="_base">
           <rect id="button" ry="5" rx="5" y="6" x="6" height="38" width="38"
                fill="#f2f5e9" fill-opacity="0.5" stroke="#606060" stroke-width="1.0"/>
           <path id="arrow"
             d="M 11.500037,31.436501 C 11.940474,20.09759 22.043105,11.32322 32.158766,21.979434 L 37.068811,17.246167 C 37.068811,17.246167 37.088388,32 37.088388,32 L 22.160133,31.978069 C 22.160133,31.978069 26.997745,27.140456 26.997745,27.140456 C 18.528582,18.264221 13.291696,25.230495 11.500037,31.436501 z"
             style="fill:#404040;"/>
          </a>
         </g>
        </svg>
</svg>
