<?xml version="1.0" encoding="UTF-8" standalone="no"?>
<!DOCTYPE svg PUBLIC "-//W3C//DTD SVG 1.1//EN"
 "http://www.w3.org/Graphics/SVG/1.1/DTD/svg11.dtd">
<!-- Generated by graphviz version 2.36.0 (20140111.2315)
 -->
<!-- Title: /home/travis/build/AliceO2Group/AliceO2/Detectors/FIT/simulation/src/DigitizerTask.cxx Pages: 1 -->
<!--zoomable 490 -->
<svg id="main" version="1.1" xmlns="http://www.w3.org/2000/svg" xmlns:xlink="http://www.w3.org/1999/xlink" xml:space="preserve" onload="init(evt)">
<style type="text/css"><![CDATA[
.edge:hover path { stroke: red; }
.edge:hover polygon { stroke: red; fill: red; }
]]></style>
<script type="text/javascript"><![CDATA[
var edges = document.getElementsByTagName('g');
if (edges && edges.length) {
  for (var i=0;i<edges.length;i++) {
    if (edges[i].id.substr(0,4)=='edge') {
      edges[i].setAttribute('class','edge');
    }
  }
}
]]></script>
        <defs>
                <circle id="rim" cx="0" cy="0" r="7"/>
                <circle id="rim2" cx="0" cy="0" r="3.5"/>
                <g id="zoomPlus">
                        <use xlink:href="#rim" fill="#404040">
                                <set attributeName="fill" to="#808080" begin="zoomplus.mouseover" end="zoomplus.mouseout"/>
                        </use>
                        <path d="M-4,0h8M0,-4v8" fill="none" stroke="white" stroke-width="1.5" pointer-events="none"/>
                </g>
                <g id="zoomMin">
                        <use xlink:href="#rim" fill="#404040">
                                <set attributeName="fill" to="#808080" begin="zoomminus.mouseover" end="zoomminus.mouseout"/>
                        </use>
                        <path d="M-4,0h8" fill="none" stroke="white" stroke-width="1.5" pointer-events="none"/>
                </g>
                <g id="dirArrow">
                        <path fill="none" stroke="white" stroke-width="1.5" d="M0,-3.0v7 M-2.5,-0.5L0,-3.0L2.5,-0.5"/>
                </g>
               <g id="resetDef">
                       <use xlink:href="#rim2" fill="#404040">
                               <set attributeName="fill" to="#808080" begin="reset.mouseover" end="reset.mouseout"/>
                       </use>
               </g>
        </defs>

<script type="text/javascript">
var viewWidth = 2532;
var viewHeight = 490;
var sectionId = 'dynsection-0';
</script>
<script xlink:href="../../svgpan.js"/>
<svg id="graph" class="graph">
<g id="viewport">
<title>/home/travis/build/AliceO2Group/AliceO2/Detectors/FIT/simulation/src/DigitizerTask.cxx</title>
<!-- Node1 -->
<g id="node1" class="node"><title>Node1</title>
<polygon fill="#bfbfbf" stroke="black" points="1579,-429 1579,-481 1707,-481 1707,-429 1579,-429"/>
<text text-anchor="start" x="1587" y="-469" font-family="Helvetica,sans-Serif" font-size="10.00">/home/travis/build</text>
<text text-anchor="start" x="1587" y="-458" font-family="Helvetica,sans-Serif" font-size="10.00">/AliceO2Group/AliceO2</text>
<text text-anchor="start" x="1587" y="-447" font-family="Helvetica,sans-Serif" font-size="10.00">/Detectors/FIT/simulation</text>
<text text-anchor="middle" x="1643" y="-436" font-family="Helvetica,sans-Serif" font-size="10.00">/src/DigitizerTask.cxx</text>
</g>
<!-- Node2 -->
<g id="node2" class="node"><title>Node2</title>
<g id="a_node2"><a xlink:href="../../d4/dcd/FIT_2simulation_2include_2FITSimulation_2DigitizerTask_8h.html" target="_top" xlink:title="FITSimulation/DigitizerTask.h">
<polygon fill="none" stroke="black" points="1445,-372.5 1445,-391.5 1591,-391.5 1591,-372.5 1445,-372.5"/>
<text text-anchor="middle" x="1518" y="-379.5" font-family="Helvetica,sans-Serif" font-size="10.00">FITSimulation/DigitizerTask.h</text>
</a>
</g>
</g>
<!-- Node1&#45;&gt;Node2 -->
<g id="edge1" class="edge"><title>Node1&#45;&gt;Node2</title>
<path fill="none" stroke="midnightblue" d="M1598.93,-428.968C1579.77,-418.088 1558.08,-405.767 1541.98,-396.622"/>
<polygon fill="midnightblue" stroke="midnightblue" points="1543.63,-393.534 1533.21,-391.639 1540.18,-399.621 1543.63,-393.534"/>
</g>
<!-- Node26 -->
<g id="node26" class="node"><title>Node26</title>
<polygon fill="none" stroke="#bfbfbf" points="0,-136.5 0,-155.5 100,-155.5 100,-136.5 0,-136.5"/>
<text text-anchor="middle" x="50" y="-143.5" font-family="Helvetica,sans-Serif" font-size="10.00">FairRootManager.h</text>
</g>
<!-- Node1&#45;&gt;Node26 -->
<g id="edge55" class="edge"><title>Node1&#45;&gt;Node26</title>
<path fill="none" stroke="midnightblue" d="M1578.64,-454.489C1317.9,-455.634 354,-451.451 354,-327 354,-327 354,-327 354,-269 354,-216.158 193.8,-175.744 105.988,-157.561"/>
<polygon fill="midnightblue" stroke="midnightblue" points="106.669,-154.128 96.1711,-155.558 105.27,-160.987 106.669,-154.128"/>
</g>
<!-- Node40 -->
<g id="node40" class="node"><title>Node40</title>
<g id="a_node40"><a xlink:href="../../d9/d52/Common_2MathUtils_2include_2MathUtils_2Utils_8h.html" target="_top" xlink:title="MathUtils/Utils.h">
<polygon fill="none" stroke="black" points="1667,-372.5 1667,-391.5 1757,-391.5 1757,-372.5 1667,-372.5"/>
<text text-anchor="middle" x="1712" y="-379.5" font-family="Helvetica,sans-Serif" font-size="10.00">MathUtils/Utils.h</text>
</a>
</g>
</g>
<!-- Node1&#45;&gt;Node40 -->
<g id="edge50" class="edge"><title>Node1&#45;&gt;Node40</title>
<path fill="none" stroke="midnightblue" d="M1667.52,-428.768C1677.13,-418.881 1687.87,-407.831 1696.39,-399.066"/>
<polygon fill="midnightblue" stroke="midnightblue" points="1699.03,-401.368 1703.49,-391.757 1694.01,-396.489 1699.03,-401.368"/>
</g>
<!-- Node44 -->
<g id="node44" class="node"><title>Node44</title>
<polygon fill="none" stroke="#bfbfbf" points="1775.5,-372.5 1775.5,-391.5 1846.5,-391.5 1846.5,-372.5 1775.5,-372.5"/>
<text text-anchor="middle" x="1811" y="-379.5" font-family="Helvetica,sans-Serif" font-size="10.00">FairLogger.h</text>
</g>
<!-- Node1&#45;&gt;Node44 -->
<g id="edge54" class="edge"><title>Node1&#45;&gt;Node44</title>
<path fill="none" stroke="midnightblue" d="M1702.23,-428.968C1728.94,-417.681 1759.31,-404.844 1781.16,-395.61"/>
<polygon fill="midnightblue" stroke="midnightblue" points="1782.71,-398.756 1790.56,-391.639 1779.98,-392.308 1782.71,-398.756"/>
</g>
<!-- Node3 -->
<g id="node3" class="node"><title>Node3</title>
<polygon fill="none" stroke="#bfbfbf" points="1430.5,-316.5 1430.5,-335.5 1493.5,-335.5 1493.5,-316.5 1430.5,-316.5"/>
<text text-anchor="middle" x="1462" y="-323.5" font-family="Helvetica,sans-Serif" font-size="10.00">FairTask.h</text>
</g>
<!-- Node2&#45;&gt;Node3 -->
<g id="edge2" class="edge"><title>Node2&#45;&gt;Node3</title>
<path fill="none" stroke="midnightblue" d="M1509,-372.324C1500.81,-364.42 1488.49,-352.548 1478.53,-342.938"/>
<polygon fill="midnightblue" stroke="midnightblue" points="1480.79,-340.256 1471.16,-335.834 1475.93,-345.295 1480.79,-340.256"/>
</g>
<!-- Node4 -->
<g id="node4" class="node"><title>Node4</title>
<polygon fill="none" stroke="#bfbfbf" points="1285,-74.5 1285,-93.5 1341,-93.5 1341,-74.5 1285,-74.5"/>
<text text-anchor="middle" x="1313" y="-81.5" font-family="Helvetica,sans-Serif" font-size="10.00">Rtypes.h</text>
</g>
<!-- Node2&#45;&gt;Node4 -->
<g id="edge3" class="edge"><title>Node2&#45;&gt;Node4</title>
<path fill="none" stroke="midnightblue" d="M1474.74,-372.389C1424.96,-359.668 1350,-330.615 1350,-271 1350,-271 1350,-271 1350,-207 1350,-168.613 1333.02,-126.242 1322.06,-102.905"/>
<polygon fill="midnightblue" stroke="midnightblue" points="1325.06,-101.065 1317.54,-93.6049 1318.77,-104.128 1325.06,-101.065"/>
</g>
<!-- Node5 -->
<g id="node5" class="node"><title>Node5</title>
<g id="a_node5"><a xlink:href="../../d1/dde/FIT_2base_2include_2FITBase_2Digit_8h.html" target="_top" xlink:title="FITBase/Digit.h">
<polygon fill="none" stroke="black" points="1636,-198.5 1636,-217.5 1722,-217.5 1722,-198.5 1636,-198.5"/>
<text text-anchor="middle" x="1679" y="-205.5" font-family="Helvetica,sans-Serif" font-size="10.00">FITBase/Digit.h</text>
</a>
</g>
</g>
<!-- Node2&#45;&gt;Node5 -->
<g id="edge4" class="edge"><title>Node2&#45;&gt;Node5</title>
<path fill="none" stroke="midnightblue" d="M1576.79,-372.483C1600.93,-366.162 1627.3,-355.156 1645,-336 1672.92,-305.783 1678.38,-255.156 1679.17,-227.841"/>
<polygon fill="midnightblue" stroke="midnightblue" points="1682.67,-227.724 1679.27,-217.689 1675.67,-227.654 1682.67,-227.724"/>
</g>
<!-- Node8 -->
<g id="node8" class="node"><title>Node8</title>
<g id="a_node8"><a xlink:href="../../de/d6b/FIT_2simulation_2include_2FITSimulation_2Detector_8h.html" target="_top" xlink:title="FITSimulation/Detector.h">
<polygon fill="none" stroke="black" points="1378,-260.5 1378,-279.5 1504,-279.5 1504,-260.5 1378,-260.5"/>
<text text-anchor="middle" x="1441" y="-267.5" font-family="Helvetica,sans-Serif" font-size="10.00">FITSimulation/Detector.h</text>
</a>
</g>
</g>
<!-- Node2&#45;&gt;Node8 -->
<g id="edge9" class="edge"><title>Node2&#45;&gt;Node8</title>
<path fill="none" stroke="midnightblue" d="M1475.61,-372.451C1455.42,-366.022 1433.09,-354.933 1421,-336 1411.6,-321.284 1419.74,-301.881 1428.28,-288.116"/>
<polygon fill="midnightblue" stroke="midnightblue" points="1431.33,-289.853 1434.05,-279.614 1425.54,-285.921 1431.33,-289.853"/>
</g>
<!-- Node39 -->
<g id="node39" class="node"><title>Node39</title>
<g id="a_node39"><a xlink:href="../../d3/da0/FIT_2simulation_2include_2FITSimulation_2Digitizer_8h.html" target="_top" xlink:title="FITSimulation/Digitizer.h">
<polygon fill="none" stroke="black" points="1511.5,-316.5 1511.5,-335.5 1636.5,-335.5 1636.5,-316.5 1511.5,-316.5"/>
<text text-anchor="middle" x="1574" y="-323.5" font-family="Helvetica,sans-Serif" font-size="10.00">FITSimulation/Digitizer.h</text>
</a>
</g>
</g>
<!-- Node2&#45;&gt;Node39 -->
<g id="edge47" class="edge"><title>Node2&#45;&gt;Node39</title>
<path fill="none" stroke="midnightblue" d="M1527,-372.324C1535.19,-364.42 1547.51,-352.548 1557.47,-342.938"/>
<polygon fill="midnightblue" stroke="midnightblue" points="1560.07,-345.295 1564.84,-335.834 1555.21,-340.256 1560.07,-345.295"/>
</g>
<!-- Node5&#45;&gt;Node4 -->
<g id="edge8" class="edge"><title>Node5&#45;&gt;Node4</title>
<path fill="none" stroke="midnightblue" d="M1654.52,-198.417C1615.44,-184.782 1536.47,-157.518 1469,-136 1415.95,-119.08 1401.44,-118.733 1349,-100 1346.74,-99.1928 1344.42,-98.3216 1342.09,-97.4196"/>
<polygon fill="midnightblue" stroke="midnightblue" points="1343.25,-94.1122 1332.66,-93.6236 1340.63,-100.606 1343.25,-94.1122"/>
</g>
<!-- Node6 -->
<g id="node6" class="node"><title>Node6</title>
<g id="a_node6"><a xlink:href="../../df/d5d/common_2include_2CommonDataFormat_2TimeStamp_8h.html" target="_top" xlink:title="CommonDataFormat/TimeStamp.h">
<polygon fill="none" stroke="black" points="1580,-136.5 1580,-155.5 1750,-155.5 1750,-136.5 1580,-136.5"/>
<text text-anchor="middle" x="1665" y="-143.5" font-family="Helvetica,sans-Serif" font-size="10.00">CommonDataFormat/TimeStamp.h</text>
</a>
</g>
</g>
<!-- Node5&#45;&gt;Node6 -->
<g id="edge5" class="edge"><title>Node5&#45;&gt;Node6</title>
<path fill="none" stroke="midnightblue" d="M1676.99,-198.403C1675,-189.849 1671.87,-176.45 1669.31,-165.476"/>
<polygon fill="midnightblue" stroke="midnightblue" points="1672.68,-164.524 1667,-155.581 1665.87,-166.114 1672.68,-164.524"/>
</g>
<!-- Node7 -->
<g id="node7" class="node"><title>Node7</title>
<polygon fill="none" stroke="#bfbfbf" points="2478.5,-74.5 2478.5,-93.5 2523.5,-93.5 2523.5,-74.5 2478.5,-74.5"/>
<text text-anchor="middle" x="2501" y="-81.5" font-family="Helvetica,sans-Serif" font-size="10.00">iosfwd</text>
</g>
<!-- Node5&#45;&gt;Node7 -->
<g id="edge7" class="edge"><title>Node5&#45;&gt;Node7</title>
<path fill="none" stroke="midnightblue" d="M1722.34,-205.722C1843.08,-201.19 2192.52,-181.447 2469,-100 2471.28,-99.3271 2473.61,-98.5134 2475.92,-97.6171"/>
<polygon fill="midnightblue" stroke="midnightblue" points="2477.33,-100.821 2485.09,-93.6168 2474.53,-94.4038 2477.33,-100.821"/>
</g>
<!-- Node6&#45;&gt;Node4 -->
<g id="edge6" class="edge"><title>Node6&#45;&gt;Node4</title>
<path fill="none" stroke="midnightblue" d="M1579.98,-138.772C1515.68,-132.655 1425.68,-121.067 1349,-100 1346.18,-99.2264 1343.3,-98.2879 1340.44,-97.2618"/>
<polygon fill="midnightblue" stroke="midnightblue" points="1341.59,-93.9518 1331,-93.5489 1339.02,-100.466 1341.59,-93.9518"/>
</g>
<!-- Node9 -->
<g id="node9" class="node"><title>Node9</title>
<g id="a_node9"><a xlink:href="../../d4/d25/BaseHits_8h.html" target="_top" xlink:title="SimulationDataFormat\l/BaseHits.h">
<polygon fill="none" stroke="black" points="1504,-193 1504,-223 1618,-223 1618,-193 1504,-193"/>
<text text-anchor="start" x="1512" y="-211" font-family="Helvetica,sans-Serif" font-size="10.00">SimulationDataFormat</text>
<text text-anchor="middle" x="1561" y="-200" font-family="Helvetica,sans-Serif" font-size="10.00">/BaseHits.h</text>
</a>
</g>
</g>
<!-- Node8&#45;&gt;Node9 -->
<g id="edge10" class="edge"><title>Node8&#45;&gt;Node9</title>
<path fill="none" stroke="midnightblue" d="M1458.19,-260.403C1475.2,-251.898 1501.8,-238.602 1523.67,-227.663"/>
<polygon fill="midnightblue" stroke="midnightblue" points="1525.34,-230.744 1532.72,-223.141 1522.21,-224.483 1525.34,-230.744"/>
</g>
<!-- Node20 -->
<g id="node20" class="node"><title>Node20</title>
<g id="a_node20"><a xlink:href="../../d1/d3a/Base_2include_2DetectorsBase_2Detector_8h.html" target="_top" xlink:title="DetectorsBase/Detector.h">
<polygon fill="none" stroke="black" points="685.5,-198.5 685.5,-217.5 816.5,-217.5 816.5,-198.5 685.5,-198.5"/>
<text text-anchor="middle" x="751" y="-205.5" font-family="Helvetica,sans-Serif" font-size="10.00">DetectorsBase/Detector.h</text>
</a>
</g>
</g>
<!-- Node8&#45;&gt;Node20 -->
<g id="edge23" class="edge"><title>Node8&#45;&gt;Node20</title>
<path fill="none" stroke="midnightblue" d="M1377.94,-263.516C1250.71,-252.453 963.769,-227.502 826.687,-215.581"/>
<polygon fill="midnightblue" stroke="midnightblue" points="826.947,-212.091 816.682,-214.711 826.341,-219.065 826.947,-212.091"/>
</g>
<!-- Node37 -->
<g id="node37" class="node"><title>Node37</title>
<g id="a_node37"><a xlink:href="../../d1/db1/FIT_2base_2include_2FITBase_2Geometry_8h.html" target="_top" xlink:title="FITBase/Geometry.h">
<polygon fill="none" stroke="black" points="1378,-198.5 1378,-217.5 1486,-217.5 1486,-198.5 1378,-198.5"/>
<text text-anchor="middle" x="1432" y="-205.5" font-family="Helvetica,sans-Serif" font-size="10.00">FITBase/Geometry.h</text>
</a>
</g>
</g>
<!-- Node8&#45;&gt;Node37 -->
<g id="edge44" class="edge"><title>Node8&#45;&gt;Node37</title>
<path fill="none" stroke="midnightblue" d="M1439.71,-260.403C1438.43,-251.849 1436.42,-238.45 1434.77,-227.476"/>
<polygon fill="midnightblue" stroke="midnightblue" points="1438.23,-226.951 1433.29,-217.581 1431.31,-227.989 1438.23,-226.951"/>
</g>
<!-- Node10 -->
<g id="node10" class="node"><title>Node10</title>
<g id="a_node10"><a xlink:href="../../dd/d76/Cartesian3D_8h.html" target="_top" xlink:title="MathUtils/Cartesian3D.h">
<polygon fill="none" stroke="black" points="1840.5,-136.5 1840.5,-155.5 1965.5,-155.5 1965.5,-136.5 1840.5,-136.5"/>
<text text-anchor="middle" x="1903" y="-143.5" font-family="Helvetica,sans-Serif" font-size="10.00">MathUtils/Cartesian3D.h</text>
</a>
</g>
</g>
<!-- Node9&#45;&gt;Node10 -->
<g id="edge11" class="edge"><title>Node9&#45;&gt;Node10</title>
<path fill="none" stroke="midnightblue" d="M1618.19,-193.774C1621.17,-193.158 1624.12,-192.562 1627,-192 1697.21,-178.312 1778.02,-165.475 1833.97,-157.043"/>
<polygon fill="midnightblue" stroke="midnightblue" points="1834.76,-160.465 1844.13,-155.52 1833.72,-153.542 1834.76,-160.465"/>
</g>
<!-- Node10&#45;&gt;Node4 -->
<g id="edge17" class="edge"><title>Node10&#45;&gt;Node4</title>
<path fill="none" stroke="midnightblue" d="M1840.28,-141.016C1705.31,-132.283 1395.71,-111.329 1349,-100 1346,-99.2734 1342.93,-98.3308 1339.91,-97.272"/>
<polygon fill="midnightblue" stroke="midnightblue" points="1341.16,-94.0015 1330.57,-93.6159 1338.61,-100.52 1341.16,-94.0015"/>
</g>
<!-- Node10&#45;&gt;Node7 -->
<g id="edge19" class="edge"><title>Node10&#45;&gt;Node7</title>
<path fill="none" stroke="midnightblue" d="M1965.82,-142.836C2092.73,-138.002 2375.5,-124.758 2469,-100 2471.35,-99.3772 2473.74,-98.5874 2476.11,-97.6973"/>
<polygon fill="midnightblue" stroke="midnightblue" points="2477.68,-100.828 2485.47,-93.6445 2474.91,-94.403 2477.68,-100.828"/>
</g>
<!-- Node11 -->
<g id="node11" class="node"><title>Node11</title>
<polygon fill="none" stroke="#bfbfbf" points="1501.5,-69 1501.5,-99 1652.5,-99 1652.5,-69 1501.5,-69"/>
<text text-anchor="start" x="1509.5" y="-87" font-family="Helvetica,sans-Serif" font-size="10.00">Math/GenVector/Displacement</text>
<text text-anchor="middle" x="1577" y="-76" font-family="Helvetica,sans-Serif" font-size="10.00">Vector3D.h</text>
</g>
<!-- Node10&#45;&gt;Node11 -->
<g id="edge12" class="edge"><title>Node10&#45;&gt;Node11</title>
<path fill="none" stroke="midnightblue" d="M1856.64,-136.467C1806.35,-127.212 1724.96,-112.232 1662.92,-100.813"/>
<polygon fill="midnightblue" stroke="midnightblue" points="1663.22,-97.3091 1652.75,-98.9411 1661.95,-104.193 1663.22,-97.3091"/>
</g>
<!-- Node12 -->
<g id="node12" class="node"><title>Node12</title>
<polygon fill="none" stroke="#bfbfbf" points="1671,-74.5 1671,-93.5 1847,-93.5 1847,-74.5 1671,-74.5"/>
<text text-anchor="middle" x="1759" y="-81.5" font-family="Helvetica,sans-Serif" font-size="10.00">Math/GenVector/PositionVector3D.h</text>
</g>
<!-- Node10&#45;&gt;Node12 -->
<g id="edge13" class="edge"><title>Node10&#45;&gt;Node12</title>
<path fill="none" stroke="midnightblue" d="M1882.37,-136.403C1857.88,-126.2 1816.85,-109.105 1788.89,-97.4544"/>
<polygon fill="midnightblue" stroke="midnightblue" points="1790.17,-94.196 1779.59,-93.5806 1787.48,-100.658 1790.17,-94.196"/>
</g>
<!-- Node13 -->
<g id="node13" class="node"><title>Node13</title>
<polygon fill="none" stroke="#bfbfbf" points="1864.5,-74.5 1864.5,-93.5 2013.5,-93.5 2013.5,-74.5 1864.5,-74.5"/>
<text text-anchor="middle" x="1939" y="-81.5" font-family="Helvetica,sans-Serif" font-size="10.00">Math/GenVector/Rotation3D.h</text>
</g>
<!-- Node10&#45;&gt;Node13 -->
<g id="edge14" class="edge"><title>Node10&#45;&gt;Node13</title>
<path fill="none" stroke="midnightblue" d="M1908.16,-136.403C1913.45,-127.582 1921.84,-113.608 1928.53,-102.455"/>
<polygon fill="midnightblue" stroke="midnightblue" points="1931.71,-103.956 1933.85,-93.5806 1925.71,-100.355 1931.71,-103.956"/>
</g>
<!-- Node14 -->
<g id="node14" class="node"><title>Node14</title>
<polygon fill="none" stroke="#bfbfbf" points="2032,-74.5 2032,-93.5 2188,-93.5 2188,-74.5 2032,-74.5"/>
<text text-anchor="middle" x="2110" y="-81.5" font-family="Helvetica,sans-Serif" font-size="10.00">Math/GenVector/Transform3D.h</text>
</g>
<!-- Node10&#45;&gt;Node14 -->
<g id="edge15" class="edge"><title>Node10&#45;&gt;Node14</title>
<path fill="none" stroke="midnightblue" d="M1932.66,-136.403C1968.93,-125.889 2030.46,-108.054 2070.66,-96.4016"/>
<polygon fill="midnightblue" stroke="midnightblue" points="2071.77,-99.7263 2080.4,-93.5806 2069.82,-93.003 2071.77,-99.7263"/>
</g>
<!-- Node15 -->
<g id="node15" class="node"><title>Node15</title>
<polygon fill="none" stroke="#bfbfbf" points="2206,-74.5 2206,-93.5 2366,-93.5 2366,-74.5 2206,-74.5"/>
<text text-anchor="middle" x="2286" y="-81.5" font-family="Helvetica,sans-Serif" font-size="10.00">Math/GenVector/Translation3D.h</text>
</g>
<!-- Node10&#45;&gt;Node15 -->
<g id="edge16" class="edge"><title>Node10&#45;&gt;Node15</title>
<path fill="none" stroke="midnightblue" d="M1960.5,-136.461C2019.8,-127.594 2114.92,-113.198 2197,-100 2206.42,-98.4861 2216.38,-96.8443 2226.11,-95.2209"/>
<polygon fill="midnightblue" stroke="midnightblue" points="2226.84,-98.6471 2236.13,-93.5419 2225.69,-91.7435 2226.84,-98.6471"/>
</g>
<!-- Node16 -->
<g id="node16" class="node"><title>Node16</title>
<polygon fill="none" stroke="#bfbfbf" points="2384,-74.5 2384,-93.5 2460,-93.5 2460,-74.5 2384,-74.5"/>
<text text-anchor="middle" x="2422" y="-81.5" font-family="Helvetica,sans-Serif" font-size="10.00">TGeoMatrix.h</text>
</g>
<!-- Node10&#45;&gt;Node16 -->
<g id="edge18" class="edge"><title>Node10&#45;&gt;Node16</title>
<path fill="none" stroke="midnightblue" d="M1965.86,-143.273C2056.92,-139.812 2230.45,-129.602 2375,-100 2379.46,-99.086 2384.1,-97.9044 2388.65,-96.6057"/>
<polygon fill="midnightblue" stroke="midnightblue" points="2389.81,-99.9086 2398.35,-93.6342 2387.77,-93.2152 2389.81,-99.9086"/>
</g>
<!-- Node17 -->
<g id="node17" class="node"><title>Node17</title>
<g id="a_node17"><a xlink:href="../../d2/dd0/Cartesian2D_8h.html" target="_top" xlink:title="MathUtils/Cartesian2D.h">
<polygon fill="none" stroke="black" points="1358.5,-74.5 1358.5,-93.5 1483.5,-93.5 1483.5,-74.5 1358.5,-74.5"/>
<text text-anchor="middle" x="1421" y="-81.5" font-family="Helvetica,sans-Serif" font-size="10.00">MathUtils/Cartesian2D.h</text>
</a>
</g>
</g>
<!-- Node10&#45;&gt;Node17 -->
<g id="edge20" class="edge"><title>Node10&#45;&gt;Node17</title>
<path fill="none" stroke="midnightblue" d="M1840.42,-140.092C1759.63,-133.31 1614.8,-119.645 1492,-100 1484.22,-98.7546 1475.99,-97.2218 1468.01,-95.6164"/>
<polygon fill="midnightblue" stroke="midnightblue" points="1468.59,-92.1614 1458.09,-93.5604 1467.17,-99.0159 1468.59,-92.1614"/>
</g>
<!-- Node18 -->
<g id="node18" class="node"><title>Node18</title>
<polygon fill="none" stroke="#bfbfbf" points="1254.5,-1 1254.5,-31 1405.5,-31 1405.5,-1 1254.5,-1"/>
<text text-anchor="start" x="1262.5" y="-19" font-family="Helvetica,sans-Serif" font-size="10.00">Math/GenVector/Displacement</text>
<text text-anchor="middle" x="1330" y="-8" font-family="Helvetica,sans-Serif" font-size="10.00">Vector2D.h</text>
</g>
<!-- Node17&#45;&gt;Node18 -->
<g id="edge21" class="edge"><title>Node17&#45;&gt;Node18</title>
<path fill="none" stroke="midnightblue" d="M1409.1,-74.3717C1396.22,-65.0286 1375.22,-49.7966 1358.09,-37.375"/>
<polygon fill="midnightblue" stroke="midnightblue" points="1359.7,-34.2194 1349.55,-31.1815 1355.59,-39.8859 1359.7,-34.2194"/>
</g>
<!-- Node19 -->
<g id="node19" class="node"><title>Node19</title>
<polygon fill="none" stroke="#bfbfbf" points="1424,-6.5 1424,-25.5 1600,-25.5 1600,-6.5 1424,-6.5"/>
<text text-anchor="middle" x="1512" y="-13.5" font-family="Helvetica,sans-Serif" font-size="10.00">Math/GenVector/PositionVector2D.h</text>
</g>
<!-- Node17&#45;&gt;Node19 -->
<g id="edge22" class="edge"><title>Node17&#45;&gt;Node19</title>
<path fill="none" stroke="midnightblue" d="M1432.9,-74.3717C1447.88,-63.5015 1473.86,-44.6602 1491.94,-31.5474"/>
<polygon fill="midnightblue" stroke="midnightblue" points="1494.06,-34.3349 1500.1,-25.6305 1489.95,-28.6684 1494.06,-34.3349"/>
</g>
<!-- Node20&#45;&gt;Node4 -->
<g id="edge35" class="edge"><title>Node20&#45;&gt;Node4</title>
<path fill="none" stroke="midnightblue" d="M766.309,-198.436C799.354,-179.979 874.89,-137.948 881,-136 1021.19,-91.2955 1198.22,-85.097 1274.81,-84.687"/>
<polygon fill="midnightblue" stroke="midnightblue" points="1274.94,-88.1868 1284.94,-84.6641 1274.93,-81.1868 1274.94,-88.1868"/>
</g>
<!-- Node21 -->
<g id="node21" class="node"><title>Node21</title>
<polygon fill="none" stroke="#bfbfbf" points="337.5,-74.5 337.5,-93.5 372.5,-93.5 372.5,-74.5 337.5,-74.5"/>
<text text-anchor="middle" x="355" y="-81.5" font-family="Helvetica,sans-Serif" font-size="10.00">map</text>
</g>
<!-- Node20&#45;&gt;Node21 -->
<g id="edge24" class="edge"><title>Node20&#45;&gt;Node21</title>
<path fill="none" stroke="midnightblue" d="M685.249,-203.818C532.46,-196.108 165.026,-175.612 147,-156 94.0588,-98.4002 259.34,-87.5215 327.252,-85.4729"/>
<polygon fill="midnightblue" stroke="midnightblue" points="327.361,-88.9713 337.268,-85.2141 327.18,-81.9736 327.361,-88.9713"/>
</g>
<!-- Node22 -->
<g id="node22" class="node"><title>Node22</title>
<polygon fill="none" stroke="#bfbfbf" points="890,-136.5 890,-155.5 934,-155.5 934,-136.5 890,-136.5"/>
<text text-anchor="middle" x="912" y="-143.5" font-family="Helvetica,sans-Serif" font-size="10.00">vector</text>
</g>
<!-- Node20&#45;&gt;Node22 -->
<g id="edge25" class="edge"><title>Node20&#45;&gt;Node22</title>
<path fill="none" stroke="midnightblue" d="M774.067,-198.403C801.92,-188.024 848.912,-170.511 880.193,-158.854"/>
<polygon fill="midnightblue" stroke="midnightblue" points="881.604,-162.063 889.752,-155.291 879.16,-155.504 881.604,-162.063"/>
</g>
<!-- Node23 -->
<g id="node23" class="node"><title>Node23</title>
<polygon fill="none" stroke="#bfbfbf" points="610.5,-74.5 610.5,-93.5 683.5,-93.5 683.5,-74.5 610.5,-74.5"/>
<text text-anchor="middle" x="647" y="-81.5" font-family="Helvetica,sans-Serif" font-size="10.00">initializer_list</text>
</g>
<!-- Node20&#45;&gt;Node23 -->
<g id="edge26" class="edge"><title>Node20&#45;&gt;Node23</title>
<path fill="none" stroke="midnightblue" d="M721.869,-198.421C701.027,-190.73 674.089,-177.315 659,-156 648.294,-140.877 645.962,-119.465 645.897,-104.117"/>
<polygon fill="midnightblue" stroke="midnightblue" points="649.405,-103.86 646.187,-93.7656 642.408,-103.663 649.405,-103.86"/>
</g>
<!-- Node24 -->
<g id="node24" class="node"><title>Node24</title>
<polygon fill="none" stroke="#bfbfbf" points="952,-136.5 952,-155.5 1004,-155.5 1004,-136.5 952,-136.5"/>
<text text-anchor="middle" x="978" y="-143.5" font-family="Helvetica,sans-Serif" font-size="10.00">memory</text>
</g>
<!-- Node20&#45;&gt;Node24 -->
<g id="edge27" class="edge"><title>Node20&#45;&gt;Node24</title>
<path fill="none" stroke="midnightblue" d="M783.524,-198.403C825.516,-187.304 898.367,-168.048 941.99,-156.518"/>
<polygon fill="midnightblue" stroke="midnightblue" points="943.114,-159.841 951.888,-153.902 941.325,-153.074 943.114,-159.841"/>
</g>
<!-- Node25 -->
<g id="node25" class="node"><title>Node25</title>
<polygon fill="none" stroke="#bfbfbf" points="1022.5,-136.5 1022.5,-155.5 1101.5,-155.5 1101.5,-136.5 1022.5,-136.5"/>
<text text-anchor="middle" x="1062" y="-143.5" font-family="Helvetica,sans-Serif" font-size="10.00">FairDetector.h</text>
</g>
<!-- Node20&#45;&gt;Node25 -->
<g id="edge28" class="edge"><title>Node20&#45;&gt;Node25</title>
<path fill="none" stroke="midnightblue" d="M795.228,-198.467C852.615,-187.396 952.462,-168.133 1012.37,-156.574"/>
<polygon fill="midnightblue" stroke="midnightblue" points="1013.2,-159.979 1022.36,-154.648 1011.87,-153.106 1013.2,-159.979"/>
</g>
<!-- Node20&#45;&gt;Node26 -->
<g id="edge29" class="edge"><title>Node20&#45;&gt;Node26</title>
<path fill="none" stroke="midnightblue" d="M685.311,-203.041C569.643,-195.781 322.146,-178.947 114,-156 112.745,-155.862 111.477,-155.718 110.2,-155.57"/>
<polygon fill="midnightblue" stroke="midnightblue" points="110.623,-152.096 100.273,-154.359 109.775,-159.044 110.623,-152.096"/>
</g>
<!-- Node27 -->
<g id="node27" class="node"><title>Node27</title>
<g id="a_node27"><a xlink:href="../../d0/d9a/MaterialManager_8h.html" target="_top" xlink:title="DetectorsBase/MaterialManager.h">
<polygon fill="none" stroke="black" points="668.5,-136.5 668.5,-155.5 833.5,-155.5 833.5,-136.5 668.5,-136.5"/>
<text text-anchor="middle" x="751" y="-143.5" font-family="Helvetica,sans-Serif" font-size="10.00">DetectorsBase/MaterialManager.h</text>
</a>
</g>
</g>
<!-- Node20&#45;&gt;Node27 -->
<g id="edge30" class="edge"><title>Node20&#45;&gt;Node27</title>
<path fill="none" stroke="midnightblue" d="M751,-198.403C751,-189.938 751,-176.728 751,-165.82"/>
<polygon fill="midnightblue" stroke="midnightblue" points="754.5,-165.581 751,-155.581 747.5,-165.581 754.5,-165.581"/>
</g>
<!-- Node29 -->
<g id="node29" class="node"><title>Node29</title>
<polygon fill="none" stroke="#bfbfbf" points="1119.5,-136.5 1119.5,-155.5 1172.5,-155.5 1172.5,-136.5 1119.5,-136.5"/>
<text text-anchor="middle" x="1146" y="-143.5" font-family="Helvetica,sans-Serif" font-size="10.00">cxxabi.h</text>
</g>
<!-- Node20&#45;&gt;Node29 -->
<g id="edge36" class="edge"><title>Node20&#45;&gt;Node29</title>
<path fill="none" stroke="midnightblue" d="M816.523,-199.764C886.566,-191.563 1001.02,-176.824 1109.22,-155.966"/>
<polygon fill="midnightblue" stroke="midnightblue" points="1110.19,-159.343 1119.33,-153.994 1108.85,-152.473 1110.19,-159.343"/>
</g>
<!-- Node30 -->
<g id="node30" class="node"><title>Node30</title>
<polygon fill="none" stroke="#bfbfbf" points="1190.5,-136.5 1190.5,-155.5 1241.5,-155.5 1241.5,-136.5 1190.5,-136.5"/>
<text text-anchor="middle" x="1216" y="-143.5" font-family="Helvetica,sans-Serif" font-size="10.00">typeinfo</text>
</g>
<!-- Node20&#45;&gt;Node30 -->
<g id="edge37" class="edge"><title>Node20&#45;&gt;Node30</title>
<path fill="none" stroke="midnightblue" d="M816.611,-201.963C899.227,-195.01 1045.61,-180.664 1180.38,-155.865"/>
<polygon fill="midnightblue" stroke="midnightblue" points="1181.28,-159.257 1190.47,-153.984 1180,-152.376 1181.28,-159.257"/>
</g>
<!-- Node31 -->
<g id="node31" class="node"><title>Node31</title>
<polygon fill="none" stroke="#bfbfbf" points="1260,-136.5 1260,-155.5 1322,-155.5 1322,-136.5 1260,-136.5"/>
<text text-anchor="middle" x="1291" y="-143.5" font-family="Helvetica,sans-Serif" font-size="10.00">type_traits</text>
</g>
<!-- Node20&#45;&gt;Node31 -->
<g id="edge38" class="edge"><title>Node20&#45;&gt;Node31</title>
<path fill="none" stroke="midnightblue" d="M816.7,-202.688C910.463,-196.002 1088.18,-181.361 1249.61,-155.865"/>
<polygon fill="midnightblue" stroke="midnightblue" points="1250.41,-159.283 1259.73,-154.249 1249.3,-152.37 1250.41,-159.283"/>
</g>
<!-- Node32 -->
<g id="node32" class="node"><title>Node32</title>
<polygon fill="none" stroke="#bfbfbf" points="156.5,-136.5 156.5,-155.5 197.5,-155.5 197.5,-136.5 156.5,-136.5"/>
<text text-anchor="middle" x="177" y="-143.5" font-family="Helvetica,sans-Serif" font-size="10.00">string</text>
</g>
<!-- Node20&#45;&gt;Node32 -->
<g id="edge39" class="edge"><title>Node20&#45;&gt;Node32</title>
<path fill="none" stroke="midnightblue" d="M685.35,-205.248C584.229,-201.585 384.365,-190.525 207.766,-155.998"/>
<polygon fill="midnightblue" stroke="midnightblue" points="208.266,-152.529 197.775,-154.014 206.902,-159.395 208.266,-152.529"/>
</g>
<!-- Node33 -->
<g id="node33" class="node"><title>Node33</title>
<polygon fill="none" stroke="#bfbfbf" points="215.5,-136.5 215.5,-155.5 308.5,-155.5 308.5,-136.5 215.5,-136.5"/>
<text text-anchor="middle" x="262" y="-143.5" font-family="Helvetica,sans-Serif" font-size="10.00">FairMQChannel.h</text>
</g>
<!-- Node20&#45;&gt;Node33 -->
<g id="edge40" class="edge"><title>Node20&#45;&gt;Node33</title>
<path fill="none" stroke="midnightblue" d="M685.443,-200.23C602.436,-191.449 454.777,-175.135 318.959,-156.228"/>
<polygon fill="midnightblue" stroke="midnightblue" points="319.175,-152.724 308.786,-154.804 318.204,-159.656 319.175,-152.724"/>
</g>
<!-- Node34 -->
<g id="node34" class="node"><title>Node34</title>
<polygon fill="none" stroke="#bfbfbf" points="326.5,-136.5 326.5,-155.5 423.5,-155.5 423.5,-136.5 326.5,-136.5"/>
<text text-anchor="middle" x="375" y="-143.5" font-family="Helvetica,sans-Serif" font-size="10.00">FairMQMessage.h</text>
</g>
<!-- Node20&#45;&gt;Node34 -->
<g id="edge41" class="edge"><title>Node20&#45;&gt;Node34</title>
<path fill="none" stroke="midnightblue" d="M697.528,-198.467C627.767,-187.335 506.108,-167.921 433.811,-156.385"/>
<polygon fill="midnightblue" stroke="midnightblue" points="433.941,-152.861 423.514,-154.742 432.837,-159.774 433.941,-152.861"/>
</g>
<!-- Node35 -->
<g id="node35" class="node"><title>Node35</title>
<polygon fill="none" stroke="#bfbfbf" points="442,-136.5 442,-155.5 522,-155.5 522,-136.5 442,-136.5"/>
<text text-anchor="middle" x="482" y="-143.5" font-family="Helvetica,sans-Serif" font-size="10.00">FairMQParts.h</text>
</g>
<!-- Node20&#45;&gt;Node35 -->
<g id="edge42" class="edge"><title>Node20&#45;&gt;Node35</title>
<path fill="none" stroke="midnightblue" d="M712.745,-198.467C664.742,-187.76 582.392,-169.392 530.151,-157.74"/>
<polygon fill="midnightblue" stroke="midnightblue" points="530.646,-154.264 520.124,-155.503 529.122,-161.097 530.646,-154.264"/>
</g>
<!-- Node36 -->
<g id="node36" class="node"><title>Node36</title>
<polygon fill="none" stroke="#bfbfbf" points="540.5,-136.5 540.5,-155.5 611.5,-155.5 611.5,-136.5 540.5,-136.5"/>
<text text-anchor="middle" x="576" y="-143.5" font-family="Helvetica,sans-Serif" font-size="10.00">TMessage.h</text>
</g>
<!-- Node20&#45;&gt;Node36 -->
<g id="edge43" class="edge"><title>Node20&#45;&gt;Node36</title>
<path fill="none" stroke="midnightblue" d="M725.927,-198.403C695.648,-188.022 644.56,-170.506 610.559,-158.849"/>
<polygon fill="midnightblue" stroke="midnightblue" points="611.621,-155.513 601.027,-155.581 609.351,-162.135 611.621,-155.513"/>
</g>
<!-- Node27&#45;&gt;Node4 -->
<g id="edge31" class="edge"><title>Node27&#45;&gt;Node4</title>
<path fill="none" stroke="midnightblue" d="M830.626,-136.499C953.253,-123.407 1183.67,-98.8075 1274.65,-89.0945"/>
<polygon fill="midnightblue" stroke="midnightblue" points="1275.21,-92.5543 1284.78,-88.0124 1274.47,-85.5938 1275.21,-92.5543"/>
</g>
<!-- Node27&#45;&gt;Node21 -->
<g id="edge32" class="edge"><title>Node27&#45;&gt;Node21</title>
<path fill="none" stroke="midnightblue" d="M694.683,-136.467C608.693,-123.438 447.833,-99.0656 383.073,-89.2535"/>
<polygon fill="midnightblue" stroke="midnightblue" points="383.244,-85.7395 372.832,-87.7018 382.195,-92.6605 383.244,-85.7395"/>
</g>
<!-- Node27&#45;&gt;Node23 -->
<g id="edge34" class="edge"><title>Node27&#45;&gt;Node23</title>
<path fill="none" stroke="midnightblue" d="M736.099,-136.403C719.032,-126.557 690.839,-110.291 670.738,-98.6949"/>
<polygon fill="midnightblue" stroke="midnightblue" points="672.284,-95.5462 661.873,-93.5806 668.786,-101.61 672.284,-95.5462"/>
</g>
<!-- Node28 -->
<g id="node28" class="node"><title>Node28</title>
<polygon fill="none" stroke="#bfbfbf" points="709.5,-74.5 709.5,-93.5 792.5,-93.5 792.5,-74.5 709.5,-74.5"/>
<text text-anchor="middle" x="751" y="-81.5" font-family="Helvetica,sans-Serif" font-size="10.00">unordered_map</text>
</g>
<!-- Node27&#45;&gt;Node28 -->
<g id="edge33" class="edge"><title>Node27&#45;&gt;Node28</title>
<path fill="none" stroke="midnightblue" d="M751,-136.403C751,-127.938 751,-114.728 751,-103.82"/>
<polygon fill="midnightblue" stroke="midnightblue" points="754.5,-103.581 751,-93.5806 747.5,-103.581 754.5,-103.581"/>
</g>
<!-- Node37&#45;&gt;Node4 -->
<g id="edge45" class="edge"><title>Node37&#45;&gt;Node4</title>
<path fill="none" stroke="midnightblue" d="M1438.76,-198.334C1448.98,-184.103 1465.79,-155.424 1452,-136 1423.93,-96.4557 1394.29,-117.333 1349,-100 1346.89,-99.1938 1344.73,-98.3434 1342.55,-97.474"/>
<polygon fill="midnightblue" stroke="midnightblue" points="1343.68,-94.1559 1333.1,-93.6186 1341.04,-100.637 1343.68,-94.1559"/>
</g>
<!-- Node38 -->
<g id="node38" class="node"><title>Node38</title>
<polygon fill="none" stroke="#bfbfbf" points="1378.5,-136.5 1378.5,-155.5 1443.5,-155.5 1443.5,-136.5 1378.5,-136.5"/>
<text text-anchor="middle" x="1411" y="-143.5" font-family="Helvetica,sans-Serif" font-size="10.00">TVector3.h</text>
</g>
<!-- Node37&#45;&gt;Node38 -->
<g id="edge46" class="edge"><title>Node37&#45;&gt;Node38</title>
<path fill="none" stroke="midnightblue" d="M1428.99,-198.403C1425.97,-189.76 1421.21,-176.17 1417.35,-165.134"/>
<polygon fill="midnightblue" stroke="midnightblue" points="1420.61,-163.863 1414,-155.581 1414,-166.175 1420.61,-163.863"/>
</g>
<!-- Node39&#45;&gt;Node5 -->
<g id="edge48" class="edge"><title>Node39&#45;&gt;Node5</title>
<path fill="none" stroke="midnightblue" d="M1581.89,-316.281C1599.46,-296.872 1642.01,-249.861 1664.51,-225.011"/>
<polygon fill="midnightblue" stroke="midnightblue" points="1667.19,-227.267 1671.3,-217.505 1662,-222.57 1667.19,-227.267"/>
</g>
<!-- Node39&#45;&gt;Node8 -->
<g id="edge49" class="edge"><title>Node39&#45;&gt;Node8</title>
<path fill="none" stroke="midnightblue" d="M1552.93,-316.444C1530.94,-307.517 1496.27,-293.439 1471.34,-283.317"/>
<polygon fill="midnightblue" stroke="midnightblue" points="1472.56,-280.035 1461.98,-279.516 1469.92,-286.521 1472.56,-280.035"/>
</g>
<!-- Node41 -->
<g id="node41" class="node"><title>Node41</title>
<polygon fill="none" stroke="#bfbfbf" points="1693,-316.5 1693,-335.5 1731,-335.5 1731,-316.5 1693,-316.5"/>
<text text-anchor="middle" x="1712" y="-323.5" font-family="Helvetica,sans-Serif" font-size="10.00">array</text>
</g>
<!-- Node40&#45;&gt;Node41 -->
<g id="edge51" class="edge"><title>Node40&#45;&gt;Node41</title>
<path fill="none" stroke="midnightblue" d="M1712,-372.083C1712,-365.006 1712,-354.861 1712,-345.986"/>
<polygon fill="midnightblue" stroke="midnightblue" points="1715.5,-345.751 1712,-335.751 1708.5,-345.751 1715.5,-345.751"/>
</g>
<!-- Node42 -->
<g id="node42" class="node"><title>Node42</title>
<polygon fill="none" stroke="#bfbfbf" points="1749,-316.5 1749,-335.5 1793,-335.5 1793,-316.5 1749,-316.5"/>
<text text-anchor="middle" x="1771" y="-323.5" font-family="Helvetica,sans-Serif" font-size="10.00">cmath</text>
</g>
<!-- Node40&#45;&gt;Node42 -->
<g id="edge52" class="edge"><title>Node40&#45;&gt;Node42</title>
<path fill="none" stroke="midnightblue" d="M1721.48,-372.324C1730.2,-364.341 1743.34,-352.313 1753.9,-342.653"/>
<polygon fill="midnightblue" stroke="midnightblue" points="1756.33,-345.167 1761.35,-335.834 1751.61,-340.004 1756.33,-345.167"/>
</g>
<!-- Node43 -->
<g id="node43" class="node"><title>Node43</title>
<g id="a_node43"><a xlink:href="../../d6/d84/MathConstants_8h.html" target="_top" xlink:title="useful math constants ">
<polygon fill="none" stroke="black" points="1811.5,-316.5 1811.5,-335.5 1990.5,-335.5 1990.5,-316.5 1811.5,-316.5"/>
<text text-anchor="middle" x="1901" y="-323.5" font-family="Helvetica,sans-Serif" font-size="10.00">CommonConstants/MathConstants.h</text>
</a>
</g>
</g>
<!-- Node40&#45;&gt;Node43 -->
<g id="edge53" class="edge"><title>Node40&#45;&gt;Node43</title>
<path fill="none" stroke="midnightblue" d="M1741.95,-372.444C1774.16,-363.241 1825.53,-348.562 1861.14,-338.388"/>
<polygon fill="midnightblue" stroke="midnightblue" points="1862.54,-341.629 1871.19,-335.516 1860.62,-334.898 1862.54,-341.629"/>
</g>
</g>
</svg>
        <g id="navigator" transform="translate(0 0)" fill="#404254">
                <rect fill="#f2f5e9" fill-opacity="0.5" stroke="#606060" stroke-width=".5" x="0" y="0" width="60" height="60"/>
                <use id="zoomplus" xlink:href="#zoomPlus" x="17" y="9" onmousedown="handleZoom(evt,'in')"/>
                <use id="zoomminus" xlink:href="#zoomMin" x="42" y="9" onmousedown="handleZoom(evt,'out')"/>
                <use id="reset" xlink:href="#resetDef" x="30" y="36" onmousedown="handleReset()"/>
                <g id="arrowUp" xlink:href="#dirArrow" transform="translate(30 24)" onmousedown="handlePan(0,-1)">
                  <use xlink:href="#rim" fill="#404040">
                        <set attributeName="fill" to="#808080" begin="arrowUp.mouseover" end="arrowUp.mouseout"/>
                  </use>
                  <path fill="none" stroke="white" stroke-width="1.5" d="M0,-3.0v7 M-2.5,-0.5L0,-3.0L2.5,-0.5"/>
                </g>
                <g id="arrowRight" xlink:href="#dirArrow" transform="rotate(90) translate(36 -43)" onmousedown="handlePan(1,0)">
                  <use xlink:href="#rim" fill="#404040">
                        <set attributeName="fill" to="#808080" begin="arrowRight.mouseover" end="arrowRight.mouseout"/>
                  </use>
                  <path fill="none" stroke="white" stroke-width="1.5" d="M0,-3.0v7 M-2.5,-0.5L0,-3.0L2.5,-0.5"/>
                </g>
                <g id="arrowDown" xlink:href="#dirArrow" transform="rotate(180) translate(-30 -48)" onmousedown="handlePan(0,1)">
                  <use xlink:href="#rim" fill="#404040">
                        <set attributeName="fill" to="#808080" begin="arrowDown.mouseover" end="arrowDown.mouseout"/>
                  </use>
                  <path fill="none" stroke="white" stroke-width="1.5" d="M0,-3.0v7 M-2.5,-0.5L0,-3.0L2.5,-0.5"/>
                </g>
                <g id="arrowLeft" xlink:href="#dirArrow" transform="rotate(270) translate(-36 17)" onmousedown="handlePan(-1,0)">
                  <use xlink:href="#rim" fill="#404040">
                        <set attributeName="fill" to="#808080" begin="arrowLeft.mouseover" end="arrowLeft.mouseout"/>
                  </use>
                  <path fill="none" stroke="white" stroke-width="1.5" d="M0,-3.0v7 M-2.5,-0.5L0,-3.0L2.5,-0.5"/>
                </g>
        </g>
        <svg viewBox="0 0 15 15" width="100%" height="30px" preserveAspectRatio="xMaxYMin meet">
         <g id="arrow_out" transform="scale(0.3 0.3)">
          <a xlink:href="FIT_2simulation_2src_2DigitizerTask_8cxx__incl_org.svg" target="_base">
           <rect id="button" ry="5" rx="5" y="6" x="6" height="38" width="38"
                fill="#f2f5e9" fill-opacity="0.5" stroke="#606060" stroke-width="1.0"/>
           <path id="arrow"
             d="M 11.500037,31.436501 C 11.940474,20.09759 22.043105,11.32322 32.158766,21.979434 L 37.068811,17.246167 C 37.068811,17.246167 37.088388,32 37.088388,32 L 22.160133,31.978069 C 22.160133,31.978069 26.997745,27.140456 26.997745,27.140456 C 18.528582,18.264221 13.291696,25.230495 11.500037,31.436501 z"
             style="fill:#404040;"/>
          </a>
         </g>
        </svg>
</svg>
