<?xml version="1.0" encoding="UTF-8" standalone="no"?>
<!DOCTYPE svg PUBLIC "-//W3C//DTD SVG 1.1//EN"
 "http://www.w3.org/Graphics/SVG/1.1/DTD/svg11.dtd">
<!-- Generated by graphviz version 2.36.0 (20140111.2315)
 -->
<!-- Title: o2::header::Descriptor&lt; N, PrinterPolicy &gt; Pages: 1 -->
<svg width="224pt" height="340pt"
 viewBox="0.00 0.00 224.00 340.00" xmlns="http://www.w3.org/2000/svg" xmlns:xlink="http://www.w3.org/1999/xlink">
<g id="graph0" class="graph" transform="scale(1 1) rotate(0) translate(4 336)">
<title>o2::header::Descriptor&lt; N, PrinterPolicy &gt;</title>
<!-- Node1 -->
<g id="node1" class="node"><title>Node1</title>
<polygon fill="#bfbfbf" stroke="black" points="40.5,-1 40.5,-201 153.5,-201 153.5,-1 40.5,-1"/>
<text text-anchor="start" x="48.5" y="-189" font-family="Helvetica,sans-Serif" font-size="10.00">o2::header::Descriptor</text>
<text text-anchor="middle" x="97" y="-178" font-family="Helvetica,sans-Serif" font-size="10.00">&lt; N, PrinterPolicy &gt;</text>
<polyline fill="none" stroke="black" points="40.5,-171 153.5,-171 "/>
<text text-anchor="middle" x="97" y="-159" font-family="Helvetica,sans-Serif" font-size="10.00"> </text>
<polyline fill="none" stroke="black" points="40.5,-152 153.5,-152 "/>
<text text-anchor="start" x="48.5" y="-140" font-family="Helvetica,sans-Serif" font-size="10.00">+ Descriptor()</text>
<text text-anchor="start" x="48.5" y="-129" font-family="Helvetica,sans-Serif" font-size="10.00">+ Descriptor()</text>
<text text-anchor="start" x="48.5" y="-118" font-family="Helvetica,sans-Serif" font-size="10.00">+ Descriptor()</text>
<text text-anchor="start" x="48.5" y="-107" font-family="Helvetica,sans-Serif" font-size="10.00">+ operator=()</text>
<text text-anchor="start" x="48.5" y="-96" font-family="Helvetica,sans-Serif" font-size="10.00">+ operator ItgType()</text>
<text text-anchor="start" x="48.5" y="-85" font-family="Helvetica,sans-Serif" font-size="10.00">+ Descriptor()</text>
<text text-anchor="start" x="48.5" y="-74" font-family="Helvetica,sans-Serif" font-size="10.00">+ runtimeInit()</text>
<text text-anchor="start" x="48.5" y="-63" font-family="Helvetica,sans-Serif" font-size="10.00">+ operator==()</text>
<text text-anchor="start" x="48.5" y="-52" font-family="Helvetica,sans-Serif" font-size="10.00">+ operator!=()</text>
<text text-anchor="start" x="48.5" y="-41" font-family="Helvetica,sans-Serif" font-size="10.00">+ operator==()</text>
<text text-anchor="start" x="48.5" y="-30" font-family="Helvetica,sans-Serif" font-size="10.00">+ operator!=()</text>
<text text-anchor="start" x="48.5" y="-19" font-family="Helvetica,sans-Serif" font-size="10.00">+ as()</text>
<text text-anchor="start" x="48.5" y="-8" font-family="Helvetica,sans-Serif" font-size="10.00">+ print()</text>
</g>
<!-- Node2 -->
<g id="node2" class="node"><title>Node2</title>
<polygon fill="none" stroke="#bfbfbf" points="0,-273.5 0,-330.5 38,-330.5 38,-273.5 0,-273.5"/>
<text text-anchor="middle" x="19" y="-318.5" font-family="Helvetica,sans-Serif" font-size="10.00">Type</text>
<polyline fill="none" stroke="#bfbfbf" points="0,-311.5 38,-311.5 "/>
<text text-anchor="middle" x="19" y="-299.5" font-family="Helvetica,sans-Serif" font-size="10.00"> </text>
<polyline fill="none" stroke="#bfbfbf" points="0,-292.5 38,-292.5 "/>
<text text-anchor="middle" x="19" y="-280.5" font-family="Helvetica,sans-Serif" font-size="10.00"> </text>
</g>
<!-- Node2&#45;&gt;Node1 -->
<g id="edge1" class="edge"><title>Node2&#45;&gt;Node1</title>
<path fill="none" stroke="#404040" d="M29.8456,-273.33C36.2197,-257.068 44.7424,-235.324 53.5717,-212.798"/>
<polygon fill="none" stroke="#404040" points="53.6851,-212.508 52.1505,-205.463 58.0643,-201.336 59.5988,-208.382 53.6851,-212.508"/>
<text text-anchor="middle" x="59" y="-234.5" font-family="Helvetica,sans-Serif" font-size="10.00"> +itg</text>
</g>
<!-- Node3 -->
<g id="node3" class="node"><title>Node3</title>
<polygon fill="none" stroke="#bfbfbf" points="56.5,-273.5 56.5,-330.5 91.5,-330.5 91.5,-273.5 56.5,-273.5"/>
<text text-anchor="middle" x="74" y="-318.5" font-family="Helvetica,sans-Serif" font-size="10.00">char</text>
<polyline fill="none" stroke="#bfbfbf" points="56.5,-311.5 91.5,-311.5 "/>
<text text-anchor="middle" x="74" y="-299.5" font-family="Helvetica,sans-Serif" font-size="10.00"> </text>
<polyline fill="none" stroke="#bfbfbf" points="56.5,-292.5 91.5,-292.5 "/>
<text text-anchor="middle" x="74" y="-280.5" font-family="Helvetica,sans-Serif" font-size="10.00"> </text>
</g>
<!-- Node3&#45;&gt;Node1 -->
<g id="edge2" class="edge"><title>Node3&#45;&gt;Node1</title>
<path fill="none" stroke="#404040" d="M74.6154,-273.2C75.1517,-257.541 76.1496,-237.644 78,-220 78.2435,-217.678 78.5023,-215.333 78.7745,-212.97"/>
<polygon fill="none" stroke="#404040" points="78.7765,-212.954 75.5379,-206.511 80.2397,-201.043 83.4782,-207.486 78.7765,-212.954"/>
<text text-anchor="middle" x="88.5" y="-234.5" font-family="Helvetica,sans-Serif" font-size="10.00"> +str</text>
</g>
<!-- Node4 -->
<g id="node4" class="node"><title>Node4</title>
<polygon fill="none" stroke="#bfbfbf" points="109.5,-273.5 109.5,-330.5 138.5,-330.5 138.5,-273.5 109.5,-273.5"/>
<text text-anchor="middle" x="124" y="-318.5" font-family="Helvetica,sans-Serif" font-size="10.00">int</text>
<polyline fill="none" stroke="#bfbfbf" points="109.5,-311.5 138.5,-311.5 "/>
<text text-anchor="middle" x="124" y="-299.5" font-family="Helvetica,sans-Serif" font-size="10.00"> </text>
<polyline fill="none" stroke="#bfbfbf" points="109.5,-292.5 138.5,-292.5 "/>
<text text-anchor="middle" x="124" y="-280.5" font-family="Helvetica,sans-Serif" font-size="10.00"> </text>
</g>
<!-- Node4&#45;&gt;Node1 -->
<g id="edge3" class="edge"><title>Node4&#45;&gt;Node1</title>
<path fill="none" stroke="#404040" d="M120.246,-273.33C118.059,-257.216 115.143,-235.721 112.117,-213.415"/>
<polygon fill="none" stroke="#404040" points="112.091,-213.227 107.321,-207.819 110.478,-201.336 115.248,-206.744 112.091,-213.227"/>
<text text-anchor="middle" x="143.5" y="-245.5" font-family="Helvetica,sans-Serif" font-size="10.00"> +arraySize</text>
<text text-anchor="middle" x="143.5" y="-234.5" font-family="Helvetica,sans-Serif" font-size="10.00">+size</text>
<text text-anchor="middle" x="143.5" y="-223.5" font-family="Helvetica,sans-Serif" font-size="10.00">+bitcount</text>
</g>
<!-- Node5 -->
<g id="node5" class="node"><title>Node5</title>
<polygon fill="none" stroke="#bfbfbf" points="180.5,-273 180.5,-331 209.5,-331 209.5,-273 180.5,-273"/>
<polyline fill="none" stroke="#bfbfbf" points="180.5,-311 209.5,-311 "/>
<text text-anchor="middle" x="195" y="-299" font-family="Helvetica,sans-Serif" font-size="10.00"> </text>
<polyline fill="none" stroke="#bfbfbf" points="180.5,-292 209.5,-292 "/>
<text text-anchor="middle" x="195" y="-280" font-family="Helvetica,sans-Serif" font-size="10.00"> </text>
</g>
<!-- Node5&#45;&gt;Node1 -->
<g id="edge4" class="edge"><title>Node5&#45;&gt;Node1</title>
<path fill="none" stroke="#404040" d="M189.603,-272.905C185.997,-256.975 180.524,-236.908 173,-220 169.056,-211.137 164.5,-202.176 159.619,-193.363"/>
<polygon fill="none" stroke="#404040" points="159.48,-193.12 153.029,-189.897 153.522,-182.703 159.973,-185.926 159.48,-193.12"/>
<text text-anchor="middle" x="200.5" y="-234.5" font-family="Helvetica,sans-Serif" font-size="10.00"> +@14</text>
</g>
</g>
</svg>
