<?xml version="1.0" encoding="UTF-8" standalone="no"?>
<!DOCTYPE svg PUBLIC "-//W3C//DTD SVG 1.1//EN"
 "http://www.w3.org/Graphics/SVG/1.1/DTD/svg11.dtd">
<!-- Generated by graphviz version 2.36.0 (20140111.2315)
 -->
<!-- Title: /home/travis/build/AliceO2Group/AliceO2/Framework/Core/include/Framework/DataSamplingReadoutAdapter.h Pages: 1 -->
<svg width="391pt" height="152pt"
 viewBox="0.00 0.00 391.00 152.00" xmlns="http://www.w3.org/2000/svg" xmlns:xlink="http://www.w3.org/1999/xlink">
<g id="graph0" class="graph" transform="scale(1 1) rotate(0) translate(4 148)">
<title>/home/travis/build/AliceO2Group/AliceO2/Framework/Core/include/Framework/DataSamplingReadoutAdapter.h</title>
<!-- Node1 -->
<g id="node1" class="node"><title>Node1</title>
<polygon fill="#bfbfbf" stroke="black" points="90,-91 90,-143 302,-143 302,-91 90,-91"/>
<text text-anchor="start" x="98" y="-131" font-family="Helvetica,sans-Serif" font-size="10.00">/home/travis/build</text>
<text text-anchor="start" x="98" y="-120" font-family="Helvetica,sans-Serif" font-size="10.00">/AliceO2Group/AliceO2</text>
<text text-anchor="start" x="98" y="-109" font-family="Helvetica,sans-Serif" font-size="10.00">/Framework/Core/include</text>
<text text-anchor="middle" x="196" y="-98" font-family="Helvetica,sans-Serif" font-size="10.00">/Framework/DataSamplingReadoutAdapter.h</text>
</g>
<!-- Node2 -->
<g id="node2" class="node"><title>Node2</title>
<g id="a_node2"><a xlink:href="../../d0/dd6/DataSampling_8cxx.html" target="_top" xlink:title="Implementation of O2 Data Sampling, v0.1. ">
<polygon fill="none" stroke="black" points="0,-6.5 0,-47.5 192,-47.5 192,-6.5 0,-6.5"/>
<text text-anchor="start" x="8" y="-35.5" font-family="Helvetica,sans-Serif" font-size="10.00">/home/travis/build</text>
<text text-anchor="start" x="8" y="-24.5" font-family="Helvetica,sans-Serif" font-size="10.00">/AliceO2Group/AliceO2</text>
<text text-anchor="middle" x="96" y="-13.5" font-family="Helvetica,sans-Serif" font-size="10.00">/Framework/Core/src/DataSampling.cxx</text>
</a>
</g>
</g>
<!-- Node1&#45;&gt;Node2 -->
<g id="edge1" class="edge"><title>Node1&#45;&gt;Node2</title>
<path fill="none" stroke="midnightblue" d="M159.82,-84.1619C145.938,-71.9452 130.512,-58.371 118.305,-47.6283"/>
<polygon fill="midnightblue" stroke="midnightblue" points="157.525,-86.8039 167.344,-90.7827 162.149,-81.5489 157.525,-86.8039"/>
</g>
<!-- Node3 -->
<g id="node3" class="node"><title>Node3</title>
<g id="a_node3"><a xlink:href="../../dc/da2/DataSamplingReadoutAdapter_8cxx.html" target="_top" xlink:title="/home/travis/build\l/AliceO2Group/AliceO2\l/Framework/Core/src/DataSampling\lReadoutAdapter.cxx">
<polygon fill="none" stroke="black" points="210.5,-1 210.5,-53 383.5,-53 383.5,-1 210.5,-1"/>
<text text-anchor="start" x="218.5" y="-41" font-family="Helvetica,sans-Serif" font-size="10.00">/home/travis/build</text>
<text text-anchor="start" x="218.5" y="-30" font-family="Helvetica,sans-Serif" font-size="10.00">/AliceO2Group/AliceO2</text>
<text text-anchor="start" x="218.5" y="-19" font-family="Helvetica,sans-Serif" font-size="10.00">/Framework/Core/src/DataSampling</text>
<text text-anchor="middle" x="297" y="-8" font-family="Helvetica,sans-Serif" font-size="10.00">ReadoutAdapter.cxx</text>
</a>
</g>
</g>
<!-- Node1&#45;&gt;Node3 -->
<g id="edge2" class="edge"><title>Node1&#45;&gt;Node3</title>
<path fill="none" stroke="midnightblue" d="M232.784,-83.9506C244.401,-73.8293 257.065,-62.795 268.053,-53.221"/>
<polygon fill="midnightblue" stroke="midnightblue" points="230.183,-81.5746 224.943,-90.7827 234.781,-86.8524 230.183,-81.5746"/>
</g>
</g>
</svg>
