<?xml version="1.0" encoding="UTF-8" standalone="no"?>
<!DOCTYPE svg PUBLIC "-//W3C//DTD SVG 1.1//EN"
 "http://www.w3.org/Graphics/SVG/1.1/DTD/svg11.dtd">
<!-- Generated by graphviz version 2.36.0 (20140111.2315)
 -->
<!-- Title: /home/travis/build/AliceO2Group/AliceO2/Utilities/DataFlow/src/FakeTimeframeGeneratorDevice.cxx Pages: 1 -->
<!--zoomable 422 -->
<svg id="main" version="1.1" xmlns="http://www.w3.org/2000/svg" xmlns:xlink="http://www.w3.org/1999/xlink" xml:space="preserve" onload="init(evt)">
<style type="text/css"><![CDATA[
.edge:hover path { stroke: red; }
.edge:hover polygon { stroke: red; fill: red; }
]]></style>
<script type="text/javascript"><![CDATA[
var edges = document.getElementsByTagName('g');
if (edges && edges.length) {
  for (var i=0;i<edges.length;i++) {
    if (edges[i].id.substr(0,4)=='edge') {
      edges[i].setAttribute('class','edge');
    }
  }
}
]]></script>
        <defs>
                <circle id="rim" cx="0" cy="0" r="7"/>
                <circle id="rim2" cx="0" cy="0" r="3.5"/>
                <g id="zoomPlus">
                        <use xlink:href="#rim" fill="#404040">
                                <set attributeName="fill" to="#808080" begin="zoomplus.mouseover" end="zoomplus.mouseout"/>
                        </use>
                        <path d="M-4,0h8M0,-4v8" fill="none" stroke="white" stroke-width="1.5" pointer-events="none"/>
                </g>
                <g id="zoomMin">
                        <use xlink:href="#rim" fill="#404040">
                                <set attributeName="fill" to="#808080" begin="zoomminus.mouseover" end="zoomminus.mouseout"/>
                        </use>
                        <path d="M-4,0h8" fill="none" stroke="white" stroke-width="1.5" pointer-events="none"/>
                </g>
                <g id="dirArrow">
                        <path fill="none" stroke="white" stroke-width="1.5" d="M0,-3.0v7 M-2.5,-0.5L0,-3.0L2.5,-0.5"/>
                </g>
               <g id="resetDef">
                       <use xlink:href="#rim2" fill="#404040">
                               <set attributeName="fill" to="#808080" begin="reset.mouseover" end="reset.mouseout"/>
                       </use>
               </g>
        </defs>

<script type="text/javascript">
var viewWidth = 1633;
var viewHeight = 422;
var sectionId = 'dynsection-0';
</script>
<script xlink:href="../../svgpan.js"/>
<svg id="graph" class="graph">
<g id="viewport">
<title>/home/travis/build/AliceO2Group/AliceO2/Utilities/DataFlow/src/FakeTimeframeGeneratorDevice.cxx</title>
<!-- Node1 -->
<g id="node1" class="node"><title>Node1</title>
<polygon fill="#bfbfbf" stroke="black" points="1089,-361 1089,-413 1269,-413 1269,-361 1089,-361"/>
<text text-anchor="start" x="1097" y="-401" font-family="Helvetica,sans-Serif" font-size="10.00">/home/travis/build</text>
<text text-anchor="start" x="1097" y="-390" font-family="Helvetica,sans-Serif" font-size="10.00">/AliceO2Group/AliceO2</text>
<text text-anchor="start" x="1097" y="-379" font-family="Helvetica,sans-Serif" font-size="10.00">/Utilities/DataFlow/src</text>
<text text-anchor="middle" x="1179" y="-368" font-family="Helvetica,sans-Serif" font-size="10.00">/FakeTimeframeGeneratorDevice.cxx</text>
</g>
<!-- Node2 -->
<g id="node2" class="node"><title>Node2</title>
<polygon fill="none" stroke="#bfbfbf" points="1142,-6.5 1142,-25.5 1188,-25.5 1188,-6.5 1142,-6.5"/>
<text text-anchor="middle" x="1165" y="-13.5" font-family="Helvetica,sans-Serif" font-size="10.00">cstring</text>
</g>
<!-- Node1&#45;&gt;Node2 -->
<g id="edge1" class="edge"><title>Node1&#45;&gt;Node2</title>
<path fill="none" stroke="midnightblue" d="M1173.18,-360.857C1164.98,-321.957 1152.01,-244.898 1161,-180 1166.83,-137.912 1181.17,-130.088 1187,-88 1188.22,-79.1953 1188.8,-76.7052 1187,-68 1184.6,-56.3652 1179.41,-44.1169 1174.68,-34.5404"/>
<polygon fill="midnightblue" stroke="midnightblue" points="1177.78,-32.9103 1170.05,-25.6655 1171.57,-36.15 1177.78,-32.9103"/>
</g>
<!-- Node3 -->
<g id="node3" class="node"><title>Node3</title>
<g id="a_node3"><a xlink:href="../../d4/d98/FakeTimeframeGeneratorDevice_8h.html" target="_top" xlink:title="DataFlow/FakeTimeframeGenerator\lDevice.h">
<polygon fill="none" stroke="black" points="855.5,-293 855.5,-323 1028.5,-323 1028.5,-293 855.5,-293"/>
<text text-anchor="start" x="863.5" y="-311" font-family="Helvetica,sans-Serif" font-size="10.00">DataFlow/FakeTimeframeGenerator</text>
<text text-anchor="middle" x="942" y="-300" font-family="Helvetica,sans-Serif" font-size="10.00">Device.h</text>
</a>
</g>
</g>
<!-- Node1&#45;&gt;Node3 -->
<g id="edge2" class="edge"><title>Node1&#45;&gt;Node3</title>
<path fill="none" stroke="midnightblue" d="M1101.73,-360.894C1066.87,-349.568 1026.57,-336.475 995.17,-326.275"/>
<polygon fill="midnightblue" stroke="midnightblue" points="995.899,-322.831 985.307,-323.07 993.736,-329.489 995.899,-322.831"/>
</g>
<!-- Node6 -->
<g id="node6" class="node"><title>Node6</title>
<polygon fill="none" stroke="#bfbfbf" points="494,-180.5 494,-199.5 640,-199.5 640,-180.5 494,-180.5"/>
<text text-anchor="middle" x="567" y="-187.5" font-family="Helvetica,sans-Serif" font-size="10.00">options/FairMQProgOptions.h</text>
</g>
<!-- Node1&#45;&gt;Node6 -->
<g id="edge44" class="edge"><title>Node1&#45;&gt;Node6</title>
<path fill="none" stroke="midnightblue" d="M1088.73,-375.676C1020.83,-366.364 926.109,-350.055 846,-324 746.702,-291.703 637.157,-231.659 590.317,-204.711"/>
<polygon fill="midnightblue" stroke="midnightblue" points="591.96,-201.618 581.553,-199.633 588.451,-207.675 591.96,-201.618"/>
</g>
<!-- Node16 -->
<g id="node16" class="node"><title>Node16</title>
<polygon fill="none" stroke="#bfbfbf" points="1286,-6.5 1286,-25.5 1330,-25.5 1330,-6.5 1286,-6.5"/>
<text text-anchor="middle" x="1308" y="-13.5" font-family="Helvetica,sans-Serif" font-size="10.00">vector</text>
</g>
<!-- Node1&#45;&gt;Node16 -->
<g id="edge45" class="edge"><title>Node1&#45;&gt;Node16</title>
<path fill="none" stroke="midnightblue" d="M1259.93,-360.9C1310.47,-339.635 1366,-303.43 1366,-247 1366,-247 1366,-247 1366,-133 1366,-94.0148 1339.47,-54.7011 1322.29,-33.3368"/>
<polygon fill="midnightblue" stroke="midnightblue" points="1324.91,-31.0145 1315.82,-25.5762 1319.54,-35.4977 1324.91,-31.0145"/>
</g>
<!-- Node20 -->
<g id="node20" class="node"><title>Node20</title>
<g id="a_node20"><a xlink:href="../../dc/dcd/DataHeader_8h.html" target="_top" xlink:title="Headers/DataHeader.h">
<polygon fill="none" stroke="black" points="919.5,-124.5 919.5,-143.5 1036.5,-143.5 1036.5,-124.5 919.5,-124.5"/>
<text text-anchor="middle" x="978" y="-131.5" font-family="Helvetica,sans-Serif" font-size="10.00">Headers/DataHeader.h</text>
</a>
</g>
</g>
<!-- Node1&#45;&gt;Node20 -->
<g id="edge43" class="edge"><title>Node1&#45;&gt;Node20</title>
<path fill="none" stroke="midnightblue" d="M1154.45,-360.795C1145.12,-350.128 1135.05,-337.141 1128,-324 1096.36,-265.031 1128.77,-229.737 1084,-180 1069.58,-163.984 1048.51,-153.477 1028.95,-146.68"/>
<polygon fill="midnightblue" stroke="midnightblue" points="1029.8,-143.275 1019.2,-143.544 1027.65,-149.939 1029.8,-143.275"/>
</g>
<!-- Node28 -->
<g id="node28" class="node"><title>Node28</title>
<g id="a_node28"><a xlink:href="../../dd/d1a/FakeTimeframeBuilder_8h.html" target="_top" xlink:title="DataFlow/FakeTimeframeBuilder.h">
<polygon fill="none" stroke="black" points="1170,-180.5 1170,-199.5 1338,-199.5 1338,-180.5 1170,-180.5"/>
<text text-anchor="middle" x="1254" y="-187.5" font-family="Helvetica,sans-Serif" font-size="10.00">DataFlow/FakeTimeframeBuilder.h</text>
</a>
</g>
</g>
<!-- Node1&#45;&gt;Node28 -->
<g id="edge33" class="edge"><title>Node1&#45;&gt;Node28</title>
<path fill="none" stroke="midnightblue" d="M1188.65,-360.906C1204,-321.008 1233.6,-244.05 1247.05,-209.081"/>
<polygon fill="midnightblue" stroke="midnightblue" points="1250.34,-210.254 1250.67,-199.664 1243.81,-207.741 1250.34,-210.254"/>
</g>
<!-- Node30 -->
<g id="node30" class="node"><title>Node30</title>
<g id="a_node30"><a xlink:href="../../dd/ddb/TimeframeParser_8h.html" target="_top" xlink:title="DataFlow/TimeframeParser.h">
<polygon fill="none" stroke="black" points="1394.5,-180.5 1394.5,-199.5 1539.5,-199.5 1539.5,-180.5 1394.5,-180.5"/>
<text text-anchor="middle" x="1467" y="-187.5" font-family="Helvetica,sans-Serif" font-size="10.00">DataFlow/TimeframeParser.h</text>
</a>
</g>
</g>
<!-- Node1&#45;&gt;Node30 -->
<g id="edge38" class="edge"><title>Node1&#45;&gt;Node30</title>
<path fill="none" stroke="midnightblue" d="M1269.25,-372.08C1306.29,-363.007 1347.91,-348.162 1380,-324 1420.65,-293.391 1447.89,-237.852 1459.94,-209.193"/>
<polygon fill="midnightblue" stroke="midnightblue" points="1463.3,-210.216 1463.81,-199.633 1456.81,-207.589 1463.3,-210.216"/>
</g>
<!-- Node32 -->
<g id="node32" class="node"><title>Node32</title>
<g id="a_node32"><a xlink:href="../../d2/d1b/SubframeMetadata_8h.html" target="_top" xlink:title="Headers/SubframeMetadata.h">
<polygon fill="none" stroke="black" points="1478.5,-236.5 1478.5,-255.5 1625.5,-255.5 1625.5,-236.5 1478.5,-236.5"/>
<text text-anchor="middle" x="1552" y="-243.5" font-family="Helvetica,sans-Serif" font-size="10.00">Headers/SubframeMetadata.h</text>
</a>
</g>
</g>
<!-- Node1&#45;&gt;Node32 -->
<g id="edge41" class="edge"><title>Node1&#45;&gt;Node32</title>
<path fill="none" stroke="midnightblue" d="M1269.3,-374.878C1323.26,-365.919 1392.16,-350.332 1449,-324 1482.88,-308.304 1516.46,-280.251 1535.66,-262.687"/>
<polygon fill="midnightblue" stroke="midnightblue" points="1538.28,-265.034 1543.2,-255.653 1533.5,-259.917 1538.28,-265.034"/>
</g>
<!-- Node4 -->
<g id="node4" class="node"><title>Node4</title>
<g id="a_node4"><a xlink:href="../../d2/dee/O2Device_8h.html" target="_top" xlink:title="O2Device/O2Device.h">
<polygon fill="none" stroke="black" points="784.5,-236.5 784.5,-255.5 899.5,-255.5 899.5,-236.5 784.5,-236.5"/>
<text text-anchor="middle" x="842" y="-243.5" font-family="Helvetica,sans-Serif" font-size="10.00">O2Device/O2Device.h</text>
</a>
</g>
</g>
<!-- Node3&#45;&gt;Node4 -->
<g id="edge3" class="edge"><title>Node3&#45;&gt;Node4</title>
<path fill="none" stroke="midnightblue" d="M918.554,-292.933C902.436,-283.262 881.132,-270.479 865.091,-260.855"/>
<polygon fill="midnightblue" stroke="midnightblue" points="866.709,-257.744 856.333,-255.6 863.108,-263.746 866.709,-257.744"/>
</g>
<!-- Node5 -->
<g id="node5" class="node"><title>Node5</title>
<polygon fill="none" stroke="#bfbfbf" points="988,-180.5 988,-199.5 1076,-199.5 1076,-180.5 988,-180.5"/>
<text text-anchor="middle" x="1032" y="-187.5" font-family="Helvetica,sans-Serif" font-size="10.00">FairMQDevice.h</text>
</g>
<!-- Node4&#45;&gt;Node5 -->
<g id="edge4" class="edge"><title>Node4&#45;&gt;Node5</title>
<path fill="none" stroke="midnightblue" d="M872.106,-236.444C904.626,-227.201 956.579,-212.436 992.391,-202.257"/>
<polygon fill="midnightblue" stroke="midnightblue" points="993.373,-205.617 1002.03,-199.516 991.459,-198.884 993.373,-205.617"/>
</g>
<!-- Node4&#45;&gt;Node6 -->
<g id="edge5" class="edge"><title>Node4&#45;&gt;Node6</title>
<path fill="none" stroke="midnightblue" d="M798.425,-236.444C750.151,-226.964 672.288,-211.675 620.388,-201.483"/>
<polygon fill="midnightblue" stroke="midnightblue" points="620.858,-198.009 610.371,-199.516 619.509,-204.878 620.858,-198.009"/>
</g>
<!-- Node7 -->
<g id="node7" class="node"><title>Node7</title>
<g id="a_node7"><a xlink:href="../../d7/db2/Utilities_8h.html" target="_top" xlink:title="O2Device/Utilities.h">
<polygon fill="none" stroke="black" points="658,-180.5 658,-199.5 762,-199.5 762,-180.5 658,-180.5"/>
<text text-anchor="middle" x="710" y="-187.5" font-family="Helvetica,sans-Serif" font-size="10.00">O2Device/Utilities.h</text>
</a>
</g>
</g>
<!-- Node4&#45;&gt;Node7 -->
<g id="edge6" class="edge"><title>Node4&#45;&gt;Node7</title>
<path fill="none" stroke="midnightblue" d="M821.084,-236.444C799.264,-227.517 764.85,-213.439 740.108,-203.317"/>
<polygon fill="midnightblue" stroke="midnightblue" points="741.399,-200.063 730.818,-199.516 738.748,-206.542 741.399,-200.063"/>
</g>
<!-- Node25 -->
<g id="node25" class="node"><title>Node25</title>
<polygon fill="none" stroke="#bfbfbf" points="767.5,-68.5 767.5,-87.5 826.5,-87.5 826.5,-68.5 767.5,-68.5"/>
<text text-anchor="middle" x="797" y="-75.5" font-family="Helvetica,sans-Serif" font-size="10.00">stdexcept</text>
</g>
<!-- Node4&#45;&gt;Node25 -->
<g id="edge32" class="edge"><title>Node4&#45;&gt;Node25</title>
<path fill="none" stroke="midnightblue" d="M833.302,-236.226C825.478,-227.736 814.406,-214.113 809,-200 795.832,-165.623 795.036,-121.935 795.866,-97.5721"/>
<polygon fill="midnightblue" stroke="midnightblue" points="799.363,-97.7193 796.341,-87.5648 792.371,-97.3878 799.363,-97.7193"/>
</g>
<!-- Node27 -->
<g id="node27" class="node"><title>Node27</title>
<polygon fill="none" stroke="#bfbfbf" points="818.5,-180.5 818.5,-199.5 969.5,-199.5 969.5,-180.5 818.5,-180.5"/>
<text text-anchor="middle" x="894" y="-187.5" font-family="Helvetica,sans-Serif" font-size="10.00">Monitoring/MonitoringFactory.h</text>
</g>
<!-- Node4&#45;&gt;Node27 -->
<g id="edge31" class="edge"><title>Node4&#45;&gt;Node27</title>
<path fill="none" stroke="midnightblue" d="M850.587,-236.083C858.159,-228.22 869.378,-216.569 878.514,-207.081"/>
<polygon fill="midnightblue" stroke="midnightblue" points="881.158,-209.382 885.573,-199.751 876.115,-204.527 881.158,-209.382"/>
</g>
<!-- Node8 -->
<g id="node8" class="node"><title>Node8</title>
<g id="a_node8"><a xlink:href="../../dc/d03/MemoryResources_8h.html" target="_top" xlink:title="MemoryResources/MemoryResources.h">
<polygon fill="none" stroke="black" points="556.5,-68.5 556.5,-87.5 749.5,-87.5 749.5,-68.5 556.5,-68.5"/>
<text text-anchor="middle" x="653" y="-75.5" font-family="Helvetica,sans-Serif" font-size="10.00">MemoryResources/MemoryResources.h</text>
</a>
</g>
</g>
<!-- Node7&#45;&gt;Node8 -->
<g id="edge7" class="edge"><title>Node7&#45;&gt;Node8</title>
<path fill="none" stroke="midnightblue" d="M708.42,-180.164C705.863,-167.249 700.064,-142.718 690,-124 684.324,-113.444 675.975,-103.018 668.644,-94.8642"/>
<polygon fill="midnightblue" stroke="midnightblue" points="671.179,-92.4515 661.788,-87.5468 666.071,-97.2374 671.179,-92.4515"/>
</g>
<!-- Node15 -->
<g id="node15" class="node"><title>Node15</title>
<polygon fill="none" stroke="#bfbfbf" points="0,-6.5 0,-25.5 40,-25.5 40,-6.5 0,-6.5"/>
<text text-anchor="middle" x="20" y="-13.5" font-family="Helvetica,sans-Serif" font-size="10.00">utility</text>
</g>
<!-- Node7&#45;&gt;Node15 -->
<g id="edge29" class="edge"><title>Node7&#45;&gt;Node15</title>
<path fill="none" stroke="midnightblue" d="M657.733,-181.054C544.325,-162.853 268.232,-113.338 49,-32 47.3559,-31.39 45.6856,-30.7084 44.0195,-29.9813"/>
<polygon fill="midnightblue" stroke="midnightblue" points="45.2617,-26.6947 34.7341,-25.5033 42.221,-32.9998 45.2617,-26.6947"/>
</g>
<!-- Node7&#45;&gt;Node20 -->
<g id="edge20" class="edge"><title>Node7&#45;&gt;Node20</title>
<path fill="none" stroke="midnightblue" d="M752.465,-180.444C799.413,-170.984 875.076,-155.738 925.654,-145.547"/>
<polygon fill="midnightblue" stroke="midnightblue" points="926.622,-148.923 935.733,-143.516 925.239,-142.061 926.622,-148.923"/>
</g>
<!-- Node26 -->
<g id="node26" class="node"><title>Node26</title>
<polygon fill="none" stroke="#bfbfbf" points="636.5,-124.5 636.5,-143.5 681.5,-143.5 681.5,-124.5 636.5,-124.5"/>
<text text-anchor="middle" x="659" y="-131.5" font-family="Helvetica,sans-Serif" font-size="10.00">gsl/gsl</text>
</g>
<!-- Node7&#45;&gt;Node26 -->
<g id="edge30" class="edge"><title>Node7&#45;&gt;Node26</title>
<path fill="none" stroke="midnightblue" d="M701.578,-180.083C694.152,-172.22 683.148,-160.569 674.188,-151.081"/>
<polygon fill="midnightblue" stroke="midnightblue" points="676.676,-148.618 667.265,-143.751 671.587,-153.424 676.676,-148.618"/>
</g>
<!-- Node8&#45;&gt;Node2 -->
<g id="edge12" class="edge"><title>Node8&#45;&gt;Node2</title>
<path fill="none" stroke="midnightblue" d="M747.914,-68.4807C884.917,-56.1275 1122.82,-34.4422 1132,-32 1134.5,-31.3343 1137.05,-30.4953 1139.57,-29.556"/>
<polygon fill="midnightblue" stroke="midnightblue" points="1141.1,-32.7079 1148.95,-25.59 1138.37,-26.2604 1141.1,-32.7079"/>
</g>
<!-- Node9 -->
<g id="node9" class="node"><title>Node9</title>
<polygon fill="none" stroke="#bfbfbf" points="323,-1 323,-31 423,-31 423,-1 323,-1"/>
<text text-anchor="start" x="331" y="-19" font-family="Helvetica,sans-Serif" font-size="10.00">boost/container/flat</text>
<text text-anchor="middle" x="373" y="-8" font-family="Helvetica,sans-Serif" font-size="10.00">_map.hpp</text>
</g>
<!-- Node8&#45;&gt;Node9 -->
<g id="edge8" class="edge"><title>Node8&#45;&gt;Node9</title>
<path fill="none" stroke="midnightblue" d="M607.997,-68.4944C565.341,-60.285 499.247,-47.1853 432.952,-32.1607"/>
<polygon fill="midnightblue" stroke="midnightblue" points="433.7,-28.7415 423.172,-29.9304 432.144,-35.5663 433.7,-28.7415"/>
</g>
<!-- Node10 -->
<g id="node10" class="node"><title>Node10</title>
<polygon fill="none" stroke="#bfbfbf" points="441,-1 441,-31 557,-31 557,-1 441,-1"/>
<text text-anchor="start" x="449" y="-19" font-family="Helvetica,sans-Serif" font-size="10.00">boost/container/pmr</text>
<text text-anchor="middle" x="499" y="-8" font-family="Helvetica,sans-Serif" font-size="10.00">/memory_resource.hpp</text>
</g>
<!-- Node8&#45;&gt;Node10 -->
<g id="edge9" class="edge"><title>Node8&#45;&gt;Node10</title>
<path fill="none" stroke="midnightblue" d="M630.936,-68.4035C608.444,-59.6406 572.905,-45.7942 544.376,-34.6789"/>
<polygon fill="midnightblue" stroke="midnightblue" points="545.587,-31.3945 534.998,-31.0253 543.045,-37.9169 545.587,-31.3945"/>
</g>
<!-- Node11 -->
<g id="node11" class="node"><title>Node11</title>
<polygon fill="none" stroke="#bfbfbf" points="575,-1 575,-31 731,-31 731,-1 575,-1"/>
<text text-anchor="start" x="583" y="-19" font-family="Helvetica,sans-Serif" font-size="10.00">boost/container/pmr</text>
<text text-anchor="middle" x="653" y="-8" font-family="Helvetica,sans-Serif" font-size="10.00">/monotonic_buffer_resource.hpp</text>
</g>
<!-- Node8&#45;&gt;Node11 -->
<g id="edge10" class="edge"><title>Node8&#45;&gt;Node11</title>
<path fill="none" stroke="midnightblue" d="M653,-68.4035C653,-61.3405 653,-50.975 653,-41.399"/>
<polygon fill="midnightblue" stroke="midnightblue" points="656.5,-41.1408 653,-31.1408 649.5,-41.1408 656.5,-41.1408"/>
</g>
<!-- Node12 -->
<g id="node12" class="node"><title>Node12</title>
<polygon fill="none" stroke="#bfbfbf" points="749.5,-1 749.5,-31 882.5,-31 882.5,-1 749.5,-1"/>
<text text-anchor="start" x="757.5" y="-19" font-family="Helvetica,sans-Serif" font-size="10.00">boost/container/pmr</text>
<text text-anchor="middle" x="816" y="-8" font-family="Helvetica,sans-Serif" font-size="10.00">/polymorphic_allocator.hpp</text>
</g>
<!-- Node8&#45;&gt;Node12 -->
<g id="edge11" class="edge"><title>Node8&#45;&gt;Node12</title>
<path fill="none" stroke="midnightblue" d="M676.354,-68.4035C700.263,-59.6025 738.103,-45.6737 768.366,-34.534"/>
<polygon fill="midnightblue" stroke="midnightblue" points="769.723,-37.7643 777.898,-31.0253 767.304,-31.1952 769.723,-37.7643"/>
</g>
<!-- Node13 -->
<g id="node13" class="node"><title>Node13</title>
<polygon fill="none" stroke="#bfbfbf" points="1082.5,-6.5 1082.5,-25.5 1123.5,-25.5 1123.5,-6.5 1082.5,-6.5"/>
<text text-anchor="middle" x="1103" y="-13.5" font-family="Helvetica,sans-Serif" font-size="10.00">string</text>
</g>
<!-- Node8&#45;&gt;Node13 -->
<g id="edge13" class="edge"><title>Node8&#45;&gt;Node13</title>
<path fill="none" stroke="midnightblue" d="M749.709,-68.4649C864.068,-58.0856 1042.78,-40.8588 1073,-32 1074.97,-31.4225 1076.97,-30.7197 1078.94,-29.9369"/>
<polygon fill="midnightblue" stroke="midnightblue" points="1080.84,-32.9168 1088.47,-25.5679 1077.93,-26.5535 1080.84,-32.9168"/>
</g>
<!-- Node14 -->
<g id="node14" class="node"><title>Node14</title>
<polygon fill="none" stroke="#bfbfbf" points="901,-6.5 901,-25.5 963,-25.5 963,-6.5 901,-6.5"/>
<text text-anchor="middle" x="932" y="-13.5" font-family="Helvetica,sans-Serif" font-size="10.00">type_traits</text>
</g>
<!-- Node8&#45;&gt;Node14 -->
<g id="edge14" class="edge"><title>Node8&#45;&gt;Node14</title>
<path fill="none" stroke="midnightblue" d="M712.792,-68.4787C761.301,-60.9018 831.201,-48.4725 891,-32 894.215,-31.1143 897.536,-30.09 900.832,-29.0008"/>
<polygon fill="midnightblue" stroke="midnightblue" points="902.229,-32.22 910.511,-25.6126 899.917,-25.6131 902.229,-32.22"/>
</g>
<!-- Node8&#45;&gt;Node15 -->
<g id="edge15" class="edge"><title>Node8&#45;&gt;Node15</title>
<path fill="none" stroke="midnightblue" d="M556.252,-74.5021C410.442,-69.9406 141.576,-58.2058 49,-32 47.0365,-31.4442 45.0518,-30.7481 43.0907,-29.9621"/>
<polygon fill="midnightblue" stroke="midnightblue" points="44.225,-26.627 33.6884,-25.517 41.2331,-32.9554 44.225,-26.627"/>
</g>
<!-- Node8&#45;&gt;Node16 -->
<g id="edge16" class="edge"><title>Node8&#45;&gt;Node16</title>
<path fill="none" stroke="midnightblue" d="M749.69,-68.6988C752.49,-68.4627 755.265,-68.2293 758,-68 953.081,-51.6407 1002.38,-53.1156 1197,-32 1223.58,-29.116 1253.63,-25.0027 1275.75,-21.8127"/>
<polygon fill="midnightblue" stroke="midnightblue" points="1276.54,-25.2357 1285.93,-20.3303 1275.53,-18.3088 1276.54,-25.2357"/>
</g>
<!-- Node17 -->
<g id="node17" class="node"><title>Node17</title>
<polygon fill="none" stroke="#bfbfbf" points="981.5,-6.5 981.5,-25.5 1064.5,-25.5 1064.5,-6.5 981.5,-6.5"/>
<text text-anchor="middle" x="1023" y="-13.5" font-family="Helvetica,sans-Serif" font-size="10.00">unordered_map</text>
</g>
<!-- Node8&#45;&gt;Node17 -->
<g id="edge17" class="edge"><title>Node8&#45;&gt;Node17</title>
<path fill="none" stroke="midnightblue" d="M735.919,-68.4934C800.419,-61.1007 891.938,-48.9098 971,-32 976.039,-30.9222 981.306,-29.6178 986.471,-28.2333"/>
<polygon fill="midnightblue" stroke="midnightblue" points="987.507,-31.5778 996.193,-25.5107 985.62,-24.8372 987.507,-31.5778"/>
</g>
<!-- Node18 -->
<g id="node18" class="node"><title>Node18</title>
<polygon fill="none" stroke="#bfbfbf" points="58.5,-6.5 58.5,-25.5 155.5,-25.5 155.5,-6.5 58.5,-6.5"/>
<text text-anchor="middle" x="107" y="-13.5" font-family="Helvetica,sans-Serif" font-size="10.00">FairMQMessage.h</text>
</g>
<!-- Node8&#45;&gt;Node18 -->
<g id="edge18" class="edge"><title>Node8&#45;&gt;Node18</title>
<path fill="none" stroke="midnightblue" d="M556.341,-72.831C457.243,-67.4535 298.964,-55.7995 164,-32 158.061,-30.9527 151.835,-29.5925 145.769,-28.1191"/>
<polygon fill="midnightblue" stroke="midnightblue" points="146.347,-24.6543 135.792,-25.5678 144.613,-31.4361 146.347,-24.6543"/>
</g>
<!-- Node19 -->
<g id="node19" class="node"><title>Node19</title>
<polygon fill="none" stroke="#bfbfbf" points="173.5,-6.5 173.5,-25.5 304.5,-25.5 304.5,-6.5 173.5,-6.5"/>
<text text-anchor="middle" x="239" y="-13.5" font-family="Helvetica,sans-Serif" font-size="10.00">FairMQTransportFactory.h</text>
</g>
<!-- Node8&#45;&gt;Node19 -->
<g id="edge19" class="edge"><title>Node8&#45;&gt;Node19</title>
<path fill="none" stroke="midnightblue" d="M578.059,-68.4793C509.227,-60.3149 404.486,-47.0378 314,-32 305.898,-30.6535 297.333,-29.0821 289.002,-27.473"/>
<polygon fill="midnightblue" stroke="midnightblue" points="289.49,-24.002 279.002,-25.5041 288.137,-30.8701 289.49,-24.002"/>
</g>
<!-- Node20&#45;&gt;Node2 -->
<g id="edge24" class="edge"><title>Node20&#45;&gt;Node2</title>
<path fill="none" stroke="midnightblue" d="M1002.18,-124.362C1023.24,-116.35 1054.2,-103.367 1079,-88 1105.07,-71.8497 1131.8,-48.505 1148.4,-33.0508"/>
<polygon fill="midnightblue" stroke="midnightblue" points="1151.23,-35.1836 1156.09,-25.7685 1146.42,-30.0988 1151.23,-35.1836"/>
</g>
<!-- Node20&#45;&gt;Node8 -->
<g id="edge28" class="edge"><title>Node20&#45;&gt;Node8</title>
<path fill="none" stroke="midnightblue" d="M926.503,-124.444C868.856,-114.865 775.51,-99.3556 714.188,-89.1667"/>
<polygon fill="midnightblue" stroke="midnightblue" points="714.695,-85.7029 704.256,-87.5164 713.547,-92.6082 714.695,-85.7029"/>
</g>
<!-- Node20&#45;&gt;Node13 -->
<g id="edge27" class="edge"><title>Node20&#45;&gt;Node13</title>
<path fill="none" stroke="midnightblue" d="M966.66,-124.341C951.137,-111.437 926.734,-86.6777 941,-68 977.911,-19.6744 1016.2,-53.703 1073,-32 1074.65,-31.3713 1076.32,-30.6818 1078,-29.9545"/>
<polygon fill="midnightblue" stroke="midnightblue" points="1079.82,-32.9628 1087.38,-25.5383 1076.84,-26.6289 1079.82,-32.9628"/>
</g>
<!-- Node21 -->
<g id="node21" class="node"><title>Node21</title>
<polygon fill="none" stroke="#bfbfbf" points="1024,-68.5 1024,-87.5 1070,-87.5 1070,-68.5 1024,-68.5"/>
<text text-anchor="middle" x="1047" y="-75.5" font-family="Helvetica,sans-Serif" font-size="10.00">cstdint</text>
</g>
<!-- Node20&#45;&gt;Node21 -->
<g id="edge21" class="edge"><title>Node20&#45;&gt;Node21</title>
<path fill="none" stroke="midnightblue" d="M989.086,-124.324C999.486,-116.185 1015.26,-103.839 1027.72,-94.0874"/>
<polygon fill="midnightblue" stroke="midnightblue" points="1029.99,-96.7533 1035.71,-87.8339 1025.68,-91.2407 1029.99,-96.7533"/>
</g>
<!-- Node22 -->
<g id="node22" class="node"><title>Node22</title>
<polygon fill="none" stroke="#bfbfbf" points="1126,-68.5 1126,-87.5 1178,-87.5 1178,-68.5 1126,-68.5"/>
<text text-anchor="middle" x="1152" y="-75.5" font-family="Helvetica,sans-Serif" font-size="10.00">memory</text>
</g>
<!-- Node20&#45;&gt;Node22 -->
<g id="edge22" class="edge"><title>Node20&#45;&gt;Node22</title>
<path fill="none" stroke="midnightblue" d="M1005.57,-124.444C1035.53,-115.145 1083.5,-100.257 1116.32,-90.0735"/>
<polygon fill="midnightblue" stroke="midnightblue" points="1117.47,-93.3822 1125.98,-87.0755 1115.39,-86.6968 1117.47,-93.3822"/>
</g>
<!-- Node23 -->
<g id="node23" class="node"><title>Node23</title>
<polygon fill="none" stroke="#bfbfbf" points="844.5,-68.5 844.5,-87.5 893.5,-87.5 893.5,-68.5 844.5,-68.5"/>
<text text-anchor="middle" x="869" y="-75.5" font-family="Helvetica,sans-Serif" font-size="10.00">cassert</text>
</g>
<!-- Node20&#45;&gt;Node23 -->
<g id="edge23" class="edge"><title>Node20&#45;&gt;Node23</title>
<path fill="none" stroke="midnightblue" d="M960.487,-124.324C942.928,-115.625 915.669,-102.12 895.469,-92.113"/>
<polygon fill="midnightblue" stroke="midnightblue" points="896.984,-88.9575 886.469,-87.6545 893.876,-95.23 896.984,-88.9575"/>
</g>
<!-- Node24 -->
<g id="node24" class="node"><title>Node24</title>
<polygon fill="none" stroke="#bfbfbf" points="950,-68.5 950,-87.5 1006,-87.5 1006,-68.5 950,-68.5"/>
<text text-anchor="middle" x="978" y="-75.5" font-family="Helvetica,sans-Serif" font-size="10.00">algorithm</text>
</g>
<!-- Node20&#45;&gt;Node24 -->
<g id="edge25" class="edge"><title>Node20&#45;&gt;Node24</title>
<path fill="none" stroke="midnightblue" d="M978,-124.083C978,-117.006 978,-106.861 978,-97.9865"/>
<polygon fill="midnightblue" stroke="midnightblue" points="981.5,-97.751 978,-87.7511 974.5,-97.7511 981.5,-97.751"/>
</g>
<!-- Node20&#45;&gt;Node25 -->
<g id="edge26" class="edge"><title>Node20&#45;&gt;Node25</title>
<path fill="none" stroke="midnightblue" d="M949.32,-124.444C918.473,-115.241 869.272,-100.562 835.171,-90.3879"/>
<polygon fill="midnightblue" stroke="midnightblue" points="836.129,-87.0215 825.546,-87.5164 834.128,-93.7293 836.129,-87.0215"/>
</g>
<!-- Node28&#45;&gt;Node16 -->
<g id="edge35" class="edge"><title>Node28&#45;&gt;Node16</title>
<path fill="none" stroke="midnightblue" d="M1255.61,-180.5C1258.07,-168.002 1263.08,-143.987 1269,-124 1278.42,-92.2151 1292.23,-56.1651 1300.64,-35.0723"/>
<polygon fill="midnightblue" stroke="midnightblue" points="1303.9,-36.3385 1304.39,-25.7549 1297.41,-33.7237 1303.9,-36.3385"/>
</g>
<!-- Node28&#45;&gt;Node20 -->
<g id="edge34" class="edge"><title>Node28&#45;&gt;Node20</title>
<path fill="none" stroke="midnightblue" d="M1210.27,-180.444C1161.82,-170.964 1083.67,-155.675 1031.58,-145.483"/>
<polygon fill="midnightblue" stroke="midnightblue" points="1032.01,-142.002 1021.53,-143.516 1030.67,-148.871 1032.01,-142.002"/>
</g>
<!-- Node28&#45;&gt;Node22 -->
<g id="edge36" class="edge"><title>Node28&#45;&gt;Node22</title>
<path fill="none" stroke="midnightblue" d="M1246,-180.368C1228.94,-161.974 1188.79,-118.671 1166.88,-95.0519"/>
<polygon fill="midnightblue" stroke="midnightblue" points="1169.33,-92.5443 1159.97,-87.5914 1164.2,-97.3039 1169.33,-92.5443"/>
</g>
<!-- Node29 -->
<g id="node29" class="node"><title>Node29</title>
<polygon fill="none" stroke="#bfbfbf" points="1278.5,-124.5 1278.5,-143.5 1337.5,-143.5 1337.5,-124.5 1278.5,-124.5"/>
<text text-anchor="middle" x="1308" y="-131.5" font-family="Helvetica,sans-Serif" font-size="10.00">functional</text>
</g>
<!-- Node28&#45;&gt;Node29 -->
<g id="edge37" class="edge"><title>Node28&#45;&gt;Node29</title>
<path fill="none" stroke="midnightblue" d="M1262.92,-180.083C1270.78,-172.22 1282.43,-160.569 1291.92,-151.081"/>
<polygon fill="midnightblue" stroke="midnightblue" points="1294.65,-153.297 1299.25,-143.751 1289.7,-148.347 1294.65,-153.297"/>
</g>
<!-- Node30&#45;&gt;Node29 -->
<g id="edge40" class="edge"><title>Node30&#45;&gt;Node29</title>
<path fill="none" stroke="midnightblue" d="M1441.81,-180.444C1415.06,-171.359 1372.6,-156.939 1342.69,-146.783"/>
<polygon fill="midnightblue" stroke="midnightblue" points="1343.67,-143.418 1333.08,-143.516 1341.42,-150.046 1343.67,-143.418"/>
</g>
<!-- Node31 -->
<g id="node31" class="node"><title>Node31</title>
<polygon fill="none" stroke="#bfbfbf" points="1444.5,-124.5 1444.5,-143.5 1489.5,-143.5 1489.5,-124.5 1444.5,-124.5"/>
<text text-anchor="middle" x="1467" y="-131.5" font-family="Helvetica,sans-Serif" font-size="10.00">iosfwd</text>
</g>
<!-- Node30&#45;&gt;Node31 -->
<g id="edge39" class="edge"><title>Node30&#45;&gt;Node31</title>
<path fill="none" stroke="midnightblue" d="M1467,-180.083C1467,-173.006 1467,-162.861 1467,-153.986"/>
<polygon fill="midnightblue" stroke="midnightblue" points="1470.5,-153.751 1467,-143.751 1463.5,-153.751 1470.5,-153.751"/>
</g>
<!-- Node32&#45;&gt;Node16 -->
<g id="edge42" class="edge"><title>Node32&#45;&gt;Node16</title>
<path fill="none" stroke="midnightblue" d="M1553.22,-236.181C1554.63,-223.287 1555.83,-198.783 1548,-180 1535.16,-149.205 1524,-144.913 1498,-124 1446.2,-82.3293 1376.05,-47.4767 1337.11,-29.6981"/>
<polygon fill="midnightblue" stroke="midnightblue" points="1338.47,-26.4706 1327.91,-25.5522 1335.59,-32.8523 1338.47,-26.4706"/>
</g>
</g>
</svg>
        <g id="navigator" transform="translate(0 0)" fill="#404254">
                <rect fill="#f2f5e9" fill-opacity="0.5" stroke="#606060" stroke-width=".5" x="0" y="0" width="60" height="60"/>
                <use id="zoomplus" xlink:href="#zoomPlus" x="17" y="9" onmousedown="handleZoom(evt,'in')"/>
                <use id="zoomminus" xlink:href="#zoomMin" x="42" y="9" onmousedown="handleZoom(evt,'out')"/>
                <use id="reset" xlink:href="#resetDef" x="30" y="36" onmousedown="handleReset()"/>
                <g id="arrowUp" xlink:href="#dirArrow" transform="translate(30 24)" onmousedown="handlePan(0,-1)">
                  <use xlink:href="#rim" fill="#404040">
                        <set attributeName="fill" to="#808080" begin="arrowUp.mouseover" end="arrowUp.mouseout"/>
                  </use>
                  <path fill="none" stroke="white" stroke-width="1.5" d="M0,-3.0v7 M-2.5,-0.5L0,-3.0L2.5,-0.5"/>
                </g>
                <g id="arrowRight" xlink:href="#dirArrow" transform="rotate(90) translate(36 -43)" onmousedown="handlePan(1,0)">
                  <use xlink:href="#rim" fill="#404040">
                        <set attributeName="fill" to="#808080" begin="arrowRight.mouseover" end="arrowRight.mouseout"/>
                  </use>
                  <path fill="none" stroke="white" stroke-width="1.5" d="M0,-3.0v7 M-2.5,-0.5L0,-3.0L2.5,-0.5"/>
                </g>
                <g id="arrowDown" xlink:href="#dirArrow" transform="rotate(180) translate(-30 -48)" onmousedown="handlePan(0,1)">
                  <use xlink:href="#rim" fill="#404040">
                        <set attributeName="fill" to="#808080" begin="arrowDown.mouseover" end="arrowDown.mouseout"/>
                  </use>
                  <path fill="none" stroke="white" stroke-width="1.5" d="M0,-3.0v7 M-2.5,-0.5L0,-3.0L2.5,-0.5"/>
                </g>
                <g id="arrowLeft" xlink:href="#dirArrow" transform="rotate(270) translate(-36 17)" onmousedown="handlePan(-1,0)">
                  <use xlink:href="#rim" fill="#404040">
                        <set attributeName="fill" to="#808080" begin="arrowLeft.mouseover" end="arrowLeft.mouseout"/>
                  </use>
                  <path fill="none" stroke="white" stroke-width="1.5" d="M0,-3.0v7 M-2.5,-0.5L0,-3.0L2.5,-0.5"/>
                </g>
        </g>
        <svg viewBox="0 0 15 15" width="100%" height="30px" preserveAspectRatio="xMaxYMin meet">
         <g id="arrow_out" transform="scale(0.3 0.3)">
          <a xlink:href="FakeTimeframeGeneratorDevice_8cxx__incl_org.svg" target="_base">
           <rect id="button" ry="5" rx="5" y="6" x="6" height="38" width="38"
                fill="#f2f5e9" fill-opacity="0.5" stroke="#606060" stroke-width="1.0"/>
           <path id="arrow"
             d="M 11.500037,31.436501 C 11.940474,20.09759 22.043105,11.32322 32.158766,21.979434 L 37.068811,17.246167 C 37.068811,17.246167 37.088388,32 37.088388,32 L 22.160133,31.978069 C 22.160133,31.978069 26.997745,27.140456 26.997745,27.140456 C 18.528582,18.264221 13.291696,25.230495 11.500037,31.436501 z"
             style="fill:#404040;"/>
          </a>
         </g>
        </svg>
</svg>
