<?xml version="1.0" encoding="UTF-8" standalone="no"?>
<!DOCTYPE svg PUBLIC "-//W3C//DTD SVG 1.1//EN"
 "http://www.w3.org/Graphics/SVG/1.1/DTD/svg11.dtd">
<!-- Generated by graphviz version 2.36.0 (20140111.2315)
 -->
<!-- Title: /home/travis/build/AliceO2Group/AliceO2/Utilities/aliceHLTwrapper/src/Component.cxx Pages: 1 -->
<svg width="1385pt" height="410pt"
 viewBox="0.00 0.00 1385.00 410.00" xmlns="http://www.w3.org/2000/svg" xmlns:xlink="http://www.w3.org/1999/xlink">
<g id="graph0" class="graph" transform="scale(1 1) rotate(0) translate(4 406)">
<title>/home/travis/build/AliceO2Group/AliceO2/Utilities/aliceHLTwrapper/src/Component.cxx</title>
<!-- Node1 -->
<g id="node1" class="node"><title>Node1</title>
<polygon fill="#bfbfbf" stroke="black" points="931.5,-349 931.5,-401 1060.5,-401 1060.5,-349 931.5,-349"/>
<text text-anchor="start" x="939.5" y="-389" font-family="Helvetica,sans-Serif" font-size="10.00">/home/travis/build</text>
<text text-anchor="start" x="939.5" y="-378" font-family="Helvetica,sans-Serif" font-size="10.00">/AliceO2Group/AliceO2</text>
<text text-anchor="start" x="939.5" y="-367" font-family="Helvetica,sans-Serif" font-size="10.00">/Utilities/aliceHLTwrapper</text>
<text text-anchor="middle" x="996" y="-356" font-family="Helvetica,sans-Serif" font-size="10.00">/src/Component.cxx</text>
</g>
<!-- Node2 -->
<g id="node2" class="node"><title>Node2</title>
<g id="a_node2"><a xlink:href="../../d0/da1/Component_8h.html" target="_top" xlink:title="aliceHLTwrapper/Component.h">
<polygon fill="none" stroke="black" points="249,-292.5 249,-311.5 401,-311.5 401,-292.5 249,-292.5"/>
<text text-anchor="middle" x="325" y="-299.5" font-family="Helvetica,sans-Serif" font-size="10.00">aliceHLTwrapper/Component.h</text>
</a>
</g>
</g>
<!-- Node1&#45;&gt;Node2 -->
<g id="edge1" class="edge"><title>Node1&#45;&gt;Node2</title>
<path fill="none" stroke="midnightblue" d="M931.357,-367.16C809.83,-354.301 547.3,-326.522 411.017,-312.102"/>
<polygon fill="midnightblue" stroke="midnightblue" points="411.34,-308.616 401.027,-311.045 410.603,-315.577 411.34,-308.616"/>
</g>
<!-- Node3 -->
<g id="node3" class="node"><title>Node3</title>
<g id="a_node3"><a xlink:href="../../d6/d34/AliHLTDataTypes_8h.html" target="_top" xlink:title="Data type declaration for the HLT module. ">
<polygon fill="none" stroke="black" points="567.5,-124.5 567.5,-143.5 670.5,-143.5 670.5,-124.5 567.5,-124.5"/>
<text text-anchor="middle" x="619" y="-131.5" font-family="Helvetica,sans-Serif" font-size="10.00">AliHLTDataTypes.h</text>
</a>
</g>
</g>
<!-- Node1&#45;&gt;Node3 -->
<g id="edge39" class="edge"><title>Node1&#45;&gt;Node3</title>
<path fill="none" stroke="midnightblue" d="M931.385,-365.012C860.818,-352.134 748.24,-322.216 676,-256 645.295,-227.855 629.634,-179.746 623.01,-153.467"/>
<polygon fill="midnightblue" stroke="midnightblue" points="626.401,-152.598 620.707,-143.664 619.587,-154.199 626.401,-152.598"/>
</g>
<!-- Node10 -->
<g id="node10" class="node"><title>Node10</title>
<polygon fill="none" stroke="#bfbfbf" points="843,-68.5 843,-87.5 895,-87.5 895,-68.5 843,-68.5"/>
<text text-anchor="middle" x="869" y="-75.5" font-family="Helvetica,sans-Serif" font-size="10.00">memory</text>
</g>
<!-- Node1&#45;&gt;Node10 -->
<g id="edge49" class="edge"><title>Node1&#45;&gt;Node10</title>
<path fill="none" stroke="midnightblue" d="M951.605,-348.923C937.084,-338.967 921.902,-326.427 911,-312 892.433,-287.431 887,-277.795 887,-247 887,-247 887,-247 887,-189 887,-156.537 879.27,-119.384 873.942,-97.6276"/>
<polygon fill="midnightblue" stroke="midnightblue" points="877.288,-96.5867 871.428,-87.7605 870.505,-98.3151 877.288,-96.5867"/>
</g>
<!-- Node12 -->
<g id="node12" class="node"><title>Node12</title>
<polygon fill="none" stroke="#bfbfbf" points="1204,-6.5 1204,-25.5 1250,-25.5 1250,-6.5 1204,-6.5"/>
<text text-anchor="middle" x="1227" y="-13.5" font-family="Helvetica,sans-Serif" font-size="10.00">cstring</text>
</g>
<!-- Node1&#45;&gt;Node12 -->
<g id="edge45" class="edge"><title>Node1&#45;&gt;Node12</title>
<path fill="none" stroke="midnightblue" d="M970.864,-348.91C961.337,-338.261 951.09,-325.255 944,-312 929.805,-285.46 925,-277.098 925,-247 925,-247 925,-247 925,-133 925,-5.29509 1076.03,-80.8946 1194,-32 1195.64,-31.3208 1197.32,-30.6094 1199.01,-29.8809"/>
<polygon fill="midnightblue" stroke="midnightblue" points="1200.87,-32.8824 1208.6,-25.6306 1198.03,-26.4827 1200.87,-32.8824"/>
</g>
<!-- Node30 -->
<g id="node30" class="node"><title>Node30</title>
<g id="a_node30"><a xlink:href="../../d8/d1d/SystemInterface_8h.html" target="_top" xlink:title="aliceHLTwrapper/SystemInterface.h">
<polygon fill="none" stroke="black" points="685.5,-236.5 685.5,-255.5 858.5,-255.5 858.5,-236.5 685.5,-236.5"/>
<text text-anchor="middle" x="772" y="-243.5" font-family="Helvetica,sans-Serif" font-size="10.00">aliceHLTwrapper/SystemInterface.h</text>
</a>
</g>
</g>
<!-- Node1&#45;&gt;Node30 -->
<g id="edge40" class="edge"><title>Node1&#45;&gt;Node30</title>
<path fill="none" stroke="midnightblue" d="M943.291,-348.946C921.286,-338.098 895.629,-324.937 873,-312 844.586,-295.755 813.046,-274.996 792.895,-261.364"/>
<polygon fill="midnightblue" stroke="midnightblue" points="794.727,-258.377 784.49,-255.645 790.789,-264.164 794.727,-258.377"/>
</g>
<!-- Node31 -->
<g id="node31" class="node"><title>Node31</title>
<polygon fill="none" stroke="#bfbfbf" points="953,-292.5 953,-311.5 1039,-311.5 1039,-292.5 953,-292.5"/>
<text text-anchor="middle" x="996" y="-299.5" font-family="Helvetica,sans-Serif" font-size="10.00">FairMQLogger.h</text>
</g>
<!-- Node1&#45;&gt;Node31 -->
<g id="edge42" class="edge"><title>Node1&#45;&gt;Node31</title>
<path fill="none" stroke="midnightblue" d="M996,-348.768C996,-339.89 996,-330.074 996,-321.816"/>
<polygon fill="midnightblue" stroke="midnightblue" points="999.5,-321.757 996,-311.757 992.5,-321.757 999.5,-321.757"/>
</g>
<!-- Node32 -->
<g id="node32" class="node"><title>Node32</title>
<polygon fill="none" stroke="#bfbfbf" points="1057.5,-292.5 1057.5,-311.5 1102.5,-311.5 1102.5,-292.5 1057.5,-292.5"/>
<text text-anchor="middle" x="1080" y="-299.5" font-family="Helvetica,sans-Serif" font-size="10.00">cstdlib</text>
</g>
<!-- Node1&#45;&gt;Node32 -->
<g id="edge43" class="edge"><title>Node1&#45;&gt;Node32</title>
<path fill="none" stroke="midnightblue" d="M1025.85,-348.768C1037.91,-338.578 1051.42,-327.153 1061.94,-318.267"/>
<polygon fill="midnightblue" stroke="midnightblue" points="1064.26,-320.886 1069.64,-311.757 1059.74,-315.539 1064.26,-320.886"/>
</g>
<!-- Node33 -->
<g id="node33" class="node"><title>Node33</title>
<polygon fill="none" stroke="#bfbfbf" points="1121,-292.5 1121,-311.5 1165,-311.5 1165,-292.5 1121,-292.5"/>
<text text-anchor="middle" x="1143" y="-299.5" font-family="Helvetica,sans-Serif" font-size="10.00">cerrno</text>
</g>
<!-- Node1&#45;&gt;Node33 -->
<g id="edge44" class="edge"><title>Node1&#45;&gt;Node33</title>
<path fill="none" stroke="midnightblue" d="M1047.83,-348.968C1070.77,-337.885 1096.82,-325.306 1115.85,-316.112"/>
<polygon fill="midnightblue" stroke="midnightblue" points="1117.63,-319.14 1125.11,-311.639 1114.59,-312.837 1117.63,-319.14"/>
</g>
<!-- Node34 -->
<g id="node34" class="node"><title>Node34</title>
<polygon fill="none" stroke="#bfbfbf" points="1183,-292.5 1183,-311.5 1235,-311.5 1235,-292.5 1183,-292.5"/>
<text text-anchor="middle" x="1209" y="-299.5" font-family="Helvetica,sans-Serif" font-size="10.00">sstream</text>
</g>
<!-- Node1&#45;&gt;Node34 -->
<g id="edge46" class="edge"><title>Node1&#45;&gt;Node34</title>
<path fill="none" stroke="midnightblue" d="M1060.77,-352.408C1097.83,-340.056 1142.9,-325.035 1173.54,-314.821"/>
<polygon fill="midnightblue" stroke="midnightblue" points="1174.96,-318.035 1183.34,-311.552 1172.75,-311.394 1174.96,-318.035"/>
</g>
<!-- Node35 -->
<g id="node35" class="node"><title>Node35</title>
<polygon fill="none" stroke="#bfbfbf" points="1253,-292.5 1253,-311.5 1307,-311.5 1307,-292.5 1253,-292.5"/>
<text text-anchor="middle" x="1280" y="-299.5" font-family="Helvetica,sans-Serif" font-size="10.00">iostream</text>
</g>
<!-- Node1&#45;&gt;Node35 -->
<g id="edge47" class="edge"><title>Node1&#45;&gt;Node35</title>
<path fill="none" stroke="midnightblue" d="M1060.8,-357.8C1117.11,-343.722 1196.7,-323.825 1242.87,-312.282"/>
<polygon fill="midnightblue" stroke="midnightblue" points="1243.9,-315.634 1252.75,-309.813 1242.2,-308.843 1243.9,-315.634"/>
</g>
<!-- Node36 -->
<g id="node36" class="node"><title>Node36</title>
<polygon fill="none" stroke="#bfbfbf" points="1325,-292.5 1325,-311.5 1377,-311.5 1377,-292.5 1325,-292.5"/>
<text text-anchor="middle" x="1351" y="-299.5" font-family="Helvetica,sans-Serif" font-size="10.00">getopt.h</text>
</g>
<!-- Node1&#45;&gt;Node36 -->
<g id="edge48" class="edge"><title>Node1&#45;&gt;Node36</title>
<path fill="none" stroke="midnightblue" d="M1060.59,-362.666C1123.18,-351.417 1220.98,-333.135 1314.73,-312.186"/>
<polygon fill="midnightblue" stroke="midnightblue" points="1315.68,-315.561 1324.67,-309.952 1314.14,-308.731 1315.68,-315.561"/>
</g>
<!-- Node2&#45;&gt;Node3 -->
<g id="edge2" class="edge"><title>Node2&#45;&gt;Node3</title>
<path fill="none" stroke="midnightblue" d="M396.474,-292.462C458.215,-281.403 545.67,-256.328 599,-200 610.785,-187.552 615.636,-168.317 617.627,-153.996"/>
<polygon fill="midnightblue" stroke="midnightblue" points="621.135,-154.097 618.688,-143.789 614.173,-153.373 621.135,-154.097"/>
</g>
<!-- Node4 -->
<g id="node4" class="node"><title>Node4</title>
<g id="a_node4"><a xlink:href="../../d2/dda/MessageFormat_8h.html" target="_top" xlink:title="MessageFormat.h">
<polygon fill="none" stroke="black" points="343.5,-236.5 343.5,-255.5 438.5,-255.5 438.5,-236.5 343.5,-236.5"/>
<text text-anchor="middle" x="391" y="-243.5" font-family="Helvetica,sans-Serif" font-size="10.00">MessageFormat.h</text>
</a>
</g>
</g>
<!-- Node2&#45;&gt;Node4 -->
<g id="edge3" class="edge"><title>Node2&#45;&gt;Node4</title>
<path fill="none" stroke="midnightblue" d="M335.604,-292.324C345.456,-284.263 360.351,-272.077 372.215,-262.369"/>
<polygon fill="midnightblue" stroke="midnightblue" points="374.68,-264.875 380.203,-255.834 370.247,-259.457 374.68,-264.875"/>
</g>
<!-- Node6 -->
<g id="node6" class="node"><title>Node6</title>
<polygon fill="none" stroke="#bfbfbf" points="0,-6.5 0,-25.5 44,-25.5 44,-6.5 0,-6.5"/>
<text text-anchor="middle" x="22" y="-13.5" font-family="Helvetica,sans-Serif" font-size="10.00">vector</text>
</g>
<!-- Node2&#45;&gt;Node6 -->
<g id="edge36" class="edge"><title>Node2&#45;&gt;Node6</title>
<path fill="none" stroke="midnightblue" d="M271.034,-292.451C185.159,-277.303 27,-242.426 27,-191 27,-191 27,-191 27,-133 27,-98.6841 24.7889,-58.7108 23.3075,-35.7794"/>
<polygon fill="midnightblue" stroke="midnightblue" points="26.7946,-35.4689 22.6333,-25.7255 19.8103,-35.9373 26.7946,-35.4689"/>
</g>
<!-- Node8 -->
<g id="node8" class="node"><title>Node8</title>
<polygon fill="none" stroke="#bfbfbf" points="67,-180.5 67,-199.5 165,-199.5 165,-180.5 67,-180.5"/>
<text text-anchor="middle" x="116" y="-187.5" font-family="Helvetica,sans-Serif" font-size="10.00">boost/signals2.hpp</text>
</g>
<!-- Node2&#45;&gt;Node8 -->
<g id="edge37" class="edge"><title>Node2&#45;&gt;Node8</title>
<path fill="none" stroke="midnightblue" d="M279.541,-292.478C250.233,-285.628 212.113,-274.104 182,-256 160.8,-243.254 141.249,-222.36 129.019,-207.71"/>
<polygon fill="midnightblue" stroke="midnightblue" points="131.72,-205.483 122.707,-199.914 126.28,-209.889 131.72,-205.483"/>
</g>
<!-- Node29 -->
<g id="node29" class="node"><title>Node29</title>
<polygon fill="none" stroke="#bfbfbf" points="191,-236.5 191,-255.5 325,-255.5 325,-236.5 191,-236.5"/>
<text text-anchor="middle" x="258" y="-243.5" font-family="Helvetica,sans-Serif" font-size="10.00">boost/program_options.hpp</text>
</g>
<!-- Node2&#45;&gt;Node29 -->
<g id="edge38" class="edge"><title>Node2&#45;&gt;Node29</title>
<path fill="none" stroke="midnightblue" d="M314.235,-292.324C304.234,-284.263 289.113,-272.077 277.07,-262.369"/>
<polygon fill="midnightblue" stroke="midnightblue" points="278.943,-259.384 268.961,-255.834 274.55,-264.834 278.943,-259.384"/>
</g>
<!-- Node4&#45;&gt;Node3 -->
<g id="edge4" class="edge"><title>Node4&#45;&gt;Node3</title>
<path fill="none" stroke="midnightblue" d="M401.51,-236.366C418.418,-222.82 453.103,-196.428 486,-180 514.813,-165.611 549.311,-154.088 575.951,-146.306"/>
<polygon fill="midnightblue" stroke="midnightblue" points="577.094,-149.62 585.748,-143.508 575.172,-142.889 577.094,-149.62"/>
</g>
<!-- Node5 -->
<g id="node5" class="node"><title>Node5</title>
<g id="a_node5"><a xlink:href="../../d2/de6/HOMERFactory_8h.html" target="_top" xlink:title="HOMERFactory.h">
<polygon fill="none" stroke="black" points="495.5,-180.5 495.5,-199.5 590.5,-199.5 590.5,-180.5 495.5,-180.5"/>
<text text-anchor="middle" x="543" y="-187.5" font-family="Helvetica,sans-Serif" font-size="10.00">HOMERFactory.h</text>
</a>
</g>
</g>
<!-- Node4&#45;&gt;Node5 -->
<g id="edge5" class="edge"><title>Node4&#45;&gt;Node5</title>
<path fill="none" stroke="midnightblue" d="M415.085,-236.444C440.545,-227.399 480.894,-213.064 509.459,-202.916"/>
<polygon fill="midnightblue" stroke="midnightblue" points="510.777,-206.162 519.028,-199.516 508.433,-199.566 510.777,-206.162"/>
</g>
<!-- Node4&#45;&gt;Node6 -->
<g id="edge7" class="edge"><title>Node4&#45;&gt;Node6</title>
<path fill="none" stroke="midnightblue" d="M385.477,-236.451C371.089,-214.791 330.269,-157.13 283,-124 192.842,-60.8114 153.725,-76.4487 53,-32 51.5983,-31.3815 50.1666,-30.7365 48.725,-30.0765"/>
<polygon fill="midnightblue" stroke="midnightblue" points="49.8173,-26.7221 39.2794,-25.6257 46.8336,-33.0544 49.8173,-26.7221"/>
</g>
<!-- Node7 -->
<g id="node7" class="node"><title>Node7</title>
<polygon fill="none" stroke="#bfbfbf" points="776,-68.5 776,-87.5 822,-87.5 822,-68.5 776,-68.5"/>
<text text-anchor="middle" x="799" y="-75.5" font-family="Helvetica,sans-Serif" font-size="10.00">cstdint</text>
</g>
<!-- Node4&#45;&gt;Node7 -->
<g id="edge8" class="edge"><title>Node4&#45;&gt;Node7</title>
<path fill="none" stroke="midnightblue" d="M397.43,-236.088C407.473,-222.635 428.021,-196.919 450,-180 564.558,-91.8138 620.506,-117.662 762,-88 763.274,-87.733 764.571,-87.4538 765.879,-87.1659"/>
<polygon fill="midnightblue" stroke="midnightblue" points="766.999,-90.4997 775.959,-84.8456 765.429,-83.6781 766.999,-90.4997"/>
</g>
<!-- Node4&#45;&gt;Node8 -->
<g id="edge9" class="edge"><title>Node4&#45;&gt;Node8</title>
<path fill="none" stroke="midnightblue" d="M347.425,-236.444C299.151,-226.964 221.288,-211.675 169.388,-201.483"/>
<polygon fill="midnightblue" stroke="midnightblue" points="169.858,-198.009 159.371,-199.516 168.509,-204.878 169.858,-198.009"/>
</g>
<!-- Node9 -->
<g id="node9" class="node"><title>Node9</title>
<g id="a_node9"><a xlink:href="../../dc/dcd/DataHeader_8h.html" target="_top" xlink:title="Headers/DataHeader.h">
<polygon fill="none" stroke="black" points="345.5,-124.5 345.5,-143.5 462.5,-143.5 462.5,-124.5 345.5,-124.5"/>
<text text-anchor="middle" x="404" y="-131.5" font-family="Helvetica,sans-Serif" font-size="10.00">Headers/DataHeader.h</text>
</a>
</g>
</g>
<!-- Node4&#45;&gt;Node9 -->
<g id="edge10" class="edge"><title>Node4&#45;&gt;Node9</title>
<path fill="none" stroke="midnightblue" d="M392.02,-236.368C394.118,-218.617 398.958,-177.666 401.802,-153.597"/>
<polygon fill="midnightblue" stroke="midnightblue" points="405.287,-153.933 402.985,-143.591 398.335,-153.112 405.287,-153.933"/>
</g>
<!-- Node26 -->
<g id="node26" class="node"><title>Node26</title>
<g id="a_node26"><a xlink:href="../../d2/d09/HeartbeatFrame_8h.html" target="_top" xlink:title="Headers/HeartbeatFrame.h">
<polygon fill="none" stroke="black" points="183.5,-180.5 183.5,-199.5 318.5,-199.5 318.5,-180.5 183.5,-180.5"/>
<text text-anchor="middle" x="251" y="-187.5" font-family="Helvetica,sans-Serif" font-size="10.00">Headers/HeartbeatFrame.h</text>
</a>
</g>
</g>
<!-- Node4&#45;&gt;Node26 -->
<g id="edge31" class="edge"><title>Node4&#45;&gt;Node26</title>
<path fill="none" stroke="midnightblue" d="M368.817,-236.444C345.572,-227.478 308.851,-213.314 282.585,-203.183"/>
<polygon fill="midnightblue" stroke="midnightblue" points="283.669,-199.85 273.08,-199.516 281.15,-206.381 283.669,-199.85"/>
</g>
<!-- Node5&#45;&gt;Node3 -->
<g id="edge6" class="edge"><title>Node5&#45;&gt;Node3</title>
<path fill="none" stroke="midnightblue" d="M555.211,-180.324C566.776,-172.107 584.375,-159.602 598.161,-149.807"/>
<polygon fill="midnightblue" stroke="midnightblue" points="600.443,-152.479 606.567,-143.834 596.388,-146.773 600.443,-152.479"/>
</g>
<!-- Node9&#45;&gt;Node7 -->
<g id="edge11" class="edge"><title>Node9&#45;&gt;Node7</title>
<path fill="none" stroke="midnightblue" d="M462.839,-125.691C562.552,-113.291 754.713,-89.3398 762,-88 763.28,-87.7647 764.582,-87.5123 765.895,-87.2469"/>
<polygon fill="midnightblue" stroke="midnightblue" points="766.98,-90.5919 775.994,-85.024 765.476,-83.7555 766.98,-90.5919"/>
</g>
<!-- Node9&#45;&gt;Node10 -->
<g id="edge12" class="edge"><title>Node9&#45;&gt;Node10</title>
<path fill="none" stroke="midnightblue" d="M462.685,-129.196C545.293,-123.301 700.383,-110.257 831,-88 831.606,-87.8968 832.216,-87.7896 832.83,-87.6789"/>
<polygon fill="midnightblue" stroke="midnightblue" points="833.816,-91.0504 842.924,-85.638 832.429,-84.1892 833.816,-91.0504"/>
</g>
<!-- Node11 -->
<g id="node11" class="node"><title>Node11</title>
<polygon fill="none" stroke="#bfbfbf" points="518.5,-68.5 518.5,-87.5 567.5,-87.5 567.5,-68.5 518.5,-68.5"/>
<text text-anchor="middle" x="543" y="-75.5" font-family="Helvetica,sans-Serif" font-size="10.00">cassert</text>
</g>
<!-- Node9&#45;&gt;Node11 -->
<g id="edge13" class="edge"><title>Node9&#45;&gt;Node11</title>
<path fill="none" stroke="midnightblue" d="M426.025,-124.444C449.104,-115.478 485.562,-101.314 511.641,-91.1827"/>
<polygon fill="midnightblue" stroke="midnightblue" points="513.024,-94.4002 521.078,-87.5164 510.489,-87.8753 513.024,-94.4002"/>
</g>
<!-- Node9&#45;&gt;Node12 -->
<g id="edge14" class="edge"><title>Node9&#45;&gt;Node12</title>
<path fill="none" stroke="midnightblue" d="M462.782,-125.353C552.734,-113.577 715.511,-91.9446 728,-88 746.575,-82.1331 748.273,-73.3642 767,-68 950.088,-15.5544 1009.73,-80.1084 1194,-32 1196.5,-31.3462 1199.06,-30.5154 1201.57,-29.5813"/>
<polygon fill="midnightblue" stroke="midnightblue" points="1203.1,-32.7347 1210.96,-25.6228 1200.38,-26.2852 1203.1,-32.7347"/>
</g>
<!-- Node13 -->
<g id="node13" class="node"><title>Node13</title>
<polygon fill="none" stroke="#bfbfbf" points="586,-68.5 586,-87.5 642,-87.5 642,-68.5 586,-68.5"/>
<text text-anchor="middle" x="614" y="-75.5" font-family="Helvetica,sans-Serif" font-size="10.00">algorithm</text>
</g>
<!-- Node9&#45;&gt;Node13 -->
<g id="edge15" class="edge"><title>Node9&#45;&gt;Node13</title>
<path fill="none" stroke="midnightblue" d="M437.275,-124.444C475.044,-114.731 536.53,-98.9208 576.112,-88.7426"/>
<polygon fill="midnightblue" stroke="midnightblue" points="577.108,-92.1005 585.921,-86.2203 575.364,-85.3211 577.108,-92.1005"/>
</g>
<!-- Node14 -->
<g id="node14" class="node"><title>Node14</title>
<polygon fill="none" stroke="#bfbfbf" points="660.5,-68.5 660.5,-87.5 719.5,-87.5 719.5,-68.5 660.5,-68.5"/>
<text text-anchor="middle" x="690" y="-75.5" font-family="Helvetica,sans-Serif" font-size="10.00">stdexcept</text>
</g>
<!-- Node9&#45;&gt;Node14 -->
<g id="edge16" class="edge"><title>Node9&#45;&gt;Node14</title>
<path fill="none" stroke="midnightblue" d="M454.056,-124.454C503.844,-115.81 582.358,-101.791 650,-88 650.105,-87.9787 650.209,-87.9573 650.314,-87.9358"/>
<polygon fill="midnightblue" stroke="midnightblue" points="651.263,-91.3126 660.322,-85.8177 649.814,-84.4643 651.263,-91.3126"/>
</g>
<!-- Node15 -->
<g id="node15" class="node"><title>Node15</title>
<polygon fill="none" stroke="#bfbfbf" points="62.5,-6.5 62.5,-25.5 103.5,-25.5 103.5,-6.5 62.5,-6.5"/>
<text text-anchor="middle" x="83" y="-13.5" font-family="Helvetica,sans-Serif" font-size="10.00">string</text>
</g>
<!-- Node9&#45;&gt;Node15 -->
<g id="edge17" class="edge"><title>Node9&#45;&gt;Node15</title>
<path fill="none" stroke="midnightblue" d="M383.193,-124.411C361.754,-115.505 327.411,-101.078 298,-88 278.741,-79.4361 274.858,-75.0651 255,-68 193.659,-46.1756 174.026,-54.6899 113,-32 111.349,-31.3861 109.669,-30.7079 107.991,-29.9891"/>
<polygon fill="midnightblue" stroke="midnightblue" points="109.138,-26.6617 98.5968,-25.5939 106.171,-33.002 109.138,-26.6617"/>
</g>
<!-- Node16 -->
<g id="node16" class="node"><title>Node16</title>
<g id="a_node16"><a xlink:href="../../dc/d03/MemoryResources_8h.html" target="_top" xlink:title="MemoryResources/MemoryResources.h">
<polygon fill="none" stroke="black" points="307.5,-68.5 307.5,-87.5 500.5,-87.5 500.5,-68.5 307.5,-68.5"/>
<text text-anchor="middle" x="404" y="-75.5" font-family="Helvetica,sans-Serif" font-size="10.00">MemoryResources/MemoryResources.h</text>
</a>
</g>
</g>
<!-- Node9&#45;&gt;Node16 -->
<g id="edge18" class="edge"><title>Node9&#45;&gt;Node16</title>
<path fill="none" stroke="midnightblue" d="M404,-124.083C404,-117.006 404,-106.861 404,-97.9865"/>
<polygon fill="midnightblue" stroke="midnightblue" points="407.5,-97.751 404,-87.7511 400.5,-97.7511 407.5,-97.751"/>
</g>
<!-- Node16&#45;&gt;Node6 -->
<g id="edge27" class="edge"><title>Node16&#45;&gt;Node6</title>
<path fill="none" stroke="midnightblue" d="M310.761,-68.4704C223.488,-59.8666 99.7415,-45.9017 53,-32 50.8581,-31.363 48.6809,-30.5922 46.5243,-29.7404"/>
<polygon fill="midnightblue" stroke="midnightblue" points="47.9331,-26.5364 37.3754,-25.65 45.076,-32.9268 47.9331,-26.5364"/>
</g>
<!-- Node16&#45;&gt;Node12 -->
<g id="edge23" class="edge"><title>Node16&#45;&gt;Node12</title>
<path fill="none" stroke="midnightblue" d="M500.682,-68.5922C503.485,-68.3872 506.262,-68.1892 509,-68 661.07,-57.4896 1045.92,-68.1694 1194,-32 1196.66,-31.3504 1199.37,-30.4885 1202.03,-29.5052"/>
<polygon fill="midnightblue" stroke="midnightblue" points="1203.47,-32.6952 1211.32,-25.574 1200.75,-26.2489 1203.47,-32.6952"/>
</g>
<!-- Node16&#45;&gt;Node15 -->
<g id="edge24" class="edge"><title>Node16&#45;&gt;Node15</title>
<path fill="none" stroke="midnightblue" d="M332.073,-68.4658C259.488,-59.3905 152.636,-44.6324 113,-32 111.086,-31.3899 109.143,-30.6719 107.213,-29.886"/>
<polygon fill="midnightblue" stroke="midnightblue" points="108.423,-26.5897 97.8769,-25.5777 105.49,-32.9456 108.423,-26.5897"/>
</g>
<!-- Node17 -->
<g id="node17" class="node"><title>Node17</title>
<polygon fill="none" stroke="#bfbfbf" points="626,-1 626,-31 726,-31 726,-1 626,-1"/>
<text text-anchor="start" x="634" y="-19" font-family="Helvetica,sans-Serif" font-size="10.00">boost/container/flat</text>
<text text-anchor="middle" x="676" y="-8" font-family="Helvetica,sans-Serif" font-size="10.00">_map.hpp</text>
</g>
<!-- Node16&#45;&gt;Node17 -->
<g id="edge19" class="edge"><title>Node16&#45;&gt;Node17</title>
<path fill="none" stroke="midnightblue" d="M446.333,-68.4792C489.196,-59.7426 557.344,-45.5526 616,-32 616.101,-31.9766 616.203,-31.9531 616.304,-31.9296"/>
<polygon fill="midnightblue" stroke="midnightblue" points="617.012,-35.3588 625.942,-29.6569 615.406,-28.5456 617.012,-35.3588"/>
</g>
<!-- Node18 -->
<g id="node18" class="node"><title>Node18</title>
<polygon fill="none" stroke="#bfbfbf" points="744,-1 744,-31 860,-31 860,-1 744,-1"/>
<text text-anchor="start" x="752" y="-19" font-family="Helvetica,sans-Serif" font-size="10.00">boost/container/pmr</text>
<text text-anchor="middle" x="802" y="-8" font-family="Helvetica,sans-Serif" font-size="10.00">/memory_resource.hpp</text>
</g>
<!-- Node16&#45;&gt;Node18 -->
<g id="edge20" class="edge"><title>Node16&#45;&gt;Node18</title>
<path fill="none" stroke="midnightblue" d="M480.541,-68.4683C545.45,-60.803 641.217,-48.4847 733.845,-32.1174"/>
<polygon fill="midnightblue" stroke="midnightblue" points="734.727,-35.5154 743.957,-30.3122 733.497,-28.6243 734.727,-35.5154"/>
</g>
<!-- Node19 -->
<g id="node19" class="node"><title>Node19</title>
<polygon fill="none" stroke="#bfbfbf" points="878,-1 878,-31 1034,-31 1034,-1 878,-1"/>
<text text-anchor="start" x="886" y="-19" font-family="Helvetica,sans-Serif" font-size="10.00">boost/container/pmr</text>
<text text-anchor="middle" x="956" y="-8" font-family="Helvetica,sans-Serif" font-size="10.00">/monotonic_buffer_resource.hpp</text>
</g>
<!-- Node16&#45;&gt;Node19 -->
<g id="edge21" class="edge"><title>Node16&#45;&gt;Node19</title>
<path fill="none" stroke="midnightblue" d="M500.304,-68.4858C610.298,-58.6218 784.654,-42.5264 867.904,-31.9221"/>
<polygon fill="midnightblue" stroke="midnightblue" points="868.372,-35.3908 877.835,-30.6247 867.465,-28.4498 868.372,-35.3908"/>
</g>
<!-- Node20 -->
<g id="node20" class="node"><title>Node20</title>
<polygon fill="none" stroke="#bfbfbf" points="1052.5,-1 1052.5,-31 1185.5,-31 1185.5,-1 1052.5,-1"/>
<text text-anchor="start" x="1060.5" y="-19" font-family="Helvetica,sans-Serif" font-size="10.00">boost/container/pmr</text>
<text text-anchor="middle" x="1119" y="-8" font-family="Helvetica,sans-Serif" font-size="10.00">/polymorphic_allocator.hpp</text>
</g>
<!-- Node16&#45;&gt;Node20 -->
<g id="edge22" class="edge"><title>Node16&#45;&gt;Node20</title>
<path fill="none" stroke="midnightblue" d="M500.685,-68.6461C503.487,-68.4253 506.264,-68.2095 509,-68 742.935,-50.0902 805.468,-62.7367 1042.4,-31.9588"/>
<polygon fill="midnightblue" stroke="midnightblue" points="1042.89,-35.4241 1052.35,-30.6537 1041.98,-28.4835 1042.89,-35.4241"/>
</g>
<!-- Node21 -->
<g id="node21" class="node"><title>Node21</title>
<polygon fill="none" stroke="#bfbfbf" points="122,-6.5 122,-25.5 184,-25.5 184,-6.5 122,-6.5"/>
<text text-anchor="middle" x="153" y="-13.5" font-family="Helvetica,sans-Serif" font-size="10.00">type_traits</text>
</g>
<!-- Node16&#45;&gt;Node21 -->
<g id="edge25" class="edge"><title>Node16&#45;&gt;Node21</title>
<path fill="none" stroke="midnightblue" d="M353.598,-68.4314C310.52,-60.5911 247.106,-47.8192 193,-32 189.868,-31.0842 186.631,-30.0401 183.417,-28.9389"/>
<polygon fill="midnightblue" stroke="midnightblue" points="184.571,-25.6343 173.976,-25.5348 182.196,-32.2193 184.571,-25.6343"/>
</g>
<!-- Node22 -->
<g id="node22" class="node"><title>Node22</title>
<polygon fill="none" stroke="#bfbfbf" points="202,-6.5 202,-25.5 242,-25.5 242,-6.5 202,-6.5"/>
<text text-anchor="middle" x="222" y="-13.5" font-family="Helvetica,sans-Serif" font-size="10.00">utility</text>
</g>
<!-- Node16&#45;&gt;Node22 -->
<g id="edge26" class="edge"><title>Node16&#45;&gt;Node22</title>
<path fill="none" stroke="midnightblue" d="M367.79,-68.4374C336.365,-60.5164 289.928,-47.625 251,-32 249.409,-31.3613 247.789,-30.6641 246.169,-29.9311"/>
<polygon fill="midnightblue" stroke="midnightblue" points="247.617,-26.7432 237.095,-25.5006 244.545,-33.0334 247.617,-26.7432"/>
</g>
<!-- Node23 -->
<g id="node23" class="node"><title>Node23</title>
<polygon fill="none" stroke="#bfbfbf" points="260.5,-6.5 260.5,-25.5 343.5,-25.5 343.5,-6.5 260.5,-6.5"/>
<text text-anchor="middle" x="302" y="-13.5" font-family="Helvetica,sans-Serif" font-size="10.00">unordered_map</text>
</g>
<!-- Node16&#45;&gt;Node23 -->
<g id="edge28" class="edge"><title>Node16&#45;&gt;Node23</title>
<path fill="none" stroke="midnightblue" d="M389.386,-68.4035C372.647,-58.5569 344.996,-42.2915 325.281,-30.6949"/>
<polygon fill="midnightblue" stroke="midnightblue" points="326.981,-27.6341 316.587,-25.5806 323.432,-33.6676 326.981,-27.6341"/>
</g>
<!-- Node24 -->
<g id="node24" class="node"><title>Node24</title>
<polygon fill="none" stroke="#bfbfbf" points="361.5,-6.5 361.5,-25.5 458.5,-25.5 458.5,-6.5 361.5,-6.5"/>
<text text-anchor="middle" x="410" y="-13.5" font-family="Helvetica,sans-Serif" font-size="10.00">FairMQMessage.h</text>
</g>
<!-- Node16&#45;&gt;Node24 -->
<g id="edge29" class="edge"><title>Node16&#45;&gt;Node24</title>
<path fill="none" stroke="midnightblue" d="M404.86,-68.4035C405.706,-59.9381 407.027,-46.7283 408.118,-35.8199"/>
<polygon fill="midnightblue" stroke="midnightblue" points="411.629,-35.8793 409.142,-25.5806 404.664,-35.1827 411.629,-35.8793"/>
</g>
<!-- Node25 -->
<g id="node25" class="node"><title>Node25</title>
<polygon fill="none" stroke="#bfbfbf" points="476.5,-6.5 476.5,-25.5 607.5,-25.5 607.5,-6.5 476.5,-6.5"/>
<text text-anchor="middle" x="542" y="-13.5" font-family="Helvetica,sans-Serif" font-size="10.00">FairMQTransportFactory.h</text>
</g>
<!-- Node16&#45;&gt;Node25 -->
<g id="edge30" class="edge"><title>Node16&#45;&gt;Node25</title>
<path fill="none" stroke="midnightblue" d="M423.772,-68.4035C447.136,-58.245 486.214,-41.2547 513.003,-29.6074"/>
<polygon fill="midnightblue" stroke="midnightblue" points="514.489,-32.7777 522.265,-25.5806 511.698,-26.3582 514.489,-32.7777"/>
</g>
<!-- Node26&#45;&gt;Node6 -->
<g id="edge35" class="edge"><title>Node26&#45;&gt;Node6</title>
<path fill="none" stroke="midnightblue" d="M226.428,-180.402C205.837,-172.584 176.175,-159.861 153,-144 104.855,-111.049 58.1789,-59.7749 35.7785,-33.5985"/>
<polygon fill="midnightblue" stroke="midnightblue" points="38.2723,-31.1268 29.1455,-25.7461 32.9248,-35.644 38.2723,-31.1268"/>
</g>
<!-- Node26&#45;&gt;Node9 -->
<g id="edge32" class="edge"><title>Node26&#45;&gt;Node9</title>
<path fill="none" stroke="midnightblue" d="M275.243,-180.444C300.871,-171.399 341.485,-157.064 370.238,-146.916"/>
<polygon fill="midnightblue" stroke="midnightblue" points="371.605,-150.145 379.87,-143.516 369.275,-143.544 371.605,-150.145"/>
</g>
<!-- Node27 -->
<g id="node27" class="node"><title>Node27</title>
<polygon fill="none" stroke="#bfbfbf" points="162.5,-124.5 162.5,-143.5 221.5,-143.5 221.5,-124.5 162.5,-124.5"/>
<text text-anchor="middle" x="192" y="-131.5" font-family="Helvetica,sans-Serif" font-size="10.00">functional</text>
</g>
<!-- Node26&#45;&gt;Node27 -->
<g id="edge33" class="edge"><title>Node26&#45;&gt;Node27</title>
<path fill="none" stroke="midnightblue" d="M241.521,-180.324C232.799,-172.341 219.657,-160.313 209.102,-150.653"/>
<polygon fill="midnightblue" stroke="midnightblue" points="211.392,-148.004 201.652,-143.834 206.666,-153.167 211.392,-148.004"/>
</g>
<!-- Node28 -->
<g id="node28" class="node"><title>Node28</title>
<polygon fill="none" stroke="#bfbfbf" points="239.5,-124.5 239.5,-143.5 274.5,-143.5 274.5,-124.5 239.5,-124.5"/>
<text text-anchor="middle" x="257" y="-131.5" font-family="Helvetica,sans-Serif" font-size="10.00">map</text>
</g>
<!-- Node26&#45;&gt;Node28 -->
<g id="edge34" class="edge"><title>Node26&#45;&gt;Node28</title>
<path fill="none" stroke="midnightblue" d="M251.991,-180.083C252.786,-172.927 253.929,-162.635 254.923,-153.691"/>
<polygon fill="midnightblue" stroke="midnightblue" points="258.402,-154.076 256.028,-143.751 251.445,-153.303 258.402,-154.076"/>
</g>
<!-- Node30&#45;&gt;Node3 -->
<g id="edge41" class="edge"><title>Node30&#45;&gt;Node3</title>
<path fill="none" stroke="midnightblue" d="M759.994,-236.368C733.851,-217.573 671.532,-172.768 639.215,-149.533"/>
<polygon fill="midnightblue" stroke="midnightblue" points="641.112,-146.587 630.95,-143.591 637.026,-152.271 641.112,-146.587"/>
</g>
</g>
</svg>
