<?xml version="1.0" encoding="UTF-8" standalone="no"?>
<!DOCTYPE svg PUBLIC "-//W3C//DTD SVG 1.1//EN"
 "http://www.w3.org/Graphics/SVG/1.1/DTD/svg11.dtd">
<!-- Generated by graphviz version 2.36.0 (20140111.2315)
 -->
<!-- Title: /home/travis/build/AliceO2Group/AliceO2/DataFormats/Headers/src/DataHeader.cxx Pages: 1 -->
<!--zoomable 242 -->
<svg id="main" version="1.1" xmlns="http://www.w3.org/2000/svg" xmlns:xlink="http://www.w3.org/1999/xlink" xml:space="preserve" onload="init(evt)">
<style type="text/css"><![CDATA[
.edge:hover path { stroke: red; }
.edge:hover polygon { stroke: red; fill: red; }
]]></style>
<script type="text/javascript"><![CDATA[
var edges = document.getElementsByTagName('g');
if (edges && edges.length) {
  for (var i=0;i<edges.length;i++) {
    if (edges[i].id.substr(0,4)=='edge') {
      edges[i].setAttribute('class','edge');
    }
  }
}
]]></script>
        <defs>
                <circle id="rim" cx="0" cy="0" r="7"/>
                <circle id="rim2" cx="0" cy="0" r="3.5"/>
                <g id="zoomPlus">
                        <use xlink:href="#rim" fill="#404040">
                                <set attributeName="fill" to="#808080" begin="zoomplus.mouseover" end="zoomplus.mouseout"/>
                        </use>
                        <path d="M-4,0h8M0,-4v8" fill="none" stroke="white" stroke-width="1.5" pointer-events="none"/>
                </g>
                <g id="zoomMin">
                        <use xlink:href="#rim" fill="#404040">
                                <set attributeName="fill" to="#808080" begin="zoomminus.mouseover" end="zoomminus.mouseout"/>
                        </use>
                        <path d="M-4,0h8" fill="none" stroke="white" stroke-width="1.5" pointer-events="none"/>
                </g>
                <g id="dirArrow">
                        <path fill="none" stroke="white" stroke-width="1.5" d="M0,-3.0v7 M-2.5,-0.5L0,-3.0L2.5,-0.5"/>
                </g>
               <g id="resetDef">
                       <use xlink:href="#rim2" fill="#404040">
                               <set attributeName="fill" to="#808080" begin="reset.mouseover" end="reset.mouseout"/>
                       </use>
               </g>
        </defs>

<script type="text/javascript">
var viewWidth = 1257;
var viewHeight = 242;
var sectionId = 'dynsection-0';
</script>
<script xlink:href="../../svgpan.js"/>
<svg id="graph" class="graph">
<g id="viewport">
<title>/home/travis/build/AliceO2Group/AliceO2/DataFormats/Headers/src/DataHeader.cxx</title>
<!-- Node1 -->
<g id="node1" class="node"><title>Node1</title>
<polygon fill="#bfbfbf" stroke="black" points="1093.5,-181 1093.5,-233 1226.5,-233 1226.5,-181 1093.5,-181"/>
<text text-anchor="start" x="1101.5" y="-221" font-family="Helvetica,sans-Serif" font-size="10.00">/home/travis/build</text>
<text text-anchor="start" x="1101.5" y="-210" font-family="Helvetica,sans-Serif" font-size="10.00">/AliceO2Group/AliceO2</text>
<text text-anchor="start" x="1101.5" y="-199" font-family="Helvetica,sans-Serif" font-size="10.00">/DataFormats/Headers/src</text>
<text text-anchor="middle" x="1160" y="-188" font-family="Helvetica,sans-Serif" font-size="10.00">/DataHeader.cxx</text>
</g>
<!-- Node2 -->
<g id="node2" class="node"><title>Node2</title>
<g id="a_node2"><a xlink:href="../../dc/dcd/DataHeader_8h.html" target="_top" xlink:title="Headers/DataHeader.h">
<polygon fill="none" stroke="black" points="534.5,-124.5 534.5,-143.5 651.5,-143.5 651.5,-124.5 534.5,-124.5"/>
<text text-anchor="middle" x="593" y="-131.5" font-family="Helvetica,sans-Serif" font-size="10.00">Headers/DataHeader.h</text>
</a>
</g>
</g>
<!-- Node1&#45;&gt;Node2 -->
<g id="edge1" class="edge"><title>Node1&#45;&gt;Node2</title>
<path fill="none" stroke="midnightblue" d="M1093.29,-197.647C984.85,-184.068 771.441,-157.344 661.719,-143.605"/>
<polygon fill="midnightblue" stroke="midnightblue" points="662.11,-140.127 651.753,-142.357 661.24,-147.072 662.11,-140.127"/>
</g>
<!-- Node6 -->
<g id="node6" class="node"><title>Node6</title>
<polygon fill="none" stroke="#bfbfbf" points="1203,-6.5 1203,-25.5 1249,-25.5 1249,-6.5 1203,-6.5"/>
<text text-anchor="middle" x="1226" y="-13.5" font-family="Helvetica,sans-Serif" font-size="10.00">cstring</text>
</g>
<!-- Node1&#45;&gt;Node6 -->
<g id="edge23" class="edge"><title>Node1&#45;&gt;Node6</title>
<path fill="none" stroke="midnightblue" d="M1164.98,-180.934C1168.51,-164.539 1173.73,-142.762 1180,-124 1190.75,-91.8455 1207.15,-55.9101 1217.19,-34.9403"/>
<polygon fill="midnightblue" stroke="midnightblue" points="1220.46,-36.2092 1221.67,-25.6837 1214.16,-33.1568 1220.46,-36.2092"/>
</g>
<!-- Node21 -->
<g id="node21" class="node"><title>Node21</title>
<polygon fill="none" stroke="#bfbfbf" points="1188.5,-124.5 1188.5,-143.5 1231.5,-143.5 1231.5,-124.5 1188.5,-124.5"/>
<text text-anchor="middle" x="1210" y="-131.5" font-family="Helvetica,sans-Serif" font-size="10.00">cstdio</text>
</g>
<!-- Node1&#45;&gt;Node21 -->
<g id="edge22" class="edge"><title>Node1&#45;&gt;Node21</title>
<path fill="none" stroke="midnightblue" d="M1177.77,-180.768C1184.45,-171.284 1191.88,-160.731 1197.92,-152.15"/>
<polygon fill="midnightblue" stroke="midnightblue" points="1200.94,-153.948 1203.83,-143.757 1195.21,-149.918 1200.94,-153.948"/>
</g>
<!-- Node3 -->
<g id="node3" class="node"><title>Node3</title>
<polygon fill="none" stroke="#bfbfbf" points="852,-68.5 852,-87.5 898,-87.5 898,-68.5 852,-68.5"/>
<text text-anchor="middle" x="875" y="-75.5" font-family="Helvetica,sans-Serif" font-size="10.00">cstdint</text>
</g>
<!-- Node2&#45;&gt;Node3 -->
<g id="edge2" class="edge"><title>Node2&#45;&gt;Node3</title>
<path fill="none" stroke="midnightblue" d="M648.171,-124.451C698.814,-116.268 775.802,-102.978 842,-88 842.101,-87.9771 842.203,-87.954 842.305,-87.9309"/>
<polygon fill="midnightblue" stroke="midnightblue" points="843.109,-91.3373 851.986,-85.5526 841.439,-84.5395 843.109,-91.3373"/>
</g>
<!-- Node4 -->
<g id="node4" class="node"><title>Node4</title>
<polygon fill="none" stroke="#bfbfbf" points="313,-68.5 313,-87.5 365,-87.5 365,-68.5 313,-68.5"/>
<text text-anchor="middle" x="339" y="-75.5" font-family="Helvetica,sans-Serif" font-size="10.00">memory</text>
</g>
<!-- Node2&#45;&gt;Node4 -->
<g id="edge3" class="edge"><title>Node2&#45;&gt;Node4</title>
<path fill="none" stroke="midnightblue" d="M547.981,-124.42C505.775,-116.225 440.685,-103.206 375.393,-88.2402"/>
<polygon fill="midnightblue" stroke="midnightblue" points="375.87,-84.7584 365.339,-85.9205 374.296,-91.5792 375.87,-84.7584"/>
</g>
<!-- Node5 -->
<g id="node5" class="node"><title>Node5</title>
<polygon fill="none" stroke="#bfbfbf" points="383.5,-68.5 383.5,-87.5 432.5,-87.5 432.5,-68.5 383.5,-68.5"/>
<text text-anchor="middle" x="408" y="-75.5" font-family="Helvetica,sans-Serif" font-size="10.00">cassert</text>
</g>
<!-- Node2&#45;&gt;Node5 -->
<g id="edge4" class="edge"><title>Node2&#45;&gt;Node5</title>
<path fill="none" stroke="midnightblue" d="M563.686,-124.444C530.767,-114.835 477.395,-99.2558 442.494,-89.0686"/>
<polygon fill="midnightblue" stroke="midnightblue" points="443.316,-85.6626 432.736,-86.2203 441.355,-92.3822 443.316,-85.6626"/>
</g>
<!-- Node2&#45;&gt;Node6 -->
<g id="edge5" class="edge"><title>Node2&#45;&gt;Node6</title>
<path fill="none" stroke="midnightblue" d="M651.811,-128.712C760.808,-119.544 1000.61,-93.627 1193,-32 1195.28,-31.2711 1197.6,-30.4284 1199.91,-29.5218"/>
<polygon fill="midnightblue" stroke="midnightblue" points="1201.35,-32.7127 1209.17,-25.5623 1198.6,-26.2767 1201.35,-32.7127"/>
</g>
<!-- Node7 -->
<g id="node7" class="node"><title>Node7</title>
<polygon fill="none" stroke="#bfbfbf" points="489,-68.5 489,-87.5 545,-87.5 545,-68.5 489,-68.5"/>
<text text-anchor="middle" x="517" y="-75.5" font-family="Helvetica,sans-Serif" font-size="10.00">algorithm</text>
</g>
<!-- Node2&#45;&gt;Node7 -->
<g id="edge6" class="edge"><title>Node2&#45;&gt;Node7</title>
<path fill="none" stroke="midnightblue" d="M580.789,-124.324C569.224,-116.107 551.625,-103.602 537.839,-93.8069"/>
<polygon fill="midnightblue" stroke="midnightblue" points="539.612,-90.7729 529.433,-87.8339 535.557,-96.4791 539.612,-90.7729"/>
</g>
<!-- Node8 -->
<g id="node8" class="node"><title>Node8</title>
<polygon fill="none" stroke="#bfbfbf" points="563.5,-68.5 563.5,-87.5 622.5,-87.5 622.5,-68.5 563.5,-68.5"/>
<text text-anchor="middle" x="593" y="-75.5" font-family="Helvetica,sans-Serif" font-size="10.00">stdexcept</text>
</g>
<!-- Node2&#45;&gt;Node8 -->
<g id="edge7" class="edge"><title>Node2&#45;&gt;Node8</title>
<path fill="none" stroke="midnightblue" d="M593,-124.083C593,-117.006 593,-106.861 593,-97.9865"/>
<polygon fill="midnightblue" stroke="midnightblue" points="596.5,-97.751 593,-87.7511 589.5,-97.7511 596.5,-97.751"/>
</g>
<!-- Node9 -->
<g id="node9" class="node"><title>Node9</title>
<polygon fill="none" stroke="#bfbfbf" points="-0.5,-6.5 -0.5,-25.5 40.5,-25.5 40.5,-6.5 -0.5,-6.5"/>
<text text-anchor="middle" x="20" y="-13.5" font-family="Helvetica,sans-Serif" font-size="10.00">string</text>
</g>
<!-- Node2&#45;&gt;Node9 -->
<g id="edge8" class="edge"><title>Node2&#45;&gt;Node9</title>
<path fill="none" stroke="midnightblue" d="M569.79,-124.495C546.756,-115.883 510.569,-101.887 480,-88 462.265,-79.943 459.706,-73.4363 441,-68 273.421,-19.2976 217.826,-79.8468 50,-32 48.026,-31.4372 46.0268,-30.745 44.0469,-29.9697"/>
<polygon fill="midnightblue" stroke="midnightblue" points="45.0624,-26.5858 34.5121,-25.6151 42.1543,-32.9532 45.0624,-26.5858"/>
</g>
<!-- Node10 -->
<g id="node10" class="node"><title>Node10</title>
<g id="a_node10"><a xlink:href="../../dc/d03/MemoryResources_8h.html" target="_top" xlink:title="MemoryResources/MemoryResources.h">
<polygon fill="none" stroke="black" points="640.5,-68.5 640.5,-87.5 833.5,-87.5 833.5,-68.5 640.5,-68.5"/>
<text text-anchor="middle" x="737" y="-75.5" font-family="Helvetica,sans-Serif" font-size="10.00">MemoryResources/MemoryResources.h</text>
</a>
</g>
</g>
<!-- Node2&#45;&gt;Node10 -->
<g id="edge9" class="edge"><title>Node2&#45;&gt;Node10</title>
<path fill="none" stroke="midnightblue" d="M615.817,-124.444C639.832,-115.438 677.829,-101.189 704.869,-91.049"/>
<polygon fill="midnightblue" stroke="midnightblue" points="706.155,-94.3049 714.29,-87.5164 703.697,-87.7506 706.155,-94.3049"/>
</g>
<!-- Node10&#45;&gt;Node6 -->
<g id="edge14" class="edge"><title>Node10&#45;&gt;Node6</title>
<path fill="none" stroke="midnightblue" d="M831.28,-68.4893C959.718,-56.7793 1175.81,-36.6189 1193,-32 1195.5,-31.3284 1198.05,-30.4855 1200.56,-29.5436"/>
<polygon fill="midnightblue" stroke="midnightblue" points="1202.1,-32.6947 1209.94,-25.5738 1199.37,-26.2483 1202.1,-32.6947"/>
</g>
<!-- Node10&#45;&gt;Node9 -->
<g id="edge15" class="edge"><title>Node10&#45;&gt;Node9</title>
<path fill="none" stroke="midnightblue" d="M640.244,-68.6933C637.127,-68.4549 634.039,-68.2232 631,-68 501.989,-58.5274 174.919,-65.6012 50,-32 47.8069,-31.4101 45.5858,-30.6518 43.3961,-29.7901"/>
<polygon fill="midnightblue" stroke="midnightblue" points="44.7294,-26.5509 34.1817,-25.5523 41.8044,-32.9106 44.7294,-26.5509"/>
</g>
<!-- Node11 -->
<g id="node11" class="node"><title>Node11</title>
<polygon fill="none" stroke="#bfbfbf" points="59,-1 59,-31 159,-31 159,-1 59,-1"/>
<text text-anchor="start" x="67" y="-19" font-family="Helvetica,sans-Serif" font-size="10.00">boost/container/flat</text>
<text text-anchor="middle" x="109" y="-8" font-family="Helvetica,sans-Serif" font-size="10.00">_map.hpp</text>
</g>
<!-- Node10&#45;&gt;Node11 -->
<g id="edge10" class="edge"><title>Node10&#45;&gt;Node11</title>
<path fill="none" stroke="midnightblue" d="M640.24,-68.756C637.124,-68.4996 634.037,-68.247 631,-68 428.595,-51.5387 373.421,-65.0991 169.241,-32.0193"/>
<polygon fill="midnightblue" stroke="midnightblue" points="169.523,-28.5189 159.089,-30.3562 168.391,-35.4268 169.523,-28.5189"/>
</g>
<!-- Node12 -->
<g id="node12" class="node"><title>Node12</title>
<polygon fill="none" stroke="#bfbfbf" points="177,-1 177,-31 293,-31 293,-1 177,-1"/>
<text text-anchor="start" x="185" y="-19" font-family="Helvetica,sans-Serif" font-size="10.00">boost/container/pmr</text>
<text text-anchor="middle" x="235" y="-8" font-family="Helvetica,sans-Serif" font-size="10.00">/memory_resource.hpp</text>
</g>
<!-- Node10&#45;&gt;Node12 -->
<g id="edge11" class="edge"><title>Node10&#45;&gt;Node12</title>
<path fill="none" stroke="midnightblue" d="M641.888,-68.4749C538.954,-59.0263 380.276,-43.7603 303.325,-32.0543"/>
<polygon fill="midnightblue" stroke="midnightblue" points="303.447,-28.5303 293.024,-30.4271 302.355,-35.4446 303.447,-28.5303"/>
</g>
<!-- Node13 -->
<g id="node13" class="node"><title>Node13</title>
<polygon fill="none" stroke="#bfbfbf" points="311,-1 311,-31 467,-31 467,-1 311,-1"/>
<text text-anchor="start" x="319" y="-19" font-family="Helvetica,sans-Serif" font-size="10.00">boost/container/pmr</text>
<text text-anchor="middle" x="389" y="-8" font-family="Helvetica,sans-Serif" font-size="10.00">/monotonic_buffer_resource.hpp</text>
</g>
<!-- Node10&#45;&gt;Node13 -->
<g id="edge12" class="edge"><title>Node10&#45;&gt;Node13</title>
<path fill="none" stroke="midnightblue" d="M687.51,-68.4672C632.893,-59.0505 543.905,-43.7078 477.275,-32.2198"/>
<polygon fill="midnightblue" stroke="midnightblue" points="477.647,-28.7324 467.198,-30.4824 476.458,-35.6307 477.647,-28.7324"/>
</g>
<!-- Node14 -->
<g id="node14" class="node"><title>Node14</title>
<polygon fill="none" stroke="#bfbfbf" points="485.5,-1 485.5,-31 618.5,-31 618.5,-1 485.5,-1"/>
<text text-anchor="start" x="493.5" y="-19" font-family="Helvetica,sans-Serif" font-size="10.00">boost/container/pmr</text>
<text text-anchor="middle" x="552" y="-8" font-family="Helvetica,sans-Serif" font-size="10.00">/polymorphic_allocator.hpp</text>
</g>
<!-- Node10&#45;&gt;Node14 -->
<g id="edge13" class="edge"><title>Node10&#45;&gt;Node14</title>
<path fill="none" stroke="midnightblue" d="M710.494,-68.4035C683.123,-59.5263 639.666,-45.4321 605.173,-34.2453"/>
<polygon fill="midnightblue" stroke="midnightblue" points="605.837,-30.7811 595.245,-31.0253 603.677,-37.4397 605.837,-30.7811"/>
</g>
<!-- Node15 -->
<g id="node15" class="node"><title>Node15</title>
<polygon fill="none" stroke="#bfbfbf" points="637,-6.5 637,-25.5 699,-25.5 699,-6.5 637,-6.5"/>
<text text-anchor="middle" x="668" y="-13.5" font-family="Helvetica,sans-Serif" font-size="10.00">type_traits</text>
</g>
<!-- Node10&#45;&gt;Node15 -->
<g id="edge16" class="edge"><title>Node10&#45;&gt;Node15</title>
<path fill="none" stroke="midnightblue" d="M727.114,-68.4035C716.354,-59.047 698.929,-43.8948 685.779,-32.4599"/>
<polygon fill="midnightblue" stroke="midnightblue" points="687.71,-29.5013 677.868,-25.5806 683.117,-34.7835 687.71,-29.5013"/>
</g>
<!-- Node16 -->
<g id="node16" class="node"><title>Node16</title>
<polygon fill="none" stroke="#bfbfbf" points="717,-6.5 717,-25.5 757,-25.5 757,-6.5 717,-6.5"/>
<text text-anchor="middle" x="737" y="-13.5" font-family="Helvetica,sans-Serif" font-size="10.00">utility</text>
</g>
<!-- Node10&#45;&gt;Node16 -->
<g id="edge17" class="edge"><title>Node10&#45;&gt;Node16</title>
<path fill="none" stroke="midnightblue" d="M737,-68.4035C737,-59.9381 737,-46.7283 737,-35.8199"/>
<polygon fill="midnightblue" stroke="midnightblue" points="740.5,-35.5806 737,-25.5806 733.5,-35.5806 740.5,-35.5806"/>
</g>
<!-- Node17 -->
<g id="node17" class="node"><title>Node17</title>
<polygon fill="none" stroke="#bfbfbf" points="775,-6.5 775,-25.5 819,-25.5 819,-6.5 775,-6.5"/>
<text text-anchor="middle" x="797" y="-13.5" font-family="Helvetica,sans-Serif" font-size="10.00">vector</text>
</g>
<!-- Node10&#45;&gt;Node17 -->
<g id="edge18" class="edge"><title>Node10&#45;&gt;Node17</title>
<path fill="none" stroke="midnightblue" d="M745.597,-68.4035C754.864,-59.1361 769.817,-44.1828 781.212,-32.7876"/>
<polygon fill="midnightblue" stroke="midnightblue" points="783.823,-35.1266 788.419,-25.5806 778.873,-30.1768 783.823,-35.1266"/>
</g>
<!-- Node18 -->
<g id="node18" class="node"><title>Node18</title>
<polygon fill="none" stroke="#bfbfbf" points="837.5,-6.5 837.5,-25.5 920.5,-25.5 920.5,-6.5 837.5,-6.5"/>
<text text-anchor="middle" x="879" y="-13.5" font-family="Helvetica,sans-Serif" font-size="10.00">unordered_map</text>
</g>
<!-- Node10&#45;&gt;Node18 -->
<g id="edge19" class="edge"><title>Node10&#45;&gt;Node18</title>
<path fill="none" stroke="midnightblue" d="M757.345,-68.4035C781.387,-58.245 821.597,-41.2547 849.163,-29.6074"/>
<polygon fill="midnightblue" stroke="midnightblue" points="850.843,-32.6968 858.693,-25.5806 848.119,-26.2488 850.843,-32.6968"/>
</g>
<!-- Node19 -->
<g id="node19" class="node"><title>Node19</title>
<polygon fill="none" stroke="#bfbfbf" points="938.5,-6.5 938.5,-25.5 1035.5,-25.5 1035.5,-6.5 938.5,-6.5"/>
<text text-anchor="middle" x="987" y="-13.5" font-family="Helvetica,sans-Serif" font-size="10.00">FairMQMessage.h</text>
</g>
<!-- Node10&#45;&gt;Node19 -->
<g id="edge20" class="edge"><title>Node10&#45;&gt;Node19</title>
<path fill="none" stroke="midnightblue" d="M774.587,-68.4578C813.338,-59.5884 875.481,-45.1906 929,-32 934.046,-30.7563 939.332,-29.4267 944.572,-28.092"/>
<polygon fill="midnightblue" stroke="midnightblue" points="945.7,-31.4159 954.517,-25.5404 943.961,-24.6355 945.7,-31.4159"/>
</g>
<!-- Node20 -->
<g id="node20" class="node"><title>Node20</title>
<polygon fill="none" stroke="#bfbfbf" points="1053.5,-6.5 1053.5,-25.5 1184.5,-25.5 1184.5,-6.5 1053.5,-6.5"/>
<text text-anchor="middle" x="1119" y="-13.5" font-family="Helvetica,sans-Serif" font-size="10.00">FairMQTransportFactory.h</text>
</g>
<!-- Node10&#45;&gt;Node20 -->
<g id="edge21" class="edge"><title>Node10&#45;&gt;Node20</title>
<path fill="none" stroke="midnightblue" d="M801.839,-68.4901C864.08,-60.0864 960.667,-46.4307 1044,-32 1051.82,-30.6459 1060.08,-29.1064 1068.14,-27.5421"/>
<polygon fill="midnightblue" stroke="midnightblue" points="1069.07,-30.9267 1078.2,-25.5592 1067.71,-24.0588 1069.07,-30.9267"/>
</g>
</g>
</svg>
        <g id="navigator" transform="translate(0 0)" fill="#404254">
                <rect fill="#f2f5e9" fill-opacity="0.5" stroke="#606060" stroke-width=".5" x="0" y="0" width="60" height="60"/>
                <use id="zoomplus" xlink:href="#zoomPlus" x="17" y="9" onmousedown="handleZoom(evt,'in')"/>
                <use id="zoomminus" xlink:href="#zoomMin" x="42" y="9" onmousedown="handleZoom(evt,'out')"/>
                <use id="reset" xlink:href="#resetDef" x="30" y="36" onmousedown="handleReset()"/>
                <g id="arrowUp" xlink:href="#dirArrow" transform="translate(30 24)" onmousedown="handlePan(0,-1)">
                  <use xlink:href="#rim" fill="#404040">
                        <set attributeName="fill" to="#808080" begin="arrowUp.mouseover" end="arrowUp.mouseout"/>
                  </use>
                  <path fill="none" stroke="white" stroke-width="1.5" d="M0,-3.0v7 M-2.5,-0.5L0,-3.0L2.5,-0.5"/>
                </g>
                <g id="arrowRight" xlink:href="#dirArrow" transform="rotate(90) translate(36 -43)" onmousedown="handlePan(1,0)">
                  <use xlink:href="#rim" fill="#404040">
                        <set attributeName="fill" to="#808080" begin="arrowRight.mouseover" end="arrowRight.mouseout"/>
                  </use>
                  <path fill="none" stroke="white" stroke-width="1.5" d="M0,-3.0v7 M-2.5,-0.5L0,-3.0L2.5,-0.5"/>
                </g>
                <g id="arrowDown" xlink:href="#dirArrow" transform="rotate(180) translate(-30 -48)" onmousedown="handlePan(0,1)">
                  <use xlink:href="#rim" fill="#404040">
                        <set attributeName="fill" to="#808080" begin="arrowDown.mouseover" end="arrowDown.mouseout"/>
                  </use>
                  <path fill="none" stroke="white" stroke-width="1.5" d="M0,-3.0v7 M-2.5,-0.5L0,-3.0L2.5,-0.5"/>
                </g>
                <g id="arrowLeft" xlink:href="#dirArrow" transform="rotate(270) translate(-36 17)" onmousedown="handlePan(-1,0)">
                  <use xlink:href="#rim" fill="#404040">
                        <set attributeName="fill" to="#808080" begin="arrowLeft.mouseover" end="arrowLeft.mouseout"/>
                  </use>
                  <path fill="none" stroke="white" stroke-width="1.5" d="M0,-3.0v7 M-2.5,-0.5L0,-3.0L2.5,-0.5"/>
                </g>
        </g>
        <svg viewBox="0 0 15 15" width="100%" height="30px" preserveAspectRatio="xMaxYMin meet">
         <g id="arrow_out" transform="scale(0.3 0.3)">
          <a xlink:href="DataHeader_8cxx__incl_org.svg" target="_base">
           <rect id="button" ry="5" rx="5" y="6" x="6" height="38" width="38"
                fill="#f2f5e9" fill-opacity="0.5" stroke="#606060" stroke-width="1.0"/>
           <path id="arrow"
             d="M 11.500037,31.436501 C 11.940474,20.09759 22.043105,11.32322 32.158766,21.979434 L 37.068811,17.246167 C 37.068811,17.246167 37.088388,32 37.088388,32 L 22.160133,31.978069 C 22.160133,31.978069 26.997745,27.140456 26.997745,27.140456 C 18.528582,18.264221 13.291696,25.230495 11.500037,31.436501 z"
             style="fill:#404040;"/>
          </a>
         </g>
        </svg>
</svg>
