<?xml version="1.0" encoding="UTF-8" standalone="no"?>
<!DOCTYPE svg PUBLIC "-//W3C//DTD SVG 1.1//EN"
 "http://www.w3.org/Graphics/SVG/1.1/DTD/svg11.dtd">
<!-- Generated by graphviz version 2.36.0 (20140111.2315)
 -->
<!-- Title: o2::header::DataHeader Pages: 1 -->
<svg width="1506pt" height="1096pt"
 viewBox="0.00 0.00 1505.63 1096.00" xmlns="http://www.w3.org/2000/svg" xmlns:xlink="http://www.w3.org/1999/xlink">
<g id="graph0" class="graph" transform="scale(1 1) rotate(0) translate(4 1092)">
<title>o2::header::DataHeader</title>
<!-- Node1 -->
<g id="node1" class="node"><title>Node1</title>
<polygon fill="#bfbfbf" stroke="black" points="718.128,-1 718.128,-157 839.128,-157 839.128,-1 718.128,-1"/>
<text text-anchor="middle" x="778.628" y="-145" font-family="Helvetica,sans-Serif" font-size="10.00">o2::header::DataHeader</text>
<polyline fill="none" stroke="black" points="718.128,-138 839.128,-138 "/>
<text text-anchor="middle" x="778.628" y="-126" font-family="Helvetica,sans-Serif" font-size="10.00"> </text>
<polyline fill="none" stroke="black" points="718.128,-119 839.128,-119 "/>
<text text-anchor="start" x="726.128" y="-107" font-family="Helvetica,sans-Serif" font-size="10.00">+ DataHeader()</text>
<text text-anchor="start" x="726.128" y="-96" font-family="Helvetica,sans-Serif" font-size="10.00">+ DataHeader()</text>
<text text-anchor="start" x="726.128" y="-85" font-family="Helvetica,sans-Serif" font-size="10.00">+ DataHeader()</text>
<text text-anchor="start" x="726.128" y="-74" font-family="Helvetica,sans-Serif" font-size="10.00">+ operator=()</text>
<text text-anchor="start" x="726.128" y="-63" font-family="Helvetica,sans-Serif" font-size="10.00">+ operator==()</text>
<text text-anchor="start" x="726.128" y="-52" font-family="Helvetica,sans-Serif" font-size="10.00">+ operator==()</text>
<text text-anchor="start" x="726.128" y="-41" font-family="Helvetica,sans-Serif" font-size="10.00">+ operator==()</text>
<text text-anchor="start" x="726.128" y="-30" font-family="Helvetica,sans-Serif" font-size="10.00">+ operator==()</text>
<text text-anchor="start" x="726.128" y="-19" font-family="Helvetica,sans-Serif" font-size="10.00">+ print()</text>
<text text-anchor="start" x="726.128" y="-8" font-family="Helvetica,sans-Serif" font-size="10.00">+ Get()</text>
</g>
<!-- Node2 -->
<g id="node2" class="node"><title>Node2</title>
<g id="a_node2"><a xlink:href="../../d8/dbd/structo2_1_1header_1_1BaseHeader.html" target="_top" xlink:title="the base header struct Every header type must begin (i.e. derive) with this. Don&#39;t use this struct di...">
<polygon fill="none" stroke="black" points="1010.63,-216.5 1010.63,-361.5 1132.63,-361.5 1132.63,-216.5 1010.63,-216.5"/>
<text text-anchor="middle" x="1071.63" y="-349.5" font-family="Helvetica,sans-Serif" font-size="10.00">o2::header::BaseHeader</text>
<polyline fill="none" stroke="black" points="1010.63,-342.5 1132.63,-342.5 "/>
<text text-anchor="middle" x="1071.63" y="-330.5" font-family="Helvetica,sans-Serif" font-size="10.00"> </text>
<polyline fill="none" stroke="black" points="1010.63,-323.5 1132.63,-323.5 "/>
<text text-anchor="start" x="1018.63" y="-311.5" font-family="Helvetica,sans-Serif" font-size="10.00">+ BaseHeader()</text>
<text text-anchor="start" x="1018.63" y="-300.5" font-family="Helvetica,sans-Serif" font-size="10.00">+ BaseHeader()</text>
<text text-anchor="start" x="1018.63" y="-289.5" font-family="Helvetica,sans-Serif" font-size="10.00">+ BaseHeader()</text>
<text text-anchor="start" x="1018.63" y="-278.5" font-family="Helvetica,sans-Serif" font-size="10.00">+ size()</text>
<text text-anchor="start" x="1018.63" y="-267.5" font-family="Helvetica,sans-Serif" font-size="10.00">+ data()</text>
<text text-anchor="start" x="1018.63" y="-256.5" font-family="Helvetica,sans-Serif" font-size="10.00">+ next()</text>
<text text-anchor="start" x="1018.63" y="-245.5" font-family="Helvetica,sans-Serif" font-size="10.00">+ next()</text>
<text text-anchor="start" x="1018.63" y="-234.5" font-family="Helvetica,sans-Serif" font-size="10.00">+ get()</text>
<text text-anchor="start" x="1018.63" y="-223.5" font-family="Helvetica,sans-Serif" font-size="10.00">+ get()</text>
</a>
</g>
</g>
<!-- Node2&#45;&gt;Node1 -->
<g id="edge1" class="edge"><title>Node2&#45;&gt;Node1</title>
<path fill="none" stroke="midnightblue" d="M1003.2,-214.672C988.805,-201.035 973.232,-187.483 957.628,-176 920.705,-148.829 875.123,-124.498 839.197,-107.129"/>
<polygon fill="none" stroke="midnightblue" points="1000.98,-217.394 1010.62,-221.801 1005.84,-212.347 1000.98,-217.394"/>
</g>
<!-- Node3 -->
<g id="node3" class="node"><title>Node3</title>
<g id="a_node3"><a xlink:href="../../d9/db3/structo2_1_1header_1_1Descriptor.html" target="_top" xlink:title="{o2::header::Descriptor\l\&lt; gSizeHeaderDescriptionString \&gt;\n||+ Descriptor()\l+ Descriptor()\l+ Descriptor()\l+ Descriptor()\l+ operator=()\l+ operator ItgType()\l+ runtimeInit()\l+ operator==()\l+ operator==()\l+ operator!=()\l+ operator!=()\l+ as()\l+ print()\l}">
<polygon fill="none" stroke="black" points="1148.63,-492 1148.63,-692 1314.63,-692 1314.63,-492 1148.63,-492"/>
<text text-anchor="start" x="1156.63" y="-680" font-family="Helvetica,sans-Serif" font-size="10.00">o2::header::Descriptor</text>
<text text-anchor="middle" x="1231.63" y="-669" font-family="Helvetica,sans-Serif" font-size="10.00">&lt; gSizeHeaderDescriptionString &gt;</text>
<polyline fill="none" stroke="black" points="1148.63,-662 1314.63,-662 "/>
<text text-anchor="middle" x="1231.63" y="-650" font-family="Helvetica,sans-Serif" font-size="10.00"> </text>
<polyline fill="none" stroke="black" points="1148.63,-643 1314.63,-643 "/>
<text text-anchor="start" x="1156.63" y="-631" font-family="Helvetica,sans-Serif" font-size="10.00">+ Descriptor()</text>
<text text-anchor="start" x="1156.63" y="-620" font-family="Helvetica,sans-Serif" font-size="10.00">+ Descriptor()</text>
<text text-anchor="start" x="1156.63" y="-609" font-family="Helvetica,sans-Serif" font-size="10.00">+ Descriptor()</text>
<text text-anchor="start" x="1156.63" y="-598" font-family="Helvetica,sans-Serif" font-size="10.00">+ Descriptor()</text>
<text text-anchor="start" x="1156.63" y="-587" font-family="Helvetica,sans-Serif" font-size="10.00">+ operator=()</text>
<text text-anchor="start" x="1156.63" y="-576" font-family="Helvetica,sans-Serif" font-size="10.00">+ operator ItgType()</text>
<text text-anchor="start" x="1156.63" y="-565" font-family="Helvetica,sans-Serif" font-size="10.00">+ runtimeInit()</text>
<text text-anchor="start" x="1156.63" y="-554" font-family="Helvetica,sans-Serif" font-size="10.00">+ operator==()</text>
<text text-anchor="start" x="1156.63" y="-543" font-family="Helvetica,sans-Serif" font-size="10.00">+ operator==()</text>
<text text-anchor="start" x="1156.63" y="-532" font-family="Helvetica,sans-Serif" font-size="10.00">+ operator!=()</text>
<text text-anchor="start" x="1156.63" y="-521" font-family="Helvetica,sans-Serif" font-size="10.00">+ operator!=()</text>
<text text-anchor="start" x="1156.63" y="-510" font-family="Helvetica,sans-Serif" font-size="10.00">+ as()</text>
<text text-anchor="start" x="1156.63" y="-499" font-family="Helvetica,sans-Serif" font-size="10.00">+ print()</text>
</a>
</g>
</g>
<!-- Node3&#45;&gt;Node2 -->
<g id="edge2" class="edge"><title>Node3&#45;&gt;Node2</title>
<path fill="none" stroke="#404040" d="M1178.79,-491.607C1158.25,-452.955 1134.99,-409.2 1115.4,-372.353"/>
<polygon fill="none" stroke="#404040" points="1115.35,-372.251 1109,-368.83 1109.72,-361.655 1116.06,-365.075 1115.35,-372.251"/>
<text text-anchor="middle" x="1195.13" y="-421.5" font-family="Helvetica,sans-Serif" font-size="10.00"> +description</text>
</g>
<!-- Node4 -->
<g id="node4" class="node"><title>Node4</title>
<polygon fill="none" stroke="#bfbfbf" points="685.628,-1029.5 685.628,-1086.5 723.628,-1086.5 723.628,-1029.5 685.628,-1029.5"/>
<text text-anchor="middle" x="704.628" y="-1074.5" font-family="Helvetica,sans-Serif" font-size="10.00">Type</text>
<polyline fill="none" stroke="#bfbfbf" points="685.628,-1067.5 723.628,-1067.5 "/>
<text text-anchor="middle" x="704.628" y="-1055.5" font-family="Helvetica,sans-Serif" font-size="10.00"> </text>
<polyline fill="none" stroke="#bfbfbf" points="685.628,-1048.5 723.628,-1048.5 "/>
<text text-anchor="middle" x="704.628" y="-1036.5" font-family="Helvetica,sans-Serif" font-size="10.00"> </text>
</g>
<!-- Node4&#45;&gt;Node3 -->
<g id="edge3" class="edge"><title>Node4&#45;&gt;Node3</title>
<path fill="none" stroke="#404040" d="M723.703,-1052.74C757.812,-1045.01 831.416,-1027.82 892.628,-1010 938.508,-996.64 947.85,-985.763 994.628,-976 1038.31,-966.883 1162.9,-989.376 1194.63,-958 1196.91,-955.739 1211.05,-811.023 1221.16,-704.517"/>
<polygon fill="none" stroke="#404040" points="1221.18,-704.33 1217.77,-697.979 1222.31,-692.384 1225.73,-698.735 1221.18,-704.33"/>
<text text-anchor="middle" x="1226.63" y="-854.5" font-family="Helvetica,sans-Serif" font-size="10.00"> +itg</text>
</g>
<!-- Node8 -->
<g id="node8" class="node"><title>Node8</title>
<g id="a_node8"><a xlink:href="../../d9/db3/structo2_1_1header_1_1Descriptor.html" target="_top" xlink:title="{o2::header::Descriptor\l\&lt; N, PrinterPolicy \&gt;\n||+ Descriptor()\l+ Descriptor()\l+ Descriptor()\l+ operator=()\l+ operator ItgType()\l+ Descriptor()\l+ runtimeInit()\l+ operator==()\l+ operator!=()\l+ operator==()\l+ operator!=()\l+ as()\l+ print()\l}">
<polygon fill="none" stroke="black" points="648.128,-757 648.128,-957 761.128,-957 761.128,-757 648.128,-757"/>
<text text-anchor="start" x="656.128" y="-945" font-family="Helvetica,sans-Serif" font-size="10.00">o2::header::Descriptor</text>
<text text-anchor="middle" x="704.628" y="-934" font-family="Helvetica,sans-Serif" font-size="10.00">&lt; N, PrinterPolicy &gt;</text>
<polyline fill="none" stroke="black" points="648.128,-927 761.128,-927 "/>
<text text-anchor="middle" x="704.628" y="-915" font-family="Helvetica,sans-Serif" font-size="10.00"> </text>
<polyline fill="none" stroke="black" points="648.128,-908 761.128,-908 "/>
<text text-anchor="start" x="656.128" y="-896" font-family="Helvetica,sans-Serif" font-size="10.00">+ Descriptor()</text>
<text text-anchor="start" x="656.128" y="-885" font-family="Helvetica,sans-Serif" font-size="10.00">+ Descriptor()</text>
<text text-anchor="start" x="656.128" y="-874" font-family="Helvetica,sans-Serif" font-size="10.00">+ Descriptor()</text>
<text text-anchor="start" x="656.128" y="-863" font-family="Helvetica,sans-Serif" font-size="10.00">+ operator=()</text>
<text text-anchor="start" x="656.128" y="-852" font-family="Helvetica,sans-Serif" font-size="10.00">+ operator ItgType()</text>
<text text-anchor="start" x="656.128" y="-841" font-family="Helvetica,sans-Serif" font-size="10.00">+ Descriptor()</text>
<text text-anchor="start" x="656.128" y="-830" font-family="Helvetica,sans-Serif" font-size="10.00">+ runtimeInit()</text>
<text text-anchor="start" x="656.128" y="-819" font-family="Helvetica,sans-Serif" font-size="10.00">+ operator==()</text>
<text text-anchor="start" x="656.128" y="-808" font-family="Helvetica,sans-Serif" font-size="10.00">+ operator!=()</text>
<text text-anchor="start" x="656.128" y="-797" font-family="Helvetica,sans-Serif" font-size="10.00">+ operator==()</text>
<text text-anchor="start" x="656.128" y="-786" font-family="Helvetica,sans-Serif" font-size="10.00">+ operator!=()</text>
<text text-anchor="start" x="656.128" y="-775" font-family="Helvetica,sans-Serif" font-size="10.00">+ as()</text>
<text text-anchor="start" x="656.128" y="-764" font-family="Helvetica,sans-Serif" font-size="10.00">+ print()</text>
</a>
</g>
</g>
<!-- Node4&#45;&gt;Node8 -->
<g id="edge8" class="edge"><title>Node4&#45;&gt;Node8</title>
<path fill="none" stroke="#404040" d="M704.628,-1029.33C704.628,-1013.22 704.628,-991.721 704.628,-969.415"/>
<polygon fill="none" stroke="#404040" points="704.628,-969.336 700.628,-963.336 704.628,-957.336 708.628,-963.336 704.628,-969.336"/>
<text text-anchor="middle" x="714.628" y="-990.5" font-family="Helvetica,sans-Serif" font-size="10.00"> +itg</text>
</g>
<!-- Node10 -->
<g id="node10" class="node"><title>Node10</title>
<g id="a_node10"><a xlink:href="../../d9/db3/structo2_1_1header_1_1Descriptor.html" target="_top" xlink:title="{o2::header::Descriptor\l\&lt; gSizeSerializationMethodString \&gt;\n||+ Descriptor()\l+ Descriptor()\l+ Descriptor()\l+ Descriptor()\l+ operator=()\l+ operator ItgType()\l+ runtimeInit()\l+ operator==()\l+ operator==()\l+ operator!=()\l+ operator!=()\l+ as()\l+ print()\l}">
<polygon fill="none" stroke="black" points="757.628,-492 757.628,-692 927.628,-692 927.628,-492 757.628,-492"/>
<text text-anchor="start" x="765.628" y="-680" font-family="Helvetica,sans-Serif" font-size="10.00">o2::header::Descriptor</text>
<text text-anchor="middle" x="842.628" y="-669" font-family="Helvetica,sans-Serif" font-size="10.00">&lt; gSizeSerializationMethodString &gt;</text>
<polyline fill="none" stroke="black" points="757.628,-662 927.628,-662 "/>
<text text-anchor="middle" x="842.628" y="-650" font-family="Helvetica,sans-Serif" font-size="10.00"> </text>
<polyline fill="none" stroke="black" points="757.628,-643 927.628,-643 "/>
<text text-anchor="start" x="765.628" y="-631" font-family="Helvetica,sans-Serif" font-size="10.00">+ Descriptor()</text>
<text text-anchor="start" x="765.628" y="-620" font-family="Helvetica,sans-Serif" font-size="10.00">+ Descriptor()</text>
<text text-anchor="start" x="765.628" y="-609" font-family="Helvetica,sans-Serif" font-size="10.00">+ Descriptor()</text>
<text text-anchor="start" x="765.628" y="-598" font-family="Helvetica,sans-Serif" font-size="10.00">+ Descriptor()</text>
<text text-anchor="start" x="765.628" y="-587" font-family="Helvetica,sans-Serif" font-size="10.00">+ operator=()</text>
<text text-anchor="start" x="765.628" y="-576" font-family="Helvetica,sans-Serif" font-size="10.00">+ operator ItgType()</text>
<text text-anchor="start" x="765.628" y="-565" font-family="Helvetica,sans-Serif" font-size="10.00">+ runtimeInit()</text>
<text text-anchor="start" x="765.628" y="-554" font-family="Helvetica,sans-Serif" font-size="10.00">+ operator==()</text>
<text text-anchor="start" x="765.628" y="-543" font-family="Helvetica,sans-Serif" font-size="10.00">+ operator==()</text>
<text text-anchor="start" x="765.628" y="-532" font-family="Helvetica,sans-Serif" font-size="10.00">+ operator!=()</text>
<text text-anchor="start" x="765.628" y="-521" font-family="Helvetica,sans-Serif" font-size="10.00">+ operator!=()</text>
<text text-anchor="start" x="765.628" y="-510" font-family="Helvetica,sans-Serif" font-size="10.00">+ as()</text>
<text text-anchor="start" x="765.628" y="-499" font-family="Helvetica,sans-Serif" font-size="10.00">+ print()</text>
</a>
</g>
</g>
<!-- Node4&#45;&gt;Node10 -->
<g id="edge17" class="edge"><title>Node4&#45;&gt;Node10</title>
<path fill="none" stroke="#404040" d="M723.649,-1057.81C758.429,-1058.15 832.056,-1053.35 868.628,-1010 941.858,-923.189 821.789,-841.428 896.628,-756 918.647,-730.865 949.021,-764.306 969.628,-738 975.658,-730.303 974.619,-724.408 969.628,-716 962.499,-703.991 953.379,-706.731 937.752,-697.603"/>
<polygon fill="none" stroke="#404040" points="937.616,-697.509 930.407,-697.366 927.765,-690.657 934.975,-690.799 937.616,-697.509"/>
<text text-anchor="middle" x="906.628" y="-854.5" font-family="Helvetica,sans-Serif" font-size="10.00"> +itg</text>
</g>
<!-- Node12 -->
<g id="node12" class="node"><title>Node12</title>
<g id="a_node12"><a xlink:href="../../d9/db3/structo2_1_1header_1_1Descriptor.html" target="_top" xlink:title="{o2::header::Descriptor\l\&lt; gSizeDataOriginString,\l printDataOrigin \&gt;\n||+ Descriptor()\l+ Descriptor()\l+ Descriptor()\l+ Descriptor()\l+ operator=()\l+ operator ItgType()\l+ runtimeInit()\l+ operator==()\l+ operator==()\l+ operator!=()\l+ operator!=()\l+ as()\l+ print()\l}">
<polygon fill="none" stroke="black" points="451.128,-486.5 451.128,-697.5 576.128,-697.5 576.128,-486.5 451.128,-486.5"/>
<text text-anchor="start" x="459.128" y="-685.5" font-family="Helvetica,sans-Serif" font-size="10.00">o2::header::Descriptor</text>
<text text-anchor="start" x="459.128" y="-674.5" font-family="Helvetica,sans-Serif" font-size="10.00">&lt; gSizeDataOriginString,</text>
<text text-anchor="middle" x="513.628" y="-663.5" font-family="Helvetica,sans-Serif" font-size="10.00"> printDataOrigin &gt;</text>
<polyline fill="none" stroke="black" points="451.128,-656.5 576.128,-656.5 "/>
<text text-anchor="middle" x="513.628" y="-644.5" font-family="Helvetica,sans-Serif" font-size="10.00"> </text>
<polyline fill="none" stroke="black" points="451.128,-637.5 576.128,-637.5 "/>
<text text-anchor="start" x="459.128" y="-625.5" font-family="Helvetica,sans-Serif" font-size="10.00">+ Descriptor()</text>
<text text-anchor="start" x="459.128" y="-614.5" font-family="Helvetica,sans-Serif" font-size="10.00">+ Descriptor()</text>
<text text-anchor="start" x="459.128" y="-603.5" font-family="Helvetica,sans-Serif" font-size="10.00">+ Descriptor()</text>
<text text-anchor="start" x="459.128" y="-592.5" font-family="Helvetica,sans-Serif" font-size="10.00">+ Descriptor()</text>
<text text-anchor="start" x="459.128" y="-581.5" font-family="Helvetica,sans-Serif" font-size="10.00">+ operator=()</text>
<text text-anchor="start" x="459.128" y="-570.5" font-family="Helvetica,sans-Serif" font-size="10.00">+ operator ItgType()</text>
<text text-anchor="start" x="459.128" y="-559.5" font-family="Helvetica,sans-Serif" font-size="10.00">+ runtimeInit()</text>
<text text-anchor="start" x="459.128" y="-548.5" font-family="Helvetica,sans-Serif" font-size="10.00">+ operator==()</text>
<text text-anchor="start" x="459.128" y="-537.5" font-family="Helvetica,sans-Serif" font-size="10.00">+ operator==()</text>
<text text-anchor="start" x="459.128" y="-526.5" font-family="Helvetica,sans-Serif" font-size="10.00">+ operator!=()</text>
<text text-anchor="start" x="459.128" y="-515.5" font-family="Helvetica,sans-Serif" font-size="10.00">+ operator!=()</text>
<text text-anchor="start" x="459.128" y="-504.5" font-family="Helvetica,sans-Serif" font-size="10.00">+ as()</text>
<text text-anchor="start" x="459.128" y="-493.5" font-family="Helvetica,sans-Serif" font-size="10.00">+ print()</text>
</a>
</g>
</g>
<!-- Node4&#45;&gt;Node12 -->
<g id="edge26" class="edge"><title>Node4&#45;&gt;Node12</title>
<path fill="none" stroke="#404040" d="M685.451,-1052.86C658.818,-1047.13 609.112,-1036.53 566.628,-1028 524.923,-1019.63 506.923,-1035.16 472.628,-1010 451.465,-994.472 455.742,-981.779 444.628,-958 420.398,-906.16 331.577,-767.448 356.628,-716 374.341,-679.622 408.595,-650.826 440.599,-630.271"/>
<polygon fill="none" stroke="#404040" points="440.69,-630.214 443.68,-623.652 450.887,-623.887 447.897,-630.449 440.69,-630.214"/>
<text text-anchor="middle" x="454.628" y="-854.5" font-family="Helvetica,sans-Serif" font-size="10.00"> +itg</text>
</g>
<!-- Node13 -->
<g id="node13" class="node"><title>Node13</title>
<g id="a_node13"><a xlink:href="../../d9/db3/structo2_1_1header_1_1Descriptor.html" target="_top" xlink:title="{o2::header::Descriptor\l\&lt; gSizeDataDescriptionString,\l printDataDescription \&gt;\n||+ Descriptor()\l+ Descriptor()\l+ Descriptor()\l+ Descriptor()\l+ operator=()\l+ operator ItgType()\l+ runtimeInit()\l+ operator==()\l+ operator==()\l+ operator!=()\l+ operator!=()\l+ as()\l+ print()\l}">
<polygon fill="none" stroke="black" points="178.128,-486.5 178.128,-697.5 327.128,-697.5 327.128,-486.5 178.128,-486.5"/>
<text text-anchor="start" x="186.128" y="-685.5" font-family="Helvetica,sans-Serif" font-size="10.00">o2::header::Descriptor</text>
<text text-anchor="start" x="186.128" y="-674.5" font-family="Helvetica,sans-Serif" font-size="10.00">&lt; gSizeDataDescriptionString,</text>
<text text-anchor="middle" x="252.628" y="-663.5" font-family="Helvetica,sans-Serif" font-size="10.00"> printDataDescription &gt;</text>
<polyline fill="none" stroke="black" points="178.128,-656.5 327.128,-656.5 "/>
<text text-anchor="middle" x="252.628" y="-644.5" font-family="Helvetica,sans-Serif" font-size="10.00"> </text>
<polyline fill="none" stroke="black" points="178.128,-637.5 327.128,-637.5 "/>
<text text-anchor="start" x="186.128" y="-625.5" font-family="Helvetica,sans-Serif" font-size="10.00">+ Descriptor()</text>
<text text-anchor="start" x="186.128" y="-614.5" font-family="Helvetica,sans-Serif" font-size="10.00">+ Descriptor()</text>
<text text-anchor="start" x="186.128" y="-603.5" font-family="Helvetica,sans-Serif" font-size="10.00">+ Descriptor()</text>
<text text-anchor="start" x="186.128" y="-592.5" font-family="Helvetica,sans-Serif" font-size="10.00">+ Descriptor()</text>
<text text-anchor="start" x="186.128" y="-581.5" font-family="Helvetica,sans-Serif" font-size="10.00">+ operator=()</text>
<text text-anchor="start" x="186.128" y="-570.5" font-family="Helvetica,sans-Serif" font-size="10.00">+ operator ItgType()</text>
<text text-anchor="start" x="186.128" y="-559.5" font-family="Helvetica,sans-Serif" font-size="10.00">+ runtimeInit()</text>
<text text-anchor="start" x="186.128" y="-548.5" font-family="Helvetica,sans-Serif" font-size="10.00">+ operator==()</text>
<text text-anchor="start" x="186.128" y="-537.5" font-family="Helvetica,sans-Serif" font-size="10.00">+ operator==()</text>
<text text-anchor="start" x="186.128" y="-526.5" font-family="Helvetica,sans-Serif" font-size="10.00">+ operator!=()</text>
<text text-anchor="start" x="186.128" y="-515.5" font-family="Helvetica,sans-Serif" font-size="10.00">+ operator!=()</text>
<text text-anchor="start" x="186.128" y="-504.5" font-family="Helvetica,sans-Serif" font-size="10.00">+ as()</text>
<text text-anchor="start" x="186.128" y="-493.5" font-family="Helvetica,sans-Serif" font-size="10.00">+ print()</text>
</a>
</g>
</g>
<!-- Node4&#45;&gt;Node13 -->
<g id="edge32" class="edge"><title>Node4&#45;&gt;Node13</title>
<path fill="none" stroke="#404040" d="M685.496,-1052.62C658.916,-1046.62 609.271,-1035.7 566.628,-1028 488.572,-1013.91 266.174,-1019.94 216.628,-958 149.443,-874.01 201.367,-822.467 216.628,-716 216.94,-713.823 217.281,-711.631 217.65,-709.429"/>
<polygon fill="none" stroke="#404040" points="217.661,-709.367 214.828,-702.736 219.86,-697.57 222.693,-704.202 217.661,-709.367"/>
<text text-anchor="middle" x="226.628" y="-854.5" font-family="Helvetica,sans-Serif" font-size="10.00"> +itg</text>
</g>
<!-- Node5 -->
<g id="node5" class="node"><title>Node5</title>
<polygon fill="none" stroke="#bfbfbf" points="878.128,-1029.5 878.128,-1086.5 913.128,-1086.5 913.128,-1029.5 878.128,-1029.5"/>
<text text-anchor="middle" x="895.628" y="-1074.5" font-family="Helvetica,sans-Serif" font-size="10.00">char</text>
<polyline fill="none" stroke="#bfbfbf" points="878.128,-1067.5 913.128,-1067.5 "/>
<text text-anchor="middle" x="895.628" y="-1055.5" font-family="Helvetica,sans-Serif" font-size="10.00"> </text>
<polyline fill="none" stroke="#bfbfbf" points="878.128,-1048.5 913.128,-1048.5 "/>
<text text-anchor="middle" x="895.628" y="-1036.5" font-family="Helvetica,sans-Serif" font-size="10.00"> </text>
</g>
<!-- Node5&#45;&gt;Node2 -->
<g id="edge14" class="edge"><title>Node5&#45;&gt;Node2</title>
<path fill="none" stroke="#404040" d="M913.325,-1055.24C983.227,-1047.92 1238.73,-1017.39 1288.63,-958 1322.46,-917.737 1342.54,-535.068 1323.63,-486 1300.76,-426.694 1282.77,-411.615 1227.63,-380 1196.79,-362.322 1179.19,-377.504 1144.02,-362.236"/>
<polygon fill="none" stroke="#404040" points="1143.8,-362.126 1136.65,-363.023 1133.07,-356.764 1140.22,-355.866 1143.8,-362.126"/>
<text text-anchor="middle" x="1357.13" y="-724.5" font-family="Helvetica,sans-Serif" font-size="10.00"> +magicString</text>
</g>
<!-- Node5&#45;&gt;Node3 -->
<g id="edge4" class="edge"><title>Node5&#45;&gt;Node3</title>
<path fill="none" stroke="#404040" d="M913.324,-1045.81C942.935,-1027.7 1004.96,-992.344 1062.63,-976 1100.88,-965.158 1213.97,-987.493 1240.63,-958 1273.26,-921.905 1263.51,-797.838 1250.49,-704.291"/>
<polygon fill="none" stroke="#404040" points="1250.45,-704.055 1245.64,-698.68 1248.76,-692.175 1253.56,-697.55 1250.45,-704.055"/>
<text text-anchor="middle" x="1274.13" y="-854.5" font-family="Helvetica,sans-Serif" font-size="10.00"> +str</text>
</g>
<!-- Node5&#45;&gt;Node8 -->
<g id="edge9" class="edge"><title>Node5&#45;&gt;Node8</title>
<path fill="none" stroke="#404040" d="M878.001,-1038.64C853.618,-1013.23 808.277,-965.991 770.078,-926.192"/>
<polygon fill="none" stroke="#404040" points="769.856,-925.96 762.815,-924.401 761.546,-917.302 768.587,-918.861 769.856,-925.96"/>
<text text-anchor="middle" x="860.128" y="-990.5" font-family="Helvetica,sans-Serif" font-size="10.00"> +str</text>
</g>
<!-- Node5&#45;&gt;Node10 -->
<g id="edge18" class="edge"><title>Node5&#45;&gt;Node10</title>
<path fill="none" stroke="#404040" d="M913.348,-1040.7C931.859,-1022.51 960.052,-991.218 973.628,-958 994.073,-907.975 1029.98,-759.284 997.628,-716 982.62,-695.925 965.051,-709.176 938.417,-697.697"/>
<polygon fill="none" stroke="#404040" points="938.322,-697.646 931.143,-698.33 927.751,-691.966 934.93,-691.283 938.322,-697.646"/>
<text text-anchor="middle" x="1021.13" y="-854.5" font-family="Helvetica,sans-Serif" font-size="10.00"> +str</text>
</g>
<!-- Node5&#45;&gt;Node12 -->
<g id="edge27" class="edge"><title>Node5&#45;&gt;Node12</title>
<path fill="none" stroke="#404040" d="M878.076,-1053.52C848.267,-1047.7 785.804,-1035.83 732.628,-1028 620.59,-1011.5 544.469,-1055.95 487.628,-958 463.901,-917.115 476.546,-800.418 491.294,-709.868"/>
<polygon fill="none" stroke="#404040" points="491.326,-709.677 488.362,-703.104 493.29,-697.839 496.254,-704.413 491.326,-709.677"/>
<text text-anchor="middle" x="498.128" y="-854.5" font-family="Helvetica,sans-Serif" font-size="10.00"> +str</text>
</g>
<!-- Node5&#45;&gt;Node13 -->
<g id="edge33" class="edge"><title>Node5&#45;&gt;Node13</title>
<path fill="none" stroke="#404040" d="M878.108,-1053.29C848.346,-1047.12 785.949,-1034.77 732.628,-1028 628.711,-1014.81 601.174,-1025.84 497.628,-1010 484.946,-1008.06 280.885,-967.819 272.628,-958 241.991,-921.568 240.392,-802.496 244.32,-710.149"/>
<polygon fill="none" stroke="#404040" points="244.332,-709.869 240.61,-703.693 244.88,-697.881 248.602,-704.058 244.332,-709.869"/>
<text text-anchor="middle" x="283.128" y="-854.5" font-family="Helvetica,sans-Serif" font-size="10.00"> +str</text>
</g>
<!-- Node6 -->
<g id="node6" class="node"><title>Node6</title>
<polygon fill="none" stroke="#bfbfbf" points="529.128,-1029.5 529.128,-1086.5 558.128,-1086.5 558.128,-1029.5 529.128,-1029.5"/>
<text text-anchor="middle" x="543.628" y="-1074.5" font-family="Helvetica,sans-Serif" font-size="10.00">int</text>
<polyline fill="none" stroke="#bfbfbf" points="529.128,-1067.5 558.128,-1067.5 "/>
<text text-anchor="middle" x="543.628" y="-1055.5" font-family="Helvetica,sans-Serif" font-size="10.00"> </text>
<polyline fill="none" stroke="#bfbfbf" points="529.128,-1048.5 558.128,-1048.5 "/>
<text text-anchor="middle" x="543.628" y="-1036.5" font-family="Helvetica,sans-Serif" font-size="10.00"> </text>
</g>
<!-- Node6&#45;&gt;Node3 -->
<g id="edge5" class="edge"><title>Node6&#45;&gt;Node3</title>
<path fill="none" stroke="#404040" d="M558.29,-1053.26C582.69,-1047.16 633.239,-1035.05 676.628,-1028 750.314,-1016.03 774.224,-1037.5 843.628,-1010 866.932,-1000.77 865.391,-985.401 888.628,-976 919.136,-963.657 1012.23,-981.143 1035.63,-958 1100.03,-894.307 1015.97,-833.635 1062.63,-756 1083.56,-721.162 1106.95,-726.77 1140.62,-700.036"/>
<polygon fill="none" stroke="#404040" points="1140.8,-699.875 1142.74,-692.929 1149.9,-692.042 1147.96,-698.989 1140.8,-699.875"/>
<text text-anchor="middle" x="1088.13" y="-865.5" font-family="Helvetica,sans-Serif" font-size="10.00"> +arraySize</text>
<text text-anchor="middle" x="1088.13" y="-854.5" font-family="Helvetica,sans-Serif" font-size="10.00">+size</text>
<text text-anchor="middle" x="1088.13" y="-843.5" font-family="Helvetica,sans-Serif" font-size="10.00">+bitcount</text>
</g>
<!-- Node6&#45;&gt;Node8 -->
<g id="edge10" class="edge"><title>Node6&#45;&gt;Node8</title>
<path fill="none" stroke="#404040" d="M558.199,-1038.99C576.824,-1015.97 610.281,-974.614 640.517,-937.242"/>
<polygon fill="none" stroke="#404040" points="640.577,-937.169 641.241,-929.988 648.124,-927.84 647.46,-935.02 640.577,-937.169"/>
<text text-anchor="middle" x="631.128" y="-1001.5" font-family="Helvetica,sans-Serif" font-size="10.00"> +arraySize</text>
<text text-anchor="middle" x="631.128" y="-990.5" font-family="Helvetica,sans-Serif" font-size="10.00">+size</text>
<text text-anchor="middle" x="631.128" y="-979.5" font-family="Helvetica,sans-Serif" font-size="10.00">+bitcount</text>
</g>
<!-- Node6&#45;&gt;Node10 -->
<g id="edge19" class="edge"><title>Node6&#45;&gt;Node10</title>
<path fill="none" stroke="#404040" d="M538.169,-1029.49C524.527,-957.463 492.543,-765.502 528.628,-716 544.028,-694.874 560.059,-706.934 584.628,-698 638.589,-678.379 697.993,-654.372 746.185,-634.268"/>
<polygon fill="none" stroke="#404040" points="746.48,-634.145 750.471,-628.139 757.55,-629.513 753.559,-635.519 746.48,-634.145"/>
<text text-anchor="middle" x="551.128" y="-865.5" font-family="Helvetica,sans-Serif" font-size="10.00"> +arraySize</text>
<text text-anchor="middle" x="551.128" y="-854.5" font-family="Helvetica,sans-Serif" font-size="10.00">+size</text>
<text text-anchor="middle" x="551.128" y="-843.5" font-family="Helvetica,sans-Serif" font-size="10.00">+bitcount</text>
</g>
<!-- Node6&#45;&gt;Node12 -->
<g id="edge28" class="edge"><title>Node6&#45;&gt;Node12</title>
<path fill="none" stroke="#404040" d="M528.7,-1055.83C460.659,-1050.16 181.014,-1023.12 129.628,-958 74.0152,-887.521 75.426,-827.57 129.628,-756 187.052,-680.175 248.158,-735.363 335.628,-698 371.645,-682.615 409.31,-661.259 440.67,-641.822"/>
<polygon fill="none" stroke="#404040" points="440.884,-641.688 443.843,-635.112 451.052,-635.315 448.092,-641.891 440.884,-641.688"/>
<text text-anchor="middle" x="155.128" y="-865.5" font-family="Helvetica,sans-Serif" font-size="10.00"> +arraySize</text>
<text text-anchor="middle" x="155.128" y="-854.5" font-family="Helvetica,sans-Serif" font-size="10.00">+size</text>
<text text-anchor="middle" x="155.128" y="-843.5" font-family="Helvetica,sans-Serif" font-size="10.00">+bitcount</text>
</g>
<!-- Node6&#45;&gt;Node13 -->
<g id="edge34" class="edge"><title>Node6&#45;&gt;Node13</title>
<path fill="none" stroke="#404040" d="M528.916,-1056.81C451.154,-1055.45 89.4401,-1044.49 33.6277,-958 -15.0509,-882.565 -6.66911,-836.226 33.6277,-756 61.5733,-700.364 118.503,-658.907 167.313,-631.726"/>
<polygon fill="none" stroke="#404040" points="167.365,-631.698 170.73,-625.32 177.911,-625.974 174.546,-632.351 167.365,-631.698"/>
<text text-anchor="middle" x="59.1277" y="-865.5" font-family="Helvetica,sans-Serif" font-size="10.00"> +arraySize</text>
<text text-anchor="middle" x="59.1277" y="-854.5" font-family="Helvetica,sans-Serif" font-size="10.00">+size</text>
<text text-anchor="middle" x="59.1277" y="-843.5" font-family="Helvetica,sans-Serif" font-size="10.00">+bitcount</text>
</g>
<!-- Node7 -->
<g id="node7" class="node"><title>Node7</title>
<polygon fill="none" stroke="#bfbfbf" points="1170.13,-1029 1170.13,-1087 1199.13,-1087 1199.13,-1029 1170.13,-1029"/>
<polyline fill="none" stroke="#bfbfbf" points="1170.13,-1067 1199.13,-1067 "/>
<text text-anchor="middle" x="1184.63" y="-1055" font-family="Helvetica,sans-Serif" font-size="10.00"> </text>
<polyline fill="none" stroke="#bfbfbf" points="1170.13,-1048 1199.13,-1048 "/>
<text text-anchor="middle" x="1184.63" y="-1036" font-family="Helvetica,sans-Serif" font-size="10.00"> </text>
</g>
<!-- Node7&#45;&gt;Node2 -->
<g id="edge13" class="edge"><title>Node7&#45;&gt;Node2</title>
<path fill="none" stroke="#404040" d="M1199.24,-1053.27C1232.93,-1043.82 1315.94,-1015.51 1352.63,-958 1421.7,-849.707 1450.07,-468.137 1356.63,-380 1324.07,-349.286 1202.69,-378.088 1144.28,-361.497"/>
<polygon fill="none" stroke="#404040" points="1144.07,-361.419 1137.05,-363.073 1132.83,-357.23 1139.85,-355.576 1144.07,-361.419"/>
<text text-anchor="middle" x="1428.13" y="-724.5" font-family="Helvetica,sans-Serif" font-size="10.00"> +@16</text>
</g>
<!-- Node7&#45;&gt;Node2 -->
<g id="edge15" class="edge"><title>Node7&#45;&gt;Node2</title>
<path fill="none" stroke="#404040" d="M1199.35,-1055.38C1239.44,-1050.08 1350.48,-1029.27 1394.63,-958 1505.33,-779.311 1465.65,-692.159 1424.63,-486 1415.02,-437.735 1431.06,-410.736 1392.63,-380 1351.51,-347.119 1210.3,-381.103 1144.23,-361.573"/>
<polygon fill="none" stroke="#404040" points="1144.04,-361.502 1137.01,-363.133 1132.81,-357.276 1139.83,-355.645 1144.04,-361.502"/>
<text text-anchor="middle" x="1482.13" y="-724.5" font-family="Helvetica,sans-Serif" font-size="10.00"> +@18</text>
</g>
<!-- Node7&#45;&gt;Node3 -->
<g id="edge6" class="edge"><title>Node7&#45;&gt;Node3</title>
<path fill="none" stroke="#404040" d="M1199.21,-1049.65C1224.83,-1035.81 1277.16,-1003.13 1297.63,-958 1334.18,-877.39 1312.45,-778.125 1284.5,-703.473"/>
<polygon fill="none" stroke="#404040" points="1284.46,-703.376 1278.57,-699.213 1280.15,-692.177 1286.04,-696.34 1284.46,-703.376"/>
<text text-anchor="middle" x="1333.13" y="-854.5" font-family="Helvetica,sans-Serif" font-size="10.00"> +@14</text>
</g>
<!-- Node7&#45;&gt;Node8 -->
<g id="edge11" class="edge"><title>Node7&#45;&gt;Node8</title>
<path fill="none" stroke="#404040" d="M1170.08,-1052.45C1150.18,-1045.69 1114.16,-1031.42 1089.63,-1010 1075.88,-998.001 1082.35,-985.248 1066.63,-976 1027.02,-952.706 904.121,-972.83 860.628,-958 829.038,-947.229 797.432,-928.765 771.011,-910.612"/>
<polygon fill="none" stroke="#404040" points="770.969,-910.583 763.76,-910.408 761.149,-903.686 768.358,-903.861 770.969,-910.583"/>
<text text-anchor="middle" x="1105.13" y="-990.5" font-family="Helvetica,sans-Serif" font-size="10.00"> +@14</text>
</g>
<!-- Node7&#45;&gt;Node10 -->
<g id="edge20" class="edge"><title>Node7&#45;&gt;Node10</title>
<path fill="none" stroke="#404040" d="M1178.57,-1028.97C1162.5,-954.753 1119.88,-758.641 1117.63,-756 1086.29,-719.271 1062.76,-730.231 1016.63,-716 985.067,-706.265 970.817,-714.548 938.077,-698"/>
<polygon fill="none" stroke="#404040" points="937.78,-697.835 930.593,-698.426 927.283,-692.02 934.47,-691.429 937.78,-697.835"/>
<text text-anchor="middle" x="1179.13" y="-854.5" font-family="Helvetica,sans-Serif" font-size="10.00"> +@14</text>
</g>
<!-- Node7&#45;&gt;Node12 -->
<g id="edge29" class="edge"><title>Node7&#45;&gt;Node12</title>
<path fill="none" stroke="#404040" d="M1170.2,-1028.8C1159.23,-1010.48 1142.33,-987.865 1120.63,-976 1084.97,-956.503 965.915,-988.119 938.628,-958 908.489,-924.733 912.185,-792.274 938.628,-756 954.028,-734.874 979.228,-759.126 994.628,-738 1000.39,-730.099 1001.28,-723.162 994.628,-716 975.969,-695.926 775.205,-704.691 748.628,-698 692.181,-683.79 632.335,-656.856 587.163,-633.825"/>
<polygon fill="none" stroke="#404040" points="586.962,-633.722 579.796,-634.524 576.299,-628.217 583.465,-627.415 586.962,-633.722"/>
<text text-anchor="middle" x="954.128" y="-854.5" font-family="Helvetica,sans-Serif" font-size="10.00"> +@14</text>
</g>
<!-- Node7&#45;&gt;Node13 -->
<g id="edge35" class="edge"><title>Node7&#45;&gt;Node13</title>
<path fill="none" stroke="#404040" d="M1170.03,-1051.93C1126.06,-1036.95 990.784,-992.843 874.628,-976 844.097,-971.573 342.459,-978.747 319.628,-958 286.132,-927.562 302.052,-800.468 293.628,-756 290.771,-740.921 287.358,-725.158 283.737,-709.629"/>
<polygon fill="none" stroke="#404040" points="283.704,-709.49 278.427,-704.576 280.934,-697.814 286.211,-702.729 283.704,-709.49"/>
<text text-anchor="middle" x="335.128" y="-854.5" font-family="Helvetica,sans-Serif" font-size="10.00"> +@14</text>
</g>
<!-- Node8&#45;&gt;Node1 -->
<g id="edge38" class="edge"><title>Node8&#45;&gt;Node1</title>
<path fill="none" stroke="#404040" d="M695.617,-756.89C695.225,-750.501 694.888,-744.162 694.628,-738 694.215,-728.231 694.613,-725.778 694.628,-716 694.85,-566.666 675.315,-527.946 695.628,-380 705.586,-307.473 728.247,-227.697 747.378,-168.654"/>
<polygon fill="none" stroke="#404040" points="747.417,-168.534 745.484,-161.587 751.153,-157.13 753.086,-164.077 747.417,-168.534"/>
<text text-anchor="middle" x="744.128" y="-427" font-family="Helvetica,sans-Serif" font-size="10.00"> +sHeaderType</text>
<text text-anchor="middle" x="744.128" y="-416" font-family="Helvetica,sans-Serif" font-size="10.00">+sSerializationMethod</text>
</g>
<!-- Node8&#45;&gt;Node2 -->
<g id="edge22" class="edge"><title>Node8&#45;&gt;Node2</title>
<path fill="none" stroke="#404040" d="M761.145,-812.892C791.187,-792.233 829.677,-769.172 867.628,-756 899.761,-744.847 995.901,-762.372 1019.63,-738 1058.85,-697.707 1021.1,-537.948 1042.63,-486 1046.61,-476.38 1053.7,-477.645 1057.63,-468 1069.54,-438.729 1074.19,-404.541 1075.47,-373.994"/>
<polygon fill="none" stroke="#404040" points="1075.48,-373.593 1071.65,-367.484 1075.81,-361.598 1079.64,-367.707 1075.48,-373.593"/>
<text text-anchor="middle" x="1091.13" y="-595" font-family="Helvetica,sans-Serif" font-size="10.00"> +sHeaderType</text>
<text text-anchor="middle" x="1091.13" y="-584" font-family="Helvetica,sans-Serif" font-size="10.00">+sSerializationMethod</text>
</g>
<!-- Node8&#45;&gt;Node3 -->
<g id="edge7" class="edge"><title>Node8&#45;&gt;Node3</title>
<path fill="none" stroke="orange" d="M770.052,-807.679C797.043,-789.475 829.298,-769.847 860.628,-756 923.342,-728.282 942.464,-729.8 1009.63,-716 1064.61,-704.704 1084.95,-724.118 1134.63,-698 1139.35,-695.517 1143.96,-692.711 1148.45,-689.653"/>
<polygon fill="orange" stroke="orange" points="767.767,-805.001 761.481,-813.53 771.714,-810.782 767.767,-805.001"/>
<text text-anchor="start" x="1009.63" y="-730" font-family="Helvetica,sans-Serif" font-size="10.00"> &lt; gSizeHeaderDescription</text>
<text text-anchor="middle" x="1068.63" y="-719" font-family="Helvetica,sans-Serif" font-size="10.00">String &gt;</text>
</g>
<!-- Node8&#45;&gt;Node10 -->
<g id="edge21" class="edge"><title>Node8&#45;&gt;Node10</title>
<path fill="none" stroke="orange" d="M696.614,-746.458C698.431,-735.901 701.316,-725.573 705.628,-716 717.047,-690.644 736.528,-668.316 757.272,-649.887"/>
<polygon fill="orange" stroke="orange" points="693.11,-746.242 695.187,-756.631 700.042,-747.214 693.11,-746.242"/>
<text text-anchor="start" x="705.628" y="-730" font-family="Helvetica,sans-Serif" font-size="10.00"> &lt; gSizeSerializationMethod</text>
<text text-anchor="middle" x="767.128" y="-719" font-family="Helvetica,sans-Serif" font-size="10.00">String &gt;</text>
</g>
<!-- Node8&#45;&gt;Node12 -->
<g id="edge30" class="edge"><title>Node8&#45;&gt;Node12</title>
<path fill="none" stroke="orange" d="M640.527,-787.409C627.456,-775.854 613.214,-764.78 598.628,-756 577.314,-743.171 562.223,-756.533 545.628,-738 535.309,-726.477 528.07,-712.39 523.033,-697.575"/>
<polygon fill="orange" stroke="orange" points="638.321,-790.133 648.082,-794.254 643.022,-784.946 638.321,-790.133"/>
<text text-anchor="start" x="545.628" y="-730" font-family="Helvetica,sans-Serif" font-size="10.00"> &lt; gSizeDataOriginString,</text>
<text text-anchor="middle" x="601.628" y="-719" font-family="Helvetica,sans-Serif" font-size="10.00"> printDataOrigin &gt;</text>
</g>
<!-- Node8&#45;&gt;Node13 -->
<g id="edge36" class="edge"><title>Node8&#45;&gt;Node13</title>
<path fill="none" stroke="orange" d="M640.227,-782.899C627.491,-772.245 613.442,-762.646 598.628,-756 514.775,-718.381 475.58,-777.565 392.628,-738 368.624,-726.551 346.534,-709.12 327.336,-690.269"/>
<polygon fill="orange" stroke="orange" points="638.142,-785.724 647.982,-789.651 642.739,-780.445 638.142,-785.724"/>
<text text-anchor="start" x="392.628" y="-730" font-family="Helvetica,sans-Serif" font-size="10.00"> &lt; gSizeDataDescriptionString,</text>
<text text-anchor="middle" x="460.628" y="-719" font-family="Helvetica,sans-Serif" font-size="10.00"> printDataDescription &gt;</text>
</g>
<!-- Node9 -->
<g id="node9" class="node"><title>Node9</title>
<polygon fill="none" stroke="#bfbfbf" points="946.128,-563.5 946.128,-620.5 997.128,-620.5 997.128,-563.5 946.128,-563.5"/>
<text text-anchor="middle" x="971.628" y="-608.5" font-family="Helvetica,sans-Serif" font-size="10.00">uint32_t</text>
<polyline fill="none" stroke="#bfbfbf" points="946.128,-601.5 997.128,-601.5 "/>
<text text-anchor="middle" x="971.628" y="-589.5" font-family="Helvetica,sans-Serif" font-size="10.00"> </text>
<polyline fill="none" stroke="#bfbfbf" points="946.128,-582.5 997.128,-582.5 "/>
<text text-anchor="middle" x="971.628" y="-570.5" font-family="Helvetica,sans-Serif" font-size="10.00"> </text>
</g>
<!-- Node9&#45;&gt;Node1 -->
<g id="edge23" class="edge"><title>Node9&#45;&gt;Node1</title>
<path fill="none" stroke="#404040" d="M968.439,-563.247C958.704,-479.085 929.543,-231.524 921.628,-216 904.574,-182.553 875.919,-152.822 848.719,-129.753"/>
<polygon fill="none" stroke="#404040" points="848.433,-129.517 841.259,-128.78 839.18,-121.876 846.353,-122.612 848.433,-129.517"/>
<text text-anchor="middle" x="967.128" y="-292" font-family="Helvetica,sans-Serif" font-size="10.00"> +reserved</text>
<text text-anchor="middle" x="967.128" y="-281" font-family="Helvetica,sans-Serif" font-size="10.00">+sVersion</text>
</g>
<!-- Node9&#45;&gt;Node2 -->
<g id="edge12" class="edge"><title>Node9&#45;&gt;Node2</title>
<path fill="none" stroke="#404040" d="M966,-563.238C958.905,-521.444 950.641,-440.793 977.628,-380 978.563,-377.893 988.457,-367.981 1001.5,-355.455"/>
<polygon fill="none" stroke="#404040" points="1001.79,-355.185 1003.37,-348.149 1010.47,-346.901 1008.89,-353.937 1001.79,-355.185"/>
<text text-anchor="middle" x="1017.63" y="-460" font-family="Helvetica,sans-Serif" font-size="10.00"> +headerVersion</text>
<text text-anchor="middle" x="1017.63" y="-449" font-family="Helvetica,sans-Serif" font-size="10.00">+headerSize</text>
<text text-anchor="middle" x="1017.63" y="-438" font-family="Helvetica,sans-Serif" font-size="10.00">+sMagicString</text>
<text text-anchor="middle" x="1017.63" y="-427" font-family="Helvetica,sans-Serif" font-size="10.00">+flagsNextHeader</text>
<text text-anchor="middle" x="1017.63" y="-416" font-family="Helvetica,sans-Serif" font-size="10.00">+magicStringInt</text>
<text text-anchor="middle" x="1017.63" y="-405" font-family="Helvetica,sans-Serif" font-size="10.00">+flagsUnused</text>
<text text-anchor="middle" x="1017.63" y="-394" font-family="Helvetica,sans-Serif" font-size="10.00">+flags</text>
<text text-anchor="middle" x="1017.63" y="-383" font-family="Helvetica,sans-Serif" font-size="10.00">+sVersion</text>
</g>
<!-- Node10&#45;&gt;Node1 -->
<g id="edge37" class="edge"><title>Node10&#45;&gt;Node1</title>
<path fill="none" stroke="#404040" d="M817.237,-491.876C807.958,-451.809 798.344,-404.96 792.628,-362 784.107,-297.966 780.649,-225.13 779.299,-169.522"/>
<polygon fill="none" stroke="#404040" points="779.292,-169.209 775.161,-163.299 779.028,-157.212 783.159,-163.123 779.292,-169.209"/>
<text text-anchor="middle" x="857.128" y="-286.5" font-family="Helvetica,sans-Serif" font-size="10.00"> +payloadSerializationMethod</text>
</g>
<!-- Node10&#45;&gt;Node2 -->
<g id="edge16" class="edge"><title>Node10&#45;&gt;Node2</title>
<path fill="none" stroke="#404040" d="M844.426,-491.916C850.32,-451.936 864.159,-408.592 894.628,-380 927.558,-349.098 954.263,-382.249 994.628,-362 996.483,-361.069 998.326,-360.079 1000.15,-359.038"/>
<polygon fill="none" stroke="#404040" points="1000.28,-358.959 1003.22,-352.374 1010.43,-352.554 1007.49,-359.139 1000.28,-358.959"/>
<text text-anchor="middle" x="925.128" y="-421.5" font-family="Helvetica,sans-Serif" font-size="10.00"> +serialization</text>
</g>
<!-- Node11 -->
<g id="node11" class="node"><title>Node11</title>
<polygon fill="none" stroke="#bfbfbf" points="1151.13,-260.5 1151.13,-317.5 1202.13,-317.5 1202.13,-260.5 1151.13,-260.5"/>
<text text-anchor="middle" x="1176.63" y="-305.5" font-family="Helvetica,sans-Serif" font-size="10.00">uint64_t</text>
<polyline fill="none" stroke="#bfbfbf" points="1151.13,-298.5 1202.13,-298.5 "/>
<text text-anchor="middle" x="1176.63" y="-286.5" font-family="Helvetica,sans-Serif" font-size="10.00"> </text>
<polyline fill="none" stroke="#bfbfbf" points="1151.13,-279.5 1202.13,-279.5 "/>
<text text-anchor="middle" x="1176.63" y="-267.5" font-family="Helvetica,sans-Serif" font-size="10.00"> </text>
</g>
<!-- Node11&#45;&gt;Node1 -->
<g id="edge24" class="edge"><title>Node11&#45;&gt;Node1</title>
<path fill="none" stroke="#404040" d="M1168.74,-260.275C1163.26,-245.414 1154.58,-227.788 1141.63,-216 1059.02,-140.813 930.937,-105.952 851.073,-90.7321"/>
<polygon fill="none" stroke="#404040" points="850.97,-90.7131 844.345,-93.5608 839.168,-88.5407 845.793,-85.693 850.97,-90.7131"/>
<text text-anchor="middle" x="1157.13" y="-190" font-family="Helvetica,sans-Serif" font-size="10.00"> +payloadSize</text>
<text text-anchor="middle" x="1157.13" y="-179" font-family="Helvetica,sans-Serif" font-size="10.00">+subSpecification</text>
</g>
<!-- Node12&#45;&gt;Node1 -->
<g id="edge25" class="edge"><title>Node12&#45;&gt;Node1</title>
<path fill="none" stroke="#404040" d="M520.084,-486.236C529.198,-406.677 551.098,-297.443 603.628,-216 629.444,-175.975 671.208,-142.86 707.463,-119.33"/>
<polygon fill="none" stroke="#404040" points="707.88,-119.066 710.808,-112.477 718.017,-112.645 715.089,-119.235 707.88,-119.066"/>
<text text-anchor="middle" x="630.628" y="-286.5" font-family="Helvetica,sans-Serif" font-size="10.00"> +dataOrigin</text>
</g>
<!-- Node13&#45;&gt;Node1 -->
<g id="edge31" class="edge"><title>Node13&#45;&gt;Node1</title>
<path fill="none" stroke="#404040" d="M289.266,-486.111C322.848,-403.282 379.848,-289.749 461.628,-216 532.046,-152.497 636.627,-115.521 706.17,-96.5507"/>
<polygon fill="none" stroke="#404040" points="706.278,-96.5222 711.048,-91.1143 717.875,-93.4376 713.105,-98.8455 706.278,-96.5222"/>
<text text-anchor="middle" x="500.628" y="-286.5" font-family="Helvetica,sans-Serif" font-size="10.00"> +dataDescription</text>
</g>
</g>
</svg>
