<?xml version="1.0" encoding="UTF-8" standalone="no"?>
<!DOCTYPE svg PUBLIC "-//W3C//DTD SVG 1.1//EN"
 "http://www.w3.org/Graphics/SVG/1.1/DTD/svg11.dtd">
<!-- Generated by graphviz version 2.36.0 (20140111.2315)
 -->
<!-- Title: /home/travis/build/AliceO2Group/AliceO2/Framework/Core/include/Framework/RawDeviceService.h Pages: 1 -->
<svg width="788pt" height="242pt"
 viewBox="0.00 0.00 788.00 242.00" xmlns="http://www.w3.org/2000/svg" xmlns:xlink="http://www.w3.org/1999/xlink">
<g id="graph0" class="graph" transform="scale(1 1) rotate(0) translate(4 238)">
<title>/home/travis/build/AliceO2Group/AliceO2/Framework/Core/include/Framework/RawDeviceService.h</title>
<!-- Node1 -->
<g id="node1" class="node"><title>Node1</title>
<polygon fill="#bfbfbf" stroke="black" points="409,-181 409,-233 573,-233 573,-181 409,-181"/>
<text text-anchor="start" x="417" y="-221" font-family="Helvetica,sans-Serif" font-size="10.00">/home/travis/build</text>
<text text-anchor="start" x="417" y="-210" font-family="Helvetica,sans-Serif" font-size="10.00">/AliceO2Group/AliceO2</text>
<text text-anchor="start" x="417" y="-199" font-family="Helvetica,sans-Serif" font-size="10.00">/Framework/Core/include</text>
<text text-anchor="middle" x="491" y="-188" font-family="Helvetica,sans-Serif" font-size="10.00">/Framework/RawDeviceService.h</text>
</g>
<!-- Node2 -->
<g id="node2" class="node"><title>Node2</title>
<g id="a_node2"><a xlink:href="../../de/d88/SimpleRawDeviceService_8h.html" target="_top" xlink:title="/home/travis/build\l/AliceO2Group/AliceO2\l/Framework/Core/include\l/Framework/SimpleRawDeviceService.h">
<polygon fill="none" stroke="black" points="179,-91 179,-143 373,-143 373,-91 179,-91"/>
<text text-anchor="start" x="187" y="-131" font-family="Helvetica,sans-Serif" font-size="10.00">/home/travis/build</text>
<text text-anchor="start" x="187" y="-120" font-family="Helvetica,sans-Serif" font-size="10.00">/AliceO2Group/AliceO2</text>
<text text-anchor="start" x="187" y="-109" font-family="Helvetica,sans-Serif" font-size="10.00">/Framework/Core/include</text>
<text text-anchor="middle" x="276" y="-98" font-family="Helvetica,sans-Serif" font-size="10.00">/Framework/SimpleRawDeviceService.h</text>
</a>
</g>
</g>
<!-- Node1&#45;&gt;Node2 -->
<g id="edge1" class="edge"><title>Node1&#45;&gt;Node2</title>
<path fill="none" stroke="midnightblue" d="M420.356,-177.085C393.558,-166.117 363.283,-153.725 337.404,-143.133"/>
<polygon fill="midnightblue" stroke="midnightblue" points="419.097,-180.352 429.677,-180.901 421.748,-173.873 419.097,-180.352"/>
</g>
<!-- Node5 -->
<g id="node5" class="node"><title>Node5</title>
<g id="a_node5"><a xlink:href="../../d7/d54/runDataProcessing_8cxx.html" target="_top" xlink:title="/home/travis/build\l/AliceO2Group/AliceO2\l/Framework/Core/src/runDataProcessing.cxx">
<polygon fill="none" stroke="black" points="353,-6.5 353,-47.5 567,-47.5 567,-6.5 353,-6.5"/>
<text text-anchor="start" x="361" y="-35.5" font-family="Helvetica,sans-Serif" font-size="10.00">/home/travis/build</text>
<text text-anchor="start" x="361" y="-24.5" font-family="Helvetica,sans-Serif" font-size="10.00">/AliceO2Group/AliceO2</text>
<text text-anchor="middle" x="460" y="-13.5" font-family="Helvetica,sans-Serif" font-size="10.00">/Framework/Core/src/runDataProcessing.cxx</text>
</a>
</g>
</g>
<!-- Node1&#45;&gt;Node5 -->
<g id="edge7" class="edge"><title>Node1&#45;&gt;Node5</title>
<path fill="none" stroke="midnightblue" d="M469.813,-172.026C465.359,-163.218 461.312,-153.522 459,-144 450.968,-110.925 453.977,-70.966 456.949,-47.6261"/>
<polygon fill="midnightblue" stroke="midnightblue" points="466.731,-173.686 474.546,-180.84 472.898,-170.374 466.731,-173.686"/>
</g>
<!-- Node6 -->
<g id="node6" class="node"><title>Node6</title>
<g id="a_node6"><a xlink:href="../../dc/df3/ExternalFairMQDeviceProxy_8cxx.html" target="_top" xlink:title="/home/travis/build\l/AliceO2Group/AliceO2\l/Framework/Core/src/External\lFairMQDeviceProxy.cxx">
<polygon fill="none" stroke="black" points="468,-91 468,-143 616,-143 616,-91 468,-91"/>
<text text-anchor="start" x="476" y="-131" font-family="Helvetica,sans-Serif" font-size="10.00">/home/travis/build</text>
<text text-anchor="start" x="476" y="-120" font-family="Helvetica,sans-Serif" font-size="10.00">/AliceO2Group/AliceO2</text>
<text text-anchor="start" x="476" y="-109" font-family="Helvetica,sans-Serif" font-size="10.00">/Framework/Core/src/External</text>
<text text-anchor="middle" x="542" y="-98" font-family="Helvetica,sans-Serif" font-size="10.00">FairMQDeviceProxy.cxx</text>
</a>
</g>
</g>
<!-- Node1&#45;&gt;Node6 -->
<g id="edge5" class="edge"><title>Node1&#45;&gt;Node6</title>
<path fill="none" stroke="midnightblue" d="M510.895,-171.671C516.416,-162.145 522.306,-151.983 527.458,-143.092"/>
<polygon fill="midnightblue" stroke="midnightblue" points="507.737,-170.14 505.751,-180.547 513.794,-173.65 507.737,-170.14"/>
</g>
<!-- Node7 -->
<g id="node7" class="node"><title>Node7</title>
<g id="a_node7"><a xlink:href="../../d4/d7a/LifetimeHelpers_8cxx.html" target="_top" xlink:title="/home/travis/build\l/AliceO2Group/AliceO2\l/Framework/Core/src/Lifetime\lHelpers.cxx">
<polygon fill="none" stroke="black" points="634,-91 634,-143 780,-143 780,-91 634,-91"/>
<text text-anchor="start" x="642" y="-131" font-family="Helvetica,sans-Serif" font-size="10.00">/home/travis/build</text>
<text text-anchor="start" x="642" y="-120" font-family="Helvetica,sans-Serif" font-size="10.00">/AliceO2Group/AliceO2</text>
<text text-anchor="start" x="642" y="-109" font-family="Helvetica,sans-Serif" font-size="10.00">/Framework/Core/src/Lifetime</text>
<text text-anchor="middle" x="707" y="-98" font-family="Helvetica,sans-Serif" font-size="10.00">Helpers.cxx</text>
</a>
</g>
</g>
<!-- Node1&#45;&gt;Node7 -->
<g id="edge6" class="edge"><title>Node1&#45;&gt;Node7</title>
<path fill="none" stroke="midnightblue" d="M561.972,-177.085C588.895,-166.117 619.311,-153.725 645.31,-143.133"/>
<polygon fill="midnightblue" stroke="midnightblue" points="560.548,-173.886 552.608,-180.901 563.189,-180.369 560.548,-173.886"/>
</g>
<!-- Node3 -->
<g id="node3" class="node"><title>Node3</title>
<g id="a_node3"><a xlink:href="../../d7/dd5/DispatcherFairMQ_8cxx.html" target="_top" xlink:title="Implementation of DispatcherFairMQ for O2 Data Sampling. ">
<polygon fill="none" stroke="black" points="-0.5,-1 -0.5,-53 158.5,-53 158.5,-1 -0.5,-1"/>
<text text-anchor="start" x="7.5" y="-41" font-family="Helvetica,sans-Serif" font-size="10.00">/home/travis/build</text>
<text text-anchor="start" x="7.5" y="-30" font-family="Helvetica,sans-Serif" font-size="10.00">/AliceO2Group/AliceO2</text>
<text text-anchor="start" x="7.5" y="-19" font-family="Helvetica,sans-Serif" font-size="10.00">/Framework/Core/src/Dispatcher</text>
<text text-anchor="middle" x="79" y="-8" font-family="Helvetica,sans-Serif" font-size="10.00">FairMQ.cxx</text>
</a>
</g>
</g>
<!-- Node2&#45;&gt;Node3 -->
<g id="edge2" class="edge"><title>Node2&#45;&gt;Node3</title>
<path fill="none" stroke="midnightblue" d="M210.627,-86.7977C186.231,-75.9004 158.768,-63.6325 135.263,-53.1328"/>
<polygon fill="midnightblue" stroke="midnightblue" points="209.253,-90.0175 219.811,-90.9005 212.108,-83.6262 209.253,-90.0175"/>
</g>
<!-- Node4 -->
<g id="node4" class="node"><title>Node4</title>
<g id="a_node4"><a xlink:href="../../d7/dac/DispatcherFlpProto_8cxx.html" target="_top" xlink:title="Implementation of DispatcherFlpProto for O2 Data Sampling. ">
<polygon fill="none" stroke="black" points="176.5,-1 176.5,-53 335.5,-53 335.5,-1 176.5,-1"/>
<text text-anchor="start" x="184.5" y="-41" font-family="Helvetica,sans-Serif" font-size="10.00">/home/travis/build</text>
<text text-anchor="start" x="184.5" y="-30" font-family="Helvetica,sans-Serif" font-size="10.00">/AliceO2Group/AliceO2</text>
<text text-anchor="start" x="184.5" y="-19" font-family="Helvetica,sans-Serif" font-size="10.00">/Framework/Core/src/Dispatcher</text>
<text text-anchor="middle" x="256" y="-8" font-family="Helvetica,sans-Serif" font-size="10.00">FlpProto.cxx</text>
</a>
</g>
</g>
<!-- Node2&#45;&gt;Node4 -->
<g id="edge3" class="edge"><title>Node2&#45;&gt;Node4</title>
<path fill="none" stroke="midnightblue" d="M267.997,-80.7852C265.89,-71.5174 263.661,-61.7076 261.703,-53.0921"/>
<polygon fill="midnightblue" stroke="midnightblue" points="264.586,-81.5711 270.215,-90.5468 271.412,-80.0197 264.586,-81.5711"/>
</g>
<!-- Node2&#45;&gt;Node5 -->
<g id="edge4" class="edge"><title>Node2&#45;&gt;Node5</title>
<path fill="none" stroke="midnightblue" d="M337.991,-86.3521C364.677,-73.5894 395.145,-59.0175 418.959,-47.6283"/>
<polygon fill="midnightblue" stroke="midnightblue" points="336.238,-83.3106 328.727,-90.7827 339.258,-89.6256 336.238,-83.3106"/>
</g>
</g>
</svg>
