<?xml version="1.0" encoding="UTF-8" standalone="no"?>
<!DOCTYPE svg PUBLIC "-//W3C//DTD SVG 1.1//EN"
 "http://www.w3.org/Graphics/SVG/1.1/DTD/svg11.dtd">
<!-- Generated by graphviz version 2.36.0 (20140111.2315)
 -->
<!-- Title: ImGuiWindowSettings Pages: 1 -->
<svg width="279pt" height="386pt"
 viewBox="0.00 0.00 279.00 386.00" xmlns="http://www.w3.org/2000/svg" xmlns:xlink="http://www.w3.org/1999/xlink">
<g id="graph0" class="graph" transform="scale(1 1) rotate(0) translate(4 382)">
<title>ImGuiWindowSettings</title>
<!-- Node1 -->
<g id="node1" class="node"><title>Node1</title>
<polygon fill="#bfbfbf" stroke="black" points="81.5,-0.5 81.5,-57.5 210.5,-57.5 210.5,-0.5 81.5,-0.5"/>
<text text-anchor="middle" x="146" y="-45.5" font-family="Helvetica,sans-Serif" font-size="10.00">ImGuiWindowSettings</text>
<polyline fill="none" stroke="black" points="81.5,-38.5 210.5,-38.5 "/>
<text text-anchor="middle" x="146" y="-26.5" font-family="Helvetica,sans-Serif" font-size="10.00"> </text>
<polyline fill="none" stroke="black" points="81.5,-19.5 210.5,-19.5 "/>
<text text-anchor="start" x="89.5" y="-7.5" font-family="Helvetica,sans-Serif" font-size="10.00">+ ImGuiWindowSettings()</text>
</g>
<!-- Node2 -->
<g id="node2" class="node"><title>Node2</title>
<g id="a_node2"><a xlink:href="../../d3/dc2/structImVec2.html" target="_top" xlink:title="{ImVec2\n||+ ImVec2()\l+ ImVec2()\l+ operator[]()\l+ ImVec2()\l+ ImVec2()\l+ operator[]()\l+ ImVec2()\l+ ImVec2()\l+ operator[]()\l}">
<polygon fill="none" stroke="black" points="-0.5,-116.5 -0.5,-261.5 72.5,-261.5 72.5,-116.5 -0.5,-116.5"/>
<text text-anchor="middle" x="36" y="-249.5" font-family="Helvetica,sans-Serif" font-size="10.00">ImVec2</text>
<polyline fill="none" stroke="black" points="-0.5,-242.5 72.5,-242.5 "/>
<text text-anchor="middle" x="36" y="-230.5" font-family="Helvetica,sans-Serif" font-size="10.00"> </text>
<polyline fill="none" stroke="black" points="-0.5,-223.5 72.5,-223.5 "/>
<text text-anchor="start" x="7.5" y="-211.5" font-family="Helvetica,sans-Serif" font-size="10.00">+ ImVec2()</text>
<text text-anchor="start" x="7.5" y="-200.5" font-family="Helvetica,sans-Serif" font-size="10.00">+ ImVec2()</text>
<text text-anchor="start" x="7.5" y="-189.5" font-family="Helvetica,sans-Serif" font-size="10.00">+ operator[]()</text>
<text text-anchor="start" x="7.5" y="-178.5" font-family="Helvetica,sans-Serif" font-size="10.00">+ ImVec2()</text>
<text text-anchor="start" x="7.5" y="-167.5" font-family="Helvetica,sans-Serif" font-size="10.00">+ ImVec2()</text>
<text text-anchor="start" x="7.5" y="-156.5" font-family="Helvetica,sans-Serif" font-size="10.00">+ operator[]()</text>
<text text-anchor="start" x="7.5" y="-145.5" font-family="Helvetica,sans-Serif" font-size="10.00">+ ImVec2()</text>
<text text-anchor="start" x="7.5" y="-134.5" font-family="Helvetica,sans-Serif" font-size="10.00">+ ImVec2()</text>
<text text-anchor="start" x="7.5" y="-123.5" font-family="Helvetica,sans-Serif" font-size="10.00">+ operator[]()</text>
</a>
</g>
</g>
<!-- Node2&#45;&gt;Node1 -->
<g id="edge1" class="edge"><title>Node2&#45;&gt;Node1</title>
<path fill="none" stroke="#404040" d="M51.4631,-116.471C56.7284,-102.136 63.7268,-87.8554 73,-76 75.9274,-72.2575 79.25,-68.7362 82.8251,-65.4387"/>
<polygon fill="none" stroke="#404040" points="82.9134,-65.3655 84.9781,-58.4563 92.15,-57.7049 90.0852,-64.6141 82.9134,-65.3655"/>
<text text-anchor="middle" x="86.5" y="-90" font-family="Helvetica,sans-Serif" font-size="10.00"> +Pos</text>
<text text-anchor="middle" x="86.5" y="-79" font-family="Helvetica,sans-Serif" font-size="10.00">+Size</text>
</g>
<!-- Node3 -->
<g id="node3" class="node"><title>Node3</title>
<g id="a_node3"><a xlink:href="../../d4/dc3/classfloat.html" target="_top" xlink:title="{float\n||}">
<polygon fill="none" stroke="black" points="18.5,-320.5 18.5,-377.5 53.5,-377.5 53.5,-320.5 18.5,-320.5"/>
<text text-anchor="middle" x="36" y="-365.5" font-family="Helvetica,sans-Serif" font-size="10.00">float</text>
<polyline fill="none" stroke="black" points="18.5,-358.5 53.5,-358.5 "/>
<text text-anchor="middle" x="36" y="-346.5" font-family="Helvetica,sans-Serif" font-size="10.00"> </text>
<polyline fill="none" stroke="black" points="18.5,-339.5 53.5,-339.5 "/>
<text text-anchor="middle" x="36" y="-327.5" font-family="Helvetica,sans-Serif" font-size="10.00"> </text>
</a>
</g>
</g>
<!-- Node3&#45;&gt;Node2 -->
<g id="edge2" class="edge"><title>Node3&#45;&gt;Node2</title>
<path fill="none" stroke="#404040" d="M36,-320.479C36,-307.317 36,-290.778 36,-273.939"/>
<polygon fill="none" stroke="#404040" points="36.0001,-273.668 32,-267.668 36,-261.668 40,-267.668 36.0001,-273.668"/>
<text text-anchor="middle" x="43.5" y="-294" font-family="Helvetica,sans-Serif" font-size="10.00"> +x</text>
<text text-anchor="middle" x="43.5" y="-283" font-family="Helvetica,sans-Serif" font-size="10.00">+y</text>
</g>
<!-- Node4 -->
<g id="node4" class="node"><title>Node4</title>
<polygon fill="none" stroke="#bfbfbf" points="90.5,-160.5 90.5,-217.5 125.5,-217.5 125.5,-160.5 90.5,-160.5"/>
<text text-anchor="middle" x="108" y="-205.5" font-family="Helvetica,sans-Serif" font-size="10.00">bool</text>
<polyline fill="none" stroke="#bfbfbf" points="90.5,-198.5 125.5,-198.5 "/>
<text text-anchor="middle" x="108" y="-186.5" font-family="Helvetica,sans-Serif" font-size="10.00"> </text>
<polyline fill="none" stroke="#bfbfbf" points="90.5,-179.5 125.5,-179.5 "/>
<text text-anchor="middle" x="108" y="-167.5" font-family="Helvetica,sans-Serif" font-size="10.00"> </text>
</g>
<!-- Node4&#45;&gt;Node1 -->
<g id="edge3" class="edge"><title>Node4&#45;&gt;Node1</title>
<path fill="none" stroke="#404040" d="M103.325,-160.423C100.53,-137.198 99.1861,-103.467 109,-76 109.975,-73.272 111.185,-70.5856 112.568,-67.9649"/>
<polygon fill="none" stroke="#404040" points="112.678,-67.7887 112.478,-60.5804 119.054,-57.623 119.255,-64.8313 112.678,-67.7887"/>
<text text-anchor="middle" x="135.5" y="-84.5" font-family="Helvetica,sans-Serif" font-size="10.00"> +Collapsed</text>
</g>
<!-- Node5 -->
<g id="node5" class="node"><title>Node5</title>
<polygon fill="none" stroke="#bfbfbf" points="156,-160.5 156,-217.5 212,-217.5 212,-160.5 156,-160.5"/>
<text text-anchor="middle" x="184" y="-205.5" font-family="Helvetica,sans-Serif" font-size="10.00">unsigned</text>
<polyline fill="none" stroke="#bfbfbf" points="156,-198.5 212,-198.5 "/>
<text text-anchor="middle" x="184" y="-186.5" font-family="Helvetica,sans-Serif" font-size="10.00"> </text>
<polyline fill="none" stroke="#bfbfbf" points="156,-179.5 212,-179.5 "/>
<text text-anchor="middle" x="184" y="-167.5" font-family="Helvetica,sans-Serif" font-size="10.00"> </text>
</g>
<!-- Node5&#45;&gt;Node1 -->
<g id="edge4" class="edge"><title>Node5&#45;&gt;Node1</title>
<path fill="none" stroke="#404040" d="M179.649,-160.133C175.818,-137.319 169.663,-104.309 162,-76 161.387,-73.7351 160.719,-71.4208 160.015,-69.0942"/>
<polygon fill="none" stroke="#404040" points="159.969,-68.9532 154.32,-64.4719 156.283,-57.5333 161.933,-62.0146 159.969,-68.9532"/>
<text text-anchor="middle" x="177" y="-84.5" font-family="Helvetica,sans-Serif" font-size="10.00"> +Id</text>
</g>
<!-- Node6 -->
<g id="node6" class="node"><title>Node6</title>
<polygon fill="none" stroke="#bfbfbf" points="230,-160.5 230,-217.5 272,-217.5 272,-160.5 230,-160.5"/>
<text text-anchor="middle" x="251" y="-205.5" font-family="Helvetica,sans-Serif" font-size="10.00">char *</text>
<polyline fill="none" stroke="#bfbfbf" points="230,-198.5 272,-198.5 "/>
<text text-anchor="middle" x="251" y="-186.5" font-family="Helvetica,sans-Serif" font-size="10.00"> </text>
<polyline fill="none" stroke="#bfbfbf" points="230,-179.5 272,-179.5 "/>
<text text-anchor="middle" x="251" y="-167.5" font-family="Helvetica,sans-Serif" font-size="10.00"> </text>
</g>
<!-- Node6&#45;&gt;Node1 -->
<g id="edge5" class="edge"><title>Node6&#45;&gt;Node1</title>
<path fill="none" stroke="#404040" d="M240.842,-160.25C235.387,-146.557 228.118,-130.014 220,-116 208.861,-96.771 204.373,-92.9486 190,-76 187.427,-72.9657 184.707,-69.8751 181.933,-66.8041"/>
<polygon fill="none" stroke="#404040" points="181.687,-66.5371 174.676,-64.8467 173.541,-57.7255 180.551,-59.416 181.687,-66.5371"/>
<text text-anchor="middle" x="227" y="-84.5" font-family="Helvetica,sans-Serif" font-size="10.00"> +Name</text>
</g>
</g>
</svg>
