<?xml version="1.0" encoding="UTF-8" standalone="no"?>
<!DOCTYPE svg PUBLIC "-//W3C//DTD SVG 1.1//EN"
 "http://www.w3.org/Graphics/SVG/1.1/DTD/svg11.dtd">
<!-- Generated by graphviz version 2.36.0 (20140111.2315)
 -->
<!-- Title: o2::framework::DispatcherFairMQ Pages: 1 -->
<svg width="142pt" height="282pt"
 viewBox="0.00 0.00 142.00 282.00" xmlns="http://www.w3.org/2000/svg" xmlns:xlink="http://www.w3.org/1999/xlink">
<g id="graph0" class="graph" transform="scale(1 1) rotate(0) translate(4 278)">
<title>o2::framework::DispatcherFairMQ</title>
<!-- Node1 -->
<g id="node1" class="node"><title>Node1</title>
<polygon fill="#bfbfbf" stroke="black" points="1,-1 1,-91 133,-91 133,-1 1,-1"/>
<text text-anchor="start" x="9" y="-79" font-family="Helvetica,sans-Serif" font-size="10.00">o2::framework::Dispatcher</text>
<text text-anchor="middle" x="67" y="-68" font-family="Helvetica,sans-Serif" font-size="10.00">FairMQ</text>
<polyline fill="none" stroke="black" points="1,-61 133,-61 "/>
<text text-anchor="middle" x="67" y="-49" font-family="Helvetica,sans-Serif" font-size="10.00"> </text>
<polyline fill="none" stroke="black" points="1,-42 133,-42 "/>
<text text-anchor="start" x="9" y="-30" font-family="Helvetica,sans-Serif" font-size="10.00">+ DispatcherFairMQ()</text>
<text text-anchor="start" x="9" y="-19" font-family="Helvetica,sans-Serif" font-size="10.00">+ ~DispatcherFairMQ()</text>
<text text-anchor="start" x="9" y="-8" font-family="Helvetica,sans-Serif" font-size="10.00">+ addSource()</text>
</g>
<!-- Node2 -->
<g id="node2" class="node"><title>Node2</title>
<g id="a_node2"><a xlink:href="../../d8/d30/classo2_1_1framework_1_1Dispatcher.html" target="_top" xlink:title="A base class for dispatcher used by DataSampling. ">
<polygon fill="none" stroke="black" points="0,-128.5 0,-273.5 134,-273.5 134,-128.5 0,-128.5"/>
<text text-anchor="middle" x="67" y="-261.5" font-family="Helvetica,sans-Serif" font-size="10.00">o2::framework::Dispatcher</text>
<polyline fill="none" stroke="black" points="0,-254.5 134,-254.5 "/>
<text text-anchor="start" x="8" y="-242.5" font-family="Helvetica,sans-Serif" font-size="10.00"># mSubSpec</text>
<text text-anchor="start" x="8" y="-231.5" font-family="Helvetica,sans-Serif" font-size="10.00"># mCfg</text>
<text text-anchor="start" x="8" y="-220.5" font-family="Helvetica,sans-Serif" font-size="10.00"># mDataProcessorSpec</text>
<polyline fill="none" stroke="black" points="0,-213.5 134,-213.5 "/>
<text text-anchor="start" x="8" y="-201.5" font-family="Helvetica,sans-Serif" font-size="10.00">+ Dispatcher()</text>
<text text-anchor="start" x="8" y="-190.5" font-family="Helvetica,sans-Serif" font-size="10.00">+ Dispatcher()</text>
<text text-anchor="start" x="8" y="-179.5" font-family="Helvetica,sans-Serif" font-size="10.00">+ ~Dispatcher()</text>
<text text-anchor="start" x="8" y="-168.5" font-family="Helvetica,sans-Serif" font-size="10.00">+ getDataProcessorSpec()</text>
<text text-anchor="start" x="8" y="-157.5" font-family="Helvetica,sans-Serif" font-size="10.00">+ getSubSpec()</text>
<text text-anchor="start" x="8" y="-146.5" font-family="Helvetica,sans-Serif" font-size="10.00">+ addSource()</text>
<text text-anchor="start" x="8" y="-135.5" font-family="Helvetica,sans-Serif" font-size="10.00"># createDispatcherOutput()</text>
</a>
</g>
</g>
<!-- Node2&#45;&gt;Node1 -->
<g id="edge1" class="edge"><title>Node2&#45;&gt;Node1</title>
<path fill="none" stroke="midnightblue" d="M67,-118.252C67,-108.887 67,-99.628 67,-91.0391"/>
<polygon fill="none" stroke="midnightblue" points="63.5001,-118.428 67,-128.428 70.5001,-118.428 63.5001,-118.428"/>
</g>
</g>
</svg>
