<?xml version="1.0" encoding="UTF-8" standalone="no"?>
<!DOCTYPE svg PUBLIC "-//W3C//DTD SVG 1.1//EN"
 "http://www.w3.org/Graphics/SVG/1.1/DTD/svg11.dtd">
<!-- Generated by graphviz version 2.36.0 (20140111.2315)
 -->
<!-- Title: /home/travis/build/AliceO2Group/AliceO2/Framework/Core/include/Framework/ExternalFairMQDeviceProxy.h Pages: 1 -->
<!--zoomable 252 -->
<svg id="main" version="1.1" xmlns="http://www.w3.org/2000/svg" xmlns:xlink="http://www.w3.org/1999/xlink" xml:space="preserve" onload="init(evt)">
<style type="text/css"><![CDATA[
.edge:hover path { stroke: red; }
.edge:hover polygon { stroke: red; fill: red; }
]]></style>
<script type="text/javascript"><![CDATA[
var edges = document.getElementsByTagName('g');
if (edges && edges.length) {
  for (var i=0;i<edges.length;i++) {
    if (edges[i].id.substr(0,4)=='edge') {
      edges[i].setAttribute('class','edge');
    }
  }
}
]]></script>
        <defs>
                <circle id="rim" cx="0" cy="0" r="7"/>
                <circle id="rim2" cx="0" cy="0" r="3.5"/>
                <g id="zoomPlus">
                        <use xlink:href="#rim" fill="#404040">
                                <set attributeName="fill" to="#808080" begin="zoomplus.mouseover" end="zoomplus.mouseout"/>
                        </use>
                        <path d="M-4,0h8M0,-4v8" fill="none" stroke="white" stroke-width="1.5" pointer-events="none"/>
                </g>
                <g id="zoomMin">
                        <use xlink:href="#rim" fill="#404040">
                                <set attributeName="fill" to="#808080" begin="zoomminus.mouseover" end="zoomminus.mouseout"/>
                        </use>
                        <path d="M-4,0h8" fill="none" stroke="white" stroke-width="1.5" pointer-events="none"/>
                </g>
                <g id="dirArrow">
                        <path fill="none" stroke="white" stroke-width="1.5" d="M0,-3.0v7 M-2.5,-0.5L0,-3.0L2.5,-0.5"/>
                </g>
               <g id="resetDef">
                       <use xlink:href="#rim2" fill="#404040">
                               <set attributeName="fill" to="#808080" begin="reset.mouseover" end="reset.mouseout"/>
                       </use>
               </g>
        </defs>

<script type="text/javascript">
var viewWidth = 872;
var viewHeight = 252;
var sectionId = 'dynsection-1';
</script>
<script xlink:href="../../svgpan.js"/>
<svg id="graph" class="graph">
<g id="viewport">
<title>/home/travis/build/AliceO2Group/AliceO2/Framework/Core/include/Framework/ExternalFairMQDeviceProxy.h</title>
<!-- Node1 -->
<g id="node1" class="node"><title>Node1</title>
<polygon fill="#bfbfbf" stroke="black" points="343,-180.5 343,-243.5 513,-243.5 513,-180.5 343,-180.5"/>
<text text-anchor="start" x="351" y="-231.5" font-family="Helvetica,sans-Serif" font-size="10.00">/home/travis/build</text>
<text text-anchor="start" x="351" y="-220.5" font-family="Helvetica,sans-Serif" font-size="10.00">/AliceO2Group/AliceO2</text>
<text text-anchor="start" x="351" y="-209.5" font-family="Helvetica,sans-Serif" font-size="10.00">/Framework/Core/include</text>
<text text-anchor="start" x="351" y="-198.5" font-family="Helvetica,sans-Serif" font-size="10.00">/Framework/ExternalFairMQDevice</text>
<text text-anchor="middle" x="428" y="-187.5" font-family="Helvetica,sans-Serif" font-size="10.00">Proxy.h</text>
</g>
<!-- Node2 -->
<g id="node2" class="node"><title>Node2</title>
<g id="a_node2"><a xlink:href="../../dc/dc8/DataSamplingReadoutAdapter_8h.html" target="_top" xlink:title="/home/travis/build\l/AliceO2Group/AliceO2\l/Framework/Core/include\l/Framework/DataSamplingReadoutAdapter.h">
<polygon fill="none" stroke="black" points="124,-91 124,-143 336,-143 336,-91 124,-91"/>
<text text-anchor="start" x="132" y="-131" font-family="Helvetica,sans-Serif" font-size="10.00">/home/travis/build</text>
<text text-anchor="start" x="132" y="-120" font-family="Helvetica,sans-Serif" font-size="10.00">/AliceO2Group/AliceO2</text>
<text text-anchor="start" x="132" y="-109" font-family="Helvetica,sans-Serif" font-size="10.00">/Framework/Core/include</text>
<text text-anchor="middle" x="230" y="-98" font-family="Helvetica,sans-Serif" font-size="10.00">/Framework/DataSamplingReadoutAdapter.h</text>
</a>
</g>
</g>
<!-- Node1&#45;&gt;Node2 -->
<g id="edge1" class="edge"><title>Node1&#45;&gt;Node2</title>
<path fill="none" stroke="midnightblue" d="M353.688,-176.096C330.279,-165.101 304.902,-153.181 283.262,-143.017"/>
<polygon fill="midnightblue" stroke="midnightblue" points="352.354,-179.336 362.893,-180.42 355.33,-173 352.354,-179.336"/>
</g>
<!-- Node3 -->
<g id="node3" class="node"><title>Node3</title>
<g id="a_node3"><a xlink:href="../../d0/dd6/DataSampling_8cxx.html" target="_top" xlink:title="Implementation of O2 Data Sampling, v0.1. ">
<polygon fill="none" stroke="black" points="0,-6.5 0,-47.5 192,-47.5 192,-6.5 0,-6.5"/>
<text text-anchor="start" x="8" y="-35.5" font-family="Helvetica,sans-Serif" font-size="10.00">/home/travis/build</text>
<text text-anchor="start" x="8" y="-24.5" font-family="Helvetica,sans-Serif" font-size="10.00">/AliceO2Group/AliceO2</text>
<text text-anchor="middle" x="96" y="-13.5" font-family="Helvetica,sans-Serif" font-size="10.00">/Framework/Core/src/DataSampling.cxx</text>
</a>
</g>
</g>
<!-- Node1&#45;&gt;Node3 -->
<g id="edge4" class="edge"><title>Node1&#45;&gt;Node3</title>
<path fill="none" stroke="midnightblue" d="M332.453,-202.307C251.671,-192.915 144.498,-174.965 115,-144 90.3674,-118.142 90.5335,-73.43 93.1046,-47.7243"/>
<polygon fill="midnightblue" stroke="midnightblue" points="332.335,-205.816 342.666,-203.465 333.124,-198.86 332.335,-205.816"/>
</g>
<!-- Node5 -->
<g id="node5" class="node"><title>Node5</title>
<g id="a_node5"><a xlink:href="../../dc/df3/ExternalFairMQDeviceProxy_8cxx.html" target="_top" xlink:title="/home/travis/build\l/AliceO2Group/AliceO2\l/Framework/Core/src/External\lFairMQDeviceProxy.cxx">
<polygon fill="none" stroke="black" points="354,-91 354,-143 502,-143 502,-91 354,-91"/>
<text text-anchor="start" x="362" y="-131" font-family="Helvetica,sans-Serif" font-size="10.00">/home/travis/build</text>
<text text-anchor="start" x="362" y="-120" font-family="Helvetica,sans-Serif" font-size="10.00">/AliceO2Group/AliceO2</text>
<text text-anchor="start" x="362" y="-109" font-family="Helvetica,sans-Serif" font-size="10.00">/Framework/Core/src/External</text>
<text text-anchor="middle" x="428" y="-98" font-family="Helvetica,sans-Serif" font-size="10.00">FairMQDeviceProxy.cxx</text>
</a>
</g>
</g>
<!-- Node1&#45;&gt;Node5 -->
<g id="edge5" class="edge"><title>Node1&#45;&gt;Node5</title>
<path fill="none" stroke="midnightblue" d="M428,-170.112C428,-160.917 428,-151.423 428,-143.1"/>
<polygon fill="midnightblue" stroke="midnightblue" points="424.5,-170.291 428,-180.291 431.5,-170.291 424.5,-170.291"/>
</g>
<!-- Node6 -->
<g id="node6" class="node"><title>Node6</title>
<g id="a_node6"><a xlink:href="../../d1/dd3/test__ExternalFairMQDeviceProxy_8cxx.html" target="_top" xlink:title="/home/travis/build\l/AliceO2Group/AliceO2\l/Framework/Core/test/test\l_ExternalFairMQDeviceProxy.cxx">
<polygon fill="none" stroke="black" points="520.5,-91 520.5,-143 685.5,-143 685.5,-91 520.5,-91"/>
<text text-anchor="start" x="528.5" y="-131" font-family="Helvetica,sans-Serif" font-size="10.00">/home/travis/build</text>
<text text-anchor="start" x="528.5" y="-120" font-family="Helvetica,sans-Serif" font-size="10.00">/AliceO2Group/AliceO2</text>
<text text-anchor="start" x="528.5" y="-109" font-family="Helvetica,sans-Serif" font-size="10.00">/Framework/Core/test/test</text>
<text text-anchor="middle" x="603" y="-98" font-family="Helvetica,sans-Serif" font-size="10.00">_ExternalFairMQDeviceProxy.cxx</text>
</a>
</g>
</g>
<!-- Node1&#45;&gt;Node6 -->
<g id="edge6" class="edge"><title>Node1&#45;&gt;Node6</title>
<path fill="none" stroke="midnightblue" d="M494.7,-175.554C515.049,-164.74 536.991,-153.079 555.769,-143.1"/>
<polygon fill="midnightblue" stroke="midnightblue" points="492.975,-172.507 485.787,-180.291 496.26,-178.688 492.975,-172.507"/>
</g>
<!-- Node7 -->
<g id="node7" class="node"><title>Node7</title>
<g id="a_node7"><a xlink:href="../../da/d19/test__RawDeviceInjector_8cxx.html" target="_top" xlink:title="/home/travis/build\l/AliceO2Group/AliceO2\l/Framework/TestWorkflows\l/src/test_RawDeviceInjector.cxx">
<polygon fill="none" stroke="black" points="704,-91 704,-143 864,-143 864,-91 704,-91"/>
<text text-anchor="start" x="712" y="-131" font-family="Helvetica,sans-Serif" font-size="10.00">/home/travis/build</text>
<text text-anchor="start" x="712" y="-120" font-family="Helvetica,sans-Serif" font-size="10.00">/AliceO2Group/AliceO2</text>
<text text-anchor="start" x="712" y="-109" font-family="Helvetica,sans-Serif" font-size="10.00">/Framework/TestWorkflows</text>
<text text-anchor="middle" x="784" y="-98" font-family="Helvetica,sans-Serif" font-size="10.00">/src/test_RawDeviceInjector.cxx</text>
</a>
</g>
</g>
<!-- Node1&#45;&gt;Node7 -->
<g id="edge7" class="edge"><title>Node1&#45;&gt;Node7</title>
<path fill="none" stroke="midnightblue" d="M523.233,-187.857C574.032,-175.3 637.539,-159.261 694,-144 697.14,-143.151 700.339,-142.276 703.568,-141.385"/>
<polygon fill="midnightblue" stroke="midnightblue" points="522.119,-184.527 513.249,-190.321 523.796,-191.323 522.119,-184.527"/>
</g>
<!-- Node2&#45;&gt;Node3 -->
<g id="edge2" class="edge"><title>Node2&#45;&gt;Node3</title>
<path fill="none" stroke="midnightblue" d="M183.065,-85.1767C164.068,-72.7015 142.701,-58.6694 125.889,-47.6283"/>
<polygon fill="midnightblue" stroke="midnightblue" points="181.321,-88.2189 191.601,-90.7827 185.164,-82.3679 181.321,-88.2189"/>
</g>
<!-- Node4 -->
<g id="node4" class="node"><title>Node4</title>
<g id="a_node4"><a xlink:href="../../dc/da2/DataSamplingReadoutAdapter_8cxx.html" target="_top" xlink:title="/home/travis/build\l/AliceO2Group/AliceO2\l/Framework/Core/src/DataSampling\lReadoutAdapter.cxx">
<polygon fill="none" stroke="black" points="210.5,-1 210.5,-53 383.5,-53 383.5,-1 210.5,-1"/>
<text text-anchor="start" x="218.5" y="-41" font-family="Helvetica,sans-Serif" font-size="10.00">/home/travis/build</text>
<text text-anchor="start" x="218.5" y="-30" font-family="Helvetica,sans-Serif" font-size="10.00">/AliceO2Group/AliceO2</text>
<text text-anchor="start" x="218.5" y="-19" font-family="Helvetica,sans-Serif" font-size="10.00">/Framework/Core/src/DataSampling</text>
<text text-anchor="middle" x="297" y="-8" font-family="Helvetica,sans-Serif" font-size="10.00">ReadoutAdapter.cxx</text>
</a>
</g>
</g>
<!-- Node2&#45;&gt;Node4 -->
<g id="edge3" class="edge"><title>Node2&#45;&gt;Node4</title>
<path fill="none" stroke="midnightblue" d="M255.465,-82.5528C262.91,-72.7746 270.918,-62.2575 277.896,-53.0921"/>
<polygon fill="midnightblue" stroke="midnightblue" points="252.652,-80.4701 249.379,-90.5468 258.222,-84.7106 252.652,-80.4701"/>
</g>
</g>
</svg>
        <g id="navigator" transform="translate(0 0)" fill="#404254">
                <rect fill="#f2f5e9" fill-opacity="0.5" stroke="#606060" stroke-width=".5" x="0" y="0" width="60" height="60"/>
                <use id="zoomplus" xlink:href="#zoomPlus" x="17" y="9" onmousedown="handleZoom(evt,'in')"/>
                <use id="zoomminus" xlink:href="#zoomMin" x="42" y="9" onmousedown="handleZoom(evt,'out')"/>
                <use id="reset" xlink:href="#resetDef" x="30" y="36" onmousedown="handleReset()"/>
                <g id="arrowUp" xlink:href="#dirArrow" transform="translate(30 24)" onmousedown="handlePan(0,-1)">
                  <use xlink:href="#rim" fill="#404040">
                        <set attributeName="fill" to="#808080" begin="arrowUp.mouseover" end="arrowUp.mouseout"/>
                  </use>
                  <path fill="none" stroke="white" stroke-width="1.5" d="M0,-3.0v7 M-2.5,-0.5L0,-3.0L2.5,-0.5"/>
                </g>
                <g id="arrowRight" xlink:href="#dirArrow" transform="rotate(90) translate(36 -43)" onmousedown="handlePan(1,0)">
                  <use xlink:href="#rim" fill="#404040">
                        <set attributeName="fill" to="#808080" begin="arrowRight.mouseover" end="arrowRight.mouseout"/>
                  </use>
                  <path fill="none" stroke="white" stroke-width="1.5" d="M0,-3.0v7 M-2.5,-0.5L0,-3.0L2.5,-0.5"/>
                </g>
                <g id="arrowDown" xlink:href="#dirArrow" transform="rotate(180) translate(-30 -48)" onmousedown="handlePan(0,1)">
                  <use xlink:href="#rim" fill="#404040">
                        <set attributeName="fill" to="#808080" begin="arrowDown.mouseover" end="arrowDown.mouseout"/>
                  </use>
                  <path fill="none" stroke="white" stroke-width="1.5" d="M0,-3.0v7 M-2.5,-0.5L0,-3.0L2.5,-0.5"/>
                </g>
                <g id="arrowLeft" xlink:href="#dirArrow" transform="rotate(270) translate(-36 17)" onmousedown="handlePan(-1,0)">
                  <use xlink:href="#rim" fill="#404040">
                        <set attributeName="fill" to="#808080" begin="arrowLeft.mouseover" end="arrowLeft.mouseout"/>
                  </use>
                  <path fill="none" stroke="white" stroke-width="1.5" d="M0,-3.0v7 M-2.5,-0.5L0,-3.0L2.5,-0.5"/>
                </g>
        </g>
        <svg viewBox="0 0 15 15" width="100%" height="30px" preserveAspectRatio="xMaxYMin meet">
         <g id="arrow_out" transform="scale(0.3 0.3)">
          <a xlink:href="ExternalFairMQDeviceProxy_8h__dep__incl_org.svg" target="_base">
           <rect id="button" ry="5" rx="5" y="6" x="6" height="38" width="38"
                fill="#f2f5e9" fill-opacity="0.5" stroke="#606060" stroke-width="1.0"/>
           <path id="arrow"
             d="M 11.500037,31.436501 C 11.940474,20.09759 22.043105,11.32322 32.158766,21.979434 L 37.068811,17.246167 C 37.068811,17.246167 37.088388,32 37.088388,32 L 22.160133,31.978069 C 22.160133,31.978069 26.997745,27.140456 26.997745,27.140456 C 18.528582,18.264221 13.291696,25.230495 11.500037,31.436501 z"
             style="fill:#404040;"/>
          </a>
         </g>
        </svg>
</svg>
