<?xml version="1.0" encoding="UTF-8" standalone="no"?>
<!DOCTYPE svg PUBLIC "-//W3C//DTD SVG 1.1//EN"
 "http://www.w3.org/Graphics/SVG/1.1/DTD/svg11.dtd">
<!-- Generated by graphviz version 2.36.0 (20140111.2315)
 -->
<!-- Title: /home/travis/build/AliceO2Group/AliceO2/Utilities/O2MessageMonitor/src/O2MessageMonitor.cxx Pages: 1 -->
<!--zoomable 422 -->
<svg id="main" version="1.1" xmlns="http://www.w3.org/2000/svg" xmlns:xlink="http://www.w3.org/1999/xlink" xml:space="preserve" onload="init(evt)">
<style type="text/css"><![CDATA[
.edge:hover path { stroke: red; }
.edge:hover polygon { stroke: red; fill: red; }
]]></style>
<script type="text/javascript"><![CDATA[
var edges = document.getElementsByTagName('g');
if (edges && edges.length) {
  for (var i=0;i<edges.length;i++) {
    if (edges[i].id.substr(0,4)=='edge') {
      edges[i].setAttribute('class','edge');
    }
  }
}
]]></script>
        <defs>
                <circle id="rim" cx="0" cy="0" r="7"/>
                <circle id="rim2" cx="0" cy="0" r="3.5"/>
                <g id="zoomPlus">
                        <use xlink:href="#rim" fill="#404040">
                                <set attributeName="fill" to="#808080" begin="zoomplus.mouseover" end="zoomplus.mouseout"/>
                        </use>
                        <path d="M-4,0h8M0,-4v8" fill="none" stroke="white" stroke-width="1.5" pointer-events="none"/>
                </g>
                <g id="zoomMin">
                        <use xlink:href="#rim" fill="#404040">
                                <set attributeName="fill" to="#808080" begin="zoomminus.mouseover" end="zoomminus.mouseout"/>
                        </use>
                        <path d="M-4,0h8" fill="none" stroke="white" stroke-width="1.5" pointer-events="none"/>
                </g>
                <g id="dirArrow">
                        <path fill="none" stroke="white" stroke-width="1.5" d="M0,-3.0v7 M-2.5,-0.5L0,-3.0L2.5,-0.5"/>
                </g>
               <g id="resetDef">
                       <use xlink:href="#rim2" fill="#404040">
                               <set attributeName="fill" to="#808080" begin="reset.mouseover" end="reset.mouseout"/>
                       </use>
               </g>
        </defs>

<script type="text/javascript">
var viewWidth = 1604;
var viewHeight = 422;
var sectionId = 'dynsection-0';
</script>
<script xlink:href="../../svgpan.js"/>
<svg id="graph" class="graph">
<g id="viewport">
<title>/home/travis/build/AliceO2Group/AliceO2/Utilities/O2MessageMonitor/src/O2MessageMonitor.cxx</title>
<!-- Node1 -->
<g id="node1" class="node"><title>Node1</title>
<polygon fill="#bfbfbf" stroke="black" points="99,-361 99,-413 239,-413 239,-361 99,-361"/>
<text text-anchor="start" x="107" y="-401" font-family="Helvetica,sans-Serif" font-size="10.00">/home/travis/build</text>
<text text-anchor="start" x="107" y="-390" font-family="Helvetica,sans-Serif" font-size="10.00">/AliceO2Group/AliceO2</text>
<text text-anchor="start" x="107" y="-379" font-family="Helvetica,sans-Serif" font-size="10.00">/Utilities/O2MessageMonitor</text>
<text text-anchor="middle" x="169" y="-368" font-family="Helvetica,sans-Serif" font-size="10.00">/src/O2MessageMonitor.cxx</text>
</g>
<!-- Node2 -->
<g id="node2" class="node"><title>Node2</title>
<polygon fill="none" stroke="#bfbfbf" points="0,-298.5 0,-317.5 46,-317.5 46,-298.5 0,-298.5"/>
<text text-anchor="middle" x="23" y="-305.5" font-family="Helvetica,sans-Serif" font-size="10.00">chrono</text>
</g>
<!-- Node1&#45;&gt;Node2 -->
<g id="edge1" class="edge"><title>Node1&#45;&gt;Node2</title>
<path fill="none" stroke="midnightblue" d="M121.194,-360.787C96.8948,-347.972 68.3504,-332.918 48.3197,-322.354"/>
<polygon fill="midnightblue" stroke="midnightblue" points="49.7043,-319.127 39.2263,-317.558 46.4388,-325.319 49.7043,-319.127"/>
</g>
<!-- Node3 -->
<g id="node3" class="node"><title>Node3</title>
<polygon fill="none" stroke="#bfbfbf" points="64,-298.5 64,-317.5 108,-317.5 108,-298.5 64,-298.5"/>
<text text-anchor="middle" x="86" y="-305.5" font-family="Helvetica,sans-Serif" font-size="10.00">thread</text>
</g>
<!-- Node1&#45;&gt;Node3 -->
<g id="edge2" class="edge"><title>Node1&#45;&gt;Node3</title>
<path fill="none" stroke="midnightblue" d="M141.823,-360.787C128.888,-348.787 113.837,-334.825 102.625,-324.423"/>
<polygon fill="midnightblue" stroke="midnightblue" points="104.936,-321.793 95.2245,-317.558 100.175,-326.925 104.936,-321.793"/>
</g>
<!-- Node4 -->
<g id="node4" class="node"><title>Node4</title>
<polygon fill="none" stroke="#bfbfbf" points="126,-298.5 126,-317.5 212,-317.5 212,-298.5 126,-298.5"/>
<text text-anchor="middle" x="169" y="-305.5" font-family="Helvetica,sans-Serif" font-size="10.00">FairMQLogger.h</text>
</g>
<!-- Node1&#45;&gt;Node4 -->
<g id="edge3" class="edge"><title>Node1&#45;&gt;Node4</title>
<path fill="none" stroke="midnightblue" d="M169,-360.787C169,-350.069 169,-337.785 169,-327.871"/>
<polygon fill="midnightblue" stroke="midnightblue" points="172.5,-327.558 169,-317.558 165.5,-327.558 172.5,-327.558"/>
</g>
<!-- Node5 -->
<g id="node5" class="node"><title>Node5</title>
<polygon fill="none" stroke="#bfbfbf" points="155,-180.5 155,-199.5 301,-199.5 301,-180.5 155,-180.5"/>
<text text-anchor="middle" x="228" y="-187.5" font-family="Helvetica,sans-Serif" font-size="10.00">options/FairMQProgOptions.h</text>
</g>
<!-- Node1&#45;&gt;Node5 -->
<g id="edge4" class="edge"><title>Node1&#45;&gt;Node5</title>
<path fill="none" stroke="midnightblue" d="M196.564,-360.761C206.059,-350.375 215.645,-337.594 221,-324 236.059,-285.77 233.584,-236.529 230.662,-209.985"/>
<polygon fill="midnightblue" stroke="midnightblue" points="234.103,-209.29 229.391,-199.801 227.157,-210.158 234.103,-209.29"/>
</g>
<!-- Node6 -->
<g id="node6" class="node"><title>Node6</title>
<g id="a_node6"><a xlink:href="../../de/d29/O2MessageMonitor_8h.html" target="_top" xlink:title="O2MessageMonitor/O2Message\lMonitor.h">
<polygon fill="none" stroke="black" points="292.5,-293 292.5,-323 449.5,-323 449.5,-293 292.5,-293"/>
<text text-anchor="start" x="300.5" y="-311" font-family="Helvetica,sans-Serif" font-size="10.00">O2MessageMonitor/O2Message</text>
<text text-anchor="middle" x="371" y="-300" font-family="Helvetica,sans-Serif" font-size="10.00">Monitor.h</text>
</a>
</g>
</g>
<!-- Node1&#45;&gt;Node6 -->
<g id="edge5" class="edge"><title>Node1&#45;&gt;Node6</title>
<path fill="none" stroke="midnightblue" d="M234.863,-360.894C264.189,-349.715 298.03,-336.815 324.636,-326.673"/>
<polygon fill="midnightblue" stroke="midnightblue" points="325.991,-329.903 334.089,-323.07 323.498,-323.362 325.991,-329.903"/>
</g>
<!-- Node7 -->
<g id="node7" class="node"><title>Node7</title>
<g id="a_node7"><a xlink:href="../../d2/dee/O2Device_8h.html" target="_top" xlink:title="O2Device/O2Device.h">
<polygon fill="none" stroke="black" points="362.5,-236.5 362.5,-255.5 477.5,-255.5 477.5,-236.5 362.5,-236.5"/>
<text text-anchor="middle" x="420" y="-243.5" font-family="Helvetica,sans-Serif" font-size="10.00">O2Device/O2Device.h</text>
</a>
</g>
</g>
<!-- Node6&#45;&gt;Node7 -->
<g id="edge6" class="edge"><title>Node6&#45;&gt;Node7</title>
<path fill="none" stroke="midnightblue" d="M382.612,-292.781C389.733,-284.062 398.883,-272.857 406.349,-263.715"/>
<polygon fill="midnightblue" stroke="midnightblue" points="409.256,-265.69 412.87,-255.731 403.834,-261.262 409.256,-265.69"/>
</g>
<!-- Node7&#45;&gt;Node5 -->
<g id="edge8" class="edge"><title>Node7&#45;&gt;Node5</title>
<path fill="none" stroke="midnightblue" d="M389.577,-236.444C356.715,-227.201 304.215,-212.436 268.026,-202.257"/>
<polygon fill="midnightblue" stroke="midnightblue" points="268.855,-198.855 258.281,-199.516 266.96,-205.593 268.855,-198.855"/>
</g>
<!-- Node8 -->
<g id="node8" class="node"><title>Node8</title>
<polygon fill="none" stroke="#bfbfbf" points="527,-180.5 527,-199.5 615,-199.5 615,-180.5 527,-180.5"/>
<text text-anchor="middle" x="571" y="-187.5" font-family="Helvetica,sans-Serif" font-size="10.00">FairMQDevice.h</text>
</g>
<!-- Node7&#45;&gt;Node8 -->
<g id="edge7" class="edge"><title>Node7&#45;&gt;Node8</title>
<path fill="none" stroke="midnightblue" d="M443.926,-236.444C469.219,-227.399 509.302,-213.064 537.68,-202.916"/>
<polygon fill="midnightblue" stroke="midnightblue" points="538.948,-206.179 547.186,-199.516 536.591,-199.588 538.948,-206.179"/>
</g>
<!-- Node9 -->
<g id="node9" class="node"><title>Node9</title>
<g id="a_node9"><a xlink:href="../../d7/db2/Utilities_8h.html" target="_top" xlink:title="O2Device/Utilities.h">
<polygon fill="none" stroke="black" points="645,-180.5 645,-199.5 749,-199.5 749,-180.5 645,-180.5"/>
<text text-anchor="middle" x="697" y="-187.5" font-family="Helvetica,sans-Serif" font-size="10.00">O2Device/Utilities.h</text>
</a>
</g>
</g>
<!-- Node7&#45;&gt;Node9 -->
<g id="edge9" class="edge"><title>Node7&#45;&gt;Node9</title>
<path fill="none" stroke="midnightblue" d="M463.891,-236.444C512.517,-226.964 590.946,-211.675 643.224,-201.483"/>
<polygon fill="midnightblue" stroke="midnightblue" points="644.168,-204.865 653.314,-199.516 642.829,-197.995 644.168,-204.865"/>
</g>
<!-- Node28 -->
<g id="node28" class="node"><title>Node28</title>
<polygon fill="none" stroke="#bfbfbf" points="288.5,-68.5 288.5,-87.5 347.5,-87.5 347.5,-68.5 288.5,-68.5"/>
<text text-anchor="middle" x="318" y="-75.5" font-family="Helvetica,sans-Serif" font-size="10.00">stdexcept</text>
</g>
<!-- Node7&#45;&gt;Node28 -->
<g id="edge35" class="edge"><title>Node7&#45;&gt;Node28</title>
<path fill="none" stroke="midnightblue" d="M398.215,-236.459C382.273,-229.114 361.353,-217.001 349,-200 326.45,-168.964 320.262,-123.041 318.591,-97.6259"/>
<polygon fill="midnightblue" stroke="midnightblue" points="322.081,-97.337 318.099,-87.5192 315.09,-97.6777 322.081,-97.337"/>
</g>
<!-- Node30 -->
<g id="node30" class="node"><title>Node30</title>
<polygon fill="none" stroke="#bfbfbf" points="357.5,-180.5 357.5,-199.5 508.5,-199.5 508.5,-180.5 357.5,-180.5"/>
<text text-anchor="middle" x="433" y="-187.5" font-family="Helvetica,sans-Serif" font-size="10.00">Monitoring/MonitoringFactory.h</text>
</g>
<!-- Node7&#45;&gt;Node30 -->
<g id="edge34" class="edge"><title>Node7&#45;&gt;Node30</title>
<path fill="none" stroke="midnightblue" d="M422.147,-236.083C423.869,-228.927 426.347,-218.635 428.5,-209.691"/>
<polygon fill="midnightblue" stroke="midnightblue" points="431.955,-210.293 430.893,-199.751 425.15,-208.654 431.955,-210.293"/>
</g>
<!-- Node10 -->
<g id="node10" class="node"><title>Node10</title>
<g id="a_node10"><a xlink:href="../../dc/d03/MemoryResources_8h.html" target="_top" xlink:title="MemoryResources/MemoryResources.h">
<polygon fill="none" stroke="black" points="717.5,-68.5 717.5,-87.5 910.5,-87.5 910.5,-68.5 717.5,-68.5"/>
<text text-anchor="middle" x="814" y="-75.5" font-family="Helvetica,sans-Serif" font-size="10.00">MemoryResources/MemoryResources.h</text>
</a>
</g>
</g>
<!-- Node9&#45;&gt;Node10 -->
<g id="edge10" class="edge"><title>Node9&#45;&gt;Node10</title>
<path fill="none" stroke="midnightblue" d="M706.181,-180.368C725.831,-161.894 772.207,-118.293 797.255,-94.7436"/>
<polygon fill="midnightblue" stroke="midnightblue" points="799.974,-96.9912 804.862,-87.5914 795.179,-91.8912 799.974,-96.9912"/>
</g>
<!-- Node18 -->
<g id="node18" class="node"><title>Node18</title>
<polygon fill="none" stroke="#bfbfbf" points="1556,-6.5 1556,-25.5 1596,-25.5 1596,-6.5 1556,-6.5"/>
<text text-anchor="middle" x="1576" y="-13.5" font-family="Helvetica,sans-Serif" font-size="10.00">utility</text>
</g>
<!-- Node9&#45;&gt;Node18 -->
<g id="edge32" class="edge"><title>Node9&#45;&gt;Node18</title>
<path fill="none" stroke="midnightblue" d="M749.474,-184.458C884.585,-171.67 1254.28,-129.729 1546,-32 1547.86,-31.3757 1549.76,-30.6553 1551.64,-29.875"/>
<polygon fill="midnightblue" stroke="midnightblue" points="1553.18,-33.019 1560.78,-25.6418 1550.24,-26.6666 1553.18,-33.019"/>
</g>
<!-- Node23 -->
<g id="node23" class="node"><title>Node23</title>
<g id="a_node23"><a xlink:href="../../dc/dcd/DataHeader_8h.html" target="_top" xlink:title="Headers/DataHeader.h">
<polygon fill="none" stroke="black" points="496.5,-124.5 496.5,-143.5 613.5,-143.5 613.5,-124.5 496.5,-124.5"/>
<text text-anchor="middle" x="555" y="-131.5" font-family="Helvetica,sans-Serif" font-size="10.00">Headers/DataHeader.h</text>
</a>
</g>
</g>
<!-- Node9&#45;&gt;Node23 -->
<g id="edge23" class="edge"><title>Node9&#45;&gt;Node23</title>
<path fill="none" stroke="midnightblue" d="M674.5,-180.444C650.923,-171.478 613.678,-157.314 587.036,-147.183"/>
<polygon fill="midnightblue" stroke="midnightblue" points="587.986,-143.8 577.395,-143.516 585.498,-150.342 587.986,-143.8"/>
</g>
<!-- Node29 -->
<g id="node29" class="node"><title>Node29</title>
<polygon fill="none" stroke="#bfbfbf" points="674.5,-124.5 674.5,-143.5 719.5,-143.5 719.5,-124.5 674.5,-124.5"/>
<text text-anchor="middle" x="697" y="-131.5" font-family="Helvetica,sans-Serif" font-size="10.00">gsl/gsl</text>
</g>
<!-- Node9&#45;&gt;Node29 -->
<g id="edge33" class="edge"><title>Node9&#45;&gt;Node29</title>
<path fill="none" stroke="midnightblue" d="M697,-180.083C697,-173.006 697,-162.861 697,-153.986"/>
<polygon fill="midnightblue" stroke="midnightblue" points="700.5,-153.751 697,-143.751 693.5,-153.751 700.5,-153.751"/>
</g>
<!-- Node11 -->
<g id="node11" class="node"><title>Node11</title>
<polygon fill="none" stroke="#bfbfbf" points="898,-1 898,-31 998,-31 998,-1 898,-1"/>
<text text-anchor="start" x="906" y="-19" font-family="Helvetica,sans-Serif" font-size="10.00">boost/container/flat</text>
<text text-anchor="middle" x="948" y="-8" font-family="Helvetica,sans-Serif" font-size="10.00">_map.hpp</text>
</g>
<!-- Node10&#45;&gt;Node11 -->
<g id="edge11" class="edge"><title>Node10&#45;&gt;Node11</title>
<path fill="none" stroke="midnightblue" d="M833.199,-68.4035C852.514,-59.7549 882.888,-46.1545 907.543,-35.1152"/>
<polygon fill="midnightblue" stroke="midnightblue" points="908.98,-38.3064 916.677,-31.0253 906.12,-31.9176 908.98,-38.3064"/>
</g>
<!-- Node12 -->
<g id="node12" class="node"><title>Node12</title>
<polygon fill="none" stroke="#bfbfbf" points="1016,-1 1016,-31 1132,-31 1132,-1 1016,-1"/>
<text text-anchor="start" x="1024" y="-19" font-family="Helvetica,sans-Serif" font-size="10.00">boost/container/pmr</text>
<text text-anchor="middle" x="1074" y="-8" font-family="Helvetica,sans-Serif" font-size="10.00">/memory_resource.hpp</text>
</g>
<!-- Node10&#45;&gt;Node12 -->
<g id="edge12" class="edge"><title>Node10&#45;&gt;Node12</title>
<path fill="none" stroke="midnightblue" d="M850.976,-68.4672C891.111,-59.2051 956.089,-44.2103 1005.58,-32.789"/>
<polygon fill="midnightblue" stroke="midnightblue" points="1006.62,-36.1414 1015.58,-30.4824 1005.05,-29.3207 1006.62,-36.1414"/>
</g>
<!-- Node13 -->
<g id="node13" class="node"><title>Node13</title>
<polygon fill="none" stroke="#bfbfbf" points="1150,-1 1150,-31 1306,-31 1306,-1 1150,-1"/>
<text text-anchor="start" x="1158" y="-19" font-family="Helvetica,sans-Serif" font-size="10.00">boost/container/pmr</text>
<text text-anchor="middle" x="1228" y="-8" font-family="Helvetica,sans-Serif" font-size="10.00">/monotonic_buffer_resource.hpp</text>
</g>
<!-- Node10&#45;&gt;Node13 -->
<g id="edge13" class="edge"><title>Node10&#45;&gt;Node13</title>
<path fill="none" stroke="midnightblue" d="M880.273,-68.4771C944.016,-60.1373 1043.35,-46.769 1139.88,-31.9876"/>
<polygon fill="midnightblue" stroke="midnightblue" points="1140.46,-35.4394 1149.81,-30.4598 1139.4,-28.5207 1140.46,-35.4394"/>
</g>
<!-- Node14 -->
<g id="node14" class="node"><title>Node14</title>
<polygon fill="none" stroke="#bfbfbf" points="1324.5,-1 1324.5,-31 1457.5,-31 1457.5,-1 1324.5,-1"/>
<text text-anchor="start" x="1332.5" y="-19" font-family="Helvetica,sans-Serif" font-size="10.00">boost/container/pmr</text>
<text text-anchor="middle" x="1391" y="-8" font-family="Helvetica,sans-Serif" font-size="10.00">/polymorphic_allocator.hpp</text>
</g>
<!-- Node10&#45;&gt;Node14 -->
<g id="edge14" class="edge"><title>Node10&#45;&gt;Node14</title>
<path fill="none" stroke="midnightblue" d="M910.862,-71.3343C1009.76,-64.8563 1167.87,-52.5887 1314.27,-32.0012"/>
<polygon fill="midnightblue" stroke="midnightblue" points="1314.93,-35.4421 1324.34,-30.5689 1313.95,-28.5118 1314.93,-35.4421"/>
</g>
<!-- Node15 -->
<g id="node15" class="node"><title>Node15</title>
<polygon fill="none" stroke="#bfbfbf" points="346,-6.5 346,-25.5 392,-25.5 392,-6.5 346,-6.5"/>
<text text-anchor="middle" x="369" y="-13.5" font-family="Helvetica,sans-Serif" font-size="10.00">cstring</text>
</g>
<!-- Node10&#45;&gt;Node15 -->
<g id="edge15" class="edge"><title>Node10&#45;&gt;Node15</title>
<path fill="none" stroke="midnightblue" d="M721.621,-68.4724C609.613,-57.8885 432.011,-40.2319 402,-32 399.504,-31.3154 396.958,-30.4636 394.444,-29.5161"/>
<polygon fill="midnightblue" stroke="midnightblue" points="395.639,-26.2213 385.066,-25.5381 392.905,-32.6654 395.639,-26.2213"/>
</g>
<!-- Node16 -->
<g id="node16" class="node"><title>Node16</title>
<polygon fill="none" stroke="#bfbfbf" points="410.5,-6.5 410.5,-25.5 451.5,-25.5 451.5,-6.5 410.5,-6.5"/>
<text text-anchor="middle" x="431" y="-13.5" font-family="Helvetica,sans-Serif" font-size="10.00">string</text>
</g>
<!-- Node10&#45;&gt;Node16 -->
<g id="edge16" class="edge"><title>Node10&#45;&gt;Node16</title>
<path fill="none" stroke="midnightblue" d="M718.527,-68.468C630.825,-59.9699 507.621,-46.1779 461,-32 459.036,-31.4028 457.044,-30.6856 455.069,-29.8929"/>
<polygon fill="midnightblue" stroke="midnightblue" points="456.092,-26.5103 445.545,-25.5047 453.163,-32.868 456.092,-26.5103"/>
</g>
<!-- Node17 -->
<g id="node17" class="node"><title>Node17</title>
<polygon fill="none" stroke="#bfbfbf" points="1476,-6.5 1476,-25.5 1538,-25.5 1538,-6.5 1476,-6.5"/>
<text text-anchor="middle" x="1507" y="-13.5" font-family="Helvetica,sans-Serif" font-size="10.00">type_traits</text>
</g>
<!-- Node10&#45;&gt;Node17 -->
<g id="edge17" class="edge"><title>Node10&#45;&gt;Node17</title>
<path fill="none" stroke="midnightblue" d="M910.75,-73.6642C1065.77,-67.756 1362.86,-53.9635 1466,-32 1469.7,-31.2117 1473.52,-30.1601 1477.27,-28.978"/>
<polygon fill="midnightblue" stroke="midnightblue" points="1478.6,-32.2215 1486.9,-25.6352 1476.3,-25.6087 1478.6,-32.2215"/>
</g>
<!-- Node10&#45;&gt;Node18 -->
<g id="edge18" class="edge"><title>Node10&#45;&gt;Node18</title>
<path fill="none" stroke="midnightblue" d="M910.572,-75.8453C1081.18,-73.0114 1428.96,-63.4525 1546,-32 1548.19,-31.4106 1550.41,-30.6527 1552.6,-29.7913"/>
<polygon fill="midnightblue" stroke="midnightblue" points="1554.2,-32.9118 1561.82,-25.5538 1551.27,-26.5521 1554.2,-32.9118"/>
</g>
<!-- Node19 -->
<g id="node19" class="node"><title>Node19</title>
<polygon fill="none" stroke="#bfbfbf" points="470,-6.5 470,-25.5 514,-25.5 514,-6.5 470,-6.5"/>
<text text-anchor="middle" x="492" y="-13.5" font-family="Helvetica,sans-Serif" font-size="10.00">vector</text>
</g>
<!-- Node10&#45;&gt;Node19 -->
<g id="edge19" class="edge"><title>Node10&#45;&gt;Node19</title>
<path fill="none" stroke="midnightblue" d="M717.445,-68.9628C660.294,-62.5009 586.986,-51.2178 524,-32 521.722,-31.305 519.4,-30.476 517.098,-29.5696"/>
<polygon fill="midnightblue" stroke="midnightblue" points="518.489,-26.3578 507.925,-25.5525 515.681,-32.7699 518.489,-26.3578"/>
</g>
<!-- Node20 -->
<g id="node20" class="node"><title>Node20</title>
<polygon fill="none" stroke="#bfbfbf" points="532.5,-6.5 532.5,-25.5 615.5,-25.5 615.5,-6.5 532.5,-6.5"/>
<text text-anchor="middle" x="574" y="-13.5" font-family="Helvetica,sans-Serif" font-size="10.00">unordered_map</text>
</g>
<!-- Node10&#45;&gt;Node20 -->
<g id="edge20" class="edge"><title>Node10&#45;&gt;Node20</title>
<path fill="none" stroke="midnightblue" d="M775.482,-68.4501C737.185,-59.8032 676.829,-45.782 625,-32 620.669,-30.8482 616.145,-29.5937 611.659,-28.3167"/>
<polygon fill="midnightblue" stroke="midnightblue" points="612.563,-24.9349 601.984,-25.5169 610.617,-31.659 612.563,-24.9349"/>
</g>
<!-- Node21 -->
<g id="node21" class="node"><title>Node21</title>
<polygon fill="none" stroke="#bfbfbf" points="633.5,-6.5 633.5,-25.5 730.5,-25.5 730.5,-6.5 633.5,-6.5"/>
<text text-anchor="middle" x="682" y="-13.5" font-family="Helvetica,sans-Serif" font-size="10.00">FairMQMessage.h</text>
</g>
<!-- Node10&#45;&gt;Node21 -->
<g id="edge21" class="edge"><title>Node10&#45;&gt;Node21</title>
<path fill="none" stroke="midnightblue" d="M795.088,-68.4035C772.837,-58.2896 735.688,-41.4036 710.074,-29.761"/>
<polygon fill="midnightblue" stroke="midnightblue" points="711.429,-26.5324 700.877,-25.5806 708.533,-32.905 711.429,-26.5324"/>
</g>
<!-- Node22 -->
<g id="node22" class="node"><title>Node22</title>
<polygon fill="none" stroke="#bfbfbf" points="748.5,-6.5 748.5,-25.5 879.5,-25.5 879.5,-6.5 748.5,-6.5"/>
<text text-anchor="middle" x="814" y="-13.5" font-family="Helvetica,sans-Serif" font-size="10.00">FairMQTransportFactory.h</text>
</g>
<!-- Node10&#45;&gt;Node22 -->
<g id="edge22" class="edge"><title>Node10&#45;&gt;Node22</title>
<path fill="none" stroke="midnightblue" d="M814,-68.4035C814,-59.9381 814,-46.7283 814,-35.8199"/>
<polygon fill="midnightblue" stroke="midnightblue" points="817.5,-35.5806 814,-25.5806 810.5,-35.5806 817.5,-35.5806"/>
</g>
<!-- Node23&#45;&gt;Node10 -->
<g id="edge31" class="edge"><title>Node23&#45;&gt;Node10</title>
<path fill="none" stroke="midnightblue" d="M596.039,-124.444C641.316,-115.004 714.227,-99.802 763.106,-89.6111"/>
<polygon fill="midnightblue" stroke="midnightblue" points="764.078,-92.9839 773.153,-87.5164 762.649,-86.1312 764.078,-92.9839"/>
</g>
<!-- Node23&#45;&gt;Node15 -->
<g id="edge27" class="edge"><title>Node23&#45;&gt;Node15</title>
<path fill="none" stroke="midnightblue" d="M549.259,-124.208C539.862,-110.447 519.933,-83.7644 497,-68 459.791,-42.4219 443.685,-49.351 402,-32 400.362,-31.3183 398.685,-30.6049 396.997,-29.875"/>
<polygon fill="midnightblue" stroke="midnightblue" points="397.969,-26.4772 387.409,-25.6205 395.13,-32.8756 397.969,-26.4772"/>
</g>
<!-- Node23&#45;&gt;Node16 -->
<g id="edge30" class="edge"><title>Node23&#45;&gt;Node16</title>
<path fill="none" stroke="midnightblue" d="M553.861,-124.394C551.668,-110.886 545.702,-84.5462 531,-68 530.314,-67.2277 486.625,-45.084 457.228,-30.2319"/>
<polygon fill="midnightblue" stroke="midnightblue" points="458.762,-27.0857 448.258,-25.7024 455.606,-33.3343 458.762,-27.0857"/>
</g>
<!-- Node24 -->
<g id="node24" class="node"><title>Node24</title>
<polygon fill="none" stroke="#bfbfbf" points="583,-68.5 583,-87.5 629,-87.5 629,-68.5 583,-68.5"/>
<text text-anchor="middle" x="606" y="-75.5" font-family="Helvetica,sans-Serif" font-size="10.00">cstdint</text>
</g>
<!-- Node23&#45;&gt;Node24 -->
<g id="edge24" class="edge"><title>Node23&#45;&gt;Node24</title>
<path fill="none" stroke="midnightblue" d="M563.422,-124.083C570.848,-116.22 581.852,-104.569 590.812,-95.0813"/>
<polygon fill="midnightblue" stroke="midnightblue" points="593.413,-97.4244 597.735,-87.7511 588.324,-92.618 593.413,-97.4244"/>
</g>
<!-- Node25 -->
<g id="node25" class="node"><title>Node25</title>
<polygon fill="none" stroke="#bfbfbf" points="647,-68.5 647,-87.5 699,-87.5 699,-68.5 647,-68.5"/>
<text text-anchor="middle" x="673" y="-75.5" font-family="Helvetica,sans-Serif" font-size="10.00">memory</text>
</g>
<!-- Node23&#45;&gt;Node25 -->
<g id="edge25" class="edge"><title>Node23&#45;&gt;Node25</title>
<path fill="none" stroke="midnightblue" d="M573.697,-124.444C592.944,-115.636 623.152,-101.812 645.2,-91.722"/>
<polygon fill="midnightblue" stroke="midnightblue" points="646.753,-94.8603 654.39,-87.5164 643.84,-88.4951 646.753,-94.8603"/>
</g>
<!-- Node26 -->
<g id="node26" class="node"><title>Node26</title>
<polygon fill="none" stroke="#bfbfbf" points="365.5,-68.5 365.5,-87.5 414.5,-87.5 414.5,-68.5 365.5,-68.5"/>
<text text-anchor="middle" x="390" y="-75.5" font-family="Helvetica,sans-Serif" font-size="10.00">cassert</text>
</g>
<!-- Node23&#45;&gt;Node26 -->
<g id="edge26" class="edge"><title>Node23&#45;&gt;Node26</title>
<path fill="none" stroke="midnightblue" d="M528.855,-124.444C500.567,-115.185 455.344,-100.385 424.239,-90.2054"/>
<polygon fill="midnightblue" stroke="midnightblue" points="425.268,-86.8595 414.675,-87.0755 423.09,-93.5123 425.268,-86.8595"/>
</g>
<!-- Node27 -->
<g id="node27" class="node"><title>Node27</title>
<polygon fill="none" stroke="#bfbfbf" points="433,-68.5 433,-87.5 489,-87.5 489,-68.5 433,-68.5"/>
<text text-anchor="middle" x="461" y="-75.5" font-family="Helvetica,sans-Serif" font-size="10.00">algorithm</text>
</g>
<!-- Node23&#45;&gt;Node27 -->
<g id="edge28" class="edge"><title>Node23&#45;&gt;Node27</title>
<path fill="none" stroke="midnightblue" d="M539.897,-124.324C525.097,-115.822 502.306,-102.729 485.018,-92.7975"/>
<polygon fill="midnightblue" stroke="midnightblue" points="486.48,-89.6009 476.065,-87.6545 482.993,-95.6707 486.48,-89.6009"/>
</g>
<!-- Node23&#45;&gt;Node28 -->
<g id="edge29" class="edge"><title>Node23&#45;&gt;Node28</title>
<path fill="none" stroke="midnightblue" d="M517.402,-124.494C479.591,-115.931 419.348,-102.265 357.71,-88.1569"/>
<polygon fill="midnightblue" stroke="midnightblue" points="358.337,-84.7101 347.808,-85.8895 356.775,-91.5334 358.337,-84.7101"/>
</g>
</g>
</svg>
        <g id="navigator" transform="translate(0 0)" fill="#404254">
                <rect fill="#f2f5e9" fill-opacity="0.5" stroke="#606060" stroke-width=".5" x="0" y="0" width="60" height="60"/>
                <use id="zoomplus" xlink:href="#zoomPlus" x="17" y="9" onmousedown="handleZoom(evt,'in')"/>
                <use id="zoomminus" xlink:href="#zoomMin" x="42" y="9" onmousedown="handleZoom(evt,'out')"/>
                <use id="reset" xlink:href="#resetDef" x="30" y="36" onmousedown="handleReset()"/>
                <g id="arrowUp" xlink:href="#dirArrow" transform="translate(30 24)" onmousedown="handlePan(0,-1)">
                  <use xlink:href="#rim" fill="#404040">
                        <set attributeName="fill" to="#808080" begin="arrowUp.mouseover" end="arrowUp.mouseout"/>
                  </use>
                  <path fill="none" stroke="white" stroke-width="1.5" d="M0,-3.0v7 M-2.5,-0.5L0,-3.0L2.5,-0.5"/>
                </g>
                <g id="arrowRight" xlink:href="#dirArrow" transform="rotate(90) translate(36 -43)" onmousedown="handlePan(1,0)">
                  <use xlink:href="#rim" fill="#404040">
                        <set attributeName="fill" to="#808080" begin="arrowRight.mouseover" end="arrowRight.mouseout"/>
                  </use>
                  <path fill="none" stroke="white" stroke-width="1.5" d="M0,-3.0v7 M-2.5,-0.5L0,-3.0L2.5,-0.5"/>
                </g>
                <g id="arrowDown" xlink:href="#dirArrow" transform="rotate(180) translate(-30 -48)" onmousedown="handlePan(0,1)">
                  <use xlink:href="#rim" fill="#404040">
                        <set attributeName="fill" to="#808080" begin="arrowDown.mouseover" end="arrowDown.mouseout"/>
                  </use>
                  <path fill="none" stroke="white" stroke-width="1.5" d="M0,-3.0v7 M-2.5,-0.5L0,-3.0L2.5,-0.5"/>
                </g>
                <g id="arrowLeft" xlink:href="#dirArrow" transform="rotate(270) translate(-36 17)" onmousedown="handlePan(-1,0)">
                  <use xlink:href="#rim" fill="#404040">
                        <set attributeName="fill" to="#808080" begin="arrowLeft.mouseover" end="arrowLeft.mouseout"/>
                  </use>
                  <path fill="none" stroke="white" stroke-width="1.5" d="M0,-3.0v7 M-2.5,-0.5L0,-3.0L2.5,-0.5"/>
                </g>
        </g>
        <svg viewBox="0 0 15 15" width="100%" height="30px" preserveAspectRatio="xMaxYMin meet">
         <g id="arrow_out" transform="scale(0.3 0.3)">
          <a xlink:href="O2MessageMonitor_8cxx__incl_org.svg" target="_base">
           <rect id="button" ry="5" rx="5" y="6" x="6" height="38" width="38"
                fill="#f2f5e9" fill-opacity="0.5" stroke="#606060" stroke-width="1.0"/>
           <path id="arrow"
             d="M 11.500037,31.436501 C 11.940474,20.09759 22.043105,11.32322 32.158766,21.979434 L 37.068811,17.246167 C 37.068811,17.246167 37.088388,32 37.088388,32 L 22.160133,31.978069 C 22.160133,31.978069 26.997745,27.140456 26.997745,27.140456 C 18.528582,18.264221 13.291696,25.230495 11.500037,31.436501 z"
             style="fill:#404040;"/>
          </a>
         </g>
        </svg>
</svg>
