<?xml version="1.0" encoding="UTF-8" standalone="no"?>
<!DOCTYPE svg PUBLIC "-//W3C//DTD SVG 1.1//EN"
 "http://www.w3.org/Graphics/SVG/1.1/DTD/svg11.dtd">
<!-- Generated by graphviz version 2.36.0 (20140111.2315)
 -->
<!-- Title: o2::TPC::TPCSectorHeader Pages: 1 -->
<svg width="1013pt" height="1008pt"
 viewBox="0.00 0.00 1012.71 1008.00" xmlns="http://www.w3.org/2000/svg" xmlns:xlink="http://www.w3.org/1999/xlink">
<g id="graph0" class="graph" transform="scale(1 1) rotate(0) translate(4 1004)">
<title>o2::TPC::TPCSectorHeader</title>
<!-- Node1 -->
<g id="node1" class="node"><title>Node1</title>
<polygon fill="#bfbfbf" stroke="black" points="704.713,-0.5 704.713,-57.5 844.713,-57.5 844.713,-0.5 704.713,-0.5"/>
<text text-anchor="middle" x="774.713" y="-45.5" font-family="Helvetica,sans-Serif" font-size="10.00">o2::TPC::TPCSectorHeader</text>
<polyline fill="none" stroke="black" points="704.713,-38.5 844.713,-38.5 "/>
<text text-anchor="middle" x="774.713" y="-26.5" font-family="Helvetica,sans-Serif" font-size="10.00"> </text>
<polyline fill="none" stroke="black" points="704.713,-19.5 844.713,-19.5 "/>
<text text-anchor="start" x="712.713" y="-7.5" font-family="Helvetica,sans-Serif" font-size="10.00">+ TPCSectorHeader()</text>
</g>
<!-- Node2 -->
<g id="node2" class="node"><title>Node2</title>
<g id="a_node2"><a xlink:href="../../d8/dbd/structo2_1_1header_1_1BaseHeader.html" target="_top" xlink:title="the base header struct Every header type must begin (i.e. derive) with this. Don&#39;t use this struct di...">
<polygon fill="none" stroke="black" points="506.713,-138.5 506.713,-283.5 628.713,-283.5 628.713,-138.5 506.713,-138.5"/>
<text text-anchor="middle" x="567.713" y="-271.5" font-family="Helvetica,sans-Serif" font-size="10.00">o2::header::BaseHeader</text>
<polyline fill="none" stroke="black" points="506.713,-264.5 628.713,-264.5 "/>
<text text-anchor="middle" x="567.713" y="-252.5" font-family="Helvetica,sans-Serif" font-size="10.00"> </text>
<polyline fill="none" stroke="black" points="506.713,-245.5 628.713,-245.5 "/>
<text text-anchor="start" x="514.713" y="-233.5" font-family="Helvetica,sans-Serif" font-size="10.00">+ BaseHeader()</text>
<text text-anchor="start" x="514.713" y="-222.5" font-family="Helvetica,sans-Serif" font-size="10.00">+ BaseHeader()</text>
<text text-anchor="start" x="514.713" y="-211.5" font-family="Helvetica,sans-Serif" font-size="10.00">+ BaseHeader()</text>
<text text-anchor="start" x="514.713" y="-200.5" font-family="Helvetica,sans-Serif" font-size="10.00">+ size()</text>
<text text-anchor="start" x="514.713" y="-189.5" font-family="Helvetica,sans-Serif" font-size="10.00">+ data()</text>
<text text-anchor="start" x="514.713" y="-178.5" font-family="Helvetica,sans-Serif" font-size="10.00">+ next()</text>
<text text-anchor="start" x="514.713" y="-167.5" font-family="Helvetica,sans-Serif" font-size="10.00">+ next()</text>
<text text-anchor="start" x="514.713" y="-156.5" font-family="Helvetica,sans-Serif" font-size="10.00">+ get()</text>
<text text-anchor="start" x="514.713" y="-145.5" font-family="Helvetica,sans-Serif" font-size="10.00">+ get()</text>
</a>
</g>
</g>
<!-- Node2&#45;&gt;Node1 -->
<g id="edge1" class="edge"><title>Node2&#45;&gt;Node1</title>
<path fill="none" stroke="midnightblue" d="M636.548,-150.144C672.496,-118.884 714.753,-82.1392 742.981,-57.5931"/>
<polygon fill="none" stroke="midnightblue" points="634.229,-147.522 628.98,-156.725 638.822,-152.804 634.229,-147.522"/>
</g>
<!-- Node3 -->
<g id="node3" class="node"><title>Node3</title>
<g id="a_node3"><a xlink:href="../../d9/db3/structo2_1_1header_1_1Descriptor.html" target="_top" xlink:title="{o2::header::Descriptor\l\&lt; gSizeHeaderDescriptionString \&gt;\n||+ Descriptor()\l+ Descriptor()\l+ Descriptor()\l+ Descriptor()\l+ operator=()\l+ operator ItgType()\l+ runtimeInit()\l+ operator==()\l+ operator==()\l+ operator!=()\l+ operator!=()\l+ as()\l+ print()\l}">
<polygon fill="none" stroke="black" points="111.713,-409 111.713,-609 277.713,-609 277.713,-409 111.713,-409"/>
<text text-anchor="start" x="119.713" y="-597" font-family="Helvetica,sans-Serif" font-size="10.00">o2::header::Descriptor</text>
<text text-anchor="middle" x="194.713" y="-586" font-family="Helvetica,sans-Serif" font-size="10.00">&lt; gSizeHeaderDescriptionString &gt;</text>
<polyline fill="none" stroke="black" points="111.713,-579 277.713,-579 "/>
<text text-anchor="middle" x="194.713" y="-567" font-family="Helvetica,sans-Serif" font-size="10.00"> </text>
<polyline fill="none" stroke="black" points="111.713,-560 277.713,-560 "/>
<text text-anchor="start" x="119.713" y="-548" font-family="Helvetica,sans-Serif" font-size="10.00">+ Descriptor()</text>
<text text-anchor="start" x="119.713" y="-537" font-family="Helvetica,sans-Serif" font-size="10.00">+ Descriptor()</text>
<text text-anchor="start" x="119.713" y="-526" font-family="Helvetica,sans-Serif" font-size="10.00">+ Descriptor()</text>
<text text-anchor="start" x="119.713" y="-515" font-family="Helvetica,sans-Serif" font-size="10.00">+ Descriptor()</text>
<text text-anchor="start" x="119.713" y="-504" font-family="Helvetica,sans-Serif" font-size="10.00">+ operator=()</text>
<text text-anchor="start" x="119.713" y="-493" font-family="Helvetica,sans-Serif" font-size="10.00">+ operator ItgType()</text>
<text text-anchor="start" x="119.713" y="-482" font-family="Helvetica,sans-Serif" font-size="10.00">+ runtimeInit()</text>
<text text-anchor="start" x="119.713" y="-471" font-family="Helvetica,sans-Serif" font-size="10.00">+ operator==()</text>
<text text-anchor="start" x="119.713" y="-460" font-family="Helvetica,sans-Serif" font-size="10.00">+ operator==()</text>
<text text-anchor="start" x="119.713" y="-449" font-family="Helvetica,sans-Serif" font-size="10.00">+ operator!=()</text>
<text text-anchor="start" x="119.713" y="-438" font-family="Helvetica,sans-Serif" font-size="10.00">+ operator!=()</text>
<text text-anchor="start" x="119.713" y="-427" font-family="Helvetica,sans-Serif" font-size="10.00">+ as()</text>
<text text-anchor="start" x="119.713" y="-416" font-family="Helvetica,sans-Serif" font-size="10.00">+ print()</text>
</a>
</g>
</g>
<!-- Node3&#45;&gt;Node2 -->
<g id="edge2" class="edge"><title>Node3&#45;&gt;Node2</title>
<path fill="none" stroke="#404040" d="M205.871,-408.935C214.828,-371.042 230.904,-330.201 259.713,-302 322.618,-240.424 425.211,-220.574 494.532,-214.399"/>
<polygon fill="none" stroke="#404040" points="494.681,-214.387 500.343,-209.921 506.643,-213.429 500.982,-217.895 494.681,-214.387"/>
<text text-anchor="middle" x="288.213" y="-343.5" font-family="Helvetica,sans-Serif" font-size="10.00"> +description</text>
</g>
<!-- Node4 -->
<g id="node4" class="node"><title>Node4</title>
<polygon fill="none" stroke="#bfbfbf" points="453.713,-941.5 453.713,-998.5 491.713,-998.5 491.713,-941.5 453.713,-941.5"/>
<text text-anchor="middle" x="472.713" y="-986.5" font-family="Helvetica,sans-Serif" font-size="10.00">Type</text>
<polyline fill="none" stroke="#bfbfbf" points="453.713,-979.5 491.713,-979.5 "/>
<text text-anchor="middle" x="472.713" y="-967.5" font-family="Helvetica,sans-Serif" font-size="10.00"> </text>
<polyline fill="none" stroke="#bfbfbf" points="453.713,-960.5 491.713,-960.5 "/>
<text text-anchor="middle" x="472.713" y="-948.5" font-family="Helvetica,sans-Serif" font-size="10.00"> </text>
</g>
<!-- Node4&#45;&gt;Node3 -->
<g id="edge3" class="edge"><title>Node4&#45;&gt;Node3</title>
<path fill="none" stroke="#404040" d="M453.712,-967.393C407.504,-963.079 291.174,-949.653 265.713,-922 188.483,-838.123 300.454,-757.419 229.713,-668 216.092,-650.783 196.089,-668.133 183.713,-650 178.201,-641.924 183.259,-637.767 183.713,-628 183.816,-625.784 183.93,-623.546 184.054,-621.29"/>
<polygon fill="none" stroke="#404040" points="184.066,-621.08 180.441,-614.846 184.801,-609.102 188.426,-615.336 184.066,-621.08"/>
<text text-anchor="middle" x="264.713" y="-766.5" font-family="Helvetica,sans-Serif" font-size="10.00"> +itg</text>
</g>
<!-- Node8 -->
<g id="node8" class="node"><title>Node8</title>
<g id="a_node8"><a xlink:href="../../d9/db3/structo2_1_1header_1_1Descriptor.html" target="_top" xlink:title="{o2::header::Descriptor\l\&lt; N, PrinterPolicy \&gt;\n||+ Descriptor()\l+ Descriptor()\l+ Descriptor()\l+ operator=()\l+ operator ItgType()\l+ Descriptor()\l+ runtimeInit()\l+ operator==()\l+ operator!=()\l+ operator==()\l+ operator!=()\l+ as()\l+ print()\l}">
<polygon fill="none" stroke="black" points="290.213,-669 290.213,-869 403.213,-869 403.213,-669 290.213,-669"/>
<text text-anchor="start" x="298.213" y="-857" font-family="Helvetica,sans-Serif" font-size="10.00">o2::header::Descriptor</text>
<text text-anchor="middle" x="346.713" y="-846" font-family="Helvetica,sans-Serif" font-size="10.00">&lt; N, PrinterPolicy &gt;</text>
<polyline fill="none" stroke="black" points="290.213,-839 403.213,-839 "/>
<text text-anchor="middle" x="346.713" y="-827" font-family="Helvetica,sans-Serif" font-size="10.00"> </text>
<polyline fill="none" stroke="black" points="290.213,-820 403.213,-820 "/>
<text text-anchor="start" x="298.213" y="-808" font-family="Helvetica,sans-Serif" font-size="10.00">+ Descriptor()</text>
<text text-anchor="start" x="298.213" y="-797" font-family="Helvetica,sans-Serif" font-size="10.00">+ Descriptor()</text>
<text text-anchor="start" x="298.213" y="-786" font-family="Helvetica,sans-Serif" font-size="10.00">+ Descriptor()</text>
<text text-anchor="start" x="298.213" y="-775" font-family="Helvetica,sans-Serif" font-size="10.00">+ operator=()</text>
<text text-anchor="start" x="298.213" y="-764" font-family="Helvetica,sans-Serif" font-size="10.00">+ operator ItgType()</text>
<text text-anchor="start" x="298.213" y="-753" font-family="Helvetica,sans-Serif" font-size="10.00">+ Descriptor()</text>
<text text-anchor="start" x="298.213" y="-742" font-family="Helvetica,sans-Serif" font-size="10.00">+ runtimeInit()</text>
<text text-anchor="start" x="298.213" y="-731" font-family="Helvetica,sans-Serif" font-size="10.00">+ operator==()</text>
<text text-anchor="start" x="298.213" y="-720" font-family="Helvetica,sans-Serif" font-size="10.00">+ operator!=()</text>
<text text-anchor="start" x="298.213" y="-709" font-family="Helvetica,sans-Serif" font-size="10.00">+ operator==()</text>
<text text-anchor="start" x="298.213" y="-698" font-family="Helvetica,sans-Serif" font-size="10.00">+ operator!=()</text>
<text text-anchor="start" x="298.213" y="-687" font-family="Helvetica,sans-Serif" font-size="10.00">+ as()</text>
<text text-anchor="start" x="298.213" y="-676" font-family="Helvetica,sans-Serif" font-size="10.00">+ print()</text>
</a>
</g>
</g>
<!-- Node4&#45;&gt;Node8 -->
<g id="edge8" class="edge"><title>Node4&#45;&gt;Node8</title>
<path fill="none" stroke="#404040" d="M455.193,-941.33C443.254,-922.474 426.649,-896.248 410.015,-869.978"/>
<polygon fill="none" stroke="#404040" points="409.82,-869.669 403.231,-866.74 403.401,-859.531 409.99,-862.46 409.82,-869.669"/>
<text text-anchor="middle" x="452.713" y="-902.5" font-family="Helvetica,sans-Serif" font-size="10.00"> +itg</text>
</g>
<!-- Node10 -->
<g id="node10" class="node"><title>Node10</title>
<g id="a_node10"><a xlink:href="../../d9/db3/structo2_1_1header_1_1Descriptor.html" target="_top" xlink:title="{o2::header::Descriptor\l\&lt; gSizeSerializationMethodString \&gt;\n||+ Descriptor()\l+ Descriptor()\l+ Descriptor()\l+ Descriptor()\l+ operator=()\l+ operator ItgType()\l+ runtimeInit()\l+ operator==()\l+ operator==()\l+ operator!=()\l+ operator!=()\l+ as()\l+ print()\l}">
<polygon fill="none" stroke="black" points="445.713,-409 445.713,-609 615.713,-609 615.713,-409 445.713,-409"/>
<text text-anchor="start" x="453.713" y="-597" font-family="Helvetica,sans-Serif" font-size="10.00">o2::header::Descriptor</text>
<text text-anchor="middle" x="530.713" y="-586" font-family="Helvetica,sans-Serif" font-size="10.00">&lt; gSizeSerializationMethodString &gt;</text>
<polyline fill="none" stroke="black" points="445.713,-579 615.713,-579 "/>
<text text-anchor="middle" x="530.713" y="-567" font-family="Helvetica,sans-Serif" font-size="10.00"> </text>
<polyline fill="none" stroke="black" points="445.713,-560 615.713,-560 "/>
<text text-anchor="start" x="453.713" y="-548" font-family="Helvetica,sans-Serif" font-size="10.00">+ Descriptor()</text>
<text text-anchor="start" x="453.713" y="-537" font-family="Helvetica,sans-Serif" font-size="10.00">+ Descriptor()</text>
<text text-anchor="start" x="453.713" y="-526" font-family="Helvetica,sans-Serif" font-size="10.00">+ Descriptor()</text>
<text text-anchor="start" x="453.713" y="-515" font-family="Helvetica,sans-Serif" font-size="10.00">+ Descriptor()</text>
<text text-anchor="start" x="453.713" y="-504" font-family="Helvetica,sans-Serif" font-size="10.00">+ operator=()</text>
<text text-anchor="start" x="453.713" y="-493" font-family="Helvetica,sans-Serif" font-size="10.00">+ operator ItgType()</text>
<text text-anchor="start" x="453.713" y="-482" font-family="Helvetica,sans-Serif" font-size="10.00">+ runtimeInit()</text>
<text text-anchor="start" x="453.713" y="-471" font-family="Helvetica,sans-Serif" font-size="10.00">+ operator==()</text>
<text text-anchor="start" x="453.713" y="-460" font-family="Helvetica,sans-Serif" font-size="10.00">+ operator==()</text>
<text text-anchor="start" x="453.713" y="-449" font-family="Helvetica,sans-Serif" font-size="10.00">+ operator!=()</text>
<text text-anchor="start" x="453.713" y="-438" font-family="Helvetica,sans-Serif" font-size="10.00">+ operator!=()</text>
<text text-anchor="start" x="453.713" y="-427" font-family="Helvetica,sans-Serif" font-size="10.00">+ as()</text>
<text text-anchor="start" x="453.713" y="-416" font-family="Helvetica,sans-Serif" font-size="10.00">+ print()</text>
</a>
</g>
</g>
<!-- Node4&#45;&gt;Node10 -->
<g id="edge17" class="edge"><title>Node4&#45;&gt;Node10</title>
<path fill="none" stroke="#404040" d="M492.071,-965.201C513.84,-959.782 548.175,-947.514 563.713,-922 618.722,-831.675 599.455,-708.797 573.202,-620.786"/>
<polygon fill="none" stroke="#404040" points="573.151,-620.62 567.567,-616.058 569.63,-609.148 575.214,-613.71 573.151,-620.62"/>
<text text-anchor="middle" x="609.713" y="-766.5" font-family="Helvetica,sans-Serif" font-size="10.00"> +itg</text>
</g>
<!-- Node5 -->
<g id="node5" class="node"><title>Node5</title>
<polygon fill="none" stroke="#bfbfbf" points="59.213,-941.5 59.213,-998.5 94.213,-998.5 94.213,-941.5 59.213,-941.5"/>
<text text-anchor="middle" x="76.713" y="-986.5" font-family="Helvetica,sans-Serif" font-size="10.00">char</text>
<polyline fill="none" stroke="#bfbfbf" points="59.213,-979.5 94.213,-979.5 "/>
<text text-anchor="middle" x="76.713" y="-967.5" font-family="Helvetica,sans-Serif" font-size="10.00"> </text>
<polyline fill="none" stroke="#bfbfbf" points="59.213,-960.5 94.213,-960.5 "/>
<text text-anchor="middle" x="76.713" y="-948.5" font-family="Helvetica,sans-Serif" font-size="10.00"> </text>
</g>
<!-- Node5&#45;&gt;Node2 -->
<g id="edge14" class="edge"><title>Node5&#45;&gt;Node2</title>
<path fill="none" stroke="#404040" d="M61.7174,-941.429C58.741,-935.172 55.8727,-928.462 53.713,-922 46.253,-899.679 47.7846,-893.18 43.713,-870 26.5844,-772.485 16.515,-748.7 8.71301,-650 7.94249,-640.253 3.14364,-636.037 8.71301,-628 21.6907,-609.273 41.7245,-627.16 56.713,-610 117.286,-540.653 58.194,-488.598 102.713,-408 180.184,-267.745 384.3,-227.854 494.561,-216.509"/>
<polygon fill="none" stroke="#404040" points="494.61,-216.504 500.197,-211.946 506.554,-215.35 500.967,-219.908 494.61,-216.504"/>
<text text-anchor="middle" x="39.213" y="-636.5" font-family="Helvetica,sans-Serif" font-size="10.00"> +magicString</text>
</g>
<!-- Node5&#45;&gt;Node3 -->
<g id="edge4" class="edge"><title>Node5&#45;&gt;Node3</title>
<path fill="none" stroke="#404040" d="M68.9172,-941.392C55.0191,-887.119 30.4725,-763.507 64.713,-668 73.4975,-643.497 87.9044,-620.077 103.995,-599.126"/>
<polygon fill="none" stroke="#404040" points="104.033,-599.078 104.63,-591.892 111.493,-589.679 110.896,-596.865 104.033,-599.078"/>
<text text-anchor="middle" x="75.213" y="-766.5" font-family="Helvetica,sans-Serif" font-size="10.00"> +str</text>
</g>
<!-- Node5&#45;&gt;Node8 -->
<g id="edge9" class="edge"><title>Node5&#45;&gt;Node8</title>
<path fill="none" stroke="#404040" d="M94.2736,-960.552C141.483,-937.801 268.088,-876.521 275.713,-870 277.751,-868.257 279.76,-866.444 281.738,-864.571"/>
<polygon fill="none" stroke="#404040" points="281.767,-864.542 283.145,-857.464 290.209,-856.014 288.831,-863.092 281.767,-864.542"/>
<text text-anchor="middle" x="249.213" y="-902.5" font-family="Helvetica,sans-Serif" font-size="10.00"> +str</text>
</g>
<!-- Node5&#45;&gt;Node10 -->
<g id="edge18" class="edge"><title>Node5&#45;&gt;Node10</title>
<path fill="none" stroke="#404040" d="M79.3131,-941.291C86.2455,-867.894 104.902,-673.65 108.713,-668 166.497,-582.326 369.705,-623.66 434.155,-610.994"/>
<polygon fill="none" stroke="#404040" points="434.24,-610.967 438.782,-605.367 445.699,-607.406 441.157,-613.007 434.24,-610.967"/>
<text text-anchor="middle" x="119.213" y="-766.5" font-family="Helvetica,sans-Serif" font-size="10.00"> +str</text>
</g>
<!-- Node6 -->
<g id="node6" class="node"><title>Node6</title>
<polygon fill="none" stroke="#bfbfbf" points="229.213,-941.5 229.213,-998.5 258.213,-998.5 258.213,-941.5 229.213,-941.5"/>
<text text-anchor="middle" x="243.713" y="-986.5" font-family="Helvetica,sans-Serif" font-size="10.00">int</text>
<polyline fill="none" stroke="#bfbfbf" points="229.213,-979.5 258.213,-979.5 "/>
<text text-anchor="middle" x="243.713" y="-967.5" font-family="Helvetica,sans-Serif" font-size="10.00"> </text>
<polyline fill="none" stroke="#bfbfbf" points="229.213,-960.5 258.213,-960.5 "/>
<text text-anchor="middle" x="243.713" y="-948.5" font-family="Helvetica,sans-Serif" font-size="10.00"> </text>
</g>
<!-- Node6&#45;&gt;Node1 -->
<g id="edge26" class="edge"><title>Node6&#45;&gt;Node1</title>
<path fill="none" stroke="#404040" d="M229.013,-963.721C187.021,-948.348 67.9929,-902.64 43.713,-870 -18.1686,-786.811 4.71301,-743.681 4.71301,-640 4.71301,-640 4.71301,-640 4.71301,-210 4.71301,-69.8999 494.158,-38.7799 692.606,-31.92"/>
<polygon fill="none" stroke="#404040" points="692.688,-31.9174 698.552,-27.721 704.681,-31.5203 698.817,-35.7167 692.688,-31.9174"/>
<text text-anchor="middle" x="28.713" y="-512" font-family="Helvetica,sans-Serif" font-size="10.00"> +sector</text>
<text text-anchor="middle" x="28.713" y="-501" font-family="Helvetica,sans-Serif" font-size="10.00">+NSectors</text>
</g>
<!-- Node6&#45;&gt;Node3 -->
<g id="edge5" class="edge"><title>Node6&#45;&gt;Node3</title>
<path fill="none" stroke="#404040" d="M229.132,-951.156C214.318,-932.154 191.752,-900.651 178.713,-870 178.1,-868.558 128.888,-651.557 128.713,-650 127.623,-640.283 126.247,-637.462 128.713,-628 129.349,-625.56 130.048,-623.117 130.803,-620.676"/>
<polygon fill="none" stroke="#404040" points="130.82,-620.625 128.991,-613.65 134.726,-609.278 136.555,-616.253 130.82,-620.625"/>
<text text-anchor="middle" x="204.213" y="-777.5" font-family="Helvetica,sans-Serif" font-size="10.00"> +arraySize</text>
<text text-anchor="middle" x="204.213" y="-766.5" font-family="Helvetica,sans-Serif" font-size="10.00">+size</text>
<text text-anchor="middle" x="204.213" y="-755.5" font-family="Helvetica,sans-Serif" font-size="10.00">+bitcount</text>
</g>
<!-- Node6&#45;&gt;Node8 -->
<g id="edge10" class="edge"><title>Node6&#45;&gt;Node8</title>
<path fill="none" stroke="#404040" d="M258.035,-941.33C266.529,-924.919 277.912,-902.926 289.685,-880.18"/>
<polygon fill="none" stroke="#404040" points="289.782,-879.993 288.987,-872.826 295.298,-869.336 296.092,-876.503 289.782,-879.993"/>
<text text-anchor="middle" x="309.213" y="-913.5" font-family="Helvetica,sans-Serif" font-size="10.00"> +arraySize</text>
<text text-anchor="middle" x="309.213" y="-902.5" font-family="Helvetica,sans-Serif" font-size="10.00">+size</text>
<text text-anchor="middle" x="309.213" y="-891.5" font-family="Helvetica,sans-Serif" font-size="10.00">+bitcount</text>
</g>
<!-- Node6&#45;&gt;Node10 -->
<g id="edge19" class="edge"><title>Node6&#45;&gt;Node10</title>
<path fill="none" stroke="#404040" d="M258.493,-965.145C292.161,-955.513 374.512,-926.977 411.713,-870 461.845,-793.219 398.625,-741.306 453.713,-668 463.985,-654.331 476.817,-663.177 487.713,-650 495.049,-641.129 501.135,-631.017 506.184,-620.38"/>
<polygon fill="none" stroke="#404040" points="506.289,-620.139 505.016,-613.041 511.078,-609.136 512.351,-616.234 506.289,-620.139"/>
<text text-anchor="middle" x="479.213" y="-777.5" font-family="Helvetica,sans-Serif" font-size="10.00"> +arraySize</text>
<text text-anchor="middle" x="479.213" y="-766.5" font-family="Helvetica,sans-Serif" font-size="10.00">+size</text>
<text text-anchor="middle" x="479.213" y="-755.5" font-family="Helvetica,sans-Serif" font-size="10.00">+bitcount</text>
</g>
<!-- Node7 -->
<g id="node7" class="node"><title>Node7</title>
<polygon fill="none" stroke="#bfbfbf" points="664.213,-941 664.213,-999 693.213,-999 693.213,-941 664.213,-941"/>
<polyline fill="none" stroke="#bfbfbf" points="664.213,-979 693.213,-979 "/>
<text text-anchor="middle" x="678.713" y="-967" font-family="Helvetica,sans-Serif" font-size="10.00"> </text>
<polyline fill="none" stroke="#bfbfbf" points="664.213,-960 693.213,-960 "/>
<text text-anchor="middle" x="678.713" y="-948" font-family="Helvetica,sans-Serif" font-size="10.00"> </text>
</g>
<!-- Node7&#45;&gt;Node1 -->
<g id="edge25" class="edge"><title>Node7&#45;&gt;Node1</title>
<path fill="none" stroke="#404040" d="M693.445,-962.785C739.027,-942.461 874.713,-873.288 874.713,-770 874.713,-770 874.713,-770 874.713,-210 874.713,-154.94 838.516,-100.978 809.677,-66.7228"/>
<polygon fill="none" stroke="#404040" points="809.631,-66.6696 802.679,-64.7533 801.774,-57.5992 808.726,-59.5155 809.631,-66.6696"/>
<text text-anchor="middle" x="890.213" y="-506.5" font-family="Helvetica,sans-Serif" font-size="10.00"> +@10</text>
</g>
<!-- Node7&#45;&gt;Node2 -->
<g id="edge13" class="edge"><title>Node7&#45;&gt;Node2</title>
<path fill="none" stroke="#404040" d="M684.471,-940.981C688.226,-921.237 692.776,-894.123 694.713,-870 701.898,-780.51 713.49,-755.792 694.713,-668 688.805,-640.375 677.544,-636.833 668.713,-610 639.989,-522.722 647.333,-497.055 624.713,-408 623.213,-402.095 606.872,-345.962 592.07,-295.275"/>
<polygon fill="none" stroke="#404040" points="592.012,-295.074 586.49,-290.436 588.647,-283.555 594.169,-288.193 592.012,-295.074"/>
<text text-anchor="middle" x="705.213" y="-636.5" font-family="Helvetica,sans-Serif" font-size="10.00"> +@16</text>
</g>
<!-- Node7&#45;&gt;Node2 -->
<g id="edge15" class="edge"><title>Node7&#45;&gt;Node2</title>
<path fill="none" stroke="#404040" d="M693.454,-945.778C697.61,-938.404 701.79,-930.066 704.713,-922 712.731,-899.873 712.055,-893.384 714.713,-870 726.866,-763.074 767.68,-725.769 722.713,-628 717.576,-616.832 707.94,-620.599 701.713,-610 655.306,-531.016 701.665,-489.945 660.713,-408 655.928,-398.425 650.007,-399.303 644.713,-390 624.414,-354.328 632.821,-339.75 616.713,-302 615.663,-299.54 614.568,-297.059 613.436,-294.568"/>
<polygon fill="none" stroke="#404040" points="613.387,-294.464 607.209,-290.744 608.266,-283.611 614.444,-287.33 613.387,-294.464"/>
<text text-anchor="middle" x="747.213" y="-636.5" font-family="Helvetica,sans-Serif" font-size="10.00"> +@18</text>
</g>
<!-- Node7&#45;&gt;Node3 -->
<g id="edge6" class="edge"><title>Node7&#45;&gt;Node3</title>
<path fill="none" stroke="#404040" d="M663.932,-953.178C646.976,-935.66 617.756,-907.345 588.713,-888 573.16,-877.64 562.408,-884.576 550.713,-870 481.433,-783.652 577.702,-697.726 491.713,-628 462.377,-604.213 357.721,-624.172 322.713,-610 310.905,-605.22 299.279,-599.013 288.139,-592.032"/>
<polygon fill="none" stroke="#404040" points="288.089,-592 280.878,-592.057 278.052,-585.422 285.263,-585.366 288.089,-592"/>
<text text-anchor="middle" x="566.213" y="-766.5" font-family="Helvetica,sans-Serif" font-size="10.00"> +@14</text>
</g>
<!-- Node7&#45;&gt;Node8 -->
<g id="edge11" class="edge"><title>Node7&#45;&gt;Node8</title>
<path fill="none" stroke="#404040" d="M664.087,-963.337C629.71,-950.044 541.058,-915.856 466.713,-888 444.987,-879.86 436.144,-884.091 417.713,-870 416.027,-868.711 414.364,-867.371 412.726,-865.985"/>
<polygon fill="none" stroke="#404040" points="412.443,-865.724 405.319,-864.602 403.615,-857.595 410.739,-858.717 412.443,-865.724"/>
<text text-anchor="middle" x="570.213" y="-902.5" font-family="Helvetica,sans-Serif" font-size="10.00"> +@14</text>
</g>
<!-- Node7&#45;&gt;Node10 -->
<g id="edge20" class="edge"><title>Node7&#45;&gt;Node10</title>
<path fill="none" stroke="#404040" d="M674.165,-940.959C662.766,-871.182 633.211,-693.515 623.713,-668 617.758,-652.004 610.218,-635.776 602.016,-620.116"/>
<polygon fill="none" stroke="#404040" points="601.925,-619.946 595.561,-616.554 596.245,-609.375 602.608,-612.767 601.925,-619.946"/>
<text text-anchor="middle" x="678.213" y="-766.5" font-family="Helvetica,sans-Serif" font-size="10.00"> +@14</text>
</g>
<!-- Node8&#45;&gt;Node1 -->
<g id="edge27" class="edge"><title>Node8&#45;&gt;Node1</title>
<path fill="none" stroke="#404040" d="M403.247,-671.209C404.704,-670.091 406.193,-669.019 407.713,-668 416.194,-662.313 763.814,-617.528 770.713,-610 863.436,-508.824 765.915,-436.596 792.713,-302 794.36,-293.73 797.362,-292.324 798.713,-284 809.107,-219.949 805.793,-202.501 798.713,-138 796.184,-114.966 790.709,-89.656 785.626,-69.3313"/>
<polygon fill="none" stroke="#404040" points="785.62,-69.3106 780.248,-64.5002 782.622,-57.6911 787.995,-62.5016 785.62,-69.3106"/>
<text text-anchor="middle" x="826.713" y="-343.5" font-family="Helvetica,sans-Serif" font-size="10.00"> +sHeaderType</text>
</g>
<!-- Node8&#45;&gt;Node2 -->
<g id="edge22" class="edge"><title>Node8&#45;&gt;Node2</title>
<path fill="none" stroke="#404040" d="M335.28,-668.995C326.558,-578.693 319.175,-452.739 339.713,-408 371.731,-338.253 442.175,-283.971 496.347,-250.396"/>
<polygon fill="none" stroke="#404040" points="496.349,-250.395 499.399,-243.861 506.604,-244.164 503.553,-250.698 496.349,-250.395"/>
<text text-anchor="middle" x="388.213" y="-512" font-family="Helvetica,sans-Serif" font-size="10.00"> +sHeaderType</text>
<text text-anchor="middle" x="388.213" y="-501" font-family="Helvetica,sans-Serif" font-size="10.00">+sSerializationMethod</text>
</g>
<!-- Node8&#45;&gt;Node3 -->
<g id="edge7" class="edge"><title>Node8&#45;&gt;Node3</title>
<path fill="none" stroke="orange" d="M282.074,-672.621C279.999,-670.999 277.878,-669.454 275.713,-668 246.539,-648.403 220.944,-677.22 198.713,-650 189.177,-638.324 184.025,-624.092 181.693,-609.226"/>
<polygon fill="orange" stroke="orange" points="279.967,-675.424 289.852,-679.238 284.503,-670.092 279.967,-675.424"/>
<text text-anchor="start" x="198.713" y="-642" font-family="Helvetica,sans-Serif" font-size="10.00"> &lt; gSizeHeaderDescription</text>
<text text-anchor="middle" x="257.713" y="-631" font-family="Helvetica,sans-Serif" font-size="10.00">String &gt;</text>
</g>
<!-- Node8&#45;&gt;Node10 -->
<g id="edge21" class="edge"><title>Node8&#45;&gt;Node10</title>
<path fill="none" stroke="orange" d="M347.53,-659.04C351.316,-647.677 356.84,-637.011 364.713,-628 385,-604.781 405.054,-625.493 431.713,-610 436.36,-607.299 440.939,-604.325 445.428,-601.142"/>
<polygon fill="orange" stroke="orange" points="344.144,-658.15 344.746,-668.728 350.872,-660.084 344.144,-658.15"/>
<text text-anchor="start" x="364.713" y="-642" font-family="Helvetica,sans-Serif" font-size="10.00"> &lt; gSizeSerializationMethod</text>
<text text-anchor="middle" x="426.213" y="-631" font-family="Helvetica,sans-Serif" font-size="10.00">String &gt;</text>
</g>
<!-- Node9 -->
<g id="node9" class="node"><title>Node9</title>
<polygon fill="none" stroke="#bfbfbf" points="711.213,-480.5 711.213,-537.5 762.213,-537.5 762.213,-480.5 711.213,-480.5"/>
<text text-anchor="middle" x="736.713" y="-525.5" font-family="Helvetica,sans-Serif" font-size="10.00">uint32_t</text>
<polyline fill="none" stroke="#bfbfbf" points="711.213,-518.5 762.213,-518.5 "/>
<text text-anchor="middle" x="736.713" y="-506.5" font-family="Helvetica,sans-Serif" font-size="10.00"> </text>
<polyline fill="none" stroke="#bfbfbf" points="711.213,-499.5 762.213,-499.5 "/>
<text text-anchor="middle" x="736.713" y="-487.5" font-family="Helvetica,sans-Serif" font-size="10.00"> </text>
</g>
<!-- Node9&#45;&gt;Node1 -->
<g id="edge23" class="edge"><title>Node9&#45;&gt;Node1</title>
<path fill="none" stroke="#404040" d="M738.931,-480.363C740.767,-456.461 743.295,-420.973 744.713,-390 749.837,-278.085 737.164,-249.209 750.713,-138 753.516,-114.997 759.007,-89.6895 764.03,-69.3579"/>
<polygon fill="none" stroke="#404040" points="764.034,-69.343 761.635,-62.5427 766.989,-57.7126 769.388,-64.513 764.034,-69.343"/>
<text text-anchor="middle" x="774.713" y="-208.5" font-family="Helvetica,sans-Serif" font-size="10.00"> +sVersion</text>
</g>
<!-- Node9&#45;&gt;Node2 -->
<g id="edge12" class="edge"><title>Node9&#45;&gt;Node2</title>
<path fill="none" stroke="#404040" d="M730.985,-480.295C725.327,-458.578 714.826,-428.675 696.713,-408 685.96,-395.726 674.679,-402.921 664.713,-390 640.023,-357.991 660.089,-338.007 641.713,-302 639.793,-298.237 637.693,-294.49 635.457,-290.78"/>
<polygon fill="none" stroke="#404040" points="635.305,-290.543 628.699,-287.652 628.826,-280.442 635.432,-283.333 635.305,-290.543"/>
<text text-anchor="middle" x="704.713" y="-382" font-family="Helvetica,sans-Serif" font-size="10.00"> +headerVersion</text>
<text text-anchor="middle" x="704.713" y="-371" font-family="Helvetica,sans-Serif" font-size="10.00">+headerSize</text>
<text text-anchor="middle" x="704.713" y="-360" font-family="Helvetica,sans-Serif" font-size="10.00">+sMagicString</text>
<text text-anchor="middle" x="704.713" y="-349" font-family="Helvetica,sans-Serif" font-size="10.00">+flagsNextHeader</text>
<text text-anchor="middle" x="704.713" y="-338" font-family="Helvetica,sans-Serif" font-size="10.00">+magicStringInt</text>
<text text-anchor="middle" x="704.713" y="-327" font-family="Helvetica,sans-Serif" font-size="10.00">+flagsUnused</text>
<text text-anchor="middle" x="704.713" y="-316" font-family="Helvetica,sans-Serif" font-size="10.00">+flags</text>
<text text-anchor="middle" x="704.713" y="-305" font-family="Helvetica,sans-Serif" font-size="10.00">+sVersion</text>
</g>
<!-- Node10&#45;&gt;Node2 -->
<g id="edge16" class="edge"><title>Node10&#45;&gt;Node2</title>
<path fill="none" stroke="#404040" d="M522.951,-408.745C522.329,-374.631 523.921,-336.384 530.713,-302 531.142,-299.826 531.625,-297.639 532.154,-295.445"/>
<polygon fill="none" stroke="#404040" points="532.205,-295.26 529.941,-288.414 535.391,-283.691 537.654,-290.538 532.205,-295.26"/>
<text text-anchor="middle" x="561.213" y="-343.5" font-family="Helvetica,sans-Serif" font-size="10.00"> +serialization</text>
</g>
<!-- Node11 -->
<g id="node11" class="node"><title>Node11</title>
<polygon fill="none" stroke="#bfbfbf" points="903.213,-182.5 903.213,-239.5 954.213,-239.5 954.213,-182.5 903.213,-182.5"/>
<text text-anchor="middle" x="928.713" y="-227.5" font-family="Helvetica,sans-Serif" font-size="10.00">uint64_t</text>
<polyline fill="none" stroke="#bfbfbf" points="903.213,-220.5 954.213,-220.5 "/>
<text text-anchor="middle" x="928.713" y="-208.5" font-family="Helvetica,sans-Serif" font-size="10.00"> </text>
<polyline fill="none" stroke="#bfbfbf" points="903.213,-201.5 954.213,-201.5 "/>
<text text-anchor="middle" x="928.713" y="-189.5" font-family="Helvetica,sans-Serif" font-size="10.00"> </text>
</g>
<!-- Node11&#45;&gt;Node1 -->
<g id="edge24" class="edge"><title>Node11&#45;&gt;Node1</title>
<path fill="none" stroke="#404040" d="M927.368,-182.469C924.505,-152.723 915.685,-105.618 888.713,-76 879.599,-65.9923 868.004,-58.12 855.717,-51.9392"/>
<polygon fill="none" stroke="#404040" points="855.696,-51.9295 848.575,-53.0673 844.786,-46.9319 851.907,-45.7941 855.696,-51.9295"/>
<text text-anchor="middle" x="959.213" y="-112" font-family="Helvetica,sans-Serif" font-size="10.00"> +unused</text>
<text text-anchor="middle" x="959.213" y="-101" font-family="Helvetica,sans-Serif" font-size="10.00">+flags</text>
<text text-anchor="middle" x="959.213" y="-90" font-family="Helvetica,sans-Serif" font-size="10.00">+activeSectorsFlags</text>
<text text-anchor="middle" x="959.213" y="-79" font-family="Helvetica,sans-Serif" font-size="10.00">+activeSectors</text>
</g>
</g>
</svg>
