<?xml version="1.0" encoding="UTF-8" standalone="no"?>
<!DOCTYPE svg PUBLIC "-//W3C//DTD SVG 1.1//EN"
 "http://www.w3.org/Graphics/SVG/1.1/DTD/svg11.dtd">
<!-- Generated by graphviz version 2.36.0 (20140111.2315)
 -->
<!-- Title: /home/travis/build/AliceO2Group/AliceO2/Common/SimConfig/include/SimConfig/SimConfig.h Pages: 1 -->
<!--zoomable 386 -->
<svg id="main" version="1.1" xmlns="http://www.w3.org/2000/svg" xmlns:xlink="http://www.w3.org/1999/xlink" xml:space="preserve" onload="init(evt)">
<style type="text/css"><![CDATA[
.edge:hover path { stroke: red; }
.edge:hover polygon { stroke: red; fill: red; }
]]></style>
<script type="text/javascript"><![CDATA[
var edges = document.getElementsByTagName('g');
if (edges && edges.length) {
  for (var i=0;i<edges.length;i++) {
    if (edges[i].id.substr(0,4)=='edge') {
      edges[i].setAttribute('class','edge');
    }
  }
}
]]></script>
        <defs>
                <circle id="rim" cx="0" cy="0" r="7"/>
                <circle id="rim2" cx="0" cy="0" r="3.5"/>
                <g id="zoomPlus">
                        <use xlink:href="#rim" fill="#404040">
                                <set attributeName="fill" to="#808080" begin="zoomplus.mouseover" end="zoomplus.mouseout"/>
                        </use>
                        <path d="M-4,0h8M0,-4v8" fill="none" stroke="white" stroke-width="1.5" pointer-events="none"/>
                </g>
                <g id="zoomMin">
                        <use xlink:href="#rim" fill="#404040">
                                <set attributeName="fill" to="#808080" begin="zoomminus.mouseover" end="zoomminus.mouseout"/>
                        </use>
                        <path d="M-4,0h8" fill="none" stroke="white" stroke-width="1.5" pointer-events="none"/>
                </g>
                <g id="dirArrow">
                        <path fill="none" stroke="white" stroke-width="1.5" d="M0,-3.0v7 M-2.5,-0.5L0,-3.0L2.5,-0.5"/>
                </g>
               <g id="resetDef">
                       <use xlink:href="#rim2" fill="#404040">
                               <set attributeName="fill" to="#808080" begin="reset.mouseover" end="reset.mouseout"/>
                       </use>
               </g>
        </defs>

<script type="text/javascript">
var viewWidth = 1209;
var viewHeight = 386;
var sectionId = 'dynsection-1';
</script>
<script xlink:href="../../svgpan.js"/>
<svg id="graph" class="graph">
<g id="viewport">
<title>/home/travis/build/AliceO2Group/AliceO2/Common/SimConfig/include/SimConfig/SimConfig.h</title>
<!-- Node1 -->
<g id="node1" class="node"><title>Node1</title>
<polygon fill="#bfbfbf" stroke="black" points="558,-325 558,-377 700,-377 700,-325 558,-325"/>
<text text-anchor="start" x="566" y="-365" font-family="Helvetica,sans-Serif" font-size="10.00">/home/travis/build</text>
<text text-anchor="start" x="566" y="-354" font-family="Helvetica,sans-Serif" font-size="10.00">/AliceO2Group/AliceO2</text>
<text text-anchor="start" x="566" y="-343" font-family="Helvetica,sans-Serif" font-size="10.00">/Common/SimConfig/include</text>
<text text-anchor="middle" x="629" y="-332" font-family="Helvetica,sans-Serif" font-size="10.00">/SimConfig/SimConfig.h</text>
</g>
<!-- Node2 -->
<g id="node2" class="node"><title>Node2</title>
<g id="a_node2"><a xlink:href="../../d8/d12/SimConfig_8cxx.html" target="_top" xlink:title="/home/travis/build\l/AliceO2Group/AliceO2\l/Common/SimConfig/src\l/SimConfig.cxx">
<polygon fill="none" stroke="black" points="-0.5,-235 -0.5,-287 124.5,-287 124.5,-235 -0.5,-235"/>
<text text-anchor="start" x="7.5" y="-275" font-family="Helvetica,sans-Serif" font-size="10.00">/home/travis/build</text>
<text text-anchor="start" x="7.5" y="-264" font-family="Helvetica,sans-Serif" font-size="10.00">/AliceO2Group/AliceO2</text>
<text text-anchor="start" x="7.5" y="-253" font-family="Helvetica,sans-Serif" font-size="10.00">/Common/SimConfig/src</text>
<text text-anchor="middle" x="62" y="-242" font-family="Helvetica,sans-Serif" font-size="10.00">/SimConfig.cxx</text>
</a>
</g>
</g>
<!-- Node1&#45;&gt;Node2 -->
<g id="edge1" class="edge"><title>Node1&#45;&gt;Node2</title>
<path fill="none" stroke="midnightblue" d="M547.389,-345.343C448.445,-338.426 277.156,-322.361 134,-288 130.898,-287.256 127.746,-286.422 124.578,-285.523"/>
<polygon fill="midnightblue" stroke="midnightblue" points="547.401,-348.852 557.617,-346.043 547.88,-341.868 547.401,-348.852"/>
</g>
<!-- Node3 -->
<g id="node3" class="node"><title>Node3</title>
<g id="a_node3"><a xlink:href="../../d2/da3/TestConfig_8cxx.html" target="_top" xlink:title="/home/travis/build\l/AliceO2Group/AliceO2\l/Common/SimConfig/test\l/TestConfig.cxx">
<polygon fill="none" stroke="black" points="143,-235 143,-287 271,-287 271,-235 143,-235"/>
<text text-anchor="start" x="151" y="-275" font-family="Helvetica,sans-Serif" font-size="10.00">/home/travis/build</text>
<text text-anchor="start" x="151" y="-264" font-family="Helvetica,sans-Serif" font-size="10.00">/AliceO2Group/AliceO2</text>
<text text-anchor="start" x="151" y="-253" font-family="Helvetica,sans-Serif" font-size="10.00">/Common/SimConfig/test</text>
<text text-anchor="middle" x="207" y="-242" font-family="Helvetica,sans-Serif" font-size="10.00">/TestConfig.cxx</text>
</a>
</g>
</g>
<!-- Node1&#45;&gt;Node3 -->
<g id="edge2" class="edge"><title>Node1&#45;&gt;Node3</title>
<path fill="none" stroke="midnightblue" d="M547.469,-339.434C476.202,-329.272 370.292,-311.922 280,-288 277.139,-287.242 274.231,-286.422 271.304,-285.557"/>
<polygon fill="midnightblue" stroke="midnightblue" points="547.335,-342.95 557.726,-340.881 548.313,-336.019 547.335,-342.95"/>
</g>
<!-- Node4 -->
<g id="node4" class="node"><title>Node4</title>
<g id="a_node4"><a xlink:href="../../d0/d83/GeneratorFactory_8cxx.html" target="_top" xlink:title="/home/travis/build\l/AliceO2Group/AliceO2\l/Generators/src/GeneratorFactory.cxx">
<polygon fill="none" stroke="black" points="289,-240.5 289,-281.5 471,-281.5 471,-240.5 289,-240.5"/>
<text text-anchor="start" x="297" y="-269.5" font-family="Helvetica,sans-Serif" font-size="10.00">/home/travis/build</text>
<text text-anchor="start" x="297" y="-258.5" font-family="Helvetica,sans-Serif" font-size="10.00">/AliceO2Group/AliceO2</text>
<text text-anchor="middle" x="380" y="-247.5" font-family="Helvetica,sans-Serif" font-size="10.00">/Generators/src/GeneratorFactory.cxx</text>
</a>
</g>
</g>
<!-- Node1&#45;&gt;Node4 -->
<g id="edge3" class="edge"><title>Node1&#45;&gt;Node4</title>
<path fill="none" stroke="midnightblue" d="M548.23,-321.455C511.296,-308.402 468.479,-293.27 435.285,-281.538"/>
<polygon fill="midnightblue" stroke="midnightblue" points="547.385,-324.868 557.98,-324.901 549.718,-318.268 547.385,-324.868"/>
</g>
<!-- Node5 -->
<g id="node5" class="node"><title>Node5</title>
<g id="a_node5"><a xlink:href="../../dc/d6b/o2sim_8C.html" target="_top" xlink:title="/home/travis/build\l/AliceO2Group/AliceO2\l/macro/o2sim.C">
<polygon fill="none" stroke="black" points="527,-240.5 527,-281.5 645,-281.5 645,-240.5 527,-240.5"/>
<text text-anchor="start" x="535" y="-269.5" font-family="Helvetica,sans-Serif" font-size="10.00">/home/travis/build</text>
<text text-anchor="start" x="535" y="-258.5" font-family="Helvetica,sans-Serif" font-size="10.00">/AliceO2Group/AliceO2</text>
<text text-anchor="middle" x="586" y="-247.5" font-family="Helvetica,sans-Serif" font-size="10.00">/macro/o2sim.C</text>
</a>
</g>
</g>
<!-- Node1&#45;&gt;Node5 -->
<g id="edge4" class="edge"><title>Node1&#45;&gt;Node5</title>
<path fill="none" stroke="midnightblue" d="M612.165,-315.546C606.521,-303.996 600.427,-291.524 595.541,-281.525"/>
<polygon fill="midnightblue" stroke="midnightblue" points="609.028,-317.099 616.563,-324.547 615.317,-314.025 609.028,-317.099"/>
</g>
<!-- Node6 -->
<g id="node6" class="node"><title>Node6</title>
<g id="a_node6"><a xlink:href="../../db/d82/O2SimDevice_8h.html" target="_top" xlink:title="/home/travis/build\l/AliceO2Group/AliceO2\l/run/O2SimDevice.h">
<polygon fill="none" stroke="black" points="449,-156.5 449,-197.5 567,-197.5 567,-156.5 449,-156.5"/>
<text text-anchor="start" x="457" y="-185.5" font-family="Helvetica,sans-Serif" font-size="10.00">/home/travis/build</text>
<text text-anchor="start" x="457" y="-174.5" font-family="Helvetica,sans-Serif" font-size="10.00">/AliceO2Group/AliceO2</text>
<text text-anchor="middle" x="508" y="-163.5" font-family="Helvetica,sans-Serif" font-size="10.00">/run/O2SimDevice.h</text>
</a>
</g>
</g>
<!-- Node1&#45;&gt;Node6 -->
<g id="edge11" class="edge"><title>Node1&#45;&gt;Node6</title>
<path fill="none" stroke="midnightblue" d="M551.303,-319.645C538.293,-311.26 526.334,-300.831 518,-288 500.243,-260.661 501.66,-221.124 504.616,-197.645"/>
<polygon fill="midnightblue" stroke="midnightblue" points="549.603,-322.708 559.976,-324.866 553.213,-316.71 549.603,-322.708"/>
</g>
<!-- Node10 -->
<g id="node10" class="node"><title>Node10</title>
<g id="a_node10"><a xlink:href="../../d8/d07/o2sim_8cxx.html" target="_top" xlink:title="/home/travis/build\l/AliceO2Group/AliceO2\l/run/o2sim.cxx">
<polygon fill="none" stroke="black" points="603,-156.5 603,-197.5 721,-197.5 721,-156.5 603,-156.5"/>
<text text-anchor="start" x="611" y="-185.5" font-family="Helvetica,sans-Serif" font-size="10.00">/home/travis/build</text>
<text text-anchor="start" x="611" y="-174.5" font-family="Helvetica,sans-Serif" font-size="10.00">/AliceO2Group/AliceO2</text>
<text text-anchor="middle" x="662" y="-163.5" font-family="Helvetica,sans-Serif" font-size="10.00">/run/o2sim.cxx</text>
</a>
</g>
</g>
<!-- Node1&#45;&gt;Node10 -->
<g id="edge15" class="edge"><title>Node1&#45;&gt;Node10</title>
<path fill="none" stroke="midnightblue" d="M645.03,-315.699C648.551,-306.849 651.862,-297.216 654,-288 661.183,-257.037 662.414,-219.977 662.392,-197.747"/>
<polygon fill="midnightblue" stroke="midnightblue" points="641.796,-314.362 641.174,-324.939 648.256,-317.059 641.796,-314.362"/>
</g>
<!-- Node11 -->
<g id="node11" class="node"><title>Node11</title>
<g id="a_node11"><a xlink:href="../../dc/d50/O2PrimaryServerDevice_8h.html" target="_top" xlink:title="/home/travis/build\l/AliceO2Group/AliceO2\l/run/O2PrimaryServerDevice.h">
<polygon fill="none" stroke="black" points="701,-240.5 701,-281.5 851,-281.5 851,-240.5 701,-240.5"/>
<text text-anchor="start" x="709" y="-269.5" font-family="Helvetica,sans-Serif" font-size="10.00">/home/travis/build</text>
<text text-anchor="start" x="709" y="-258.5" font-family="Helvetica,sans-Serif" font-size="10.00">/AliceO2Group/AliceO2</text>
<text text-anchor="middle" x="776" y="-247.5" font-family="Helvetica,sans-Serif" font-size="10.00">/run/O2PrimaryServerDevice.h</text>
</a>
</g>
</g>
<!-- Node1&#45;&gt;Node11 -->
<g id="edge12" class="edge"><title>Node1&#45;&gt;Node11</title>
<path fill="none" stroke="midnightblue" d="M679.926,-319.514C700.905,-306.955 724.602,-292.769 743.212,-281.628"/>
<polygon fill="midnightblue" stroke="midnightblue" points="677.907,-316.643 671.124,-324.783 681.502,-322.649 677.907,-316.643"/>
</g>
<!-- Node12 -->
<g id="node12" class="node"><title>Node12</title>
<g id="a_node12"><a xlink:href="../../db/d8f/O2PrimaryServerDeviceRunner_8cxx.html" target="_top" xlink:title="/home/travis/build\l/AliceO2Group/AliceO2\l/run/O2PrimaryServerDeviceRunner.cxx">
<polygon fill="none" stroke="black" points="774,-156.5 774,-197.5 966,-197.5 966,-156.5 774,-156.5"/>
<text text-anchor="start" x="782" y="-185.5" font-family="Helvetica,sans-Serif" font-size="10.00">/home/travis/build</text>
<text text-anchor="start" x="782" y="-174.5" font-family="Helvetica,sans-Serif" font-size="10.00">/AliceO2Group/AliceO2</text>
<text text-anchor="middle" x="870" y="-163.5" font-family="Helvetica,sans-Serif" font-size="10.00">/run/O2PrimaryServerDeviceRunner.cxx</text>
</a>
</g>
</g>
<!-- Node1&#45;&gt;Node12 -->
<g id="edge14" class="edge"><title>Node1&#45;&gt;Node12</title>
<path fill="none" stroke="midnightblue" d="M710.157,-338.057C768.287,-327.742 839.588,-310.88 859,-288 880.357,-262.828 877.981,-221.825 874.122,-197.627"/>
<polygon fill="midnightblue" stroke="midnightblue" points="709.468,-334.624 700.214,-339.781 710.665,-341.521 709.468,-334.624"/>
</g>
<!-- Node13 -->
<g id="node13" class="node"><title>Node13</title>
<g id="a_node13"><a xlink:href="../../d8/ddd/o2sim__parallel_8cxx.html" target="_top" xlink:title="/home/travis/build\l/AliceO2Group/AliceO2\l/run/o2sim_parallel.cxx">
<polygon fill="none" stroke="black" points="907,-240.5 907,-281.5 1025,-281.5 1025,-240.5 907,-240.5"/>
<text text-anchor="start" x="915" y="-269.5" font-family="Helvetica,sans-Serif" font-size="10.00">/home/travis/build</text>
<text text-anchor="start" x="915" y="-258.5" font-family="Helvetica,sans-Serif" font-size="10.00">/AliceO2Group/AliceO2</text>
<text text-anchor="middle" x="966" y="-247.5" font-family="Helvetica,sans-Serif" font-size="10.00">/run/o2sim_parallel.cxx</text>
</a>
</g>
</g>
<!-- Node1&#45;&gt;Node13 -->
<g id="edge16" class="edge"><title>Node1&#45;&gt;Node13</title>
<path fill="none" stroke="midnightblue" d="M710.091,-333.408C762.632,-322.057 832.328,-305.868 893,-288 899.582,-286.062 906.438,-283.864 913.199,-281.586"/>
<polygon fill="midnightblue" stroke="midnightblue" points="709.196,-330.021 700.154,-335.542 710.665,-336.865 709.196,-330.021"/>
</g>
<!-- Node14 -->
<g id="node14" class="node"><title>Node14</title>
<g id="a_node14"><a xlink:href="../../df/d3b/O2MCApplication_8cxx.html" target="_top" xlink:title="/home/travis/build\l/AliceO2Group/AliceO2\l/Steer/src/O2MCApplication.cxx">
<polygon fill="none" stroke="black" points="1043,-240.5 1043,-281.5 1201,-281.5 1201,-240.5 1043,-240.5"/>
<text text-anchor="start" x="1051" y="-269.5" font-family="Helvetica,sans-Serif" font-size="10.00">/home/travis/build</text>
<text text-anchor="start" x="1051" y="-258.5" font-family="Helvetica,sans-Serif" font-size="10.00">/AliceO2Group/AliceO2</text>
<text text-anchor="middle" x="1122" y="-247.5" font-family="Helvetica,sans-Serif" font-size="10.00">/Steer/src/O2MCApplication.cxx</text>
</a>
</g>
</g>
<!-- Node1&#45;&gt;Node14 -->
<g id="edge17" class="edge"><title>Node1&#45;&gt;Node14</title>
<path fill="none" stroke="midnightblue" d="M710.17,-340.856C792.369,-330.829 922.871,-312.803 1034,-288 1042.4,-286.126 1051.17,-283.886 1059.78,-281.517"/>
<polygon fill="midnightblue" stroke="midnightblue" points="709.65,-337.393 700.142,-342.068 710.49,-344.342 709.65,-337.393"/>
</g>
<!-- Node5&#45;&gt;Node6 -->
<g id="edge5" class="edge"><title>Node5&#45;&gt;Node6</title>
<path fill="none" stroke="midnightblue" d="M560.196,-232.873C549.253,-221.369 536.739,-208.213 526.708,-197.667"/>
<polygon fill="midnightblue" stroke="midnightblue" points="557.69,-235.317 567.118,-240.15 562.762,-230.492 557.69,-235.317"/>
</g>
<!-- Node5&#45;&gt;Node10 -->
<g id="edge10" class="edge"><title>Node5&#45;&gt;Node10</title>
<path fill="none" stroke="midnightblue" d="M611.447,-232.544C622.036,-221.119 634.091,-208.113 643.772,-197.667"/>
<polygon fill="midnightblue" stroke="midnightblue" points="608.628,-230.437 604.397,-240.15 613.762,-235.195 608.628,-230.437"/>
</g>
<!-- Node7 -->
<g id="node7" class="node"><title>Node7</title>
<g id="a_node7"><a xlink:href="../../db/d50/O2HitMerger_8h.html" target="_top" xlink:title="/home/travis/build\l/AliceO2Group/AliceO2\l/run/O2HitMerger.h">
<polygon fill="none" stroke="black" points="365,-78.5 365,-119.5 483,-119.5 483,-78.5 365,-78.5"/>
<text text-anchor="start" x="373" y="-107.5" font-family="Helvetica,sans-Serif" font-size="10.00">/home/travis/build</text>
<text text-anchor="start" x="373" y="-96.5" font-family="Helvetica,sans-Serif" font-size="10.00">/AliceO2Group/AliceO2</text>
<text text-anchor="middle" x="424" y="-85.5" font-family="Helvetica,sans-Serif" font-size="10.00">/run/O2HitMerger.h</text>
</a>
</g>
</g>
<!-- Node6&#45;&gt;Node7 -->
<g id="edge6" class="edge"><title>Node6&#45;&gt;Node7</title>
<path fill="none" stroke="midnightblue" d="M478.701,-149.492C467.801,-139.629 455.641,-128.627 445.559,-119.506"/>
<polygon fill="midnightblue" stroke="midnightblue" points="476.604,-152.314 486.368,-156.428 481.301,-147.124 476.604,-152.314"/>
</g>
<!-- Node9 -->
<g id="node9" class="node"><title>Node9</title>
<g id="a_node9"><a xlink:href="../../d6/da5/O2SimDeviceRunner_8cxx.html" target="_top" xlink:title="/home/travis/build\l/AliceO2Group/AliceO2\l/run/O2SimDeviceRunner.cxx">
<polygon fill="none" stroke="black" points="519.5,-78.5 519.5,-119.5 666.5,-119.5 666.5,-78.5 519.5,-78.5"/>
<text text-anchor="start" x="527.5" y="-107.5" font-family="Helvetica,sans-Serif" font-size="10.00">/home/travis/build</text>
<text text-anchor="start" x="527.5" y="-96.5" font-family="Helvetica,sans-Serif" font-size="10.00">/AliceO2Group/AliceO2</text>
<text text-anchor="middle" x="593" y="-85.5" font-family="Helvetica,sans-Serif" font-size="10.00">/run/O2SimDeviceRunner.cxx</text>
</a>
</g>
</g>
<!-- Node6&#45;&gt;Node9 -->
<g id="edge9" class="edge"><title>Node6&#45;&gt;Node9</title>
<path fill="none" stroke="midnightblue" d="M537.648,-149.492C548.678,-139.629 560.983,-128.627 571.185,-119.506"/>
<polygon fill="midnightblue" stroke="midnightblue" points="535.011,-147.154 529.89,-156.428 539.677,-152.372 535.011,-147.154"/>
</g>
<!-- Node7&#45;&gt;Node7 -->
<g id="edge7" class="edge"><title>Node7&#45;&gt;Node7</title>
<path fill="none" stroke="midnightblue" d="M493.027,-109.753C497.975,-107.318 501,-103.733 501,-99 501,-91.6113 493.63,-87.0223 483.079,-85.2328"/>
<polygon fill="midnightblue" stroke="midnightblue" points="491.635,-106.518 483.079,-112.767 493.664,-113.217 491.635,-106.518"/>
</g>
<!-- Node8 -->
<g id="node8" class="node"><title>Node8</title>
<g id="a_node8"><a xlink:href="../../d9/d16/O2HitMergerRunner_8cxx.html" target="_top" xlink:title="/home/travis/build\l/AliceO2Group/AliceO2\l/run/O2HitMergerRunner.cxx">
<polygon fill="none" stroke="black" points="353,-0.5 353,-41.5 495,-41.5 495,-0.5 353,-0.5"/>
<text text-anchor="start" x="361" y="-29.5" font-family="Helvetica,sans-Serif" font-size="10.00">/home/travis/build</text>
<text text-anchor="start" x="361" y="-18.5" font-family="Helvetica,sans-Serif" font-size="10.00">/AliceO2Group/AliceO2</text>
<text text-anchor="middle" x="424" y="-7.5" font-family="Helvetica,sans-Serif" font-size="10.00">/run/O2HitMergerRunner.cxx</text>
</a>
</g>
</g>
<!-- Node7&#45;&gt;Node8 -->
<g id="edge8" class="edge"><title>Node7&#45;&gt;Node8</title>
<path fill="none" stroke="midnightblue" d="M424,-68.2965C424,-59.3009 424,-49.6532 424,-41.5056"/>
<polygon fill="midnightblue" stroke="midnightblue" points="420.5,-68.4281 424,-78.4281 427.5,-68.4281 420.5,-68.4281"/>
</g>
<!-- Node11&#45;&gt;Node12 -->
<g id="edge13" class="edge"><title>Node11&#45;&gt;Node12</title>
<path fill="none" stroke="midnightblue" d="M806.345,-233.528C819.709,-221.871 835.135,-208.414 847.455,-197.667"/>
<polygon fill="midnightblue" stroke="midnightblue" points="803.99,-230.939 798.755,-240.15 808.591,-236.214 803.99,-230.939"/>
</g>
</g>
</svg>
        <g id="navigator" transform="translate(0 0)" fill="#404254">
                <rect fill="#f2f5e9" fill-opacity="0.5" stroke="#606060" stroke-width=".5" x="0" y="0" width="60" height="60"/>
                <use id="zoomplus" xlink:href="#zoomPlus" x="17" y="9" onmousedown="handleZoom(evt,'in')"/>
                <use id="zoomminus" xlink:href="#zoomMin" x="42" y="9" onmousedown="handleZoom(evt,'out')"/>
                <use id="reset" xlink:href="#resetDef" x="30" y="36" onmousedown="handleReset()"/>
                <g id="arrowUp" xlink:href="#dirArrow" transform="translate(30 24)" onmousedown="handlePan(0,-1)">
                  <use xlink:href="#rim" fill="#404040">
                        <set attributeName="fill" to="#808080" begin="arrowUp.mouseover" end="arrowUp.mouseout"/>
                  </use>
                  <path fill="none" stroke="white" stroke-width="1.5" d="M0,-3.0v7 M-2.5,-0.5L0,-3.0L2.5,-0.5"/>
                </g>
                <g id="arrowRight" xlink:href="#dirArrow" transform="rotate(90) translate(36 -43)" onmousedown="handlePan(1,0)">
                  <use xlink:href="#rim" fill="#404040">
                        <set attributeName="fill" to="#808080" begin="arrowRight.mouseover" end="arrowRight.mouseout"/>
                  </use>
                  <path fill="none" stroke="white" stroke-width="1.5" d="M0,-3.0v7 M-2.5,-0.5L0,-3.0L2.5,-0.5"/>
                </g>
                <g id="arrowDown" xlink:href="#dirArrow" transform="rotate(180) translate(-30 -48)" onmousedown="handlePan(0,1)">
                  <use xlink:href="#rim" fill="#404040">
                        <set attributeName="fill" to="#808080" begin="arrowDown.mouseover" end="arrowDown.mouseout"/>
                  </use>
                  <path fill="none" stroke="white" stroke-width="1.5" d="M0,-3.0v7 M-2.5,-0.5L0,-3.0L2.5,-0.5"/>
                </g>
                <g id="arrowLeft" xlink:href="#dirArrow" transform="rotate(270) translate(-36 17)" onmousedown="handlePan(-1,0)">
                  <use xlink:href="#rim" fill="#404040">
                        <set attributeName="fill" to="#808080" begin="arrowLeft.mouseover" end="arrowLeft.mouseout"/>
                  </use>
                  <path fill="none" stroke="white" stroke-width="1.5" d="M0,-3.0v7 M-2.5,-0.5L0,-3.0L2.5,-0.5"/>
                </g>
        </g>
        <svg viewBox="0 0 15 15" width="100%" height="30px" preserveAspectRatio="xMaxYMin meet">
         <g id="arrow_out" transform="scale(0.3 0.3)">
          <a xlink:href="SimConfig_8h__dep__incl_org.svg" target="_base">
           <rect id="button" ry="5" rx="5" y="6" x="6" height="38" width="38"
                fill="#f2f5e9" fill-opacity="0.5" stroke="#606060" stroke-width="1.0"/>
           <path id="arrow"
             d="M 11.500037,31.436501 C 11.940474,20.09759 22.043105,11.32322 32.158766,21.979434 L 37.068811,17.246167 C 37.068811,17.246167 37.088388,32 37.088388,32 L 22.160133,31.978069 C 22.160133,31.978069 26.997745,27.140456 26.997745,27.140456 C 18.528582,18.264221 13.291696,25.230495 11.500037,31.436501 z"
             style="fill:#404040;"/>
          </a>
         </g>
        </svg>
</svg>
