<?xml version="1.0" encoding="UTF-8" standalone="no"?>
<!DOCTYPE svg PUBLIC "-//W3C//DTD SVG 1.1//EN"
 "http://www.w3.org/Graphics/SVG/1.1/DTD/svg11.dtd">
<!-- Generated by graphviz version 2.36.0 (20140111.2315)
 -->
<!-- Title: /home/travis/build/AliceO2Group/AliceO2/Utilities/DataFlow/include/DataFlow/HeartbeatSampler.h Pages: 1 -->
<svg width="1257pt" height="354pt"
 viewBox="0.00 0.00 1257.00 354.00" xmlns="http://www.w3.org/2000/svg" xmlns:xlink="http://www.w3.org/1999/xlink">
<g id="graph0" class="graph" transform="scale(1 1) rotate(0) translate(4 350)">
<title>/home/travis/build/AliceO2Group/AliceO2/Utilities/DataFlow/include/DataFlow/HeartbeatSampler.h</title>
<!-- Node1 -->
<g id="node1" class="node"><title>Node1</title>
<polygon fill="#bfbfbf" stroke="black" points="125,-293 125,-345 277,-345 277,-293 125,-293"/>
<text text-anchor="start" x="133" y="-333" font-family="Helvetica,sans-Serif" font-size="10.00">/home/travis/build</text>
<text text-anchor="start" x="133" y="-322" font-family="Helvetica,sans-Serif" font-size="10.00">/AliceO2Group/AliceO2</text>
<text text-anchor="start" x="133" y="-311" font-family="Helvetica,sans-Serif" font-size="10.00">/Utilities/DataFlow/include</text>
<text text-anchor="middle" x="201" y="-300" font-family="Helvetica,sans-Serif" font-size="10.00">/DataFlow/HeartbeatSampler.h</text>
</g>
<!-- Node2 -->
<g id="node2" class="node"><title>Node2</title>
<g id="a_node2"><a xlink:href="../../dc/dcd/DataHeader_8h.html" target="_top" xlink:title="Headers/DataHeader.h">
<polygon fill="none" stroke="black" points="216.5,-124.5 216.5,-143.5 333.5,-143.5 333.5,-124.5 216.5,-124.5"/>
<text text-anchor="middle" x="275" y="-131.5" font-family="Helvetica,sans-Serif" font-size="10.00">Headers/DataHeader.h</text>
</a>
</g>
</g>
<!-- Node1&#45;&gt;Node2 -->
<g id="edge1" class="edge"><title>Node1&#45;&gt;Node2</title>
<path fill="none" stroke="midnightblue" d="M210.054,-292.86C220.213,-265.038 237.445,-218.976 254,-180 257.882,-170.861 262.521,-160.837 266.451,-152.574"/>
<polygon fill="midnightblue" stroke="midnightblue" points="269.613,-154.075 270.794,-143.546 263.305,-151.041 269.613,-154.075"/>
</g>
<!-- Node9 -->
<g id="node9" class="node"><title>Node9</title>
<polygon fill="none" stroke="#bfbfbf" points="-0.5,-6.5 -0.5,-25.5 40.5,-25.5 40.5,-6.5 -0.5,-6.5"/>
<text text-anchor="middle" x="20" y="-13.5" font-family="Helvetica,sans-Serif" font-size="10.00">string</text>
</g>
<!-- Node1&#45;&gt;Node9 -->
<g id="edge37" class="edge"><title>Node1&#45;&gt;Node9</title>
<path fill="none" stroke="midnightblue" d="M124.764,-297.107C75.2983,-278.39 20,-245.318 20,-191 20,-191 20,-191 20,-133 20,-98.7159 20,-58.7321 20,-35.7902"/>
<polygon fill="midnightblue" stroke="midnightblue" points="23.5001,-35.731 20,-25.731 16.5001,-35.7311 23.5001,-35.731"/>
</g>
<!-- Node21 -->
<g id="node21" class="node"><title>Node21</title>
<g id="a_node21"><a xlink:href="../../d2/d09/HeartbeatFrame_8h.html" target="_top" xlink:title="Headers/HeartbeatFrame.h">
<polygon fill="none" stroke="black" points="71.5,-180.5 71.5,-199.5 206.5,-199.5 206.5,-180.5 71.5,-180.5"/>
<text text-anchor="middle" x="139" y="-187.5" font-family="Helvetica,sans-Serif" font-size="10.00">Headers/HeartbeatFrame.h</text>
</a>
</g>
</g>
<!-- Node1&#45;&gt;Node21 -->
<g id="edge22" class="edge"><title>Node1&#45;&gt;Node21</title>
<path fill="none" stroke="midnightblue" d="M188.751,-292.909C176.626,-268.072 158.37,-230.677 147.672,-208.763"/>
<polygon fill="midnightblue" stroke="midnightblue" points="150.744,-207.079 143.212,-199.628 144.454,-210.15 150.744,-207.079"/>
</g>
<!-- Node24 -->
<g id="node24" class="node"><title>Node24</title>
<g id="a_node24"><a xlink:href="../../d2/dee/O2Device_8h.html" target="_top" xlink:title="O2Device/O2Device.h">
<polygon fill="none" stroke="black" points="421.5,-236.5 421.5,-255.5 536.5,-255.5 536.5,-236.5 421.5,-236.5"/>
<text text-anchor="middle" x="479" y="-243.5" font-family="Helvetica,sans-Serif" font-size="10.00">O2Device/O2Device.h</text>
</a>
</g>
</g>
<!-- Node1&#45;&gt;Node24 -->
<g id="edge27" class="edge"><title>Node1&#45;&gt;Node24</title>
<path fill="none" stroke="midnightblue" d="M277.332,-298.505C328.374,-285.469 393.675,-268.792 435.915,-258.004"/>
<polygon fill="midnightblue" stroke="midnightblue" points="436.787,-261.393 445.61,-255.528 435.055,-254.611 436.787,-261.393"/>
</g>
<!-- Node3 -->
<g id="node3" class="node"><title>Node3</title>
<polygon fill="none" stroke="#bfbfbf" points="236,-68.5 236,-87.5 282,-87.5 282,-68.5 236,-68.5"/>
<text text-anchor="middle" x="259" y="-75.5" font-family="Helvetica,sans-Serif" font-size="10.00">cstdint</text>
</g>
<!-- Node2&#45;&gt;Node3 -->
<g id="edge2" class="edge"><title>Node2&#45;&gt;Node3</title>
<path fill="none" stroke="midnightblue" d="M272.358,-124.083C270.214,-116.849 267.121,-106.409 264.451,-97.3968"/>
<polygon fill="midnightblue" stroke="midnightblue" points="267.79,-96.3447 261.593,-87.7511 261.078,-98.3334 267.79,-96.3447"/>
</g>
<!-- Node4 -->
<g id="node4" class="node"><title>Node4</title>
<polygon fill="none" stroke="#bfbfbf" points="300,-68.5 300,-87.5 352,-87.5 352,-68.5 300,-68.5"/>
<text text-anchor="middle" x="326" y="-75.5" font-family="Helvetica,sans-Serif" font-size="10.00">memory</text>
</g>
<!-- Node2&#45;&gt;Node4 -->
<g id="edge3" class="edge"><title>Node2&#45;&gt;Node4</title>
<path fill="none" stroke="midnightblue" d="M283.422,-124.083C290.848,-116.22 301.852,-104.569 310.812,-95.0813"/>
<polygon fill="midnightblue" stroke="midnightblue" points="313.413,-97.4244 317.735,-87.7511 308.324,-92.618 313.413,-97.4244"/>
</g>
<!-- Node5 -->
<g id="node5" class="node"><title>Node5</title>
<polygon fill="none" stroke="#bfbfbf" points="370.5,-68.5 370.5,-87.5 419.5,-87.5 419.5,-68.5 370.5,-68.5"/>
<text text-anchor="middle" x="395" y="-75.5" font-family="Helvetica,sans-Serif" font-size="10.00">cassert</text>
</g>
<!-- Node2&#45;&gt;Node5 -->
<g id="edge4" class="edge"><title>Node2&#45;&gt;Node5</title>
<path fill="none" stroke="midnightblue" d="M294.014,-124.444C313.588,-115.636 344.308,-101.812 366.729,-91.722"/>
<polygon fill="midnightblue" stroke="midnightblue" points="368.392,-94.8119 376.075,-87.5164 365.519,-88.4284 368.392,-94.8119"/>
</g>
<!-- Node6 -->
<g id="node6" class="node"><title>Node6</title>
<polygon fill="none" stroke="#bfbfbf" points="121,-6.5 121,-25.5 167,-25.5 167,-6.5 121,-6.5"/>
<text text-anchor="middle" x="144" y="-13.5" font-family="Helvetica,sans-Serif" font-size="10.00">cstring</text>
</g>
<!-- Node2&#45;&gt;Node6 -->
<g id="edge5" class="edge"><title>Node2&#45;&gt;Node6</title>
<path fill="none" stroke="midnightblue" d="M216.298,-124.752C193.154,-118.479 168.455,-107.438 153,-88 141.426,-73.4438 140.309,-51.6389 141.378,-36.037"/>
<polygon fill="midnightblue" stroke="midnightblue" points="144.872,-36.2731 142.425,-25.965 137.91,-35.5498 144.872,-36.2731"/>
</g>
<!-- Node7 -->
<g id="node7" class="node"><title>Node7</title>
<polygon fill="none" stroke="#bfbfbf" points="162,-68.5 162,-87.5 218,-87.5 218,-68.5 162,-68.5"/>
<text text-anchor="middle" x="190" y="-75.5" font-family="Helvetica,sans-Serif" font-size="10.00">algorithm</text>
</g>
<!-- Node2&#45;&gt;Node7 -->
<g id="edge6" class="edge"><title>Node2&#45;&gt;Node7</title>
<path fill="none" stroke="midnightblue" d="M261.343,-124.324C248.084,-115.9 227.732,-102.971 212.154,-93.0741"/>
<polygon fill="midnightblue" stroke="midnightblue" points="213.94,-90.0626 203.623,-87.6545 210.187,-95.9711 213.94,-90.0626"/>
</g>
<!-- Node8 -->
<g id="node8" class="node"><title>Node8</title>
<polygon fill="none" stroke="#bfbfbf" points="437.5,-68.5 437.5,-87.5 496.5,-87.5 496.5,-68.5 437.5,-68.5"/>
<text text-anchor="middle" x="467" y="-75.5" font-family="Helvetica,sans-Serif" font-size="10.00">stdexcept</text>
</g>
<!-- Node2&#45;&gt;Node8 -->
<g id="edge7" class="edge"><title>Node2&#45;&gt;Node8</title>
<path fill="none" stroke="midnightblue" d="M305.423,-124.444C338.478,-115.147 391.403,-100.262 427.611,-90.0781"/>
<polygon fill="midnightblue" stroke="midnightblue" points="428.671,-93.4158 437.35,-87.339 426.776,-86.6772 428.671,-93.4158"/>
</g>
<!-- Node2&#45;&gt;Node9 -->
<g id="edge8" class="edge"><title>Node2&#45;&gt;Node9</title>
<path fill="none" stroke="midnightblue" d="M243.177,-124.471C215.352,-116.528 174.165,-103.586 140,-88 103.643,-71.4133 64.2743,-46.6935 40.8976,-31.2277"/>
<polygon fill="midnightblue" stroke="midnightblue" points="42.7366,-28.247 32.4781,-25.5986 38.8459,-34.0662 42.7366,-28.247"/>
</g>
<!-- Node10 -->
<g id="node10" class="node"><title>Node10</title>
<g id="a_node10"><a xlink:href="../../dc/d03/MemoryResources_8h.html" target="_top" xlink:title="MemoryResources/MemoryResources.h">
<polygon fill="none" stroke="black" points="514.5,-68.5 514.5,-87.5 707.5,-87.5 707.5,-68.5 514.5,-68.5"/>
<text text-anchor="middle" x="611" y="-75.5" font-family="Helvetica,sans-Serif" font-size="10.00">MemoryResources/MemoryResources.h</text>
</a>
</g>
</g>
<!-- Node2&#45;&gt;Node10 -->
<g id="edge9" class="edge"><title>Node2&#45;&gt;Node10</title>
<path fill="none" stroke="midnightblue" d="M328.24,-124.444C387.96,-114.846 484.741,-99.2916 548.132,-89.1037"/>
<polygon fill="midnightblue" stroke="midnightblue" points="548.691,-92.559 558.009,-87.5164 547.58,-85.6476 548.691,-92.559"/>
</g>
<!-- Node10&#45;&gt;Node6 -->
<g id="edge14" class="edge"><title>Node10&#45;&gt;Node6</title>
<path fill="none" stroke="midnightblue" d="M514.474,-68.7356C396.259,-58.3456 207.733,-40.8065 176,-32 173.655,-31.3493 171.269,-30.5403 168.911,-29.6376"/>
<polygon fill="midnightblue" stroke="midnightblue" points="170.115,-26.3445 159.549,-25.5651 167.323,-32.7635 170.115,-26.3445"/>
</g>
<!-- Node10&#45;&gt;Node9 -->
<g id="edge15" class="edge"><title>Node10&#45;&gt;Node9</title>
<path fill="none" stroke="midnightblue" d="M514.239,-68.7614C511.123,-68.5035 508.037,-68.2491 505,-68 302.825,-51.4191 245.434,-86.3621 50,-32 48.0224,-31.4499 46.0207,-30.7669 44.0389,-29.9981"/>
<polygon fill="midnightblue" stroke="midnightblue" points="45.0521,-26.6137 34.5007,-25.6558 42.1517,-32.9846 45.0521,-26.6137"/>
</g>
<!-- Node11 -->
<g id="node11" class="node"><title>Node11</title>
<polygon fill="none" stroke="#bfbfbf" points="631,-1 631,-31 731,-31 731,-1 631,-1"/>
<text text-anchor="start" x="639" y="-19" font-family="Helvetica,sans-Serif" font-size="10.00">boost/container/flat</text>
<text text-anchor="middle" x="681" y="-8" font-family="Helvetica,sans-Serif" font-size="10.00">_map.hpp</text>
</g>
<!-- Node10&#45;&gt;Node11 -->
<g id="edge10" class="edge"><title>Node10&#45;&gt;Node11</title>
<path fill="none" stroke="midnightblue" d="M621.029,-68.4035C630.333,-60.4292 644.547,-48.2451 656.803,-37.7403"/>
<polygon fill="midnightblue" stroke="midnightblue" points="659.188,-40.3062 664.502,-31.1408 654.632,-34.9914 659.188,-40.3062"/>
</g>
<!-- Node12 -->
<g id="node12" class="node"><title>Node12</title>
<polygon fill="none" stroke="#bfbfbf" points="749,-1 749,-31 865,-31 865,-1 749,-1"/>
<text text-anchor="start" x="757" y="-19" font-family="Helvetica,sans-Serif" font-size="10.00">boost/container/pmr</text>
<text text-anchor="middle" x="807" y="-8" font-family="Helvetica,sans-Serif" font-size="10.00">/memory_resource.hpp</text>
</g>
<!-- Node10&#45;&gt;Node12 -->
<g id="edge11" class="edge"><title>Node10&#45;&gt;Node12</title>
<path fill="none" stroke="midnightblue" d="M639.082,-68.4035C668.33,-59.4501 714.914,-45.1897 751.604,-33.9579"/>
<polygon fill="midnightblue" stroke="midnightblue" points="752.646,-37.2992 761.184,-31.0253 750.597,-30.6058 752.646,-37.2992"/>
</g>
<!-- Node13 -->
<g id="node13" class="node"><title>Node13</title>
<polygon fill="none" stroke="#bfbfbf" points="883,-1 883,-31 1039,-31 1039,-1 883,-1"/>
<text text-anchor="start" x="891" y="-19" font-family="Helvetica,sans-Serif" font-size="10.00">boost/container/pmr</text>
<text text-anchor="middle" x="961" y="-8" font-family="Helvetica,sans-Serif" font-size="10.00">/monotonic_buffer_resource.hpp</text>
</g>
<!-- Node10&#45;&gt;Node13 -->
<g id="edge12" class="edge"><title>Node10&#45;&gt;Node13</title>
<path fill="none" stroke="midnightblue" d="M660.775,-68.4672C715.795,-59.0351 805.497,-43.6576 872.546,-32.1635"/>
<polygon fill="midnightblue" stroke="midnightblue" points="873.42,-35.5648 882.685,-30.4254 872.237,-28.6654 873.42,-35.5648"/>
</g>
<!-- Node14 -->
<g id="node14" class="node"><title>Node14</title>
<polygon fill="none" stroke="#bfbfbf" points="1057.5,-1 1057.5,-31 1190.5,-31 1190.5,-1 1057.5,-1"/>
<text text-anchor="start" x="1065.5" y="-19" font-family="Helvetica,sans-Serif" font-size="10.00">boost/container/pmr</text>
<text text-anchor="middle" x="1124" y="-8" font-family="Helvetica,sans-Serif" font-size="10.00">/polymorphic_allocator.hpp</text>
</g>
<!-- Node10&#45;&gt;Node14 -->
<g id="edge13" class="edge"><title>Node10&#45;&gt;Node14</title>
<path fill="none" stroke="midnightblue" d="M707.657,-69.6226C794.082,-62.4321 924.376,-50.1321 1047.36,-32.0049"/>
<polygon fill="midnightblue" stroke="midnightblue" points="1047.96,-35.4544 1057.33,-30.5193 1046.93,-28.5307 1047.96,-35.4544"/>
</g>
<!-- Node15 -->
<g id="node15" class="node"><title>Node15</title>
<polygon fill="none" stroke="#bfbfbf" points="185,-6.5 185,-25.5 247,-25.5 247,-6.5 185,-6.5"/>
<text text-anchor="middle" x="216" y="-13.5" font-family="Helvetica,sans-Serif" font-size="10.00">type_traits</text>
</g>
<!-- Node10&#45;&gt;Node15 -->
<g id="edge16" class="edge"><title>Node10&#45;&gt;Node15</title>
<path fill="none" stroke="midnightblue" d="M525.569,-68.4802C437.236,-59.2579 305.453,-44.2294 256,-32 252.585,-31.1554 249.061,-30.1087 245.588,-28.9639"/>
<polygon fill="midnightblue" stroke="midnightblue" points="246.654,-25.6284 236.06,-25.5639 244.302,-32.2213 246.654,-25.6284"/>
</g>
<!-- Node16 -->
<g id="node16" class="node"><title>Node16</title>
<polygon fill="none" stroke="#bfbfbf" points="1209,-6.5 1209,-25.5 1249,-25.5 1249,-6.5 1209,-6.5"/>
<text text-anchor="middle" x="1229" y="-13.5" font-family="Helvetica,sans-Serif" font-size="10.00">utility</text>
</g>
<!-- Node10&#45;&gt;Node16 -->
<g id="edge17" class="edge"><title>Node10&#45;&gt;Node16</title>
<path fill="none" stroke="midnightblue" d="M707.776,-74.1129C850.251,-69.0952 1109.27,-56.8349 1199,-32 1201.19,-31.3942 1203.41,-30.6249 1205.59,-29.7559"/>
<polygon fill="midnightblue" stroke="midnightblue" points="1207.19,-32.8737 1214.81,-25.5065 1204.26,-26.5174 1207.19,-32.8737"/>
</g>
<!-- Node17 -->
<g id="node17" class="node"><title>Node17</title>
<polygon fill="none" stroke="#bfbfbf" points="59,-6.5 59,-25.5 103,-25.5 103,-6.5 59,-6.5"/>
<text text-anchor="middle" x="81" y="-13.5" font-family="Helvetica,sans-Serif" font-size="10.00">vector</text>
</g>
<!-- Node10&#45;&gt;Node17 -->
<g id="edge18" class="edge"><title>Node10&#45;&gt;Node17</title>
<path fill="none" stroke="midnightblue" d="M514.461,-68.7324C372.115,-56.4803 121.581,-34.6547 112,-32 109.8,-31.3903 107.566,-30.6288 105.358,-29.7742"/>
<polygon fill="midnightblue" stroke="midnightblue" points="106.583,-26.4883 96.0239,-25.6151 103.734,-32.8823 106.583,-26.4883"/>
</g>
<!-- Node18 -->
<g id="node18" class="node"><title>Node18</title>
<polygon fill="none" stroke="#bfbfbf" points="265.5,-6.5 265.5,-25.5 348.5,-25.5 348.5,-6.5 265.5,-6.5"/>
<text text-anchor="middle" x="307" y="-13.5" font-family="Helvetica,sans-Serif" font-size="10.00">unordered_map</text>
</g>
<!-- Node10&#45;&gt;Node18 -->
<g id="edge19" class="edge"><title>Node10&#45;&gt;Node18</title>
<path fill="none" stroke="midnightblue" d="M551.578,-68.4711C499.846,-60.5714 423.008,-47.6923 357,-32 352.514,-30.9336 347.837,-29.6987 343.221,-28.4043"/>
<polygon fill="midnightblue" stroke="midnightblue" points="343.893,-24.9545 333.313,-25.518 341.935,-31.6751 343.893,-24.9545"/>
</g>
<!-- Node19 -->
<g id="node19" class="node"><title>Node19</title>
<polygon fill="none" stroke="#bfbfbf" points="366.5,-6.5 366.5,-25.5 463.5,-25.5 463.5,-6.5 366.5,-6.5"/>
<text text-anchor="middle" x="415" y="-13.5" font-family="Helvetica,sans-Serif" font-size="10.00">FairMQMessage.h</text>
</g>
<!-- Node10&#45;&gt;Node19 -->
<g id="edge20" class="edge"><title>Node10&#45;&gt;Node19</title>
<path fill="none" stroke="midnightblue" d="M582.918,-68.4035C548.715,-57.9331 490.803,-40.2049 452.73,-28.5501"/>
<polygon fill="midnightblue" stroke="midnightblue" points="453.616,-25.1611 443.03,-25.5806 451.567,-31.8545 453.616,-25.1611"/>
</g>
<!-- Node20 -->
<g id="node20" class="node"><title>Node20</title>
<polygon fill="none" stroke="#bfbfbf" points="481.5,-6.5 481.5,-25.5 612.5,-25.5 612.5,-6.5 481.5,-6.5"/>
<text text-anchor="middle" x="547" y="-13.5" font-family="Helvetica,sans-Serif" font-size="10.00">FairMQTransportFactory.h</text>
</g>
<!-- Node10&#45;&gt;Node20 -->
<g id="edge21" class="edge"><title>Node10&#45;&gt;Node20</title>
<path fill="none" stroke="midnightblue" d="M601.83,-68.4035C591.85,-59.047 575.688,-43.8948 563.491,-32.4599"/>
<polygon fill="midnightblue" stroke="midnightblue" points="565.842,-29.8666 556.153,-25.5806 561.054,-34.9734 565.842,-29.8666"/>
</g>
<!-- Node21&#45;&gt;Node2 -->
<g id="edge23" class="edge"><title>Node21&#45;&gt;Node2</title>
<path fill="none" stroke="midnightblue" d="M160.55,-180.444C183.031,-171.517 218.488,-157.439 243.98,-147.317"/>
<polygon fill="midnightblue" stroke="midnightblue" points="245.549,-150.46 253.551,-143.516 242.965,-143.954 245.549,-150.46"/>
</g>
<!-- Node21&#45;&gt;Node17 -->
<g id="edge26" class="edge"><title>Node21&#45;&gt;Node17</title>
<path fill="none" stroke="midnightblue" d="M118.777,-180.495C104.229,-173.168 85.6991,-161.063 77,-144 59.1151,-108.92 68.116,-61.0152 75.2048,-35.2256"/>
<polygon fill="midnightblue" stroke="midnightblue" points="78.5633,-36.2107 78.0419,-25.6287 71.8505,-34.2262 78.5633,-36.2107"/>
</g>
<!-- Node22 -->
<g id="node22" class="node"><title>Node22</title>
<polygon fill="none" stroke="#bfbfbf" points="86.5,-124.5 86.5,-143.5 145.5,-143.5 145.5,-124.5 86.5,-124.5"/>
<text text-anchor="middle" x="116" y="-131.5" font-family="Helvetica,sans-Serif" font-size="10.00">functional</text>
</g>
<!-- Node21&#45;&gt;Node22 -->
<g id="edge24" class="edge"><title>Node21&#45;&gt;Node22</title>
<path fill="none" stroke="midnightblue" d="M135.202,-180.083C132.087,-172.77 127.577,-162.181 123.711,-153.103"/>
<polygon fill="midnightblue" stroke="midnightblue" points="126.866,-151.58 119.727,-143.751 120.426,-154.323 126.866,-151.58"/>
</g>
<!-- Node23 -->
<g id="node23" class="node"><title>Node23</title>
<polygon fill="none" stroke="#bfbfbf" points="163.5,-124.5 163.5,-143.5 198.5,-143.5 198.5,-124.5 163.5,-124.5"/>
<text text-anchor="middle" x="181" y="-131.5" font-family="Helvetica,sans-Serif" font-size="10.00">map</text>
</g>
<!-- Node21&#45;&gt;Node23 -->
<g id="edge25" class="edge"><title>Node21&#45;&gt;Node23</title>
<path fill="none" stroke="midnightblue" d="M145.935,-180.083C151.929,-172.377 160.752,-161.033 168.048,-151.653"/>
<polygon fill="midnightblue" stroke="midnightblue" points="170.817,-153.793 174.194,-143.751 165.291,-149.496 170.817,-153.793"/>
</g>
<!-- Node24&#45;&gt;Node8 -->
<g id="edge36" class="edge"><title>Node24&#45;&gt;Node8</title>
<path fill="none" stroke="midnightblue" d="M474.634,-236.307C470.441,-227.437 464.4,-213.145 462,-200 455.477,-164.273 460.033,-121.671 463.687,-97.7366"/>
<polygon fill="midnightblue" stroke="midnightblue" points="467.185,-98.0345 465.356,-87.5987 460.278,-96.8974 467.185,-98.0345"/>
</g>
<!-- Node25 -->
<g id="node25" class="node"><title>Node25</title>
<polygon fill="none" stroke="#bfbfbf" points="471,-180.5 471,-199.5 559,-199.5 559,-180.5 471,-180.5"/>
<text text-anchor="middle" x="515" y="-187.5" font-family="Helvetica,sans-Serif" font-size="10.00">FairMQDevice.h</text>
</g>
<!-- Node24&#45;&gt;Node25 -->
<g id="edge28" class="edge"><title>Node24&#45;&gt;Node25</title>
<path fill="none" stroke="midnightblue" d="M484.945,-236.083C489.977,-228.534 497.337,-217.495 503.513,-208.23"/>
<polygon fill="midnightblue" stroke="midnightblue" points="506.531,-210.013 509.166,-199.751 500.707,-206.13 506.531,-210.013"/>
</g>
<!-- Node26 -->
<g id="node26" class="node"><title>Node26</title>
<polygon fill="none" stroke="#bfbfbf" points="577,-180.5 577,-199.5 723,-199.5 723,-180.5 577,-180.5"/>
<text text-anchor="middle" x="650" y="-187.5" font-family="Helvetica,sans-Serif" font-size="10.00">options/FairMQProgOptions.h</text>
</g>
<!-- Node24&#45;&gt;Node26 -->
<g id="edge29" class="edge"><title>Node24&#45;&gt;Node26</title>
<path fill="none" stroke="midnightblue" d="M506.095,-236.444C534.988,-227.32 580.925,-212.813 613.105,-202.651"/>
<polygon fill="midnightblue" stroke="midnightblue" points="614.549,-205.865 623.031,-199.516 612.441,-199.19 614.549,-205.865"/>
</g>
<!-- Node27 -->
<g id="node27" class="node"><title>Node27</title>
<g id="a_node27"><a xlink:href="../../d7/db2/Utilities_8h.html" target="_top" xlink:title="O2Device/Utilities.h">
<polygon fill="none" stroke="black" points="741,-180.5 741,-199.5 845,-199.5 845,-180.5 741,-180.5"/>
<text text-anchor="middle" x="793" y="-187.5" font-family="Helvetica,sans-Serif" font-size="10.00">O2Device/Utilities.h</text>
</a>
</g>
</g>
<!-- Node24&#45;&gt;Node27 -->
<g id="edge30" class="edge"><title>Node24&#45;&gt;Node27</title>
<path fill="none" stroke="midnightblue" d="M528.754,-236.444C584.335,-226.885 674.264,-211.419 733.516,-201.23"/>
<polygon fill="midnightblue" stroke="midnightblue" points="734.216,-204.661 743.479,-199.516 733.03,-197.762 734.216,-204.661"/>
</g>
<!-- Node29 -->
<g id="node29" class="node"><title>Node29</title>
<polygon fill="none" stroke="#bfbfbf" points="263.5,-180.5 263.5,-199.5 414.5,-199.5 414.5,-180.5 263.5,-180.5"/>
<text text-anchor="middle" x="339" y="-187.5" font-family="Helvetica,sans-Serif" font-size="10.00">Monitoring/MonitoringFactory.h</text>
</g>
<!-- Node24&#45;&gt;Node29 -->
<g id="edge35" class="edge"><title>Node24&#45;&gt;Node29</title>
<path fill="none" stroke="midnightblue" d="M456.817,-236.444C433.572,-227.478 396.851,-213.314 370.585,-203.183"/>
<polygon fill="midnightblue" stroke="midnightblue" points="371.669,-199.85 361.08,-199.516 369.15,-206.381 371.669,-199.85"/>
</g>
<!-- Node27&#45;&gt;Node2 -->
<g id="edge32" class="edge"><title>Node27&#45;&gt;Node2</title>
<path fill="none" stroke="midnightblue" d="M740.779,-181.126C737.811,-180.731 734.869,-180.353 732,-180 594.474,-163.094 433.042,-148.402 343.554,-140.71"/>
<polygon fill="midnightblue" stroke="midnightblue" points="343.796,-137.218 333.533,-139.852 343.198,-144.192 343.796,-137.218"/>
</g>
<!-- Node27&#45;&gt;Node10 -->
<g id="edge31" class="edge"><title>Node27&#45;&gt;Node10</title>
<path fill="none" stroke="midnightblue" d="M792.839,-180.062C792.091,-166.1 788.572,-139.149 773,-124 756.066,-107.526 733.646,-96.9707 710.902,-90.2383"/>
<polygon fill="midnightblue" stroke="midnightblue" points="711.719,-86.8332 701.15,-87.581 709.878,-93.587 711.719,-86.8332"/>
</g>
<!-- Node27&#45;&gt;Node16 -->
<g id="edge33" class="edge"><title>Node27&#45;&gt;Node16</title>
<path fill="none" stroke="midnightblue" d="M817.582,-180.414C881.343,-157.946 1056.96,-94.8034 1199,-32 1200.4,-31.3819 1201.82,-30.7328 1203.26,-30.0656"/>
<polygon fill="midnightblue" stroke="midnightblue" points="1205.15,-33.0398 1212.63,-25.5361 1202.1,-26.7376 1205.15,-33.0398"/>
</g>
<!-- Node28 -->
<g id="node28" class="node"><title>Node28</title>
<polygon fill="none" stroke="#bfbfbf" points="719.5,-124.5 719.5,-143.5 764.5,-143.5 764.5,-124.5 719.5,-124.5"/>
<text text-anchor="middle" x="742" y="-131.5" font-family="Helvetica,sans-Serif" font-size="10.00">gsl/gsl</text>
</g>
<!-- Node27&#45;&gt;Node28 -->
<g id="edge34" class="edge"><title>Node27&#45;&gt;Node28</title>
<path fill="none" stroke="midnightblue" d="M784.578,-180.083C777.152,-172.22 766.148,-160.569 757.188,-151.081"/>
<polygon fill="midnightblue" stroke="midnightblue" points="759.676,-148.618 750.265,-143.751 754.587,-153.424 759.676,-148.618"/>
</g>
</g>
</svg>
