<?xml version="1.0" encoding="UTF-8" standalone="no"?>
<!DOCTYPE svg PUBLIC "-//W3C//DTD SVG 1.1//EN"
 "http://www.w3.org/Graphics/SVG/1.1/DTD/svg11.dtd">
<!-- Generated by graphviz version 2.36.0 (20140111.2315)
 -->
<!-- Title: /home/travis/build/AliceO2Group/AliceO2/Framework/DebugGUI/include/DebugGUI/imgui.h Pages: 1 -->
<svg width="1340pt" height="242pt"
 viewBox="0.00 0.00 1340.16 242.00" xmlns="http://www.w3.org/2000/svg" xmlns:xlink="http://www.w3.org/1999/xlink">
<g id="graph0" class="graph" transform="scale(1 1) rotate(0) translate(4 238)">
<title>/home/travis/build/AliceO2Group/AliceO2/Framework/DebugGUI/include/DebugGUI/imgui.h</title>
<!-- Node1 -->
<g id="node1" class="node"><title>Node1</title>
<polygon fill="#bfbfbf" stroke="black" points="617.16,-181 617.16,-233 769.16,-233 769.16,-181 617.16,-181"/>
<text text-anchor="start" x="625.16" y="-221" font-family="Helvetica,sans-Serif" font-size="10.00">/home/travis/build</text>
<text text-anchor="start" x="625.16" y="-210" font-family="Helvetica,sans-Serif" font-size="10.00">/AliceO2Group/AliceO2</text>
<text text-anchor="start" x="625.16" y="-199" font-family="Helvetica,sans-Serif" font-size="10.00">/Framework/DebugGUI/include</text>
<text text-anchor="middle" x="693.16" y="-188" font-family="Helvetica,sans-Serif" font-size="10.00">/DebugGUI/imgui.h</text>
</g>
<!-- Node2 -->
<g id="node2" class="node"><title>Node2</title>
<g id="a_node2"><a xlink:href="../../d1/d95/PaletteHelpers_8h.html" target="_top" xlink:title="/home/travis/build\l/AliceO2Group/AliceO2\l/Framework/Core/include\l/Framework/PaletteHelpers.h">
<polygon fill="none" stroke="black" points="189.16,-91 189.16,-143 333.16,-143 333.16,-91 189.16,-91"/>
<text text-anchor="start" x="197.16" y="-131" font-family="Helvetica,sans-Serif" font-size="10.00">/home/travis/build</text>
<text text-anchor="start" x="197.16" y="-120" font-family="Helvetica,sans-Serif" font-size="10.00">/AliceO2Group/AliceO2</text>
<text text-anchor="start" x="197.16" y="-109" font-family="Helvetica,sans-Serif" font-size="10.00">/Framework/Core/include</text>
<text text-anchor="middle" x="261.16" y="-98" font-family="Helvetica,sans-Serif" font-size="10.00">/Framework/PaletteHelpers.h</text>
</a>
</g>
</g>
<!-- Node1&#45;&gt;Node2 -->
<g id="edge1" class="edge"><title>Node1&#45;&gt;Node2</title>
<path fill="none" stroke="midnightblue" d="M606.574,-194.056C535.11,-183.399 431.329,-166.078 342.16,-144 339.292,-143.29 336.379,-142.532 333.443,-141.739"/>
<polygon fill="midnightblue" stroke="midnightblue" points="606.473,-197.579 616.877,-195.58 607.497,-190.654 606.473,-197.579"/>
</g>
<!-- Node3 -->
<g id="node3" class="node"><title>Node3</title>
<g id="a_node3"><a xlink:href="../../d3/d29/FrameworkGUIDebugger_8cxx.html" target="_top" xlink:title="/home/travis/build\l/AliceO2Group/AliceO2\l/Framework/Core/src/Framework\lGUIDebugger.cxx">
<polygon fill="none" stroke="black" points="-0.340441,-1 -0.340441,-53 160.66,-53 160.66,-1 -0.340441,-1"/>
<text text-anchor="start" x="7.65956" y="-41" font-family="Helvetica,sans-Serif" font-size="10.00">/home/travis/build</text>
<text text-anchor="start" x="7.65956" y="-30" font-family="Helvetica,sans-Serif" font-size="10.00">/AliceO2Group/AliceO2</text>
<text text-anchor="start" x="7.65956" y="-19" font-family="Helvetica,sans-Serif" font-size="10.00">/Framework/Core/src/Framework</text>
<text text-anchor="middle" x="80.1596" y="-8" font-family="Helvetica,sans-Serif" font-size="10.00">GUIDebugger.cxx</text>
</a>
</g>
</g>
<!-- Node1&#45;&gt;Node3 -->
<g id="edge6" class="edge"><title>Node1&#45;&gt;Node3</title>
<path fill="none" stroke="midnightblue" d="M606.894,-204.528C432.181,-200.649 49.6706,-187.26 10.1596,-144 -6.02573,-126.279 0.308374,-111.885 10.1596,-90 16.6899,-75.4924 28.4786,-63.0064 40.5428,-53.1202"/>
<polygon fill="midnightblue" stroke="midnightblue" points="607.01,-208.031 617.083,-204.748 607.161,-201.033 607.01,-208.031"/>
</g>
<!-- Node4 -->
<g id="node4" class="node"><title>Node4</title>
<g id="a_node4"><a xlink:href="../../d7/d5a/FrameworkGUIDevicesGraph_8cxx.html" target="_top" xlink:title="/home/travis/build\l/AliceO2Group/AliceO2\l/Framework/Core/src/Framework\lGUIDevicesGraph.cxx">
<polygon fill="none" stroke="black" points="746.66,-1 746.66,-53 907.66,-53 907.66,-1 746.66,-1"/>
<text text-anchor="start" x="754.66" y="-41" font-family="Helvetica,sans-Serif" font-size="10.00">/home/travis/build</text>
<text text-anchor="start" x="754.66" y="-30" font-family="Helvetica,sans-Serif" font-size="10.00">/AliceO2Group/AliceO2</text>
<text text-anchor="start" x="754.66" y="-19" font-family="Helvetica,sans-Serif" font-size="10.00">/Framework/Core/src/Framework</text>
<text text-anchor="middle" x="827.16" y="-8" font-family="Helvetica,sans-Serif" font-size="10.00">GUIDevicesGraph.cxx</text>
</a>
</g>
</g>
<!-- Node1&#45;&gt;Node4 -->
<g id="edge8" class="edge"><title>Node1&#45;&gt;Node4</title>
<path fill="none" stroke="midnightblue" d="M779.802,-200.235C904.793,-191.025 1123.41,-171.217 1147.16,-144 1218.27,-62.524 1024.19,-38.257 907.727,-31.0424"/>
<polygon fill="midnightblue" stroke="midnightblue" points="779.208,-196.769 769.489,-200.987 779.717,-203.751 779.208,-196.769"/>
</g>
<!-- Node6 -->
<g id="node6" class="node"><title>Node6</title>
<g id="a_node6"><a xlink:href="../../d8/d1c/FrameworkGUIDataRelayerUsage_8cxx.html" target="_top" xlink:title="/home/travis/build\l/AliceO2Group/AliceO2\l/Framework/Core/src/Framework\lGUIDataRelayerUsage.cxx">
<polygon fill="none" stroke="black" points="351.66,-91 351.66,-143 512.66,-143 512.66,-91 351.66,-91"/>
<text text-anchor="start" x="359.66" y="-131" font-family="Helvetica,sans-Serif" font-size="10.00">/home/travis/build</text>
<text text-anchor="start" x="359.66" y="-120" font-family="Helvetica,sans-Serif" font-size="10.00">/AliceO2Group/AliceO2</text>
<text text-anchor="start" x="359.66" y="-109" font-family="Helvetica,sans-Serif" font-size="10.00">/Framework/Core/src/Framework</text>
<text text-anchor="middle" x="432.16" y="-98" font-family="Helvetica,sans-Serif" font-size="10.00">GUIDataRelayerUsage.cxx</text>
</a>
</g>
</g>
<!-- Node1&#45;&gt;Node6 -->
<g id="edge5" class="edge"><title>Node1&#45;&gt;Node6</title>
<path fill="none" stroke="midnightblue" d="M609.102,-177.659C576.155,-166.55 538.665,-153.91 506.701,-143.133"/>
<polygon fill="midnightblue" stroke="midnightblue" points="608.123,-181.022 618.717,-180.901 610.359,-174.389 608.123,-181.022"/>
</g>
<!-- Node7 -->
<g id="node7" class="node"><title>Node7</title>
<g id="a_node7"><a xlink:href="../../d4/d72/FrameworkGUIDeviceInspector_8cxx.html" target="_top" xlink:title="/home/travis/build\l/AliceO2Group/AliceO2\l/Framework/Core/src/Framework\lGUIDeviceInspector.cxx">
<polygon fill="none" stroke="black" points="530.66,-91 530.66,-143 691.66,-143 691.66,-91 530.66,-91"/>
<text text-anchor="start" x="538.66" y="-131" font-family="Helvetica,sans-Serif" font-size="10.00">/home/travis/build</text>
<text text-anchor="start" x="538.66" y="-120" font-family="Helvetica,sans-Serif" font-size="10.00">/AliceO2Group/AliceO2</text>
<text text-anchor="start" x="538.66" y="-109" font-family="Helvetica,sans-Serif" font-size="10.00">/Framework/Core/src/Framework</text>
<text text-anchor="middle" x="611.16" y="-98" font-family="Helvetica,sans-Serif" font-size="10.00">GUIDeviceInspector.cxx</text>
</a>
</g>
</g>
<!-- Node1&#45;&gt;Node7 -->
<g id="edge7" class="edge"><title>Node1&#45;&gt;Node7</title>
<path fill="none" stroke="midnightblue" d="M662.539,-173.139C653.274,-163.196 643.252,-152.441 634.541,-143.092"/>
<polygon fill="midnightblue" stroke="midnightblue" points="660.064,-175.617 669.442,-180.547 665.185,-170.845 660.064,-175.617"/>
</g>
<!-- Node8 -->
<g id="node8" class="node"><title>Node8</title>
<g id="a_node8"><a xlink:href="../../db/d30/test__CallbackService_8cxx.html" target="_top" xlink:title="/home/travis/build\l/AliceO2Group/AliceO2\l/Framework/Core/test/test\l_CallbackService.cxx">
<polygon fill="none" stroke="black" points="709.66,-91 709.66,-143 840.66,-143 840.66,-91 709.66,-91"/>
<text text-anchor="start" x="717.66" y="-131" font-family="Helvetica,sans-Serif" font-size="10.00">/home/travis/build</text>
<text text-anchor="start" x="717.66" y="-120" font-family="Helvetica,sans-Serif" font-size="10.00">/AliceO2Group/AliceO2</text>
<text text-anchor="start" x="717.66" y="-109" font-family="Helvetica,sans-Serif" font-size="10.00">/Framework/Core/test/test</text>
<text text-anchor="middle" x="775.16" y="-98" font-family="Helvetica,sans-Serif" font-size="10.00">_CallbackService.cxx</text>
</a>
</g>
</g>
<!-- Node1&#45;&gt;Node8 -->
<g id="edge9" class="edge"><title>Node1&#45;&gt;Node8</title>
<path fill="none" stroke="midnightblue" d="M723.78,-173.139C733.045,-163.196 743.067,-152.441 751.778,-143.092"/>
<polygon fill="midnightblue" stroke="midnightblue" points="721.134,-170.845 716.877,-180.547 726.255,-175.617 721.134,-170.845"/>
</g>
<!-- Node9 -->
<g id="node9" class="node"><title>Node9</title>
<g id="a_node9"><a xlink:href="../../df/d3d/test__CustomGUI_8cxx.html" target="_top" xlink:title="/home/travis/build\l/AliceO2Group/AliceO2\l/Framework/Core/test/test\l_CustomGUI.cxx">
<polygon fill="none" stroke="black" points="858.66,-91 858.66,-143 989.66,-143 989.66,-91 858.66,-91"/>
<text text-anchor="start" x="866.66" y="-131" font-family="Helvetica,sans-Serif" font-size="10.00">/home/travis/build</text>
<text text-anchor="start" x="866.66" y="-120" font-family="Helvetica,sans-Serif" font-size="10.00">/AliceO2Group/AliceO2</text>
<text text-anchor="start" x="866.66" y="-109" font-family="Helvetica,sans-Serif" font-size="10.00">/Framework/Core/test/test</text>
<text text-anchor="middle" x="924.16" y="-98" font-family="Helvetica,sans-Serif" font-size="10.00">_CustomGUI.cxx</text>
</a>
</g>
</g>
<!-- Node1&#45;&gt;Node9 -->
<g id="edge10" class="edge"><title>Node1&#45;&gt;Node9</title>
<path fill="none" stroke="midnightblue" d="M768.726,-177.213C797.739,-166.16 830.586,-153.647 858.586,-142.981"/>
<polygon fill="midnightblue" stroke="midnightblue" points="767.145,-174.07 759.046,-180.901 769.637,-180.611 767.145,-174.07"/>
</g>
<!-- Node10 -->
<g id="node10" class="node"><title>Node10</title>
<g id="a_node10"><a xlink:href="../../d9/dc5/test__GUITests_8cxx.html" target="_top" xlink:title="/home/travis/build\l/AliceO2Group/AliceO2\l/Framework/Core/test/test\l_GUITests.cxx">
<polygon fill="none" stroke="black" points="1007.66,-91 1007.66,-143 1138.66,-143 1138.66,-91 1007.66,-91"/>
<text text-anchor="start" x="1015.66" y="-131" font-family="Helvetica,sans-Serif" font-size="10.00">/home/travis/build</text>
<text text-anchor="start" x="1015.66" y="-120" font-family="Helvetica,sans-Serif" font-size="10.00">/AliceO2Group/AliceO2</text>
<text text-anchor="start" x="1015.66" y="-109" font-family="Helvetica,sans-Serif" font-size="10.00">/Framework/Core/test/test</text>
<text text-anchor="middle" x="1073.16" y="-98" font-family="Helvetica,sans-Serif" font-size="10.00">_GUITests.cxx</text>
</a>
</g>
</g>
<!-- Node1&#45;&gt;Node10 -->
<g id="edge11" class="edge"><title>Node1&#45;&gt;Node10</title>
<path fill="none" stroke="midnightblue" d="M779.388,-191.636C840.868,-180.629 925.216,-163.962 998.16,-144 1001.22,-143.163 1004.33,-142.267 1007.46,-141.329"/>
<polygon fill="midnightblue" stroke="midnightblue" points="778.572,-188.226 769.338,-193.422 779.796,-195.119 778.572,-188.226"/>
</g>
<!-- Node11 -->
<g id="node11" class="node"><title>Node11</title>
<g id="a_node11"><a xlink:href="../../d2/d49/imgui__extras_8h.html" target="_top" xlink:title="/home/travis/build\l/AliceO2Group/AliceO2\l/Framework/DebugGUI/include\l/DebugGUI/imgui_extras.h">
<polygon fill="none" stroke="black" points="19.1596,-91 19.1596,-143 171.16,-143 171.16,-91 19.1596,-91"/>
<text text-anchor="start" x="27.1596" y="-131" font-family="Helvetica,sans-Serif" font-size="10.00">/home/travis/build</text>
<text text-anchor="start" x="27.1596" y="-120" font-family="Helvetica,sans-Serif" font-size="10.00">/AliceO2Group/AliceO2</text>
<text text-anchor="start" x="27.1596" y="-109" font-family="Helvetica,sans-Serif" font-size="10.00">/Framework/DebugGUI/include</text>
<text text-anchor="middle" x="95.1596" y="-98" font-family="Helvetica,sans-Serif" font-size="10.00">/DebugGUI/imgui_extras.h</text>
</a>
</g>
</g>
<!-- Node1&#45;&gt;Node11 -->
<g id="edge12" class="edge"><title>Node1&#45;&gt;Node11</title>
<path fill="none" stroke="midnightblue" d="M606.852,-200.244C504.286,-192.331 328.377,-175.368 180.16,-144 177.291,-143.393 174.38,-142.733 171.449,-142.031"/>
<polygon fill="midnightblue" stroke="midnightblue" points="606.614,-203.736 616.851,-201.005 607.145,-196.756 606.614,-203.736"/>
</g>
<!-- Node12 -->
<g id="node12" class="node"><title>Node12</title>
<g id="a_node12"><a xlink:href="../../d2/d69/test__ImGUI_8cpp.html" target="_top" xlink:title="/home/travis/build\l/AliceO2Group/AliceO2\l/Framework/DebugGUI/test\l/test_ImGUI.cpp">
<polygon fill="none" stroke="black" points="1195.66,-91 1195.66,-143 1332.66,-143 1332.66,-91 1195.66,-91"/>
<text text-anchor="start" x="1203.66" y="-131" font-family="Helvetica,sans-Serif" font-size="10.00">/home/travis/build</text>
<text text-anchor="start" x="1203.66" y="-120" font-family="Helvetica,sans-Serif" font-size="10.00">/AliceO2Group/AliceO2</text>
<text text-anchor="start" x="1203.66" y="-109" font-family="Helvetica,sans-Serif" font-size="10.00">/Framework/DebugGUI/test</text>
<text text-anchor="middle" x="1264.16" y="-98" font-family="Helvetica,sans-Serif" font-size="10.00">/test_ImGUI.cpp</text>
</a>
</g>
</g>
<!-- Node1&#45;&gt;Node12 -->
<g id="edge14" class="edge"><title>Node1&#45;&gt;Node12</title>
<path fill="none" stroke="midnightblue" d="M779.696,-199.667C877.866,-191.408 1042.35,-174.308 1181.16,-144 1185.88,-142.969 1190.72,-141.79 1195.57,-140.515"/>
<polygon fill="midnightblue" stroke="midnightblue" points="779.203,-196.195 769.527,-200.511 779.782,-203.172 779.203,-196.195"/>
</g>
<!-- Node2&#45;&gt;Node3 -->
<g id="edge2" class="edge"><title>Node2&#45;&gt;Node3</title>
<path fill="none" stroke="midnightblue" d="M200.264,-86.3935C178.014,-75.5755 153.08,-63.453 131.721,-53.0687"/>
<polygon fill="midnightblue" stroke="midnightblue" points="198.768,-89.5579 209.292,-90.7827 201.829,-83.2625 198.768,-89.5579"/>
</g>
<!-- Node2&#45;&gt;Node4 -->
<g id="edge3" class="edge"><title>Node2&#45;&gt;Node4</title>
<path fill="none" stroke="midnightblue" d="M343.482,-89.8653C490.08,-57.9975 651.868,-41.5291 746.567,-33.7517"/>
<polygon fill="midnightblue" stroke="midnightblue" points="342.415,-86.5165 333.402,-92.0865 343.921,-93.3525 342.415,-86.5165"/>
</g>
<!-- Node5 -->
<g id="node5" class="node"><title>Node5</title>
<g id="a_node5"><a xlink:href="../../d9/da2/PaletteHelpers_8cxx.html" target="_top" xlink:title="/home/travis/build\l/AliceO2Group/AliceO2\l/Framework/Core/src/PaletteHelpers.cxx">
<polygon fill="none" stroke="black" points="178.66,-6.5 178.66,-47.5 373.66,-47.5 373.66,-6.5 178.66,-6.5"/>
<text text-anchor="start" x="186.66" y="-35.5" font-family="Helvetica,sans-Serif" font-size="10.00">/home/travis/build</text>
<text text-anchor="start" x="186.66" y="-24.5" font-family="Helvetica,sans-Serif" font-size="10.00">/AliceO2Group/AliceO2</text>
<text text-anchor="middle" x="276.16" y="-13.5" font-family="Helvetica,sans-Serif" font-size="10.00">/Framework/Core/src/PaletteHelpers.cxx</text>
</a>
</g>
</g>
<!-- Node2&#45;&gt;Node5 -->
<g id="edge4" class="edge"><title>Node2&#45;&gt;Node5</title>
<path fill="none" stroke="midnightblue" d="M267.208,-80.5147C269.127,-69.2575 271.178,-57.227 272.831,-47.5249"/>
<polygon fill="midnightblue" stroke="midnightblue" points="263.728,-80.1008 265.498,-90.5468 270.629,-81.2771 263.728,-80.1008"/>
</g>
<!-- Node11&#45;&gt;Node3 -->
<g id="edge13" class="edge"><title>Node11&#45;&gt;Node3</title>
<path fill="none" stroke="midnightblue" d="M89.1066,-80.4892C87.5417,-71.3088 85.8896,-61.616 84.4366,-53.0921"/>
<polygon fill="midnightblue" stroke="midnightblue" points="85.6903,-81.2771 90.8209,-90.5468 92.5908,-80.1008 85.6903,-81.2771"/>
</g>
</g>
</svg>
