<?xml version="1.0" encoding="UTF-8" standalone="no"?>
<!DOCTYPE svg PUBLIC "-//W3C//DTD SVG 1.1//EN"
 "http://www.w3.org/Graphics/SVG/1.1/DTD/svg11.dtd">
<!-- Generated by graphviz version 2.36.0 (20140111.2315)
 -->
<!-- Title: /home/travis/build/AliceO2Group/AliceO2/Framework/Core/include/Framework/DataRefUtils.h Pages: 1 -->
<!--zoomable 242 -->
<svg id="main" version="1.1" xmlns="http://www.w3.org/2000/svg" xmlns:xlink="http://www.w3.org/1999/xlink" xml:space="preserve" onload="init(evt)">
<style type="text/css"><![CDATA[
.edge:hover path { stroke: red; }
.edge:hover polygon { stroke: red; fill: red; }
]]></style>
<script type="text/javascript"><![CDATA[
var edges = document.getElementsByTagName('g');
if (edges && edges.length) {
  for (var i=0;i<edges.length;i++) {
    if (edges[i].id.substr(0,4)=='edge') {
      edges[i].setAttribute('class','edge');
    }
  }
}
]]></script>
        <defs>
                <circle id="rim" cx="0" cy="0" r="7"/>
                <circle id="rim2" cx="0" cy="0" r="3.5"/>
                <g id="zoomPlus">
                        <use xlink:href="#rim" fill="#404040">
                                <set attributeName="fill" to="#808080" begin="zoomplus.mouseover" end="zoomplus.mouseout"/>
                        </use>
                        <path d="M-4,0h8M0,-4v8" fill="none" stroke="white" stroke-width="1.5" pointer-events="none"/>
                </g>
                <g id="zoomMin">
                        <use xlink:href="#rim" fill="#404040">
                                <set attributeName="fill" to="#808080" begin="zoomminus.mouseover" end="zoomminus.mouseout"/>
                        </use>
                        <path d="M-4,0h8" fill="none" stroke="white" stroke-width="1.5" pointer-events="none"/>
                </g>
                <g id="dirArrow">
                        <path fill="none" stroke="white" stroke-width="1.5" d="M0,-3.0v7 M-2.5,-0.5L0,-3.0L2.5,-0.5"/>
                </g>
               <g id="resetDef">
                       <use xlink:href="#rim2" fill="#404040">
                               <set attributeName="fill" to="#808080" begin="reset.mouseover" end="reset.mouseout"/>
                       </use>
               </g>
        </defs>

<script type="text/javascript">
var viewWidth = 1911;
var viewHeight = 242;
var sectionId = 'dynsection-0';
</script>
<script xlink:href="../../svgpan.js"/>
<svg id="graph" class="graph">
<g id="viewport">
<title>/home/travis/build/AliceO2Group/AliceO2/Framework/Core/include/Framework/DataRefUtils.h</title>
<!-- Node1 -->
<g id="node1" class="node"><title>Node1</title>
<polygon fill="#bfbfbf" stroke="black" points="1253.5,-181 1253.5,-233 1390.5,-233 1390.5,-181 1253.5,-181"/>
<text text-anchor="start" x="1261.5" y="-221" font-family="Helvetica,sans-Serif" font-size="10.00">/home/travis/build</text>
<text text-anchor="start" x="1261.5" y="-210" font-family="Helvetica,sans-Serif" font-size="10.00">/AliceO2Group/AliceO2</text>
<text text-anchor="start" x="1261.5" y="-199" font-family="Helvetica,sans-Serif" font-size="10.00">/Framework/Core/include</text>
<text text-anchor="middle" x="1322" y="-188" font-family="Helvetica,sans-Serif" font-size="10.00">/Framework/DataRefUtils.h</text>
</g>
<!-- Node2 -->
<g id="node2" class="node"><title>Node2</title>
<g id="a_node2"><a xlink:href="../../d5/dfb/DataRef_8h.html" target="_top" xlink:title="Framework/DataRef.h">
<polygon fill="none" stroke="black" points="455.5,-124.5 455.5,-143.5 568.5,-143.5 568.5,-124.5 455.5,-124.5"/>
<text text-anchor="middle" x="512" y="-131.5" font-family="Helvetica,sans-Serif" font-size="10.00">Framework/DataRef.h</text>
</a>
</g>
</g>
<!-- Node1&#45;&gt;Node2 -->
<g id="edge1" class="edge"><title>Node1&#45;&gt;Node2</title>
<path fill="none" stroke="midnightblue" d="M1253.32,-201.542C1123.56,-192.845 833.269,-172.079 578.874,-144.159"/>
<polygon fill="midnightblue" stroke="midnightblue" points="579.021,-140.654 568.698,-143.036 578.253,-147.612 579.021,-140.654"/>
</g>
<!-- Node3 -->
<g id="node3" class="node"><title>Node3</title>
<g id="a_node3"><a xlink:href="../../dc/dcd/DataHeader_8h.html" target="_top" xlink:title="Headers/DataHeader.h">
<polygon fill="none" stroke="black" points="586.5,-124.5 586.5,-143.5 703.5,-143.5 703.5,-124.5 586.5,-124.5"/>
<text text-anchor="middle" x="645" y="-131.5" font-family="Helvetica,sans-Serif" font-size="10.00">Headers/DataHeader.h</text>
</a>
</g>
</g>
<!-- Node1&#45;&gt;Node3 -->
<g id="edge2" class="edge"><title>Node1&#45;&gt;Node3</title>
<path fill="none" stroke="midnightblue" d="M1253.36,-198.801C1123.59,-185.192 843.653,-155.834 713.776,-142.213"/>
<polygon fill="midnightblue" stroke="midnightblue" points="713.871,-138.704 703.56,-141.141 713.141,-145.665 713.871,-138.704"/>
</g>
<!-- Node9 -->
<g id="node9" class="node"><title>Node9</title>
<polygon fill="none" stroke="#bfbfbf" points="644.5,-68.5 644.5,-87.5 703.5,-87.5 703.5,-68.5 644.5,-68.5"/>
<text text-anchor="middle" x="674" y="-75.5" font-family="Helvetica,sans-Serif" font-size="10.00">stdexcept</text>
</g>
<!-- Node1&#45;&gt;Node9 -->
<g id="edge41" class="edge"><title>Node1&#45;&gt;Node9</title>
<path fill="none" stroke="midnightblue" d="M1253.32,-194.848C1181.88,-183.044 1066.87,-163.463 968,-144 856.85,-122.119 827.164,-114.295 713.637,-88.3546"/>
<polygon fill="midnightblue" stroke="midnightblue" points="714.388,-84.9361 703.859,-86.1232 712.83,-91.7606 714.388,-84.9361"/>
</g>
<!-- Node16 -->
<g id="node16" class="node"><title>Node16</title>
<polygon fill="none" stroke="#bfbfbf" points="1187,-6.5 1187,-25.5 1249,-25.5 1249,-6.5 1187,-6.5"/>
<text text-anchor="middle" x="1218" y="-13.5" font-family="Helvetica,sans-Serif" font-size="10.00">type_traits</text>
</g>
<!-- Node1&#45;&gt;Node16 -->
<g id="edge43" class="edge"><title>Node1&#45;&gt;Node16</title>
<path fill="none" stroke="midnightblue" d="M1390.72,-191.683C1531.23,-162.258 1838.81,-96.9832 1846,-88 1851.55,-81.0584 1852.09,-74.4746 1846,-68 1801.15,-20.3226 1322.02,-45.6423 1258,-32 1254.3,-31.2117 1250.49,-30.1421 1246.75,-28.9346"/>
<polygon fill="midnightblue" stroke="midnightblue" points="1247.78,-25.5841 1237.18,-25.5149 1245.42,-32.1759 1247.78,-25.5841"/>
</g>
<!-- Node22 -->
<g id="node22" class="node"><title>Node22</title>
<g id="a_node22"><a xlink:href="../../d8/d3c/TMessageSerializer_8h.html" target="_top" xlink:title="Framework/TMessageSerializer.h">
<polygon fill="none" stroke="black" points="1314.5,-124.5 1314.5,-143.5 1477.5,-143.5 1477.5,-124.5 1314.5,-124.5"/>
<text text-anchor="middle" x="1396" y="-131.5" font-family="Helvetica,sans-Serif" font-size="10.00">Framework/TMessageSerializer.h</text>
</a>
</g>
</g>
<!-- Node1&#45;&gt;Node22 -->
<g id="edge23" class="edge"><title>Node1&#45;&gt;Node22</title>
<path fill="none" stroke="midnightblue" d="M1348.3,-180.768C1358.71,-170.78 1370.36,-159.605 1379.53,-150.798"/>
<polygon fill="midnightblue" stroke="midnightblue" points="1382.08,-153.206 1386.87,-143.757 1377.23,-148.155 1382.08,-153.206"/>
</g>
<!-- Node31 -->
<g id="node31" class="node"><title>Node31</title>
<g id="a_node31"><a xlink:href="../../d1/d53/SerializationMethods_8h.html" target="_top" xlink:title="Type wrappers for enfording a specific serialization method. ">
<polygon fill="none" stroke="black" points="977.5,-124.5 977.5,-143.5 1144.5,-143.5 1144.5,-124.5 977.5,-124.5"/>
<text text-anchor="middle" x="1061" y="-131.5" font-family="Helvetica,sans-Serif" font-size="10.00">Framework/SerializationMethods.h</text>
</a>
</g>
</g>
<!-- Node1&#45;&gt;Node31 -->
<g id="edge34" class="edge"><title>Node1&#45;&gt;Node31</title>
<path fill="none" stroke="midnightblue" d="M1253.43,-187.346C1205.39,-174.278 1142.78,-157.247 1102.24,-146.218"/>
<polygon fill="midnightblue" stroke="midnightblue" points="1103,-142.798 1092.43,-143.55 1101.16,-149.552 1103,-142.798"/>
</g>
<!-- Node32 -->
<g id="node32" class="node"><title>Node32</title>
<g id="a_node32"><a xlink:href="../../d0/d95/TypeTraits_8h.html" target="_top" xlink:title="Framework/TypeTraits.h">
<polygon fill="none" stroke="black" points="932.5,-68.5 932.5,-87.5 1055.5,-87.5 1055.5,-68.5 932.5,-68.5"/>
<text text-anchor="middle" x="994" y="-75.5" font-family="Helvetica,sans-Serif" font-size="10.00">Framework/TypeTraits.h</text>
</a>
</g>
</g>
<!-- Node1&#45;&gt;Node32 -->
<g id="edge39" class="edge"><title>Node1&#45;&gt;Node32</title>
<path fill="none" stroke="midnightblue" d="M1275.99,-180.942C1242.54,-163.41 1195.82,-140.303 1153,-124 1116.23,-110 1073.22,-98.0842 1041.21,-90.0382"/>
<polygon fill="midnightblue" stroke="midnightblue" points="1041.77,-86.5723 1031.23,-87.5641 1040.09,-93.3668 1041.77,-86.5723"/>
</g>
<!-- Node33 -->
<g id="node33" class="node"><title>Node33</title>
<polygon fill="none" stroke="#bfbfbf" points="1714,-124.5 1714,-143.5 1770,-143.5 1770,-124.5 1714,-124.5"/>
<text text-anchor="middle" x="1742" y="-131.5" font-family="Helvetica,sans-Serif" font-size="10.00">TClass.h</text>
</g>
<!-- Node1&#45;&gt;Node33 -->
<g id="edge40" class="edge"><title>Node1&#45;&gt;Node33</title>
<path fill="none" stroke="midnightblue" d="M1390.81,-195.741C1466.7,-184.186 1592.34,-164.351 1700,-144 1701.24,-143.766 1702.49,-143.524 1703.76,-143.276"/>
<polygon fill="midnightblue" stroke="midnightblue" points="1704.47,-146.704 1713.57,-141.287 1703.08,-139.844 1704.47,-146.704"/>
</g>
<!-- Node34 -->
<g id="node34" class="node"><title>Node34</title>
<polygon fill="none" stroke="#bfbfbf" points="1788,-124.5 1788,-143.5 1840,-143.5 1840,-124.5 1788,-124.5"/>
<text text-anchor="middle" x="1814" y="-131.5" font-family="Helvetica,sans-Serif" font-size="10.00">sstream</text>
</g>
<!-- Node1&#45;&gt;Node34 -->
<g id="edge42" class="edge"><title>Node1&#45;&gt;Node34</title>
<path fill="none" stroke="midnightblue" d="M1390.75,-199.034C1478.34,-189.628 1634.47,-171.082 1777.86,-143.815"/>
<polygon fill="midnightblue" stroke="midnightblue" points="1778.57,-147.245 1787.73,-141.922 1777.25,-140.37 1778.57,-147.245"/>
</g>
<!-- Node35 -->
<g id="node35" class="node"><title>Node35</title>
<polygon fill="none" stroke="#bfbfbf" points="1858.5,-124.5 1858.5,-143.5 1903.5,-143.5 1903.5,-124.5 1858.5,-124.5"/>
<text text-anchor="middle" x="1881" y="-131.5" font-family="Helvetica,sans-Serif" font-size="10.00">gsl/gsl</text>
</g>
<!-- Node1&#45;&gt;Node35 -->
<g id="edge44" class="edge"><title>Node1&#45;&gt;Node35</title>
<path fill="none" stroke="midnightblue" d="M1390.76,-201.374C1489.95,-193.936 1678.97,-176.9 1848.53,-143.783"/>
<polygon fill="midnightblue" stroke="midnightblue" points="1849.25,-147.208 1858.38,-141.836 1847.89,-140.341 1849.25,-147.208"/>
</g>
<!-- Node4 -->
<g id="node4" class="node"><title>Node4</title>
<polygon fill="none" stroke="#bfbfbf" points="474,-68.5 474,-87.5 520,-87.5 520,-68.5 474,-68.5"/>
<text text-anchor="middle" x="497" y="-75.5" font-family="Helvetica,sans-Serif" font-size="10.00">cstdint</text>
</g>
<!-- Node3&#45;&gt;Node4 -->
<g id="edge3" class="edge"><title>Node3&#45;&gt;Node4</title>
<path fill="none" stroke="midnightblue" d="M621.549,-124.444C596.867,-115.438 557.815,-101.189 530.023,-91.049"/>
<polygon fill="midnightblue" stroke="midnightblue" points="530.935,-87.6561 520.341,-87.5164 528.536,-94.2321 530.935,-87.6561"/>
</g>
<!-- Node5 -->
<g id="node5" class="node"><title>Node5</title>
<polygon fill="none" stroke="#bfbfbf" points="1267,-6.5 1267,-25.5 1319,-25.5 1319,-6.5 1267,-6.5"/>
<text text-anchor="middle" x="1293" y="-13.5" font-family="Helvetica,sans-Serif" font-size="10.00">memory</text>
</g>
<!-- Node3&#45;&gt;Node5 -->
<g id="edge4" class="edge"><title>Node3&#45;&gt;Node5</title>
<path fill="none" stroke="midnightblue" d="M703.692,-131.162C785.414,-127.597 937.674,-117.296 1064,-88 1089.34,-82.1239 1094.17,-75.7357 1119,-68 1179.52,-49.1485 1196.93,-52.2389 1257,-32 1259.41,-31.1866 1261.9,-30.2883 1264.37,-29.3475"/>
<polygon fill="midnightblue" stroke="midnightblue" points="1265.77,-32.5589 1273.76,-25.5993 1263.17,-26.0583 1265.77,-32.5589"/>
</g>
<!-- Node6 -->
<g id="node6" class="node"><title>Node6</title>
<polygon fill="none" stroke="#bfbfbf" points="538.5,-68.5 538.5,-87.5 587.5,-87.5 587.5,-68.5 538.5,-68.5"/>
<text text-anchor="middle" x="563" y="-75.5" font-family="Helvetica,sans-Serif" font-size="10.00">cassert</text>
</g>
<!-- Node3&#45;&gt;Node6 -->
<g id="edge5" class="edge"><title>Node3&#45;&gt;Node6</title>
<path fill="none" stroke="midnightblue" d="M631.825,-124.324C619.153,-115.979 599.767,-103.212 584.794,-93.3524"/>
<polygon fill="midnightblue" stroke="midnightblue" points="586.419,-90.2313 576.142,-87.6545 582.569,-96.0776 586.419,-90.2313"/>
</g>
<!-- Node7 -->
<g id="node7" class="node"><title>Node7</title>
<polygon fill="none" stroke="#bfbfbf" points="59,-6.5 59,-25.5 105,-25.5 105,-6.5 59,-6.5"/>
<text text-anchor="middle" x="82" y="-13.5" font-family="Helvetica,sans-Serif" font-size="10.00">cstring</text>
</g>
<!-- Node3&#45;&gt;Node7 -->
<g id="edge6" class="edge"><title>Node3&#45;&gt;Node7</title>
<path fill="none" stroke="midnightblue" d="M641.401,-124.372C634.815,-109.818 619.32,-80.7303 596,-68 501.724,-16.534 217.897,-59.2435 114,-32 111.507,-31.3464 108.971,-30.5035 106.473,-29.551"/>
<polygon fill="midnightblue" stroke="midnightblue" points="107.763,-26.2954 97.1981,-25.5031 104.963,-32.711 107.763,-26.2954"/>
</g>
<!-- Node8 -->
<g id="node8" class="node"><title>Node8</title>
<polygon fill="none" stroke="#bfbfbf" points="362,-68.5 362,-87.5 418,-87.5 418,-68.5 362,-68.5"/>
<text text-anchor="middle" x="390" y="-75.5" font-family="Helvetica,sans-Serif" font-size="10.00">algorithm</text>
</g>
<!-- Node3&#45;&gt;Node8 -->
<g id="edge7" class="edge"><title>Node3&#45;&gt;Node8</title>
<path fill="none" stroke="midnightblue" d="M604.555,-124.492C561.705,-115.469 492.073,-100.782 432,-88 430.728,-87.7294 429.435,-87.4539 428.128,-87.1754"/>
<polygon fill="midnightblue" stroke="midnightblue" points="428.522,-83.6806 418.012,-85.0143 427.06,-90.5262 428.522,-83.6806"/>
</g>
<!-- Node3&#45;&gt;Node9 -->
<g id="edge8" class="edge"><title>Node3&#45;&gt;Node9</title>
<path fill="none" stroke="midnightblue" d="M649.789,-124.083C653.758,-116.691 659.525,-105.953 664.435,-96.8111"/>
<polygon fill="midnightblue" stroke="midnightblue" points="667.653,-98.217 669.3,-87.7511 661.486,-94.9051 667.653,-98.217"/>
</g>
<!-- Node10 -->
<g id="node10" class="node"><title>Node10</title>
<polygon fill="none" stroke="#bfbfbf" points="-0.5,-6.5 -0.5,-25.5 40.5,-25.5 40.5,-6.5 -0.5,-6.5"/>
<text text-anchor="middle" x="20" y="-13.5" font-family="Helvetica,sans-Serif" font-size="10.00">string</text>
</g>
<!-- Node3&#45;&gt;Node10 -->
<g id="edge9" class="edge"><title>Node3&#45;&gt;Node10</title>
<path fill="none" stroke="midnightblue" d="M598.622,-124.454C561.738,-116.936 509.175,-104.598 465,-88 446.765,-81.1485 444.696,-73.4704 426,-68 264.88,-20.8566 211.358,-78.3208 50,-32 48.027,-31.4336 46.0286,-30.7388 44.0492,-29.9617"/>
<polygon fill="midnightblue" stroke="midnightblue" points="45.0654,-26.5779 34.5154,-25.6036 42.1551,-32.9443 45.0654,-26.5779"/>
</g>
<!-- Node11 -->
<g id="node11" class="node"><title>Node11</title>
<g id="a_node11"><a xlink:href="../../dc/d03/MemoryResources_8h.html" target="_top" xlink:title="MemoryResources/MemoryResources.h">
<polygon fill="none" stroke="black" points="721.5,-68.5 721.5,-87.5 914.5,-87.5 914.5,-68.5 721.5,-68.5"/>
<text text-anchor="middle" x="818" y="-75.5" font-family="Helvetica,sans-Serif" font-size="10.00">MemoryResources/MemoryResources.h</text>
</a>
</g>
</g>
<!-- Node3&#45;&gt;Node11 -->
<g id="edge10" class="edge"><title>Node3&#45;&gt;Node11</title>
<path fill="none" stroke="midnightblue" d="M672.412,-124.444C701.769,-115.28 748.519,-100.688 781.096,-90.5192"/>
<polygon fill="midnightblue" stroke="midnightblue" points="782.213,-93.8371 790.716,-87.5164 780.127,-87.1551 782.213,-93.8371"/>
</g>
<!-- Node11&#45;&gt;Node7 -->
<g id="edge15" class="edge"><title>Node11&#45;&gt;Node7</title>
<path fill="none" stroke="midnightblue" d="M721.245,-68.6863C718.127,-68.4499 715.039,-68.2205 712,-68 446.439,-48.7356 372.032,-97.6755 114,-32 111.503,-31.3644 108.963,-30.5336 106.463,-29.5887"/>
<polygon fill="midnightblue" stroke="midnightblue" points="107.752,-26.3324 97.1857,-25.5513 104.958,-32.751 107.752,-26.3324"/>
</g>
<!-- Node11&#45;&gt;Node10 -->
<g id="edge16" class="edge"><title>Node11&#45;&gt;Node10</title>
<path fill="none" stroke="midnightblue" d="M721.247,-68.6631C718.129,-68.4334 715.04,-68.2117 712,-68 565.027,-57.7667 192.415,-69.7311 50,-32 47.8047,-31.4184 45.5821,-30.6659 43.3913,-29.808"/>
<polygon fill="midnightblue" stroke="midnightblue" points="44.7236,-26.5684 34.1753,-25.5762 41.8025,-32.9299 44.7236,-26.5684"/>
</g>
<!-- Node12 -->
<g id="node12" class="node"><title>Node12</title>
<polygon fill="none" stroke="#bfbfbf" points="273,-1 273,-31 373,-31 373,-1 273,-1"/>
<text text-anchor="start" x="281" y="-19" font-family="Helvetica,sans-Serif" font-size="10.00">boost/container/flat</text>
<text text-anchor="middle" x="323" y="-8" font-family="Helvetica,sans-Serif" font-size="10.00">_map.hpp</text>
</g>
<!-- Node11&#45;&gt;Node12 -->
<g id="edge11" class="edge"><title>Node11&#45;&gt;Node12</title>
<path fill="none" stroke="midnightblue" d="M721.171,-68.6689C617.895,-59.5015 459.917,-44.6005 383.353,-32.0265"/>
<polygon fill="midnightblue" stroke="midnightblue" points="383.551,-28.5096 373.104,-30.2686 382.368,-35.4088 383.551,-28.5096"/>
</g>
<!-- Node13 -->
<g id="node13" class="node"><title>Node13</title>
<polygon fill="none" stroke="#bfbfbf" points="391,-1 391,-31 507,-31 507,-1 391,-1"/>
<text text-anchor="start" x="399" y="-19" font-family="Helvetica,sans-Serif" font-size="10.00">boost/container/pmr</text>
<text text-anchor="middle" x="449" y="-8" font-family="Helvetica,sans-Serif" font-size="10.00">/memory_resource.hpp</text>
</g>
<!-- Node11&#45;&gt;Node13 -->
<g id="edge12" class="edge"><title>Node11&#45;&gt;Node13</title>
<path fill="none" stroke="midnightblue" d="M751.491,-68.4971C692.423,-60.6245 603.541,-47.9961 517.04,-32.1167"/>
<polygon fill="midnightblue" stroke="midnightblue" points="517.522,-28.6465 507.052,-30.2664 516.247,-35.5294 517.522,-28.6465"/>
</g>
<!-- Node14 -->
<g id="node14" class="node"><title>Node14</title>
<polygon fill="none" stroke="#bfbfbf" points="525,-1 525,-31 681,-31 681,-1 525,-1"/>
<text text-anchor="start" x="533" y="-19" font-family="Helvetica,sans-Serif" font-size="10.00">boost/container/pmr</text>
<text text-anchor="middle" x="603" y="-8" font-family="Helvetica,sans-Serif" font-size="10.00">/monotonic_buffer_resource.hpp</text>
</g>
<!-- Node11&#45;&gt;Node14 -->
<g id="edge13" class="edge"><title>Node11&#45;&gt;Node14</title>
<path fill="none" stroke="midnightblue" d="M787.196,-68.4035C754.908,-59.393 703.36,-45.0075 662.996,-33.7432"/>
<polygon fill="midnightblue" stroke="midnightblue" points="663.83,-30.3422 653.257,-31.0253 661.949,-37.0846 663.83,-30.3422"/>
</g>
<!-- Node15 -->
<g id="node15" class="node"><title>Node15</title>
<polygon fill="none" stroke="#bfbfbf" points="699.5,-1 699.5,-31 832.5,-31 832.5,-1 699.5,-1"/>
<text text-anchor="start" x="707.5" y="-19" font-family="Helvetica,sans-Serif" font-size="10.00">boost/container/pmr</text>
<text text-anchor="middle" x="766" y="-8" font-family="Helvetica,sans-Serif" font-size="10.00">/polymorphic_allocator.hpp</text>
</g>
<!-- Node11&#45;&gt;Node15 -->
<g id="edge14" class="edge"><title>Node11&#45;&gt;Node15</title>
<path fill="none" stroke="midnightblue" d="M810.55,-68.4035C803.902,-60.733 793.878,-49.1673 785.021,-38.9478"/>
<polygon fill="midnightblue" stroke="midnightblue" points="787.45,-36.4055 778.255,-31.1408 782.16,-40.99 787.45,-36.4055"/>
</g>
<!-- Node11&#45;&gt;Node16 -->
<g id="edge17" class="edge"><title>Node11&#45;&gt;Node16</title>
<path fill="none" stroke="midnightblue" d="M903.967,-68.4836C993.28,-59.2317 1126.86,-44.1475 1177,-32 1180.49,-31.1533 1184.1,-30.1054 1187.66,-28.9598"/>
<polygon fill="midnightblue" stroke="midnightblue" points="1189.13,-32.1536 1197.42,-25.559 1186.83,-25.5431 1189.13,-32.1536"/>
</g>
<!-- Node17 -->
<g id="node17" class="node"><title>Node17</title>
<polygon fill="none" stroke="#bfbfbf" points="851,-6.5 851,-25.5 891,-25.5 891,-6.5 851,-6.5"/>
<text text-anchor="middle" x="871" y="-13.5" font-family="Helvetica,sans-Serif" font-size="10.00">utility</text>
</g>
<!-- Node11&#45;&gt;Node17 -->
<g id="edge18" class="edge"><title>Node11&#45;&gt;Node17</title>
<path fill="none" stroke="midnightblue" d="M825.594,-68.4035C833.701,-59.2252 846.735,-44.4699 856.763,-33.1173"/>
<polygon fill="midnightblue" stroke="midnightblue" points="859.423,-35.3925 863.42,-25.5806 854.177,-30.7582 859.423,-35.3925"/>
</g>
<!-- Node18 -->
<g id="node18" class="node"><title>Node18</title>
<polygon fill="none" stroke="#bfbfbf" points="1125,-6.5 1125,-25.5 1169,-25.5 1169,-6.5 1125,-6.5"/>
<text text-anchor="middle" x="1147" y="-13.5" font-family="Helvetica,sans-Serif" font-size="10.00">vector</text>
</g>
<!-- Node11&#45;&gt;Node18 -->
<g id="edge19" class="edge"><title>Node11&#45;&gt;Node18</title>
<path fill="none" stroke="midnightblue" d="M891.282,-68.4922C965.591,-59.4074 1075.26,-44.6128 1116,-32 1118.13,-31.3391 1120.31,-30.5514 1122.46,-29.6881"/>
<polygon fill="midnightblue" stroke="midnightblue" points="1123.92,-32.8704 1131.6,-25.5775 1121.05,-26.4859 1123.92,-32.8704"/>
</g>
<!-- Node19 -->
<g id="node19" class="node"><title>Node19</title>
<polygon fill="none" stroke="#bfbfbf" points="909.5,-6.5 909.5,-25.5 992.5,-25.5 992.5,-6.5 909.5,-6.5"/>
<text text-anchor="middle" x="951" y="-13.5" font-family="Helvetica,sans-Serif" font-size="10.00">unordered_map</text>
</g>
<!-- Node11&#45;&gt;Node19 -->
<g id="edge20" class="edge"><title>Node11&#45;&gt;Node19</title>
<path fill="none" stroke="midnightblue" d="M837.056,-68.4035C859.475,-58.2896 896.905,-41.4036 922.713,-29.761"/>
<polygon fill="midnightblue" stroke="midnightblue" points="924.304,-32.8832 931.98,-25.5806 921.425,-26.5025 924.304,-32.8832"/>
</g>
<!-- Node20 -->
<g id="node20" class="node"><title>Node20</title>
<polygon fill="none" stroke="#bfbfbf" points="1010.5,-6.5 1010.5,-25.5 1107.5,-25.5 1107.5,-6.5 1010.5,-6.5"/>
<text text-anchor="middle" x="1059" y="-13.5" font-family="Helvetica,sans-Serif" font-size="10.00">FairMQMessage.h</text>
</g>
<!-- Node11&#45;&gt;Node20 -->
<g id="edge21" class="edge"><title>Node11&#45;&gt;Node20</title>
<path fill="none" stroke="midnightblue" d="M853.113,-68.4976C889.976,-59.5406 949.608,-44.9638 1001,-32 1005.98,-30.7443 1011.19,-29.4153 1016.37,-28.0877"/>
<polygon fill="midnightblue" stroke="midnightblue" points="1017.39,-31.4397 1026.2,-25.5565 1015.64,-24.6608 1017.39,-31.4397"/>
</g>
<!-- Node21 -->
<g id="node21" class="node"><title>Node21</title>
<polygon fill="none" stroke="#bfbfbf" points="123.5,-6.5 123.5,-25.5 254.5,-25.5 254.5,-6.5 123.5,-6.5"/>
<text text-anchor="middle" x="189" y="-13.5" font-family="Helvetica,sans-Serif" font-size="10.00">FairMQTransportFactory.h</text>
</g>
<!-- Node11&#45;&gt;Node21 -->
<g id="edge22" class="edge"><title>Node11&#45;&gt;Node21</title>
<path fill="none" stroke="midnightblue" d="M721.239,-68.7663C718.123,-68.5069 715.037,-68.251 712,-68 512.926,-51.5503 461.832,-59.6348 264,-32 255.305,-30.7854 246.098,-29.1976 237.225,-27.5105"/>
<polygon fill="midnightblue" stroke="midnightblue" points="237.88,-24.0723 227.392,-25.578 236.53,-30.9409 237.88,-24.0723"/>
</g>
<!-- Node22&#45;&gt;Node5 -->
<g id="edge31" class="edge"><title>Node22&#45;&gt;Node5</title>
<path fill="none" stroke="midnightblue" d="M1319.53,-124.492C1248.67,-115.822 1152.52,-101.733 1141,-88 1088.22,-25.0872 1099.61,-89.0686 1257,-32 1259.26,-31.1821 1261.58,-30.3032 1263.9,-29.3958"/>
<polygon fill="midnightblue" stroke="midnightblue" points="1265.36,-32.58 1273.33,-25.5893 1262.74,-26.0895 1265.36,-32.58"/>
</g>
<!-- Node22&#45;&gt;Node11 -->
<g id="edge33" class="edge"><title>Node22&#45;&gt;Node11</title>
<path fill="none" stroke="midnightblue" d="M1314.41,-125.378C1210.65,-115.684 1031.5,-98.9465 919.161,-88.451"/>
<polygon fill="midnightblue" stroke="midnightblue" points="919.458,-84.9636 909.176,-87.5182 918.807,-91.9333 919.458,-84.9636"/>
</g>
<!-- Node23 -->
<g id="node23" class="node"><title>Node23</title>
<polygon fill="none" stroke="#bfbfbf" points="1150.5,-68.5 1150.5,-87.5 1277.5,-87.5 1277.5,-68.5 1150.5,-68.5"/>
<text text-anchor="middle" x="1214" y="-75.5" font-family="Helvetica,sans-Serif" font-size="10.00">fairmq/FairMQMessage.h</text>
</g>
<!-- Node22&#45;&gt;Node23 -->
<g id="edge24" class="edge"><title>Node22&#45;&gt;Node23</title>
<path fill="none" stroke="midnightblue" d="M1367.16,-124.444C1336.14,-115.241 1286.67,-100.562 1252.38,-90.3879"/>
<polygon fill="midnightblue" stroke="midnightblue" points="1253.29,-87.0055 1242.7,-87.5164 1251.29,-93.7164 1253.29,-87.0055"/>
</g>
<!-- Node24 -->
<g id="node24" class="node"><title>Node24</title>
<polygon fill="none" stroke="#bfbfbf" points="1295.5,-68.5 1295.5,-87.5 1342.5,-87.5 1342.5,-68.5 1295.5,-68.5"/>
<text text-anchor="middle" x="1319" y="-75.5" font-family="Helvetica,sans-Serif" font-size="10.00">TList.h</text>
</g>
<!-- Node22&#45;&gt;Node24 -->
<g id="edge25" class="edge"><title>Node22&#45;&gt;Node24</title>
<path fill="none" stroke="midnightblue" d="M1383.63,-124.324C1371.84,-116.058 1353.87,-103.453 1339.86,-93.6322"/>
<polygon fill="midnightblue" stroke="midnightblue" points="1341.54,-90.5307 1331.34,-87.6545 1337.52,-96.2619 1341.54,-90.5307"/>
</g>
<!-- Node25 -->
<g id="node25" class="node"><title>Node25</title>
<polygon fill="none" stroke="#bfbfbf" points="1360.5,-68.5 1360.5,-87.5 1431.5,-87.5 1431.5,-68.5 1360.5,-68.5"/>
<text text-anchor="middle" x="1396" y="-75.5" font-family="Helvetica,sans-Serif" font-size="10.00">TMessage.h</text>
</g>
<!-- Node22&#45;&gt;Node25 -->
<g id="edge26" class="edge"><title>Node22&#45;&gt;Node25</title>
<path fill="none" stroke="midnightblue" d="M1396,-124.083C1396,-117.006 1396,-106.861 1396,-97.9865"/>
<polygon fill="midnightblue" stroke="midnightblue" points="1399.5,-97.751 1396,-87.7511 1392.5,-97.7511 1399.5,-97.751"/>
</g>
<!-- Node26 -->
<g id="node26" class="node"><title>Node26</title>
<polygon fill="none" stroke="#bfbfbf" points="1449.5,-68.5 1449.5,-87.5 1518.5,-87.5 1518.5,-68.5 1449.5,-68.5"/>
<text text-anchor="middle" x="1484" y="-75.5" font-family="Helvetica,sans-Serif" font-size="10.00">TObjArray.h</text>
</g>
<!-- Node22&#45;&gt;Node26 -->
<g id="edge27" class="edge"><title>Node22&#45;&gt;Node26</title>
<path fill="none" stroke="midnightblue" d="M1410.14,-124.324C1423.87,-115.9 1444.94,-102.971 1461.06,-93.0741"/>
<polygon fill="midnightblue" stroke="midnightblue" points="1463.2,-95.8678 1469.9,-87.6545 1459.54,-89.9016 1463.2,-95.8678"/>
</g>
<!-- Node27 -->
<g id="node27" class="node"><title>Node27</title>
<polygon fill="none" stroke="#bfbfbf" points="1536.5,-68.5 1536.5,-87.5 1623.5,-87.5 1623.5,-68.5 1536.5,-68.5"/>
<text text-anchor="middle" x="1580" y="-75.5" font-family="Helvetica,sans-Serif" font-size="10.00">TStreamerInfo.h</text>
</g>
<!-- Node22&#45;&gt;Node27 -->
<g id="edge28" class="edge"><title>Node22&#45;&gt;Node27</title>
<path fill="none" stroke="midnightblue" d="M1425.16,-124.444C1456.51,-115.241 1506.53,-100.562 1541.2,-90.3879"/>
<polygon fill="midnightblue" stroke="midnightblue" points="1542.37,-93.6909 1550.98,-87.5164 1540.4,-86.9742 1542.37,-93.6909"/>
</g>
<!-- Node28 -->
<g id="node28" class="node"><title>Node28</title>
<polygon fill="none" stroke="#bfbfbf" points="1641.5,-68.5 1641.5,-87.5 1704.5,-87.5 1704.5,-68.5 1641.5,-68.5"/>
<text text-anchor="middle" x="1673" y="-75.5" font-family="Helvetica,sans-Serif" font-size="10.00">gsl/gsl_util</text>
</g>
<!-- Node22&#45;&gt;Node28 -->
<g id="edge29" class="edge"><title>Node22&#45;&gt;Node28</title>
<path fill="none" stroke="midnightblue" d="M1442.64,-124.499C1488.17,-116.116 1559.64,-102.719 1631.15,-88.1299"/>
<polygon fill="midnightblue" stroke="midnightblue" points="1632.14,-91.4992 1641.23,-86.0638 1630.74,-84.6416 1632.14,-91.4992"/>
</g>
<!-- Node29 -->
<g id="node29" class="node"><title>Node29</title>
<polygon fill="none" stroke="#bfbfbf" points="1722.5,-68.5 1722.5,-87.5 1775.5,-87.5 1775.5,-68.5 1722.5,-68.5"/>
<text text-anchor="middle" x="1749" y="-75.5" font-family="Helvetica,sans-Serif" font-size="10.00">gsl/span</text>
</g>
<!-- Node22&#45;&gt;Node29 -->
<g id="edge30" class="edge"><title>Node22&#45;&gt;Node29</title>
<path fill="none" stroke="midnightblue" d="M1471.95,-124.469C1534.07,-116.974 1624.36,-104.904 1712.44,-87.925"/>
<polygon fill="midnightblue" stroke="midnightblue" points="1713.19,-91.3448 1722.33,-85.9948 1711.85,-84.4743 1713.19,-91.3448"/>
</g>
<!-- Node30 -->
<g id="node30" class="node"><title>Node30</title>
<polygon fill="none" stroke="#bfbfbf" points="1794,-68.5 1794,-87.5 1838,-87.5 1838,-68.5 1794,-68.5"/>
<text text-anchor="middle" x="1816" y="-75.5" font-family="Helvetica,sans-Serif" font-size="10.00">mutex</text>
</g>
<!-- Node22&#45;&gt;Node30 -->
<g id="edge32" class="edge"><title>Node22&#45;&gt;Node30</title>
<path fill="none" stroke="midnightblue" d="M1477.58,-127.323C1554.19,-121.131 1672.06,-109.39 1783.65,-87.7384"/>
<polygon fill="midnightblue" stroke="midnightblue" points="1784.6,-91.1186 1793.73,-85.7509 1783.24,-84.2507 1784.6,-91.1186"/>
</g>
<!-- Node31&#45;&gt;Node32 -->
<g id="edge35" class="edge"><title>Node31&#45;&gt;Node32</title>
<path fill="none" stroke="midnightblue" d="M1050.24,-124.324C1040.23,-116.263 1025.11,-104.077 1013.07,-94.3695"/>
<polygon fill="midnightblue" stroke="midnightblue" points="1014.94,-91.3841 1004.96,-87.8339 1010.55,-96.8343 1014.94,-91.3841"/>
</g>
<!-- Node32&#45;&gt;Node5 -->
<g id="edge38" class="edge"><title>Node32&#45;&gt;Node5</title>
<path fill="none" stroke="midnightblue" d="M1053.2,-68.4568C1118.65,-58.7324 1219.74,-42.8007 1257,-32 1259.65,-31.2313 1262.37,-30.3268 1265.07,-29.3494"/>
<polygon fill="midnightblue" stroke="midnightblue" points="1266.58,-32.5187 1274.6,-25.6017 1264.02,-26.0043 1266.58,-32.5187"/>
</g>
<!-- Node32&#45;&gt;Node16 -->
<g id="edge36" class="edge"><title>Node32&#45;&gt;Node16</title>
<path fill="none" stroke="midnightblue" d="M1033.97,-68.4991C1071.27,-60.2522 1128.34,-46.8364 1177,-32 1180.12,-31.0496 1183.34,-29.9952 1186.56,-28.8986"/>
<polygon fill="midnightblue" stroke="midnightblue" points="1187.76,-32.1838 1196.02,-25.5442 1185.43,-25.5859 1187.76,-32.1838"/>
</g>
<!-- Node32&#45;&gt;Node18 -->
<g id="edge37" class="edge"><title>Node32&#45;&gt;Node18</title>
<path fill="none" stroke="midnightblue" d="M1019.52,-68.4011C1044.4,-59.8268 1083.17,-45.9564 1116,-32 1117.59,-31.3245 1119.21,-30.6106 1120.85,-29.8754"/>
<polygon fill="midnightblue" stroke="midnightblue" points="1122.51,-32.9621 1130.08,-25.5537 1119.54,-26.6219 1122.51,-32.9621"/>
</g>
</g>
</svg>
        <g id="navigator" transform="translate(0 0)" fill="#404254">
                <rect fill="#f2f5e9" fill-opacity="0.5" stroke="#606060" stroke-width=".5" x="0" y="0" width="60" height="60"/>
                <use id="zoomplus" xlink:href="#zoomPlus" x="17" y="9" onmousedown="handleZoom(evt,'in')"/>
                <use id="zoomminus" xlink:href="#zoomMin" x="42" y="9" onmousedown="handleZoom(evt,'out')"/>
                <use id="reset" xlink:href="#resetDef" x="30" y="36" onmousedown="handleReset()"/>
                <g id="arrowUp" xlink:href="#dirArrow" transform="translate(30 24)" onmousedown="handlePan(0,-1)">
                  <use xlink:href="#rim" fill="#404040">
                        <set attributeName="fill" to="#808080" begin="arrowUp.mouseover" end="arrowUp.mouseout"/>
                  </use>
                  <path fill="none" stroke="white" stroke-width="1.5" d="M0,-3.0v7 M-2.5,-0.5L0,-3.0L2.5,-0.5"/>
                </g>
                <g id="arrowRight" xlink:href="#dirArrow" transform="rotate(90) translate(36 -43)" onmousedown="handlePan(1,0)">
                  <use xlink:href="#rim" fill="#404040">
                        <set attributeName="fill" to="#808080" begin="arrowRight.mouseover" end="arrowRight.mouseout"/>
                  </use>
                  <path fill="none" stroke="white" stroke-width="1.5" d="M0,-3.0v7 M-2.5,-0.5L0,-3.0L2.5,-0.5"/>
                </g>
                <g id="arrowDown" xlink:href="#dirArrow" transform="rotate(180) translate(-30 -48)" onmousedown="handlePan(0,1)">
                  <use xlink:href="#rim" fill="#404040">
                        <set attributeName="fill" to="#808080" begin="arrowDown.mouseover" end="arrowDown.mouseout"/>
                  </use>
                  <path fill="none" stroke="white" stroke-width="1.5" d="M0,-3.0v7 M-2.5,-0.5L0,-3.0L2.5,-0.5"/>
                </g>
                <g id="arrowLeft" xlink:href="#dirArrow" transform="rotate(270) translate(-36 17)" onmousedown="handlePan(-1,0)">
                  <use xlink:href="#rim" fill="#404040">
                        <set attributeName="fill" to="#808080" begin="arrowLeft.mouseover" end="arrowLeft.mouseout"/>
                  </use>
                  <path fill="none" stroke="white" stroke-width="1.5" d="M0,-3.0v7 M-2.5,-0.5L0,-3.0L2.5,-0.5"/>
                </g>
        </g>
        <svg viewBox="0 0 15 15" width="100%" height="30px" preserveAspectRatio="xMaxYMin meet">
         <g id="arrow_out" transform="scale(0.3 0.3)">
          <a xlink:href="DataRefUtils_8h__incl_org.svg" target="_base">
           <rect id="button" ry="5" rx="5" y="6" x="6" height="38" width="38"
                fill="#f2f5e9" fill-opacity="0.5" stroke="#606060" stroke-width="1.0"/>
           <path id="arrow"
             d="M 11.500037,31.436501 C 11.940474,20.09759 22.043105,11.32322 32.158766,21.979434 L 37.068811,17.246167 C 37.068811,17.246167 37.088388,32 37.088388,32 L 22.160133,31.978069 C 22.160133,31.978069 26.997745,27.140456 26.997745,27.140456 C 18.528582,18.264221 13.291696,25.230495 11.500037,31.436501 z"
             style="fill:#404040;"/>
          </a>
         </g>
        </svg>
</svg>
