<?xml version="1.0" encoding="UTF-8" standalone="no"?>
<!DOCTYPE svg PUBLIC "-//W3C//DTD SVG 1.1//EN"
 "http://www.w3.org/Graphics/SVG/1.1/DTD/svg11.dtd">
<!-- Generated by graphviz version 2.36.0 (20140111.2315)
 -->
<!-- Title: /home/travis/build/AliceO2Group/AliceO2/Framework/Core/include/Framework/ControlService.h Pages: 1 -->
<svg width="5371pt" height="242pt"
 viewBox="0.00 0.00 5371.00 242.00" xmlns="http://www.w3.org/2000/svg" xmlns:xlink="http://www.w3.org/1999/xlink">
<g id="graph0" class="graph" transform="scale(1 1) rotate(0) translate(4 238)">
<title>/home/travis/build/AliceO2Group/AliceO2/Framework/Core/include/Framework/ControlService.h</title>
<!-- Node1 -->
<g id="node1" class="node"><title>Node1</title>
<polygon fill="#bfbfbf" stroke="black" points="2622,-181 2622,-233 2766,-233 2766,-181 2622,-181"/>
<text text-anchor="start" x="2630" y="-221" font-family="Helvetica,sans-Serif" font-size="10.00">/home/travis/build</text>
<text text-anchor="start" x="2630" y="-210" font-family="Helvetica,sans-Serif" font-size="10.00">/AliceO2Group/AliceO2</text>
<text text-anchor="start" x="2630" y="-199" font-family="Helvetica,sans-Serif" font-size="10.00">/Framework/Core/include</text>
<text text-anchor="middle" x="2694" y="-188" font-family="Helvetica,sans-Serif" font-size="10.00">/Framework/ControlService.h</text>
</g>
<!-- Node2 -->
<g id="node2" class="node"><title>Node2</title>
<g id="a_node2"><a xlink:href="../../d5/dce/DigitReaderSpec_8cxx.html" target="_top" xlink:title="Processor spec for a reader of TPC data from ROOT file. ">
<polygon fill="none" stroke="black" points="-0.5,-91 -0.5,-143 128.5,-143 128.5,-91 -0.5,-91"/>
<text text-anchor="start" x="7.5" y="-131" font-family="Helvetica,sans-Serif" font-size="10.00">/home/travis/build</text>
<text text-anchor="start" x="7.5" y="-120" font-family="Helvetica,sans-Serif" font-size="10.00">/AliceO2Group/AliceO2</text>
<text text-anchor="start" x="7.5" y="-109" font-family="Helvetica,sans-Serif" font-size="10.00">/Detectors/TPC/workflow</text>
<text text-anchor="middle" x="64" y="-98" font-family="Helvetica,sans-Serif" font-size="10.00">/src/DigitReaderSpec.cxx</text>
</a>
</g>
</g>
<!-- Node1&#45;&gt;Node2 -->
<g id="edge1" class="edge"><title>Node1&#45;&gt;Node2</title>
<path fill="none" stroke="midnightblue" d="M2611.76,-205.535C2201.46,-203.008 385.622,-189.332 138,-144 134.919,-143.436 131.795,-142.763 128.659,-142.006"/>
<polygon fill="midnightblue" stroke="midnightblue" points="2611.75,-209.035 2621.77,-205.596 2611.79,-202.035 2611.75,-209.035"/>
</g>
<!-- Node3 -->
<g id="node3" class="node"><title>Node3</title>
<g id="a_node3"><a xlink:href="../../d7/d0c/RootFileWriterSpec_8cxx.html" target="_top" xlink:title="Processor spec for a ROOT file writer. ">
<polygon fill="none" stroke="black" points="147,-91 147,-143 287,-143 287,-91 147,-91"/>
<text text-anchor="start" x="155" y="-131" font-family="Helvetica,sans-Serif" font-size="10.00">/home/travis/build</text>
<text text-anchor="start" x="155" y="-120" font-family="Helvetica,sans-Serif" font-size="10.00">/AliceO2Group/AliceO2</text>
<text text-anchor="start" x="155" y="-109" font-family="Helvetica,sans-Serif" font-size="10.00">/Detectors/TPC/workflow</text>
<text text-anchor="middle" x="217" y="-98" font-family="Helvetica,sans-Serif" font-size="10.00">/src/RootFileWriterSpec.cxx</text>
</a>
</g>
</g>
<!-- Node1&#45;&gt;Node3 -->
<g id="edge2" class="edge"><title>Node1&#45;&gt;Node3</title>
<path fill="none" stroke="midnightblue" d="M2611.81,-205.297C2217.32,-201.734 527.7,-184.226 296,-144 293.155,-143.506 290.272,-142.931 287.375,-142.289"/>
<polygon fill="midnightblue" stroke="midnightblue" points="2611.96,-208.799 2621.99,-205.389 2612.02,-201.799 2611.96,-208.799"/>
</g>
<!-- Node4 -->
<g id="node4" class="node"><title>Node4</title>
<g id="a_node4"><a xlink:href="../../da/da1/TextControlService_8h.html" target="_top" xlink:title="/home/travis/build\l/AliceO2Group/AliceO2\l/Framework/Core/include\l/Framework/TextControlService.h">
<polygon fill="none" stroke="black" points="305,-91 305,-143 469,-143 469,-91 305,-91"/>
<text text-anchor="start" x="313" y="-131" font-family="Helvetica,sans-Serif" font-size="10.00">/home/travis/build</text>
<text text-anchor="start" x="313" y="-120" font-family="Helvetica,sans-Serif" font-size="10.00">/AliceO2Group/AliceO2</text>
<text text-anchor="start" x="313" y="-109" font-family="Helvetica,sans-Serif" font-size="10.00">/Framework/Core/include</text>
<text text-anchor="middle" x="387" y="-98" font-family="Helvetica,sans-Serif" font-size="10.00">/Framework/TextControlService.h</text>
</a>
</g>
</g>
<!-- Node1&#45;&gt;Node4 -->
<g id="edge3" class="edge"><title>Node1&#45;&gt;Node4</title>
<path fill="none" stroke="midnightblue" d="M2611.8,-206.448C2262.65,-207.929 901.148,-209.31 478,-144 475.077,-143.549 472.115,-143.033 469.135,-142.463"/>
<polygon fill="midnightblue" stroke="midnightblue" points="2611.85,-209.948 2621.83,-206.404 2611.81,-202.948 2611.85,-209.948"/>
</g>
<!-- Node7 -->
<g id="node7" class="node"><title>Node7</title>
<g id="a_node7"><a xlink:href="../../db/d30/test__CallbackService_8cxx.html" target="_top" xlink:title="/home/travis/build\l/AliceO2Group/AliceO2\l/Framework/Core/test/test\l_CallbackService.cxx">
<polygon fill="none" stroke="black" points="487.5,-91 487.5,-143 618.5,-143 618.5,-91 487.5,-91"/>
<text text-anchor="start" x="495.5" y="-131" font-family="Helvetica,sans-Serif" font-size="10.00">/home/travis/build</text>
<text text-anchor="start" x="495.5" y="-120" font-family="Helvetica,sans-Serif" font-size="10.00">/AliceO2Group/AliceO2</text>
<text text-anchor="start" x="495.5" y="-109" font-family="Helvetica,sans-Serif" font-size="10.00">/Framework/Core/test/test</text>
<text text-anchor="middle" x="553" y="-98" font-family="Helvetica,sans-Serif" font-size="10.00">_CallbackService.cxx</text>
</a>
</g>
</g>
<!-- Node1&#45;&gt;Node7 -->
<g id="edge6" class="edge"><title>Node1&#45;&gt;Node7</title>
<path fill="none" stroke="midnightblue" d="M2611.64,-205.025C2251.48,-200.558 824.141,-180.675 627,-144 624.323,-143.502 621.612,-142.923 618.889,-142.279"/>
<polygon fill="midnightblue" stroke="midnightblue" points="2611.69,-208.526 2621.73,-205.149 2611.77,-201.526 2611.69,-208.526"/>
</g>
<!-- Node8 -->
<g id="node8" class="node"><title>Node8</title>
<g id="a_node8"><a xlink:href="../../df/d3d/test__CustomGUI_8cxx.html" target="_top" xlink:title="/home/travis/build\l/AliceO2Group/AliceO2\l/Framework/Core/test/test\l_CustomGUI.cxx">
<polygon fill="none" stroke="black" points="636.5,-91 636.5,-143 767.5,-143 767.5,-91 636.5,-91"/>
<text text-anchor="start" x="644.5" y="-131" font-family="Helvetica,sans-Serif" font-size="10.00">/home/travis/build</text>
<text text-anchor="start" x="644.5" y="-120" font-family="Helvetica,sans-Serif" font-size="10.00">/AliceO2Group/AliceO2</text>
<text text-anchor="start" x="644.5" y="-109" font-family="Helvetica,sans-Serif" font-size="10.00">/Framework/Core/test/test</text>
<text text-anchor="middle" x="702" y="-98" font-family="Helvetica,sans-Serif" font-size="10.00">_CustomGUI.cxx</text>
</a>
</g>
</g>
<!-- Node1&#45;&gt;Node8 -->
<g id="edge7" class="edge"><title>Node1&#45;&gt;Node8</title>
<path fill="none" stroke="midnightblue" d="M2611.71,-204.819C2268.16,-199.689 957.851,-178.05 776,-144 773.323,-143.499 770.613,-142.917 767.891,-142.271"/>
<polygon fill="midnightblue" stroke="midnightblue" points="2611.78,-208.321 2621.83,-204.97 2611.88,-201.321 2611.78,-208.321"/>
</g>
<!-- Node9 -->
<g id="node9" class="node"><title>Node9</title>
<g id="a_node9"><a xlink:href="../../db/d94/test__DanglingInputs_8cxx.html" target="_top" xlink:title="/home/travis/build\l/AliceO2Group/AliceO2\l/Framework/Core/test/test\l_DanglingInputs.cxx">
<polygon fill="none" stroke="black" points="785.5,-91 785.5,-143 916.5,-143 916.5,-91 785.5,-91"/>
<text text-anchor="start" x="793.5" y="-131" font-family="Helvetica,sans-Serif" font-size="10.00">/home/travis/build</text>
<text text-anchor="start" x="793.5" y="-120" font-family="Helvetica,sans-Serif" font-size="10.00">/AliceO2Group/AliceO2</text>
<text text-anchor="start" x="793.5" y="-109" font-family="Helvetica,sans-Serif" font-size="10.00">/Framework/Core/test/test</text>
<text text-anchor="middle" x="851" y="-98" font-family="Helvetica,sans-Serif" font-size="10.00">_DanglingInputs.cxx</text>
</a>
</g>
</g>
<!-- Node1&#45;&gt;Node9 -->
<g id="edge8" class="edge"><title>Node1&#45;&gt;Node9</title>
<path fill="none" stroke="midnightblue" d="M2611.53,-206.408C2308.14,-207.397 1254.57,-206.172 925,-144 922.324,-143.495 919.614,-142.91 916.892,-142.262"/>
<polygon fill="midnightblue" stroke="midnightblue" points="2611.59,-209.908 2621.57,-206.374 2611.56,-202.908 2611.59,-209.908"/>
</g>
<!-- Node10 -->
<g id="node10" class="node"><title>Node10</title>
<g id="a_node10"><a xlink:href="../../d2/da2/test__DataAllocator_8cxx.html" target="_top" xlink:title="/home/travis/build\l/AliceO2Group/AliceO2\l/Framework/Core/test/test\l_DataAllocator.cxx">
<polygon fill="none" stroke="black" points="934.5,-91 934.5,-143 1065.5,-143 1065.5,-91 934.5,-91"/>
<text text-anchor="start" x="942.5" y="-131" font-family="Helvetica,sans-Serif" font-size="10.00">/home/travis/build</text>
<text text-anchor="start" x="942.5" y="-120" font-family="Helvetica,sans-Serif" font-size="10.00">/AliceO2Group/AliceO2</text>
<text text-anchor="start" x="942.5" y="-109" font-family="Helvetica,sans-Serif" font-size="10.00">/Framework/Core/test/test</text>
<text text-anchor="middle" x="1000" y="-98" font-family="Helvetica,sans-Serif" font-size="10.00">_DataAllocator.cxx</text>
</a>
</g>
</g>
<!-- Node1&#45;&gt;Node10 -->
<g id="edge9" class="edge"><title>Node1&#45;&gt;Node10</title>
<path fill="none" stroke="midnightblue" d="M2611.38,-206.096C2324.57,-205.919 1373.23,-200.949 1074,-144 1071.32,-143.491 1068.62,-142.903 1065.89,-142.251"/>
<polygon fill="midnightblue" stroke="midnightblue" points="2611.7,-209.596 2621.7,-206.1 2611.7,-202.596 2611.7,-209.596"/>
</g>
<!-- Node11 -->
<g id="node11" class="node"><title>Node11</title>
<g id="a_node11"><a xlink:href="../../de/dae/test__Forwarding_8cxx.html" target="_top" xlink:title="/home/travis/build\l/AliceO2Group/AliceO2\l/Framework/Core/test/test\l_Forwarding.cxx">
<polygon fill="none" stroke="black" points="1083.5,-91 1083.5,-143 1214.5,-143 1214.5,-91 1083.5,-91"/>
<text text-anchor="start" x="1091.5" y="-131" font-family="Helvetica,sans-Serif" font-size="10.00">/home/travis/build</text>
<text text-anchor="start" x="1091.5" y="-120" font-family="Helvetica,sans-Serif" font-size="10.00">/AliceO2Group/AliceO2</text>
<text text-anchor="start" x="1091.5" y="-109" font-family="Helvetica,sans-Serif" font-size="10.00">/Framework/Core/test/test</text>
<text text-anchor="middle" x="1149" y="-98" font-family="Helvetica,sans-Serif" font-size="10.00">_Forwarding.cxx</text>
</a>
</g>
</g>
<!-- Node1&#45;&gt;Node11 -->
<g id="edge10" class="edge"><title>Node1&#45;&gt;Node11</title>
<path fill="none" stroke="midnightblue" d="M2611.76,-205.722C2342.95,-204.313 1492.2,-195.772 1223,-144 1220.33,-143.486 1217.62,-142.893 1214.9,-142.237"/>
<polygon fill="midnightblue" stroke="midnightblue" points="2611.82,-209.222 2621.83,-205.773 2611.85,-202.222 2611.82,-209.222"/>
</g>
<!-- Node12 -->
<g id="node12" class="node"><title>Node12</title>
<g id="a_node12"><a xlink:href="../../d0/d0b/test__ParallelProducer_8cxx.html" target="_top" xlink:title="/home/travis/build\l/AliceO2Group/AliceO2\l/Framework/Core/test/test\l_ParallelProducer.cxx">
<polygon fill="none" stroke="black" points="1232.5,-91 1232.5,-143 1363.5,-143 1363.5,-91 1232.5,-91"/>
<text text-anchor="start" x="1240.5" y="-131" font-family="Helvetica,sans-Serif" font-size="10.00">/home/travis/build</text>
<text text-anchor="start" x="1240.5" y="-120" font-family="Helvetica,sans-Serif" font-size="10.00">/AliceO2Group/AliceO2</text>
<text text-anchor="start" x="1240.5" y="-109" font-family="Helvetica,sans-Serif" font-size="10.00">/Framework/Core/test/test</text>
<text text-anchor="middle" x="1298" y="-98" font-family="Helvetica,sans-Serif" font-size="10.00">_ParallelProducer.cxx</text>
</a>
</g>
</g>
<!-- Node1&#45;&gt;Node12 -->
<g id="edge11" class="edge"><title>Node1&#45;&gt;Node12</title>
<path fill="none" stroke="midnightblue" d="M2611.67,-205.264C2361.22,-202.532 1611.13,-190.577 1372,-144 1369.33,-143.479 1366.62,-142.881 1363.9,-142.221"/>
<polygon fill="midnightblue" stroke="midnightblue" points="2611.75,-208.765 2621.79,-205.372 2611.83,-201.765 2611.75,-208.765"/>
</g>
<!-- Node13 -->
<g id="node13" class="node"><title>Node13</title>
<g id="a_node13"><a xlink:href="../../d4/d82/test__ProcessorOptions_8cxx.html" target="_top" xlink:title="/home/travis/build\l/AliceO2Group/AliceO2\l/Framework/Core/test/test\l_ProcessorOptions.cxx">
<polygon fill="none" stroke="black" points="1381.5,-91 1381.5,-143 1512.5,-143 1512.5,-91 1381.5,-91"/>
<text text-anchor="start" x="1389.5" y="-131" font-family="Helvetica,sans-Serif" font-size="10.00">/home/travis/build</text>
<text text-anchor="start" x="1389.5" y="-120" font-family="Helvetica,sans-Serif" font-size="10.00">/AliceO2Group/AliceO2</text>
<text text-anchor="start" x="1389.5" y="-109" font-family="Helvetica,sans-Serif" font-size="10.00">/Framework/Core/test/test</text>
<text text-anchor="middle" x="1447" y="-98" font-family="Helvetica,sans-Serif" font-size="10.00">_ProcessorOptions.cxx</text>
</a>
</g>
</g>
<!-- Node1&#45;&gt;Node13 -->
<g id="edge12" class="edge"><title>Node1&#45;&gt;Node13</title>
<path fill="none" stroke="midnightblue" d="M2611.65,-204.643C2380.88,-200.365 1731.12,-184.929 1522,-144 1518.89,-143.391 1515.73,-142.682 1512.56,-141.895"/>
<polygon fill="midnightblue" stroke="midnightblue" points="2611.93,-208.149 2621.99,-204.833 2612.06,-201.15 2611.93,-208.149"/>
</g>
<!-- Node14 -->
<g id="node14" class="node"><title>Node14</title>
<g id="a_node14"><a xlink:href="../../da/d97/test__SimpleRDataFrameProcessing_8cxx.html" target="_top" xlink:title="/home/travis/build\l/AliceO2Group/AliceO2\l/Framework/Core/test/test\l_SimpleRDataFrameProcessing.cxx">
<polygon fill="none" stroke="black" points="1531,-91 1531,-143 1707,-143 1707,-91 1531,-91"/>
<text text-anchor="start" x="1539" y="-131" font-family="Helvetica,sans-Serif" font-size="10.00">/home/travis/build</text>
<text text-anchor="start" x="1539" y="-120" font-family="Helvetica,sans-Serif" font-size="10.00">/AliceO2Group/AliceO2</text>
<text text-anchor="start" x="1539" y="-109" font-family="Helvetica,sans-Serif" font-size="10.00">/Framework/Core/test/test</text>
<text text-anchor="middle" x="1619" y="-98" font-family="Helvetica,sans-Serif" font-size="10.00">_SimpleRDataFrameProcessing.cxx</text>
</a>
</g>
</g>
<!-- Node1&#45;&gt;Node14 -->
<g id="edge13" class="edge"><title>Node1&#45;&gt;Node14</title>
<path fill="none" stroke="midnightblue" d="M2611.91,-206.274C2443.02,-205.637 2044.85,-197.946 1716,-144 1713.08,-143.52 1710.11,-142.989 1707.13,-142.417"/>
<polygon fill="midnightblue" stroke="midnightblue" points="2611.96,-209.774 2621.98,-206.304 2611.99,-202.774 2611.96,-209.774"/>
</g>
<!-- Node15 -->
<g id="node15" class="node"><title>Node15</title>
<g id="a_node15"><a xlink:href="../../da/d12/test__SimpleStatefulProcessing01_8cxx.html" target="_top" xlink:title="/home/travis/build\l/AliceO2Group/AliceO2\l/Framework/Core/test/test\l_SimpleStatefulProcessing01.cxx">
<polygon fill="none" stroke="black" points="1725,-91 1725,-143 1889,-143 1889,-91 1725,-91"/>
<text text-anchor="start" x="1733" y="-131" font-family="Helvetica,sans-Serif" font-size="10.00">/home/travis/build</text>
<text text-anchor="start" x="1733" y="-120" font-family="Helvetica,sans-Serif" font-size="10.00">/AliceO2Group/AliceO2</text>
<text text-anchor="start" x="1733" y="-109" font-family="Helvetica,sans-Serif" font-size="10.00">/Framework/Core/test/test</text>
<text text-anchor="middle" x="1807" y="-98" font-family="Helvetica,sans-Serif" font-size="10.00">_SimpleStatefulProcessing01.cxx</text>
</a>
</g>
</g>
<!-- Node1&#45;&gt;Node15 -->
<g id="edge14" class="edge"><title>Node1&#45;&gt;Node15</title>
<path fill="none" stroke="midnightblue" d="M2611.59,-205.008C2466.31,-202.057 2155.62,-190.352 1898,-144 1895.09,-143.476 1892.14,-142.898 1889.17,-142.274"/>
<polygon fill="midnightblue" stroke="midnightblue" points="2611.7,-208.511 2621.76,-205.206 2611.83,-201.512 2611.7,-208.511"/>
</g>
<!-- Node16 -->
<g id="node16" class="node"><title>Node16</title>
<g id="a_node16"><a xlink:href="../../d4/d92/test__SimpleStringProcessing_8cxx.html" target="_top" xlink:title="/home/travis/build\l/AliceO2Group/AliceO2\l/Framework/Core/test/test\l_SimpleStringProcessing.cxx">
<polygon fill="none" stroke="black" points="1907.5,-91 1907.5,-143 2052.5,-143 2052.5,-91 1907.5,-91"/>
<text text-anchor="start" x="1915.5" y="-131" font-family="Helvetica,sans-Serif" font-size="10.00">/home/travis/build</text>
<text text-anchor="start" x="1915.5" y="-120" font-family="Helvetica,sans-Serif" font-size="10.00">/AliceO2Group/AliceO2</text>
<text text-anchor="start" x="1915.5" y="-109" font-family="Helvetica,sans-Serif" font-size="10.00">/Framework/Core/test/test</text>
<text text-anchor="middle" x="1980" y="-98" font-family="Helvetica,sans-Serif" font-size="10.00">_SimpleStringProcessing.cxx</text>
</a>
</g>
</g>
<!-- Node1&#45;&gt;Node16 -->
<g id="edge15" class="edge"><title>Node1&#45;&gt;Node16</title>
<path fill="none" stroke="midnightblue" d="M2611.23,-203.504C2489.52,-198.574 2255.64,-184.29 2061,-144 2058.25,-143.431 2055.47,-142.804 2052.66,-142.129"/>
<polygon fill="midnightblue" stroke="midnightblue" points="2611.45,-207.016 2621.58,-203.912 2611.72,-200.021 2611.45,-207.016"/>
</g>
<!-- Node17 -->
<g id="node17" class="node"><title>Node17</title>
<g id="a_node17"><a xlink:href="../../d3/d4e/test__SingleDataSource_8cxx.html" target="_top" xlink:title="/home/travis/build\l/AliceO2Group/AliceO2\l/Framework/Core/test/test\l_SingleDataSource.cxx">
<polygon fill="none" stroke="black" points="2070.5,-91 2070.5,-143 2201.5,-143 2201.5,-91 2070.5,-91"/>
<text text-anchor="start" x="2078.5" y="-131" font-family="Helvetica,sans-Serif" font-size="10.00">/home/travis/build</text>
<text text-anchor="start" x="2078.5" y="-120" font-family="Helvetica,sans-Serif" font-size="10.00">/AliceO2Group/AliceO2</text>
<text text-anchor="start" x="2078.5" y="-109" font-family="Helvetica,sans-Serif" font-size="10.00">/Framework/Core/test/test</text>
<text text-anchor="middle" x="2136" y="-98" font-family="Helvetica,sans-Serif" font-size="10.00">_SingleDataSource.cxx</text>
</a>
</g>
</g>
<!-- Node1&#45;&gt;Node17 -->
<g id="edge16" class="edge"><title>Node1&#45;&gt;Node17</title>
<path fill="none" stroke="midnightblue" d="M2611.76,-200.761C2514.7,-193.364 2348.93,-176.916 2210,-144 2207.22,-143.341 2204.39,-142.615 2201.55,-141.837"/>
<polygon fill="midnightblue" stroke="midnightblue" points="2611.57,-204.256 2621.81,-201.512 2612.1,-197.275 2611.57,-204.256"/>
</g>
<!-- Node18 -->
<g id="node18" class="node"><title>Node18</title>
<g id="a_node18"><a xlink:href="../../db/d49/test__Task_8cxx.html" target="_top" xlink:title="/home/travis/build\l/AliceO2Group/AliceO2\l/Framework/Core/test/test\l_Task.cxx">
<polygon fill="none" stroke="black" points="2219.5,-91 2219.5,-143 2350.5,-143 2350.5,-91 2219.5,-91"/>
<text text-anchor="start" x="2227.5" y="-131" font-family="Helvetica,sans-Serif" font-size="10.00">/home/travis/build</text>
<text text-anchor="start" x="2227.5" y="-120" font-family="Helvetica,sans-Serif" font-size="10.00">/AliceO2Group/AliceO2</text>
<text text-anchor="start" x="2227.5" y="-109" font-family="Helvetica,sans-Serif" font-size="10.00">/Framework/Core/test/test</text>
<text text-anchor="middle" x="2285" y="-98" font-family="Helvetica,sans-Serif" font-size="10.00">_Task.cxx</text>
</a>
</g>
</g>
<!-- Node1&#45;&gt;Node18 -->
<g id="edge17" class="edge"><title>Node1&#45;&gt;Node18</title>
<path fill="none" stroke="midnightblue" d="M2611.46,-194.374C2543.16,-183.886 2443.94,-166.636 2359,-144 2356.24,-143.264 2353.43,-142.473 2350.6,-141.642"/>
<polygon fill="midnightblue" stroke="midnightblue" points="2611.31,-197.892 2621.73,-195.936 2612.37,-190.972 2611.31,-197.892"/>
</g>
<!-- Node19 -->
<g id="node19" class="node"><title>Node19</title>
<g id="a_node19"><a xlink:href="../../d3/d09/o2ParallelWorkflow_8cxx.html" target="_top" xlink:title="/home/travis/build\l/AliceO2Group/AliceO2\l/Framework/TestWorkflows\l/src/o2ParallelWorkflow.cxx">
<polygon fill="none" stroke="black" points="2368.5,-91 2368.5,-143 2507.5,-143 2507.5,-91 2368.5,-91"/>
<text text-anchor="start" x="2376.5" y="-131" font-family="Helvetica,sans-Serif" font-size="10.00">/home/travis/build</text>
<text text-anchor="start" x="2376.5" y="-120" font-family="Helvetica,sans-Serif" font-size="10.00">/AliceO2Group/AliceO2</text>
<text text-anchor="start" x="2376.5" y="-109" font-family="Helvetica,sans-Serif" font-size="10.00">/Framework/TestWorkflows</text>
<text text-anchor="middle" x="2438" y="-98" font-family="Helvetica,sans-Serif" font-size="10.00">/src/o2ParallelWorkflow.cxx</text>
</a>
</g>
</g>
<!-- Node1&#45;&gt;Node19 -->
<g id="edge18" class="edge"><title>Node1&#45;&gt;Node19</title>
<path fill="none" stroke="midnightblue" d="M2611.86,-177.764C2578.22,-166.202 2539.72,-152.966 2507.51,-141.893"/>
<polygon fill="midnightblue" stroke="midnightblue" points="2611.07,-181.195 2621.67,-181.136 2613.35,-174.575 2611.07,-181.195"/>
</g>
<!-- Node20 -->
<g id="node20" class="node"><title>Node20</title>
<g id="a_node20"><a xlink:href="../../d8/d33/test__CompletionPolicies_8cxx.html" target="_top" xlink:title="/home/travis/build\l/AliceO2Group/AliceO2\l/Framework/TestWorkflows\l/src/test_CompletionPolicies.cxx">
<polygon fill="none" stroke="black" points="2525.5,-91 2525.5,-143 2686.5,-143 2686.5,-91 2525.5,-91"/>
<text text-anchor="start" x="2533.5" y="-131" font-family="Helvetica,sans-Serif" font-size="10.00">/home/travis/build</text>
<text text-anchor="start" x="2533.5" y="-120" font-family="Helvetica,sans-Serif" font-size="10.00">/AliceO2Group/AliceO2</text>
<text text-anchor="start" x="2533.5" y="-109" font-family="Helvetica,sans-Serif" font-size="10.00">/Framework/TestWorkflows</text>
<text text-anchor="middle" x="2606" y="-98" font-family="Helvetica,sans-Serif" font-size="10.00">/src/test_CompletionPolicies.cxx</text>
</a>
</g>
</g>
<!-- Node1&#45;&gt;Node20 -->
<g id="edge19" class="edge"><title>Node1&#45;&gt;Node20</title>
<path fill="none" stroke="midnightblue" d="M2661.43,-173.431C2651.41,-163.407 2640.53,-152.533 2631.09,-143.092"/>
<polygon fill="midnightblue" stroke="midnightblue" points="2659,-175.951 2668.55,-180.547 2663.95,-171.001 2659,-175.951"/>
</g>
<!-- Node21 -->
<g id="node21" class="node"><title>Node21</title>
<g id="a_node21"><a xlink:href="../../db/d78/test__MakeDPLObjects_8cxx.html" target="_top" xlink:title="/home/travis/build\l/AliceO2Group/AliceO2\l/Framework/TestWorkflows\l/test/test_MakeDPLObjects.cxx">
<polygon fill="none" stroke="black" points="2704.5,-91 2704.5,-143 2861.5,-143 2861.5,-91 2704.5,-91"/>
<text text-anchor="start" x="2712.5" y="-131" font-family="Helvetica,sans-Serif" font-size="10.00">/home/travis/build</text>
<text text-anchor="start" x="2712.5" y="-120" font-family="Helvetica,sans-Serif" font-size="10.00">/AliceO2Group/AliceO2</text>
<text text-anchor="start" x="2712.5" y="-109" font-family="Helvetica,sans-Serif" font-size="10.00">/Framework/TestWorkflows</text>
<text text-anchor="middle" x="2783" y="-98" font-family="Helvetica,sans-Serif" font-size="10.00">/test/test_MakeDPLObjects.cxx</text>
</a>
</g>
</g>
<!-- Node1&#45;&gt;Node21 -->
<g id="edge20" class="edge"><title>Node1&#45;&gt;Node21</title>
<path fill="none" stroke="midnightblue" d="M2726.94,-173.431C2737.08,-163.407 2748.08,-152.533 2757.62,-143.092"/>
<polygon fill="midnightblue" stroke="midnightblue" points="2724.39,-171.027 2719.74,-180.547 2729.31,-176.005 2724.39,-171.027"/>
</g>
<!-- Node22 -->
<g id="node22" class="node"><title>Node22</title>
<g id="a_node22"><a xlink:href="../../d5/dc8/MakeRootTreeWriterSpec_8h.html" target="_top" xlink:title="Configurable generator for RootTreeWriter processor spec. ">
<polygon fill="none" stroke="black" points="2880,-91 2880,-143 3044,-143 3044,-91 2880,-91"/>
<text text-anchor="start" x="2888" y="-131" font-family="Helvetica,sans-Serif" font-size="10.00">/home/travis/build</text>
<text text-anchor="start" x="2888" y="-120" font-family="Helvetica,sans-Serif" font-size="10.00">/AliceO2Group/AliceO2</text>
<text text-anchor="start" x="2888" y="-109" font-family="Helvetica,sans-Serif" font-size="10.00">/Framework/Utils/include</text>
<text text-anchor="middle" x="2962" y="-98" font-family="Helvetica,sans-Serif" font-size="10.00">/Utils/MakeRootTreeWriterSpec.h</text>
</a>
</g>
</g>
<!-- Node1&#45;&gt;Node22 -->
<g id="edge21" class="edge"><title>Node1&#45;&gt;Node22</title>
<path fill="none" stroke="midnightblue" d="M2775.85,-179.123C2810.73,-167.669 2851.2,-154.382 2885.48,-143.127"/>
<polygon fill="midnightblue" stroke="midnightblue" points="2774.58,-175.857 2766.17,-182.302 2776.76,-182.507 2774.58,-175.857"/>
</g>
<!-- Node24 -->
<g id="node24" class="node"><title>Node24</title>
<g id="a_node24"><a xlink:href="../../d1/d02/test__RootTreeWriterWorkflow_8cxx.html" target="_top" xlink:title="/home/travis/build\l/AliceO2Group/AliceO2\l/Framework/Utils/test\l/test_RootTreeWriterWorkflow.cxx">
<polygon fill="none" stroke="black" points="2988,-1 2988,-53 3156,-53 3156,-1 2988,-1"/>
<text text-anchor="start" x="2996" y="-41" font-family="Helvetica,sans-Serif" font-size="10.00">/home/travis/build</text>
<text text-anchor="start" x="2996" y="-30" font-family="Helvetica,sans-Serif" font-size="10.00">/AliceO2Group/AliceO2</text>
<text text-anchor="start" x="2996" y="-19" font-family="Helvetica,sans-Serif" font-size="10.00">/Framework/Utils/test</text>
<text text-anchor="middle" x="3072" y="-8" font-family="Helvetica,sans-Serif" font-size="10.00">/test_RootTreeWriterWorkflow.cxx</text>
</a>
</g>
</g>
<!-- Node1&#45;&gt;Node24 -->
<g id="edge25" class="edge"><title>Node1&#45;&gt;Node24</title>
<path fill="none" stroke="midnightblue" d="M2776.22,-202.594C2869.99,-196.918 3015.25,-182.083 3053,-144 3076.42,-120.377 3077.72,-79.809 3075.57,-53.4511"/>
<polygon fill="midnightblue" stroke="midnightblue" points="2775.96,-199.103 2766.18,-203.178 2776.37,-206.091 2775.96,-199.103"/>
</g>
<!-- Node25 -->
<g id="node25" class="node"><title>Node25</title>
<g id="a_node25"><a xlink:href="../../d6/d0d/test__RootTreeReader_8cxx.html" target="_top" xlink:title="/home/travis/build\l/AliceO2Group/AliceO2\l/Framework/Utils/test\l/test_RootTreeReader.cxx">
<polygon fill="none" stroke="black" points="3100,-91 3100,-143 3232,-143 3232,-91 3100,-91"/>
<text text-anchor="start" x="3108" y="-131" font-family="Helvetica,sans-Serif" font-size="10.00">/home/travis/build</text>
<text text-anchor="start" x="3108" y="-120" font-family="Helvetica,sans-Serif" font-size="10.00">/AliceO2Group/AliceO2</text>
<text text-anchor="start" x="3108" y="-109" font-family="Helvetica,sans-Serif" font-size="10.00">/Framework/Utils/test</text>
<text text-anchor="middle" x="3166" y="-98" font-family="Helvetica,sans-Serif" font-size="10.00">/test_RootTreeReader.cxx</text>
</a>
</g>
</g>
<!-- Node1&#45;&gt;Node25 -->
<g id="edge24" class="edge"><title>Node1&#45;&gt;Node25</title>
<path fill="none" stroke="midnightblue" d="M2776.19,-196.822C2856.02,-187.014 2980.31,-169.367 3086,-144 3090.54,-142.909 3095.2,-141.685 3099.88,-140.378"/>
<polygon fill="midnightblue" stroke="midnightblue" points="2775.7,-193.356 2766.2,-198.038 2776.55,-200.305 2775.7,-193.356"/>
</g>
<!-- Node26 -->
<g id="node26" class="node"><title>Node26</title>
<g id="a_node26"><a xlink:href="../../d3/d87/CollisionTimePrinter_8cxx.html" target="_top" xlink:title="/home/travis/build\l/AliceO2Group/AliceO2\l/Steer/DigitizerWorkflow\l/src/CollisionTimePrinter.cxx">
<polygon fill="none" stroke="black" points="3250.5,-91 3250.5,-143 3393.5,-143 3393.5,-91 3250.5,-91"/>
<text text-anchor="start" x="3258.5" y="-131" font-family="Helvetica,sans-Serif" font-size="10.00">/home/travis/build</text>
<text text-anchor="start" x="3258.5" y="-120" font-family="Helvetica,sans-Serif" font-size="10.00">/AliceO2Group/AliceO2</text>
<text text-anchor="start" x="3258.5" y="-109" font-family="Helvetica,sans-Serif" font-size="10.00">/Steer/DigitizerWorkflow</text>
<text text-anchor="middle" x="3322" y="-98" font-family="Helvetica,sans-Serif" font-size="10.00">/src/CollisionTimePrinter.cxx</text>
</a>
</g>
</g>
<!-- Node1&#45;&gt;Node26 -->
<g id="edge26" class="edge"><title>Node1&#45;&gt;Node26</title>
<path fill="none" stroke="midnightblue" d="M2776.57,-201.736C2884.39,-195.011 3078.52,-178.926 3241,-144 3244.03,-143.348 3247.11,-142.628 3250.21,-141.856"/>
<polygon fill="midnightblue" stroke="midnightblue" points="2776.18,-198.253 2766.41,-202.358 2776.61,-205.24 2776.18,-198.253"/>
</g>
<!-- Node27 -->
<g id="node27" class="node"><title>Node27</title>
<g id="a_node27"><a xlink:href="../../dd/dfe/FITDigitizerSpec_8cxx.html" target="_top" xlink:title="/home/travis/build\l/AliceO2Group/AliceO2\l/Steer/DigitizerWorkflow\l/src/FITDigitizerSpec.cxx">
<polygon fill="none" stroke="black" points="3412,-91 3412,-143 3540,-143 3540,-91 3412,-91"/>
<text text-anchor="start" x="3420" y="-131" font-family="Helvetica,sans-Serif" font-size="10.00">/home/travis/build</text>
<text text-anchor="start" x="3420" y="-120" font-family="Helvetica,sans-Serif" font-size="10.00">/AliceO2Group/AliceO2</text>
<text text-anchor="start" x="3420" y="-109" font-family="Helvetica,sans-Serif" font-size="10.00">/Steer/DigitizerWorkflow</text>
<text text-anchor="middle" x="3476" y="-98" font-family="Helvetica,sans-Serif" font-size="10.00">/src/FITDigitizerSpec.cxx</text>
</a>
</g>
</g>
<!-- Node1&#45;&gt;Node27 -->
<g id="edge27" class="edge"><title>Node1&#45;&gt;Node27</title>
<path fill="none" stroke="midnightblue" d="M2776.35,-205.441C2909.4,-203.059 3179.25,-192.086 3402,-144 3405.19,-143.31 3408.44,-142.522 3411.7,-141.658"/>
<polygon fill="midnightblue" stroke="midnightblue" points="2776.18,-201.944 2766.24,-205.611 2776.29,-208.943 2776.18,-201.944"/>
</g>
<!-- Node28 -->
<g id="node28" class="node"><title>Node28</title>
<g id="a_node28"><a xlink:href="../../d9/d87/FITDigitWriterSpec_8cxx.html" target="_top" xlink:title="/home/travis/build\l/AliceO2Group/AliceO2\l/Steer/DigitizerWorkflow\l/src/FITDigitWriterSpec.cxx">
<polygon fill="none" stroke="black" points="3558.5,-91 3558.5,-143 3697.5,-143 3697.5,-91 3558.5,-91"/>
<text text-anchor="start" x="3566.5" y="-131" font-family="Helvetica,sans-Serif" font-size="10.00">/home/travis/build</text>
<text text-anchor="start" x="3566.5" y="-120" font-family="Helvetica,sans-Serif" font-size="10.00">/AliceO2Group/AliceO2</text>
<text text-anchor="start" x="3566.5" y="-109" font-family="Helvetica,sans-Serif" font-size="10.00">/Steer/DigitizerWorkflow</text>
<text text-anchor="middle" x="3628" y="-98" font-family="Helvetica,sans-Serif" font-size="10.00">/src/FITDigitWriterSpec.cxx</text>
</a>
</g>
</g>
<!-- Node1&#45;&gt;Node28 -->
<g id="edge28" class="edge"><title>Node1&#45;&gt;Node28</title>
<path fill="none" stroke="midnightblue" d="M2776.29,-206.702C2929.76,-206.543 3269.44,-199.264 3549,-144 3552.12,-143.384 3555.28,-142.682 3558.46,-141.913"/>
<polygon fill="midnightblue" stroke="midnightblue" points="2776.01,-203.202 2766.01,-206.702 2776.01,-210.202 2776.01,-203.202"/>
</g>
<!-- Node29 -->
<g id="node29" class="node"><title>Node29</title>
<g id="a_node29"><a xlink:href="../../d9/d59/GRPUpdaterSpec_8cxx.html" target="_top" xlink:title="/home/travis/build\l/AliceO2Group/AliceO2\l/Steer/DigitizerWorkflow\l/src/GRPUpdaterSpec.cxx">
<polygon fill="none" stroke="black" points="3716,-91 3716,-143 3850,-143 3850,-91 3716,-91"/>
<text text-anchor="start" x="3724" y="-131" font-family="Helvetica,sans-Serif" font-size="10.00">/home/travis/build</text>
<text text-anchor="start" x="3724" y="-120" font-family="Helvetica,sans-Serif" font-size="10.00">/AliceO2Group/AliceO2</text>
<text text-anchor="start" x="3724" y="-109" font-family="Helvetica,sans-Serif" font-size="10.00">/Steer/DigitizerWorkflow</text>
<text text-anchor="middle" x="3783" y="-98" font-family="Helvetica,sans-Serif" font-size="10.00">/src/GRPUpdaterSpec.cxx</text>
</a>
</g>
</g>
<!-- Node1&#45;&gt;Node29 -->
<g id="edge29" class="edge"><title>Node1&#45;&gt;Node29</title>
<path fill="none" stroke="midnightblue" d="M2776.54,-203.753C2985,-197.628 3528.69,-178.728 3706,-144 3709.18,-143.376 3712.42,-142.655 3715.67,-141.858"/>
<polygon fill="midnightblue" stroke="midnightblue" points="2776.17,-200.262 2766.27,-204.052 2776.37,-207.259 2776.17,-200.262"/>
</g>
<!-- Node30 -->
<g id="node30" class="node"><title>Node30</title>
<g id="a_node30"><a xlink:href="../../d3/d43/ITSMFTDigitizerSpec_8cxx.html" target="_top" xlink:title="/home/travis/build\l/AliceO2Group/AliceO2\l/Steer/DigitizerWorkflow\l/src/ITSMFTDigitizerSpec.cxx">
<polygon fill="none" stroke="black" points="3868.5,-91 3868.5,-143 4017.5,-143 4017.5,-91 3868.5,-91"/>
<text text-anchor="start" x="3876.5" y="-131" font-family="Helvetica,sans-Serif" font-size="10.00">/home/travis/build</text>
<text text-anchor="start" x="3876.5" y="-120" font-family="Helvetica,sans-Serif" font-size="10.00">/AliceO2Group/AliceO2</text>
<text text-anchor="start" x="3876.5" y="-109" font-family="Helvetica,sans-Serif" font-size="10.00">/Steer/DigitizerWorkflow</text>
<text text-anchor="middle" x="3943" y="-98" font-family="Helvetica,sans-Serif" font-size="10.00">/src/ITSMFTDigitizerSpec.cxx</text>
</a>
</g>
</g>
<!-- Node1&#45;&gt;Node30 -->
<g id="edge30" class="edge"><title>Node1&#45;&gt;Node30</title>
<path fill="none" stroke="midnightblue" d="M2776.6,-204.253C3006.53,-198.969 3650.72,-181.184 3859,-144 3862.01,-143.463 3865.05,-142.852 3868.12,-142.181"/>
<polygon fill="midnightblue" stroke="midnightblue" points="2776.21,-200.761 2766.29,-204.488 2776.37,-207.759 2776.21,-200.761"/>
</g>
<!-- Node31 -->
<g id="node31" class="node"><title>Node31</title>
<g id="a_node31"><a xlink:href="../../df/d17/ITSMFTDigitWriterSpec_8cxx.html" target="_top" xlink:title="/home/travis/build\l/AliceO2Group/AliceO2\l/Steer/DigitizerWorkflow\l/src/ITSMFTDigitWriterSpec.cxx">
<polygon fill="none" stroke="black" points="4036,-91 4036,-143 4196,-143 4196,-91 4036,-91"/>
<text text-anchor="start" x="4044" y="-131" font-family="Helvetica,sans-Serif" font-size="10.00">/home/travis/build</text>
<text text-anchor="start" x="4044" y="-120" font-family="Helvetica,sans-Serif" font-size="10.00">/AliceO2Group/AliceO2</text>
<text text-anchor="start" x="4044" y="-109" font-family="Helvetica,sans-Serif" font-size="10.00">/Steer/DigitizerWorkflow</text>
<text text-anchor="middle" x="4116" y="-98" font-family="Helvetica,sans-Serif" font-size="10.00">/src/ITSMFTDigitWriterSpec.cxx</text>
</a>
</g>
</g>
<!-- Node1&#45;&gt;Node31 -->
<g id="edge31" class="edge"><title>Node1&#45;&gt;Node31</title>
<path fill="none" stroke="midnightblue" d="M2776.41,-204.694C3027.99,-200.309 3783.69,-184.068 4026,-144 4029.21,-143.469 4032.47,-142.863 4035.74,-142.196"/>
<polygon fill="midnightblue" stroke="midnightblue" points="2776.18,-201.198 2766.24,-204.87 2776.3,-208.197 2776.18,-201.198"/>
</g>
<!-- Node32 -->
<g id="node32" class="node"><title>Node32</title>
<g id="a_node32"><a xlink:href="../../d3/d13/SimReaderSpec_8cxx.html" target="_top" xlink:title="/home/travis/build\l/AliceO2Group/AliceO2\l/Steer/DigitizerWorkflow\l/src/SimReaderSpec.cxx">
<polygon fill="none" stroke="black" points="4214,-91 4214,-143 4340,-143 4340,-91 4214,-91"/>
<text text-anchor="start" x="4222" y="-131" font-family="Helvetica,sans-Serif" font-size="10.00">/home/travis/build</text>
<text text-anchor="start" x="4222" y="-120" font-family="Helvetica,sans-Serif" font-size="10.00">/AliceO2Group/AliceO2</text>
<text text-anchor="start" x="4222" y="-109" font-family="Helvetica,sans-Serif" font-size="10.00">/Steer/DigitizerWorkflow</text>
<text text-anchor="middle" x="4277" y="-98" font-family="Helvetica,sans-Serif" font-size="10.00">/src/SimReaderSpec.cxx</text>
</a>
</g>
</g>
<!-- Node1&#45;&gt;Node32 -->
<g id="edge32" class="edge"><title>Node1&#45;&gt;Node32</title>
<path fill="none" stroke="midnightblue" d="M2776.6,-205.92C3050.64,-205.139 3928.06,-198.345 4205,-144 4207.87,-143.437 4210.78,-142.779 4213.7,-142.046"/>
<polygon fill="midnightblue" stroke="midnightblue" points="2776.32,-202.421 2766.33,-205.948 2776.34,-209.421 2776.32,-202.421"/>
</g>
<!-- Node33 -->
<g id="node33" class="node"><title>Node33</title>
<g id="a_node33"><a xlink:href="../../da/df1/TOFClusterizerSpec_8cxx.html" target="_top" xlink:title="/home/travis/build\l/AliceO2Group/AliceO2\l/Steer/DigitizerWorkflow\l/src/TOFClusterizerSpec.cxx">
<polygon fill="none" stroke="black" points="4358,-91 4358,-143 4502,-143 4502,-91 4358,-91"/>
<text text-anchor="start" x="4366" y="-131" font-family="Helvetica,sans-Serif" font-size="10.00">/home/travis/build</text>
<text text-anchor="start" x="4366" y="-120" font-family="Helvetica,sans-Serif" font-size="10.00">/AliceO2Group/AliceO2</text>
<text text-anchor="start" x="4366" y="-109" font-family="Helvetica,sans-Serif" font-size="10.00">/Steer/DigitizerWorkflow</text>
<text text-anchor="middle" x="4430" y="-98" font-family="Helvetica,sans-Serif" font-size="10.00">/src/TOFClusterizerSpec.cxx</text>
</a>
</g>
</g>
<!-- Node1&#45;&gt;Node33 -->
<g id="edge33" class="edge"><title>Node1&#45;&gt;Node33</title>
<path fill="none" stroke="midnightblue" d="M2776.42,-205.882C3066.88,-205.002 4041.85,-197.998 4349,-144 4351.91,-143.489 4354.86,-142.898 4357.82,-142.245"/>
<polygon fill="midnightblue" stroke="midnightblue" points="2776.37,-202.382 2766.38,-205.91 2776.39,-209.382 2776.37,-202.382"/>
</g>
<!-- Node34 -->
<g id="node34" class="node"><title>Node34</title>
<g id="a_node34"><a xlink:href="../../d5/d8f/TOFClusterWriterSpec_8cxx.html" target="_top" xlink:title="/home/travis/build\l/AliceO2Group/AliceO2\l/Steer/DigitizerWorkflow\l/src/TOFClusterWriterSpec.cxx">
<polygon fill="none" stroke="black" points="4520.5,-91 4520.5,-143 4675.5,-143 4675.5,-91 4520.5,-91"/>
<text text-anchor="start" x="4528.5" y="-131" font-family="Helvetica,sans-Serif" font-size="10.00">/home/travis/build</text>
<text text-anchor="start" x="4528.5" y="-120" font-family="Helvetica,sans-Serif" font-size="10.00">/AliceO2Group/AliceO2</text>
<text text-anchor="start" x="4528.5" y="-109" font-family="Helvetica,sans-Serif" font-size="10.00">/Steer/DigitizerWorkflow</text>
<text text-anchor="middle" x="4598" y="-98" font-family="Helvetica,sans-Serif" font-size="10.00">/src/TOFClusterWriterSpec.cxx</text>
</a>
</g>
</g>
<!-- Node1&#45;&gt;Node34 -->
<g id="edge34" class="edge"><title>Node1&#45;&gt;Node34</title>
<path fill="none" stroke="midnightblue" d="M2776.51,-205.986C3085.01,-205.5 4170.28,-199.773 4511,-144 4514.11,-143.491 4517.27,-142.902 4520.44,-142.25"/>
<polygon fill="midnightblue" stroke="midnightblue" points="2776.3,-202.487 2766.3,-206.001 2776.31,-209.487 2776.3,-202.487"/>
</g>
<!-- Node35 -->
<g id="node35" class="node"><title>Node35</title>
<g id="a_node35"><a xlink:href="../../d6/d61/TOFDigitizerSpec_8cxx.html" target="_top" xlink:title="/home/travis/build\l/AliceO2Group/AliceO2\l/Steer/DigitizerWorkflow\l/src/TOFDigitizerSpec.cxx">
<polygon fill="none" stroke="black" points="4693.5,-91 4693.5,-143 4826.5,-143 4826.5,-91 4693.5,-91"/>
<text text-anchor="start" x="4701.5" y="-131" font-family="Helvetica,sans-Serif" font-size="10.00">/home/travis/build</text>
<text text-anchor="start" x="4701.5" y="-120" font-family="Helvetica,sans-Serif" font-size="10.00">/AliceO2Group/AliceO2</text>
<text text-anchor="start" x="4701.5" y="-109" font-family="Helvetica,sans-Serif" font-size="10.00">/Steer/DigitizerWorkflow</text>
<text text-anchor="middle" x="4760" y="-98" font-family="Helvetica,sans-Serif" font-size="10.00">/src/TOFDigitizerSpec.cxx</text>
</a>
</g>
</g>
<!-- Node1&#45;&gt;Node35 -->
<g id="edge35" class="edge"><title>Node1&#45;&gt;Node35</title>
<path fill="none" stroke="midnightblue" d="M2776.16,-204.885C3127.53,-199.921 4494.59,-178.542 4684,-144 4687.02,-143.45 4690.08,-142.802 4693.15,-142.077"/>
<polygon fill="midnightblue" stroke="midnightblue" points="2776.01,-201.387 2766.06,-205.027 2776.11,-208.386 2776.01,-201.387"/>
</g>
<!-- Node36 -->
<g id="node36" class="node"><title>Node36</title>
<g id="a_node36"><a xlink:href="../../d1/d80/TOFDigitWriterSpec_8cxx.html" target="_top" xlink:title="/home/travis/build\l/AliceO2Group/AliceO2\l/Steer/DigitizerWorkflow\l/src/TOFDigitWriterSpec.cxx">
<polygon fill="none" stroke="black" points="4844.5,-91 4844.5,-143 4987.5,-143 4987.5,-91 4844.5,-91"/>
<text text-anchor="start" x="4852.5" y="-131" font-family="Helvetica,sans-Serif" font-size="10.00">/home/travis/build</text>
<text text-anchor="start" x="4852.5" y="-120" font-family="Helvetica,sans-Serif" font-size="10.00">/AliceO2Group/AliceO2</text>
<text text-anchor="start" x="4852.5" y="-109" font-family="Helvetica,sans-Serif" font-size="10.00">/Steer/DigitizerWorkflow</text>
<text text-anchor="middle" x="4916" y="-98" font-family="Helvetica,sans-Serif" font-size="10.00">/src/TOFDigitWriterSpec.cxx</text>
</a>
</g>
</g>
<!-- Node1&#45;&gt;Node36 -->
<g id="edge36" class="edge"><title>Node1&#45;&gt;Node36</title>
<path fill="none" stroke="midnightblue" d="M2776.24,-204.987C3144.13,-200.27 4629.73,-179.189 4835,-144 4838.06,-143.476 4841.16,-142.863 4844.27,-142.179"/>
<polygon fill="midnightblue" stroke="midnightblue" points="2776.16,-201.488 2766.2,-205.115 2776.25,-208.487 2776.16,-201.488"/>
</g>
<!-- Node37 -->
<g id="node37" class="node"><title>Node37</title>
<g id="a_node37"><a xlink:href="../../d8/dd2/TPCDigitRootWriterSpec_8cxx.html" target="_top" xlink:title="/home/travis/build\l/AliceO2Group/AliceO2\l/Steer/DigitizerWorkflow\l/src/TPCDigitRootWriterSpec.cxx">
<polygon fill="none" stroke="black" points="5005.5,-91 5005.5,-143 5170.5,-143 5170.5,-91 5005.5,-91"/>
<text text-anchor="start" x="5013.5" y="-131" font-family="Helvetica,sans-Serif" font-size="10.00">/home/travis/build</text>
<text text-anchor="start" x="5013.5" y="-120" font-family="Helvetica,sans-Serif" font-size="10.00">/AliceO2Group/AliceO2</text>
<text text-anchor="start" x="5013.5" y="-109" font-family="Helvetica,sans-Serif" font-size="10.00">/Steer/DigitizerWorkflow</text>
<text text-anchor="middle" x="5088" y="-98" font-family="Helvetica,sans-Serif" font-size="10.00">/src/TPCDigitRootWriterSpec.cxx</text>
</a>
</g>
</g>
<!-- Node1&#45;&gt;Node37 -->
<g id="edge37" class="edge"><title>Node1&#45;&gt;Node37</title>
<path fill="none" stroke="midnightblue" d="M2776.3,-204.995C3161.09,-200.135 4773.48,-177.898 4996,-144 4999.12,-143.525 5002.28,-142.977 5005.46,-142.37"/>
<polygon fill="midnightblue" stroke="midnightblue" points="2776.04,-201.498 2766.08,-205.124 2776.13,-208.498 2776.04,-201.498"/>
</g>
<!-- Node38 -->
<g id="node38" class="node"><title>Node38</title>
<g id="a_node38"><a xlink:href="../../db/df6/TPCDriftTimeDigitizerSpec_8cxx.html" target="_top" xlink:title="/home/travis/build\l/AliceO2Group/AliceO2\l/Steer/DigitizerWorkflow\l/src/TPCDriftTimeDigitizerSpec.cxx">
<polygon fill="none" stroke="black" points="5189,-91 5189,-143 5363,-143 5363,-91 5189,-91"/>
<text text-anchor="start" x="5197" y="-131" font-family="Helvetica,sans-Serif" font-size="10.00">/home/travis/build</text>
<text text-anchor="start" x="5197" y="-120" font-family="Helvetica,sans-Serif" font-size="10.00">/AliceO2Group/AliceO2</text>
<text text-anchor="start" x="5197" y="-109" font-family="Helvetica,sans-Serif" font-size="10.00">/Steer/DigitizerWorkflow</text>
<text text-anchor="middle" x="5276" y="-98" font-family="Helvetica,sans-Serif" font-size="10.00">/src/TPCDriftTimeDigitizerSpec.cxx</text>
</a>
</g>
</g>
<!-- Node1&#45;&gt;Node38 -->
<g id="edge38" class="edge"><title>Node1&#45;&gt;Node38</title>
<path fill="none" stroke="midnightblue" d="M2776.16,-205.107C3179.16,-200.569 4937.22,-178.914 5179,-144 5182.28,-143.527 5185.6,-142.98 5188.95,-142.374"/>
<polygon fill="midnightblue" stroke="midnightblue" points="2776.01,-201.608 2766.05,-205.22 2776.08,-208.608 2776.01,-201.608"/>
</g>
<!-- Node5 -->
<g id="node5" class="node"><title>Node5</title>
<g id="a_node5"><a xlink:href="../../d7/d54/runDataProcessing_8cxx.html" target="_top" xlink:title="/home/travis/build\l/AliceO2Group/AliceO2\l/Framework/Core/src/runDataProcessing.cxx">
<polygon fill="none" stroke="black" points="176,-6.5 176,-47.5 390,-47.5 390,-6.5 176,-6.5"/>
<text text-anchor="start" x="184" y="-35.5" font-family="Helvetica,sans-Serif" font-size="10.00">/home/travis/build</text>
<text text-anchor="start" x="184" y="-24.5" font-family="Helvetica,sans-Serif" font-size="10.00">/AliceO2Group/AliceO2</text>
<text text-anchor="middle" x="283" y="-13.5" font-family="Helvetica,sans-Serif" font-size="10.00">/Framework/Core/src/runDataProcessing.cxx</text>
</a>
</g>
</g>
<!-- Node4&#45;&gt;Node5 -->
<g id="edge4" class="edge"><title>Node4&#45;&gt;Node5</title>
<path fill="none" stroke="midnightblue" d="M349.373,-84.1619C334.935,-71.9452 318.893,-58.371 306.197,-47.6283"/>
<polygon fill="midnightblue" stroke="midnightblue" points="347.303,-86.9951 357.198,-90.7827 351.825,-81.6514 347.303,-86.9951"/>
</g>
<!-- Node6 -->
<g id="node6" class="node"><title>Node6</title>
<g id="a_node6"><a xlink:href="../../d3/dac/TextControlService_8cxx.html" target="_top" xlink:title="/home/travis/build\l/AliceO2Group/AliceO2\l/Framework/Core/src/TextControl\lService.cxx">
<polygon fill="none" stroke="black" points="408.5,-1 408.5,-53 571.5,-53 571.5,-1 408.5,-1"/>
<text text-anchor="start" x="416.5" y="-41" font-family="Helvetica,sans-Serif" font-size="10.00">/home/travis/build</text>
<text text-anchor="start" x="416.5" y="-30" font-family="Helvetica,sans-Serif" font-size="10.00">/AliceO2Group/AliceO2</text>
<text text-anchor="start" x="416.5" y="-19" font-family="Helvetica,sans-Serif" font-size="10.00">/Framework/Core/src/TextControl</text>
<text text-anchor="middle" x="490" y="-8" font-family="Helvetica,sans-Serif" font-size="10.00">Service.cxx</text>
</a>
</g>
</g>
<!-- Node4&#45;&gt;Node6 -->
<g id="edge5" class="edge"><title>Node4&#45;&gt;Node6</title>
<path fill="none" stroke="midnightblue" d="M424.171,-84.2423C436.11,-74.0416 449.166,-62.8871 460.48,-53.221"/>
<polygon fill="midnightblue" stroke="midnightblue" points="421.845,-81.6259 416.516,-90.7827 426.392,-86.948 421.845,-81.6259"/>
</g>
<!-- Node23 -->
<g id="node23" class="node"><title>Node23</title>
<g id="a_node23"><a xlink:href="../../da/dcf/test__RootTreeWriter_8cxx.html" target="_top" xlink:title="/home/travis/build\l/AliceO2Group/AliceO2\l/Framework/Utils/test\l/test_RootTreeWriter.cxx">
<polygon fill="none" stroke="black" points="2842.5,-1 2842.5,-53 2969.5,-53 2969.5,-1 2842.5,-1"/>
<text text-anchor="start" x="2850.5" y="-41" font-family="Helvetica,sans-Serif" font-size="10.00">/home/travis/build</text>
<text text-anchor="start" x="2850.5" y="-30" font-family="Helvetica,sans-Serif" font-size="10.00">/AliceO2Group/AliceO2</text>
<text text-anchor="start" x="2850.5" y="-19" font-family="Helvetica,sans-Serif" font-size="10.00">/Framework/Utils/test</text>
<text text-anchor="middle" x="2906" y="-8" font-family="Helvetica,sans-Serif" font-size="10.00">/test_RootTreeWriter.cxx</text>
</a>
</g>
</g>
<!-- Node22&#45;&gt;Node23 -->
<g id="edge22" class="edge"><title>Node22&#45;&gt;Node23</title>
<path fill="none" stroke="midnightblue" d="M2940.34,-81.9652C2934.23,-72.3545 2927.68,-62.0742 2921.97,-53.0921"/>
<polygon fill="midnightblue" stroke="midnightblue" points="2937.48,-83.9892 2945.8,-90.5468 2943.39,-80.231 2937.48,-83.9892"/>
</g>
<!-- Node22&#45;&gt;Node24 -->
<g id="edge23" class="edge"><title>Node22&#45;&gt;Node24</title>
<path fill="none" stroke="midnightblue" d="M3001.33,-84.5335C3014.18,-74.2542 3028.28,-62.9791 3040.47,-53.221"/>
<polygon fill="midnightblue" stroke="midnightblue" points="2999.14,-81.8027 2993.52,-90.7827 3003.52,-87.2688 2999.14,-81.8027"/>
</g>
</g>
</svg>
