<?xml version="1.0" encoding="UTF-8" standalone="no"?>
<!DOCTYPE svg PUBLIC "-//W3C//DTD SVG 1.1//EN"
 "http://www.w3.org/Graphics/SVG/1.1/DTD/svg11.dtd">
<!-- Generated by graphviz version 2.36.0 (20140111.2315)
 -->
<!-- Title: /home/travis/build/AliceO2Group/AliceO2/Framework/Core/src/DataSamplingConditionNConsecutive.cxx Pages: 1 -->
<!--zoomable 322 -->
<svg id="main" version="1.1" xmlns="http://www.w3.org/2000/svg" xmlns:xlink="http://www.w3.org/1999/xlink" xml:space="preserve" onload="init(evt)">
<style type="text/css"><![CDATA[
.edge:hover path { stroke: red; }
.edge:hover polygon { stroke: red; fill: red; }
]]></style>
<script type="text/javascript"><![CDATA[
var edges = document.getElementsByTagName('g');
if (edges && edges.length) {
  for (var i=0;i<edges.length;i++) {
    if (edges[i].id.substr(0,4)=='edge') {
      edges[i].setAttribute('class','edge');
    }
  }
}
]]></script>
        <defs>
                <circle id="rim" cx="0" cy="0" r="7"/>
                <circle id="rim2" cx="0" cy="0" r="3.5"/>
                <g id="zoomPlus">
                        <use xlink:href="#rim" fill="#404040">
                                <set attributeName="fill" to="#808080" begin="zoomplus.mouseover" end="zoomplus.mouseout"/>
                        </use>
                        <path d="M-4,0h8M0,-4v8" fill="none" stroke="white" stroke-width="1.5" pointer-events="none"/>
                </g>
                <g id="zoomMin">
                        <use xlink:href="#rim" fill="#404040">
                                <set attributeName="fill" to="#808080" begin="zoomminus.mouseover" end="zoomminus.mouseout"/>
                        </use>
                        <path d="M-4,0h8" fill="none" stroke="white" stroke-width="1.5" pointer-events="none"/>
                </g>
                <g id="dirArrow">
                        <path fill="none" stroke="white" stroke-width="1.5" d="M0,-3.0v7 M-2.5,-0.5L0,-3.0L2.5,-0.5"/>
                </g>
               <g id="resetDef">
                       <use xlink:href="#rim2" fill="#404040">
                               <set attributeName="fill" to="#808080" begin="reset.mouseover" end="reset.mouseout"/>
                       </use>
               </g>
        </defs>

<script type="text/javascript">
var viewWidth = 1574;
var viewHeight = 322;
var sectionId = 'dynsection-0';
</script>
<script xlink:href="../../svgpan.js"/>
<svg id="graph" class="graph">
<g id="viewport">
<title>/home/travis/build/AliceO2Group/AliceO2/Framework/Core/src/DataSamplingConditionNConsecutive.cxx</title>
<!-- Node1 -->
<g id="node1" class="node"><title>Node1</title>
<polygon fill="#bfbfbf" stroke="black" points="208.5,-261 208.5,-313 381.5,-313 381.5,-261 208.5,-261"/>
<text text-anchor="start" x="216.5" y="-301" font-family="Helvetica,sans-Serif" font-size="10.00">/home/travis/build</text>
<text text-anchor="start" x="216.5" y="-290" font-family="Helvetica,sans-Serif" font-size="10.00">/AliceO2Group/AliceO2</text>
<text text-anchor="start" x="216.5" y="-279" font-family="Helvetica,sans-Serif" font-size="10.00">/Framework/Core/src/DataSampling</text>
<text text-anchor="middle" x="295" y="-268" font-family="Helvetica,sans-Serif" font-size="10.00">ConditionNConsecutive.cxx</text>
</g>
<!-- Node2 -->
<g id="node2" class="node"><title>Node2</title>
<g id="a_node2"><a xlink:href="../../dd/dcf/DataSamplingCondition_8h.html" target="_top" xlink:title="A standarised data sampling condition, to decide if given data sample should be passed forward...">
<polygon fill="none" stroke="black" points="91.5,-136.5 91.5,-155.5 270.5,-155.5 270.5,-136.5 91.5,-136.5"/>
<text text-anchor="middle" x="181" y="-143.5" font-family="Helvetica,sans-Serif" font-size="10.00">Framework/DataSamplingCondition.h</text>
</a>
</g>
</g>
<!-- Node1&#45;&gt;Node2 -->
<g id="edge1" class="edge"><title>Node1&#45;&gt;Node2</title>
<path fill="none" stroke="midnightblue" d="M241.397,-260.768C226.037,-251.203 210.601,-238.936 200,-224 187.827,-206.849 183.416,-182.751 181.838,-166.103"/>
<polygon fill="midnightblue" stroke="midnightblue" points="185.318,-165.68 181.138,-155.944 178.334,-166.161 185.318,-165.68"/>
</g>
<!-- Node5 -->
<g id="node5" class="node"><title>Node5</title>
<g id="a_node5"><a xlink:href="../../de/dca/DataSamplingConditionFactory_8h.html" target="_top" xlink:title="A definition of DataSamplingConditionFactory. ">
<polygon fill="none" stroke="black" points="209.5,-193 209.5,-223 380.5,-223 380.5,-193 209.5,-193"/>
<text text-anchor="start" x="217.5" y="-211" font-family="Helvetica,sans-Serif" font-size="10.00">Framework/DataSamplingCondition</text>
<text text-anchor="middle" x="295" y="-200" font-family="Helvetica,sans-Serif" font-size="10.00">Factory.h</text>
</a>
</g>
</g>
<!-- Node1&#45;&gt;Node5 -->
<g id="edge4" class="edge"><title>Node1&#45;&gt;Node5</title>
<path fill="none" stroke="midnightblue" d="M295,-260.787C295,-252.029 295,-242.225 295,-233.523"/>
<polygon fill="midnightblue" stroke="midnightblue" points="298.5,-233.252 295,-223.252 291.5,-233.252 298.5,-233.252"/>
</g>
<!-- Node6 -->
<g id="node6" class="node"><title>Node6</title>
<g id="a_node6"><a xlink:href="../../d6/dc9/DataProcessingHeader_8h.html" target="_top" xlink:title="Framework/DataProcessing\lHeader.h">
<polygon fill="none" stroke="black" points="478,-193 478,-223 616,-223 616,-193 478,-193"/>
<text text-anchor="start" x="486" y="-211" font-family="Helvetica,sans-Serif" font-size="10.00">Framework/DataProcessing</text>
<text text-anchor="middle" x="547" y="-200" font-family="Helvetica,sans-Serif" font-size="10.00">Header.h</text>
</a>
</g>
</g>
<!-- Node1&#45;&gt;Node6 -->
<g id="edge6" class="edge"><title>Node1&#45;&gt;Node6</title>
<path fill="none" stroke="midnightblue" d="M377.166,-260.894C414.553,-249.47 457.823,-236.249 491.33,-226.01"/>
<polygon fill="midnightblue" stroke="midnightblue" points="492.412,-229.34 500.952,-223.07 490.366,-222.645 492.412,-229.34"/>
</g>
<!-- Node3 -->
<g id="node3" class="node"><title>Node3</title>
<g id="a_node3"><a xlink:href="../../d5/dfb/DataRef_8h.html" target="_top" xlink:title="Framework/DataRef.h">
<polygon fill="none" stroke="black" points="-0.5,-74.5 -0.5,-93.5 112.5,-93.5 112.5,-74.5 -0.5,-74.5"/>
<text text-anchor="middle" x="56" y="-81.5" font-family="Helvetica,sans-Serif" font-size="10.00">Framework/DataRef.h</text>
</a>
</g>
</g>
<!-- Node2&#45;&gt;Node3 -->
<g id="edge2" class="edge"><title>Node2&#45;&gt;Node3</title>
<path fill="none" stroke="midnightblue" d="M163.091,-136.403C142.113,-126.334 107.15,-109.552 82.9065,-97.9151"/>
<polygon fill="midnightblue" stroke="midnightblue" points="84.406,-94.7526 73.8762,-93.5806 81.3769,-101.063 84.406,-94.7526"/>
</g>
<!-- Node4 -->
<g id="node4" class="node"><title>Node4</title>
<polygon fill="none" stroke="#bfbfbf" points="130.5,-69 130.5,-99 231.5,-99 231.5,-69 130.5,-69"/>
<text text-anchor="start" x="138.5" y="-87" font-family="Helvetica,sans-Serif" font-size="10.00">boost/property_tree</text>
<text text-anchor="middle" x="181" y="-76" font-family="Helvetica,sans-Serif" font-size="10.00">/ptree.hpp</text>
</g>
<!-- Node2&#45;&gt;Node4 -->
<g id="edge3" class="edge"><title>Node2&#45;&gt;Node4</title>
<path fill="none" stroke="midnightblue" d="M181,-136.403C181,-129.341 181,-118.975 181,-109.399"/>
<polygon fill="midnightblue" stroke="midnightblue" points="184.5,-109.141 181,-99.1408 177.5,-109.141 184.5,-109.141"/>
</g>
<!-- Node5&#45;&gt;Node2 -->
<g id="edge5" class="edge"><title>Node5&#45;&gt;Node2</title>
<path fill="none" stroke="midnightblue" d="M268.272,-192.933C249.554,-183.081 224.701,-170 206.305,-160.318"/>
<polygon fill="midnightblue" stroke="midnightblue" points="207.819,-157.16 197.34,-155.6 204.559,-163.355 207.819,-157.16"/>
</g>
<!-- Node7 -->
<g id="node7" class="node"><title>Node7</title>
<g id="a_node7"><a xlink:href="../../dc/dcd/DataHeader_8h.html" target="_top" xlink:title="Headers/DataHeader.h">
<polygon fill="none" stroke="black" points="439.5,-136.5 439.5,-155.5 556.5,-155.5 556.5,-136.5 439.5,-136.5"/>
<text text-anchor="middle" x="498" y="-143.5" font-family="Helvetica,sans-Serif" font-size="10.00">Headers/DataHeader.h</text>
</a>
</g>
</g>
<!-- Node6&#45;&gt;Node7 -->
<g id="edge7" class="edge"><title>Node6&#45;&gt;Node7</title>
<path fill="none" stroke="midnightblue" d="M535.388,-192.781C528.267,-184.062 519.117,-172.857 511.651,-163.715"/>
<polygon fill="midnightblue" stroke="midnightblue" points="514.166,-161.262 505.13,-155.731 508.744,-165.69 514.166,-161.262"/>
</g>
<!-- Node8 -->
<g id="node8" class="node"><title>Node8</title>
<polygon fill="none" stroke="#bfbfbf" points="757,-74.5 757,-93.5 803,-93.5 803,-74.5 757,-74.5"/>
<text text-anchor="middle" x="780" y="-81.5" font-family="Helvetica,sans-Serif" font-size="10.00">cstdint</text>
</g>
<!-- Node6&#45;&gt;Node8 -->
<g id="edge28" class="edge"><title>Node6&#45;&gt;Node8</title>
<path fill="none" stroke="midnightblue" d="M574.184,-192.766C619.702,-168.933 710.683,-121.295 754.823,-98.1827"/>
<polygon fill="midnightblue" stroke="midnightblue" points="756.511,-101.25 763.747,-93.5103 753.264,-95.0483 756.511,-101.25"/>
</g>
<!-- Node9 -->
<g id="node9" class="node"><title>Node9</title>
<polygon fill="none" stroke="#bfbfbf" points="821,-74.5 821,-93.5 873,-93.5 873,-74.5 821,-74.5"/>
<text text-anchor="middle" x="847" y="-81.5" font-family="Helvetica,sans-Serif" font-size="10.00">memory</text>
</g>
<!-- Node6&#45;&gt;Node9 -->
<g id="edge30" class="edge"><title>Node6&#45;&gt;Node9</title>
<path fill="none" stroke="midnightblue" d="M583.799,-192.951C610.107,-182.84 646.315,-168.786 678,-156 737.857,-131.845 752.558,-125.158 812,-100 813.826,-99.227 815.705,-98.4292 817.6,-97.623"/>
<polygon fill="midnightblue" stroke="midnightblue" points="819.202,-100.744 827.024,-93.5981 816.453,-94.307 819.202,-100.744"/>
</g>
<!-- Node10 -->
<g id="node10" class="node"><title>Node10</title>
<polygon fill="none" stroke="#bfbfbf" points="249.5,-74.5 249.5,-93.5 298.5,-93.5 298.5,-74.5 249.5,-74.5"/>
<text text-anchor="middle" x="274" y="-81.5" font-family="Helvetica,sans-Serif" font-size="10.00">cassert</text>
</g>
<!-- Node6&#45;&gt;Node10 -->
<g id="edge31" class="edge"><title>Node6&#45;&gt;Node10</title>
<path fill="none" stroke="midnightblue" d="M514.157,-192.851C490.672,-182.693 458.337,-168.624 430,-156 385.116,-136.005 333.228,-112.264 302.047,-97.9289"/>
<polygon fill="midnightblue" stroke="midnightblue" points="303.234,-94.6222 292.686,-93.6218 300.308,-100.981 303.234,-94.6222"/>
</g>
<!-- Node26 -->
<g id="node26" class="node"><title>Node26</title>
<polygon fill="none" stroke="#bfbfbf" points="574.5,-136.5 574.5,-155.5 617.5,-155.5 617.5,-136.5 574.5,-136.5"/>
<text text-anchor="middle" x="596" y="-143.5" font-family="Helvetica,sans-Serif" font-size="10.00">cstdio</text>
</g>
<!-- Node6&#45;&gt;Node26 -->
<g id="edge29" class="edge"><title>Node6&#45;&gt;Node26</title>
<path fill="none" stroke="midnightblue" d="M558.612,-192.781C565.733,-184.062 574.883,-172.857 582.349,-163.715"/>
<polygon fill="midnightblue" stroke="midnightblue" points="585.256,-165.69 588.87,-155.731 579.834,-161.262 585.256,-165.69"/>
</g>
<!-- Node7&#45;&gt;Node8 -->
<g id="edge8" class="edge"><title>Node7&#45;&gt;Node8</title>
<path fill="none" stroke="midnightblue" d="M554.386,-136.473C616.407,-126.8 711.934,-110.951 747,-100 749.281,-99.2877 751.611,-98.4567 753.926,-97.5579"/>
<polygon fill="midnightblue" stroke="midnightblue" points="755.36,-100.751 763.188,-93.6119 752.616,-94.3115 755.36,-100.751"/>
</g>
<!-- Node7&#45;&gt;Node9 -->
<g id="edge9" class="edge"><title>Node7&#45;&gt;Node9</title>
<path fill="none" stroke="midnightblue" d="M556.719,-136.989C644.204,-124.995 799.855,-103.409 812,-100 814.653,-99.2553 817.371,-98.3554 820.061,-97.3705"/>
<polygon fill="midnightblue" stroke="midnightblue" points="821.555,-100.542 829.522,-93.5572 818.938,-94.0495 821.555,-100.542"/>
</g>
<!-- Node7&#45;&gt;Node10 -->
<g id="edge10" class="edge"><title>Node7&#45;&gt;Node10</title>
<path fill="none" stroke="midnightblue" d="M451.654,-136.493C412.769,-128.772 356.041,-116.135 308,-100 305.729,-99.2374 303.402,-98.3805 301.083,-97.4728"/>
<polygon fill="midnightblue" stroke="midnightblue" points="302.332,-94.2012 291.756,-93.5657 299.627,-100.658 302.332,-94.2012"/>
</g>
<!-- Node11 -->
<g id="node11" class="node"><title>Node11</title>
<polygon fill="none" stroke="#bfbfbf" points="317,-6.5 317,-25.5 363,-25.5 363,-6.5 317,-6.5"/>
<text text-anchor="middle" x="340" y="-13.5" font-family="Helvetica,sans-Serif" font-size="10.00">cstring</text>
</g>
<!-- Node7&#45;&gt;Node11 -->
<g id="edge11" class="edge"><title>Node7&#45;&gt;Node11</title>
<path fill="none" stroke="midnightblue" d="M495.795,-136.39C491.372,-120.739 479.997,-87.4497 459,-68 428.3,-39.5632 410.289,-48.885 372,-32 370.418,-31.3022 368.796,-30.5761 367.162,-29.8366"/>
<polygon fill="midnightblue" stroke="midnightblue" points="368.42,-26.5628 357.874,-25.5554 365.49,-32.92 368.42,-26.5628"/>
</g>
<!-- Node12 -->
<g id="node12" class="node"><title>Node12</title>
<polygon fill="none" stroke="#bfbfbf" points="317,-74.5 317,-93.5 373,-93.5 373,-74.5 317,-74.5"/>
<text text-anchor="middle" x="345" y="-81.5" font-family="Helvetica,sans-Serif" font-size="10.00">algorithm</text>
</g>
<!-- Node7&#45;&gt;Node12 -->
<g id="edge12" class="edge"><title>Node7&#45;&gt;Node12</title>
<path fill="none" stroke="midnightblue" d="M475.723,-136.473C452.341,-127.495 414.529,-112.902 382,-100 379.906,-99.1694 377.747,-98.308 375.574,-97.4369"/>
<polygon fill="midnightblue" stroke="midnightblue" points="376.693,-94.1143 366.11,-93.622 374.076,-100.607 376.693,-94.1143"/>
</g>
<!-- Node13 -->
<g id="node13" class="node"><title>Node13</title>
<polygon fill="none" stroke="#bfbfbf" points="391.5,-74.5 391.5,-93.5 450.5,-93.5 450.5,-74.5 391.5,-74.5"/>
<text text-anchor="middle" x="421" y="-81.5" font-family="Helvetica,sans-Serif" font-size="10.00">stdexcept</text>
</g>
<!-- Node7&#45;&gt;Node13 -->
<g id="edge13" class="edge"><title>Node7&#45;&gt;Node13</title>
<path fill="none" stroke="midnightblue" d="M486.968,-136.403C474.732,-126.869 454.771,-111.315 440.007,-99.8106"/>
<polygon fill="midnightblue" stroke="midnightblue" points="442.051,-96.9663 432.012,-93.5806 437.748,-102.488 442.051,-96.9663"/>
</g>
<!-- Node14 -->
<g id="node14" class="node"><title>Node14</title>
<polygon fill="none" stroke="#bfbfbf" points="381.5,-6.5 381.5,-25.5 422.5,-25.5 422.5,-6.5 381.5,-6.5"/>
<text text-anchor="middle" x="402" y="-13.5" font-family="Helvetica,sans-Serif" font-size="10.00">string</text>
</g>
<!-- Node7&#45;&gt;Node14 -->
<g id="edge14" class="edge"><title>Node7&#45;&gt;Node14</title>
<path fill="none" stroke="midnightblue" d="M499.972,-136.097C502.831,-120.845 506.429,-89.3057 493,-68 489.104,-61.8186 453.956,-43.163 428.507,-30.2173"/>
<polygon fill="midnightblue" stroke="midnightblue" points="429.818,-26.9582 419.314,-25.5732 426.661,-33.2062 429.818,-26.9582"/>
</g>
<!-- Node15 -->
<g id="node15" class="node"><title>Node15</title>
<g id="a_node15"><a xlink:href="../../dc/d03/MemoryResources_8h.html" target="_top" xlink:title="MemoryResources/MemoryResources.h">
<polygon fill="none" stroke="black" points="545.5,-74.5 545.5,-93.5 738.5,-93.5 738.5,-74.5 545.5,-74.5"/>
<text text-anchor="middle" x="642" y="-81.5" font-family="Helvetica,sans-Serif" font-size="10.00">MemoryResources/MemoryResources.h</text>
</a>
</g>
</g>
<!-- Node7&#45;&gt;Node15 -->
<g id="edge15" class="edge"><title>Node7&#45;&gt;Node15</title>
<path fill="none" stroke="midnightblue" d="M518.632,-136.403C543.119,-126.2 584.147,-109.105 612.109,-97.4544"/>
<polygon fill="midnightblue" stroke="midnightblue" points="613.522,-100.658 621.407,-93.5806 610.83,-94.196 613.522,-100.658"/>
</g>
<!-- Node15&#45;&gt;Node11 -->
<g id="edge20" class="edge"><title>Node15&#45;&gt;Node11</title>
<path fill="none" stroke="midnightblue" d="M570.288,-74.4645C515.162,-66.7103 437.593,-53.1932 372,-32 369.865,-31.3103 367.688,-30.5116 365.523,-29.6492"/>
<polygon fill="midnightblue" stroke="midnightblue" points="366.851,-26.41 356.287,-25.6001 364.041,-32.821 366.851,-26.41"/>
</g>
<!-- Node15&#45;&gt;Node14 -->
<g id="edge21" class="edge"><title>Node15&#45;&gt;Node14</title>
<path fill="none" stroke="midnightblue" d="M593.549,-74.4595C550.386,-66.0968 485.904,-51.7343 432,-32 430.346,-31.3944 428.664,-30.7225 426.983,-30.0084"/>
<polygon fill="midnightblue" stroke="midnightblue" points="428.128,-26.6801 417.585,-25.6251 425.169,-33.024 428.128,-26.6801"/>
</g>
<!-- Node16 -->
<g id="node16" class="node"><title>Node16</title>
<polygon fill="none" stroke="#bfbfbf" points="1007,-1 1007,-31 1107,-31 1107,-1 1007,-1"/>
<text text-anchor="start" x="1015" y="-19" font-family="Helvetica,sans-Serif" font-size="10.00">boost/container/flat</text>
<text text-anchor="middle" x="1057" y="-8" font-family="Helvetica,sans-Serif" font-size="10.00">_map.hpp</text>
</g>
<!-- Node15&#45;&gt;Node16 -->
<g id="edge16" class="edge"><title>Node15&#45;&gt;Node16</title>
<path fill="none" stroke="midnightblue" d="M701.921,-74.4712C801.232,-60.3247 989.811,-33.4111 997,-32 997.102,-31.98 997.204,-31.9599 997.306,-31.9397"/>
<polygon fill="midnightblue" stroke="midnightblue" points="997.927,-35.3858 1007,-29.9076 996.49,-28.5348 997.927,-35.3858"/>
</g>
<!-- Node17 -->
<g id="node17" class="node"><title>Node17</title>
<polygon fill="none" stroke="#bfbfbf" points="1125,-1 1125,-31 1241,-31 1241,-1 1125,-1"/>
<text text-anchor="start" x="1133" y="-19" font-family="Helvetica,sans-Serif" font-size="10.00">boost/container/pmr</text>
<text text-anchor="middle" x="1183" y="-8" font-family="Helvetica,sans-Serif" font-size="10.00">/memory_resource.hpp</text>
</g>
<!-- Node15&#45;&gt;Node17 -->
<g id="edge17" class="edge"><title>Node15&#45;&gt;Node17</title>
<path fill="none" stroke="midnightblue" d="M698.878,-74.4915C714.759,-72.241 732.037,-69.9094 748,-68 907.986,-48.8638 952.025,-57.6397 1115.09,-32.0196"/>
<polygon fill="midnightblue" stroke="midnightblue" points="1115.65,-35.4743 1124.98,-30.4471 1114.55,-28.5612 1115.65,-35.4743"/>
</g>
<!-- Node18 -->
<g id="node18" class="node"><title>Node18</title>
<polygon fill="none" stroke="#bfbfbf" points="1259,-1 1259,-31 1415,-31 1415,-1 1259,-1"/>
<text text-anchor="start" x="1267" y="-19" font-family="Helvetica,sans-Serif" font-size="10.00">boost/container/pmr</text>
<text text-anchor="middle" x="1337" y="-8" font-family="Helvetica,sans-Serif" font-size="10.00">/monotonic_buffer_resource.hpp</text>
</g>
<!-- Node15&#45;&gt;Node18 -->
<g id="edge18" class="edge"><title>Node15&#45;&gt;Node18</title>
<path fill="none" stroke="midnightblue" d="M696.927,-74.494C713.327,-72.1525 731.367,-69.7724 748,-68 966.732,-44.693 1025.66,-58.3724 1248.79,-31.9325"/>
<polygon fill="midnightblue" stroke="midnightblue" points="1249.34,-35.3919 1258.85,-30.7265 1248.5,-28.4416 1249.34,-35.3919"/>
</g>
<!-- Node19 -->
<g id="node19" class="node"><title>Node19</title>
<polygon fill="none" stroke="#bfbfbf" points="1433.5,-1 1433.5,-31 1566.5,-31 1566.5,-1 1433.5,-1"/>
<text text-anchor="start" x="1441.5" y="-19" font-family="Helvetica,sans-Serif" font-size="10.00">boost/container/pmr</text>
<text text-anchor="middle" x="1500" y="-8" font-family="Helvetica,sans-Serif" font-size="10.00">/polymorphic_allocator.hpp</text>
</g>
<!-- Node15&#45;&gt;Node19 -->
<g id="edge19" class="edge"><title>Node15&#45;&gt;Node19</title>
<path fill="none" stroke="midnightblue" d="M695.544,-74.4951C712.304,-72.0828 730.888,-69.6631 748,-68 1044.1,-39.2211 1123.66,-68.5488 1423.07,-31.9792"/>
<polygon fill="midnightblue" stroke="midnightblue" points="1423.86,-35.408 1433.36,-30.7075 1423,-28.4609 1423.86,-35.408"/>
</g>
<!-- Node20 -->
<g id="node20" class="node"><title>Node20</title>
<polygon fill="none" stroke="#bfbfbf" points="441,-6.5 441,-25.5 503,-25.5 503,-6.5 441,-6.5"/>
<text text-anchor="middle" x="472" y="-13.5" font-family="Helvetica,sans-Serif" font-size="10.00">type_traits</text>
</g>
<!-- Node15&#45;&gt;Node20 -->
<g id="edge22" class="edge"><title>Node15&#45;&gt;Node20</title>
<path fill="none" stroke="midnightblue" d="M619.775,-74.3717C590.04,-62.8274 537.148,-42.2926 503.365,-29.1772"/>
<polygon fill="midnightblue" stroke="midnightblue" points="504.549,-25.8824 493.961,-25.5259 502.016,-32.4078 504.549,-25.8824"/>
</g>
<!-- Node21 -->
<g id="node21" class="node"><title>Node21</title>
<polygon fill="none" stroke="#bfbfbf" points="521,-6.5 521,-25.5 561,-25.5 561,-6.5 521,-6.5"/>
<text text-anchor="middle" x="541" y="-13.5" font-family="Helvetica,sans-Serif" font-size="10.00">utility</text>
</g>
<!-- Node15&#45;&gt;Node21 -->
<g id="edge23" class="edge"><title>Node15&#45;&gt;Node21</title>
<path fill="none" stroke="midnightblue" d="M628.796,-74.3717C612.01,-63.4027 582.803,-44.317 562.717,-31.1912"/>
<polygon fill="midnightblue" stroke="midnightblue" points="564.493,-28.1709 554.207,-25.6305 560.664,-34.0307 564.493,-28.1709"/>
</g>
<!-- Node22 -->
<g id="node22" class="node"><title>Node22</title>
<polygon fill="none" stroke="#bfbfbf" points="579,-6.5 579,-25.5 623,-25.5 623,-6.5 579,-6.5"/>
<text text-anchor="middle" x="601" y="-13.5" font-family="Helvetica,sans-Serif" font-size="10.00">vector</text>
</g>
<!-- Node15&#45;&gt;Node22 -->
<g id="edge24" class="edge"><title>Node15&#45;&gt;Node22</title>
<path fill="none" stroke="midnightblue" d="M636.64,-74.3717C630.413,-64.3478 619.975,-47.5455 612,-34.7076"/>
<polygon fill="midnightblue" stroke="midnightblue" points="614.742,-32.4886 606.492,-25.8411 608.796,-36.1825 614.742,-32.4886"/>
</g>
<!-- Node23 -->
<g id="node23" class="node"><title>Node23</title>
<polygon fill="none" stroke="#bfbfbf" points="641.5,-6.5 641.5,-25.5 724.5,-25.5 724.5,-6.5 641.5,-6.5"/>
<text text-anchor="middle" x="683" y="-13.5" font-family="Helvetica,sans-Serif" font-size="10.00">unordered_map</text>
</g>
<!-- Node15&#45;&gt;Node23 -->
<g id="edge25" class="edge"><title>Node15&#45;&gt;Node23</title>
<path fill="none" stroke="midnightblue" d="M647.36,-74.3717C653.587,-64.3478 664.025,-47.5455 672,-34.7076"/>
<polygon fill="midnightblue" stroke="midnightblue" points="675.204,-36.1825 677.508,-25.8411 669.258,-32.4886 675.204,-36.1825"/>
</g>
<!-- Node24 -->
<g id="node24" class="node"><title>Node24</title>
<polygon fill="none" stroke="#bfbfbf" points="742.5,-6.5 742.5,-25.5 839.5,-25.5 839.5,-6.5 742.5,-6.5"/>
<text text-anchor="middle" x="791" y="-13.5" font-family="Helvetica,sans-Serif" font-size="10.00">FairMQMessage.h</text>
</g>
<!-- Node15&#45;&gt;Node24 -->
<g id="edge26" class="edge"><title>Node15&#45;&gt;Node24</title>
<path fill="none" stroke="midnightblue" d="M661.479,-74.3717C687.135,-63.0075 732.459,-42.9309 762.112,-29.7961"/>
<polygon fill="midnightblue" stroke="midnightblue" points="763.79,-32.8806 771.516,-25.6305 760.955,-26.4804 763.79,-32.8806"/>
</g>
<!-- Node25 -->
<g id="node25" class="node"><title>Node25</title>
<polygon fill="none" stroke="#bfbfbf" points="857.5,-6.5 857.5,-25.5 988.5,-25.5 988.5,-6.5 857.5,-6.5"/>
<text text-anchor="middle" x="923" y="-13.5" font-family="Helvetica,sans-Serif" font-size="10.00">FairMQTransportFactory.h</text>
</g>
<!-- Node15&#45;&gt;Node25 -->
<g id="edge27" class="edge"><title>Node15&#45;&gt;Node25</title>
<path fill="none" stroke="midnightblue" d="M678.448,-74.4393C729.195,-62.5201 821.143,-40.9237 876.687,-27.8777"/>
<polygon fill="midnightblue" stroke="midnightblue" points="877.682,-31.2394 886.617,-25.5455 876.081,-24.4248 877.682,-31.2394"/>
</g>
</g>
</svg>
        <g id="navigator" transform="translate(0 0)" fill="#404254">
                <rect fill="#f2f5e9" fill-opacity="0.5" stroke="#606060" stroke-width=".5" x="0" y="0" width="60" height="60"/>
                <use id="zoomplus" xlink:href="#zoomPlus" x="17" y="9" onmousedown="handleZoom(evt,'in')"/>
                <use id="zoomminus" xlink:href="#zoomMin" x="42" y="9" onmousedown="handleZoom(evt,'out')"/>
                <use id="reset" xlink:href="#resetDef" x="30" y="36" onmousedown="handleReset()"/>
                <g id="arrowUp" xlink:href="#dirArrow" transform="translate(30 24)" onmousedown="handlePan(0,-1)">
                  <use xlink:href="#rim" fill="#404040">
                        <set attributeName="fill" to="#808080" begin="arrowUp.mouseover" end="arrowUp.mouseout"/>
                  </use>
                  <path fill="none" stroke="white" stroke-width="1.5" d="M0,-3.0v7 M-2.5,-0.5L0,-3.0L2.5,-0.5"/>
                </g>
                <g id="arrowRight" xlink:href="#dirArrow" transform="rotate(90) translate(36 -43)" onmousedown="handlePan(1,0)">
                  <use xlink:href="#rim" fill="#404040">
                        <set attributeName="fill" to="#808080" begin="arrowRight.mouseover" end="arrowRight.mouseout"/>
                  </use>
                  <path fill="none" stroke="white" stroke-width="1.5" d="M0,-3.0v7 M-2.5,-0.5L0,-3.0L2.5,-0.5"/>
                </g>
                <g id="arrowDown" xlink:href="#dirArrow" transform="rotate(180) translate(-30 -48)" onmousedown="handlePan(0,1)">
                  <use xlink:href="#rim" fill="#404040">
                        <set attributeName="fill" to="#808080" begin="arrowDown.mouseover" end="arrowDown.mouseout"/>
                  </use>
                  <path fill="none" stroke="white" stroke-width="1.5" d="M0,-3.0v7 M-2.5,-0.5L0,-3.0L2.5,-0.5"/>
                </g>
                <g id="arrowLeft" xlink:href="#dirArrow" transform="rotate(270) translate(-36 17)" onmousedown="handlePan(-1,0)">
                  <use xlink:href="#rim" fill="#404040">
                        <set attributeName="fill" to="#808080" begin="arrowLeft.mouseover" end="arrowLeft.mouseout"/>
                  </use>
                  <path fill="none" stroke="white" stroke-width="1.5" d="M0,-3.0v7 M-2.5,-0.5L0,-3.0L2.5,-0.5"/>
                </g>
        </g>
        <svg viewBox="0 0 15 15" width="100%" height="30px" preserveAspectRatio="xMaxYMin meet">
         <g id="arrow_out" transform="scale(0.3 0.3)">
          <a xlink:href="DataSamplingConditionNConsecutive_8cxx__incl_org.svg" target="_base">
           <rect id="button" ry="5" rx="5" y="6" x="6" height="38" width="38"
                fill="#f2f5e9" fill-opacity="0.5" stroke="#606060" stroke-width="1.0"/>
           <path id="arrow"
             d="M 11.500037,31.436501 C 11.940474,20.09759 22.043105,11.32322 32.158766,21.979434 L 37.068811,17.246167 C 37.068811,17.246167 37.088388,32 37.088388,32 L 22.160133,31.978069 C 22.160133,31.978069 26.997745,27.140456 26.997745,27.140456 C 18.528582,18.264221 13.291696,25.230495 11.500037,31.436501 z"
             style="fill:#404040;"/>
          </a>
         </g>
        </svg>
</svg>
