<?xml version="1.0" encoding="UTF-8" standalone="no"?>
<!DOCTYPE svg PUBLIC "-//W3C//DTD SVG 1.1//EN"
 "http://www.w3.org/Graphics/SVG/1.1/DTD/svg11.dtd">
<!-- Generated by graphviz version 2.36.0 (20140111.2315)
 -->
<!-- Title: test::MetaHeader Pages: 1 -->
<svg width="1008pt" height="976pt"
 viewBox="0.00 0.00 1007.61 976.00" xmlns="http://www.w3.org/2000/svg" xmlns:xlink="http://www.w3.org/1999/xlink">
<g id="graph0" class="graph" transform="scale(1 1) rotate(0) translate(4 972)">
<title>test::MetaHeader</title>
<!-- Node1 -->
<g id="node1" class="node"><title>Node1</title>
<polygon fill="#bfbfbf" stroke="black" points="788.606,-0.5 788.606,-57.5 880.606,-57.5 880.606,-0.5 788.606,-0.5"/>
<text text-anchor="middle" x="834.606" y="-45.5" font-family="Helvetica,sans-Serif" font-size="10.00">test::MetaHeader</text>
<polyline fill="none" stroke="black" points="788.606,-38.5 880.606,-38.5 "/>
<text text-anchor="middle" x="834.606" y="-26.5" font-family="Helvetica,sans-Serif" font-size="10.00"> </text>
<polyline fill="none" stroke="black" points="788.606,-19.5 880.606,-19.5 "/>
<text text-anchor="start" x="796.606" y="-7.5" font-family="Helvetica,sans-Serif" font-size="10.00">+ MetaHeader()</text>
</g>
<!-- Node2 -->
<g id="node2" class="node"><title>Node2</title>
<g id="a_node2"><a xlink:href="../../d8/dbd/structo2_1_1header_1_1BaseHeader.html" target="_top" xlink:title="the base header struct Every header type must begin (i.e. derive) with this. Don&#39;t use this struct di...">
<polygon fill="none" stroke="black" points="632.606,-106.5 632.606,-251.5 754.606,-251.5 754.606,-106.5 632.606,-106.5"/>
<text text-anchor="middle" x="693.606" y="-239.5" font-family="Helvetica,sans-Serif" font-size="10.00">o2::header::BaseHeader</text>
<polyline fill="none" stroke="black" points="632.606,-232.5 754.606,-232.5 "/>
<text text-anchor="middle" x="693.606" y="-220.5" font-family="Helvetica,sans-Serif" font-size="10.00"> </text>
<polyline fill="none" stroke="black" points="632.606,-213.5 754.606,-213.5 "/>
<text text-anchor="start" x="640.606" y="-201.5" font-family="Helvetica,sans-Serif" font-size="10.00">+ BaseHeader()</text>
<text text-anchor="start" x="640.606" y="-190.5" font-family="Helvetica,sans-Serif" font-size="10.00">+ BaseHeader()</text>
<text text-anchor="start" x="640.606" y="-179.5" font-family="Helvetica,sans-Serif" font-size="10.00">+ BaseHeader()</text>
<text text-anchor="start" x="640.606" y="-168.5" font-family="Helvetica,sans-Serif" font-size="10.00">+ size()</text>
<text text-anchor="start" x="640.606" y="-157.5" font-family="Helvetica,sans-Serif" font-size="10.00">+ data()</text>
<text text-anchor="start" x="640.606" y="-146.5" font-family="Helvetica,sans-Serif" font-size="10.00">+ next()</text>
<text text-anchor="start" x="640.606" y="-135.5" font-family="Helvetica,sans-Serif" font-size="10.00">+ next()</text>
<text text-anchor="start" x="640.606" y="-124.5" font-family="Helvetica,sans-Serif" font-size="10.00">+ get()</text>
<text text-anchor="start" x="640.606" y="-113.5" font-family="Helvetica,sans-Serif" font-size="10.00">+ get()</text>
</a>
</g>
</g>
<!-- Node2&#45;&gt;Node1 -->
<g id="edge1" class="edge"><title>Node2&#45;&gt;Node1</title>
<path fill="none" stroke="midnightblue" d="M761.696,-106.53C778.232,-89.1724 794.946,-71.6294 808.191,-57.7264"/>
<polygon fill="none" stroke="midnightblue" points="758.994,-104.291 754.631,-113.946 764.063,-109.12 758.994,-104.291"/>
</g>
<!-- Node3 -->
<g id="node3" class="node"><title>Node3</title>
<g id="a_node3"><a xlink:href="../../d9/db3/structo2_1_1header_1_1Descriptor.html" target="_top" xlink:title="{o2::header::Descriptor\l\&lt; gSizeHeaderDescriptionString \&gt;\n||+ Descriptor()\l+ Descriptor()\l+ Descriptor()\l+ Descriptor()\l+ operator=()\l+ operator ItgType()\l+ runtimeInit()\l+ operator==()\l+ operator==()\l+ operator!=()\l+ operator!=()\l+ as()\l+ print()\l}">
<polygon fill="none" stroke="black" points="283.606,-377 283.606,-577 449.606,-577 449.606,-377 283.606,-377"/>
<text text-anchor="start" x="291.606" y="-565" font-family="Helvetica,sans-Serif" font-size="10.00">o2::header::Descriptor</text>
<text text-anchor="middle" x="366.606" y="-554" font-family="Helvetica,sans-Serif" font-size="10.00">&lt; gSizeHeaderDescriptionString &gt;</text>
<polyline fill="none" stroke="black" points="283.606,-547 449.606,-547 "/>
<text text-anchor="middle" x="366.606" y="-535" font-family="Helvetica,sans-Serif" font-size="10.00"> </text>
<polyline fill="none" stroke="black" points="283.606,-528 449.606,-528 "/>
<text text-anchor="start" x="291.606" y="-516" font-family="Helvetica,sans-Serif" font-size="10.00">+ Descriptor()</text>
<text text-anchor="start" x="291.606" y="-505" font-family="Helvetica,sans-Serif" font-size="10.00">+ Descriptor()</text>
<text text-anchor="start" x="291.606" y="-494" font-family="Helvetica,sans-Serif" font-size="10.00">+ Descriptor()</text>
<text text-anchor="start" x="291.606" y="-483" font-family="Helvetica,sans-Serif" font-size="10.00">+ Descriptor()</text>
<text text-anchor="start" x="291.606" y="-472" font-family="Helvetica,sans-Serif" font-size="10.00">+ operator=()</text>
<text text-anchor="start" x="291.606" y="-461" font-family="Helvetica,sans-Serif" font-size="10.00">+ operator ItgType()</text>
<text text-anchor="start" x="291.606" y="-450" font-family="Helvetica,sans-Serif" font-size="10.00">+ runtimeInit()</text>
<text text-anchor="start" x="291.606" y="-439" font-family="Helvetica,sans-Serif" font-size="10.00">+ operator==()</text>
<text text-anchor="start" x="291.606" y="-428" font-family="Helvetica,sans-Serif" font-size="10.00">+ operator==()</text>
<text text-anchor="start" x="291.606" y="-417" font-family="Helvetica,sans-Serif" font-size="10.00">+ operator!=()</text>
<text text-anchor="start" x="291.606" y="-406" font-family="Helvetica,sans-Serif" font-size="10.00">+ operator!=()</text>
<text text-anchor="start" x="291.606" y="-395" font-family="Helvetica,sans-Serif" font-size="10.00">+ as()</text>
<text text-anchor="start" x="291.606" y="-384" font-family="Helvetica,sans-Serif" font-size="10.00">+ print()</text>
</a>
</g>
</g>
<!-- Node3&#45;&gt;Node2 -->
<g id="edge2" class="edge"><title>Node3&#45;&gt;Node2</title>
<path fill="none" stroke="#404040" d="M415.7,-376.99C437.758,-339.882 466.544,-299.587 500.606,-270 535.386,-239.789 582.035,-217.665 620.758,-202.913"/>
<polygon fill="none" stroke="#404040" points="621.244,-202.733 625.484,-196.9 632.499,-198.571 628.259,-204.404 621.244,-202.733"/>
<text text-anchor="middle" x="529.106" y="-311.5" font-family="Helvetica,sans-Serif" font-size="10.00"> +description</text>
</g>
<!-- Node4 -->
<g id="node4" class="node"><title>Node4</title>
<polygon fill="none" stroke="#bfbfbf" points="275.606,-909.5 275.606,-966.5 313.606,-966.5 313.606,-909.5 275.606,-909.5"/>
<text text-anchor="middle" x="294.606" y="-954.5" font-family="Helvetica,sans-Serif" font-size="10.00">Type</text>
<polyline fill="none" stroke="#bfbfbf" points="275.606,-947.5 313.606,-947.5 "/>
<text text-anchor="middle" x="294.606" y="-935.5" font-family="Helvetica,sans-Serif" font-size="10.00"> </text>
<polyline fill="none" stroke="#bfbfbf" points="275.606,-928.5 313.606,-928.5 "/>
<text text-anchor="middle" x="294.606" y="-916.5" font-family="Helvetica,sans-Serif" font-size="10.00"> </text>
</g>
<!-- Node4&#45;&gt;Node3 -->
<g id="edge3" class="edge"><title>Node4&#45;&gt;Node3</title>
<path fill="none" stroke="#404040" d="M275.482,-932.862C237.865,-923.548 155.17,-896.978 123.606,-838 81.2438,-758.845 73.5353,-710.518 123.606,-636 143.077,-607.023 240.399,-597.123 269.606,-578 270.915,-577.143 272.22,-576.265 273.52,-575.369"/>
<polygon fill="none" stroke="#404040" points="273.698,-575.239 276.176,-568.467 283.381,-568.151 280.902,-574.922 273.698,-575.239"/>
<text text-anchor="middle" x="133.606" y="-734.5" font-family="Helvetica,sans-Serif" font-size="10.00"> +itg</text>
</g>
<!-- Node8 -->
<g id="node8" class="node"><title>Node8</title>
<g id="a_node8"><a xlink:href="../../d9/db3/structo2_1_1header_1_1Descriptor.html" target="_top" xlink:title="{o2::header::Descriptor\l\&lt; N, PrinterPolicy \&gt;\n||+ Descriptor()\l+ Descriptor()\l+ Descriptor()\l+ operator=()\l+ operator ItgType()\l+ Descriptor()\l+ runtimeInit()\l+ operator==()\l+ operator!=()\l+ operator==()\l+ operator!=()\l+ as()\l+ print()\l}">
<polygon fill="none" stroke="black" points="235.106,-637 235.106,-837 348.106,-837 348.106,-637 235.106,-637"/>
<text text-anchor="start" x="243.106" y="-825" font-family="Helvetica,sans-Serif" font-size="10.00">o2::header::Descriptor</text>
<text text-anchor="middle" x="291.606" y="-814" font-family="Helvetica,sans-Serif" font-size="10.00">&lt; N, PrinterPolicy &gt;</text>
<polyline fill="none" stroke="black" points="235.106,-807 348.106,-807 "/>
<text text-anchor="middle" x="291.606" y="-795" font-family="Helvetica,sans-Serif" font-size="10.00"> </text>
<polyline fill="none" stroke="black" points="235.106,-788 348.106,-788 "/>
<text text-anchor="start" x="243.106" y="-776" font-family="Helvetica,sans-Serif" font-size="10.00">+ Descriptor()</text>
<text text-anchor="start" x="243.106" y="-765" font-family="Helvetica,sans-Serif" font-size="10.00">+ Descriptor()</text>
<text text-anchor="start" x="243.106" y="-754" font-family="Helvetica,sans-Serif" font-size="10.00">+ Descriptor()</text>
<text text-anchor="start" x="243.106" y="-743" font-family="Helvetica,sans-Serif" font-size="10.00">+ operator=()</text>
<text text-anchor="start" x="243.106" y="-732" font-family="Helvetica,sans-Serif" font-size="10.00">+ operator ItgType()</text>
<text text-anchor="start" x="243.106" y="-721" font-family="Helvetica,sans-Serif" font-size="10.00">+ Descriptor()</text>
<text text-anchor="start" x="243.106" y="-710" font-family="Helvetica,sans-Serif" font-size="10.00">+ runtimeInit()</text>
<text text-anchor="start" x="243.106" y="-699" font-family="Helvetica,sans-Serif" font-size="10.00">+ operator==()</text>
<text text-anchor="start" x="243.106" y="-688" font-family="Helvetica,sans-Serif" font-size="10.00">+ operator!=()</text>
<text text-anchor="start" x="243.106" y="-677" font-family="Helvetica,sans-Serif" font-size="10.00">+ operator==()</text>
<text text-anchor="start" x="243.106" y="-666" font-family="Helvetica,sans-Serif" font-size="10.00">+ operator!=()</text>
<text text-anchor="start" x="243.106" y="-655" font-family="Helvetica,sans-Serif" font-size="10.00">+ as()</text>
<text text-anchor="start" x="243.106" y="-644" font-family="Helvetica,sans-Serif" font-size="10.00">+ print()</text>
</a>
</g>
</g>
<!-- Node4&#45;&gt;Node8 -->
<g id="edge8" class="edge"><title>Node4&#45;&gt;Node8</title>
<path fill="none" stroke="#404040" d="M294.189,-909.33C293.946,-893.216 293.622,-871.721 293.286,-849.415"/>
<polygon fill="none" stroke="#404040" points="293.285,-849.335 289.195,-843.396 293.104,-837.336 297.194,-843.275 293.285,-849.335"/>
<text text-anchor="middle" x="304.606" y="-870.5" font-family="Helvetica,sans-Serif" font-size="10.00"> +itg</text>
</g>
<!-- Node10 -->
<g id="node10" class="node"><title>Node10</title>
<g id="a_node10"><a xlink:href="../../d9/db3/structo2_1_1header_1_1Descriptor.html" target="_top" xlink:title="{o2::header::Descriptor\l\&lt; gSizeSerializationMethodString \&gt;\n||+ Descriptor()\l+ Descriptor()\l+ Descriptor()\l+ Descriptor()\l+ operator=()\l+ operator ItgType()\l+ runtimeInit()\l+ operator==()\l+ operator==()\l+ operator!=()\l+ operator!=()\l+ as()\l+ print()\l}">
<polygon fill="none" stroke="black" points="467.606,-377 467.606,-577 637.606,-577 637.606,-377 467.606,-377"/>
<text text-anchor="start" x="475.606" y="-565" font-family="Helvetica,sans-Serif" font-size="10.00">o2::header::Descriptor</text>
<text text-anchor="middle" x="552.606" y="-554" font-family="Helvetica,sans-Serif" font-size="10.00">&lt; gSizeSerializationMethodString &gt;</text>
<polyline fill="none" stroke="black" points="467.606,-547 637.606,-547 "/>
<text text-anchor="middle" x="552.606" y="-535" font-family="Helvetica,sans-Serif" font-size="10.00"> </text>
<polyline fill="none" stroke="black" points="467.606,-528 637.606,-528 "/>
<text text-anchor="start" x="475.606" y="-516" font-family="Helvetica,sans-Serif" font-size="10.00">+ Descriptor()</text>
<text text-anchor="start" x="475.606" y="-505" font-family="Helvetica,sans-Serif" font-size="10.00">+ Descriptor()</text>
<text text-anchor="start" x="475.606" y="-494" font-family="Helvetica,sans-Serif" font-size="10.00">+ Descriptor()</text>
<text text-anchor="start" x="475.606" y="-483" font-family="Helvetica,sans-Serif" font-size="10.00">+ Descriptor()</text>
<text text-anchor="start" x="475.606" y="-472" font-family="Helvetica,sans-Serif" font-size="10.00">+ operator=()</text>
<text text-anchor="start" x="475.606" y="-461" font-family="Helvetica,sans-Serif" font-size="10.00">+ operator ItgType()</text>
<text text-anchor="start" x="475.606" y="-450" font-family="Helvetica,sans-Serif" font-size="10.00">+ runtimeInit()</text>
<text text-anchor="start" x="475.606" y="-439" font-family="Helvetica,sans-Serif" font-size="10.00">+ operator==()</text>
<text text-anchor="start" x="475.606" y="-428" font-family="Helvetica,sans-Serif" font-size="10.00">+ operator==()</text>
<text text-anchor="start" x="475.606" y="-417" font-family="Helvetica,sans-Serif" font-size="10.00">+ operator!=()</text>
<text text-anchor="start" x="475.606" y="-406" font-family="Helvetica,sans-Serif" font-size="10.00">+ operator!=()</text>
<text text-anchor="start" x="475.606" y="-395" font-family="Helvetica,sans-Serif" font-size="10.00">+ as()</text>
<text text-anchor="start" x="475.606" y="-384" font-family="Helvetica,sans-Serif" font-size="10.00">+ print()</text>
</a>
</g>
</g>
<!-- Node4&#45;&gt;Node10 -->
<g id="edge17" class="edge"><title>Node4&#45;&gt;Node10</title>
<path fill="none" stroke="#404040" d="M313.659,-926.259C328.849,-917.343 350.359,-903.91 367.606,-890 367.706,-889.92 419.547,-838.113 419.606,-838 462.25,-757.211 393.828,-701.403 457.606,-636 484.263,-608.665 516.457,-646.728 541.606,-618 549.036,-609.513 554.139,-599.521 557.515,-588.845"/>
<polygon fill="none" stroke="#404040" points="557.562,-588.659 555.169,-581.856 560.528,-577.031 562.921,-583.833 557.562,-588.659"/>
<text text-anchor="middle" x="467.606" y="-734.5" font-family="Helvetica,sans-Serif" font-size="10.00"> +itg</text>
</g>
<!-- Node5 -->
<g id="node5" class="node"><title>Node5</title>
<polygon fill="none" stroke="#bfbfbf" points="434.106,-909.5 434.106,-966.5 469.106,-966.5 469.106,-909.5 434.106,-909.5"/>
<text text-anchor="middle" x="451.606" y="-954.5" font-family="Helvetica,sans-Serif" font-size="10.00">char</text>
<polyline fill="none" stroke="#bfbfbf" points="434.106,-947.5 469.106,-947.5 "/>
<text text-anchor="middle" x="451.606" y="-935.5" font-family="Helvetica,sans-Serif" font-size="10.00"> </text>
<polyline fill="none" stroke="#bfbfbf" points="434.106,-928.5 469.106,-928.5 "/>
<text text-anchor="middle" x="451.606" y="-916.5" font-family="Helvetica,sans-Serif" font-size="10.00"> </text>
</g>
<!-- Node5&#45;&gt;Node2 -->
<g id="edge14" class="edge"><title>Node5&#45;&gt;Node2</title>
<path fill="none" stroke="#404040" d="M469.127,-930.646C500.789,-918.188 567.247,-887.387 599.606,-838 630.591,-790.711 669.222,-430.23 685.635,-263.772"/>
<polygon fill="none" stroke="#404040" points="685.653,-263.591 682.258,-257.229 686.825,-251.648 690.22,-258.01 685.653,-263.591"/>
<text text-anchor="middle" x="678.106" y="-604.5" font-family="Helvetica,sans-Serif" font-size="10.00"> +magicString</text>
</g>
<!-- Node5&#45;&gt;Node3 -->
<g id="edge4" class="edge"><title>Node5&#45;&gt;Node3</title>
<path fill="none" stroke="#404040" d="M433.951,-912.374C421.321,-893.158 405.401,-865.239 398.606,-838 378.221,-756.277 370.416,-661.277 367.603,-589.393"/>
<polygon fill="none" stroke="#404040" points="367.594,-589.148 363.381,-583.296 367.163,-577.156 371.376,-583.008 367.594,-589.148"/>
<text text-anchor="middle" x="409.106" y="-734.5" font-family="Helvetica,sans-Serif" font-size="10.00"> +str</text>
</g>
<!-- Node5&#45;&gt;Node8 -->
<g id="edge9" class="edge"><title>Node5&#45;&gt;Node8</title>
<path fill="none" stroke="#404040" d="M433.801,-929.995C416.202,-922.343 389.4,-908.645 371.606,-890 359.646,-877.467 348.994,-862.795 339.672,-847.6"/>
<polygon fill="none" stroke="#404040" points="339.527,-847.354 333.034,-844.217 333.432,-837.017 339.925,-840.154 339.527,-847.354"/>
<text text-anchor="middle" x="382.106" y="-870.5" font-family="Helvetica,sans-Serif" font-size="10.00"> +str</text>
</g>
<!-- Node5&#45;&gt;Node10 -->
<g id="edge18" class="edge"><title>Node5&#45;&gt;Node10</title>
<path fill="none" stroke="#404040" d="M469.298,-915.76C474.78,-908.089 480.255,-899.075 483.606,-890 522.953,-783.461 440.003,-724.157 511.606,-636 527.822,-616.035 551.51,-638.824 566.606,-618 572.84,-609.4 576.553,-599.682 578.42,-589.475"/>
<polygon fill="none" stroke="#404040" points="578.448,-589.228 575.152,-582.814 579.805,-577.304 583.101,-583.718 578.448,-589.228"/>
<text text-anchor="middle" x="522.106" y="-734.5" font-family="Helvetica,sans-Serif" font-size="10.00"> +str</text>
</g>
<!-- Node6 -->
<g id="node6" class="node"><title>Node6</title>
<polygon fill="none" stroke="#bfbfbf" points="148.106,-909.5 148.106,-966.5 177.106,-966.5 177.106,-909.5 148.106,-909.5"/>
<text text-anchor="middle" x="162.606" y="-954.5" font-family="Helvetica,sans-Serif" font-size="10.00">int</text>
<polyline fill="none" stroke="#bfbfbf" points="148.106,-947.5 177.106,-947.5 "/>
<text text-anchor="middle" x="162.606" y="-935.5" font-family="Helvetica,sans-Serif" font-size="10.00"> </text>
<polyline fill="none" stroke="#bfbfbf" points="148.106,-928.5 177.106,-928.5 "/>
<text text-anchor="middle" x="162.606" y="-916.5" font-family="Helvetica,sans-Serif" font-size="10.00"> </text>
</g>
<!-- Node6&#45;&gt;Node3 -->
<g id="edge5" class="edge"><title>Node6&#45;&gt;Node3</title>
<path fill="none" stroke="#404040" d="M147.945,-931.002C119.745,-918.553 58.6177,-886.927 34.6062,-838 -4.94705,-757.405 -17.1102,-709.386 34.6062,-636 96.5766,-548.064 173.838,-627.005 269.606,-578 270.79,-577.394 271.969,-576.768 273.14,-576.123"/>
<polygon fill="none" stroke="#404040" points="273.245,-576.059 276.301,-569.527 283.505,-569.836 280.45,-576.367 273.245,-576.059"/>
<text text-anchor="middle" x="60.1062" y="-745.5" font-family="Helvetica,sans-Serif" font-size="10.00"> +arraySize</text>
<text text-anchor="middle" x="60.1062" y="-734.5" font-family="Helvetica,sans-Serif" font-size="10.00">+size</text>
<text text-anchor="middle" x="60.1062" y="-723.5" font-family="Helvetica,sans-Serif" font-size="10.00">+bitcount</text>
</g>
<!-- Node6&#45;&gt;Node8 -->
<g id="edge10" class="edge"><title>Node6&#45;&gt;Node8</title>
<path fill="none" stroke="#404040" d="M177.153,-914.559C189.826,-895.01 209.127,-865.235 228.29,-835.674"/>
<polygon fill="none" stroke="#404040" points="228.523,-835.314 228.43,-828.104 235.051,-825.245 235.143,-832.455 228.523,-835.314"/>
<text text-anchor="middle" x="238.106" y="-881.5" font-family="Helvetica,sans-Serif" font-size="10.00"> +arraySize</text>
<text text-anchor="middle" x="238.106" y="-870.5" font-family="Helvetica,sans-Serif" font-size="10.00">+size</text>
<text text-anchor="middle" x="238.106" y="-859.5" font-family="Helvetica,sans-Serif" font-size="10.00">+bitcount</text>
</g>
<!-- Node6&#45;&gt;Node10 -->
<g id="edge19" class="edge"><title>Node6&#45;&gt;Node10</title>
<path fill="none" stroke="#404040" d="M156.726,-909.495C146.383,-854.349 129.994,-727.706 174.606,-636 229.256,-523.66 335.688,-626.921 456.163,-578.288"/>
<polygon fill="none" stroke="#404040" points="456.513,-578.133 460.381,-572.047 467.487,-573.277 463.618,-579.363 456.513,-578.133"/>
<text text-anchor="middle" x="200.106" y="-745.5" font-family="Helvetica,sans-Serif" font-size="10.00"> +arraySize</text>
<text text-anchor="middle" x="200.106" y="-734.5" font-family="Helvetica,sans-Serif" font-size="10.00">+size</text>
<text text-anchor="middle" x="200.106" y="-723.5" font-family="Helvetica,sans-Serif" font-size="10.00">+bitcount</text>
</g>
<!-- Node7 -->
<g id="node7" class="node"><title>Node7</title>
<polygon fill="none" stroke="#bfbfbf" points="649.106,-909 649.106,-967 678.106,-967 678.106,-909 649.106,-909"/>
<polyline fill="none" stroke="#bfbfbf" points="649.106,-947 678.106,-947 "/>
<text text-anchor="middle" x="663.606" y="-935" font-family="Helvetica,sans-Serif" font-size="10.00"> </text>
<polyline fill="none" stroke="#bfbfbf" points="649.106,-928 678.106,-928 "/>
<text text-anchor="middle" x="663.606" y="-916" font-family="Helvetica,sans-Serif" font-size="10.00"> </text>
</g>
<!-- Node7&#45;&gt;Node2 -->
<g id="edge13" class="edge"><title>Node7&#45;&gt;Node2</title>
<path fill="none" stroke="#404040" d="M678.159,-912.794C688.955,-893.352 702.771,-864.94 708.606,-838 731.776,-731.036 711.871,-415.713 700.383,-263.75"/>
<polygon fill="none" stroke="#404040" points="700.382,-263.736 695.937,-258.058 699.469,-251.771 703.914,-257.449 700.382,-263.736"/>
<text text-anchor="middle" x="735.106" y="-604.5" font-family="Helvetica,sans-Serif" font-size="10.00"> +@16</text>
</g>
<!-- Node7&#45;&gt;Node2 -->
<g id="edge15" class="edge"><title>Node7&#45;&gt;Node2</title>
<path fill="none" stroke="#404040" d="M678.485,-925.709C689.053,-916.99 702.866,-904.067 711.606,-890 724.438,-869.347 723.376,-861.746 728.606,-838 782.918,-591.427 766.405,-517.918 718.606,-270 718.216,-267.975 717.802,-265.929 717.369,-263.869"/>
<polygon fill="none" stroke="#404040" points="717.326,-263.677 712.109,-258.699 714.697,-251.968 719.914,-256.946 717.326,-263.677"/>
<text text-anchor="middle" x="778.106" y="-604.5" font-family="Helvetica,sans-Serif" font-size="10.00"> +@18</text>
</g>
<!-- Node7&#45;&gt;Node3 -->
<g id="edge6" class="edge"><title>Node7&#45;&gt;Node3</title>
<path fill="none" stroke="#404040" d="M654.88,-908.941C631.554,-835.561 566.163,-640.559 516.606,-596 498.888,-580.068 485.028,-589.482 460.232,-577.839"/>
<polygon fill="none" stroke="#404040" points="460.221,-577.833 453.032,-578.399 449.744,-571.981 456.933,-571.415 460.221,-577.833"/>
<text text-anchor="middle" x="647.106" y="-734.5" font-family="Helvetica,sans-Serif" font-size="10.00"> +@14</text>
</g>
<!-- Node7&#45;&gt;Node8 -->
<g id="edge11" class="edge"><title>Node7&#45;&gt;Node8</title>
<path fill="none" stroke="#404040" d="M648.868,-932.743C591.75,-916.166 386.954,-855.961 362.606,-838 360.898,-836.74 359.215,-835.426 357.559,-834.065"/>
<polygon fill="none" stroke="#404040" points="357.283,-833.817 350.146,-832.781 348.358,-825.795 355.495,-826.831 357.283,-833.817"/>
<text text-anchor="middle" x="522.106" y="-870.5" font-family="Helvetica,sans-Serif" font-size="10.00"> +@14</text>
</g>
<!-- Node7&#45;&gt;Node10 -->
<g id="edge20" class="edge"><title>Node7&#45;&gt;Node10</title>
<path fill="none" stroke="#404040" d="M665.252,-908.747C669.78,-829.556 681.691,-610.27 675.606,-596 668.56,-579.476 657.94,-564.154 645.836,-550.393"/>
<polygon fill="none" stroke="#404040" points="645.835,-550.391 638.825,-548.699 637.691,-541.578 644.701,-543.27 645.835,-550.391"/>
<text text-anchor="middle" x="693.106" y="-734.5" font-family="Helvetica,sans-Serif" font-size="10.00"> +@14</text>
</g>
<!-- Node8&#45;&gt;Node1 -->
<g id="edge25" class="edge"><title>Node8&#45;&gt;Node1</title>
<path fill="none" stroke="#404040" d="M234.669,-640.507C233.015,-638.949 231.327,-637.444 229.606,-636 213.105,-622.154 202.662,-629.747 184.606,-618 163.267,-604.117 154.494,-601.012 143.606,-578 84.9475,-454.028 44.6486,-381.43 124.606,-270 203.356,-160.253 621.399,-70.6551 776.571,-40.7135"/>
<polygon fill="none" stroke="#404040" points="776.801,-40.6694 781.942,-35.6125 788.587,-38.4129 783.447,-43.4698 776.801,-40.6694"/>
<text text-anchor="middle" x="158.606" y="-311.5" font-family="Helvetica,sans-Serif" font-size="10.00"> +sHeaderType</text>
</g>
<!-- Node8&#45;&gt;Node2 -->
<g id="edge22" class="edge"><title>Node8&#45;&gt;Node2</title>
<path fill="none" stroke="#404040" d="M235.104,-643.51C233.278,-640.96 231.443,-638.452 229.606,-636 208.849,-608.292 189.979,-610.335 177.606,-578 145.522,-494.151 128.203,-450.962 177.606,-376 227.976,-299.572 490.513,-228.065 620.516,-196.694"/>
<polygon fill="none" stroke="#404040" points="620.623,-196.669 625.527,-191.382 632.293,-193.875 627.389,-199.162 620.623,-196.669"/>
<text text-anchor="middle" x="226.106" y="-480" font-family="Helvetica,sans-Serif" font-size="10.00"> +sHeaderType</text>
<text text-anchor="middle" x="226.106" y="-469" font-family="Helvetica,sans-Serif" font-size="10.00">+sSerializationMethod</text>
</g>
<!-- Node8&#45;&gt;Node3 -->
<g id="edge7" class="edge"><title>Node8&#45;&gt;Node3</title>
<path fill="none" stroke="orange" d="M231.199,-634.067C224.911,-617.827 222.455,-603.812 227.606,-596 238.786,-579.045 252.876,-589.513 269.606,-578 274.288,-574.778 278.928,-571.304 283.495,-567.653"/>
<polygon fill="orange" stroke="orange" points="227.971,-635.42 235.062,-643.292 234.428,-632.716 227.971,-635.42"/>
<text text-anchor="start" x="227.606" y="-610" font-family="Helvetica,sans-Serif" font-size="10.00"> &lt; gSizeHeaderDescription</text>
<text text-anchor="middle" x="286.606" y="-599" font-family="Helvetica,sans-Serif" font-size="10.00">String &gt;</text>
</g>
<!-- Node8&#45;&gt;Node10 -->
<g id="edge21" class="edge"><title>Node8&#45;&gt;Node10</title>
<path fill="none" stroke="orange" d="M354.909,-644.095C357.442,-641.31 360.01,-638.603 362.606,-636 384.203,-614.342 392.087,-611.239 418.606,-596 435.509,-586.287 442.735,-589.321 458.606,-578 461.613,-575.855 464.6,-573.604 467.559,-571.266"/>
<polygon fill="orange" stroke="orange" points="352.26,-641.807 348.291,-651.631 357.519,-646.426 352.26,-641.807"/>
<text text-anchor="start" x="418.606" y="-610" font-family="Helvetica,sans-Serif" font-size="10.00"> &lt; gSizeSerializationMethod</text>
<text text-anchor="middle" x="480.106" y="-599" font-family="Helvetica,sans-Serif" font-size="10.00">String &gt;</text>
</g>
<!-- Node9 -->
<g id="node9" class="node"><title>Node9</title>
<polygon fill="none" stroke="#bfbfbf" points="826.106,-448.5 826.106,-505.5 877.106,-505.5 877.106,-448.5 826.106,-448.5"/>
<text text-anchor="middle" x="851.606" y="-493.5" font-family="Helvetica,sans-Serif" font-size="10.00">uint32_t</text>
<polyline fill="none" stroke="#bfbfbf" points="826.106,-486.5 877.106,-486.5 "/>
<text text-anchor="middle" x="851.606" y="-474.5" font-family="Helvetica,sans-Serif" font-size="10.00"> </text>
<polyline fill="none" stroke="#bfbfbf" points="826.106,-467.5 877.106,-467.5 "/>
<text text-anchor="middle" x="851.606" y="-455.5" font-family="Helvetica,sans-Serif" font-size="10.00"> </text>
</g>
<!-- Node9&#45;&gt;Node1 -->
<g id="edge23" class="edge"><title>Node9&#45;&gt;Node1</title>
<path fill="none" stroke="#404040" d="M856.412,-448.45C860.315,-424.604 865.504,-389.146 867.606,-358 874.655,-253.561 854.787,-130.931 842.866,-69.4125"/>
<polygon fill="none" stroke="#404040" points="842.857,-69.3657 837.768,-64.2565 840.527,-57.594 845.616,-62.7031 842.857,-69.3657"/>
<text text-anchor="middle" x="891.606" y="-176.5" font-family="Helvetica,sans-Serif" font-size="10.00"> +sVersion</text>
</g>
<!-- Node9&#45;&gt;Node2 -->
<g id="edge12" class="edge"><title>Node9&#45;&gt;Node2</title>
<path fill="none" stroke="#404040" d="M834.098,-448.315C819.954,-424.97 800.367,-390.295 787.606,-358 772.751,-320.404 782.617,-306.191 764.606,-270 763.316,-267.407 761.942,-264.817 760.5,-262.24"/>
<polygon fill="none" stroke="#404040" points="760.374,-262.03 753.862,-258.934 754.215,-251.732 760.727,-254.828 760.374,-262.03"/>
<text text-anchor="middle" x="827.606" y="-350" font-family="Helvetica,sans-Serif" font-size="10.00"> +headerVersion</text>
<text text-anchor="middle" x="827.606" y="-339" font-family="Helvetica,sans-Serif" font-size="10.00">+headerSize</text>
<text text-anchor="middle" x="827.606" y="-328" font-family="Helvetica,sans-Serif" font-size="10.00">+sMagicString</text>
<text text-anchor="middle" x="827.606" y="-317" font-family="Helvetica,sans-Serif" font-size="10.00">+flagsNextHeader</text>
<text text-anchor="middle" x="827.606" y="-306" font-family="Helvetica,sans-Serif" font-size="10.00">+magicStringInt</text>
<text text-anchor="middle" x="827.606" y="-295" font-family="Helvetica,sans-Serif" font-size="10.00">+flagsUnused</text>
<text text-anchor="middle" x="827.606" y="-284" font-family="Helvetica,sans-Serif" font-size="10.00">+flags</text>
<text text-anchor="middle" x="827.606" y="-273" font-family="Helvetica,sans-Serif" font-size="10.00">+sVersion</text>
</g>
<!-- Node10&#45;&gt;Node2 -->
<g id="edge16" class="edge"><title>Node10&#45;&gt;Node2</title>
<path fill="none" stroke="#404040" d="M557.43,-376.785C562.542,-341.296 572.299,-302.158 590.606,-270 598.973,-255.304 610.655,-241.819 623.161,-230.009"/>
<polygon fill="none" stroke="#404040" points="623.459,-229.741 625.242,-222.754 632.377,-221.713 630.594,-228.7 623.459,-229.741"/>
<text text-anchor="middle" x="621.106" y="-311.5" font-family="Helvetica,sans-Serif" font-size="10.00"> +serialization</text>
</g>
<!-- Node11 -->
<g id="node11" class="node"><title>Node11</title>
<polygon fill="none" stroke="#bfbfbf" points="948.106,-150.5 948.106,-207.5 999.106,-207.5 999.106,-150.5 948.106,-150.5"/>
<text text-anchor="middle" x="973.606" y="-195.5" font-family="Helvetica,sans-Serif" font-size="10.00">uint64_t</text>
<polyline fill="none" stroke="#bfbfbf" points="948.106,-188.5 999.106,-188.5 "/>
<text text-anchor="middle" x="973.606" y="-176.5" font-family="Helvetica,sans-Serif" font-size="10.00"> </text>
<polyline fill="none" stroke="#bfbfbf" points="948.106,-169.5 999.106,-169.5 "/>
<text text-anchor="middle" x="973.606" y="-157.5" font-family="Helvetica,sans-Serif" font-size="10.00"> </text>
</g>
<!-- Node11&#45;&gt;Node1 -->
<g id="edge24" class="edge"><title>Node11&#45;&gt;Node1</title>
<path fill="none" stroke="#404040" d="M961.491,-150.393C954.523,-136.264 944.909,-119.289 933.606,-106 920.586,-90.6912 904.005,-76.4992 888.152,-64.6243"/>
<polygon fill="none" stroke="#404040" points="888.119,-64.5998 880.914,-64.3049 878.415,-57.5406 885.62,-57.8355 888.119,-64.5998"/>
<text text-anchor="middle" x="934.106" y="-79.5" font-family="Helvetica,sans-Serif" font-size="10.00"> +secret</text>
</g>
</g>
</svg>
