<?xml version="1.0" encoding="UTF-8" standalone="no"?>
<!DOCTYPE svg PUBLIC "-//W3C//DTD SVG 1.1//EN"
 "http://www.w3.org/Graphics/SVG/1.1/DTD/svg11.dtd">
<!-- Generated by graphviz version 2.36.0 (20140111.2315)
 -->
<!-- Title: o2::framework::DataSamplingConfig::FairMqInput Pages: 1 -->
<svg width="868pt" height="914pt"
 viewBox="0.00 0.00 868.42 914.00" xmlns="http://www.w3.org/2000/svg" xmlns:xlink="http://www.w3.org/1999/xlink">
<g id="graph0" class="graph" transform="scale(1 1) rotate(0) translate(4 910)">
<title>o2::framework::DataSamplingConfig::FairMqInput</title>
<!-- Node1 -->
<g id="node1" class="node"><title>Node1</title>
<polygon fill="#bfbfbf" stroke="black" points="630.422,-1 630.422,-69 776.422,-69 776.422,-1 630.422,-1"/>
<text text-anchor="start" x="638.422" y="-57" font-family="Helvetica,sans-Serif" font-size="10.00">o2::framework::DataSampling</text>
<text text-anchor="middle" x="703.422" y="-46" font-family="Helvetica,sans-Serif" font-size="10.00">Config::FairMqInput</text>
<polyline fill="none" stroke="black" points="630.422,-39 776.422,-39 "/>
<text text-anchor="middle" x="703.422" y="-27" font-family="Helvetica,sans-Serif" font-size="10.00"> </text>
<polyline fill="none" stroke="black" points="630.422,-20 776.422,-20 "/>
<text text-anchor="middle" x="703.422" y="-8" font-family="Helvetica,sans-Serif" font-size="10.00"> </text>
</g>
<!-- Node2 -->
<g id="node2" class="node"><title>Node2</title>
<g id="a_node2"><a xlink:href="../../d8/dc3/structo2_1_1framework_1_1OutputSpec.html" target="_top" xlink:title="{o2::framework::OutputSpec\n||+ OutputSpec()\l+ OutputSpec()\l+ OutputSpec()\l+ OutputSpec()\l+ operator==()\l}">
<polygon fill="none" stroke="black" points="506.922,-118.5 506.922,-219.5 643.922,-219.5 643.922,-118.5 506.922,-118.5"/>
<text text-anchor="middle" x="575.422" y="-207.5" font-family="Helvetica,sans-Serif" font-size="10.00">o2::framework::OutputSpec</text>
<polyline fill="none" stroke="black" points="506.922,-200.5 643.922,-200.5 "/>
<text text-anchor="middle" x="575.422" y="-188.5" font-family="Helvetica,sans-Serif" font-size="10.00"> </text>
<polyline fill="none" stroke="black" points="506.922,-181.5 643.922,-181.5 "/>
<text text-anchor="start" x="514.922" y="-169.5" font-family="Helvetica,sans-Serif" font-size="10.00">+ OutputSpec()</text>
<text text-anchor="start" x="514.922" y="-158.5" font-family="Helvetica,sans-Serif" font-size="10.00">+ OutputSpec()</text>
<text text-anchor="start" x="514.922" y="-147.5" font-family="Helvetica,sans-Serif" font-size="10.00">+ OutputSpec()</text>
<text text-anchor="start" x="514.922" y="-136.5" font-family="Helvetica,sans-Serif" font-size="10.00">+ OutputSpec()</text>
<text text-anchor="start" x="514.922" y="-125.5" font-family="Helvetica,sans-Serif" font-size="10.00">+ operator==()</text>
</a>
</g>
</g>
<!-- Node2&#45;&gt;Node1 -->
<g id="edge1" class="edge"><title>Node2&#45;&gt;Node1</title>
<path fill="none" stroke="#404040" d="M623.449,-118.473C636.36,-105.158 650.197,-90.8885 662.671,-78.025"/>
<polygon fill="none" stroke="#404040" points="662.707,-77.988 664.012,-70.896 671.06,-69.3731 669.755,-76.4651 662.707,-77.988"/>
<text text-anchor="middle" x="680.922" y="-91.5" font-family="Helvetica,sans-Serif" font-size="10.00"> +outputSpec</text>
</g>
<!-- Node3 -->
<g id="node3" class="node"><title>Node3</title>
<polygon fill="none" stroke="#bfbfbf" points="357.922,-345.5 357.922,-402.5 408.922,-402.5 408.922,-345.5 357.922,-345.5"/>
<text text-anchor="middle" x="383.422" y="-390.5" font-family="Helvetica,sans-Serif" font-size="10.00">uint64_t</text>
<polyline fill="none" stroke="#bfbfbf" points="357.922,-383.5 408.922,-383.5 "/>
<text text-anchor="middle" x="383.422" y="-371.5" font-family="Helvetica,sans-Serif" font-size="10.00"> </text>
<polyline fill="none" stroke="#bfbfbf" points="357.922,-364.5 408.922,-364.5 "/>
<text text-anchor="middle" x="383.422" y="-352.5" font-family="Helvetica,sans-Serif" font-size="10.00"> </text>
</g>
<!-- Node3&#45;&gt;Node2 -->
<g id="edge2" class="edge"><title>Node3&#45;&gt;Node2</title>
<path fill="none" stroke="#404040" d="M387.051,-345.084C391.189,-322.359 399.819,-290.477 417.422,-268 438.07,-241.635 467.931,-220.545 496.148,-204.783"/>
<polygon fill="none" stroke="#404040" points="496.298,-204.702 499.679,-198.333 506.859,-199.004 503.478,-205.373 496.298,-204.702"/>
<text text-anchor="middle" x="470.422" y="-241.5" font-family="Helvetica,sans-Serif" font-size="10.00"> +subSpec</text>
</g>
<!-- Node4 -->
<g id="node4" class="node"><title>Node4</title>
<g id="a_node4"><a xlink:href="../../d9/db3/structo2_1_1header_1_1Descriptor.html" target="_top" xlink:title="{o2::header::Descriptor\l\&lt; gSizeDataOriginString,\l printDataOrigin \&gt;\n||+ Descriptor()\l+ Descriptor()\l+ Descriptor()\l+ Descriptor()\l+ operator=()\l+ operator ItgType()\l+ runtimeInit()\l+ operator==()\l+ operator==()\l+ operator!=()\l+ operator!=()\l+ as()\l+ print()\l}">
<polygon fill="none" stroke="black" points="139.922,-268.5 139.922,-479.5 264.922,-479.5 264.922,-268.5 139.922,-268.5"/>
<text text-anchor="start" x="147.922" y="-467.5" font-family="Helvetica,sans-Serif" font-size="10.00">o2::header::Descriptor</text>
<text text-anchor="start" x="147.922" y="-456.5" font-family="Helvetica,sans-Serif" font-size="10.00">&lt; gSizeDataOriginString,</text>
<text text-anchor="middle" x="202.422" y="-445.5" font-family="Helvetica,sans-Serif" font-size="10.00"> printDataOrigin &gt;</text>
<polyline fill="none" stroke="black" points="139.922,-438.5 264.922,-438.5 "/>
<text text-anchor="middle" x="202.422" y="-426.5" font-family="Helvetica,sans-Serif" font-size="10.00"> </text>
<polyline fill="none" stroke="black" points="139.922,-419.5 264.922,-419.5 "/>
<text text-anchor="start" x="147.922" y="-407.5" font-family="Helvetica,sans-Serif" font-size="10.00">+ Descriptor()</text>
<text text-anchor="start" x="147.922" y="-396.5" font-family="Helvetica,sans-Serif" font-size="10.00">+ Descriptor()</text>
<text text-anchor="start" x="147.922" y="-385.5" font-family="Helvetica,sans-Serif" font-size="10.00">+ Descriptor()</text>
<text text-anchor="start" x="147.922" y="-374.5" font-family="Helvetica,sans-Serif" font-size="10.00">+ Descriptor()</text>
<text text-anchor="start" x="147.922" y="-363.5" font-family="Helvetica,sans-Serif" font-size="10.00">+ operator=()</text>
<text text-anchor="start" x="147.922" y="-352.5" font-family="Helvetica,sans-Serif" font-size="10.00">+ operator ItgType()</text>
<text text-anchor="start" x="147.922" y="-341.5" font-family="Helvetica,sans-Serif" font-size="10.00">+ runtimeInit()</text>
<text text-anchor="start" x="147.922" y="-330.5" font-family="Helvetica,sans-Serif" font-size="10.00">+ operator==()</text>
<text text-anchor="start" x="147.922" y="-319.5" font-family="Helvetica,sans-Serif" font-size="10.00">+ operator==()</text>
<text text-anchor="start" x="147.922" y="-308.5" font-family="Helvetica,sans-Serif" font-size="10.00">+ operator!=()</text>
<text text-anchor="start" x="147.922" y="-297.5" font-family="Helvetica,sans-Serif" font-size="10.00">+ operator!=()</text>
<text text-anchor="start" x="147.922" y="-286.5" font-family="Helvetica,sans-Serif" font-size="10.00">+ as()</text>
<text text-anchor="start" x="147.922" y="-275.5" font-family="Helvetica,sans-Serif" font-size="10.00">+ print()</text>
</a>
</g>
</g>
<!-- Node4&#45;&gt;Node2 -->
<g id="edge3" class="edge"><title>Node4&#45;&gt;Node2</title>
<path fill="none" stroke="#404040" d="M264.947,-326.484C290.526,-307.863 320.597,-286.487 348.422,-268 369.691,-253.869 374.509,-249.271 397.422,-238 428.482,-222.722 463.887,-208.573 494.898,-197.183"/>
<polygon fill="none" stroke="#404040" points="495.269,-197.048 499.545,-191.242 506.549,-192.956 502.273,-198.762 495.269,-197.048"/>
<text text-anchor="middle" x="413.922" y="-241.5" font-family="Helvetica,sans-Serif" font-size="10.00"> +origin</text>
</g>
<!-- Node5 -->
<g id="node5" class="node"><title>Node5</title>
<polygon fill="none" stroke="#bfbfbf" points="334.422,-847.5 334.422,-904.5 372.422,-904.5 372.422,-847.5 334.422,-847.5"/>
<text text-anchor="middle" x="353.422" y="-892.5" font-family="Helvetica,sans-Serif" font-size="10.00">Type</text>
<polyline fill="none" stroke="#bfbfbf" points="334.422,-885.5 372.422,-885.5 "/>
<text text-anchor="middle" x="353.422" y="-873.5" font-family="Helvetica,sans-Serif" font-size="10.00"> </text>
<polyline fill="none" stroke="#bfbfbf" points="334.422,-866.5 372.422,-866.5 "/>
<text text-anchor="middle" x="353.422" y="-854.5" font-family="Helvetica,sans-Serif" font-size="10.00"> </text>
</g>
<!-- Node5&#45;&gt;Node4 -->
<g id="edge4" class="edge"><title>Node5&#45;&gt;Node4</title>
<path fill="none" stroke="#404040" d="M352.59,-847.096C349.716,-782.613 336.954,-619.492 280.422,-498 277.484,-491.685 274.274,-485.304 270.887,-478.946"/>
<polygon fill="none" stroke="#404040" points="270.807,-478.801 264.414,-475.466 265.033,-468.282 271.427,-471.617 270.807,-478.801"/>
<text text-anchor="middle" x="357.422" y="-672.5" font-family="Helvetica,sans-Serif" font-size="10.00"> +itg</text>
</g>
<!-- Node9 -->
<g id="node9" class="node"><title>Node9</title>
<g id="a_node9"><a xlink:href="../../d9/db3/structo2_1_1header_1_1Descriptor.html" target="_top" xlink:title="{o2::header::Descriptor\l\&lt; N, PrinterPolicy \&gt;\n||+ Descriptor()\l+ Descriptor()\l+ Descriptor()\l+ operator=()\l+ operator ItgType()\l+ Descriptor()\l+ runtimeInit()\l+ operator==()\l+ operator!=()\l+ operator==()\l+ operator!=()\l+ as()\l+ print()\l}">
<polygon fill="none" stroke="black" points="182.922,-575 182.922,-775 295.922,-775 295.922,-575 182.922,-575"/>
<text text-anchor="start" x="190.922" y="-763" font-family="Helvetica,sans-Serif" font-size="10.00">o2::header::Descriptor</text>
<text text-anchor="middle" x="239.422" y="-752" font-family="Helvetica,sans-Serif" font-size="10.00">&lt; N, PrinterPolicy &gt;</text>
<polyline fill="none" stroke="black" points="182.922,-745 295.922,-745 "/>
<text text-anchor="middle" x="239.422" y="-733" font-family="Helvetica,sans-Serif" font-size="10.00"> </text>
<polyline fill="none" stroke="black" points="182.922,-726 295.922,-726 "/>
<text text-anchor="start" x="190.922" y="-714" font-family="Helvetica,sans-Serif" font-size="10.00">+ Descriptor()</text>
<text text-anchor="start" x="190.922" y="-703" font-family="Helvetica,sans-Serif" font-size="10.00">+ Descriptor()</text>
<text text-anchor="start" x="190.922" y="-692" font-family="Helvetica,sans-Serif" font-size="10.00">+ Descriptor()</text>
<text text-anchor="start" x="190.922" y="-681" font-family="Helvetica,sans-Serif" font-size="10.00">+ operator=()</text>
<text text-anchor="start" x="190.922" y="-670" font-family="Helvetica,sans-Serif" font-size="10.00">+ operator ItgType()</text>
<text text-anchor="start" x="190.922" y="-659" font-family="Helvetica,sans-Serif" font-size="10.00">+ Descriptor()</text>
<text text-anchor="start" x="190.922" y="-648" font-family="Helvetica,sans-Serif" font-size="10.00">+ runtimeInit()</text>
<text text-anchor="start" x="190.922" y="-637" font-family="Helvetica,sans-Serif" font-size="10.00">+ operator==()</text>
<text text-anchor="start" x="190.922" y="-626" font-family="Helvetica,sans-Serif" font-size="10.00">+ operator!=()</text>
<text text-anchor="start" x="190.922" y="-615" font-family="Helvetica,sans-Serif" font-size="10.00">+ operator==()</text>
<text text-anchor="start" x="190.922" y="-604" font-family="Helvetica,sans-Serif" font-size="10.00">+ operator!=()</text>
<text text-anchor="start" x="190.922" y="-593" font-family="Helvetica,sans-Serif" font-size="10.00">+ as()</text>
<text text-anchor="start" x="190.922" y="-582" font-family="Helvetica,sans-Serif" font-size="10.00">+ print()</text>
</a>
</g>
</g>
<!-- Node5&#45;&gt;Node9 -->
<g id="edge9" class="edge"><title>Node5&#45;&gt;Node9</title>
<path fill="none" stroke="#404040" d="M334.397,-850.085C329.324,-843.078 323.989,-835.359 319.422,-828 311.153,-814.673 302.905,-800.407 295.018,-786.149"/>
<polygon fill="none" stroke="#404040" points="294.822,-785.792 288.434,-782.448 289.063,-775.264 295.452,-778.608 294.822,-785.792"/>
<text text-anchor="middle" x="329.422" y="-808.5" font-family="Helvetica,sans-Serif" font-size="10.00"> +itg</text>
</g>
<!-- Node11 -->
<g id="node11" class="node"><title>Node11</title>
<g id="a_node11"><a xlink:href="../../d9/db3/structo2_1_1header_1_1Descriptor.html" target="_top" xlink:title="{o2::header::Descriptor\l\&lt; gSizeDataDescriptionString,\l printDataDescription \&gt;\n||+ Descriptor()\l+ Descriptor()\l+ Descriptor()\l+ Descriptor()\l+ operator=()\l+ operator ItgType()\l+ runtimeInit()\l+ operator==()\l+ operator==()\l+ operator!=()\l+ operator!=()\l+ as()\l+ print()\l}">
<polygon fill="none" stroke="black" points="426.922,-268.5 426.922,-479.5 575.922,-479.5 575.922,-268.5 426.922,-268.5"/>
<text text-anchor="start" x="434.922" y="-467.5" font-family="Helvetica,sans-Serif" font-size="10.00">o2::header::Descriptor</text>
<text text-anchor="start" x="434.922" y="-456.5" font-family="Helvetica,sans-Serif" font-size="10.00">&lt; gSizeDataDescriptionString,</text>
<text text-anchor="middle" x="501.422" y="-445.5" font-family="Helvetica,sans-Serif" font-size="10.00"> printDataDescription &gt;</text>
<polyline fill="none" stroke="black" points="426.922,-438.5 575.922,-438.5 "/>
<text text-anchor="middle" x="501.422" y="-426.5" font-family="Helvetica,sans-Serif" font-size="10.00"> </text>
<polyline fill="none" stroke="black" points="426.922,-419.5 575.922,-419.5 "/>
<text text-anchor="start" x="434.922" y="-407.5" font-family="Helvetica,sans-Serif" font-size="10.00">+ Descriptor()</text>
<text text-anchor="start" x="434.922" y="-396.5" font-family="Helvetica,sans-Serif" font-size="10.00">+ Descriptor()</text>
<text text-anchor="start" x="434.922" y="-385.5" font-family="Helvetica,sans-Serif" font-size="10.00">+ Descriptor()</text>
<text text-anchor="start" x="434.922" y="-374.5" font-family="Helvetica,sans-Serif" font-size="10.00">+ Descriptor()</text>
<text text-anchor="start" x="434.922" y="-363.5" font-family="Helvetica,sans-Serif" font-size="10.00">+ operator=()</text>
<text text-anchor="start" x="434.922" y="-352.5" font-family="Helvetica,sans-Serif" font-size="10.00">+ operator ItgType()</text>
<text text-anchor="start" x="434.922" y="-341.5" font-family="Helvetica,sans-Serif" font-size="10.00">+ runtimeInit()</text>
<text text-anchor="start" x="434.922" y="-330.5" font-family="Helvetica,sans-Serif" font-size="10.00">+ operator==()</text>
<text text-anchor="start" x="434.922" y="-319.5" font-family="Helvetica,sans-Serif" font-size="10.00">+ operator==()</text>
<text text-anchor="start" x="434.922" y="-308.5" font-family="Helvetica,sans-Serif" font-size="10.00">+ operator!=()</text>
<text text-anchor="start" x="434.922" y="-297.5" font-family="Helvetica,sans-Serif" font-size="10.00">+ operator!=()</text>
<text text-anchor="start" x="434.922" y="-286.5" font-family="Helvetica,sans-Serif" font-size="10.00">+ as()</text>
<text text-anchor="start" x="434.922" y="-275.5" font-family="Helvetica,sans-Serif" font-size="10.00">+ print()</text>
</a>
</g>
</g>
<!-- Node5&#45;&gt;Node11 -->
<g id="edge15" class="edge"><title>Node5&#45;&gt;Node11</title>
<path fill="none" stroke="#404040" d="M372.452,-871.964C412.479,-864.371 504.032,-840.329 532.422,-776 572.03,-686.252 558.829,-574.239 538.852,-491.429"/>
<polygon fill="none" stroke="#404040" points="538.827,-491.33 533.495,-486.475 535.927,-479.686 541.258,-484.542 538.827,-491.33"/>
<text text-anchor="middle" x="568.422" y="-672.5" font-family="Helvetica,sans-Serif" font-size="10.00"> +itg</text>
</g>
<!-- Node6 -->
<g id="node6" class="node"><title>Node6</title>
<polygon fill="none" stroke="#bfbfbf" points="117.922,-847.5 117.922,-904.5 152.922,-904.5 152.922,-847.5 117.922,-847.5"/>
<text text-anchor="middle" x="135.422" y="-892.5" font-family="Helvetica,sans-Serif" font-size="10.00">char</text>
<polyline fill="none" stroke="#bfbfbf" points="117.922,-885.5 152.922,-885.5 "/>
<text text-anchor="middle" x="135.422" y="-873.5" font-family="Helvetica,sans-Serif" font-size="10.00"> </text>
<polyline fill="none" stroke="#bfbfbf" points="117.922,-866.5 152.922,-866.5 "/>
<text text-anchor="middle" x="135.422" y="-854.5" font-family="Helvetica,sans-Serif" font-size="10.00"> </text>
</g>
<!-- Node6&#45;&gt;Node4 -->
<g id="edge5" class="edge"><title>Node6&#45;&gt;Node4</title>
<path fill="none" stroke="#404040" d="M117.777,-865.717C91.6347,-850.832 43.6386,-818.888 24.4223,-776 -12.2871,-694.07 -3.24056,-659.41 24.4223,-574 43.2111,-515.989 89.693,-465.05 130.445,-429.233"/>
<polygon fill="none" stroke="#404040" points="130.485,-429.199 132.422,-422.253 139.579,-421.37 137.642,-428.316 130.485,-429.199"/>
<text text-anchor="middle" x="34.9223" y="-672.5" font-family="Helvetica,sans-Serif" font-size="10.00"> +str</text>
</g>
<!-- Node6&#45;&gt;Node9 -->
<g id="edge10" class="edge"><title>Node6&#45;&gt;Node9</title>
<path fill="none" stroke="#404040" d="M149.883,-847.33C158.46,-830.919 169.953,-808.926 181.841,-786.18"/>
<polygon fill="none" stroke="#404040" points="181.95,-785.971 181.184,-778.801 187.508,-775.336 188.274,-782.506 181.95,-785.971"/>
<text text-anchor="middle" x="185.922" y="-808.5" font-family="Helvetica,sans-Serif" font-size="10.00"> +str</text>
</g>
<!-- Node6&#45;&gt;Node11 -->
<g id="edge16" class="edge"><title>Node6&#45;&gt;Node11</title>
<path fill="none" stroke="#404040" d="M132.674,-847.24C125.544,-768.462 110.25,-546.093 159.422,-498 198.183,-460.09 348.115,-501.435 415.577,-479.172"/>
<polygon fill="none" stroke="#404040" points="415.736,-479.105 419.711,-473.088 426.794,-474.443 422.819,-480.46 415.736,-479.105"/>
<text text-anchor="middle" x="141.922" y="-672.5" font-family="Helvetica,sans-Serif" font-size="10.00"> +str</text>
</g>
<!-- Node7 -->
<g id="node7" class="node"><title>Node7</title>
<polygon fill="none" stroke="#bfbfbf" points="605.922,-847.5 605.922,-904.5 634.922,-904.5 634.922,-847.5 605.922,-847.5"/>
<text text-anchor="middle" x="620.422" y="-892.5" font-family="Helvetica,sans-Serif" font-size="10.00">int</text>
<polyline fill="none" stroke="#bfbfbf" points="605.922,-885.5 634.922,-885.5 "/>
<text text-anchor="middle" x="620.422" y="-873.5" font-family="Helvetica,sans-Serif" font-size="10.00"> </text>
<polyline fill="none" stroke="#bfbfbf" points="605.922,-866.5 634.922,-866.5 "/>
<text text-anchor="middle" x="620.422" y="-854.5" font-family="Helvetica,sans-Serif" font-size="10.00"> </text>
</g>
<!-- Node7&#45;&gt;Node1 -->
<g id="edge22" class="edge"><title>Node7&#45;&gt;Node1</title>
<path fill="none" stroke="#404040" d="M634.946,-869.904C653.264,-862.875 684.849,-848.682 705.422,-828 759.705,-773.429 788.422,-752.971 788.422,-676 788.422,-676 788.422,-676 788.422,-168 788.422,-134.312 768.61,-102.385 748.116,-78.3713"/>
<polygon fill="none" stroke="#404040" points="747.956,-78.1918 740.976,-76.3805 739.963,-69.2408 746.943,-71.0522 747.956,-78.1918"/>
<text text-anchor="middle" x="824.422" y="-377" font-family="Helvetica,sans-Serif" font-size="10.00"> +converterType</text>
<text text-anchor="middle" x="824.422" y="-366" font-family="Helvetica,sans-Serif" font-size="10.00">+channelConfig</text>
</g>
<!-- Node7&#45;&gt;Node4 -->
<g id="edge6" class="edge"><title>Node7&#45;&gt;Node4</title>
<path fill="none" stroke="#404040" d="M605.731,-869.939C575.393,-858.609 506.253,-828.031 477.422,-776 462.435,-748.952 485.085,-521.006 464.422,-498 429.56,-459.185 396.703,-499.773 348.422,-480 322.625,-469.435 297.063,-453.467 274.709,-437.149"/>
<polygon fill="none" stroke="#404040" points="274.619,-437.082 267.418,-436.695 265.006,-429.899 272.207,-430.286 274.619,-437.082"/>
<text text-anchor="middle" x="502.922" y="-683.5" font-family="Helvetica,sans-Serif" font-size="10.00"> +arraySize</text>
<text text-anchor="middle" x="502.922" y="-672.5" font-family="Helvetica,sans-Serif" font-size="10.00">+size</text>
<text text-anchor="middle" x="502.922" y="-661.5" font-family="Helvetica,sans-Serif" font-size="10.00">+bitcount</text>
</g>
<!-- Node7&#45;&gt;Node9 -->
<g id="edge11" class="edge"><title>Node7&#45;&gt;Node9</title>
<path fill="none" stroke="#404040" d="M605.632,-873.212C559.506,-867.032 415.687,-843.142 320.422,-776 315.058,-772.219 309.858,-767.989 304.856,-763.463"/>
<polygon fill="none" stroke="#404040" points="304.728,-763.341 297.629,-762.071 296.072,-755.03 303.17,-756.3 304.728,-763.341"/>
<text text-anchor="middle" x="445.922" y="-819.5" font-family="Helvetica,sans-Serif" font-size="10.00"> +arraySize</text>
<text text-anchor="middle" x="445.922" y="-808.5" font-family="Helvetica,sans-Serif" font-size="10.00">+size</text>
<text text-anchor="middle" x="445.922" y="-797.5" font-family="Helvetica,sans-Serif" font-size="10.00">+bitcount</text>
</g>
<!-- Node7&#45;&gt;Node11 -->
<g id="edge17" class="edge"><title>Node7&#45;&gt;Node11</title>
<path fill="none" stroke="#404040" d="M619.005,-847.28C614.869,-771.55 601.618,-562.53 578.422,-498 577.557,-495.592 576.639,-493.182 575.674,-490.773"/>
<polygon fill="none" stroke="#404040" points="575.577,-490.548 569.532,-486.617 570.835,-479.525 576.881,-483.456 575.577,-490.548"/>
<text text-anchor="middle" x="640.922" y="-683.5" font-family="Helvetica,sans-Serif" font-size="10.00"> +arraySize</text>
<text text-anchor="middle" x="640.922" y="-672.5" font-family="Helvetica,sans-Serif" font-size="10.00">+size</text>
<text text-anchor="middle" x="640.922" y="-661.5" font-family="Helvetica,sans-Serif" font-size="10.00">+bitcount</text>
</g>
<!-- Node12 -->
<g id="node12" class="node"><title>Node12</title>
<g id="a_node12"><a xlink:href="../../de/d1b/structo2_1_1framework_1_1OutputLabel.html" target="_top" xlink:title="{o2::framework::OutputLabel\n||}">
<polygon fill="none" stroke="black" points="635.922,-498.5 635.922,-555.5 772.922,-555.5 772.922,-498.5 635.922,-498.5"/>
<text text-anchor="middle" x="704.422" y="-543.5" font-family="Helvetica,sans-Serif" font-size="10.00">o2::framework::OutputLabel</text>
<polyline fill="none" stroke="black" points="635.922,-536.5 772.922,-536.5 "/>
<text text-anchor="middle" x="704.422" y="-524.5" font-family="Helvetica,sans-Serif" font-size="10.00"> </text>
<polyline fill="none" stroke="black" points="635.922,-517.5 772.922,-517.5 "/>
<text text-anchor="middle" x="704.422" y="-505.5" font-family="Helvetica,sans-Serif" font-size="10.00"> </text>
</a>
</g>
</g>
<!-- Node7&#45;&gt;Node12 -->
<g id="edge21" class="edge"><title>Node7&#45;&gt;Node12</title>
<path fill="none" stroke="#404040" d="M634.985,-854.475C647.884,-835.181 666.075,-805.007 675.422,-776 698.295,-705.023 703.523,-617.451 704.492,-567.637"/>
<polygon fill="none" stroke="#404040" points="704.493,-567.521 700.575,-561.467 704.657,-555.522 708.574,-561.576 704.493,-567.521"/>
<text text-anchor="middle" x="684.922" y="-808.5" font-family="Helvetica,sans-Serif" font-size="10.00"> +value</text>
</g>
<!-- Node8 -->
<g id="node8" class="node"><title>Node8</title>
<polygon fill="none" stroke="#bfbfbf" points="224.922,-847 224.922,-905 253.922,-905 253.922,-847 224.922,-847"/>
<polyline fill="none" stroke="#bfbfbf" points="224.922,-885 253.922,-885 "/>
<text text-anchor="middle" x="239.422" y="-873" font-family="Helvetica,sans-Serif" font-size="10.00"> </text>
<polyline fill="none" stroke="#bfbfbf" points="224.922,-866 253.922,-866 "/>
<text text-anchor="middle" x="239.422" y="-854" font-family="Helvetica,sans-Serif" font-size="10.00"> </text>
</g>
<!-- Node8&#45;&gt;Node4 -->
<g id="edge7" class="edge"><title>Node8&#45;&gt;Node4</title>
<path fill="none" stroke="#404040" d="M229.582,-846.957C221.78,-828.948 209.057,-806.638 190.422,-794 150.149,-766.686 113.876,-813.13 82.4223,-776 7.23078,-687.239 72.9982,-552.687 132.838,-464.318"/>
<polygon fill="none" stroke="#404040" points="132.921,-464.199 133.026,-456.988 139.722,-454.312 139.617,-461.523 132.921,-464.199"/>
<text text-anchor="middle" x="97.9223" y="-672.5" font-family="Helvetica,sans-Serif" font-size="10.00"> +@14</text>
</g>
<!-- Node8&#45;&gt;Node9 -->
<g id="edge12" class="edge"><title>Node8&#45;&gt;Node9</title>
<path fill="none" stroke="#404040" d="M239.422,-846.91C239.422,-830.91 239.422,-809.702 239.422,-787.687"/>
<polygon fill="none" stroke="#404040" points="239.422,-787.401 235.422,-781.401 239.422,-775.401 243.422,-781.401 239.422,-787.401"/>
<text text-anchor="middle" x="254.922" y="-808.5" font-family="Helvetica,sans-Serif" font-size="10.00"> +@14</text>
</g>
<!-- Node8&#45;&gt;Node11 -->
<g id="edge18" class="edge"><title>Node8&#45;&gt;Node11</title>
<path fill="none" stroke="#404040" d="M253.933,-853.909C269.665,-831.292 293.348,-798.06 299.422,-794 326.847,-775.673 347.963,-799.188 371.422,-776 437.434,-710.751 359.238,-640.075 424.422,-574 445.474,-552.66 470.494,-579.244 489.422,-556 504.155,-537.908 511.366,-515.129 514.174,-491.891"/>
<polygon fill="none" stroke="#404040" points="514.193,-491.672 510.741,-485.34 515.258,-479.719 518.71,-486.05 514.193,-491.672"/>
<text text-anchor="middle" x="439.922" y="-672.5" font-family="Helvetica,sans-Serif" font-size="10.00"> +@14</text>
</g>
<!-- Node9&#45;&gt;Node4 -->
<g id="edge8" class="edge"><title>Node9&#45;&gt;Node4</title>
<path fill="none" stroke="orange" d="M178.456,-583.225C174.422,-574.296 170.962,-565.147 168.422,-556 161.622,-531.508 162.324,-504.772 166.525,-479.548"/>
<polygon fill="orange" stroke="orange" points="175.388,-584.923 182.852,-592.442 181.706,-581.909 175.388,-584.923"/>
<text text-anchor="start" x="168.422" y="-530" font-family="Helvetica,sans-Serif" font-size="10.00"> &lt; gSizeDataOriginString,</text>
<text text-anchor="middle" x="224.422" y="-519" font-family="Helvetica,sans-Serif" font-size="10.00"> printDataOrigin &gt;</text>
</g>
<!-- Node9&#45;&gt;Node11 -->
<g id="edge19" class="edge"><title>Node9&#45;&gt;Node11</title>
<path fill="none" stroke="orange" d="M291.853,-566.162C308.51,-540.792 329.067,-515.949 353.422,-498 377.209,-480.471 392.79,-496.319 417.422,-480 420.633,-477.873 423.78,-475.583 426.856,-473.162"/>
<polygon fill="orange" stroke="orange" points="288.785,-564.464 286.354,-574.776 294.685,-568.231 288.785,-564.464"/>
<text text-anchor="start" x="353.422" y="-530" font-family="Helvetica,sans-Serif" font-size="10.00"> &lt; gSizeDataDescriptionString,</text>
<text text-anchor="middle" x="421.422" y="-519" font-family="Helvetica,sans-Serif" font-size="10.00"> printDataDescription &gt;</text>
</g>
<!-- Node10 -->
<g id="node10" class="node"><title>Node10</title>
<polygon fill="none" stroke="#bfbfbf" points="594.422,-345.5 594.422,-402.5 672.422,-402.5 672.422,-345.5 594.422,-345.5"/>
<text text-anchor="middle" x="633.422" y="-390.5" font-family="Helvetica,sans-Serif" font-size="10.00">enum Lifetime</text>
<polyline fill="none" stroke="#bfbfbf" points="594.422,-383.5 672.422,-383.5 "/>
<text text-anchor="middle" x="633.422" y="-371.5" font-family="Helvetica,sans-Serif" font-size="10.00"> </text>
<polyline fill="none" stroke="#bfbfbf" points="594.422,-364.5 672.422,-364.5 "/>
<text text-anchor="middle" x="633.422" y="-352.5" font-family="Helvetica,sans-Serif" font-size="10.00"> </text>
</g>
<!-- Node10&#45;&gt;Node2 -->
<g id="edge13" class="edge"><title>Node10&#45;&gt;Node2</title>
<path fill="none" stroke="#404040" d="M625.479,-345.199C617.165,-316.098 603.84,-269.461 593.028,-231.619"/>
<polygon fill="none" stroke="#404040" points="592.912,-231.213 587.417,-226.543 589.615,-219.675 595.11,-224.345 592.912,-231.213"/>
<text text-anchor="middle" x="618.922" y="-241.5" font-family="Helvetica,sans-Serif" font-size="10.00"> +lifetime</text>
</g>
<!-- Node11&#45;&gt;Node2 -->
<g id="edge14" class="edge"><title>Node11&#45;&gt;Node2</title>
<path fill="none" stroke="#404040" d="M524.564,-268.476C527.817,-258.047 531.433,-247.727 535.422,-238 536.436,-235.529 537.527,-233.04 538.678,-230.55"/>
<polygon fill="none" stroke="#404040" points="538.735,-230.435 537.809,-223.283 544.055,-219.678 544.98,-226.83 538.735,-230.435"/>
<text text-anchor="middle" x="563.922" y="-241.5" font-family="Helvetica,sans-Serif" font-size="10.00"> +description</text>
</g>
<!-- Node12&#45;&gt;Node2 -->
<g id="edge20" class="edge"><title>Node12&#45;&gt;Node2</title>
<path fill="none" stroke="#404040" d="M708.181,-498.299C713.551,-449.105 719.006,-344.481 681.422,-268 674.332,-253.571 664.139,-240.22 652.844,-228.312"/>
<polygon fill="none" stroke="#404040" points="652.51,-227.978 645.439,-226.565 644.024,-219.494 651.096,-220.907 652.51,-227.978"/>
<text text-anchor="middle" x="732.422" y="-371.5" font-family="Helvetica,sans-Serif" font-size="10.00"> +binding</text>
</g>
</g>
</svg>
