<?xml version="1.0" encoding="UTF-8" standalone="no"?>
<!DOCTYPE svg PUBLIC "-//W3C//DTD SVG 1.1//EN"
 "http://www.w3.org/Graphics/SVG/1.1/DTD/svg11.dtd">
<!-- Generated by graphviz version 2.36.0 (20140111.2315)
 -->
<!-- Title: /home/travis/build/AliceO2Group/AliceO2/Utilities/aliceHLTwrapper/src/runComponent.cxx Pages: 1 -->
<svg width="1258pt" height="410pt"
 viewBox="0.00 0.00 1258.00 410.00" xmlns="http://www.w3.org/2000/svg" xmlns:xlink="http://www.w3.org/1999/xlink">
<g id="graph0" class="graph" transform="scale(1 1) rotate(0) translate(4 406)">
<title>/home/travis/build/AliceO2Group/AliceO2/Utilities/aliceHLTwrapper/src/runComponent.cxx</title>
<!-- Node1 -->
<g id="node1" class="node"><title>Node1</title>
<polygon fill="#bfbfbf" stroke="black" points="790.5,-349 790.5,-401 919.5,-401 919.5,-349 790.5,-349"/>
<text text-anchor="start" x="798.5" y="-389" font-family="Helvetica,sans-Serif" font-size="10.00">/home/travis/build</text>
<text text-anchor="start" x="798.5" y="-378" font-family="Helvetica,sans-Serif" font-size="10.00">/AliceO2Group/AliceO2</text>
<text text-anchor="start" x="798.5" y="-367" font-family="Helvetica,sans-Serif" font-size="10.00">/Utilities/aliceHLTwrapper</text>
<text text-anchor="middle" x="855" y="-356" font-family="Helvetica,sans-Serif" font-size="10.00">/src/runComponent.cxx</text>
</g>
<!-- Node2 -->
<g id="node2" class="node"><title>Node2</title>
<g id="a_node2"><a xlink:href="../../d8/d1d/SystemInterface_8h.html" target="_top" xlink:title="aliceHLTwrapper/SystemInterface.h">
<polygon fill="none" stroke="black" points="653.5,-236.5 653.5,-255.5 826.5,-255.5 826.5,-236.5 653.5,-236.5"/>
<text text-anchor="middle" x="740" y="-243.5" font-family="Helvetica,sans-Serif" font-size="10.00">aliceHLTwrapper/SystemInterface.h</text>
</a>
</g>
</g>
<!-- Node1&#45;&gt;Node2 -->
<g id="edge1" class="edge"><title>Node1&#45;&gt;Node2</title>
<path fill="none" stroke="midnightblue" d="M832.28,-348.909C809.28,-323.51 774.39,-284.978 754.76,-263.3"/>
<polygon fill="midnightblue" stroke="midnightblue" points="757.119,-260.691 747.813,-255.628 751.93,-265.39 757.119,-260.691"/>
</g>
<!-- Node4 -->
<g id="node4" class="node"><title>Node4</title>
<g id="a_node4"><a xlink:href="../../d0/da1/Component_8h.html" target="_top" xlink:title="aliceHLTwrapper/Component.h">
<polygon fill="none" stroke="black" points="388,-292.5 388,-311.5 540,-311.5 540,-292.5 388,-292.5"/>
<text text-anchor="middle" x="464" y="-299.5" font-family="Helvetica,sans-Serif" font-size="10.00">aliceHLTwrapper/Component.h</text>
</a>
</g>
</g>
<!-- Node1&#45;&gt;Node4 -->
<g id="edge3" class="edge"><title>Node1&#45;&gt;Node4</title>
<path fill="none" stroke="midnightblue" d="M790.434,-362.276C715.389,-348.649 592.705,-326.371 521.034,-313.357"/>
<polygon fill="midnightblue" stroke="midnightblue" points="521.306,-309.849 510.842,-311.506 520.056,-316.736 521.306,-309.849"/>
</g>
<!-- Node7 -->
<g id="node7" class="node"><title>Node7</title>
<polygon fill="none" stroke="#bfbfbf" points="0,-6.5 0,-25.5 44,-25.5 44,-6.5 0,-6.5"/>
<text text-anchor="middle" x="22" y="-13.5" font-family="Helvetica,sans-Serif" font-size="10.00">vector</text>
</g>
<!-- Node1&#45;&gt;Node7 -->
<g id="edge43" class="edge"><title>Node1&#45;&gt;Node7</title>
<path fill="none" stroke="midnightblue" d="M790.328,-371.048C593.163,-361.197 13,-325.537 13,-247 13,-247 13,-247 13,-133 13,-98.6129 16.9799,-58.6631 19.6466,-35.7555"/>
<polygon fill="midnightblue" stroke="midnightblue" points="23.135,-36.0608 20.8601,-25.7131 16.1856,-35.2209 23.135,-36.0608"/>
</g>
<!-- Node11 -->
<g id="node11" class="node"><title>Node11</title>
<polygon fill="none" stroke="#bfbfbf" points="796,-68.5 796,-87.5 848,-87.5 848,-68.5 796,-68.5"/>
<text text-anchor="middle" x="822" y="-75.5" font-family="Helvetica,sans-Serif" font-size="10.00">memory</text>
</g>
<!-- Node1&#45;&gt;Node11 -->
<g id="edge44" class="edge"><title>Node1&#45;&gt;Node11</title>
<path fill="none" stroke="midnightblue" d="M855,-348.699C855,-323.068 855,-282.278 855,-247 855,-247 855,-247 855,-189 855,-155.245 840.568,-118.028 830.792,-96.6908"/>
<polygon fill="midnightblue" stroke="midnightblue" points="833.911,-95.0993 826.451,-87.5762 827.591,-98.1095 833.911,-95.0993"/>
</g>
<!-- Node13 -->
<g id="node13" class="node"><title>Node13</title>
<polygon fill="none" stroke="#bfbfbf" points="1204,-6.5 1204,-25.5 1250,-25.5 1250,-6.5 1204,-6.5"/>
<text text-anchor="middle" x="1227" y="-13.5" font-family="Helvetica,sans-Serif" font-size="10.00">cstring</text>
</g>
<!-- Node1&#45;&gt;Node13 -->
<g id="edge45" class="edge"><title>Node1&#45;&gt;Node13</title>
<path fill="none" stroke="midnightblue" d="M867.233,-348.878C878.341,-323.722 893,-283.593 893,-247 893,-247 893,-247 893,-133 893,8.10814 1062.71,-83.7083 1194,-32 1195.84,-31.2736 1197.73,-30.4988 1199.63,-29.6986"/>
<polygon fill="midnightblue" stroke="midnightblue" points="1201.24,-32.8156 1208.99,-25.5915 1198.42,-26.4059 1201.24,-32.8156"/>
</g>
<!-- Node31 -->
<g id="node31" class="node"><title>Node31</title>
<polygon fill="none" stroke="#bfbfbf" points="921,-292.5 921,-311.5 975,-311.5 975,-292.5 921,-292.5"/>
<text text-anchor="middle" x="948" y="-299.5" font-family="Helvetica,sans-Serif" font-size="10.00">iostream</text>
</g>
<!-- Node1&#45;&gt;Node31 -->
<g id="edge41" class="edge"><title>Node1&#45;&gt;Node31</title>
<path fill="none" stroke="midnightblue" d="M887.788,-348.968C901.29,-338.66 916.486,-327.059 928.234,-318.09"/>
<polygon fill="midnightblue" stroke="midnightblue" points="930.636,-320.66 936.461,-311.81 926.388,-315.096 930.636,-320.66"/>
</g>
<!-- Node32 -->
<g id="node32" class="node"><title>Node32</title>
<polygon fill="none" stroke="#bfbfbf" points="993,-292.5 993,-311.5 1043,-311.5 1043,-292.5 993,-292.5"/>
<text text-anchor="middle" x="1018" y="-299.5" font-family="Helvetica,sans-Serif" font-size="10.00">fstream</text>
</g>
<!-- Node1&#45;&gt;Node32 -->
<g id="edge42" class="edge"><title>Node1&#45;&gt;Node32</title>
<path fill="none" stroke="midnightblue" d="M912.468,-348.968C938.263,-337.732 967.585,-324.96 988.764,-315.735"/>
<polygon fill="midnightblue" stroke="midnightblue" points="990.397,-318.841 998.167,-311.639 987.601,-312.424 990.397,-318.841"/>
</g>
<!-- Node3 -->
<g id="node3" class="node"><title>Node3</title>
<g id="a_node3"><a xlink:href="../../d6/d34/AliHLTDataTypes_8h.html" target="_top" xlink:title="Data type declaration for the HLT module. ">
<polygon fill="none" stroke="black" points="554.5,-124.5 554.5,-143.5 657.5,-143.5 657.5,-124.5 554.5,-124.5"/>
<text text-anchor="middle" x="606" y="-131.5" font-family="Helvetica,sans-Serif" font-size="10.00">AliHLTDataTypes.h</text>
</a>
</g>
</g>
<!-- Node2&#45;&gt;Node3 -->
<g id="edge2" class="edge"><title>Node2&#45;&gt;Node3</title>
<path fill="none" stroke="midnightblue" d="M729.485,-236.368C706.784,-217.733 652.939,-173.532 624.436,-150.134"/>
<polygon fill="midnightblue" stroke="midnightblue" points="626.416,-147.231 616.466,-143.591 621.974,-152.642 626.416,-147.231"/>
</g>
<!-- Node4&#45;&gt;Node3 -->
<g id="edge4" class="edge"><title>Node4&#45;&gt;Node3</title>
<path fill="none" stroke="midnightblue" d="M540.163,-294.665C565.213,-288.525 590.571,-277.075 606,-256 628.151,-225.744 619.411,-178.853 612.09,-153.235"/>
<polygon fill="midnightblue" stroke="midnightblue" points="615.43,-152.19 609.133,-143.669 608.743,-154.257 615.43,-152.19"/>
</g>
<!-- Node5 -->
<g id="node5" class="node"><title>Node5</title>
<g id="a_node5"><a xlink:href="../../d2/dda/MessageFormat_8h.html" target="_top" xlink:title="MessageFormat.h">
<polygon fill="none" stroke="black" points="349.5,-236.5 349.5,-255.5 444.5,-255.5 444.5,-236.5 349.5,-236.5"/>
<text text-anchor="middle" x="397" y="-243.5" font-family="Helvetica,sans-Serif" font-size="10.00">MessageFormat.h</text>
</a>
</g>
</g>
<!-- Node4&#45;&gt;Node5 -->
<g id="edge5" class="edge"><title>Node4&#45;&gt;Node5</title>
<path fill="none" stroke="midnightblue" d="M453.235,-292.324C443.234,-284.263 428.113,-272.077 416.07,-262.369"/>
<polygon fill="midnightblue" stroke="midnightblue" points="417.943,-259.384 407.961,-255.834 413.55,-264.834 417.943,-259.384"/>
</g>
<!-- Node4&#45;&gt;Node7 -->
<g id="edge38" class="edge"><title>Node4&#45;&gt;Node7</title>
<path fill="none" stroke="midnightblue" d="M387.768,-296.264C268.434,-286.734 51,-259.914 51,-191 51,-191 51,-191 51,-133 51,-97.4994 38.0583,-57.6631 29.4659,-35.1265"/>
<polygon fill="midnightblue" stroke="midnightblue" points="32.6087,-33.5566 25.6729,-25.5476 26.1004,-36.1338 32.6087,-33.5566"/>
</g>
<!-- Node9 -->
<g id="node9" class="node"><title>Node9</title>
<polygon fill="none" stroke="#bfbfbf" points="79,-180.5 79,-199.5 177,-199.5 177,-180.5 79,-180.5"/>
<text text-anchor="middle" x="128" y="-187.5" font-family="Helvetica,sans-Serif" font-size="10.00">boost/signals2.hpp</text>
</g>
<!-- Node4&#45;&gt;Node9 -->
<g id="edge39" class="edge"><title>Node4&#45;&gt;Node9</title>
<path fill="none" stroke="midnightblue" d="M437.914,-292.46C378.37,-272.966 232.34,-225.159 164.163,-202.839"/>
<polygon fill="midnightblue" stroke="midnightblue" points="164.893,-199.395 154.301,-199.61 162.715,-206.048 164.893,-199.395"/>
</g>
<!-- Node30 -->
<g id="node30" class="node"><title>Node30</title>
<polygon fill="none" stroke="#bfbfbf" points="463,-236.5 463,-255.5 597,-255.5 597,-236.5 463,-236.5"/>
<text text-anchor="middle" x="530" y="-243.5" font-family="Helvetica,sans-Serif" font-size="10.00">boost/program_options.hpp</text>
</g>
<!-- Node4&#45;&gt;Node30 -->
<g id="edge40" class="edge"><title>Node4&#45;&gt;Node30</title>
<path fill="none" stroke="midnightblue" d="M474.604,-292.324C484.456,-284.263 499.351,-272.077 511.215,-262.369"/>
<polygon fill="midnightblue" stroke="midnightblue" points="513.68,-264.875 519.203,-255.834 509.247,-259.457 513.68,-264.875"/>
</g>
<!-- Node5&#45;&gt;Node3 -->
<g id="edge6" class="edge"><title>Node5&#45;&gt;Node3</title>
<path fill="none" stroke="midnightblue" d="M444.6,-236.557C487.863,-228.15 547.781,-214.446 567,-200 582.745,-188.165 593.41,-167.95 599.554,-153.2"/>
<polygon fill="midnightblue" stroke="midnightblue" points="602.914,-154.213 603.236,-143.623 596.38,-151.701 602.914,-154.213"/>
</g>
<!-- Node6 -->
<g id="node6" class="node"><title>Node6</title>
<g id="a_node6"><a xlink:href="../../d2/de6/HOMERFactory_8h.html" target="_top" xlink:title="HOMERFactory.h">
<polygon fill="none" stroke="black" points="463.5,-180.5 463.5,-199.5 558.5,-199.5 558.5,-180.5 463.5,-180.5"/>
<text text-anchor="middle" x="511" y="-187.5" font-family="Helvetica,sans-Serif" font-size="10.00">HOMERFactory.h</text>
</a>
</g>
</g>
<!-- Node5&#45;&gt;Node6 -->
<g id="edge7" class="edge"><title>Node5&#45;&gt;Node6</title>
<path fill="none" stroke="midnightblue" d="M415.064,-236.444C433.575,-227.675 462.581,-213.935 483.855,-203.858"/>
<polygon fill="midnightblue" stroke="midnightblue" points="485.482,-206.96 493.021,-199.516 482.485,-200.634 485.482,-206.96"/>
</g>
<!-- Node5&#45;&gt;Node7 -->
<g id="edge9" class="edge"><title>Node5&#45;&gt;Node7</title>
<path fill="none" stroke="midnightblue" d="M349.212,-238.893C313.143,-232.823 263.319,-221.24 224,-200 141.479,-155.423 65.6532,-70.1754 35.621,-33.9551"/>
<polygon fill="midnightblue" stroke="midnightblue" points="38.0372,-31.381 28.9962,-25.8574 32.6193,-35.8135 38.0372,-31.381"/>
</g>
<!-- Node8 -->
<g id="node8" class="node"><title>Node8</title>
<polygon fill="none" stroke="#bfbfbf" points="715,-68.5 715,-87.5 761,-87.5 761,-68.5 715,-68.5"/>
<text text-anchor="middle" x="738" y="-75.5" font-family="Helvetica,sans-Serif" font-size="10.00">cstdint</text>
</g>
<!-- Node5&#45;&gt;Node8 -->
<g id="edge10" class="edge"><title>Node5&#45;&gt;Node8</title>
<path fill="none" stroke="midnightblue" d="M403.303,-236.264C413.125,-223.042 433.129,-197.624 454,-180 543.502,-104.419 587.012,-115.015 701,-88 702.266,-87.6999 703.557,-87.3926 704.86,-87.0812"/>
<polygon fill="midnightblue" stroke="midnightblue" points="706.015,-90.4033 714.918,-84.6592 704.376,-83.5979 706.015,-90.4033"/>
</g>
<!-- Node5&#45;&gt;Node9 -->
<g id="edge11" class="edge"><title>Node5&#45;&gt;Node9</title>
<path fill="none" stroke="midnightblue" d="M354.376,-236.444C307.253,-226.984 231.308,-211.738 180.541,-201.547"/>
<polygon fill="midnightblue" stroke="midnightblue" points="180.918,-198.053 170.424,-199.516 179.54,-204.916 180.918,-198.053"/>
</g>
<!-- Node10 -->
<g id="node10" class="node"><title>Node10</title>
<g id="a_node10"><a xlink:href="../../dc/dcd/DataHeader_8h.html" target="_top" xlink:title="Headers/DataHeader.h">
<polygon fill="none" stroke="black" points="338.5,-124.5 338.5,-143.5 455.5,-143.5 455.5,-124.5 338.5,-124.5"/>
<text text-anchor="middle" x="397" y="-131.5" font-family="Helvetica,sans-Serif" font-size="10.00">Headers/DataHeader.h</text>
</a>
</g>
</g>
<!-- Node5&#45;&gt;Node10 -->
<g id="edge12" class="edge"><title>Node5&#45;&gt;Node10</title>
<path fill="none" stroke="midnightblue" d="M397,-236.368C397,-218.617 397,-177.666 397,-153.597"/>
<polygon fill="midnightblue" stroke="midnightblue" points="400.5,-153.591 397,-143.591 393.5,-153.591 400.5,-153.591"/>
</g>
<!-- Node27 -->
<g id="node27" class="node"><title>Node27</title>
<g id="a_node27"><a xlink:href="../../d2/d09/HeartbeatFrame_8h.html" target="_top" xlink:title="Headers/HeartbeatFrame.h">
<polygon fill="none" stroke="black" points="233.5,-180.5 233.5,-199.5 368.5,-199.5 368.5,-180.5 233.5,-180.5"/>
<text text-anchor="middle" x="301" y="-187.5" font-family="Helvetica,sans-Serif" font-size="10.00">Headers/HeartbeatFrame.h</text>
</a>
</g>
</g>
<!-- Node5&#45;&gt;Node27 -->
<g id="edge33" class="edge"><title>Node5&#45;&gt;Node27</title>
<path fill="none" stroke="midnightblue" d="M381.576,-236.324C366.46,-227.822 343.185,-214.729 325.529,-204.797"/>
<polygon fill="midnightblue" stroke="midnightblue" points="326.817,-201.507 316.386,-199.655 323.386,-207.608 326.817,-201.507"/>
</g>
<!-- Node6&#45;&gt;Node3 -->
<g id="edge8" class="edge"><title>Node6&#45;&gt;Node3</title>
<path fill="none" stroke="midnightblue" d="M526.263,-180.324C541.221,-171.822 564.255,-158.729 581.727,-148.797"/>
<polygon fill="midnightblue" stroke="midnightblue" points="583.81,-151.639 590.774,-143.655 580.351,-145.553 583.81,-151.639"/>
</g>
<!-- Node10&#45;&gt;Node8 -->
<g id="edge13" class="edge"><title>Node10&#45;&gt;Node8</title>
<path fill="none" stroke="midnightblue" d="M455.603,-124.978C530.304,-114.638 655.247,-96.9315 701,-88 702.277,-87.7506 703.577,-87.4864 704.888,-87.2111"/>
<polygon fill="midnightblue" stroke="midnightblue" points="705.989,-90.5511 714.979,-84.9451 704.455,-83.7212 705.989,-90.5511"/>
</g>
<!-- Node10&#45;&gt;Node11 -->
<g id="edge14" class="edge"><title>Node10&#45;&gt;Node11</title>
<path fill="none" stroke="midnightblue" d="M455.592,-126.872C529.156,-118.962 659.161,-104.267 770,-88 775.137,-87.2461 780.548,-86.3849 785.86,-85.5008"/>
<polygon fill="midnightblue" stroke="midnightblue" points="786.586,-88.9276 795.855,-83.7949 785.409,-82.0274 786.586,-88.9276"/>
</g>
<!-- Node12 -->
<g id="node12" class="node"><title>Node12</title>
<polygon fill="none" stroke="#bfbfbf" points="285.5,-68.5 285.5,-87.5 334.5,-87.5 334.5,-68.5 285.5,-68.5"/>
<text text-anchor="middle" x="310" y="-75.5" font-family="Helvetica,sans-Serif" font-size="10.00">cassert</text>
</g>
<!-- Node10&#45;&gt;Node12 -->
<g id="edge15" class="edge"><title>Node10&#45;&gt;Node12</title>
<path fill="none" stroke="midnightblue" d="M383.022,-124.324C369.45,-115.9 348.62,-102.971 332.675,-93.0741"/>
<polygon fill="midnightblue" stroke="midnightblue" points="334.286,-89.9544 323.943,-87.6545 330.594,-95.9019 334.286,-89.9544"/>
</g>
<!-- Node10&#45;&gt;Node13 -->
<g id="edge16" class="edge"><title>Node10&#45;&gt;Node13</title>
<path fill="none" stroke="midnightblue" d="M455.55,-125.392C522.796,-116.276 628.764,-100.65 667,-88 685.494,-81.8816 687.246,-73.2661 706,-68 915.381,-9.20734 983.29,-85.8329 1194,-32 1196.65,-31.3224 1199.36,-30.4419 1202.02,-29.4471"/>
<polygon fill="midnightblue" stroke="midnightblue" points="1203.47,-32.6342 1211.3,-25.5014 1200.73,-26.1919 1203.47,-32.6342"/>
</g>
<!-- Node14 -->
<g id="node14" class="node"><title>Node14</title>
<polygon fill="none" stroke="#bfbfbf" points="353,-68.5 353,-87.5 409,-87.5 409,-68.5 353,-68.5"/>
<text text-anchor="middle" x="381" y="-75.5" font-family="Helvetica,sans-Serif" font-size="10.00">algorithm</text>
</g>
<!-- Node10&#45;&gt;Node14 -->
<g id="edge17" class="edge"><title>Node10&#45;&gt;Node14</title>
<path fill="none" stroke="midnightblue" d="M394.358,-124.083C392.214,-116.849 389.121,-106.409 386.451,-97.3968"/>
<polygon fill="midnightblue" stroke="midnightblue" points="389.79,-96.3447 383.593,-87.7511 383.078,-98.3334 389.79,-96.3447"/>
</g>
<!-- Node15 -->
<g id="node15" class="node"><title>Node15</title>
<polygon fill="none" stroke="#bfbfbf" points="208.5,-68.5 208.5,-87.5 267.5,-87.5 267.5,-68.5 208.5,-68.5"/>
<text text-anchor="middle" x="238" y="-75.5" font-family="Helvetica,sans-Serif" font-size="10.00">stdexcept</text>
</g>
<!-- Node10&#45;&gt;Node15 -->
<g id="edge18" class="edge"><title>Node10&#45;&gt;Node15</title>
<path fill="none" stroke="midnightblue" d="M371.806,-124.444C345.057,-115.359 302.597,-100.939 272.695,-90.7831"/>
<polygon fill="midnightblue" stroke="midnightblue" points="273.671,-87.4182 263.076,-87.5164 271.419,-94.0464 273.671,-87.4182"/>
</g>
<!-- Node16 -->
<g id="node16" class="node"><title>Node16</title>
<polygon fill="none" stroke="#bfbfbf" points="62.5,-6.5 62.5,-25.5 103.5,-25.5 103.5,-6.5 62.5,-6.5"/>
<text text-anchor="middle" x="83" y="-13.5" font-family="Helvetica,sans-Serif" font-size="10.00">string</text>
</g>
<!-- Node10&#45;&gt;Node16 -->
<g id="edge19" class="edge"><title>Node10&#45;&gt;Node16</title>
<path fill="none" stroke="midnightblue" d="M404.281,-124.32C414.787,-110.712 431.433,-84.237 417,-68 371.658,-16.9911 177.252,-52.0003 112,-32 110.09,-31.4145 108.156,-30.7058 106.24,-29.9189"/>
<polygon fill="midnightblue" stroke="midnightblue" points="107.556,-26.6692 97.0214,-25.5421 104.554,-32.9927 107.556,-26.6692"/>
</g>
<!-- Node17 -->
<g id="node17" class="node"><title>Node17</title>
<g id="a_node17"><a xlink:href="../../dc/d03/MemoryResources_8h.html" target="_top" xlink:title="MemoryResources/MemoryResources.h">
<polygon fill="none" stroke="black" points="465.5,-68.5 465.5,-87.5 658.5,-87.5 658.5,-68.5 465.5,-68.5"/>
<text text-anchor="middle" x="562" y="-75.5" font-family="Helvetica,sans-Serif" font-size="10.00">MemoryResources/MemoryResources.h</text>
</a>
</g>
</g>
<!-- Node10&#45;&gt;Node17 -->
<g id="edge20" class="edge"><title>Node10&#45;&gt;Node17</title>
<path fill="none" stroke="midnightblue" d="M423.145,-124.444C451.023,-115.32 495.348,-100.813 526.4,-90.6509"/>
<polygon fill="midnightblue" stroke="midnightblue" points="527.562,-93.9533 535.978,-87.5164 525.385,-87.3005 527.562,-93.9533"/>
</g>
<!-- Node17&#45;&gt;Node7 -->
<g id="edge29" class="edge"><title>Node17&#45;&gt;Node7</title>
<path fill="none" stroke="midnightblue" d="M465.366,-70.3469C328.802,-60.6561 91.5875,-42.6553 53,-32 50.7992,-31.3923 48.5652,-30.6321 46.3568,-29.7784"/>
<polygon fill="midnightblue" stroke="midnightblue" points="47.5812,-26.4924 37.0223,-25.6209 44.7331,-32.8868 47.5812,-26.4924"/>
</g>
<!-- Node17&#45;&gt;Node13 -->
<g id="edge25" class="edge"><title>Node17&#45;&gt;Node13</title>
<path fill="none" stroke="midnightblue" d="M658.557,-69.1016C663.44,-68.7239 668.276,-68.3547 673,-68 904.456,-50.6207 968.983,-88.9312 1194,-32 1196.65,-31.3285 1199.36,-30.4522 1202.02,-29.4599"/>
<polygon fill="midnightblue" stroke="midnightblue" points="1203.47,-32.6476 1211.31,-25.5174 1200.73,-26.2044 1203.47,-32.6476"/>
</g>
<!-- Node17&#45;&gt;Node16 -->
<g id="edge26" class="edge"><title>Node17&#45;&gt;Node16</title>
<path fill="none" stroke="midnightblue" d="M467.863,-68.495C340.949,-56.896 128.795,-36.9844 112,-32 110.084,-31.4315 108.147,-30.7352 106.229,-29.957"/>
<polygon fill="midnightblue" stroke="midnightblue" points="107.542,-26.7061 97.0049,-25.5967 104.55,-33.0347 107.542,-26.7061"/>
</g>
<!-- Node18 -->
<g id="node18" class="node"><title>Node18</title>
<polygon fill="none" stroke="#bfbfbf" points="386,-1 386,-31 486,-31 486,-1 386,-1"/>
<text text-anchor="start" x="394" y="-19" font-family="Helvetica,sans-Serif" font-size="10.00">boost/container/flat</text>
<text text-anchor="middle" x="436" y="-8" font-family="Helvetica,sans-Serif" font-size="10.00">_map.hpp</text>
</g>
<!-- Node17&#45;&gt;Node18 -->
<g id="edge21" class="edge"><title>Node17&#45;&gt;Node18</title>
<path fill="none" stroke="midnightblue" d="M543.947,-68.4035C526.005,-59.8596 497.914,-46.483 474.886,-35.5171"/>
<polygon fill="midnightblue" stroke="midnightblue" points="476.229,-32.2802 465.696,-31.1408 473.22,-38.6002 476.229,-32.2802"/>
</g>
<!-- Node19 -->
<g id="node19" class="node"><title>Node19</title>
<polygon fill="none" stroke="#bfbfbf" points="504,-1 504,-31 620,-31 620,-1 504,-1"/>
<text text-anchor="start" x="512" y="-19" font-family="Helvetica,sans-Serif" font-size="10.00">boost/container/pmr</text>
<text text-anchor="middle" x="562" y="-8" font-family="Helvetica,sans-Serif" font-size="10.00">/memory_resource.hpp</text>
</g>
<!-- Node17&#45;&gt;Node19 -->
<g id="edge22" class="edge"><title>Node17&#45;&gt;Node19</title>
<path fill="none" stroke="midnightblue" d="M562,-68.4035C562,-61.3405 562,-50.975 562,-41.399"/>
<polygon fill="midnightblue" stroke="midnightblue" points="565.5,-41.1408 562,-31.1408 558.5,-41.1408 565.5,-41.1408"/>
</g>
<!-- Node20 -->
<g id="node20" class="node"><title>Node20</title>
<polygon fill="none" stroke="#bfbfbf" points="638,-1 638,-31 794,-31 794,-1 638,-1"/>
<text text-anchor="start" x="646" y="-19" font-family="Helvetica,sans-Serif" font-size="10.00">boost/container/pmr</text>
<text text-anchor="middle" x="716" y="-8" font-family="Helvetica,sans-Serif" font-size="10.00">/monotonic_buffer_resource.hpp</text>
</g>
<!-- Node17&#45;&gt;Node20 -->
<g id="edge23" class="edge"><title>Node17&#45;&gt;Node20</title>
<path fill="none" stroke="midnightblue" d="M584.064,-68.4035C606.556,-59.6406 642.095,-45.7942 670.624,-34.6789"/>
<polygon fill="midnightblue" stroke="midnightblue" points="671.955,-37.9169 680.002,-31.0253 669.413,-31.3945 671.955,-37.9169"/>
</g>
<!-- Node21 -->
<g id="node21" class="node"><title>Node21</title>
<polygon fill="none" stroke="#bfbfbf" points="812.5,-1 812.5,-31 945.5,-31 945.5,-1 812.5,-1"/>
<text text-anchor="start" x="820.5" y="-19" font-family="Helvetica,sans-Serif" font-size="10.00">boost/container/pmr</text>
<text text-anchor="middle" x="879" y="-8" font-family="Helvetica,sans-Serif" font-size="10.00">/polymorphic_allocator.hpp</text>
</g>
<!-- Node17&#45;&gt;Node21 -->
<g id="edge24" class="edge"><title>Node17&#45;&gt;Node21</title>
<path fill="none" stroke="midnightblue" d="M608.678,-68.4309C655.16,-59.8649 728.824,-46.2011 802.376,-32.109"/>
<polygon fill="midnightblue" stroke="midnightblue" points="803.118,-35.5305 812.279,-30.2088 801.799,-28.6559 803.118,-35.5305"/>
</g>
<!-- Node22 -->
<g id="node22" class="node"><title>Node22</title>
<polygon fill="none" stroke="#bfbfbf" points="964,-6.5 964,-25.5 1026,-25.5 1026,-6.5 964,-6.5"/>
<text text-anchor="middle" x="995" y="-13.5" font-family="Helvetica,sans-Serif" font-size="10.00">type_traits</text>
</g>
<!-- Node17&#45;&gt;Node22 -->
<g id="edge27" class="edge"><title>Node17&#45;&gt;Node22</title>
<path fill="none" stroke="midnightblue" d="M658.553,-68.5503C756.049,-59.5451 899.756,-44.8446 954,-32 957.499,-31.1715 961.109,-30.135 964.668,-28.996"/>
<polygon fill="midnightblue" stroke="midnightblue" points="966.137,-32.1911 974.434,-25.6024 963.839,-25.579 966.137,-32.1911"/>
</g>
<!-- Node23 -->
<g id="node23" class="node"><title>Node23</title>
<polygon fill="none" stroke="#bfbfbf" points="1044,-6.5 1044,-25.5 1084,-25.5 1084,-6.5 1044,-6.5"/>
<text text-anchor="middle" x="1064" y="-13.5" font-family="Helvetica,sans-Serif" font-size="10.00">utility</text>
</g>
<!-- Node17&#45;&gt;Node23 -->
<g id="edge28" class="edge"><title>Node17&#45;&gt;Node23</title>
<path fill="none" stroke="midnightblue" d="M658.777,-68.6865C791.648,-57.1396 1016.26,-37.0891 1034,-32 1035.97,-31.434 1037.97,-30.7395 1039.95,-29.9626"/>
<polygon fill="midnightblue" stroke="midnightblue" points="1041.85,-32.9453 1049.48,-25.6048 1038.93,-26.5788 1041.85,-32.9453"/>
</g>
<!-- Node24 -->
<g id="node24" class="node"><title>Node24</title>
<polygon fill="none" stroke="#bfbfbf" points="1102.5,-6.5 1102.5,-25.5 1185.5,-25.5 1185.5,-6.5 1102.5,-6.5"/>
<text text-anchor="middle" x="1144" y="-13.5" font-family="Helvetica,sans-Serif" font-size="10.00">unordered_map</text>
</g>
<!-- Node17&#45;&gt;Node24 -->
<g id="edge30" class="edge"><title>Node17&#45;&gt;Node24</title>
<path fill="none" stroke="midnightblue" d="M658.538,-69.0659C808.756,-56.6855 1082.46,-33.9749 1093,-32 1098.14,-31.0364 1103.5,-29.7643 1108.74,-28.3675"/>
<polygon fill="midnightblue" stroke="midnightblue" points="1109.9,-31.6769 1118.56,-25.5762 1107.99,-24.9436 1109.9,-31.6769"/>
</g>
<!-- Node25 -->
<g id="node25" class="node"><title>Node25</title>
<polygon fill="none" stroke="#bfbfbf" points="121.5,-6.5 121.5,-25.5 218.5,-25.5 218.5,-6.5 121.5,-6.5"/>
<text text-anchor="middle" x="170" y="-13.5" font-family="Helvetica,sans-Serif" font-size="10.00">FairMQMessage.h</text>
</g>
<!-- Node17&#45;&gt;Node25 -->
<g id="edge31" class="edge"><title>Node17&#45;&gt;Node25</title>
<path fill="none" stroke="midnightblue" d="M476.5,-68.4684C408.52,-60.976 311.189,-48.6654 227,-32 221.416,-30.8947 215.568,-29.5615 209.834,-28.1517"/>
<polygon fill="midnightblue" stroke="midnightblue" points="210.272,-24.6513 199.717,-25.5639 208.538,-31.433 210.272,-24.6513"/>
</g>
<!-- Node26 -->
<g id="node26" class="node"><title>Node26</title>
<polygon fill="none" stroke="#bfbfbf" points="236.5,-6.5 236.5,-25.5 367.5,-25.5 367.5,-6.5 236.5,-6.5"/>
<text text-anchor="middle" x="302" y="-13.5" font-family="Helvetica,sans-Serif" font-size="10.00">FairMQTransportFactory.h</text>
</g>
<!-- Node17&#45;&gt;Node26 -->
<g id="edge32" class="edge"><title>Node17&#45;&gt;Node26</title>
<path fill="none" stroke="midnightblue" d="M525.024,-68.4672C478.724,-57.7825 399.365,-39.4687 348.856,-27.8129"/>
<polygon fill="midnightblue" stroke="midnightblue" points="349.379,-24.3417 338.848,-25.5034 347.805,-31.1624 349.379,-24.3417"/>
</g>
<!-- Node27&#45;&gt;Node7 -->
<g id="edge37" class="edge"><title>Node27&#45;&gt;Node7</title>
<path fill="none" stroke="midnightblue" d="M268.113,-180.405C246.488,-173.432 218.658,-161.795 199,-144 170.228,-117.955 185.781,-92.8851 156,-68 118.788,-36.9055 97.788,-50.5913 53,-32 51.4055,-31.3381 49.7763,-30.6347 48.1406,-29.9076"/>
<polygon fill="midnightblue" stroke="midnightblue" points="49.439,-26.6515 38.8957,-25.6074 46.4866,-32.9985 49.439,-26.6515"/>
</g>
<!-- Node27&#45;&gt;Node10 -->
<g id="edge34" class="edge"><title>Node27&#45;&gt;Node10</title>
<path fill="none" stroke="midnightblue" d="M316.424,-180.324C331.54,-171.822 354.815,-158.729 372.471,-148.797"/>
<polygon fill="midnightblue" stroke="midnightblue" points="374.614,-151.608 381.614,-143.655 371.183,-145.507 374.614,-151.608"/>
</g>
<!-- Node28 -->
<g id="node28" class="node"><title>Node28</title>
<polygon fill="none" stroke="#bfbfbf" points="208.5,-124.5 208.5,-143.5 267.5,-143.5 267.5,-124.5 208.5,-124.5"/>
<text text-anchor="middle" x="238" y="-131.5" font-family="Helvetica,sans-Serif" font-size="10.00">functional</text>
</g>
<!-- Node27&#45;&gt;Node28 -->
<g id="edge35" class="edge"><title>Node27&#45;&gt;Node28</title>
<path fill="none" stroke="midnightblue" d="M290.878,-180.324C281.474,-172.263 267.256,-160.077 255.931,-150.369"/>
<polygon fill="midnightblue" stroke="midnightblue" points="258.177,-147.684 248.306,-143.834 253.621,-152.999 258.177,-147.684"/>
</g>
<!-- Node29 -->
<g id="node29" class="node"><title>Node29</title>
<polygon fill="none" stroke="#bfbfbf" points="285.5,-124.5 285.5,-143.5 320.5,-143.5 320.5,-124.5 285.5,-124.5"/>
<text text-anchor="middle" x="303" y="-131.5" font-family="Helvetica,sans-Serif" font-size="10.00">map</text>
</g>
<!-- Node27&#45;&gt;Node29 -->
<g id="edge36" class="edge"><title>Node27&#45;&gt;Node29</title>
<path fill="none" stroke="midnightblue" d="M301.33,-180.083C301.592,-173.006 301.968,-162.861 302.297,-153.986"/>
<polygon fill="midnightblue" stroke="midnightblue" points="305.803,-153.874 302.676,-143.751 298.808,-153.615 305.803,-153.874"/>
</g>
</g>
</svg>
