<?xml version="1.0" encoding="UTF-8" standalone="no"?>
<!DOCTYPE svg PUBLIC "-//W3C//DTD SVG 1.1//EN"
 "http://www.w3.org/Graphics/SVG/1.1/DTD/svg11.dtd">
<!-- Generated by graphviz version 2.36.0 (20140111.2315)
 -->
<!-- Title: o2::header::TimeStamp Pages: 1 -->
<!--zoomable 524 -->
<svg id="main" version="1.1" xmlns="http://www.w3.org/2000/svg" xmlns:xlink="http://www.w3.org/1999/xlink" xml:space="preserve" onload="init(evt)">
<style type="text/css"><![CDATA[
.edge:hover path { stroke: red; }
.edge:hover polygon { stroke: red; fill: red; }
]]></style>
<script type="text/javascript"><![CDATA[
var edges = document.getElementsByTagName('g');
if (edges && edges.length) {
  for (var i=0;i<edges.length;i++) {
    if (edges[i].id.substr(0,4)=='edge') {
      edges[i].setAttribute('class','edge');
    }
  }
}
]]></script>
        <defs>
                <circle id="rim" cx="0" cy="0" r="7"/>
                <circle id="rim2" cx="0" cy="0" r="3.5"/>
                <g id="zoomPlus">
                        <use xlink:href="#rim" fill="#404040">
                                <set attributeName="fill" to="#808080" begin="zoomplus.mouseover" end="zoomplus.mouseout"/>
                        </use>
                        <path d="M-4,0h8M0,-4v8" fill="none" stroke="white" stroke-width="1.5" pointer-events="none"/>
                </g>
                <g id="zoomMin">
                        <use xlink:href="#rim" fill="#404040">
                                <set attributeName="fill" to="#808080" begin="zoomminus.mouseover" end="zoomminus.mouseout"/>
                        </use>
                        <path d="M-4,0h8" fill="none" stroke="white" stroke-width="1.5" pointer-events="none"/>
                </g>
                <g id="dirArrow">
                        <path fill="none" stroke="white" stroke-width="1.5" d="M0,-3.0v7 M-2.5,-0.5L0,-3.0L2.5,-0.5"/>
                </g>
               <g id="resetDef">
                       <use xlink:href="#rim2" fill="#404040">
                               <set attributeName="fill" to="#808080" begin="reset.mouseover" end="reset.mouseout"/>
                       </use>
               </g>
        </defs>

<script type="text/javascript">
var viewWidth = 422;
var viewHeight = 524;
var sectionId = 'dynsection-0';
</script>
<script xlink:href="../../svgpan.js"/>
<svg id="graph" class="graph">
<g id="viewport">
<title>o2::header::TimeStamp</title>
<!-- Node1 -->
<g id="node1" class="node"><title>Node1</title>
<polygon fill="#bfbfbf" stroke="black" points="85.5,-1 85.5,-113 204.5,-113 204.5,-1 85.5,-1"/>
<text text-anchor="middle" x="145" y="-101" font-family="Helvetica,sans-Serif" font-size="10.00">o2::header::TimeStamp</text>
<polyline fill="none" stroke="black" points="85.5,-94 204.5,-94 "/>
<text text-anchor="middle" x="145" y="-82" font-family="Helvetica,sans-Serif" font-size="10.00"> </text>
<polyline fill="none" stroke="black" points="85.5,-75 204.5,-75 "/>
<text text-anchor="start" x="93.5" y="-63" font-family="Helvetica,sans-Serif" font-size="10.00">+ TimeStamp()</text>
<text text-anchor="start" x="93.5" y="-52" font-family="Helvetica,sans-Serif" font-size="10.00">+ TimeStamp()</text>
<text text-anchor="start" x="93.5" y="-41" font-family="Helvetica,sans-Serif" font-size="10.00">+ TimeStamp()</text>
<text text-anchor="start" x="93.5" y="-30" font-family="Helvetica,sans-Serif" font-size="10.00">+ ~TimeStamp()</text>
<text text-anchor="start" x="93.5" y="-19" font-family="Helvetica,sans-Serif" font-size="10.00">+ operator uint64_t()</text>
<text text-anchor="start" x="93.5" y="-8" font-family="Helvetica,sans-Serif" font-size="10.00">+ get()</text>
</g>
<!-- Node2 -->
<g id="node2" class="node"><title>Node2</title>
<polygon fill="none" stroke="#bfbfbf" points="-0.5,-256.5 -0.5,-313.5 50.5,-313.5 50.5,-256.5 -0.5,-256.5"/>
<text text-anchor="middle" x="25" y="-301.5" font-family="Helvetica,sans-Serif" font-size="10.00">uint32_t</text>
<polyline fill="none" stroke="#bfbfbf" points="-0.5,-294.5 50.5,-294.5 "/>
<text text-anchor="middle" x="25" y="-282.5" font-family="Helvetica,sans-Serif" font-size="10.00"> </text>
<polyline fill="none" stroke="#bfbfbf" points="-0.5,-275.5 50.5,-275.5 "/>
<text text-anchor="middle" x="25" y="-263.5" font-family="Helvetica,sans-Serif" font-size="10.00"> </text>
</g>
<!-- Node2&#45;&gt;Node1 -->
<g id="edge1" class="edge"><title>Node2&#45;&gt;Node1</title>
<path fill="none" stroke="#404040" d="M21.6787,-256.4C19.1838,-224.247 19.3971,-170.613 42,-132 50.3242,-117.779 62.5835,-105.549 75.766,-95.3611"/>
<polygon fill="none" stroke="#404040" points="75.7746,-95.3548 78.2795,-88.5927 85.4849,-88.3041 82.98,-95.0662 75.7746,-95.3548"/>
<text text-anchor="middle" x="63.5" y="-152" font-family="Helvetica,sans-Serif" font-size="10.00"> +mTicks</text>
<text text-anchor="middle" x="63.5" y="-141" font-family="Helvetica,sans-Serif" font-size="10.00">+mPeriod</text>
</g>
<!-- Node3 -->
<g id="node3" class="node"><title>Node3</title>
<polygon fill="none" stroke="#bfbfbf" points="68.5,-256.5 68.5,-313.5 119.5,-313.5 119.5,-256.5 68.5,-256.5"/>
<text text-anchor="middle" x="94" y="-301.5" font-family="Helvetica,sans-Serif" font-size="10.00">uint64_t</text>
<polyline fill="none" stroke="#bfbfbf" points="68.5,-294.5 119.5,-294.5 "/>
<text text-anchor="middle" x="94" y="-282.5" font-family="Helvetica,sans-Serif" font-size="10.00"> </text>
<polyline fill="none" stroke="#bfbfbf" points="68.5,-275.5 119.5,-275.5 "/>
<text text-anchor="middle" x="94" y="-263.5" font-family="Helvetica,sans-Serif" font-size="10.00"> </text>
</g>
<!-- Node3&#45;&gt;Node1 -->
<g id="edge2" class="edge"><title>Node3&#45;&gt;Node1</title>
<path fill="none" stroke="#404040" d="M89.4776,-256.365C85.4654,-225.334 82.0377,-173.845 95,-132 95.8014,-129.413 96.7263,-126.834 97.7541,-124.275"/>
<polygon fill="none" stroke="#404040" points="97.8305,-124.109 96.7104,-116.985 102.855,-113.212 103.975,-120.335 97.8305,-124.109"/>
<text text-anchor="middle" x="134.5" y="-146.5" font-family="Helvetica,sans-Serif" font-size="10.00"> +mTimeStamp64</text>
</g>
<!-- Node4 -->
<g id="node4" class="node"><title>Node4</title>
<polygon fill="none" stroke="#bfbfbf" points="170.5,-256.5 170.5,-313.5 221.5,-313.5 221.5,-256.5 170.5,-256.5"/>
<text text-anchor="middle" x="196" y="-301.5" font-family="Helvetica,sans-Serif" font-size="10.00">uint16_t</text>
<polyline fill="none" stroke="#bfbfbf" points="170.5,-294.5 221.5,-294.5 "/>
<text text-anchor="middle" x="196" y="-282.5" font-family="Helvetica,sans-Serif" font-size="10.00"> </text>
<polyline fill="none" stroke="#bfbfbf" points="170.5,-275.5 221.5,-275.5 "/>
<text text-anchor="middle" x="196" y="-263.5" font-family="Helvetica,sans-Serif" font-size="10.00"> </text>
</g>
<!-- Node4&#45;&gt;Node1 -->
<g id="edge3" class="edge"><title>Node4&#45;&gt;Node1</title>
<path fill="none" stroke="#404040" d="M193.927,-256.437C191.174,-225.69 185.286,-174.661 174,-132 173.366,-129.603 172.678,-127.178 171.947,-124.741"/>
<polygon fill="none" stroke="#404040" points="171.941,-124.722 166.289,-120.243 168.25,-113.303 173.902,-117.782 171.941,-124.722"/>
<text text-anchor="middle" x="214" y="-157.5" font-family="Helvetica,sans-Serif" font-size="10.00"> +mUnit</text>
<text text-anchor="middle" x="214" y="-146.5" font-family="Helvetica,sans-Serif" font-size="10.00">+mSubTicks</text>
<text text-anchor="middle" x="214" y="-135.5" font-family="Helvetica,sans-Serif" font-size="10.00">+mBCNumber</text>
</g>
<!-- Node5 -->
<g id="node5" class="node"><title>Node5</title>
<g id="a_node5"><a xlink:href="../../d9/db3/structo2_1_1header_1_1Descriptor.html" target="_top" xlink:title="{o2::header::Descriptor\l\&lt; N, PrinterPolicy \&gt;\n||+ Descriptor()\l+ Descriptor()\l+ Descriptor()\l+ operator=()\l+ operator ItgType()\l+ Descriptor()\l+ runtimeInit()\l+ operator==()\l+ operator!=()\l+ operator==()\l+ operator!=()\l+ as()\l+ print()\l}">
<polygon fill="none" stroke="black" points="239.5,-185 239.5,-385 352.5,-385 352.5,-185 239.5,-185"/>
<text text-anchor="start" x="247.5" y="-373" font-family="Helvetica,sans-Serif" font-size="10.00">o2::header::Descriptor</text>
<text text-anchor="middle" x="296" y="-362" font-family="Helvetica,sans-Serif" font-size="10.00">&lt; N, PrinterPolicy &gt;</text>
<polyline fill="none" stroke="black" points="239.5,-355 352.5,-355 "/>
<text text-anchor="middle" x="296" y="-343" font-family="Helvetica,sans-Serif" font-size="10.00"> </text>
<polyline fill="none" stroke="black" points="239.5,-336 352.5,-336 "/>
<text text-anchor="start" x="247.5" y="-324" font-family="Helvetica,sans-Serif" font-size="10.00">+ Descriptor()</text>
<text text-anchor="start" x="247.5" y="-313" font-family="Helvetica,sans-Serif" font-size="10.00">+ Descriptor()</text>
<text text-anchor="start" x="247.5" y="-302" font-family="Helvetica,sans-Serif" font-size="10.00">+ Descriptor()</text>
<text text-anchor="start" x="247.5" y="-291" font-family="Helvetica,sans-Serif" font-size="10.00">+ operator=()</text>
<text text-anchor="start" x="247.5" y="-280" font-family="Helvetica,sans-Serif" font-size="10.00">+ operator ItgType()</text>
<text text-anchor="start" x="247.5" y="-269" font-family="Helvetica,sans-Serif" font-size="10.00">+ Descriptor()</text>
<text text-anchor="start" x="247.5" y="-258" font-family="Helvetica,sans-Serif" font-size="10.00">+ runtimeInit()</text>
<text text-anchor="start" x="247.5" y="-247" font-family="Helvetica,sans-Serif" font-size="10.00">+ operator==()</text>
<text text-anchor="start" x="247.5" y="-236" font-family="Helvetica,sans-Serif" font-size="10.00">+ operator!=()</text>
<text text-anchor="start" x="247.5" y="-225" font-family="Helvetica,sans-Serif" font-size="10.00">+ operator==()</text>
<text text-anchor="start" x="247.5" y="-214" font-family="Helvetica,sans-Serif" font-size="10.00">+ operator!=()</text>
<text text-anchor="start" x="247.5" y="-203" font-family="Helvetica,sans-Serif" font-size="10.00">+ as()</text>
<text text-anchor="start" x="247.5" y="-192" font-family="Helvetica,sans-Serif" font-size="10.00">+ print()</text>
</a>
</g>
</g>
<!-- Node5&#45;&gt;Node1 -->
<g id="edge4" class="edge"><title>Node5&#45;&gt;Node1</title>
<path fill="none" stroke="#404040" d="M276.33,-184.659C269.857,-166.102 261.298,-147.647 250,-132 240.481,-118.817 227.866,-107.14 214.692,-97.1812"/>
<polygon fill="none" stroke="#404040" points="214.3,-96.8999 207.093,-96.6519 204.55,-89.904 211.757,-90.152 214.3,-96.8999"/>
<text text-anchor="middle" x="306" y="-152" font-family="Helvetica,sans-Serif" font-size="10.00"> +sClockLHC</text>
<text text-anchor="middle" x="306" y="-141" font-family="Helvetica,sans-Serif" font-size="10.00">+sMicroSeconds</text>
</g>
<!-- Node6 -->
<g id="node6" class="node"><title>Node6</title>
<polygon fill="none" stroke="#bfbfbf" points="198,-457.5 198,-514.5 236,-514.5 236,-457.5 198,-457.5"/>
<text text-anchor="middle" x="217" y="-502.5" font-family="Helvetica,sans-Serif" font-size="10.00">Type</text>
<polyline fill="none" stroke="#bfbfbf" points="198,-495.5 236,-495.5 "/>
<text text-anchor="middle" x="217" y="-483.5" font-family="Helvetica,sans-Serif" font-size="10.00"> </text>
<polyline fill="none" stroke="#bfbfbf" points="198,-476.5 236,-476.5 "/>
<text text-anchor="middle" x="217" y="-464.5" font-family="Helvetica,sans-Serif" font-size="10.00"> </text>
</g>
<!-- Node6&#45;&gt;Node5 -->
<g id="edge5" class="edge"><title>Node6&#45;&gt;Node5</title>
<path fill="none" stroke="#404040" d="M227.985,-457.33C234.44,-441.068 243.072,-419.324 252.015,-396.798"/>
<polygon fill="none" stroke="#404040" points="252.137,-396.489 250.633,-389.437 256.565,-385.336 258.069,-392.389 252.137,-396.489"/>
<text text-anchor="middle" x="258" y="-418.5" font-family="Helvetica,sans-Serif" font-size="10.00"> +itg</text>
</g>
<!-- Node7 -->
<g id="node7" class="node"><title>Node7</title>
<polygon fill="none" stroke="#bfbfbf" points="254.5,-457.5 254.5,-514.5 289.5,-514.5 289.5,-457.5 254.5,-457.5"/>
<text text-anchor="middle" x="272" y="-502.5" font-family="Helvetica,sans-Serif" font-size="10.00">char</text>
<polyline fill="none" stroke="#bfbfbf" points="254.5,-495.5 289.5,-495.5 "/>
<text text-anchor="middle" x="272" y="-483.5" font-family="Helvetica,sans-Serif" font-size="10.00"> </text>
<polyline fill="none" stroke="#bfbfbf" points="254.5,-476.5 289.5,-476.5 "/>
<text text-anchor="middle" x="272" y="-464.5" font-family="Helvetica,sans-Serif" font-size="10.00"> </text>
</g>
<!-- Node7&#45;&gt;Node5 -->
<g id="edge6" class="edge"><title>Node7&#45;&gt;Node5</title>
<path fill="none" stroke="#404040" d="M272.559,-457.194C273.078,-441.533 274.077,-421.636 276,-404 276.253,-401.676 276.523,-399.329 276.807,-396.964"/>
<polygon fill="none" stroke="#404040" points="276.811,-396.932 273.608,-390.472 278.34,-385.03 281.543,-391.49 276.811,-396.932"/>
<text text-anchor="middle" x="286.5" y="-418.5" font-family="Helvetica,sans-Serif" font-size="10.00"> +str</text>
</g>
<!-- Node8 -->
<g id="node8" class="node"><title>Node8</title>
<polygon fill="none" stroke="#bfbfbf" points="307.5,-457.5 307.5,-514.5 336.5,-514.5 336.5,-457.5 307.5,-457.5"/>
<text text-anchor="middle" x="322" y="-502.5" font-family="Helvetica,sans-Serif" font-size="10.00">int</text>
<polyline fill="none" stroke="#bfbfbf" points="307.5,-495.5 336.5,-495.5 "/>
<text text-anchor="middle" x="322" y="-483.5" font-family="Helvetica,sans-Serif" font-size="10.00"> </text>
<polyline fill="none" stroke="#bfbfbf" points="307.5,-476.5 336.5,-476.5 "/>
<text text-anchor="middle" x="322" y="-464.5" font-family="Helvetica,sans-Serif" font-size="10.00"> </text>
</g>
<!-- Node8&#45;&gt;Node5 -->
<g id="edge7" class="edge"><title>Node8&#45;&gt;Node5</title>
<path fill="none" stroke="#404040" d="M318.385,-457.33C316.279,-441.216 313.471,-419.721 310.557,-397.415"/>
<polygon fill="none" stroke="#404040" points="310.533,-397.235 305.79,-391.804 308.979,-385.336 313.722,-390.767 310.533,-397.235"/>
<text text-anchor="middle" x="341.5" y="-429.5" font-family="Helvetica,sans-Serif" font-size="10.00"> +arraySize</text>
<text text-anchor="middle" x="341.5" y="-418.5" font-family="Helvetica,sans-Serif" font-size="10.00">+size</text>
<text text-anchor="middle" x="341.5" y="-407.5" font-family="Helvetica,sans-Serif" font-size="10.00">+bitcount</text>
</g>
<!-- Node9 -->
<g id="node9" class="node"><title>Node9</title>
<polygon fill="none" stroke="#bfbfbf" points="378.5,-457 378.5,-515 407.5,-515 407.5,-457 378.5,-457"/>
<polyline fill="none" stroke="#bfbfbf" points="378.5,-495 407.5,-495 "/>
<text text-anchor="middle" x="393" y="-483" font-family="Helvetica,sans-Serif" font-size="10.00"> </text>
<polyline fill="none" stroke="#bfbfbf" points="378.5,-476 407.5,-476 "/>
<text text-anchor="middle" x="393" y="-464" font-family="Helvetica,sans-Serif" font-size="10.00"> </text>
</g>
<!-- Node9&#45;&gt;Node5 -->
<g id="edge8" class="edge"><title>Node9&#45;&gt;Node5</title>
<path fill="none" stroke="#404040" d="M387.564,-456.922C383.946,-440.997 378.473,-420.93 371,-404 367.278,-395.568 363.011,-387.042 358.441,-378.635"/>
<polygon fill="none" stroke="#404040" points="358.382,-378.53 351.957,-375.255 352.509,-368.065 358.934,-371.34 358.382,-378.53"/>
<text text-anchor="middle" x="398.5" y="-418.5" font-family="Helvetica,sans-Serif" font-size="10.00"> +@14</text>
</g>
</g>
</svg>
        <g id="navigator" transform="translate(0 0)" fill="#404254">
                <rect fill="#f2f5e9" fill-opacity="0.5" stroke="#606060" stroke-width=".5" x="0" y="0" width="60" height="60"/>
                <use id="zoomplus" xlink:href="#zoomPlus" x="17" y="9" onmousedown="handleZoom(evt,'in')"/>
                <use id="zoomminus" xlink:href="#zoomMin" x="42" y="9" onmousedown="handleZoom(evt,'out')"/>
                <use id="reset" xlink:href="#resetDef" x="30" y="36" onmousedown="handleReset()"/>
                <g id="arrowUp" xlink:href="#dirArrow" transform="translate(30 24)" onmousedown="handlePan(0,-1)">
                  <use xlink:href="#rim" fill="#404040">
                        <set attributeName="fill" to="#808080" begin="arrowUp.mouseover" end="arrowUp.mouseout"/>
                  </use>
                  <path fill="none" stroke="white" stroke-width="1.5" d="M0,-3.0v7 M-2.5,-0.5L0,-3.0L2.5,-0.5"/>
                </g>
                <g id="arrowRight" xlink:href="#dirArrow" transform="rotate(90) translate(36 -43)" onmousedown="handlePan(1,0)">
                  <use xlink:href="#rim" fill="#404040">
                        <set attributeName="fill" to="#808080" begin="arrowRight.mouseover" end="arrowRight.mouseout"/>
                  </use>
                  <path fill="none" stroke="white" stroke-width="1.5" d="M0,-3.0v7 M-2.5,-0.5L0,-3.0L2.5,-0.5"/>
                </g>
                <g id="arrowDown" xlink:href="#dirArrow" transform="rotate(180) translate(-30 -48)" onmousedown="handlePan(0,1)">
                  <use xlink:href="#rim" fill="#404040">
                        <set attributeName="fill" to="#808080" begin="arrowDown.mouseover" end="arrowDown.mouseout"/>
                  </use>
                  <path fill="none" stroke="white" stroke-width="1.5" d="M0,-3.0v7 M-2.5,-0.5L0,-3.0L2.5,-0.5"/>
                </g>
                <g id="arrowLeft" xlink:href="#dirArrow" transform="rotate(270) translate(-36 17)" onmousedown="handlePan(-1,0)">
                  <use xlink:href="#rim" fill="#404040">
                        <set attributeName="fill" to="#808080" begin="arrowLeft.mouseover" end="arrowLeft.mouseout"/>
                  </use>
                  <path fill="none" stroke="white" stroke-width="1.5" d="M0,-3.0v7 M-2.5,-0.5L0,-3.0L2.5,-0.5"/>
                </g>
        </g>
        <svg viewBox="0 0 15 15" width="100%" height="30px" preserveAspectRatio="xMaxYMin meet">
         <g id="arrow_out" transform="scale(0.3 0.3)">
          <a xlink:href="classo2_1_1header_1_1TimeStamp__coll__graph_org.svg" target="_base">
           <rect id="button" ry="5" rx="5" y="6" x="6" height="38" width="38"
                fill="#f2f5e9" fill-opacity="0.5" stroke="#606060" stroke-width="1.0"/>
           <path id="arrow"
             d="M 11.500037,31.436501 C 11.940474,20.09759 22.043105,11.32322 32.158766,21.979434 L 37.068811,17.246167 C 37.068811,17.246167 37.088388,32 37.088388,32 L 22.160133,31.978069 C 22.160133,31.978069 26.997745,27.140456 26.997745,27.140456 C 18.528582,18.264221 13.291696,25.230495 11.500037,31.436501 z"
             style="fill:#404040;"/>
          </a>
         </g>
        </svg>
</svg>
