<?xml version="1.0" encoding="UTF-8" standalone="no"?>
<!DOCTYPE svg PUBLIC "-//W3C//DTD SVG 1.1//EN"
 "http://www.w3.org/Graphics/SVG/1.1/DTD/svg11.dtd">
<!-- Generated by graphviz version 2.36.0 (20140111.2315)
 -->
<!-- Title: /home/travis/build/AliceO2Group/AliceO2/Detectors/FIT/simulation/include/FITSimulation/Digitizer.h Pages: 1 -->
<svg width="2359pt" height="378pt"
 viewBox="0.00 0.00 2358.65 378.00" xmlns="http://www.w3.org/2000/svg" xmlns:xlink="http://www.w3.org/1999/xlink">
<g id="graph0" class="graph" transform="scale(1 1) rotate(0) translate(4 374)">
<title>/home/travis/build/AliceO2Group/AliceO2/Detectors/FIT/simulation/include/FITSimulation/Digitizer.h</title>
<!-- Node1 -->
<g id="node1" class="node"><title>Node1</title>
<polygon fill="#bfbfbf" stroke="black" points="760.5,-317 760.5,-369 921.5,-369 921.5,-317 760.5,-317"/>
<text text-anchor="start" x="768.5" y="-357" font-family="Helvetica,sans-Serif" font-size="10.00">/home/travis/build</text>
<text text-anchor="start" x="768.5" y="-346" font-family="Helvetica,sans-Serif" font-size="10.00">/AliceO2Group/AliceO2</text>
<text text-anchor="start" x="768.5" y="-335" font-family="Helvetica,sans-Serif" font-size="10.00">/Detectors/FIT/simulation</text>
<text text-anchor="middle" x="841" y="-324" font-family="Helvetica,sans-Serif" font-size="10.00">/include/FITSimulation/Digitizer.h</text>
</g>
<!-- Node2 -->
<g id="node2" class="node"><title>Node2</title>
<g id="a_node2"><a xlink:href="../../d1/dde/FIT_2base_2include_2FITBase_2Digit_8h.html" target="_top" xlink:title="FITBase/Digit.h">
<polygon fill="none" stroke="black" points="668,-198.5 668,-217.5 754,-217.5 754,-198.5 668,-198.5"/>
<text text-anchor="middle" x="711" y="-205.5" font-family="Helvetica,sans-Serif" font-size="10.00">FITBase/Digit.h</text>
</a>
</g>
</g>
<!-- Node1&#45;&gt;Node2 -->
<g id="edge1" class="edge"><title>Node1&#45;&gt;Node2</title>
<path fill="none" stroke="midnightblue" d="M816.548,-316.984C790.099,-289.925 748.737,-247.608 726.457,-224.814"/>
<polygon fill="midnightblue" stroke="midnightblue" points="728.921,-222.327 719.428,-217.622 723.915,-227.22 728.921,-222.327"/>
</g>
<!-- Node6 -->
<g id="node6" class="node"><title>Node6</title>
<g id="a_node6"><a xlink:href="../../de/d6b/FIT_2simulation_2include_2FITSimulation_2Detector_8h.html" target="_top" xlink:title="FITSimulation/Detector.h">
<polygon fill="none" stroke="black" points="830,-260.5 830,-279.5 956,-279.5 956,-260.5 830,-260.5"/>
<text text-anchor="middle" x="893" y="-267.5" font-family="Helvetica,sans-Serif" font-size="10.00">FITSimulation/Detector.h</text>
</a>
</g>
</g>
<!-- Node1&#45;&gt;Node6 -->
<g id="edge6" class="edge"><title>Node1&#45;&gt;Node6</title>
<path fill="none" stroke="midnightblue" d="M859.48,-316.768C866.499,-307.183 874.319,-296.506 880.639,-287.877"/>
<polygon fill="midnightblue" stroke="midnightblue" points="883.501,-289.893 886.586,-279.757 877.854,-285.757 883.501,-289.893"/>
</g>
<!-- Node3 -->
<g id="node3" class="node"><title>Node3</title>
<g id="a_node3"><a xlink:href="../../df/d5d/common_2include_2CommonDataFormat_2TimeStamp_8h.html" target="_top" xlink:title="CommonDataFormat/TimeStamp.h">
<polygon fill="none" stroke="black" points="739,-136.5 739,-155.5 909,-155.5 909,-136.5 739,-136.5"/>
<text text-anchor="middle" x="824" y="-143.5" font-family="Helvetica,sans-Serif" font-size="10.00">CommonDataFormat/TimeStamp.h</text>
</a>
</g>
</g>
<!-- Node2&#45;&gt;Node3 -->
<g id="edge2" class="edge"><title>Node2&#45;&gt;Node3</title>
<path fill="none" stroke="midnightblue" d="M727.19,-198.403C745.902,-188.468 776.923,-171.997 798.799,-160.381"/>
<polygon fill="midnightblue" stroke="midnightblue" points="800.649,-163.362 807.84,-155.581 797.366,-157.179 800.649,-163.362"/>
</g>
<!-- Node4 -->
<g id="node4" class="node"><title>Node4</title>
<polygon fill="none" stroke="#bfbfbf" points="1183,-74.5 1183,-93.5 1239,-93.5 1239,-74.5 1183,-74.5"/>
<text text-anchor="middle" x="1211" y="-81.5" font-family="Helvetica,sans-Serif" font-size="10.00">Rtypes.h</text>
</g>
<!-- Node2&#45;&gt;Node4 -->
<g id="edge5" class="edge"><title>Node2&#45;&gt;Node4</title>
<path fill="none" stroke="midnightblue" d="M710.425,-198.372C709.934,-183.117 711.382,-151.529 730,-136 805.847,-72.7345 1076.8,-122.375 1173,-100 1176.25,-99.2448 1179.58,-98.2613 1182.86,-97.1588"/>
<polygon fill="midnightblue" stroke="midnightblue" points="1184.26,-100.374 1192.41,-93.6035 1181.82,-93.8144 1184.26,-100.374"/>
</g>
<!-- Node5 -->
<g id="node5" class="node"><title>Node5</title>
<polygon fill="none" stroke="#bfbfbf" points="-0.5,-74.5 -0.5,-93.5 44.5,-93.5 44.5,-74.5 -0.5,-74.5"/>
<text text-anchor="middle" x="22" y="-81.5" font-family="Helvetica,sans-Serif" font-size="10.00">iosfwd</text>
</g>
<!-- Node2&#45;&gt;Node5 -->
<g id="edge4" class="edge"><title>Node2&#45;&gt;Node5</title>
<path fill="none" stroke="midnightblue" d="M667.666,-204.295C560.907,-196.708 277.588,-170.936 53,-100 50.8692,-99.327 48.6997,-98.5307 46.5484,-97.6616"/>
<polygon fill="midnightblue" stroke="midnightblue" points="47.9637,-94.4605 37.4088,-93.5409 45.0865,-100.842 47.9637,-94.4605"/>
</g>
<!-- Node3&#45;&gt;Node4 -->
<g id="edge3" class="edge"><title>Node3&#45;&gt;Node4</title>
<path fill="none" stroke="midnightblue" d="M908.824,-136.5C995.692,-127.358 1124.64,-112.457 1173,-100 1176.06,-99.2116 1179.21,-98.2432 1182.32,-97.1813"/>
<polygon fill="midnightblue" stroke="midnightblue" points="1183.83,-100.352 1191.98,-93.5767 1181.38,-93.7942 1183.83,-100.352"/>
</g>
<!-- Node7 -->
<g id="node7" class="node"><title>Node7</title>
<g id="a_node7"><a xlink:href="../../d4/d25/BaseHits_8h.html" target="_top" xlink:title="SimulationDataFormat\l/BaseHits.h">
<polygon fill="none" stroke="black" points="772,-193 772,-223 886,-223 886,-193 772,-193"/>
<text text-anchor="start" x="780" y="-211" font-family="Helvetica,sans-Serif" font-size="10.00">SimulationDataFormat</text>
<text text-anchor="middle" x="829" y="-200" font-family="Helvetica,sans-Serif" font-size="10.00">/BaseHits.h</text>
</a>
</g>
</g>
<!-- Node6&#45;&gt;Node7 -->
<g id="edge7" class="edge"><title>Node6&#45;&gt;Node7</title>
<path fill="none" stroke="midnightblue" d="M883.83,-260.403C875.405,-252.505 862.575,-240.477 851.444,-230.041"/>
<polygon fill="midnightblue" stroke="midnightblue" points="853.773,-227.427 844.084,-223.141 848.985,-232.534 853.773,-227.427"/>
</g>
<!-- Node18 -->
<g id="node18" class="node"><title>Node18</title>
<g id="a_node18"><a xlink:href="../../d1/d3a/Base_2include_2DetectorsBase_2Detector_8h.html" target="_top" xlink:title="DetectorsBase/Detector.h">
<polygon fill="none" stroke="black" points="1540.5,-198.5 1540.5,-217.5 1671.5,-217.5 1671.5,-198.5 1540.5,-198.5"/>
<text text-anchor="middle" x="1606" y="-205.5" font-family="Helvetica,sans-Serif" font-size="10.00">DetectorsBase/Detector.h</text>
</a>
</g>
</g>
<!-- Node6&#45;&gt;Node18 -->
<g id="edge20" class="edge"><title>Node6&#45;&gt;Node18</title>
<path fill="none" stroke="midnightblue" d="M956.274,-263.675C1087.44,-252.637 1388.54,-227.3 1529.98,-215.397"/>
<polygon fill="midnightblue" stroke="midnightblue" points="1530.62,-218.856 1540.29,-214.529 1530.03,-211.88 1530.62,-218.856"/>
</g>
<!-- Node35 -->
<g id="node35" class="node"><title>Node35</title>
<g id="a_node35"><a xlink:href="../../d1/db1/FIT_2base_2include_2FITBase_2Geometry_8h.html" target="_top" xlink:title="FITBase/Geometry.h">
<polygon fill="none" stroke="black" points="904,-198.5 904,-217.5 1012,-217.5 1012,-198.5 904,-198.5"/>
<text text-anchor="middle" x="958" y="-205.5" font-family="Helvetica,sans-Serif" font-size="10.00">FITBase/Geometry.h</text>
</a>
</g>
</g>
<!-- Node6&#45;&gt;Node35 -->
<g id="edge41" class="edge"><title>Node6&#45;&gt;Node35</title>
<path fill="none" stroke="midnightblue" d="M902.313,-260.403C912.449,-251.047 928.864,-235.895 941.252,-224.46"/>
<polygon fill="midnightblue" stroke="midnightblue" points="943.73,-226.935 948.704,-217.581 938.982,-221.792 943.73,-226.935"/>
</g>
<!-- Node8 -->
<g id="node8" class="node"><title>Node8</title>
<g id="a_node8"><a xlink:href="../../dd/d76/Cartesian3D_8h.html" target="_top" xlink:title="MathUtils/Cartesian3D.h">
<polygon fill="none" stroke="black" points="557.5,-136.5 557.5,-155.5 682.5,-155.5 682.5,-136.5 557.5,-136.5"/>
<text text-anchor="middle" x="620" y="-143.5" font-family="Helvetica,sans-Serif" font-size="10.00">MathUtils/Cartesian3D.h</text>
</a>
</g>
</g>
<!-- Node7&#45;&gt;Node8 -->
<g id="edge8" class="edge"><title>Node7&#45;&gt;Node8</title>
<path fill="none" stroke="midnightblue" d="M779.999,-192.933C743.212,-182.372 693.498,-168.1 659.299,-158.282"/>
<polygon fill="midnightblue" stroke="midnightblue" points="660.23,-154.908 649.653,-155.513 658.299,-161.636 660.23,-154.908"/>
</g>
<!-- Node8&#45;&gt;Node4 -->
<g id="edge14" class="edge"><title>Node8&#45;&gt;Node4</title>
<path fill="none" stroke="midnightblue" d="M682.592,-137.467C687.465,-136.947 692.311,-136.451 697,-136 908.184,-115.681 966.222,-147.484 1173,-100 1176.25,-99.2539 1179.59,-98.2762 1182.87,-97.177"/>
<polygon fill="midnightblue" stroke="midnightblue" points="1184.26,-100.393 1192.41,-93.6254 1181.82,-93.8324 1184.26,-100.393"/>
</g>
<!-- Node8&#45;&gt;Node5 -->
<g id="edge16" class="edge"><title>Node8&#45;&gt;Node5</title>
<path fill="none" stroke="midnightblue" d="M557.039,-142.936C429.866,-138.289 146.515,-125.371 53,-100 50.7965,-99.4022 48.5605,-98.6489 46.3509,-97.7999"/>
<polygon fill="midnightblue" stroke="midnightblue" points="47.5739,-94.5134 37.0143,-93.6501 44.7308,-100.91 47.5739,-94.5134"/>
</g>
<!-- Node9 -->
<g id="node9" class="node"><title>Node9</title>
<polygon fill="none" stroke="#bfbfbf" points="819.5,-69 819.5,-99 970.5,-99 970.5,-69 819.5,-69"/>
<text text-anchor="start" x="827.5" y="-87" font-family="Helvetica,sans-Serif" font-size="10.00">Math/GenVector/Displacement</text>
<text text-anchor="middle" x="895" y="-76" font-family="Helvetica,sans-Serif" font-size="10.00">Vector3D.h</text>
</g>
<!-- Node8&#45;&gt;Node9 -->
<g id="edge9" class="edge"><title>Node8&#45;&gt;Node9</title>
<path fill="none" stroke="midnightblue" d="M659.109,-136.467C701.04,-127.318 768.609,-112.576 820.705,-101.21"/>
<polygon fill="midnightblue" stroke="midnightblue" points="821.55,-104.608 830.574,-99.0565 820.058,-97.7687 821.55,-104.608"/>
</g>
<!-- Node10 -->
<g id="node10" class="node"><title>Node10</title>
<polygon fill="none" stroke="#bfbfbf" points="989,-74.5 989,-93.5 1165,-93.5 1165,-74.5 989,-74.5"/>
<text text-anchor="middle" x="1077" y="-81.5" font-family="Helvetica,sans-Serif" font-size="10.00">Math/GenVector/PositionVector3D.h</text>
</g>
<!-- Node8&#45;&gt;Node10 -->
<g id="edge10" class="edge"><title>Node8&#45;&gt;Node10</title>
<path fill="none" stroke="midnightblue" d="M682.651,-137.67C754.348,-129.16 875.257,-114.439 979,-100 990.076,-98.4585 1001.84,-96.7333 1013.23,-95.017"/>
<polygon fill="midnightblue" stroke="midnightblue" points="1013.76,-98.4771 1023.12,-93.5158 1012.71,-91.5564 1013.76,-98.4771"/>
</g>
<!-- Node11 -->
<g id="node11" class="node"><title>Node11</title>
<polygon fill="none" stroke="#bfbfbf" points="62.5,-74.5 62.5,-93.5 211.5,-93.5 211.5,-74.5 62.5,-74.5"/>
<text text-anchor="middle" x="137" y="-81.5" font-family="Helvetica,sans-Serif" font-size="10.00">Math/GenVector/Rotation3D.h</text>
</g>
<!-- Node8&#45;&gt;Node11 -->
<g id="edge11" class="edge"><title>Node8&#45;&gt;Node11</title>
<path fill="none" stroke="midnightblue" d="M557.296,-139.189C478.575,-131.603 339.479,-117.241 221,-100 211.534,-98.6225 201.5,-96.9856 191.785,-95.3078"/>
<polygon fill="midnightblue" stroke="midnightblue" points="192.27,-91.8395 181.815,-93.5537 191.057,-98.7336 192.27,-91.8395"/>
</g>
<!-- Node12 -->
<g id="node12" class="node"><title>Node12</title>
<polygon fill="none" stroke="#bfbfbf" points="230,-74.5 230,-93.5 386,-93.5 386,-74.5 230,-74.5"/>
<text text-anchor="middle" x="308" y="-81.5" font-family="Helvetica,sans-Serif" font-size="10.00">Math/GenVector/Transform3D.h</text>
</g>
<!-- Node8&#45;&gt;Node12 -->
<g id="edge12" class="edge"><title>Node8&#45;&gt;Node12</title>
<path fill="none" stroke="midnightblue" d="M575.629,-136.467C519.489,-125.671 422.845,-107.086 362.341,-95.4501"/>
<polygon fill="midnightblue" stroke="midnightblue" points="362.699,-91.9549 352.218,-93.5034 361.377,-98.829 362.699,-91.9549"/>
</g>
<!-- Node13 -->
<g id="node13" class="node"><title>Node13</title>
<polygon fill="none" stroke="#bfbfbf" points="404,-74.5 404,-93.5 564,-93.5 564,-74.5 404,-74.5"/>
<text text-anchor="middle" x="484" y="-81.5" font-family="Helvetica,sans-Serif" font-size="10.00">Math/GenVector/Translation3D.h</text>
</g>
<!-- Node8&#45;&gt;Node13 -->
<g id="edge13" class="edge"><title>Node8&#45;&gt;Node13</title>
<path fill="none" stroke="midnightblue" d="M600.515,-136.403C577.59,-126.29 539.315,-109.404 512.925,-97.761"/>
<polygon fill="midnightblue" stroke="midnightblue" points="514.011,-94.4148 503.449,-93.5806 511.186,-100.819 514.011,-94.4148"/>
</g>
<!-- Node14 -->
<g id="node14" class="node"><title>Node14</title>
<polygon fill="none" stroke="#bfbfbf" points="582,-74.5 582,-93.5 658,-93.5 658,-74.5 582,-74.5"/>
<text text-anchor="middle" x="620" y="-81.5" font-family="Helvetica,sans-Serif" font-size="10.00">TGeoMatrix.h</text>
</g>
<!-- Node8&#45;&gt;Node14 -->
<g id="edge15" class="edge"><title>Node8&#45;&gt;Node14</title>
<path fill="none" stroke="midnightblue" d="M620,-136.403C620,-127.938 620,-114.728 620,-103.82"/>
<polygon fill="midnightblue" stroke="midnightblue" points="623.5,-103.581 620,-93.5806 616.5,-103.581 623.5,-103.581"/>
</g>
<!-- Node15 -->
<g id="node15" class="node"><title>Node15</title>
<g id="a_node15"><a xlink:href="../../d2/dd0/Cartesian2D_8h.html" target="_top" xlink:title="MathUtils/Cartesian2D.h">
<polygon fill="none" stroke="black" points="676.5,-74.5 676.5,-93.5 801.5,-93.5 801.5,-74.5 676.5,-74.5"/>
<text text-anchor="middle" x="739" y="-81.5" font-family="Helvetica,sans-Serif" font-size="10.00">MathUtils/Cartesian2D.h</text>
</a>
</g>
</g>
<!-- Node8&#45;&gt;Node15 -->
<g id="edge17" class="edge"><title>Node8&#45;&gt;Node15</title>
<path fill="none" stroke="midnightblue" d="M637.05,-136.403C656.844,-126.423 689.717,-109.849 712.77,-98.2253"/>
<polygon fill="midnightblue" stroke="midnightblue" points="714.628,-101.208 721.982,-93.5806 711.477,-94.9575 714.628,-101.208"/>
</g>
<!-- Node16 -->
<g id="node16" class="node"><title>Node16</title>
<polygon fill="none" stroke="#bfbfbf" points="572.5,-1 572.5,-31 723.5,-31 723.5,-1 572.5,-1"/>
<text text-anchor="start" x="580.5" y="-19" font-family="Helvetica,sans-Serif" font-size="10.00">Math/GenVector/Displacement</text>
<text text-anchor="middle" x="648" y="-8" font-family="Helvetica,sans-Serif" font-size="10.00">Vector2D.h</text>
</g>
<!-- Node15&#45;&gt;Node16 -->
<g id="edge18" class="edge"><title>Node15&#45;&gt;Node16</title>
<path fill="none" stroke="midnightblue" d="M727.103,-74.3717C714.221,-65.0286 693.22,-49.7966 676.093,-37.375"/>
<polygon fill="midnightblue" stroke="midnightblue" points="677.703,-34.2194 667.553,-31.1815 673.593,-39.8859 677.703,-34.2194"/>
</g>
<!-- Node17 -->
<g id="node17" class="node"><title>Node17</title>
<polygon fill="none" stroke="#bfbfbf" points="742,-6.5 742,-25.5 918,-25.5 918,-6.5 742,-6.5"/>
<text text-anchor="middle" x="830" y="-13.5" font-family="Helvetica,sans-Serif" font-size="10.00">Math/GenVector/PositionVector2D.h</text>
</g>
<!-- Node15&#45;&gt;Node17 -->
<g id="edge19" class="edge"><title>Node15&#45;&gt;Node17</title>
<path fill="none" stroke="midnightblue" d="M750.897,-74.3717C765.884,-63.5015 791.862,-44.6602 809.942,-31.5474"/>
<polygon fill="midnightblue" stroke="midnightblue" points="812.06,-34.3349 818.1,-25.6305 807.95,-28.6684 812.06,-34.3349"/>
</g>
<!-- Node18&#45;&gt;Node4 -->
<g id="edge32" class="edge"><title>Node18&#45;&gt;Node4</title>
<path fill="none" stroke="midnightblue" d="M1601.66,-198.262C1593.5,-182.831 1574.27,-150.974 1548,-136 1497.55,-107.247 1326.37,-92.605 1249.24,-87.3377"/>
<polygon fill="midnightblue" stroke="midnightblue" points="1249.21,-83.8283 1239,-86.6562 1248.75,-90.8128 1249.21,-83.8283"/>
</g>
<!-- Node19 -->
<g id="node19" class="node"><title>Node19</title>
<polygon fill="none" stroke="#bfbfbf" points="1710.5,-74.5 1710.5,-93.5 1745.5,-93.5 1745.5,-74.5 1710.5,-74.5"/>
<text text-anchor="middle" x="1728" y="-81.5" font-family="Helvetica,sans-Serif" font-size="10.00">map</text>
</g>
<!-- Node18&#45;&gt;Node19 -->
<g id="edge21" class="edge"><title>Node18&#45;&gt;Node19</title>
<path fill="none" stroke="midnightblue" d="M1606.11,-198.096C1606.75,-183.522 1609.96,-154.361 1625,-136 1644.27,-112.468 1677.12,-98.8773 1700.53,-91.7325"/>
<polygon fill="midnightblue" stroke="midnightblue" points="1701.58,-95.0753 1710.24,-88.9728 1699.66,-88.3423 1701.58,-95.0753"/>
</g>
<!-- Node20 -->
<g id="node20" class="node"><title>Node20</title>
<polygon fill="none" stroke="#bfbfbf" points="1138,-136.5 1138,-155.5 1182,-155.5 1182,-136.5 1138,-136.5"/>
<text text-anchor="middle" x="1160" y="-143.5" font-family="Helvetica,sans-Serif" font-size="10.00">vector</text>
</g>
<!-- Node18&#45;&gt;Node20 -->
<g id="edge22" class="edge"><title>Node18&#45;&gt;Node20</title>
<path fill="none" stroke="midnightblue" d="M1540.42,-202.209C1460.27,-195.624 1320.45,-181.79 1192.24,-155.964"/>
<polygon fill="midnightblue" stroke="midnightblue" points="1192.74,-152.494 1182.24,-153.921 1191.34,-159.352 1192.74,-152.494"/>
</g>
<!-- Node21 -->
<g id="node21" class="node"><title>Node21</title>
<polygon fill="none" stroke="#bfbfbf" points="2154.5,-74.5 2154.5,-93.5 2227.5,-93.5 2227.5,-74.5 2154.5,-74.5"/>
<text text-anchor="middle" x="2191" y="-81.5" font-family="Helvetica,sans-Serif" font-size="10.00">initializer_list</text>
</g>
<!-- Node18&#45;&gt;Node21 -->
<g id="edge23" class="edge"><title>Node18&#45;&gt;Node21</title>
<path fill="none" stroke="midnightblue" d="M1671.6,-207.436C1843.47,-207.897 2296.78,-204.462 2342,-156 2376.42,-119.113 2294.12,-99.5546 2237.98,-90.8195"/>
<polygon fill="midnightblue" stroke="midnightblue" points="2238.24,-87.3201 2227.84,-89.3127 2237.22,-94.2442 2238.24,-87.3201"/>
</g>
<!-- Node22 -->
<g id="node22" class="node"><title>Node22</title>
<polygon fill="none" stroke="#bfbfbf" points="1200,-136.5 1200,-155.5 1252,-155.5 1252,-136.5 1200,-136.5"/>
<text text-anchor="middle" x="1226" y="-143.5" font-family="Helvetica,sans-Serif" font-size="10.00">memory</text>
</g>
<!-- Node18&#45;&gt;Node22 -->
<g id="edge24" class="edge"><title>Node18&#45;&gt;Node22</title>
<path fill="none" stroke="midnightblue" d="M1540.47,-199.392C1472.98,-191.088 1364.62,-176.453 1262.2,-156.07"/>
<polygon fill="midnightblue" stroke="midnightblue" points="1262.8,-152.621 1252.3,-154.08 1261.42,-159.484 1262.8,-152.621"/>
</g>
<!-- Node23 -->
<g id="node23" class="node"><title>Node23</title>
<polygon fill="none" stroke="#bfbfbf" points="1270.5,-136.5 1270.5,-155.5 1349.5,-155.5 1349.5,-136.5 1270.5,-136.5"/>
<text text-anchor="middle" x="1310" y="-143.5" font-family="Helvetica,sans-Serif" font-size="10.00">FairDetector.h</text>
</g>
<!-- Node18&#45;&gt;Node23 -->
<g id="edge25" class="edge"><title>Node18&#45;&gt;Node23</title>
<path fill="none" stroke="midnightblue" d="M1563.9,-198.467C1510,-187.541 1416.74,-168.636 1359.49,-157.032"/>
<polygon fill="midnightblue" stroke="midnightblue" points="1360.08,-153.58 1349.59,-155.024 1358.69,-160.441 1360.08,-153.58"/>
</g>
<!-- Node24 -->
<g id="node24" class="node"><title>Node24</title>
<polygon fill="none" stroke="#bfbfbf" points="1368,-136.5 1368,-155.5 1468,-155.5 1468,-136.5 1368,-136.5"/>
<text text-anchor="middle" x="1418" y="-143.5" font-family="Helvetica,sans-Serif" font-size="10.00">FairRootManager.h</text>
</g>
<!-- Node18&#45;&gt;Node24 -->
<g id="edge26" class="edge"><title>Node18&#45;&gt;Node24</title>
<path fill="none" stroke="midnightblue" d="M1579.06,-198.403C1546.4,-187.978 1491.18,-170.356 1454.66,-158.699"/>
<polygon fill="midnightblue" stroke="midnightblue" points="1455.48,-155.287 1444.89,-155.581 1453.35,-161.955 1455.48,-155.287"/>
</g>
<!-- Node25 -->
<g id="node25" class="node"><title>Node25</title>
<g id="a_node25"><a xlink:href="../../d0/d9a/MaterialManager_8h.html" target="_top" xlink:title="DetectorsBase/MaterialManager.h">
<polygon fill="none" stroke="black" points="1843.5,-136.5 1843.5,-155.5 2008.5,-155.5 2008.5,-136.5 1843.5,-136.5"/>
<text text-anchor="middle" x="1926" y="-143.5" font-family="Helvetica,sans-Serif" font-size="10.00">DetectorsBase/MaterialManager.h</text>
</a>
</g>
</g>
<!-- Node18&#45;&gt;Node25 -->
<g id="edge27" class="edge"><title>Node18&#45;&gt;Node25</title>
<path fill="none" stroke="midnightblue" d="M1651.51,-198.467C1709.21,-187.649 1808.62,-169.009 1870.65,-157.378"/>
<polygon fill="midnightblue" stroke="midnightblue" points="1871.46,-160.786 1880.65,-155.503 1870.17,-153.906 1871.46,-160.786"/>
</g>
<!-- Node27 -->
<g id="node27" class="node"><title>Node27</title>
<polygon fill="none" stroke="#bfbfbf" points="1486.5,-136.5 1486.5,-155.5 1539.5,-155.5 1539.5,-136.5 1486.5,-136.5"/>
<text text-anchor="middle" x="1513" y="-143.5" font-family="Helvetica,sans-Serif" font-size="10.00">cxxabi.h</text>
</g>
<!-- Node18&#45;&gt;Node27 -->
<g id="edge33" class="edge"><title>Node18&#45;&gt;Node27</title>
<path fill="none" stroke="midnightblue" d="M1592.68,-198.403C1577.62,-188.691 1552.88,-172.732 1534.96,-161.17"/>
<polygon fill="midnightblue" stroke="midnightblue" points="1536.6,-158.061 1526.3,-155.581 1532.81,-163.943 1536.6,-158.061"/>
</g>
<!-- Node28 -->
<g id="node28" class="node"><title>Node28</title>
<polygon fill="none" stroke="#bfbfbf" points="1634.5,-136.5 1634.5,-155.5 1685.5,-155.5 1685.5,-136.5 1634.5,-136.5"/>
<text text-anchor="middle" x="1660" y="-143.5" font-family="Helvetica,sans-Serif" font-size="10.00">typeinfo</text>
</g>
<!-- Node18&#45;&gt;Node28 -->
<g id="edge34" class="edge"><title>Node18&#45;&gt;Node28</title>
<path fill="none" stroke="midnightblue" d="M1613.74,-198.403C1622,-189.225 1635.28,-174.47 1645.49,-163.117"/>
<polygon fill="midnightblue" stroke="midnightblue" points="1648.19,-165.355 1652.28,-155.581 1642.99,-160.672 1648.19,-165.355"/>
</g>
<!-- Node29 -->
<g id="node29" class="node"><title>Node29</title>
<polygon fill="none" stroke="#bfbfbf" points="1704,-136.5 1704,-155.5 1766,-155.5 1766,-136.5 1704,-136.5"/>
<text text-anchor="middle" x="1735" y="-143.5" font-family="Helvetica,sans-Serif" font-size="10.00">type_traits</text>
</g>
<!-- Node18&#45;&gt;Node29 -->
<g id="edge35" class="edge"><title>Node18&#45;&gt;Node29</title>
<path fill="none" stroke="midnightblue" d="M1624.48,-198.403C1646.13,-188.334 1682.21,-171.552 1707.23,-159.915"/>
<polygon fill="midnightblue" stroke="midnightblue" points="1708.96,-162.971 1716.55,-155.581 1706.01,-156.624 1708.96,-162.971"/>
</g>
<!-- Node30 -->
<g id="node30" class="node"><title>Node30</title>
<polygon fill="none" stroke="#bfbfbf" points="1784.5,-136.5 1784.5,-155.5 1825.5,-155.5 1825.5,-136.5 1784.5,-136.5"/>
<text text-anchor="middle" x="1805" y="-143.5" font-family="Helvetica,sans-Serif" font-size="10.00">string</text>
</g>
<!-- Node18&#45;&gt;Node30 -->
<g id="edge36" class="edge"><title>Node18&#45;&gt;Node30</title>
<path fill="none" stroke="midnightblue" d="M1634.51,-198.403C1671.64,-187.208 1736.3,-167.713 1774.42,-156.219"/>
<polygon fill="midnightblue" stroke="midnightblue" points="1775.86,-159.441 1784.43,-153.203 1773.84,-152.739 1775.86,-159.441"/>
</g>
<!-- Node31 -->
<g id="node31" class="node"><title>Node31</title>
<polygon fill="none" stroke="#bfbfbf" points="2026.5,-136.5 2026.5,-155.5 2119.5,-155.5 2119.5,-136.5 2026.5,-136.5"/>
<text text-anchor="middle" x="2073" y="-143.5" font-family="Helvetica,sans-Serif" font-size="10.00">FairMQChannel.h</text>
</g>
<!-- Node18&#45;&gt;Node31 -->
<g id="edge37" class="edge"><title>Node18&#45;&gt;Node31</title>
<path fill="none" stroke="midnightblue" d="M1671.58,-199.597C1750.72,-190.499 1888.08,-174.183 2016.27,-156.059"/>
<polygon fill="midnightblue" stroke="midnightblue" points="2016.86,-159.51 2026.27,-154.639 2015.88,-152.58 2016.86,-159.51"/>
</g>
<!-- Node32 -->
<g id="node32" class="node"><title>Node32</title>
<polygon fill="none" stroke="#bfbfbf" points="2137.5,-136.5 2137.5,-155.5 2234.5,-155.5 2234.5,-136.5 2137.5,-136.5"/>
<text text-anchor="middle" x="2186" y="-143.5" font-family="Helvetica,sans-Serif" font-size="10.00">FairMQMessage.h</text>
</g>
<!-- Node18&#45;&gt;Node32 -->
<g id="edge38" class="edge"><title>Node18&#45;&gt;Node32</title>
<path fill="none" stroke="midnightblue" d="M1671.65,-201.786C1768.78,-193.804 1956.74,-177.345 2127.13,-156.041"/>
<polygon fill="midnightblue" stroke="midnightblue" points="2127.81,-159.484 2137.29,-154.762 2126.94,-152.539 2127.81,-159.484"/>
</g>
<!-- Node33 -->
<g id="node33" class="node"><title>Node33</title>
<polygon fill="none" stroke="#bfbfbf" points="2253,-136.5 2253,-155.5 2333,-155.5 2333,-136.5 2253,-136.5"/>
<text text-anchor="middle" x="2293" y="-143.5" font-family="Helvetica,sans-Serif" font-size="10.00">FairMQParts.h</text>
</g>
<!-- Node18&#45;&gt;Node33 -->
<g id="edge39" class="edge"><title>Node18&#45;&gt;Node33</title>
<path fill="none" stroke="midnightblue" d="M1671.79,-203.867C1787.61,-197.877 2035.33,-182.937 2243,-156 2243.1,-155.987 2243.2,-155.974 2243.3,-155.96"/>
<polygon fill="midnightblue" stroke="midnightblue" points="2243.54,-159.463 2252.94,-154.569 2242.54,-152.535 2243.54,-159.463"/>
</g>
<!-- Node34 -->
<g id="node34" class="node"><title>Node34</title>
<polygon fill="none" stroke="#bfbfbf" points="1048.5,-136.5 1048.5,-155.5 1119.5,-155.5 1119.5,-136.5 1048.5,-136.5"/>
<text text-anchor="middle" x="1084" y="-143.5" font-family="Helvetica,sans-Serif" font-size="10.00">TMessage.h</text>
</g>
<!-- Node18&#45;&gt;Node34 -->
<g id="edge40" class="edge"><title>Node18&#45;&gt;Node34</title>
<path fill="none" stroke="midnightblue" d="M1540.17,-201.867C1449.91,-194.405 1282.51,-179.055 1129.84,-155.997"/>
<polygon fill="midnightblue" stroke="midnightblue" points="1130.22,-152.514 1119.81,-154.467 1129.17,-159.434 1130.22,-152.514"/>
</g>
<!-- Node25&#45;&gt;Node4 -->
<g id="edge28" class="edge"><title>Node25&#45;&gt;Node4</title>
<path fill="none" stroke="midnightblue" d="M1843.25,-136.843C1840.13,-136.555 1837.04,-136.273 1834,-136 1612.65,-116.114 1346.77,-95.4077 1249.25,-87.9189"/>
<polygon fill="midnightblue" stroke="midnightblue" points="1249.5,-84.4286 1239.27,-87.1536 1248.97,-91.4081 1249.5,-84.4286"/>
</g>
<!-- Node25&#45;&gt;Node19 -->
<g id="edge29" class="edge"><title>Node25&#45;&gt;Node19</title>
<path fill="none" stroke="midnightblue" d="M1897.63,-136.403C1859.71,-124.911 1792.93,-104.676 1755.47,-93.324"/>
<polygon fill="midnightblue" stroke="midnightblue" points="1756.31,-89.923 1745.73,-90.3724 1754.28,-96.6222 1756.31,-89.923"/>
</g>
<!-- Node25&#45;&gt;Node21 -->
<g id="edge31" class="edge"><title>Node25&#45;&gt;Node21</title>
<path fill="none" stroke="midnightblue" d="M1963.69,-136.467C2011.24,-125.7 2093.02,-107.184 2144.44,-95.5426"/>
<polygon fill="midnightblue" stroke="midnightblue" points="2145.32,-98.9323 2154.3,-93.3104 2143.77,-92.1051 2145.32,-98.9323"/>
</g>
<!-- Node26 -->
<g id="node26" class="node"><title>Node26</title>
<polygon fill="none" stroke="#bfbfbf" points="1884.5,-74.5 1884.5,-93.5 1967.5,-93.5 1967.5,-74.5 1884.5,-74.5"/>
<text text-anchor="middle" x="1926" y="-81.5" font-family="Helvetica,sans-Serif" font-size="10.00">unordered_map</text>
</g>
<!-- Node25&#45;&gt;Node26 -->
<g id="edge30" class="edge"><title>Node25&#45;&gt;Node26</title>
<path fill="none" stroke="midnightblue" d="M1926,-136.403C1926,-127.938 1926,-114.728 1926,-103.82"/>
<polygon fill="midnightblue" stroke="midnightblue" points="1929.5,-103.581 1926,-93.5806 1922.5,-103.581 1929.5,-103.581"/>
</g>
<!-- Node35&#45;&gt;Node4 -->
<g id="edge42" class="edge"><title>Node35&#45;&gt;Node4</title>
<path fill="none" stroke="midnightblue" d="M954.478,-198.376C949.114,-183.685 941.009,-153.683 956,-136 987.61,-98.7144 1125.89,-113.047 1173,-100 1175.98,-99.1747 1179.05,-98.1956 1182.08,-97.1389"/>
<polygon fill="midnightblue" stroke="midnightblue" points="1183.41,-100.379 1191.55,-93.5926 1180.96,-93.8244 1183.41,-100.379"/>
</g>
<!-- Node36 -->
<g id="node36" class="node"><title>Node36</title>
<polygon fill="none" stroke="#bfbfbf" points="965.5,-136.5 965.5,-155.5 1030.5,-155.5 1030.5,-136.5 965.5,-136.5"/>
<text text-anchor="middle" x="998" y="-143.5" font-family="Helvetica,sans-Serif" font-size="10.00">TVector3.h</text>
</g>
<!-- Node35&#45;&gt;Node36 -->
<g id="edge43" class="edge"><title>Node35&#45;&gt;Node36</title>
<path fill="none" stroke="midnightblue" d="M963.731,-198.403C969.672,-189.493 979.117,-175.325 986.588,-164.118"/>
<polygon fill="midnightblue" stroke="midnightblue" points="989.645,-165.843 992.28,-155.581 983.82,-161.96 989.645,-165.843"/>
</g>
</g>
</svg>
