<?xml version="1.0" encoding="UTF-8" standalone="no"?>
<!DOCTYPE svg PUBLIC "-//W3C//DTD SVG 1.1//EN"
 "http://www.w3.org/Graphics/SVG/1.1/DTD/svg11.dtd">
<!-- Generated by graphviz version 2.36.0 (20140111.2315)
 -->
<!-- Title: /home/travis/build/AliceO2Group/AliceO2/Framework/Core/include/Framework/DataSamplingConfig.h Pages: 1 -->
<svg width="1257pt" height="298pt"
 viewBox="0.00 0.00 1257.00 298.00" xmlns="http://www.w3.org/2000/svg" xmlns:xlink="http://www.w3.org/1999/xlink">
<g id="graph0" class="graph" transform="scale(1 1) rotate(0) translate(4 294)">
<title>/home/travis/build/AliceO2Group/AliceO2/Framework/Core/include/Framework/DataSamplingConfig.h</title>
<!-- Node1 -->
<g id="node1" class="node"><title>Node1</title>
<polygon fill="#bfbfbf" stroke="black" points="17,-237 17,-289 187,-289 187,-237 17,-237"/>
<text text-anchor="start" x="25" y="-277" font-family="Helvetica,sans-Serif" font-size="10.00">/home/travis/build</text>
<text text-anchor="start" x="25" y="-266" font-family="Helvetica,sans-Serif" font-size="10.00">/AliceO2Group/AliceO2</text>
<text text-anchor="start" x="25" y="-255" font-family="Helvetica,sans-Serif" font-size="10.00">/Framework/Core/include</text>
<text text-anchor="middle" x="102" y="-244" font-family="Helvetica,sans-Serif" font-size="10.00">/Framework/DataSamplingConfig.h</text>
</g>
<!-- Node2 -->
<g id="node2" class="node"><title>Node2</title>
<polygon fill="none" stroke="#bfbfbf" points="59,-6.5 59,-25.5 103,-25.5 103,-6.5 59,-6.5"/>
<text text-anchor="middle" x="81" y="-13.5" font-family="Helvetica,sans-Serif" font-size="10.00">vector</text>
</g>
<!-- Node1&#45;&gt;Node2 -->
<g id="edge1" class="edge"><title>Node1&#45;&gt;Node2</title>
<path fill="none" stroke="midnightblue" d="M62.3832,-236.88C50.3191,-226.994 38.5303,-214.508 32,-200 5.95087,-142.13 47.0062,-67.534 68.8081,-34.3013"/>
<polygon fill="midnightblue" stroke="midnightblue" points="71.9073,-35.9669 74.6186,-25.7249 66.112,-32.0406 71.9073,-35.9669"/>
</g>
<!-- Node3 -->
<g id="node3" class="node"><title>Node3</title>
<polygon fill="none" stroke="#bfbfbf" points="-0.5,-6.5 -0.5,-25.5 40.5,-25.5 40.5,-6.5 -0.5,-6.5"/>
<text text-anchor="middle" x="20" y="-13.5" font-family="Helvetica,sans-Serif" font-size="10.00">string</text>
</g>
<!-- Node1&#45;&gt;Node3 -->
<g id="edge2" class="edge"><title>Node1&#45;&gt;Node3</title>
<path fill="none" stroke="midnightblue" d="M55.7503,-236.985C42.4261,-227.308 29.4806,-214.923 22,-200 -5.24737,-145.644 7.12401,-70.2934 15.1077,-35.7101"/>
<polygon fill="midnightblue" stroke="midnightblue" points="18.5962,-36.1803 17.5834,-25.634 11.7984,-34.51 18.5962,-36.1803"/>
</g>
<!-- Node4 -->
<g id="node4" class="node"><title>Node4</title>
<g id="a_node4"><a xlink:href="../../d5/d3f/InputSpec_8h.html" target="_top" xlink:title="Framework/InputSpec.h">
<polygon fill="none" stroke="black" points="41.5,-180.5 41.5,-199.5 162.5,-199.5 162.5,-180.5 41.5,-180.5"/>
<text text-anchor="middle" x="102" y="-187.5" font-family="Helvetica,sans-Serif" font-size="10.00">Framework/InputSpec.h</text>
</a>
</g>
</g>
<!-- Node1&#45;&gt;Node4 -->
<g id="edge3" class="edge"><title>Node1&#45;&gt;Node4</title>
<path fill="none" stroke="midnightblue" d="M102,-236.768C102,-227.89 102,-218.074 102,-209.816"/>
<polygon fill="midnightblue" stroke="midnightblue" points="105.5,-209.757 102,-199.757 98.5001,-209.757 105.5,-209.757"/>
</g>
<!-- Node7 -->
<g id="node7" class="node"><title>Node7</title>
<g id="a_node7"><a xlink:href="../../dc/dcd/DataHeader_8h.html" target="_top" xlink:title="Headers/DataHeader.h">
<polygon fill="none" stroke="black" points="278.5,-124.5 278.5,-143.5 395.5,-143.5 395.5,-124.5 278.5,-124.5"/>
<text text-anchor="middle" x="337" y="-131.5" font-family="Helvetica,sans-Serif" font-size="10.00">Headers/DataHeader.h</text>
</a>
</g>
</g>
<!-- Node1&#45;&gt;Node7 -->
<g id="edge31" class="edge"><title>Node1&#45;&gt;Node7</title>
<path fill="none" stroke="midnightblue" d="M187.175,-256.85C231.542,-249.863 283.57,-234.263 318,-200 330.099,-187.959 334.586,-168.669 336.203,-154.225"/>
<polygon fill="midnightblue" stroke="midnightblue" points="339.719,-154.145 336.975,-143.912 332.738,-153.622 339.719,-154.145"/>
</g>
<!-- Node24 -->
<g id="node24" class="node"><title>Node24</title>
<g id="a_node24"><a xlink:href="../../db/d2d/OutputSpec_8h.html" target="_top" xlink:title="Framework/OutputSpec.h">
<polygon fill="none" stroke="black" points="181,-180.5 181,-199.5 309,-199.5 309,-180.5 181,-180.5"/>
<text text-anchor="middle" x="245" y="-187.5" font-family="Helvetica,sans-Serif" font-size="10.00">Framework/OutputSpec.h</text>
</a>
</g>
</g>
<!-- Node1&#45;&gt;Node24 -->
<g id="edge28" class="edge"><title>Node1&#45;&gt;Node24</title>
<path fill="none" stroke="midnightblue" d="M152.416,-236.968C174.739,-225.885 200.073,-213.306 218.591,-204.112"/>
<polygon fill="midnightblue" stroke="midnightblue" points="220.2,-207.221 227.601,-199.639 217.087,-200.951 220.2,-207.221"/>
</g>
<!-- Node4&#45;&gt;Node3 -->
<g id="edge4" class="edge"><title>Node4&#45;&gt;Node3</title>
<path fill="none" stroke="midnightblue" d="M94.958,-180.451C87.9809,-171.692 77.3078,-157.485 70,-144 50.0362,-107.16 33.7956,-60.618 25.66,-35.3553"/>
<polygon fill="midnightblue" stroke="midnightblue" points="28.9412,-34.1222 22.595,-25.6383 22.2654,-36.228 28.9412,-34.1222"/>
</g>
<!-- Node5 -->
<g id="node5" class="node"><title>Node5</title>
<polygon fill="none" stroke="#bfbfbf" points="79,-124.5 79,-143.5 131,-143.5 131,-124.5 79,-124.5"/>
<text text-anchor="middle" x="105" y="-131.5" font-family="Helvetica,sans-Serif" font-size="10.00">ostream</text>
</g>
<!-- Node4&#45;&gt;Node5 -->
<g id="edge5" class="edge"><title>Node4&#45;&gt;Node5</title>
<path fill="none" stroke="midnightblue" d="M102.495,-180.083C102.889,-173.006 103.452,-162.861 103.945,-153.986"/>
<polygon fill="midnightblue" stroke="midnightblue" points="107.454,-153.93 104.514,-143.751 100.464,-153.542 107.454,-153.93"/>
</g>
<!-- Node6 -->
<g id="node6" class="node"><title>Node6</title>
<g id="a_node6"><a xlink:href="../../dc/dca/Lifetime_8h.html" target="_top" xlink:title="Framework/Lifetime.h">
<polygon fill="none" stroke="black" points="149.5,-124.5 149.5,-143.5 260.5,-143.5 260.5,-124.5 149.5,-124.5"/>
<text text-anchor="middle" x="205" y="-131.5" font-family="Helvetica,sans-Serif" font-size="10.00">Framework/Lifetime.h</text>
</a>
</g>
</g>
<!-- Node4&#45;&gt;Node6 -->
<g id="edge6" class="edge"><title>Node4&#45;&gt;Node6</title>
<path fill="none" stroke="midnightblue" d="M118.549,-180.324C134.992,-171.703 160.435,-158.364 179.468,-148.386"/>
<polygon fill="midnightblue" stroke="midnightblue" points="181.261,-151.398 188.492,-143.655 178.011,-145.198 181.261,-151.398"/>
</g>
<!-- Node4&#45;&gt;Node7 -->
<g id="edge7" class="edge"><title>Node4&#45;&gt;Node7</title>
<path fill="none" stroke="midnightblue" d="M139.236,-180.444C180.06,-171.063 245.643,-155.993 289.984,-145.804"/>
<polygon fill="midnightblue" stroke="midnightblue" points="290.976,-149.167 299.938,-143.516 289.408,-142.345 290.976,-149.167"/>
</g>
<!-- Node7&#45;&gt;Node3 -->
<g id="edge14" class="edge"><title>Node7&#45;&gt;Node3</title>
<path fill="none" stroke="midnightblue" d="M280.688,-124.477C225.001,-115.533 144.029,-100.995 115,-88 84.3143,-74.2633 54.1253,-49.166 36.2827,-32.7884"/>
<polygon fill="midnightblue" stroke="midnightblue" points="38.251,-29.8352 28.5673,-25.5369 33.457,-34.9359 38.251,-29.8352"/>
</g>
<!-- Node8 -->
<g id="node8" class="node"><title>Node8</title>
<polygon fill="none" stroke="#bfbfbf" points="314,-68.5 314,-87.5 360,-87.5 360,-68.5 314,-68.5"/>
<text text-anchor="middle" x="337" y="-75.5" font-family="Helvetica,sans-Serif" font-size="10.00">cstdint</text>
</g>
<!-- Node7&#45;&gt;Node8 -->
<g id="edge8" class="edge"><title>Node7&#45;&gt;Node8</title>
<path fill="none" stroke="midnightblue" d="M337,-124.083C337,-117.006 337,-106.861 337,-97.9865"/>
<polygon fill="midnightblue" stroke="midnightblue" points="340.5,-97.751 337,-87.7511 333.5,-97.7511 340.5,-97.751"/>
</g>
<!-- Node9 -->
<g id="node9" class="node"><title>Node9</title>
<polygon fill="none" stroke="#bfbfbf" points="590,-68.5 590,-87.5 642,-87.5 642,-68.5 590,-68.5"/>
<text text-anchor="middle" x="616" y="-75.5" font-family="Helvetica,sans-Serif" font-size="10.00">memory</text>
</g>
<!-- Node7&#45;&gt;Node9 -->
<g id="edge9" class="edge"><title>Node7&#45;&gt;Node9</title>
<path fill="none" stroke="midnightblue" d="M388.384,-124.435C435.479,-116.371 507.36,-103.527 579.517,-87.9856"/>
<polygon fill="midnightblue" stroke="midnightblue" points="580.668,-91.3173 589.698,-85.775 579.183,-84.4767 580.668,-91.3173"/>
</g>
<!-- Node10 -->
<g id="node10" class="node"><title>Node10</title>
<polygon fill="none" stroke="#bfbfbf" points="660.5,-68.5 660.5,-87.5 709.5,-87.5 709.5,-68.5 660.5,-68.5"/>
<text text-anchor="middle" x="685" y="-75.5" font-family="Helvetica,sans-Serif" font-size="10.00">cassert</text>
</g>
<!-- Node7&#45;&gt;Node10 -->
<g id="edge10" class="edge"><title>Node7&#45;&gt;Node10</title>
<path fill="none" stroke="midnightblue" d="M395.51,-126.68C456.673,-119.609 555.581,-106.873 650.172,-87.9545"/>
<polygon fill="midnightblue" stroke="midnightblue" points="651.091,-91.3395 660.196,-85.9227 649.7,-84.479 651.091,-91.3395"/>
</g>
<!-- Node11 -->
<g id="node11" class="node"><title>Node11</title>
<polygon fill="none" stroke="#bfbfbf" points="121,-6.5 121,-25.5 167,-25.5 167,-6.5 121,-6.5"/>
<text text-anchor="middle" x="144" y="-13.5" font-family="Helvetica,sans-Serif" font-size="10.00">cstring</text>
</g>
<!-- Node7&#45;&gt;Node11 -->
<g id="edge11" class="edge"><title>Node7&#45;&gt;Node11</title>
<path fill="none" stroke="midnightblue" d="M329.489,-124.349C317.325,-110.78 292.038,-84.3575 266,-68 229.52,-45.0827 215.521,-49.1498 176,-32 174.413,-31.3115 172.788,-30.5928 171.152,-29.8589"/>
<polygon fill="midnightblue" stroke="midnightblue" points="172.406,-26.5831 161.857,-25.5932 169.486,-32.9451 172.406,-26.5831"/>
</g>
<!-- Node12 -->
<g id="node12" class="node"><title>Node12</title>
<polygon fill="none" stroke="#bfbfbf" points="124,-68.5 124,-87.5 180,-87.5 180,-68.5 124,-68.5"/>
<text text-anchor="middle" x="152" y="-75.5" font-family="Helvetica,sans-Serif" font-size="10.00">algorithm</text>
</g>
<!-- Node7&#45;&gt;Node12 -->
<g id="edge12" class="edge"><title>Node7&#45;&gt;Node12</title>
<path fill="none" stroke="midnightblue" d="M307.686,-124.444C275.879,-115.159 224.98,-100.302 190.095,-90.1197"/>
<polygon fill="midnightblue" stroke="midnightblue" points="190.847,-86.6931 180.267,-87.2508 188.885,-93.4127 190.847,-86.6931"/>
</g>
<!-- Node13 -->
<g id="node13" class="node"><title>Node13</title>
<polygon fill="none" stroke="#bfbfbf" points="198.5,-68.5 198.5,-87.5 257.5,-87.5 257.5,-68.5 198.5,-68.5"/>
<text text-anchor="middle" x="228" y="-75.5" font-family="Helvetica,sans-Serif" font-size="10.00">stdexcept</text>
</g>
<!-- Node7&#45;&gt;Node13 -->
<g id="edge13" class="edge"><title>Node7&#45;&gt;Node13</title>
<path fill="none" stroke="midnightblue" d="M319.487,-124.324C301.928,-115.625 274.669,-102.12 254.469,-92.113"/>
<polygon fill="midnightblue" stroke="midnightblue" points="255.984,-88.9575 245.469,-87.6545 252.876,-95.23 255.984,-88.9575"/>
</g>
<!-- Node14 -->
<g id="node14" class="node"><title>Node14</title>
<g id="a_node14"><a xlink:href="../../dc/d03/MemoryResources_8h.html" target="_top" xlink:title="MemoryResources/MemoryResources.h">
<polygon fill="none" stroke="black" points="378.5,-68.5 378.5,-87.5 571.5,-87.5 571.5,-68.5 378.5,-68.5"/>
<text text-anchor="middle" x="475" y="-75.5" font-family="Helvetica,sans-Serif" font-size="10.00">MemoryResources/MemoryResources.h</text>
</a>
</g>
</g>
<!-- Node7&#45;&gt;Node14 -->
<g id="edge15" class="edge"><title>Node7&#45;&gt;Node14</title>
<path fill="none" stroke="midnightblue" d="M358.867,-124.444C381.779,-115.478 417.975,-101.314 443.866,-91.1827"/>
<polygon fill="midnightblue" stroke="midnightblue" points="445.199,-94.4198 453.236,-87.5164 442.648,-87.9011 445.199,-94.4198"/>
</g>
<!-- Node14&#45;&gt;Node2 -->
<g id="edge24" class="edge"><title>Node14&#45;&gt;Node2</title>
<path fill="none" stroke="midnightblue" d="M378.149,-68.5892C287.917,-60.1016 160.268,-46.2462 112,-32 109.81,-31.3537 107.584,-30.5664 105.381,-29.6946"/>
<polygon fill="midnightblue" stroke="midnightblue" points="106.611,-26.4105 96.0549,-25.5067 103.744,-32.7962 106.611,-26.4105"/>
</g>
<!-- Node14&#45;&gt;Node3 -->
<g id="edge21" class="edge"><title>Node14&#45;&gt;Node3</title>
<path fill="none" stroke="midnightblue" d="M378.401,-68.6053C262.739,-58.267 80.6884,-40.9766 50,-32 48.0299,-31.4237 46.0336,-30.7218 44.0555,-29.9396"/>
<polygon fill="midnightblue" stroke="midnightblue" points="45.0736,-26.5562 34.5246,-25.5719 42.1573,-32.9198 45.0736,-26.5562"/>
</g>
<!-- Node14&#45;&gt;Node11 -->
<g id="edge20" class="edge"><title>Node14&#45;&gt;Node11</title>
<path fill="none" stroke="midnightblue" d="M402.188,-68.4888C327.645,-59.3382 217.075,-44.43 176,-32 173.721,-31.3102 171.397,-30.4848 169.095,-29.5808"/>
<polygon fill="midnightblue" stroke="midnightblue" points="170.485,-26.3686 159.92,-25.5676 167.679,-32.7819 170.485,-26.3686"/>
</g>
<!-- Node15 -->
<g id="node15" class="node"><title>Node15</title>
<polygon fill="none" stroke="#bfbfbf" points="551,-1 551,-31 651,-31 651,-1 551,-1"/>
<text text-anchor="start" x="559" y="-19" font-family="Helvetica,sans-Serif" font-size="10.00">boost/container/flat</text>
<text text-anchor="middle" x="601" y="-8" font-family="Helvetica,sans-Serif" font-size="10.00">_map.hpp</text>
</g>
<!-- Node14&#45;&gt;Node15 -->
<g id="edge16" class="edge"><title>Node14&#45;&gt;Node15</title>
<path fill="none" stroke="midnightblue" d="M493.053,-68.4035C510.995,-59.8596 539.086,-46.483 562.114,-35.5171"/>
<polygon fill="midnightblue" stroke="midnightblue" points="563.78,-38.6002 571.304,-31.1408 560.771,-32.2802 563.78,-38.6002"/>
</g>
<!-- Node16 -->
<g id="node16" class="node"><title>Node16</title>
<polygon fill="none" stroke="#bfbfbf" points="669,-1 669,-31 785,-31 785,-1 669,-1"/>
<text text-anchor="start" x="677" y="-19" font-family="Helvetica,sans-Serif" font-size="10.00">boost/container/pmr</text>
<text text-anchor="middle" x="727" y="-8" font-family="Helvetica,sans-Serif" font-size="10.00">/memory_resource.hpp</text>
</g>
<!-- Node14&#45;&gt;Node16 -->
<g id="edge17" class="edge"><title>Node14&#45;&gt;Node16</title>
<path fill="none" stroke="midnightblue" d="M510.838,-68.4672C549.277,-59.3151 611.225,-44.5655 658.971,-33.1973"/>
<polygon fill="midnightblue" stroke="midnightblue" points="660.014,-36.5471 668.931,-30.826 658.392,-29.7374 660.014,-36.5471"/>
</g>
<!-- Node17 -->
<g id="node17" class="node"><title>Node17</title>
<polygon fill="none" stroke="#bfbfbf" points="803,-1 803,-31 959,-31 959,-1 803,-1"/>
<text text-anchor="start" x="811" y="-19" font-family="Helvetica,sans-Serif" font-size="10.00">boost/container/pmr</text>
<text text-anchor="middle" x="881" y="-8" font-family="Helvetica,sans-Serif" font-size="10.00">/monotonic_buffer_resource.hpp</text>
</g>
<!-- Node14&#45;&gt;Node17 -->
<g id="edge18" class="edge"><title>Node14&#45;&gt;Node17</title>
<path fill="none" stroke="midnightblue" d="M539.033,-68.4796C601.112,-60.0964 698.211,-46.661 792.78,-32.0062"/>
<polygon fill="midnightblue" stroke="midnightblue" points="793.466,-35.4417 802.809,-30.446 792.39,-28.5249 793.466,-35.4417"/>
</g>
<!-- Node18 -->
<g id="node18" class="node"><title>Node18</title>
<polygon fill="none" stroke="#bfbfbf" points="977.5,-1 977.5,-31 1110.5,-31 1110.5,-1 977.5,-1"/>
<text text-anchor="start" x="985.5" y="-19" font-family="Helvetica,sans-Serif" font-size="10.00">boost/container/pmr</text>
<text text-anchor="middle" x="1044" y="-8" font-family="Helvetica,sans-Serif" font-size="10.00">/polymorphic_allocator.hpp</text>
</g>
<!-- Node14&#45;&gt;Node18 -->
<g id="edge19" class="edge"><title>Node14&#45;&gt;Node18</title>
<path fill="none" stroke="midnightblue" d="M571.642,-68.7227C696.309,-57.9663 903.784,-39.7727 967.222,-31.9077"/>
<polygon fill="midnightblue" stroke="midnightblue" points="967.887,-35.3502 977.339,-30.5634 966.965,-28.4112 967.887,-35.3502"/>
</g>
<!-- Node19 -->
<g id="node19" class="node"><title>Node19</title>
<polygon fill="none" stroke="#bfbfbf" points="1129,-6.5 1129,-25.5 1191,-25.5 1191,-6.5 1129,-6.5"/>
<text text-anchor="middle" x="1160" y="-13.5" font-family="Helvetica,sans-Serif" font-size="10.00">type_traits</text>
</g>
<!-- Node14&#45;&gt;Node19 -->
<g id="edge22" class="edge"><title>Node14&#45;&gt;Node19</title>
<path fill="none" stroke="midnightblue" d="M571.757,-68.713C574.874,-68.4689 577.961,-68.2306 581,-68 819.958,-49.8621 884.558,-81.6686 1119,-32 1122.7,-31.2155 1126.52,-30.1663 1130.27,-28.9855"/>
<polygon fill="midnightblue" stroke="midnightblue" points="1131.6,-32.2292 1139.9,-25.644 1129.3,-25.6161 1131.6,-32.2292"/>
</g>
<!-- Node20 -->
<g id="node20" class="node"><title>Node20</title>
<polygon fill="none" stroke="#bfbfbf" points="1209,-6.5 1209,-25.5 1249,-25.5 1249,-6.5 1209,-6.5"/>
<text text-anchor="middle" x="1229" y="-13.5" font-family="Helvetica,sans-Serif" font-size="10.00">utility</text>
</g>
<!-- Node14&#45;&gt;Node20 -->
<g id="edge23" class="edge"><title>Node14&#45;&gt;Node20</title>
<path fill="none" stroke="midnightblue" d="M571.754,-68.6785C574.872,-68.4444 577.96,-68.2175 581,-68 718.215,-58.18 1066.09,-67.4875 1199,-32 1201.19,-31.4142 1203.42,-30.6587 1205.61,-29.7989"/>
<polygon fill="midnightblue" stroke="midnightblue" points="1207.2,-32.92 1214.82,-25.564 1204.27,-26.5595 1207.2,-32.92"/>
</g>
<!-- Node21 -->
<g id="node21" class="node"><title>Node21</title>
<polygon fill="none" stroke="#bfbfbf" points="185.5,-6.5 185.5,-25.5 268.5,-25.5 268.5,-6.5 185.5,-6.5"/>
<text text-anchor="middle" x="227" y="-13.5" font-family="Helvetica,sans-Serif" font-size="10.00">unordered_map</text>
</g>
<!-- Node14&#45;&gt;Node21 -->
<g id="edge25" class="edge"><title>Node14&#45;&gt;Node21</title>
<path fill="none" stroke="midnightblue" d="M433.465,-68.4195C393.263,-59.9123 330.691,-46.1375 277,-32 272.81,-30.8966 268.441,-29.6822 264.105,-28.4367"/>
<polygon fill="midnightblue" stroke="midnightblue" points="264.733,-24.9733 254.152,-25.5115 262.76,-31.6893 264.733,-24.9733"/>
</g>
<!-- Node22 -->
<g id="node22" class="node"><title>Node22</title>
<polygon fill="none" stroke="#bfbfbf" points="286.5,-6.5 286.5,-25.5 383.5,-25.5 383.5,-6.5 286.5,-6.5"/>
<text text-anchor="middle" x="335" y="-13.5" font-family="Helvetica,sans-Serif" font-size="10.00">FairMQMessage.h</text>
</g>
<!-- Node14&#45;&gt;Node22 -->
<g id="edge26" class="edge"><title>Node14&#45;&gt;Node22</title>
<path fill="none" stroke="midnightblue" d="M454.941,-68.4035C431.238,-58.245 391.594,-41.2547 364.417,-29.6074"/>
<polygon fill="midnightblue" stroke="midnightblue" points="365.592,-26.3028 355.021,-25.5806 362.834,-32.7369 365.592,-26.3028"/>
</g>
<!-- Node23 -->
<g id="node23" class="node"><title>Node23</title>
<polygon fill="none" stroke="#bfbfbf" points="401.5,-6.5 401.5,-25.5 532.5,-25.5 532.5,-6.5 401.5,-6.5"/>
<text text-anchor="middle" x="467" y="-13.5" font-family="Helvetica,sans-Serif" font-size="10.00">FairMQTransportFactory.h</text>
</g>
<!-- Node14&#45;&gt;Node23 -->
<g id="edge27" class="edge"><title>Node14&#45;&gt;Node23</title>
<path fill="none" stroke="midnightblue" d="M473.854,-68.4035C472.725,-59.9381 470.964,-46.7283 469.509,-35.8199"/>
<polygon fill="midnightblue" stroke="midnightblue" points="472.935,-35.0303 468.144,-25.5806 465.997,-35.9555 472.935,-35.0303"/>
</g>
<!-- Node24&#45;&gt;Node6 -->
<g id="edge30" class="edge"><title>Node24&#45;&gt;Node6</title>
<path fill="none" stroke="midnightblue" d="M238.395,-180.083C232.745,-172.455 224.455,-161.264 217.549,-151.941"/>
<polygon fill="midnightblue" stroke="midnightblue" points="220.247,-149.703 211.482,-143.751 214.622,-153.87 220.247,-149.703"/>
</g>
<!-- Node24&#45;&gt;Node7 -->
<g id="edge29" class="edge"><title>Node24&#45;&gt;Node7</title>
<path fill="none" stroke="midnightblue" d="M259.781,-180.324C274.267,-171.822 296.573,-158.729 313.493,-148.797"/>
<polygon fill="midnightblue" stroke="midnightblue" points="315.403,-151.735 322.255,-143.655 311.859,-145.698 315.403,-151.735"/>
</g>
</g>
</svg>
