<?xml version="1.0" encoding="UTF-8" standalone="no"?>
<!DOCTYPE svg PUBLIC "-//W3C//DTD SVG 1.1//EN"
 "http://www.w3.org/Graphics/SVG/1.1/DTD/svg11.dtd">
<!-- Generated by graphviz version 2.36.0 (20140111.2315)
 -->
<!-- Title: /home/travis/build/AliceO2Group/AliceO2/Detectors/MUON/MCH/PreClustering/src/runPreClusterFinder.cxx Pages: 1 -->
<svg width="1694pt" height="422pt"
 viewBox="0.00 0.00 1694.32 422.00" xmlns="http://www.w3.org/2000/svg" xmlns:xlink="http://www.w3.org/1999/xlink">
<g id="graph0" class="graph" transform="scale(1 1) rotate(0) translate(4 418)">
<title>/home/travis/build/AliceO2Group/AliceO2/Detectors/MUON/MCH/PreClustering/src/runPreClusterFinder.cxx</title>
<!-- Node1 -->
<g id="node1" class="node"><title>Node1</title>
<polygon fill="#bfbfbf" stroke="black" points="53.8223,-361 53.8223,-413 238.822,-413 238.822,-361 53.8223,-361"/>
<text text-anchor="start" x="61.8223" y="-401" font-family="Helvetica,sans-Serif" font-size="10.00">/home/travis/build</text>
<text text-anchor="start" x="61.8223" y="-390" font-family="Helvetica,sans-Serif" font-size="10.00">/AliceO2Group/AliceO2</text>
<text text-anchor="start" x="61.8223" y="-379" font-family="Helvetica,sans-Serif" font-size="10.00">/Detectors/MUON/MCH/PreClustering</text>
<text text-anchor="middle" x="146.322" y="-368" font-family="Helvetica,sans-Serif" font-size="10.00">/src/runPreClusterFinder.cxx</text>
</g>
<!-- Node2 -->
<g id="node2" class="node"><title>Node2</title>
<polygon fill="none" stroke="#bfbfbf" points="29.8223,-304.5 29.8223,-323.5 130.822,-323.5 130.822,-304.5 29.8223,-304.5"/>
<text text-anchor="middle" x="80.3223" y="-311.5" font-family="Helvetica,sans-Serif" font-size="10.00">runFairMQDevice.h</text>
</g>
<!-- Node1&#45;&gt;Node2 -->
<g id="edge1" class="edge"><title>Node1&#45;&gt;Node2</title>
<path fill="none" stroke="midnightblue" d="M122.867,-360.768C113.77,-350.982 103.614,-340.056 95.5066,-331.335"/>
<polygon fill="midnightblue" stroke="midnightblue" points="97.8348,-328.698 88.4628,-323.757 92.7078,-333.464 97.8348,-328.698"/>
</g>
<!-- Node3 -->
<g id="node3" class="node"><title>Node3</title>
<g id="a_node3"><a xlink:href="../../dd/db2/PreClusterFinderDevice_8h.html" target="_top" xlink:title="PreClusterFinderDevice.h">
<polygon fill="none" stroke="black" points="148.822,-304.5 148.822,-323.5 277.822,-323.5 277.822,-304.5 148.822,-304.5"/>
<text text-anchor="middle" x="213.322" y="-311.5" font-family="Helvetica,sans-Serif" font-size="10.00">PreClusterFinderDevice.h</text>
</a>
</g>
</g>
<!-- Node1&#45;&gt;Node3 -->
<g id="edge2" class="edge"><title>Node1&#45;&gt;Node3</title>
<path fill="none" stroke="midnightblue" d="M170.133,-360.768C179.463,-350.881 189.89,-339.831 198.162,-331.066"/>
<polygon fill="midnightblue" stroke="midnightblue" points="200.741,-333.432 205.059,-323.757 195.65,-328.628 200.741,-333.432"/>
</g>
<!-- Node4 -->
<g id="node4" class="node"><title>Node4</title>
<polygon fill="none" stroke="#bfbfbf" points="19.3223,-248.5 19.3223,-267.5 107.322,-267.5 107.322,-248.5 19.3223,-248.5"/>
<text text-anchor="middle" x="63.3223" y="-255.5" font-family="Helvetica,sans-Serif" font-size="10.00">FairMQDevice.h</text>
</g>
<!-- Node3&#45;&gt;Node4 -->
<g id="edge3" class="edge"><title>Node3&#45;&gt;Node4</title>
<path fill="none" stroke="midnightblue" d="M189.554,-304.444C164.43,-295.399 124.611,-281.064 96.4219,-270.916"/>
<polygon fill="midnightblue" stroke="midnightblue" points="97.5735,-267.611 86.9791,-267.516 95.2024,-274.197 97.5735,-267.611"/>
</g>
<!-- Node5 -->
<g id="node5" class="node"><title>Node5</title>
<polygon fill="none" stroke="#bfbfbf" points="188.322,-68.5 188.322,-87.5 234.322,-87.5 234.322,-68.5 188.322,-68.5"/>
<text text-anchor="middle" x="211.322" y="-75.5" font-family="Helvetica,sans-Serif" font-size="10.00">cstdint</text>
</g>
<!-- Node3&#45;&gt;Node5 -->
<g id="edge4" class="edge"><title>Node3&#45;&gt;Node5</title>
<path fill="none" stroke="midnightblue" d="M213.249,-304.394C212.96,-270.573 211.897,-146.281 211.486,-98.1838"/>
<polygon fill="midnightblue" stroke="midnightblue" points="214.984,-97.9036 211.399,-87.9339 207.984,-97.9635 214.984,-97.9036"/>
</g>
<!-- Node6 -->
<g id="node6" class="node"><title>Node6</title>
<g id="a_node6"><a xlink:href="../../db/da1/PreClusterBlock_8h.html" target="_top" xlink:title="MCHBase/PreClusterBlock.h">
<polygon fill="none" stroke="black" points="-0.177689,-192.5 -0.177689,-211.5 144.822,-211.5 144.822,-192.5 -0.177689,-192.5"/>
<text text-anchor="middle" x="72.3223" y="-199.5" font-family="Helvetica,sans-Serif" font-size="10.00">MCHBase/PreClusterBlock.h</text>
</a>
</g>
</g>
<!-- Node3&#45;&gt;Node6 -->
<g id="edge5" class="edge"><title>Node3&#45;&gt;Node6</title>
<path fill="none" stroke="midnightblue" d="M202.258,-304.368C178.269,-285.653 121.225,-241.151 91.3348,-217.832"/>
<polygon fill="midnightblue" stroke="midnightblue" points="93.3723,-214.983 83.3349,-211.591 89.0666,-220.502 93.3723,-214.983"/>
</g>
<!-- Node10 -->
<g id="node10" class="node"><title>Node10</title>
<g id="a_node10"><a xlink:href="../../db/dad/PreClusterFinder_8h.html" target="_top" xlink:title="PreClusterFinder.h">
<polygon fill="none" stroke="black" points="283.322,-192.5 283.322,-211.5 381.322,-211.5 381.322,-192.5 283.322,-192.5"/>
<text text-anchor="middle" x="332.322" y="-199.5" font-family="Helvetica,sans-Serif" font-size="10.00">PreClusterFinder.h</text>
</a>
</g>
</g>
<!-- Node3&#45;&gt;Node10 -->
<g id="edge12" class="edge"><title>Node3&#45;&gt;Node10</title>
<path fill="none" stroke="midnightblue" d="M222.66,-304.368C242.733,-285.814 290.226,-241.913 315.622,-218.438"/>
<polygon fill="midnightblue" stroke="midnightblue" points="318.06,-220.95 323.028,-211.591 313.309,-215.809 318.06,-220.95"/>
</g>
<!-- Node16 -->
<g id="node16" class="node"><title>Node16</title>
<g id="a_node16"><a xlink:href="../../d6/d34/AliHLTDataTypes_8h.html" target="_top" xlink:title="Data type declaration for the HLT module. ">
<polygon fill="none" stroke="black" points="917.322,-125 917.322,-155 1061.32,-155 1061.32,-125 917.322,-125"/>
<text text-anchor="start" x="925.322" y="-143" font-family="Helvetica,sans-Serif" font-size="10.00">aliceHLTwrapper/AliHLTData</text>
<text text-anchor="middle" x="989.322" y="-132" font-family="Helvetica,sans-Serif" font-size="10.00">Types.h</text>
</a>
</g>
</g>
<!-- Node3&#45;&gt;Node16 -->
<g id="edge23" class="edge"><title>Node3&#45;&gt;Node16</title>
<path fill="none" stroke="midnightblue" d="M277.845,-311.267C381.765,-307.692 592.374,-297.214 768.322,-268 868.28,-251.403 927.092,-291.966 989.322,-212 999.435,-199.006 998.994,-180.241 996.26,-165.266"/>
<polygon fill="midnightblue" stroke="midnightblue" points="999.597,-164.153 993.982,-155.168 992.768,-165.693 999.597,-164.153"/>
</g>
<!-- Node17 -->
<g id="node17" class="node"><title>Node17</title>
<g id="a_node17"><a xlink:href="../../d2/dda/MessageFormat_8h.html" target="_top" xlink:title="aliceHLTwrapper/MessageFormat.h">
<polygon fill="none" stroke="black" points="587.322,-248.5 587.322,-267.5 759.322,-267.5 759.322,-248.5 587.322,-248.5"/>
<text text-anchor="middle" x="673.322" y="-255.5" font-family="Helvetica,sans-Serif" font-size="10.00">aliceHLTwrapper/MessageFormat.h</text>
</a>
</g>
</g>
<!-- Node3&#45;&gt;Node17 -->
<g id="edge24" class="edge"><title>Node3&#45;&gt;Node17</title>
<path fill="none" stroke="midnightblue" d="M278.253,-305.378C360.166,-295.762 501.117,-279.215 590.644,-268.706"/>
<polygon fill="midnightblue" stroke="midnightblue" points="591.236,-272.16 600.76,-267.518 590.42,-265.208 591.236,-272.16"/>
</g>
<!-- Node6&#45;&gt;Node5 -->
<g id="edge6" class="edge"><title>Node6&#45;&gt;Node5</title>
<path fill="none" stroke="midnightblue" d="M81.9469,-192.419C97.9563,-178.16 131.091,-148.708 159.322,-124 170.693,-114.049 183.53,-102.938 193.605,-94.247"/>
<polygon fill="midnightblue" stroke="midnightblue" points="196.035,-96.7735 201.325,-87.5939 191.465,-91.4708 196.035,-96.7735"/>
</g>
<!-- Node7 -->
<g id="node7" class="node"><title>Node7</title>
<polygon fill="none" stroke="#bfbfbf" points="23.3223,-68.5 23.3223,-87.5 75.3223,-87.5 75.3223,-68.5 23.3223,-68.5"/>
<text text-anchor="middle" x="49.3223" y="-75.5" font-family="Helvetica,sans-Serif" font-size="10.00">ostream</text>
</g>
<!-- Node6&#45;&gt;Node7 -->
<g id="edge7" class="edge"><title>Node6&#45;&gt;Node7</title>
<path fill="none" stroke="midnightblue" d="M59.5414,-192.369C48.9279,-184.36 34.5917,-171.379 28.3223,-156 20.2656,-136.236 29.5066,-112.38 38.1465,-96.5104"/>
<polygon fill="midnightblue" stroke="midnightblue" points="41.2346,-98.1636 43.2884,-87.7698 35.2011,-94.6143 41.2346,-98.1636"/>
</g>
<!-- Node8 -->
<g id="node8" class="node"><title>Node8</title>
<polygon fill="none" stroke="#bfbfbf" points="388.322,-6.5 388.322,-25.5 432.322,-25.5 432.322,-6.5 388.322,-6.5"/>
<text text-anchor="middle" x="410.322" y="-13.5" font-family="Helvetica,sans-Serif" font-size="10.00">vector</text>
</g>
<!-- Node6&#45;&gt;Node8 -->
<g id="edge8" class="edge"><title>Node6&#45;&gt;Node8</title>
<path fill="none" stroke="midnightblue" d="M57.4998,-192.344C45.5425,-184.492 29.4259,-171.75 21.3223,-156 3.37187,-121.112 -11.5884,-97.4617 14.3223,-68 38.2691,-40.7713 287.628,-23.982 377.915,-18.7574"/>
<polygon fill="midnightblue" stroke="midnightblue" points="378.326,-22.2398 388.112,-18.1777 377.929,-15.2511 378.326,-22.2398"/>
</g>
<!-- Node9 -->
<g id="node9" class="node"><title>Node9</title>
<g id="a_node9"><a xlink:href="../../db/df0/DigitBlock_8h.html" target="_top" xlink:title="DigitBlock.h">
<polygon fill="none" stroke="black" points="37.3223,-130.5 37.3223,-149.5 107.322,-149.5 107.322,-130.5 37.3223,-130.5"/>
<text text-anchor="middle" x="72.3223" y="-137.5" font-family="Helvetica,sans-Serif" font-size="10.00">DigitBlock.h</text>
</a>
</g>
</g>
<!-- Node6&#45;&gt;Node9 -->
<g id="edge9" class="edge"><title>Node6&#45;&gt;Node9</title>
<path fill="none" stroke="midnightblue" d="M72.3223,-192.403C72.3223,-183.938 72.3223,-170.728 72.3223,-159.82"/>
<polygon fill="midnightblue" stroke="midnightblue" points="75.8224,-159.581 72.3223,-149.581 68.8224,-159.581 75.8224,-159.581"/>
</g>
<!-- Node9&#45;&gt;Node5 -->
<g id="edge10" class="edge"><title>Node9&#45;&gt;Node5</title>
<path fill="none" stroke="midnightblue" d="M92.2376,-130.403C115.771,-120.245 155.132,-103.255 182.115,-91.6074"/>
<polygon fill="midnightblue" stroke="midnightblue" points="183.65,-94.7572 191.444,-87.5806 180.876,-88.3303 183.65,-94.7572"/>
</g>
<!-- Node9&#45;&gt;Node7 -->
<g id="edge11" class="edge"><title>Node9&#45;&gt;Node7</title>
<path fill="none" stroke="midnightblue" d="M69.027,-130.403C65.7136,-121.76 60.5042,-108.17 56.2737,-97.1341"/>
<polygon fill="midnightblue" stroke="midnightblue" points="59.4591,-95.6653 52.6115,-87.5806 52.9228,-98.1709 59.4591,-95.6653"/>
</g>
<!-- Node10&#45;&gt;Node5 -->
<g id="edge14" class="edge"><title>Node10&#45;&gt;Node5</title>
<path fill="none" stroke="midnightblue" d="M317.333,-192.38C303.673,-184.099 283.39,-170.704 268.322,-156 249.615,-137.744 232.395,-112.884 221.886,-96.4083"/>
<polygon fill="midnightblue" stroke="midnightblue" points="224.774,-94.4246 216.514,-87.7898 218.834,-98.1276 224.774,-94.4246"/>
</g>
<!-- Node10&#45;&gt;Node8 -->
<g id="edge16" class="edge"><title>Node10&#45;&gt;Node8</title>
<path fill="none" stroke="midnightblue" d="M352.684,-192.392C367.433,-185.012 386.448,-172.884 396.322,-156 418.598,-117.909 416.283,-63.7552 413.079,-35.6078"/>
<polygon fill="midnightblue" stroke="midnightblue" points="416.533,-35.0264 411.766,-25.5646 409.592,-35.934 416.533,-35.0264"/>
</g>
<!-- Node10&#45;&gt;Node9 -->
<g id="edge17" class="edge"><title>Node10&#45;&gt;Node9</title>
<path fill="none" stroke="midnightblue" d="M295.347,-192.467C248.522,-181.661 167.884,-163.053 117.473,-151.419"/>
<polygon fill="midnightblue" stroke="midnightblue" points="118.036,-147.957 107.505,-149.119 116.462,-154.778 118.036,-147.957"/>
</g>
<!-- Node11 -->
<g id="node11" class="node"><title>Node11</title>
<polygon fill="none" stroke="#bfbfbf" points="603.822,-68.5 603.822,-87.5 652.822,-87.5 652.822,-68.5 603.822,-68.5"/>
<text text-anchor="middle" x="628.322" y="-75.5" font-family="Helvetica,sans-Serif" font-size="10.00">cassert</text>
</g>
<!-- Node10&#45;&gt;Node11 -->
<g id="edge13" class="edge"><title>Node10&#45;&gt;Node11</title>
<path fill="none" stroke="midnightblue" d="M361.404,-192.454C389.003,-184.075 431.473,-170.482 467.322,-156 516.528,-136.122 571.962,-108.374 603.262,-92.1861"/>
<polygon fill="midnightblue" stroke="midnightblue" points="604.911,-95.2738 612.168,-87.5547 601.681,-89.0634 604.911,-95.2738"/>
</g>
<!-- Node12 -->
<g id="node12" class="node"><title>Node12</title>
<polygon fill="none" stroke="#bfbfbf" points="494.822,-6.5 494.822,-25.5 577.822,-25.5 577.822,-6.5 494.822,-6.5"/>
<text text-anchor="middle" x="536.322" y="-13.5" font-family="Helvetica,sans-Serif" font-size="10.00">unordered_map</text>
</g>
<!-- Node10&#45;&gt;Node12 -->
<g id="edge15" class="edge"><title>Node10&#45;&gt;Node12</title>
<path fill="none" stroke="midnightblue" d="M354.454,-192.351C372.572,-184.584 398.236,-171.958 417.322,-156 455.451,-124.121 453.542,-105.357 486.322,-68 497.034,-55.7921 509.874,-42.7252 519.86,-32.8744"/>
<polygon fill="midnightblue" stroke="midnightblue" points="522.454,-35.2331 527.162,-25.7415 517.563,-30.2259 522.454,-35.2331"/>
</g>
<!-- Node13 -->
<g id="node13" class="node"><title>Node13</title>
<g id="a_node13"><a xlink:href="../../d9/d9d/MCH_2Base_2include_2MCHBase_2Mapping_8h.html" target="_top" xlink:title="MCHBase/Mapping.h">
<polygon fill="none" stroke="black" points="277.322,-130.5 277.322,-149.5 387.322,-149.5 387.322,-130.5 277.322,-130.5"/>
<text text-anchor="middle" x="332.322" y="-137.5" font-family="Helvetica,sans-Serif" font-size="10.00">MCHBase/Mapping.h</text>
</a>
</g>
</g>
<!-- Node10&#45;&gt;Node13 -->
<g id="edge18" class="edge"><title>Node10&#45;&gt;Node13</title>
<path fill="none" stroke="midnightblue" d="M332.322,-192.403C332.322,-183.938 332.322,-170.728 332.322,-159.82"/>
<polygon fill="midnightblue" stroke="midnightblue" points="335.822,-159.581 332.322,-149.581 328.822,-159.581 335.822,-159.581"/>
</g>
<!-- Node13&#45;&gt;Node5 -->
<g id="edge19" class="edge"><title>Node13&#45;&gt;Node5</title>
<path fill="none" stroke="midnightblue" d="M314.986,-130.403C294.769,-120.379 261.135,-103.701 237.68,-92.0699"/>
<polygon fill="midnightblue" stroke="midnightblue" points="239.14,-88.8875 228.627,-87.5806 236.031,-95.1588 239.14,-88.8875"/>
</g>
<!-- Node13&#45;&gt;Node8 -->
<g id="edge21" class="edge"><title>Node13&#45;&gt;Node8</title>
<path fill="none" stroke="midnightblue" d="M321.217,-130.473C304.944,-116.916 278.025,-89.7547 292.322,-68 311.125,-39.3897 349.764,-26.7548 377.715,-21.2227"/>
<polygon fill="midnightblue" stroke="midnightblue" points="378.603,-24.6201 387.841,-19.4318 377.384,-17.7271 378.603,-24.6201"/>
</g>
<!-- Node14 -->
<g id="node14" class="node"><title>Node14</title>
<polygon fill="none" stroke="#bfbfbf" points="495.322,-68.5 495.322,-87.5 547.322,-87.5 547.322,-68.5 495.322,-68.5"/>
<text text-anchor="middle" x="521.322" y="-75.5" font-family="Helvetica,sans-Serif" font-size="10.00">memory</text>
</g>
<!-- Node13&#45;&gt;Node14 -->
<g id="edge20" class="edge"><title>Node13&#45;&gt;Node14</title>
<path fill="none" stroke="midnightblue" d="M359.401,-130.403C392.523,-119.889 448.7,-102.055 485.405,-90.4025"/>
<polygon fill="midnightblue" stroke="midnightblue" points="486.733,-93.6529 495.205,-87.2911 484.615,-86.981 486.733,-93.6529"/>
</g>
<!-- Node15 -->
<g id="node15" class="node"><title>Node15</title>
<polygon fill="none" stroke="#bfbfbf" points="301.322,-68.5 301.322,-87.5 363.322,-87.5 363.322,-68.5 301.322,-68.5"/>
<text text-anchor="middle" x="332.322" y="-75.5" font-family="Helvetica,sans-Serif" font-size="10.00">TExMap.h</text>
</g>
<!-- Node13&#45;&gt;Node15 -->
<g id="edge22" class="edge"><title>Node13&#45;&gt;Node15</title>
<path fill="none" stroke="midnightblue" d="M332.322,-130.403C332.322,-121.938 332.322,-108.728 332.322,-97.8199"/>
<polygon fill="midnightblue" stroke="midnightblue" points="335.822,-97.5806 332.322,-87.5806 328.822,-97.5806 335.822,-97.5806"/>
</g>
<!-- Node17&#45;&gt;Node5 -->
<g id="edge29" class="edge"><title>Node17&#45;&gt;Node5</title>
<path fill="none" stroke="midnightblue" d="M586.935,-255.695C485.629,-252.725 325.072,-243.088 274.322,-212 233.753,-187.148 218.87,-128.081 213.77,-97.7229"/>
<polygon fill="midnightblue" stroke="midnightblue" points="217.201,-96.9978 212.262,-87.6247 210.278,-98.0321 217.201,-96.9978"/>
</g>
<!-- Node17&#45;&gt;Node8 -->
<g id="edge28" class="edge"><title>Node17&#45;&gt;Node8</title>
<path fill="none" stroke="midnightblue" d="M630.514,-248.451C604.786,-241.733 572.463,-230.361 548.322,-212 483.146,-162.428 436.419,-73.3317 418.451,-35.1625"/>
<polygon fill="midnightblue" stroke="midnightblue" points="421.513,-33.4445 414.154,-25.8224 415.154,-36.37 421.513,-33.4445"/>
</g>
<!-- Node17&#45;&gt;Node16 -->
<g id="edge25" class="edge"><title>Node17&#45;&gt;Node16</title>
<path fill="none" stroke="midnightblue" d="M759.625,-254.052C835.667,-249.68 938.936,-238.842 969.322,-212 982.501,-200.358 987.296,-180.779 988.91,-165.126"/>
<polygon fill="midnightblue" stroke="midnightblue" points="992.408,-165.273 989.583,-155.062 985.423,-164.806 992.408,-165.273"/>
</g>
<!-- Node18 -->
<g id="node18" class="node"><title>Node18</title>
<g id="a_node18"><a xlink:href="../../d2/de6/HOMERFactory_8h.html" target="_top" xlink:title="HOMERFactory.h">
<polygon fill="none" stroke="black" points="865.822,-192.5 865.822,-211.5 960.822,-211.5 960.822,-192.5 865.822,-192.5"/>
<text text-anchor="middle" x="913.322" y="-199.5" font-family="Helvetica,sans-Serif" font-size="10.00">HOMERFactory.h</text>
</a>
</g>
</g>
<!-- Node17&#45;&gt;Node18 -->
<g id="edge26" class="edge"><title>Node17&#45;&gt;Node18</title>
<path fill="none" stroke="midnightblue" d="M711.351,-248.444C753.131,-239.043 820.304,-223.929 865.592,-213.739"/>
<polygon fill="midnightblue" stroke="midnightblue" points="866.484,-217.126 875.472,-211.516 864.947,-210.297 866.484,-217.126"/>
</g>
<!-- Node19 -->
<g id="node19" class="node"><title>Node19</title>
<polygon fill="none" stroke="#bfbfbf" points="749.322,-192.5 749.322,-211.5 847.322,-211.5 847.322,-192.5 749.322,-192.5"/>
<text text-anchor="middle" x="798.322" y="-199.5" font-family="Helvetica,sans-Serif" font-size="10.00">boost/signals2.hpp</text>
</g>
<!-- Node17&#45;&gt;Node19 -->
<g id="edge30" class="edge"><title>Node17&#45;&gt;Node19</title>
<path fill="none" stroke="midnightblue" d="M693.129,-248.444C713.609,-239.596 745.805,-225.687 769.187,-215.586"/>
<polygon fill="midnightblue" stroke="midnightblue" points="770.816,-218.695 778.608,-211.516 768.04,-212.269 770.816,-218.695"/>
</g>
<!-- Node20 -->
<g id="node20" class="node"><title>Node20</title>
<g id="a_node20"><a xlink:href="../../dc/dcd/DataHeader_8h.html" target="_top" xlink:title="Headers/DataHeader.h">
<polygon fill="none" stroke="black" points="733.822,-130.5 733.822,-149.5 850.822,-149.5 850.822,-130.5 733.822,-130.5"/>
<text text-anchor="middle" x="792.322" y="-137.5" font-family="Helvetica,sans-Serif" font-size="10.00">Headers/DataHeader.h</text>
</a>
</g>
</g>
<!-- Node17&#45;&gt;Node20 -->
<g id="edge31" class="edge"><title>Node17&#45;&gt;Node20</title>
<path fill="none" stroke="midnightblue" d="M682.267,-248.281C702.264,-228.788 750.824,-181.452 776.229,-156.688"/>
<polygon fill="midnightblue" stroke="midnightblue" points="778.88,-158.991 783.598,-149.505 773.994,-153.979 778.88,-158.991"/>
</g>
<!-- Node34 -->
<g id="node34" class="node"><title>Node34</title>
<g id="a_node34"><a xlink:href="../../d2/d09/HeartbeatFrame_8h.html" target="_top" xlink:title="Headers/HeartbeatFrame.h">
<polygon fill="none" stroke="black" points="557.822,-192.5 557.822,-211.5 692.822,-211.5 692.822,-192.5 557.822,-192.5"/>
<text text-anchor="middle" x="625.322" y="-199.5" font-family="Helvetica,sans-Serif" font-size="10.00">Headers/HeartbeatFrame.h</text>
</a>
</g>
</g>
<!-- Node17&#45;&gt;Node34 -->
<g id="edge52" class="edge"><title>Node17&#45;&gt;Node34</title>
<path fill="none" stroke="midnightblue" d="M665.396,-248.083C658.476,-240.298 648.257,-228.801 639.87,-219.367"/>
<polygon fill="midnightblue" stroke="midnightblue" points="642.361,-216.9 633.101,-211.751 637.129,-221.55 642.361,-216.9"/>
</g>
<!-- Node18&#45;&gt;Node16 -->
<g id="edge27" class="edge"><title>Node18&#45;&gt;Node16</title>
<path fill="none" stroke="midnightblue" d="M924.211,-192.403C934.408,-184.353 950.04,-172.013 963.431,-161.441"/>
<polygon fill="midnightblue" stroke="midnightblue" points="965.731,-164.084 971.411,-155.141 961.393,-158.59 965.731,-164.084"/>
</g>
<!-- Node20&#45;&gt;Node5 -->
<g id="edge32" class="edge"><title>Node20&#45;&gt;Node5</title>
<path fill="none" stroke="midnightblue" d="M757.896,-130.467C747.195,-128.069 735.319,-125.663 724.322,-124 533.824,-95.1844 484.084,-106.64 292.322,-88 276.571,-86.4689 259.121,-84.5576 244.463,-82.8907"/>
<polygon fill="midnightblue" stroke="midnightblue" points="244.682,-79.3929 234.348,-81.729 243.884,-86.3472 244.682,-79.3929"/>
</g>
<!-- Node20&#45;&gt;Node11 -->
<g id="edge34" class="edge"><title>Node20&#45;&gt;Node11</title>
<path fill="none" stroke="midnightblue" d="M768.825,-130.403C740.693,-120.111 693.393,-102.806 661.533,-91.1504"/>
<polygon fill="midnightblue" stroke="midnightblue" points="662.37,-87.7295 651.776,-87.5806 659.965,-94.3034 662.37,-87.7295"/>
</g>
<!-- Node20&#45;&gt;Node14 -->
<g id="edge33" class="edge"><title>Node20&#45;&gt;Node14</title>
<path fill="none" stroke="midnightblue" d="M753.782,-130.467C701.422,-118.874 608.498,-98.3008 557.43,-86.9942"/>
<polygon fill="midnightblue" stroke="midnightblue" points="558.018,-83.5398 547.498,-84.7953 556.505,-90.3743 558.018,-83.5398"/>
</g>
<!-- Node21 -->
<g id="node21" class="node"><title>Node21</title>
<polygon fill="none" stroke="#bfbfbf" points="600.322,-6.5 600.322,-25.5 646.322,-25.5 646.322,-6.5 600.322,-6.5"/>
<text text-anchor="middle" x="623.322" y="-13.5" font-family="Helvetica,sans-Serif" font-size="10.00">cstring</text>
</g>
<!-- Node20&#45;&gt;Node21 -->
<g id="edge35" class="edge"><title>Node20&#45;&gt;Node21</title>
<path fill="none" stroke="midnightblue" d="M773.92,-130.428C754.776,-121.144 724.305,-105.323 700.322,-88 677.189,-71.2909 653.481,-48.3856 638.597,-33.1606"/>
<polygon fill="midnightblue" stroke="midnightblue" points="640.754,-30.3546 631.295,-25.5805 635.712,-35.2109 640.754,-30.3546"/>
</g>
<!-- Node22 -->
<g id="node22" class="node"><title>Node22</title>
<polygon fill="none" stroke="#bfbfbf" points="709.322,-68.5 709.322,-87.5 765.322,-87.5 765.322,-68.5 709.322,-68.5"/>
<text text-anchor="middle" x="737.322" y="-75.5" font-family="Helvetica,sans-Serif" font-size="10.00">algorithm</text>
</g>
<!-- Node20&#45;&gt;Node22 -->
<g id="edge36" class="edge"><title>Node20&#45;&gt;Node22</title>
<path fill="none" stroke="midnightblue" d="M784.442,-130.403C776.029,-121.225 762.503,-106.47 752.096,-95.1173"/>
<polygon fill="midnightblue" stroke="midnightblue" points="754.525,-92.5871 745.188,-87.5806 749.365,-97.3172 754.525,-92.5871"/>
</g>
<!-- Node23 -->
<g id="node23" class="node"><title>Node23</title>
<polygon fill="none" stroke="#bfbfbf" points="783.822,-68.5 783.822,-87.5 842.822,-87.5 842.822,-68.5 783.822,-68.5"/>
<text text-anchor="middle" x="813.322" y="-75.5" font-family="Helvetica,sans-Serif" font-size="10.00">stdexcept</text>
</g>
<!-- Node20&#45;&gt;Node23 -->
<g id="edge37" class="edge"><title>Node20&#45;&gt;Node23</title>
<path fill="none" stroke="midnightblue" d="M795.331,-130.403C798.356,-121.76 803.113,-108.17 806.975,-97.1341"/>
<polygon fill="midnightblue" stroke="midnightblue" points="810.319,-98.1754 810.319,-87.5806 803.712,-95.8629 810.319,-98.1754"/>
</g>
<!-- Node24 -->
<g id="node24" class="node"><title>Node24</title>
<polygon fill="none" stroke="#bfbfbf" points="664.822,-6.5 664.822,-25.5 705.822,-25.5 705.822,-6.5 664.822,-6.5"/>
<text text-anchor="middle" x="685.322" y="-13.5" font-family="Helvetica,sans-Serif" font-size="10.00">string</text>
</g>
<!-- Node20&#45;&gt;Node24 -->
<g id="edge38" class="edge"><title>Node20&#45;&gt;Node24</title>
<path fill="none" stroke="midnightblue" d="M808.722,-130.426C831.788,-117.249 869.114,-91.1143 851.322,-68 813.184,-18.4523 773.814,-54.0971 715.322,-32 713.674,-31.3775 711.997,-30.6926 710.32,-29.9689"/>
<polygon fill="midnightblue" stroke="midnightblue" points="711.471,-26.6425 700.931,-25.5614 708.496,-32.9791 711.471,-26.6425"/>
</g>
<!-- Node25 -->
<g id="node25" class="node"><title>Node25</title>
<g id="a_node25"><a xlink:href="../../dc/d03/MemoryResources_8h.html" target="_top" xlink:title="MemoryResources/MemoryResources.h">
<polygon fill="none" stroke="black" points="899.822,-68.5 899.822,-87.5 1092.82,-87.5 1092.82,-68.5 899.822,-68.5"/>
<text text-anchor="middle" x="996.322" y="-75.5" font-family="Helvetica,sans-Serif" font-size="10.00">MemoryResources/MemoryResources.h</text>
</a>
</g>
</g>
<!-- Node20&#45;&gt;Node25 -->
<g id="edge39" class="edge"><title>Node20&#45;&gt;Node25</title>
<path fill="none" stroke="midnightblue" d="M821.551,-130.403C857.225,-119.911 917.682,-102.129 957.305,-90.4758"/>
<polygon fill="midnightblue" stroke="midnightblue" points="958.542,-93.7601 967.148,-87.5806 956.567,-87.0445 958.542,-93.7601"/>
</g>
<!-- Node25&#45;&gt;Node8 -->
<g id="edge48" class="edge"><title>Node25&#45;&gt;Node8</title>
<path fill="none" stroke="midnightblue" d="M899.73,-69.765C774.43,-60.1587 562.733,-43.1154 485.322,-32 471.217,-29.9746 455.759,-27.0115 442.56,-24.2527"/>
<polygon fill="midnightblue" stroke="midnightblue" points="443.039,-20.7761 432.528,-22.1058 441.574,-27.6211 443.039,-20.7761"/>
</g>
<!-- Node25&#45;&gt;Node12 -->
<g id="edge49" class="edge"><title>Node25&#45;&gt;Node12</title>
<path fill="none" stroke="midnightblue" d="M899.542,-70.5017C817.095,-63.9529 695.735,-51.9134 591.322,-32 585.793,-30.9454 580.006,-29.6191 574.348,-28.1937"/>
<polygon fill="midnightblue" stroke="midnightblue" points="574.951,-24.7328 564.388,-25.5586 573.16,-31.5 574.951,-24.7328"/>
</g>
<!-- Node25&#45;&gt;Node21 -->
<g id="edge44" class="edge"><title>Node25&#45;&gt;Node21</title>
<path fill="none" stroke="midnightblue" d="M899.52,-72.1505C830.355,-66.7831 735.699,-55.5285 655.322,-32 653.037,-31.331 650.709,-30.52 648.404,-29.6256"/>
<polygon fill="midnightblue" stroke="midnightblue" points="649.79,-26.4119 639.224,-25.6282 646.995,-32.8298 649.79,-26.4119"/>
</g>
<!-- Node25&#45;&gt;Node24 -->
<g id="edge45" class="edge"><title>Node25&#45;&gt;Node24</title>
<path fill="none" stroke="midnightblue" d="M899.677,-68.873C844.677,-62.4392 775.054,-51.2142 715.322,-32 713.41,-31.3848 711.468,-30.663 709.539,-29.8745"/>
<polygon fill="midnightblue" stroke="midnightblue" points="710.75,-26.5785 700.205,-25.5608 707.814,-32.9329 710.75,-26.5785"/>
</g>
<!-- Node26 -->
<g id="node26" class="node"><title>Node26</title>
<polygon fill="none" stroke="#bfbfbf" points="724.322,-1 724.322,-31 824.322,-31 824.322,-1 724.322,-1"/>
<text text-anchor="start" x="732.322" y="-19" font-family="Helvetica,sans-Serif" font-size="10.00">boost/container/flat</text>
<text text-anchor="middle" x="774.322" y="-8" font-family="Helvetica,sans-Serif" font-size="10.00">_map.hpp</text>
</g>
<!-- Node25&#45;&gt;Node26 -->
<g id="edge40" class="edge"><title>Node25&#45;&gt;Node26</title>
<path fill="none" stroke="midnightblue" d="M964.515,-68.4035C930.662,-59.2539 876.302,-44.5622 834.351,-33.224"/>
<polygon fill="midnightblue" stroke="midnightblue" points="835.085,-29.7967 824.518,-30.5663 833.258,-36.5543 835.085,-29.7967"/>
</g>
<!-- Node27 -->
<g id="node27" class="node"><title>Node27</title>
<polygon fill="none" stroke="#bfbfbf" points="842.322,-1 842.322,-31 958.322,-31 958.322,-1 842.322,-1"/>
<text text-anchor="start" x="850.322" y="-19" font-family="Helvetica,sans-Serif" font-size="10.00">boost/container/pmr</text>
<text text-anchor="middle" x="900.322" y="-8" font-family="Helvetica,sans-Serif" font-size="10.00">/memory_resource.hpp</text>
</g>
<!-- Node25&#45;&gt;Node27 -->
<g id="edge41" class="edge"><title>Node25&#45;&gt;Node27</title>
<path fill="none" stroke="midnightblue" d="M982.568,-68.4035C969.323,-60.1254 948.819,-47.3106 931.598,-36.5474"/>
<polygon fill="midnightblue" stroke="midnightblue" points="933.283,-33.4728 922.948,-31.1408 929.573,-39.4088 933.283,-33.4728"/>
</g>
<!-- Node28 -->
<g id="node28" class="node"><title>Node28</title>
<polygon fill="none" stroke="#bfbfbf" points="976.322,-1 976.322,-31 1132.32,-31 1132.32,-1 976.322,-1"/>
<text text-anchor="start" x="984.322" y="-19" font-family="Helvetica,sans-Serif" font-size="10.00">boost/container/pmr</text>
<text text-anchor="middle" x="1054.32" y="-8" font-family="Helvetica,sans-Serif" font-size="10.00">/monotonic_buffer_resource.hpp</text>
</g>
<!-- Node25&#45;&gt;Node28 -->
<g id="edge42" class="edge"><title>Node25&#45;&gt;Node28</title>
<path fill="none" stroke="midnightblue" d="M1004.63,-68.4035C1012.19,-60.5811 1023.67,-48.7077 1033.69,-38.3424"/>
<polygon fill="midnightblue" stroke="midnightblue" points="1036.22,-40.7633 1040.65,-31.1408 1031.19,-35.8981 1036.22,-40.7633"/>
</g>
<!-- Node29 -->
<g id="node29" class="node"><title>Node29</title>
<polygon fill="none" stroke="#bfbfbf" points="1150.82,-1 1150.82,-31 1283.82,-31 1283.82,-1 1150.82,-1"/>
<text text-anchor="start" x="1158.82" y="-19" font-family="Helvetica,sans-Serif" font-size="10.00">boost/container/pmr</text>
<text text-anchor="middle" x="1217.32" y="-8" font-family="Helvetica,sans-Serif" font-size="10.00">/polymorphic_allocator.hpp</text>
</g>
<!-- Node25&#45;&gt;Node29 -->
<g id="edge43" class="edge"><title>Node25&#45;&gt;Node29</title>
<path fill="none" stroke="midnightblue" d="M1027.99,-68.4035C1061.25,-59.3739 1114.39,-44.9466 1155.91,-33.6718"/>
<polygon fill="midnightblue" stroke="midnightblue" points="1156.93,-37.0232 1165.66,-31.0253 1155.09,-30.2677 1156.93,-37.0232"/>
</g>
<!-- Node30 -->
<g id="node30" class="node"><title>Node30</title>
<polygon fill="none" stroke="#bfbfbf" points="1302.32,-6.5 1302.32,-25.5 1364.32,-25.5 1364.32,-6.5 1302.32,-6.5"/>
<text text-anchor="middle" x="1333.32" y="-13.5" font-family="Helvetica,sans-Serif" font-size="10.00">type_traits</text>
</g>
<!-- Node25&#45;&gt;Node30 -->
<g id="edge46" class="edge"><title>Node25&#45;&gt;Node30</title>
<path fill="none" stroke="midnightblue" d="M1082.72,-68.4783C1142.25,-61.4879 1222.83,-49.8022 1292.32,-32 1295.73,-31.1271 1299.25,-30.0777 1302.73,-28.9446"/>
<polygon fill="midnightblue" stroke="midnightblue" points="1304.01,-32.2048 1312.3,-25.6062 1301.7,-25.5954 1304.01,-32.2048"/>
</g>
<!-- Node31 -->
<g id="node31" class="node"><title>Node31</title>
<polygon fill="none" stroke="#bfbfbf" points="1382.32,-6.5 1382.32,-25.5 1422.32,-25.5 1422.32,-6.5 1382.32,-6.5"/>
<text text-anchor="middle" x="1402.32" y="-13.5" font-family="Helvetica,sans-Serif" font-size="10.00">utility</text>
</g>
<!-- Node25&#45;&gt;Node31 -->
<g id="edge47" class="edge"><title>Node25&#45;&gt;Node31</title>
<path fill="none" stroke="midnightblue" d="M1093.21,-74.5305C1170.27,-70.4067 1280.07,-59.6687 1372.32,-32 1374.29,-31.4103 1376.28,-30.6986 1378.26,-29.9097"/>
<polygon fill="midnightblue" stroke="midnightblue" points="1380.16,-32.8867 1387.78,-25.5289 1377.24,-26.5268 1380.16,-32.8867"/>
</g>
<!-- Node32 -->
<g id="node32" class="node"><title>Node32</title>
<polygon fill="none" stroke="#bfbfbf" points="1440.82,-6.5 1440.82,-25.5 1537.82,-25.5 1537.82,-6.5 1440.82,-6.5"/>
<text text-anchor="middle" x="1489.32" y="-13.5" font-family="Helvetica,sans-Serif" font-size="10.00">FairMQMessage.h</text>
</g>
<!-- Node25&#45;&gt;Node32 -->
<g id="edge50" class="edge"><title>Node25&#45;&gt;Node32</title>
<path fill="none" stroke="midnightblue" d="M1093.23,-71.156C1181.77,-64.8282 1316.06,-52.7452 1431.32,-32 1437.29,-30.926 1443.55,-29.5632 1449.65,-28.099"/>
<polygon fill="midnightblue" stroke="midnightblue" points="1450.86,-31.404 1459.71,-25.5719 1449.16,-24.6151 1450.86,-31.404"/>
</g>
<!-- Node33 -->
<g id="node33" class="node"><title>Node33</title>
<polygon fill="none" stroke="#bfbfbf" points="1555.82,-6.5 1555.82,-25.5 1686.82,-25.5 1686.82,-6.5 1555.82,-6.5"/>
<text text-anchor="middle" x="1621.32" y="-13.5" font-family="Helvetica,sans-Serif" font-size="10.00">FairMQTransportFactory.h</text>
</g>
<!-- Node25&#45;&gt;Node33 -->
<g id="edge51" class="edge"><title>Node25&#45;&gt;Node33</title>
<path fill="none" stroke="midnightblue" d="M1093.07,-72.4792C1203.22,-66.546 1388.36,-54.1828 1546.32,-32 1555.02,-30.7791 1564.22,-29.1883 1573.1,-27.5001"/>
<polygon fill="midnightblue" stroke="midnightblue" points="1573.79,-30.9305 1582.93,-25.5672 1572.44,-24.0619 1573.79,-30.9305"/>
</g>
<!-- Node34&#45;&gt;Node8 -->
<g id="edge56" class="edge"><title>Node34&#45;&gt;Node8</title>
<path fill="none" stroke="midnightblue" d="M618.614,-192.365C611.944,-183.539 601.672,-169.281 594.322,-156 573.695,-118.725 587.505,-97.027 556.322,-68 539.527,-52.3652 480.071,-34.8723 442.41,-24.9729"/>
<polygon fill="midnightblue" stroke="midnightblue" points="442.977,-21.5045 432.42,-22.3899 441.225,-28.2817 442.977,-21.5045"/>
</g>
<!-- Node34&#45;&gt;Node20 -->
<g id="edge53" class="edge"><title>Node34&#45;&gt;Node20</title>
<path fill="none" stroke="midnightblue" d="M649.249,-192.403C678.02,-182.067 726.479,-164.656 758.924,-152.999"/>
<polygon fill="midnightblue" stroke="midnightblue" points="760.212,-156.256 768.44,-149.581 757.845,-149.668 760.212,-156.256"/>
</g>
<!-- Node35 -->
<g id="node35" class="node"><title>Node35</title>
<polygon fill="none" stroke="#bfbfbf" points="656.822,-130.5 656.822,-149.5 715.822,-149.5 715.822,-130.5 656.822,-130.5"/>
<text text-anchor="middle" x="686.322" y="-137.5" font-family="Helvetica,sans-Serif" font-size="10.00">functional</text>
</g>
<!-- Node34&#45;&gt;Node35 -->
<g id="edge54" class="edge"><title>Node34&#45;&gt;Node35</title>
<path fill="none" stroke="midnightblue" d="M634.062,-192.403C643.484,-183.136 658.686,-168.183 670.272,-156.788"/>
<polygon fill="midnightblue" stroke="midnightblue" points="672.924,-159.088 677.599,-149.581 668.015,-154.098 672.924,-159.088"/>
</g>
<!-- Node36 -->
<g id="node36" class="node"><title>Node36</title>
<polygon fill="none" stroke="#bfbfbf" points="603.822,-130.5 603.822,-149.5 638.822,-149.5 638.822,-130.5 603.822,-130.5"/>
<text text-anchor="middle" x="621.322" y="-137.5" font-family="Helvetica,sans-Serif" font-size="10.00">map</text>
</g>
<!-- Node34&#45;&gt;Node36 -->
<g id="edge55" class="edge"><title>Node34&#45;&gt;Node36</title>
<path fill="none" stroke="midnightblue" d="M624.749,-192.403C624.185,-183.938 623.304,-170.728 622.577,-159.82"/>
<polygon fill="midnightblue" stroke="midnightblue" points="626.052,-159.326 621.894,-149.581 619.067,-159.791 626.052,-159.326"/>
</g>
</g>
</svg>
