<?xml version="1.0" encoding="UTF-8" standalone="no"?>
<!DOCTYPE svg PUBLIC "-//W3C//DTD SVG 1.1//EN"
 "http://www.w3.org/Graphics/SVG/1.1/DTD/svg11.dtd">
<!-- Generated by graphviz version 2.36.0 (20140111.2315)
 -->
<!-- Title: o2::steer::InteractionSampler Pages: 1 -->
<!--zoomable 514 -->
<svg id="main" version="1.1" xmlns="http://www.w3.org/2000/svg" xmlns:xlink="http://www.w3.org/1999/xlink" xml:space="preserve" onload="init(evt)">
<style type="text/css"><![CDATA[
.edge:hover path { stroke: red; }
.edge:hover polygon { stroke: red; fill: red; }
]]></style>
<script type="text/javascript"><![CDATA[
var edges = document.getElementsByTagName('g');
if (edges && edges.length) {
  for (var i=0;i<edges.length;i++) {
    if (edges[i].id.substr(0,4)=='edge') {
      edges[i].setAttribute('class','edge');
    }
  }
}
]]></script>
        <defs>
                <circle id="rim" cx="0" cy="0" r="7"/>
                <circle id="rim2" cx="0" cy="0" r="3.5"/>
                <g id="zoomPlus">
                        <use xlink:href="#rim" fill="#404040">
                                <set attributeName="fill" to="#808080" begin="zoomplus.mouseover" end="zoomplus.mouseout"/>
                        </use>
                        <path d="M-4,0h8M0,-4v8" fill="none" stroke="white" stroke-width="1.5" pointer-events="none"/>
                </g>
                <g id="zoomMin">
                        <use xlink:href="#rim" fill="#404040">
                                <set attributeName="fill" to="#808080" begin="zoomminus.mouseover" end="zoomminus.mouseout"/>
                        </use>
                        <path d="M-4,0h8" fill="none" stroke="white" stroke-width="1.5" pointer-events="none"/>
                </g>
                <g id="dirArrow">
                        <path fill="none" stroke="white" stroke-width="1.5" d="M0,-3.0v7 M-2.5,-0.5L0,-3.0L2.5,-0.5"/>
                </g>
               <g id="resetDef">
                       <use xlink:href="#rim2" fill="#404040">
                               <set attributeName="fill" to="#808080" begin="reset.mouseover" end="reset.mouseout"/>
                       </use>
               </g>
        </defs>

<script type="text/javascript">
var viewWidth = 408;
var viewHeight = 514;
var sectionId = 'dynsection-0';
</script>
<script xlink:href="../../svgpan.js"/>
<svg id="graph" class="graph">
<g id="viewport">
<title>o2::steer::InteractionSampler</title>
<!-- Node1 -->
<g id="node1" class="node"><title>Node1</title>
<polygon fill="#bfbfbf" stroke="black" points="118.5,-0.5 118.5,-321.5 261.5,-321.5 261.5,-0.5 118.5,-0.5"/>
<text text-anchor="middle" x="190" y="-309.5" font-family="Helvetica,sans-Serif" font-size="10.00">o2::steer::InteractionSampler</text>
<polyline fill="none" stroke="black" points="118.5,-302.5 261.5,-302.5 "/>
<text text-anchor="middle" x="190" y="-290.5" font-family="Helvetica,sans-Serif" font-size="10.00"> </text>
<polyline fill="none" stroke="black" points="118.5,-283.5 261.5,-283.5 "/>
<text text-anchor="start" x="126.5" y="-271.5" font-family="Helvetica,sans-Serif" font-size="10.00">+ generateCollisionTime()</text>
<text text-anchor="start" x="126.5" y="-260.5" font-family="Helvetica,sans-Serif" font-size="10.00">+ generateCollisionTimes()</text>
<text text-anchor="start" x="126.5" y="-249.5" font-family="Helvetica,sans-Serif" font-size="10.00">+ init()</text>
<text text-anchor="start" x="126.5" y="-238.5" font-family="Helvetica,sans-Serif" font-size="10.00">+ setInteractionRate()</text>
<text text-anchor="start" x="126.5" y="-227.5" font-family="Helvetica,sans-Serif" font-size="10.00">+ getInteractionRate()</text>
<text text-anchor="start" x="126.5" y="-216.5" font-family="Helvetica,sans-Serif" font-size="10.00">+ setMuPerBC()</text>
<text text-anchor="start" x="126.5" y="-205.5" font-family="Helvetica,sans-Serif" font-size="10.00">+ getMuPerBC()</text>
<text text-anchor="start" x="126.5" y="-194.5" font-family="Helvetica,sans-Serif" font-size="10.00">+ setBCTimeRMS()</text>
<text text-anchor="start" x="126.5" y="-183.5" font-family="Helvetica,sans-Serif" font-size="10.00">+ getBCTimeRMS()</text>
<text text-anchor="start" x="126.5" y="-172.5" font-family="Helvetica,sans-Serif" font-size="10.00">+ getBunchFilling()</text>
<text text-anchor="start" x="126.5" y="-161.5" font-family="Helvetica,sans-Serif" font-size="10.00">+ getBunchFilling()</text>
<text text-anchor="start" x="126.5" y="-150.5" font-family="Helvetica,sans-Serif" font-size="10.00">+ getNCollidingBC()</text>
<text text-anchor="start" x="126.5" y="-139.5" font-family="Helvetica,sans-Serif" font-size="10.00">+ getBCMin()</text>
<text text-anchor="start" x="126.5" y="-128.5" font-family="Helvetica,sans-Serif" font-size="10.00">+ getBCMax()</text>
<text text-anchor="start" x="126.5" y="-117.5" font-family="Helvetica,sans-Serif" font-size="10.00">+ getBC()</text>
<text text-anchor="start" x="126.5" y="-106.5" font-family="Helvetica,sans-Serif" font-size="10.00">+ setBC()</text>
<text text-anchor="start" x="126.5" y="-95.5" font-family="Helvetica,sans-Serif" font-size="10.00">+ setBCTrain()</text>
<text text-anchor="start" x="126.5" y="-84.5" font-family="Helvetica,sans-Serif" font-size="10.00">+ setBCTrains()</text>
<text text-anchor="start" x="126.5" y="-73.5" font-family="Helvetica,sans-Serif" font-size="10.00">+ setDefaultBunchFilling()</text>
<text text-anchor="start" x="126.5" y="-62.5" font-family="Helvetica,sans-Serif" font-size="10.00">+ print()</text>
<text text-anchor="start" x="126.5" y="-51.5" font-family="Helvetica,sans-Serif" font-size="10.00">+ printBunchFilling()</text>
<text text-anchor="start" x="126.5" y="-40.5" font-family="Helvetica,sans-Serif" font-size="10.00"># simulateInteractingBC()</text>
<text text-anchor="start" x="126.5" y="-29.5" font-family="Helvetica,sans-Serif" font-size="10.00"># genPoissonZT()</text>
<text text-anchor="start" x="126.5" y="-18.5" font-family="Helvetica,sans-Serif" font-size="10.00"># nextCollidingBC()</text>
<text text-anchor="start" x="126.5" y="-7.5" font-family="Helvetica,sans-Serif" font-size="10.00"># ClassDefNV()</text>
</g>
<!-- Node2 -->
<g id="node2" class="node"><title>Node2</title>
<polygon fill="none" stroke="#bfbfbf" points="0,-442.5 0,-499.5 90,-499.5 90,-442.5 0,-442.5"/>
<text text-anchor="middle" x="45" y="-487.5" font-family="Helvetica,sans-Serif" font-size="10.00">vector&lt; double &gt;</text>
<polyline fill="none" stroke="#bfbfbf" points="0,-480.5 90,-480.5 "/>
<text text-anchor="middle" x="45" y="-468.5" font-family="Helvetica,sans-Serif" font-size="10.00"> </text>
<polyline fill="none" stroke="#bfbfbf" points="0,-461.5 90,-461.5 "/>
<text text-anchor="middle" x="45" y="-449.5" font-family="Helvetica,sans-Serif" font-size="10.00"> </text>
</g>
<!-- Node2&#45;&gt;Node1 -->
<g id="edge1" class="edge"><title>Node2&#45;&gt;Node1</title>
<path fill="none" stroke="#404040" d="M45.0346,-442.395C45.9309,-415.394 49.6498,-373.556 63,-340 74.8215,-310.287 92.6144,-280.855 111.169,-254.736"/>
<polygon fill="none" stroke="#404040" points="111.261,-254.608 111.546,-247.403 118.306,-244.894 118.022,-252.1 111.261,-254.608"/>
<text text-anchor="middle" x="93.5" y="-376.5" font-family="Helvetica,sans-Serif" font-size="10.00"> #mTimeInBC</text>
</g>
<!-- Node3 -->
<g id="node3" class="node"><title>Node3</title>
<g id="a_node3"><a xlink:href="../../df/de6/classdouble.html" target="_top" xlink:title="{double\n||}">
<polygon fill="none" stroke="black" points="108.5,-442.5 108.5,-499.5 153.5,-499.5 153.5,-442.5 108.5,-442.5"/>
<text text-anchor="middle" x="131" y="-487.5" font-family="Helvetica,sans-Serif" font-size="10.00">double</text>
<polyline fill="none" stroke="black" points="108.5,-480.5 153.5,-480.5 "/>
<text text-anchor="middle" x="131" y="-468.5" font-family="Helvetica,sans-Serif" font-size="10.00"> </text>
<polyline fill="none" stroke="black" points="108.5,-461.5 153.5,-461.5 "/>
<text text-anchor="middle" x="131" y="-449.5" font-family="Helvetica,sans-Serif" font-size="10.00"> </text>
</a>
</g>
</g>
<!-- Node3&#45;&gt;Node1 -->
<g id="edge2" class="edge"><title>Node3&#45;&gt;Node1</title>
<path fill="none" stroke="#404040" d="M128.779,-442.403C127.221,-415.946 126.308,-374.975 132,-340 132.357,-337.81 132.735,-335.609 133.135,-333.401"/>
<polygon fill="none" stroke="#404040" points="133.153,-333.308 130.382,-326.65 135.462,-321.532 138.233,-328.19 133.153,-333.308"/>
<text text-anchor="middle" x="180" y="-409.5" font-family="Helvetica,sans-Serif" font-size="10.00"> #mProbNoInteraction</text>
<text text-anchor="middle" x="180" y="-398.5" font-family="Helvetica,sans-Serif" font-size="10.00">#mMuBCZTRed</text>
<text text-anchor="middle" x="180" y="-387.5" font-family="Helvetica,sans-Serif" font-size="10.00">+Sec2NanoSec</text>
<text text-anchor="middle" x="180" y="-376.5" font-family="Helvetica,sans-Serif" font-size="10.00">#mBCTimeRMS</text>
<text text-anchor="middle" x="180" y="-365.5" font-family="Helvetica,sans-Serif" font-size="10.00">#mIntRate</text>
<text text-anchor="middle" x="180" y="-354.5" font-family="Helvetica,sans-Serif" font-size="10.00">#DefIntRate</text>
<text text-anchor="middle" x="180" y="-343.5" font-family="Helvetica,sans-Serif" font-size="10.00">#mMuBC</text>
</g>
<!-- Node4 -->
<g id="node4" class="node"><title>Node4</title>
<polygon fill="none" stroke="#bfbfbf" points="186,-437 186,-505 314,-505 314,-437 186,-437"/>
<text text-anchor="start" x="194" y="-493" font-family="Helvetica,sans-Serif" font-size="10.00">bitset&lt; o2::constants</text>
<text text-anchor="middle" x="250" y="-482" font-family="Helvetica,sans-Serif" font-size="10.00">::lhc::LHCMaxBunches &gt;</text>
<polyline fill="none" stroke="#bfbfbf" points="186,-475 314,-475 "/>
<text text-anchor="middle" x="250" y="-463" font-family="Helvetica,sans-Serif" font-size="10.00"> </text>
<polyline fill="none" stroke="#bfbfbf" points="186,-456 314,-456 "/>
<text text-anchor="middle" x="250" y="-444" font-family="Helvetica,sans-Serif" font-size="10.00"> </text>
</g>
<!-- Node4&#45;&gt;Node1 -->
<g id="edge3" class="edge"><title>Node4&#45;&gt;Node1</title>
<path fill="none" stroke="#404040" d="M244.783,-436.802C240.551,-410.492 234.278,-372.825 228,-340 227.584,-337.825 227.162,-335.636 226.736,-333.435"/>
<polygon fill="none" stroke="#404040" points="226.717,-333.339 221.637,-328.221 224.408,-321.563 229.488,-326.682 226.717,-333.339"/>
<text text-anchor="middle" x="270.5" y="-376.5" font-family="Helvetica,sans-Serif" font-size="10.00"> #mBCFilling</text>
</g>
<!-- Node5 -->
<g id="node5" class="node"><title>Node5</title>
<polygon fill="none" stroke="#bfbfbf" points="332.5,-442.5 332.5,-499.5 361.5,-499.5 361.5,-442.5 332.5,-442.5"/>
<text text-anchor="middle" x="347" y="-487.5" font-family="Helvetica,sans-Serif" font-size="10.00">int</text>
<polyline fill="none" stroke="#bfbfbf" points="332.5,-480.5 361.5,-480.5 "/>
<text text-anchor="middle" x="347" y="-468.5" font-family="Helvetica,sans-Serif" font-size="10.00"> </text>
<polyline fill="none" stroke="#bfbfbf" points="332.5,-461.5 361.5,-461.5 "/>
<text text-anchor="middle" x="347" y="-449.5" font-family="Helvetica,sans-Serif" font-size="10.00"> </text>
</g>
<!-- Node5&#45;&gt;Node1 -->
<g id="edge4" class="edge"><title>Node5&#45;&gt;Node1</title>
<path fill="none" stroke="#404040" d="M339.732,-442.365C332.194,-415.524 319.239,-373.964 303,-340 292.802,-318.671 280.557,-296.774 267.947,-275.953"/>
<polygon fill="none" stroke="#404040" points="267.809,-275.728 261.261,-272.707 261.532,-265.501 268.08,-268.522 267.809,-275.728"/>
<text text-anchor="middle" x="366" y="-404" font-family="Helvetica,sans-Serif" font-size="10.00"> #mOrbit</text>
<text text-anchor="middle" x="366" y="-393" font-family="Helvetica,sans-Serif" font-size="10.00">#mPeriod</text>
<text text-anchor="middle" x="366" y="-382" font-family="Helvetica,sans-Serif" font-size="10.00">#mBCCurrent</text>
<text text-anchor="middle" x="366" y="-371" font-family="Helvetica,sans-Serif" font-size="10.00">#mIntBCCache</text>
<text text-anchor="middle" x="366" y="-360" font-family="Helvetica,sans-Serif" font-size="10.00">#mBCMax</text>
<text text-anchor="middle" x="366" y="-349" font-family="Helvetica,sans-Serif" font-size="10.00">#mBCMin</text>
</g>
</g>
</svg>
        <g id="navigator" transform="translate(0 0)" fill="#404254">
                <rect fill="#f2f5e9" fill-opacity="0.5" stroke="#606060" stroke-width=".5" x="0" y="0" width="60" height="60"/>
                <use id="zoomplus" xlink:href="#zoomPlus" x="17" y="9" onmousedown="handleZoom(evt,'in')"/>
                <use id="zoomminus" xlink:href="#zoomMin" x="42" y="9" onmousedown="handleZoom(evt,'out')"/>
                <use id="reset" xlink:href="#resetDef" x="30" y="36" onmousedown="handleReset()"/>
                <g id="arrowUp" xlink:href="#dirArrow" transform="translate(30 24)" onmousedown="handlePan(0,-1)">
                  <use xlink:href="#rim" fill="#404040">
                        <set attributeName="fill" to="#808080" begin="arrowUp.mouseover" end="arrowUp.mouseout"/>
                  </use>
                  <path fill="none" stroke="white" stroke-width="1.5" d="M0,-3.0v7 M-2.5,-0.5L0,-3.0L2.5,-0.5"/>
                </g>
                <g id="arrowRight" xlink:href="#dirArrow" transform="rotate(90) translate(36 -43)" onmousedown="handlePan(1,0)">
                  <use xlink:href="#rim" fill="#404040">
                        <set attributeName="fill" to="#808080" begin="arrowRight.mouseover" end="arrowRight.mouseout"/>
                  </use>
                  <path fill="none" stroke="white" stroke-width="1.5" d="M0,-3.0v7 M-2.5,-0.5L0,-3.0L2.5,-0.5"/>
                </g>
                <g id="arrowDown" xlink:href="#dirArrow" transform="rotate(180) translate(-30 -48)" onmousedown="handlePan(0,1)">
                  <use xlink:href="#rim" fill="#404040">
                        <set attributeName="fill" to="#808080" begin="arrowDown.mouseover" end="arrowDown.mouseout"/>
                  </use>
                  <path fill="none" stroke="white" stroke-width="1.5" d="M0,-3.0v7 M-2.5,-0.5L0,-3.0L2.5,-0.5"/>
                </g>
                <g id="arrowLeft" xlink:href="#dirArrow" transform="rotate(270) translate(-36 17)" onmousedown="handlePan(-1,0)">
                  <use xlink:href="#rim" fill="#404040">
                        <set attributeName="fill" to="#808080" begin="arrowLeft.mouseover" end="arrowLeft.mouseout"/>
                  </use>
                  <path fill="none" stroke="white" stroke-width="1.5" d="M0,-3.0v7 M-2.5,-0.5L0,-3.0L2.5,-0.5"/>
                </g>
        </g>
        <svg viewBox="0 0 15 15" width="100%" height="30px" preserveAspectRatio="xMaxYMin meet">
         <g id="arrow_out" transform="scale(0.3 0.3)">
          <a xlink:href="classo2_1_1steer_1_1InteractionSampler__coll__graph_org.svg" target="_base">
           <rect id="button" ry="5" rx="5" y="6" x="6" height="38" width="38"
                fill="#f2f5e9" fill-opacity="0.5" stroke="#606060" stroke-width="1.0"/>
           <path id="arrow"
             d="M 11.500037,31.436501 C 11.940474,20.09759 22.043105,11.32322 32.158766,21.979434 L 37.068811,17.246167 C 37.068811,17.246167 37.088388,32 37.088388,32 L 22.160133,31.978069 C 22.160133,31.978069 26.997745,27.140456 26.997745,27.140456 C 18.528582,18.264221 13.291696,25.230495 11.500037,31.436501 z"
             style="fill:#404040;"/>
          </a>
         </g>
        </svg>
</svg>
