<?xml version="1.0" encoding="UTF-8" standalone="no"?>
<!DOCTYPE svg PUBLIC "-//W3C//DTD SVG 1.1//EN"
 "http://www.w3.org/Graphics/SVG/1.1/DTD/svg11.dtd">
<!-- Generated by graphviz version 2.36.0 (20140111.2315)
 -->
<!-- Title: o2::steer::InteractionSampler Pages: 1 -->
<svg width="408pt" height="514pt"
 viewBox="0.00 0.00 408.00 514.00" xmlns="http://www.w3.org/2000/svg" xmlns:xlink="http://www.w3.org/1999/xlink">
<g id="graph0" class="graph" transform="scale(1 1) rotate(0) translate(4 510)">
<title>o2::steer::InteractionSampler</title>
<!-- Node1 -->
<g id="node1" class="node"><title>Node1</title>
<polygon fill="#bfbfbf" stroke="black" points="118.5,-0.5 118.5,-321.5 261.5,-321.5 261.5,-0.5 118.5,-0.5"/>
<text text-anchor="middle" x="190" y="-309.5" font-family="Helvetica,sans-Serif" font-size="10.00">o2::steer::InteractionSampler</text>
<polyline fill="none" stroke="black" points="118.5,-302.5 261.5,-302.5 "/>
<text text-anchor="middle" x="190" y="-290.5" font-family="Helvetica,sans-Serif" font-size="10.00"> </text>
<polyline fill="none" stroke="black" points="118.5,-283.5 261.5,-283.5 "/>
<text text-anchor="start" x="126.5" y="-271.5" font-family="Helvetica,sans-Serif" font-size="10.00">+ generateCollisionTime()</text>
<text text-anchor="start" x="126.5" y="-260.5" font-family="Helvetica,sans-Serif" font-size="10.00">+ generateCollisionTimes()</text>
<text text-anchor="start" x="126.5" y="-249.5" font-family="Helvetica,sans-Serif" font-size="10.00">+ init()</text>
<text text-anchor="start" x="126.5" y="-238.5" font-family="Helvetica,sans-Serif" font-size="10.00">+ setInteractionRate()</text>
<text text-anchor="start" x="126.5" y="-227.5" font-family="Helvetica,sans-Serif" font-size="10.00">+ getInteractionRate()</text>
<text text-anchor="start" x="126.5" y="-216.5" font-family="Helvetica,sans-Serif" font-size="10.00">+ setMuPerBC()</text>
<text text-anchor="start" x="126.5" y="-205.5" font-family="Helvetica,sans-Serif" font-size="10.00">+ getMuPerBC()</text>
<text text-anchor="start" x="126.5" y="-194.5" font-family="Helvetica,sans-Serif" font-size="10.00">+ setBCTimeRMS()</text>
<text text-anchor="start" x="126.5" y="-183.5" font-family="Helvetica,sans-Serif" font-size="10.00">+ getBCTimeRMS()</text>
<text text-anchor="start" x="126.5" y="-172.5" font-family="Helvetica,sans-Serif" font-size="10.00">+ getBunchFilling()</text>
<text text-anchor="start" x="126.5" y="-161.5" font-family="Helvetica,sans-Serif" font-size="10.00">+ getBunchFilling()</text>
<text text-anchor="start" x="126.5" y="-150.5" font-family="Helvetica,sans-Serif" font-size="10.00">+ getNCollidingBC()</text>
<text text-anchor="start" x="126.5" y="-139.5" font-family="Helvetica,sans-Serif" font-size="10.00">+ getBCMin()</text>
<text text-anchor="start" x="126.5" y="-128.5" font-family="Helvetica,sans-Serif" font-size="10.00">+ getBCMax()</text>
<text text-anchor="start" x="126.5" y="-117.5" font-family="Helvetica,sans-Serif" font-size="10.00">+ getBC()</text>
<text text-anchor="start" x="126.5" y="-106.5" font-family="Helvetica,sans-Serif" font-size="10.00">+ setBC()</text>
<text text-anchor="start" x="126.5" y="-95.5" font-family="Helvetica,sans-Serif" font-size="10.00">+ setBCTrain()</text>
<text text-anchor="start" x="126.5" y="-84.5" font-family="Helvetica,sans-Serif" font-size="10.00">+ setBCTrains()</text>
<text text-anchor="start" x="126.5" y="-73.5" font-family="Helvetica,sans-Serif" font-size="10.00">+ setDefaultBunchFilling()</text>
<text text-anchor="start" x="126.5" y="-62.5" font-family="Helvetica,sans-Serif" font-size="10.00">+ print()</text>
<text text-anchor="start" x="126.5" y="-51.5" font-family="Helvetica,sans-Serif" font-size="10.00">+ printBunchFilling()</text>
<text text-anchor="start" x="126.5" y="-40.5" font-family="Helvetica,sans-Serif" font-size="10.00"># simulateInteractingBC()</text>
<text text-anchor="start" x="126.5" y="-29.5" font-family="Helvetica,sans-Serif" font-size="10.00"># genPoissonZT()</text>
<text text-anchor="start" x="126.5" y="-18.5" font-family="Helvetica,sans-Serif" font-size="10.00"># nextCollidingBC()</text>
<text text-anchor="start" x="126.5" y="-7.5" font-family="Helvetica,sans-Serif" font-size="10.00"># ClassDefNV()</text>
</g>
<!-- Node2 -->
<g id="node2" class="node"><title>Node2</title>
<polygon fill="none" stroke="#bfbfbf" points="0,-442.5 0,-499.5 90,-499.5 90,-442.5 0,-442.5"/>
<text text-anchor="middle" x="45" y="-487.5" font-family="Helvetica,sans-Serif" font-size="10.00">vector&lt; double &gt;</text>
<polyline fill="none" stroke="#bfbfbf" points="0,-480.5 90,-480.5 "/>
<text text-anchor="middle" x="45" y="-468.5" font-family="Helvetica,sans-Serif" font-size="10.00"> </text>
<polyline fill="none" stroke="#bfbfbf" points="0,-461.5 90,-461.5 "/>
<text text-anchor="middle" x="45" y="-449.5" font-family="Helvetica,sans-Serif" font-size="10.00"> </text>
</g>
<!-- Node2&#45;&gt;Node1 -->
<g id="edge1" class="edge"><title>Node2&#45;&gt;Node1</title>
<path fill="none" stroke="#404040" d="M45.0346,-442.395C45.9309,-415.394 49.6498,-373.556 63,-340 74.8215,-310.287 92.6144,-280.855 111.169,-254.736"/>
<polygon fill="none" stroke="#404040" points="111.261,-254.608 111.546,-247.403 118.306,-244.894 118.022,-252.1 111.261,-254.608"/>
<text text-anchor="middle" x="93.5" y="-376.5" font-family="Helvetica,sans-Serif" font-size="10.00"> #mTimeInBC</text>
</g>
<!-- Node3 -->
<g id="node3" class="node"><title>Node3</title>
<g id="a_node3"><a xlink:href="../../df/de6/classdouble.html" target="_top" xlink:title="{double\n||}">
<polygon fill="none" stroke="black" points="108.5,-442.5 108.5,-499.5 153.5,-499.5 153.5,-442.5 108.5,-442.5"/>
<text text-anchor="middle" x="131" y="-487.5" font-family="Helvetica,sans-Serif" font-size="10.00">double</text>
<polyline fill="none" stroke="black" points="108.5,-480.5 153.5,-480.5 "/>
<text text-anchor="middle" x="131" y="-468.5" font-family="Helvetica,sans-Serif" font-size="10.00"> </text>
<polyline fill="none" stroke="black" points="108.5,-461.5 153.5,-461.5 "/>
<text text-anchor="middle" x="131" y="-449.5" font-family="Helvetica,sans-Serif" font-size="10.00"> </text>
</a>
</g>
</g>
<!-- Node3&#45;&gt;Node1 -->
<g id="edge2" class="edge"><title>Node3&#45;&gt;Node1</title>
<path fill="none" stroke="#404040" d="M128.779,-442.403C127.221,-415.946 126.308,-374.975 132,-340 132.357,-337.81 132.735,-335.609 133.135,-333.401"/>
<polygon fill="none" stroke="#404040" points="133.153,-333.308 130.382,-326.65 135.462,-321.532 138.233,-328.19 133.153,-333.308"/>
<text text-anchor="middle" x="180" y="-409.5" font-family="Helvetica,sans-Serif" font-size="10.00"> #mProbNoInteraction</text>
<text text-anchor="middle" x="180" y="-398.5" font-family="Helvetica,sans-Serif" font-size="10.00">#mMuBCZTRed</text>
<text text-anchor="middle" x="180" y="-387.5" font-family="Helvetica,sans-Serif" font-size="10.00">+Sec2NanoSec</text>
<text text-anchor="middle" x="180" y="-376.5" font-family="Helvetica,sans-Serif" font-size="10.00">#mBCTimeRMS</text>
<text text-anchor="middle" x="180" y="-365.5" font-family="Helvetica,sans-Serif" font-size="10.00">#mIntRate</text>
<text text-anchor="middle" x="180" y="-354.5" font-family="Helvetica,sans-Serif" font-size="10.00">#DefIntRate</text>
<text text-anchor="middle" x="180" y="-343.5" font-family="Helvetica,sans-Serif" font-size="10.00">#mMuBC</text>
</g>
<!-- Node4 -->
<g id="node4" class="node"><title>Node4</title>
<polygon fill="none" stroke="#bfbfbf" points="186,-437 186,-505 314,-505 314,-437 186,-437"/>
<text text-anchor="start" x="194" y="-493" font-family="Helvetica,sans-Serif" font-size="10.00">bitset&lt; o2::constants</text>
<text text-anchor="middle" x="250" y="-482" font-family="Helvetica,sans-Serif" font-size="10.00">::lhc::LHCMaxBunches &gt;</text>
<polyline fill="none" stroke="#bfbfbf" points="186,-475 314,-475 "/>
<text text-anchor="middle" x="250" y="-463" font-family="Helvetica,sans-Serif" font-size="10.00"> </text>
<polyline fill="none" stroke="#bfbfbf" points="186,-456 314,-456 "/>
<text text-anchor="middle" x="250" y="-444" font-family="Helvetica,sans-Serif" font-size="10.00"> </text>
</g>
<!-- Node4&#45;&gt;Node1 -->
<g id="edge3" class="edge"><title>Node4&#45;&gt;Node1</title>
<path fill="none" stroke="#404040" d="M244.783,-436.802C240.551,-410.492 234.278,-372.825 228,-340 227.584,-337.825 227.162,-335.636 226.736,-333.435"/>
<polygon fill="none" stroke="#404040" points="226.717,-333.339 221.637,-328.221 224.408,-321.563 229.488,-326.682 226.717,-333.339"/>
<text text-anchor="middle" x="270.5" y="-376.5" font-family="Helvetica,sans-Serif" font-size="10.00"> #mBCFilling</text>
</g>
<!-- Node5 -->
<g id="node5" class="node"><title>Node5</title>
<polygon fill="none" stroke="#bfbfbf" points="332.5,-442.5 332.5,-499.5 361.5,-499.5 361.5,-442.5 332.5,-442.5"/>
<text text-anchor="middle" x="347" y="-487.5" font-family="Helvetica,sans-Serif" font-size="10.00">int</text>
<polyline fill="none" stroke="#bfbfbf" points="332.5,-480.5 361.5,-480.5 "/>
<text text-anchor="middle" x="347" y="-468.5" font-family="Helvetica,sans-Serif" font-size="10.00"> </text>
<polyline fill="none" stroke="#bfbfbf" points="332.5,-461.5 361.5,-461.5 "/>
<text text-anchor="middle" x="347" y="-449.5" font-family="Helvetica,sans-Serif" font-size="10.00"> </text>
</g>
<!-- Node5&#45;&gt;Node1 -->
<g id="edge4" class="edge"><title>Node5&#45;&gt;Node1</title>
<path fill="none" stroke="#404040" d="M339.732,-442.365C332.194,-415.524 319.239,-373.964 303,-340 292.802,-318.671 280.557,-296.774 267.947,-275.953"/>
<polygon fill="none" stroke="#404040" points="267.809,-275.728 261.261,-272.707 261.532,-265.501 268.08,-268.522 267.809,-275.728"/>
<text text-anchor="middle" x="366" y="-404" font-family="Helvetica,sans-Serif" font-size="10.00"> #mOrbit</text>
<text text-anchor="middle" x="366" y="-393" font-family="Helvetica,sans-Serif" font-size="10.00">#mPeriod</text>
<text text-anchor="middle" x="366" y="-382" font-family="Helvetica,sans-Serif" font-size="10.00">#mBCCurrent</text>
<text text-anchor="middle" x="366" y="-371" font-family="Helvetica,sans-Serif" font-size="10.00">#mIntBCCache</text>
<text text-anchor="middle" x="366" y="-360" font-family="Helvetica,sans-Serif" font-size="10.00">#mBCMax</text>
<text text-anchor="middle" x="366" y="-349" font-family="Helvetica,sans-Serif" font-size="10.00">#mBCMin</text>
</g>
</g>
</svg>
