<?xml version="1.0" encoding="UTF-8" standalone="no"?>
<!DOCTYPE svg PUBLIC "-//W3C//DTD SVG 1.1//EN"
 "http://www.w3.org/Graphics/SVG/1.1/DTD/svg11.dtd">
<!-- Generated by graphviz version 2.36.0 (20140111.2315)
 -->
<!-- Title: /home/travis/build/AliceO2Group/AliceO2/Steer/src/InteractionSampler.cxx Pages: 1 -->
<svg width="593pt" height="230pt"
 viewBox="0.00 0.00 593.29 230.00" xmlns="http://www.w3.org/2000/svg" xmlns:xlink="http://www.w3.org/1999/xlink">
<g id="graph0" class="graph" transform="scale(1 1) rotate(0) translate(4 226)">
<title>/home/travis/build/AliceO2Group/AliceO2/Steer/src/InteractionSampler.cxx</title>
<!-- Node1 -->
<g id="node1" class="node"><title>Node1</title>
<polygon fill="#bfbfbf" stroke="black" points="172.787,-180.5 172.787,-221.5 335.787,-221.5 335.787,-180.5 172.787,-180.5"/>
<text text-anchor="start" x="180.787" y="-209.5" font-family="Helvetica,sans-Serif" font-size="10.00">/home/travis/build</text>
<text text-anchor="start" x="180.787" y="-198.5" font-family="Helvetica,sans-Serif" font-size="10.00">/AliceO2Group/AliceO2</text>
<text text-anchor="middle" x="254.287" y="-187.5" font-family="Helvetica,sans-Serif" font-size="10.00">/Steer/src/InteractionSampler.cxx</text>
</g>
<!-- Node2 -->
<g id="node2" class="node"><title>Node2</title>
<g id="a_node2"><a xlink:href="../../df/dff/InteractionSampler_8h.html" target="_top" xlink:title="Steer/InteractionSampler.h">
<polygon fill="none" stroke="black" points="127.787,-124.5 127.787,-143.5 260.787,-143.5 260.787,-124.5 127.787,-124.5"/>
<text text-anchor="middle" x="194.287" y="-131.5" font-family="Helvetica,sans-Serif" font-size="10.00">Steer/InteractionSampler.h</text>
</a>
</g>
</g>
<!-- Node1&#45;&gt;Node2 -->
<g id="edge1" class="edge"><title>Node1&#45;&gt;Node2</title>
<path fill="none" stroke="midnightblue" d="M236.285,-180.498C227.617,-171.107 217.349,-159.983 209.135,-151.085"/>
<polygon fill="midnightblue" stroke="midnightblue" points="211.629,-148.627 202.274,-143.652 206.485,-153.375 211.629,-148.627"/>
</g>
<!-- Node12 -->
<g id="node12" class="node"><title>Node12</title>
<polygon fill="none" stroke="#bfbfbf" points="278.787,-124.5 278.787,-143.5 349.787,-143.5 349.787,-124.5 278.787,-124.5"/>
<text text-anchor="middle" x="314.287" y="-131.5" font-family="Helvetica,sans-Serif" font-size="10.00">FairLogger.h</text>
</g>
<!-- Node1&#45;&gt;Node12 -->
<g id="edge13" class="edge"><title>Node1&#45;&gt;Node12</title>
<path fill="none" stroke="midnightblue" d="M272.289,-180.498C280.958,-171.107 291.226,-159.983 299.44,-151.085"/>
<polygon fill="midnightblue" stroke="midnightblue" points="302.089,-153.375 306.3,-143.652 296.946,-148.627 302.089,-153.375"/>
</g>
<!-- Node3 -->
<g id="node3" class="node"><title>Node3</title>
<polygon fill="none" stroke="#bfbfbf" points="81.2874,-0.5 81.2874,-19.5 137.287,-19.5 137.287,-0.5 81.2874,-0.5"/>
<text text-anchor="middle" x="109.287" y="-7.5" font-family="Helvetica,sans-Serif" font-size="10.00">Rtypes.h</text>
</g>
<!-- Node2&#45;&gt;Node3 -->
<g id="edge2" class="edge"><title>Node2&#45;&gt;Node3</title>
<path fill="none" stroke="midnightblue" d="M127.404,-125.73C79.6694,-119.003 21.3574,-107.103 6.2874,-88 -2.52127,-76.834 -1.50014,-67.9007 6.2874,-56 20.6214,-34.0953 48.2161,-22.7908 71.2377,-16.9919"/>
<polygon fill="midnightblue" stroke="midnightblue" points="72.1176,-20.3814 81.0999,-14.7628 70.5743,-13.5537 72.1176,-20.3814"/>
</g>
<!-- Node4 -->
<g id="node4" class="node"><title>Node4</title>
<polygon fill="none" stroke="#bfbfbf" points="15.7874,-62.5 15.7874,-81.5 68.7874,-81.5 68.7874,-62.5 15.7874,-62.5"/>
<text text-anchor="middle" x="42.2874" y="-69.5" font-family="Helvetica,sans-Serif" font-size="10.00">TMath.h</text>
</g>
<!-- Node2&#45;&gt;Node4 -->
<g id="edge3" class="edge"><title>Node2&#45;&gt;Node4</title>
<path fill="none" stroke="midnightblue" d="M171.55,-124.37C148.115,-115.431 110.553,-100.978 78.2874,-88 76.4029,-87.242 74.4657,-86.4557 72.514,-85.658"/>
<polygon fill="midnightblue" stroke="midnightblue" points="73.391,-82.2337 62.812,-81.6548 70.721,-88.7045 73.391,-82.2337"/>
</g>
<!-- Node5 -->
<g id="node5" class="node"><title>Node5</title>
<polygon fill="none" stroke="#bfbfbf" points="87.2874,-62.5 87.2874,-81.5 155.287,-81.5 155.287,-62.5 87.2874,-62.5"/>
<text text-anchor="middle" x="121.287" y="-69.5" font-family="Helvetica,sans-Serif" font-size="10.00">TRandom.h</text>
</g>
<!-- Node2&#45;&gt;Node5 -->
<g id="edge4" class="edge"><title>Node2&#45;&gt;Node5</title>
<path fill="none" stroke="midnightblue" d="M183.828,-124.403C172.336,-114.958 153.658,-99.6056 139.701,-88.1342"/>
<polygon fill="midnightblue" stroke="midnightblue" points="141.675,-85.2264 131.727,-81.5806 137.23,-90.6342 141.675,-85.2264"/>
</g>
<!-- Node6 -->
<g id="node6" class="node"><title>Node6</title>
<polygon fill="none" stroke="#bfbfbf" points="173.787,-62.5 173.787,-81.5 214.787,-81.5 214.787,-62.5 173.787,-62.5"/>
<text text-anchor="middle" x="194.287" y="-69.5" font-family="Helvetica,sans-Serif" font-size="10.00">bitset</text>
</g>
<!-- Node2&#45;&gt;Node6 -->
<g id="edge5" class="edge"><title>Node2&#45;&gt;Node6</title>
<path fill="none" stroke="midnightblue" d="M194.287,-124.403C194.287,-115.938 194.287,-102.728 194.287,-91.8199"/>
<polygon fill="midnightblue" stroke="midnightblue" points="197.788,-91.5806 194.287,-81.5806 190.788,-91.5806 197.788,-91.5806"/>
</g>
<!-- Node7 -->
<g id="node7" class="node"><title>Node7</title>
<polygon fill="none" stroke="#bfbfbf" points="233.287,-62.5 233.287,-81.5 277.287,-81.5 277.287,-62.5 233.287,-62.5"/>
<text text-anchor="middle" x="255.287" y="-69.5" font-family="Helvetica,sans-Serif" font-size="10.00">vector</text>
</g>
<!-- Node2&#45;&gt;Node7 -->
<g id="edge6" class="edge"><title>Node2&#45;&gt;Node7</title>
<path fill="none" stroke="midnightblue" d="M203.027,-124.403C212.449,-115.136 227.652,-100.183 239.237,-88.7876"/>
<polygon fill="midnightblue" stroke="midnightblue" points="241.889,-91.0883 246.564,-81.5806 236.98,-86.0978 241.889,-91.0883"/>
</g>
<!-- Node8 -->
<g id="node8" class="node"><title>Node8</title>
<g id="a_node8"><a xlink:href="../../d9/d80/InteractionRecord_8h.html" target="_top" xlink:title="CommonDataFormat/Interaction\lRecord.h">
<polygon fill="none" stroke="black" points="295.787,-57 295.787,-87 452.787,-87 452.787,-57 295.787,-57"/>
<text text-anchor="start" x="303.787" y="-75" font-family="Helvetica,sans-Serif" font-size="10.00">CommonDataFormat/Interaction</text>
<text text-anchor="middle" x="374.287" y="-64" font-family="Helvetica,sans-Serif" font-size="10.00">Record.h</text>
</a>
</g>
</g>
<!-- Node2&#45;&gt;Node8 -->
<g id="edge7" class="edge"><title>Node2&#45;&gt;Node8</title>
<path fill="none" stroke="midnightblue" d="M220.077,-124.403C246.708,-115.526 288.991,-101.432 322.551,-90.2453"/>
<polygon fill="midnightblue" stroke="midnightblue" points="323.831,-93.5081 332.211,-87.0253 321.618,-86.8673 323.831,-93.5081"/>
</g>
<!-- Node11 -->
<g id="node11" class="node"><title>Node11</title>
<g id="a_node11"><a xlink:href="../../d4/dc6/LHCConstants_8h.html" target="_top" xlink:title="Header to collect LHC related constants. ">
<polygon fill="none" stroke="black" points="408.287,-0.5 408.287,-19.5 586.287,-19.5 586.287,-0.5 408.287,-0.5"/>
<text text-anchor="middle" x="497.287" y="-7.5" font-family="Helvetica,sans-Serif" font-size="10.00">CommonConstants/LHCConstants.h</text>
</a>
</g>
</g>
<!-- Node2&#45;&gt;Node11 -->
<g id="edge12" class="edge"><title>Node2&#45;&gt;Node11</title>
<path fill="none" stroke="midnightblue" d="M261.017,-125.024C334.84,-115.69 445.526,-99.9873 461.287,-88 479.963,-73.7962 489.328,-47.5328 493.743,-29.6694"/>
<polygon fill="midnightblue" stroke="midnightblue" points="497.18,-30.3314 495.891,-19.8153 490.341,-28.8402 497.18,-30.3314"/>
</g>
<!-- Node8&#45;&gt;Node3 -->
<g id="edge8" class="edge"><title>Node8&#45;&gt;Node3</title>
<path fill="none" stroke="midnightblue" d="M312.157,-56.9327C261.03,-45.3567 190.21,-29.3221 147.191,-19.5819"/>
<polygon fill="midnightblue" stroke="midnightblue" points="147.931,-16.161 137.405,-17.3662 146.385,-22.9882 147.931,-16.161"/>
</g>
<!-- Node9 -->
<g id="node9" class="node"><title>Node9</title>
<polygon fill="none" stroke="#bfbfbf" points="282.787,-0.5 282.787,-19.5 327.787,-19.5 327.787,-0.5 282.787,-0.5"/>
<text text-anchor="middle" x="305.287" y="-7.5" font-family="Helvetica,sans-Serif" font-size="10.00">iosfwd</text>
</g>
<!-- Node8&#45;&gt;Node9 -->
<g id="edge9" class="edge"><title>Node8&#45;&gt;Node9</title>
<path fill="none" stroke="midnightblue" d="M357.935,-56.7808C347.392,-47.6127 333.687,-35.6957 322.904,-26.3186"/>
<polygon fill="midnightblue" stroke="midnightblue" points="325.17,-23.6512 315.328,-19.7305 320.577,-28.9335 325.17,-23.6512"/>
</g>
<!-- Node10 -->
<g id="node10" class="node"><title>Node10</title>
<polygon fill="none" stroke="#bfbfbf" points="346.287,-0.5 346.287,-19.5 390.287,-19.5 390.287,-0.5 346.287,-0.5"/>
<text text-anchor="middle" x="368.287" y="-7.5" font-family="Helvetica,sans-Serif" font-size="10.00">cmath</text>
</g>
<!-- Node8&#45;&gt;Node10 -->
<g id="edge10" class="edge"><title>Node8&#45;&gt;Node10</title>
<path fill="none" stroke="midnightblue" d="M372.865,-56.7808C372.057,-48.6913 371.034,-38.4617 370.16,-29.725"/>
<polygon fill="midnightblue" stroke="midnightblue" points="373.638,-29.3326 369.16,-19.7305 366.673,-30.0292 373.638,-29.3326"/>
</g>
<!-- Node8&#45;&gt;Node11 -->
<g id="edge11" class="edge"><title>Node8&#45;&gt;Node11</title>
<path fill="none" stroke="midnightblue" d="M403.125,-56.9327C423.506,-46.9907 450.629,-33.7601 470.53,-24.0526"/>
<polygon fill="midnightblue" stroke="midnightblue" points="472.204,-27.13 479.657,-19.6 469.135,-20.8386 472.204,-27.13"/>
</g>
</g>
</svg>
