<?xml version="1.0" encoding="UTF-8" standalone="no"?>
<!DOCTYPE svg PUBLIC "-//W3C//DTD SVG 1.1//EN"
 "http://www.w3.org/Graphics/SVG/1.1/DTD/svg11.dtd">
<!-- Generated by graphviz version 2.36.0 (20140111.2315)
 -->
<!-- Title: /home/travis/build/AliceO2Group/AliceO2/Framework/Core/src/DataSamplingConditionRandom.cxx Pages: 1 -->
<svg width="1952pt" height="322pt"
 viewBox="0.00 0.00 1951.69 322.00" xmlns="http://www.w3.org/2000/svg" xmlns:xlink="http://www.w3.org/1999/xlink">
<g id="graph0" class="graph" transform="scale(1 1) rotate(0) translate(4 318)">
<title>/home/travis/build/AliceO2Group/AliceO2/Framework/Core/src/DataSamplingConditionRandom.cxx</title>
<!-- Node1 -->
<g id="node1" class="node"><title>Node1</title>
<polygon fill="#bfbfbf" stroke="black" points="669.5,-261 669.5,-313 842.5,-313 842.5,-261 669.5,-261"/>
<text text-anchor="start" x="677.5" y="-301" font-family="Helvetica,sans-Serif" font-size="10.00">/home/travis/build</text>
<text text-anchor="start" x="677.5" y="-290" font-family="Helvetica,sans-Serif" font-size="10.00">/AliceO2Group/AliceO2</text>
<text text-anchor="start" x="677.5" y="-279" font-family="Helvetica,sans-Serif" font-size="10.00">/Framework/Core/src/DataSampling</text>
<text text-anchor="middle" x="756" y="-268" font-family="Helvetica,sans-Serif" font-size="10.00">ConditionRandom.cxx</text>
</g>
<!-- Node2 -->
<g id="node2" class="node"><title>Node2</title>
<g id="a_node2"><a xlink:href="../../dd/dcf/DataSamplingCondition_8h.html" target="_top" xlink:title="A standarised data sampling condition, to decide if given data sample should be passed forward...">
<polygon fill="none" stroke="black" points="324.5,-136.5 324.5,-155.5 503.5,-155.5 503.5,-136.5 324.5,-136.5"/>
<text text-anchor="middle" x="414" y="-143.5" font-family="Helvetica,sans-Serif" font-size="10.00">Framework/DataSamplingCondition.h</text>
</a>
</g>
</g>
<!-- Node1&#45;&gt;Node2 -->
<g id="edge1" class="edge"><title>Node1&#45;&gt;Node2</title>
<path fill="none" stroke="midnightblue" d="M669.382,-261.298C636.01,-250.935 597.81,-238.028 564,-224 518.089,-204.951 467.089,-177.295 437.95,-160.831"/>
<polygon fill="midnightblue" stroke="midnightblue" points="439.367,-157.61 428.945,-155.705 435.904,-163.694 439.367,-157.61"/>
</g>
<!-- Node5 -->
<g id="node5" class="node"><title>Node5</title>
<g id="a_node5"><a xlink:href="../../de/dca/DataSamplingConditionFactory_8h.html" target="_top" xlink:title="A definition of DataSamplingConditionFactory. ">
<polygon fill="none" stroke="black" points="573.5,-193 573.5,-223 744.5,-223 744.5,-193 573.5,-193"/>
<text text-anchor="start" x="581.5" y="-211" font-family="Helvetica,sans-Serif" font-size="10.00">Framework/DataSamplingCondition</text>
<text text-anchor="middle" x="659" y="-200" font-family="Helvetica,sans-Serif" font-size="10.00">Factory.h</text>
</a>
</g>
</g>
<!-- Node1&#45;&gt;Node5 -->
<g id="edge4" class="edge"><title>Node1&#45;&gt;Node5</title>
<path fill="none" stroke="midnightblue" d="M724.239,-260.787C711.399,-250.595 696.776,-238.987 684.633,-229.348"/>
<polygon fill="midnightblue" stroke="midnightblue" points="686.683,-226.507 676.675,-223.031 682.331,-231.989 686.683,-226.507"/>
</g>
<!-- Node6 -->
<g id="node6" class="node"><title>Node6</title>
<g id="a_node6"><a xlink:href="../../d6/dc9/DataProcessingHeader_8h.html" target="_top" xlink:title="Framework/DataProcessing\lHeader.h">
<polygon fill="none" stroke="black" points="785,-193 785,-223 923,-223 923,-193 785,-193"/>
<text text-anchor="start" x="793" y="-211" font-family="Helvetica,sans-Serif" font-size="10.00">Framework/DataProcessing</text>
<text text-anchor="middle" x="854" y="-200" font-family="Helvetica,sans-Serif" font-size="10.00">Header.h</text>
</a>
</g>
</g>
<!-- Node1&#45;&gt;Node6 -->
<g id="edge6" class="edge"><title>Node1&#45;&gt;Node6</title>
<path fill="none" stroke="midnightblue" d="M788.089,-260.787C801.061,-250.595 815.834,-238.987 828.103,-229.348"/>
<polygon fill="midnightblue" stroke="midnightblue" points="830.442,-231.961 836.143,-223.031 826.117,-226.457 830.442,-231.961"/>
</g>
<!-- Node27 -->
<g id="node27" class="node"><title>Node27</title>
<g id="a_node27"><a xlink:href="../../dd/dc1/pcg__random_8hpp.html" target="_top" xlink:title="PCG/pcg_random.hpp">
<polygon fill="none" stroke="black" points="1333.5,-198.5 1333.5,-217.5 1446.5,-217.5 1446.5,-198.5 1333.5,-198.5"/>
<text text-anchor="middle" x="1390" y="-205.5" font-family="Helvetica,sans-Serif" font-size="10.00">PCG/pcg_random.hpp</text>
</a>
</g>
</g>
<!-- Node1&#45;&gt;Node27 -->
<g id="edge32" class="edge"><title>Node1&#45;&gt;Node27</title>
<path fill="none" stroke="midnightblue" d="M842.826,-275.455C970.884,-259.902 1207.67,-231.144 1323.16,-217.118"/>
<polygon fill="midnightblue" stroke="midnightblue" points="1323.77,-220.569 1333.28,-215.889 1322.93,-213.62 1323.77,-220.569"/>
</g>
<!-- Node3 -->
<g id="node3" class="node"><title>Node3</title>
<g id="a_node3"><a xlink:href="../../d5/dfb/DataRef_8h.html" target="_top" xlink:title="Framework/DataRef.h">
<polygon fill="none" stroke="black" points="300.5,-74.5 300.5,-93.5 413.5,-93.5 413.5,-74.5 300.5,-74.5"/>
<text text-anchor="middle" x="357" y="-81.5" font-family="Helvetica,sans-Serif" font-size="10.00">Framework/DataRef.h</text>
</a>
</g>
</g>
<!-- Node2&#45;&gt;Node3 -->
<g id="edge2" class="edge"><title>Node2&#45;&gt;Node3</title>
<path fill="none" stroke="midnightblue" d="M405.833,-136.403C397.114,-127.225 383.096,-112.47 372.311,-101.117"/>
<polygon fill="midnightblue" stroke="midnightblue" points="374.577,-98.42 365.152,-93.5806 369.502,-103.241 374.577,-98.42"/>
</g>
<!-- Node4 -->
<g id="node4" class="node"><title>Node4</title>
<polygon fill="none" stroke="#bfbfbf" points="181.5,-69 181.5,-99 282.5,-99 282.5,-69 181.5,-69"/>
<text text-anchor="start" x="189.5" y="-87" font-family="Helvetica,sans-Serif" font-size="10.00">boost/property_tree</text>
<text text-anchor="middle" x="232" y="-76" font-family="Helvetica,sans-Serif" font-size="10.00">/ptree.hpp</text>
</g>
<!-- Node2&#45;&gt;Node4 -->
<g id="edge3" class="edge"><title>Node2&#45;&gt;Node4</title>
<path fill="none" stroke="midnightblue" d="M387.924,-136.403C360.997,-127.526 318.244,-113.432 284.311,-102.245"/>
<polygon fill="midnightblue" stroke="midnightblue" points="285.137,-98.8323 274.543,-99.0253 282.945,-105.48 285.137,-98.8323"/>
</g>
<!-- Node5&#45;&gt;Node2 -->
<g id="edge5" class="edge"><title>Node5&#45;&gt;Node2</title>
<path fill="none" stroke="midnightblue" d="M601.558,-192.933C557.879,-182.236 498.654,-167.732 458.529,-157.905"/>
<polygon fill="midnightblue" stroke="midnightblue" points="459.306,-154.492 448.76,-155.513 457.641,-161.291 459.306,-154.492"/>
</g>
<!-- Node7 -->
<g id="node7" class="node"><title>Node7</title>
<g id="a_node7"><a xlink:href="../../dc/dcd/DataHeader_8h.html" target="_top" xlink:title="Headers/DataHeader.h">
<polygon fill="none" stroke="black" points="730.5,-136.5 730.5,-155.5 847.5,-155.5 847.5,-136.5 730.5,-136.5"/>
<text text-anchor="middle" x="789" y="-143.5" font-family="Helvetica,sans-Serif" font-size="10.00">Headers/DataHeader.h</text>
</a>
</g>
</g>
<!-- Node6&#45;&gt;Node7 -->
<g id="edge7" class="edge"><title>Node6&#45;&gt;Node7</title>
<path fill="none" stroke="midnightblue" d="M838.596,-192.781C828.761,-183.703 816.007,-171.929 805.895,-162.595"/>
<polygon fill="midnightblue" stroke="midnightblue" points="808.18,-159.942 798.458,-155.731 803.432,-165.085 808.18,-159.942"/>
</g>
<!-- Node8 -->
<g id="node8" class="node"><title>Node8</title>
<polygon fill="none" stroke="#bfbfbf" points="1129,-6.5 1129,-25.5 1175,-25.5 1175,-6.5 1129,-6.5"/>
<text text-anchor="middle" x="1152" y="-13.5" font-family="Helvetica,sans-Serif" font-size="10.00">cstdint</text>
</g>
<!-- Node6&#45;&gt;Node8 -->
<g id="edge28" class="edge"><title>Node6&#45;&gt;Node8</title>
<path fill="none" stroke="midnightblue" d="M853.599,-192.603C853.653,-164.09 858.158,-100.399 895,-68 971.049,-1.12312 1023.21,-61.7823 1120,-32 1122.28,-31.2997 1124.6,-30.4669 1126.9,-29.558"/>
<polygon fill="midnightblue" stroke="midnightblue" points="1128.32,-32.7575 1136.07,-25.5368 1125.51,-26.3466 1128.32,-32.7575"/>
</g>
<!-- Node9 -->
<g id="node9" class="node"><title>Node9</title>
<polygon fill="none" stroke="#bfbfbf" points="432,-74.5 432,-93.5 484,-93.5 484,-74.5 432,-74.5"/>
<text text-anchor="middle" x="458" y="-81.5" font-family="Helvetica,sans-Serif" font-size="10.00">memory</text>
</g>
<!-- Node6&#45;&gt;Node9 -->
<g id="edge30" class="edge"><title>Node6&#45;&gt;Node9</title>
<path fill="none" stroke="midnightblue" d="M803.553,-192.987C734.258,-173.477 605.931,-136.412 498,-100 495.233,-99.0665 492.371,-98.0653 489.508,-97.0393"/>
<polygon fill="midnightblue" stroke="midnightblue" points="490.506,-93.6772 479.912,-93.5179 488.094,-100.249 490.506,-93.6772"/>
</g>
<!-- Node10 -->
<g id="node10" class="node"><title>Node10</title>
<polygon fill="none" stroke="#bfbfbf" points="1193.5,-6.5 1193.5,-25.5 1242.5,-25.5 1242.5,-6.5 1193.5,-6.5"/>
<text text-anchor="middle" x="1218" y="-13.5" font-family="Helvetica,sans-Serif" font-size="10.00">cassert</text>
</g>
<!-- Node6&#45;&gt;Node10 -->
<g id="edge31" class="edge"><title>Node6&#45;&gt;Node10</title>
<path fill="none" stroke="midnightblue" d="M881.062,-192.874C949.059,-157.381 1126.36,-64.8357 1192.57,-30.2744"/>
<polygon fill="midnightblue" stroke="midnightblue" points="1194.26,-33.3397 1201.51,-25.6096 1191.02,-27.1342 1194.26,-33.3397"/>
</g>
<!-- Node26 -->
<g id="node26" class="node"><title>Node26</title>
<polygon fill="none" stroke="#bfbfbf" points="1335.5,-6.5 1335.5,-25.5 1378.5,-25.5 1378.5,-6.5 1335.5,-6.5"/>
<text text-anchor="middle" x="1357" y="-13.5" font-family="Helvetica,sans-Serif" font-size="10.00">cstdio</text>
</g>
<!-- Node6&#45;&gt;Node26 -->
<g id="edge29" class="edge"><title>Node6&#45;&gt;Node26</title>
<path fill="none" stroke="midnightblue" d="M891.073,-192.939C917.579,-182.821 954.062,-168.765 986,-156 1081.11,-117.984 1102.85,-103.315 1199,-68 1242.46,-52.0378 1293.58,-36.0294 1325.64,-26.3163"/>
<polygon fill="midnightblue" stroke="midnightblue" points="1326.78,-29.628 1335.35,-23.3919 1324.76,-22.9256 1326.78,-29.628"/>
</g>
<!-- Node7&#45;&gt;Node8 -->
<g id="edge8" class="edge"><title>Node7&#45;&gt;Node8</title>
<path fill="none" stroke="midnightblue" d="M790.205,-136.094C792.943,-119.647 801.262,-84.6693 824,-68 877.44,-28.8228 1056.31,-50.2918 1120,-32 1122.34,-31.3283 1124.72,-30.5048 1127.08,-29.5926"/>
<polygon fill="midnightblue" stroke="midnightblue" points="1128.67,-32.7153 1136.43,-25.5053 1125.87,-26.3004 1128.67,-32.7153"/>
</g>
<!-- Node7&#45;&gt;Node9 -->
<g id="edge9" class="edge"><title>Node7&#45;&gt;Node9</title>
<path fill="none" stroke="midnightblue" d="M730.307,-139.503C671.017,-133.117 577.126,-120.719 498,-100 494.771,-99.1546 491.442,-98.1429 488.147,-97.0495"/>
<polygon fill="midnightblue" stroke="midnightblue" points="489.094,-93.6715 478.499,-93.6089 486.742,-100.265 489.094,-93.6715"/>
</g>
<!-- Node7&#45;&gt;Node10 -->
<g id="edge10" class="edge"><title>Node7&#45;&gt;Node10</title>
<path fill="none" stroke="midnightblue" d="M797.419,-136.49C814.246,-120.07 853.957,-84.2068 895,-68 1015.39,-20.4604 1059.24,-66.4889 1184,-32 1186.5,-31.3081 1189.06,-30.4629 1191.59,-29.5298"/>
<polygon fill="midnightblue" stroke="midnightblue" points="1193.14,-32.6751 1201.06,-25.6334 1190.48,-26.2015 1193.14,-32.6751"/>
</g>
<!-- Node11 -->
<g id="node11" class="node"><title>Node11</title>
<polygon fill="none" stroke="#bfbfbf" points="1065,-6.5 1065,-25.5 1111,-25.5 1111,-6.5 1065,-6.5"/>
<text text-anchor="middle" x="1088" y="-13.5" font-family="Helvetica,sans-Serif" font-size="10.00">cstring</text>
</g>
<!-- Node7&#45;&gt;Node11 -->
<g id="edge11" class="edge"><title>Node7&#45;&gt;Node11</title>
<path fill="none" stroke="midnightblue" d="M785.264,-136.348C779.125,-120.627 769.173,-87.2293 786,-68 825.717,-22.6135 997.035,-48.6575 1055,-32 1057.35,-31.3254 1059.74,-30.5105 1062.11,-29.6135"/>
<polygon fill="midnightblue" stroke="midnightblue" points="1063.73,-32.7315 1071.57,-25.6118 1061,-26.2846 1063.73,-32.7315"/>
</g>
<!-- Node12 -->
<g id="node12" class="node"><title>Node12</title>
<polygon fill="none" stroke="#bfbfbf" points="904,-74.5 904,-93.5 960,-93.5 960,-74.5 904,-74.5"/>
<text text-anchor="middle" x="932" y="-81.5" font-family="Helvetica,sans-Serif" font-size="10.00">algorithm</text>
</g>
<!-- Node7&#45;&gt;Node12 -->
<g id="edge12" class="edge"><title>Node7&#45;&gt;Node12</title>
<path fill="none" stroke="midnightblue" d="M809.488,-136.403C833.806,-126.2 874.549,-109.105 902.317,-97.4544"/>
<polygon fill="midnightblue" stroke="midnightblue" points="903.683,-100.677 911.55,-93.5806 900.974,-94.2223 903.683,-100.677"/>
</g>
<!-- Node13 -->
<g id="node13" class="node"><title>Node13</title>
<polygon fill="none" stroke="#bfbfbf" points="978.5,-74.5 978.5,-93.5 1037.5,-93.5 1037.5,-74.5 978.5,-74.5"/>
<text text-anchor="middle" x="1008" y="-81.5" font-family="Helvetica,sans-Serif" font-size="10.00">stdexcept</text>
</g>
<!-- Node7&#45;&gt;Node13 -->
<g id="edge13" class="edge"><title>Node7&#45;&gt;Node13</title>
<path fill="none" stroke="midnightblue" d="M828.462,-136.424C864.969,-128.173 920.588,-114.798 968,-100 970.949,-99.0795 973.998,-98.0614 977.035,-97.0019"/>
<polygon fill="midnightblue" stroke="midnightblue" points="978.358,-100.245 986.564,-93.5449 975.97,-93.665 978.358,-100.245"/>
</g>
<!-- Node14 -->
<g id="node14" class="node"><title>Node14</title>
<polygon fill="none" stroke="#bfbfbf" points="-0.5,-6.5 -0.5,-25.5 40.5,-25.5 40.5,-6.5 -0.5,-6.5"/>
<text text-anchor="middle" x="20" y="-13.5" font-family="Helvetica,sans-Serif" font-size="10.00">string</text>
</g>
<!-- Node7&#45;&gt;Node14 -->
<g id="edge14" class="edge"><title>Node7&#45;&gt;Node14</title>
<path fill="none" stroke="midnightblue" d="M730.299,-143.437C676.243,-140.029 594.977,-129.829 531,-100 510.989,-90.6697 513.418,-76.4025 493,-68 309.916,7.34301 239.318,-86.5466 49,-32 47.0792,-31.4495 45.1376,-30.7662 43.2172,-29.9971"/>
<polygon fill="midnightblue" stroke="midnightblue" points="44.5266,-26.7452 33.9881,-25.6544 41.5463,-33.079 44.5266,-26.7452"/>
</g>
<!-- Node15 -->
<g id="node15" class="node"><title>Node15</title>
<g id="a_node15"><a xlink:href="../../dc/d03/MemoryResources_8h.html" target="_top" xlink:title="MemoryResources/MemoryResources.h">
<polygon fill="none" stroke="black" points="540.5,-74.5 540.5,-93.5 733.5,-93.5 733.5,-74.5 540.5,-74.5"/>
<text text-anchor="middle" x="637" y="-81.5" font-family="Helvetica,sans-Serif" font-size="10.00">MemoryResources/MemoryResources.h</text>
</a>
</g>
</g>
<!-- Node7&#45;&gt;Node15 -->
<g id="edge15" class="edge"><title>Node7&#45;&gt;Node15</title>
<path fill="none" stroke="midnightblue" d="M767.222,-136.403C741.262,-126.156 697.689,-108.956 668.165,-97.3021"/>
<polygon fill="midnightblue" stroke="midnightblue" points="669.324,-93.9968 658.737,-93.5806 666.754,-100.508 669.324,-93.9968"/>
</g>
<!-- Node15&#45;&gt;Node11 -->
<g id="edge20" class="edge"><title>Node15&#45;&gt;Node11</title>
<path fill="none" stroke="midnightblue" d="M698.623,-74.4763C714.689,-72.3079 731.987,-70.0207 748,-68 884.298,-50.8006 922.659,-68.8657 1055,-32 1057.49,-31.3055 1060.04,-30.447 1062.55,-29.4952"/>
<polygon fill="midnightblue" stroke="midnightblue" points="1064.09,-32.6432 1071.93,-25.5109 1061.35,-26.2008 1064.09,-32.6432"/>
</g>
<!-- Node15&#45;&gt;Node14 -->
<g id="edge21" class="edge"><title>Node15&#45;&gt;Node14</title>
<path fill="none" stroke="midnightblue" d="M578.893,-74.4902C561.872,-72.1756 543.212,-69.8109 526,-68 314.564,-45.7547 253.537,-90.0052 49,-32 47.0368,-31.4433 45.0523,-30.7465 43.0912,-29.96"/>
<polygon fill="midnightblue" stroke="midnightblue" points="44.2257,-26.6249 33.6893,-25.5141 41.2333,-32.9531 44.2257,-26.6249"/>
</g>
<!-- Node16 -->
<g id="node16" class="node"><title>Node16</title>
<polygon fill="none" stroke="#bfbfbf" points="323,-1 323,-31 423,-31 423,-1 323,-1"/>
<text text-anchor="start" x="331" y="-19" font-family="Helvetica,sans-Serif" font-size="10.00">boost/container/flat</text>
<text text-anchor="middle" x="373" y="-8" font-family="Helvetica,sans-Serif" font-size="10.00">_map.hpp</text>
</g>
<!-- Node15&#45;&gt;Node16 -->
<g id="edge16" class="edge"><title>Node15&#45;&gt;Node16</title>
<path fill="none" stroke="midnightblue" d="M602.528,-74.4814C563.771,-64.891 498.683,-48.7478 433.279,-32.3154"/>
<polygon fill="midnightblue" stroke="midnightblue" points="433.759,-28.8272 423.208,-29.7833 432.052,-35.616 433.759,-28.8272"/>
</g>
<!-- Node17 -->
<g id="node17" class="node"><title>Node17</title>
<polygon fill="none" stroke="#bfbfbf" points="441,-1 441,-31 557,-31 557,-1 441,-1"/>
<text text-anchor="start" x="449" y="-19" font-family="Helvetica,sans-Serif" font-size="10.00">boost/container/pmr</text>
<text text-anchor="middle" x="499" y="-8" font-family="Helvetica,sans-Serif" font-size="10.00">/memory_resource.hpp</text>
</g>
<!-- Node15&#45;&gt;Node17 -->
<g id="edge17" class="edge"><title>Node15&#45;&gt;Node17</title>
<path fill="none" stroke="midnightblue" d="M618.959,-74.3717C598.372,-64.5259 564.112,-48.1405 537.464,-35.3957"/>
<polygon fill="midnightblue" stroke="midnightblue" points="538.922,-32.2134 528.39,-31.0562 535.902,-38.5283 538.922,-32.2134"/>
</g>
<!-- Node18 -->
<g id="node18" class="node"><title>Node18</title>
<polygon fill="none" stroke="#bfbfbf" points="575,-1 575,-31 731,-31 731,-1 575,-1"/>
<text text-anchor="start" x="583" y="-19" font-family="Helvetica,sans-Serif" font-size="10.00">boost/container/pmr</text>
<text text-anchor="middle" x="653" y="-8" font-family="Helvetica,sans-Serif" font-size="10.00">/monotonic_buffer_resource.hpp</text>
</g>
<!-- Node15&#45;&gt;Node18 -->
<g id="edge18" class="edge"><title>Node15&#45;&gt;Node18</title>
<path fill="none" stroke="midnightblue" d="M639.092,-74.3717C641.128,-65.9715 644.319,-52.811 647.13,-41.2126"/>
<polygon fill="midnightblue" stroke="midnightblue" points="650.607,-41.7246 649.562,-31.1815 643.805,-40.0753 650.607,-41.7246"/>
</g>
<!-- Node19 -->
<g id="node19" class="node"><title>Node19</title>
<polygon fill="none" stroke="#bfbfbf" points="749.5,-1 749.5,-31 882.5,-31 882.5,-1 749.5,-1"/>
<text text-anchor="start" x="757.5" y="-19" font-family="Helvetica,sans-Serif" font-size="10.00">boost/container/pmr</text>
<text text-anchor="middle" x="816" y="-8" font-family="Helvetica,sans-Serif" font-size="10.00">/polymorphic_allocator.hpp</text>
</g>
<!-- Node15&#45;&gt;Node19 -->
<g id="edge19" class="edge"><title>Node15&#45;&gt;Node19</title>
<path fill="none" stroke="midnightblue" d="M660.401,-74.3717C687.687,-64.3109 733.492,-47.4219 768.358,-34.5662"/>
<polygon fill="midnightblue" stroke="midnightblue" points="769.706,-37.7997 777.878,-31.0562 767.284,-31.2319 769.706,-37.7997"/>
</g>
<!-- Node20 -->
<g id="node20" class="node"><title>Node20</title>
<polygon fill="none" stroke="#bfbfbf" points="1678,-6.5 1678,-25.5 1740,-25.5 1740,-6.5 1678,-6.5"/>
<text text-anchor="middle" x="1709" y="-13.5" font-family="Helvetica,sans-Serif" font-size="10.00">type_traits</text>
</g>
<!-- Node15&#45;&gt;Node20 -->
<g id="edge22" class="edge"><title>Node15&#45;&gt;Node20</title>
<path fill="none" stroke="midnightblue" d="M733.772,-77.1073C782.183,-74.2272 841.681,-70.7899 895,-68 1066.95,-59.0029 1500.34,-66.6508 1669,-32 1672.71,-31.2388 1676.52,-30.1856 1680.26,-28.9869"/>
<polygon fill="midnightblue" stroke="midnightblue" points="1681.59,-32.2295 1689.83,-25.5748 1679.23,-25.6359 1681.59,-32.2295"/>
</g>
<!-- Node21 -->
<g id="node21" class="node"><title>Node21</title>
<polygon fill="none" stroke="#bfbfbf" points="1620,-6.5 1620,-25.5 1660,-25.5 1660,-6.5 1620,-6.5"/>
<text text-anchor="middle" x="1640" y="-13.5" font-family="Helvetica,sans-Serif" font-size="10.00">utility</text>
</g>
<!-- Node15&#45;&gt;Node21 -->
<g id="edge23" class="edge"><title>Node15&#45;&gt;Node21</title>
<path fill="none" stroke="midnightblue" d="M733.777,-77.195C782.189,-74.3365 841.686,-70.8919 895,-68 1053.86,-59.383 1456.13,-72.4341 1610,-32 1612.2,-31.4228 1614.42,-30.6733 1616.61,-29.8175"/>
<polygon fill="midnightblue" stroke="midnightblue" points="1618.2,-32.9401 1625.83,-25.5889 1615.28,-26.5778 1618.2,-32.9401"/>
</g>
<!-- Node22 -->
<g id="node22" class="node"><title>Node22</title>
<polygon fill="none" stroke="#bfbfbf" points="901,-6.5 901,-25.5 945,-25.5 945,-6.5 901,-6.5"/>
<text text-anchor="middle" x="923" y="-13.5" font-family="Helvetica,sans-Serif" font-size="10.00">vector</text>
</g>
<!-- Node15&#45;&gt;Node22 -->
<g id="edge24" class="edge"><title>Node15&#45;&gt;Node22</title>
<path fill="none" stroke="midnightblue" d="M701.247,-74.4685C753.268,-66.5265 827.99,-52.7583 891,-32 893.131,-31.2981 895.306,-30.4907 897.468,-29.6222"/>
<polygon fill="midnightblue" stroke="midnightblue" points="898.955,-32.7919 906.7,-25.5622 896.137,-26.3842 898.955,-32.7919"/>
</g>
<!-- Node23 -->
<g id="node23" class="node"><title>Node23</title>
<polygon fill="none" stroke="#bfbfbf" points="963.5,-6.5 963.5,-25.5 1046.5,-25.5 1046.5,-6.5 963.5,-6.5"/>
<text text-anchor="middle" x="1005" y="-13.5" font-family="Helvetica,sans-Serif" font-size="10.00">unordered_map</text>
</g>
<!-- Node15&#45;&gt;Node23 -->
<g id="edge25" class="edge"><title>Node15&#45;&gt;Node23</title>
<path fill="none" stroke="midnightblue" d="M694.995,-74.4993C772.319,-63.0168 905.01,-42.753 953,-32 957.791,-30.9266 962.792,-29.6665 967.718,-28.3406"/>
<polygon fill="midnightblue" stroke="midnightblue" points="968.947,-31.6313 977.633,-25.5655 967.06,-24.8904 968.947,-31.6313"/>
</g>
<!-- Node24 -->
<g id="node24" class="node"><title>Node24</title>
<polygon fill="none" stroke="#bfbfbf" points="58.5,-6.5 58.5,-25.5 155.5,-25.5 155.5,-6.5 58.5,-6.5"/>
<text text-anchor="middle" x="107" y="-13.5" font-family="Helvetica,sans-Serif" font-size="10.00">FairMQMessage.h</text>
</g>
<!-- Node15&#45;&gt;Node24 -->
<g id="edge26" class="edge"><title>Node15&#45;&gt;Node24</title>
<path fill="none" stroke="midnightblue" d="M576.849,-74.4785C560.378,-72.2523 542.513,-69.9362 526,-68 365.418,-49.171 323.122,-60.6632 164,-32 158.065,-30.9308 151.841,-29.5589 145.776,-28.0803"/>
<polygon fill="midnightblue" stroke="midnightblue" points="146.355,-24.6156 135.799,-25.5258 144.619,-31.3969 146.355,-24.6156"/>
</g>
<!-- Node25 -->
<g id="node25" class="node"><title>Node25</title>
<polygon fill="none" stroke="#bfbfbf" points="173.5,-6.5 173.5,-25.5 304.5,-25.5 304.5,-6.5 173.5,-6.5"/>
<text text-anchor="middle" x="239" y="-13.5" font-family="Helvetica,sans-Serif" font-size="10.00">FairMQTransportFactory.h</text>
</g>
<!-- Node15&#45;&gt;Node25 -->
<g id="edge27" class="edge"><title>Node15&#45;&gt;Node25</title>
<path fill="none" stroke="midnightblue" d="M578.234,-74.4573C513.41,-64.8625 406.069,-48.4685 314,-32 306.28,-30.6191 298.13,-29.0769 290.159,-27.5214"/>
<polygon fill="midnightblue" stroke="midnightblue" points="290.694,-24.0595 280.205,-25.5552 289.337,-30.9268 290.694,-24.0595"/>
</g>
<!-- Node27&#45;&gt;Node10 -->
<g id="edge38" class="edge"><title>Node27&#45;&gt;Node10</title>
<path fill="none" stroke="midnightblue" d="M1353.27,-198.441C1307.78,-185.651 1232.25,-156.731 1199,-100 1186.96,-79.4464 1197.6,-51.8783 1207.15,-34.2724"/>
<polygon fill="midnightblue" stroke="midnightblue" points="1210.18,-36.0267 1212.19,-25.6241 1204.13,-32.5034 1210.18,-36.0267"/>
</g>
<!-- Node27&#45;&gt;Node11 -->
<g id="edge37" class="edge"><title>Node27&#45;&gt;Node11</title>
<path fill="none" stroke="midnightblue" d="M1343.2,-198.466C1309.44,-190.879 1263.71,-177.573 1228,-156 1172.71,-122.602 1122.91,-62.9764 1100.51,-33.8909"/>
<polygon fill="midnightblue" stroke="midnightblue" points="1103.05,-31.4541 1094.23,-25.5926 1097.47,-35.6785 1103.05,-31.4541"/>
</g>
<!-- Node27&#45;&gt;Node12 -->
<g id="edge33" class="edge"><title>Node27&#45;&gt;Node12</title>
<path fill="none" stroke="midnightblue" d="M1333.41,-201.05C1273.92,-193.888 1178.05,-179.759 1098,-156 1046.53,-140.723 989.625,-114.105 957.597,-98.1613"/>
<polygon fill="midnightblue" stroke="midnightblue" points="958.996,-94.9471 948.489,-93.5802 955.85,-101.201 958.996,-94.9471"/>
</g>
<!-- Node27&#45;&gt;Node13 -->
<g id="edge46" class="edge"><title>Node27&#45;&gt;Node13</title>
<path fill="none" stroke="midnightblue" d="M1333.1,-199.543C1282.89,-191.925 1208.21,-178.047 1146,-156 1103.25,-140.849 1057.06,-114.926 1030.43,-98.9471"/>
<polygon fill="midnightblue" stroke="midnightblue" points="1031.91,-95.7516 1021.55,-93.5485 1028.27,-101.733 1031.91,-95.7516"/>
</g>
<!-- Node27&#45;&gt;Node20 -->
<g id="edge42" class="edge"><title>Node27&#45;&gt;Node20</title>
<path fill="none" stroke="midnightblue" d="M1446.9,-206.117C1577.18,-202.62 1889.6,-185.328 1937,-100 1976.57,-28.7821 1826.22,-17.7994 1750.33,-16.6865"/>
<polygon fill="midnightblue" stroke="midnightblue" points="1750.17,-13.185 1740.14,-16.5897 1750.11,-20.1846 1750.17,-13.185"/>
</g>
<!-- Node27&#45;&gt;Node21 -->
<g id="edge43" class="edge"><title>Node27&#45;&gt;Node21</title>
<path fill="none" stroke="midnightblue" d="M1446.56,-204.585C1570.77,-197.933 1860.83,-174.572 1917,-100 1966.06,-34.8616 1880.87,-100.042 1669,-32 1667.14,-31.402 1665.25,-30.6928 1663.38,-29.9132"/>
<polygon fill="midnightblue" stroke="midnightblue" points="1664.88,-26.7494 1654.34,-25.6174 1661.87,-33.0716 1664.88,-26.7494"/>
</g>
<!-- Node28 -->
<g id="node28" class="node"><title>Node28</title>
<polygon fill="none" stroke="#bfbfbf" points="1853,-74.5 1853,-93.5 1909,-93.5 1909,-74.5 1853,-74.5"/>
<text text-anchor="middle" x="1881" y="-81.5" font-family="Helvetica,sans-Serif" font-size="10.00">cinttypes</text>
</g>
<!-- Node27&#45;&gt;Node28 -->
<g id="edge34" class="edge"><title>Node27&#45;&gt;Node28</title>
<path fill="none" stroke="midnightblue" d="M1446.75,-199.317C1504.65,-190.904 1596.82,-175.913 1675,-156 1751.27,-136.573 1769.04,-126.903 1843,-100 1845.39,-99.1302 1847.86,-98.2097 1850.33,-97.2696"/>
<polygon fill="midnightblue" stroke="midnightblue" points="1851.71,-100.489 1859.77,-93.6137 1849.18,-93.9614 1851.71,-100.489"/>
</g>
<!-- Node29 -->
<g id="node29" class="node"><title>Node29</title>
<polygon fill="none" stroke="#bfbfbf" points="1208.5,-74.5 1208.5,-93.5 1257.5,-93.5 1257.5,-74.5 1208.5,-74.5"/>
<text text-anchor="middle" x="1233" y="-81.5" font-family="Helvetica,sans-Serif" font-size="10.00">cstddef</text>
</g>
<!-- Node27&#45;&gt;Node29 -->
<g id="edge35" class="edge"><title>Node27&#45;&gt;Node29</title>
<path fill="none" stroke="midnightblue" d="M1378.71,-198.226C1352.12,-177.563 1285.31,-125.645 1252.2,-99.9219"/>
<polygon fill="midnightblue" stroke="midnightblue" points="1254.23,-97.0667 1244.19,-93.6944 1249.94,-102.594 1254.23,-97.0667"/>
</g>
<!-- Node30 -->
<g id="node30" class="node"><title>Node30</title>
<polygon fill="none" stroke="#bfbfbf" points="1275.5,-74.5 1275.5,-93.5 1320.5,-93.5 1320.5,-74.5 1275.5,-74.5"/>
<text text-anchor="middle" x="1298" y="-81.5" font-family="Helvetica,sans-Serif" font-size="10.00">cstdlib</text>
</g>
<!-- Node27&#45;&gt;Node30 -->
<g id="edge36" class="edge"><title>Node27&#45;&gt;Node30</title>
<path fill="none" stroke="midnightblue" d="M1383.38,-198.226C1368.2,-178.09 1330.63,-128.276 1310.78,-101.943"/>
<polygon fill="midnightblue" stroke="midnightblue" points="1313.37,-99.5714 1304.56,-93.6944 1307.78,-103.786 1313.37,-99.5714"/>
</g>
<!-- Node31 -->
<g id="node31" class="node"><title>Node31</title>
<polygon fill="none" stroke="#bfbfbf" points="1339,-74.5 1339,-93.5 1379,-93.5 1379,-74.5 1339,-74.5"/>
<text text-anchor="middle" x="1359" y="-81.5" font-family="Helvetica,sans-Serif" font-size="10.00">limits</text>
</g>
<!-- Node27&#45;&gt;Node31 -->
<g id="edge39" class="edge"><title>Node27&#45;&gt;Node31</title>
<path fill="none" stroke="midnightblue" d="M1387.77,-198.226C1382.77,-178.53 1370.55,-130.437 1363.75,-103.7"/>
<polygon fill="midnightblue" stroke="midnightblue" points="1367.06,-102.524 1361.21,-93.6944 1360.28,-104.248 1367.06,-102.524"/>
</g>
<!-- Node32 -->
<g id="node32" class="node"><title>Node32</title>
<polygon fill="none" stroke="#bfbfbf" points="1397,-74.5 1397,-93.5 1451,-93.5 1451,-74.5 1397,-74.5"/>
<text text-anchor="middle" x="1424" y="-81.5" font-family="Helvetica,sans-Serif" font-size="10.00">iostream</text>
</g>
<!-- Node27&#45;&gt;Node32 -->
<g id="edge40" class="edge"><title>Node27&#45;&gt;Node32</title>
<path fill="none" stroke="midnightblue" d="M1392.45,-198.226C1397.96,-178.442 1411.46,-130.007 1418.89,-103.344"/>
<polygon fill="midnightblue" stroke="midnightblue" points="1422.26,-104.267 1421.58,-93.6944 1415.52,-102.388 1422.26,-104.267"/>
</g>
<!-- Node33 -->
<g id="node33" class="node"><title>Node33</title>
<polygon fill="none" stroke="#bfbfbf" points="1727.5,-74.5 1727.5,-93.5 1774.5,-93.5 1774.5,-74.5 1727.5,-74.5"/>
<text text-anchor="middle" x="1751" y="-81.5" font-family="Helvetica,sans-Serif" font-size="10.00">iterator</text>
</g>
<!-- Node27&#45;&gt;Node33 -->
<g id="edge41" class="edge"><title>Node27&#45;&gt;Node33</title>
<path fill="none" stroke="midnightblue" d="M1432.8,-198.445C1474.12,-189.661 1538.17,-174.656 1592,-156 1640.2,-139.294 1693.94,-113.765 1724.97,-98.3014"/>
<polygon fill="midnightblue" stroke="midnightblue" points="1726.85,-101.275 1734.22,-93.6585 1723.71,-95.0198 1726.85,-101.275"/>
</g>
<!-- Node34 -->
<g id="node34" class="node"><title>Node34</title>
<polygon fill="none" stroke="#bfbfbf" points="1793,-74.5 1793,-93.5 1835,-93.5 1835,-74.5 1793,-74.5"/>
<text text-anchor="middle" x="1814" y="-81.5" font-family="Helvetica,sans-Serif" font-size="10.00">locale</text>
</g>
<!-- Node27&#45;&gt;Node34 -->
<g id="edge44" class="edge"><title>Node27&#45;&gt;Node34</title>
<path fill="none" stroke="midnightblue" d="M1440.15,-198.481C1489.06,-189.674 1565.32,-174.608 1630,-156 1699.59,-135.98 1716.33,-128.249 1783,-100 1784.59,-99.3265 1786.22,-98.6141 1787.85,-97.8801"/>
<polygon fill="midnightblue" stroke="midnightblue" points="1789.51,-100.967 1797.09,-93.5615 1786.54,-94.6262 1789.51,-100.967"/>
</g>
<!-- Node35 -->
<g id="node35" class="node"><title>Node35</title>
<polygon fill="none" stroke="#bfbfbf" points="1548.5,-136.5 1548.5,-155.5 1583.5,-155.5 1583.5,-136.5 1548.5,-136.5"/>
<text text-anchor="middle" x="1566" y="-143.5" font-family="Helvetica,sans-Serif" font-size="10.00">new</text>
</g>
<!-- Node27&#45;&gt;Node35 -->
<g id="edge45" class="edge"><title>Node27&#45;&gt;Node35</title>
<path fill="none" stroke="midnightblue" d="M1415.22,-198.403C1447.95,-187.245 1504.86,-167.842 1538.62,-156.333"/>
<polygon fill="midnightblue" stroke="midnightblue" points="1539.97,-159.573 1548.3,-153.033 1537.71,-152.947 1539.97,-159.573"/>
</g>
<!-- Node36 -->
<g id="node36" class="node"><title>Node36</title>
<g id="a_node36"><a xlink:href="../../d6/dfe/pcg__extras_8hpp.html" target="_top" xlink:title="pcg_extras.hpp">
<polygon fill="none" stroke="black" points="1447.5,-136.5 1447.5,-155.5 1530.5,-155.5 1530.5,-136.5 1447.5,-136.5"/>
<text text-anchor="middle" x="1489" y="-143.5" font-family="Helvetica,sans-Serif" font-size="10.00">pcg_extras.hpp</text>
</a>
</g>
</g>
<!-- Node27&#45;&gt;Node36 -->
<g id="edge47" class="edge"><title>Node27&#45;&gt;Node36</title>
<path fill="none" stroke="midnightblue" d="M1404.18,-198.403C1420.36,-188.601 1447.03,-172.439 1466.14,-160.853"/>
<polygon fill="midnightblue" stroke="midnightblue" points="1468.1,-163.757 1474.84,-155.581 1464.48,-157.77 1468.1,-163.757"/>
</g>
<!-- Node36&#45;&gt;Node10 -->
<g id="edge52" class="edge"><title>Node36&#45;&gt;Node10</title>
<path fill="none" stroke="midnightblue" d="M1492.8,-136.431C1499.07,-120.845 1509.35,-87.6582 1493,-68 1485.31,-58.748 1324.61,-33.2402 1252.49,-22.2026"/>
<polygon fill="midnightblue" stroke="midnightblue" points="1252.94,-18.7302 1242.53,-20.6828 1251.89,-25.6502 1252.94,-18.7302"/>
</g>
<!-- Node36&#45;&gt;Node11 -->
<g id="edge51" class="edge"><title>Node36&#45;&gt;Node11</title>
<path fill="none" stroke="midnightblue" d="M1488.54,-136.114C1487.16,-119.699 1481.7,-84.7734 1460,-68 1399.89,-21.534 1193.19,-52.4057 1120,-32 1117.66,-31.3465 1115.27,-30.5355 1112.91,-29.6316"/>
<polygon fill="midnightblue" stroke="midnightblue" points="1114.12,-26.3386 1103.55,-25.5571 1111.32,-32.757 1114.12,-26.3386"/>
</g>
<!-- Node36&#45;&gt;Node20 -->
<g id="edge55" class="edge"><title>Node36&#45;&gt;Node20</title>
<path fill="none" stroke="midnightblue" d="M1530.53,-137.714C1574.06,-129.441 1638.85,-115.116 1659,-100 1681.04,-83.4659 1695.34,-54.1188 1702.79,-35.1188"/>
<polygon fill="midnightblue" stroke="midnightblue" points="1706.14,-36.1321 1706.31,-25.5385 1699.57,-33.7191 1706.14,-36.1321"/>
</g>
<!-- Node36&#45;&gt;Node21 -->
<g id="edge56" class="edge"><title>Node36&#45;&gt;Node21</title>
<path fill="none" stroke="midnightblue" d="M1526.19,-136.439C1568.89,-126.239 1633.98,-109.399 1641,-100 1654.78,-81.5552 1650.97,-53.8097 1646.16,-35.5538"/>
<polygon fill="midnightblue" stroke="midnightblue" points="1649.47,-34.3984 1643.26,-25.8122 1642.76,-36.3951 1649.47,-34.3984"/>
</g>
<!-- Node36&#45;&gt;Node28 -->
<g id="edge48" class="edge"><title>Node36&#45;&gt;Node28</title>
<path fill="none" stroke="midnightblue" d="M1530.72,-137.441C1533.86,-136.933 1536.98,-136.446 1540,-136 1674.16,-116.208 1711.51,-133.171 1843,-100 1846.06,-99.2269 1849.21,-98.2684 1852.33,-97.2126"/>
<polygon fill="midnightblue" stroke="midnightblue" points="1853.84,-100.385 1861.99,-93.6155 1851.39,-93.825 1853.84,-100.385"/>
</g>
<!-- Node36&#45;&gt;Node29 -->
<g id="edge49" class="edge"><title>Node36&#45;&gt;Node29</title>
<path fill="none" stroke="midnightblue" d="M1447.18,-139.466C1401.81,-132.798 1327.63,-119.937 1266,-100 1263.73,-99.2645 1261.4,-98.4173 1259.09,-97.5075"/>
<polygon fill="midnightblue" stroke="midnightblue" points="1260.4,-94.2629 1249.83,-93.5427 1257.65,-100.697 1260.4,-94.2629"/>
</g>
<!-- Node36&#45;&gt;Node30 -->
<g id="edge50" class="edge"><title>Node36&#45;&gt;Node30</title>
<path fill="none" stroke="midnightblue" d="M1452.47,-136.459C1419.89,-128.419 1371.12,-115.342 1330,-100 1328.15,-99.3084 1326.25,-98.5529 1324.36,-97.7608"/>
<polygon fill="midnightblue" stroke="midnightblue" points="1325.61,-94.4886 1315.05,-93.619 1322.76,-100.883 1325.61,-94.4886"/>
</g>
<!-- Node36&#45;&gt;Node31 -->
<g id="edge53" class="edge"><title>Node36&#45;&gt;Node31</title>
<path fill="none" stroke="midnightblue" d="M1468.72,-136.377C1448.21,-127.561 1415.68,-113.311 1388,-100 1386.82,-99.4335 1385.62,-98.8472 1384.41,-98.2495"/>
<polygon fill="midnightblue" stroke="midnightblue" points="1385.68,-94.9684 1375.17,-93.5771 1382.52,-101.215 1385.68,-94.9684"/>
</g>
<!-- Node36&#45;&gt;Node32 -->
<g id="edge54" class="edge"><title>Node36&#45;&gt;Node32</title>
<path fill="none" stroke="midnightblue" d="M1479.69,-136.403C1469.55,-127.047 1453.14,-111.895 1440.75,-100.46"/>
<polygon fill="midnightblue" stroke="midnightblue" points="1443.02,-97.7916 1433.3,-93.5806 1438.27,-102.935 1443.02,-97.7916"/>
</g>
<!-- Node36&#45;&gt;Node33 -->
<g id="edge58" class="edge"><title>Node36&#45;&gt;Node33</title>
<path fill="none" stroke="midnightblue" d="M1530.68,-137.544C1585.67,-127.547 1679.43,-109.913 1713,-100 1715.81,-99.1715 1718.69,-98.2205 1721.57,-97.2081"/>
<polygon fill="midnightblue" stroke="midnightblue" points="1722.99,-100.412 1731.12,-93.6176 1720.53,-93.86 1722.99,-100.412"/>
</g>
<!-- Node36&#45;&gt;Node34 -->
<g id="edge57" class="edge"><title>Node36&#45;&gt;Node34</title>
<path fill="none" stroke="midnightblue" d="M1530.73,-137.539C1533.87,-137.008 1536.98,-136.49 1540,-136 1647.77,-118.512 1678.66,-132.147 1783,-100 1785.14,-99.342 1787.31,-98.5565 1789.46,-97.6946"/>
<polygon fill="midnightblue" stroke="midnightblue" points="1790.92,-100.877 1798.61,-93.5866 1788.05,-94.4922 1790.92,-100.877"/>
</g>
<!-- Node37 -->
<g id="node37" class="node"><title>Node37</title>
<g id="a_node37"><a xlink:href="../../df/db8/pcg__uint128_8hpp.html" target="_top" xlink:title="pcg_uint128.hpp">
<polygon fill="none" stroke="black" points="1545,-74.5 1545,-93.5 1633,-93.5 1633,-74.5 1545,-74.5"/>
<text text-anchor="middle" x="1589" y="-81.5" font-family="Helvetica,sans-Serif" font-size="10.00">pcg_uint128.hpp</text>
</a>
</g>
</g>
<!-- Node36&#45;&gt;Node37 -->
<g id="edge59" class="edge"><title>Node36&#45;&gt;Node37</title>
<path fill="none" stroke="midnightblue" d="M1503.33,-136.403C1519.66,-126.601 1546.6,-110.439 1565.91,-98.8526"/>
<polygon fill="midnightblue" stroke="midnightblue" points="1567.92,-101.727 1574.7,-93.5806 1564.32,-95.7244 1567.92,-101.727"/>
</g>
<!-- Node37&#45;&gt;Node8 -->
<g id="edge60" class="edge"><title>Node37&#45;&gt;Node8</title>
<path fill="none" stroke="midnightblue" d="M1544.6,-75.6931C1528.39,-73.1216 1509.88,-70.3014 1493,-68 1356,-49.3242 1316.99,-69.8319 1184,-32 1181.66,-31.3342 1179.28,-30.5148 1176.92,-29.6052"/>
<polygon fill="midnightblue" stroke="midnightblue" points="1178.13,-26.3128 1167.56,-25.5221 1175.33,-32.7288 1178.13,-26.3128"/>
</g>
<!-- Node37&#45;&gt;Node10 -->
<g id="edge62" class="edge"><title>Node37&#45;&gt;Node10</title>
<path fill="none" stroke="midnightblue" d="M1558.12,-74.4546C1549.39,-72.1913 1539.85,-69.8624 1531,-68 1430.83,-46.9314 1311.06,-29.5646 1253,-21.6358"/>
<polygon fill="midnightblue" stroke="midnightblue" points="1253.27,-18.1412 1242.89,-20.2664 1252.33,-25.0778 1253.27,-18.1412"/>
</g>
<!-- Node37&#45;&gt;Node20 -->
<g id="edge66" class="edge"><title>Node37&#45;&gt;Node20</title>
<path fill="none" stroke="midnightblue" d="M1604.69,-74.3717C1624.99,-63.2051 1660.59,-43.6266 1684.48,-30.4876"/>
<polygon fill="midnightblue" stroke="midnightblue" points="1686.23,-33.5165 1693.31,-25.6305 1682.86,-27.3829 1686.23,-33.5165"/>
</g>
<!-- Node37&#45;&gt;Node21 -->
<g id="edge64" class="edge"><title>Node37&#45;&gt;Node21</title>
<path fill="none" stroke="midnightblue" d="M1595.67,-74.3717C1603.56,-64.1512 1616.91,-46.884 1626.9,-33.9571"/>
<polygon fill="midnightblue" stroke="midnightblue" points="1629.82,-35.8941 1633.17,-25.8411 1624.28,-31.6139 1629.82,-35.8941"/>
</g>
<!-- Node37&#45;&gt;Node26 -->
<g id="edge61" class="edge"><title>Node37&#45;&gt;Node26</title>
<path fill="none" stroke="midnightblue" d="M1558.67,-74.3717C1514.57,-61.8265 1433.15,-38.664 1388.44,-25.9437"/>
<polygon fill="midnightblue" stroke="midnightblue" points="1389.27,-22.541 1378.69,-23.1711 1387.35,-29.2739 1389.27,-22.541"/>
</g>
<!-- Node38 -->
<g id="node38" class="node"><title>Node38</title>
<polygon fill="none" stroke="#bfbfbf" points="1556.5,-6.5 1556.5,-25.5 1601.5,-25.5 1601.5,-6.5 1556.5,-6.5"/>
<text text-anchor="middle" x="1579" y="-13.5" font-family="Helvetica,sans-Serif" font-size="10.00">climits</text>
</g>
<!-- Node37&#45;&gt;Node38 -->
<g id="edge63" class="edge"><title>Node37&#45;&gt;Node38</title>
<path fill="none" stroke="midnightblue" d="M1587.69,-74.3717C1586.22,-64.6426 1583.78,-48.528 1581.86,-35.8504"/>
<polygon fill="midnightblue" stroke="midnightblue" points="1585.3,-35.2039 1580.34,-25.8411 1578.38,-36.2526 1585.3,-35.2039"/>
</g>
<!-- Node39 -->
<g id="node39" class="node"><title>Node39</title>
<polygon fill="none" stroke="#bfbfbf" points="1465.5,-6.5 1465.5,-25.5 1538.5,-25.5 1538.5,-6.5 1465.5,-6.5"/>
<text text-anchor="middle" x="1502" y="-13.5" font-family="Helvetica,sans-Serif" font-size="10.00">initializer_list</text>
</g>
<!-- Node37&#45;&gt;Node39 -->
<g id="edge65" class="edge"><title>Node37&#45;&gt;Node39</title>
<path fill="none" stroke="midnightblue" d="M1577.63,-74.3717C1563.43,-63.6004 1538.91,-45.0021 1521.65,-31.9065"/>
<polygon fill="midnightblue" stroke="midnightblue" points="1523.46,-28.8859 1513.38,-25.6305 1519.23,-34.4628 1523.46,-28.8859"/>
</g>
</g>
</svg>
