<?xml version="1.0" encoding="UTF-8" standalone="no"?>
<!DOCTYPE svg PUBLIC "-//W3C//DTD SVG 1.1//EN"
 "http://www.w3.org/Graphics/SVG/1.1/DTD/svg11.dtd">
<!-- Generated by graphviz version 2.36.0 (20140111.2315)
 -->
<!-- Title: /home/travis/build/AliceO2Group/AliceO2/Steer/src/HitProcessingManager.cxx Pages: 1 -->
<svg width="832pt" height="298pt"
 viewBox="0.00 0.00 832.30 298.00" xmlns="http://www.w3.org/2000/svg" xmlns:xlink="http://www.w3.org/1999/xlink">
<g id="graph0" class="graph" transform="scale(1 1) rotate(0) translate(4 294)">
<title>/home/travis/build/AliceO2Group/AliceO2/Steer/src/HitProcessingManager.cxx</title>
<!-- Node1 -->
<g id="node1" class="node"><title>Node1</title>
<polygon fill="#bfbfbf" stroke="black" points="486.298,-248.5 486.298,-289.5 666.298,-289.5 666.298,-248.5 486.298,-248.5"/>
<text text-anchor="start" x="494.298" y="-277.5" font-family="Helvetica,sans-Serif" font-size="10.00">/home/travis/build</text>
<text text-anchor="start" x="494.298" y="-266.5" font-family="Helvetica,sans-Serif" font-size="10.00">/AliceO2Group/AliceO2</text>
<text text-anchor="middle" x="576.298" y="-255.5" font-family="Helvetica,sans-Serif" font-size="10.00">/Steer/src/HitProcessingManager.cxx</text>
</g>
<!-- Node2 -->
<g id="node2" class="node"><title>Node2</title>
<g id="a_node2"><a xlink:href="../../dd/d40/HitProcessingManager_8h.html" target="_top" xlink:title="Steer/HitProcessingManager.h">
<polygon fill="none" stroke="black" points="267.298,-192.5 267.298,-211.5 417.298,-211.5 417.298,-192.5 267.298,-192.5"/>
<text text-anchor="middle" x="342.298" y="-199.5" font-family="Helvetica,sans-Serif" font-size="10.00">Steer/HitProcessingManager.h</text>
</a>
</g>
</g>
<!-- Node1&#45;&gt;Node2 -->
<g id="edge1" class="edge"><title>Node1&#45;&gt;Node2</title>
<path fill="none" stroke="midnightblue" d="M506.09,-248.498C465.952,-237.348 417.017,-223.755 383.143,-214.346"/>
<polygon fill="midnightblue" stroke="midnightblue" points="383.712,-210.871 373.14,-211.567 381.838,-217.616 383.712,-210.871"/>
</g>
<!-- Node9 -->
<g id="node9" class="node"><title>Node9</title>
<polygon fill="none" stroke="#bfbfbf" points="437.298,-62.5 437.298,-81.5 481.298,-81.5 481.298,-62.5 437.298,-62.5"/>
<text text-anchor="middle" x="459.298" y="-69.5" font-family="Helvetica,sans-Serif" font-size="10.00">vector</text>
</g>
<!-- Node1&#45;&gt;Node9 -->
<g id="edge27" class="edge"><title>Node1&#45;&gt;Node9</title>
<path fill="none" stroke="midnightblue" d="M555.273,-248.409C544.928,-238.147 532.695,-225.028 523.298,-212 495.035,-172.814 474.63,-119.156 465.181,-91.3628"/>
<polygon fill="midnightblue" stroke="midnightblue" points="468.467,-90.152 462.005,-81.7563 461.821,-92.3495 468.467,-90.152"/>
</g>
<!-- Node18 -->
<g id="node18" class="node"><title>Node18</title>
<polygon fill="none" stroke="#bfbfbf" points="653.798,-130.5 653.798,-149.5 688.798,-149.5 688.798,-130.5 653.798,-130.5"/>
<text text-anchor="middle" x="671.298" y="-137.5" font-family="Helvetica,sans-Serif" font-size="10.00">map</text>
</g>
<!-- Node1&#45;&gt;Node18 -->
<g id="edge28" class="edge"><title>Node1&#45;&gt;Node18</title>
<path fill="none" stroke="midnightblue" d="M551.537,-248.296C534.809,-232.556 517.997,-210.198 531.298,-192 562.402,-149.446 595.91,-176.902 644.298,-156 645.489,-155.486 646.696,-154.935 647.905,-154.358"/>
<polygon fill="midnightblue" stroke="midnightblue" points="649.731,-157.354 656.993,-149.64 646.505,-151.142 649.731,-157.354"/>
</g>
<!-- Node20 -->
<g id="node20" class="node"><title>Node20</title>
<polygon fill="none" stroke="#bfbfbf" points="540.798,-192.5 540.798,-211.5 611.798,-211.5 611.798,-192.5 540.798,-192.5"/>
<text text-anchor="middle" x="576.298" y="-199.5" font-family="Helvetica,sans-Serif" font-size="10.00">FairLogger.h</text>
</g>
<!-- Node1&#45;&gt;Node20 -->
<g id="edge26" class="edge"><title>Node1&#45;&gt;Node20</title>
<path fill="none" stroke="midnightblue" d="M576.298,-248.498C576.298,-240.065 576.298,-230.235 576.298,-221.874"/>
<polygon fill="midnightblue" stroke="midnightblue" points="579.798,-221.652 576.298,-211.652 572.798,-221.653 579.798,-221.652"/>
</g>
<!-- Node21 -->
<g id="node21" class="node"><title>Node21</title>
<polygon fill="none" stroke="#bfbfbf" points="630.298,-192.5 630.298,-211.5 684.298,-211.5 684.298,-192.5 630.298,-192.5"/>
<text text-anchor="middle" x="657.298" y="-199.5" font-family="Helvetica,sans-Serif" font-size="10.00">iostream</text>
</g>
<!-- Node1&#45;&gt;Node21 -->
<g id="edge29" class="edge"><title>Node1&#45;&gt;Node21</title>
<path fill="none" stroke="midnightblue" d="M600.601,-248.498C612.781,-238.724 627.301,-227.072 638.598,-218.007"/>
<polygon fill="midnightblue" stroke="midnightblue" points="640.907,-220.641 646.516,-211.652 636.526,-215.181 640.907,-220.641"/>
</g>
<!-- Node22 -->
<g id="node22" class="node"><title>Node22</title>
<polygon fill="none" stroke="#bfbfbf" points="702.798,-192.5 702.798,-211.5 749.798,-211.5 749.798,-192.5 702.798,-192.5"/>
<text text-anchor="middle" x="726.298" y="-199.5" font-family="Helvetica,sans-Serif" font-size="10.00">TFile.h</text>
</g>
<!-- Node1&#45;&gt;Node22 -->
<g id="edge30" class="edge"><title>Node1&#45;&gt;Node22</title>
<path fill="none" stroke="midnightblue" d="M621.303,-248.498C645.849,-237.861 675.527,-225.001 697.059,-215.67"/>
<polygon fill="midnightblue" stroke="midnightblue" points="698.547,-218.84 706.331,-211.652 695.764,-212.417 698.547,-218.84"/>
</g>
<!-- Node23 -->
<g id="node23" class="node"><title>Node23</title>
<polygon fill="none" stroke="#bfbfbf" points="768.298,-192.5 768.298,-211.5 824.298,-211.5 824.298,-192.5 768.298,-192.5"/>
<text text-anchor="middle" x="796.298" y="-199.5" font-family="Helvetica,sans-Serif" font-size="10.00">TClass.h</text>
</g>
<!-- Node1&#45;&gt;Node23 -->
<g id="edge31" class="edge"><title>Node1&#45;&gt;Node23</title>
<path fill="none" stroke="midnightblue" d="M642.305,-248.498C680.222,-237.295 726.488,-223.626 758.352,-214.211"/>
<polygon fill="midnightblue" stroke="midnightblue" points="759.564,-217.503 768.163,-211.313 757.581,-210.79 759.564,-217.503"/>
</g>
<!-- Node3 -->
<g id="node3" class="node"><title>Node3</title>
<g id="a_node3"><a xlink:href="../../d9/d80/InteractionRecord_8h.html" target="_top" xlink:title="CommonDataFormat/Interaction\lRecord.h">
<polygon fill="none" stroke="black" points="261.798,-57 261.798,-87 418.798,-87 418.798,-57 261.798,-57"/>
<text text-anchor="start" x="269.798" y="-75" font-family="Helvetica,sans-Serif" font-size="10.00">CommonDataFormat/Interaction</text>
<text text-anchor="middle" x="340.298" y="-64" font-family="Helvetica,sans-Serif" font-size="10.00">Record.h</text>
</a>
</g>
</g>
<!-- Node2&#45;&gt;Node3 -->
<g id="edge2" class="edge"><title>Node2&#45;&gt;Node3</title>
<path fill="none" stroke="midnightblue" d="M352.737,-192.245C361.722,-183.969 374.044,-170.663 379.298,-156 384.096,-142.611 383.859,-137.471 379.298,-124 375.669,-113.279 368.782,-103.039 361.794,-94.5847"/>
<polygon fill="midnightblue" stroke="midnightblue" points="364.405,-92.2537 355.165,-87.0692 359.155,-96.8841 364.405,-92.2537"/>
</g>
<!-- Node8 -->
<g id="node8" class="node"><title>Node8</title>
<g id="a_node8"><a xlink:href="../../d5/d3f/RunContext_8h.html" target="_top" xlink:title="SimulationDataFormat\l/RunContext.h">
<polygon fill="none" stroke="black" points="256.298,-125 256.298,-155 370.298,-155 370.298,-125 256.298,-125"/>
<text text-anchor="start" x="264.298" y="-143" font-family="Helvetica,sans-Serif" font-size="10.00">SimulationDataFormat</text>
<text text-anchor="middle" x="313.298" y="-132" font-family="Helvetica,sans-Serif" font-size="10.00">/RunContext.h</text>
</a>
</g>
</g>
<!-- Node2&#45;&gt;Node8 -->
<g id="edge7" class="edge"><title>Node2&#45;&gt;Node8</title>
<path fill="none" stroke="midnightblue" d="M338.143,-192.403C334.583,-185.037 329.286,-174.077 324.496,-164.168"/>
<polygon fill="midnightblue" stroke="midnightblue" points="327.636,-162.621 320.133,-155.141 321.333,-165.667 327.636,-162.621"/>
</g>
<!-- Node2&#45;&gt;Node9 -->
<g id="edge22" class="edge"><title>Node2&#45;&gt;Node9</title>
<path fill="none" stroke="midnightblue" d="M353.865,-192.332C365.03,-183.707 382.134,-169.799 395.298,-156 415.434,-134.893 435.448,-107.673 447.597,-90.2729"/>
<polygon fill="midnightblue" stroke="midnightblue" points="450.7,-91.9389 453.488,-81.7177 444.934,-87.9689 450.7,-91.9389"/>
</g>
<!-- Node10 -->
<g id="node10" class="node"><title>Node10</title>
<polygon fill="none" stroke="#bfbfbf" points="33.2982,-62.5 33.2982,-81.5 89.2982,-81.5 89.2982,-62.5 33.2982,-62.5"/>
<text text-anchor="middle" x="61.2982" y="-69.5" font-family="Helvetica,sans-Serif" font-size="10.00">TChain.h</text>
</g>
<!-- Node2&#45;&gt;Node10 -->
<g id="edge25" class="edge"><title>Node2&#45;&gt;Node10</title>
<path fill="none" stroke="midnightblue" d="M267.117,-201.939C178.626,-201.248 39.4828,-193.925 6.2982,-156 -12.9806,-133.967 17.3219,-104.759 40.0401,-87.5137"/>
<polygon fill="midnightblue" stroke="midnightblue" points="42.2336,-90.2461 48.2565,-81.5297 38.1126,-84.5877 42.2336,-90.2461"/>
</g>
<!-- Node12 -->
<g id="node12" class="node"><title>Node12</title>
<g id="a_node12"><a xlink:href="../../df/dff/InteractionSampler_8h.html" target="_top" xlink:title="Steer/InteractionSampler.h">
<polygon fill="none" stroke="black" points="502.798,-130.5 502.798,-149.5 635.798,-149.5 635.798,-130.5 502.798,-130.5"/>
<text text-anchor="middle" x="569.298" y="-137.5" font-family="Helvetica,sans-Serif" font-size="10.00">Steer/InteractionSampler.h</text>
</a>
</g>
</g>
<!-- Node2&#45;&gt;Node12 -->
<g id="edge12" class="edge"><title>Node2&#45;&gt;Node12</title>
<path fill="none" stroke="midnightblue" d="M374.822,-192.403C414.856,-181.822 482.936,-163.827 527,-152.18"/>
<polygon fill="midnightblue" stroke="midnightblue" points="528.061,-155.52 536.835,-149.581 526.273,-148.752 528.061,-155.52"/>
</g>
<!-- Node16 -->
<g id="node16" class="node"><title>Node16</title>
<polygon fill="none" stroke="#bfbfbf" points="15.2982,-130.5 15.2982,-149.5 101.298,-149.5 101.298,-130.5 15.2982,-130.5"/>
<text text-anchor="middle" x="58.2982" y="-137.5" font-family="Helvetica,sans-Serif" font-size="10.00">TGeoManager.h</text>
</g>
<!-- Node2&#45;&gt;Node16 -->
<g id="edge20" class="edge"><title>Node2&#45;&gt;Node16</title>
<path fill="none" stroke="midnightblue" d="M291.329,-192.463C244.134,-184.24 172.126,-170.882 110.298,-156 105.634,-154.877 100.761,-153.606 95.949,-152.289"/>
<polygon fill="midnightblue" stroke="midnightblue" points="96.817,-148.897 86.2427,-149.557 94.9205,-155.636 96.817,-148.897"/>
</g>
<!-- Node17 -->
<g id="node17" class="node"><title>Node17</title>
<polygon fill="none" stroke="#bfbfbf" points="119.798,-130.5 119.798,-149.5 160.798,-149.5 160.798,-130.5 119.798,-130.5"/>
<text text-anchor="middle" x="140.298" y="-137.5" font-family="Helvetica,sans-Serif" font-size="10.00">string</text>
</g>
<!-- Node2&#45;&gt;Node17 -->
<g id="edge21" class="edge"><title>Node2&#45;&gt;Node17</title>
<path fill="none" stroke="midnightblue" d="M298.447,-192.428C262.963,-184.822 212.043,-172.378 169.298,-156 167.697,-155.386 166.069,-154.709 164.444,-153.99"/>
<polygon fill="midnightblue" stroke="midnightblue" points="165.882,-150.798 155.356,-149.595 162.835,-157.1 165.882,-150.798"/>
</g>
<!-- Node2&#45;&gt;Node18 -->
<g id="edge23" class="edge"><title>Node2&#45;&gt;Node18</title>
<path fill="none" stroke="midnightblue" d="M417.59,-197.279C479.778,-192.446 569.638,-181.365 644.298,-156 645.758,-155.504 647.23,-154.93 648.694,-154.303"/>
<polygon fill="midnightblue" stroke="midnightblue" points="650.639,-157.243 658.004,-149.627 647.497,-150.987 650.639,-157.243"/>
</g>
<!-- Node19 -->
<g id="node19" class="node"><title>Node19</title>
<polygon fill="none" stroke="#bfbfbf" points="178.798,-130.5 178.798,-149.5 237.798,-149.5 237.798,-130.5 178.798,-130.5"/>
<text text-anchor="middle" x="208.298" y="-137.5" font-family="Helvetica,sans-Serif" font-size="10.00">functional</text>
</g>
<!-- Node2&#45;&gt;Node19 -->
<g id="edge24" class="edge"><title>Node2&#45;&gt;Node19</title>
<path fill="none" stroke="midnightblue" d="M323.099,-192.403C300.512,-182.29 262.799,-165.404 236.798,-153.761"/>
<polygon fill="midnightblue" stroke="midnightblue" points="238.019,-150.473 227.462,-149.581 235.158,-156.862 238.019,-150.473"/>
</g>
<!-- Node4 -->
<g id="node4" class="node"><title>Node4</title>
<polygon fill="none" stroke="#bfbfbf" points="428.298,-0.5 428.298,-19.5 484.298,-19.5 484.298,-0.5 428.298,-0.5"/>
<text text-anchor="middle" x="456.298" y="-7.5" font-family="Helvetica,sans-Serif" font-size="10.00">Rtypes.h</text>
</g>
<!-- Node3&#45;&gt;Node4 -->
<g id="edge3" class="edge"><title>Node3&#45;&gt;Node4</title>
<path fill="none" stroke="midnightblue" d="M367.495,-56.9327C386.541,-47.0811 411.831,-34.0004 430.55,-24.3182"/>
<polygon fill="midnightblue" stroke="midnightblue" points="432.397,-27.3031 439.671,-19.6 429.181,-21.0855 432.397,-27.3031"/>
</g>
<!-- Node5 -->
<g id="node5" class="node"><title>Node5</title>
<polygon fill="none" stroke="#bfbfbf" points="286.798,-0.5 286.798,-19.5 331.798,-19.5 331.798,-0.5 286.798,-0.5"/>
<text text-anchor="middle" x="309.298" y="-7.5" font-family="Helvetica,sans-Serif" font-size="10.00">iosfwd</text>
</g>
<!-- Node3&#45;&gt;Node5 -->
<g id="edge4" class="edge"><title>Node3&#45;&gt;Node5</title>
<path fill="none" stroke="midnightblue" d="M332.952,-56.7808C328.633,-48.4217 323.133,-37.7773 318.524,-28.8565"/>
<polygon fill="midnightblue" stroke="midnightblue" points="321.509,-27.0082 313.809,-19.7305 315.29,-30.2214 321.509,-27.0082"/>
</g>
<!-- Node6 -->
<g id="node6" class="node"><title>Node6</title>
<polygon fill="none" stroke="#bfbfbf" points="350.298,-0.5 350.298,-19.5 394.298,-19.5 394.298,-0.5 350.298,-0.5"/>
<text text-anchor="middle" x="372.298" y="-7.5" font-family="Helvetica,sans-Serif" font-size="10.00">cmath</text>
</g>
<!-- Node3&#45;&gt;Node6 -->
<g id="edge5" class="edge"><title>Node3&#45;&gt;Node6</title>
<path fill="none" stroke="midnightblue" d="M347.882,-56.7808C352.388,-48.3318 358.139,-37.5481 362.928,-28.5693"/>
<polygon fill="midnightblue" stroke="midnightblue" points="366.024,-30.2012 367.642,-19.7305 359.848,-26.907 366.024,-30.2012"/>
</g>
<!-- Node7 -->
<g id="node7" class="node"><title>Node7</title>
<g id="a_node7"><a xlink:href="../../d4/dc6/LHCConstants_8h.html" target="_top" xlink:title="Header to collect LHC related constants. ">
<polygon fill="none" stroke="black" points="510.298,-0.5 510.298,-19.5 688.298,-19.5 688.298,-0.5 510.298,-0.5"/>
<text text-anchor="middle" x="599.298" y="-7.5" font-family="Helvetica,sans-Serif" font-size="10.00">CommonConstants/LHCConstants.h</text>
</a>
</g>
</g>
<!-- Node3&#45;&gt;Node7 -->
<g id="edge6" class="edge"><title>Node3&#45;&gt;Node7</title>
<path fill="none" stroke="midnightblue" d="M401.022,-56.9327C447.393,-46.1904 510.337,-31.6087 552.763,-21.7804"/>
<polygon fill="midnightblue" stroke="midnightblue" points="553.6,-25.1793 562.552,-19.5127 552.02,-18.3599 553.6,-25.1793"/>
</g>
<!-- Node8&#45;&gt;Node3 -->
<g id="edge11" class="edge"><title>Node8&#45;&gt;Node3</title>
<path fill="none" stroke="midnightblue" d="M319.157,-124.679C322.483,-116.549 326.731,-106.164 330.546,-96.8389"/>
<polygon fill="midnightblue" stroke="midnightblue" points="333.904,-97.8738 334.451,-87.2931 327.425,-95.2233 333.904,-97.8738"/>
</g>
<!-- Node8&#45;&gt;Node9 -->
<g id="edge8" class="edge"><title>Node8&#45;&gt;Node9</title>
<path fill="none" stroke="midnightblue" d="M345.307,-124.861C368.194,-114.708 399.7,-100.64 427.298,-88 428.693,-87.3613 430.12,-86.7042 431.561,-86.0385"/>
<polygon fill="midnightblue" stroke="midnightblue" points="433.459,-89.0156 441.048,-81.6227 430.505,-82.6694 433.459,-89.0156"/>
</g>
<!-- Node8&#45;&gt;Node10 -->
<g id="edge9" class="edge"><title>Node8&#45;&gt;Node10</title>
<path fill="none" stroke="midnightblue" d="M259.547,-124.922C211.371,-112.305 141.912,-94.1131 99.2909,-82.9505"/>
<polygon fill="midnightblue" stroke="midnightblue" points="100.143,-79.5557 89.5826,-80.4078 98.3695,-86.3273 100.143,-79.5557"/>
</g>
<!-- Node11 -->
<g id="node11" class="node"><title>Node11</title>
<polygon fill="none" stroke="#bfbfbf" points="181.298,-62.5 181.298,-81.5 243.298,-81.5 243.298,-62.5 181.298,-62.5"/>
<text text-anchor="middle" x="212.298" y="-69.5" font-family="Helvetica,sans-Serif" font-size="10.00">TBranch.h</text>
</g>
<!-- Node8&#45;&gt;Node11 -->
<g id="edge10" class="edge"><title>Node8&#45;&gt;Node11</title>
<path fill="none" stroke="midnightblue" d="M291.383,-124.679C274.445,-113.611 251.111,-98.363 234.182,-87.3002"/>
<polygon fill="midnightblue" stroke="midnightblue" points="235.803,-84.1783 225.517,-81.6379 231.973,-90.0381 235.803,-84.1783"/>
</g>
<!-- Node12&#45;&gt;Node3 -->
<g id="edge18" class="edge"><title>Node12&#45;&gt;Node3</title>
<path fill="none" stroke="midnightblue" d="M539.36,-130.372C503.782,-120.117 443.59,-102.77 398.69,-89.8291"/>
<polygon fill="midnightblue" stroke="midnightblue" points="399.647,-86.4626 389.069,-87.0562 397.709,-93.1888 399.647,-86.4626"/>
</g>
<!-- Node12&#45;&gt;Node4 -->
<g id="edge13" class="edge"><title>Node12&#45;&gt;Node4</title>
<path fill="none" stroke="midnightblue" d="M569.521,-130.186C569.477,-113.767 567.155,-78.1591 549.298,-56 535.401,-38.755 513.274,-27.6766 494.09,-20.8281"/>
<polygon fill="midnightblue" stroke="midnightblue" points="494.978,-17.4356 484.385,-17.6221 492.782,-24.0823 494.978,-17.4356"/>
</g>
<!-- Node12&#45;&gt;Node7 -->
<g id="edge19" class="edge"><title>Node12&#45;&gt;Node7</title>
<path fill="none" stroke="midnightblue" d="M571.843,-130.38C574.785,-120.274 579.686,-102.996 583.298,-88 588.084,-68.1327 592.743,-45.1762 595.787,-29.5337"/>
<polygon fill="midnightblue" stroke="midnightblue" points="599.249,-30.0657 597.698,-19.585 592.375,-28.7457 599.249,-30.0657"/>
</g>
<!-- Node12&#45;&gt;Node9 -->
<g id="edge17" class="edge"><title>Node12&#45;&gt;Node9</title>
<path fill="none" stroke="midnightblue" d="M554.918,-130.372C536.471,-119.304 504.252,-99.9724 482.361,-86.838"/>
<polygon fill="midnightblue" stroke="midnightblue" points="484.058,-83.7742 473.682,-81.6305 480.456,-89.7767 484.058,-83.7742"/>
</g>
<!-- Node13 -->
<g id="node13" class="node"><title>Node13</title>
<polygon fill="none" stroke="#bfbfbf" points="635.798,-62.5 635.798,-81.5 688.798,-81.5 688.798,-62.5 635.798,-62.5"/>
<text text-anchor="middle" x="662.298" y="-69.5" font-family="Helvetica,sans-Serif" font-size="10.00">TMath.h</text>
</g>
<!-- Node12&#45;&gt;Node13 -->
<g id="edge14" class="edge"><title>Node12&#45;&gt;Node13</title>
<path fill="none" stroke="midnightblue" d="M581.456,-130.372C596.773,-119.502 623.322,-100.66 641.8,-87.5474"/>
<polygon fill="midnightblue" stroke="midnightblue" points="644.008,-90.2723 650.137,-81.6305 639.956,-84.5637 644.008,-90.2723"/>
</g>
<!-- Node14 -->
<g id="node14" class="node"><title>Node14</title>
<polygon fill="none" stroke="#bfbfbf" points="707.298,-62.5 707.298,-81.5 775.298,-81.5 775.298,-62.5 707.298,-62.5"/>
<text text-anchor="middle" x="741.298" y="-69.5" font-family="Helvetica,sans-Serif" font-size="10.00">TRandom.h</text>
</g>
<!-- Node12&#45;&gt;Node14 -->
<g id="edge15" class="edge"><title>Node12&#45;&gt;Node14</title>
<path fill="none" stroke="midnightblue" d="M591.784,-130.372C621.869,-118.827 675.384,-98.2926 709.564,-85.1772"/>
<polygon fill="midnightblue" stroke="midnightblue" points="710.997,-88.3761 719.079,-81.5259 708.489,-81.8408 710.997,-88.3761"/>
</g>
<!-- Node15 -->
<g id="node15" class="node"><title>Node15</title>
<polygon fill="none" stroke="#bfbfbf" points="499.798,-62.5 499.798,-81.5 540.798,-81.5 540.798,-62.5 499.798,-62.5"/>
<text text-anchor="middle" x="520.298" y="-69.5" font-family="Helvetica,sans-Serif" font-size="10.00">bitset</text>
</g>
<!-- Node12&#45;&gt;Node15 -->
<g id="edge16" class="edge"><title>Node12&#45;&gt;Node15</title>
<path fill="none" stroke="midnightblue" d="M562.892,-130.372C555.304,-120.151 542.485,-102.884 532.888,-89.9571"/>
<polygon fill="midnightblue" stroke="midnightblue" points="535.633,-87.7839 526.862,-81.8411 530.013,-91.9566 535.633,-87.7839"/>
</g>
</g>
</svg>
