<?xml version="1.0" encoding="UTF-8" standalone="no"?>
<!DOCTYPE svg PUBLIC "-//W3C//DTD SVG 1.1//EN"
 "http://www.w3.org/Graphics/SVG/1.1/DTD/svg11.dtd">
<!-- Generated by graphviz version 2.36.0 (20140111.2315)
 -->
<!-- Title: /home/travis/build/AliceO2Group/AliceO2/Utilities/DataFlow/include/DataFlow/FakeTimeframeBuilder.h Pages: 1 -->
<svg width="1258pt" height="242pt"
 viewBox="0.00 0.00 1258.00 242.00" xmlns="http://www.w3.org/2000/svg" xmlns:xlink="http://www.w3.org/1999/xlink">
<g id="graph0" class="graph" transform="scale(1 1) rotate(0) translate(4 238)">
<title>/home/travis/build/AliceO2Group/AliceO2/Utilities/DataFlow/include/DataFlow/FakeTimeframeBuilder.h</title>
<!-- Node1 -->
<g id="node1" class="node"><title>Node1</title>
<polygon fill="#bfbfbf" stroke="black" points="496.5,-181 496.5,-233 667.5,-233 667.5,-181 496.5,-181"/>
<text text-anchor="start" x="504.5" y="-221" font-family="Helvetica,sans-Serif" font-size="10.00">/home/travis/build</text>
<text text-anchor="start" x="504.5" y="-210" font-family="Helvetica,sans-Serif" font-size="10.00">/AliceO2Group/AliceO2</text>
<text text-anchor="start" x="504.5" y="-199" font-family="Helvetica,sans-Serif" font-size="10.00">/Utilities/DataFlow/include</text>
<text text-anchor="middle" x="582" y="-188" font-family="Helvetica,sans-Serif" font-size="10.00">/DataFlow/FakeTimeframeBuilder.h</text>
</g>
<!-- Node2 -->
<g id="node2" class="node"><title>Node2</title>
<g id="a_node2"><a xlink:href="../../dc/dcd/DataHeader_8h.html" target="_top" xlink:title="Headers/DataHeader.h">
<polygon fill="none" stroke="black" points="342.5,-124.5 342.5,-143.5 459.5,-143.5 459.5,-124.5 342.5,-124.5"/>
<text text-anchor="middle" x="401" y="-131.5" font-family="Helvetica,sans-Serif" font-size="10.00">Headers/DataHeader.h</text>
</a>
</g>
</g>
<!-- Node1&#45;&gt;Node2 -->
<g id="edge1" class="edge"><title>Node1&#45;&gt;Node2</title>
<path fill="none" stroke="midnightblue" d="M518.186,-180.968C489.154,-169.58 456.097,-156.613 432.512,-147.361"/>
<polygon fill="midnightblue" stroke="midnightblue" points="433.611,-144.032 423.023,-143.639 431.054,-150.549 433.611,-144.032"/>
</g>
<!-- Node4 -->
<g id="node4" class="node"><title>Node4</title>
<polygon fill="none" stroke="#bfbfbf" points="111,-68.5 111,-87.5 163,-87.5 163,-68.5 111,-68.5"/>
<text text-anchor="middle" x="137" y="-75.5" font-family="Helvetica,sans-Serif" font-size="10.00">memory</text>
</g>
<!-- Node1&#45;&gt;Node4 -->
<g id="edge23" class="edge"><title>Node1&#45;&gt;Node4</title>
<path fill="none" stroke="midnightblue" d="M496.29,-186.363C448.075,-174.891 386.913,-159.627 333,-144 275.473,-127.325 209.554,-104.731 170.698,-91.0452"/>
<polygon fill="midnightblue" stroke="midnightblue" points="171.549,-87.6341 160.955,-87.6003 169.216,-94.2337 171.549,-87.6341"/>
</g>
<!-- Node17 -->
<g id="node17" class="node"><title>Node17</title>
<polygon fill="none" stroke="#bfbfbf" points="1206,-6.5 1206,-25.5 1250,-25.5 1250,-6.5 1206,-6.5"/>
<text text-anchor="middle" x="1228" y="-13.5" font-family="Helvetica,sans-Serif" font-size="10.00">vector</text>
</g>
<!-- Node1&#45;&gt;Node17 -->
<g id="edge22" class="edge"><title>Node1&#45;&gt;Node17</title>
<path fill="none" stroke="midnightblue" d="M636.54,-180.832C676.46,-163.133 732.285,-139.87 783,-124 962.473,-67.8397 1018.02,-92.717 1196,-32 1197.92,-31.3463 1199.87,-30.6118 1201.82,-29.8283"/>
<polygon fill="midnightblue" stroke="midnightblue" points="1203.6,-32.8718 1211.35,-25.6489 1200.78,-26.4616 1203.6,-32.8718"/>
</g>
<!-- Node21 -->
<g id="node21" class="node"><title>Node21</title>
<polygon fill="none" stroke="#bfbfbf" points="791.5,-124.5 791.5,-143.5 850.5,-143.5 850.5,-124.5 791.5,-124.5"/>
<text text-anchor="middle" x="821" y="-131.5" font-family="Helvetica,sans-Serif" font-size="10.00">functional</text>
</g>
<!-- Node1&#45;&gt;Node21 -->
<g id="edge24" class="edge"><title>Node1&#45;&gt;Node21</title>
<path fill="none" stroke="midnightblue" d="M666.262,-180.968C705.918,-169.188 751.258,-155.718 782.56,-146.419"/>
<polygon fill="midnightblue" stroke="midnightblue" points="783.616,-149.757 792.205,-143.554 781.623,-143.047 783.616,-149.757"/>
</g>
<!-- Node3 -->
<g id="node3" class="node"><title>Node3</title>
<polygon fill="none" stroke="#bfbfbf" points="259,-68.5 259,-87.5 305,-87.5 305,-68.5 259,-68.5"/>
<text text-anchor="middle" x="282" y="-75.5" font-family="Helvetica,sans-Serif" font-size="10.00">cstdint</text>
</g>
<!-- Node2&#45;&gt;Node3 -->
<g id="edge2" class="edge"><title>Node2&#45;&gt;Node3</title>
<path fill="none" stroke="midnightblue" d="M382.144,-124.444C362.734,-115.636 332.27,-101.812 310.035,-91.722"/>
<polygon fill="midnightblue" stroke="midnightblue" points="311.32,-88.4615 300.768,-87.5164 308.428,-94.836 311.32,-88.4615"/>
</g>
<!-- Node2&#45;&gt;Node4 -->
<g id="edge3" class="edge"><title>Node2&#45;&gt;Node4</title>
<path fill="none" stroke="midnightblue" d="M353.465,-124.486C309.208,-116.373 241.183,-103.434 173.339,-88.2077"/>
<polygon fill="midnightblue" stroke="midnightblue" points="173.86,-84.737 163.334,-85.9449 172.315,-91.5646 173.86,-84.737"/>
</g>
<!-- Node5 -->
<g id="node5" class="node"><title>Node5</title>
<polygon fill="none" stroke="#bfbfbf" points="323.5,-68.5 323.5,-87.5 372.5,-87.5 372.5,-68.5 323.5,-68.5"/>
<text text-anchor="middle" x="348" y="-75.5" font-family="Helvetica,sans-Serif" font-size="10.00">cassert</text>
</g>
<!-- Node2&#45;&gt;Node5 -->
<g id="edge4" class="edge"><title>Node2&#45;&gt;Node5</title>
<path fill="none" stroke="midnightblue" d="M392.248,-124.083C384.53,-116.22 373.095,-104.569 363.783,-95.0813"/>
<polygon fill="midnightblue" stroke="midnightblue" points="366.092,-92.4363 356.589,-87.7511 361.096,-97.3396 366.092,-92.4363"/>
</g>
<!-- Node6 -->
<g id="node6" class="node"><title>Node6</title>
<polygon fill="none" stroke="#bfbfbf" points="0,-6.5 0,-25.5 46,-25.5 46,-6.5 0,-6.5"/>
<text text-anchor="middle" x="23" y="-13.5" font-family="Helvetica,sans-Serif" font-size="10.00">cstring</text>
</g>
<!-- Node2&#45;&gt;Node6 -->
<g id="edge5" class="edge"><title>Node2&#45;&gt;Node6</title>
<path fill="none" stroke="midnightblue" d="M401.127,-124.218C400.812,-109.968 397.921,-81.9981 381,-68 324.841,-21.542 125.163,-51.7327 55,-32 52.6577,-31.3413 50.2732,-30.5266 47.9158,-29.6203"/>
<polygon fill="midnightblue" stroke="midnightblue" points="49.1207,-26.3275 38.555,-25.5421 46.3248,-32.745 49.1207,-26.3275"/>
</g>
<!-- Node7 -->
<g id="node7" class="node"><title>Node7</title>
<polygon fill="none" stroke="#bfbfbf" points="679,-68.5 679,-87.5 735,-87.5 735,-68.5 679,-68.5"/>
<text text-anchor="middle" x="707" y="-75.5" font-family="Helvetica,sans-Serif" font-size="10.00">algorithm</text>
</g>
<!-- Node2&#45;&gt;Node7 -->
<g id="edge6" class="edge"><title>Node2&#45;&gt;Node7</title>
<path fill="none" stroke="midnightblue" d="M458.448,-124.481C512.853,-116.146 596.744,-102.606 669,-88 669.1,-87.9799 669.199,-87.9596 669.299,-87.9393"/>
<polygon fill="midnightblue" stroke="midnightblue" points="669.783,-91.4155 678.824,-85.8924 668.312,-84.5717 669.783,-91.4155"/>
</g>
<!-- Node8 -->
<g id="node8" class="node"><title>Node8</title>
<polygon fill="none" stroke="#bfbfbf" points="181.5,-68.5 181.5,-87.5 240.5,-87.5 240.5,-68.5 181.5,-68.5"/>
<text text-anchor="middle" x="211" y="-75.5" font-family="Helvetica,sans-Serif" font-size="10.00">stdexcept</text>
</g>
<!-- Node2&#45;&gt;Node8 -->
<g id="edge7" class="edge"><title>Node2&#45;&gt;Node8</title>
<path fill="none" stroke="midnightblue" d="M370.894,-124.444C338.279,-115.174 286.116,-100.349 250.293,-90.1675"/>
<polygon fill="midnightblue" stroke="midnightblue" points="251.228,-86.7948 240.652,-87.4275 249.315,-93.5281 251.228,-86.7948"/>
</g>
<!-- Node9 -->
<g id="node9" class="node"><title>Node9</title>
<polygon fill="none" stroke="#bfbfbf" points="64.5,-6.5 64.5,-25.5 105.5,-25.5 105.5,-6.5 64.5,-6.5"/>
<text text-anchor="middle" x="85" y="-13.5" font-family="Helvetica,sans-Serif" font-size="10.00">string</text>
</g>
<!-- Node2&#45;&gt;Node9 -->
<g id="edge8" class="edge"><title>Node2&#45;&gt;Node9</title>
<path fill="none" stroke="midnightblue" d="M407.045,-124.237C415.698,-110.515 429.099,-83.8858 415,-68 370.283,-17.6162 178.393,-51.7914 114,-32 112.09,-31.413 110.156,-30.7032 108.241,-29.9156"/>
<polygon fill="midnightblue" stroke="midnightblue" points="109.557,-26.666 99.0228,-25.5374 106.554,-32.9891 109.557,-26.666"/>
</g>
<!-- Node10 -->
<g id="node10" class="node"><title>Node10</title>
<g id="a_node10"><a xlink:href="../../dc/d03/MemoryResources_8h.html" target="_top" xlink:title="MemoryResources/MemoryResources.h">
<polygon fill="none" stroke="black" points="467.5,-68.5 467.5,-87.5 660.5,-87.5 660.5,-68.5 467.5,-68.5"/>
<text text-anchor="middle" x="564" y="-75.5" font-family="Helvetica,sans-Serif" font-size="10.00">MemoryResources/MemoryResources.h</text>
</a>
</g>
</g>
<!-- Node2&#45;&gt;Node10 -->
<g id="edge9" class="edge"><title>Node2&#45;&gt;Node10</title>
<path fill="none" stroke="midnightblue" d="M426.828,-124.444C454.249,-115.359 497.777,-100.939 528.432,-90.7831"/>
<polygon fill="midnightblue" stroke="midnightblue" points="529.901,-93.9837 538.293,-87.5164 527.7,-87.3389 529.901,-93.9837"/>
</g>
<!-- Node10&#45;&gt;Node6 -->
<g id="edge14" class="edge"><title>Node10&#45;&gt;Node6</title>
<path fill="none" stroke="midnightblue" d="M467.383,-70.2848C330.841,-60.5157 93.6524,-42.4173 55,-32 52.6507,-31.3668 50.2613,-30.5699 47.9007,-29.6751"/>
<polygon fill="midnightblue" stroke="midnightblue" points="49.1021,-26.3812 38.535,-25.6149 46.3178,-32.8037 49.1021,-26.3812"/>
</g>
<!-- Node10&#45;&gt;Node9 -->
<g id="edge15" class="edge"><title>Node10&#45;&gt;Node9</title>
<path fill="none" stroke="midnightblue" d="M469.863,-68.495C342.949,-56.896 130.795,-36.9844 114,-32 112.084,-31.4315 110.147,-30.7352 108.229,-29.957"/>
<polygon fill="midnightblue" stroke="midnightblue" points="109.542,-26.7061 99.0049,-25.5967 106.55,-33.0347 109.542,-26.7061"/>
</g>
<!-- Node11 -->
<g id="node11" class="node"><title>Node11</title>
<polygon fill="none" stroke="#bfbfbf" points="388,-1 388,-31 488,-31 488,-1 388,-1"/>
<text text-anchor="start" x="396" y="-19" font-family="Helvetica,sans-Serif" font-size="10.00">boost/container/flat</text>
<text text-anchor="middle" x="438" y="-8" font-family="Helvetica,sans-Serif" font-size="10.00">_map.hpp</text>
</g>
<!-- Node10&#45;&gt;Node11 -->
<g id="edge10" class="edge"><title>Node10&#45;&gt;Node11</title>
<path fill="none" stroke="midnightblue" d="M545.947,-68.4035C528.005,-59.8596 499.914,-46.483 476.886,-35.5171"/>
<polygon fill="midnightblue" stroke="midnightblue" points="478.229,-32.2802 467.696,-31.1408 475.22,-38.6002 478.229,-32.2802"/>
</g>
<!-- Node12 -->
<g id="node12" class="node"><title>Node12</title>
<polygon fill="none" stroke="#bfbfbf" points="506,-1 506,-31 622,-31 622,-1 506,-1"/>
<text text-anchor="start" x="514" y="-19" font-family="Helvetica,sans-Serif" font-size="10.00">boost/container/pmr</text>
<text text-anchor="middle" x="564" y="-8" font-family="Helvetica,sans-Serif" font-size="10.00">/memory_resource.hpp</text>
</g>
<!-- Node10&#45;&gt;Node12 -->
<g id="edge11" class="edge"><title>Node10&#45;&gt;Node12</title>
<path fill="none" stroke="midnightblue" d="M564,-68.4035C564,-61.3405 564,-50.975 564,-41.399"/>
<polygon fill="midnightblue" stroke="midnightblue" points="567.5,-41.1408 564,-31.1408 560.5,-41.1408 567.5,-41.1408"/>
</g>
<!-- Node13 -->
<g id="node13" class="node"><title>Node13</title>
<polygon fill="none" stroke="#bfbfbf" points="640,-1 640,-31 796,-31 796,-1 640,-1"/>
<text text-anchor="start" x="648" y="-19" font-family="Helvetica,sans-Serif" font-size="10.00">boost/container/pmr</text>
<text text-anchor="middle" x="718" y="-8" font-family="Helvetica,sans-Serif" font-size="10.00">/monotonic_buffer_resource.hpp</text>
</g>
<!-- Node10&#45;&gt;Node13 -->
<g id="edge12" class="edge"><title>Node10&#45;&gt;Node13</title>
<path fill="none" stroke="midnightblue" d="M586.064,-68.4035C608.556,-59.6406 644.095,-45.7942 672.624,-34.6789"/>
<polygon fill="midnightblue" stroke="midnightblue" points="673.955,-37.9169 682.002,-31.0253 671.413,-31.3945 673.955,-37.9169"/>
</g>
<!-- Node14 -->
<g id="node14" class="node"><title>Node14</title>
<polygon fill="none" stroke="#bfbfbf" points="814.5,-1 814.5,-31 947.5,-31 947.5,-1 814.5,-1"/>
<text text-anchor="start" x="822.5" y="-19" font-family="Helvetica,sans-Serif" font-size="10.00">boost/container/pmr</text>
<text text-anchor="middle" x="881" y="-8" font-family="Helvetica,sans-Serif" font-size="10.00">/polymorphic_allocator.hpp</text>
</g>
<!-- Node10&#45;&gt;Node14 -->
<g id="edge13" class="edge"><title>Node10&#45;&gt;Node14</title>
<path fill="none" stroke="midnightblue" d="M610.678,-68.4309C657.16,-59.8649 730.824,-46.2011 804.376,-32.109"/>
<polygon fill="midnightblue" stroke="midnightblue" points="805.118,-35.5305 814.279,-30.2088 803.799,-28.6559 805.118,-35.5305"/>
</g>
<!-- Node15 -->
<g id="node15" class="node"><title>Node15</title>
<polygon fill="none" stroke="#bfbfbf" points="966,-6.5 966,-25.5 1028,-25.5 1028,-6.5 966,-6.5"/>
<text text-anchor="middle" x="997" y="-13.5" font-family="Helvetica,sans-Serif" font-size="10.00">type_traits</text>
</g>
<!-- Node10&#45;&gt;Node15 -->
<g id="edge16" class="edge"><title>Node10&#45;&gt;Node15</title>
<path fill="none" stroke="midnightblue" d="M660.553,-68.5503C758.049,-59.5451 901.756,-44.8446 956,-32 959.499,-31.1715 963.109,-30.135 966.668,-28.996"/>
<polygon fill="midnightblue" stroke="midnightblue" points="968.137,-32.1911 976.434,-25.6024 965.839,-25.579 968.137,-32.1911"/>
</g>
<!-- Node16 -->
<g id="node16" class="node"><title>Node16</title>
<polygon fill="none" stroke="#bfbfbf" points="1046,-6.5 1046,-25.5 1086,-25.5 1086,-6.5 1046,-6.5"/>
<text text-anchor="middle" x="1066" y="-13.5" font-family="Helvetica,sans-Serif" font-size="10.00">utility</text>
</g>
<!-- Node10&#45;&gt;Node16 -->
<g id="edge17" class="edge"><title>Node10&#45;&gt;Node16</title>
<path fill="none" stroke="midnightblue" d="M660.777,-68.6865C793.648,-57.1396 1018.26,-37.0891 1036,-32 1037.97,-31.434 1039.97,-30.7395 1041.95,-29.9626"/>
<polygon fill="midnightblue" stroke="midnightblue" points="1043.85,-32.9453 1051.48,-25.6048 1040.93,-26.5788 1043.85,-32.9453"/>
</g>
<!-- Node10&#45;&gt;Node17 -->
<g id="edge18" class="edge"><title>Node10&#45;&gt;Node17</title>
<path fill="none" stroke="midnightblue" d="M660.757,-68.719C663.874,-68.4733 666.962,-68.233 670,-68 903.639,-50.0873 969.155,-90.7298 1196,-32 1198.49,-31.3541 1201.03,-30.5164 1203.53,-29.5672"/>
<polygon fill="midnightblue" stroke="midnightblue" points="1205.04,-32.7282 1212.81,-25.5239 1202.24,-26.3113 1205.04,-32.7282"/>
</g>
<!-- Node18 -->
<g id="node18" class="node"><title>Node18</title>
<polygon fill="none" stroke="#bfbfbf" points="1104.5,-6.5 1104.5,-25.5 1187.5,-25.5 1187.5,-6.5 1104.5,-6.5"/>
<text text-anchor="middle" x="1146" y="-13.5" font-family="Helvetica,sans-Serif" font-size="10.00">unordered_map</text>
</g>
<!-- Node10&#45;&gt;Node18 -->
<g id="edge19" class="edge"><title>Node10&#45;&gt;Node18</title>
<path fill="none" stroke="midnightblue" d="M660.763,-68.7835C663.878,-68.5192 666.964,-68.2575 670,-68 858.887,-51.9813 908.679,-66.9216 1095,-32 1100.14,-31.0365 1105.5,-29.7644 1110.74,-28.3677"/>
<polygon fill="midnightblue" stroke="midnightblue" points="1111.9,-31.6771 1120.56,-25.5764 1109.99,-24.9438 1111.9,-31.6771"/>
</g>
<!-- Node19 -->
<g id="node19" class="node"><title>Node19</title>
<polygon fill="none" stroke="#bfbfbf" points="123.5,-6.5 123.5,-25.5 220.5,-25.5 220.5,-6.5 123.5,-6.5"/>
<text text-anchor="middle" x="172" y="-13.5" font-family="Helvetica,sans-Serif" font-size="10.00">FairMQMessage.h</text>
</g>
<!-- Node10&#45;&gt;Node19 -->
<g id="edge20" class="edge"><title>Node10&#45;&gt;Node19</title>
<path fill="none" stroke="midnightblue" d="M478.5,-68.4684C410.52,-60.976 313.189,-48.6654 229,-32 223.416,-30.8947 217.568,-29.5615 211.834,-28.1517"/>
<polygon fill="midnightblue" stroke="midnightblue" points="212.272,-24.6513 201.717,-25.5639 210.538,-31.433 212.272,-24.6513"/>
</g>
<!-- Node20 -->
<g id="node20" class="node"><title>Node20</title>
<polygon fill="none" stroke="#bfbfbf" points="238.5,-6.5 238.5,-25.5 369.5,-25.5 369.5,-6.5 238.5,-6.5"/>
<text text-anchor="middle" x="304" y="-13.5" font-family="Helvetica,sans-Serif" font-size="10.00">FairMQTransportFactory.h</text>
</g>
<!-- Node10&#45;&gt;Node20 -->
<g id="edge21" class="edge"><title>Node10&#45;&gt;Node20</title>
<path fill="none" stroke="midnightblue" d="M527.024,-68.4672C480.724,-57.7825 401.365,-39.4687 350.856,-27.8129"/>
<polygon fill="midnightblue" stroke="midnightblue" points="351.379,-24.3417 340.848,-25.5034 349.805,-31.1624 351.379,-24.3417"/>
</g>
</g>
</svg>
