<?xml version="1.0" encoding="UTF-8" standalone="no"?>
<!DOCTYPE svg PUBLIC "-//W3C//DTD SVG 1.1//EN"
 "http://www.w3.org/Graphics/SVG/1.1/DTD/svg11.dtd">
<!-- Generated by graphviz version 2.36.0 (20140111.2315)
 -->
<!-- Title: /home/travis/build/AliceO2Group/AliceO2/Detectors/Passive/src/Hall.cxx Pages: 1 -->
<!--zoomable 230 -->
<svg id="main" version="1.1" xmlns="http://www.w3.org/2000/svg" xmlns:xlink="http://www.w3.org/1999/xlink" xml:space="preserve" onload="init(evt)">
<style type="text/css"><![CDATA[
.edge:hover path { stroke: red; }
.edge:hover polygon { stroke: red; fill: red; }
]]></style>
<script type="text/javascript"><![CDATA[
var edges = document.getElementsByTagName('g');
if (edges && edges.length) {
  for (var i=0;i<edges.length;i++) {
    if (edges[i].id.substr(0,4)=='edge') {
      edges[i].setAttribute('class','edge');
    }
  }
}
]]></script>
        <defs>
                <circle id="rim" cx="0" cy="0" r="7"/>
                <circle id="rim2" cx="0" cy="0" r="3.5"/>
                <g id="zoomPlus">
                        <use xlink:href="#rim" fill="#404040">
                                <set attributeName="fill" to="#808080" begin="zoomplus.mouseover" end="zoomplus.mouseout"/>
                        </use>
                        <path d="M-4,0h8M0,-4v8" fill="none" stroke="white" stroke-width="1.5" pointer-events="none"/>
                </g>
                <g id="zoomMin">
                        <use xlink:href="#rim" fill="#404040">
                                <set attributeName="fill" to="#808080" begin="zoomminus.mouseover" end="zoomminus.mouseout"/>
                        </use>
                        <path d="M-4,0h8" fill="none" stroke="white" stroke-width="1.5" pointer-events="none"/>
                </g>
                <g id="dirArrow">
                        <path fill="none" stroke="white" stroke-width="1.5" d="M0,-3.0v7 M-2.5,-0.5L0,-3.0L2.5,-0.5"/>
                </g>
               <g id="resetDef">
                       <use xlink:href="#rim2" fill="#404040">
                               <set attributeName="fill" to="#808080" begin="reset.mouseover" end="reset.mouseout"/>
                       </use>
               </g>
        </defs>

<script type="text/javascript">
var viewWidth = 1956;
var viewHeight = 230;
var sectionId = 'dynsection-0';
</script>
<script xlink:href="../../svgpan.js"/>
<svg id="graph" class="graph">
<g id="viewport">
<title>/home/travis/build/AliceO2Group/AliceO2/Detectors/Passive/src/Hall.cxx</title>
<!-- Node1 -->
<g id="node1" class="node"><title>Node1</title>
<polygon fill="#bfbfbf" stroke="black" points="1294.53,-169 1294.53,-221 1412.53,-221 1412.53,-169 1294.53,-169"/>
<text text-anchor="start" x="1302.53" y="-209" font-family="Helvetica,sans-Serif" font-size="10.00">/home/travis/build</text>
<text text-anchor="start" x="1302.53" y="-198" font-family="Helvetica,sans-Serif" font-size="10.00">/AliceO2Group/AliceO2</text>
<text text-anchor="start" x="1302.53" y="-187" font-family="Helvetica,sans-Serif" font-size="10.00">/Detectors/Passive/src</text>
<text text-anchor="middle" x="1353.53" y="-176" font-family="Helvetica,sans-Serif" font-size="10.00">/Hall.cxx</text>
</g>
<!-- Node2 -->
<g id="node2" class="node"><title>Node2</title>
<g id="a_node2"><a xlink:href="../../d1/d3a/Base_2include_2DetectorsBase_2Detector_8h.html" target="_top" xlink:title="DetectorsBase/Detector.h">
<polygon fill="none" stroke="black" points="620.028,-112.5 620.028,-131.5 751.028,-131.5 751.028,-112.5 620.028,-112.5"/>
<text text-anchor="middle" x="685.528" y="-119.5" font-family="Helvetica,sans-Serif" font-size="10.00">DetectorsBase/Detector.h</text>
</a>
</g>
</g>
<!-- Node1&#45;&gt;Node2 -->
<g id="edge1" class="edge"><title>Node1&#45;&gt;Node2</title>
<path fill="none" stroke="midnightblue" d="M1294.25,-187.699C1172.72,-174.783 895.524,-145.32 761.231,-131.046"/>
<polygon fill="midnightblue" stroke="midnightblue" points="761.345,-127.539 751.031,-129.962 760.606,-134.5 761.345,-127.539"/>
</g>
<!-- Node5 -->
<g id="node5" class="node"><title>Node5</title>
<polygon fill="none" stroke="#bfbfbf" points="611.028,-0.5 611.028,-19.5 684.028,-19.5 684.028,-0.5 611.028,-0.5"/>
<text text-anchor="middle" x="647.528" y="-7.5" font-family="Helvetica,sans-Serif" font-size="10.00">initializer_list</text>
</g>
<!-- Node1&#45;&gt;Node5 -->
<g id="edge33" class="edge"><title>Node1&#45;&gt;Node5</title>
<path fill="none" stroke="midnightblue" d="M1294.38,-193.426C1045.56,-190.408 92.5915,-172.576 4.52832,-76 -1.46092,-69.4318 -1.5337,-62.5011 4.52832,-56 44.9659,-12.6336 459.185,-10.2296 600.55,-10.6865"/>
<polygon fill="midnightblue" stroke="midnightblue" points="600.627,-14.1867 610.64,-10.7256 600.654,-7.18676 600.627,-14.1867"/>
</g>
<!-- Node9 -->
<g id="node9" class="node"><title>Node9</title>
<g id="a_node9"><a xlink:href="../../d0/d9a/MaterialManager_8h.html" target="_top" xlink:title="DetectorsBase/MaterialManager.h">
<polygon fill="none" stroke="black" points="1133.03,-56.5 1133.03,-75.5 1298.03,-75.5 1298.03,-56.5 1133.03,-56.5"/>
<text text-anchor="middle" x="1215.53" y="-63.5" font-family="Helvetica,sans-Serif" font-size="10.00">DetectorsBase/MaterialManager.h</text>
</a>
</g>
</g>
<!-- Node1&#45;&gt;Node9 -->
<g id="edge22" class="edge"><title>Node1&#45;&gt;Node9</title>
<path fill="none" stroke="midnightblue" d="M1294.37,-191.899C1207.32,-187.424 1051.22,-173.655 1016.53,-132 1010.84,-125.17 1010.98,-118.944 1016.53,-112 1030.28,-94.7962 1077.62,-83.6882 1122.68,-76.8131"/>
<polygon fill="midnightblue" stroke="midnightblue" points="1123.46,-80.2363 1132.85,-75.3251 1122.44,-73.31 1123.46,-80.2363"/>
</g>
<!-- Node20 -->
<g id="node20" class="node"><title>Node20</title>
<g id="a_node20"><a xlink:href="../../dc/db0/Hall_8h.html" target="_top" xlink:title="DetectorsPassive/Hall.h">
<polygon fill="none" stroke="black" points="1026.03,-112.5 1026.03,-131.5 1149.03,-131.5 1149.03,-112.5 1026.03,-112.5"/>
<text text-anchor="middle" x="1087.53" y="-119.5" font-family="Helvetica,sans-Serif" font-size="10.00">DetectorsPassive/Hall.h</text>
</a>
</g>
</g>
<!-- Node1&#45;&gt;Node20 -->
<g id="edge23" class="edge"><title>Node1&#45;&gt;Node20</title>
<path fill="none" stroke="midnightblue" d="M1294.49,-178.243C1244.37,-164.864 1173.69,-145.999 1129.26,-134.139"/>
<polygon fill="midnightblue" stroke="midnightblue" points="1129.94,-130.699 1119.38,-131.501 1128.14,-137.462 1129.94,-130.699"/>
</g>
<!-- Node22 -->
<g id="node22" class="node"><title>Node22</title>
<polygon fill="none" stroke="#bfbfbf" points="1167.03,-112.5 1167.03,-131.5 1244.03,-131.5 1244.03,-112.5 1167.03,-112.5"/>
<text text-anchor="middle" x="1205.53" y="-119.5" font-family="Helvetica,sans-Serif" font-size="10.00">FairRunSim.h</text>
</g>
<!-- Node1&#45;&gt;Node22 -->
<g id="edge25" class="edge"><title>Node1&#45;&gt;Node22</title>
<path fill="none" stroke="midnightblue" d="M1301.35,-168.968C1278.14,-157.834 1251.79,-145.191 1232.6,-135.986"/>
<polygon fill="midnightblue" stroke="midnightblue" points="1234.07,-132.809 1223.54,-131.639 1231.04,-139.12 1234.07,-132.809"/>
</g>
<!-- Node23 -->
<g id="node23" class="node"><title>Node23</title>
<polygon fill="none" stroke="#bfbfbf" points="1262.03,-112.5 1262.03,-131.5 1331.03,-131.5 1331.03,-112.5 1262.03,-112.5"/>
<text text-anchor="middle" x="1296.53" y="-119.5" font-family="Helvetica,sans-Serif" font-size="10.00">TGeoArb8.h</text>
</g>
<!-- Node1&#45;&gt;Node23 -->
<g id="edge26" class="edge"><title>Node1&#45;&gt;Node23</title>
<path fill="none" stroke="midnightblue" d="M1333.27,-168.768C1325.5,-159.083 1316.82,-148.281 1309.86,-139.605"/>
<polygon fill="midnightblue" stroke="midnightblue" points="1312.55,-137.364 1303.56,-131.757 1307.09,-141.746 1312.55,-137.364"/>
</g>
<!-- Node24 -->
<g id="node24" class="node"><title>Node24</title>
<polygon fill="none" stroke="#bfbfbf" points="1349.53,-112.5 1349.53,-131.5 1473.53,-131.5 1473.53,-112.5 1349.53,-112.5"/>
<text text-anchor="middle" x="1411.53" y="-119.5" font-family="Helvetica,sans-Serif" font-size="10.00">TGeoCompositeShape.h</text>
</g>
<!-- Node1&#45;&gt;Node24 -->
<g id="edge27" class="edge"><title>Node1&#45;&gt;Node24</title>
<path fill="none" stroke="midnightblue" d="M1374.14,-168.768C1382.05,-159.083 1390.88,-148.281 1397.96,-139.605"/>
<polygon fill="midnightblue" stroke="midnightblue" points="1400.76,-141.716 1404.37,-131.757 1395.34,-137.287 1400.76,-141.716"/>
</g>
<!-- Node25 -->
<g id="node25" class="node"><title>Node25</title>
<polygon fill="none" stroke="#bfbfbf" points="1491.53,-112.5 1491.53,-131.5 1577.53,-131.5 1577.53,-112.5 1491.53,-112.5"/>
<text text-anchor="middle" x="1534.53" y="-119.5" font-family="Helvetica,sans-Serif" font-size="10.00">TGeoManager.h</text>
</g>
<!-- Node1&#45;&gt;Node25 -->
<g id="edge28" class="edge"><title>Node1&#45;&gt;Node25</title>
<path fill="none" stroke="midnightblue" d="M1412.79,-170.752C1442.88,-158.951 1478.21,-145.091 1503.04,-135.352"/>
<polygon fill="midnightblue" stroke="midnightblue" points="1504.63,-138.488 1512.66,-131.578 1502.07,-131.971 1504.63,-138.488"/>
</g>
<!-- Node26 -->
<g id="node26" class="node"><title>Node26</title>
<polygon fill="none" stroke="#bfbfbf" points="1595.53,-112.5 1595.53,-131.5 1671.53,-131.5 1671.53,-112.5 1595.53,-112.5"/>
<text text-anchor="middle" x="1633.53" y="-119.5" font-family="Helvetica,sans-Serif" font-size="10.00">TGeoMatrix.h</text>
</g>
<!-- Node1&#45;&gt;Node26 -->
<g id="edge29" class="edge"><title>Node1&#45;&gt;Node26</title>
<path fill="none" stroke="midnightblue" d="M1412.57,-179.029C1465.59,-165.583 1542.23,-146.151 1589.9,-134.063"/>
<polygon fill="midnightblue" stroke="midnightblue" points="1590.78,-137.45 1599.62,-131.599 1589.06,-130.665 1590.78,-137.45"/>
</g>
<!-- Node27 -->
<g id="node27" class="node"><title>Node27</title>
<polygon fill="none" stroke="#bfbfbf" points="1689.53,-112.5 1689.53,-131.5 1757.53,-131.5 1757.53,-112.5 1689.53,-112.5"/>
<text text-anchor="middle" x="1723.53" y="-119.5" font-family="Helvetica,sans-Serif" font-size="10.00">TGeoTrd1.h</text>
</g>
<!-- Node1&#45;&gt;Node27 -->
<g id="edge30" class="edge"><title>Node1&#45;&gt;Node27</title>
<path fill="none" stroke="midnightblue" d="M1412.67,-183.136C1476.1,-171.404 1580.06,-151.951 1679.37,-132.204"/>
<polygon fill="midnightblue" stroke="midnightblue" points="1680.15,-135.618 1689.27,-130.231 1678.78,-128.753 1680.15,-135.618"/>
</g>
<!-- Node28 -->
<g id="node28" class="node"><title>Node28</title>
<polygon fill="none" stroke="#bfbfbf" points="1776.03,-112.5 1776.03,-131.5 1847.03,-131.5 1847.03,-112.5 1776.03,-112.5"/>
<text text-anchor="middle" x="1811.53" y="-119.5" font-family="Helvetica,sans-Serif" font-size="10.00">TGeoTube.h</text>
</g>
<!-- Node1&#45;&gt;Node28 -->
<g id="edge31" class="edge"><title>Node1&#45;&gt;Node28</title>
<path fill="none" stroke="midnightblue" d="M1412.83,-186.016C1491.22,-175.259 1633.83,-154.981 1765.81,-132.055"/>
<polygon fill="midnightblue" stroke="midnightblue" points="1766.45,-135.497 1775.7,-130.329 1765.24,-128.601 1766.45,-135.497"/>
</g>
<!-- Node29 -->
<g id="node29" class="node"><title>Node29</title>
<polygon fill="none" stroke="#bfbfbf" points="1865.53,-112.5 1865.53,-131.5 1947.53,-131.5 1947.53,-112.5 1865.53,-112.5"/>
<text text-anchor="middle" x="1906.53" y="-119.5" font-family="Helvetica,sans-Serif" font-size="10.00">TGeoVolume.h</text>
</g>
<!-- Node1&#45;&gt;Node29 -->
<g id="edge32" class="edge"><title>Node1&#45;&gt;Node29</title>
<path fill="none" stroke="midnightblue" d="M1412.78,-187.688C1504.99,-177.643 1688.6,-156.755 1855.41,-131.941"/>
<polygon fill="midnightblue" stroke="midnightblue" points="1855.99,-135.394 1865.36,-130.453 1854.95,-128.471 1855.99,-135.394"/>
</g>
<!-- Node3 -->
<g id="node3" class="node"><title>Node3</title>
<polygon fill="none" stroke="#bfbfbf" points="912.028,-0.5 912.028,-19.5 947.028,-19.5 947.028,-0.5 912.028,-0.5"/>
<text text-anchor="middle" x="929.528" y="-7.5" font-family="Helvetica,sans-Serif" font-size="10.00">map</text>
</g>
<!-- Node2&#45;&gt;Node3 -->
<g id="edge2" class="edge"><title>Node2&#45;&gt;Node3</title>
<path fill="none" stroke="midnightblue" d="M685.397,-112.392C685.682,-98.3937 688.408,-70.776 704.528,-56 733.101,-29.8107 848.241,-17.435 901.834,-13.0048"/>
<polygon fill="midnightblue" stroke="midnightblue" points="902.293,-16.4795 911.985,-12.2004 901.74,-9.50132 902.293,-16.4795"/>
</g>
<!-- Node4 -->
<g id="node4" class="node"><title>Node4</title>
<polygon fill="none" stroke="#bfbfbf" points="713.528,-56.5 713.528,-75.5 757.528,-75.5 757.528,-56.5 713.528,-56.5"/>
<text text-anchor="middle" x="735.528" y="-63.5" font-family="Helvetica,sans-Serif" font-size="10.00">vector</text>
</g>
<!-- Node2&#45;&gt;Node4 -->
<g id="edge3" class="edge"><title>Node2&#45;&gt;Node4</title>
<path fill="none" stroke="midnightblue" d="M693.785,-112.083C700.993,-104.298 711.638,-92.8015 720.374,-83.3665"/>
<polygon fill="midnightblue" stroke="midnightblue" points="723.2,-85.4666 727.425,-75.7511 718.063,-80.7108 723.2,-85.4666"/>
</g>
<!-- Node2&#45;&gt;Node5 -->
<g id="edge4" class="edge"><title>Node2&#45;&gt;Node5</title>
<path fill="none" stroke="midnightblue" d="M682.547,-112.368C676.386,-94.5366 662.139,-53.2953 653.84,-29.2717"/>
<polygon fill="midnightblue" stroke="midnightblue" points="657.07,-27.9005 650.496,-19.5914 650.453,-30.1862 657.07,-27.9005"/>
</g>
<!-- Node6 -->
<g id="node6" class="node"><title>Node6</title>
<polygon fill="none" stroke="#bfbfbf" points="775.528,-56.5 775.528,-75.5 827.528,-75.5 827.528,-56.5 775.528,-56.5"/>
<text text-anchor="middle" x="801.528" y="-63.5" font-family="Helvetica,sans-Serif" font-size="10.00">memory</text>
</g>
<!-- Node2&#45;&gt;Node6 -->
<g id="edge5" class="edge"><title>Node2&#45;&gt;Node6</title>
<path fill="none" stroke="midnightblue" d="M703.909,-112.444C722.745,-103.675 752.26,-89.9355 773.908,-79.8579"/>
<polygon fill="midnightblue" stroke="midnightblue" points="775.645,-82.9098 783.234,-75.5164 772.691,-76.5637 775.645,-82.9098"/>
</g>
<!-- Node7 -->
<g id="node7" class="node"><title>Node7</title>
<polygon fill="none" stroke="#bfbfbf" points="846.028,-56.5 846.028,-75.5 925.028,-75.5 925.028,-56.5 846.028,-56.5"/>
<text text-anchor="middle" x="885.528" y="-63.5" font-family="Helvetica,sans-Serif" font-size="10.00">FairDetector.h</text>
</g>
<!-- Node2&#45;&gt;Node7 -->
<g id="edge6" class="edge"><title>Node2&#45;&gt;Node7</title>
<path fill="none" stroke="midnightblue" d="M717.219,-112.444C751.596,-103.162 806.605,-88.3093 844.317,-78.127"/>
<polygon fill="midnightblue" stroke="midnightblue" points="845.244,-81.5022 853.986,-75.5164 843.419,-74.7442 845.244,-81.5022"/>
</g>
<!-- Node8 -->
<g id="node8" class="node"><title>Node8</title>
<polygon fill="none" stroke="#bfbfbf" points="943.528,-56.5 943.528,-75.5 1043.53,-75.5 1043.53,-56.5 943.528,-56.5"/>
<text text-anchor="middle" x="993.528" y="-63.5" font-family="Helvetica,sans-Serif" font-size="10.00">FairRootManager.h</text>
</g>
<!-- Node2&#45;&gt;Node8 -->
<g id="edge7" class="edge"><title>Node2&#45;&gt;Node8</title>
<path fill="none" stroke="midnightblue" d="M734.332,-112.444C788.738,-102.905 876.697,-87.4834 934.82,-77.293"/>
<polygon fill="midnightblue" stroke="midnightblue" points="935.708,-80.6908 944.953,-75.5164 934.499,-73.796 935.708,-80.6908"/>
</g>
<!-- Node2&#45;&gt;Node9 -->
<g id="edge8" class="edge"><title>Node2&#45;&gt;Node9</title>
<path fill="none" stroke="midnightblue" d="M751.048,-114.324C844.417,-104.811 1016.21,-87.3083 1122.66,-76.4617"/>
<polygon fill="midnightblue" stroke="midnightblue" points="1123.16,-79.929 1132.76,-75.4333 1122.45,-72.9651 1123.16,-79.929"/>
</g>
<!-- Node10 -->
<g id="node10" class="node"><title>Node10</title>
<polygon fill="none" stroke="#bfbfbf" points="1286.53,-0.5 1286.53,-19.5 1342.53,-19.5 1342.53,-0.5 1286.53,-0.5"/>
<text text-anchor="middle" x="1314.53" y="-7.5" font-family="Helvetica,sans-Serif" font-size="10.00">Rtypes.h</text>
</g>
<!-- Node2&#45;&gt;Node10 -->
<g id="edge13" class="edge"><title>Node2&#45;&gt;Node10</title>
<path fill="none" stroke="midnightblue" d="M751.228,-118.466C906.881,-112.165 1286.63,-94.9265 1306.53,-76 1318.74,-64.386 1319.49,-44.4314 1317.96,-29.6875"/>
<polygon fill="midnightblue" stroke="midnightblue" points="1321.4,-29.043 1316.5,-19.6529 1314.48,-30.0534 1321.4,-29.043"/>
</g>
<!-- Node12 -->
<g id="node12" class="node"><title>Node12</title>
<polygon fill="none" stroke="#bfbfbf" points="1062.03,-56.5 1062.03,-75.5 1115.03,-75.5 1115.03,-56.5 1062.03,-56.5"/>
<text text-anchor="middle" x="1088.53" y="-63.5" font-family="Helvetica,sans-Serif" font-size="10.00">cxxabi.h</text>
</g>
<!-- Node2&#45;&gt;Node12 -->
<g id="edge14" class="edge"><title>Node2&#45;&gt;Node12</title>
<path fill="none" stroke="midnightblue" d="M751.2,-115.404C822.76,-108.753 940.751,-96.1785 1051.83,-75.9084"/>
<polygon fill="midnightblue" stroke="midnightblue" points="1052.68,-79.3123 1061.87,-74.052 1051.4,-72.429 1052.68,-79.3123"/>
</g>
<!-- Node13 -->
<g id="node13" class="node"><title>Node13</title>
<polygon fill="none" stroke="#bfbfbf" points="14.0283,-56.5 14.0283,-75.5 65.0283,-75.5 65.0283,-56.5 14.0283,-56.5"/>
<text text-anchor="middle" x="39.5283" y="-63.5" font-family="Helvetica,sans-Serif" font-size="10.00">typeinfo</text>
</g>
<!-- Node2&#45;&gt;Node13 -->
<g id="edge15" class="edge"><title>Node2&#45;&gt;Node13</title>
<path fill="none" stroke="midnightblue" d="M619.972,-119.993C509.424,-117.459 278.912,-108.578 75.0261,-75.7499"/>
<polygon fill="midnightblue" stroke="midnightblue" points="75.4643,-72.2751 65.0309,-74.1176 74.3361,-79.1836 75.4643,-72.2751"/>
</g>
<!-- Node14 -->
<g id="node14" class="node"><title>Node14</title>
<polygon fill="none" stroke="#bfbfbf" points="83.5283,-56.5 83.5283,-75.5 145.528,-75.5 145.528,-56.5 83.5283,-56.5"/>
<text text-anchor="middle" x="114.528" y="-63.5" font-family="Helvetica,sans-Serif" font-size="10.00">type_traits</text>
</g>
<!-- Node2&#45;&gt;Node14 -->
<g id="edge16" class="edge"><title>Node2&#45;&gt;Node14</title>
<path fill="none" stroke="midnightblue" d="M619.789,-118.323C521.04,-113.664 328.458,-102.102 155.919,-76.0187"/>
<polygon fill="midnightblue" stroke="midnightblue" points="156.309,-72.5376 145.894,-74.4832 155.249,-79.4569 156.309,-72.5376"/>
</g>
<!-- Node15 -->
<g id="node15" class="node"><title>Node15</title>
<polygon fill="none" stroke="#bfbfbf" points="164.028,-56.5 164.028,-75.5 205.028,-75.5 205.028,-56.5 164.028,-56.5"/>
<text text-anchor="middle" x="184.528" y="-63.5" font-family="Helvetica,sans-Serif" font-size="10.00">string</text>
</g>
<!-- Node2&#45;&gt;Node15 -->
<g id="edge17" class="edge"><title>Node2&#45;&gt;Node15</title>
<path fill="none" stroke="midnightblue" d="M620.013,-119.008C530.358,-115.343 364.449,-105.208 215.541,-76.0499"/>
<polygon fill="midnightblue" stroke="midnightblue" points="215.796,-72.5319 205.305,-74.0097 214.428,-79.3969 215.796,-72.5319"/>
</g>
<!-- Node16 -->
<g id="node16" class="node"><title>Node16</title>
<polygon fill="none" stroke="#bfbfbf" points="223.028,-56.5 223.028,-75.5 316.028,-75.5 316.028,-56.5 223.028,-56.5"/>
<text text-anchor="middle" x="269.528" y="-63.5" font-family="Helvetica,sans-Serif" font-size="10.00">FairMQChannel.h</text>
</g>
<!-- Node2&#45;&gt;Node16 -->
<g id="edge18" class="edge"><title>Node2&#45;&gt;Node16</title>
<path fill="none" stroke="midnightblue" d="M619.883,-113.58C549.654,-105.47 434.737,-91.705 326.439,-76.2348"/>
<polygon fill="midnightblue" stroke="midnightblue" points="326.713,-72.7384 316.317,-74.7811 325.718,-79.6673 326.713,-72.7384"/>
</g>
<!-- Node17 -->
<g id="node17" class="node"><title>Node17</title>
<polygon fill="none" stroke="#bfbfbf" points="334.028,-56.5 334.028,-75.5 431.028,-75.5 431.028,-56.5 334.028,-56.5"/>
<text text-anchor="middle" x="382.528" y="-63.5" font-family="Helvetica,sans-Serif" font-size="10.00">FairMQMessage.h</text>
</g>
<!-- Node2&#45;&gt;Node17 -->
<g id="edge19" class="edge"><title>Node2&#45;&gt;Node17</title>
<path fill="none" stroke="midnightblue" d="M637.517,-112.444C583.995,-102.905 497.463,-87.4834 440.283,-77.293"/>
<polygon fill="midnightblue" stroke="midnightblue" points="440.774,-73.8253 430.315,-75.5164 439.546,-80.7168 440.774,-73.8253"/>
</g>
<!-- Node18 -->
<g id="node18" class="node"><title>Node18</title>
<polygon fill="none" stroke="#bfbfbf" points="449.528,-56.5 449.528,-75.5 529.528,-75.5 529.528,-56.5 449.528,-56.5"/>
<text text-anchor="middle" x="489.528" y="-63.5" font-family="Helvetica,sans-Serif" font-size="10.00">FairMQParts.h</text>
</g>
<!-- Node2&#45;&gt;Node18 -->
<g id="edge20" class="edge"><title>Node2&#45;&gt;Node18</title>
<path fill="none" stroke="midnightblue" d="M654.472,-112.444C620.925,-103.201 567.331,-88.4356 530.388,-78.2572"/>
<polygon fill="midnightblue" stroke="midnightblue" points="531.01,-74.7984 520.44,-75.5164 529.151,-81.5469 531.01,-74.7984"/>
</g>
<!-- Node19 -->
<g id="node19" class="node"><title>Node19</title>
<polygon fill="none" stroke="#bfbfbf" points="548.028,-56.5 548.028,-75.5 619.028,-75.5 619.028,-56.5 548.028,-56.5"/>
<text text-anchor="middle" x="583.528" y="-63.5" font-family="Helvetica,sans-Serif" font-size="10.00">TMessage.h</text>
</g>
<!-- Node2&#45;&gt;Node19 -->
<g id="edge21" class="edge"><title>Node2&#45;&gt;Node19</title>
<path fill="none" stroke="midnightblue" d="M669.14,-112.324C652.857,-103.703 627.661,-90.3643 608.812,-80.3855"/>
<polygon fill="midnightblue" stroke="midnightblue" points="610.351,-77.2402 599.876,-75.6545 607.076,-83.4267 610.351,-77.2402"/>
</g>
<!-- Node9&#45;&gt;Node3 -->
<g id="edge10" class="edge"><title>Node9&#45;&gt;Node3</title>
<path fill="none" stroke="midnightblue" d="M1170.21,-56.4435C1110.34,-45.1393 1006.71,-25.573 957.295,-16.2426"/>
<polygon fill="midnightblue" stroke="midnightblue" points="957.807,-12.7775 947.331,-14.3614 956.508,-19.656 957.807,-12.7775"/>
</g>
<!-- Node9&#45;&gt;Node5 -->
<g id="edge12" class="edge"><title>Node9&#45;&gt;Node5</title>
<path fill="none" stroke="midnightblue" d="M1132.78,-56.892C1129.65,-56.5901 1126.56,-56.2919 1123.53,-56 966.281,-40.8757 779.768,-23.369 694.405,-15.3806"/>
<polygon fill="midnightblue" stroke="midnightblue" points="694.544,-11.8783 684.261,-14.4315 693.892,-18.8479 694.544,-11.8783"/>
</g>
<!-- Node9&#45;&gt;Node10 -->
<g id="edge9" class="edge"><title>Node9&#45;&gt;Node10</title>
<path fill="none" stroke="midnightblue" d="M1231.43,-56.324C1247.17,-47.7428 1271.47,-34.486 1289.74,-24.5224"/>
<polygon fill="midnightblue" stroke="midnightblue" points="1291.56,-27.5157 1298.66,-19.6545 1288.21,-21.3704 1291.56,-27.5157"/>
</g>
<!-- Node11 -->
<g id="node11" class="node"><title>Node11</title>
<polygon fill="none" stroke="#bfbfbf" points="1174.03,-0.5 1174.03,-19.5 1257.03,-19.5 1257.03,-0.5 1174.03,-0.5"/>
<text text-anchor="middle" x="1215.53" y="-7.5" font-family="Helvetica,sans-Serif" font-size="10.00">unordered_map</text>
</g>
<!-- Node9&#45;&gt;Node11 -->
<g id="edge11" class="edge"><title>Node9&#45;&gt;Node11</title>
<path fill="none" stroke="midnightblue" d="M1215.53,-56.083C1215.53,-49.0059 1215.53,-38.8611 1215.53,-29.9865"/>
<polygon fill="midnightblue" stroke="midnightblue" points="1219.03,-29.751 1215.53,-19.7511 1212.03,-29.7511 1219.03,-29.751"/>
</g>
<!-- Node21 -->
<g id="node21" class="node"><title>Node21</title>
<polygon fill="none" stroke="#bfbfbf" points="1355.03,-56.5 1355.03,-75.5 1428.03,-75.5 1428.03,-56.5 1355.03,-56.5"/>
<text text-anchor="middle" x="1391.53" y="-63.5" font-family="Helvetica,sans-Serif" font-size="10.00">FairModule.h</text>
</g>
<!-- Node20&#45;&gt;Node21 -->
<g id="edge24" class="edge"><title>Node20&#45;&gt;Node21</title>
<path fill="none" stroke="midnightblue" d="M1135.7,-112.444C1192.91,-102.281 1287.72,-85.4399 1344.45,-75.3628"/>
<polygon fill="midnightblue" stroke="midnightblue" points="1345.35,-78.7581 1354.58,-73.5631 1344.12,-71.866 1345.35,-78.7581"/>
</g>
</g>
</svg>
        <g id="navigator" transform="translate(0 0)" fill="#404254">
                <rect fill="#f2f5e9" fill-opacity="0.5" stroke="#606060" stroke-width=".5" x="0" y="0" width="60" height="60"/>
                <use id="zoomplus" xlink:href="#zoomPlus" x="17" y="9" onmousedown="handleZoom(evt,'in')"/>
                <use id="zoomminus" xlink:href="#zoomMin" x="42" y="9" onmousedown="handleZoom(evt,'out')"/>
                <use id="reset" xlink:href="#resetDef" x="30" y="36" onmousedown="handleReset()"/>
                <g id="arrowUp" xlink:href="#dirArrow" transform="translate(30 24)" onmousedown="handlePan(0,-1)">
                  <use xlink:href="#rim" fill="#404040">
                        <set attributeName="fill" to="#808080" begin="arrowUp.mouseover" end="arrowUp.mouseout"/>
                  </use>
                  <path fill="none" stroke="white" stroke-width="1.5" d="M0,-3.0v7 M-2.5,-0.5L0,-3.0L2.5,-0.5"/>
                </g>
                <g id="arrowRight" xlink:href="#dirArrow" transform="rotate(90) translate(36 -43)" onmousedown="handlePan(1,0)">
                  <use xlink:href="#rim" fill="#404040">
                        <set attributeName="fill" to="#808080" begin="arrowRight.mouseover" end="arrowRight.mouseout"/>
                  </use>
                  <path fill="none" stroke="white" stroke-width="1.5" d="M0,-3.0v7 M-2.5,-0.5L0,-3.0L2.5,-0.5"/>
                </g>
                <g id="arrowDown" xlink:href="#dirArrow" transform="rotate(180) translate(-30 -48)" onmousedown="handlePan(0,1)">
                  <use xlink:href="#rim" fill="#404040">
                        <set attributeName="fill" to="#808080" begin="arrowDown.mouseover" end="arrowDown.mouseout"/>
                  </use>
                  <path fill="none" stroke="white" stroke-width="1.5" d="M0,-3.0v7 M-2.5,-0.5L0,-3.0L2.5,-0.5"/>
                </g>
                <g id="arrowLeft" xlink:href="#dirArrow" transform="rotate(270) translate(-36 17)" onmousedown="handlePan(-1,0)">
                  <use xlink:href="#rim" fill="#404040">
                        <set attributeName="fill" to="#808080" begin="arrowLeft.mouseover" end="arrowLeft.mouseout"/>
                  </use>
                  <path fill="none" stroke="white" stroke-width="1.5" d="M0,-3.0v7 M-2.5,-0.5L0,-3.0L2.5,-0.5"/>
                </g>
        </g>
        <svg viewBox="0 0 15 15" width="100%" height="30px" preserveAspectRatio="xMaxYMin meet">
         <g id="arrow_out" transform="scale(0.3 0.3)">
          <a xlink:href="Hall_8cxx__incl_org.svg" target="_base">
           <rect id="button" ry="5" rx="5" y="6" x="6" height="38" width="38"
                fill="#f2f5e9" fill-opacity="0.5" stroke="#606060" stroke-width="1.0"/>
           <path id="arrow"
             d="M 11.500037,31.436501 C 11.940474,20.09759 22.043105,11.32322 32.158766,21.979434 L 37.068811,17.246167 C 37.068811,17.246167 37.088388,32 37.088388,32 L 22.160133,31.978069 C 22.160133,31.978069 26.997745,27.140456 26.997745,27.140456 C 18.528582,18.264221 13.291696,25.230495 11.500037,31.436501 z"
             style="fill:#404040;"/>
          </a>
         </g>
        </svg>
</svg>
