<?xml version="1.0" encoding="UTF-8" standalone="no"?>
<!DOCTYPE svg PUBLIC "-//W3C//DTD SVG 1.1//EN"
 "http://www.w3.org/Graphics/SVG/1.1/DTD/svg11.dtd">
<!-- Generated by graphviz version 2.36.0 (20140111.2315)
 -->
<!-- Title: o2::framework::InputRoute Pages: 1 -->
<svg width="661pt" height="312pt"
 viewBox="0.00 0.00 661.00 312.00" xmlns="http://www.w3.org/2000/svg" xmlns:xlink="http://www.w3.org/1999/xlink">
<g id="graph0" class="graph" transform="scale(1 1) rotate(0) translate(4 308)">
<title>o2::framework::InputRoute</title>
<!-- Node1 -->
<g id="node1" class="node"><title>Node1</title>
<polygon fill="#bfbfbf" stroke="black" points="176.5,-0.5 176.5,-57.5 309.5,-57.5 309.5,-0.5 176.5,-0.5"/>
<text text-anchor="middle" x="243" y="-45.5" font-family="Helvetica,sans-Serif" font-size="10.00">o2::framework::InputRoute</text>
<polyline fill="none" stroke="black" points="176.5,-38.5 309.5,-38.5 "/>
<text text-anchor="middle" x="243" y="-26.5" font-family="Helvetica,sans-Serif" font-size="10.00"> </text>
<polyline fill="none" stroke="black" points="176.5,-19.5 309.5,-19.5 "/>
<text text-anchor="middle" x="243" y="-7.5" font-family="Helvetica,sans-Serif" font-size="10.00"> </text>
</g>
<!-- Node2 -->
<g id="node2" class="node"><title>Node2</title>
<polygon fill="none" stroke="#bfbfbf" points="-0.5,-117.5 -0.5,-174.5 42.5,-174.5 42.5,-117.5 -0.5,-117.5"/>
<text text-anchor="middle" x="21" y="-162.5" font-family="Helvetica,sans-Serif" font-size="10.00">size_t</text>
<polyline fill="none" stroke="#bfbfbf" points="-0.5,-155.5 42.5,-155.5 "/>
<text text-anchor="middle" x="21" y="-143.5" font-family="Helvetica,sans-Serif" font-size="10.00"> </text>
<polyline fill="none" stroke="#bfbfbf" points="-0.5,-136.5 42.5,-136.5 "/>
<text text-anchor="middle" x="21" y="-124.5" font-family="Helvetica,sans-Serif" font-size="10.00"> </text>
</g>
<!-- Node2&#45;&gt;Node1 -->
<g id="edge1" class="edge"><title>Node2&#45;&gt;Node1</title>
<path fill="none" stroke="#404040" d="M13.8875,-117.341C12.0326,-103.471 12.6959,-87.2723 22,-76 40.0415,-54.1421 108.242,-42.2993 164.165,-36.1322"/>
<polygon fill="none" stroke="#404040" points="164.317,-36.1163 169.867,-31.5122 176.252,-34.8646 170.702,-39.4686 164.317,-36.1163"/>
<text text-anchor="middle" x="46.5" y="-79.5" font-family="Helvetica,sans-Serif" font-size="10.00"> +timeslice</text>
</g>
<!-- Node3 -->
<g id="node3" class="node"><title>Node3</title>
<polygon fill="none" stroke="#bfbfbf" points="70.5,-240.5 70.5,-297.5 99.5,-297.5 99.5,-240.5 70.5,-240.5"/>
<text text-anchor="middle" x="85" y="-285.5" font-family="Helvetica,sans-Serif" font-size="10.00">int</text>
<polyline fill="none" stroke="#bfbfbf" points="70.5,-278.5 99.5,-278.5 "/>
<text text-anchor="middle" x="85" y="-266.5" font-family="Helvetica,sans-Serif" font-size="10.00"> </text>
<polyline fill="none" stroke="#bfbfbf" points="70.5,-259.5 99.5,-259.5 "/>
<text text-anchor="middle" x="85" y="-247.5" font-family="Helvetica,sans-Serif" font-size="10.00"> </text>
</g>
<!-- Node3&#45;&gt;Node1 -->
<g id="edge2" class="edge"><title>Node3&#45;&gt;Node1</title>
<path fill="none" stroke="#404040" d="M78.7302,-240.233C72.5843,-205.771 67.5575,-146.597 94,-106 110.506,-80.6576 138.244,-63.3564 165.342,-51.7481"/>
<polygon fill="none" stroke="#404040" points="165.343,-51.7479 169.416,-45.7971 176.475,-47.268 172.402,-53.2188 165.343,-51.7479"/>
<text text-anchor="middle" x="131.5" y="-143.5" font-family="Helvetica,sans-Serif" font-size="10.00"> +sourceChannel</text>
</g>
<!-- Node4 -->
<g id="node4" class="node"><title>Node4</title>
<g id="a_node4"><a xlink:href="../../da/d96/structo2_1_1framework_1_1InputSpec.html" target="_top" xlink:title="{o2::framework::InputSpec\n||}">
<polygon fill="none" stroke="black" points="178.5,-117.5 178.5,-174.5 307.5,-174.5 307.5,-117.5 178.5,-117.5"/>
<text text-anchor="middle" x="243" y="-162.5" font-family="Helvetica,sans-Serif" font-size="10.00">o2::framework::InputSpec</text>
<polyline fill="none" stroke="black" points="178.5,-155.5 307.5,-155.5 "/>
<text text-anchor="middle" x="243" y="-143.5" font-family="Helvetica,sans-Serif" font-size="10.00"> </text>
<polyline fill="none" stroke="black" points="178.5,-136.5 307.5,-136.5 "/>
<text text-anchor="middle" x="243" y="-124.5" font-family="Helvetica,sans-Serif" font-size="10.00"> </text>
</a>
</g>
</g>
<!-- Node3&#45;&gt;Node4 -->
<g id="edge8" class="edge"><title>Node3&#45;&gt;Node4</title>
<path fill="none" stroke="#404040" d="M99.7573,-244.304C102.344,-240.723 105.131,-237.171 108,-234 127.061,-212.932 152.335,-194.852 175.858,-180.719"/>
<polygon fill="none" stroke="#404040" points="176.146,-180.551 179.315,-174.073 186.513,-174.507 183.345,-180.985 176.146,-180.551"/>
<text text-anchor="middle" x="161" y="-207.5" font-family="Helvetica,sans-Serif" font-size="10.00"> +binding</text>
</g>
<!-- Node4&#45;&gt;Node1 -->
<g id="edge3" class="edge"><title>Node4&#45;&gt;Node1</title>
<path fill="none" stroke="#404040" d="M243,-117.455C243,-103.193 243,-85.5206 243,-69.8029"/>
<polygon fill="none" stroke="#404040" points="243,-69.7192 239,-63.7192 243,-57.7192 247,-63.7191 243,-69.7192"/>
<text text-anchor="middle" x="265.5" y="-79.5" font-family="Helvetica,sans-Serif" font-size="10.00"> +matcher</text>
</g>
<!-- Node5 -->
<g id="node5" class="node"><title>Node5</title>
<polygon fill="none" stroke="#bfbfbf" points="117.5,-240.5 117.5,-297.5 168.5,-297.5 168.5,-240.5 117.5,-240.5"/>
<text text-anchor="middle" x="143" y="-285.5" font-family="Helvetica,sans-Serif" font-size="10.00">uint64_t</text>
<polyline fill="none" stroke="#bfbfbf" points="117.5,-278.5 168.5,-278.5 "/>
<text text-anchor="middle" x="143" y="-266.5" font-family="Helvetica,sans-Serif" font-size="10.00"> </text>
<polyline fill="none" stroke="#bfbfbf" points="117.5,-259.5 168.5,-259.5 "/>
<text text-anchor="middle" x="143" y="-247.5" font-family="Helvetica,sans-Serif" font-size="10.00"> </text>
</g>
<!-- Node5&#45;&gt;Node4 -->
<g id="edge4" class="edge"><title>Node5&#45;&gt;Node4</title>
<path fill="none" stroke="#404040" d="M165.942,-240.24C179.662,-223.639 197.272,-202.331 212.193,-184.276"/>
<polygon fill="none" stroke="#404040" points="212.52,-183.881 213.259,-176.707 220.165,-174.631 219.426,-181.804 212.52,-183.881"/>
<text text-anchor="middle" x="217" y="-207.5" font-family="Helvetica,sans-Serif" font-size="10.00"> +subSpec</text>
</g>
<!-- Node6 -->
<g id="node6" class="node"><title>Node6</title>
<polygon fill="none" stroke="#bfbfbf" points="187,-235 187,-303 329,-303 329,-235 187,-235"/>
<text text-anchor="start" x="195" y="-291" font-family="Helvetica,sans-Serif" font-size="10.00">Descriptor&lt; gSizeDataOrigin</text>
<text text-anchor="middle" x="258" y="-280" font-family="Helvetica,sans-Serif" font-size="10.00">String, printDataOrigin &gt;</text>
<polyline fill="none" stroke="#bfbfbf" points="187,-273 329,-273 "/>
<text text-anchor="middle" x="258" y="-261" font-family="Helvetica,sans-Serif" font-size="10.00"> </text>
<polyline fill="none" stroke="#bfbfbf" points="187,-254 329,-254 "/>
<text text-anchor="middle" x="258" y="-242" font-family="Helvetica,sans-Serif" font-size="10.00"> </text>
</g>
<!-- Node6&#45;&gt;Node4 -->
<g id="edge5" class="edge"><title>Node6&#45;&gt;Node4</title>
<path fill="none" stroke="#404040" d="M253.901,-234.936C252.053,-220.029 249.856,-202.302 247.919,-186.683"/>
<polygon fill="none" stroke="#404040" points="247.911,-186.612 243.203,-181.149 246.434,-174.703 251.142,-180.165 247.911,-186.612"/>
<text text-anchor="middle" x="268.5" y="-207.5" font-family="Helvetica,sans-Serif" font-size="10.00"> +origin</text>
</g>
<!-- Node7 -->
<g id="node7" class="node"><title>Node7</title>
<polygon fill="none" stroke="#bfbfbf" points="347,-240.5 347,-297.5 425,-297.5 425,-240.5 347,-240.5"/>
<text text-anchor="middle" x="386" y="-285.5" font-family="Helvetica,sans-Serif" font-size="10.00">enum Lifetime</text>
<polyline fill="none" stroke="#bfbfbf" points="347,-278.5 425,-278.5 "/>
<text text-anchor="middle" x="386" y="-266.5" font-family="Helvetica,sans-Serif" font-size="10.00"> </text>
<polyline fill="none" stroke="#bfbfbf" points="347,-259.5 425,-259.5 "/>
<text text-anchor="middle" x="386" y="-247.5" font-family="Helvetica,sans-Serif" font-size="10.00"> </text>
</g>
<!-- Node7&#45;&gt;Node4 -->
<g id="edge6" class="edge"><title>Node7&#45;&gt;Node4</title>
<path fill="none" stroke="#404040" d="M353.193,-240.24C332.937,-223.101 306.753,-200.945 284.991,-182.531"/>
<polygon fill="none" stroke="#404040" points="284.815,-182.382 277.651,-181.56 275.654,-174.631 282.819,-175.453 284.815,-182.382"/>
<text text-anchor="middle" x="344.5" y="-207.5" font-family="Helvetica,sans-Serif" font-size="10.00"> +lifetime</text>
</g>
<!-- Node8 -->
<g id="node8" class="node"><title>Node8</title>
<polygon fill="none" stroke="#bfbfbf" points="443,-235 443,-303 609,-303 609,-235 443,-235"/>
<text text-anchor="start" x="451" y="-291" font-family="Helvetica,sans-Serif" font-size="10.00">Descriptor&lt; gSizeDataDescription</text>
<text text-anchor="middle" x="526" y="-280" font-family="Helvetica,sans-Serif" font-size="10.00">String, printDataDescription &gt;</text>
<polyline fill="none" stroke="#bfbfbf" points="443,-273 609,-273 "/>
<text text-anchor="middle" x="526" y="-261" font-family="Helvetica,sans-Serif" font-size="10.00"> </text>
<polyline fill="none" stroke="#bfbfbf" points="443,-254 609,-254 "/>
<text text-anchor="middle" x="526" y="-242" font-family="Helvetica,sans-Serif" font-size="10.00"> </text>
</g>
<!-- Node8&#45;&gt;Node4 -->
<g id="edge7" class="edge"><title>Node8&#45;&gt;Node4</title>
<path fill="none" stroke="#404040" d="M447.297,-234.844C422.378,-224.636 394.646,-213.572 369,-204 345.694,-195.301 338.825,-195.894 316,-186 311.674,-184.125 307.258,-182.09 302.846,-179.966"/>
<polygon fill="none" stroke="#404040" points="302.686,-179.887 295.533,-180.799 291.939,-174.547 299.093,-173.635 302.686,-179.887"/>
<text text-anchor="middle" x="428.5" y="-207.5" font-family="Helvetica,sans-Serif" font-size="10.00"> +description</text>
</g>
<!-- Node9 -->
<g id="node9" class="node"><title>Node9</title>
<polygon fill="none" stroke="#bfbfbf" points="325.5,-106.5 325.5,-185.5 478.5,-185.5 478.5,-106.5 325.5,-106.5"/>
<text text-anchor="start" x="333.5" y="-173.5" font-family="Helvetica,sans-Serif" font-size="10.00">function&lt; ExpirationHandler</text>
<text text-anchor="start" x="333.5" y="-162.5" font-family="Helvetica,sans-Serif" font-size="10.00">::Handler(ConfigParamRegistry</text>
<text text-anchor="middle" x="402" y="-151.5" font-family="Helvetica,sans-Serif" font-size="10.00"> const &amp;)&gt;</text>
<polyline fill="none" stroke="#bfbfbf" points="325.5,-144.5 478.5,-144.5 "/>
<text text-anchor="middle" x="402" y="-132.5" font-family="Helvetica,sans-Serif" font-size="10.00"> </text>
<polyline fill="none" stroke="#bfbfbf" points="325.5,-125.5 478.5,-125.5 "/>
<text text-anchor="middle" x="402" y="-113.5" font-family="Helvetica,sans-Serif" font-size="10.00"> </text>
</g>
<!-- Node9&#45;&gt;Node1 -->
<g id="edge9" class="edge"><title>Node9&#45;&gt;Node1</title>
<path fill="none" stroke="#404040" d="M348.613,-106.387C330.04,-92.9531 309.327,-77.9723 291.198,-64.8605"/>
<polygon fill="none" stroke="#404040" points="291.146,-64.8228 283.94,-64.5476 281.423,-57.7902 288.629,-58.0654 291.146,-64.8228"/>
<text text-anchor="middle" x="375.5" y="-79.5" font-family="Helvetica,sans-Serif" font-size="10.00"> +expirationConfigurator</text>
</g>
<!-- Node10 -->
<g id="node10" class="node"><title>Node10</title>
<polygon fill="none" stroke="#bfbfbf" points="497,-106.5 497,-185.5 653,-185.5 653,-106.5 497,-106.5"/>
<text text-anchor="start" x="505" y="-173.5" font-family="Helvetica,sans-Serif" font-size="10.00">function&lt; ExpirationHandler</text>
<text text-anchor="start" x="505" y="-162.5" font-family="Helvetica,sans-Serif" font-size="10.00">::Checker(ConfigParamRegistry</text>
<text text-anchor="middle" x="575" y="-151.5" font-family="Helvetica,sans-Serif" font-size="10.00"> const &amp;)&gt;</text>
<polyline fill="none" stroke="#bfbfbf" points="497,-144.5 653,-144.5 "/>
<text text-anchor="middle" x="575" y="-132.5" font-family="Helvetica,sans-Serif" font-size="10.00"> </text>
<polyline fill="none" stroke="#bfbfbf" points="497,-125.5 653,-125.5 "/>
<text text-anchor="middle" x="575" y="-113.5" font-family="Helvetica,sans-Serif" font-size="10.00"> </text>
</g>
<!-- Node10&#45;&gt;Node1 -->
<g id="edge10" class="edge"><title>Node10&#45;&gt;Node1</title>
<path fill="none" stroke="#404040" d="M502.423,-106.326C480.235,-95.5061 455.484,-84.417 432,-76 396.453,-63.2595 355.902,-52.8728 321.499,-45.2143"/>
<polygon fill="none" stroke="#404040" points="321.329,-45.1774 314.615,-47.8067 309.605,-42.6198 316.32,-39.9905 321.329,-45.1774"/>
<text text-anchor="middle" x="510.5" y="-79.5" font-family="Helvetica,sans-Serif" font-size="10.00"> +danglingConfigurator</text>
</g>
</g>
</svg>
