<?xml version="1.0" encoding="UTF-8" standalone="no"?>
<!DOCTYPE svg PUBLIC "-//W3C//DTD SVG 1.1//EN"
 "http://www.w3.org/Graphics/SVG/1.1/DTD/svg11.dtd">
<!-- Generated by graphviz version 2.36.0 (20140111.2315)
 -->
<!-- Title: /home/travis/build/AliceO2Group/AliceO2/Utilities/DataFlow/include/DataFlow/SubframeUtils.h Pages: 1 -->
<!--zoomable 298 -->
<svg id="main" version="1.1" xmlns="http://www.w3.org/2000/svg" xmlns:xlink="http://www.w3.org/1999/xlink" xml:space="preserve" onload="init(evt)">
<style type="text/css"><![CDATA[
.edge:hover path { stroke: red; }
.edge:hover polygon { stroke: red; fill: red; }
]]></style>
<script type="text/javascript"><![CDATA[
var edges = document.getElementsByTagName('g');
if (edges && edges.length) {
  for (var i=0;i<edges.length;i++) {
    if (edges[i].id.substr(0,4)=='edge') {
      edges[i].setAttribute('class','edge');
    }
  }
}
]]></script>
        <defs>
                <circle id="rim" cx="0" cy="0" r="7"/>
                <circle id="rim2" cx="0" cy="0" r="3.5"/>
                <g id="zoomPlus">
                        <use xlink:href="#rim" fill="#404040">
                                <set attributeName="fill" to="#808080" begin="zoomplus.mouseover" end="zoomplus.mouseout"/>
                        </use>
                        <path d="M-4,0h8M0,-4v8" fill="none" stroke="white" stroke-width="1.5" pointer-events="none"/>
                </g>
                <g id="zoomMin">
                        <use xlink:href="#rim" fill="#404040">
                                <set attributeName="fill" to="#808080" begin="zoomminus.mouseover" end="zoomminus.mouseout"/>
                        </use>
                        <path d="M-4,0h8" fill="none" stroke="white" stroke-width="1.5" pointer-events="none"/>
                </g>
                <g id="dirArrow">
                        <path fill="none" stroke="white" stroke-width="1.5" d="M0,-3.0v7 M-2.5,-0.5L0,-3.0L2.5,-0.5"/>
                </g>
               <g id="resetDef">
                       <use xlink:href="#rim2" fill="#404040">
                               <set attributeName="fill" to="#808080" begin="reset.mouseover" end="reset.mouseout"/>
                       </use>
               </g>
        </defs>

<script type="text/javascript">
var viewWidth = 1311;
var viewHeight = 298;
var sectionId = 'dynsection-0';
</script>
<script xlink:href="../../svgpan.js"/>
<svg id="graph" class="graph">
<g id="viewport">
<title>/home/travis/build/AliceO2Group/AliceO2/Utilities/DataFlow/include/DataFlow/SubframeUtils.h</title>
<!-- Node1 -->
<g id="node1" class="node"><title>Node1</title>
<polygon fill="#bfbfbf" stroke="black" points="1013.5,-237 1013.5,-289 1148.5,-289 1148.5,-237 1013.5,-237"/>
<text text-anchor="start" x="1021.5" y="-277" font-family="Helvetica,sans-Serif" font-size="10.00">/home/travis/build</text>
<text text-anchor="start" x="1021.5" y="-266" font-family="Helvetica,sans-Serif" font-size="10.00">/AliceO2Group/AliceO2</text>
<text text-anchor="start" x="1021.5" y="-255" font-family="Helvetica,sans-Serif" font-size="10.00">/Utilities/DataFlow/include</text>
<text text-anchor="middle" x="1081" y="-244" font-family="Helvetica,sans-Serif" font-size="10.00">/DataFlow/SubframeUtils.h</text>
</g>
<!-- Node2 -->
<g id="node2" class="node"><title>Node2</title>
<polygon fill="none" stroke="#bfbfbf" points="1000,-180.5 1000,-199.5 1038,-199.5 1038,-180.5 1000,-180.5"/>
<text text-anchor="middle" x="1019" y="-187.5" font-family="Helvetica,sans-Serif" font-size="10.00">tuple</text>
</g>
<!-- Node1&#45;&gt;Node2 -->
<g id="edge1" class="edge"><title>Node1&#45;&gt;Node2</title>
<path fill="none" stroke="midnightblue" d="M1058.97,-236.768C1050.42,-226.982 1040.88,-216.056 1033.26,-207.335"/>
<polygon fill="midnightblue" stroke="midnightblue" points="1035.86,-204.987 1026.65,-199.757 1030.59,-209.592 1035.86,-204.987"/>
</g>
<!-- Node3 -->
<g id="node3" class="node"><title>Node3</title>
<polygon fill="none" stroke="#bfbfbf" points="1056.5,-180.5 1056.5,-199.5 1105.5,-199.5 1105.5,-180.5 1056.5,-180.5"/>
<text text-anchor="middle" x="1081" y="-187.5" font-family="Helvetica,sans-Serif" font-size="10.00">cstddef</text>
</g>
<!-- Node1&#45;&gt;Node3 -->
<g id="edge2" class="edge"><title>Node1&#45;&gt;Node3</title>
<path fill="none" stroke="midnightblue" d="M1081,-236.768C1081,-227.89 1081,-218.074 1081,-209.816"/>
<polygon fill="midnightblue" stroke="midnightblue" points="1084.5,-209.757 1081,-199.757 1077.5,-209.757 1084.5,-209.757"/>
</g>
<!-- Node4 -->
<g id="node4" class="node"><title>Node4</title>
<g id="a_node4"><a xlink:href="../../d2/d09/HeartbeatFrame_8h.html" target="_top" xlink:title="Headers/HeartbeatFrame.h">
<polygon fill="none" stroke="black" points="1123.5,-180.5 1123.5,-199.5 1258.5,-199.5 1258.5,-180.5 1123.5,-180.5"/>
<text text-anchor="middle" x="1191" y="-187.5" font-family="Helvetica,sans-Serif" font-size="10.00">Headers/HeartbeatFrame.h</text>
</a>
</g>
</g>
<!-- Node1&#45;&gt;Node4 -->
<g id="edge3" class="edge"><title>Node1&#45;&gt;Node4</title>
<path fill="none" stroke="midnightblue" d="M1119.78,-236.968C1136.32,-226.291 1155.01,-214.227 1169.1,-205.138"/>
<polygon fill="midnightblue" stroke="midnightblue" points="1171.11,-208.003 1177.62,-199.639 1167.32,-202.121 1171.11,-208.003"/>
</g>
<!-- Node5 -->
<g id="node5" class="node"><title>Node5</title>
<g id="a_node5"><a xlink:href="../../dc/dcd/DataHeader_8h.html" target="_top" xlink:title="Headers/DataHeader.h">
<polygon fill="none" stroke="black" points="777.5,-124.5 777.5,-143.5 894.5,-143.5 894.5,-124.5 777.5,-124.5"/>
<text text-anchor="middle" x="836" y="-131.5" font-family="Helvetica,sans-Serif" font-size="10.00">Headers/DataHeader.h</text>
</a>
</g>
</g>
<!-- Node4&#45;&gt;Node5 -->
<g id="edge4" class="edge"><title>Node4&#45;&gt;Node5</title>
<path fill="none" stroke="midnightblue" d="M1134.75,-180.444C1071.52,-170.826 968.977,-155.228 902.01,-145.041"/>
<polygon fill="midnightblue" stroke="midnightblue" points="902.4,-141.56 891.988,-143.516 901.348,-148.481 902.4,-141.56"/>
</g>
<!-- Node20 -->
<g id="node20" class="node"><title>Node20</title>
<polygon fill="none" stroke="#bfbfbf" points="1206,-6.5 1206,-25.5 1250,-25.5 1250,-6.5 1206,-6.5"/>
<text text-anchor="middle" x="1228" y="-13.5" font-family="Helvetica,sans-Serif" font-size="10.00">vector</text>
</g>
<!-- Node4&#45;&gt;Node20 -->
<g id="edge27" class="edge"><title>Node4&#45;&gt;Node20</title>
<path fill="none" stroke="midnightblue" d="M1187.62,-180.114C1183.29,-167.545 1176.82,-143.89 1181,-124 1187.99,-90.7247 1205.97,-55.1636 1217.55,-34.568"/>
<polygon fill="midnightblue" stroke="midnightblue" points="1220.68,-36.1456 1222.65,-25.7351 1214.62,-32.6462 1220.68,-36.1456"/>
</g>
<!-- Node24 -->
<g id="node24" class="node"><title>Node24</title>
<polygon fill="none" stroke="#bfbfbf" points="1190.5,-124.5 1190.5,-143.5 1249.5,-143.5 1249.5,-124.5 1190.5,-124.5"/>
<text text-anchor="middle" x="1220" y="-131.5" font-family="Helvetica,sans-Serif" font-size="10.00">functional</text>
</g>
<!-- Node4&#45;&gt;Node24 -->
<g id="edge25" class="edge"><title>Node4&#45;&gt;Node24</title>
<path fill="none" stroke="midnightblue" d="M1195.79,-180.083C1199.76,-172.691 1205.53,-161.953 1210.43,-152.811"/>
<polygon fill="midnightblue" stroke="midnightblue" points="1213.65,-154.217 1215.3,-143.751 1207.49,-150.905 1213.65,-154.217"/>
</g>
<!-- Node25 -->
<g id="node25" class="node"><title>Node25</title>
<polygon fill="none" stroke="#bfbfbf" points="1267.5,-124.5 1267.5,-143.5 1302.5,-143.5 1302.5,-124.5 1267.5,-124.5"/>
<text text-anchor="middle" x="1285" y="-131.5" font-family="Helvetica,sans-Serif" font-size="10.00">map</text>
</g>
<!-- Node4&#45;&gt;Node25 -->
<g id="edge26" class="edge"><title>Node4&#45;&gt;Node25</title>
<path fill="none" stroke="midnightblue" d="M1206.1,-180.324C1220.9,-171.822 1243.69,-158.729 1260.98,-148.797"/>
<polygon fill="midnightblue" stroke="midnightblue" points="1263.01,-151.671 1269.93,-143.655 1259.52,-145.601 1263.01,-151.671"/>
</g>
<!-- Node6 -->
<g id="node6" class="node"><title>Node6</title>
<polygon fill="none" stroke="#bfbfbf" points="884,-68.5 884,-87.5 930,-87.5 930,-68.5 884,-68.5"/>
<text text-anchor="middle" x="907" y="-75.5" font-family="Helvetica,sans-Serif" font-size="10.00">cstdint</text>
</g>
<!-- Node5&#45;&gt;Node6 -->
<g id="edge5" class="edge"><title>Node5&#45;&gt;Node6</title>
<path fill="none" stroke="midnightblue" d="M847.407,-124.324C858.109,-116.185 874.341,-103.839 887.163,-94.0874"/>
<polygon fill="midnightblue" stroke="midnightblue" points="889.544,-96.6734 895.385,-87.8339 885.307,-91.1018 889.544,-96.6734"/>
</g>
<!-- Node7 -->
<g id="node7" class="node"><title>Node7</title>
<polygon fill="none" stroke="#bfbfbf" points="948,-68.5 948,-87.5 1000,-87.5 1000,-68.5 948,-68.5"/>
<text text-anchor="middle" x="974" y="-75.5" font-family="Helvetica,sans-Serif" font-size="10.00">memory</text>
</g>
<!-- Node5&#45;&gt;Node7 -->
<g id="edge6" class="edge"><title>Node5&#45;&gt;Node7</title>
<path fill="none" stroke="midnightblue" d="M857.867,-124.444C880.779,-115.478 916.975,-101.314 942.866,-91.1827"/>
<polygon fill="midnightblue" stroke="midnightblue" points="944.199,-94.4198 952.236,-87.5164 941.648,-87.9011 944.199,-94.4198"/>
</g>
<!-- Node8 -->
<g id="node8" class="node"><title>Node8</title>
<polygon fill="none" stroke="#bfbfbf" points="1018.5,-68.5 1018.5,-87.5 1067.5,-87.5 1067.5,-68.5 1018.5,-68.5"/>
<text text-anchor="middle" x="1043" y="-75.5" font-family="Helvetica,sans-Serif" font-size="10.00">cassert</text>
</g>
<!-- Node5&#45;&gt;Node8 -->
<g id="edge7" class="edge"><title>Node5&#45;&gt;Node8</title>
<path fill="none" stroke="midnightblue" d="M868.854,-124.499C901.69,-115.993 953.884,-102.445 1008.61,-88.0943"/>
<polygon fill="midnightblue" stroke="midnightblue" points="1009.71,-91.4251 1018.49,-85.5016 1007.93,-84.6543 1009.71,-91.4251"/>
</g>
<!-- Node9 -->
<g id="node9" class="node"><title>Node9</title>
<polygon fill="none" stroke="#bfbfbf" points="0,-6.5 0,-25.5 46,-25.5 46,-6.5 0,-6.5"/>
<text text-anchor="middle" x="23" y="-13.5" font-family="Helvetica,sans-Serif" font-size="10.00">cstring</text>
</g>
<!-- Node5&#45;&gt;Node9 -->
<g id="edge8" class="edge"><title>Node5&#45;&gt;Node9</title>
<path fill="none" stroke="midnightblue" d="M777.31,-131.855C673.487,-129.055 450.937,-119.575 266,-88 170.36,-71.671 146.179,-65.1673 55,-32 53.0972,-31.3078 51.1533,-30.5449 49.2104,-29.7409"/>
<polygon fill="midnightblue" stroke="midnightblue" points="50.26,-26.3774 39.7002,-25.5165 47.4183,-32.7747 50.26,-26.3774"/>
</g>
<!-- Node10 -->
<g id="node10" class="node"><title>Node10</title>
<polygon fill="none" stroke="#bfbfbf" points="732,-68.5 732,-87.5 788,-87.5 788,-68.5 732,-68.5"/>
<text text-anchor="middle" x="760" y="-75.5" font-family="Helvetica,sans-Serif" font-size="10.00">algorithm</text>
</g>
<!-- Node5&#45;&gt;Node10 -->
<g id="edge9" class="edge"><title>Node5&#45;&gt;Node10</title>
<path fill="none" stroke="midnightblue" d="M823.789,-124.324C812.224,-116.107 794.625,-103.602 780.839,-93.8069"/>
<polygon fill="midnightblue" stroke="midnightblue" points="782.612,-90.7729 772.433,-87.8339 778.557,-96.4791 782.612,-90.7729"/>
</g>
<!-- Node11 -->
<g id="node11" class="node"><title>Node11</title>
<polygon fill="none" stroke="#bfbfbf" points="806.5,-68.5 806.5,-87.5 865.5,-87.5 865.5,-68.5 806.5,-68.5"/>
<text text-anchor="middle" x="836" y="-75.5" font-family="Helvetica,sans-Serif" font-size="10.00">stdexcept</text>
</g>
<!-- Node5&#45;&gt;Node11 -->
<g id="edge10" class="edge"><title>Node5&#45;&gt;Node11</title>
<path fill="none" stroke="midnightblue" d="M836,-124.083C836,-117.006 836,-106.861 836,-97.9865"/>
<polygon fill="midnightblue" stroke="midnightblue" points="839.5,-97.751 836,-87.7511 832.5,-97.7511 839.5,-97.751"/>
</g>
<!-- Node12 -->
<g id="node12" class="node"><title>Node12</title>
<polygon fill="none" stroke="#bfbfbf" points="64.5,-6.5 64.5,-25.5 105.5,-25.5 105.5,-6.5 64.5,-6.5"/>
<text text-anchor="middle" x="85" y="-13.5" font-family="Helvetica,sans-Serif" font-size="10.00">string</text>
</g>
<!-- Node5&#45;&gt;Node12 -->
<g id="edge11" class="edge"><title>Node5&#45;&gt;Node12</title>
<path fill="none" stroke="midnightblue" d="M777.119,-131.202C652.296,-126.005 353.028,-106.17 115,-32 113.082,-31.4023 111.136,-30.6934 109.205,-29.9139"/>
<polygon fill="midnightblue" stroke="midnightblue" points="110.412,-26.6167 99.8641,-25.6184 107.487,-32.9764 110.412,-26.6167"/>
</g>
<!-- Node13 -->
<g id="node13" class="node"><title>Node13</title>
<g id="a_node13"><a xlink:href="../../dc/d03/MemoryResources_8h.html" target="_top" xlink:title="MemoryResources/MemoryResources.h">
<polygon fill="none" stroke="black" points="520.5,-68.5 520.5,-87.5 713.5,-87.5 713.5,-68.5 520.5,-68.5"/>
<text text-anchor="middle" x="617" y="-75.5" font-family="Helvetica,sans-Serif" font-size="10.00">MemoryResources/MemoryResources.h</text>
</a>
</g>
</g>
<!-- Node5&#45;&gt;Node13 -->
<g id="edge12" class="edge"><title>Node5&#45;&gt;Node13</title>
<path fill="none" stroke="midnightblue" d="M801.299,-124.444C763.415,-115.102 702.651,-100.119 661.338,-89.9326"/>
<polygon fill="midnightblue" stroke="midnightblue" points="662.086,-86.5123 651.539,-87.5164 660.41,-93.3088 662.086,-86.5123"/>
</g>
<!-- Node13&#45;&gt;Node9 -->
<g id="edge17" class="edge"><title>Node13&#45;&gt;Node9</title>
<path fill="none" stroke="midnightblue" d="M520.329,-73.4248C383.404,-67.6495 140.153,-54.5721 55,-32 52.6481,-31.3766 50.2569,-30.5863 47.8951,-29.6959"/>
<polygon fill="midnightblue" stroke="midnightblue" points="49.0952,-26.4016 38.5276,-25.6426 46.3154,-32.826 49.0952,-26.4016"/>
</g>
<!-- Node13&#45;&gt;Node12 -->
<g id="edge18" class="edge"><title>Node13&#45;&gt;Node12</title>
<path fill="none" stroke="midnightblue" d="M520.42,-72.6273C396.492,-66.2754 188.708,-52.9181 115,-32 113.025,-31.4396 111.026,-30.7491 109.045,-29.975"/>
<polygon fill="midnightblue" stroke="midnightblue" points="110.06,-26.591 99.51,-25.6227 107.154,-32.9591 110.06,-26.591"/>
</g>
<!-- Node14 -->
<g id="node14" class="node"><title>Node14</title>
<polygon fill="none" stroke="#bfbfbf" points="124,-1 124,-31 224,-31 224,-1 124,-1"/>
<text text-anchor="start" x="132" y="-19" font-family="Helvetica,sans-Serif" font-size="10.00">boost/container/flat</text>
<text text-anchor="middle" x="174" y="-8" font-family="Helvetica,sans-Serif" font-size="10.00">_map.hpp</text>
</g>
<!-- Node13&#45;&gt;Node14 -->
<g id="edge13" class="edge"><title>Node13&#45;&gt;Node14</title>
<path fill="none" stroke="midnightblue" d="M520.206,-69.2287C444.676,-62.3351 337.006,-50.6936 234.059,-32.0472"/>
<polygon fill="midnightblue" stroke="midnightblue" points="234.58,-28.5844 224.112,-30.2207 233.316,-35.4693 234.58,-28.5844"/>
</g>
<!-- Node15 -->
<g id="node15" class="node"><title>Node15</title>
<polygon fill="none" stroke="#bfbfbf" points="242,-1 242,-31 358,-31 358,-1 242,-1"/>
<text text-anchor="start" x="250" y="-19" font-family="Helvetica,sans-Serif" font-size="10.00">boost/container/pmr</text>
<text text-anchor="middle" x="300" y="-8" font-family="Helvetica,sans-Serif" font-size="10.00">/memory_resource.hpp</text>
</g>
<!-- Node13&#45;&gt;Node15 -->
<g id="edge14" class="edge"><title>Node13&#45;&gt;Node15</title>
<path fill="none" stroke="midnightblue" d="M566.126,-68.4895C517.701,-60.2429 442.537,-47.0667 368.093,-32.1745"/>
<polygon fill="midnightblue" stroke="midnightblue" points="368.567,-28.6998 358.073,-30.1586 367.186,-35.5623 368.567,-28.6998"/>
</g>
<!-- Node16 -->
<g id="node16" class="node"><title>Node16</title>
<polygon fill="none" stroke="#bfbfbf" points="376,-1 376,-31 532,-31 532,-1 376,-1"/>
<text text-anchor="start" x="384" y="-19" font-family="Helvetica,sans-Serif" font-size="10.00">boost/container/pmr</text>
<text text-anchor="middle" x="454" y="-8" font-family="Helvetica,sans-Serif" font-size="10.00">/monotonic_buffer_resource.hpp</text>
</g>
<!-- Node13&#45;&gt;Node16 -->
<g id="edge15" class="edge"><title>Node13&#45;&gt;Node16</title>
<path fill="none" stroke="midnightblue" d="M593.646,-68.4035C569.737,-59.6025 531.897,-45.6737 501.634,-34.534"/>
<polygon fill="midnightblue" stroke="midnightblue" points="502.696,-31.1952 492.102,-31.0253 500.277,-37.7643 502.696,-31.1952"/>
</g>
<!-- Node17 -->
<g id="node17" class="node"><title>Node17</title>
<polygon fill="none" stroke="#bfbfbf" points="550.5,-1 550.5,-31 683.5,-31 683.5,-1 550.5,-1"/>
<text text-anchor="start" x="558.5" y="-19" font-family="Helvetica,sans-Serif" font-size="10.00">boost/container/pmr</text>
<text text-anchor="middle" x="617" y="-8" font-family="Helvetica,sans-Serif" font-size="10.00">/polymorphic_allocator.hpp</text>
</g>
<!-- Node13&#45;&gt;Node17 -->
<g id="edge16" class="edge"><title>Node13&#45;&gt;Node17</title>
<path fill="none" stroke="midnightblue" d="M617,-68.4035C617,-61.3405 617,-50.975 617,-41.399"/>
<polygon fill="midnightblue" stroke="midnightblue" points="620.5,-41.1408 617,-31.1408 613.5,-41.1408 620.5,-41.1408"/>
</g>
<!-- Node18 -->
<g id="node18" class="node"><title>Node18</title>
<polygon fill="none" stroke="#bfbfbf" points="702,-6.5 702,-25.5 764,-25.5 764,-6.5 702,-6.5"/>
<text text-anchor="middle" x="733" y="-13.5" font-family="Helvetica,sans-Serif" font-size="10.00">type_traits</text>
</g>
<!-- Node13&#45;&gt;Node18 -->
<g id="edge19" class="edge"><title>Node13&#45;&gt;Node18</title>
<path fill="none" stroke="midnightblue" d="M633.62,-68.4035C652.915,-58.4232 684.959,-41.8487 707.431,-30.2253"/>
<polygon fill="midnightblue" stroke="midnightblue" points="709.137,-33.2836 716.411,-25.5806 705.921,-27.0661 709.137,-33.2836"/>
</g>
<!-- Node19 -->
<g id="node19" class="node"><title>Node19</title>
<polygon fill="none" stroke="#bfbfbf" points="782,-6.5 782,-25.5 822,-25.5 822,-6.5 782,-6.5"/>
<text text-anchor="middle" x="802" y="-13.5" font-family="Helvetica,sans-Serif" font-size="10.00">utility</text>
</g>
<!-- Node13&#45;&gt;Node19 -->
<g id="edge20" class="edge"><title>Node13&#45;&gt;Node19</title>
<path fill="none" stroke="midnightblue" d="M653.321,-68.4406C685.132,-60.4782 732.339,-47.5249 772,-32 773.603,-31.3725 775.236,-30.6899 776.87,-29.9733"/>
<polygon fill="midnightblue" stroke="midnightblue" points="778.499,-33.0748 786.051,-25.644 775.514,-26.7434 778.499,-33.0748"/>
</g>
<!-- Node13&#45;&gt;Node20 -->
<g id="edge21" class="edge"><title>Node13&#45;&gt;Node20</title>
<path fill="none" stroke="midnightblue" d="M713.76,-68.7494C716.876,-68.4949 719.962,-68.2445 723,-68 933.15,-51.0816 992.102,-85.6195 1196,-32 1198.35,-31.3812 1200.75,-30.5941 1203.11,-29.7058"/>
<polygon fill="midnightblue" stroke="midnightblue" points="1204.69,-32.8367 1212.48,-25.6558 1201.91,-26.4114 1204.69,-32.8367"/>
</g>
<!-- Node21 -->
<g id="node21" class="node"><title>Node21</title>
<polygon fill="none" stroke="#bfbfbf" points="840.5,-6.5 840.5,-25.5 923.5,-25.5 923.5,-6.5 840.5,-6.5"/>
<text text-anchor="middle" x="882" y="-13.5" font-family="Helvetica,sans-Serif" font-size="10.00">unordered_map</text>
</g>
<!-- Node13&#45;&gt;Node21 -->
<g id="edge22" class="edge"><title>Node13&#45;&gt;Node21</title>
<path fill="none" stroke="midnightblue" d="M662.742,-68.465C706.235,-60.0945 773.383,-46.5071 831,-32 835.398,-30.8927 839.987,-29.6577 844.531,-28.385"/>
<polygon fill="midnightblue" stroke="midnightblue" points="845.672,-31.6988 854.317,-25.5733 843.739,-24.971 845.672,-31.6988"/>
</g>
<!-- Node22 -->
<g id="node22" class="node"><title>Node22</title>
<polygon fill="none" stroke="#bfbfbf" points="941.5,-6.5 941.5,-25.5 1038.5,-25.5 1038.5,-6.5 941.5,-6.5"/>
<text text-anchor="middle" x="990" y="-13.5" font-family="Helvetica,sans-Serif" font-size="10.00">FairMQMessage.h</text>
</g>
<!-- Node13&#45;&gt;Node22 -->
<g id="edge23" class="edge"><title>Node13&#45;&gt;Node22</title>
<path fill="none" stroke="midnightblue" d="M693.465,-68.4903C757.507,-60.7868 851.153,-48.1771 932,-32 937.815,-30.8365 943.916,-29.4472 949.889,-27.9904"/>
<polygon fill="midnightblue" stroke="midnightblue" points="950.905,-31.3438 959.744,-25.503 949.192,-24.5567 950.905,-31.3438"/>
</g>
<!-- Node23 -->
<g id="node23" class="node"><title>Node23</title>
<polygon fill="none" stroke="#bfbfbf" points="1056.5,-6.5 1056.5,-25.5 1187.5,-25.5 1187.5,-6.5 1056.5,-6.5"/>
<text text-anchor="middle" x="1122" y="-13.5" font-family="Helvetica,sans-Serif" font-size="10.00">FairMQTransportFactory.h</text>
</g>
<!-- Node13&#45;&gt;Node23 -->
<g id="edge24" class="edge"><title>Node13&#45;&gt;Node23</title>
<path fill="none" stroke="midnightblue" d="M708.153,-68.4672C814.502,-58.3344 983.83,-41.601 1047,-32 1055.4,-30.7236 1064.28,-29.1486 1072.88,-27.5038"/>
<polygon fill="midnightblue" stroke="midnightblue" points="1073.67,-30.9164 1082.81,-25.5546 1072.32,-24.0476 1073.67,-30.9164"/>
</g>
</g>
</svg>
        <g id="navigator" transform="translate(0 0)" fill="#404254">
                <rect fill="#f2f5e9" fill-opacity="0.5" stroke="#606060" stroke-width=".5" x="0" y="0" width="60" height="60"/>
                <use id="zoomplus" xlink:href="#zoomPlus" x="17" y="9" onmousedown="handleZoom(evt,'in')"/>
                <use id="zoomminus" xlink:href="#zoomMin" x="42" y="9" onmousedown="handleZoom(evt,'out')"/>
                <use id="reset" xlink:href="#resetDef" x="30" y="36" onmousedown="handleReset()"/>
                <g id="arrowUp" xlink:href="#dirArrow" transform="translate(30 24)" onmousedown="handlePan(0,-1)">
                  <use xlink:href="#rim" fill="#404040">
                        <set attributeName="fill" to="#808080" begin="arrowUp.mouseover" end="arrowUp.mouseout"/>
                  </use>
                  <path fill="none" stroke="white" stroke-width="1.5" d="M0,-3.0v7 M-2.5,-0.5L0,-3.0L2.5,-0.5"/>
                </g>
                <g id="arrowRight" xlink:href="#dirArrow" transform="rotate(90) translate(36 -43)" onmousedown="handlePan(1,0)">
                  <use xlink:href="#rim" fill="#404040">
                        <set attributeName="fill" to="#808080" begin="arrowRight.mouseover" end="arrowRight.mouseout"/>
                  </use>
                  <path fill="none" stroke="white" stroke-width="1.5" d="M0,-3.0v7 M-2.5,-0.5L0,-3.0L2.5,-0.5"/>
                </g>
                <g id="arrowDown" xlink:href="#dirArrow" transform="rotate(180) translate(-30 -48)" onmousedown="handlePan(0,1)">
                  <use xlink:href="#rim" fill="#404040">
                        <set attributeName="fill" to="#808080" begin="arrowDown.mouseover" end="arrowDown.mouseout"/>
                  </use>
                  <path fill="none" stroke="white" stroke-width="1.5" d="M0,-3.0v7 M-2.5,-0.5L0,-3.0L2.5,-0.5"/>
                </g>
                <g id="arrowLeft" xlink:href="#dirArrow" transform="rotate(270) translate(-36 17)" onmousedown="handlePan(-1,0)">
                  <use xlink:href="#rim" fill="#404040">
                        <set attributeName="fill" to="#808080" begin="arrowLeft.mouseover" end="arrowLeft.mouseout"/>
                  </use>
                  <path fill="none" stroke="white" stroke-width="1.5" d="M0,-3.0v7 M-2.5,-0.5L0,-3.0L2.5,-0.5"/>
                </g>
        </g>
        <svg viewBox="0 0 15 15" width="100%" height="30px" preserveAspectRatio="xMaxYMin meet">
         <g id="arrow_out" transform="scale(0.3 0.3)">
          <a xlink:href="SubframeUtils_8h__incl_org.svg" target="_base">
           <rect id="button" ry="5" rx="5" y="6" x="6" height="38" width="38"
                fill="#f2f5e9" fill-opacity="0.5" stroke="#606060" stroke-width="1.0"/>
           <path id="arrow"
             d="M 11.500037,31.436501 C 11.940474,20.09759 22.043105,11.32322 32.158766,21.979434 L 37.068811,17.246167 C 37.068811,17.246167 37.088388,32 37.088388,32 L 22.160133,31.978069 C 22.160133,31.978069 26.997745,27.140456 26.997745,27.140456 C 18.528582,18.264221 13.291696,25.230495 11.500037,31.436501 z"
             style="fill:#404040;"/>
          </a>
         </g>
        </svg>
</svg>
