<?xml version="1.0" encoding="UTF-8" standalone="no"?>
<!DOCTYPE svg PUBLIC "-//W3C//DTD SVG 1.1//EN"
 "http://www.w3.org/Graphics/SVG/1.1/DTD/svg11.dtd">
<!-- Generated by graphviz version 2.36.0 (20140111.2315)
 -->
<!-- Title: /home/travis/build/AliceO2Group/AliceO2/Utilities/O2Device/include/O2Device/Utilities.h Pages: 1 -->
<!--zoomable 242 -->
<svg id="main" version="1.1" xmlns="http://www.w3.org/2000/svg" xmlns:xlink="http://www.w3.org/1999/xlink" xml:space="preserve" onload="init(evt)">
<style type="text/css"><![CDATA[
.edge:hover path { stroke: red; }
.edge:hover polygon { stroke: red; fill: red; }
]]></style>
<script type="text/javascript"><![CDATA[
var edges = document.getElementsByTagName('g');
if (edges && edges.length) {
  for (var i=0;i<edges.length;i++) {
    if (edges[i].id.substr(0,4)=='edge') {
      edges[i].setAttribute('class','edge');
    }
  }
}
]]></script>
        <defs>
                <circle id="rim" cx="0" cy="0" r="7"/>
                <circle id="rim2" cx="0" cy="0" r="3.5"/>
                <g id="zoomPlus">
                        <use xlink:href="#rim" fill="#404040">
                                <set attributeName="fill" to="#808080" begin="zoomplus.mouseover" end="zoomplus.mouseout"/>
                        </use>
                        <path d="M-4,0h8M0,-4v8" fill="none" stroke="white" stroke-width="1.5" pointer-events="none"/>
                </g>
                <g id="zoomMin">
                        <use xlink:href="#rim" fill="#404040">
                                <set attributeName="fill" to="#808080" begin="zoomminus.mouseover" end="zoomminus.mouseout"/>
                        </use>
                        <path d="M-4,0h8" fill="none" stroke="white" stroke-width="1.5" pointer-events="none"/>
                </g>
                <g id="dirArrow">
                        <path fill="none" stroke="white" stroke-width="1.5" d="M0,-3.0v7 M-2.5,-0.5L0,-3.0L2.5,-0.5"/>
                </g>
               <g id="resetDef">
                       <use xlink:href="#rim2" fill="#404040">
                               <set attributeName="fill" to="#808080" begin="reset.mouseover" end="reset.mouseout"/>
                       </use>
               </g>
        </defs>

<script type="text/javascript">
var viewWidth = 1272;
var viewHeight = 242;
var sectionId = 'dynsection-0';
</script>
<script xlink:href="../../svgpan.js"/>
<svg id="graph" class="graph">
<g id="viewport">
<title>/home/travis/build/AliceO2Group/AliceO2/Utilities/O2Device/include/O2Device/Utilities.h</title>
<!-- Node1 -->
<g id="node1" class="node"><title>Node1</title>
<polygon fill="#bfbfbf" stroke="black" points="815.5,-181 815.5,-233 948.5,-233 948.5,-181 815.5,-181"/>
<text text-anchor="start" x="823.5" y="-221" font-family="Helvetica,sans-Serif" font-size="10.00">/home/travis/build</text>
<text text-anchor="start" x="823.5" y="-210" font-family="Helvetica,sans-Serif" font-size="10.00">/AliceO2Group/AliceO2</text>
<text text-anchor="start" x="823.5" y="-199" font-family="Helvetica,sans-Serif" font-size="10.00">/Utilities/O2Device/include</text>
<text text-anchor="middle" x="882" y="-188" font-family="Helvetica,sans-Serif" font-size="10.00">/O2Device/Utilities.h</text>
</g>
<!-- Node2 -->
<g id="node2" class="node"><title>Node2</title>
<g id="a_node2"><a xlink:href="../../dc/d03/MemoryResources_8h.html" target="_top" xlink:title="MemoryResources/MemoryResources.h">
<polygon fill="none" stroke="black" points="641.5,-68.5 641.5,-87.5 834.5,-87.5 834.5,-68.5 641.5,-68.5"/>
<text text-anchor="middle" x="738" y="-75.5" font-family="Helvetica,sans-Serif" font-size="10.00">MemoryResources/MemoryResources.h</text>
</a>
</g>
</g>
<!-- Node1&#45;&gt;Node2 -->
<g id="edge1" class="edge"><title>Node1&#45;&gt;Node2</title>
<path fill="none" stroke="midnightblue" d="M853.55,-180.909C824.369,-155.173 779.899,-115.953 755.513,-94.4454"/>
<polygon fill="midnightblue" stroke="midnightblue" points="757.598,-91.6174 747.783,-87.6278 752.968,-96.8673 757.598,-91.6174"/>
</g>
<!-- Node10 -->
<g id="node10" class="node"><title>Node10</title>
<polygon fill="none" stroke="#bfbfbf" points="0,-6.5 0,-25.5 40,-25.5 40,-6.5 0,-6.5"/>
<text text-anchor="middle" x="20" y="-13.5" font-family="Helvetica,sans-Serif" font-size="10.00">utility</text>
</g>
<!-- Node1&#45;&gt;Node10 -->
<g id="edge23" class="edge"><title>Node1&#45;&gt;Node10</title>
<path fill="none" stroke="midnightblue" d="M815.271,-198.31C671.756,-180.432 324.445,-129.942 49,-32 47.3477,-31.4125 45.6712,-30.7479 44.0006,-30.0335"/>
<polygon fill="midnightblue" stroke="midnightblue" points="45.2354,-26.7443 34.7041,-25.5858 42.2143,-33.0589 45.2354,-26.7443"/>
</g>
<!-- Node15 -->
<g id="node15" class="node"><title>Node15</title>
<g id="a_node15"><a xlink:href="../../dc/dcd/DataHeader_8h.html" target="_top" xlink:title="Headers/DataHeader.h">
<polygon fill="none" stroke="black" points="900.5,-124.5 900.5,-143.5 1017.5,-143.5 1017.5,-124.5 900.5,-124.5"/>
<text text-anchor="middle" x="959" y="-131.5" font-family="Helvetica,sans-Serif" font-size="10.00">Headers/DataHeader.h</text>
</a>
</g>
</g>
<!-- Node1&#45;&gt;Node15 -->
<g id="edge14" class="edge"><title>Node1&#45;&gt;Node15</title>
<path fill="none" stroke="midnightblue" d="M909.364,-180.768C920.196,-170.78 932.316,-159.605 941.867,-150.798"/>
<polygon fill="midnightblue" stroke="midnightblue" points="944.524,-153.109 949.503,-143.757 939.778,-147.963 944.524,-153.109"/>
</g>
<!-- Node21 -->
<g id="node21" class="node"><title>Node21</title>
<polygon fill="none" stroke="#bfbfbf" points="1035.5,-124.5 1035.5,-143.5 1080.5,-143.5 1080.5,-124.5 1035.5,-124.5"/>
<text text-anchor="middle" x="1058" y="-131.5" font-family="Helvetica,sans-Serif" font-size="10.00">gsl/gsl</text>
</g>
<!-- Node1&#45;&gt;Node21 -->
<g id="edge24" class="edge"><title>Node1&#45;&gt;Node21</title>
<path fill="none" stroke="midnightblue" d="M944.051,-180.968C972.156,-169.63 1004.14,-156.728 1027.05,-147.485"/>
<polygon fill="midnightblue" stroke="midnightblue" points="1028.62,-150.626 1036.59,-143.639 1026,-144.134 1028.62,-150.626"/>
</g>
<!-- Node3 -->
<g id="node3" class="node"><title>Node3</title>
<polygon fill="none" stroke="#bfbfbf" points="58,-1 58,-31 158,-31 158,-1 58,-1"/>
<text text-anchor="start" x="66" y="-19" font-family="Helvetica,sans-Serif" font-size="10.00">boost/container/flat</text>
<text text-anchor="middle" x="108" y="-8" font-family="Helvetica,sans-Serif" font-size="10.00">_map.hpp</text>
</g>
<!-- Node2&#45;&gt;Node3 -->
<g id="edge2" class="edge"><title>Node2&#45;&gt;Node3</title>
<path fill="none" stroke="midnightblue" d="M641.417,-74.3987C529.553,-70.2542 339.712,-59.7346 168.064,-31.988"/>
<polygon fill="midnightblue" stroke="midnightblue" points="168.524,-28.5167 158.089,-30.3526 167.391,-35.4245 168.524,-28.5167"/>
</g>
<!-- Node4 -->
<g id="node4" class="node"><title>Node4</title>
<polygon fill="none" stroke="#bfbfbf" points="176,-1 176,-31 292,-31 292,-1 176,-1"/>
<text text-anchor="start" x="184" y="-19" font-family="Helvetica,sans-Serif" font-size="10.00">boost/container/pmr</text>
<text text-anchor="middle" x="234" y="-8" font-family="Helvetica,sans-Serif" font-size="10.00">/memory_resource.hpp</text>
</g>
<!-- Node2&#45;&gt;Node4 -->
<g id="edge3" class="edge"><title>Node2&#45;&gt;Node4</title>
<path fill="none" stroke="midnightblue" d="M641.234,-70.3195C554.737,-63.5913 424.396,-51.5936 301.953,-32.0345"/>
<polygon fill="midnightblue" stroke="midnightblue" points="302.454,-28.5702 292.023,-30.4288 301.336,-35.4804 302.454,-28.5702"/>
</g>
<!-- Node5 -->
<g id="node5" class="node"><title>Node5</title>
<polygon fill="none" stroke="#bfbfbf" points="310,-1 310,-31 466,-31 466,-1 310,-1"/>
<text text-anchor="start" x="318" y="-19" font-family="Helvetica,sans-Serif" font-size="10.00">boost/container/pmr</text>
<text text-anchor="middle" x="388" y="-8" font-family="Helvetica,sans-Serif" font-size="10.00">/monotonic_buffer_resource.hpp</text>
</g>
<!-- Node2&#45;&gt;Node5 -->
<g id="edge4" class="edge"><title>Node2&#45;&gt;Node5</title>
<path fill="none" stroke="midnightblue" d="M688.067,-68.4758C637.333,-59.8104 556.186,-45.9387 476.472,-32.2516"/>
<polygon fill="midnightblue" stroke="midnightblue" points="476.702,-28.74 466.254,-30.4969 475.517,-35.639 476.702,-28.74"/>
</g>
<!-- Node6 -->
<g id="node6" class="node"><title>Node6</title>
<polygon fill="none" stroke="#bfbfbf" points="484.5,-1 484.5,-31 617.5,-31 617.5,-1 484.5,-1"/>
<text text-anchor="start" x="492.5" y="-19" font-family="Helvetica,sans-Serif" font-size="10.00">boost/container/pmr</text>
<text text-anchor="middle" x="551" y="-8" font-family="Helvetica,sans-Serif" font-size="10.00">/polymorphic_allocator.hpp</text>
</g>
<!-- Node2&#45;&gt;Node6 -->
<g id="edge5" class="edge"><title>Node2&#45;&gt;Node6</title>
<path fill="none" stroke="midnightblue" d="M711.207,-68.4035C683.422,-59.4882 639.236,-45.311 604.3,-34.1014"/>
<polygon fill="midnightblue" stroke="midnightblue" points="605.303,-30.7479 594.712,-31.0253 603.165,-37.4132 605.303,-30.7479"/>
</g>
<!-- Node7 -->
<g id="node7" class="node"><title>Node7</title>
<polygon fill="none" stroke="#bfbfbf" points="1144,-6.5 1144,-25.5 1190,-25.5 1190,-6.5 1144,-6.5"/>
<text text-anchor="middle" x="1167" y="-13.5" font-family="Helvetica,sans-Serif" font-size="10.00">cstring</text>
</g>
<!-- Node2&#45;&gt;Node7 -->
<g id="edge6" class="edge"><title>Node2&#45;&gt;Node7</title>
<path fill="none" stroke="midnightblue" d="M825.86,-68.4849C933.464,-57.8271 1105.07,-40.002 1134,-32 1136.49,-31.3099 1139.04,-30.4545 1141.55,-29.5046"/>
<polygon fill="midnightblue" stroke="midnightblue" points="1143.09,-32.6532 1150.93,-25.5232 1140.36,-26.21 1143.09,-32.6532"/>
</g>
<!-- Node8 -->
<g id="node8" class="node"><title>Node8</title>
<polygon fill="none" stroke="#bfbfbf" points="1208.5,-6.5 1208.5,-25.5 1249.5,-25.5 1249.5,-6.5 1208.5,-6.5"/>
<text text-anchor="middle" x="1229" y="-13.5" font-family="Helvetica,sans-Serif" font-size="10.00">string</text>
</g>
<!-- Node2&#45;&gt;Node8 -->
<g id="edge7" class="edge"><title>Node2&#45;&gt;Node8</title>
<path fill="none" stroke="midnightblue" d="M834.428,-68.4901C964.432,-56.8853 1181.76,-36.9668 1199,-32 1200.97,-31.4318 1202.97,-30.7357 1204.95,-29.9576"/>
<polygon fill="midnightblue" stroke="midnightblue" points="1206.84,-32.9398 1214.48,-25.5977 1203.93,-26.5739 1206.84,-32.9398"/>
</g>
<!-- Node9 -->
<g id="node9" class="node"><title>Node9</title>
<polygon fill="none" stroke="#bfbfbf" points="636,-6.5 636,-25.5 698,-25.5 698,-6.5 636,-6.5"/>
<text text-anchor="middle" x="667" y="-13.5" font-family="Helvetica,sans-Serif" font-size="10.00">type_traits</text>
</g>
<!-- Node2&#45;&gt;Node9 -->
<g id="edge8" class="edge"><title>Node2&#45;&gt;Node9</title>
<path fill="none" stroke="midnightblue" d="M727.827,-68.4035C716.65,-58.9579 698.483,-43.6056 684.909,-32.1342"/>
<polygon fill="midnightblue" stroke="midnightblue" points="687.051,-29.3619 677.154,-25.5806 682.533,-34.7085 687.051,-29.3619"/>
</g>
<!-- Node2&#45;&gt;Node10 -->
<g id="edge9" class="edge"><title>Node2&#45;&gt;Node10</title>
<path fill="none" stroke="midnightblue" d="M641.289,-75.5594C478.681,-72.3232 157.632,-62.2148 49,-32 47.034,-31.4532 45.0475,-30.7635 43.0851,-29.982"/>
<polygon fill="midnightblue" stroke="midnightblue" points="44.218,-26.6466 33.6805,-25.5451 41.2312,-32.9774 44.218,-26.6466"/>
</g>
<!-- Node11 -->
<g id="node11" class="node"><title>Node11</title>
<polygon fill="none" stroke="#bfbfbf" points="716,-6.5 716,-25.5 760,-25.5 760,-6.5 716,-6.5"/>
<text text-anchor="middle" x="738" y="-13.5" font-family="Helvetica,sans-Serif" font-size="10.00">vector</text>
</g>
<!-- Node2&#45;&gt;Node11 -->
<g id="edge10" class="edge"><title>Node2&#45;&gt;Node11</title>
<path fill="none" stroke="midnightblue" d="M738,-68.4035C738,-59.9381 738,-46.7283 738,-35.8199"/>
<polygon fill="midnightblue" stroke="midnightblue" points="741.5,-35.5806 738,-25.5806 734.5,-35.5806 741.5,-35.5806"/>
</g>
<!-- Node12 -->
<g id="node12" class="node"><title>Node12</title>
<polygon fill="none" stroke="#bfbfbf" points="778.5,-6.5 778.5,-25.5 861.5,-25.5 861.5,-6.5 778.5,-6.5"/>
<text text-anchor="middle" x="820" y="-13.5" font-family="Helvetica,sans-Serif" font-size="10.00">unordered_map</text>
</g>
<!-- Node2&#45;&gt;Node12 -->
<g id="edge11" class="edge"><title>Node2&#45;&gt;Node12</title>
<path fill="none" stroke="midnightblue" d="M749.749,-68.4035C762.901,-58.7797 784.434,-43.0242 800.198,-31.4891"/>
<polygon fill="midnightblue" stroke="midnightblue" points="802.27,-34.3103 808.273,-25.5806 798.136,-28.6611 802.27,-34.3103"/>
</g>
<!-- Node13 -->
<g id="node13" class="node"><title>Node13</title>
<polygon fill="none" stroke="#bfbfbf" points="879.5,-6.5 879.5,-25.5 976.5,-25.5 976.5,-6.5 879.5,-6.5"/>
<text text-anchor="middle" x="928" y="-13.5" font-family="Helvetica,sans-Serif" font-size="10.00">FairMQMessage.h</text>
</g>
<!-- Node2&#45;&gt;Node13 -->
<g id="edge12" class="edge"><title>Node2&#45;&gt;Node13</title>
<path fill="none" stroke="midnightblue" d="M765.222,-68.4035C798.237,-57.9777 854.04,-40.3557 890.953,-28.6992"/>
<polygon fill="midnightblue" stroke="midnightblue" points="892.346,-31.9295 900.828,-25.5806 890.238,-25.2544 892.346,-31.9295"/>
</g>
<!-- Node14 -->
<g id="node14" class="node"><title>Node14</title>
<polygon fill="none" stroke="#bfbfbf" points="994.5,-6.5 994.5,-25.5 1125.5,-25.5 1125.5,-6.5 994.5,-6.5"/>
<text text-anchor="middle" x="1060" y="-13.5" font-family="Helvetica,sans-Serif" font-size="10.00">FairMQTransportFactory.h</text>
</g>
<!-- Node2&#45;&gt;Node14 -->
<g id="edge13" class="edge"><title>Node2&#45;&gt;Node14</title>
<path fill="none" stroke="midnightblue" d="M786.322,-68.4497C836.147,-59.5738 916.071,-45.1709 985,-32 992.436,-30.5791 1000.28,-29.047 1007.98,-27.5238"/>
<polygon fill="midnightblue" stroke="midnightblue" points="1008.85,-30.9194 1017.98,-25.5367 1007.49,-24.0538 1008.85,-30.9194"/>
</g>
<!-- Node15&#45;&gt;Node2 -->
<g id="edge22" class="edge"><title>Node15&#45;&gt;Node2</title>
<path fill="none" stroke="midnightblue" d="M923.982,-124.444C885.752,-115.102 824.433,-100.119 782.743,-89.9326"/>
<polygon fill="midnightblue" stroke="midnightblue" points="783.399,-86.4901 772.854,-87.5164 781.738,-93.2901 783.399,-86.4901"/>
</g>
<!-- Node15&#45;&gt;Node7 -->
<g id="edge18" class="edge"><title>Node15&#45;&gt;Node7</title>
<path fill="none" stroke="midnightblue" d="M956.707,-124.185C953.698,-110.39 950.277,-83.6642 964,-68 1014.89,-9.90888 1060.63,-56.1223 1134,-32 1136.27,-31.2537 1138.59,-30.3988 1140.9,-29.4839"/>
<polygon fill="midnightblue" stroke="midnightblue" points="1142.35,-32.6722 1150.16,-25.5102 1139.59,-26.2402 1142.35,-32.6722"/>
</g>
<!-- Node15&#45;&gt;Node8 -->
<g id="edge21" class="edge"><title>Node15&#45;&gt;Node8</title>
<path fill="none" stroke="midnightblue" d="M961.497,-124.198C966.035,-109.92 977.059,-81.9097 997,-68 1071.79,-15.8287 1112.44,-60.6867 1199,-32 1200.91,-31.368 1202.84,-30.634 1204.77,-29.8368"/>
<polygon fill="midnightblue" stroke="midnightblue" points="1206.5,-32.8912 1214.1,-25.5058 1203.56,-26.5421 1206.5,-32.8912"/>
</g>
<!-- Node16 -->
<g id="node16" class="node"><title>Node16</title>
<polygon fill="none" stroke="#bfbfbf" points="1006,-68.5 1006,-87.5 1052,-87.5 1052,-68.5 1006,-68.5"/>
<text text-anchor="middle" x="1029" y="-75.5" font-family="Helvetica,sans-Serif" font-size="10.00">cstdint</text>
</g>
<!-- Node15&#45;&gt;Node16 -->
<g id="edge15" class="edge"><title>Node15&#45;&gt;Node16</title>
<path fill="none" stroke="midnightblue" d="M970.247,-124.324C980.797,-116.185 996.801,-103.839 1009.44,-94.0874"/>
<polygon fill="midnightblue" stroke="midnightblue" points="1011.77,-96.7132 1017.55,-87.8339 1007.49,-91.1707 1011.77,-96.7132"/>
</g>
<!-- Node17 -->
<g id="node17" class="node"><title>Node17</title>
<polygon fill="none" stroke="#bfbfbf" points="1070,-68.5 1070,-87.5 1122,-87.5 1122,-68.5 1070,-68.5"/>
<text text-anchor="middle" x="1096" y="-75.5" font-family="Helvetica,sans-Serif" font-size="10.00">memory</text>
</g>
<!-- Node15&#45;&gt;Node17 -->
<g id="edge16" class="edge"><title>Node15&#45;&gt;Node17</title>
<path fill="none" stroke="midnightblue" d="M980.708,-124.444C1003.35,-115.517 1039.07,-101.439 1064.75,-91.3168"/>
<polygon fill="midnightblue" stroke="midnightblue" points="1066.37,-94.4397 1074.39,-87.5164 1063.81,-87.9273 1066.37,-94.4397"/>
</g>
<!-- Node18 -->
<g id="node18" class="node"><title>Node18</title>
<polygon fill="none" stroke="#bfbfbf" points="1140.5,-68.5 1140.5,-87.5 1189.5,-87.5 1189.5,-68.5 1140.5,-68.5"/>
<text text-anchor="middle" x="1165" y="-75.5" font-family="Helvetica,sans-Serif" font-size="10.00">cassert</text>
</g>
<!-- Node15&#45;&gt;Node18 -->
<g id="edge17" class="edge"><title>Node15&#45;&gt;Node18</title>
<path fill="none" stroke="midnightblue" d="M991.661,-124.485C1024.3,-115.968 1076.19,-102.411 1130.65,-88.0853"/>
<polygon fill="midnightblue" stroke="midnightblue" points="1131.71,-91.4272 1140.49,-85.4974 1129.93,-84.6576 1131.71,-91.4272"/>
</g>
<!-- Node19 -->
<g id="node19" class="node"><title>Node19</title>
<polygon fill="none" stroke="#bfbfbf" points="1208,-68.5 1208,-87.5 1264,-87.5 1264,-68.5 1208,-68.5"/>
<text text-anchor="middle" x="1236" y="-75.5" font-family="Helvetica,sans-Serif" font-size="10.00">algorithm</text>
</g>
<!-- Node15&#45;&gt;Node19 -->
<g id="edge19" class="edge"><title>Node15&#45;&gt;Node19</title>
<path fill="none" stroke="midnightblue" d="M1008.11,-124.441C1056.52,-115.843 1132.54,-101.907 1198,-88 1198.1,-87.9789 1198.2,-87.9577 1198.3,-87.9364"/>
<polygon fill="midnightblue" stroke="midnightblue" points="1198.8,-91.4094 1207.81,-85.8301 1197.29,-84.5749 1198.8,-91.4094"/>
</g>
<!-- Node20 -->
<g id="node20" class="node"><title>Node20</title>
<polygon fill="none" stroke="#bfbfbf" points="852.5,-68.5 852.5,-87.5 911.5,-87.5 911.5,-68.5 852.5,-68.5"/>
<text text-anchor="middle" x="882" y="-75.5" font-family="Helvetica,sans-Serif" font-size="10.00">stdexcept</text>
</g>
<!-- Node15&#45;&gt;Node20 -->
<g id="edge20" class="edge"><title>Node15&#45;&gt;Node20</title>
<path fill="none" stroke="midnightblue" d="M946.629,-124.324C934.842,-116.058 916.868,-103.453 902.864,-93.6322"/>
<polygon fill="midnightblue" stroke="midnightblue" points="904.538,-90.5307 894.341,-87.6545 900.518,-96.2619 904.538,-90.5307"/>
</g>
</g>
</svg>
        <g id="navigator" transform="translate(0 0)" fill="#404254">
                <rect fill="#f2f5e9" fill-opacity="0.5" stroke="#606060" stroke-width=".5" x="0" y="0" width="60" height="60"/>
                <use id="zoomplus" xlink:href="#zoomPlus" x="17" y="9" onmousedown="handleZoom(evt,'in')"/>
                <use id="zoomminus" xlink:href="#zoomMin" x="42" y="9" onmousedown="handleZoom(evt,'out')"/>
                <use id="reset" xlink:href="#resetDef" x="30" y="36" onmousedown="handleReset()"/>
                <g id="arrowUp" xlink:href="#dirArrow" transform="translate(30 24)" onmousedown="handlePan(0,-1)">
                  <use xlink:href="#rim" fill="#404040">
                        <set attributeName="fill" to="#808080" begin="arrowUp.mouseover" end="arrowUp.mouseout"/>
                  </use>
                  <path fill="none" stroke="white" stroke-width="1.5" d="M0,-3.0v7 M-2.5,-0.5L0,-3.0L2.5,-0.5"/>
                </g>
                <g id="arrowRight" xlink:href="#dirArrow" transform="rotate(90) translate(36 -43)" onmousedown="handlePan(1,0)">
                  <use xlink:href="#rim" fill="#404040">
                        <set attributeName="fill" to="#808080" begin="arrowRight.mouseover" end="arrowRight.mouseout"/>
                  </use>
                  <path fill="none" stroke="white" stroke-width="1.5" d="M0,-3.0v7 M-2.5,-0.5L0,-3.0L2.5,-0.5"/>
                </g>
                <g id="arrowDown" xlink:href="#dirArrow" transform="rotate(180) translate(-30 -48)" onmousedown="handlePan(0,1)">
                  <use xlink:href="#rim" fill="#404040">
                        <set attributeName="fill" to="#808080" begin="arrowDown.mouseover" end="arrowDown.mouseout"/>
                  </use>
                  <path fill="none" stroke="white" stroke-width="1.5" d="M0,-3.0v7 M-2.5,-0.5L0,-3.0L2.5,-0.5"/>
                </g>
                <g id="arrowLeft" xlink:href="#dirArrow" transform="rotate(270) translate(-36 17)" onmousedown="handlePan(-1,0)">
                  <use xlink:href="#rim" fill="#404040">
                        <set attributeName="fill" to="#808080" begin="arrowLeft.mouseover" end="arrowLeft.mouseout"/>
                  </use>
                  <path fill="none" stroke="white" stroke-width="1.5" d="M0,-3.0v7 M-2.5,-0.5L0,-3.0L2.5,-0.5"/>
                </g>
        </g>
        <svg viewBox="0 0 15 15" width="100%" height="30px" preserveAspectRatio="xMaxYMin meet">
         <g id="arrow_out" transform="scale(0.3 0.3)">
          <a xlink:href="Utilities_8h__incl_org.svg" target="_base">
           <rect id="button" ry="5" rx="5" y="6" x="6" height="38" width="38"
                fill="#f2f5e9" fill-opacity="0.5" stroke="#606060" stroke-width="1.0"/>
           <path id="arrow"
             d="M 11.500037,31.436501 C 11.940474,20.09759 22.043105,11.32322 32.158766,21.979434 L 37.068811,17.246167 C 37.068811,17.246167 37.088388,32 37.088388,32 L 22.160133,31.978069 C 22.160133,31.978069 26.997745,27.140456 26.997745,27.140456 C 18.528582,18.264221 13.291696,25.230495 11.500037,31.436501 z"
             style="fill:#404040;"/>
          </a>
         </g>
        </svg>
</svg>
