<?xml version="1.0" encoding="UTF-8" standalone="no"?>
<!DOCTYPE svg PUBLIC "-//W3C//DTD SVG 1.1//EN"
 "http://www.w3.org/Graphics/SVG/1.1/DTD/svg11.dtd">
<!-- Generated by graphviz version 2.36.0 (20140111.2315)
 -->
<!-- Title: /home/travis/build/AliceO2Group/AliceO2/Utilities/DataFlow/src/runFakeTimeframeGeneratorDevice.cxx Pages: 1 -->
<svg width="1302pt" height="422pt"
 viewBox="0.00 0.00 1302.00 422.00" xmlns="http://www.w3.org/2000/svg" xmlns:xlink="http://www.w3.org/1999/xlink">
<g id="graph0" class="graph" transform="scale(1 1) rotate(0) translate(4 418)">
<title>/home/travis/build/AliceO2Group/AliceO2/Utilities/DataFlow/src/runFakeTimeframeGeneratorDevice.cxx</title>
<!-- Node1 -->
<g id="node1" class="node"><title>Node1</title>
<polygon fill="#bfbfbf" stroke="black" points="983,-361 983,-413 1177,-413 1177,-361 983,-361"/>
<text text-anchor="start" x="991" y="-401" font-family="Helvetica,sans-Serif" font-size="10.00">/home/travis/build</text>
<text text-anchor="start" x="991" y="-390" font-family="Helvetica,sans-Serif" font-size="10.00">/AliceO2Group/AliceO2</text>
<text text-anchor="start" x="991" y="-379" font-family="Helvetica,sans-Serif" font-size="10.00">/Utilities/DataFlow/src</text>
<text text-anchor="middle" x="1080" y="-368" font-family="Helvetica,sans-Serif" font-size="10.00">/runFakeTimeframeGeneratorDevice.cxx</text>
</g>
<!-- Node2 -->
<g id="node2" class="node"><title>Node2</title>
<polygon fill="none" stroke="#bfbfbf" points="874.5,-298.5 874.5,-317.5 975.5,-317.5 975.5,-298.5 874.5,-298.5"/>
<text text-anchor="middle" x="925" y="-305.5" font-family="Helvetica,sans-Serif" font-size="10.00">runFairMQDevice.h</text>
</g>
<!-- Node1&#45;&gt;Node2 -->
<g id="edge1" class="edge"><title>Node1&#45;&gt;Node2</title>
<path fill="none" stroke="midnightblue" d="M1029.25,-360.787C1003.22,-347.855 972.595,-332.644 951.303,-322.067"/>
<polygon fill="midnightblue" stroke="midnightblue" points="952.74,-318.872 942.227,-317.558 949.625,-325.141 952.74,-318.872"/>
</g>
<!-- Node3 -->
<g id="node3" class="node"><title>Node3</title>
<g id="a_node3"><a xlink:href="../../d4/d98/FakeTimeframeGeneratorDevice_8h.html" target="_top" xlink:title="DataFlow/FakeTimeframeGenerator\lDevice.h">
<polygon fill="none" stroke="black" points="993.5,-293 993.5,-323 1166.5,-323 1166.5,-293 993.5,-293"/>
<text text-anchor="start" x="1001.5" y="-311" font-family="Helvetica,sans-Serif" font-size="10.00">DataFlow/FakeTimeframeGenerator</text>
<text text-anchor="middle" x="1080" y="-300" font-family="Helvetica,sans-Serif" font-size="10.00">Device.h</text>
</a>
</g>
</g>
<!-- Node1&#45;&gt;Node3 -->
<g id="edge2" class="edge"><title>Node1&#45;&gt;Node3</title>
<path fill="none" stroke="midnightblue" d="M1080,-360.787C1080,-352.029 1080,-342.225 1080,-333.523"/>
<polygon fill="midnightblue" stroke="midnightblue" points="1083.5,-333.252 1080,-323.252 1076.5,-333.252 1083.5,-333.252"/>
</g>
<!-- Node17 -->
<g id="node17" class="node"><title>Node17</title>
<polygon fill="none" stroke="#bfbfbf" points="1228,-6.5 1228,-25.5 1272,-25.5 1272,-6.5 1228,-6.5"/>
<text text-anchor="middle" x="1250" y="-13.5" font-family="Helvetica,sans-Serif" font-size="10.00">vector</text>
</g>
<!-- Node1&#45;&gt;Node17 -->
<g id="edge33" class="edge"><title>Node1&#45;&gt;Node17</title>
<path fill="none" stroke="midnightblue" d="M1177.29,-362.613C1233.83,-342.584 1294,-307.14 1294,-247 1294,-247 1294,-247 1294,-133 1294,-95.8503 1274.03,-56.104 1260.99,-34.123"/>
<polygon fill="midnightblue" stroke="midnightblue" points="1263.97,-32.2825 1255.75,-25.5977 1258.01,-35.9493 1263.97,-32.2825"/>
</g>
<!-- Node4 -->
<g id="node4" class="node"><title>Node4</title>
<g id="a_node4"><a xlink:href="../../d2/dee/O2Device_8h.html" target="_top" xlink:title="O2Device/O2Device.h">
<polygon fill="none" stroke="black" points="972.5,-236.5 972.5,-255.5 1087.5,-255.5 1087.5,-236.5 972.5,-236.5"/>
<text text-anchor="middle" x="1030" y="-243.5" font-family="Helvetica,sans-Serif" font-size="10.00">O2Device/O2Device.h</text>
</a>
</g>
</g>
<!-- Node3&#45;&gt;Node4 -->
<g id="edge3" class="edge"><title>Node3&#45;&gt;Node4</title>
<path fill="none" stroke="midnightblue" d="M1068.15,-292.781C1060.81,-283.972 1051.36,-272.626 1043.69,-263.433"/>
<polygon fill="midnightblue" stroke="midnightblue" points="1046.37,-261.172 1037.28,-255.731 1040.99,-265.653 1046.37,-261.172"/>
</g>
<!-- Node5 -->
<g id="node5" class="node"><title>Node5</title>
<polygon fill="none" stroke="#bfbfbf" points="1178,-180.5 1178,-199.5 1266,-199.5 1266,-180.5 1178,-180.5"/>
<text text-anchor="middle" x="1222" y="-187.5" font-family="Helvetica,sans-Serif" font-size="10.00">FairMQDevice.h</text>
</g>
<!-- Node4&#45;&gt;Node5 -->
<g id="edge4" class="edge"><title>Node4&#45;&gt;Node5</title>
<path fill="none" stroke="midnightblue" d="M1060.42,-236.444C1093.28,-227.201 1145.78,-212.436 1181.97,-202.257"/>
<polygon fill="midnightblue" stroke="midnightblue" points="1183.04,-205.593 1191.72,-199.516 1181.15,-198.855 1183.04,-205.593"/>
</g>
<!-- Node6 -->
<g id="node6" class="node"><title>Node6</title>
<polygon fill="none" stroke="#bfbfbf" points="628,-180.5 628,-199.5 774,-199.5 774,-180.5 628,-180.5"/>
<text text-anchor="middle" x="701" y="-187.5" font-family="Helvetica,sans-Serif" font-size="10.00">options/FairMQProgOptions.h</text>
</g>
<!-- Node4&#45;&gt;Node6 -->
<g id="edge5" class="edge"><title>Node4&#45;&gt;Node6</title>
<path fill="none" stroke="midnightblue" d="M977.869,-236.444C919.513,-226.865 825.018,-211.356 762.941,-201.167"/>
<polygon fill="midnightblue" stroke="midnightblue" points="763.322,-197.682 752.887,-199.516 762.188,-204.59 763.322,-197.682"/>
</g>
<!-- Node7 -->
<g id="node7" class="node"><title>Node7</title>
<g id="a_node7"><a xlink:href="../../d7/db2/Utilities_8h.html" target="_top" xlink:title="O2Device/Utilities.h">
<polygon fill="none" stroke="black" points="792,-180.5 792,-199.5 896,-199.5 896,-180.5 792,-180.5"/>
<text text-anchor="middle" x="844" y="-187.5" font-family="Helvetica,sans-Serif" font-size="10.00">O2Device/Utilities.h</text>
</a>
</g>
</g>
<!-- Node4&#45;&gt;Node7 -->
<g id="edge6" class="edge"><title>Node4&#45;&gt;Node7</title>
<path fill="none" stroke="midnightblue" d="M1000.53,-236.444C968.829,-227.241 918.268,-212.562 883.225,-202.388"/>
<polygon fill="midnightblue" stroke="midnightblue" points="883.914,-198.943 873.334,-199.516 881.962,-205.666 883.914,-198.943"/>
</g>
<!-- Node26 -->
<g id="node26" class="node"><title>Node26</title>
<polygon fill="none" stroke="#bfbfbf" points="1121.5,-68.5 1121.5,-87.5 1180.5,-87.5 1180.5,-68.5 1121.5,-68.5"/>
<text text-anchor="middle" x="1151" y="-75.5" font-family="Helvetica,sans-Serif" font-size="10.00">stdexcept</text>
</g>
<!-- Node4&#45;&gt;Node26 -->
<g id="edge32" class="edge"><title>Node4&#45;&gt;Node26</title>
<path fill="none" stroke="midnightblue" d="M1020.61,-236.459C1008.01,-223.911 988.366,-199.833 999,-180 1023.46,-134.374 1078.62,-105.845 1115.33,-91.1756"/>
<polygon fill="midnightblue" stroke="midnightblue" points="1116.61,-94.4307 1124.69,-87.5727 1114.1,-87.8977 1116.61,-94.4307"/>
</g>
<!-- Node28 -->
<g id="node28" class="node"><title>Node28</title>
<polygon fill="none" stroke="#bfbfbf" points="1008.5,-180.5 1008.5,-199.5 1159.5,-199.5 1159.5,-180.5 1008.5,-180.5"/>
<text text-anchor="middle" x="1084" y="-187.5" font-family="Helvetica,sans-Serif" font-size="10.00">Monitoring/MonitoringFactory.h</text>
</g>
<!-- Node4&#45;&gt;Node28 -->
<g id="edge31" class="edge"><title>Node4&#45;&gt;Node28</title>
<path fill="none" stroke="midnightblue" d="M1038.92,-236.083C1046.78,-228.22 1058.43,-216.569 1067.92,-207.081"/>
<polygon fill="midnightblue" stroke="midnightblue" points="1070.65,-209.297 1075.25,-199.751 1065.7,-204.347 1070.65,-209.297"/>
</g>
<!-- Node8 -->
<g id="node8" class="node"><title>Node8</title>
<g id="a_node8"><a xlink:href="../../dc/d03/MemoryResources_8h.html" target="_top" xlink:title="MemoryResources/MemoryResources.h">
<polygon fill="none" stroke="black" points="558.5,-68.5 558.5,-87.5 751.5,-87.5 751.5,-68.5 558.5,-68.5"/>
<text text-anchor="middle" x="655" y="-75.5" font-family="Helvetica,sans-Serif" font-size="10.00">MemoryResources/MemoryResources.h</text>
</a>
</g>
</g>
<!-- Node7&#45;&gt;Node8 -->
<g id="edge7" class="edge"><title>Node7&#45;&gt;Node8</title>
<path fill="none" stroke="midnightblue" d="M827.857,-180.412C811.234,-171.506 784.638,-157.079 762,-144 732.491,-126.951 698.989,-106.402 677.456,-93.0369"/>
<polygon fill="midnightblue" stroke="midnightblue" points="679.075,-89.9215 668.735,-87.6099 675.376,-95.8648 679.075,-89.9215"/>
</g>
<!-- Node16 -->
<g id="node16" class="node"><title>Node16</title>
<polygon fill="none" stroke="#bfbfbf" points="0,-6.5 0,-25.5 40,-25.5 40,-6.5 0,-6.5"/>
<text text-anchor="middle" x="20" y="-13.5" font-family="Helvetica,sans-Serif" font-size="10.00">utility</text>
</g>
<!-- Node7&#45;&gt;Node16 -->
<g id="edge29" class="edge"><title>Node7&#45;&gt;Node16</title>
<path fill="none" stroke="midnightblue" d="M791.93,-180.69C638.332,-155.868 189.117,-80.9599 49,-32 47.3445,-31.4215 45.6656,-30.7638 43.9932,-30.0544"/>
<polygon fill="midnightblue" stroke="midnightblue" points="45.2252,-26.7644 34.6924,-25.619 42.212,-33.0827 45.2252,-26.7644"/>
</g>
<!-- Node21 -->
<g id="node21" class="node"><title>Node21</title>
<g id="a_node21"><a xlink:href="../../dc/dcd/DataHeader_8h.html" target="_top" xlink:title="Headers/DataHeader.h">
<polygon fill="none" stroke="black" points="834.5,-124.5 834.5,-143.5 951.5,-143.5 951.5,-124.5 834.5,-124.5"/>
<text text-anchor="middle" x="893" y="-131.5" font-family="Helvetica,sans-Serif" font-size="10.00">Headers/DataHeader.h</text>
</a>
</g>
</g>
<!-- Node7&#45;&gt;Node21 -->
<g id="edge20" class="edge"><title>Node7&#45;&gt;Node21</title>
<path fill="none" stroke="midnightblue" d="M852.091,-180.083C859.155,-172.298 869.588,-160.801 878.149,-151.367"/>
<polygon fill="midnightblue" stroke="midnightblue" points="880.931,-153.509 885.059,-143.751 875.747,-148.805 880.931,-153.509"/>
</g>
<!-- Node27 -->
<g id="node27" class="node"><title>Node27</title>
<polygon fill="none" stroke="#bfbfbf" points="771.5,-124.5 771.5,-143.5 816.5,-143.5 816.5,-124.5 771.5,-124.5"/>
<text text-anchor="middle" x="794" y="-131.5" font-family="Helvetica,sans-Serif" font-size="10.00">gsl/gsl</text>
</g>
<!-- Node7&#45;&gt;Node27 -->
<g id="edge30" class="edge"><title>Node7&#45;&gt;Node27</title>
<path fill="none" stroke="midnightblue" d="M835.744,-180.083C828.535,-172.298 817.89,-160.801 809.154,-151.367"/>
<polygon fill="midnightblue" stroke="midnightblue" points="811.465,-148.711 802.103,-143.751 806.329,-153.467 811.465,-148.711"/>
</g>
<!-- Node9 -->
<g id="node9" class="node"><title>Node9</title>
<polygon fill="none" stroke="#bfbfbf" points="656,-1 656,-31 756,-31 756,-1 656,-1"/>
<text text-anchor="start" x="664" y="-19" font-family="Helvetica,sans-Serif" font-size="10.00">boost/container/flat</text>
<text text-anchor="middle" x="706" y="-8" font-family="Helvetica,sans-Serif" font-size="10.00">_map.hpp</text>
</g>
<!-- Node8&#45;&gt;Node9 -->
<g id="edge8" class="edge"><title>Node8&#45;&gt;Node9</title>
<path fill="none" stroke="midnightblue" d="M662.307,-68.4035C668.827,-60.733 678.658,-49.1673 687.344,-38.9478"/>
<polygon fill="midnightblue" stroke="midnightblue" points="690.171,-41.027 693.98,-31.1408 684.837,-36.4934 690.171,-41.027"/>
</g>
<!-- Node10 -->
<g id="node10" class="node"><title>Node10</title>
<polygon fill="none" stroke="#bfbfbf" points="774,-1 774,-31 890,-31 890,-1 774,-1"/>
<text text-anchor="start" x="782" y="-19" font-family="Helvetica,sans-Serif" font-size="10.00">boost/container/pmr</text>
<text text-anchor="middle" x="832" y="-8" font-family="Helvetica,sans-Serif" font-size="10.00">/memory_resource.hpp</text>
</g>
<!-- Node8&#45;&gt;Node10 -->
<g id="edge9" class="edge"><title>Node8&#45;&gt;Node10</title>
<path fill="none" stroke="midnightblue" d="M680.36,-68.4035C706.547,-59.5263 748.125,-45.4321 781.126,-34.2453"/>
<polygon fill="midnightblue" stroke="midnightblue" points="782.278,-37.5505 790.625,-31.0253 780.031,-30.921 782.278,-37.5505"/>
</g>
<!-- Node11 -->
<g id="node11" class="node"><title>Node11</title>
<polygon fill="none" stroke="#bfbfbf" points="908,-1 908,-31 1064,-31 1064,-1 908,-1"/>
<text text-anchor="start" x="916" y="-19" font-family="Helvetica,sans-Serif" font-size="10.00">boost/container/pmr</text>
<text text-anchor="middle" x="986" y="-8" font-family="Helvetica,sans-Serif" font-size="10.00">/monotonic_buffer_resource.hpp</text>
</g>
<!-- Node8&#45;&gt;Node11 -->
<g id="edge10" class="edge"><title>Node8&#45;&gt;Node11</title>
<path fill="none" stroke="midnightblue" d="M702.073,-68.4672C753.068,-59.2233 835.565,-44.2692 898.526,-32.8564"/>
<polygon fill="midnightblue" stroke="midnightblue" points="899.239,-36.2841 908.455,-31.0565 897.991,-29.3964 899.239,-36.2841"/>
</g>
<!-- Node12 -->
<g id="node12" class="node"><title>Node12</title>
<polygon fill="none" stroke="#bfbfbf" points="58.5,-1 58.5,-31 191.5,-31 191.5,-1 58.5,-1"/>
<text text-anchor="start" x="66.5" y="-19" font-family="Helvetica,sans-Serif" font-size="10.00">boost/container/pmr</text>
<text text-anchor="middle" x="125" y="-8" font-family="Helvetica,sans-Serif" font-size="10.00">/polymorphic_allocator.hpp</text>
</g>
<!-- Node8&#45;&gt;Node12 -->
<g id="edge11" class="edge"><title>Node8&#45;&gt;Node12</title>
<path fill="none" stroke="midnightblue" d="M558.134,-70.1093C468.33,-63.0975 330.82,-50.7806 201.736,-32.0138"/>
<polygon fill="midnightblue" stroke="midnightblue" points="202.068,-28.525 191.665,-30.5339 201.05,-35.4507 202.068,-28.525"/>
</g>
<!-- Node13 -->
<g id="node13" class="node"><title>Node13</title>
<polygon fill="none" stroke="#bfbfbf" points="1082,-6.5 1082,-25.5 1128,-25.5 1128,-6.5 1082,-6.5"/>
<text text-anchor="middle" x="1105" y="-13.5" font-family="Helvetica,sans-Serif" font-size="10.00">cstring</text>
</g>
<!-- Node8&#45;&gt;Node13 -->
<g id="edge12" class="edge"><title>Node8&#45;&gt;Node13</title>
<path fill="none" stroke="midnightblue" d="M749.726,-68.4673C863.435,-57.9641 1042.69,-40.4803 1073,-32 1075.34,-31.3445 1077.73,-30.5321 1080.09,-29.6272"/>
<polygon fill="midnightblue" stroke="midnightblue" points="1081.68,-32.7523 1089.45,-25.5513 1078.88,-26.3343 1081.68,-32.7523"/>
</g>
<!-- Node14 -->
<g id="node14" class="node"><title>Node14</title>
<polygon fill="none" stroke="#bfbfbf" points="1146.5,-6.5 1146.5,-25.5 1187.5,-25.5 1187.5,-6.5 1146.5,-6.5"/>
<text text-anchor="middle" x="1167" y="-13.5" font-family="Helvetica,sans-Serif" font-size="10.00">string</text>
</g>
<!-- Node8&#45;&gt;Node14 -->
<g id="edge13" class="edge"><title>Node8&#45;&gt;Node14</title>
<path fill="none" stroke="midnightblue" d="M751.089,-68.476C889.055,-56.1741 1127.83,-34.6216 1137,-32 1138.97,-31.436 1140.97,-30.7428 1142.95,-29.9669"/>
<polygon fill="midnightblue" stroke="midnightblue" points="1144.85,-32.9501 1152.49,-25.611 1141.94,-26.583 1144.85,-32.9501"/>
</g>
<!-- Node15 -->
<g id="node15" class="node"><title>Node15</title>
<polygon fill="none" stroke="#bfbfbf" points="210,-6.5 210,-25.5 272,-25.5 272,-6.5 210,-6.5"/>
<text text-anchor="middle" x="241" y="-13.5" font-family="Helvetica,sans-Serif" font-size="10.00">type_traits</text>
</g>
<!-- Node8&#45;&gt;Node15 -->
<g id="edge14" class="edge"><title>Node8&#45;&gt;Node15</title>
<path fill="none" stroke="midnightblue" d="M558.174,-71.7189C481.992,-66.0428 373.604,-54.5888 281,-32 277.582,-31.1662 274.057,-30.1264 270.583,-28.9855"/>
<polygon fill="midnightblue" stroke="midnightblue" points="271.648,-25.6497 261.053,-25.5898 269.298,-32.2435 271.648,-25.6497"/>
</g>
<!-- Node8&#45;&gt;Node16 -->
<g id="edge15" class="edge"><title>Node8&#45;&gt;Node16</title>
<path fill="none" stroke="midnightblue" d="M558.232,-74.5297C412.009,-69.9993 141.948,-58.2987 49,-32 47.0365,-31.4444 45.0517,-30.7485 43.0905,-29.9626"/>
<polygon fill="midnightblue" stroke="midnightblue" points="44.2248,-26.6275 33.6882,-25.5178 41.233,-32.956 44.2248,-26.6275"/>
</g>
<!-- Node8&#45;&gt;Node17 -->
<g id="edge16" class="edge"><title>Node8&#45;&gt;Node17</title>
<path fill="none" stroke="midnightblue" d="M751.69,-68.7009C754.491,-68.4641 757.265,-68.2301 760,-68 953.753,-51.6974 1004.59,-66.1717 1196,-32 1203.14,-30.7247 1210.71,-28.9194 1217.84,-27.0012"/>
<polygon fill="midnightblue" stroke="midnightblue" points="1219.22,-30.2495 1227.89,-24.1585 1217.31,-23.5141 1219.22,-30.2495"/>
</g>
<!-- Node18 -->
<g id="node18" class="node"><title>Node18</title>
<polygon fill="none" stroke="#bfbfbf" points="290.5,-6.5 290.5,-25.5 373.5,-25.5 373.5,-6.5 290.5,-6.5"/>
<text text-anchor="middle" x="332" y="-13.5" font-family="Helvetica,sans-Serif" font-size="10.00">unordered_map</text>
</g>
<!-- Node8&#45;&gt;Node18 -->
<g id="edge17" class="edge"><title>Node8&#45;&gt;Node18</title>
<path fill="none" stroke="midnightblue" d="M588.615,-68.4833C533.043,-60.7756 451.847,-48.1636 382,-32 377.334,-30.9203 372.464,-29.6471 367.673,-28.3065"/>
<polygon fill="midnightblue" stroke="midnightblue" points="368.62,-24.9369 358.04,-25.5001 366.662,-31.6575 368.62,-24.9369"/>
</g>
<!-- Node19 -->
<g id="node19" class="node"><title>Node19</title>
<polygon fill="none" stroke="#bfbfbf" points="391.5,-6.5 391.5,-25.5 488.5,-25.5 488.5,-6.5 391.5,-6.5"/>
<text text-anchor="middle" x="440" y="-13.5" font-family="Helvetica,sans-Serif" font-size="10.00">FairMQMessage.h</text>
</g>
<!-- Node8&#45;&gt;Node19 -->
<g id="edge18" class="edge"><title>Node8&#45;&gt;Node19</title>
<path fill="none" stroke="midnightblue" d="M624.196,-68.4035C586.438,-57.8663 522.339,-39.9783 480.591,-28.3276"/>
<polygon fill="midnightblue" stroke="midnightblue" points="481.32,-24.8975 470.747,-25.5806 479.438,-31.6398 481.32,-24.8975"/>
</g>
<!-- Node20 -->
<g id="node20" class="node"><title>Node20</title>
<polygon fill="none" stroke="#bfbfbf" points="506.5,-6.5 506.5,-25.5 637.5,-25.5 637.5,-6.5 506.5,-6.5"/>
<text text-anchor="middle" x="572" y="-13.5" font-family="Helvetica,sans-Serif" font-size="10.00">FairMQTransportFactory.h</text>
</g>
<!-- Node8&#45;&gt;Node20 -->
<g id="edge19" class="edge"><title>Node8&#45;&gt;Node20</title>
<path fill="none" stroke="midnightblue" d="M643.108,-68.4035C629.795,-58.7797 608,-43.0242 592.043,-31.4891"/>
<polygon fill="midnightblue" stroke="midnightblue" points="594.025,-28.6026 583.87,-25.5806 589.924,-34.2756 594.025,-28.6026"/>
</g>
<!-- Node21&#45;&gt;Node8 -->
<g id="edge28" class="edge"><title>Node21&#45;&gt;Node8</title>
<path fill="none" stroke="midnightblue" d="M855.288,-124.444C813.857,-115.043 747.243,-99.9291 702.333,-89.7393"/>
<polygon fill="midnightblue" stroke="midnightblue" points="703.062,-86.3159 692.535,-87.5164 701.513,-93.1424 703.062,-86.3159"/>
</g>
<!-- Node21&#45;&gt;Node13 -->
<g id="edge24" class="edge"><title>Node21&#45;&gt;Node13</title>
<path fill="none" stroke="midnightblue" d="M897.511,-124.408C905.295,-110.432 922.592,-82.8455 945,-68 994.265,-35.3617 1017.61,-52.6106 1073,-32 1074.85,-31.3099 1076.75,-30.5556 1078.65,-29.7643"/>
<polygon fill="midnightblue" stroke="midnightblue" points="1080.24,-32.8873 1087.95,-25.6243 1077.39,-26.4918 1080.24,-32.8873"/>
</g>
<!-- Node21&#45;&gt;Node14 -->
<g id="edge27" class="edge"><title>Node21&#45;&gt;Node14</title>
<path fill="none" stroke="midnightblue" d="M903.253,-124.261C922.111,-108.342 961.848,-75.56 978,-68 1043.62,-37.2857 1068.77,-56.3783 1137,-32 1138.85,-31.3388 1140.73,-30.5912 1142.61,-29.7915"/>
<polygon fill="midnightblue" stroke="midnightblue" points="1144.17,-32.927 1151.74,-25.5175 1141.2,-26.5872 1144.17,-32.927"/>
</g>
<!-- Node22 -->
<g id="node22" class="node"><title>Node22</title>
<polygon fill="none" stroke="#bfbfbf" points="987,-68.5 987,-87.5 1033,-87.5 1033,-68.5 987,-68.5"/>
<text text-anchor="middle" x="1010" y="-75.5" font-family="Helvetica,sans-Serif" font-size="10.00">cstdint</text>
</g>
<!-- Node21&#45;&gt;Node22 -->
<g id="edge21" class="edge"><title>Node21&#45;&gt;Node22</title>
<path fill="none" stroke="midnightblue" d="M911.539,-124.444C930.623,-115.636 960.575,-101.812 982.436,-91.722"/>
<polygon fill="midnightblue" stroke="midnightblue" points="983.935,-94.8849 991.548,-87.5164 981.001,-88.5292 983.935,-94.8849"/>
</g>
<!-- Node23 -->
<g id="node23" class="node"><title>Node23</title>
<polygon fill="none" stroke="#bfbfbf" points="1051,-68.5 1051,-87.5 1103,-87.5 1103,-68.5 1051,-68.5"/>
<text text-anchor="middle" x="1077" y="-75.5" font-family="Helvetica,sans-Serif" font-size="10.00">memory</text>
</g>
<!-- Node21&#45;&gt;Node23 -->
<g id="edge22" class="edge"><title>Node21&#45;&gt;Node23</title>
<path fill="none" stroke="midnightblue" d="M922.155,-124.444C954.436,-114.97 1006.49,-99.6935 1041.21,-89.5022"/>
<polygon fill="midnightblue" stroke="midnightblue" points="1042.35,-92.8178 1050.96,-86.6433 1040.38,-86.1011 1042.35,-92.8178"/>
</g>
<!-- Node24 -->
<g id="node24" class="node"><title>Node24</title>
<polygon fill="none" stroke="#bfbfbf" points="769.5,-68.5 769.5,-87.5 818.5,-87.5 818.5,-68.5 769.5,-68.5"/>
<text text-anchor="middle" x="794" y="-75.5" font-family="Helvetica,sans-Serif" font-size="10.00">cassert</text>
</g>
<!-- Node21&#45;&gt;Node24 -->
<g id="edge23" class="edge"><title>Node21&#45;&gt;Node24</title>
<path fill="none" stroke="midnightblue" d="M877.094,-124.324C861.362,-115.743 837.058,-102.486 818.791,-92.5224"/>
<polygon fill="midnightblue" stroke="midnightblue" points="820.322,-89.3704 809.867,-87.6545 816.97,-95.5157 820.322,-89.3704"/>
</g>
<!-- Node25 -->
<g id="node25" class="node"><title>Node25</title>
<polygon fill="none" stroke="#bfbfbf" points="837,-68.5 837,-87.5 893,-87.5 893,-68.5 837,-68.5"/>
<text text-anchor="middle" x="865" y="-75.5" font-family="Helvetica,sans-Serif" font-size="10.00">algorithm</text>
</g>
<!-- Node21&#45;&gt;Node25 -->
<g id="edge25" class="edge"><title>Node21&#45;&gt;Node25</title>
<path fill="none" stroke="midnightblue" d="M888.376,-124.083C884.544,-116.691 878.976,-105.953 874.235,-96.8111"/>
<polygon fill="midnightblue" stroke="midnightblue" points="877.248,-95.0175 869.538,-87.7511 871.034,-98.2398 877.248,-95.0175"/>
</g>
<!-- Node21&#45;&gt;Node26 -->
<g id="edge26" class="edge"><title>Node21&#45;&gt;Node26</title>
<path fill="none" stroke="midnightblue" d="M936.28,-124.427C978.432,-116.006 1044.57,-102.605 1111.35,-88.1009"/>
<polygon fill="midnightblue" stroke="midnightblue" points="1112.18,-91.5024 1121.21,-85.9534 1110.69,-84.6629 1112.18,-91.5024"/>
</g>
</g>
</svg>
