<?xml version="1.0" encoding="UTF-8" standalone="no"?>
<!DOCTYPE svg PUBLIC "-//W3C//DTD SVG 1.1//EN"
 "http://www.w3.org/Graphics/SVG/1.1/DTD/svg11.dtd">
<!-- Generated by graphviz version 2.36.0 (20140111.2315)
 -->
<!-- Title: /home/travis/build/AliceO2Group/AliceO2/Detectors/TPC/base/include/TPCBase/ParameterGas.h Pages: 1 -->
<svg width="2944pt" height="242pt"
 viewBox="0.00 0.00 2944.00 242.00" xmlns="http://www.w3.org/2000/svg" xmlns:xlink="http://www.w3.org/1999/xlink">
<g id="graph0" class="graph" transform="scale(1 1) rotate(0) translate(4 238)">
<title>/home/travis/build/AliceO2Group/AliceO2/Detectors/TPC/base/include/TPCBase/ParameterGas.h</title>
<!-- Node1 -->
<g id="node1" class="node"><title>Node1</title>
<polygon fill="#bfbfbf" stroke="black" points="1022.5,-181 1022.5,-233 1165.5,-233 1165.5,-181 1022.5,-181"/>
<text text-anchor="start" x="1030.5" y="-221" font-family="Helvetica,sans-Serif" font-size="10.00">/home/travis/build</text>
<text text-anchor="start" x="1030.5" y="-210" font-family="Helvetica,sans-Serif" font-size="10.00">/AliceO2Group/AliceO2</text>
<text text-anchor="start" x="1030.5" y="-199" font-family="Helvetica,sans-Serif" font-size="10.00">/Detectors/TPC/base/include</text>
<text text-anchor="middle" x="1094" y="-188" font-family="Helvetica,sans-Serif" font-size="10.00">/TPCBase/ParameterGas.h</text>
</g>
<!-- Node2 -->
<g id="node2" class="node"><title>Node2</title>
<g id="a_node2"><a xlink:href="../../dc/d59/MatchTPCITS_8cxx.html" target="_top" xlink:title="/home/travis/build\l/AliceO2Group/AliceO2\l/Detectors/GlobalTracking\l/src/MatchTPCITS.cxx">
<polygon fill="none" stroke="black" points="-0.5,-91 -0.5,-143 130.5,-143 130.5,-91 -0.5,-91"/>
<text text-anchor="start" x="7.5" y="-131" font-family="Helvetica,sans-Serif" font-size="10.00">/home/travis/build</text>
<text text-anchor="start" x="7.5" y="-120" font-family="Helvetica,sans-Serif" font-size="10.00">/AliceO2Group/AliceO2</text>
<text text-anchor="start" x="7.5" y="-109" font-family="Helvetica,sans-Serif" font-size="10.00">/Detectors/GlobalTracking</text>
<text text-anchor="middle" x="65" y="-98" font-family="Helvetica,sans-Serif" font-size="10.00">/src/MatchTPCITS.cxx</text>
</a>
</g>
</g>
<!-- Node1&#45;&gt;Node2 -->
<g id="edge1" class="edge"><title>Node1&#45;&gt;Node2</title>
<path fill="none" stroke="midnightblue" d="M1012.31,-203.509C812.984,-196.978 305.905,-177.51 140,-144 136.893,-143.372 133.739,-142.648 130.571,-141.849"/>
<polygon fill="midnightblue" stroke="midnightblue" points="1012.32,-207.011 1022.42,-203.838 1012.54,-200.015 1012.32,-207.011"/>
</g>
<!-- Node3 -->
<g id="node3" class="node"><title>Node3</title>
<g id="a_node3"><a xlink:href="../../dc/d71/CDBInterface_8cxx.html" target="_top" xlink:title="/home/travis/build\l/AliceO2Group/AliceO2\l/Detectors/TPC/base/src\l/CDBInterface.cxx">
<polygon fill="none" stroke="black" points="149,-91 149,-143 275,-143 275,-91 149,-91"/>
<text text-anchor="start" x="157" y="-131" font-family="Helvetica,sans-Serif" font-size="10.00">/home/travis/build</text>
<text text-anchor="start" x="157" y="-120" font-family="Helvetica,sans-Serif" font-size="10.00">/AliceO2Group/AliceO2</text>
<text text-anchor="start" x="157" y="-109" font-family="Helvetica,sans-Serif" font-size="10.00">/Detectors/TPC/base/src</text>
<text text-anchor="middle" x="212" y="-98" font-family="Helvetica,sans-Serif" font-size="10.00">/CDBInterface.cxx</text>
</a>
</g>
</g>
<!-- Node1&#45;&gt;Node3 -->
<g id="edge2" class="edge"><title>Node1&#45;&gt;Node3</title>
<path fill="none" stroke="midnightblue" d="M1012.07,-206.978C864.669,-207.14 545.751,-200.192 284,-144 281.141,-143.386 278.242,-142.686 275.331,-141.919"/>
<polygon fill="midnightblue" stroke="midnightblue" points="1012.39,-210.477 1022.38,-206.954 1012.37,-203.477 1012.39,-210.477"/>
</g>
<!-- Node4 -->
<g id="node4" class="node"><title>Node4</title>
<g id="a_node4"><a xlink:href="../../dd/d64/ParameterGas_8cxx.html" target="_top" xlink:title="Implementation of the parameter class for the detector gas. ">
<polygon fill="none" stroke="black" points="293,-91 293,-143 419,-143 419,-91 293,-91"/>
<text text-anchor="start" x="301" y="-131" font-family="Helvetica,sans-Serif" font-size="10.00">/home/travis/build</text>
<text text-anchor="start" x="301" y="-120" font-family="Helvetica,sans-Serif" font-size="10.00">/AliceO2Group/AliceO2</text>
<text text-anchor="start" x="301" y="-109" font-family="Helvetica,sans-Serif" font-size="10.00">/Detectors/TPC/base/src</text>
<text text-anchor="middle" x="356" y="-98" font-family="Helvetica,sans-Serif" font-size="10.00">/ParameterGas.cxx</text>
</a>
</g>
</g>
<!-- Node1&#45;&gt;Node4 -->
<g id="edge3" class="edge"><title>Node1&#45;&gt;Node4</title>
<path fill="none" stroke="midnightblue" d="M1012.09,-205.026C885.392,-202.036 634.898,-190.197 428,-144 425.146,-143.363 422.252,-142.643 419.344,-141.86"/>
<polygon fill="midnightblue" stroke="midnightblue" points="1012.03,-208.526 1022.11,-205.25 1012.19,-201.527 1012.03,-208.526"/>
</g>
<!-- Node5 -->
<g id="node5" class="node"><title>Node5</title>
<g id="a_node5"><a xlink:href="../../d1/d8a/testTPCCDBInterface_8cxx.html" target="_top" xlink:title="/home/travis/build\l/AliceO2Group/AliceO2\l/Detectors/TPC/base/test\l/testTPCCDBInterface.cxx">
<polygon fill="none" stroke="black" points="437.5,-91 437.5,-143 572.5,-143 572.5,-91 437.5,-91"/>
<text text-anchor="start" x="445.5" y="-131" font-family="Helvetica,sans-Serif" font-size="10.00">/home/travis/build</text>
<text text-anchor="start" x="445.5" y="-120" font-family="Helvetica,sans-Serif" font-size="10.00">/AliceO2Group/AliceO2</text>
<text text-anchor="start" x="445.5" y="-109" font-family="Helvetica,sans-Serif" font-size="10.00">/Detectors/TPC/base/test</text>
<text text-anchor="middle" x="505" y="-98" font-family="Helvetica,sans-Serif" font-size="10.00">/testTPCCDBInterface.cxx</text>
</a>
</g>
</g>
<!-- Node1&#45;&gt;Node5 -->
<g id="edge4" class="edge"><title>Node1&#45;&gt;Node5</title>
<path fill="none" stroke="midnightblue" d="M1012,-201.395C909.958,-194.455 730.859,-178.291 581,-144 578.281,-143.378 575.523,-142.694 572.749,-141.963"/>
<polygon fill="midnightblue" stroke="midnightblue" points="1012.03,-204.904 1022.24,-202.078 1012.49,-197.92 1012.03,-204.904"/>
</g>
<!-- Node6 -->
<g id="node6" class="node"><title>Node6</title>
<g id="a_node6"><a xlink:href="../../da/d69/testTPCParameters_8cxx.html" target="_top" xlink:title="This task tests the Parameter handling. ">
<polygon fill="none" stroke="black" points="590.5,-91 590.5,-143 719.5,-143 719.5,-91 590.5,-91"/>
<text text-anchor="start" x="598.5" y="-131" font-family="Helvetica,sans-Serif" font-size="10.00">/home/travis/build</text>
<text text-anchor="start" x="598.5" y="-120" font-family="Helvetica,sans-Serif" font-size="10.00">/AliceO2Group/AliceO2</text>
<text text-anchor="start" x="598.5" y="-109" font-family="Helvetica,sans-Serif" font-size="10.00">/Detectors/TPC/base/test</text>
<text text-anchor="middle" x="655" y="-98" font-family="Helvetica,sans-Serif" font-size="10.00">/testTPCParameters.cxx</text>
</a>
</g>
</g>
<!-- Node1&#45;&gt;Node6 -->
<g id="edge5" class="edge"><title>Node1&#45;&gt;Node6</title>
<path fill="none" stroke="midnightblue" d="M1012.09,-196.285C937.338,-186.44 824.192,-169.073 728,-144 725.266,-143.287 722.49,-142.517 719.696,-141.702"/>
<polygon fill="midnightblue" stroke="midnightblue" points="1012.01,-199.803 1022.37,-197.624 1012.91,-192.862 1012.01,-199.803"/>
</g>
<!-- Node7 -->
<g id="node7" class="node"><title>Node7</title>
<g id="a_node7"><a xlink:href="../../d4/d7c/HardwareClusterDecoder_8cxx.html" target="_top" xlink:title="/home/travis/build\l/AliceO2Group/AliceO2\l/Detectors/TPC/reconstruction\l/src/HardwareClusterDecoder.cxx">
<polygon fill="none" stroke="black" points="737.5,-91 737.5,-143 902.5,-143 902.5,-91 737.5,-91"/>
<text text-anchor="start" x="745.5" y="-131" font-family="Helvetica,sans-Serif" font-size="10.00">/home/travis/build</text>
<text text-anchor="start" x="745.5" y="-120" font-family="Helvetica,sans-Serif" font-size="10.00">/AliceO2Group/AliceO2</text>
<text text-anchor="start" x="745.5" y="-109" font-family="Helvetica,sans-Serif" font-size="10.00">/Detectors/TPC/reconstruction</text>
<text text-anchor="middle" x="820" y="-98" font-family="Helvetica,sans-Serif" font-size="10.00">/src/HardwareClusterDecoder.cxx</text>
</a>
</g>
</g>
<!-- Node1&#45;&gt;Node7 -->
<g id="edge6" class="edge"><title>Node1&#45;&gt;Node7</title>
<path fill="none" stroke="midnightblue" d="M1012.79,-179.919C976.484,-168.258 933.868,-154.571 897.95,-143.035"/>
<polygon fill="midnightblue" stroke="midnightblue" points="1011.78,-183.268 1022.37,-182.994 1013.92,-176.604 1011.78,-183.268"/>
</g>
<!-- Node8 -->
<g id="node8" class="node"><title>Node8</title>
<g id="a_node8"><a xlink:href="../../d8/ded/TPCCATracking_8cxx.html" target="_top" xlink:title="/home/travis/build\l/AliceO2Group/AliceO2\l/Detectors/TPC/reconstruction\l/src/TPCCATracking.cxx">
<polygon fill="none" stroke="black" points="921,-91 921,-143 1071,-143 1071,-91 921,-91"/>
<text text-anchor="start" x="929" y="-131" font-family="Helvetica,sans-Serif" font-size="10.00">/home/travis/build</text>
<text text-anchor="start" x="929" y="-120" font-family="Helvetica,sans-Serif" font-size="10.00">/AliceO2Group/AliceO2</text>
<text text-anchor="start" x="929" y="-109" font-family="Helvetica,sans-Serif" font-size="10.00">/Detectors/TPC/reconstruction</text>
<text text-anchor="middle" x="996" y="-98" font-family="Helvetica,sans-Serif" font-size="10.00">/src/TPCCATracking.cxx</text>
</a>
</g>
</g>
<!-- Node1&#45;&gt;Node8 -->
<g id="edge7" class="edge"><title>Node1&#45;&gt;Node8</title>
<path fill="none" stroke="midnightblue" d="M1058.31,-173.951C1047.04,-163.829 1034.75,-152.795 1024.09,-143.221"/>
<polygon fill="midnightblue" stroke="midnightblue" points="1056.14,-176.706 1065.92,-180.783 1060.82,-171.497 1056.14,-176.706"/>
</g>
<!-- Node9 -->
<g id="node9" class="node"><title>Node9</title>
<g id="a_node9"><a xlink:href="../../d2/da8/ElectronTransport_8h.html" target="_top" xlink:title="Definition of the electron transport. ">
<polygon fill="none" stroke="black" points="1089,-91 1089,-143 1297,-143 1297,-91 1089,-91"/>
<text text-anchor="start" x="1097" y="-131" font-family="Helvetica,sans-Serif" font-size="10.00">/home/travis/build</text>
<text text-anchor="start" x="1097" y="-120" font-family="Helvetica,sans-Serif" font-size="10.00">/AliceO2Group/AliceO2</text>
<text text-anchor="start" x="1097" y="-109" font-family="Helvetica,sans-Serif" font-size="10.00">/Detectors/TPC/simulation</text>
<text text-anchor="middle" x="1193" y="-98" font-family="Helvetica,sans-Serif" font-size="10.00">/include/TPCSimulation/ElectronTransport.h</text>
</a>
</g>
</g>
<!-- Node1&#45;&gt;Node9 -->
<g id="edge8" class="edge"><title>Node1&#45;&gt;Node9</title>
<path fill="none" stroke="midnightblue" d="M1130.06,-173.951C1141.44,-163.829 1153.86,-152.795 1164.63,-143.221"/>
<polygon fill="midnightblue" stroke="midnightblue" points="1127.52,-171.523 1122.37,-180.783 1132.17,-176.755 1127.52,-171.523"/>
</g>
<!-- Node10 -->
<g id="node10" class="node"><title>Node10</title>
<g id="a_node10"><a xlink:href="../../d7/d0a/TPC_2simulation_2src_2Digitizer_8cxx.html" target="_top" xlink:title="/home/travis/build\l/AliceO2Group/AliceO2\l/Detectors/TPC/simulation\l/src/Digitizer.cxx">
<polygon fill="none" stroke="black" points="1279.5,-1 1279.5,-53 1412.5,-53 1412.5,-1 1279.5,-1"/>
<text text-anchor="start" x="1287.5" y="-41" font-family="Helvetica,sans-Serif" font-size="10.00">/home/travis/build</text>
<text text-anchor="start" x="1287.5" y="-30" font-family="Helvetica,sans-Serif" font-size="10.00">/AliceO2Group/AliceO2</text>
<text text-anchor="start" x="1287.5" y="-19" font-family="Helvetica,sans-Serif" font-size="10.00">/Detectors/TPC/simulation</text>
<text text-anchor="middle" x="1346" y="-8" font-family="Helvetica,sans-Serif" font-size="10.00">/src/Digitizer.cxx</text>
</a>
</g>
</g>
<!-- Node1&#45;&gt;Node10 -->
<g id="edge27" class="edge"><title>Node1&#45;&gt;Node10</title>
<path fill="none" stroke="midnightblue" d="M1175.57,-193.554C1233.58,-183.016 1304.67,-166.097 1325,-144 1347.59,-119.451 1349.93,-79.1361 1348.64,-53.0845"/>
<polygon fill="midnightblue" stroke="midnightblue" points="1174.88,-190.122 1165.65,-195.319 1176.11,-197.014 1174.88,-190.122"/>
</g>
<!-- Node12 -->
<g id="node12" class="node"><title>Node12</title>
<g id="a_node12"><a xlink:href="../../d4/d82/testTPCElectronTransport_8cxx.html" target="_top" xlink:title="This task tests the ElectronTransport module of the TPC digitization. ">
<polygon fill="none" stroke="black" points="1089,-1 1089,-53 1261,-53 1261,-1 1089,-1"/>
<text text-anchor="start" x="1097" y="-41" font-family="Helvetica,sans-Serif" font-size="10.00">/home/travis/build</text>
<text text-anchor="start" x="1097" y="-30" font-family="Helvetica,sans-Serif" font-size="10.00">/AliceO2Group/AliceO2</text>
<text text-anchor="start" x="1097" y="-19" font-family="Helvetica,sans-Serif" font-size="10.00">/Detectors/TPC/simulation</text>
<text text-anchor="middle" x="1175" y="-8" font-family="Helvetica,sans-Serif" font-size="10.00">/test/testTPCElectronTransport.cxx</text>
</a>
</g>
</g>
<!-- Node1&#45;&gt;Node12 -->
<g id="edge28" class="edge"><title>Node1&#45;&gt;Node12</title>
<path fill="none" stroke="midnightblue" d="M1175.78,-192.466C1228.44,-181.893 1289.96,-165.405 1306,-144 1320.39,-124.795 1318.84,-110.278 1306,-90 1295.37,-73.2049 1278.82,-60.8712 1261.03,-51.8449"/>
<polygon fill="midnightblue" stroke="midnightblue" points="1174.86,-189.079 1165.72,-194.437 1176.21,-195.949 1174.86,-189.079"/>
</g>
<!-- Node14 -->
<g id="node14" class="node"><title>Node14</title>
<g id="a_node14"><a xlink:href="../../d9/d79/GEMAmplification_8h.html" target="_top" xlink:title="Definition of the GEM amplification. ">
<polygon fill="none" stroke="black" points="1407.5,-91 1407.5,-143 1616.5,-143 1616.5,-91 1407.5,-91"/>
<text text-anchor="start" x="1415.5" y="-131" font-family="Helvetica,sans-Serif" font-size="10.00">/home/travis/build</text>
<text text-anchor="start" x="1415.5" y="-120" font-family="Helvetica,sans-Serif" font-size="10.00">/AliceO2Group/AliceO2</text>
<text text-anchor="start" x="1415.5" y="-109" font-family="Helvetica,sans-Serif" font-size="10.00">/Detectors/TPC/simulation</text>
<text text-anchor="middle" x="1512" y="-98" font-family="Helvetica,sans-Serif" font-size="10.00">/include/TPCSimulation/GEMAmplification.h</text>
</a>
</g>
</g>
<!-- Node1&#45;&gt;Node14 -->
<g id="edge13" class="edge"><title>Node1&#45;&gt;Node14</title>
<path fill="none" stroke="midnightblue" d="M1175.83,-188.772C1242.06,-174.829 1335.78,-155.1 1407.44,-140.012"/>
<polygon fill="midnightblue" stroke="midnightblue" points="1174.92,-185.387 1165.86,-190.872 1176.36,-192.237 1174.92,-185.387"/>
</g>
<!-- Node16 -->
<g id="node16" class="node"><title>Node16</title>
<g id="a_node16"><a xlink:href="../../d5/d97/testTPCGEMAmplification_8cxx.html" target="_top" xlink:title="/home/travis/build\l/AliceO2Group/AliceO2\l/Detectors/TPC/simulation\l/test/testTPCGEMAmplification.cxx">
<polygon fill="none" stroke="black" points="1763.5,-1 1763.5,-53 1936.5,-53 1936.5,-1 1763.5,-1"/>
<text text-anchor="start" x="1771.5" y="-41" font-family="Helvetica,sans-Serif" font-size="10.00">/home/travis/build</text>
<text text-anchor="start" x="1771.5" y="-30" font-family="Helvetica,sans-Serif" font-size="10.00">/AliceO2Group/AliceO2</text>
<text text-anchor="start" x="1771.5" y="-19" font-family="Helvetica,sans-Serif" font-size="10.00">/Detectors/TPC/simulation</text>
<text text-anchor="middle" x="1850" y="-8" font-family="Helvetica,sans-Serif" font-size="10.00">/test/testTPCGEMAmplification.cxx</text>
</a>
</g>
</g>
<!-- Node1&#45;&gt;Node16 -->
<g id="edge29" class="edge"><title>Node1&#45;&gt;Node16</title>
<path fill="none" stroke="midnightblue" d="M1175.96,-205.473C1281.88,-202.762 1471,-190.984 1625,-144 1694.78,-122.711 1768.67,-80.2564 1812,-53.0369"/>
<polygon fill="midnightblue" stroke="midnightblue" points="1175.57,-201.981 1165.66,-205.714 1175.74,-208.979 1175.57,-201.981"/>
</g>
<!-- Node18 -->
<g id="node18" class="node"><title>Node18</title>
<g id="a_node18"><a xlink:href="../../d0/d45/SAMPAProcessing_8h.html" target="_top" xlink:title="Definition of the SAMPA response. ">
<polygon fill="none" stroke="black" points="2082.5,-91 2082.5,-143 2297.5,-143 2297.5,-91 2082.5,-91"/>
<text text-anchor="start" x="2090.5" y="-131" font-family="Helvetica,sans-Serif" font-size="10.00">/home/travis/build</text>
<text text-anchor="start" x="2090.5" y="-120" font-family="Helvetica,sans-Serif" font-size="10.00">/AliceO2Group/AliceO2</text>
<text text-anchor="start" x="2090.5" y="-109" font-family="Helvetica,sans-Serif" font-size="10.00">/Detectors/TPC/simulation</text>
<text text-anchor="middle" x="2190" y="-98" font-family="Helvetica,sans-Serif" font-size="10.00">/include/TPCSimulation/SAMPAProcessing.h</text>
</a>
</g>
</g>
<!-- Node1&#45;&gt;Node18 -->
<g id="edge18" class="edge"><title>Node1&#45;&gt;Node18</title>
<path fill="none" stroke="midnightblue" d="M1176.1,-199.408C1371.36,-183.73 1863.4,-144.223 2082.21,-126.655"/>
<polygon fill="midnightblue" stroke="midnightblue" points="1175.6,-195.937 1165.91,-200.226 1176.16,-202.914 1175.6,-195.937"/>
</g>
<!-- Node25 -->
<g id="node25" class="node"><title>Node25</title>
<g id="a_node25"><a xlink:href="../../d2/d2c/TPC_2simulation_2src_2Detector_8cxx.html" target="_top" xlink:title="/home/travis/build\l/AliceO2Group/AliceO2\l/Detectors/TPC/simulation\l/src/Detector.cxx">
<polygon fill="none" stroke="black" points="2315.5,-91 2315.5,-143 2448.5,-143 2448.5,-91 2315.5,-91"/>
<text text-anchor="start" x="2323.5" y="-131" font-family="Helvetica,sans-Serif" font-size="10.00">/home/travis/build</text>
<text text-anchor="start" x="2323.5" y="-120" font-family="Helvetica,sans-Serif" font-size="10.00">/AliceO2Group/AliceO2</text>
<text text-anchor="start" x="2323.5" y="-109" font-family="Helvetica,sans-Serif" font-size="10.00">/Detectors/TPC/simulation</text>
<text text-anchor="middle" x="2382" y="-98" font-family="Helvetica,sans-Serif" font-size="10.00">/src/Detector.cxx</text>
</a>
</g>
</g>
<!-- Node1&#45;&gt;Node25 -->
<g id="edge26" class="edge"><title>Node1&#45;&gt;Node25</title>
<path fill="none" stroke="midnightblue" d="M1175.87,-204.776C1411.55,-200.782 2088.64,-185.886 2306,-144 2309.01,-143.419 2312.07,-142.747 2315.14,-142.002"/>
<polygon fill="midnightblue" stroke="midnightblue" points="1175.59,-201.28 1165.65,-204.947 1175.71,-208.279 1175.59,-201.28"/>
</g>
<!-- Node9&#45;&gt;Node10 -->
<g id="edge9" class="edge"><title>Node9&#45;&gt;Node10</title>
<path fill="none" stroke="midnightblue" d="M1245.73,-85.6704C1264.22,-75.0376 1284.76,-63.2222 1302.41,-53.0687"/>
<polygon fill="midnightblue" stroke="midnightblue" points="1243.77,-82.7629 1236.84,-90.7827 1247.26,-88.8309 1243.77,-82.7629"/>
</g>
<!-- Node11 -->
<g id="node11" class="node"><title>Node11</title>
<g id="a_node11"><a xlink:href="../../d1/d98/ElectronTransport_8cxx.html" target="_top" xlink:title="Implementation of the electron transport. ">
<polygon fill="none" stroke="black" points="937.5,-1 937.5,-53 1070.5,-53 1070.5,-1 937.5,-1"/>
<text text-anchor="start" x="945.5" y="-41" font-family="Helvetica,sans-Serif" font-size="10.00">/home/travis/build</text>
<text text-anchor="start" x="945.5" y="-30" font-family="Helvetica,sans-Serif" font-size="10.00">/AliceO2Group/AliceO2</text>
<text text-anchor="start" x="945.5" y="-19" font-family="Helvetica,sans-Serif" font-size="10.00">/Detectors/TPC/simulation</text>
<text text-anchor="middle" x="1004" y="-8" font-family="Helvetica,sans-Serif" font-size="10.00">/src/ElectronTransport.cxx</text>
</a>
</g>
</g>
<!-- Node9&#45;&gt;Node11 -->
<g id="edge10" class="edge"><title>Node9&#45;&gt;Node11</title>
<path fill="none" stroke="midnightblue" d="M1129.97,-86.6536C1106.64,-75.7923 1080.43,-63.5862 1057.98,-53.1328"/>
<polygon fill="midnightblue" stroke="midnightblue" points="1128.55,-89.8524 1139.09,-90.9005 1131.5,-83.5065 1128.55,-89.8524"/>
</g>
<!-- Node9&#45;&gt;Node12 -->
<g id="edge11" class="edge"><title>Node9&#45;&gt;Node12</title>
<path fill="none" stroke="midnightblue" d="M1185.74,-80.4892C1183.86,-71.3088 1181.88,-61.616 1180.13,-53.0921"/>
<polygon fill="midnightblue" stroke="midnightblue" points="1182.36,-81.451 1187.79,-90.5468 1189.22,-80.0482 1182.36,-81.451"/>
</g>
<!-- Node13 -->
<g id="node13" class="node"><title>Node13</title>
<g id="a_node13"><a xlink:href="../../db/df6/TPCDriftTimeDigitizerSpec_8cxx.html" target="_top" xlink:title="/home/travis/build\l/AliceO2Group/AliceO2\l/Steer/DigitizerWorkflow\l/src/TPCDriftTimeDigitizerSpec.cxx">
<polygon fill="none" stroke="black" points="745,-1 745,-53 919,-53 919,-1 745,-1"/>
<text text-anchor="start" x="753" y="-41" font-family="Helvetica,sans-Serif" font-size="10.00">/home/travis/build</text>
<text text-anchor="start" x="753" y="-30" font-family="Helvetica,sans-Serif" font-size="10.00">/AliceO2Group/AliceO2</text>
<text text-anchor="start" x="753" y="-19" font-family="Helvetica,sans-Serif" font-size="10.00">/Steer/DigitizerWorkflow</text>
<text text-anchor="middle" x="832" y="-8" font-family="Helvetica,sans-Serif" font-size="10.00">/src/TPCDriftTimeDigitizerSpec.cxx</text>
</a>
</g>
</g>
<!-- Node9&#45;&gt;Node13 -->
<g id="edge12" class="edge"><title>Node9&#45;&gt;Node13</title>
<path fill="none" stroke="midnightblue" d="M1078.69,-89.6676C1020.75,-76.2368 956.692,-61.2394 928,-54 925.07,-53.2607 922.092,-52.501 919.086,-51.7272"/>
<polygon fill="midnightblue" stroke="midnightblue" points="1078.14,-93.1339 1088.68,-91.981 1079.72,-86.3145 1078.14,-93.1339"/>
</g>
<!-- Node14&#45;&gt;Node10 -->
<g id="edge14" class="edge"><title>Node14&#45;&gt;Node10</title>
<path fill="none" stroke="midnightblue" d="M1455.33,-85.9601C1435.14,-75.2526 1412.62,-63.3145 1393.29,-53.0687"/>
<polygon fill="midnightblue" stroke="midnightblue" points="1453.96,-89.1913 1464.43,-90.7827 1457.24,-83.0066 1453.96,-89.1913"/>
</g>
<!-- Node15 -->
<g id="node15" class="node"><title>Node15</title>
<g id="a_node15"><a xlink:href="../../db/d6c/GEMAmplification_8cxx.html" target="_top" xlink:title="Implementation of the GEM amplification. ">
<polygon fill="none" stroke="black" points="1611,-1 1611,-53 1745,-53 1745,-1 1611,-1"/>
<text text-anchor="start" x="1619" y="-41" font-family="Helvetica,sans-Serif" font-size="10.00">/home/travis/build</text>
<text text-anchor="start" x="1619" y="-30" font-family="Helvetica,sans-Serif" font-size="10.00">/AliceO2Group/AliceO2</text>
<text text-anchor="start" x="1619" y="-19" font-family="Helvetica,sans-Serif" font-size="10.00">/Detectors/TPC/simulation</text>
<text text-anchor="middle" x="1678" y="-8" font-family="Helvetica,sans-Serif" font-size="10.00">/src/GEMAmplification.cxx</text>
</a>
</g>
</g>
<!-- Node14&#45;&gt;Node15 -->
<g id="edge15" class="edge"><title>Node14&#45;&gt;Node15</title>
<path fill="none" stroke="midnightblue" d="M1568.67,-85.9601C1588.86,-75.2526 1611.38,-63.3145 1630.71,-53.0687"/>
<polygon fill="midnightblue" stroke="midnightblue" points="1566.76,-83.0066 1559.57,-90.7827 1570.04,-89.1913 1566.76,-83.0066"/>
</g>
<!-- Node14&#45;&gt;Node16 -->
<g id="edge16" class="edge"><title>Node14&#45;&gt;Node16</title>
<path fill="none" stroke="midnightblue" d="M1620.88,-88.4427C1662.55,-77.8061 1710.51,-65.4586 1754,-54 1757.09,-53.186 1760.23,-52.354 1763.41,-51.5106"/>
<polygon fill="midnightblue" stroke="midnightblue" points="1619.81,-85.1038 1610.98,-90.9665 1621.54,-91.8867 1619.81,-85.1038"/>
</g>
<!-- Node17 -->
<g id="node17" class="node"><title>Node17</title>
<g id="a_node17"><a xlink:href="../../d2/dd7/SimpleDigitizerWorkflow_8cxx.html" target="_top" xlink:title="/home/travis/build\l/AliceO2Group/AliceO2\l/Steer/DigitizerWorkflow\l/src/SimpleDigitizerWorkflow.cxx">
<polygon fill="none" stroke="black" points="1431,-1 1431,-53 1593,-53 1593,-1 1431,-1"/>
<text text-anchor="start" x="1439" y="-41" font-family="Helvetica,sans-Serif" font-size="10.00">/home/travis/build</text>
<text text-anchor="start" x="1439" y="-30" font-family="Helvetica,sans-Serif" font-size="10.00">/AliceO2Group/AliceO2</text>
<text text-anchor="start" x="1439" y="-19" font-family="Helvetica,sans-Serif" font-size="10.00">/Steer/DigitizerWorkflow</text>
<text text-anchor="middle" x="1512" y="-8" font-family="Helvetica,sans-Serif" font-size="10.00">/src/SimpleDigitizerWorkflow.cxx</text>
</a>
</g>
</g>
<!-- Node14&#45;&gt;Node17 -->
<g id="edge17" class="edge"><title>Node14&#45;&gt;Node17</title>
<path fill="none" stroke="midnightblue" d="M1512,-80.4892C1512,-71.3088 1512,-61.616 1512,-53.0921"/>
<polygon fill="midnightblue" stroke="midnightblue" points="1508.5,-80.5467 1512,-90.5468 1515.5,-80.5468 1508.5,-80.5467"/>
</g>
<!-- Node18&#45;&gt;Node10 -->
<g id="edge21" class="edge"><title>Node18&#45;&gt;Node10</title>
<path fill="none" stroke="midnightblue" d="M2071.99,-115.543C1920.1,-112.894 1648.76,-101.169 1422,-54 1419,-53.3752 1415.95,-52.6658 1412.88,-51.8909"/>
<polygon fill="midnightblue" stroke="midnightblue" points="2072.21,-119.047 2082.27,-115.712 2072.33,-112.048 2072.21,-119.047"/>
</g>
<!-- Node19 -->
<g id="node19" class="node"><title>Node19</title>
<g id="a_node19"><a xlink:href="../../db/d60/testTracks_8C.html" target="_top" xlink:title="/home/travis/build\l/AliceO2Group/AliceO2\l/Detectors/TPC/reconstruction\l/macro/testTracks.C">
<polygon fill="none" stroke="black" points="2484,-1 2484,-53 2634,-53 2634,-1 2484,-1"/>
<text text-anchor="start" x="2492" y="-41" font-family="Helvetica,sans-Serif" font-size="10.00">/home/travis/build</text>
<text text-anchor="start" x="2492" y="-30" font-family="Helvetica,sans-Serif" font-size="10.00">/AliceO2Group/AliceO2</text>
<text text-anchor="start" x="2492" y="-19" font-family="Helvetica,sans-Serif" font-size="10.00">/Detectors/TPC/reconstruction</text>
<text text-anchor="middle" x="2559" y="-8" font-family="Helvetica,sans-Serif" font-size="10.00">/macro/testTracks.C</text>
</a>
</g>
</g>
<!-- Node18&#45;&gt;Node19 -->
<g id="edge19" class="edge"><title>Node18&#45;&gt;Node19</title>
<path fill="none" stroke="midnightblue" d="M2307.69,-89.8705C2382.85,-73.6806 2403.53,-72.3373 2474,-54 2477.14,-53.1839 2480.33,-52.3267 2483.55,-51.4406"/>
<polygon fill="midnightblue" stroke="midnightblue" points="2306.76,-86.4891 2297.74,-92.0318 2308.25,-93.3296 2306.76,-86.4891"/>
</g>
<!-- Node20 -->
<g id="node20" class="node"><title>Node20</title>
<g id="a_node20"><a xlink:href="../../d1/ddd/DigitGlobalPad_8cxx.html" target="_top" xlink:title="Implementation of the Pad container. ">
<polygon fill="none" stroke="black" points="2652.5,-1 2652.5,-53 2785.5,-53 2785.5,-1 2652.5,-1"/>
<text text-anchor="start" x="2660.5" y="-41" font-family="Helvetica,sans-Serif" font-size="10.00">/home/travis/build</text>
<text text-anchor="start" x="2660.5" y="-30" font-family="Helvetica,sans-Serif" font-size="10.00">/AliceO2Group/AliceO2</text>
<text text-anchor="start" x="2660.5" y="-19" font-family="Helvetica,sans-Serif" font-size="10.00">/Detectors/TPC/simulation</text>
<text text-anchor="middle" x="2719" y="-8" font-family="Helvetica,sans-Serif" font-size="10.00">/src/DigitGlobalPad.cxx</text>
</a>
</g>
</g>
<!-- Node18&#45;&gt;Node20 -->
<g id="edge20" class="edge"><title>Node18&#45;&gt;Node20</title>
<path fill="none" stroke="midnightblue" d="M2307.62,-89.9978C2456.57,-66.5733 2498.89,-85.4543 2642,-54 2645.45,-53.2428 2648.95,-52.3855 2652.47,-51.455"/>
<polygon fill="midnightblue" stroke="midnightblue" points="2306.97,-86.5575 2297.65,-91.6029 2308.08,-93.4684 2306.97,-86.5575"/>
</g>
<!-- Node21 -->
<g id="node21" class="node"><title>Node21</title>
<g id="a_node21"><a xlink:href="../../df/d46/TPC_2simulation_2src_2DigitizerTask_8cxx.html" target="_top" xlink:title="/home/travis/build\l/AliceO2Group/AliceO2\l/Detectors/TPC/simulation\l/src/DigitizerTask.cxx">
<polygon fill="none" stroke="black" points="2803.5,-1 2803.5,-53 2936.5,-53 2936.5,-1 2803.5,-1"/>
<text text-anchor="start" x="2811.5" y="-41" font-family="Helvetica,sans-Serif" font-size="10.00">/home/travis/build</text>
<text text-anchor="start" x="2811.5" y="-30" font-family="Helvetica,sans-Serif" font-size="10.00">/AliceO2Group/AliceO2</text>
<text text-anchor="start" x="2811.5" y="-19" font-family="Helvetica,sans-Serif" font-size="10.00">/Detectors/TPC/simulation</text>
<text text-anchor="middle" x="2870" y="-8" font-family="Helvetica,sans-Serif" font-size="10.00">/src/DigitizerTask.cxx</text>
</a>
</g>
</g>
<!-- Node18&#45;&gt;Node21 -->
<g id="edge22" class="edge"><title>Node18&#45;&gt;Node21</title>
<path fill="none" stroke="midnightblue" d="M2307.7,-90.0129C2523.56,-59.5412 2584.58,-96.8229 2794,-54 2797.01,-53.3854 2800.06,-52.6844 2803.12,-51.9164"/>
<polygon fill="midnightblue" stroke="midnightblue" points="2307.03,-86.5729 2297.63,-91.4665 2308.03,-93.501 2307.03,-86.5729"/>
</g>
<!-- Node22 -->
<g id="node22" class="node"><title>Node22</title>
<g id="a_node22"><a xlink:href="../../d1/dd8/SAMPAProcessing_8cxx.html" target="_top" xlink:title="Implementation of the SAMPA response. ">
<polygon fill="none" stroke="black" points="1954.5,-1 1954.5,-53 2093.5,-53 2093.5,-1 1954.5,-1"/>
<text text-anchor="start" x="1962.5" y="-41" font-family="Helvetica,sans-Serif" font-size="10.00">/home/travis/build</text>
<text text-anchor="start" x="1962.5" y="-30" font-family="Helvetica,sans-Serif" font-size="10.00">/AliceO2Group/AliceO2</text>
<text text-anchor="start" x="1962.5" y="-19" font-family="Helvetica,sans-Serif" font-size="10.00">/Detectors/TPC/simulation</text>
<text text-anchor="middle" x="2024" y="-8" font-family="Helvetica,sans-Serif" font-size="10.00">/src/SAMPAProcessing.cxx</text>
</a>
</g>
</g>
<!-- Node18&#45;&gt;Node22 -->
<g id="edge23" class="edge"><title>Node18&#45;&gt;Node22</title>
<path fill="none" stroke="midnightblue" d="M2133.33,-85.9601C2113.14,-75.2526 2090.62,-63.3145 2071.29,-53.0687"/>
<polygon fill="midnightblue" stroke="midnightblue" points="2131.96,-89.1913 2142.43,-90.7827 2135.24,-83.0066 2131.96,-89.1913"/>
</g>
<!-- Node23 -->
<g id="node23" class="node"><title>Node23</title>
<g id="a_node23"><a xlink:href="../../dd/d5e/testTPCDigitContainer_8cxx.html" target="_top" xlink:title="This task tests the DigitContainer of the TPC digitization. ">
<polygon fill="none" stroke="black" points="2111.5,-1 2111.5,-53 2268.5,-53 2268.5,-1 2111.5,-1"/>
<text text-anchor="start" x="2119.5" y="-41" font-family="Helvetica,sans-Serif" font-size="10.00">/home/travis/build</text>
<text text-anchor="start" x="2119.5" y="-30" font-family="Helvetica,sans-Serif" font-size="10.00">/AliceO2Group/AliceO2</text>
<text text-anchor="start" x="2119.5" y="-19" font-family="Helvetica,sans-Serif" font-size="10.00">/Detectors/TPC/simulation</text>
<text text-anchor="middle" x="2190" y="-8" font-family="Helvetica,sans-Serif" font-size="10.00">/test/testTPCDigitContainer.cxx</text>
</a>
</g>
</g>
<!-- Node18&#45;&gt;Node23 -->
<g id="edge24" class="edge"><title>Node18&#45;&gt;Node23</title>
<path fill="none" stroke="midnightblue" d="M2190,-80.4892C2190,-71.3088 2190,-61.616 2190,-53.0921"/>
<polygon fill="midnightblue" stroke="midnightblue" points="2186.5,-80.5467 2190,-90.5468 2193.5,-80.5468 2186.5,-80.5467"/>
</g>
<!-- Node24 -->
<g id="node24" class="node"><title>Node24</title>
<g id="a_node24"><a xlink:href="../../d0/d5c/testTPCSAMPAProcessing_8cxx.html" target="_top" xlink:title="/home/travis/build\l/AliceO2Group/AliceO2\l/Detectors/TPC/simulation\l/test/testTPCSAMPAProcessing.cxx">
<polygon fill="none" stroke="black" points="2286.5,-1 2286.5,-53 2465.5,-53 2465.5,-1 2286.5,-1"/>
<text text-anchor="start" x="2294.5" y="-41" font-family="Helvetica,sans-Serif" font-size="10.00">/home/travis/build</text>
<text text-anchor="start" x="2294.5" y="-30" font-family="Helvetica,sans-Serif" font-size="10.00">/AliceO2Group/AliceO2</text>
<text text-anchor="start" x="2294.5" y="-19" font-family="Helvetica,sans-Serif" font-size="10.00">/Detectors/TPC/simulation</text>
<text text-anchor="middle" x="2376" y="-8" font-family="Helvetica,sans-Serif" font-size="10.00">/test/testTPCSAMPAProcessing.cxx</text>
</a>
</g>
</g>
<!-- Node18&#45;&gt;Node24 -->
<g id="edge25" class="edge"><title>Node18&#45;&gt;Node24</title>
<path fill="none" stroke="midnightblue" d="M2252.58,-86.3935C2275.44,-75.5755 2301.07,-63.453 2323.01,-53.0687"/>
<polygon fill="midnightblue" stroke="midnightblue" points="2250.84,-83.3422 2243.3,-90.7827 2253.84,-89.6698 2250.84,-83.3422"/>
</g>
</g>
</svg>
