<?xml version="1.0" encoding="UTF-8" standalone="no"?>
<!DOCTYPE svg PUBLIC "-//W3C//DTD SVG 1.1//EN"
 "http://www.w3.org/Graphics/SVG/1.1/DTD/svg11.dtd">
<!-- Generated by graphviz version 2.36.0 (20140111.2315)
 -->
<!-- Title: /home/travis/build/AliceO2Group/AliceO2/Framework/Utils/include/Utils/RootTreeReader.h Pages: 1 -->
<svg width="1292pt" height="298pt"
 viewBox="0.00 0.00 1292.00 298.00" xmlns="http://www.w3.org/2000/svg" xmlns:xlink="http://www.w3.org/1999/xlink">
<g id="graph0" class="graph" transform="scale(1 1) rotate(0) translate(4 294)">
<title>/home/travis/build/AliceO2Group/AliceO2/Framework/Utils/include/Utils/RootTreeReader.h</title>
<!-- Node1 -->
<g id="node1" class="node"><title>Node1</title>
<polygon fill="#bfbfbf" stroke="black" points="800.5,-237 800.5,-289 925.5,-289 925.5,-237 800.5,-237"/>
<text text-anchor="start" x="808.5" y="-277" font-family="Helvetica,sans-Serif" font-size="10.00">/home/travis/build</text>
<text text-anchor="start" x="808.5" y="-266" font-family="Helvetica,sans-Serif" font-size="10.00">/AliceO2Group/AliceO2</text>
<text text-anchor="start" x="808.5" y="-255" font-family="Helvetica,sans-Serif" font-size="10.00">/Framework/Utils/include</text>
<text text-anchor="middle" x="863" y="-244" font-family="Helvetica,sans-Serif" font-size="10.00">/Utils/RootTreeReader.h</text>
</g>
<!-- Node2 -->
<g id="node2" class="node"><title>Node2</title>
<g id="a_node2"><a xlink:href="../../d3/ddf/Output_8h.html" target="_top" xlink:title="Framework/Output.h">
<polygon fill="none" stroke="black" points="399,-180.5 399,-199.5 505,-199.5 505,-180.5 399,-180.5"/>
<text text-anchor="middle" x="452" y="-187.5" font-family="Helvetica,sans-Serif" font-size="10.00">Framework/Output.h</text>
</a>
</g>
</g>
<!-- Node1&#45;&gt;Node2 -->
<g id="edge1" class="edge"><title>Node1&#45;&gt;Node2</title>
<path fill="none" stroke="midnightblue" d="M800.131,-251.139C721.58,-237.57 588.166,-214.523 511.315,-201.247"/>
<polygon fill="midnightblue" stroke="midnightblue" points="511.765,-197.773 501.315,-199.519 510.574,-204.67 511.765,-197.773"/>
</g>
<!-- Node3 -->
<g id="node3" class="node"><title>Node3</title>
<g id="a_node3"><a xlink:href="../../dc/dcd/DataHeader_8h.html" target="_top" xlink:title="Headers/DataHeader.h">
<polygon fill="none" stroke="black" points="261.5,-124.5 261.5,-143.5 378.5,-143.5 378.5,-124.5 261.5,-124.5"/>
<text text-anchor="middle" x="320" y="-131.5" font-family="Helvetica,sans-Serif" font-size="10.00">Headers/DataHeader.h</text>
</a>
</g>
</g>
<!-- Node1&#45;&gt;Node3 -->
<g id="edge24" class="edge"><title>Node1&#45;&gt;Node3</title>
<path fill="none" stroke="midnightblue" d="M800.411,-258.518C689.052,-251.55 461.488,-233.599 390,-200 366.412,-188.914 345.405,-166.943 332.699,-151.629"/>
<polygon fill="midnightblue" stroke="midnightblue" points="335.195,-149.146 326.22,-143.515 329.724,-153.514 335.195,-149.146"/>
</g>
<!-- Node5 -->
<g id="node5" class="node"><title>Node5</title>
<polygon fill="none" stroke="#bfbfbf" points="98,-68.5 98,-87.5 150,-87.5 150,-68.5 98,-68.5"/>
<text text-anchor="middle" x="124" y="-75.5" font-family="Helvetica,sans-Serif" font-size="10.00">memory</text>
</g>
<!-- Node1&#45;&gt;Node5 -->
<g id="edge33" class="edge"><title>Node1&#45;&gt;Node5</title>
<path fill="none" stroke="midnightblue" d="M800.108,-261.372C703.089,-258.838 512.02,-247.593 358,-200 274.262,-174.125 184.766,-119.184 145.057,-93.1929"/>
<polygon fill="midnightblue" stroke="midnightblue" points="146.767,-90.1276 136.495,-87.5301 142.905,-95.966 146.767,-90.1276"/>
</g>
<!-- Node9 -->
<g id="node9" class="node"><title>Node9</title>
<polygon fill="none" stroke="#bfbfbf" points="737.5,-68.5 737.5,-87.5 796.5,-87.5 796.5,-68.5 737.5,-68.5"/>
<text text-anchor="middle" x="767" y="-75.5" font-family="Helvetica,sans-Serif" font-size="10.00">stdexcept</text>
</g>
<!-- Node1&#45;&gt;Node9 -->
<g id="edge31" class="edge"><title>Node1&#45;&gt;Node9</title>
<path fill="none" stroke="midnightblue" d="M838.559,-236.971C829.022,-226.23 818.583,-213.142 811,-200 791.431,-166.085 778.041,-121.929 771.537,-97.4272"/>
<polygon fill="midnightblue" stroke="midnightblue" points="774.907,-96.4788 769.035,-87.6598 768.126,-98.2155 774.907,-96.4788"/>
</g>
<!-- Node10 -->
<g id="node10" class="node"><title>Node10</title>
<polygon fill="none" stroke="#bfbfbf" points="64.5,-6.5 64.5,-25.5 105.5,-25.5 105.5,-6.5 64.5,-6.5"/>
<text text-anchor="middle" x="85" y="-13.5" font-family="Helvetica,sans-Serif" font-size="10.00">string</text>
</g>
<!-- Node1&#45;&gt;Node10 -->
<g id="edge30" class="edge"><title>Node1&#45;&gt;Node10</title>
<path fill="none" stroke="midnightblue" d="M818.081,-236.957C739.843,-194.583 572.34,-109.332 420,-68 287.84,-32.143 244.934,-72.105 114,-32 112.09,-31.4148 110.155,-30.7064 108.24,-29.9198"/>
<polygon fill="midnightblue" stroke="midnightblue" points="109.556,-26.67 99.021,-25.5433 106.554,-32.9936 109.556,-26.67"/>
</g>
<!-- Node16 -->
<g id="node16" class="node"><title>Node16</title>
<polygon fill="none" stroke="#bfbfbf" points="1066,-6.5 1066,-25.5 1128,-25.5 1128,-6.5 1066,-6.5"/>
<text text-anchor="middle" x="1097" y="-13.5" font-family="Helvetica,sans-Serif" font-size="10.00">type_traits</text>
</g>
<!-- Node1&#45;&gt;Node16 -->
<g id="edge32" class="edge"><title>Node1&#45;&gt;Node16</title>
<path fill="none" stroke="midnightblue" d="M851.221,-236.868C834.132,-196.256 808.66,-115.921 849,-68 879.209,-32.1129 1011.73,-44.2894 1057,-32 1060.22,-31.1256 1063.55,-30.0952 1066.84,-28.9905"/>
<polygon fill="midnightblue" stroke="midnightblue" points="1068.25,-32.2034 1076.48,-25.5359 1065.89,-25.6134 1068.25,-32.2034"/>
</g>
<!-- Node17 -->
<g id="node17" class="node"><title>Node17</title>
<polygon fill="none" stroke="#bfbfbf" points="1146,-6.5 1146,-25.5 1186,-25.5 1186,-6.5 1146,-6.5"/>
<text text-anchor="middle" x="1166" y="-13.5" font-family="Helvetica,sans-Serif" font-size="10.00">utility</text>
</g>
<!-- Node1&#45;&gt;Node17 -->
<g id="edge35" class="edge"><title>Node1&#45;&gt;Node17</title>
<path fill="none" stroke="midnightblue" d="M857.552,-236.865C850.212,-195.511 842.706,-113.211 887,-68 926.126,-28.0635 1082.65,-48.7151 1136,-32 1137.92,-31.3994 1139.86,-30.6882 1141.79,-29.9072"/>
<polygon fill="midnightblue" stroke="midnightblue" points="1143.51,-32.9691 1151.13,-25.6087 1140.59,-26.6102 1143.51,-32.9691"/>
</g>
<!-- Node18 -->
<g id="node18" class="node"><title>Node18</title>
<polygon fill="none" stroke="#bfbfbf" points="1204,-6.5 1204,-25.5 1248,-25.5 1248,-6.5 1204,-6.5"/>
<text text-anchor="middle" x="1226" y="-13.5" font-family="Helvetica,sans-Serif" font-size="10.00">vector</text>
</g>
<!-- Node1&#45;&gt;Node18 -->
<g id="edge29" class="edge"><title>Node1&#45;&gt;Node18</title>
<path fill="none" stroke="midnightblue" d="M876.327,-236.679C886.508,-219.134 901.854,-196.122 920,-180 943.315,-159.286 1129.44,-65.2783 1199.47,-30.2271"/>
<polygon fill="midnightblue" stroke="midnightblue" points="1201.18,-33.2885 1208.56,-25.6863 1198.05,-27.0273 1201.18,-33.2885"/>
</g>
<!-- Node23 -->
<g id="node23" class="node"><title>Node23</title>
<polygon fill="none" stroke="#bfbfbf" points="929,-180.5 929,-199.5 985,-199.5 985,-180.5 929,-180.5"/>
<text text-anchor="middle" x="957" y="-187.5" font-family="Helvetica,sans-Serif" font-size="10.00">TChain.h</text>
</g>
<!-- Node1&#45;&gt;Node23 -->
<g id="edge25" class="edge"><title>Node1&#45;&gt;Node23</title>
<path fill="none" stroke="midnightblue" d="M896.141,-236.968C909.788,-226.66 925.147,-215.059 937.022,-206.09"/>
<polygon fill="midnightblue" stroke="midnightblue" points="939.467,-208.63 945.337,-199.81 935.248,-203.044 939.467,-208.63"/>
</g>
<!-- Node24 -->
<g id="node24" class="node"><title>Node24</title>
<polygon fill="none" stroke="#bfbfbf" points="1003,-180.5 1003,-199.5 1053,-199.5 1053,-180.5 1003,-180.5"/>
<text text-anchor="middle" x="1028" y="-187.5" font-family="Helvetica,sans-Serif" font-size="10.00">TTree.h</text>
</g>
<!-- Node1&#45;&gt;Node24 -->
<g id="edge26" class="edge"><title>Node1&#45;&gt;Node24</title>
<path fill="none" stroke="midnightblue" d="M921.173,-236.968C947.403,-225.681 977.236,-212.844 998.696,-203.61"/>
<polygon fill="midnightblue" stroke="midnightblue" points="1000.12,-206.807 1007.92,-199.639 997.355,-200.377 1000.12,-206.807"/>
</g>
<!-- Node25 -->
<g id="node25" class="node"><title>Node25</title>
<polygon fill="none" stroke="#bfbfbf" points="1071,-180.5 1071,-199.5 1133,-199.5 1133,-180.5 1071,-180.5"/>
<text text-anchor="middle" x="1102" y="-187.5" font-family="Helvetica,sans-Serif" font-size="10.00">TBranch.h</text>
</g>
<!-- Node1&#45;&gt;Node25 -->
<g id="edge27" class="edge"><title>Node1&#45;&gt;Node25</title>
<path fill="none" stroke="midnightblue" d="M925.794,-243.346C969.409,-230.389 1026.14,-213.535 1063.29,-202.5"/>
<polygon fill="midnightblue" stroke="midnightblue" points="1064.63,-205.753 1073.22,-199.55 1062.64,-199.043 1064.63,-205.753"/>
</g>
<!-- Node26 -->
<g id="node26" class="node"><title>Node26</title>
<polygon fill="none" stroke="#bfbfbf" points="1151,-180.5 1151,-199.5 1207,-199.5 1207,-180.5 1151,-180.5"/>
<text text-anchor="middle" x="1179" y="-187.5" font-family="Helvetica,sans-Serif" font-size="10.00">TClass.h</text>
</g>
<!-- Node1&#45;&gt;Node26 -->
<g id="edge28" class="edge"><title>Node1&#45;&gt;Node26</title>
<path fill="none" stroke="midnightblue" d="M925.711,-248.26C982.09,-235.849 1067.15,-216.981 1141,-200 1141.1,-199.977 1141.2,-199.954 1141.3,-199.932"/>
<polygon fill="midnightblue" stroke="midnightblue" points="1141.84,-203.399 1150.79,-197.725 1140.26,-196.581 1141.84,-203.399"/>
</g>
<!-- Node27 -->
<g id="node27" class="node"><title>Node27</title>
<polygon fill="none" stroke="#bfbfbf" points="1225.5,-180.5 1225.5,-199.5 1284.5,-199.5 1284.5,-180.5 1225.5,-180.5"/>
<text text-anchor="middle" x="1255" y="-187.5" font-family="Helvetica,sans-Serif" font-size="10.00">functional</text>
</g>
<!-- Node1&#45;&gt;Node27 -->
<g id="edge34" class="edge"><title>Node1&#45;&gt;Node27</title>
<path fill="none" stroke="midnightblue" d="M925.798,-251.853C996.336,-240.244 1114.16,-220.215 1215,-200 1215.1,-199.979 1215.21,-199.958 1215.31,-199.937"/>
<polygon fill="midnightblue" stroke="midnightblue" points="1216.26,-203.316 1225.33,-197.84 1214.82,-196.464 1216.26,-203.316"/>
</g>
<!-- Node2&#45;&gt;Node3 -->
<g id="edge2" class="edge"><title>Node2&#45;&gt;Node3</title>
<path fill="none" stroke="midnightblue" d="M431.084,-180.444C409.264,-171.517 374.85,-157.439 350.108,-147.317"/>
<polygon fill="midnightblue" stroke="midnightblue" points="351.399,-144.063 340.818,-143.516 348.748,-150.542 351.399,-144.063"/>
</g>
<!-- Node22 -->
<g id="node22" class="node"><title>Node22</title>
<g id="a_node22"><a xlink:href="../../dc/dca/Lifetime_8h.html" target="_top" xlink:title="Framework/Lifetime.h">
<polygon fill="none" stroke="black" points="396.5,-124.5 396.5,-143.5 507.5,-143.5 507.5,-124.5 396.5,-124.5"/>
<text text-anchor="middle" x="452" y="-131.5" font-family="Helvetica,sans-Serif" font-size="10.00">Framework/Lifetime.h</text>
</a>
</g>
</g>
<!-- Node2&#45;&gt;Node22 -->
<g id="edge23" class="edge"><title>Node2&#45;&gt;Node22</title>
<path fill="none" stroke="midnightblue" d="M452,-180.083C452,-173.006 452,-162.861 452,-153.986"/>
<polygon fill="midnightblue" stroke="midnightblue" points="455.5,-153.751 452,-143.751 448.5,-153.751 455.5,-153.751"/>
</g>
<!-- Node4 -->
<g id="node4" class="node"><title>Node4</title>
<polygon fill="none" stroke="#bfbfbf" points="348,-68.5 348,-87.5 394,-87.5 394,-68.5 348,-68.5"/>
<text text-anchor="middle" x="371" y="-75.5" font-family="Helvetica,sans-Serif" font-size="10.00">cstdint</text>
</g>
<!-- Node3&#45;&gt;Node4 -->
<g id="edge3" class="edge"><title>Node3&#45;&gt;Node4</title>
<path fill="none" stroke="midnightblue" d="M328.422,-124.083C335.848,-116.22 346.852,-104.569 355.812,-95.0813"/>
<polygon fill="midnightblue" stroke="midnightblue" points="358.413,-97.4244 362.735,-87.7511 353.324,-92.618 358.413,-97.4244"/>
</g>
<!-- Node3&#45;&gt;Node5 -->
<g id="edge4" class="edge"><title>Node3&#45;&gt;Node5</title>
<path fill="none" stroke="midnightblue" d="M288.943,-124.444C253.917,-114.793 197.035,-99.122 160.07,-88.9377"/>
<polygon fill="midnightblue" stroke="midnightblue" points="160.778,-85.5022 150.207,-86.2203 158.918,-92.2508 160.778,-85.5022"/>
</g>
<!-- Node6 -->
<g id="node6" class="node"><title>Node6</title>
<polygon fill="none" stroke="#bfbfbf" points="242.5,-68.5 242.5,-87.5 291.5,-87.5 291.5,-68.5 242.5,-68.5"/>
<text text-anchor="middle" x="267" y="-75.5" font-family="Helvetica,sans-Serif" font-size="10.00">cassert</text>
</g>
<!-- Node3&#45;&gt;Node6 -->
<g id="edge5" class="edge"><title>Node3&#45;&gt;Node6</title>
<path fill="none" stroke="midnightblue" d="M311.248,-124.083C303.53,-116.22 292.095,-104.569 282.783,-95.0813"/>
<polygon fill="midnightblue" stroke="midnightblue" points="285.092,-92.4363 275.589,-87.7511 280.096,-97.3396 285.092,-92.4363"/>
</g>
<!-- Node7 -->
<g id="node7" class="node"><title>Node7</title>
<polygon fill="none" stroke="#bfbfbf" points="0,-6.5 0,-25.5 46,-25.5 46,-6.5 0,-6.5"/>
<text text-anchor="middle" x="23" y="-13.5" font-family="Helvetica,sans-Serif" font-size="10.00">cstring</text>
</g>
<!-- Node3&#45;&gt;Node7 -->
<g id="edge6" class="edge"><title>Node3&#45;&gt;Node7</title>
<path fill="none" stroke="midnightblue" d="M320.07,-124.285C319.673,-110.133 316.667,-82.2997 300,-68 216.471,3.66413 160.396,-63.6944 55,-32 52.7195,-31.3142 50.3949,-30.4916 48.0921,-29.5894"/>
<polygon fill="midnightblue" stroke="midnightblue" points="49.4814,-26.3769 38.9166,-25.5792 46.678,-32.7911 49.4814,-26.3769"/>
</g>
<!-- Node8 -->
<g id="node8" class="node"><title>Node8</title>
<polygon fill="none" stroke="#bfbfbf" points="168,-68.5 168,-87.5 224,-87.5 224,-68.5 168,-68.5"/>
<text text-anchor="middle" x="196" y="-75.5" font-family="Helvetica,sans-Serif" font-size="10.00">algorithm</text>
</g>
<!-- Node3&#45;&gt;Node8 -->
<g id="edge7" class="edge"><title>Node3&#45;&gt;Node8</title>
<path fill="none" stroke="midnightblue" d="M300.352,-124.444C280.035,-115.596 248.097,-101.687 224.902,-91.5865"/>
<polygon fill="midnightblue" stroke="midnightblue" points="226.122,-88.3002 215.556,-87.5164 223.327,-94.7181 226.122,-88.3002"/>
</g>
<!-- Node3&#45;&gt;Node9 -->
<g id="edge8" class="edge"><title>Node3&#45;&gt;Node9</title>
<path fill="none" stroke="midnightblue" d="M378.814,-125.004C381.58,-124.658 384.32,-124.321 387,-124 535.063,-106.243 575.953,-112.878 727.144,-87.9431"/>
<polygon fill="midnightblue" stroke="midnightblue" points="727.977,-91.3526 737.264,-86.2544 726.824,-84.448 727.977,-91.3526"/>
</g>
<!-- Node3&#45;&gt;Node10 -->
<g id="edge9" class="edge"><title>Node3&#45;&gt;Node10</title>
<path fill="none" stroke="midnightblue" d="M347.127,-124.417C378.687,-113.074 423.96,-91.733 403,-68 360.159,-19.491 175.816,-51.165 114,-32 112.092,-31.4083 110.159,-30.6952 108.245,-29.9052"/>
<polygon fill="midnightblue" stroke="midnightblue" points="109.562,-26.6559 99.0275,-25.5224 106.555,-32.9776 109.562,-26.6559"/>
</g>
<!-- Node11 -->
<g id="node11" class="node"><title>Node11</title>
<g id="a_node11"><a xlink:href="../../dc/d03/MemoryResources_8h.html" target="_top" xlink:title="MemoryResources/MemoryResources.h">
<polygon fill="none" stroke="black" points="526.5,-68.5 526.5,-87.5 719.5,-87.5 719.5,-68.5 526.5,-68.5"/>
<text text-anchor="middle" x="623" y="-75.5" font-family="Helvetica,sans-Serif" font-size="10.00">MemoryResources/MemoryResources.h</text>
</a>
</g>
</g>
<!-- Node3&#45;&gt;Node11 -->
<g id="edge10" class="edge"><title>Node3&#45;&gt;Node11</title>
<path fill="none" stroke="midnightblue" d="M368.011,-124.444C421.534,-114.905 508.065,-99.4834 565.245,-89.293"/>
<polygon fill="midnightblue" stroke="midnightblue" points="565.983,-92.7168 575.213,-87.5164 564.754,-85.8253 565.983,-92.7168"/>
</g>
<!-- Node11&#45;&gt;Node7 -->
<g id="edge15" class="edge"><title>Node11&#45;&gt;Node7</title>
<path fill="none" stroke="midnightblue" d="M526.449,-73.526C388.279,-67.8423 141.305,-54.8387 55,-32 52.6478,-31.3775 50.2565,-30.588 47.8946,-29.698"/>
<polygon fill="midnightblue" stroke="midnightblue" points="49.0945,-26.4037 38.5268,-25.6455 46.3151,-32.8283 49.0945,-26.4037"/>
</g>
<!-- Node11&#45;&gt;Node10 -->
<g id="edge16" class="edge"><title>Node11&#45;&gt;Node10</title>
<path fill="none" stroke="midnightblue" d="M526.298,-68.9246C381.408,-56.7586 123.777,-34.8406 114,-32 112.081,-31.4425 110.141,-30.7542 108.222,-29.9815"/>
<polygon fill="midnightblue" stroke="midnightblue" points="109.532,-26.73 98.9946,-25.632 106.548,-33.0618 109.532,-26.73"/>
</g>
<!-- Node12 -->
<g id="node12" class="node"><title>Node12</title>
<polygon fill="none" stroke="#bfbfbf" points="640,-1 640,-31 740,-31 740,-1 640,-1"/>
<text text-anchor="start" x="648" y="-19" font-family="Helvetica,sans-Serif" font-size="10.00">boost/container/flat</text>
<text text-anchor="middle" x="690" y="-8" font-family="Helvetica,sans-Serif" font-size="10.00">_map.hpp</text>
</g>
<!-- Node11&#45;&gt;Node12 -->
<g id="edge11" class="edge"><title>Node11&#45;&gt;Node12</title>
<path fill="none" stroke="midnightblue" d="M632.599,-68.4035C641.419,-60.5051 654.851,-48.4768 666.504,-38.0409"/>
<polygon fill="midnightblue" stroke="midnightblue" points="669.095,-40.4194 674.209,-31.1408 664.425,-35.2047 669.095,-40.4194"/>
</g>
<!-- Node13 -->
<g id="node13" class="node"><title>Node13</title>
<polygon fill="none" stroke="#bfbfbf" points="758,-1 758,-31 874,-31 874,-1 758,-1"/>
<text text-anchor="start" x="766" y="-19" font-family="Helvetica,sans-Serif" font-size="10.00">boost/container/pmr</text>
<text text-anchor="middle" x="816" y="-8" font-family="Helvetica,sans-Serif" font-size="10.00">/memory_resource.hpp</text>
</g>
<!-- Node11&#45;&gt;Node13 -->
<g id="edge12" class="edge"><title>Node11&#45;&gt;Node13</title>
<path fill="none" stroke="midnightblue" d="M650.652,-68.4035C679.33,-59.4882 724.933,-45.311 760.99,-34.1014"/>
<polygon fill="midnightblue" stroke="midnightblue" points="762.375,-37.3363 770.885,-31.0253 760.297,-30.6518 762.375,-37.3363"/>
</g>
<!-- Node14 -->
<g id="node14" class="node"><title>Node14</title>
<polygon fill="none" stroke="#bfbfbf" points="892,-1 892,-31 1048,-31 1048,-1 892,-1"/>
<text text-anchor="start" x="900" y="-19" font-family="Helvetica,sans-Serif" font-size="10.00">boost/container/pmr</text>
<text text-anchor="middle" x="970" y="-8" font-family="Helvetica,sans-Serif" font-size="10.00">/monotonic_buffer_resource.hpp</text>
</g>
<!-- Node11&#45;&gt;Node14 -->
<g id="edge13" class="edge"><title>Node11&#45;&gt;Node14</title>
<path fill="none" stroke="midnightblue" d="M672.348,-68.4672C726.719,-59.0658 815.25,-43.7579 881.653,-32.2761"/>
<polygon fill="midnightblue" stroke="midnightblue" points="882.439,-35.6922 891.697,-30.5395 881.247,-28.7946 882.439,-35.6922"/>
</g>
<!-- Node15 -->
<g id="node15" class="node"><title>Node15</title>
<polygon fill="none" stroke="#bfbfbf" points="123.5,-1 123.5,-31 256.5,-31 256.5,-1 123.5,-1"/>
<text text-anchor="start" x="131.5" y="-19" font-family="Helvetica,sans-Serif" font-size="10.00">boost/container/pmr</text>
<text text-anchor="middle" x="190" y="-8" font-family="Helvetica,sans-Serif" font-size="10.00">/polymorphic_allocator.hpp</text>
</g>
<!-- Node11&#45;&gt;Node15 -->
<g id="edge14" class="edge"><title>Node11&#45;&gt;Node15</title>
<path fill="none" stroke="midnightblue" d="M541.716,-68.4794C471.341,-60.7122 366.612,-48.2218 266.586,-32.195"/>
<polygon fill="midnightblue" stroke="midnightblue" points="267.041,-28.7232 256.611,-30.5822 265.924,-35.6334 267.041,-28.7232"/>
</g>
<!-- Node11&#45;&gt;Node16 -->
<g id="edge17" class="edge"><title>Node11&#45;&gt;Node16</title>
<path fill="none" stroke="midnightblue" d="M717.426,-68.4991C835.139,-57.7008 1024.85,-39.562 1057,-32 1060.5,-31.1768 1064.11,-30.1277 1067.66,-28.9676"/>
<polygon fill="midnightblue" stroke="midnightblue" points="1069.13,-32.1583 1077.37,-25.5001 1066.78,-25.5657 1069.13,-32.1583"/>
</g>
<!-- Node11&#45;&gt;Node17 -->
<g id="edge18" class="edge"><title>Node11&#45;&gt;Node17</title>
<path fill="none" stroke="midnightblue" d="M719.517,-68.6461C867.436,-55.8279 1133.52,-32.7022 1136,-32 1137.98,-31.4415 1139.98,-30.7524 1141.96,-29.9792"/>
<polygon fill="midnightblue" stroke="midnightblue" points="1143.85,-32.9637 1151.49,-25.6287 1140.94,-26.5952 1143.85,-32.9637"/>
</g>
<!-- Node11&#45;&gt;Node18 -->
<g id="edge19" class="edge"><title>Node11&#45;&gt;Node18</title>
<path fill="none" stroke="midnightblue" d="M719.688,-68.6811C722.489,-68.4501 725.265,-68.2227 728,-68 935.485,-51.1108 994.03,-86.2806 1195,-32 1197.34,-31.3686 1199.71,-30.5616 1202.05,-29.6503"/>
<polygon fill="midnightblue" stroke="midnightblue" points="1203.61,-32.7869 1211.3,-25.5 1200.75,-26.4002 1203.61,-32.7869"/>
</g>
<!-- Node19 -->
<g id="node19" class="node"><title>Node19</title>
<polygon fill="none" stroke="#bfbfbf" points="274.5,-6.5 274.5,-25.5 357.5,-25.5 357.5,-6.5 274.5,-6.5"/>
<text text-anchor="middle" x="316" y="-13.5" font-family="Helvetica,sans-Serif" font-size="10.00">unordered_map</text>
</g>
<!-- Node11&#45;&gt;Node19 -->
<g id="edge20" class="edge"><title>Node11&#45;&gt;Node19</title>
<path fill="none" stroke="midnightblue" d="M562.613,-68.4885C510.27,-60.621 432.67,-47.779 366,-32 361.513,-30.9381 356.835,-29.7059 352.219,-28.4129"/>
<polygon fill="midnightblue" stroke="midnightblue" points="352.89,-24.9631 342.31,-25.5281 350.933,-31.684 352.89,-24.9631"/>
</g>
<!-- Node20 -->
<g id="node20" class="node"><title>Node20</title>
<polygon fill="none" stroke="#bfbfbf" points="375.5,-6.5 375.5,-25.5 472.5,-25.5 472.5,-6.5 375.5,-6.5"/>
<text text-anchor="middle" x="424" y="-13.5" font-family="Helvetica,sans-Serif" font-size="10.00">FairMQMessage.h</text>
</g>
<!-- Node11&#45;&gt;Node20 -->
<g id="edge21" class="edge"><title>Node11&#45;&gt;Node20</title>
<path fill="none" stroke="midnightblue" d="M594.488,-68.4035C559.762,-57.9331 500.963,-40.2049 462.308,-28.5501"/>
<polygon fill="midnightblue" stroke="midnightblue" points="463.044,-25.1164 452.459,-25.5806 461.023,-31.8184 463.044,-25.1164"/>
</g>
<!-- Node21 -->
<g id="node21" class="node"><title>Node21</title>
<polygon fill="none" stroke="#bfbfbf" points="490.5,-6.5 490.5,-25.5 621.5,-25.5 621.5,-6.5 490.5,-6.5"/>
<text text-anchor="middle" x="556" y="-13.5" font-family="Helvetica,sans-Serif" font-size="10.00">FairMQTransportFactory.h</text>
</g>
<!-- Node11&#45;&gt;Node21 -->
<g id="edge22" class="edge"><title>Node11&#45;&gt;Node21</title>
<path fill="none" stroke="midnightblue" d="M613.401,-68.4035C602.952,-59.047 586.032,-43.8948 573.264,-32.4599"/>
<polygon fill="midnightblue" stroke="midnightblue" points="575.366,-29.6445 565.582,-25.5806 570.696,-34.8592 575.366,-29.6445"/>
</g>
</g>
</svg>
