<?xml version="1.0" encoding="UTF-8" standalone="no"?>
<!DOCTYPE svg PUBLIC "-//W3C//DTD SVG 1.1//EN"
 "http://www.w3.org/Graphics/SVG/1.1/DTD/svg11.dtd">
<!-- Generated by graphviz version 2.36.0 (20140111.2315)
 -->
<!-- Title: /home/travis/build/AliceO2Group/AliceO2/Utilities/DataFlow/src/FLPSenderDevice.cxx Pages: 1 -->
<!--zoomable 242 -->
<svg id="main" version="1.1" xmlns="http://www.w3.org/2000/svg" xmlns:xlink="http://www.w3.org/1999/xlink" xml:space="preserve" onload="init(evt)">
<style type="text/css"><![CDATA[
.edge:hover path { stroke: red; }
.edge:hover polygon { stroke: red; fill: red; }
]]></style>
<script type="text/javascript"><![CDATA[
var edges = document.getElementsByTagName('g');
if (edges && edges.length) {
  for (var i=0;i<edges.length;i++) {
    if (edges[i].id.substr(0,4)=='edge') {
      edges[i].setAttribute('class','edge');
    }
  }
}
]]></script>
        <defs>
                <circle id="rim" cx="0" cy="0" r="7"/>
                <circle id="rim2" cx="0" cy="0" r="3.5"/>
                <g id="zoomPlus">
                        <use xlink:href="#rim" fill="#404040">
                                <set attributeName="fill" to="#808080" begin="zoomplus.mouseover" end="zoomplus.mouseout"/>
                        </use>
                        <path d="M-4,0h8M0,-4v8" fill="none" stroke="white" stroke-width="1.5" pointer-events="none"/>
                </g>
                <g id="zoomMin">
                        <use xlink:href="#rim" fill="#404040">
                                <set attributeName="fill" to="#808080" begin="zoomminus.mouseover" end="zoomminus.mouseout"/>
                        </use>
                        <path d="M-4,0h8" fill="none" stroke="white" stroke-width="1.5" pointer-events="none"/>
                </g>
                <g id="dirArrow">
                        <path fill="none" stroke="white" stroke-width="1.5" d="M0,-3.0v7 M-2.5,-0.5L0,-3.0L2.5,-0.5"/>
                </g>
               <g id="resetDef">
                       <use xlink:href="#rim2" fill="#404040">
                               <set attributeName="fill" to="#808080" begin="reset.mouseover" end="reset.mouseout"/>
                       </use>
               </g>
        </defs>

<script type="text/javascript">
var viewWidth = 1488;
var viewHeight = 242;
var sectionId = 'dynsection-0';
</script>
<script xlink:href="../../svgpan.js"/>
<svg id="graph" class="graph">
<g id="viewport">
<title>/home/travis/build/AliceO2Group/AliceO2/Utilities/DataFlow/src/FLPSenderDevice.cxx</title>
<!-- Node1 -->
<g id="node1" class="node"><title>Node1</title>
<polygon fill="#bfbfbf" stroke="black" points="685,-181 685,-233 803,-233 803,-181 685,-181"/>
<text text-anchor="start" x="693" y="-221" font-family="Helvetica,sans-Serif" font-size="10.00">/home/travis/build</text>
<text text-anchor="start" x="693" y="-210" font-family="Helvetica,sans-Serif" font-size="10.00">/AliceO2Group/AliceO2</text>
<text text-anchor="start" x="693" y="-199" font-family="Helvetica,sans-Serif" font-size="10.00">/Utilities/DataFlow/src</text>
<text text-anchor="middle" x="744" y="-188" font-family="Helvetica,sans-Serif" font-size="10.00">/FLPSenderDevice.cxx</text>
</g>
<!-- Node2 -->
<g id="node2" class="node"><title>Node2</title>
<polygon fill="none" stroke="#bfbfbf" points="529,-68.5 529,-87.5 575,-87.5 575,-68.5 529,-68.5"/>
<text text-anchor="middle" x="552" y="-75.5" font-family="Helvetica,sans-Serif" font-size="10.00">cstdint</text>
</g>
<!-- Node1&#45;&gt;Node2 -->
<g id="edge1" class="edge"><title>Node1&#45;&gt;Node2</title>
<path fill="none" stroke="midnightblue" d="M684.797,-198.638C647.373,-190.994 600.643,-175.469 571,-144 559.296,-131.575 554.756,-112.336 553.019,-98.0091"/>
<polygon fill="midnightblue" stroke="midnightblue" points="556.485,-97.4603 552.143,-87.7959 549.511,-98.0583 556.485,-97.4603"/>
</g>
<!-- Node3 -->
<g id="node3" class="node"><title>Node3</title>
<polygon fill="none" stroke="#bfbfbf" points="593.5,-68.5 593.5,-87.5 642.5,-87.5 642.5,-68.5 593.5,-68.5"/>
<text text-anchor="middle" x="618" y="-75.5" font-family="Helvetica,sans-Serif" font-size="10.00">cassert</text>
</g>
<!-- Node1&#45;&gt;Node3 -->
<g id="edge2" class="edge"><title>Node1&#45;&gt;Node3</title>
<path fill="none" stroke="midnightblue" d="M724.997,-180.817C711.777,-163.977 693.303,-141.74 675,-124 663.713,-113.06 649.901,-102.103 638.7,-93.7402"/>
<polygon fill="midnightblue" stroke="midnightblue" points="640.51,-90.7274 630.375,-87.6394 636.372,-96.3736 640.51,-90.7274"/>
</g>
<!-- Node4 -->
<g id="node4" class="node"><title>Node4</title>
<polygon fill="none" stroke="#bfbfbf" points="580,-124.5 580,-143.5 666,-143.5 666,-124.5 580,-124.5"/>
<text text-anchor="middle" x="623" y="-131.5" font-family="Helvetica,sans-Serif" font-size="10.00">FairMQLogger.h</text>
</g>
<!-- Node1&#45;&gt;Node4 -->
<g id="edge3" class="edge"><title>Node1&#45;&gt;Node4</title>
<path fill="none" stroke="midnightblue" d="M701.34,-180.968C682.971,-170.19 662.193,-157.997 646.653,-148.879"/>
<polygon fill="midnightblue" stroke="midnightblue" points="648.119,-145.681 637.723,-143.639 644.576,-151.718 648.119,-145.681"/>
</g>
<!-- Node5 -->
<g id="node5" class="node"><title>Node5</title>
<polygon fill="none" stroke="#bfbfbf" points="-0.5,-6.5 -0.5,-25.5 96.5,-25.5 96.5,-6.5 -0.5,-6.5"/>
<text text-anchor="middle" x="48" y="-13.5" font-family="Helvetica,sans-Serif" font-size="10.00">FairMQMessage.h</text>
</g>
<!-- Node1&#45;&gt;Node5 -->
<g id="edge4" class="edge"><title>Node1&#45;&gt;Node5</title>
<path fill="none" stroke="midnightblue" d="M684.96,-189.967C547.179,-152.553 207.179,-60.2253 89.1511,-28.1746"/>
<polygon fill="midnightblue" stroke="midnightblue" points="89.975,-24.7717 79.4072,-25.5287 88.1405,-31.5271 89.975,-24.7717"/>
</g>
<!-- Node6 -->
<g id="node6" class="node"><title>Node6</title>
<polygon fill="none" stroke="#bfbfbf" points="722,-124.5 722,-143.5 868,-143.5 868,-124.5 722,-124.5"/>
<text text-anchor="middle" x="795" y="-131.5" font-family="Helvetica,sans-Serif" font-size="10.00">options/FairMQProgOptions.h</text>
</g>
<!-- Node1&#45;&gt;Node6 -->
<g id="edge5" class="edge"><title>Node1&#45;&gt;Node6</title>
<path fill="none" stroke="midnightblue" d="M762.124,-180.768C768.937,-171.284 776.517,-160.731 782.681,-152.15"/>
<polygon fill="midnightblue" stroke="midnightblue" points="785.718,-153.921 788.71,-143.757 780.033,-149.837 785.718,-153.921"/>
</g>
<!-- Node7 -->
<g id="node7" class="node"><title>Node7</title>
<g id="a_node7"><a xlink:href="../../dc/dcd/DataHeader_8h.html" target="_top" xlink:title="Headers/DataHeader.h">
<polygon fill="none" stroke="black" points="886.5,-124.5 886.5,-143.5 1003.5,-143.5 1003.5,-124.5 886.5,-124.5"/>
<text text-anchor="middle" x="945" y="-131.5" font-family="Helvetica,sans-Serif" font-size="10.00">Headers/DataHeader.h</text>
</a>
</g>
</g>
<!-- Node1&#45;&gt;Node7 -->
<g id="edge6" class="edge"><title>Node1&#45;&gt;Node7</title>
<path fill="none" stroke="midnightblue" d="M803.219,-185.082C838.336,-172.677 881.59,-157.398 911.025,-147.001"/>
<polygon fill="midnightblue" stroke="midnightblue" points="912.56,-150.171 920.823,-143.54 910.229,-143.571 912.56,-150.171"/>
</g>
<!-- Node23 -->
<g id="node23" class="node"><title>Node23</title>
<g id="a_node23"><a xlink:href="../../d2/d1b/SubframeMetadata_8h.html" target="_top" xlink:title="Headers/SubframeMetadata.h">
<polygon fill="none" stroke="black" points="1042.5,-124.5 1042.5,-143.5 1189.5,-143.5 1189.5,-124.5 1042.5,-124.5"/>
<text text-anchor="middle" x="1116" y="-131.5" font-family="Helvetica,sans-Serif" font-size="10.00">Headers/SubframeMetadata.h</text>
</a>
</g>
</g>
<!-- Node1&#45;&gt;Node23 -->
<g id="edge27" class="edge"><title>Node1&#45;&gt;Node23</title>
<path fill="none" stroke="midnightblue" d="M803.356,-194.671C874.377,-181.116 992.311,-158.607 1061.23,-145.453"/>
<polygon fill="midnightblue" stroke="midnightblue" points="1062.28,-148.816 1071.45,-143.503 1060.97,-141.94 1062.28,-148.816"/>
</g>
<!-- Node24 -->
<g id="node24" class="node"><title>Node24</title>
<g id="a_node24"><a xlink:href="../../d4/db2/FLPSenderDevice_8h.html" target="_top" xlink:title="DataFlow/FLPSenderDevice.h">
<polygon fill="none" stroke="black" points="1210.5,-68.5 1210.5,-87.5 1359.5,-87.5 1359.5,-68.5 1210.5,-68.5"/>
<text text-anchor="middle" x="1285" y="-75.5" font-family="Helvetica,sans-Serif" font-size="10.00">DataFlow/FLPSenderDevice.h</text>
</a>
</g>
</g>
<!-- Node1&#45;&gt;Node24 -->
<g id="edge29" class="edge"><title>Node1&#45;&gt;Node24</title>
<path fill="none" stroke="midnightblue" d="M803.346,-201.607C909.577,-193.133 1127.7,-172.791 1198,-144 1225.64,-132.682 1252.38,-110.487 1268.75,-95.2069"/>
<polygon fill="midnightblue" stroke="midnightblue" points="1271.53,-97.3913 1276.32,-87.9409 1266.68,-92.3418 1271.53,-97.3913"/>
</g>
<!-- Node7&#45;&gt;Node2 -->
<g id="edge7" class="edge"><title>Node7&#45;&gt;Node2</title>
<path fill="none" stroke="midnightblue" d="M886.399,-125.209C883.22,-124.797 880.071,-124.392 877,-124 750.031,-107.798 714.361,-113.535 585.195,-87.9786"/>
<polygon fill="midnightblue" stroke="midnightblue" points="585.812,-84.5327 575.319,-86.0004 584.437,-91.3964 585.812,-84.5327"/>
</g>
<!-- Node7&#45;&gt;Node3 -->
<g id="edge9" class="edge"><title>Node7&#45;&gt;Node3</title>
<path fill="none" stroke="midnightblue" d="M886.418,-124.844C818.187,-115.211 708.562,-99.2898 652.596,-88.1166"/>
<polygon fill="midnightblue" stroke="midnightblue" points="653.294,-84.687 642.792,-86.0881 651.875,-91.5418 653.294,-84.687"/>
</g>
<!-- Node8 -->
<g id="node8" class="node"><title>Node8</title>
<polygon fill="none" stroke="#bfbfbf" points="872,-68.5 872,-87.5 924,-87.5 924,-68.5 872,-68.5"/>
<text text-anchor="middle" x="898" y="-75.5" font-family="Helvetica,sans-Serif" font-size="10.00">memory</text>
</g>
<!-- Node7&#45;&gt;Node8 -->
<g id="edge8" class="edge"><title>Node7&#45;&gt;Node8</title>
<path fill="none" stroke="midnightblue" d="M937.239,-124.083C930.463,-116.298 920.457,-104.801 912.245,-95.3665"/>
<polygon fill="midnightblue" stroke="midnightblue" points="914.822,-92.9963 905.617,-87.7511 909.542,-97.592 914.822,-92.9963"/>
</g>
<!-- Node9 -->
<g id="node9" class="node"><title>Node9</title>
<polygon fill="none" stroke="#bfbfbf" points="980,-6.5 980,-25.5 1026,-25.5 1026,-6.5 980,-6.5"/>
<text text-anchor="middle" x="1003" y="-13.5" font-family="Helvetica,sans-Serif" font-size="10.00">cstring</text>
</g>
<!-- Node7&#45;&gt;Node9 -->
<g id="edge10" class="edge"><title>Node7&#45;&gt;Node9</title>
<path fill="none" stroke="midnightblue" d="M947.892,-124.371C952.258,-111.714 961.084,-87.5008 971,-68 976.96,-56.2791 984.79,-43.7625 991.212,-34.0624"/>
<polygon fill="midnightblue" stroke="midnightblue" points="994.135,-35.989 996.832,-25.7432 988.334,-32.0706 994.135,-35.989"/>
</g>
<!-- Node10 -->
<g id="node10" class="node"><title>Node10</title>
<polygon fill="none" stroke="#bfbfbf" points="980,-68.5 980,-87.5 1036,-87.5 1036,-68.5 980,-68.5"/>
<text text-anchor="middle" x="1008" y="-75.5" font-family="Helvetica,sans-Serif" font-size="10.00">algorithm</text>
</g>
<!-- Node7&#45;&gt;Node10 -->
<g id="edge11" class="edge"><title>Node7&#45;&gt;Node10</title>
<path fill="none" stroke="midnightblue" d="M955.122,-124.324C964.526,-116.263 978.744,-104.077 990.069,-94.3695"/>
<polygon fill="midnightblue" stroke="midnightblue" points="992.379,-96.9993 997.694,-87.8339 987.823,-91.6844 992.379,-96.9993"/>
</g>
<!-- Node11 -->
<g id="node11" class="node"><title>Node11</title>
<polygon fill="none" stroke="#bfbfbf" points="1054.5,-68.5 1054.5,-87.5 1113.5,-87.5 1113.5,-68.5 1054.5,-68.5"/>
<text text-anchor="middle" x="1084" y="-75.5" font-family="Helvetica,sans-Serif" font-size="10.00">stdexcept</text>
</g>
<!-- Node7&#45;&gt;Node11 -->
<g id="edge12" class="edge"><title>Node7&#45;&gt;Node11</title>
<path fill="none" stroke="midnightblue" d="M967.025,-124.444C990.104,-115.478 1026.56,-101.314 1052.64,-91.1827"/>
<polygon fill="midnightblue" stroke="midnightblue" points="1054.02,-94.4002 1062.08,-87.5164 1051.49,-87.8753 1054.02,-94.4002"/>
</g>
<!-- Node12 -->
<g id="node12" class="node"><title>Node12</title>
<polygon fill="none" stroke="#bfbfbf" points="1106.5,-6.5 1106.5,-25.5 1147.5,-25.5 1147.5,-6.5 1106.5,-6.5"/>
<text text-anchor="middle" x="1127" y="-13.5" font-family="Helvetica,sans-Serif" font-size="10.00">string</text>
</g>
<!-- Node7&#45;&gt;Node12 -->
<g id="edge13" class="edge"><title>Node7&#45;&gt;Node12</title>
<path fill="none" stroke="midnightblue" d="M1003.52,-125.559C1048.99,-118.479 1106.8,-106.187 1122,-88 1133.99,-73.6551 1133.55,-51.4701 1131.19,-35.7205"/>
<polygon fill="midnightblue" stroke="midnightblue" points="1134.57,-34.7721 1129.28,-25.5939 1127.7,-36.0693 1134.57,-34.7721"/>
</g>
<!-- Node13 -->
<g id="node13" class="node"><title>Node13</title>
<g id="a_node13"><a xlink:href="../../dc/d03/MemoryResources_8h.html" target="_top" xlink:title="MemoryResources/MemoryResources.h">
<polygon fill="none" stroke="black" points="660.5,-68.5 660.5,-87.5 853.5,-87.5 853.5,-68.5 660.5,-68.5"/>
<text text-anchor="middle" x="757" y="-75.5" font-family="Helvetica,sans-Serif" font-size="10.00">MemoryResources/MemoryResources.h</text>
</a>
</g>
</g>
<!-- Node7&#45;&gt;Node13 -->
<g id="edge14" class="edge"><title>Node7&#45;&gt;Node13</title>
<path fill="none" stroke="midnightblue" d="M915.211,-124.444C883.171,-115.241 832.067,-100.562 796.647,-90.3879"/>
<polygon fill="midnightblue" stroke="midnightblue" points="797.227,-86.9132 786.65,-87.5164 795.295,-93.6412 797.227,-86.9132"/>
</g>
<!-- Node13&#45;&gt;Node5 -->
<g id="edge25" class="edge"><title>Node13&#45;&gt;Node5</title>
<path fill="none" stroke="midnightblue" d="M660.243,-68.7091C657.126,-68.4662 654.039,-68.2292 651,-68 408.495,-49.7119 345.026,-71.1248 105,-32 98.7699,-30.9845 92.2326,-29.5874 85.8979,-28.0516"/>
<polygon fill="midnightblue" stroke="midnightblue" points="86.7395,-24.6542 76.1833,-25.5589 84.9997,-31.4346 86.7395,-24.6542"/>
</g>
<!-- Node13&#45;&gt;Node9 -->
<g id="edge19" class="edge"><title>Node13&#45;&gt;Node9</title>
<path fill="none" stroke="midnightblue" d="M815.641,-68.4273C859.198,-61.161 919.694,-49.1619 971,-32 973.127,-31.2884 975.3,-30.474 977.461,-29.6008"/>
<polygon fill="midnightblue" stroke="midnightblue" points="978.952,-32.7688 986.69,-25.5321 976.128,-26.3636 978.952,-32.7688"/>
</g>
<!-- Node13&#45;&gt;Node12 -->
<g id="edge20" class="edge"><title>Node13&#45;&gt;Node12</title>
<path fill="none" stroke="midnightblue" d="M845.464,-68.4759C929.835,-59.765 1050.58,-45.6203 1096,-32 1098.14,-31.3582 1100.32,-30.5841 1102.47,-29.7299"/>
<polygon fill="midnightblue" stroke="midnightblue" points="1103.92,-32.9155 1111.62,-25.6355 1101.06,-26.5263 1103.92,-32.9155"/>
</g>
<!-- Node14 -->
<g id="node14" class="node"><title>Node14</title>
<polygon fill="none" stroke="#bfbfbf" points="264,-1 264,-31 364,-31 364,-1 264,-1"/>
<text text-anchor="start" x="272" y="-19" font-family="Helvetica,sans-Serif" font-size="10.00">boost/container/flat</text>
<text text-anchor="middle" x="314" y="-8" font-family="Helvetica,sans-Serif" font-size="10.00">_map.hpp</text>
</g>
<!-- Node13&#45;&gt;Node14 -->
<g id="edge15" class="edge"><title>Node13&#45;&gt;Node14</title>
<path fill="none" stroke="midnightblue" d="M672.997,-68.4695C582.464,-59.0547 443.126,-43.87 374.161,-32.0184"/>
<polygon fill="midnightblue" stroke="midnightblue" points="374.572,-28.5365 364.112,-30.2207 373.34,-35.4271 374.572,-28.5365"/>
</g>
<!-- Node15 -->
<g id="node15" class="node"><title>Node15</title>
<polygon fill="none" stroke="#bfbfbf" points="382,-1 382,-31 498,-31 498,-1 382,-1"/>
<text text-anchor="start" x="390" y="-19" font-family="Helvetica,sans-Serif" font-size="10.00">boost/container/pmr</text>
<text text-anchor="middle" x="440" y="-8" font-family="Helvetica,sans-Serif" font-size="10.00">/memory_resource.hpp</text>
</g>
<!-- Node13&#45;&gt;Node15 -->
<g id="edge16" class="edge"><title>Node13&#45;&gt;Node15</title>
<path fill="none" stroke="midnightblue" d="M706.126,-68.4895C657.701,-60.2429 582.537,-47.0667 508.093,-32.1745"/>
<polygon fill="midnightblue" stroke="midnightblue" points="508.567,-28.6998 498.073,-30.1586 507.186,-35.5623 508.567,-28.6998"/>
</g>
<!-- Node16 -->
<g id="node16" class="node"><title>Node16</title>
<polygon fill="none" stroke="#bfbfbf" points="516,-1 516,-31 672,-31 672,-1 516,-1"/>
<text text-anchor="start" x="524" y="-19" font-family="Helvetica,sans-Serif" font-size="10.00">boost/container/pmr</text>
<text text-anchor="middle" x="594" y="-8" font-family="Helvetica,sans-Serif" font-size="10.00">/monotonic_buffer_resource.hpp</text>
</g>
<!-- Node13&#45;&gt;Node16 -->
<g id="edge17" class="edge"><title>Node13&#45;&gt;Node16</title>
<path fill="none" stroke="midnightblue" d="M733.646,-68.4035C709.737,-59.6025 671.897,-45.6737 641.634,-34.534"/>
<polygon fill="midnightblue" stroke="midnightblue" points="642.696,-31.1952 632.102,-31.0253 640.277,-37.7643 642.696,-31.1952"/>
</g>
<!-- Node17 -->
<g id="node17" class="node"><title>Node17</title>
<polygon fill="none" stroke="#bfbfbf" points="690.5,-1 690.5,-31 823.5,-31 823.5,-1 690.5,-1"/>
<text text-anchor="start" x="698.5" y="-19" font-family="Helvetica,sans-Serif" font-size="10.00">boost/container/pmr</text>
<text text-anchor="middle" x="757" y="-8" font-family="Helvetica,sans-Serif" font-size="10.00">/polymorphic_allocator.hpp</text>
</g>
<!-- Node13&#45;&gt;Node17 -->
<g id="edge18" class="edge"><title>Node13&#45;&gt;Node17</title>
<path fill="none" stroke="midnightblue" d="M757,-68.4035C757,-61.3405 757,-50.975 757,-41.399"/>
<polygon fill="midnightblue" stroke="midnightblue" points="760.5,-41.1408 757,-31.1408 753.5,-41.1408 760.5,-41.1408"/>
</g>
<!-- Node18 -->
<g id="node18" class="node"><title>Node18</title>
<polygon fill="none" stroke="#bfbfbf" points="842,-6.5 842,-25.5 904,-25.5 904,-6.5 842,-6.5"/>
<text text-anchor="middle" x="873" y="-13.5" font-family="Helvetica,sans-Serif" font-size="10.00">type_traits</text>
</g>
<!-- Node13&#45;&gt;Node18 -->
<g id="edge21" class="edge"><title>Node13&#45;&gt;Node18</title>
<path fill="none" stroke="midnightblue" d="M773.62,-68.4035C792.915,-58.4232 824.959,-41.8487 847.431,-30.2253"/>
<polygon fill="midnightblue" stroke="midnightblue" points="849.137,-33.2836 856.411,-25.5806 845.921,-27.0661 849.137,-33.2836"/>
</g>
<!-- Node19 -->
<g id="node19" class="node"><title>Node19</title>
<polygon fill="none" stroke="#bfbfbf" points="922,-6.5 922,-25.5 962,-25.5 962,-6.5 922,-6.5"/>
<text text-anchor="middle" x="942" y="-13.5" font-family="Helvetica,sans-Serif" font-size="10.00">utility</text>
</g>
<!-- Node13&#45;&gt;Node19 -->
<g id="edge22" class="edge"><title>Node13&#45;&gt;Node19</title>
<path fill="none" stroke="midnightblue" d="M793.321,-68.4406C825.132,-60.4782 872.339,-47.5249 912,-32 913.603,-31.3725 915.236,-30.6899 916.87,-29.9733"/>
<polygon fill="midnightblue" stroke="midnightblue" points="918.499,-33.0748 926.051,-25.644 915.514,-26.7434 918.499,-33.0748"/>
</g>
<!-- Node20 -->
<g id="node20" class="node"><title>Node20</title>
<polygon fill="none" stroke="#bfbfbf" points="1044,-6.5 1044,-25.5 1088,-25.5 1088,-6.5 1044,-6.5"/>
<text text-anchor="middle" x="1066" y="-13.5" font-family="Helvetica,sans-Serif" font-size="10.00">vector</text>
</g>
<!-- Node13&#45;&gt;Node20 -->
<g id="edge23" class="edge"><title>Node13&#45;&gt;Node20</title>
<path fill="none" stroke="midnightblue" d="M852.52,-68.466C906.903,-61.9007 975.783,-50.6798 1035,-32 1037.13,-31.3277 1039.3,-30.5321 1041.45,-29.6633"/>
<polygon fill="midnightblue" stroke="midnightblue" points="1042.91,-32.8437 1050.59,-25.5433 1040.04,-26.4621 1042.91,-32.8437"/>
</g>
<!-- Node21 -->
<g id="node21" class="node"><title>Node21</title>
<polygon fill="none" stroke="#bfbfbf" points="1165.5,-6.5 1165.5,-25.5 1248.5,-25.5 1248.5,-6.5 1165.5,-6.5"/>
<text text-anchor="middle" x="1207" y="-13.5" font-family="Helvetica,sans-Serif" font-size="10.00">unordered_map</text>
</g>
<!-- Node13&#45;&gt;Node21 -->
<g id="edge24" class="edge"><title>Node13&#45;&gt;Node21</title>
<path fill="none" stroke="midnightblue" d="M849.241,-68.4701C948.354,-58.9708 1099.28,-43.4483 1156,-32 1161.07,-30.9762 1166.37,-29.6815 1171.55,-28.2835"/>
<polygon fill="midnightblue" stroke="midnightblue" points="1172.62,-31.6187 1181.27,-25.5122 1170.7,-24.8866 1172.62,-31.6187"/>
</g>
<!-- Node22 -->
<g id="node22" class="node"><title>Node22</title>
<polygon fill="none" stroke="#bfbfbf" points="114.5,-6.5 114.5,-25.5 245.5,-25.5 245.5,-6.5 114.5,-6.5"/>
<text text-anchor="middle" x="180" y="-13.5" font-family="Helvetica,sans-Serif" font-size="10.00">FairMQTransportFactory.h</text>
</g>
<!-- Node13&#45;&gt;Node22 -->
<g id="edge26" class="edge"><title>Node13&#45;&gt;Node22</title>
<path fill="none" stroke="midnightblue" d="M660.352,-68.6067C520.117,-56.3891 274.702,-34.8448 255,-32 246.311,-30.7453 237.107,-29.1382 228.234,-27.4444"/>
<polygon fill="midnightblue" stroke="midnightblue" points="228.89,-24.0063 218.402,-25.5093 227.538,-30.8746 228.89,-24.0063"/>
</g>
<!-- Node23&#45;&gt;Node20 -->
<g id="edge28" class="edge"><title>Node23&#45;&gt;Node20</title>
<path fill="none" stroke="midnightblue" d="M1119.45,-124.149C1123.93,-111.214 1130.24,-86.6587 1122,-68 1115.29,-52.8042 1101.56,-40.186 1089.38,-31.3022"/>
<polygon fill="midnightblue" stroke="midnightblue" points="1091.13,-28.263 1080.9,-25.5098 1087.18,-34.0421 1091.13,-28.263"/>
</g>
<!-- Node24&#45;&gt;Node12 -->
<g id="edge30" class="edge"><title>Node24&#45;&gt;Node12</title>
<path fill="none" stroke="midnightblue" d="M1256.88,-68.4623C1230.45,-60.1401 1189.99,-46.6303 1156,-32 1154.6,-31.3977 1153.18,-30.7565 1151.75,-30.0913"/>
<polygon fill="midnightblue" stroke="midnightblue" points="1152.97,-26.7944 1142.46,-25.5091 1149.88,-33.0721 1152.97,-26.7944"/>
</g>
<!-- Node24&#45;&gt;Node21 -->
<g id="edge32" class="edge"><title>Node24&#45;&gt;Node21</title>
<path fill="none" stroke="midnightblue" d="M1273.82,-68.4035C1261.43,-58.8688 1241.21,-43.3154 1226.25,-31.8106"/>
<polygon fill="midnightblue" stroke="midnightblue" points="1228.22,-28.9035 1218.15,-25.5806 1223.95,-34.4519 1228.22,-28.9035"/>
</g>
<!-- Node25 -->
<g id="node25" class="node"><title>Node25</title>
<polygon fill="none" stroke="#bfbfbf" points="1266.5,-6.5 1266.5,-25.5 1309.5,-25.5 1309.5,-6.5 1266.5,-6.5"/>
<text text-anchor="middle" x="1288" y="-13.5" font-family="Helvetica,sans-Serif" font-size="10.00">queue</text>
</g>
<!-- Node24&#45;&gt;Node25 -->
<g id="edge31" class="edge"><title>Node24&#45;&gt;Node25</title>
<path fill="none" stroke="midnightblue" d="M1285.43,-68.4035C1285.85,-59.9381 1286.51,-46.7283 1287.06,-35.8199"/>
<polygon fill="midnightblue" stroke="midnightblue" points="1290.57,-35.7429 1287.57,-25.5806 1283.58,-35.3933 1290.57,-35.7429"/>
</g>
<!-- Node26 -->
<g id="node26" class="node"><title>Node26</title>
<polygon fill="none" stroke="#bfbfbf" points="1328,-6.5 1328,-25.5 1374,-25.5 1374,-6.5 1328,-6.5"/>
<text text-anchor="middle" x="1351" y="-13.5" font-family="Helvetica,sans-Serif" font-size="10.00">chrono</text>
</g>
<!-- Node24&#45;&gt;Node26 -->
<g id="edge33" class="edge"><title>Node24&#45;&gt;Node26</title>
<path fill="none" stroke="midnightblue" d="M1294.46,-68.4035C1304.75,-59.047 1321.42,-43.8948 1333.99,-32.4599"/>
<polygon fill="midnightblue" stroke="midnightblue" points="1336.52,-34.8971 1341.56,-25.5806 1331.81,-29.7176 1336.52,-34.8971"/>
</g>
<!-- Node27 -->
<g id="node27" class="node"><title>Node27</title>
<polygon fill="none" stroke="#bfbfbf" points="1392,-6.5 1392,-25.5 1480,-25.5 1480,-6.5 1392,-6.5"/>
<text text-anchor="middle" x="1436" y="-13.5" font-family="Helvetica,sans-Serif" font-size="10.00">FairMQDevice.h</text>
</g>
<!-- Node24&#45;&gt;Node27 -->
<g id="edge34" class="edge"><title>Node24&#45;&gt;Node27</title>
<path fill="none" stroke="midnightblue" d="M1306.63,-68.4035C1332.42,-58.1559 1375.71,-40.9561 1405.04,-29.3021"/>
<polygon fill="midnightblue" stroke="midnightblue" points="1406.4,-32.526 1414.41,-25.5806 1403.82,-26.0207 1406.4,-32.526"/>
</g>
</g>
</svg>
        <g id="navigator" transform="translate(0 0)" fill="#404254">
                <rect fill="#f2f5e9" fill-opacity="0.5" stroke="#606060" stroke-width=".5" x="0" y="0" width="60" height="60"/>
                <use id="zoomplus" xlink:href="#zoomPlus" x="17" y="9" onmousedown="handleZoom(evt,'in')"/>
                <use id="zoomminus" xlink:href="#zoomMin" x="42" y="9" onmousedown="handleZoom(evt,'out')"/>
                <use id="reset" xlink:href="#resetDef" x="30" y="36" onmousedown="handleReset()"/>
                <g id="arrowUp" xlink:href="#dirArrow" transform="translate(30 24)" onmousedown="handlePan(0,-1)">
                  <use xlink:href="#rim" fill="#404040">
                        <set attributeName="fill" to="#808080" begin="arrowUp.mouseover" end="arrowUp.mouseout"/>
                  </use>
                  <path fill="none" stroke="white" stroke-width="1.5" d="M0,-3.0v7 M-2.5,-0.5L0,-3.0L2.5,-0.5"/>
                </g>
                <g id="arrowRight" xlink:href="#dirArrow" transform="rotate(90) translate(36 -43)" onmousedown="handlePan(1,0)">
                  <use xlink:href="#rim" fill="#404040">
                        <set attributeName="fill" to="#808080" begin="arrowRight.mouseover" end="arrowRight.mouseout"/>
                  </use>
                  <path fill="none" stroke="white" stroke-width="1.5" d="M0,-3.0v7 M-2.5,-0.5L0,-3.0L2.5,-0.5"/>
                </g>
                <g id="arrowDown" xlink:href="#dirArrow" transform="rotate(180) translate(-30 -48)" onmousedown="handlePan(0,1)">
                  <use xlink:href="#rim" fill="#404040">
                        <set attributeName="fill" to="#808080" begin="arrowDown.mouseover" end="arrowDown.mouseout"/>
                  </use>
                  <path fill="none" stroke="white" stroke-width="1.5" d="M0,-3.0v7 M-2.5,-0.5L0,-3.0L2.5,-0.5"/>
                </g>
                <g id="arrowLeft" xlink:href="#dirArrow" transform="rotate(270) translate(-36 17)" onmousedown="handlePan(-1,0)">
                  <use xlink:href="#rim" fill="#404040">
                        <set attributeName="fill" to="#808080" begin="arrowLeft.mouseover" end="arrowLeft.mouseout"/>
                  </use>
                  <path fill="none" stroke="white" stroke-width="1.5" d="M0,-3.0v7 M-2.5,-0.5L0,-3.0L2.5,-0.5"/>
                </g>
        </g>
        <svg viewBox="0 0 15 15" width="100%" height="30px" preserveAspectRatio="xMaxYMin meet">
         <g id="arrow_out" transform="scale(0.3 0.3)">
          <a xlink:href="FLPSenderDevice_8cxx__incl_org.svg" target="_base">
           <rect id="button" ry="5" rx="5" y="6" x="6" height="38" width="38"
                fill="#f2f5e9" fill-opacity="0.5" stroke="#606060" stroke-width="1.0"/>
           <path id="arrow"
             d="M 11.500037,31.436501 C 11.940474,20.09759 22.043105,11.32322 32.158766,21.979434 L 37.068811,17.246167 C 37.068811,17.246167 37.088388,32 37.088388,32 L 22.160133,31.978069 C 22.160133,31.978069 26.997745,27.140456 26.997745,27.140456 C 18.528582,18.264221 13.291696,25.230495 11.500037,31.436501 z"
             style="fill:#404040;"/>
          </a>
         </g>
        </svg>
</svg>
