<?xml version="1.0" encoding="UTF-8" standalone="no"?>
<!DOCTYPE svg PUBLIC "-//W3C//DTD SVG 1.1//EN"
 "http://www.w3.org/Graphics/SVG/1.1/DTD/svg11.dtd">
<!-- Generated by graphviz version 2.36.0 (20140111.2315)
 -->
<!-- Title: /home/travis/build/AliceO2Group/AliceO2/Framework/Core/include/Framework/MessageContext.h Pages: 1 -->
<svg width="656pt" height="174pt"
 viewBox="0.00 0.00 656.00 174.00" xmlns="http://www.w3.org/2000/svg" xmlns:xlink="http://www.w3.org/1999/xlink">
<g id="graph0" class="graph" transform="scale(1 1) rotate(0) translate(4 170)">
<title>/home/travis/build/AliceO2Group/AliceO2/Framework/Core/include/Framework/MessageContext.h</title>
<!-- Node1 -->
<g id="node1" class="node"><title>Node1</title>
<polygon fill="#bfbfbf" stroke="black" points="361,-113 361,-165 515,-165 515,-113 361,-113"/>
<text text-anchor="start" x="369" y="-153" font-family="Helvetica,sans-Serif" font-size="10.00">/home/travis/build</text>
<text text-anchor="start" x="369" y="-142" font-family="Helvetica,sans-Serif" font-size="10.00">/AliceO2Group/AliceO2</text>
<text text-anchor="start" x="369" y="-131" font-family="Helvetica,sans-Serif" font-size="10.00">/Framework/Core/include</text>
<text text-anchor="middle" x="438" y="-120" font-family="Helvetica,sans-Serif" font-size="10.00">/Framework/MessageContext.h</text>
</g>
<!-- Node2 -->
<g id="node2" class="node"><title>Node2</title>
<polygon fill="none" stroke="#bfbfbf" points="0,-56.5 0,-75.5 110,-75.5 110,-56.5 0,-56.5"/>
<text text-anchor="middle" x="55" y="-63.5" font-family="Helvetica,sans-Serif" font-size="10.00">fairmq/FairMQParts.h</text>
</g>
<!-- Node1&#45;&gt;Node2 -->
<g id="edge1" class="edge"><title>Node1&#45;&gt;Node2</title>
<path fill="none" stroke="midnightblue" d="M360.955,-123.717C287.035,-110.014 177.177,-89.649 111.176,-77.4139"/>
<polygon fill="midnightblue" stroke="midnightblue" points="111.443,-73.9037 100.972,-75.5223 110.167,-80.7865 111.443,-73.9037"/>
</g>
<!-- Node3 -->
<g id="node3" class="node"><title>Node3</title>
<g id="a_node3"><a xlink:href="../../df/d2f/ContextRegistry_8h.html" target="_top" xlink:title="Framework/ContextRegistry.h">
<polygon fill="none" stroke="black" points="128,-56.5 128,-75.5 276,-75.5 276,-56.5 128,-56.5"/>
<text text-anchor="middle" x="202" y="-63.5" font-family="Helvetica,sans-Serif" font-size="10.00">Framework/ContextRegistry.h</text>
</a>
</g>
</g>
<!-- Node1&#45;&gt;Node3 -->
<g id="edge2" class="edge"><title>Node1&#45;&gt;Node3</title>
<path fill="none" stroke="midnightblue" d="M360.725,-114.752C320.453,-102.636 272.968,-88.3504 240.498,-78.5819"/>
<polygon fill="midnightblue" stroke="midnightblue" points="241.096,-75.1069 230.511,-75.5775 239.079,-81.8101 241.096,-75.1069"/>
</g>
<!-- Node5 -->
<g id="node5" class="node"><title>Node5</title>
<g id="a_node5"><a xlink:href="../../d8/d71/FairMQDeviceProxy_8h.html" target="_top" xlink:title="Framework/FairMQDeviceProxy.h">
<polygon fill="none" stroke="black" points="294.5,-56.5 294.5,-75.5 459.5,-75.5 459.5,-56.5 294.5,-56.5"/>
<text text-anchor="middle" x="377" y="-63.5" font-family="Helvetica,sans-Serif" font-size="10.00">Framework/FairMQDeviceProxy.h</text>
</a>
</g>
</g>
<!-- Node1&#45;&gt;Node5 -->
<g id="edge4" class="edge"><title>Node1&#45;&gt;Node5</title>
<path fill="none" stroke="midnightblue" d="M416.322,-112.768C408.001,-103.083 398.721,-92.2813 391.266,-83.605"/>
<polygon fill="midnightblue" stroke="midnightblue" points="393.695,-81.0613 384.524,-75.7572 388.386,-85.6231 393.695,-81.0613"/>
</g>
<!-- Node7 -->
<g id="node7" class="node"><title>Node7</title>
<polygon fill="none" stroke="#bfbfbf" points="478,-56.5 478,-75.5 522,-75.5 522,-56.5 478,-56.5"/>
<text text-anchor="middle" x="500" y="-63.5" font-family="Helvetica,sans-Serif" font-size="10.00">vector</text>
</g>
<!-- Node1&#45;&gt;Node7 -->
<g id="edge6" class="edge"><title>Node1&#45;&gt;Node7</title>
<path fill="none" stroke="midnightblue" d="M460.033,-112.768C468.579,-102.982 478.12,-92.0561 485.736,-83.3346"/>
<polygon fill="midnightblue" stroke="midnightblue" points="488.412,-85.5917 492.353,-75.7572 483.139,-80.9874 488.412,-85.5917"/>
</g>
<!-- Node8 -->
<g id="node8" class="node"><title>Node8</title>
<polygon fill="none" stroke="#bfbfbf" points="540.5,-56.5 540.5,-75.5 589.5,-75.5 589.5,-56.5 540.5,-56.5"/>
<text text-anchor="middle" x="565" y="-63.5" font-family="Helvetica,sans-Serif" font-size="10.00">cassert</text>
</g>
<!-- Node1&#45;&gt;Node8 -->
<g id="edge7" class="edge"><title>Node1&#45;&gt;Node8</title>
<path fill="none" stroke="midnightblue" d="M482.775,-112.968C502.237,-102.088 524.275,-89.7673 540.634,-80.6218"/>
<polygon fill="midnightblue" stroke="midnightblue" points="542.527,-83.5737 549.547,-75.6389 539.111,-77.4637 542.527,-83.5737"/>
</g>
<!-- Node9 -->
<g id="node9" class="node"><title>Node9</title>
<polygon fill="none" stroke="#bfbfbf" points="607.5,-56.5 607.5,-75.5 648.5,-75.5 648.5,-56.5 607.5,-56.5"/>
<text text-anchor="middle" x="628" y="-63.5" font-family="Helvetica,sans-Serif" font-size="10.00">string</text>
</g>
<!-- Node1&#45;&gt;Node9 -->
<g id="edge8" class="edge"><title>Node1&#45;&gt;Node9</title>
<path fill="none" stroke="midnightblue" d="M504.987,-112.968C536.538,-101.178 572.617,-87.6959 597.504,-78.396"/>
<polygon fill="midnightblue" stroke="midnightblue" points="598.97,-81.5847 607.112,-74.8056 596.519,-75.0275 598.97,-81.5847"/>
</g>
<!-- Node4 -->
<g id="node4" class="node"><title>Node4</title>
<polygon fill="none" stroke="#bfbfbf" points="183,-0.5 183,-19.5 221,-19.5 221,-0.5 183,-0.5"/>
<text text-anchor="middle" x="202" y="-7.5" font-family="Helvetica,sans-Serif" font-size="10.00">array</text>
</g>
<!-- Node3&#45;&gt;Node4 -->
<g id="edge3" class="edge"><title>Node3&#45;&gt;Node4</title>
<path fill="none" stroke="midnightblue" d="M202,-56.083C202,-49.0059 202,-38.8611 202,-29.9865"/>
<polygon fill="midnightblue" stroke="midnightblue" points="205.5,-29.751 202,-19.7511 198.5,-29.7511 205.5,-29.751"/>
</g>
<!-- Node6 -->
<g id="node6" class="node"><title>Node6</title>
<polygon fill="none" stroke="#bfbfbf" points="351,-0.5 351,-19.5 403,-19.5 403,-0.5 351,-0.5"/>
<text text-anchor="middle" x="377" y="-7.5" font-family="Helvetica,sans-Serif" font-size="10.00">memory</text>
</g>
<!-- Node5&#45;&gt;Node6 -->
<g id="edge5" class="edge"><title>Node5&#45;&gt;Node6</title>
<path fill="none" stroke="midnightblue" d="M377,-56.083C377,-49.0059 377,-38.8611 377,-29.9865"/>
<polygon fill="midnightblue" stroke="midnightblue" points="380.5,-29.751 377,-19.7511 373.5,-29.7511 380.5,-29.751"/>
</g>
</g>
</svg>
