<?xml version="1.0" encoding="UTF-8" standalone="no"?>
<!DOCTYPE svg PUBLIC "-//W3C//DTD SVG 1.1//EN"
 "http://www.w3.org/Graphics/SVG/1.1/DTD/svg11.dtd">
<!-- Generated by graphviz version 2.36.0 (20140111.2315)
 -->
<!-- Title: /home/travis/build/AliceO2Group/AliceO2/Framework/Core/src/DataProcessor.cxx Pages: 1 -->
<svg width="2806pt" height="230pt"
 viewBox="0.00 0.00 2806.00 230.00" xmlns="http://www.w3.org/2000/svg" xmlns:xlink="http://www.w3.org/1999/xlink">
<g id="graph0" class="graph" transform="scale(1 1) rotate(0) translate(4 226)">
<title>/home/travis/build/AliceO2Group/AliceO2/Framework/Core/src/DataProcessor.cxx</title>
<!-- Node1 -->
<g id="node1" class="node"><title>Node1</title>
<polygon fill="#bfbfbf" stroke="black" points="1167,-180.5 1167,-221.5 1363,-221.5 1363,-180.5 1167,-180.5"/>
<text text-anchor="start" x="1175" y="-209.5" font-family="Helvetica,sans-Serif" font-size="10.00">/home/travis/build</text>
<text text-anchor="start" x="1175" y="-198.5" font-family="Helvetica,sans-Serif" font-size="10.00">/AliceO2Group/AliceO2</text>
<text text-anchor="middle" x="1265" y="-187.5" font-family="Helvetica,sans-Serif" font-size="10.00">/Framework/Core/src/DataProcessor.cxx</text>
</g>
<!-- Node2 -->
<g id="node2" class="node"><title>Node2</title>
<g id="a_node2"><a xlink:href="../../d9/df0/DataProcessor_8h.html" target="_top" xlink:title="Framework/DataProcessor.h">
<polygon fill="none" stroke="black" points="181,-124.5 181,-143.5 323,-143.5 323,-124.5 181,-124.5"/>
<text text-anchor="middle" x="252" y="-131.5" font-family="Helvetica,sans-Serif" font-size="10.00">Framework/DataProcessor.h</text>
</a>
</g>
</g>
<!-- Node1&#45;&gt;Node2 -->
<g id="edge1" class="edge"><title>Node1&#45;&gt;Node2</title>
<path fill="none" stroke="midnightblue" d="M1166.69,-195.531C997.172,-187.497 638.996,-169.087 337,-144 335.891,-143.908 334.774,-143.813 333.65,-143.717"/>
<polygon fill="midnightblue" stroke="midnightblue" points="333.672,-140.205 323.399,-142.796 333.046,-147.177 333.672,-140.205"/>
</g>
<!-- Node3 -->
<g id="node3" class="node"><title>Node3</title>
<g id="a_node3"><a xlink:href="../../d2/d80/RootObjectContext_8h.html" target="_top" xlink:title="Framework/RootObjectContext.h">
<polygon fill="none" stroke="black" points="940.5,-124.5 940.5,-143.5 1101.5,-143.5 1101.5,-124.5 940.5,-124.5"/>
<text text-anchor="middle" x="1021" y="-131.5" font-family="Helvetica,sans-Serif" font-size="10.00">Framework/RootObjectContext.h</text>
</a>
</g>
</g>
<!-- Node1&#45;&gt;Node3 -->
<g id="edge2" class="edge"><title>Node1&#45;&gt;Node3</title>
<path fill="none" stroke="midnightblue" d="M1191.79,-180.498C1149.76,-169.3 1098.47,-155.638 1063.13,-146.224"/>
<polygon fill="midnightblue" stroke="midnightblue" points="1063.72,-142.759 1053.16,-143.567 1061.92,-149.523 1063.72,-142.759"/>
</g>
<!-- Node11 -->
<g id="node11" class="node"><title>Node11</title>
<g id="a_node11"><a xlink:href="../../dc/dc4/MessageContext_8h.html" target="_top" xlink:title="Framework/MessageContext.h">
<polygon fill="none" stroke="black" points="379.5,-124.5 379.5,-143.5 530.5,-143.5 530.5,-124.5 379.5,-124.5"/>
<text text-anchor="middle" x="455" y="-131.5" font-family="Helvetica,sans-Serif" font-size="10.00">Framework/MessageContext.h</text>
</a>
</g>
</g>
<!-- Node1&#45;&gt;Node11 -->
<g id="edge11" class="edge"><title>Node1&#45;&gt;Node11</title>
<path fill="none" stroke="midnightblue" d="M1166.87,-193.361C1029.32,-183.847 771.091,-165.226 540.797,-144.143"/>
<polygon fill="midnightblue" stroke="midnightblue" points="540.824,-140.631 530.546,-143.201 540.183,-147.602 540.824,-140.631"/>
</g>
<!-- Node12 -->
<g id="node12" class="node"><title>Node12</title>
<polygon fill="none" stroke="#bfbfbf" points="0,-68.5 0,-87.5 110,-87.5 110,-68.5 0,-68.5"/>
<text text-anchor="middle" x="55" y="-75.5" font-family="Helvetica,sans-Serif" font-size="10.00">fairmq/FairMQParts.h</text>
</g>
<!-- Node1&#45;&gt;Node12 -->
<g id="edge77" class="edge"><title>Node1&#45;&gt;Node12</title>
<path fill="none" stroke="midnightblue" d="M1166.68,-199.031C966.344,-196.212 517.37,-185.339 370,-144 351.624,-138.845 350.1,-130.054 332,-124 312.267,-117.4 195.523,-99.5702 120.027,-88.4368"/>
<polygon fill="midnightblue" stroke="midnightblue" points="120.523,-84.9722 110.12,-86.9794 119.504,-91.8977 120.523,-84.9722"/>
</g>
<!-- Node13 -->
<g id="node13" class="node"><title>Node13</title>
<g id="a_node13"><a xlink:href="../../dd/df6/StringContext_8h.html" target="_top" xlink:title="Framework/StringContext.h">
<polygon fill="none" stroke="black" points="785.5,-124.5 785.5,-143.5 922.5,-143.5 922.5,-124.5 785.5,-124.5"/>
<text text-anchor="middle" x="854" y="-131.5" font-family="Helvetica,sans-Serif" font-size="10.00">Framework/StringContext.h</text>
</a>
</g>
</g>
<!-- Node1&#45;&gt;Node13 -->
<g id="edge18" class="edge"><title>Node1&#45;&gt;Node13</title>
<path fill="none" stroke="midnightblue" d="M1166.82,-184.472C1089.68,-172.274 984.514,-155.641 917.928,-145.11"/>
<polygon fill="midnightblue" stroke="midnightblue" points="918.411,-141.643 907.987,-143.538 917.317,-148.557 918.411,-141.643"/>
</g>
<!-- Node14 -->
<g id="node14" class="node"><title>Node14</title>
<g id="a_node14"><a xlink:href="../../d8/da2/ArrowContext_8h.html" target="_top" xlink:title="Framework/ArrowContext.h">
<polygon fill="none" stroke="black" points="548.5,-124.5 548.5,-143.5 685.5,-143.5 685.5,-124.5 548.5,-124.5"/>
<text text-anchor="middle" x="617" y="-131.5" font-family="Helvetica,sans-Serif" font-size="10.00">Framework/ArrowContext.h</text>
</a>
</g>
</g>
<!-- Node1&#45;&gt;Node14 -->
<g id="edge25" class="edge"><title>Node1&#45;&gt;Node14</title>
<path fill="none" stroke="midnightblue" d="M1166.93,-190.163C1038.01,-177.231 814.058,-154.767 695.634,-142.888"/>
<polygon fill="midnightblue" stroke="midnightblue" points="695.852,-139.392 685.553,-141.876 695.153,-146.357 695.852,-139.392"/>
</g>
<!-- Node21 -->
<g id="node21" class="node"><title>Node21</title>
<g id="a_node21"><a xlink:href="../../d8/d3c/TMessageSerializer_8h.html" target="_top" xlink:title="Framework/TMessageSerializer.h">
<polygon fill="none" stroke="black" points="1428.5,-124.5 1428.5,-143.5 1591.5,-143.5 1591.5,-124.5 1428.5,-124.5"/>
<text text-anchor="middle" x="1510" y="-131.5" font-family="Helvetica,sans-Serif" font-size="10.00">Framework/TMessageSerializer.h</text>
</a>
</g>
</g>
<!-- Node1&#45;&gt;Node21 -->
<g id="edge41" class="edge"><title>Node1&#45;&gt;Node21</title>
<path fill="none" stroke="midnightblue" d="M1338.51,-180.498C1380.71,-169.3 1432.21,-155.638 1467.69,-146.224"/>
<polygon fill="midnightblue" stroke="midnightblue" points="1468.94,-149.514 1477.71,-143.567 1467.15,-142.749 1468.94,-149.514"/>
</g>
<!-- Node41 -->
<g id="node41" class="node"><title>Node41</title>
<g id="a_node41"><a xlink:href="../../df/dd9/FairMQResizableBuffer_8h.html" target="_top" xlink:title="FairMQResizableBuffer.h">
<polygon fill="none" stroke="black" points="1854.5,-124.5 1854.5,-143.5 1981.5,-143.5 1981.5,-124.5 1854.5,-124.5"/>
<text text-anchor="middle" x="1918" y="-131.5" font-family="Helvetica,sans-Serif" font-size="10.00">FairMQResizableBuffer.h</text>
</a>
</g>
</g>
<!-- Node1&#45;&gt;Node41 -->
<g id="edge64" class="edge"><title>Node1&#45;&gt;Node41</title>
<path fill="none" stroke="midnightblue" d="M1363.11,-190.234C1494.92,-177.113 1726.23,-154.089 1844.23,-142.343"/>
<polygon fill="midnightblue" stroke="midnightblue" points="1844.65,-145.819 1854.25,-141.345 1843.96,-138.853 1844.65,-145.819"/>
</g>
<!-- Node44 -->
<g id="node44" class="node"><title>Node44</title>
<g id="a_node44"><a xlink:href="../../dc/dcd/DataHeader_8h.html" target="_top" xlink:title="Headers/DataHeader.h">
<polygon fill="none" stroke="black" points="2020.5,-124.5 2020.5,-143.5 2137.5,-143.5 2137.5,-124.5 2020.5,-124.5"/>
<text text-anchor="middle" x="2079" y="-131.5" font-family="Helvetica,sans-Serif" font-size="10.00">Headers/DataHeader.h</text>
</a>
</g>
</g>
<!-- Node1&#45;&gt;Node44 -->
<g id="edge68" class="edge"><title>Node1&#45;&gt;Node44</title>
<path fill="none" stroke="midnightblue" d="M1363.27,-193.151C1502.73,-183.263 1766.02,-163.972 1990,-144 1996.55,-143.416 2003.36,-142.779 2010.18,-142.123"/>
<polygon fill="midnightblue" stroke="midnightblue" points="2010.52,-145.606 2020.13,-141.151 2009.84,-138.639 2010.52,-145.606"/>
</g>
<!-- Node48 -->
<g id="node48" class="node"><title>Node48</title>
<polygon fill="none" stroke="#bfbfbf" points="2156,-124.5 2156,-143.5 2274,-143.5 2274,-124.5 2156,-124.5"/>
<text text-anchor="middle" x="2215" y="-131.5" font-family="Helvetica,sans-Serif" font-size="10.00">fairmq/FairMQDevice.h</text>
</g>
<!-- Node1&#45;&gt;Node48 -->
<g id="edge78" class="edge"><title>Node1&#45;&gt;Node48</title>
<path fill="none" stroke="midnightblue" d="M1363.27,-195.881C1524.3,-188.659 1854.6,-171.873 2145.6,-143.963"/>
<polygon fill="midnightblue" stroke="midnightblue" points="2146.32,-147.41 2155.93,-142.966 2145.64,-140.443 2146.32,-147.41"/>
</g>
<!-- Node49 -->
<g id="node49" class="node"><title>Node49</title>
<polygon fill="none" stroke="#bfbfbf" points="2292,-124.5 2292,-143.5 2390,-143.5 2390,-124.5 2292,-124.5"/>
<text text-anchor="middle" x="2341" y="-131.5" font-family="Helvetica,sans-Serif" font-size="10.00">arrow/io/memory.h</text>
</g>
<!-- Node1&#45;&gt;Node49 -->
<g id="edge79" class="edge"><title>Node1&#45;&gt;Node49</title>
<path fill="none" stroke="midnightblue" d="M1363.17,-197.829C1543.28,-193.136 1938.73,-179.54 2281.86,-144.011"/>
<polygon fill="midnightblue" stroke="midnightblue" points="2282.41,-147.472 2292,-142.953 2281.69,-140.51 2282.41,-147.472"/>
</g>
<!-- Node50 -->
<g id="node50" class="node"><title>Node50</title>
<polygon fill="none" stroke="#bfbfbf" points="2408,-124.5 2408,-143.5 2500,-143.5 2500,-124.5 2408,-124.5"/>
<text text-anchor="middle" x="2454" y="-131.5" font-family="Helvetica,sans-Serif" font-size="10.00">arrow/ipc/writer.h</text>
</g>
<!-- Node1&#45;&gt;Node50 -->
<g id="edge80" class="edge"><title>Node1&#45;&gt;Node50</title>
<path fill="none" stroke="midnightblue" d="M1363.03,-198.779C1558.09,-195.557 2008.76,-184.155 2397.86,-143.867"/>
<polygon fill="midnightblue" stroke="midnightblue" points="2398.33,-147.338 2407.91,-142.819 2397.6,-140.376 2398.33,-147.338"/>
</g>
<!-- Node4 -->
<g id="node4" class="node"><title>Node4</title>
<g id="a_node4"><a xlink:href="../../df/d2f/ContextRegistry_8h.html" target="_top" xlink:title="Framework/ContextRegistry.h">
<polygon fill="none" stroke="black" points="392,-68.5 392,-87.5 540,-87.5 540,-68.5 392,-68.5"/>
<text text-anchor="middle" x="466" y="-75.5" font-family="Helvetica,sans-Serif" font-size="10.00">Framework/ContextRegistry.h</text>
</a>
</g>
</g>
<!-- Node3&#45;&gt;Node4 -->
<g id="edge3" class="edge"><title>Node3&#45;&gt;Node4</title>
<path fill="none" stroke="midnightblue" d="M940.048,-124.893C936.993,-124.59 933.969,-124.292 931,-124 797.962,-110.911 643.48,-96.0227 550.314,-87.0778"/>
<polygon fill="midnightblue" stroke="midnightblue" points="550.388,-83.5689 540.099,-86.0973 549.719,-90.5369 550.388,-83.5689"/>
</g>
<!-- Node6 -->
<g id="node6" class="node"><title>Node6</title>
<g id="a_node6"><a xlink:href="../../d8/d71/FairMQDeviceProxy_8h.html" target="_top" xlink:title="Framework/FairMQDeviceProxy.h">
<polygon fill="none" stroke="black" points="672.5,-68.5 672.5,-87.5 837.5,-87.5 837.5,-68.5 672.5,-68.5"/>
<text text-anchor="middle" x="755" y="-75.5" font-family="Helvetica,sans-Serif" font-size="10.00">Framework/FairMQDeviceProxy.h</text>
</a>
</g>
</g>
<!-- Node3&#45;&gt;Node6 -->
<g id="edge5" class="edge"><title>Node3&#45;&gt;Node6</title>
<path fill="none" stroke="midnightblue" d="M978.852,-124.444C932.254,-114.984 857.156,-99.7384 806.955,-89.5472"/>
<polygon fill="midnightblue" stroke="midnightblue" points="807.448,-86.076 796.951,-87.5164 806.055,-92.936 807.448,-86.076"/>
</g>
<!-- Node7 -->
<g id="node7" class="node"><title>Node7</title>
<polygon fill="none" stroke="#bfbfbf" points="983,-6.5 983,-25.5 1035,-25.5 1035,-6.5 983,-6.5"/>
<text text-anchor="middle" x="1009" y="-13.5" font-family="Helvetica,sans-Serif" font-size="10.00">memory</text>
</g>
<!-- Node3&#45;&gt;Node7 -->
<g id="edge10" class="edge"><title>Node3&#45;&gt;Node7</title>
<path fill="none" stroke="midnightblue" d="M1032.95,-124.459C1048.11,-112.484 1071.25,-89.73 1062,-68 1055.7,-53.206 1042.78,-40.6277 1031.27,-31.6642"/>
<polygon fill="midnightblue" stroke="midnightblue" points="1033.02,-28.6072 1022.88,-25.5375 1028.89,-34.2608 1033.02,-28.6072"/>
</g>
<!-- Node8 -->
<g id="node8" class="node"><title>Node8</title>
<polygon fill="none" stroke="#bfbfbf" points="563,-6.5 563,-25.5 607,-25.5 607,-6.5 563,-6.5"/>
<text text-anchor="middle" x="585" y="-13.5" font-family="Helvetica,sans-Serif" font-size="10.00">vector</text>
</g>
<!-- Node3&#45;&gt;Node8 -->
<g id="edge7" class="edge"><title>Node3&#45;&gt;Node8</title>
<path fill="none" stroke="midnightblue" d="M1019.54,-124.132C1016.67,-109.759 1008.85,-81.616 990,-68 959.913,-46.2688 707.873,-25.9526 617.275,-19.2871"/>
<polygon fill="midnightblue" stroke="midnightblue" points="617.28,-15.7783 607.052,-18.5427 616.771,-22.7598 617.28,-15.7783"/>
</g>
<!-- Node9 -->
<g id="node9" class="node"><title>Node9</title>
<polygon fill="none" stroke="#bfbfbf" points="932.5,-68.5 932.5,-87.5 981.5,-87.5 981.5,-68.5 932.5,-68.5"/>
<text text-anchor="middle" x="957" y="-75.5" font-family="Helvetica,sans-Serif" font-size="10.00">cassert</text>
</g>
<!-- Node3&#45;&gt;Node9 -->
<g id="edge8" class="edge"><title>Node3&#45;&gt;Node9</title>
<path fill="none" stroke="midnightblue" d="M1010.72,-124.324C1001.16,-116.263 986.72,-104.077 975.216,-94.3695"/>
<polygon fill="midnightblue" stroke="midnightblue" points="977.37,-91.6076 967.47,-87.8339 972.856,-96.9577 977.37,-91.6076"/>
</g>
<!-- Node10 -->
<g id="node10" class="node"><title>Node10</title>
<polygon fill="none" stroke="#bfbfbf" points="845.5,-6.5 845.5,-25.5 886.5,-25.5 886.5,-6.5 845.5,-6.5"/>
<text text-anchor="middle" x="866" y="-13.5" font-family="Helvetica,sans-Serif" font-size="10.00">string</text>
</g>
<!-- Node3&#45;&gt;Node10 -->
<g id="edge9" class="edge"><title>Node3&#45;&gt;Node10</title>
<path fill="none" stroke="midnightblue" d="M1024.48,-124.455C1029.33,-111.032 1036.23,-84.8044 1024,-68 1008.87,-47.2159 938.109,-30.6342 896.593,-22.49"/>
<polygon fill="midnightblue" stroke="midnightblue" points="897.198,-19.0425 886.719,-20.6038 895.885,-25.9181 897.198,-19.0425"/>
</g>
<!-- Node5 -->
<g id="node5" class="node"><title>Node5</title>
<polygon fill="none" stroke="#bfbfbf" points="449,-6.5 449,-25.5 487,-25.5 487,-6.5 449,-6.5"/>
<text text-anchor="middle" x="468" y="-13.5" font-family="Helvetica,sans-Serif" font-size="10.00">array</text>
</g>
<!-- Node4&#45;&gt;Node5 -->
<g id="edge4" class="edge"><title>Node4&#45;&gt;Node5</title>
<path fill="none" stroke="midnightblue" d="M466.287,-68.4035C466.569,-59.9381 467.009,-46.7283 467.373,-35.8199"/>
<polygon fill="midnightblue" stroke="midnightblue" points="470.879,-35.6917 467.714,-25.5806 463.883,-35.4584 470.879,-35.6917"/>
</g>
<!-- Node6&#45;&gt;Node7 -->
<g id="edge6" class="edge"><title>Node6&#45;&gt;Node7</title>
<path fill="none" stroke="midnightblue" d="M791.122,-68.4672C839.355,-57.0736 924.313,-37.0049 972.657,-25.5849"/>
<polygon fill="midnightblue" stroke="midnightblue" points="973.751,-28.9229 982.679,-23.2176 972.142,-22.1104 973.751,-28.9229"/>
</g>
<!-- Node11&#45;&gt;Node4 -->
<g id="edge13" class="edge"><title>Node11&#45;&gt;Node4</title>
<path fill="none" stroke="midnightblue" d="M456.816,-124.083C458.274,-116.927 460.371,-106.635 462.193,-97.6911"/>
<polygon fill="midnightblue" stroke="midnightblue" points="465.651,-98.2485 464.217,-87.7511 458.792,-96.8512 465.651,-98.2485"/>
</g>
<!-- Node11&#45;&gt;Node6 -->
<g id="edge14" class="edge"><title>Node11&#45;&gt;Node6</title>
<path fill="none" stroke="midnightblue" d="M502.536,-124.444C555.528,-114.905 641.203,-99.4834 697.817,-89.293"/>
<polygon fill="midnightblue" stroke="midnightblue" points="698.465,-92.7327 707.687,-87.5164 697.225,-85.8434 698.465,-92.7327"/>
</g>
<!-- Node11&#45;&gt;Node8 -->
<g id="edge15" class="edge"><title>Node11&#45;&gt;Node8</title>
<path fill="none" stroke="midnightblue" d="M385.373,-124.456C337.341,-115.694 286.388,-98.8396 312,-68 315.855,-63.3583 480.675,-34.7803 552.316,-22.5473"/>
<polygon fill="midnightblue" stroke="midnightblue" points="553.308,-25.9287 562.578,-20.798 552.132,-19.0283 553.308,-25.9287"/>
</g>
<!-- Node11&#45;&gt;Node9 -->
<g id="edge16" class="edge"><title>Node11&#45;&gt;Node9</title>
<path fill="none" stroke="midnightblue" d="M530.698,-124.857C641.056,-112.986 841.719,-91.4007 922.218,-82.7415"/>
<polygon fill="midnightblue" stroke="midnightblue" points="922.747,-86.2049 932.315,-81.6554 921.998,-79.245 922.747,-86.2049"/>
</g>
<!-- Node11&#45;&gt;Node10 -->
<g id="edge17" class="edge"><title>Node11&#45;&gt;Node10</title>
<path fill="none" stroke="midnightblue" d="M432.492,-124.379C404.639,-112.492 363.173,-90.0308 383,-68 398.22,-51.0884 731.184,-26.4359 835.224,-19.1209"/>
<polygon fill="midnightblue" stroke="midnightblue" points="835.653,-22.5995 845.385,-18.4106 835.165,-15.6166 835.653,-22.5995"/>
</g>
<!-- Node11&#45;&gt;Node12 -->
<g id="edge12" class="edge"><title>Node11&#45;&gt;Node12</title>
<path fill="none" stroke="midnightblue" d="M390.57,-124.499C325.099,-115.831 220.47,-101.9 120.16,-88.1522"/>
<polygon fill="midnightblue" stroke="midnightblue" points="120.538,-84.6714 110.155,-86.7796 119.586,-91.6064 120.538,-84.6714"/>
</g>
<!-- Node13&#45;&gt;Node4 -->
<g id="edge19" class="edge"><title>Node13&#45;&gt;Node4</title>
<path fill="none" stroke="midnightblue" d="M792.52,-124.444C723.132,-114.786 610.417,-99.0993 537.246,-88.9157"/>
<polygon fill="midnightblue" stroke="midnightblue" points="537.579,-85.4284 527.192,-87.5164 536.614,-92.3616 537.579,-85.4284"/>
</g>
<!-- Node13&#45;&gt;Node6 -->
<g id="edge20" class="edge"><title>Node13&#45;&gt;Node6</title>
<path fill="none" stroke="midnightblue" d="M838.094,-124.324C822.362,-115.743 798.058,-102.486 779.791,-92.5224"/>
<polygon fill="midnightblue" stroke="midnightblue" points="781.322,-89.3704 770.867,-87.6545 777.97,-95.5157 781.322,-89.3704"/>
</g>
<!-- Node13&#45;&gt;Node7 -->
<g id="edge24" class="edge"><title>Node13&#45;&gt;Node7</title>
<path fill="none" stroke="midnightblue" d="M861.965,-124.363C874.292,-111.269 899.072,-86.0173 923,-68 942.071,-53.6395 965.472,-39.9893 983.047,-30.4309"/>
<polygon fill="midnightblue" stroke="midnightblue" points="984.979,-33.3663 992.146,-25.5632 981.678,-27.194 984.979,-33.3663"/>
</g>
<!-- Node13&#45;&gt;Node8 -->
<g id="edge21" class="edge"><title>Node13&#45;&gt;Node8</title>
<path fill="none" stroke="midnightblue" d="M785.191,-125.378C747.468,-119.134 700.826,-107.93 663,-88 637.064,-74.3349 613.062,-49.9943 598.719,-33.6746"/>
<polygon fill="midnightblue" stroke="midnightblue" points="601.295,-31.3019 592.14,-25.9706 595.972,-35.8479 601.295,-31.3019"/>
</g>
<!-- Node13&#45;&gt;Node9 -->
<g id="edge22" class="edge"><title>Node13&#45;&gt;Node9</title>
<path fill="none" stroke="midnightblue" d="M870.549,-124.324C886.992,-115.703 912.435,-102.364 931.468,-92.3855"/>
<polygon fill="midnightblue" stroke="midnightblue" points="933.261,-95.3977 940.492,-87.6545 930.011,-89.198 933.261,-95.3977"/>
</g>
<!-- Node13&#45;&gt;Node10 -->
<g id="edge23" class="edge"><title>Node13&#45;&gt;Node10</title>
<path fill="none" stroke="midnightblue" d="M854.902,-124.281C856.84,-105.547 861.438,-61.098 864.067,-35.6822"/>
<polygon fill="midnightblue" stroke="midnightblue" points="867.573,-35.8119 865.12,-25.5048 860.61,-35.0915 867.573,-35.8119"/>
</g>
<!-- Node14&#45;&gt;Node4 -->
<g id="edge26" class="edge"><title>Node14&#45;&gt;Node4</title>
<path fill="none" stroke="midnightblue" d="M593.074,-124.444C567.781,-115.399 527.698,-101.064 499.32,-90.9158"/>
<polygon fill="midnightblue" stroke="midnightblue" points="500.409,-87.5882 489.814,-87.5164 498.052,-94.1794 500.409,-87.5882"/>
</g>
<!-- Node14&#45;&gt;Node6 -->
<g id="edge27" class="edge"><title>Node14&#45;&gt;Node6</title>
<path fill="none" stroke="midnightblue" d="M638.867,-124.444C661.779,-115.478 697.975,-101.314 723.866,-91.1827"/>
<polygon fill="midnightblue" stroke="midnightblue" points="725.199,-94.4198 733.236,-87.5164 722.648,-87.9011 725.199,-94.4198"/>
</g>
<!-- Node14&#45;&gt;Node7 -->
<g id="edge40" class="edge"><title>Node14&#45;&gt;Node7</title>
<path fill="none" stroke="midnightblue" d="M620.522,-124.096C626.733,-109.671 641.087,-81.4543 663,-68 669.596,-63.9502 885.307,-33.981 972.736,-21.9638"/>
<polygon fill="midnightblue" stroke="midnightblue" points="973.308,-25.4181 982.739,-20.5902 972.356,-18.4831 973.308,-25.4181"/>
</g>
<!-- Node14&#45;&gt;Node8 -->
<g id="edge37" class="edge"><title>Node14&#45;&gt;Node8</title>
<path fill="none" stroke="midnightblue" d="M549.837,-124.479C484.542,-115.507 393.67,-100.918 383,-88 377.339,-81.1468 377.538,-75.0126 383,-68 393.497,-54.5238 498.495,-33.1657 552.811,-22.8961"/>
<polygon fill="midnightblue" stroke="midnightblue" points="553.771,-26.2773 562.955,-20.9957 552.482,-19.397 553.771,-26.2773"/>
</g>
<!-- Node14&#45;&gt;Node9 -->
<g id="edge38" class="edge"><title>Node14&#45;&gt;Node9</title>
<path fill="none" stroke="midnightblue" d="M670.874,-124.444C741.354,-113.25 862.845,-93.9541 922.253,-84.5186"/>
<polygon fill="midnightblue" stroke="midnightblue" points="922.931,-87.9549 932.258,-82.9296 921.833,-81.0416 922.931,-87.9549"/>
</g>
<!-- Node14&#45;&gt;Node10 -->
<g id="edge39" class="edge"><title>Node14&#45;&gt;Node10</title>
<path fill="none" stroke="midnightblue" d="M608.415,-124.089C596.505,-110.637 577.936,-84.9237 592,-68 622.687,-31.0746 770.454,-20.7506 835.339,-17.975"/>
<polygon fill="midnightblue" stroke="midnightblue" points="835.516,-21.4708 845.37,-17.5784 835.24,-14.4763 835.516,-21.4708"/>
</g>
<!-- Node15 -->
<g id="node15" class="node"><title>Node15</title>
<g id="a_node15"><a xlink:href="../../d5/d98/TableBuilder_8h.html" target="_top" xlink:title="Framework/TableBuilder.h">
<polygon fill="none" stroke="black" points="128.5,-68.5 128.5,-87.5 259.5,-87.5 259.5,-68.5 128.5,-68.5"/>
<text text-anchor="middle" x="194" y="-75.5" font-family="Helvetica,sans-Serif" font-size="10.00">Framework/TableBuilder.h</text>
</a>
</g>
</g>
<!-- Node14&#45;&gt;Node15 -->
<g id="edge28" class="edge"><title>Node14&#45;&gt;Node15</title>
<path fill="none" stroke="midnightblue" d="M549.974,-124.444C473.682,-114.704 349.347,-98.8316 269.643,-88.6566"/>
<polygon fill="midnightblue" stroke="midnightblue" points="270.031,-85.1778 259.669,-87.3832 269.145,-92.1215 270.031,-85.1778"/>
</g>
<!-- Node15&#45;&gt;Node7 -->
<g id="edge35" class="edge"><title>Node15&#45;&gt;Node7</title>
<path fill="none" stroke="midnightblue" d="M259.716,-73.3442C409.539,-64.9181 772.868,-43.9416 895,-32 921.07,-29.451 950.366,-25.5741 972.731,-22.4003"/>
<polygon fill="midnightblue" stroke="midnightblue" points="973.395,-25.8409 982.795,-20.9534 972.399,-18.9122 973.395,-25.8409"/>
</g>
<!-- Node15&#45;&gt;Node8 -->
<g id="edge33" class="edge"><title>Node15&#45;&gt;Node8</title>
<path fill="none" stroke="midnightblue" d="M253.361,-68.4957C314.297,-59.6857 411.841,-45.3609 496,-32 514.839,-29.0092 535.886,-25.4709 552.782,-22.5821"/>
<polygon fill="midnightblue" stroke="midnightblue" points="553.444,-26.0197 562.708,-20.8781 552.26,-19.1206 553.444,-26.0197"/>
</g>
<!-- Node15&#45;&gt;Node10 -->
<g id="edge34" class="edge"><title>Node15&#45;&gt;Node10</title>
<path fill="none" stroke="midnightblue" d="M259.658,-71.1377C401.759,-58.4501 733.242,-28.8534 835.446,-19.728"/>
<polygon fill="midnightblue" stroke="midnightblue" points="835.768,-23.2133 845.417,-18.8378 835.145,-16.241 835.768,-23.2133"/>
</g>
<!-- Node16 -->
<g id="node16" class="node"><title>Node16</title>
<polygon fill="none" stroke="#bfbfbf" points="161,-6.5 161,-25.5 223,-25.5 223,-6.5 161,-6.5"/>
<text text-anchor="middle" x="192" y="-13.5" font-family="Helvetica,sans-Serif" font-size="10.00">arrow/stl.h</text>
</g>
<!-- Node15&#45;&gt;Node16 -->
<g id="edge29" class="edge"><title>Node15&#45;&gt;Node16</title>
<path fill="none" stroke="midnightblue" d="M193.713,-68.4035C193.431,-59.9381 192.991,-46.7283 192.627,-35.8199"/>
<polygon fill="midnightblue" stroke="midnightblue" points="196.117,-35.4584 192.286,-25.5806 189.121,-35.6917 196.117,-35.4584"/>
</g>
<!-- Node17 -->
<g id="node17" class="node"><title>Node17</title>
<polygon fill="none" stroke="#bfbfbf" points="241,-6.5 241,-25.5 339,-25.5 339,-6.5 241,-6.5"/>
<text text-anchor="middle" x="290" y="-13.5" font-family="Helvetica,sans-Serif" font-size="10.00">arrow/type_traits.h</text>
</g>
<!-- Node15&#45;&gt;Node17 -->
<g id="edge30" class="edge"><title>Node15&#45;&gt;Node17</title>
<path fill="none" stroke="midnightblue" d="M207.754,-68.4035C223.366,-58.646 249.063,-42.5854 267.583,-31.0109"/>
<polygon fill="midnightblue" stroke="midnightblue" points="269.646,-33.8486 276.271,-25.5806 265.936,-27.9126 269.646,-33.8486"/>
</g>
<!-- Node18 -->
<g id="node18" class="node"><title>Node18</title>
<polygon fill="none" stroke="#bfbfbf" points="357.5,-6.5 357.5,-25.5 430.5,-25.5 430.5,-6.5 357.5,-6.5"/>
<text text-anchor="middle" x="394" y="-13.5" font-family="Helvetica,sans-Serif" font-size="10.00">arrow/table.h</text>
</g>
<!-- Node15&#45;&gt;Node18 -->
<g id="edge31" class="edge"><title>Node15&#45;&gt;Node18</title>
<path fill="none" stroke="midnightblue" d="M223.677,-68.4894C254.546,-59.586 304.249,-45.1071 347,-32 350.567,-30.9063 354.282,-29.7505 357.989,-28.5853"/>
<polygon fill="midnightblue" stroke="midnightblue" points="359.207,-31.8711 367.684,-25.5157 357.094,-25.1977 359.207,-31.8711"/>
</g>
<!-- Node19 -->
<g id="node19" class="node"><title>Node19</title>
<polygon fill="none" stroke="#bfbfbf" points="7,-6.5 7,-25.5 87,-25.5 87,-6.5 7,-6.5"/>
<text text-anchor="middle" x="47" y="-13.5" font-family="Helvetica,sans-Serif" font-size="10.00">arrow/builder.h</text>
</g>
<!-- Node15&#45;&gt;Node19 -->
<g id="edge32" class="edge"><title>Node15&#45;&gt;Node19</title>
<path fill="none" stroke="midnightblue" d="M172.938,-68.4035C147.941,-58.2004 106.058,-41.1055 77.5134,-29.4544"/>
<polygon fill="midnightblue" stroke="midnightblue" points="78.6036,-26.1192 68.0224,-25.5806 75.9583,-32.6001 78.6036,-26.1192"/>
</g>
<!-- Node20 -->
<g id="node20" class="node"><title>Node20</title>
<polygon fill="none" stroke="#bfbfbf" points="105,-6.5 105,-25.5 143,-25.5 143,-6.5 105,-6.5"/>
<text text-anchor="middle" x="124" y="-13.5" font-family="Helvetica,sans-Serif" font-size="10.00">tuple</text>
</g>
<!-- Node15&#45;&gt;Node20 -->
<g id="edge36" class="edge"><title>Node15&#45;&gt;Node20</title>
<path fill="none" stroke="midnightblue" d="M183.971,-68.4035C172.951,-58.9579 155.04,-43.6056 141.657,-32.1342"/>
<polygon fill="midnightblue" stroke="midnightblue" points="143.881,-29.4311 134.011,-25.5806 139.325,-34.7459 143.881,-29.4311"/>
</g>
<!-- Node21&#45;&gt;Node7 -->
<g id="edge49" class="edge"><title>Node21&#45;&gt;Node7</title>
<path fill="none" stroke="midnightblue" d="M1591.85,-132.28C1670.81,-129.642 1782.33,-120.125 1810,-88 1815.8,-81.2645 1816.08,-74.482 1810,-68 1783.49,-39.7499 1198.44,-22.0918 1045.38,-17.9445"/>
<polygon fill="midnightblue" stroke="midnightblue" points="1045.21,-14.4388 1035.12,-17.6693 1045.02,-21.4362 1045.21,-14.4388"/>
</g>
<!-- Node22 -->
<g id="node22" class="node"><title>Node22</title>
<polygon fill="none" stroke="#bfbfbf" points="1176.5,-68.5 1176.5,-87.5 1303.5,-87.5 1303.5,-68.5 1176.5,-68.5"/>
<text text-anchor="middle" x="1240" y="-75.5" font-family="Helvetica,sans-Serif" font-size="10.00">fairmq/FairMQMessage.h</text>
</g>
<!-- Node21&#45;&gt;Node22 -->
<g id="edge42" class="edge"><title>Node21&#45;&gt;Node22</title>
<path fill="none" stroke="midnightblue" d="M1467.22,-124.444C1419.82,-114.964 1343.37,-99.6747 1292.42,-89.4835"/>
<polygon fill="midnightblue" stroke="midnightblue" points="1293.07,-86.0456 1282.58,-87.5164 1291.7,-92.9097 1293.07,-86.0456"/>
</g>
<!-- Node23 -->
<g id="node23" class="node"><title>Node23</title>
<polygon fill="none" stroke="#bfbfbf" points="1321.5,-68.5 1321.5,-87.5 1368.5,-87.5 1368.5,-68.5 1321.5,-68.5"/>
<text text-anchor="middle" x="1345" y="-75.5" font-family="Helvetica,sans-Serif" font-size="10.00">TList.h</text>
</g>
<!-- Node21&#45;&gt;Node23 -->
<g id="edge43" class="edge"><title>Node21&#45;&gt;Node23</title>
<path fill="none" stroke="midnightblue" d="M1483.86,-124.444C1455.24,-115.078 1409.29,-100.042 1378.16,-89.8532"/>
<polygon fill="midnightblue" stroke="midnightblue" points="1379.21,-86.5131 1368.62,-86.729 1377.03,-93.1659 1379.21,-86.5131"/>
</g>
<!-- Node24 -->
<g id="node24" class="node"><title>Node24</title>
<polygon fill="none" stroke="#bfbfbf" points="1386.5,-68.5 1386.5,-87.5 1457.5,-87.5 1457.5,-68.5 1386.5,-68.5"/>
<text text-anchor="middle" x="1422" y="-75.5" font-family="Helvetica,sans-Serif" font-size="10.00">TMessage.h</text>
</g>
<!-- Node21&#45;&gt;Node24 -->
<g id="edge44" class="edge"><title>Node21&#45;&gt;Node24</title>
<path fill="none" stroke="midnightblue" d="M1495.86,-124.324C1482.13,-115.9 1461.06,-102.971 1444.94,-93.0741"/>
<polygon fill="midnightblue" stroke="midnightblue" points="1446.46,-89.9016 1436.1,-87.6545 1442.8,-95.8678 1446.46,-89.9016"/>
</g>
<!-- Node25 -->
<g id="node25" class="node"><title>Node25</title>
<polygon fill="none" stroke="#bfbfbf" points="1475.5,-68.5 1475.5,-87.5 1544.5,-87.5 1544.5,-68.5 1475.5,-68.5"/>
<text text-anchor="middle" x="1510" y="-75.5" font-family="Helvetica,sans-Serif" font-size="10.00">TObjArray.h</text>
</g>
<!-- Node21&#45;&gt;Node25 -->
<g id="edge45" class="edge"><title>Node21&#45;&gt;Node25</title>
<path fill="none" stroke="midnightblue" d="M1510,-124.083C1510,-117.006 1510,-106.861 1510,-97.9865"/>
<polygon fill="midnightblue" stroke="midnightblue" points="1513.5,-97.751 1510,-87.7511 1506.5,-97.7511 1513.5,-97.751"/>
</g>
<!-- Node26 -->
<g id="node26" class="node"><title>Node26</title>
<polygon fill="none" stroke="#bfbfbf" points="1562.5,-68.5 1562.5,-87.5 1649.5,-87.5 1649.5,-68.5 1562.5,-68.5"/>
<text text-anchor="middle" x="1606" y="-75.5" font-family="Helvetica,sans-Serif" font-size="10.00">TStreamerInfo.h</text>
</g>
<!-- Node21&#45;&gt;Node26 -->
<g id="edge46" class="edge"><title>Node21&#45;&gt;Node26</title>
<path fill="none" stroke="midnightblue" d="M1525.42,-124.324C1540.54,-115.822 1563.82,-102.729 1581.47,-92.7975"/>
<polygon fill="midnightblue" stroke="midnightblue" points="1583.61,-95.6077 1590.61,-87.6545 1580.18,-89.5066 1583.61,-95.6077"/>
</g>
<!-- Node27 -->
<g id="node27" class="node"><title>Node27</title>
<polygon fill="none" stroke="#bfbfbf" points="1667.5,-68.5 1667.5,-87.5 1730.5,-87.5 1730.5,-68.5 1667.5,-68.5"/>
<text text-anchor="middle" x="1699" y="-75.5" font-family="Helvetica,sans-Serif" font-size="10.00">gsl/gsl_util</text>
</g>
<!-- Node21&#45;&gt;Node27 -->
<g id="edge47" class="edge"><title>Node21&#45;&gt;Node27</title>
<path fill="none" stroke="midnightblue" d="M1539.95,-124.444C1572.16,-115.241 1623.53,-100.562 1659.14,-90.3879"/>
<polygon fill="midnightblue" stroke="midnightblue" points="1660.54,-93.629 1669.19,-87.5164 1658.62,-86.8984 1660.54,-93.629"/>
</g>
<!-- Node28 -->
<g id="node28" class="node"><title>Node28</title>
<polygon fill="none" stroke="#bfbfbf" points="1748.5,-68.5 1748.5,-87.5 1801.5,-87.5 1801.5,-68.5 1748.5,-68.5"/>
<text text-anchor="middle" x="1775" y="-75.5" font-family="Helvetica,sans-Serif" font-size="10.00">gsl/span</text>
</g>
<!-- Node21&#45;&gt;Node28 -->
<g id="edge48" class="edge"><title>Node21&#45;&gt;Node28</title>
<path fill="none" stroke="midnightblue" d="M1557.07,-124.475C1601.3,-116.304 1669.55,-103.277 1738.17,-88.0917"/>
<polygon fill="midnightblue" stroke="midnightblue" points="1739.3,-91.4268 1748.3,-85.8359 1737.78,-84.5944 1739.3,-91.4268"/>
</g>
<!-- Node29 -->
<g id="node29" class="node"><title>Node29</title>
<polygon fill="none" stroke="#bfbfbf" points="1114,-68.5 1114,-87.5 1158,-87.5 1158,-68.5 1114,-68.5"/>
<text text-anchor="middle" x="1136" y="-75.5" font-family="Helvetica,sans-Serif" font-size="10.00">mutex</text>
</g>
<!-- Node21&#45;&gt;Node29 -->
<g id="edge50" class="edge"><title>Node21&#45;&gt;Node29</title>
<path fill="none" stroke="midnightblue" d="M1428.33,-125.814C1360.85,-119.067 1262.47,-107.367 1168.24,-87.9853"/>
<polygon fill="midnightblue" stroke="midnightblue" points="1168.75,-84.5178 1158.25,-85.8986 1167.32,-91.3698 1168.75,-84.5178"/>
</g>
<!-- Node30 -->
<g id="node30" class="node"><title>Node30</title>
<g id="a_node30"><a xlink:href="../../dc/d03/MemoryResources_8h.html" target="_top" xlink:title="MemoryResources/MemoryResources.h">
<polygon fill="none" stroke="black" points="2145.5,-68.5 2145.5,-87.5 2338.5,-87.5 2338.5,-68.5 2145.5,-68.5"/>
<text text-anchor="middle" x="2242" y="-75.5" font-family="Helvetica,sans-Serif" font-size="10.00">MemoryResources/MemoryResources.h</text>
</a>
</g>
</g>
<!-- Node21&#45;&gt;Node30 -->
<g id="edge51" class="edge"><title>Node21&#45;&gt;Node30</title>
<path fill="none" stroke="midnightblue" d="M1591.84,-126.963C1724.86,-117.15 1987.92,-97.7435 2135.39,-86.8647"/>
<polygon fill="midnightblue" stroke="midnightblue" points="2135.65,-90.3548 2145.37,-86.1285 2135.14,-83.3738 2135.65,-90.3548"/>
</g>
<!-- Node30&#45;&gt;Node8 -->
<g id="edge60" class="edge"><title>Node30&#45;&gt;Node8</title>
<path fill="none" stroke="midnightblue" d="M2145.46,-72.8521C2106.77,-71.2462 2061.77,-69.4496 2021,-68 1494.42,-49.2797 1362.38,-55.7188 836,-32 757.345,-28.4558 664.933,-22.4602 617.19,-19.2265"/>
<polygon fill="midnightblue" stroke="midnightblue" points="617.364,-15.7303 607.149,-18.5425 616.888,-22.7142 617.364,-15.7303"/>
</g>
<!-- Node30&#45;&gt;Node10 -->
<g id="edge57" class="edge"><title>Node30&#45;&gt;Node10</title>
<path fill="none" stroke="midnightblue" d="M2145.44,-72.0794C2116.37,-70.6719 2084.39,-69.1966 2055,-68 1574.69,-48.4449 1452.95,-73.1217 974,-32 947.743,-29.7456 918.104,-25.507 896.526,-22.1091"/>
<polygon fill="midnightblue" stroke="midnightblue" points="897.06,-18.65 886.632,-20.5209 895.951,-25.5616 897.06,-18.65"/>
</g>
<!-- Node31 -->
<g id="node31" class="node"><title>Node31</title>
<polygon fill="none" stroke="#bfbfbf" points="2326,-1 2326,-31 2426,-31 2426,-1 2326,-1"/>
<text text-anchor="start" x="2334" y="-19" font-family="Helvetica,sans-Serif" font-size="10.00">boost/container/flat</text>
<text text-anchor="middle" x="2376" y="-8" font-family="Helvetica,sans-Serif" font-size="10.00">_map.hpp</text>
</g>
<!-- Node30&#45;&gt;Node31 -->
<g id="edge52" class="edge"><title>Node30&#45;&gt;Node31</title>
<path fill="none" stroke="midnightblue" d="M2261.2,-68.4035C2280.51,-59.7549 2310.89,-46.1545 2335.54,-35.1152"/>
<polygon fill="midnightblue" stroke="midnightblue" points="2336.98,-38.3064 2344.68,-31.0253 2334.12,-31.9176 2336.98,-38.3064"/>
</g>
<!-- Node32 -->
<g id="node32" class="node"><title>Node32</title>
<polygon fill="none" stroke="#bfbfbf" points="2444,-1 2444,-31 2560,-31 2560,-1 2444,-1"/>
<text text-anchor="start" x="2452" y="-19" font-family="Helvetica,sans-Serif" font-size="10.00">boost/container/pmr</text>
<text text-anchor="middle" x="2502" y="-8" font-family="Helvetica,sans-Serif" font-size="10.00">/memory_resource.hpp</text>
</g>
<!-- Node30&#45;&gt;Node32 -->
<g id="edge53" class="edge"><title>Node30&#45;&gt;Node32</title>
<path fill="none" stroke="midnightblue" d="M2278.98,-68.4672C2319.11,-59.2051 2384.09,-44.2103 2433.58,-32.789"/>
<polygon fill="midnightblue" stroke="midnightblue" points="2434.62,-36.1414 2443.58,-30.4824 2433.05,-29.3207 2434.62,-36.1414"/>
</g>
<!-- Node33 -->
<g id="node33" class="node"><title>Node33</title>
<polygon fill="none" stroke="#bfbfbf" points="2578,-1 2578,-31 2734,-31 2734,-1 2578,-1"/>
<text text-anchor="start" x="2586" y="-19" font-family="Helvetica,sans-Serif" font-size="10.00">boost/container/pmr</text>
<text text-anchor="middle" x="2656" y="-8" font-family="Helvetica,sans-Serif" font-size="10.00">/monotonic_buffer_resource.hpp</text>
</g>
<!-- Node30&#45;&gt;Node33 -->
<g id="edge54" class="edge"><title>Node30&#45;&gt;Node33</title>
<path fill="none" stroke="midnightblue" d="M2308.27,-68.4771C2372.02,-60.1373 2471.35,-46.769 2567.88,-31.9876"/>
<polygon fill="midnightblue" stroke="midnightblue" points="2568.46,-35.4394 2577.81,-30.4598 2567.4,-28.5207 2568.46,-35.4394"/>
</g>
<!-- Node34 -->
<g id="node34" class="node"><title>Node34</title>
<polygon fill="none" stroke="#bfbfbf" points="1670.5,-1 1670.5,-31 1803.5,-31 1803.5,-1 1670.5,-1"/>
<text text-anchor="start" x="1678.5" y="-19" font-family="Helvetica,sans-Serif" font-size="10.00">boost/container/pmr</text>
<text text-anchor="middle" x="1737" y="-8" font-family="Helvetica,sans-Serif" font-size="10.00">/polymorphic_allocator.hpp</text>
</g>
<!-- Node30&#45;&gt;Node34 -->
<g id="edge55" class="edge"><title>Node30&#45;&gt;Node34</title>
<path fill="none" stroke="midnightblue" d="M2151.53,-68.4802C2050.23,-58.7769 1891.21,-43.0167 1814.01,-32.0296"/>
<polygon fill="midnightblue" stroke="midnightblue" points="1814.07,-28.5018 1803.67,-30.5121 1813.05,-35.4276 1814.07,-28.5018"/>
</g>
<!-- Node35 -->
<g id="node35" class="node"><title>Node35</title>
<polygon fill="none" stroke="#bfbfbf" points="2752,-6.5 2752,-25.5 2798,-25.5 2798,-6.5 2752,-6.5"/>
<text text-anchor="middle" x="2775" y="-13.5" font-family="Helvetica,sans-Serif" font-size="10.00">cstring</text>
</g>
<!-- Node30&#45;&gt;Node35 -->
<g id="edge56" class="edge"><title>Node30&#45;&gt;Node35</title>
<path fill="none" stroke="midnightblue" d="M2338.63,-68.7452C2481.49,-56.4813 2733.36,-34.606 2743,-32 2745.35,-31.3652 2747.74,-30.5671 2750.1,-29.6716"/>
<polygon fill="midnightblue" stroke="midnightblue" points="2751.68,-32.7999 2759.46,-25.6103 2748.9,-26.3777 2751.68,-32.7999"/>
</g>
<!-- Node36 -->
<g id="node36" class="node"><title>Node36</title>
<polygon fill="none" stroke="#bfbfbf" points="1822,-6.5 1822,-25.5 1884,-25.5 1884,-6.5 1822,-6.5"/>
<text text-anchor="middle" x="1853" y="-13.5" font-family="Helvetica,sans-Serif" font-size="10.00">type_traits</text>
</g>
<!-- Node30&#45;&gt;Node36 -->
<g id="edge58" class="edge"><title>Node30&#45;&gt;Node36</title>
<path fill="none" stroke="midnightblue" d="M2158.41,-68.4639C2071.57,-59.1951 1941.69,-44.0965 1893,-32 1889.59,-31.1517 1886.06,-30.1028 1882.59,-28.9567"/>
<polygon fill="midnightblue" stroke="midnightblue" points="1883.66,-25.6213 1873.06,-25.5552 1881.3,-32.2137 1883.66,-25.6213"/>
</g>
<!-- Node37 -->
<g id="node37" class="node"><title>Node37</title>
<polygon fill="none" stroke="#bfbfbf" points="1902,-6.5 1902,-25.5 1942,-25.5 1942,-6.5 1902,-6.5"/>
<text text-anchor="middle" x="1922" y="-13.5" font-family="Helvetica,sans-Serif" font-size="10.00">utility</text>
</g>
<!-- Node30&#45;&gt;Node37 -->
<g id="edge59" class="edge"><title>Node30&#45;&gt;Node37</title>
<path fill="none" stroke="midnightblue" d="M2145.26,-69.5479C2088.05,-63.2887 2014.74,-52.0134 1952,-32 1950.09,-31.3895 1948.14,-30.671 1946.21,-29.8849"/>
<polygon fill="midnightblue" stroke="midnightblue" points="1947.42,-26.5886 1936.88,-25.5761 1944.49,-32.9444 1947.42,-26.5886"/>
</g>
<!-- Node38 -->
<g id="node38" class="node"><title>Node38</title>
<polygon fill="none" stroke="#bfbfbf" points="1960.5,-6.5 1960.5,-25.5 2043.5,-25.5 2043.5,-6.5 1960.5,-6.5"/>
<text text-anchor="middle" x="2002" y="-13.5" font-family="Helvetica,sans-Serif" font-size="10.00">unordered_map</text>
</g>
<!-- Node30&#45;&gt;Node38 -->
<g id="edge61" class="edge"><title>Node30&#45;&gt;Node38</title>
<path fill="none" stroke="midnightblue" d="M2203.48,-68.4501C2165.18,-59.8032 2104.83,-45.782 2053,-32 2048.67,-30.8482 2044.15,-29.5937 2039.66,-28.3167"/>
<polygon fill="midnightblue" stroke="midnightblue" points="2040.56,-24.9349 2029.98,-25.5169 2038.62,-31.659 2040.56,-24.9349"/>
</g>
<!-- Node39 -->
<g id="node39" class="node"><title>Node39</title>
<polygon fill="none" stroke="#bfbfbf" points="2061.5,-6.5 2061.5,-25.5 2158.5,-25.5 2158.5,-6.5 2061.5,-6.5"/>
<text text-anchor="middle" x="2110" y="-13.5" font-family="Helvetica,sans-Serif" font-size="10.00">FairMQMessage.h</text>
</g>
<!-- Node30&#45;&gt;Node39 -->
<g id="edge62" class="edge"><title>Node30&#45;&gt;Node39</title>
<path fill="none" stroke="midnightblue" d="M2223.09,-68.4035C2200.84,-58.2896 2163.69,-41.4036 2138.07,-29.761"/>
<polygon fill="midnightblue" stroke="midnightblue" points="2139.43,-26.5324 2128.88,-25.5806 2136.53,-32.905 2139.43,-26.5324"/>
</g>
<!-- Node40 -->
<g id="node40" class="node"><title>Node40</title>
<polygon fill="none" stroke="#bfbfbf" points="2176.5,-6.5 2176.5,-25.5 2307.5,-25.5 2307.5,-6.5 2176.5,-6.5"/>
<text text-anchor="middle" x="2242" y="-13.5" font-family="Helvetica,sans-Serif" font-size="10.00">FairMQTransportFactory.h</text>
</g>
<!-- Node30&#45;&gt;Node40 -->
<g id="edge63" class="edge"><title>Node30&#45;&gt;Node40</title>
<path fill="none" stroke="midnightblue" d="M2242,-68.4035C2242,-59.9381 2242,-46.7283 2242,-35.8199"/>
<polygon fill="midnightblue" stroke="midnightblue" points="2245.5,-35.5806 2242,-25.5806 2238.5,-35.5806 2245.5,-35.5806"/>
</g>
<!-- Node41&#45;&gt;Node7 -->
<g id="edge65" class="edge"><title>Node41&#45;&gt;Node7</title>
<path fill="none" stroke="midnightblue" d="M1954.48,-124.459C1993.16,-113.81 2045.55,-93.8199 2021,-68 1986.7,-31.9258 1221.73,-19.7715 1045.14,-17.4416"/>
<polygon fill="midnightblue" stroke="midnightblue" points="1045.11,-13.941 1035.07,-17.311 1045.02,-20.9404 1045.11,-13.941"/>
</g>
<!-- Node42 -->
<g id="node42" class="node"><title>Node42</title>
<polygon fill="none" stroke="#bfbfbf" points="1953.5,-68.5 1953.5,-87.5 2012.5,-87.5 2012.5,-68.5 1953.5,-68.5"/>
<text text-anchor="middle" x="1983" y="-75.5" font-family="Helvetica,sans-Serif" font-size="10.00">functional</text>
</g>
<!-- Node41&#45;&gt;Node42 -->
<g id="edge66" class="edge"><title>Node41&#45;&gt;Node42</title>
<path fill="none" stroke="midnightblue" d="M1928.44,-124.324C1938.15,-116.263 1952.82,-104.077 1964.5,-94.3695"/>
<polygon fill="midnightblue" stroke="midnightblue" points="1966.91,-96.9163 1972.37,-87.8339 1962.44,-91.532 1966.91,-96.9163"/>
</g>
<!-- Node43 -->
<g id="node43" class="node"><title>Node43</title>
<polygon fill="none" stroke="#bfbfbf" points="1858.5,-68.5 1858.5,-87.5 1935.5,-87.5 1935.5,-68.5 1858.5,-68.5"/>
<text text-anchor="middle" x="1897" y="-75.5" font-family="Helvetica,sans-Serif" font-size="10.00">arrow/buffer.h</text>
</g>
<!-- Node41&#45;&gt;Node43 -->
<g id="edge67" class="edge"><title>Node41&#45;&gt;Node43</title>
<path fill="none" stroke="midnightblue" d="M1914.53,-124.083C1911.69,-116.77 1907.57,-106.181 1904.04,-97.1034"/>
<polygon fill="midnightblue" stroke="midnightblue" points="1907.29,-95.8025 1900.4,-87.7511 1900.77,-98.3397 1907.29,-95.8025"/>
</g>
<!-- Node44&#45;&gt;Node7 -->
<g id="edge70" class="edge"><title>Node44&#45;&gt;Node7</title>
<path fill="none" stroke="midnightblue" d="M2076.44,-124.356C2071.62,-109.777 2059.66,-80.6542 2038,-68 1994.3,-42.4661 1223.26,-22.211 1045.39,-17.865"/>
<polygon fill="midnightblue" stroke="midnightblue" points="1045.33,-14.3625 1035.25,-17.6187 1045.16,-21.3604 1045.33,-14.3625"/>
</g>
<!-- Node44&#45;&gt;Node9 -->
<g id="edge71" class="edge"><title>Node44&#45;&gt;Node9</title>
<path fill="none" stroke="midnightblue" d="M2020.16,-126.546C2010.11,-125.587 1999.76,-124.691 1990,-124 1597.33,-96.1843 1498.15,-107.948 1105,-88 1066.3,-86.0366 1021.95,-83.2708 991.966,-81.3248"/>
<polygon fill="midnightblue" stroke="midnightblue" points="991.814,-77.8075 981.607,-80.648 991.358,-84.7926 991.814,-77.8075"/>
</g>
<!-- Node44&#45;&gt;Node10 -->
<g id="edge75" class="edge"><title>Node44&#45;&gt;Node10</title>
<path fill="none" stroke="midnightblue" d="M2074.35,-124.232C2065.96,-109.466 2046.75,-80.0674 2021,-68 1915.6,-18.5979 1089.97,-42.0201 974,-32 947.744,-29.7314 918.105,-25.4941 896.527,-22.1002"/>
<polygon fill="midnightblue" stroke="midnightblue" points="897.06,-18.6411 886.632,-20.5142 895.952,-25.5529 897.06,-18.6411"/>
</g>
<!-- Node44&#45;&gt;Node30 -->
<g id="edge76" class="edge"><title>Node44&#45;&gt;Node30</title>
<path fill="none" stroke="midnightblue" d="M2104.83,-124.444C2132.25,-115.359 2175.78,-100.939 2206.43,-90.7831"/>
<polygon fill="midnightblue" stroke="midnightblue" points="2207.9,-93.9837 2216.29,-87.5164 2205.7,-87.3389 2207.9,-93.9837"/>
</g>
<!-- Node44&#45;&gt;Node35 -->
<g id="edge72" class="edge"><title>Node44&#45;&gt;Node35</title>
<path fill="none" stroke="midnightblue" d="M2137.58,-125.075C2140.77,-124.698 2143.92,-124.337 2147,-124 2331.48,-103.82 2380.9,-123.772 2563,-88 2645.21,-71.8504 2664.89,-62.2952 2743,-32 2744.84,-31.2845 2746.73,-30.5112 2748.62,-29.7061"/>
<polygon fill="midnightblue" stroke="midnightblue" points="2750.23,-32.8231 2757.92,-25.5348 2747.36,-26.437 2750.23,-32.8231"/>
</g>
<!-- Node45 -->
<g id="node45" class="node"><title>Node45</title>
<polygon fill="none" stroke="#bfbfbf" points="2357,-68.5 2357,-87.5 2403,-87.5 2403,-68.5 2357,-68.5"/>
<text text-anchor="middle" x="2380" y="-75.5" font-family="Helvetica,sans-Serif" font-size="10.00">cstdint</text>
</g>
<!-- Node44&#45;&gt;Node45 -->
<g id="edge69" class="edge"><title>Node44&#45;&gt;Node45</title>
<path fill="none" stroke="midnightblue" d="M2137.61,-124.881C2192.13,-116.923 2275.46,-103.72 2347,-88 2347.1,-87.9777 2347.2,-87.9553 2347.3,-87.9327"/>
<polygon fill="midnightblue" stroke="midnightblue" points="2348.1,-91.3422 2356.99,-85.5895 2346.45,-84.5384 2348.1,-91.3422"/>
</g>
<!-- Node46 -->
<g id="node46" class="node"><title>Node46</title>
<polygon fill="none" stroke="#bfbfbf" points="2421,-68.5 2421,-87.5 2477,-87.5 2477,-68.5 2421,-68.5"/>
<text text-anchor="middle" x="2449" y="-75.5" font-family="Helvetica,sans-Serif" font-size="10.00">algorithm</text>
</g>
<!-- Node44&#45;&gt;Node46 -->
<g id="edge73" class="edge"><title>Node44&#45;&gt;Node46</title>
<path fill="none" stroke="midnightblue" d="M2137.83,-125.212C2221.21,-114.153 2367.72,-94.6362 2410.89,-87.8561"/>
<polygon fill="midnightblue" stroke="midnightblue" points="2411.51,-91.3014 2420.78,-86.1843 2410.34,-84.3992 2411.51,-91.3014"/>
</g>
<!-- Node47 -->
<g id="node47" class="node"><title>Node47</title>
<polygon fill="none" stroke="#bfbfbf" points="2495.5,-68.5 2495.5,-87.5 2554.5,-87.5 2554.5,-68.5 2495.5,-68.5"/>
<text text-anchor="middle" x="2525" y="-75.5" font-family="Helvetica,sans-Serif" font-size="10.00">stdexcept</text>
</g>
<!-- Node44&#45;&gt;Node47 -->
<g id="edge74" class="edge"><title>Node44&#45;&gt;Node47</title>
<path fill="none" stroke="midnightblue" d="M2137.59,-125.149C2140.77,-124.752 2143.93,-124.367 2147,-124 2297.01,-106.088 2335.95,-112.622 2485,-88 2485.11,-87.9826 2485.21,-87.9651 2485.32,-87.9475"/>
<polygon fill="midnightblue" stroke="midnightblue" points="2486.18,-91.3464 2495.37,-86.0666 2484.89,-84.4658 2486.18,-91.3464"/>
</g>
</g>
</svg>
