<?xml version="1.0" encoding="UTF-8" standalone="no"?>
<!DOCTYPE svg PUBLIC "-//W3C//DTD SVG 1.1//EN"
 "http://www.w3.org/Graphics/SVG/1.1/DTD/svg11.dtd">
<!-- Generated by graphviz version 2.36.0 (20140111.2315)
 -->
<!-- Title: o2::framework::OutputRoute Pages: 1 -->
<!--zoomable 912 -->
<svg id="main" version="1.1" xmlns="http://www.w3.org/2000/svg" xmlns:xlink="http://www.w3.org/1999/xlink" xml:space="preserve" onload="init(evt)">
<style type="text/css"><![CDATA[
.edge:hover path { stroke: red; }
.edge:hover polygon { stroke: red; fill: red; }
]]></style>
<script type="text/javascript"><![CDATA[
var edges = document.getElementsByTagName('g');
if (edges && edges.length) {
  for (var i=0;i<edges.length;i++) {
    if (edges[i].id.substr(0,4)=='edge') {
      edges[i].setAttribute('class','edge');
    }
  }
}
]]></script>
        <defs>
                <circle id="rim" cx="0" cy="0" r="7"/>
                <circle id="rim2" cx="0" cy="0" r="3.5"/>
                <g id="zoomPlus">
                        <use xlink:href="#rim" fill="#404040">
                                <set attributeName="fill" to="#808080" begin="zoomplus.mouseover" end="zoomplus.mouseout"/>
                        </use>
                        <path d="M-4,0h8M0,-4v8" fill="none" stroke="white" stroke-width="1.5" pointer-events="none"/>
                </g>
                <g id="zoomMin">
                        <use xlink:href="#rim" fill="#404040">
                                <set attributeName="fill" to="#808080" begin="zoomminus.mouseover" end="zoomminus.mouseout"/>
                        </use>
                        <path d="M-4,0h8" fill="none" stroke="white" stroke-width="1.5" pointer-events="none"/>
                </g>
                <g id="dirArrow">
                        <path fill="none" stroke="white" stroke-width="1.5" d="M0,-3.0v7 M-2.5,-0.5L0,-3.0L2.5,-0.5"/>
                </g>
               <g id="resetDef">
                       <use xlink:href="#rim2" fill="#404040">
                               <set attributeName="fill" to="#808080" begin="reset.mouseover" end="reset.mouseout"/>
                       </use>
               </g>
        </defs>

<script type="text/javascript">
var viewWidth = 897;
var viewHeight = 912;
var sectionId = 'dynsection-0';
</script>
<script xlink:href="../../svgpan.js"/>
<svg id="graph" class="graph">
<g id="viewport">
<title>o2::framework::OutputRoute</title>
<!-- Node1 -->
<g id="node1" class="node"><title>Node1</title>
<polygon fill="#bfbfbf" stroke="black" points="718.422,-0.5 718.422,-57.5 858.422,-57.5 858.422,-0.5 718.422,-0.5"/>
<text text-anchor="middle" x="788.422" y="-45.5" font-family="Helvetica,sans-Serif" font-size="10.00">o2::framework::OutputRoute</text>
<polyline fill="none" stroke="black" points="718.422,-38.5 858.422,-38.5 "/>
<text text-anchor="middle" x="788.422" y="-26.5" font-family="Helvetica,sans-Serif" font-size="10.00"> </text>
<polyline fill="none" stroke="black" points="718.422,-19.5 858.422,-19.5 "/>
<text text-anchor="middle" x="788.422" y="-7.5" font-family="Helvetica,sans-Serif" font-size="10.00"> </text>
</g>
<!-- Node2 -->
<g id="node2" class="node"><title>Node2</title>
<g id="a_node2"><a xlink:href="../../d8/dc3/structo2_1_1framework_1_1OutputSpec.html" target="_top" xlink:title="{o2::framework::OutputSpec\n||+ OutputSpec()\l+ OutputSpec()\l+ OutputSpec()\l+ OutputSpec()\l+ operator==()\l}">
<polygon fill="none" stroke="black" points="511.922,-116.5 511.922,-217.5 648.922,-217.5 648.922,-116.5 511.922,-116.5"/>
<text text-anchor="middle" x="580.422" y="-205.5" font-family="Helvetica,sans-Serif" font-size="10.00">o2::framework::OutputSpec</text>
<polyline fill="none" stroke="black" points="511.922,-198.5 648.922,-198.5 "/>
<text text-anchor="middle" x="580.422" y="-186.5" font-family="Helvetica,sans-Serif" font-size="10.00"> </text>
<polyline fill="none" stroke="black" points="511.922,-179.5 648.922,-179.5 "/>
<text text-anchor="start" x="519.922" y="-167.5" font-family="Helvetica,sans-Serif" font-size="10.00">+ OutputSpec()</text>
<text text-anchor="start" x="519.922" y="-156.5" font-family="Helvetica,sans-Serif" font-size="10.00">+ OutputSpec()</text>
<text text-anchor="start" x="519.922" y="-145.5" font-family="Helvetica,sans-Serif" font-size="10.00">+ OutputSpec()</text>
<text text-anchor="start" x="519.922" y="-134.5" font-family="Helvetica,sans-Serif" font-size="10.00">+ OutputSpec()</text>
<text text-anchor="start" x="519.922" y="-123.5" font-family="Helvetica,sans-Serif" font-size="10.00">+ operator==()</text>
</a>
</g>
</g>
<!-- Node2&#45;&gt;Node1 -->
<g id="edge1" class="edge"><title>Node2&#45;&gt;Node1</title>
<path fill="none" stroke="#404040" d="M649.106,-121.092C677.416,-102.581 709.687,-81.4805 736.037,-64.2518"/>
<polygon fill="none" stroke="#404040" points="736.151,-64.1776 738.984,-57.5462 746.194,-57.6106 743.362,-64.242 736.151,-64.1776"/>
<text text-anchor="middle" x="737.922" y="-84.5" font-family="Helvetica,sans-Serif" font-size="10.00"> +matcher</text>
</g>
<!-- Node3 -->
<g id="node3" class="node"><title>Node3</title>
<polygon fill="none" stroke="#bfbfbf" points="357.922,-343.5 357.922,-400.5 408.922,-400.5 408.922,-343.5 357.922,-343.5"/>
<text text-anchor="middle" x="383.422" y="-388.5" font-family="Helvetica,sans-Serif" font-size="10.00">uint64_t</text>
<polyline fill="none" stroke="#bfbfbf" points="357.922,-381.5 408.922,-381.5 "/>
<text text-anchor="middle" x="383.422" y="-369.5" font-family="Helvetica,sans-Serif" font-size="10.00"> </text>
<polyline fill="none" stroke="#bfbfbf" points="357.922,-362.5 408.922,-362.5 "/>
<text text-anchor="middle" x="383.422" y="-350.5" font-family="Helvetica,sans-Serif" font-size="10.00"> </text>
</g>
<!-- Node3&#45;&gt;Node2 -->
<g id="edge2" class="edge"><title>Node3&#45;&gt;Node2</title>
<path fill="none" stroke="#404040" d="M386.887,-343.477C390.944,-320.686 399.545,-288.505 417.422,-266 439.282,-238.483 471.138,-216.908 500.901,-201.09"/>
<polygon fill="none" stroke="#404040" points="501.074,-201.001 504.585,-194.703 511.75,-195.522 508.238,-201.82 501.074,-201.001"/>
<text text-anchor="middle" x="470.422" y="-239.5" font-family="Helvetica,sans-Serif" font-size="10.00"> +subSpec</text>
</g>
<!-- Node4 -->
<g id="node4" class="node"><title>Node4</title>
<g id="a_node4"><a xlink:href="../../d9/db3/structo2_1_1header_1_1Descriptor.html" target="_top" xlink:title="{o2::header::Descriptor\l\&lt; gSizeDataOriginString,\l printDataOrigin \&gt;\n||+ Descriptor()\l+ Descriptor()\l+ Descriptor()\l+ Descriptor()\l+ operator=()\l+ operator ItgType()\l+ runtimeInit()\l+ operator==()\l+ operator==()\l+ operator!=()\l+ operator!=()\l+ as()\l+ print()\l}">
<polygon fill="none" stroke="black" points="139.922,-266.5 139.922,-477.5 264.922,-477.5 264.922,-266.5 139.922,-266.5"/>
<text text-anchor="start" x="147.922" y="-465.5" font-family="Helvetica,sans-Serif" font-size="10.00">o2::header::Descriptor</text>
<text text-anchor="start" x="147.922" y="-454.5" font-family="Helvetica,sans-Serif" font-size="10.00">&lt; gSizeDataOriginString,</text>
<text text-anchor="middle" x="202.422" y="-443.5" font-family="Helvetica,sans-Serif" font-size="10.00"> printDataOrigin &gt;</text>
<polyline fill="none" stroke="black" points="139.922,-436.5 264.922,-436.5 "/>
<text text-anchor="middle" x="202.422" y="-424.5" font-family="Helvetica,sans-Serif" font-size="10.00"> </text>
<polyline fill="none" stroke="black" points="139.922,-417.5 264.922,-417.5 "/>
<text text-anchor="start" x="147.922" y="-405.5" font-family="Helvetica,sans-Serif" font-size="10.00">+ Descriptor()</text>
<text text-anchor="start" x="147.922" y="-394.5" font-family="Helvetica,sans-Serif" font-size="10.00">+ Descriptor()</text>
<text text-anchor="start" x="147.922" y="-383.5" font-family="Helvetica,sans-Serif" font-size="10.00">+ Descriptor()</text>
<text text-anchor="start" x="147.922" y="-372.5" font-family="Helvetica,sans-Serif" font-size="10.00">+ Descriptor()</text>
<text text-anchor="start" x="147.922" y="-361.5" font-family="Helvetica,sans-Serif" font-size="10.00">+ operator=()</text>
<text text-anchor="start" x="147.922" y="-350.5" font-family="Helvetica,sans-Serif" font-size="10.00">+ operator ItgType()</text>
<text text-anchor="start" x="147.922" y="-339.5" font-family="Helvetica,sans-Serif" font-size="10.00">+ runtimeInit()</text>
<text text-anchor="start" x="147.922" y="-328.5" font-family="Helvetica,sans-Serif" font-size="10.00">+ operator==()</text>
<text text-anchor="start" x="147.922" y="-317.5" font-family="Helvetica,sans-Serif" font-size="10.00">+ operator==()</text>
<text text-anchor="start" x="147.922" y="-306.5" font-family="Helvetica,sans-Serif" font-size="10.00">+ operator!=()</text>
<text text-anchor="start" x="147.922" y="-295.5" font-family="Helvetica,sans-Serif" font-size="10.00">+ operator!=()</text>
<text text-anchor="start" x="147.922" y="-284.5" font-family="Helvetica,sans-Serif" font-size="10.00">+ as()</text>
<text text-anchor="start" x="147.922" y="-273.5" font-family="Helvetica,sans-Serif" font-size="10.00">+ print()</text>
</a>
</g>
</g>
<!-- Node4&#45;&gt;Node2 -->
<g id="edge3" class="edge"><title>Node4&#45;&gt;Node2</title>
<path fill="none" stroke="#404040" d="M265.222,-324.096C290.711,-305.519 320.645,-284.277 348.422,-266 370.072,-251.756 375.076,-247.249 398.422,-236 430.899,-220.352 467.98,-205.918 500.16,-194.411"/>
<polygon fill="none" stroke="#404040" points="500.462,-194.305 504.787,-188.535 511.776,-190.308 507.451,-196.078 500.462,-194.305"/>
<text text-anchor="middle" x="414.922" y="-239.5" font-family="Helvetica,sans-Serif" font-size="10.00"> +origin</text>
</g>
<!-- Node5 -->
<g id="node5" class="node"><title>Node5</title>
<polygon fill="none" stroke="#bfbfbf" points="334.422,-845.5 334.422,-902.5 372.422,-902.5 372.422,-845.5 334.422,-845.5"/>
<text text-anchor="middle" x="353.422" y="-890.5" font-family="Helvetica,sans-Serif" font-size="10.00">Type</text>
<polyline fill="none" stroke="#bfbfbf" points="334.422,-883.5 372.422,-883.5 "/>
<text text-anchor="middle" x="353.422" y="-871.5" font-family="Helvetica,sans-Serif" font-size="10.00"> </text>
<polyline fill="none" stroke="#bfbfbf" points="334.422,-864.5 372.422,-864.5 "/>
<text text-anchor="middle" x="353.422" y="-852.5" font-family="Helvetica,sans-Serif" font-size="10.00"> </text>
</g>
<!-- Node5&#45;&gt;Node4 -->
<g id="edge4" class="edge"><title>Node5&#45;&gt;Node4</title>
<path fill="none" stroke="#404040" d="M352.59,-845.096C349.716,-780.613 336.954,-617.492 280.422,-496 277.484,-489.685 274.274,-483.304 270.887,-476.946"/>
<polygon fill="none" stroke="#404040" points="270.807,-476.801 264.414,-473.466 265.033,-466.282 271.427,-469.617 270.807,-476.801"/>
<text text-anchor="middle" x="357.422" y="-670.5" font-family="Helvetica,sans-Serif" font-size="10.00"> +itg</text>
</g>
<!-- Node9 -->
<g id="node9" class="node"><title>Node9</title>
<g id="a_node9"><a xlink:href="../../d9/db3/structo2_1_1header_1_1Descriptor.html" target="_top" xlink:title="{o2::header::Descriptor\l\&lt; N, PrinterPolicy \&gt;\n||+ Descriptor()\l+ Descriptor()\l+ Descriptor()\l+ operator=()\l+ operator ItgType()\l+ Descriptor()\l+ runtimeInit()\l+ operator==()\l+ operator!=()\l+ operator==()\l+ operator!=()\l+ as()\l+ print()\l}">
<polygon fill="none" stroke="black" points="182.922,-573 182.922,-773 295.922,-773 295.922,-573 182.922,-573"/>
<text text-anchor="start" x="190.922" y="-761" font-family="Helvetica,sans-Serif" font-size="10.00">o2::header::Descriptor</text>
<text text-anchor="middle" x="239.422" y="-750" font-family="Helvetica,sans-Serif" font-size="10.00">&lt; N, PrinterPolicy &gt;</text>
<polyline fill="none" stroke="black" points="182.922,-743 295.922,-743 "/>
<text text-anchor="middle" x="239.422" y="-731" font-family="Helvetica,sans-Serif" font-size="10.00"> </text>
<polyline fill="none" stroke="black" points="182.922,-724 295.922,-724 "/>
<text text-anchor="start" x="190.922" y="-712" font-family="Helvetica,sans-Serif" font-size="10.00">+ Descriptor()</text>
<text text-anchor="start" x="190.922" y="-701" font-family="Helvetica,sans-Serif" font-size="10.00">+ Descriptor()</text>
<text text-anchor="start" x="190.922" y="-690" font-family="Helvetica,sans-Serif" font-size="10.00">+ Descriptor()</text>
<text text-anchor="start" x="190.922" y="-679" font-family="Helvetica,sans-Serif" font-size="10.00">+ operator=()</text>
<text text-anchor="start" x="190.922" y="-668" font-family="Helvetica,sans-Serif" font-size="10.00">+ operator ItgType()</text>
<text text-anchor="start" x="190.922" y="-657" font-family="Helvetica,sans-Serif" font-size="10.00">+ Descriptor()</text>
<text text-anchor="start" x="190.922" y="-646" font-family="Helvetica,sans-Serif" font-size="10.00">+ runtimeInit()</text>
<text text-anchor="start" x="190.922" y="-635" font-family="Helvetica,sans-Serif" font-size="10.00">+ operator==()</text>
<text text-anchor="start" x="190.922" y="-624" font-family="Helvetica,sans-Serif" font-size="10.00">+ operator!=()</text>
<text text-anchor="start" x="190.922" y="-613" font-family="Helvetica,sans-Serif" font-size="10.00">+ operator==()</text>
<text text-anchor="start" x="190.922" y="-602" font-family="Helvetica,sans-Serif" font-size="10.00">+ operator!=()</text>
<text text-anchor="start" x="190.922" y="-591" font-family="Helvetica,sans-Serif" font-size="10.00">+ as()</text>
<text text-anchor="start" x="190.922" y="-580" font-family="Helvetica,sans-Serif" font-size="10.00">+ print()</text>
</a>
</g>
</g>
<!-- Node5&#45;&gt;Node9 -->
<g id="edge9" class="edge"><title>Node5&#45;&gt;Node9</title>
<path fill="none" stroke="#404040" d="M334.397,-848.085C329.324,-841.078 323.989,-833.359 319.422,-826 311.153,-812.673 302.905,-798.407 295.018,-784.149"/>
<polygon fill="none" stroke="#404040" points="294.822,-783.792 288.434,-780.448 289.063,-773.264 295.452,-776.608 294.822,-783.792"/>
<text text-anchor="middle" x="329.422" y="-806.5" font-family="Helvetica,sans-Serif" font-size="10.00"> +itg</text>
</g>
<!-- Node11 -->
<g id="node11" class="node"><title>Node11</title>
<g id="a_node11"><a xlink:href="../../d9/db3/structo2_1_1header_1_1Descriptor.html" target="_top" xlink:title="{o2::header::Descriptor\l\&lt; gSizeDataDescriptionString,\l printDataDescription \&gt;\n||+ Descriptor()\l+ Descriptor()\l+ Descriptor()\l+ Descriptor()\l+ operator=()\l+ operator ItgType()\l+ runtimeInit()\l+ operator==()\l+ operator==()\l+ operator!=()\l+ operator!=()\l+ as()\l+ print()\l}">
<polygon fill="none" stroke="black" points="426.922,-266.5 426.922,-477.5 575.922,-477.5 575.922,-266.5 426.922,-266.5"/>
<text text-anchor="start" x="434.922" y="-465.5" font-family="Helvetica,sans-Serif" font-size="10.00">o2::header::Descriptor</text>
<text text-anchor="start" x="434.922" y="-454.5" font-family="Helvetica,sans-Serif" font-size="10.00">&lt; gSizeDataDescriptionString,</text>
<text text-anchor="middle" x="501.422" y="-443.5" font-family="Helvetica,sans-Serif" font-size="10.00"> printDataDescription &gt;</text>
<polyline fill="none" stroke="black" points="426.922,-436.5 575.922,-436.5 "/>
<text text-anchor="middle" x="501.422" y="-424.5" font-family="Helvetica,sans-Serif" font-size="10.00"> </text>
<polyline fill="none" stroke="black" points="426.922,-417.5 575.922,-417.5 "/>
<text text-anchor="start" x="434.922" y="-405.5" font-family="Helvetica,sans-Serif" font-size="10.00">+ Descriptor()</text>
<text text-anchor="start" x="434.922" y="-394.5" font-family="Helvetica,sans-Serif" font-size="10.00">+ Descriptor()</text>
<text text-anchor="start" x="434.922" y="-383.5" font-family="Helvetica,sans-Serif" font-size="10.00">+ Descriptor()</text>
<text text-anchor="start" x="434.922" y="-372.5" font-family="Helvetica,sans-Serif" font-size="10.00">+ Descriptor()</text>
<text text-anchor="start" x="434.922" y="-361.5" font-family="Helvetica,sans-Serif" font-size="10.00">+ operator=()</text>
<text text-anchor="start" x="434.922" y="-350.5" font-family="Helvetica,sans-Serif" font-size="10.00">+ operator ItgType()</text>
<text text-anchor="start" x="434.922" y="-339.5" font-family="Helvetica,sans-Serif" font-size="10.00">+ runtimeInit()</text>
<text text-anchor="start" x="434.922" y="-328.5" font-family="Helvetica,sans-Serif" font-size="10.00">+ operator==()</text>
<text text-anchor="start" x="434.922" y="-317.5" font-family="Helvetica,sans-Serif" font-size="10.00">+ operator==()</text>
<text text-anchor="start" x="434.922" y="-306.5" font-family="Helvetica,sans-Serif" font-size="10.00">+ operator!=()</text>
<text text-anchor="start" x="434.922" y="-295.5" font-family="Helvetica,sans-Serif" font-size="10.00">+ operator!=()</text>
<text text-anchor="start" x="434.922" y="-284.5" font-family="Helvetica,sans-Serif" font-size="10.00">+ as()</text>
<text text-anchor="start" x="434.922" y="-273.5" font-family="Helvetica,sans-Serif" font-size="10.00">+ print()</text>
</a>
</g>
</g>
<!-- Node5&#45;&gt;Node11 -->
<g id="edge15" class="edge"><title>Node5&#45;&gt;Node11</title>
<path fill="none" stroke="#404040" d="M372.452,-869.964C412.479,-862.371 504.032,-838.329 532.422,-774 572.03,-684.252 558.829,-572.239 538.852,-489.429"/>
<polygon fill="none" stroke="#404040" points="538.827,-489.33 533.495,-484.475 535.927,-477.686 541.258,-482.542 538.827,-489.33"/>
<text text-anchor="middle" x="568.422" y="-670.5" font-family="Helvetica,sans-Serif" font-size="10.00"> +itg</text>
</g>
<!-- Node6 -->
<g id="node6" class="node"><title>Node6</title>
<polygon fill="none" stroke="#bfbfbf" points="117.922,-845.5 117.922,-902.5 152.922,-902.5 152.922,-845.5 117.922,-845.5"/>
<text text-anchor="middle" x="135.422" y="-890.5" font-family="Helvetica,sans-Serif" font-size="10.00">char</text>
<polyline fill="none" stroke="#bfbfbf" points="117.922,-883.5 152.922,-883.5 "/>
<text text-anchor="middle" x="135.422" y="-871.5" font-family="Helvetica,sans-Serif" font-size="10.00"> </text>
<polyline fill="none" stroke="#bfbfbf" points="117.922,-864.5 152.922,-864.5 "/>
<text text-anchor="middle" x="135.422" y="-852.5" font-family="Helvetica,sans-Serif" font-size="10.00"> </text>
</g>
<!-- Node6&#45;&gt;Node4 -->
<g id="edge5" class="edge"><title>Node6&#45;&gt;Node4</title>
<path fill="none" stroke="#404040" d="M117.777,-863.717C91.6347,-848.832 43.6386,-816.888 24.4223,-774 -12.2871,-692.07 -3.24056,-657.41 24.4223,-572 43.2111,-513.989 89.693,-463.05 130.445,-427.233"/>
<polygon fill="none" stroke="#404040" points="130.485,-427.199 132.422,-420.253 139.579,-419.37 137.642,-426.316 130.485,-427.199"/>
<text text-anchor="middle" x="34.9223" y="-670.5" font-family="Helvetica,sans-Serif" font-size="10.00"> +str</text>
</g>
<!-- Node6&#45;&gt;Node9 -->
<g id="edge10" class="edge"><title>Node6&#45;&gt;Node9</title>
<path fill="none" stroke="#404040" d="M149.883,-845.33C158.46,-828.919 169.953,-806.926 181.841,-784.18"/>
<polygon fill="none" stroke="#404040" points="181.95,-783.971 181.184,-776.801 187.508,-773.336 188.274,-780.506 181.95,-783.971"/>
<text text-anchor="middle" x="185.922" y="-806.5" font-family="Helvetica,sans-Serif" font-size="10.00"> +str</text>
</g>
<!-- Node6&#45;&gt;Node11 -->
<g id="edge16" class="edge"><title>Node6&#45;&gt;Node11</title>
<path fill="none" stroke="#404040" d="M132.674,-845.24C125.544,-766.462 110.25,-544.093 159.422,-496 198.183,-458.09 348.115,-499.435 415.577,-477.172"/>
<polygon fill="none" stroke="#404040" points="415.736,-477.105 419.711,-471.088 426.794,-472.443 422.819,-478.46 415.736,-477.105"/>
<text text-anchor="middle" x="141.922" y="-670.5" font-family="Helvetica,sans-Serif" font-size="10.00"> +str</text>
</g>
<!-- Node7 -->
<g id="node7" class="node"><title>Node7</title>
<polygon fill="none" stroke="#bfbfbf" points="605.922,-845.5 605.922,-902.5 634.922,-902.5 634.922,-845.5 605.922,-845.5"/>
<text text-anchor="middle" x="620.422" y="-890.5" font-family="Helvetica,sans-Serif" font-size="10.00">int</text>
<polyline fill="none" stroke="#bfbfbf" points="605.922,-883.5 634.922,-883.5 "/>
<text text-anchor="middle" x="620.422" y="-871.5" font-family="Helvetica,sans-Serif" font-size="10.00"> </text>
<polyline fill="none" stroke="#bfbfbf" points="605.922,-864.5 634.922,-864.5 "/>
<text text-anchor="middle" x="620.422" y="-852.5" font-family="Helvetica,sans-Serif" font-size="10.00"> </text>
</g>
<!-- Node7&#45;&gt;Node1 -->
<g id="edge23" class="edge"><title>Node7&#45;&gt;Node1</title>
<path fill="none" stroke="#404040" d="M634.946,-867.904C653.264,-860.875 684.849,-846.682 705.422,-826 759.705,-771.429 788.422,-750.971 788.422,-674 788.422,-674 788.422,-674 788.422,-166 788.422,-133.591 788.422,-96.8377 788.422,-69.716"/>
<polygon fill="none" stroke="#404040" points="788.422,-69.6103 784.422,-63.6103 788.422,-57.6103 792.422,-63.6103 788.422,-69.6103"/>
<text text-anchor="middle" x="809.922" y="-369.5" font-family="Helvetica,sans-Serif" font-size="10.00"> +channel</text>
</g>
<!-- Node7&#45;&gt;Node4 -->
<g id="edge6" class="edge"><title>Node7&#45;&gt;Node4</title>
<path fill="none" stroke="#404040" d="M605.731,-867.939C575.393,-856.609 506.253,-826.031 477.422,-774 462.435,-746.952 485.085,-519.006 464.422,-496 429.56,-457.185 396.703,-497.773 348.422,-478 322.625,-467.435 297.063,-451.467 274.709,-435.149"/>
<polygon fill="none" stroke="#404040" points="274.619,-435.082 267.418,-434.695 265.006,-427.899 272.207,-428.286 274.619,-435.082"/>
<text text-anchor="middle" x="502.922" y="-681.5" font-family="Helvetica,sans-Serif" font-size="10.00"> +arraySize</text>
<text text-anchor="middle" x="502.922" y="-670.5" font-family="Helvetica,sans-Serif" font-size="10.00">+size</text>
<text text-anchor="middle" x="502.922" y="-659.5" font-family="Helvetica,sans-Serif" font-size="10.00">+bitcount</text>
</g>
<!-- Node7&#45;&gt;Node9 -->
<g id="edge11" class="edge"><title>Node7&#45;&gt;Node9</title>
<path fill="none" stroke="#404040" d="M605.632,-871.212C559.506,-865.032 415.687,-841.142 320.422,-774 315.058,-770.219 309.858,-765.989 304.856,-761.463"/>
<polygon fill="none" stroke="#404040" points="304.728,-761.341 297.629,-760.071 296.072,-753.03 303.17,-754.3 304.728,-761.341"/>
<text text-anchor="middle" x="445.922" y="-817.5" font-family="Helvetica,sans-Serif" font-size="10.00"> +arraySize</text>
<text text-anchor="middle" x="445.922" y="-806.5" font-family="Helvetica,sans-Serif" font-size="10.00">+size</text>
<text text-anchor="middle" x="445.922" y="-795.5" font-family="Helvetica,sans-Serif" font-size="10.00">+bitcount</text>
</g>
<!-- Node7&#45;&gt;Node11 -->
<g id="edge17" class="edge"><title>Node7&#45;&gt;Node11</title>
<path fill="none" stroke="#404040" d="M619.005,-845.28C614.869,-769.55 601.618,-560.53 578.422,-496 577.557,-493.592 576.639,-491.182 575.674,-488.773"/>
<polygon fill="none" stroke="#404040" points="575.577,-488.548 569.532,-484.617 570.835,-477.525 576.881,-481.456 575.577,-488.548"/>
<text text-anchor="middle" x="640.922" y="-681.5" font-family="Helvetica,sans-Serif" font-size="10.00"> +arraySize</text>
<text text-anchor="middle" x="640.922" y="-670.5" font-family="Helvetica,sans-Serif" font-size="10.00">+size</text>
<text text-anchor="middle" x="640.922" y="-659.5" font-family="Helvetica,sans-Serif" font-size="10.00">+bitcount</text>
</g>
<!-- Node12 -->
<g id="node12" class="node"><title>Node12</title>
<g id="a_node12"><a xlink:href="../../de/d1b/structo2_1_1framework_1_1OutputLabel.html" target="_top" xlink:title="{o2::framework::OutputLabel\n||}">
<polygon fill="none" stroke="black" points="635.922,-496.5 635.922,-553.5 772.922,-553.5 772.922,-496.5 635.922,-496.5"/>
<text text-anchor="middle" x="704.422" y="-541.5" font-family="Helvetica,sans-Serif" font-size="10.00">o2::framework::OutputLabel</text>
<polyline fill="none" stroke="black" points="635.922,-534.5 772.922,-534.5 "/>
<text text-anchor="middle" x="704.422" y="-522.5" font-family="Helvetica,sans-Serif" font-size="10.00"> </text>
<polyline fill="none" stroke="black" points="635.922,-515.5 772.922,-515.5 "/>
<text text-anchor="middle" x="704.422" y="-503.5" font-family="Helvetica,sans-Serif" font-size="10.00"> </text>
</a>
</g>
</g>
<!-- Node7&#45;&gt;Node12 -->
<g id="edge21" class="edge"><title>Node7&#45;&gt;Node12</title>
<path fill="none" stroke="#404040" d="M634.985,-852.475C647.884,-833.181 666.075,-803.007 675.422,-774 698.295,-703.023 703.523,-615.451 704.492,-565.637"/>
<polygon fill="none" stroke="#404040" points="704.493,-565.521 700.575,-559.467 704.657,-553.522 708.574,-559.576 704.493,-565.521"/>
<text text-anchor="middle" x="684.922" y="-806.5" font-family="Helvetica,sans-Serif" font-size="10.00"> +value</text>
</g>
<!-- Node8 -->
<g id="node8" class="node"><title>Node8</title>
<polygon fill="none" stroke="#bfbfbf" points="224.922,-845 224.922,-903 253.922,-903 253.922,-845 224.922,-845"/>
<polyline fill="none" stroke="#bfbfbf" points="224.922,-883 253.922,-883 "/>
<text text-anchor="middle" x="239.422" y="-871" font-family="Helvetica,sans-Serif" font-size="10.00"> </text>
<polyline fill="none" stroke="#bfbfbf" points="224.922,-864 253.922,-864 "/>
<text text-anchor="middle" x="239.422" y="-852" font-family="Helvetica,sans-Serif" font-size="10.00"> </text>
</g>
<!-- Node8&#45;&gt;Node4 -->
<g id="edge7" class="edge"><title>Node8&#45;&gt;Node4</title>
<path fill="none" stroke="#404040" d="M229.582,-844.957C221.78,-826.948 209.057,-804.638 190.422,-792 150.149,-764.686 113.876,-811.13 82.4223,-774 7.23078,-685.239 72.9982,-550.687 132.838,-462.318"/>
<polygon fill="none" stroke="#404040" points="132.921,-462.199 133.026,-454.988 139.722,-452.312 139.617,-459.523 132.921,-462.199"/>
<text text-anchor="middle" x="97.9223" y="-670.5" font-family="Helvetica,sans-Serif" font-size="10.00"> +@14</text>
</g>
<!-- Node8&#45;&gt;Node9 -->
<g id="edge12" class="edge"><title>Node8&#45;&gt;Node9</title>
<path fill="none" stroke="#404040" d="M239.422,-844.91C239.422,-828.91 239.422,-807.702 239.422,-785.687"/>
<polygon fill="none" stroke="#404040" points="239.422,-785.401 235.422,-779.401 239.422,-773.401 243.422,-779.401 239.422,-785.401"/>
<text text-anchor="middle" x="254.922" y="-806.5" font-family="Helvetica,sans-Serif" font-size="10.00"> +@14</text>
</g>
<!-- Node8&#45;&gt;Node11 -->
<g id="edge18" class="edge"><title>Node8&#45;&gt;Node11</title>
<path fill="none" stroke="#404040" d="M253.933,-851.909C269.665,-829.292 293.348,-796.06 299.422,-792 326.847,-773.673 347.963,-797.188 371.422,-774 437.434,-708.751 359.238,-638.075 424.422,-572 445.474,-550.66 470.494,-577.244 489.422,-554 504.155,-535.908 511.366,-513.129 514.174,-489.891"/>
<polygon fill="none" stroke="#404040" points="514.193,-489.672 510.741,-483.34 515.258,-477.719 518.71,-484.05 514.193,-489.672"/>
<text text-anchor="middle" x="439.922" y="-670.5" font-family="Helvetica,sans-Serif" font-size="10.00"> +@14</text>
</g>
<!-- Node9&#45;&gt;Node4 -->
<g id="edge8" class="edge"><title>Node9&#45;&gt;Node4</title>
<path fill="none" stroke="orange" d="M178.456,-581.225C174.422,-572.296 170.962,-563.147 168.422,-554 161.622,-529.508 162.324,-502.772 166.525,-477.548"/>
<polygon fill="orange" stroke="orange" points="175.388,-582.923 182.852,-590.442 181.706,-579.909 175.388,-582.923"/>
<text text-anchor="start" x="168.422" y="-528" font-family="Helvetica,sans-Serif" font-size="10.00"> &lt; gSizeDataOriginString,</text>
<text text-anchor="middle" x="224.422" y="-517" font-family="Helvetica,sans-Serif" font-size="10.00"> printDataOrigin &gt;</text>
</g>
<!-- Node9&#45;&gt;Node11 -->
<g id="edge19" class="edge"><title>Node9&#45;&gt;Node11</title>
<path fill="none" stroke="orange" d="M291.853,-564.162C308.51,-538.792 329.067,-513.949 353.422,-496 377.209,-478.471 392.79,-494.319 417.422,-478 420.633,-475.873 423.78,-473.583 426.856,-471.162"/>
<polygon fill="orange" stroke="orange" points="288.785,-562.464 286.354,-572.776 294.685,-566.231 288.785,-562.464"/>
<text text-anchor="start" x="353.422" y="-528" font-family="Helvetica,sans-Serif" font-size="10.00"> &lt; gSizeDataDescriptionString,</text>
<text text-anchor="middle" x="421.422" y="-517" font-family="Helvetica,sans-Serif" font-size="10.00"> printDataDescription &gt;</text>
</g>
<!-- Node10 -->
<g id="node10" class="node"><title>Node10</title>
<polygon fill="none" stroke="#bfbfbf" points="594.422,-343.5 594.422,-400.5 672.422,-400.5 672.422,-343.5 594.422,-343.5"/>
<text text-anchor="middle" x="633.422" y="-388.5" font-family="Helvetica,sans-Serif" font-size="10.00">enum Lifetime</text>
<polyline fill="none" stroke="#bfbfbf" points="594.422,-381.5 672.422,-381.5 "/>
<text text-anchor="middle" x="633.422" y="-369.5" font-family="Helvetica,sans-Serif" font-size="10.00"> </text>
<polyline fill="none" stroke="#bfbfbf" points="594.422,-362.5 672.422,-362.5 "/>
<text text-anchor="middle" x="633.422" y="-350.5" font-family="Helvetica,sans-Serif" font-size="10.00"> </text>
</g>
<!-- Node10&#45;&gt;Node2 -->
<g id="edge13" class="edge"><title>Node10&#45;&gt;Node2</title>
<path fill="none" stroke="#404040" d="M626.164,-343.199C618.566,-314.098 606.39,-267.461 596.51,-229.619"/>
<polygon fill="none" stroke="#404040" points="596.423,-229.285 591.037,-224.49 593.392,-217.675 598.778,-222.47 596.423,-229.285"/>
<text text-anchor="middle" x="621.922" y="-239.5" font-family="Helvetica,sans-Serif" font-size="10.00"> +lifetime</text>
</g>
<!-- Node11&#45;&gt;Node2 -->
<g id="edge14" class="edge"><title>Node11&#45;&gt;Node2</title>
<path fill="none" stroke="#404040" d="M526.862,-266.406C530.352,-255.991 534.205,-245.693 538.422,-236 539.502,-233.519 540.661,-231.021 541.88,-228.524"/>
<polygon fill="none" stroke="#404040" points="542.013,-228.27 541.24,-221.1 547.561,-217.629 548.334,-224.799 542.013,-228.27"/>
<text text-anchor="middle" x="566.922" y="-239.5" font-family="Helvetica,sans-Serif" font-size="10.00"> +description</text>
</g>
<!-- Node12&#45;&gt;Node2 -->
<g id="edge20" class="edge"><title>Node12&#45;&gt;Node2</title>
<path fill="none" stroke="#404040" d="M707.994,-496.39C713.07,-447.337 718.081,-342.929 681.422,-266 674.638,-251.763 664.854,-238.476 654.015,-226.564"/>
<polygon fill="none" stroke="#404040" points="653.853,-226.395 646.814,-224.83 645.552,-217.73 652.591,-219.295 653.853,-226.395"/>
<text text-anchor="middle" x="732.422" y="-369.5" font-family="Helvetica,sans-Serif" font-size="10.00"> +binding</text>
</g>
<!-- Node13 -->
<g id="node13" class="node"><title>Node13</title>
<polygon fill="none" stroke="#bfbfbf" points="816.922,-138.5 816.922,-195.5 859.922,-195.5 859.922,-138.5 816.922,-138.5"/>
<text text-anchor="middle" x="838.422" y="-183.5" font-family="Helvetica,sans-Serif" font-size="10.00">size_t</text>
<polyline fill="none" stroke="#bfbfbf" points="816.922,-176.5 859.922,-176.5 "/>
<text text-anchor="middle" x="838.422" y="-164.5" font-family="Helvetica,sans-Serif" font-size="10.00"> </text>
<polyline fill="none" stroke="#bfbfbf" points="816.922,-157.5 859.922,-157.5 "/>
<text text-anchor="middle" x="838.422" y="-145.5" font-family="Helvetica,sans-Serif" font-size="10.00"> </text>
</g>
<!-- Node13&#45;&gt;Node1 -->
<g id="edge22" class="edge"><title>Node13&#45;&gt;Node1</title>
<path fill="none" stroke="#404040" d="M828.304,-138.478C820.999,-118.609 811.029,-91.4906 802.885,-69.3389"/>
<polygon fill="none" stroke="#404040" points="802.838,-69.2104 797.013,-64.9592 798.697,-57.9475 804.522,-62.1987 802.838,-69.2104"/>
<text text-anchor="middle" x="851.422" y="-90" font-family="Helvetica,sans-Serif" font-size="10.00"> +maxTimeslices</text>
<text text-anchor="middle" x="851.422" y="-79" font-family="Helvetica,sans-Serif" font-size="10.00">+timeslice</text>
</g>
</g>
</svg>
        <g id="navigator" transform="translate(0 0)" fill="#404254">
                <rect fill="#f2f5e9" fill-opacity="0.5" stroke="#606060" stroke-width=".5" x="0" y="0" width="60" height="60"/>
                <use id="zoomplus" xlink:href="#zoomPlus" x="17" y="9" onmousedown="handleZoom(evt,'in')"/>
                <use id="zoomminus" xlink:href="#zoomMin" x="42" y="9" onmousedown="handleZoom(evt,'out')"/>
                <use id="reset" xlink:href="#resetDef" x="30" y="36" onmousedown="handleReset()"/>
                <g id="arrowUp" xlink:href="#dirArrow" transform="translate(30 24)" onmousedown="handlePan(0,-1)">
                  <use xlink:href="#rim" fill="#404040">
                        <set attributeName="fill" to="#808080" begin="arrowUp.mouseover" end="arrowUp.mouseout"/>
                  </use>
                  <path fill="none" stroke="white" stroke-width="1.5" d="M0,-3.0v7 M-2.5,-0.5L0,-3.0L2.5,-0.5"/>
                </g>
                <g id="arrowRight" xlink:href="#dirArrow" transform="rotate(90) translate(36 -43)" onmousedown="handlePan(1,0)">
                  <use xlink:href="#rim" fill="#404040">
                        <set attributeName="fill" to="#808080" begin="arrowRight.mouseover" end="arrowRight.mouseout"/>
                  </use>
                  <path fill="none" stroke="white" stroke-width="1.5" d="M0,-3.0v7 M-2.5,-0.5L0,-3.0L2.5,-0.5"/>
                </g>
                <g id="arrowDown" xlink:href="#dirArrow" transform="rotate(180) translate(-30 -48)" onmousedown="handlePan(0,1)">
                  <use xlink:href="#rim" fill="#404040">
                        <set attributeName="fill" to="#808080" begin="arrowDown.mouseover" end="arrowDown.mouseout"/>
                  </use>
                  <path fill="none" stroke="white" stroke-width="1.5" d="M0,-3.0v7 M-2.5,-0.5L0,-3.0L2.5,-0.5"/>
                </g>
                <g id="arrowLeft" xlink:href="#dirArrow" transform="rotate(270) translate(-36 17)" onmousedown="handlePan(-1,0)">
                  <use xlink:href="#rim" fill="#404040">
                        <set attributeName="fill" to="#808080" begin="arrowLeft.mouseover" end="arrowLeft.mouseout"/>
                  </use>
                  <path fill="none" stroke="white" stroke-width="1.5" d="M0,-3.0v7 M-2.5,-0.5L0,-3.0L2.5,-0.5"/>
                </g>
        </g>
        <svg viewBox="0 0 15 15" width="100%" height="30px" preserveAspectRatio="xMaxYMin meet">
         <g id="arrow_out" transform="scale(0.3 0.3)">
          <a xlink:href="structo2_1_1framework_1_1OutputRoute__coll__graph_org.svg" target="_base">
           <rect id="button" ry="5" rx="5" y="6" x="6" height="38" width="38"
                fill="#f2f5e9" fill-opacity="0.5" stroke="#606060" stroke-width="1.0"/>
           <path id="arrow"
             d="M 11.500037,31.436501 C 11.940474,20.09759 22.043105,11.32322 32.158766,21.979434 L 37.068811,17.246167 C 37.068811,17.246167 37.088388,32 37.088388,32 L 22.160133,31.978069 C 22.160133,31.978069 26.997745,27.140456 26.997745,27.140456 C 18.528582,18.264221 13.291696,25.230495 11.500037,31.436501 z"
             style="fill:#404040;"/>
          </a>
         </g>
        </svg>
</svg>
