<?xml version="1.0" encoding="UTF-8" standalone="no"?>
<!DOCTYPE svg PUBLIC "-//W3C//DTD SVG 1.1//EN"
 "http://www.w3.org/Graphics/SVG/1.1/DTD/svg11.dtd">
<!-- Generated by graphviz version 2.36.0 (20140111.2315)
 -->
<!-- Title: /home/travis/build/AliceO2Group/AliceO2/Framework/Core/include/Framework/DataSamplingConditionFactory.h Pages: 1 -->
<svg width="914pt" height="162pt"
 viewBox="0.00 0.00 914.00 162.00" xmlns="http://www.w3.org/2000/svg" xmlns:xlink="http://www.w3.org/1999/xlink">
<g id="graph0" class="graph" transform="scale(1 1) rotate(0) translate(4 158)">
<title>/home/travis/build/AliceO2Group/AliceO2/Framework/Core/include/Framework/DataSamplingConditionFactory.h</title>
<!-- Node1 -->
<g id="node1" class="node"><title>Node1</title>
<polygon fill="#bfbfbf" stroke="black" points="381,-90.5 381,-153.5 555,-153.5 555,-90.5 381,-90.5"/>
<text text-anchor="start" x="389" y="-141.5" font-family="Helvetica,sans-Serif" font-size="10.00">/home/travis/build</text>
<text text-anchor="start" x="389" y="-130.5" font-family="Helvetica,sans-Serif" font-size="10.00">/AliceO2Group/AliceO2</text>
<text text-anchor="start" x="389" y="-119.5" font-family="Helvetica,sans-Serif" font-size="10.00">/Framework/Core/include</text>
<text text-anchor="start" x="389" y="-108.5" font-family="Helvetica,sans-Serif" font-size="10.00">/Framework/DataSamplingCondition</text>
<text text-anchor="middle" x="468" y="-97.5" font-family="Helvetica,sans-Serif" font-size="10.00">Factory.h</text>
</g>
<!-- Node2 -->
<g id="node2" class="node"><title>Node2</title>
<g id="a_node2"><a xlink:href="../../de/d2b/DataSamplingConditionFactory_8cxx.html" target="_top" xlink:title="Implementation of DataSamplingConditionFactory. ">
<polygon fill="none" stroke="black" points="-0.5,-1 -0.5,-53 172.5,-53 172.5,-1 -0.5,-1"/>
<text text-anchor="start" x="7.5" y="-41" font-family="Helvetica,sans-Serif" font-size="10.00">/home/travis/build</text>
<text text-anchor="start" x="7.5" y="-30" font-family="Helvetica,sans-Serif" font-size="10.00">/AliceO2Group/AliceO2</text>
<text text-anchor="start" x="7.5" y="-19" font-family="Helvetica,sans-Serif" font-size="10.00">/Framework/Core/src/DataSampling</text>
<text text-anchor="middle" x="86" y="-8" font-family="Helvetica,sans-Serif" font-size="10.00">ConditionFactory.cxx</text>
</a>
</g>
</g>
<!-- Node1&#45;&gt;Node2 -->
<g id="edge1" class="edge"><title>Node1&#45;&gt;Node2</title>
<path fill="none" stroke="midnightblue" d="M370.956,-99.3049C315.246,-86.6107 244.047,-69.9807 181,-54 178.265,-53.3068 175.488,-52.5949 172.686,-51.8697"/>
<polygon fill="midnightblue" stroke="midnightblue" points="370.291,-102.743 380.818,-101.548 371.843,-95.9173 370.291,-102.743"/>
</g>
<!-- Node3 -->
<g id="node3" class="node"><title>Node3</title>
<g id="a_node3"><a xlink:href="../../d0/dd6/DataSamplingConditionNConsecutive_8cxx.html" target="_top" xlink:title="Implementation of DataSamplingConditionNConsecutive. ">
<polygon fill="none" stroke="black" points="190.5,-1 190.5,-53 363.5,-53 363.5,-1 190.5,-1"/>
<text text-anchor="start" x="198.5" y="-41" font-family="Helvetica,sans-Serif" font-size="10.00">/home/travis/build</text>
<text text-anchor="start" x="198.5" y="-30" font-family="Helvetica,sans-Serif" font-size="10.00">/AliceO2Group/AliceO2</text>
<text text-anchor="start" x="198.5" y="-19" font-family="Helvetica,sans-Serif" font-size="10.00">/Framework/Core/src/DataSampling</text>
<text text-anchor="middle" x="277" y="-8" font-family="Helvetica,sans-Serif" font-size="10.00">ConditionNConsecutive.cxx</text>
</a>
</g>
</g>
<!-- Node1&#45;&gt;Node3 -->
<g id="edge2" class="edge"><title>Node1&#45;&gt;Node3</title>
<path fill="none" stroke="midnightblue" d="M396.015,-85.9499C373.517,-74.9952 349.162,-63.1363 328.379,-53.0171"/>
<polygon fill="midnightblue" stroke="midnightblue" points="394.672,-89.1885 405.195,-90.4195 397.736,-82.8949 394.672,-89.1885"/>
</g>
<!-- Node4 -->
<g id="node4" class="node"><title>Node4</title>
<g id="a_node4"><a xlink:href="../../d0/dab/DataSamplingConditionPayloadSize_8cxx.html" target="_top" xlink:title="Implementation of DataSamplingConditionPayloadSize. ">
<polygon fill="none" stroke="black" points="381.5,-1 381.5,-53 554.5,-53 554.5,-1 381.5,-1"/>
<text text-anchor="start" x="389.5" y="-41" font-family="Helvetica,sans-Serif" font-size="10.00">/home/travis/build</text>
<text text-anchor="start" x="389.5" y="-30" font-family="Helvetica,sans-Serif" font-size="10.00">/AliceO2Group/AliceO2</text>
<text text-anchor="start" x="389.5" y="-19" font-family="Helvetica,sans-Serif" font-size="10.00">/Framework/Core/src/DataSampling</text>
<text text-anchor="middle" x="468" y="-8" font-family="Helvetica,sans-Serif" font-size="10.00">ConditionPayloadSize.cxx</text>
</a>
</g>
</g>
<!-- Node1&#45;&gt;Node4 -->
<g id="edge3" class="edge"><title>Node1&#45;&gt;Node4</title>
<path fill="none" stroke="midnightblue" d="M468,-80.1125C468,-70.9165 468,-61.4234 468,-53.1001"/>
<polygon fill="midnightblue" stroke="midnightblue" points="464.5,-80.2905 468,-90.2906 471.5,-80.2906 464.5,-80.2905"/>
</g>
<!-- Node5 -->
<g id="node5" class="node"><title>Node5</title>
<g id="a_node5"><a xlink:href="../../d4/dba/DataSamplingConditionRandom_8cxx.html" target="_top" xlink:title="Implementation of random DataSamplingCondition. ">
<polygon fill="none" stroke="black" points="572.5,-1 572.5,-53 745.5,-53 745.5,-1 572.5,-1"/>
<text text-anchor="start" x="580.5" y="-41" font-family="Helvetica,sans-Serif" font-size="10.00">/home/travis/build</text>
<text text-anchor="start" x="580.5" y="-30" font-family="Helvetica,sans-Serif" font-size="10.00">/AliceO2Group/AliceO2</text>
<text text-anchor="start" x="580.5" y="-19" font-family="Helvetica,sans-Serif" font-size="10.00">/Framework/Core/src/DataSampling</text>
<text text-anchor="middle" x="659" y="-8" font-family="Helvetica,sans-Serif" font-size="10.00">ConditionRandom.cxx</text>
</a>
</g>
</g>
<!-- Node1&#45;&gt;Node5 -->
<g id="edge4" class="edge"><title>Node1&#45;&gt;Node5</title>
<path fill="none" stroke="midnightblue" d="M539.985,-85.9499C562.483,-74.9952 586.838,-63.1363 607.621,-53.0171"/>
<polygon fill="midnightblue" stroke="midnightblue" points="538.264,-82.8949 530.805,-90.4195 541.328,-89.1885 538.264,-82.8949"/>
</g>
<!-- Node6 -->
<g id="node6" class="node"><title>Node6</title>
<g id="a_node6"><a xlink:href="../../dd/d70/test__DataSamplingCondition_8cxx.html" target="_top" xlink:title="/home/travis/build\l/AliceO2Group/AliceO2\l/Framework/Core/test/test\l_DataSamplingCondition.cxx">
<polygon fill="none" stroke="black" points="763.5,-1 763.5,-53 906.5,-53 906.5,-1 763.5,-1"/>
<text text-anchor="start" x="771.5" y="-41" font-family="Helvetica,sans-Serif" font-size="10.00">/home/travis/build</text>
<text text-anchor="start" x="771.5" y="-30" font-family="Helvetica,sans-Serif" font-size="10.00">/AliceO2Group/AliceO2</text>
<text text-anchor="start" x="771.5" y="-19" font-family="Helvetica,sans-Serif" font-size="10.00">/Framework/Core/test/test</text>
<text text-anchor="middle" x="835" y="-8" font-family="Helvetica,sans-Serif" font-size="10.00">_DataSamplingCondition.cxx</text>
</a>
</g>
</g>
<!-- Node1&#45;&gt;Node6 -->
<g id="edge5" class="edge"><title>Node1&#45;&gt;Node6</title>
<path fill="none" stroke="midnightblue" d="M564.977,-100.318C620.58,-87.9527 691.528,-71.3135 754,-54 756.989,-53.1717 760.032,-52.3043 763.102,-51.4098"/>
<polygon fill="midnightblue" stroke="midnightblue" points="564.139,-96.9191 555.132,-102.499 565.653,-103.753 564.139,-96.9191"/>
</g>
</g>
</svg>
