<?xml version="1.0" encoding="UTF-8" standalone="no"?>
<!DOCTYPE svg PUBLIC "-//W3C//DTD SVG 1.1//EN"
 "http://www.w3.org/Graphics/SVG/1.1/DTD/svg11.dtd">
<!-- Generated by graphviz version 2.36.0 (20140111.2315)
 -->
<!-- Title: /home/travis/build/AliceO2Group/AliceO2/Framework/Core/include/Framework/DataProcessingHeader.h Pages: 1 -->
<!--zoomable 242 -->
<svg id="main" version="1.1" xmlns="http://www.w3.org/2000/svg" xmlns:xlink="http://www.w3.org/1999/xlink" xml:space="preserve" onload="init(evt)">
<style type="text/css"><![CDATA[
.edge:hover path { stroke: red; }
.edge:hover polygon { stroke: red; fill: red; }
]]></style>
<script type="text/javascript"><![CDATA[
var edges = document.getElementsByTagName('g');
if (edges && edges.length) {
  for (var i=0;i<edges.length;i++) {
    if (edges[i].id.substr(0,4)=='edge') {
      edges[i].setAttribute('class','edge');
    }
  }
}
]]></script>
        <defs>
                <circle id="rim" cx="0" cy="0" r="7"/>
                <circle id="rim2" cx="0" cy="0" r="3.5"/>
                <g id="zoomPlus">
                        <use xlink:href="#rim" fill="#404040">
                                <set attributeName="fill" to="#808080" begin="zoomplus.mouseover" end="zoomplus.mouseout"/>
                        </use>
                        <path d="M-4,0h8M0,-4v8" fill="none" stroke="white" stroke-width="1.5" pointer-events="none"/>
                </g>
                <g id="zoomMin">
                        <use xlink:href="#rim" fill="#404040">
                                <set attributeName="fill" to="#808080" begin="zoomminus.mouseover" end="zoomminus.mouseout"/>
                        </use>
                        <path d="M-4,0h8" fill="none" stroke="white" stroke-width="1.5" pointer-events="none"/>
                </g>
                <g id="dirArrow">
                        <path fill="none" stroke="white" stroke-width="1.5" d="M0,-3.0v7 M-2.5,-0.5L0,-3.0L2.5,-0.5"/>
                </g>
               <g id="resetDef">
                       <use xlink:href="#rim2" fill="#404040">
                               <set attributeName="fill" to="#808080" begin="reset.mouseover" end="reset.mouseout"/>
                       </use>
               </g>
        </defs>

<script type="text/javascript">
var viewWidth = 1256;
var viewHeight = 242;
var sectionId = 'dynsection-0';
</script>
<script xlink:href="../../svgpan.js"/>
<svg id="graph" class="graph">
<g id="viewport">
<title>/home/travis/build/AliceO2Group/AliceO2/Framework/Core/include/Framework/DataProcessingHeader.h</title>
<!-- Node1 -->
<g id="node1" class="node"><title>Node1</title>
<polygon fill="#bfbfbf" stroke="black" points="69.5,-181 69.5,-233 250.5,-233 250.5,-181 69.5,-181"/>
<text text-anchor="start" x="77.5" y="-221" font-family="Helvetica,sans-Serif" font-size="10.00">/home/travis/build</text>
<text text-anchor="start" x="77.5" y="-210" font-family="Helvetica,sans-Serif" font-size="10.00">/AliceO2Group/AliceO2</text>
<text text-anchor="start" x="77.5" y="-199" font-family="Helvetica,sans-Serif" font-size="10.00">/Framework/Core/include</text>
<text text-anchor="middle" x="160" y="-188" font-family="Helvetica,sans-Serif" font-size="10.00">/Framework/DataProcessingHeader.h</text>
</g>
<!-- Node2 -->
<g id="node2" class="node"><title>Node2</title>
<g id="a_node2"><a xlink:href="../../dc/dcd/DataHeader_8h.html" target="_top" xlink:title="Headers/DataHeader.h">
<polygon fill="none" stroke="black" points="188.5,-124.5 188.5,-143.5 305.5,-143.5 305.5,-124.5 188.5,-124.5"/>
<text text-anchor="middle" x="247" y="-131.5" font-family="Helvetica,sans-Serif" font-size="10.00">Headers/DataHeader.h</text>
</a>
</g>
</g>
<!-- Node1&#45;&gt;Node2 -->
<g id="edge1" class="edge"><title>Node1&#45;&gt;Node2</title>
<path fill="none" stroke="midnightblue" d="M190.918,-180.768C203.404,-170.578 217.404,-159.153 228.292,-150.267"/>
<polygon fill="midnightblue" stroke="midnightblue" points="230.735,-152.791 236.269,-143.757 226.309,-147.368 230.735,-152.791"/>
</g>
<!-- Node3 -->
<g id="node3" class="node"><title>Node3</title>
<polygon fill="none" stroke="#bfbfbf" points="17,-68.5 17,-87.5 63,-87.5 63,-68.5 17,-68.5"/>
<text text-anchor="middle" x="40" y="-75.5" font-family="Helvetica,sans-Serif" font-size="10.00">cstdint</text>
</g>
<!-- Node1&#45;&gt;Node3 -->
<g id="edge22" class="edge"><title>Node1&#45;&gt;Node3</title>
<path fill="none" stroke="midnightblue" d="M136.292,-180.909C112.186,-155.397 75.5624,-116.637 55.1304,-95.013"/>
<polygon fill="midnightblue" stroke="midnightblue" points="57.5642,-92.4926 48.1523,-87.6278 52.4762,-97.3002 57.5642,-92.4926"/>
</g>
<!-- Node4 -->
<g id="node4" class="node"><title>Node4</title>
<polygon fill="none" stroke="#bfbfbf" points="81,-68.5 81,-87.5 133,-87.5 133,-68.5 81,-68.5"/>
<text text-anchor="middle" x="107" y="-75.5" font-family="Helvetica,sans-Serif" font-size="10.00">memory</text>
</g>
<!-- Node1&#45;&gt;Node4 -->
<g id="edge24" class="edge"><title>Node1&#45;&gt;Node4</title>
<path fill="none" stroke="midnightblue" d="M149.529,-180.909C139.211,-156.184 123.699,-119.015 114.537,-97.0614"/>
<polygon fill="midnightblue" stroke="midnightblue" points="117.682,-95.5085 110.601,-87.6278 111.222,-98.2044 117.682,-95.5085"/>
</g>
<!-- Node5 -->
<g id="node5" class="node"><title>Node5</title>
<polygon fill="none" stroke="#bfbfbf" points="151.5,-68.5 151.5,-87.5 200.5,-87.5 200.5,-68.5 151.5,-68.5"/>
<text text-anchor="middle" x="176" y="-75.5" font-family="Helvetica,sans-Serif" font-size="10.00">cassert</text>
</g>
<!-- Node1&#45;&gt;Node5 -->
<g id="edge25" class="edge"><title>Node1&#45;&gt;Node5</title>
<path fill="none" stroke="midnightblue" d="M163.161,-180.909C166.248,-156.409 170.874,-119.69 173.649,-97.6639"/>
<polygon fill="midnightblue" stroke="midnightblue" points="177.136,-97.9869 174.913,-87.6278 170.19,-97.1119 177.136,-97.9869"/>
</g>
<!-- Node21 -->
<g id="node21" class="node"><title>Node21</title>
<polygon fill="none" stroke="#bfbfbf" points="323.5,-124.5 323.5,-143.5 366.5,-143.5 366.5,-124.5 323.5,-124.5"/>
<text text-anchor="middle" x="345" y="-131.5" font-family="Helvetica,sans-Serif" font-size="10.00">cstdio</text>
</g>
<!-- Node1&#45;&gt;Node21 -->
<g id="edge23" class="edge"><title>Node1&#45;&gt;Node21</title>
<path fill="none" stroke="midnightblue" d="M225.224,-180.968C255.396,-169.388 289.821,-156.177 313.998,-146.898"/>
<polygon fill="midnightblue" stroke="midnightblue" points="315.287,-150.152 323.369,-143.302 312.779,-143.617 315.287,-150.152"/>
</g>
<!-- Node2&#45;&gt;Node3 -->
<g id="edge2" class="edge"><title>Node2&#45;&gt;Node3</title>
<path fill="none" stroke="midnightblue" d="M212.737,-124.432C179.414,-116.045 127.119,-102.742 72.8481,-88.1857"/>
<polygon fill="midnightblue" stroke="midnightblue" points="73.6209,-84.7692 63.055,-85.551 71.8023,-91.5289 73.6209,-84.7692"/>
</g>
<!-- Node2&#45;&gt;Node4 -->
<g id="edge3" class="edge"><title>Node2&#45;&gt;Node4</title>
<path fill="none" stroke="midnightblue" d="M224.817,-124.444C201.572,-115.478 164.851,-101.314 138.585,-91.1827"/>
<polygon fill="midnightblue" stroke="midnightblue" points="139.669,-87.8497 129.08,-87.5164 137.15,-94.3807 139.669,-87.8497"/>
</g>
<!-- Node2&#45;&gt;Node5 -->
<g id="edge4" class="edge"><title>Node2&#45;&gt;Node5</title>
<path fill="none" stroke="midnightblue" d="M235.593,-124.324C224.891,-116.185 208.659,-103.839 195.837,-94.0874"/>
<polygon fill="midnightblue" stroke="midnightblue" points="197.693,-91.1018 187.615,-87.8339 193.456,-96.6734 197.693,-91.1018"/>
</g>
<!-- Node6 -->
<g id="node6" class="node"><title>Node6</title>
<polygon fill="none" stroke="#bfbfbf" points="1202,-6.5 1202,-25.5 1248,-25.5 1248,-6.5 1202,-6.5"/>
<text text-anchor="middle" x="1225" y="-13.5" font-family="Helvetica,sans-Serif" font-size="10.00">cstring</text>
</g>
<!-- Node2&#45;&gt;Node6 -->
<g id="edge5" class="edge"><title>Node2&#45;&gt;Node6</title>
<path fill="none" stroke="midnightblue" d="M305.814,-125.001C308.58,-124.656 311.32,-124.32 314,-124 704.027,-77.4033 814.568,-137.268 1193,-32 1195.34,-31.3479 1197.73,-30.5379 1200.09,-29.6346"/>
<polygon fill="midnightblue" stroke="midnightblue" points="1201.68,-32.7603 1209.45,-25.5611 1198.88,-26.3415 1201.68,-32.7603"/>
</g>
<!-- Node7 -->
<g id="node7" class="node"><title>Node7</title>
<polygon fill="none" stroke="#bfbfbf" points="219,-68.5 219,-87.5 275,-87.5 275,-68.5 219,-68.5"/>
<text text-anchor="middle" x="247" y="-75.5" font-family="Helvetica,sans-Serif" font-size="10.00">algorithm</text>
</g>
<!-- Node2&#45;&gt;Node7 -->
<g id="edge6" class="edge"><title>Node2&#45;&gt;Node7</title>
<path fill="none" stroke="midnightblue" d="M247,-124.083C247,-117.006 247,-106.861 247,-97.9865"/>
<polygon fill="midnightblue" stroke="midnightblue" points="250.5,-97.751 247,-87.7511 243.5,-97.7511 250.5,-97.751"/>
</g>
<!-- Node8 -->
<g id="node8" class="node"><title>Node8</title>
<polygon fill="none" stroke="#bfbfbf" points="293.5,-68.5 293.5,-87.5 352.5,-87.5 352.5,-68.5 293.5,-68.5"/>
<text text-anchor="middle" x="323" y="-75.5" font-family="Helvetica,sans-Serif" font-size="10.00">stdexcept</text>
</g>
<!-- Node2&#45;&gt;Node8 -->
<g id="edge7" class="edge"><title>Node2&#45;&gt;Node8</title>
<path fill="none" stroke="midnightblue" d="M259.211,-124.324C270.776,-116.107 288.375,-103.602 302.161,-93.8069"/>
<polygon fill="midnightblue" stroke="midnightblue" points="304.443,-96.4791 310.567,-87.8339 300.388,-90.7729 304.443,-96.4791"/>
</g>
<!-- Node9 -->
<g id="node9" class="node"><title>Node9</title>
<polygon fill="none" stroke="#bfbfbf" points="-0.5,-6.5 -0.5,-25.5 40.5,-25.5 40.5,-6.5 -0.5,-6.5"/>
<text text-anchor="middle" x="20" y="-13.5" font-family="Helvetica,sans-Serif" font-size="10.00">string</text>
</g>
<!-- Node2&#45;&gt;Node9 -->
<g id="edge8" class="edge"><title>Node2&#45;&gt;Node9</title>
<path fill="none" stroke="midnightblue" d="M290.986,-124.474C332.735,-114.494 385.708,-95.7232 361,-68 314.563,-15.8969 115.756,-52.3659 49,-32 47.0889,-31.417 45.1542,-30.7101 43.2387,-29.9245"/>
<polygon fill="midnightblue" stroke="midnightblue" points="44.5539,-26.6746 34.0189,-25.5501 41.5533,-32.9989 44.5539,-26.6746"/>
</g>
<!-- Node10 -->
<g id="node10" class="node"><title>Node10</title>
<g id="a_node10"><a xlink:href="../../dc/d03/MemoryResources_8h.html" target="_top" xlink:title="MemoryResources/MemoryResources.h">
<polygon fill="none" stroke="black" points="409.5,-68.5 409.5,-87.5 602.5,-87.5 602.5,-68.5 409.5,-68.5"/>
<text text-anchor="middle" x="506" y="-75.5" font-family="Helvetica,sans-Serif" font-size="10.00">MemoryResources/MemoryResources.h</text>
</a>
</g>
</g>
<!-- Node2&#45;&gt;Node10 -->
<g id="edge9" class="edge"><title>Node2&#45;&gt;Node10</title>
<path fill="none" stroke="midnightblue" d="M288.039,-124.444C333.316,-115.004 406.227,-99.802 455.106,-89.6111"/>
<polygon fill="midnightblue" stroke="midnightblue" points="456.078,-92.9839 465.153,-87.5164 454.649,-86.1312 456.078,-92.9839"/>
</g>
<!-- Node10&#45;&gt;Node6 -->
<g id="edge14" class="edge"><title>Node10&#45;&gt;Node6</title>
<path fill="none" stroke="midnightblue" d="M602.635,-75.0885C764.691,-71.1442 1084.19,-60.0008 1193,-32 1195.5,-31.3578 1198.03,-30.5225 1200.53,-29.5749"/>
<polygon fill="midnightblue" stroke="midnightblue" points="1202.04,-32.7363 1209.81,-25.5337 1199.24,-26.3188 1202.04,-32.7363"/>
</g>
<!-- Node10&#45;&gt;Node9 -->
<g id="edge15" class="edge"><title>Node10&#45;&gt;Node9</title>
<path fill="none" stroke="midnightblue" d="M410.128,-68.4882C281.21,-56.9068 66.0451,-37.0447 49,-32 47.0841,-31.433 45.1459,-30.7377 43.228,-29.9602"/>
<polygon fill="midnightblue" stroke="midnightblue" points="44.5403,-26.7093 34.0035,-25.6014 41.5496,-33.0383 44.5403,-26.7093"/>
</g>
<!-- Node11 -->
<g id="node11" class="node"><title>Node11</title>
<polygon fill="none" stroke="#bfbfbf" points="776,-1 776,-31 876,-31 876,-1 776,-1"/>
<text text-anchor="start" x="784" y="-19" font-family="Helvetica,sans-Serif" font-size="10.00">boost/container/flat</text>
<text text-anchor="middle" x="826" y="-8" font-family="Helvetica,sans-Serif" font-size="10.00">_map.hpp</text>
</g>
<!-- Node10&#45;&gt;Node11 -->
<g id="edge10" class="edge"><title>Node10&#45;&gt;Node11</title>
<path fill="none" stroke="midnightblue" d="M562.271,-68.4864C615.087,-60.206 696.191,-46.7463 766,-32 766.102,-31.9785 766.204,-31.957 766.306,-31.9354"/>
<polygon fill="midnightblue" stroke="midnightblue" points="766.964,-35.3743 775.974,-29.7992 765.454,-28.5392 766.964,-35.3743"/>
</g>
<!-- Node12 -->
<g id="node12" class="node"><title>Node12</title>
<polygon fill="none" stroke="#bfbfbf" points="894,-1 894,-31 1010,-31 1010,-1 894,-1"/>
<text text-anchor="start" x="902" y="-19" font-family="Helvetica,sans-Serif" font-size="10.00">boost/container/pmr</text>
<text text-anchor="middle" x="952" y="-8" font-family="Helvetica,sans-Serif" font-size="10.00">/memory_resource.hpp</text>
</g>
<!-- Node10&#45;&gt;Node12 -->
<g id="edge11" class="edge"><title>Node10&#45;&gt;Node12</title>
<path fill="none" stroke="midnightblue" d="M600.615,-68.4716C675.116,-61.1276 781.748,-49.2315 884.079,-32.052"/>
<polygon fill="midnightblue" stroke="midnightblue" points="884.694,-35.4977 893.967,-30.3729 883.522,-28.5965 884.694,-35.4977"/>
</g>
<!-- Node13 -->
<g id="node13" class="node"><title>Node13</title>
<polygon fill="none" stroke="#bfbfbf" points="1028,-1 1028,-31 1184,-31 1184,-1 1028,-1"/>
<text text-anchor="start" x="1036" y="-19" font-family="Helvetica,sans-Serif" font-size="10.00">boost/container/pmr</text>
<text text-anchor="middle" x="1106" y="-8" font-family="Helvetica,sans-Serif" font-size="10.00">/monotonic_buffer_resource.hpp</text>
</g>
<!-- Node10&#45;&gt;Node13 -->
<g id="edge12" class="edge"><title>Node10&#45;&gt;Node13</title>
<path fill="none" stroke="midnightblue" d="M602.504,-70.8636C703.406,-63.9119 866.553,-51.1649 1017.89,-31.9373"/>
<polygon fill="midnightblue" stroke="midnightblue" points="1018.37,-35.4049 1027.84,-30.6615 1017.48,-28.4618 1018.37,-35.4049"/>
</g>
<!-- Node14 -->
<g id="node14" class="node"><title>Node14</title>
<polygon fill="none" stroke="#bfbfbf" points="58.5,-1 58.5,-31 191.5,-31 191.5,-1 58.5,-1"/>
<text text-anchor="start" x="66.5" y="-19" font-family="Helvetica,sans-Serif" font-size="10.00">boost/container/pmr</text>
<text text-anchor="middle" x="125" y="-8" font-family="Helvetica,sans-Serif" font-size="10.00">/polymorphic_allocator.hpp</text>
</g>
<!-- Node10&#45;&gt;Node14 -->
<g id="edge13" class="edge"><title>Node10&#45;&gt;Node14</title>
<path fill="none" stroke="midnightblue" d="M442.183,-68.4998C382.61,-60.3567 290.991,-47.3038 201.722,-32.0746"/>
<polygon fill="midnightblue" stroke="midnightblue" points="202.142,-28.5957 191.694,-30.3529 200.958,-35.4947 202.142,-28.5957"/>
</g>
<!-- Node15 -->
<g id="node15" class="node"><title>Node15</title>
<polygon fill="none" stroke="#bfbfbf" points="210,-6.5 210,-25.5 272,-25.5 272,-6.5 210,-6.5"/>
<text text-anchor="middle" x="241" y="-13.5" font-family="Helvetica,sans-Serif" font-size="10.00">type_traits</text>
</g>
<!-- Node10&#45;&gt;Node15 -->
<g id="edge16" class="edge"><title>Node10&#45;&gt;Node15</title>
<path fill="none" stroke="midnightblue" d="M450.387,-68.4497C404.484,-60.7805 337.884,-48.2392 281,-32 277.862,-31.1042 274.621,-30.0732 271.405,-28.9799"/>
<polygon fill="midnightblue" stroke="midnightblue" points="272.556,-25.6743 261.961,-25.5864 270.189,-32.2619 272.556,-25.6743"/>
</g>
<!-- Node16 -->
<g id="node16" class="node"><title>Node16</title>
<polygon fill="none" stroke="#bfbfbf" points="290,-6.5 290,-25.5 330,-25.5 330,-6.5 290,-6.5"/>
<text text-anchor="middle" x="310" y="-13.5" font-family="Helvetica,sans-Serif" font-size="10.00">utility</text>
</g>
<!-- Node10&#45;&gt;Node16 -->
<g id="edge17" class="edge"><title>Node10&#45;&gt;Node16</title>
<path fill="none" stroke="midnightblue" d="M464.724,-68.4727C430.439,-60.7784 380.708,-48.1904 339,-32 337.402,-31.3795 335.776,-30.6962 334.152,-29.9736"/>
<polygon fill="midnightblue" stroke="midnightblue" points="335.593,-26.7826 325.068,-25.569 332.539,-33.0813 335.593,-26.7826"/>
</g>
<!-- Node17 -->
<g id="node17" class="node"><title>Node17</title>
<polygon fill="none" stroke="#bfbfbf" points="348,-6.5 348,-25.5 392,-25.5 392,-6.5 348,-6.5"/>
<text text-anchor="middle" x="370" y="-13.5" font-family="Helvetica,sans-Serif" font-size="10.00">vector</text>
</g>
<!-- Node10&#45;&gt;Node17 -->
<g id="edge18" class="edge"><title>Node10&#45;&gt;Node17</title>
<path fill="none" stroke="midnightblue" d="M485.356,-68.4809C464.093,-59.6299 430.053,-45.2464 401,-32 399.606,-31.3644 398.18,-30.7058 396.744,-30.0351"/>
<polygon fill="midnightblue" stroke="midnightblue" points="397.847,-26.6843 387.313,-25.5501 394.841,-33.0058 397.847,-26.6843"/>
</g>
<!-- Node18 -->
<g id="node18" class="node"><title>Node18</title>
<polygon fill="none" stroke="#bfbfbf" points="410.5,-6.5 410.5,-25.5 493.5,-25.5 493.5,-6.5 410.5,-6.5"/>
<text text-anchor="middle" x="452" y="-13.5" font-family="Helvetica,sans-Serif" font-size="10.00">unordered_map</text>
</g>
<!-- Node10&#45;&gt;Node18 -->
<g id="edge19" class="edge"><title>Node10&#45;&gt;Node18</title>
<path fill="none" stroke="midnightblue" d="M498.263,-68.4035C490.003,-59.2252 476.723,-44.4699 466.506,-33.1173"/>
<polygon fill="midnightblue" stroke="midnightblue" points="469.014,-30.6722 459.723,-25.5806 463.811,-35.3549 469.014,-30.6722"/>
</g>
<!-- Node19 -->
<g id="node19" class="node"><title>Node19</title>
<polygon fill="none" stroke="#bfbfbf" points="511.5,-6.5 511.5,-25.5 608.5,-25.5 608.5,-6.5 511.5,-6.5"/>
<text text-anchor="middle" x="560" y="-13.5" font-family="Helvetica,sans-Serif" font-size="10.00">FairMQMessage.h</text>
</g>
<!-- Node10&#45;&gt;Node19 -->
<g id="edge20" class="edge"><title>Node10&#45;&gt;Node19</title>
<path fill="none" stroke="midnightblue" d="M513.737,-68.4035C521.997,-59.2252 535.277,-44.4699 545.494,-33.1173"/>
<polygon fill="midnightblue" stroke="midnightblue" points="548.189,-35.3549 552.277,-25.5806 542.986,-30.6722 548.189,-35.3549"/>
</g>
<!-- Node20 -->
<g id="node20" class="node"><title>Node20</title>
<polygon fill="none" stroke="#bfbfbf" points="626.5,-6.5 626.5,-25.5 757.5,-25.5 757.5,-6.5 626.5,-6.5"/>
<text text-anchor="middle" x="692" y="-13.5" font-family="Helvetica,sans-Serif" font-size="10.00">FairMQTransportFactory.h</text>
</g>
<!-- Node10&#45;&gt;Node20 -->
<g id="edge21" class="edge"><title>Node10&#45;&gt;Node20</title>
<path fill="none" stroke="midnightblue" d="M532.649,-68.4035C564.969,-57.9777 619.597,-40.3557 655.733,-28.6992"/>
<polygon fill="midnightblue" stroke="midnightblue" points="656.958,-31.9817 665.4,-25.5806 654.809,-25.3197 656.958,-31.9817"/>
</g>
</g>
</svg>
        <g id="navigator" transform="translate(0 0)" fill="#404254">
                <rect fill="#f2f5e9" fill-opacity="0.5" stroke="#606060" stroke-width=".5" x="0" y="0" width="60" height="60"/>
                <use id="zoomplus" xlink:href="#zoomPlus" x="17" y="9" onmousedown="handleZoom(evt,'in')"/>
                <use id="zoomminus" xlink:href="#zoomMin" x="42" y="9" onmousedown="handleZoom(evt,'out')"/>
                <use id="reset" xlink:href="#resetDef" x="30" y="36" onmousedown="handleReset()"/>
                <g id="arrowUp" xlink:href="#dirArrow" transform="translate(30 24)" onmousedown="handlePan(0,-1)">
                  <use xlink:href="#rim" fill="#404040">
                        <set attributeName="fill" to="#808080" begin="arrowUp.mouseover" end="arrowUp.mouseout"/>
                  </use>
                  <path fill="none" stroke="white" stroke-width="1.5" d="M0,-3.0v7 M-2.5,-0.5L0,-3.0L2.5,-0.5"/>
                </g>
                <g id="arrowRight" xlink:href="#dirArrow" transform="rotate(90) translate(36 -43)" onmousedown="handlePan(1,0)">
                  <use xlink:href="#rim" fill="#404040">
                        <set attributeName="fill" to="#808080" begin="arrowRight.mouseover" end="arrowRight.mouseout"/>
                  </use>
                  <path fill="none" stroke="white" stroke-width="1.5" d="M0,-3.0v7 M-2.5,-0.5L0,-3.0L2.5,-0.5"/>
                </g>
                <g id="arrowDown" xlink:href="#dirArrow" transform="rotate(180) translate(-30 -48)" onmousedown="handlePan(0,1)">
                  <use xlink:href="#rim" fill="#404040">
                        <set attributeName="fill" to="#808080" begin="arrowDown.mouseover" end="arrowDown.mouseout"/>
                  </use>
                  <path fill="none" stroke="white" stroke-width="1.5" d="M0,-3.0v7 M-2.5,-0.5L0,-3.0L2.5,-0.5"/>
                </g>
                <g id="arrowLeft" xlink:href="#dirArrow" transform="rotate(270) translate(-36 17)" onmousedown="handlePan(-1,0)">
                  <use xlink:href="#rim" fill="#404040">
                        <set attributeName="fill" to="#808080" begin="arrowLeft.mouseover" end="arrowLeft.mouseout"/>
                  </use>
                  <path fill="none" stroke="white" stroke-width="1.5" d="M0,-3.0v7 M-2.5,-0.5L0,-3.0L2.5,-0.5"/>
                </g>
        </g>
        <svg viewBox="0 0 15 15" width="100%" height="30px" preserveAspectRatio="xMaxYMin meet">
         <g id="arrow_out" transform="scale(0.3 0.3)">
          <a xlink:href="DataProcessingHeader_8h__incl_org.svg" target="_base">
           <rect id="button" ry="5" rx="5" y="6" x="6" height="38" width="38"
                fill="#f2f5e9" fill-opacity="0.5" stroke="#606060" stroke-width="1.0"/>
           <path id="arrow"
             d="M 11.500037,31.436501 C 11.940474,20.09759 22.043105,11.32322 32.158766,21.979434 L 37.068811,17.246167 C 37.068811,17.246167 37.088388,32 37.088388,32 L 22.160133,31.978069 C 22.160133,31.978069 26.997745,27.140456 26.997745,27.140456 C 18.528582,18.264221 13.291696,25.230495 11.500037,31.436501 z"
             style="fill:#404040;"/>
          </a>
         </g>
        </svg>
</svg>
