<?xml version="1.0" encoding="UTF-8" standalone="no"?>
<!DOCTYPE svg PUBLIC "-//W3C//DTD SVG 1.1//EN"
 "http://www.w3.org/Graphics/SVG/1.1/DTD/svg11.dtd">
<!-- Generated by graphviz version 2.36.0 (20140111.2315)
 -->
<!-- Title: /home/travis/build/AliceO2Group/AliceO2/Utilities/DataFlow/src/TimeframeValidatorDevice.cxx Pages: 1 -->
<svg width="1291pt" height="422pt"
 viewBox="0.00 0.00 1291.00 422.00" xmlns="http://www.w3.org/2000/svg" xmlns:xlink="http://www.w3.org/1999/xlink">
<g id="graph0" class="graph" transform="scale(1 1) rotate(0) translate(4 418)">
<title>/home/travis/build/AliceO2Group/AliceO2/Utilities/DataFlow/src/TimeframeValidatorDevice.cxx</title>
<!-- Node1 -->
<g id="node1" class="node"><title>Node1</title>
<polygon fill="#bfbfbf" stroke="black" points="773,-361 773,-413 927,-413 927,-361 773,-361"/>
<text text-anchor="start" x="781" y="-401" font-family="Helvetica,sans-Serif" font-size="10.00">/home/travis/build</text>
<text text-anchor="start" x="781" y="-390" font-family="Helvetica,sans-Serif" font-size="10.00">/AliceO2Group/AliceO2</text>
<text text-anchor="start" x="781" y="-379" font-family="Helvetica,sans-Serif" font-size="10.00">/Utilities/DataFlow/src</text>
<text text-anchor="middle" x="850" y="-368" font-family="Helvetica,sans-Serif" font-size="10.00">/TimeframeValidatorDevice.cxx</text>
</g>
<!-- Node2 -->
<g id="node2" class="node"><title>Node2</title>
<polygon fill="none" stroke="#bfbfbf" points="530,-298.5 530,-317.5 574,-317.5 574,-298.5 530,-298.5"/>
<text text-anchor="middle" x="552" y="-305.5" font-family="Helvetica,sans-Serif" font-size="10.00">thread</text>
</g>
<!-- Node1&#45;&gt;Node2 -->
<g id="edge1" class="edge"><title>Node1&#45;&gt;Node2</title>
<path fill="none" stroke="midnightblue" d="M772.856,-371.189C720.183,-360.24 649.137,-343.825 588,-324 585.432,-323.167 582.79,-322.23 580.16,-321.241"/>
<polygon fill="midnightblue" stroke="midnightblue" points="581.425,-317.977 570.84,-317.527 578.834,-324.48 581.425,-317.977"/>
</g>
<!-- Node3 -->
<g id="node3" class="node"><title>Node3</title>
<polygon fill="none" stroke="#bfbfbf" points="953,-124.5 953,-143.5 999,-143.5 999,-124.5 953,-124.5"/>
<text text-anchor="middle" x="976" y="-131.5" font-family="Helvetica,sans-Serif" font-size="10.00">chrono</text>
</g>
<!-- Node1&#45;&gt;Node3 -->
<g id="edge2" class="edge"><title>Node1&#45;&gt;Node3</title>
<path fill="none" stroke="midnightblue" d="M860.113,-360.901C864.412,-349.714 869.279,-336.308 873,-324 892.028,-261.053 869.2,-233.81 907,-180 916.618,-166.308 931.857,-155.732 945.571,-148.283"/>
<polygon fill="midnightblue" stroke="midnightblue" points="947.404,-151.278 954.733,-143.627 944.232,-145.037 947.404,-151.278"/>
</g>
<!-- Node4 -->
<g id="node4" class="node"><title>Node4</title>
<g id="a_node4"><a xlink:href="../../d3/da5/TimeframeValidatorDevice_8h.html" target="_top" xlink:title="DataFlow/TimeframeValidator\lDevice.h">
<polygon fill="none" stroke="black" points="652,-293 652,-323 798,-323 798,-293 652,-293"/>
<text text-anchor="start" x="660" y="-311" font-family="Helvetica,sans-Serif" font-size="10.00">DataFlow/TimeframeValidator</text>
<text text-anchor="middle" x="725" y="-300" font-family="Helvetica,sans-Serif" font-size="10.00">Device.h</text>
</a>
</g>
</g>
<!-- Node1&#45;&gt;Node4 -->
<g id="edge3" class="edge"><title>Node1&#45;&gt;Node4</title>
<path fill="none" stroke="midnightblue" d="M809.07,-360.787C792.048,-350.301 772.591,-338.316 756.686,-328.519"/>
<polygon fill="midnightblue" stroke="midnightblue" points="758.127,-325.295 747.777,-323.031 754.456,-331.255 758.127,-325.295"/>
</g>
<!-- Node7 -->
<g id="node7" class="node"><title>Node7</title>
<polygon fill="none" stroke="#bfbfbf" points="238,-180.5 238,-199.5 384,-199.5 384,-180.5 238,-180.5"/>
<text text-anchor="middle" x="311" y="-187.5" font-family="Helvetica,sans-Serif" font-size="10.00">options/FairMQProgOptions.h</text>
</g>
<!-- Node1&#45;&gt;Node7 -->
<g id="edge45" class="edge"><title>Node1&#45;&gt;Node7</title>
<path fill="none" stroke="midnightblue" d="M772.597,-366.62C733.177,-355.801 684.861,-341.064 643,-324 614.65,-312.444 609.955,-304.482 582,-292 499.518,-255.172 399.128,-220.226 346.735,-202.705"/>
<polygon fill="midnightblue" stroke="midnightblue" points="347.814,-199.375 337.22,-199.538 345.604,-206.017 347.814,-199.375"/>
</g>
<!-- Node22 -->
<g id="node22" class="node"><title>Node22</title>
<g id="a_node22"><a xlink:href="../../dc/dcd/DataHeader_8h.html" target="_top" xlink:title="Headers/DataHeader.h">
<polygon fill="none" stroke="black" points="817.5,-124.5 817.5,-143.5 934.5,-143.5 934.5,-124.5 817.5,-124.5"/>
<text text-anchor="middle" x="876" y="-131.5" font-family="Helvetica,sans-Serif" font-size="10.00">Headers/DataHeader.h</text>
</a>
</g>
</g>
<!-- Node1&#45;&gt;Node22 -->
<g id="edge44" class="edge"><title>Node1&#45;&gt;Node22</title>
<path fill="none" stroke="midnightblue" d="M852.636,-360.551C857.862,-310.105 869.427,-198.455 874.042,-153.899"/>
<polygon fill="midnightblue" stroke="midnightblue" points="877.532,-154.181 875.081,-143.873 870.569,-153.459 877.532,-154.181"/>
</g>
<!-- Node30 -->
<g id="node30" class="node"><title>Node30</title>
<g id="a_node30"><a xlink:href="../../de/dfa/TimeFrame_8h.html" target="_top" xlink:title="TimeFrame/TimeFrame.h">
<polygon fill="none" stroke="black" points="966.5,-236.5 966.5,-255.5 1093.5,-255.5 1093.5,-236.5 966.5,-236.5"/>
<text text-anchor="middle" x="1030" y="-243.5" font-family="Helvetica,sans-Serif" font-size="10.00">TimeFrame/TimeFrame.h</text>
</a>
</g>
</g>
<!-- Node1&#45;&gt;Node30 -->
<g id="edge34" class="edge"><title>Node1&#45;&gt;Node30</title>
<path fill="none" stroke="midnightblue" d="M882.597,-360.828C920.033,-331.919 980.213,-285.447 1010.81,-261.822"/>
<polygon fill="midnightblue" stroke="midnightblue" points="1013.18,-264.414 1018.95,-255.532 1008.9,-258.874 1013.18,-264.414"/>
</g>
<!-- Node34 -->
<g id="node34" class="node"><title>Node34</title>
<g id="a_node34"><a xlink:href="../../d2/d1b/SubframeMetadata_8h.html" target="_top" xlink:title="Headers/SubframeMetadata.h">
<polygon fill="none" stroke="black" points="1136.5,-236.5 1136.5,-255.5 1283.5,-255.5 1283.5,-236.5 1136.5,-236.5"/>
<text text-anchor="middle" x="1210" y="-243.5" font-family="Helvetica,sans-Serif" font-size="10.00">Headers/SubframeMetadata.h</text>
</a>
</g>
</g>
<!-- Node1&#45;&gt;Node34 -->
<g id="edge42" class="edge"><title>Node1&#45;&gt;Node34</title>
<path fill="none" stroke="midnightblue" d="M914.777,-360.989C992.47,-330.991 1119.57,-281.915 1178.35,-259.219"/>
<polygon fill="midnightblue" stroke="midnightblue" points="1179.78,-262.421 1187.85,-255.554 1177.26,-255.891 1179.78,-262.421"/>
</g>
<!-- Node5 -->
<g id="node5" class="node"><title>Node5</title>
<g id="a_node5"><a xlink:href="../../d2/dee/O2Device_8h.html" target="_top" xlink:title="O2Device/O2Device.h">
<polygon fill="none" stroke="black" points="630.5,-236.5 630.5,-255.5 745.5,-255.5 745.5,-236.5 630.5,-236.5"/>
<text text-anchor="middle" x="688" y="-243.5" font-family="Helvetica,sans-Serif" font-size="10.00">O2Device/O2Device.h</text>
</a>
</g>
</g>
<!-- Node4&#45;&gt;Node5 -->
<g id="edge4" class="edge"><title>Node4&#45;&gt;Node5</title>
<path fill="none" stroke="midnightblue" d="M716.232,-292.781C710.966,-284.242 704.23,-273.318 698.658,-264.283"/>
<polygon fill="midnightblue" stroke="midnightblue" points="701.612,-262.405 693.384,-255.731 695.654,-266.079 701.612,-262.405"/>
</g>
<!-- Node6 -->
<g id="node6" class="node"><title>Node6</title>
<polygon fill="none" stroke="#bfbfbf" points="572,-180.5 572,-199.5 660,-199.5 660,-180.5 572,-180.5"/>
<text text-anchor="middle" x="616" y="-187.5" font-family="Helvetica,sans-Serif" font-size="10.00">FairMQDevice.h</text>
</g>
<!-- Node5&#45;&gt;Node6 -->
<g id="edge5" class="edge"><title>Node5&#45;&gt;Node6</title>
<path fill="none" stroke="midnightblue" d="M676.432,-236.324C665.58,-228.185 649.119,-215.839 636.117,-206.087"/>
<polygon fill="midnightblue" stroke="midnightblue" points="637.879,-203.034 627.779,-199.834 633.679,-208.634 637.879,-203.034"/>
</g>
<!-- Node5&#45;&gt;Node7 -->
<g id="edge6" class="edge"><title>Node5&#45;&gt;Node7</title>
<path fill="none" stroke="midnightblue" d="M630.331,-236.74C563.291,-227.137 452.685,-211.294 380.839,-201.003"/>
<polygon fill="midnightblue" stroke="midnightblue" points="380.925,-197.48 370.53,-199.527 379.932,-204.409 380.925,-197.48"/>
</g>
<!-- Node8 -->
<g id="node8" class="node"><title>Node8</title>
<g id="a_node8"><a xlink:href="../../d7/db2/Utilities_8h.html" target="_top" xlink:title="O2Device/Utilities.h">
<polygon fill="none" stroke="black" points="716,-180.5 716,-199.5 820,-199.5 820,-180.5 716,-180.5"/>
<text text-anchor="middle" x="768" y="-187.5" font-family="Helvetica,sans-Serif" font-size="10.00">O2Device/Utilities.h</text>
</a>
</g>
</g>
<!-- Node5&#45;&gt;Node8 -->
<g id="edge7" class="edge"><title>Node5&#45;&gt;Node8</title>
<path fill="none" stroke="midnightblue" d="M700.853,-236.324C713.216,-227.979 732.13,-215.212 746.737,-205.352"/>
<polygon fill="midnightblue" stroke="midnightblue" points="748.848,-208.15 755.179,-199.655 744.932,-202.348 748.848,-208.15"/>
</g>
<!-- Node27 -->
<g id="node27" class="node"><title>Node27</title>
<polygon fill="none" stroke="#bfbfbf" points="506.5,-68.5 506.5,-87.5 565.5,-87.5 565.5,-68.5 506.5,-68.5"/>
<text text-anchor="middle" x="536" y="-75.5" font-family="Helvetica,sans-Serif" font-size="10.00">stdexcept</text>
</g>
<!-- Node5&#45;&gt;Node27 -->
<g id="edge33" class="edge"><title>Node5&#45;&gt;Node27</title>
<path fill="none" stroke="midnightblue" d="M687.03,-236.267C685.206,-223.049 680.276,-197.637 668,-180 640.332,-140.251 592.206,-109.21 562.34,-92.5432"/>
<polygon fill="midnightblue" stroke="midnightblue" points="563.79,-89.348 553.333,-87.6443 560.445,-95.4972 563.79,-89.348"/>
</g>
<!-- Node29 -->
<g id="node29" class="node"><title>Node29</title>
<polygon fill="none" stroke="#bfbfbf" points="402.5,-180.5 402.5,-199.5 553.5,-199.5 553.5,-180.5 402.5,-180.5"/>
<text text-anchor="middle" x="478" y="-187.5" font-family="Helvetica,sans-Serif" font-size="10.00">Monitoring/MonitoringFactory.h</text>
</g>
<!-- Node5&#45;&gt;Node29 -->
<g id="edge32" class="edge"><title>Node5&#45;&gt;Node29</title>
<path fill="none" stroke="midnightblue" d="M654.725,-236.444C618.552,-227.142 560.623,-212.246 521.019,-202.062"/>
<polygon fill="midnightblue" stroke="midnightblue" points="521.676,-198.617 511.119,-199.516 519.933,-205.397 521.676,-198.617"/>
</g>
<!-- Node9 -->
<g id="node9" class="node"><title>Node9</title>
<g id="a_node9"><a xlink:href="../../dc/d03/MemoryResources_8h.html" target="_top" xlink:title="MemoryResources/MemoryResources.h">
<polygon fill="none" stroke="black" points="583.5,-68.5 583.5,-87.5 776.5,-87.5 776.5,-68.5 583.5,-68.5"/>
<text text-anchor="middle" x="680" y="-75.5" font-family="Helvetica,sans-Serif" font-size="10.00">MemoryResources/MemoryResources.h</text>
</a>
</g>
</g>
<!-- Node8&#45;&gt;Node9 -->
<g id="edge8" class="edge"><title>Node8&#45;&gt;Node9</title>
<path fill="none" stroke="midnightblue" d="M761.095,-180.368C746.508,-162.135 712.341,-119.426 693.34,-95.6752"/>
<polygon fill="midnightblue" stroke="midnightblue" points="695.853,-93.2137 686.873,-87.5914 690.387,-97.5866 695.853,-93.2137"/>
</g>
<!-- Node17 -->
<g id="node17" class="node"><title>Node17</title>
<polygon fill="none" stroke="#bfbfbf" points="0,-6.5 0,-25.5 40,-25.5 40,-6.5 0,-6.5"/>
<text text-anchor="middle" x="20" y="-13.5" font-family="Helvetica,sans-Serif" font-size="10.00">utility</text>
</g>
<!-- Node8&#45;&gt;Node17 -->
<g id="edge30" class="edge"><title>Node8&#45;&gt;Node17</title>
<path fill="none" stroke="midnightblue" d="M715.701,-182.379C595.286,-166.109 290.279,-119.026 49,-32 47.3504,-31.405 45.6759,-30.7347 44.0068,-30.0161"/>
<polygon fill="midnightblue" stroke="midnightblue" points="45.2441,-26.7278 34.7139,-25.5583 42.2164,-33.0392 45.2441,-26.7278"/>
</g>
<!-- Node8&#45;&gt;Node22 -->
<g id="edge21" class="edge"><title>Node8&#45;&gt;Node22</title>
<path fill="none" stroke="midnightblue" d="M785.352,-180.324C802.672,-171.664 829.515,-158.242 849.502,-148.249"/>
<polygon fill="midnightblue" stroke="midnightblue" points="851.312,-151.257 858.691,-143.655 848.181,-144.996 851.312,-151.257"/>
</g>
<!-- Node28 -->
<g id="node28" class="node"><title>Node28</title>
<polygon fill="none" stroke="#bfbfbf" points="754.5,-124.5 754.5,-143.5 799.5,-143.5 799.5,-124.5 754.5,-124.5"/>
<text text-anchor="middle" x="777" y="-131.5" font-family="Helvetica,sans-Serif" font-size="10.00">gsl/gsl</text>
</g>
<!-- Node8&#45;&gt;Node28 -->
<g id="edge31" class="edge"><title>Node8&#45;&gt;Node28</title>
<path fill="none" stroke="midnightblue" d="M769.486,-180.083C770.679,-172.927 772.394,-162.635 773.885,-153.691"/>
<polygon fill="midnightblue" stroke="midnightblue" points="777.35,-154.19 775.541,-143.751 770.445,-153.04 777.35,-154.19"/>
</g>
<!-- Node10 -->
<g id="node10" class="node"><title>Node10</title>
<polygon fill="none" stroke="#bfbfbf" points="323,-1 323,-31 423,-31 423,-1 323,-1"/>
<text text-anchor="start" x="331" y="-19" font-family="Helvetica,sans-Serif" font-size="10.00">boost/container/flat</text>
<text text-anchor="middle" x="373" y="-8" font-family="Helvetica,sans-Serif" font-size="10.00">_map.hpp</text>
</g>
<!-- Node9&#45;&gt;Node10 -->
<g id="edge9" class="edge"><title>Node9&#45;&gt;Node10</title>
<path fill="none" stroke="midnightblue" d="M627.056,-68.4886C578.864,-60.4938 505.551,-47.7161 432.931,-32.1212"/>
<polygon fill="midnightblue" stroke="midnightblue" points="433.67,-28.7003 423.156,-30.0038 432.188,-35.5416 433.67,-28.7003"/>
</g>
<!-- Node11 -->
<g id="node11" class="node"><title>Node11</title>
<polygon fill="none" stroke="#bfbfbf" points="441,-1 441,-31 557,-31 557,-1 441,-1"/>
<text text-anchor="start" x="449" y="-19" font-family="Helvetica,sans-Serif" font-size="10.00">boost/container/pmr</text>
<text text-anchor="middle" x="499" y="-8" font-family="Helvetica,sans-Serif" font-size="10.00">/memory_resource.hpp</text>
</g>
<!-- Node9&#45;&gt;Node11 -->
<g id="edge10" class="edge"><title>Node9&#45;&gt;Node11</title>
<path fill="none" stroke="midnightblue" d="M654.067,-68.4035C627.288,-59.5263 584.77,-45.4321 551.023,-34.2453"/>
<polygon fill="midnightblue" stroke="midnightblue" points="551.903,-30.8497 541.31,-31.0253 549.7,-37.4941 551.903,-30.8497"/>
</g>
<!-- Node12 -->
<g id="node12" class="node"><title>Node12</title>
<polygon fill="none" stroke="#bfbfbf" points="575,-1 575,-31 731,-31 731,-1 575,-1"/>
<text text-anchor="start" x="583" y="-19" font-family="Helvetica,sans-Serif" font-size="10.00">boost/container/pmr</text>
<text text-anchor="middle" x="653" y="-8" font-family="Helvetica,sans-Serif" font-size="10.00">/monotonic_buffer_resource.hpp</text>
</g>
<!-- Node9&#45;&gt;Node12 -->
<g id="edge11" class="edge"><title>Node9&#45;&gt;Node12</title>
<path fill="none" stroke="midnightblue" d="M676.132,-68.4035C672.851,-61.1127 667.986,-50.3028 663.564,-40.4748"/>
<polygon fill="midnightblue" stroke="midnightblue" points="666.659,-38.8237 659.363,-31.1408 660.275,-41.6963 666.659,-38.8237"/>
</g>
<!-- Node13 -->
<g id="node13" class="node"><title>Node13</title>
<polygon fill="none" stroke="#bfbfbf" points="749.5,-1 749.5,-31 882.5,-31 882.5,-1 749.5,-1"/>
<text text-anchor="start" x="757.5" y="-19" font-family="Helvetica,sans-Serif" font-size="10.00">boost/container/pmr</text>
<text text-anchor="middle" x="816" y="-8" font-family="Helvetica,sans-Serif" font-size="10.00">/polymorphic_allocator.hpp</text>
</g>
<!-- Node9&#45;&gt;Node13 -->
<g id="edge12" class="edge"><title>Node9&#45;&gt;Node13</title>
<path fill="none" stroke="midnightblue" d="M699.485,-68.4035C719.089,-59.7549 749.916,-46.1545 774.939,-35.1152"/>
<polygon fill="midnightblue" stroke="midnightblue" points="776.473,-38.264 784.209,-31.0253 773.647,-31.8596 776.473,-38.264"/>
</g>
<!-- Node14 -->
<g id="node14" class="node"><title>Node14</title>
<polygon fill="none" stroke="#bfbfbf" points="1002,-6.5 1002,-25.5 1048,-25.5 1048,-6.5 1002,-6.5"/>
<text text-anchor="middle" x="1025" y="-13.5" font-family="Helvetica,sans-Serif" font-size="10.00">cstring</text>
</g>
<!-- Node9&#45;&gt;Node14 -->
<g id="edge13" class="edge"><title>Node9&#45;&gt;Node14</title>
<path fill="none" stroke="midnightblue" d="M756.663,-68.4624C834.412,-59.3528 949.196,-44.5376 992,-32 994.344,-31.3134 996.736,-30.4902 999.107,-29.5876"/>
<polygon fill="midnightblue" stroke="midnightblue" points="1000.72,-32.7037 1008.56,-25.5769 997.991,-26.2594 1000.72,-32.7037"/>
</g>
<!-- Node15 -->
<g id="node15" class="node"><title>Node15</title>
<polygon fill="none" stroke="#bfbfbf" points="1066.5,-6.5 1066.5,-25.5 1107.5,-25.5 1107.5,-6.5 1066.5,-6.5"/>
<text text-anchor="middle" x="1087" y="-13.5" font-family="Helvetica,sans-Serif" font-size="10.00">string</text>
</g>
<!-- Node9&#45;&gt;Node15 -->
<g id="edge14" class="edge"><title>Node9&#45;&gt;Node15</title>
<path fill="none" stroke="midnightblue" d="M764.579,-68.4577C867.124,-57.8584 1029.69,-40.1856 1057,-32 1058.97,-31.4106 1060.96,-30.6992 1062.94,-29.9104"/>
<polygon fill="midnightblue" stroke="midnightblue" points="1064.84,-32.8874 1072.46,-25.5299 1061.92,-26.5275 1064.84,-32.8874"/>
</g>
<!-- Node16 -->
<g id="node16" class="node"><title>Node16</title>
<polygon fill="none" stroke="#bfbfbf" points="1126,-6.5 1126,-25.5 1188,-25.5 1188,-6.5 1126,-6.5"/>
<text text-anchor="middle" x="1157" y="-13.5" font-family="Helvetica,sans-Serif" font-size="10.00">type_traits</text>
</g>
<!-- Node9&#45;&gt;Node16 -->
<g id="edge15" class="edge"><title>Node9&#45;&gt;Node16</title>
<path fill="none" stroke="midnightblue" d="M774.597,-68.491C892.824,-57.6612 1083.65,-39.4643 1116,-32 1119.5,-31.1916 1123.12,-30.1677 1126.68,-29.0359"/>
<polygon fill="midnightblue" stroke="midnightblue" points="1128.14,-32.2324 1136.45,-25.6502 1125.85,-25.6185 1128.14,-32.2324"/>
</g>
<!-- Node9&#45;&gt;Node17 -->
<g id="edge16" class="edge"><title>Node9&#45;&gt;Node17</title>
<path fill="none" stroke="midnightblue" d="M583.242,-68.7195C580.126,-68.4736 577.038,-68.2332 574,-68 340.804,-50.1061 274.226,-95.038 49,-32 47.0349,-31.45 45.049,-30.7581 43.087,-29.975"/>
<polygon fill="midnightblue" stroke="midnightblue" points="44.2204,-26.6396 33.6833,-25.5351 41.2318,-32.9696 44.2204,-26.6396"/>
</g>
<!-- Node18 -->
<g id="node18" class="node"><title>Node18</title>
<polygon fill="none" stroke="#bfbfbf" points="1209,-6.5 1209,-25.5 1253,-25.5 1253,-6.5 1209,-6.5"/>
<text text-anchor="middle" x="1231" y="-13.5" font-family="Helvetica,sans-Serif" font-size="10.00">vector</text>
</g>
<!-- Node9&#45;&gt;Node18 -->
<g id="edge17" class="edge"><title>Node9&#45;&gt;Node18</title>
<path fill="none" stroke="midnightblue" d="M776.793,-68.751C924.814,-56.1096 1190.97,-33.2632 1196,-32 1198.83,-31.2908 1201.71,-30.3813 1204.56,-29.3616"/>
<polygon fill="midnightblue" stroke="midnightblue" points="1205.96,-32.5739 1213.93,-25.6004 1203.35,-26.0778 1205.96,-32.5739"/>
</g>
<!-- Node19 -->
<g id="node19" class="node"><title>Node19</title>
<polygon fill="none" stroke="#bfbfbf" points="900.5,-6.5 900.5,-25.5 983.5,-25.5 983.5,-6.5 900.5,-6.5"/>
<text text-anchor="middle" x="942" y="-13.5" font-family="Helvetica,sans-Serif" font-size="10.00">unordered_map</text>
</g>
<!-- Node9&#45;&gt;Node19 -->
<g id="edge18" class="edge"><title>Node9&#45;&gt;Node19</title>
<path fill="none" stroke="midnightblue" d="M724.684,-68.4941C767.55,-60.0933 833.995,-46.4397 891,-32 895.396,-30.8864 899.984,-29.6476 904.528,-28.3727"/>
<polygon fill="midnightblue" stroke="midnightblue" points="905.67,-31.6862 914.313,-25.5587 903.735,-24.9589 905.67,-31.6862"/>
</g>
<!-- Node20 -->
<g id="node20" class="node"><title>Node20</title>
<polygon fill="none" stroke="#bfbfbf" points="58.5,-6.5 58.5,-25.5 155.5,-25.5 155.5,-6.5 58.5,-6.5"/>
<text text-anchor="middle" x="107" y="-13.5" font-family="Helvetica,sans-Serif" font-size="10.00">FairMQMessage.h</text>
</g>
<!-- Node9&#45;&gt;Node20 -->
<g id="edge19" class="edge"><title>Node9&#45;&gt;Node20</title>
<path fill="none" stroke="midnightblue" d="M583.226,-68.7694C436.654,-56.2741 174.195,-33.7727 164,-32 157.994,-30.9556 151.696,-29.5849 145.567,-28.0964"/>
<polygon fill="midnightblue" stroke="midnightblue" points="146.051,-24.6073 135.495,-25.5168 144.314,-31.3884 146.051,-24.6073"/>
</g>
<!-- Node21 -->
<g id="node21" class="node"><title>Node21</title>
<polygon fill="none" stroke="#bfbfbf" points="173.5,-6.5 173.5,-25.5 304.5,-25.5 304.5,-6.5 173.5,-6.5"/>
<text text-anchor="middle" x="239" y="-13.5" font-family="Helvetica,sans-Serif" font-size="10.00">FairMQTransportFactory.h</text>
</g>
<!-- Node9&#45;&gt;Node21 -->
<g id="edge20" class="edge"><title>Node9&#45;&gt;Node21</title>
<path fill="none" stroke="midnightblue" d="M595.798,-68.4629C521.451,-60.4929 410.228,-47.516 314,-32 305.892,-30.6926 297.323,-29.1413 288.991,-27.5404"/>
<polygon fill="midnightblue" stroke="midnightblue" points="289.477,-24.0691 278.99,-25.5759 288.128,-30.9379 289.477,-24.0691"/>
</g>
<!-- Node22&#45;&gt;Node9 -->
<g id="edge29" class="edge"><title>Node22&#45;&gt;Node9</title>
<path fill="none" stroke="midnightblue" d="M844.943,-124.444C811.397,-115.201 757.803,-100.436 720.859,-90.2572"/>
<polygon fill="midnightblue" stroke="midnightblue" points="721.482,-86.7984 710.911,-87.5164 719.623,-93.5469 721.482,-86.7984"/>
</g>
<!-- Node22&#45;&gt;Node14 -->
<g id="edge25" class="edge"><title>Node22&#45;&gt;Node14</title>
<path fill="none" stroke="midnightblue" d="M877.416,-124.223C880.067,-110.48 887.027,-83.8243 903,-68 933.312,-37.9695 952.791,-48.832 992,-32 993.63,-31.3002 995.301,-30.5727 996.985,-29.832"/>
<polygon fill="midnightblue" stroke="midnightblue" points="998.862,-32.8266 1006.56,-25.5476 996.003,-26.437 998.862,-32.8266"/>
</g>
<!-- Node22&#45;&gt;Node15 -->
<g id="edge28" class="edge"><title>Node22&#45;&gt;Node15</title>
<path fill="none" stroke="midnightblue" d="M881.567,-124.467C891.069,-110.575 911.757,-83.1074 936,-68 983.618,-38.326 1004.82,-52.6244 1057,-32 1058.6,-31.3672 1060.23,-30.6805 1061.87,-29.9609"/>
<polygon fill="midnightblue" stroke="midnightblue" points="1063.5,-33.0608 1071.04,-25.6236 1060.51,-26.7319 1063.5,-33.0608"/>
</g>
<!-- Node23 -->
<g id="node23" class="node"><title>Node23</title>
<polygon fill="none" stroke="#bfbfbf" points="945,-68.5 945,-87.5 991,-87.5 991,-68.5 945,-68.5"/>
<text text-anchor="middle" x="968" y="-75.5" font-family="Helvetica,sans-Serif" font-size="10.00">cstdint</text>
</g>
<!-- Node22&#45;&gt;Node23 -->
<g id="edge22" class="edge"><title>Node22&#45;&gt;Node23</title>
<path fill="none" stroke="midnightblue" d="M890.781,-124.324C905.267,-115.822 927.573,-102.729 944.493,-92.7975"/>
<polygon fill="midnightblue" stroke="midnightblue" points="946.403,-95.735 953.255,-87.6545 942.859,-89.6981 946.403,-95.735"/>
</g>
<!-- Node24 -->
<g id="node24" class="node"><title>Node24</title>
<polygon fill="none" stroke="#bfbfbf" points="1009,-68.5 1009,-87.5 1061,-87.5 1061,-68.5 1009,-68.5"/>
<text text-anchor="middle" x="1035" y="-75.5" font-family="Helvetica,sans-Serif" font-size="10.00">memory</text>
</g>
<!-- Node22&#45;&gt;Node24 -->
<g id="edge23" class="edge"><title>Node22&#45;&gt;Node24</title>
<path fill="none" stroke="midnightblue" d="M901.194,-124.444C927.943,-115.359 970.403,-100.939 1000.31,-90.7831"/>
<polygon fill="midnightblue" stroke="midnightblue" points="1001.58,-94.0464 1009.92,-87.5164 999.329,-87.4182 1001.58,-94.0464"/>
</g>
<!-- Node25 -->
<g id="node25" class="node"><title>Node25</title>
<polygon fill="none" stroke="#bfbfbf" points="1079.5,-68.5 1079.5,-87.5 1128.5,-87.5 1128.5,-68.5 1079.5,-68.5"/>
<text text-anchor="middle" x="1104" y="-75.5" font-family="Helvetica,sans-Serif" font-size="10.00">cassert</text>
</g>
<!-- Node22&#45;&gt;Node25 -->
<g id="edge24" class="edge"><title>Node22&#45;&gt;Node25</title>
<path fill="none" stroke="midnightblue" d="M914.365,-124.468C951.495,-116.129 1009.61,-102.863 1069.18,-88.146"/>
<polygon fill="midnightblue" stroke="midnightblue" points="1070.28,-91.4801 1079.14,-85.6751 1068.59,-84.686 1070.28,-91.4801"/>
</g>
<!-- Node26 -->
<g id="node26" class="node"><title>Node26</title>
<polygon fill="none" stroke="#bfbfbf" points="795,-68.5 795,-87.5 851,-87.5 851,-68.5 795,-68.5"/>
<text text-anchor="middle" x="823" y="-75.5" font-family="Helvetica,sans-Serif" font-size="10.00">algorithm</text>
</g>
<!-- Node22&#45;&gt;Node26 -->
<g id="edge26" class="edge"><title>Node22&#45;&gt;Node26</title>
<path fill="none" stroke="midnightblue" d="M867.248,-124.083C859.53,-116.22 848.095,-104.569 838.783,-95.0813"/>
<polygon fill="midnightblue" stroke="midnightblue" points="841.092,-92.4363 831.589,-87.7511 836.096,-97.3396 841.092,-92.4363"/>
</g>
<!-- Node22&#45;&gt;Node27 -->
<g id="edge27" class="edge"><title>Node22&#45;&gt;Node27</title>
<path fill="none" stroke="midnightblue" d="M817.473,-124.881C747.587,-115.087 633.756,-98.7984 575.94,-88.2202"/>
<polygon fill="midnightblue" stroke="midnightblue" points="576.294,-84.7255 565.819,-86.3143 574.999,-91.6046 576.294,-84.7255"/>
</g>
<!-- Node31 -->
<g id="node31" class="node"><title>Node31</title>
<polygon fill="none" stroke="#bfbfbf" points="1050,-180.5 1050,-199.5 1130,-199.5 1130,-180.5 1050,-180.5"/>
<text text-anchor="middle" x="1090" y="-187.5" font-family="Helvetica,sans-Serif" font-size="10.00">FairMQParts.h</text>
</g>
<!-- Node30&#45;&gt;Node31 -->
<g id="edge35" class="edge"><title>Node30&#45;&gt;Node31</title>
<path fill="none" stroke="midnightblue" d="M1039.64,-236.324C1048.51,-228.341 1061.87,-216.313 1072.61,-206.653"/>
<polygon fill="midnightblue" stroke="midnightblue" points="1075.09,-209.125 1080.18,-199.834 1070.41,-203.922 1075.09,-209.125"/>
</g>
<!-- Node32 -->
<g id="node32" class="node"><title>Node32</title>
<polygon fill="none" stroke="#bfbfbf" points="1148.5,-180.5 1148.5,-199.5 1207.5,-199.5 1207.5,-180.5 1148.5,-180.5"/>
<text text-anchor="middle" x="1178" y="-187.5" font-family="Helvetica,sans-Serif" font-size="10.00">TObject.h</text>
</g>
<!-- Node30&#45;&gt;Node32 -->
<g id="edge36" class="edge"><title>Node30&#45;&gt;Node32</title>
<path fill="none" stroke="midnightblue" d="M1053.45,-236.444C1078.13,-227.438 1117.19,-213.189 1144.98,-203.049"/>
<polygon fill="midnightblue" stroke="midnightblue" points="1146.46,-206.232 1154.66,-199.516 1144.06,-199.656 1146.46,-206.232"/>
</g>
<!-- Node33 -->
<g id="node33" class="node"><title>Node33</title>
<g id="a_node33"><a xlink:href="../../d6/d90/Headers_2include_2Headers_2TimeStamp_8h.html" target="_top" xlink:title="Headers/TimeStamp.h">
<polygon fill="none" stroke="black" points="916.5,-180.5 916.5,-199.5 1031.5,-199.5 1031.5,-180.5 916.5,-180.5"/>
<text text-anchor="middle" x="974" y="-187.5" font-family="Helvetica,sans-Serif" font-size="10.00">Headers/TimeStamp.h</text>
</a>
</g>
</g>
<!-- Node30&#45;&gt;Node33 -->
<g id="edge37" class="edge"><title>Node30&#45;&gt;Node33</title>
<path fill="none" stroke="midnightblue" d="M1021,-236.324C1012.81,-228.42 1000.49,-216.548 990.528,-206.938"/>
<polygon fill="midnightblue" stroke="midnightblue" points="992.789,-204.256 983.161,-199.834 987.93,-209.295 992.789,-204.256"/>
</g>
<!-- Node33&#45;&gt;Node3 -->
<g id="edge39" class="edge"><title>Node33&#45;&gt;Node3</title>
<path fill="none" stroke="midnightblue" d="M974.33,-180.083C974.592,-173.006 974.968,-162.861 975.297,-153.986"/>
<polygon fill="midnightblue" stroke="midnightblue" points="978.803,-153.874 975.676,-143.751 971.808,-153.615 978.803,-153.874"/>
</g>
<!-- Node33&#45;&gt;Node16 -->
<g id="edge41" class="edge"><title>Node33&#45;&gt;Node16</title>
<path fill="none" stroke="midnightblue" d="M999.251,-180.395C1035.49,-166.71 1101.76,-136.466 1137,-88 1148.16,-72.6481 1153.1,-51.2726 1155.29,-35.9949"/>
<polygon fill="midnightblue" stroke="midnightblue" points="1158.8,-36.0366 1156.47,-25.7012 1151.85,-35.2339 1158.8,-36.0366"/>
</g>
<!-- Node33&#45;&gt;Node22 -->
<g id="edge38" class="edge"><title>Node33&#45;&gt;Node22</title>
<path fill="none" stroke="midnightblue" d="M958.255,-180.324C942.681,-171.743 918.623,-158.486 900.541,-148.522"/>
<polygon fill="midnightblue" stroke="midnightblue" points="902.154,-145.415 891.706,-143.655 898.776,-151.546 902.154,-145.415"/>
</g>
<!-- Node33&#45;&gt;Node25 -->
<g id="edge40" class="edge"><title>Node33&#45;&gt;Node25</title>
<path fill="none" stroke="midnightblue" d="M984.201,-180.368C1006.22,-161.733 1058.46,-117.532 1086.11,-94.1338"/>
<polygon fill="midnightblue" stroke="midnightblue" points="1088.47,-96.7227 1093.85,-87.5914 1083.95,-91.379 1088.47,-96.7227"/>
</g>
<!-- Node34&#45;&gt;Node18 -->
<g id="edge43" class="edge"><title>Node34&#45;&gt;Node18</title>
<path fill="none" stroke="midnightblue" d="M1211.28,-236.389C1212.59,-227.343 1214.63,-212.695 1216,-200 1222.44,-140.178 1227.54,-69.0902 1229.77,-35.8679"/>
<polygon fill="midnightblue" stroke="midnightblue" points="1233.27,-35.9861 1230.44,-25.7765 1226.29,-35.5232 1233.27,-35.9861"/>
</g>
</g>
</svg>
