<?xml version="1.0" encoding="UTF-8" standalone="no"?>
<!DOCTYPE svg PUBLIC "-//W3C//DTD SVG 1.1//EN"
 "http://www.w3.org/Graphics/SVG/1.1/DTD/svg11.dtd">
<!-- Generated by graphviz version 2.36.0 (20140111.2315)
 -->
<!-- Title: /home/travis/build/AliceO2Group/AliceO2/Utilities/DataFlow/src/runSubframeBuilderDevice.cxx Pages: 1 -->
<!--zoomable 422 -->
<svg id="main" version="1.1" xmlns="http://www.w3.org/2000/svg" xmlns:xlink="http://www.w3.org/1999/xlink" xml:space="preserve" onload="init(evt)">
<style type="text/css"><![CDATA[
.edge:hover path { stroke: red; }
.edge:hover polygon { stroke: red; fill: red; }
]]></style>
<script type="text/javascript"><![CDATA[
var edges = document.getElementsByTagName('g');
if (edges && edges.length) {
  for (var i=0;i<edges.length;i++) {
    if (edges[i].id.substr(0,4)=='edge') {
      edges[i].setAttribute('class','edge');
    }
  }
}
]]></script>
        <defs>
                <circle id="rim" cx="0" cy="0" r="7"/>
                <circle id="rim2" cx="0" cy="0" r="3.5"/>
                <g id="zoomPlus">
                        <use xlink:href="#rim" fill="#404040">
                                <set attributeName="fill" to="#808080" begin="zoomplus.mouseover" end="zoomplus.mouseout"/>
                        </use>
                        <path d="M-4,0h8M0,-4v8" fill="none" stroke="white" stroke-width="1.5" pointer-events="none"/>
                </g>
                <g id="zoomMin">
                        <use xlink:href="#rim" fill="#404040">
                                <set attributeName="fill" to="#808080" begin="zoomminus.mouseover" end="zoomminus.mouseout"/>
                        </use>
                        <path d="M-4,0h8" fill="none" stroke="white" stroke-width="1.5" pointer-events="none"/>
                </g>
                <g id="dirArrow">
                        <path fill="none" stroke="white" stroke-width="1.5" d="M0,-3.0v7 M-2.5,-0.5L0,-3.0L2.5,-0.5"/>
                </g>
               <g id="resetDef">
                       <use xlink:href="#rim2" fill="#404040">
                               <set attributeName="fill" to="#808080" begin="reset.mouseover" end="reset.mouseout"/>
                       </use>
               </g>
        </defs>

<script type="text/javascript">
var viewWidth = 1602;
var viewHeight = 422;
var sectionId = 'dynsection-0';
</script>
<script xlink:href="../../svgpan.js"/>
<svg id="graph" class="graph">
<g id="viewport">
<title>/home/travis/build/AliceO2Group/AliceO2/Utilities/DataFlow/src/runSubframeBuilderDevice.cxx</title>
<!-- Node1 -->
<g id="node1" class="node"><title>Node1</title>
<polygon fill="#bfbfbf" stroke="black" points="1006.5,-361 1006.5,-413 1161.5,-413 1161.5,-361 1006.5,-361"/>
<text text-anchor="start" x="1014.5" y="-401" font-family="Helvetica,sans-Serif" font-size="10.00">/home/travis/build</text>
<text text-anchor="start" x="1014.5" y="-390" font-family="Helvetica,sans-Serif" font-size="10.00">/AliceO2Group/AliceO2</text>
<text text-anchor="start" x="1014.5" y="-379" font-family="Helvetica,sans-Serif" font-size="10.00">/Utilities/DataFlow/src</text>
<text text-anchor="middle" x="1084" y="-368" font-family="Helvetica,sans-Serif" font-size="10.00">/runSubframeBuilderDevice.cxx</text>
</g>
<!-- Node2 -->
<g id="node2" class="node"><title>Node2</title>
<polygon fill="none" stroke="#bfbfbf" points="965.5,-298.5 965.5,-317.5 1066.5,-317.5 1066.5,-298.5 965.5,-298.5"/>
<text text-anchor="middle" x="1016" y="-305.5" font-family="Helvetica,sans-Serif" font-size="10.00">runFairMQDevice.h</text>
</g>
<!-- Node1&#45;&gt;Node2 -->
<g id="edge1" class="edge"><title>Node1&#45;&gt;Node2</title>
<path fill="none" stroke="midnightblue" d="M1061.73,-360.787C1051.45,-349.137 1039.52,-335.636 1030.43,-325.341"/>
<polygon fill="midnightblue" stroke="midnightblue" points="1032.8,-322.736 1023.56,-317.558 1027.55,-327.37 1032.8,-322.736"/>
</g>
<!-- Node3 -->
<g id="node3" class="node"><title>Node3</title>
<g id="a_node3"><a xlink:href="../../d0/d82/SubframeBuilderDevice_8h.html" target="_top" xlink:title="Demonstrator device for a subframe builder. ">
<polygon fill="none" stroke="black" points="1085,-293 1085,-323 1219,-323 1219,-293 1085,-293"/>
<text text-anchor="start" x="1093" y="-311" font-family="Helvetica,sans-Serif" font-size="10.00">DataFlow/SubframeBuilder</text>
<text text-anchor="middle" x="1152" y="-300" font-family="Helvetica,sans-Serif" font-size="10.00">Device.h</text>
</a>
</g>
</g>
<!-- Node1&#45;&gt;Node3 -->
<g id="edge2" class="edge"><title>Node1&#45;&gt;Node3</title>
<path fill="none" stroke="midnightblue" d="M1106.27,-360.787C1114.77,-351.153 1124.4,-340.254 1132.62,-330.948"/>
<polygon fill="midnightblue" stroke="midnightblue" points="1135.42,-333.064 1139.41,-323.252 1130.17,-328.431 1135.42,-333.064"/>
</g>
<!-- Node4 -->
<g id="node4" class="node"><title>Node4</title>
<g id="a_node4"><a xlink:href="../../dc/dcd/DataHeader_8h.html" target="_top" xlink:title="Headers/DataHeader.h">
<polygon fill="none" stroke="black" points="922.5,-124.5 922.5,-143.5 1039.5,-143.5 1039.5,-124.5 922.5,-124.5"/>
<text text-anchor="middle" x="981" y="-131.5" font-family="Helvetica,sans-Serif" font-size="10.00">Headers/DataHeader.h</text>
</a>
</g>
</g>
<!-- Node3&#45;&gt;Node4 -->
<g id="edge3" class="edge"><title>Node3&#45;&gt;Node4</title>
<path fill="none" stroke="midnightblue" d="M1137.36,-292.781C1126.9,-282.589 1112.53,-268.509 1100,-256 1062.51,-218.566 1018.98,-174.027 996.39,-150.829"/>
<polygon fill="midnightblue" stroke="midnightblue" points="998.798,-148.286 989.315,-143.561 993.782,-153.168 998.798,-148.286"/>
</g>
<!-- Node8 -->
<g id="node8" class="node"><title>Node8</title>
<polygon fill="none" stroke="#bfbfbf" points="1142,-6.5 1142,-25.5 1188,-25.5 1188,-6.5 1142,-6.5"/>
<text text-anchor="middle" x="1165" y="-13.5" font-family="Helvetica,sans-Serif" font-size="10.00">cstring</text>
</g>
<!-- Node3&#45;&gt;Node8 -->
<g id="edge50" class="edge"><title>Node3&#45;&gt;Node8</title>
<path fill="none" stroke="midnightblue" d="M1151.42,-292.852C1150.92,-278.52 1150.37,-255.714 1151,-236 1153.37,-161.805 1160.24,-73.6874 1163.39,-35.8204"/>
<polygon fill="midnightblue" stroke="midnightblue" points="1166.89,-36.0115 1164.24,-25.7529 1159.91,-35.4236 1166.89,-36.0115"/>
</g>
<!-- Node23 -->
<g id="node23" class="node"><title>Node23</title>
<g id="a_node23"><a xlink:href="../../d2/d09/HeartbeatFrame_8h.html" target="_top" xlink:title="Headers/HeartbeatFrame.h">
<polygon fill="none" stroke="black" points="1180.5,-180.5 1180.5,-199.5 1315.5,-199.5 1315.5,-180.5 1180.5,-180.5"/>
<text text-anchor="middle" x="1248" y="-187.5" font-family="Helvetica,sans-Serif" font-size="10.00">Headers/HeartbeatFrame.h</text>
</a>
</g>
</g>
<!-- Node3&#45;&gt;Node23 -->
<g id="edge24" class="edge"><title>Node3&#45;&gt;Node23</title>
<path fill="none" stroke="midnightblue" d="M1163.77,-292.776C1181.62,-271.211 1215.44,-230.341 1234.34,-207.5"/>
<polygon fill="midnightblue" stroke="midnightblue" points="1237.11,-209.642 1240.79,-199.707 1231.72,-205.179 1237.11,-209.642"/>
</g>
<!-- Node25 -->
<g id="node25" class="node"><title>Node25</title>
<polygon fill="none" stroke="#bfbfbf" points="1183.5,-124.5 1183.5,-143.5 1218.5,-143.5 1218.5,-124.5 1183.5,-124.5"/>
<text text-anchor="middle" x="1201" y="-131.5" font-family="Helvetica,sans-Serif" font-size="10.00">map</text>
</g>
<!-- Node3&#45;&gt;Node25 -->
<g id="edge51" class="edge"><title>Node3&#45;&gt;Node25</title>
<path fill="none" stroke="midnightblue" d="M1152.13,-292.772C1152.77,-268.732 1155.99,-218.895 1171,-180 1174.88,-169.944 1181.31,-159.858 1187.23,-151.791"/>
<polygon fill="midnightblue" stroke="midnightblue" points="1190.18,-153.701 1193.52,-143.65 1184.64,-149.419 1190.18,-153.701"/>
</g>
<!-- Node26 -->
<g id="node26" class="node"><title>Node26</title>
<g id="a_node26"><a xlink:href="../../d2/dee/O2Device_8h.html" target="_top" xlink:title="O2Device/O2Device.h">
<polygon fill="none" stroke="black" points="552.5,-236.5 552.5,-255.5 667.5,-255.5 667.5,-236.5 552.5,-236.5"/>
<text text-anchor="middle" x="610" y="-243.5" font-family="Helvetica,sans-Serif" font-size="10.00">O2Device/O2Device.h</text>
</a>
</g>
</g>
<!-- Node3&#45;&gt;Node26 -->
<g id="edge29" class="edge"><title>Node3&#45;&gt;Node26</title>
<path fill="none" stroke="midnightblue" d="M1084.87,-293.53C1081.54,-292.985 1078.23,-292.47 1075,-292 934.538,-271.57 768.811,-258.043 678.005,-251.528"/>
<polygon fill="midnightblue" stroke="midnightblue" points="678.069,-248.024 667.846,-250.806 677.573,-255.006 678.069,-248.024"/>
</g>
<!-- Node32 -->
<g id="node32" class="node"><title>Node32</title>
<g id="a_node32"><a xlink:href="../../d3/d95/PayloadMerger_8h.html" target="_top" xlink:title="DataFlow/PayloadMerger.h">
<polygon fill="none" stroke="black" points="1333.5,-180.5 1333.5,-199.5 1468.5,-199.5 1468.5,-180.5 1333.5,-180.5"/>
<text text-anchor="middle" x="1401" y="-187.5" font-family="Helvetica,sans-Serif" font-size="10.00">DataFlow/PayloadMerger.h</text>
</a>
</g>
</g>
<!-- Node3&#45;&gt;Node32 -->
<g id="edge39" class="edge"><title>Node3&#45;&gt;Node32</title>
<path fill="none" stroke="midnightblue" d="M1182.53,-292.776C1231.39,-270.014 1326.41,-225.747 1373.37,-203.871"/>
<polygon fill="midnightblue" stroke="midnightblue" points="1375.04,-206.955 1382.63,-199.559 1372.08,-200.609 1375.04,-206.955"/>
</g>
<!-- Node34 -->
<g id="node34" class="node"><title>Node34</title>
<g id="a_node34"><a xlink:href="../../d2/de2/SubframeUtils_8h.html" target="_top" xlink:title="DataFlow/SubframeUtils.h">
<polygon fill="none" stroke="black" points="1417,-236.5 1417,-255.5 1549,-255.5 1549,-236.5 1417,-236.5"/>
<text text-anchor="middle" x="1483" y="-243.5" font-family="Helvetica,sans-Serif" font-size="10.00">DataFlow/SubframeUtils.h</text>
</a>
</g>
</g>
<!-- Node3&#45;&gt;Node34 -->
<g id="edge46" class="edge"><title>Node3&#45;&gt;Node34</title>
<path fill="none" stroke="midnightblue" d="M1219.38,-294.786C1280.19,-283.764 1368.65,-267.728 1426.01,-257.33"/>
<polygon fill="midnightblue" stroke="midnightblue" points="1426.78,-260.748 1436,-255.521 1425.53,-253.86 1426.78,-260.748"/>
</g>
<!-- Node5 -->
<g id="node5" class="node"><title>Node5</title>
<polygon fill="none" stroke="#bfbfbf" points="1173,-68.5 1173,-87.5 1219,-87.5 1219,-68.5 1173,-68.5"/>
<text text-anchor="middle" x="1196" y="-75.5" font-family="Helvetica,sans-Serif" font-size="10.00">cstdint</text>
</g>
<!-- Node4&#45;&gt;Node5 -->
<g id="edge4" class="edge"><title>Node4&#45;&gt;Node5</title>
<path fill="none" stroke="midnightblue" d="M1015.07,-124.444C1055.7,-114.239 1123.13,-97.3018 1163.2,-87.2393"/>
<polygon fill="midnightblue" stroke="midnightblue" points="1164.15,-90.6074 1173,-84.7767 1162.45,-83.8182 1164.15,-90.6074"/>
</g>
<!-- Node6 -->
<g id="node6" class="node"><title>Node6</title>
<polygon fill="none" stroke="#bfbfbf" points="1027,-68.5 1027,-87.5 1079,-87.5 1079,-68.5 1027,-68.5"/>
<text text-anchor="middle" x="1053" y="-75.5" font-family="Helvetica,sans-Serif" font-size="10.00">memory</text>
</g>
<!-- Node4&#45;&gt;Node6 -->
<g id="edge5" class="edge"><title>Node4&#45;&gt;Node6</title>
<path fill="none" stroke="midnightblue" d="M992.568,-124.324C1003.42,-116.185 1019.88,-103.839 1032.88,-94.0874"/>
<polygon fill="midnightblue" stroke="midnightblue" points="1035.32,-96.6339 1041.22,-87.8339 1031.12,-91.0339 1035.32,-96.6339"/>
</g>
<!-- Node7 -->
<g id="node7" class="node"><title>Node7</title>
<polygon fill="none" stroke="#bfbfbf" points="847.5,-68.5 847.5,-87.5 896.5,-87.5 896.5,-68.5 847.5,-68.5"/>
<text text-anchor="middle" x="872" y="-75.5" font-family="Helvetica,sans-Serif" font-size="10.00">cassert</text>
</g>
<!-- Node4&#45;&gt;Node7 -->
<g id="edge6" class="edge"><title>Node4&#45;&gt;Node7</title>
<path fill="none" stroke="midnightblue" d="M963.487,-124.324C945.928,-115.625 918.669,-102.12 898.469,-92.113"/>
<polygon fill="midnightblue" stroke="midnightblue" points="899.984,-88.9575 889.469,-87.6545 896.876,-95.23 899.984,-88.9575"/>
</g>
<!-- Node4&#45;&gt;Node8 -->
<g id="edge7" class="edge"><title>Node4&#45;&gt;Node8</title>
<path fill="none" stroke="midnightblue" d="M1008.22,-124.499C1030.64,-116.821 1062.74,-104.241 1088,-88 1112,-72.5647 1135.51,-49.3714 1150.12,-33.7328"/>
<polygon fill="midnightblue" stroke="midnightblue" points="1153.09,-35.6617 1157.26,-25.9191 1147.93,-30.9389 1153.09,-35.6617"/>
</g>
<!-- Node9 -->
<g id="node9" class="node"><title>Node9</title>
<polygon fill="none" stroke="#bfbfbf" points="953,-68.5 953,-87.5 1009,-87.5 1009,-68.5 953,-68.5"/>
<text text-anchor="middle" x="981" y="-75.5" font-family="Helvetica,sans-Serif" font-size="10.00">algorithm</text>
</g>
<!-- Node4&#45;&gt;Node9 -->
<g id="edge8" class="edge"><title>Node4&#45;&gt;Node9</title>
<path fill="none" stroke="midnightblue" d="M981,-124.083C981,-117.006 981,-106.861 981,-97.9865"/>
<polygon fill="midnightblue" stroke="midnightblue" points="984.5,-97.751 981,-87.7511 977.5,-97.7511 984.5,-97.751"/>
</g>
<!-- Node10 -->
<g id="node10" class="node"><title>Node10</title>
<polygon fill="none" stroke="#bfbfbf" points="520.5,-68.5 520.5,-87.5 579.5,-87.5 579.5,-68.5 520.5,-68.5"/>
<text text-anchor="middle" x="550" y="-75.5" font-family="Helvetica,sans-Serif" font-size="10.00">stdexcept</text>
</g>
<!-- Node4&#45;&gt;Node10 -->
<g id="edge9" class="edge"><title>Node4&#45;&gt;Node10</title>
<path fill="none" stroke="midnightblue" d="M922.425,-125.661C833.286,-114.493 665.912,-93.5226 589.66,-83.969"/>
<polygon fill="midnightblue" stroke="midnightblue" points="589.881,-80.4694 579.523,-82.699 589.011,-87.4151 589.881,-80.4694"/>
</g>
<!-- Node11 -->
<g id="node11" class="node"><title>Node11</title>
<polygon fill="none" stroke="#bfbfbf" points="1082.5,-6.5 1082.5,-25.5 1123.5,-25.5 1123.5,-6.5 1082.5,-6.5"/>
<text text-anchor="middle" x="1103" y="-13.5" font-family="Helvetica,sans-Serif" font-size="10.00">string</text>
</g>
<!-- Node4&#45;&gt;Node11 -->
<g id="edge10" class="edge"><title>Node4&#45;&gt;Node11</title>
<path fill="none" stroke="midnightblue" d="M969.679,-124.356C954.18,-111.47 929.808,-86.734 944,-68 979.685,-20.8944 1016.74,-52.9515 1072,-32 1073.65,-31.3734 1075.34,-30.6914 1077.02,-29.9753"/>
<polygon fill="midnightblue" stroke="midnightblue" points="1078.86,-32.9838 1086.51,-25.6473 1075.95,-26.6159 1078.86,-32.9838"/>
</g>
<!-- Node12 -->
<g id="node12" class="node"><title>Node12</title>
<g id="a_node12"><a xlink:href="../../dc/d03/MemoryResources_8h.html" target="_top" xlink:title="MemoryResources/MemoryResources.h">
<polygon fill="none" stroke="black" points="636.5,-68.5 636.5,-87.5 829.5,-87.5 829.5,-68.5 636.5,-68.5"/>
<text text-anchor="middle" x="733" y="-75.5" font-family="Helvetica,sans-Serif" font-size="10.00">MemoryResources/MemoryResources.h</text>
</a>
</g>
</g>
<!-- Node4&#45;&gt;Node12 -->
<g id="edge11" class="edge"><title>Node4&#45;&gt;Node12</title>
<path fill="none" stroke="midnightblue" d="M941.704,-124.444C898.441,-115.023 828.827,-99.8656 782.027,-89.6752"/>
<polygon fill="midnightblue" stroke="midnightblue" points="782.628,-86.2242 772.112,-87.5164 781.139,-93.0639 782.628,-86.2242"/>
</g>
<!-- Node12&#45;&gt;Node8 -->
<g id="edge16" class="edge"><title>Node12&#45;&gt;Node8</title>
<path fill="none" stroke="midnightblue" d="M821.526,-68.4997C929.945,-57.8578 1102.85,-40.0496 1132,-32 1134.49,-31.311 1137.04,-30.4563 1139.55,-29.5068"/>
<polygon fill="midnightblue" stroke="midnightblue" points="1141.09,-32.6556 1148.93,-25.526 1138.36,-26.2122 1141.09,-32.6556"/>
</g>
<!-- Node12&#45;&gt;Node11 -->
<g id="edge17" class="edge"><title>Node12&#45;&gt;Node11</title>
<path fill="none" stroke="midnightblue" d="M821.464,-68.4759C905.835,-59.765 1026.58,-45.6203 1072,-32 1074.14,-31.3582 1076.32,-30.5841 1078.47,-29.7299"/>
<polygon fill="midnightblue" stroke="midnightblue" points="1079.92,-32.9155 1087.62,-25.6355 1077.06,-26.5263 1079.92,-32.9155"/>
</g>
<!-- Node13 -->
<g id="node13" class="node"><title>Node13</title>
<polygon fill="none" stroke="#bfbfbf" points="424,-1 424,-31 524,-31 524,-1 424,-1"/>
<text text-anchor="start" x="432" y="-19" font-family="Helvetica,sans-Serif" font-size="10.00">boost/container/flat</text>
<text text-anchor="middle" x="474" y="-8" font-family="Helvetica,sans-Serif" font-size="10.00">_map.hpp</text>
</g>
<!-- Node12&#45;&gt;Node13 -->
<g id="edge12" class="edge"><title>Node12&#45;&gt;Node13</title>
<path fill="none" stroke="midnightblue" d="M693.459,-68.4413C655.111,-60.0654 595.04,-46.7474 533.992,-32.2043"/>
<polygon fill="midnightblue" stroke="midnightblue" points="534.728,-28.7819 524.189,-29.8603 533.101,-35.5899 534.728,-28.7819"/>
</g>
<!-- Node14 -->
<g id="node14" class="node"><title>Node14</title>
<polygon fill="none" stroke="#bfbfbf" points="542,-1 542,-31 658,-31 658,-1 542,-1"/>
<text text-anchor="start" x="550" y="-19" font-family="Helvetica,sans-Serif" font-size="10.00">boost/container/pmr</text>
<text text-anchor="middle" x="600" y="-8" font-family="Helvetica,sans-Serif" font-size="10.00">/memory_resource.hpp</text>
</g>
<!-- Node12&#45;&gt;Node14 -->
<g id="edge13" class="edge"><title>Node12&#45;&gt;Node14</title>
<path fill="none" stroke="midnightblue" d="M713.944,-68.4035C694.858,-59.793 664.891,-46.2742 640.479,-35.2612"/>
<polygon fill="midnightblue" stroke="midnightblue" points="641.644,-31.9472 631.089,-31.0253 638.766,-38.3279 641.644,-31.9472"/>
</g>
<!-- Node15 -->
<g id="node15" class="node"><title>Node15</title>
<polygon fill="none" stroke="#bfbfbf" points="676,-1 676,-31 832,-31 832,-1 676,-1"/>
<text text-anchor="start" x="684" y="-19" font-family="Helvetica,sans-Serif" font-size="10.00">boost/container/pmr</text>
<text text-anchor="middle" x="754" y="-8" font-family="Helvetica,sans-Serif" font-size="10.00">/monotonic_buffer_resource.hpp</text>
</g>
<!-- Node12&#45;&gt;Node15 -->
<g id="edge14" class="edge"><title>Node12&#45;&gt;Node15</title>
<path fill="none" stroke="midnightblue" d="M736.009,-68.4035C738.534,-61.1886 742.265,-50.5277 745.676,-40.7823"/>
<polygon fill="midnightblue" stroke="midnightblue" points="749.051,-41.7357 749.051,-31.1408 742.444,-39.4232 749.051,-41.7357"/>
</g>
<!-- Node16 -->
<g id="node16" class="node"><title>Node16</title>
<polygon fill="none" stroke="#bfbfbf" points="850.5,-1 850.5,-31 983.5,-31 983.5,-1 850.5,-1"/>
<text text-anchor="start" x="858.5" y="-19" font-family="Helvetica,sans-Serif" font-size="10.00">boost/container/pmr</text>
<text text-anchor="middle" x="917" y="-8" font-family="Helvetica,sans-Serif" font-size="10.00">/polymorphic_allocator.hpp</text>
</g>
<!-- Node12&#45;&gt;Node16 -->
<g id="edge15" class="edge"><title>Node12&#45;&gt;Node16</title>
<path fill="none" stroke="midnightblue" d="M759.363,-68.4035C786.586,-59.5263 829.808,-45.4321 864.114,-34.2453"/>
<polygon fill="midnightblue" stroke="midnightblue" points="865.567,-37.4531 873.989,-31.0253 863.397,-30.798 865.567,-37.4531"/>
</g>
<!-- Node17 -->
<g id="node17" class="node"><title>Node17</title>
<polygon fill="none" stroke="#bfbfbf" points="1002,-6.5 1002,-25.5 1064,-25.5 1064,-6.5 1002,-6.5"/>
<text text-anchor="middle" x="1033" y="-13.5" font-family="Helvetica,sans-Serif" font-size="10.00">type_traits</text>
</g>
<!-- Node12&#45;&gt;Node17 -->
<g id="edge18" class="edge"><title>Node12&#45;&gt;Node17</title>
<path fill="none" stroke="midnightblue" d="M801.615,-68.4869C854.242,-61.1403 928.402,-49.0123 992,-32 995.398,-31.0911 998.911,-30.0188 1002.39,-28.8722"/>
<polygon fill="midnightblue" stroke="midnightblue" points="1003.67,-32.1299 1011.95,-25.5182 1001.36,-25.5243 1003.67,-32.1299"/>
</g>
<!-- Node18 -->
<g id="node18" class="node"><title>Node18</title>
<polygon fill="none" stroke="#bfbfbf" points="0,-6.5 0,-25.5 40,-25.5 40,-6.5 0,-6.5"/>
<text text-anchor="middle" x="20" y="-13.5" font-family="Helvetica,sans-Serif" font-size="10.00">utility</text>
</g>
<!-- Node12&#45;&gt;Node18 -->
<g id="edge19" class="edge"><title>Node12&#45;&gt;Node18</title>
<path fill="none" stroke="midnightblue" d="M636.446,-69.0655C631.562,-68.6972 626.725,-68.3399 622,-68 494.745,-58.8442 171.961,-66.0363 49,-32 47.0334,-31.4556 45.0463,-30.7677 43.0836,-29.9874"/>
<polygon fill="midnightblue" stroke="midnightblue" points="44.2161,-26.6519 33.6784,-25.5527 41.2307,-32.9834 44.2161,-26.6519"/>
</g>
<!-- Node19 -->
<g id="node19" class="node"><title>Node19</title>
<polygon fill="none" stroke="#bfbfbf" points="1225,-6.5 1225,-25.5 1269,-25.5 1269,-6.5 1225,-6.5"/>
<text text-anchor="middle" x="1247" y="-13.5" font-family="Helvetica,sans-Serif" font-size="10.00">vector</text>
</g>
<!-- Node12&#45;&gt;Node19 -->
<g id="edge20" class="edge"><title>Node12&#45;&gt;Node19</title>
<path fill="none" stroke="midnightblue" d="M829.579,-68.6453C954.969,-57.6415 1161.98,-38.8823 1197,-32 1202.92,-30.8355 1209.15,-29.2612 1215.12,-27.5692"/>
<polygon fill="midnightblue" stroke="midnightblue" points="1216.26,-30.8836 1224.83,-24.6622 1214.25,-24.1777 1216.26,-30.8836"/>
</g>
<!-- Node20 -->
<g id="node20" class="node"><title>Node20</title>
<polygon fill="none" stroke="#bfbfbf" points="58.5,-6.5 58.5,-25.5 141.5,-25.5 141.5,-6.5 58.5,-6.5"/>
<text text-anchor="middle" x="100" y="-13.5" font-family="Helvetica,sans-Serif" font-size="10.00">unordered_map</text>
</g>
<!-- Node12&#45;&gt;Node20 -->
<g id="edge21" class="edge"><title>Node12&#45;&gt;Node20</title>
<path fill="none" stroke="midnightblue" d="M636.44,-69.143C631.557,-68.7544 626.722,-68.3715 622,-68 412.261,-51.4986 356.844,-70.4498 150,-32 144.896,-31.0513 139.573,-29.7761 134.384,-28.3681"/>
<polygon fill="midnightblue" stroke="midnightblue" points="135.244,-24.9732 124.665,-25.5476 133.293,-31.6959 135.244,-24.9732"/>
</g>
<!-- Node21 -->
<g id="node21" class="node"><title>Node21</title>
<polygon fill="none" stroke="#bfbfbf" points="159.5,-6.5 159.5,-25.5 256.5,-25.5 256.5,-6.5 159.5,-6.5"/>
<text text-anchor="middle" x="208" y="-13.5" font-family="Helvetica,sans-Serif" font-size="10.00">FairMQMessage.h</text>
</g>
<!-- Node12&#45;&gt;Node21 -->
<g id="edge22" class="edge"><title>Node12&#45;&gt;Node21</title>
<path fill="none" stroke="midnightblue" d="M636.426,-68.5542C510.076,-57.3742 300.507,-38.3362 265,-32 259.063,-30.9405 252.838,-29.5738 246.773,-28.0975"/>
<polygon fill="midnightblue" stroke="midnightblue" points="247.352,-24.6328 236.796,-25.5444 245.616,-31.4143 247.352,-24.6328"/>
</g>
<!-- Node22 -->
<g id="node22" class="node"><title>Node22</title>
<polygon fill="none" stroke="#bfbfbf" points="274.5,-6.5 274.5,-25.5 405.5,-25.5 405.5,-6.5 274.5,-6.5"/>
<text text-anchor="middle" x="340" y="-13.5" font-family="Helvetica,sans-Serif" font-size="10.00">FairMQTransportFactory.h</text>
</g>
<!-- Node12&#45;&gt;Node22 -->
<g id="edge23" class="edge"><title>Node12&#45;&gt;Node22</title>
<path fill="none" stroke="midnightblue" d="M664.59,-68.4617C600.073,-60.1391 500.744,-46.629 415,-32 406.997,-30.6346 398.539,-29.0658 390.299,-27.4686"/>
<polygon fill="midnightblue" stroke="midnightblue" points="390.89,-24.0179 380.402,-25.5181 389.537,-30.8858 390.89,-24.0179"/>
</g>
<!-- Node23&#45;&gt;Node4 -->
<g id="edge25" class="edge"><title>Node23&#45;&gt;Node4</title>
<path fill="none" stroke="midnightblue" d="M1205.69,-180.444C1158.92,-170.984 1083.54,-155.738 1033.15,-145.547"/>
<polygon fill="midnightblue" stroke="midnightblue" points="1033.6,-142.068 1023.11,-143.516 1032.22,-148.929 1033.6,-142.068"/>
</g>
<!-- Node23&#45;&gt;Node19 -->
<g id="edge28" class="edge"><title>Node23&#45;&gt;Node19</title>
<path fill="none" stroke="midnightblue" d="M1247.95,-180.234C1247.79,-153.548 1247.32,-72.8773 1247.11,-35.8931"/>
<polygon fill="midnightblue" stroke="midnightblue" points="1250.61,-35.5237 1247.05,-25.5442 1243.61,-35.5644 1250.61,-35.5237"/>
</g>
<!-- Node24 -->
<g id="node24" class="node"><title>Node24</title>
<polygon fill="none" stroke="#bfbfbf" points="1275.5,-124.5 1275.5,-143.5 1334.5,-143.5 1334.5,-124.5 1275.5,-124.5"/>
<text text-anchor="middle" x="1305" y="-131.5" font-family="Helvetica,sans-Serif" font-size="10.00">functional</text>
</g>
<!-- Node23&#45;&gt;Node24 -->
<g id="edge26" class="edge"><title>Node23&#45;&gt;Node24</title>
<path fill="none" stroke="midnightblue" d="M1257.16,-180.324C1265.5,-172.42 1278.03,-160.548 1288.18,-150.938"/>
<polygon fill="midnightblue" stroke="midnightblue" points="1290.82,-153.252 1295.68,-143.834 1286.01,-148.171 1290.82,-153.252"/>
</g>
<!-- Node23&#45;&gt;Node25 -->
<g id="edge27" class="edge"><title>Node23&#45;&gt;Node25</title>
<path fill="none" stroke="midnightblue" d="M1240.24,-180.083C1233.46,-172.298 1223.46,-160.801 1215.24,-151.367"/>
<polygon fill="midnightblue" stroke="midnightblue" points="1217.82,-148.996 1208.62,-143.751 1212.54,-153.592 1217.82,-148.996"/>
</g>
<!-- Node26&#45;&gt;Node10 -->
<g id="edge38" class="edge"><title>Node26&#45;&gt;Node10</title>
<path fill="none" stroke="midnightblue" d="M605.483,-236.178C600.985,-227.208 594.042,-212.84 589,-200 575.001,-164.353 562.061,-121.439 555.177,-97.4866"/>
<polygon fill="midnightblue" stroke="midnightblue" points="558.479,-96.3018 552.381,-87.6375 551.745,-98.2132 558.479,-96.3018"/>
</g>
<!-- Node27 -->
<g id="node27" class="node"><title>Node27</title>
<polygon fill="none" stroke="#bfbfbf" points="720,-180.5 720,-199.5 808,-199.5 808,-180.5 720,-180.5"/>
<text text-anchor="middle" x="764" y="-187.5" font-family="Helvetica,sans-Serif" font-size="10.00">FairMQDevice.h</text>
</g>
<!-- Node26&#45;&gt;Node27 -->
<g id="edge30" class="edge"><title>Node26&#45;&gt;Node27</title>
<path fill="none" stroke="midnightblue" d="M634.402,-236.444C660.197,-227.399 701.077,-213.064 730.018,-202.916"/>
<polygon fill="midnightblue" stroke="midnightblue" points="731.434,-206.128 739.712,-199.516 729.118,-199.523 731.434,-206.128"/>
</g>
<!-- Node28 -->
<g id="node28" class="node"><title>Node28</title>
<polygon fill="none" stroke="#bfbfbf" points="226,-180.5 226,-199.5 372,-199.5 372,-180.5 226,-180.5"/>
<text text-anchor="middle" x="299" y="-187.5" font-family="Helvetica,sans-Serif" font-size="10.00">options/FairMQProgOptions.h</text>
</g>
<!-- Node26&#45;&gt;Node28 -->
<g id="edge31" class="edge"><title>Node26&#45;&gt;Node28</title>
<path fill="none" stroke="midnightblue" d="M560.721,-236.444C505.672,-226.885 416.601,-211.419 357.916,-201.23"/>
<polygon fill="midnightblue" stroke="midnightblue" points="358.5,-197.779 348.048,-199.516 357.302,-204.676 358.5,-197.779"/>
</g>
<!-- Node29 -->
<g id="node29" class="node"><title>Node29</title>
<g id="a_node29"><a xlink:href="../../d7/db2/Utilities_8h.html" target="_top" xlink:title="O2Device/Utilities.h">
<polygon fill="none" stroke="black" points="598,-180.5 598,-199.5 702,-199.5 702,-180.5 598,-180.5"/>
<text text-anchor="middle" x="650" y="-187.5" font-family="Helvetica,sans-Serif" font-size="10.00">O2Device/Utilities.h</text>
</a>
</g>
</g>
<!-- Node26&#45;&gt;Node29 -->
<g id="edge32" class="edge"><title>Node26&#45;&gt;Node29</title>
<path fill="none" stroke="midnightblue" d="M616.605,-236.083C622.255,-228.455 630.545,-217.264 637.451,-207.941"/>
<polygon fill="midnightblue" stroke="midnightblue" points="640.378,-209.87 643.518,-199.751 634.753,-205.703 640.378,-209.87"/>
</g>
<!-- Node31 -->
<g id="node31" class="node"><title>Node31</title>
<polygon fill="none" stroke="#bfbfbf" points="390.5,-180.5 390.5,-199.5 541.5,-199.5 541.5,-180.5 390.5,-180.5"/>
<text text-anchor="middle" x="466" y="-187.5" font-family="Helvetica,sans-Serif" font-size="10.00">Monitoring/MonitoringFactory.h</text>
</g>
<!-- Node26&#45;&gt;Node31 -->
<g id="edge37" class="edge"><title>Node26&#45;&gt;Node31</title>
<path fill="none" stroke="midnightblue" d="M587.183,-236.444C563.168,-227.438 525.171,-213.189 498.131,-203.049"/>
<polygon fill="midnightblue" stroke="midnightblue" points="499.303,-199.751 488.71,-199.516 496.845,-206.305 499.303,-199.751"/>
</g>
<!-- Node29&#45;&gt;Node4 -->
<g id="edge34" class="edge"><title>Node29&#45;&gt;Node4</title>
<path fill="none" stroke="midnightblue" d="M702.083,-180.503C760.719,-170.937 855.952,-155.401 918.538,-145.19"/>
<polygon fill="midnightblue" stroke="midnightblue" points="919.369,-148.601 928.675,-143.536 918.242,-141.692 919.369,-148.601"/>
</g>
<!-- Node29&#45;&gt;Node12 -->
<g id="edge33" class="edge"><title>Node29&#45;&gt;Node12</title>
<path fill="none" stroke="midnightblue" d="M650.723,-180.208C652.197,-166.913 656.547,-141.4 669,-124 678.415,-110.846 692.92,-100.191 705.743,-92.5581"/>
<polygon fill="midnightblue" stroke="midnightblue" points="707.677,-95.4864 714.686,-87.5411 704.252,-89.3815 707.677,-95.4864"/>
</g>
<!-- Node29&#45;&gt;Node18 -->
<g id="edge35" class="edge"><title>Node29&#45;&gt;Node18</title>
<path fill="none" stroke="midnightblue" d="M648.541,-180.35C644.162,-157.394 628.817,-94.8578 588,-68 487.718,-2.01338 164.631,-64.2531 49,-32 47.0344,-31.4517 45.0482,-30.761 43.086,-29.9788"/>
<polygon fill="midnightblue" stroke="midnightblue" points="44.2191,-26.6434 33.6818,-25.5406 41.2315,-32.9739 44.2191,-26.6434"/>
</g>
<!-- Node30 -->
<g id="node30" class="node"><title>Node30</title>
<polygon fill="none" stroke="#bfbfbf" points="678.5,-124.5 678.5,-143.5 723.5,-143.5 723.5,-124.5 678.5,-124.5"/>
<text text-anchor="middle" x="701" y="-131.5" font-family="Helvetica,sans-Serif" font-size="10.00">gsl/gsl</text>
</g>
<!-- Node29&#45;&gt;Node30 -->
<g id="edge36" class="edge"><title>Node29&#45;&gt;Node30</title>
<path fill="none" stroke="midnightblue" d="M658.422,-180.083C665.848,-172.22 676.852,-160.569 685.812,-151.081"/>
<polygon fill="midnightblue" stroke="midnightblue" points="688.413,-153.424 692.735,-143.751 683.324,-148.618 688.413,-153.424"/>
</g>
<!-- Node32&#45;&gt;Node5 -->
<g id="edge41" class="edge"><title>Node32&#45;&gt;Node5</title>
<path fill="none" stroke="midnightblue" d="M1395.68,-180.481C1386.57,-166.61 1366.69,-139.172 1343,-124 1307.66,-101.367 1260.28,-89.5611 1228.98,-83.8199"/>
<polygon fill="midnightblue" stroke="midnightblue" points="1229.47,-80.3531 1219.02,-82.0985 1228.28,-87.2508 1229.47,-80.3531"/>
</g>
<!-- Node32&#45;&gt;Node8 -->
<g id="edge44" class="edge"><title>Node32&#45;&gt;Node8</title>
<path fill="none" stroke="midnightblue" d="M1398.51,-180.405C1394.24,-166.912 1384.34,-140.592 1368,-124 1318.86,-74.0971 1241.47,-42.2723 1197.81,-27.2306"/>
<polygon fill="midnightblue" stroke="midnightblue" points="1198.85,-23.886 1188.25,-24.0204 1196.62,-30.5219 1198.85,-23.886"/>
</g>
<!-- Node32&#45;&gt;Node19 -->
<g id="edge42" class="edge"><title>Node32&#45;&gt;Node19</title>
<path fill="none" stroke="midnightblue" d="M1405.68,-180.34C1416.55,-158.914 1440.69,-102.653 1415,-68 1383.74,-25.8351 1318.51,-17.3201 1279.16,-16.263"/>
<polygon fill="midnightblue" stroke="midnightblue" points="1279.08,-12.7619 1269.04,-16.1402 1279,-19.7614 1279.08,-12.7619"/>
</g>
<!-- Node32&#45;&gt;Node24 -->
<g id="edge43" class="edge"><title>Node32&#45;&gt;Node24</title>
<path fill="none" stroke="midnightblue" d="M1385.58,-180.324C1370.46,-171.822 1347.18,-158.729 1329.53,-148.797"/>
<polygon fill="midnightblue" stroke="midnightblue" points="1330.82,-145.507 1320.39,-143.655 1327.39,-151.608 1330.82,-145.507"/>
</g>
<!-- Node32&#45;&gt;Node25 -->
<g id="edge40" class="edge"><title>Node32&#45;&gt;Node25</title>
<path fill="none" stroke="midnightblue" d="M1369.31,-180.444C1330.51,-169.968 1265.44,-152.399 1228.61,-142.453"/>
<polygon fill="midnightblue" stroke="midnightblue" points="1229.14,-138.973 1218.58,-139.745 1227.32,-145.731 1229.14,-138.973"/>
</g>
<!-- Node33 -->
<g id="node33" class="node"><title>Node33</title>
<polygon fill="none" stroke="#bfbfbf" points="1467.5,-124.5 1467.5,-143.5 1594.5,-143.5 1594.5,-124.5 1467.5,-124.5"/>
<text text-anchor="middle" x="1531" y="-131.5" font-family="Helvetica,sans-Serif" font-size="10.00">fairmq/FairMQMessage.h</text>
</g>
<!-- Node32&#45;&gt;Node33 -->
<g id="edge45" class="edge"><title>Node32&#45;&gt;Node33</title>
<path fill="none" stroke="midnightblue" d="M1421.6,-180.444C1442.99,-171.557 1476.68,-157.563 1501.02,-147.451"/>
<polygon fill="midnightblue" stroke="midnightblue" points="1502.61,-150.585 1510.5,-143.516 1499.92,-144.12 1502.61,-150.585"/>
</g>
<!-- Node34&#45;&gt;Node23 -->
<g id="edge49" class="edge"><title>Node34&#45;&gt;Node23</title>
<path fill="none" stroke="midnightblue" d="M1445.76,-236.444C1404.94,-227.063 1339.36,-211.993 1295.02,-201.804"/>
<polygon fill="midnightblue" stroke="midnightblue" points="1295.59,-198.345 1285.06,-199.516 1294.02,-205.167 1295.59,-198.345"/>
</g>
<!-- Node35 -->
<g id="node35" class="node"><title>Node35</title>
<polygon fill="none" stroke="#bfbfbf" points="1487,-180.5 1487,-199.5 1525,-199.5 1525,-180.5 1487,-180.5"/>
<text text-anchor="middle" x="1506" y="-187.5" font-family="Helvetica,sans-Serif" font-size="10.00">tuple</text>
</g>
<!-- Node34&#45;&gt;Node35 -->
<g id="edge47" class="edge"><title>Node34&#45;&gt;Node35</title>
<path fill="none" stroke="midnightblue" d="M1486.8,-236.083C1489.91,-228.77 1494.42,-218.181 1498.29,-209.103"/>
<polygon fill="midnightblue" stroke="midnightblue" points="1501.57,-210.323 1502.27,-199.751 1495.13,-207.58 1501.57,-210.323"/>
</g>
<!-- Node36 -->
<g id="node36" class="node"><title>Node36</title>
<polygon fill="none" stroke="#bfbfbf" points="1543.5,-180.5 1543.5,-199.5 1592.5,-199.5 1592.5,-180.5 1543.5,-180.5"/>
<text text-anchor="middle" x="1568" y="-187.5" font-family="Helvetica,sans-Serif" font-size="10.00">cstddef</text>
</g>
<!-- Node34&#45;&gt;Node36 -->
<g id="edge48" class="edge"><title>Node34&#45;&gt;Node36</title>
<path fill="none" stroke="midnightblue" d="M1496.66,-236.324C1509.92,-227.9 1530.27,-214.971 1545.85,-205.074"/>
<polygon fill="midnightblue" stroke="midnightblue" points="1547.81,-207.971 1554.38,-199.655 1544.06,-202.063 1547.81,-207.971"/>
</g>
</g>
</svg>
        <g id="navigator" transform="translate(0 0)" fill="#404254">
                <rect fill="#f2f5e9" fill-opacity="0.5" stroke="#606060" stroke-width=".5" x="0" y="0" width="60" height="60"/>
                <use id="zoomplus" xlink:href="#zoomPlus" x="17" y="9" onmousedown="handleZoom(evt,'in')"/>
                <use id="zoomminus" xlink:href="#zoomMin" x="42" y="9" onmousedown="handleZoom(evt,'out')"/>
                <use id="reset" xlink:href="#resetDef" x="30" y="36" onmousedown="handleReset()"/>
                <g id="arrowUp" xlink:href="#dirArrow" transform="translate(30 24)" onmousedown="handlePan(0,-1)">
                  <use xlink:href="#rim" fill="#404040">
                        <set attributeName="fill" to="#808080" begin="arrowUp.mouseover" end="arrowUp.mouseout"/>
                  </use>
                  <path fill="none" stroke="white" stroke-width="1.5" d="M0,-3.0v7 M-2.5,-0.5L0,-3.0L2.5,-0.5"/>
                </g>
                <g id="arrowRight" xlink:href="#dirArrow" transform="rotate(90) translate(36 -43)" onmousedown="handlePan(1,0)">
                  <use xlink:href="#rim" fill="#404040">
                        <set attributeName="fill" to="#808080" begin="arrowRight.mouseover" end="arrowRight.mouseout"/>
                  </use>
                  <path fill="none" stroke="white" stroke-width="1.5" d="M0,-3.0v7 M-2.5,-0.5L0,-3.0L2.5,-0.5"/>
                </g>
                <g id="arrowDown" xlink:href="#dirArrow" transform="rotate(180) translate(-30 -48)" onmousedown="handlePan(0,1)">
                  <use xlink:href="#rim" fill="#404040">
                        <set attributeName="fill" to="#808080" begin="arrowDown.mouseover" end="arrowDown.mouseout"/>
                  </use>
                  <path fill="none" stroke="white" stroke-width="1.5" d="M0,-3.0v7 M-2.5,-0.5L0,-3.0L2.5,-0.5"/>
                </g>
                <g id="arrowLeft" xlink:href="#dirArrow" transform="rotate(270) translate(-36 17)" onmousedown="handlePan(-1,0)">
                  <use xlink:href="#rim" fill="#404040">
                        <set attributeName="fill" to="#808080" begin="arrowLeft.mouseover" end="arrowLeft.mouseout"/>
                  </use>
                  <path fill="none" stroke="white" stroke-width="1.5" d="M0,-3.0v7 M-2.5,-0.5L0,-3.0L2.5,-0.5"/>
                </g>
        </g>
        <svg viewBox="0 0 15 15" width="100%" height="30px" preserveAspectRatio="xMaxYMin meet">
         <g id="arrow_out" transform="scale(0.3 0.3)">
          <a xlink:href="runSubframeBuilderDevice_8cxx__incl_org.svg" target="_base">
           <rect id="button" ry="5" rx="5" y="6" x="6" height="38" width="38"
                fill="#f2f5e9" fill-opacity="0.5" stroke="#606060" stroke-width="1.0"/>
           <path id="arrow"
             d="M 11.500037,31.436501 C 11.940474,20.09759 22.043105,11.32322 32.158766,21.979434 L 37.068811,17.246167 C 37.068811,17.246167 37.088388,32 37.088388,32 L 22.160133,31.978069 C 22.160133,31.978069 26.997745,27.140456 26.997745,27.140456 C 18.528582,18.264221 13.291696,25.230495 11.500037,31.436501 z"
             style="fill:#404040;"/>
          </a>
         </g>
        </svg>
</svg>
