<?xml version="1.0" encoding="UTF-8" standalone="no"?>
<!DOCTYPE svg PUBLIC "-//W3C//DTD SVG 1.1//EN"
 "http://www.w3.org/Graphics/SVG/1.1/DTD/svg11.dtd">
<!-- Generated by graphviz version 2.36.0 (20140111.2315)
 -->
<!-- Title: /home/travis/build/AliceO2Group/AliceO2/Steer/include/Steer/HitProcessingManager.h Pages: 1 -->
<!--zoomable 254 -->
<svg id="main" version="1.1" xmlns="http://www.w3.org/2000/svg" xmlns:xlink="http://www.w3.org/1999/xlink" xml:space="preserve" onload="init(evt)">
<style type="text/css"><![CDATA[
.edge:hover path { stroke: red; }
.edge:hover polygon { stroke: red; fill: red; }
]]></style>
<script type="text/javascript"><![CDATA[
var edges = document.getElementsByTagName('g');
if (edges && edges.length) {
  for (var i=0;i<edges.length;i++) {
    if (edges[i].id.substr(0,4)=='edge') {
      edges[i].setAttribute('class','edge');
    }
  }
}
]]></script>
        <defs>
                <circle id="rim" cx="0" cy="0" r="7"/>
                <circle id="rim2" cx="0" cy="0" r="3.5"/>
                <g id="zoomPlus">
                        <use xlink:href="#rim" fill="#404040">
                                <set attributeName="fill" to="#808080" begin="zoomplus.mouseover" end="zoomplus.mouseout"/>
                        </use>
                        <path d="M-4,0h8M0,-4v8" fill="none" stroke="white" stroke-width="1.5" pointer-events="none"/>
                </g>
                <g id="zoomMin">
                        <use xlink:href="#rim" fill="#404040">
                                <set attributeName="fill" to="#808080" begin="zoomminus.mouseover" end="zoomminus.mouseout"/>
                        </use>
                        <path d="M-4,0h8" fill="none" stroke="white" stroke-width="1.5" pointer-events="none"/>
                </g>
                <g id="dirArrow">
                        <path fill="none" stroke="white" stroke-width="1.5" d="M0,-3.0v7 M-2.5,-0.5L0,-3.0L2.5,-0.5"/>
                </g>
               <g id="resetDef">
                       <use xlink:href="#rim2" fill="#404040">
                               <set attributeName="fill" to="#808080" begin="reset.mouseover" end="reset.mouseout"/>
                       </use>
               </g>
        </defs>

<script type="text/javascript">
var viewWidth = 822;
var viewHeight = 254;
var sectionId = 'dynsection-0';
</script>
<script xlink:href="../../svgpan.js"/>
<svg id="graph" class="graph">
<g id="viewport">
<title>/home/travis/build/AliceO2Group/AliceO2/Steer/include/Steer/HitProcessingManager.h</title>
<!-- Node1 -->
<g id="node1" class="node"><title>Node1</title>
<polygon fill="#bfbfbf" stroke="black" points="370.5,-193 370.5,-245 537.5,-245 537.5,-193 370.5,-193"/>
<text text-anchor="start" x="378.5" y="-233" font-family="Helvetica,sans-Serif" font-size="10.00">/home/travis/build</text>
<text text-anchor="start" x="378.5" y="-222" font-family="Helvetica,sans-Serif" font-size="10.00">/AliceO2Group/AliceO2</text>
<text text-anchor="start" x="378.5" y="-211" font-family="Helvetica,sans-Serif" font-size="10.00">/Steer/include/Steer/HitProcessing</text>
<text text-anchor="middle" x="454" y="-200" font-family="Helvetica,sans-Serif" font-size="10.00">Manager.h</text>
</g>
<!-- Node2 -->
<g id="node2" class="node"><title>Node2</title>
<g id="a_node2"><a xlink:href="../../d9/d80/InteractionRecord_8h.html" target="_top" xlink:title="CommonDataFormat/Interaction\lRecord.h">
<polygon fill="none" stroke="black" points="80.5,-57 80.5,-87 237.5,-87 237.5,-57 80.5,-57"/>
<text text-anchor="start" x="88.5" y="-75" font-family="Helvetica,sans-Serif" font-size="10.00">CommonDataFormat/Interaction</text>
<text text-anchor="middle" x="159" y="-64" font-family="Helvetica,sans-Serif" font-size="10.00">Record.h</text>
</a>
</g>
</g>
<!-- Node1&#45;&gt;Node2 -->
<g id="edge1" class="edge"><title>Node1&#45;&gt;Node2</title>
<path fill="none" stroke="midnightblue" d="M370.406,-210.311C296.602,-201.707 196.696,-185.014 170,-156 155.602,-140.352 154.067,-115.484 155.396,-97.0441"/>
<polygon fill="midnightblue" stroke="midnightblue" points="158.883,-97.3557 156.434,-87.0477 151.92,-96.6328 158.883,-97.3557"/>
</g>
<!-- Node7 -->
<g id="node7" class="node"><title>Node7</title>
<g id="a_node7"><a xlink:href="../../d5/d3f/RunContext_8h.html" target="_top" xlink:title="SimulationDataFormat\l/RunContext.h">
<polygon fill="none" stroke="black" points="179,-125 179,-155 293,-155 293,-125 179,-125"/>
<text text-anchor="start" x="187" y="-143" font-family="Helvetica,sans-Serif" font-size="10.00">SimulationDataFormat</text>
<text text-anchor="middle" x="236" y="-132" font-family="Helvetica,sans-Serif" font-size="10.00">/RunContext.h</text>
</a>
</g>
</g>
<!-- Node1&#45;&gt;Node7 -->
<g id="edge6" class="edge"><title>Node1&#45;&gt;Node7</title>
<path fill="none" stroke="midnightblue" d="M382.92,-192.894C350.994,-181.617 314.108,-168.589 285.283,-158.407"/>
<polygon fill="midnightblue" stroke="midnightblue" points="286.43,-155.1 275.835,-155.07 284.098,-161.701 286.43,-155.1"/>
</g>
<!-- Node8 -->
<g id="node8" class="node"><title>Node8</title>
<polygon fill="none" stroke="#bfbfbf" points="330,-62.5 330,-81.5 374,-81.5 374,-62.5 330,-62.5"/>
<text text-anchor="middle" x="352" y="-69.5" font-family="Helvetica,sans-Serif" font-size="10.00">vector</text>
</g>
<!-- Node1&#45;&gt;Node8 -->
<g id="edge21" class="edge"><title>Node1&#45;&gt;Node8</title>
<path fill="none" stroke="midnightblue" d="M414.363,-192.7C401.23,-182.647 387.545,-170.101 378,-156 364.675,-136.314 357.906,-109.453 354.669,-91.6852"/>
<polygon fill="midnightblue" stroke="midnightblue" points="358.108,-91.0259 353.051,-81.716 351.199,-92.1477 358.108,-91.0259"/>
</g>
<!-- Node9 -->
<g id="node9" class="node"><title>Node9</title>
<polygon fill="none" stroke="#bfbfbf" points="256,-62.5 256,-81.5 312,-81.5 312,-62.5 256,-62.5"/>
<text text-anchor="middle" x="284" y="-69.5" font-family="Helvetica,sans-Serif" font-size="10.00">TChain.h</text>
</g>
<!-- Node1&#45;&gt;Node9 -->
<g id="edge24" class="edge"><title>Node1&#45;&gt;Node9</title>
<path fill="none" stroke="midnightblue" d="M411.241,-192.938C394.592,-182.39 375.766,-169.448 360,-156 335.823,-135.377 311.689,-107.455 297.303,-89.834"/>
<polygon fill="midnightblue" stroke="midnightblue" points="299.715,-87.249 290.72,-81.6515 294.261,-91.6369 299.715,-87.249"/>
</g>
<!-- Node11 -->
<g id="node11" class="node"><title>Node11</title>
<g id="a_node11"><a xlink:href="../../df/dff/InteractionSampler_8h.html" target="_top" xlink:title="Steer/InteractionSampler.h">
<polygon fill="none" stroke="black" points="387.5,-130.5 387.5,-149.5 520.5,-149.5 520.5,-130.5 387.5,-130.5"/>
<text text-anchor="middle" x="454" y="-137.5" font-family="Helvetica,sans-Serif" font-size="10.00">Steer/InteractionSampler.h</text>
</a>
</g>
</g>
<!-- Node1&#45;&gt;Node11 -->
<g id="edge11" class="edge"><title>Node1&#45;&gt;Node11</title>
<path fill="none" stroke="midnightblue" d="M454,-192.787C454,-182.069 454,-169.785 454,-159.871"/>
<polygon fill="midnightblue" stroke="midnightblue" points="457.5,-159.558 454,-149.558 450.5,-159.558 457.5,-159.558"/>
</g>
<!-- Node15 -->
<g id="node15" class="node"><title>Node15</title>
<polygon fill="none" stroke="#bfbfbf" points="539,-130.5 539,-149.5 625,-149.5 625,-130.5 539,-130.5"/>
<text text-anchor="middle" x="582" y="-137.5" font-family="Helvetica,sans-Serif" font-size="10.00">TGeoManager.h</text>
</g>
<!-- Node1&#45;&gt;Node15 -->
<g id="edge19" class="edge"><title>Node1&#45;&gt;Node15</title>
<path fill="none" stroke="midnightblue" d="M495.912,-192.787C516.828,-180.205 541.332,-165.464 558.837,-154.934"/>
<polygon fill="midnightblue" stroke="midnightblue" points="561.009,-157.712 567.774,-149.558 557.401,-151.713 561.009,-157.712"/>
</g>
<!-- Node16 -->
<g id="node16" class="node"><title>Node16</title>
<polygon fill="none" stroke="#bfbfbf" points="643.5,-130.5 643.5,-149.5 684.5,-149.5 684.5,-130.5 643.5,-130.5"/>
<text text-anchor="middle" x="664" y="-137.5" font-family="Helvetica,sans-Serif" font-size="10.00">string</text>
</g>
<!-- Node1&#45;&gt;Node16 -->
<g id="edge20" class="edge"><title>Node1&#45;&gt;Node16</title>
<path fill="none" stroke="midnightblue" d="M534.153,-192.912C565.63,-182.408 601.852,-169.504 634,-156 635.409,-155.408 636.845,-154.78 638.287,-154.129"/>
<polygon fill="midnightblue" stroke="midnightblue" points="640.159,-157.114 647.677,-149.649 637.145,-150.796 640.159,-157.114"/>
</g>
<!-- Node17 -->
<g id="node17" class="node"><title>Node17</title>
<polygon fill="none" stroke="#bfbfbf" points="702.5,-130.5 702.5,-149.5 737.5,-149.5 737.5,-130.5 702.5,-130.5"/>
<text text-anchor="middle" x="720" y="-137.5" font-family="Helvetica,sans-Serif" font-size="10.00">map</text>
</g>
<!-- Node1&#45;&gt;Node17 -->
<g id="edge22" class="edge"><title>Node1&#45;&gt;Node17</title>
<path fill="none" stroke="midnightblue" d="M537.504,-201.79C584.169,-191.39 642.85,-176.057 693,-156 694.369,-155.452 695.756,-154.849 697.14,-154.209"/>
<polygon fill="midnightblue" stroke="midnightblue" points="698.743,-157.32 706.039,-149.637 695.544,-151.094 698.743,-157.32"/>
</g>
<!-- Node18 -->
<g id="node18" class="node"><title>Node18</title>
<polygon fill="none" stroke="#bfbfbf" points="755.5,-130.5 755.5,-149.5 814.5,-149.5 814.5,-130.5 755.5,-130.5"/>
<text text-anchor="middle" x="785" y="-137.5" font-family="Helvetica,sans-Serif" font-size="10.00">functional</text>
</g>
<!-- Node1&#45;&gt;Node18 -->
<g id="edge23" class="edge"><title>Node1&#45;&gt;Node18</title>
<path fill="none" stroke="midnightblue" d="M537.63,-203.875C596.496,-193.053 676.811,-176.511 746,-156 748.965,-155.121 752.023,-154.119 755.062,-153.059"/>
<polygon fill="midnightblue" stroke="midnightblue" points="756.392,-156.299 764.565,-149.557 753.971,-149.731 756.392,-156.299"/>
</g>
<!-- Node3 -->
<g id="node3" class="node"><title>Node3</title>
<polygon fill="none" stroke="#bfbfbf" points="363,-0.5 363,-19.5 419,-19.5 419,-0.5 363,-0.5"/>
<text text-anchor="middle" x="391" y="-7.5" font-family="Helvetica,sans-Serif" font-size="10.00">Rtypes.h</text>
</g>
<!-- Node2&#45;&gt;Node3 -->
<g id="edge2" class="edge"><title>Node2&#45;&gt;Node3</title>
<path fill="none" stroke="midnightblue" d="M213.394,-56.9327C256.241,-45.8515 314.886,-30.6847 352.857,-20.8646"/>
<polygon fill="midnightblue" stroke="midnightblue" points="354.183,-24.1368 362.988,-18.2444 352.43,-17.3598 354.183,-24.1368"/>
</g>
<!-- Node4 -->
<g id="node4" class="node"><title>Node4</title>
<polygon fill="none" stroke="#bfbfbf" points="105.5,-0.5 105.5,-19.5 150.5,-19.5 150.5,-0.5 105.5,-0.5"/>
<text text-anchor="middle" x="128" y="-7.5" font-family="Helvetica,sans-Serif" font-size="10.00">iosfwd</text>
</g>
<!-- Node2&#45;&gt;Node4 -->
<g id="edge3" class="edge"><title>Node2&#45;&gt;Node4</title>
<path fill="none" stroke="midnightblue" d="M151.653,-56.7808C147.335,-48.4217 141.835,-37.7773 137.226,-28.8565"/>
<polygon fill="midnightblue" stroke="midnightblue" points="140.211,-27.0082 132.511,-19.7305 133.992,-30.2214 140.211,-27.0082"/>
</g>
<!-- Node5 -->
<g id="node5" class="node"><title>Node5</title>
<polygon fill="none" stroke="#bfbfbf" points="169,-0.5 169,-19.5 213,-19.5 213,-0.5 169,-0.5"/>
<text text-anchor="middle" x="191" y="-7.5" font-family="Helvetica,sans-Serif" font-size="10.00">cmath</text>
</g>
<!-- Node2&#45;&gt;Node5 -->
<g id="edge4" class="edge"><title>Node2&#45;&gt;Node5</title>
<path fill="none" stroke="midnightblue" d="M166.584,-56.7808C171.09,-48.3318 176.841,-37.5481 181.63,-28.5693"/>
<polygon fill="midnightblue" stroke="midnightblue" points="184.726,-30.2012 186.344,-19.7305 178.55,-26.907 184.726,-30.2012"/>
</g>
<!-- Node6 -->
<g id="node6" class="node"><title>Node6</title>
<g id="a_node6"><a xlink:href="../../d4/dc6/LHCConstants_8h.html" target="_top" xlink:title="Header to collect LHC related constants. ">
<polygon fill="none" stroke="black" points="503,-0.5 503,-19.5 681,-19.5 681,-0.5 503,-0.5"/>
<text text-anchor="middle" x="592" y="-7.5" font-family="Helvetica,sans-Serif" font-size="10.00">CommonConstants/LHCConstants.h</text>
</a>
</g>
</g>
<!-- Node2&#45;&gt;Node6 -->
<g id="edge5" class="edge"><title>Node2&#45;&gt;Node6</title>
<path fill="none" stroke="midnightblue" d="M237.658,-57.4356C240.812,-56.9414 243.935,-56.461 247,-56 336.81,-42.4939 440.133,-29.3299 510.115,-20.7652"/>
<polygon fill="midnightblue" stroke="midnightblue" points="510.691,-24.221 520.193,-19.5354 509.843,-17.2725 510.691,-24.221"/>
</g>
<!-- Node7&#45;&gt;Node2 -->
<g id="edge10" class="edge"><title>Node7&#45;&gt;Node2</title>
<path fill="none" stroke="midnightblue" d="M219.292,-124.679C208.726,-115.623 194.896,-103.768 183.147,-93.697"/>
<polygon fill="midnightblue" stroke="midnightblue" points="185.281,-90.9169 175.411,-87.0663 180.726,-96.2317 185.281,-90.9169"/>
</g>
<!-- Node7&#45;&gt;Node8 -->
<g id="edge7" class="edge"><title>Node7&#45;&gt;Node8</title>
<path fill="none" stroke="midnightblue" d="M260.885,-124.841C280.68,-113.579 308.213,-97.9132 327.821,-86.7572"/>
<polygon fill="midnightblue" stroke="midnightblue" points="329.78,-89.6693 336.741,-81.6819 326.318,-83.5851 329.78,-89.6693"/>
</g>
<!-- Node7&#45;&gt;Node9 -->
<g id="edge8" class="edge"><title>Node7&#45;&gt;Node9</title>
<path fill="none" stroke="midnightblue" d="M246.415,-124.679C253.825,-114.49 263.812,-100.759 271.628,-90.0112"/>
<polygon fill="midnightblue" stroke="midnightblue" points="274.528,-91.9743 277.579,-81.8283 268.867,-87.8571 274.528,-91.9743"/>
</g>
<!-- Node10 -->
<g id="node10" class="node"><title>Node10</title>
<polygon fill="none" stroke="#bfbfbf" points="0,-62.5 0,-81.5 62,-81.5 62,-62.5 0,-62.5"/>
<text text-anchor="middle" x="31" y="-69.5" font-family="Helvetica,sans-Serif" font-size="10.00">TBranch.h</text>
</g>
<!-- Node7&#45;&gt;Node10 -->
<g id="edge9" class="edge"><title>Node7&#45;&gt;Node10</title>
<path fill="none" stroke="midnightblue" d="M187.745,-124.903C154.717,-115.054 110.012,-101.331 71,-88 68.3923,-87.1089 65.6989,-86.1605 62.9997,-85.1902"/>
<polygon fill="midnightblue" stroke="midnightblue" points="63.9348,-81.8051 53.3412,-81.6434 61.5218,-88.3761 63.9348,-81.8051"/>
</g>
<!-- Node11&#45;&gt;Node2 -->
<g id="edge17" class="edge"><title>Node11&#45;&gt;Node2</title>
<path fill="none" stroke="midnightblue" d="M415.736,-130.439C369.24,-120.037 289.798,-102.263 231.569,-89.2357"/>
<polygon fill="midnightblue" stroke="midnightblue" points="232.209,-85.7926 221.686,-87.0247 230.681,-92.6237 232.209,-85.7926"/>
</g>
<!-- Node11&#45;&gt;Node3 -->
<g id="edge12" class="edge"><title>Node11&#45;&gt;Node3</title>
<path fill="none" stroke="midnightblue" d="M501.959,-130.454C555.66,-118.791 631.326,-94.7884 600,-56 578.957,-29.9444 483.718,-18.2616 429.35,-13.6358"/>
<polygon fill="midnightblue" stroke="midnightblue" points="429.305,-10.1209 419.055,-12.8026 428.74,-17.098 429.305,-10.1209"/>
</g>
<!-- Node11&#45;&gt;Node6 -->
<g id="edge18" class="edge"><title>Node11&#45;&gt;Node6</title>
<path fill="none" stroke="midnightblue" d="M488.767,-130.448C534.283,-118.905 609.23,-98.5726 617,-88 630.203,-70.035 617.445,-44.7699 605.83,-28.1489"/>
<polygon fill="midnightblue" stroke="midnightblue" points="608.458,-25.8187 599.667,-19.9055 602.852,-30.0103 608.458,-25.8187"/>
</g>
<!-- Node11&#45;&gt;Node8 -->
<g id="edge16" class="edge"><title>Node11&#45;&gt;Node8</title>
<path fill="none" stroke="midnightblue" d="M440.665,-130.372C423.713,-119.403 394.217,-100.317 373.932,-87.1912"/>
<polygon fill="midnightblue" stroke="midnightblue" points="375.635,-84.1245 365.338,-81.6305 371.832,-90.0015 375.635,-84.1245"/>
</g>
<!-- Node12 -->
<g id="node12" class="node"><title>Node12</title>
<polygon fill="none" stroke="#bfbfbf" points="392.5,-62.5 392.5,-81.5 445.5,-81.5 445.5,-62.5 392.5,-62.5"/>
<text text-anchor="middle" x="419" y="-69.5" font-family="Helvetica,sans-Serif" font-size="10.00">TMath.h</text>
</g>
<!-- Node11&#45;&gt;Node12 -->
<g id="edge13" class="edge"><title>Node11&#45;&gt;Node12</title>
<path fill="none" stroke="midnightblue" d="M449.424,-130.372C444.109,-120.348 435.198,-103.546 428.39,-90.7076"/>
<polygon fill="midnightblue" stroke="midnightblue" points="431.466,-89.036 423.688,-81.8411 425.281,-92.3155 431.466,-89.036"/>
</g>
<!-- Node13 -->
<g id="node13" class="node"><title>Node13</title>
<polygon fill="none" stroke="#bfbfbf" points="464,-62.5 464,-81.5 532,-81.5 532,-62.5 464,-62.5"/>
<text text-anchor="middle" x="498" y="-69.5" font-family="Helvetica,sans-Serif" font-size="10.00">TRandom.h</text>
</g>
<!-- Node11&#45;&gt;Node13 -->
<g id="edge14" class="edge"><title>Node11&#45;&gt;Node13</title>
<path fill="none" stroke="midnightblue" d="M459.752,-130.372C466.5,-120.25 477.856,-103.215 486.446,-90.3312"/>
<polygon fill="midnightblue" stroke="midnightblue" points="489.471,-92.1031 492.106,-81.8411 483.647,-88.2202 489.471,-92.1031"/>
</g>
<!-- Node14 -->
<g id="node14" class="node"><title>Node14</title>
<polygon fill="none" stroke="#bfbfbf" points="550.5,-62.5 550.5,-81.5 591.5,-81.5 591.5,-62.5 550.5,-62.5"/>
<text text-anchor="middle" x="571" y="-69.5" font-family="Helvetica,sans-Serif" font-size="10.00">bitset</text>
</g>
<!-- Node11&#45;&gt;Node14 -->
<g id="edge15" class="edge"><title>Node11&#45;&gt;Node14</title>
<path fill="none" stroke="midnightblue" d="M469.296,-130.372C489.003,-119.254 523.491,-99.7997 546.78,-86.6624"/>
<polygon fill="midnightblue" stroke="midnightblue" points="548.71,-89.5922 555.701,-81.6305 545.271,-83.4953 548.71,-89.5922"/>
</g>
</g>
</svg>
        <g id="navigator" transform="translate(0 0)" fill="#404254">
                <rect fill="#f2f5e9" fill-opacity="0.5" stroke="#606060" stroke-width=".5" x="0" y="0" width="60" height="60"/>
                <use id="zoomplus" xlink:href="#zoomPlus" x="17" y="9" onmousedown="handleZoom(evt,'in')"/>
                <use id="zoomminus" xlink:href="#zoomMin" x="42" y="9" onmousedown="handleZoom(evt,'out')"/>
                <use id="reset" xlink:href="#resetDef" x="30" y="36" onmousedown="handleReset()"/>
                <g id="arrowUp" xlink:href="#dirArrow" transform="translate(30 24)" onmousedown="handlePan(0,-1)">
                  <use xlink:href="#rim" fill="#404040">
                        <set attributeName="fill" to="#808080" begin="arrowUp.mouseover" end="arrowUp.mouseout"/>
                  </use>
                  <path fill="none" stroke="white" stroke-width="1.5" d="M0,-3.0v7 M-2.5,-0.5L0,-3.0L2.5,-0.5"/>
                </g>
                <g id="arrowRight" xlink:href="#dirArrow" transform="rotate(90) translate(36 -43)" onmousedown="handlePan(1,0)">
                  <use xlink:href="#rim" fill="#404040">
                        <set attributeName="fill" to="#808080" begin="arrowRight.mouseover" end="arrowRight.mouseout"/>
                  </use>
                  <path fill="none" stroke="white" stroke-width="1.5" d="M0,-3.0v7 M-2.5,-0.5L0,-3.0L2.5,-0.5"/>
                </g>
                <g id="arrowDown" xlink:href="#dirArrow" transform="rotate(180) translate(-30 -48)" onmousedown="handlePan(0,1)">
                  <use xlink:href="#rim" fill="#404040">
                        <set attributeName="fill" to="#808080" begin="arrowDown.mouseover" end="arrowDown.mouseout"/>
                  </use>
                  <path fill="none" stroke="white" stroke-width="1.5" d="M0,-3.0v7 M-2.5,-0.5L0,-3.0L2.5,-0.5"/>
                </g>
                <g id="arrowLeft" xlink:href="#dirArrow" transform="rotate(270) translate(-36 17)" onmousedown="handlePan(-1,0)">
                  <use xlink:href="#rim" fill="#404040">
                        <set attributeName="fill" to="#808080" begin="arrowLeft.mouseover" end="arrowLeft.mouseout"/>
                  </use>
                  <path fill="none" stroke="white" stroke-width="1.5" d="M0,-3.0v7 M-2.5,-0.5L0,-3.0L2.5,-0.5"/>
                </g>
        </g>
        <svg viewBox="0 0 15 15" width="100%" height="30px" preserveAspectRatio="xMaxYMin meet">
         <g id="arrow_out" transform="scale(0.3 0.3)">
          <a xlink:href="HitProcessingManager_8h__incl_org.svg" target="_base">
           <rect id="button" ry="5" rx="5" y="6" x="6" height="38" width="38"
                fill="#f2f5e9" fill-opacity="0.5" stroke="#606060" stroke-width="1.0"/>
           <path id="arrow"
             d="M 11.500037,31.436501 C 11.940474,20.09759 22.043105,11.32322 32.158766,21.979434 L 37.068811,17.246167 C 37.068811,17.246167 37.088388,32 37.088388,32 L 22.160133,31.978069 C 22.160133,31.978069 26.997745,27.140456 26.997745,27.140456 C 18.528582,18.264221 13.291696,25.230495 11.500037,31.436501 z"
             style="fill:#404040;"/>
          </a>
         </g>
        </svg>
</svg>
