<?xml version="1.0" encoding="UTF-8" standalone="no"?>
<!DOCTYPE svg PUBLIC "-//W3C//DTD SVG 1.1//EN"
 "http://www.w3.org/Graphics/SVG/1.1/DTD/svg11.dtd">
<!-- Generated by graphviz version 2.36.0 (20140111.2315)
 -->
<!-- Title: /home/travis/build/AliceO2Group/AliceO2/Utilities/DataFlow/src/HeartbeatSampler.cxx Pages: 1 -->
<svg width="1311pt" height="410pt"
 viewBox="0.00 0.00 1311.00 410.00" xmlns="http://www.w3.org/2000/svg" xmlns:xlink="http://www.w3.org/1999/xlink">
<g id="graph0" class="graph" transform="scale(1 1) rotate(0) translate(4 406)">
<title>/home/travis/build/AliceO2Group/AliceO2/Utilities/DataFlow/src/HeartbeatSampler.cxx</title>
<!-- Node1 -->
<g id="node1" class="node"><title>Node1</title>
<polygon fill="#bfbfbf" stroke="black" points="648,-349 648,-401 766,-401 766,-349 648,-349"/>
<text text-anchor="start" x="656" y="-389" font-family="Helvetica,sans-Serif" font-size="10.00">/home/travis/build</text>
<text text-anchor="start" x="656" y="-378" font-family="Helvetica,sans-Serif" font-size="10.00">/AliceO2Group/AliceO2</text>
<text text-anchor="start" x="656" y="-367" font-family="Helvetica,sans-Serif" font-size="10.00">/Utilities/DataFlow/src</text>
<text text-anchor="middle" x="707" y="-356" font-family="Helvetica,sans-Serif" font-size="10.00">/HeartbeatSampler.cxx</text>
</g>
<!-- Node2 -->
<g id="node2" class="node"><title>Node2</title>
<polygon fill="none" stroke="#bfbfbf" points="571,-292.5 571,-311.5 615,-311.5 615,-292.5 571,-292.5"/>
<text text-anchor="middle" x="593" y="-299.5" font-family="Helvetica,sans-Serif" font-size="10.00">thread</text>
</g>
<!-- Node1&#45;&gt;Node2 -->
<g id="edge1" class="edge"><title>Node1&#45;&gt;Node2</title>
<path fill="none" stroke="midnightblue" d="M666.808,-348.968C649.665,-338.291 630.295,-326.227 615.7,-317.138"/>
<polygon fill="midnightblue" stroke="midnightblue" points="617.21,-313.955 606.871,-311.639 613.509,-319.896 617.21,-313.955"/>
</g>
<!-- Node3 -->
<g id="node3" class="node"><title>Node3</title>
<polygon fill="none" stroke="#bfbfbf" points="633,-292.5 633,-311.5 679,-311.5 679,-292.5 633,-292.5"/>
<text text-anchor="middle" x="656" y="-299.5" font-family="Helvetica,sans-Serif" font-size="10.00">chrono</text>
</g>
<!-- Node1&#45;&gt;Node3 -->
<g id="edge2" class="edge"><title>Node1&#45;&gt;Node3</title>
<path fill="none" stroke="midnightblue" d="M688.876,-348.768C682.063,-339.284 674.483,-328.731 668.319,-320.15"/>
<polygon fill="midnightblue" stroke="midnightblue" points="670.967,-317.837 662.29,-311.757 665.282,-321.921 670.967,-317.837"/>
</g>
<!-- Node4 -->
<g id="node4" class="node"><title>Node4</title>
<g id="a_node4"><a xlink:href="../../d3/dfe/HeartbeatSampler_8h.html" target="_top" xlink:title="DataFlow/HeartbeatSampler.h">
<polygon fill="none" stroke="black" points="957.5,-292.5 957.5,-311.5 1106.5,-311.5 1106.5,-292.5 957.5,-292.5"/>
<text text-anchor="middle" x="1032" y="-299.5" font-family="Helvetica,sans-Serif" font-size="10.00">DataFlow/HeartbeatSampler.h</text>
</a>
</g>
</g>
<!-- Node1&#45;&gt;Node4 -->
<g id="edge3" class="edge"><title>Node1&#45;&gt;Node4</title>
<path fill="none" stroke="midnightblue" d="M766.232,-361.06C828.411,-347.476 925.032,-326.368 983.048,-313.694"/>
<polygon fill="midnightblue" stroke="midnightblue" points="984.042,-317.06 993.065,-311.506 982.548,-310.221 984.042,-317.06"/>
</g>
<!-- Node24 -->
<g id="node24" class="node"><title>Node24</title>
<g id="a_node24"><a xlink:href="../../d2/d09/HeartbeatFrame_8h.html" target="_top" xlink:title="Headers/HeartbeatFrame.h">
<polygon fill="none" stroke="black" points="1066.5,-236.5 1066.5,-255.5 1201.5,-255.5 1201.5,-236.5 1066.5,-236.5"/>
<text text-anchor="middle" x="1134" y="-243.5" font-family="Helvetica,sans-Serif" font-size="10.00">Headers/HeartbeatFrame.h</text>
</a>
</g>
</g>
<!-- Node1&#45;&gt;Node24 -->
<g id="edge41" class="edge"><title>Node1&#45;&gt;Node24</title>
<path fill="none" stroke="midnightblue" d="M766.137,-372.628C866.463,-369.092 1064.1,-356.514 1115,-312 1128.12,-300.528 1132.41,-280.551 1133.71,-265.763"/>
<polygon fill="midnightblue" stroke="midnightblue" points="1137.21,-265.854 1134.21,-255.693 1130.22,-265.507 1137.21,-265.854"/>
</g>
<!-- Node29 -->
<g id="node29" class="node"><title>Node29</title>
<polygon fill="none" stroke="#bfbfbf" points="425,-180.5 425,-199.5 571,-199.5 571,-180.5 425,-180.5"/>
<text text-anchor="middle" x="498" y="-187.5" font-family="Helvetica,sans-Serif" font-size="10.00">options/FairMQProgOptions.h</text>
</g>
<!-- Node1&#45;&gt;Node29 -->
<g id="edge42" class="edge"><title>Node1&#45;&gt;Node29</title>
<path fill="none" stroke="midnightblue" d="M706.508,-348.743C704.976,-331.228 700.462,-308.225 688,-292 651.268,-244.174 585.313,-216.504 541.594,-202.587"/>
<polygon fill="midnightblue" stroke="midnightblue" points="542.394,-199.171 531.807,-199.582 540.339,-205.863 542.394,-199.171"/>
</g>
<!-- Node5 -->
<g id="node5" class="node"><title>Node5</title>
<g id="a_node5"><a xlink:href="../../dc/dcd/DataHeader_8h.html" target="_top" xlink:title="Headers/DataHeader.h">
<polygon fill="none" stroke="black" points="924.5,-124.5 924.5,-143.5 1041.5,-143.5 1041.5,-124.5 924.5,-124.5"/>
<text text-anchor="middle" x="983" y="-131.5" font-family="Helvetica,sans-Serif" font-size="10.00">Headers/DataHeader.h</text>
</a>
</g>
</g>
<!-- Node4&#45;&gt;Node5 -->
<g id="edge4" class="edge"><title>Node4&#45;&gt;Node5</title>
<path fill="none" stroke="midnightblue" d="M1032.17,-292.434C1032.27,-272.133 1030.85,-219.812 1015,-180 1010.89,-169.666 1003.93,-159.455 997.548,-151.379"/>
<polygon fill="midnightblue" stroke="midnightblue" points="1000.11,-148.984 991.015,-143.548 994.734,-153.469 1000.11,-148.984"/>
</g>
<!-- Node12 -->
<g id="node12" class="node"><title>Node12</title>
<polygon fill="none" stroke="#bfbfbf" points="1208.5,-6.5 1208.5,-25.5 1249.5,-25.5 1249.5,-6.5 1208.5,-6.5"/>
<text text-anchor="middle" x="1229" y="-13.5" font-family="Helvetica,sans-Serif" font-size="10.00">string</text>
</g>
<!-- Node4&#45;&gt;Node12 -->
<g id="edge40" class="edge"><title>Node4&#45;&gt;Node12</title>
<path fill="none" stroke="midnightblue" d="M1076.75,-292.454C1153.72,-276.465 1303,-239.238 1303,-191 1303,-191 1303,-191 1303,-133 1303,-91.5136 1268.94,-52.9293 1247.04,-32.4029"/>
<polygon fill="midnightblue" stroke="midnightblue" points="1249.37,-29.7925 1239.6,-25.6856 1244.68,-34.9866 1249.37,-29.7925"/>
</g>
<!-- Node4&#45;&gt;Node24 -->
<g id="edge25" class="edge"><title>Node4&#45;&gt;Node24</title>
<path fill="none" stroke="midnightblue" d="M1048.39,-292.324C1064.67,-283.703 1089.87,-270.364 1108.72,-260.386"/>
<polygon fill="midnightblue" stroke="midnightblue" points="1110.45,-263.427 1117.65,-255.655 1107.18,-257.24 1110.45,-263.427"/>
</g>
<!-- Node27 -->
<g id="node27" class="node"><title>Node27</title>
<g id="a_node27"><a xlink:href="../../d2/dee/O2Device_8h.html" target="_top" xlink:title="O2Device/O2Device.h">
<polygon fill="none" stroke="black" points="735.5,-236.5 735.5,-255.5 850.5,-255.5 850.5,-236.5 735.5,-236.5"/>
<text text-anchor="middle" x="793" y="-243.5" font-family="Helvetica,sans-Serif" font-size="10.00">O2Device/O2Device.h</text>
</a>
</g>
</g>
<!-- Node4&#45;&gt;Node27 -->
<g id="edge30" class="edge"><title>Node4&#45;&gt;Node27</title>
<path fill="none" stroke="midnightblue" d="M994.13,-292.444C952.524,-283.043 885.631,-267.929 840.531,-257.739"/>
<polygon fill="midnightblue" stroke="midnightblue" points="841.219,-254.306 830.693,-255.516 839.676,-261.134 841.219,-254.306"/>
</g>
<!-- Node6 -->
<g id="node6" class="node"><title>Node6</title>
<polygon fill="none" stroke="#bfbfbf" points="893,-68.5 893,-87.5 939,-87.5 939,-68.5 893,-68.5"/>
<text text-anchor="middle" x="916" y="-75.5" font-family="Helvetica,sans-Serif" font-size="10.00">cstdint</text>
</g>
<!-- Node5&#45;&gt;Node6 -->
<g id="edge5" class="edge"><title>Node5&#45;&gt;Node6</title>
<path fill="none" stroke="midnightblue" d="M972.235,-124.324C962.234,-116.263 947.113,-104.077 935.07,-94.3695"/>
<polygon fill="midnightblue" stroke="midnightblue" points="936.943,-91.3841 926.961,-87.8339 932.55,-96.8343 936.943,-91.3841"/>
</g>
<!-- Node7 -->
<g id="node7" class="node"><title>Node7</title>
<polygon fill="none" stroke="#bfbfbf" points="957,-68.5 957,-87.5 1009,-87.5 1009,-68.5 957,-68.5"/>
<text text-anchor="middle" x="983" y="-75.5" font-family="Helvetica,sans-Serif" font-size="10.00">memory</text>
</g>
<!-- Node5&#45;&gt;Node7 -->
<g id="edge6" class="edge"><title>Node5&#45;&gt;Node7</title>
<path fill="none" stroke="midnightblue" d="M983,-124.083C983,-117.006 983,-106.861 983,-97.9865"/>
<polygon fill="midnightblue" stroke="midnightblue" points="986.5,-97.751 983,-87.7511 979.5,-97.7511 986.5,-97.751"/>
</g>
<!-- Node8 -->
<g id="node8" class="node"><title>Node8</title>
<polygon fill="none" stroke="#bfbfbf" points="1027.5,-68.5 1027.5,-87.5 1076.5,-87.5 1076.5,-68.5 1027.5,-68.5"/>
<text text-anchor="middle" x="1052" y="-75.5" font-family="Helvetica,sans-Serif" font-size="10.00">cassert</text>
</g>
<!-- Node5&#45;&gt;Node8 -->
<g id="edge7" class="edge"><title>Node5&#45;&gt;Node8</title>
<path fill="none" stroke="midnightblue" d="M994.086,-124.324C1004.49,-116.185 1020.26,-103.839 1032.72,-94.0874"/>
<polygon fill="midnightblue" stroke="midnightblue" points="1034.99,-96.7533 1040.71,-87.8339 1030.68,-91.2407 1034.99,-96.7533"/>
</g>
<!-- Node9 -->
<g id="node9" class="node"><title>Node9</title>
<polygon fill="none" stroke="#bfbfbf" points="1082,-6.5 1082,-25.5 1128,-25.5 1128,-6.5 1082,-6.5"/>
<text text-anchor="middle" x="1105" y="-13.5" font-family="Helvetica,sans-Serif" font-size="10.00">cstring</text>
</g>
<!-- Node5&#45;&gt;Node9 -->
<g id="edge8" class="edge"><title>Node5&#45;&gt;Node9</title>
<path fill="none" stroke="midnightblue" d="M1022.07,-124.454C1043.46,-117.87 1068.82,-106.635 1085,-88 1097.7,-73.3706 1102.37,-51.2374 1104.07,-35.5777"/>
<polygon fill="midnightblue" stroke="midnightblue" points="1107.57,-35.7607 1104.86,-25.5191 1100.59,-35.2171 1107.57,-35.7607"/>
</g>
<!-- Node10 -->
<g id="node10" class="node"><title>Node10</title>
<polygon fill="none" stroke="#bfbfbf" points="819,-68.5 819,-87.5 875,-87.5 875,-68.5 819,-68.5"/>
<text text-anchor="middle" x="847" y="-75.5" font-family="Helvetica,sans-Serif" font-size="10.00">algorithm</text>
</g>
<!-- Node5&#45;&gt;Node10 -->
<g id="edge9" class="edge"><title>Node5&#45;&gt;Node10</title>
<path fill="none" stroke="midnightblue" d="M961.45,-124.444C938.969,-115.517 903.512,-101.439 878.02,-91.3168"/>
<polygon fill="midnightblue" stroke="midnightblue" points="879.035,-87.9539 868.449,-87.5164 876.451,-94.4598 879.035,-87.9539"/>
</g>
<!-- Node11 -->
<g id="node11" class="node"><title>Node11</title>
<polygon fill="none" stroke="#bfbfbf" points="741.5,-68.5 741.5,-87.5 800.5,-87.5 800.5,-68.5 741.5,-68.5"/>
<text text-anchor="middle" x="771" y="-75.5" font-family="Helvetica,sans-Serif" font-size="10.00">stdexcept</text>
</g>
<!-- Node5&#45;&gt;Node11 -->
<g id="edge10" class="edge"><title>Node5&#45;&gt;Node11</title>
<path fill="none" stroke="midnightblue" d="M949.408,-124.444C911.709,-114.841 850.603,-99.2763 810.608,-89.0887"/>
<polygon fill="midnightblue" stroke="midnightblue" points="811.227,-85.6347 800.672,-86.558 809.499,-92.4181 811.227,-85.6347"/>
</g>
<!-- Node5&#45;&gt;Node12 -->
<g id="edge11" class="edge"><title>Node5&#45;&gt;Node12</title>
<path fill="none" stroke="midnightblue" d="M1009.94,-124.369C1034.8,-116.081 1072.51,-102.681 1104,-88 1141.31,-70.6049 1182.43,-46.1539 1206.96,-30.9587"/>
<polygon fill="midnightblue" stroke="midnightblue" points="1208.88,-33.8867 1215.51,-25.6222 1205.17,-27.9487 1208.88,-33.8867"/>
</g>
<!-- Node13 -->
<g id="node13" class="node"><title>Node13</title>
<g id="a_node13"><a xlink:href="../../dc/d03/MemoryResources_8h.html" target="_top" xlink:title="MemoryResources/MemoryResources.h">
<polygon fill="none" stroke="black" points="530.5,-68.5 530.5,-87.5 723.5,-87.5 723.5,-68.5 530.5,-68.5"/>
<text text-anchor="middle" x="627" y="-75.5" font-family="Helvetica,sans-Serif" font-size="10.00">MemoryResources/MemoryResources.h</text>
</a>
</g>
</g>
<!-- Node5&#45;&gt;Node13 -->
<g id="edge12" class="edge"><title>Node5&#45;&gt;Node13</title>
<path fill="none" stroke="midnightblue" d="M926.591,-124.444C863.185,-114.826 760.352,-99.2275 693.196,-89.0409"/>
<polygon fill="midnightblue" stroke="midnightblue" points="693.557,-85.5558 683.145,-87.5164 692.507,-92.4766 693.557,-85.5558"/>
</g>
<!-- Node13&#45;&gt;Node9 -->
<g id="edge17" class="edge"><title>Node13&#45;&gt;Node9</title>
<path fill="none" stroke="midnightblue" d="M718.743,-68.4894C844.051,-56.7534 1055.21,-36.5319 1072,-32 1074.5,-31.3254 1077.05,-30.4804 1079.56,-29.5372"/>
<polygon fill="midnightblue" stroke="midnightblue" points="1081.1,-32.6879 1088.94,-25.5656 1078.37,-26.242 1081.1,-32.6879"/>
</g>
<!-- Node13&#45;&gt;Node12 -->
<g id="edge18" class="edge"><title>Node13&#45;&gt;Node12</title>
<path fill="none" stroke="midnightblue" d="M723.688,-68.6817C726.489,-68.4505 729.265,-68.2229 732,-68 939.042,-51.1297 997.462,-86.1815 1198,-32 1200.2,-31.4045 1202.44,-30.6529 1204.65,-29.8049"/>
<polygon fill="midnightblue" stroke="midnightblue" points="1206.27,-32.9155 1213.99,-25.6569 1203.43,-26.5183 1206.27,-32.9155"/>
</g>
<!-- Node14 -->
<g id="node14" class="node"><title>Node14</title>
<polygon fill="none" stroke="#bfbfbf" points="830,-1 830,-31 930,-31 930,-1 830,-1"/>
<text text-anchor="start" x="838" y="-19" font-family="Helvetica,sans-Serif" font-size="10.00">boost/container/flat</text>
<text text-anchor="middle" x="880" y="-8" font-family="Helvetica,sans-Serif" font-size="10.00">_map.hpp</text>
</g>
<!-- Node13&#45;&gt;Node14 -->
<g id="edge13" class="edge"><title>Node13&#45;&gt;Node14</title>
<path fill="none" stroke="midnightblue" d="M664.402,-68.465C703.313,-59.5418 765.988,-45.0473 820,-32 820.101,-31.9756 820.202,-31.9511 820.304,-31.9266"/>
<polygon fill="midnightblue" stroke="midnightblue" points="821.037,-35.3503 829.924,-29.5822 819.38,-28.5494 821.037,-35.3503"/>
</g>
<!-- Node15 -->
<g id="node15" class="node"><title>Node15</title>
<polygon fill="none" stroke="#bfbfbf" points="948,-1 948,-31 1064,-31 1064,-1 948,-1"/>
<text text-anchor="start" x="956" y="-19" font-family="Helvetica,sans-Serif" font-size="10.00">boost/container/pmr</text>
<text text-anchor="middle" x="1006" y="-8" font-family="Helvetica,sans-Serif" font-size="10.00">/memory_resource.hpp</text>
</g>
<!-- Node13&#45;&gt;Node15 -->
<g id="edge14" class="edge"><title>Node13&#45;&gt;Node15</title>
<path fill="none" stroke="midnightblue" d="M696.954,-68.4767C758.061,-60.6732 849.356,-48.1539 937.996,-32.103"/>
<polygon fill="midnightblue" stroke="midnightblue" points="938.744,-35.5244 947.951,-30.2831 937.485,-28.6385 938.744,-35.5244"/>
</g>
<!-- Node16 -->
<g id="node16" class="node"><title>Node16</title>
<polygon fill="none" stroke="#bfbfbf" points="58,-1 58,-31 214,-31 214,-1 58,-1"/>
<text text-anchor="start" x="66" y="-19" font-family="Helvetica,sans-Serif" font-size="10.00">boost/container/pmr</text>
<text text-anchor="middle" x="136" y="-8" font-family="Helvetica,sans-Serif" font-size="10.00">/monotonic_buffer_resource.hpp</text>
</g>
<!-- Node13&#45;&gt;Node16 -->
<g id="edge15" class="edge"><title>Node13&#45;&gt;Node16</title>
<path fill="none" stroke="midnightblue" d="M536.549,-68.4872C456.946,-60.6353 337.667,-47.9978 224.453,-32.1564"/>
<polygon fill="midnightblue" stroke="midnightblue" points="224.611,-28.6441 214.22,-30.7134 223.633,-35.5755 224.611,-28.6441"/>
</g>
<!-- Node17 -->
<g id="node17" class="node"><title>Node17</title>
<polygon fill="none" stroke="#bfbfbf" points="232.5,-1 232.5,-31 365.5,-31 365.5,-1 232.5,-1"/>
<text text-anchor="start" x="240.5" y="-19" font-family="Helvetica,sans-Serif" font-size="10.00">boost/container/pmr</text>
<text text-anchor="middle" x="299" y="-8" font-family="Helvetica,sans-Serif" font-size="10.00">/polymorphic_allocator.hpp</text>
</g>
<!-- Node13&#45;&gt;Node17 -->
<g id="edge16" class="edge"><title>Node13&#45;&gt;Node17</title>
<path fill="none" stroke="midnightblue" d="M577.699,-68.4688C529.047,-59.9888 452.271,-46.4435 375.985,-32.1657"/>
<polygon fill="midnightblue" stroke="midnightblue" points="376.189,-28.643 365.715,-30.2385 374.898,-35.5229 376.189,-28.643"/>
</g>
<!-- Node18 -->
<g id="node18" class="node"><title>Node18</title>
<polygon fill="none" stroke="#bfbfbf" points="384,-6.5 384,-25.5 446,-25.5 446,-6.5 384,-6.5"/>
<text text-anchor="middle" x="415" y="-13.5" font-family="Helvetica,sans-Serif" font-size="10.00">type_traits</text>
</g>
<!-- Node13&#45;&gt;Node18 -->
<g id="edge19" class="edge"><title>Node13&#45;&gt;Node18</title>
<path fill="none" stroke="midnightblue" d="M589.778,-68.4331C554.726,-60.0903 500.895,-46.5665 455,-32 452.055,-31.0654 449.01,-30.0377 445.974,-28.9721"/>
<polygon fill="midnightblue" stroke="midnightblue" points="447.042,-25.6361 436.448,-25.5063 444.648,-32.2143 447.042,-25.6361"/>
</g>
<!-- Node19 -->
<g id="node19" class="node"><title>Node19</title>
<polygon fill="none" stroke="#bfbfbf" points="0,-6.5 0,-25.5 40,-25.5 40,-6.5 0,-6.5"/>
<text text-anchor="middle" x="20" y="-13.5" font-family="Helvetica,sans-Serif" font-size="10.00">utility</text>
</g>
<!-- Node13&#45;&gt;Node19 -->
<g id="edge20" class="edge"><title>Node13&#45;&gt;Node19</title>
<path fill="none" stroke="midnightblue" d="M530.44,-69.1477C525.557,-68.7578 520.722,-68.3734 516,-68 308.477,-51.5882 249.228,-88.957 49,-32 47.0373,-31.4417 45.0531,-30.7438 43.0922,-29.9565"/>
<polygon fill="midnightblue" stroke="midnightblue" points="44.227,-26.6215 33.6907,-25.5091 41.2336,-32.9492 44.227,-26.6215"/>
</g>
<!-- Node20 -->
<g id="node20" class="node"><title>Node20</title>
<polygon fill="none" stroke="#bfbfbf" points="1146,-6.5 1146,-25.5 1190,-25.5 1190,-6.5 1146,-6.5"/>
<text text-anchor="middle" x="1168" y="-13.5" font-family="Helvetica,sans-Serif" font-size="10.00">vector</text>
</g>
<!-- Node13&#45;&gt;Node20 -->
<g id="edge21" class="edge"><title>Node13&#45;&gt;Node20</title>
<path fill="none" stroke="midnightblue" d="M723.567,-68.6977C870.051,-56.0736 1132.07,-33.3618 1137,-32 1139.2,-31.3925 1141.43,-30.6324 1143.64,-29.7789"/>
<polygon fill="midnightblue" stroke="midnightblue" points="1145.27,-32.8872 1152.98,-25.6214 1142.42,-26.4928 1145.27,-32.8872"/>
</g>
<!-- Node21 -->
<g id="node21" class="node"><title>Node21</title>
<polygon fill="none" stroke="#bfbfbf" points="464.5,-6.5 464.5,-25.5 547.5,-25.5 547.5,-6.5 464.5,-6.5"/>
<text text-anchor="middle" x="506" y="-13.5" font-family="Helvetica,sans-Serif" font-size="10.00">unordered_map</text>
</g>
<!-- Node13&#45;&gt;Node21 -->
<g id="edge22" class="edge"><title>Node13&#45;&gt;Node21</title>
<path fill="none" stroke="midnightblue" d="M609.664,-68.4035C589.447,-58.3787 555.813,-41.7006 532.358,-30.0699"/>
<polygon fill="midnightblue" stroke="midnightblue" points="533.818,-26.8875 523.304,-25.5806 530.708,-33.1588 533.818,-26.8875"/>
</g>
<!-- Node22 -->
<g id="node22" class="node"><title>Node22</title>
<polygon fill="none" stroke="#bfbfbf" points="565.5,-6.5 565.5,-25.5 662.5,-25.5 662.5,-6.5 565.5,-6.5"/>
<text text-anchor="middle" x="614" y="-13.5" font-family="Helvetica,sans-Serif" font-size="10.00">FairMQMessage.h</text>
</g>
<!-- Node13&#45;&gt;Node22 -->
<g id="edge23" class="edge"><title>Node13&#45;&gt;Node22</title>
<path fill="none" stroke="midnightblue" d="M625.137,-68.4035C623.284,-59.849 620.381,-46.4497 618.003,-35.4762"/>
<polygon fill="midnightblue" stroke="midnightblue" points="621.397,-34.6127 615.859,-25.5806 614.556,-36.095 621.397,-34.6127"/>
</g>
<!-- Node23 -->
<g id="node23" class="node"><title>Node23</title>
<polygon fill="none" stroke="#bfbfbf" points="680.5,-6.5 680.5,-25.5 811.5,-25.5 811.5,-6.5 680.5,-6.5"/>
<text text-anchor="middle" x="746" y="-13.5" font-family="Helvetica,sans-Serif" font-size="10.00">FairMQTransportFactory.h</text>
</g>
<!-- Node13&#45;&gt;Node23 -->
<g id="edge24" class="edge"><title>Node13&#45;&gt;Node23</title>
<path fill="none" stroke="midnightblue" d="M644.05,-68.4035C663.844,-58.4232 696.717,-41.8487 719.77,-30.2253"/>
<polygon fill="midnightblue" stroke="midnightblue" points="721.628,-33.208 728.982,-25.5806 718.477,-26.9575 721.628,-33.208"/>
</g>
<!-- Node24&#45;&gt;Node5 -->
<g id="edge26" class="edge"><title>Node24&#45;&gt;Node5</title>
<path fill="none" stroke="midnightblue" d="M1123.14,-236.393C1107.12,-223.762 1076.11,-199.582 1049,-180 1034.53,-169.544 1017.92,-158.223 1004.98,-149.552"/>
<polygon fill="midnightblue" stroke="midnightblue" points="1006.56,-146.395 996.295,-143.756 1002.67,-152.218 1006.56,-146.395"/>
</g>
<!-- Node24&#45;&gt;Node20 -->
<g id="edge29" class="edge"><title>Node24&#45;&gt;Node20</title>
<path fill="none" stroke="midnightblue" d="M1135.29,-236.341C1140.27,-202.976 1158.26,-82.2946 1165.22,-35.615"/>
<polygon fill="midnightblue" stroke="midnightblue" points="1168.69,-36.075 1166.71,-25.6681 1161.77,-35.0425 1168.69,-36.075"/>
</g>
<!-- Node25 -->
<g id="node25" class="node"><title>Node25</title>
<polygon fill="none" stroke="#bfbfbf" points="1215.5,-180.5 1215.5,-199.5 1274.5,-199.5 1274.5,-180.5 1215.5,-180.5"/>
<text text-anchor="middle" x="1245" y="-187.5" font-family="Helvetica,sans-Serif" font-size="10.00">functional</text>
</g>
<!-- Node24&#45;&gt;Node25 -->
<g id="edge27" class="edge"><title>Node24&#45;&gt;Node25</title>
<path fill="none" stroke="midnightblue" d="M1151.83,-236.324C1169.72,-227.625 1197.48,-214.12 1218.05,-204.113"/>
<polygon fill="midnightblue" stroke="midnightblue" points="1219.75,-207.177 1227.21,-199.655 1216.69,-200.882 1219.75,-207.177"/>
</g>
<!-- Node26 -->
<g id="node26" class="node"><title>Node26</title>
<polygon fill="none" stroke="#bfbfbf" points="1162.5,-180.5 1162.5,-199.5 1197.5,-199.5 1197.5,-180.5 1162.5,-180.5"/>
<text text-anchor="middle" x="1180" y="-187.5" font-family="Helvetica,sans-Serif" font-size="10.00">map</text>
</g>
<!-- Node24&#45;&gt;Node26 -->
<g id="edge28" class="edge"><title>Node24&#45;&gt;Node26</title>
<path fill="none" stroke="midnightblue" d="M1141.6,-236.083C1148.23,-228.298 1158.02,-216.801 1166.06,-207.367"/>
<polygon fill="midnightblue" stroke="midnightblue" points="1168.73,-209.633 1172.55,-199.751 1163.4,-205.094 1168.73,-209.633"/>
</g>
<!-- Node27&#45;&gt;Node11 -->
<g id="edge39" class="edge"><title>Node27&#45;&gt;Node11</title>
<path fill="none" stroke="midnightblue" d="M776.666,-236.387C764.045,-228.72 747.503,-216.213 740,-200 723.831,-165.06 744.998,-120.387 759.492,-96.2849"/>
<polygon fill="midnightblue" stroke="midnightblue" points="762.613,-97.8988 764.988,-87.5737 756.692,-94.1638 762.613,-97.8988"/>
</g>
<!-- Node28 -->
<g id="node28" class="node"><title>Node28</title>
<polygon fill="none" stroke="#bfbfbf" points="749,-180.5 749,-199.5 837,-199.5 837,-180.5 749,-180.5"/>
<text text-anchor="middle" x="793" y="-187.5" font-family="Helvetica,sans-Serif" font-size="10.00">FairMQDevice.h</text>
</g>
<!-- Node27&#45;&gt;Node28 -->
<g id="edge31" class="edge"><title>Node27&#45;&gt;Node28</title>
<path fill="none" stroke="midnightblue" d="M793,-236.083C793,-229.006 793,-218.861 793,-209.986"/>
<polygon fill="midnightblue" stroke="midnightblue" points="796.5,-209.751 793,-199.751 789.5,-209.751 796.5,-209.751"/>
</g>
<!-- Node27&#45;&gt;Node29 -->
<g id="edge32" class="edge"><title>Node27&#45;&gt;Node29</title>
<path fill="none" stroke="midnightblue" d="M746.256,-236.444C694.255,-226.925 610.249,-211.547 554.576,-201.356"/>
<polygon fill="midnightblue" stroke="midnightblue" points="554.992,-197.874 544.525,-199.516 553.731,-204.76 554.992,-197.874"/>
</g>
<!-- Node30 -->
<g id="node30" class="node"><title>Node30</title>
<g id="a_node30"><a xlink:href="../../d7/db2/Utilities_8h.html" target="_top" xlink:title="O2Device/Utilities.h">
<polygon fill="none" stroke="black" points="589,-180.5 589,-199.5 693,-199.5 693,-180.5 589,-180.5"/>
<text text-anchor="middle" x="641" y="-187.5" font-family="Helvetica,sans-Serif" font-size="10.00">O2Device/Utilities.h</text>
</a>
</g>
</g>
<!-- Node27&#45;&gt;Node30 -->
<g id="edge33" class="edge"><title>Node27&#45;&gt;Node30</title>
<path fill="none" stroke="midnightblue" d="M768.915,-236.444C743.455,-227.399 703.106,-213.064 674.541,-202.916"/>
<polygon fill="midnightblue" stroke="midnightblue" points="675.567,-199.566 664.972,-199.516 673.223,-206.162 675.567,-199.566"/>
</g>
<!-- Node32 -->
<g id="node32" class="node"><title>Node32</title>
<polygon fill="none" stroke="#bfbfbf" points="855.5,-180.5 855.5,-199.5 1006.5,-199.5 1006.5,-180.5 855.5,-180.5"/>
<text text-anchor="middle" x="931" y="-187.5" font-family="Helvetica,sans-Serif" font-size="10.00">Monitoring/MonitoringFactory.h</text>
</g>
<!-- Node27&#45;&gt;Node32 -->
<g id="edge38" class="edge"><title>Node27&#45;&gt;Node32</title>
<path fill="none" stroke="midnightblue" d="M814.867,-236.444C837.779,-227.478 873.975,-213.314 899.866,-203.183"/>
<polygon fill="midnightblue" stroke="midnightblue" points="901.199,-206.42 909.236,-199.516 898.648,-199.901 901.199,-206.42"/>
</g>
<!-- Node30&#45;&gt;Node5 -->
<g id="edge35" class="edge"><title>Node30&#45;&gt;Node5</title>
<path fill="none" stroke="midnightblue" d="M693.315,-180.74C753.882,-171.177 853.647,-155.424 918.842,-145.13"/>
<polygon fill="midnightblue" stroke="midnightblue" points="919.665,-148.544 928.997,-143.527 918.574,-141.629 919.665,-148.544"/>
</g>
<!-- Node30&#45;&gt;Node13 -->
<g id="edge34" class="edge"><title>Node30&#45;&gt;Node13</title>
<path fill="none" stroke="midnightblue" d="M639.901,-180.368C637.642,-162.617 632.43,-121.666 629.367,-97.5974"/>
<polygon fill="midnightblue" stroke="midnightblue" points="632.828,-97.0695 628.093,-87.5914 625.884,-97.9533 632.828,-97.0695"/>
</g>
<!-- Node30&#45;&gt;Node19 -->
<g id="edge36" class="edge"><title>Node30&#45;&gt;Node19</title>
<path fill="none" stroke="midnightblue" d="M622.788,-180.299C593.638,-166.663 534.442,-140.148 482,-124 293.972,-66.1007 234.257,-98.2316 49,-32 47.3487,-31.4096 45.673,-30.7429 44.0029,-30.0269"/>
<polygon fill="midnightblue" stroke="midnightblue" points="45.2387,-26.7381 34.7078,-25.5754 42.2151,-33.0514 45.2387,-26.7381"/>
</g>
<!-- Node31 -->
<g id="node31" class="node"><title>Node31</title>
<polygon fill="none" stroke="#bfbfbf" points="428.5,-124.5 428.5,-143.5 473.5,-143.5 473.5,-124.5 428.5,-124.5"/>
<text text-anchor="middle" x="451" y="-131.5" font-family="Helvetica,sans-Serif" font-size="10.00">gsl/gsl</text>
</g>
<!-- Node30&#45;&gt;Node31 -->
<g id="edge37" class="edge"><title>Node30&#45;&gt;Node31</title>
<path fill="none" stroke="midnightblue" d="M610.894,-180.444C576.132,-170.564 519.166,-154.373 483.444,-144.221"/>
<polygon fill="midnightblue" stroke="midnightblue" points="484.104,-140.77 473.528,-141.403 482.19,-147.503 484.104,-140.77"/>
</g>
</g>
</svg>
