<?xml version="1.0" encoding="UTF-8" standalone="no"?>
<!DOCTYPE svg PUBLIC "-//W3C//DTD SVG 1.1//EN"
 "http://www.w3.org/Graphics/SVG/1.1/DTD/svg11.dtd">
<!-- Generated by graphviz version 2.36.0 (20140111.2315)
 -->
<!-- Title: /home/travis/build/AliceO2Group/AliceO2/Utilities/DataFlow/src/FakeTimeframeBuilder.cxx Pages: 1 -->
<svg width="1376pt" height="354pt"
 viewBox="0.00 0.00 1376.00 354.00" xmlns="http://www.w3.org/2000/svg" xmlns:xlink="http://www.w3.org/1999/xlink">
<g id="graph0" class="graph" transform="scale(1 1) rotate(0) translate(4 350)">
<title>/home/travis/build/AliceO2Group/AliceO2/Utilities/DataFlow/src/FakeTimeframeBuilder.cxx</title>
<!-- Node1 -->
<g id="node1" class="node"><title>Node1</title>
<polygon fill="#bfbfbf" stroke="black" points="913.5,-293 913.5,-345 1050.5,-345 1050.5,-293 913.5,-293"/>
<text text-anchor="start" x="921.5" y="-333" font-family="Helvetica,sans-Serif" font-size="10.00">/home/travis/build</text>
<text text-anchor="start" x="921.5" y="-322" font-family="Helvetica,sans-Serif" font-size="10.00">/AliceO2Group/AliceO2</text>
<text text-anchor="start" x="921.5" y="-311" font-family="Helvetica,sans-Serif" font-size="10.00">/Utilities/DataFlow/src</text>
<text text-anchor="middle" x="982" y="-300" font-family="Helvetica,sans-Serif" font-size="10.00">/FakeTimeframeBuilder.cxx</text>
</g>
<!-- Node2 -->
<g id="node2" class="node"><title>Node2</title>
<g id="a_node2"><a xlink:href="../../dd/d1a/FakeTimeframeBuilder_8h.html" target="_top" xlink:title="DataFlow/FakeTimeframeBuilder.h">
<polygon fill="none" stroke="black" points="786,-180.5 786,-199.5 954,-199.5 954,-180.5 786,-180.5"/>
<text text-anchor="middle" x="870" y="-187.5" font-family="Helvetica,sans-Serif" font-size="10.00">DataFlow/FakeTimeframeBuilder.h</text>
</a>
</g>
</g>
<!-- Node1&#45;&gt;Node2 -->
<g id="edge1" class="edge"><title>Node1&#45;&gt;Node2</title>
<path fill="none" stroke="midnightblue" d="M959.872,-292.909C937.473,-267.51 903.493,-228.978 884.375,-207.3"/>
<polygon fill="midnightblue" stroke="midnightblue" points="886.848,-204.813 877.609,-199.628 881.598,-209.443 886.848,-204.813"/>
</g>
<!-- Node3 -->
<g id="node3" class="node"><title>Node3</title>
<g id="a_node3"><a xlink:href="../../dc/dcd/DataHeader_8h.html" target="_top" xlink:title="Headers/DataHeader.h">
<polygon fill="none" stroke="black" points="699.5,-124.5 699.5,-143.5 816.5,-143.5 816.5,-124.5 699.5,-124.5"/>
<text text-anchor="middle" x="758" y="-131.5" font-family="Helvetica,sans-Serif" font-size="10.00">Headers/DataHeader.h</text>
</a>
</g>
</g>
<!-- Node1&#45;&gt;Node3 -->
<g id="edge34" class="edge"><title>Node1&#45;&gt;Node3</title>
<path fill="none" stroke="midnightblue" d="M913.328,-294.086C868.455,-275.13 811.906,-244.383 777,-200 766.562,-186.729 761.856,-167.892 759.735,-153.911"/>
<polygon fill="midnightblue" stroke="midnightblue" points="763.205,-153.445 758.529,-143.938 756.255,-154.286 763.205,-153.445"/>
</g>
<!-- Node7 -->
<g id="node7" class="node"><title>Node7</title>
<polygon fill="none" stroke="#bfbfbf" points="0,-6.5 0,-25.5 46,-25.5 46,-6.5 0,-6.5"/>
<text text-anchor="middle" x="23" y="-13.5" font-family="Helvetica,sans-Serif" font-size="10.00">cstring</text>
</g>
<!-- Node1&#45;&gt;Node7 -->
<g id="edge38" class="edge"><title>Node1&#45;&gt;Node7</title>
<path fill="none" stroke="midnightblue" d="M913.427,-315.396C705.139,-306.585 94,-273.686 94,-191 94,-191 94,-191 94,-133 94,-91.9635 61.2763,-53.1818 40.2608,-32.507"/>
<polygon fill="midnightblue" stroke="midnightblue" points="42.5375,-29.8425 32.8722,-25.5028 37.7216,-34.9227 42.5375,-29.8425"/>
</g>
<!-- Node10 -->
<g id="node10" class="node"><title>Node10</title>
<polygon fill="none" stroke="#bfbfbf" points="1066.5,-6.5 1066.5,-25.5 1107.5,-25.5 1107.5,-6.5 1066.5,-6.5"/>
<text text-anchor="middle" x="1087" y="-13.5" font-family="Helvetica,sans-Serif" font-size="10.00">string</text>
</g>
<!-- Node1&#45;&gt;Node10 -->
<g id="edge35" class="edge"><title>Node1&#45;&gt;Node10</title>
<path fill="none" stroke="midnightblue" d="M990.772,-292.855C1011.43,-233.627 1062.76,-86.4756 1080.7,-35.0703"/>
<polygon fill="midnightblue" stroke="midnightblue" points="1084,-36.2152 1083.99,-25.6203 1077.39,-33.9095 1084,-36.2152"/>
</g>
<!-- Node18 -->
<g id="node18" class="node"><title>Node18</title>
<polygon fill="none" stroke="#bfbfbf" points="1206,-6.5 1206,-25.5 1250,-25.5 1250,-6.5 1206,-6.5"/>
<text text-anchor="middle" x="1228" y="-13.5" font-family="Helvetica,sans-Serif" font-size="10.00">vector</text>
</g>
<!-- Node1&#45;&gt;Node18 -->
<g id="edge36" class="edge"><title>Node1&#45;&gt;Node18</title>
<path fill="none" stroke="midnightblue" d="M1050.56,-309.732C1161.49,-294.423 1368,-257.05 1368,-191 1368,-191 1368,-191 1368,-133 1368,-77.1578 1301.14,-43.0985 1259.83,-27.3839"/>
<polygon fill="midnightblue" stroke="midnightblue" points="1260.78,-24.0044 1250.18,-23.869 1258.38,-30.5814 1260.78,-24.0044"/>
</g>
<!-- Node22 -->
<g id="node22" class="node"><title>Node22</title>
<polygon fill="none" stroke="#bfbfbf" points="929.5,-124.5 929.5,-143.5 988.5,-143.5 988.5,-124.5 929.5,-124.5"/>
<text text-anchor="middle" x="959" y="-131.5" font-family="Helvetica,sans-Serif" font-size="10.00">functional</text>
</g>
<!-- Node1&#45;&gt;Node22 -->
<g id="edge37" class="edge"><title>Node1&#45;&gt;Node22</title>
<path fill="none" stroke="midnightblue" d="M978.85,-292.938C974.184,-255.811 965.538,-187.02 961.369,-153.851"/>
<polygon fill="midnightblue" stroke="midnightblue" points="964.815,-153.2 960.095,-143.715 957.87,-154.073 964.815,-153.2"/>
</g>
<!-- Node23 -->
<g id="node23" class="node"><title>Node23</title>
<g id="a_node23"><a xlink:href="../../de/dfa/TimeFrame_8h.html" target="_top" xlink:title="TimeFrame/TimeFrame.h">
<polygon fill="none" stroke="black" points="1103.5,-236.5 1103.5,-255.5 1230.5,-255.5 1230.5,-236.5 1103.5,-236.5"/>
<text text-anchor="middle" x="1167" y="-243.5" font-family="Helvetica,sans-Serif" font-size="10.00">TimeFrame/TimeFrame.h</text>
</a>
</g>
</g>
<!-- Node1&#45;&gt;Node23 -->
<g id="edge26" class="edge"><title>Node1&#45;&gt;Node23</title>
<path fill="none" stroke="midnightblue" d="M1047.22,-292.968C1077.03,-281.529 1110.99,-268.497 1135.11,-259.237"/>
<polygon fill="midnightblue" stroke="midnightblue" points="1136.41,-262.49 1144.49,-255.639 1133.9,-255.954 1136.41,-262.49"/>
</g>
<!-- Node2&#45;&gt;Node3 -->
<g id="edge2" class="edge"><title>Node2&#45;&gt;Node3</title>
<path fill="none" stroke="midnightblue" d="M852.005,-180.324C833.962,-171.625 805.953,-158.12 785.197,-148.113"/>
<polygon fill="midnightblue" stroke="midnightblue" points="786.478,-144.845 775.95,-143.655 783.438,-151.15 786.478,-144.845"/>
</g>
<!-- Node5 -->
<g id="node5" class="node"><title>Node5</title>
<polygon fill="none" stroke="#bfbfbf" points="837,-68.5 837,-87.5 889,-87.5 889,-68.5 837,-68.5"/>
<text text-anchor="middle" x="863" y="-75.5" font-family="Helvetica,sans-Serif" font-size="10.00">memory</text>
</g>
<!-- Node2&#45;&gt;Node5 -->
<g id="edge24" class="edge"><title>Node2&#45;&gt;Node5</title>
<path fill="none" stroke="midnightblue" d="M869.451,-180.368C868.321,-162.617 865.715,-121.666 864.183,-97.5974"/>
<polygon fill="midnightblue" stroke="midnightblue" points="867.675,-97.3489 863.547,-87.5914 860.689,-97.7935 867.675,-97.3489"/>
</g>
<!-- Node2&#45;&gt;Node18 -->
<g id="edge23" class="edge"><title>Node2&#45;&gt;Node18</title>
<path fill="none" stroke="midnightblue" d="M874.575,-180.071C882.164,-166.122 898.655,-139.187 920,-124 1025.35,-49.0368 1075.92,-79.966 1196,-32 1197.65,-31.3428 1199.33,-30.643 1201.01,-29.9186"/>
<polygon fill="midnightblue" stroke="midnightblue" points="1202.87,-32.9204 1210.56,-25.6257 1200,-26.5367 1202.87,-32.9204"/>
</g>
<!-- Node2&#45;&gt;Node22 -->
<g id="edge25" class="edge"><title>Node2&#45;&gt;Node22</title>
<path fill="none" stroke="midnightblue" d="M884.299,-180.324C898.183,-171.9 919.492,-158.971 935.804,-149.074"/>
<polygon fill="midnightblue" stroke="midnightblue" points="938.002,-151.834 944.736,-143.655 934.371,-145.85 938.002,-151.834"/>
</g>
<!-- Node4 -->
<g id="node4" class="node"><title>Node4</title>
<polygon fill="none" stroke="#bfbfbf" points="372,-68.5 372,-87.5 418,-87.5 418,-68.5 372,-68.5"/>
<text text-anchor="middle" x="395" y="-75.5" font-family="Helvetica,sans-Serif" font-size="10.00">cstdint</text>
</g>
<!-- Node3&#45;&gt;Node4 -->
<g id="edge3" class="edge"><title>Node3&#45;&gt;Node4</title>
<path fill="none" stroke="midnightblue" d="M699.285,-127.51C634.931,-120.936 528.536,-108.433 428.316,-88.0296"/>
<polygon fill="midnightblue" stroke="midnightblue" points="428.828,-84.5615 418.326,-85.965 427.411,-91.4166 428.828,-84.5615"/>
</g>
<!-- Node3&#45;&gt;Node5 -->
<g id="edge4" class="edge"><title>Node3&#45;&gt;Node5</title>
<path fill="none" stroke="midnightblue" d="M774.87,-124.324C791.709,-115.664 817.807,-102.242 837.238,-92.249"/>
<polygon fill="midnightblue" stroke="midnightblue" points="838.88,-95.3405 846.172,-87.6545 835.678,-89.1155 838.88,-95.3405"/>
</g>
<!-- Node6 -->
<g id="node6" class="node"><title>Node6</title>
<polygon fill="none" stroke="#bfbfbf" points="907.5,-68.5 907.5,-87.5 956.5,-87.5 956.5,-68.5 907.5,-68.5"/>
<text text-anchor="middle" x="932" y="-75.5" font-family="Helvetica,sans-Serif" font-size="10.00">cassert</text>
</g>
<!-- Node3&#45;&gt;Node6 -->
<g id="edge5" class="edge"><title>Node3&#45;&gt;Node6</title>
<path fill="none" stroke="midnightblue" d="M785.571,-124.444C815.966,-115.011 864.899,-99.8245 897.736,-89.6337"/>
<polygon fill="midnightblue" stroke="midnightblue" points="898.858,-92.9501 907.371,-86.6433 896.783,-86.2647 898.858,-92.9501"/>
</g>
<!-- Node3&#45;&gt;Node7 -->
<g id="edge6" class="edge"><title>Node3&#45;&gt;Node7</title>
<path fill="none" stroke="midnightblue" d="M699.129,-131.112C576.479,-125.767 285.806,-105.703 55,-32 52.863,-31.3176 50.6836,-30.5241 48.5177,-29.6653"/>
<polygon fill="midnightblue" stroke="midnightblue" points="49.8446,-26.4255 39.2802,-25.6228 47.0382,-32.8384 49.8446,-26.4255"/>
</g>
<!-- Node8 -->
<g id="node8" class="node"><title>Node8</title>
<polygon fill="none" stroke="#bfbfbf" points="436,-68.5 436,-87.5 492,-87.5 492,-68.5 436,-68.5"/>
<text text-anchor="middle" x="464" y="-75.5" font-family="Helvetica,sans-Serif" font-size="10.00">algorithm</text>
</g>
<!-- Node3&#45;&gt;Node8 -->
<g id="edge7" class="edge"><title>Node3&#45;&gt;Node8</title>
<path fill="none" stroke="midnightblue" d="M703.156,-124.461C653.229,-116.448 577.265,-103.657 502.324,-88.1717"/>
<polygon fill="midnightblue" stroke="midnightblue" points="502.742,-84.6837 492.239,-86.0698 501.314,-91.5365 502.742,-84.6837"/>
</g>
<!-- Node9 -->
<g id="node9" class="node"><title>Node9</title>
<polygon fill="none" stroke="#bfbfbf" points="510.5,-68.5 510.5,-87.5 569.5,-87.5 569.5,-68.5 510.5,-68.5"/>
<text text-anchor="middle" x="540" y="-75.5" font-family="Helvetica,sans-Serif" font-size="10.00">stdexcept</text>
</g>
<!-- Node3&#45;&gt;Node9 -->
<g id="edge8" class="edge"><title>Node3&#45;&gt;Node9</title>
<path fill="none" stroke="midnightblue" d="M723.457,-124.444C684.388,-114.766 620.87,-99.0321 579.766,-88.8503"/>
<polygon fill="midnightblue" stroke="midnightblue" points="580.375,-85.3956 569.827,-86.3884 578.692,-92.1902 580.375,-85.3956"/>
</g>
<!-- Node3&#45;&gt;Node10 -->
<g id="edge9" class="edge"><title>Node3&#45;&gt;Node10</title>
<path fill="none" stroke="midnightblue" d="M764.616,-124.103C775.876,-109.688 800.258,-81.4863 828,-68 920.264,-23.1476 958.104,-62.6728 1056,-32 1058.13,-31.3319 1060.3,-30.5391 1062.45,-29.6724"/>
<polygon fill="midnightblue" stroke="midnightblue" points="1063.92,-32.8534 1071.6,-25.5558 1061.04,-26.4708 1063.92,-32.8534"/>
</g>
<!-- Node11 -->
<g id="node11" class="node"><title>Node11</title>
<g id="a_node11"><a xlink:href="../../dc/d03/MemoryResources_8h.html" target="_top" xlink:title="MemoryResources/MemoryResources.h">
<polygon fill="none" stroke="black" points="587.5,-68.5 587.5,-87.5 780.5,-87.5 780.5,-68.5 587.5,-68.5"/>
<text text-anchor="middle" x="684" y="-75.5" font-family="Helvetica,sans-Serif" font-size="10.00">MemoryResources/MemoryResources.h</text>
</a>
</g>
</g>
<!-- Node3&#45;&gt;Node11 -->
<g id="edge10" class="edge"><title>Node3&#45;&gt;Node11</title>
<path fill="none" stroke="midnightblue" d="M746.111,-124.324C734.85,-116.107 717.713,-103.602 704.291,-93.8069"/>
<polygon fill="midnightblue" stroke="midnightblue" points="706.247,-90.9014 696.106,-87.8339 702.12,-96.5559 706.247,-90.9014"/>
</g>
<!-- Node11&#45;&gt;Node7 -->
<g id="edge15" class="edge"><title>Node11&#45;&gt;Node7</title>
<path fill="none" stroke="midnightblue" d="M587.242,-68.7206C584.126,-68.4744 581.038,-68.2335 578,-68 345.691,-50.1436 280.546,-90.4405 55,-32 52.5054,-31.3536 49.968,-30.5156 47.4691,-29.5662"/>
<polygon fill="midnightblue" stroke="midnightblue" points="48.7586,-26.3103 38.1931,-25.5226 45.9613,-32.7271 48.7586,-26.3103"/>
</g>
<!-- Node11&#45;&gt;Node10 -->
<g id="edge16" class="edge"><title>Node11&#45;&gt;Node10</title>
<path fill="none" stroke="midnightblue" d="M780.636,-68.9457C873.235,-60.572 1006.06,-46.6584 1056,-32 1058.19,-31.3569 1060.42,-30.5719 1062.62,-29.7017"/>
<polygon fill="midnightblue" stroke="midnightblue" points="1064.26,-32.8038 1071.95,-25.5163 1061.39,-26.4174 1064.26,-32.8038"/>
</g>
<!-- Node12 -->
<g id="node12" class="node"><title>Node12</title>
<polygon fill="none" stroke="#bfbfbf" points="814,-1 814,-31 914,-31 914,-1 814,-1"/>
<text text-anchor="start" x="822" y="-19" font-family="Helvetica,sans-Serif" font-size="10.00">boost/container/flat</text>
<text text-anchor="middle" x="864" y="-8" font-family="Helvetica,sans-Serif" font-size="10.00">_map.hpp</text>
</g>
<!-- Node11&#45;&gt;Node12 -->
<g id="edge11" class="edge"><title>Node11&#45;&gt;Node12</title>
<path fill="none" stroke="midnightblue" d="M709.79,-68.4035C736.421,-59.5263 778.704,-45.4321 812.264,-34.2453"/>
<polygon fill="midnightblue" stroke="midnightblue" points="813.544,-37.5081 821.924,-31.0253 811.33,-30.8673 813.544,-37.5081"/>
</g>
<!-- Node13 -->
<g id="node13" class="node"><title>Node13</title>
<polygon fill="none" stroke="#bfbfbf" points="932,-1 932,-31 1048,-31 1048,-1 932,-1"/>
<text text-anchor="start" x="940" y="-19" font-family="Helvetica,sans-Serif" font-size="10.00">boost/container/pmr</text>
<text text-anchor="middle" x="990" y="-8" font-family="Helvetica,sans-Serif" font-size="10.00">/memory_resource.hpp</text>
</g>
<!-- Node11&#45;&gt;Node13 -->
<g id="edge12" class="edge"><title>Node11&#45;&gt;Node13</title>
<path fill="none" stroke="midnightblue" d="M732.161,-68.4307C778.325,-60.1048 850.221,-46.847 921.823,-32.2049"/>
<polygon fill="midnightblue" stroke="midnightblue" points="922.83,-35.571 931.921,-30.13 921.422,-28.7142 922.83,-35.571"/>
</g>
<!-- Node14 -->
<g id="node14" class="node"><title>Node14</title>
<polygon fill="none" stroke="#bfbfbf" points="64,-1 64,-31 220,-31 220,-1 64,-1"/>
<text text-anchor="start" x="72" y="-19" font-family="Helvetica,sans-Serif" font-size="10.00">boost/container/pmr</text>
<text text-anchor="middle" x="142" y="-8" font-family="Helvetica,sans-Serif" font-size="10.00">/monotonic_buffer_resource.hpp</text>
</g>
<!-- Node11&#45;&gt;Node14 -->
<g id="edge13" class="edge"><title>Node11&#45;&gt;Node14</title>
<path fill="none" stroke="midnightblue" d="M589.562,-68.47C482.03,-58.6208 311.768,-42.5778 230.595,-32.1313"/>
<polygon fill="midnightblue" stroke="midnightblue" points="230.586,-28.5998 220.214,-30.7592 229.669,-35.5395 230.586,-28.5998"/>
</g>
<!-- Node15 -->
<g id="node15" class="node"><title>Node15</title>
<polygon fill="none" stroke="#bfbfbf" points="238.5,-1 238.5,-31 371.5,-31 371.5,-1 238.5,-1"/>
<text text-anchor="start" x="246.5" y="-19" font-family="Helvetica,sans-Serif" font-size="10.00">boost/container/pmr</text>
<text text-anchor="middle" x="305" y="-8" font-family="Helvetica,sans-Serif" font-size="10.00">/polymorphic_allocator.hpp</text>
</g>
<!-- Node11&#45;&gt;Node15 -->
<g id="edge14" class="edge"><title>Node11&#45;&gt;Node15</title>
<path fill="none" stroke="midnightblue" d="M620.604,-68.4765C561.423,-60.3169 470.405,-47.2522 381.664,-32.0659"/>
<polygon fill="midnightblue" stroke="midnightblue" points="382.144,-28.5972 371.695,-30.3493 380.956,-35.4957 382.144,-28.5972"/>
</g>
<!-- Node16 -->
<g id="node16" class="node"><title>Node16</title>
<polygon fill="none" stroke="#bfbfbf" points="1126,-6.5 1126,-25.5 1188,-25.5 1188,-6.5 1126,-6.5"/>
<text text-anchor="middle" x="1157" y="-13.5" font-family="Helvetica,sans-Serif" font-size="10.00">type_traits</text>
</g>
<!-- Node11&#45;&gt;Node16 -->
<g id="edge17" class="edge"><title>Node11&#45;&gt;Node16</title>
<path fill="none" stroke="midnightblue" d="M780.649,-69.7243C888.022,-61.147 1054.38,-46.25 1116,-32 1119.5,-31.1899 1123.12,-30.165 1126.68,-29.0326"/>
<polygon fill="midnightblue" stroke="midnightblue" points="1128.14,-32.229 1136.44,-25.6463 1125.85,-25.6153 1128.14,-32.229"/>
</g>
<!-- Node17 -->
<g id="node17" class="node"><title>Node17</title>
<polygon fill="none" stroke="#bfbfbf" points="390,-6.5 390,-25.5 430,-25.5 430,-6.5 390,-6.5"/>
<text text-anchor="middle" x="410" y="-13.5" font-family="Helvetica,sans-Serif" font-size="10.00">utility</text>
</g>
<!-- Node11&#45;&gt;Node17 -->
<g id="edge18" class="edge"><title>Node11&#45;&gt;Node17</title>
<path fill="none" stroke="midnightblue" d="M604.703,-68.4789C555.984,-61.7714 492.81,-50.4009 439,-32 437.15,-31.3672 435.271,-30.6326 433.406,-29.835"/>
<polygon fill="midnightblue" stroke="midnightblue" points="434.911,-26.6749 424.381,-25.5032 431.882,-32.9856 434.911,-26.6749"/>
</g>
<!-- Node11&#45;&gt;Node18 -->
<g id="edge19" class="edge"><title>Node11&#45;&gt;Node18</title>
<path fill="none" stroke="midnightblue" d="M780.616,-70.3386C917.872,-60.5958 1157.06,-42.4828 1196,-32 1198.35,-31.3674 1200.74,-30.5709 1203.1,-29.6764"/>
<polygon fill="midnightblue" stroke="midnightblue" points="1204.68,-32.8051 1212.47,-25.6167 1201.9,-26.3825 1204.68,-32.8051"/>
</g>
<!-- Node19 -->
<g id="node19" class="node"><title>Node19</title>
<polygon fill="none" stroke="#bfbfbf" points="448.5,-6.5 448.5,-25.5 531.5,-25.5 531.5,-6.5 448.5,-6.5"/>
<text text-anchor="middle" x="490" y="-13.5" font-family="Helvetica,sans-Serif" font-size="10.00">unordered_map</text>
</g>
<!-- Node11&#45;&gt;Node19 -->
<g id="edge20" class="edge"><title>Node11&#45;&gt;Node19</title>
<path fill="none" stroke="midnightblue" d="M656.205,-68.4035C622.35,-57.9331 565.029,-40.2049 527.345,-28.5501"/>
<polygon fill="midnightblue" stroke="midnightblue" points="528.332,-25.1916 517.744,-25.5806 526.263,-31.8791 528.332,-25.1916"/>
</g>
<!-- Node20 -->
<g id="node20" class="node"><title>Node20</title>
<polygon fill="none" stroke="#bfbfbf" points="549.5,-6.5 549.5,-25.5 646.5,-25.5 646.5,-6.5 549.5,-6.5"/>
<text text-anchor="middle" x="598" y="-13.5" font-family="Helvetica,sans-Serif" font-size="10.00">FairMQMessage.h</text>
</g>
<!-- Node11&#45;&gt;Node20 -->
<g id="edge21" class="edge"><title>Node11&#45;&gt;Node20</title>
<path fill="none" stroke="midnightblue" d="M671.678,-68.4035C657.884,-58.7797 635.301,-43.0242 618.768,-31.4891"/>
<polygon fill="midnightblue" stroke="midnightblue" points="620.503,-28.432 610.299,-25.5806 616.497,-34.1729 620.503,-28.432"/>
</g>
<!-- Node21 -->
<g id="node21" class="node"><title>Node21</title>
<polygon fill="none" stroke="#bfbfbf" points="664.5,-6.5 664.5,-25.5 795.5,-25.5 795.5,-6.5 664.5,-6.5"/>
<text text-anchor="middle" x="730" y="-13.5" font-family="Helvetica,sans-Serif" font-size="10.00">FairMQTransportFactory.h</text>
</g>
<!-- Node11&#45;&gt;Node21 -->
<g id="edge22" class="edge"><title>Node11&#45;&gt;Node21</title>
<path fill="none" stroke="midnightblue" d="M690.591,-68.4035C697.491,-59.4034 708.502,-45.0408 717.134,-33.7824"/>
<polygon fill="midnightblue" stroke="midnightblue" points="720.115,-35.6462 723.422,-25.5806 714.56,-31.3872 720.115,-35.6462"/>
</g>
<!-- Node24 -->
<g id="node24" class="node"><title>Node24</title>
<polygon fill="none" stroke="#bfbfbf" points="1182,-180.5 1182,-199.5 1262,-199.5 1262,-180.5 1182,-180.5"/>
<text text-anchor="middle" x="1222" y="-187.5" font-family="Helvetica,sans-Serif" font-size="10.00">FairMQParts.h</text>
</g>
<!-- Node23&#45;&gt;Node24 -->
<g id="edge27" class="edge"><title>Node23&#45;&gt;Node24</title>
<path fill="none" stroke="midnightblue" d="M1176.08,-236.083C1184.17,-228.141 1196.2,-216.335 1205.91,-206.797"/>
<polygon fill="midnightblue" stroke="midnightblue" points="1208.4,-209.254 1213.09,-199.751 1203.5,-204.26 1208.4,-209.254"/>
</g>
<!-- Node25 -->
<g id="node25" class="node"><title>Node25</title>
<polygon fill="none" stroke="#bfbfbf" points="1280.5,-180.5 1280.5,-199.5 1339.5,-199.5 1339.5,-180.5 1280.5,-180.5"/>
<text text-anchor="middle" x="1310" y="-187.5" font-family="Helvetica,sans-Serif" font-size="10.00">TObject.h</text>
</g>
<!-- Node23&#45;&gt;Node25 -->
<g id="edge28" class="edge"><title>Node23&#45;&gt;Node25</title>
<path fill="none" stroke="midnightblue" d="M1189.66,-236.444C1213.4,-227.478 1250.91,-213.314 1277.74,-203.183"/>
<polygon fill="midnightblue" stroke="midnightblue" points="1279.33,-206.324 1287.45,-199.516 1276.86,-199.775 1279.33,-206.324"/>
</g>
<!-- Node26 -->
<g id="node26" class="node"><title>Node26</title>
<g id="a_node26"><a xlink:href="../../d6/d90/Headers_2include_2Headers_2TimeStamp_8h.html" target="_top" xlink:title="Headers/TimeStamp.h">
<polygon fill="none" stroke="black" points="1048.5,-180.5 1048.5,-199.5 1163.5,-199.5 1163.5,-180.5 1048.5,-180.5"/>
<text text-anchor="middle" x="1106" y="-187.5" font-family="Helvetica,sans-Serif" font-size="10.00">Headers/TimeStamp.h</text>
</a>
</g>
</g>
<!-- Node23&#45;&gt;Node26 -->
<g id="edge29" class="edge"><title>Node23&#45;&gt;Node26</title>
<path fill="none" stroke="midnightblue" d="M1157.2,-236.324C1148.18,-228.341 1134.59,-216.313 1123.68,-206.653"/>
<polygon fill="midnightblue" stroke="midnightblue" points="1125.79,-203.842 1115.98,-199.834 1121.15,-209.083 1125.79,-203.842"/>
</g>
<!-- Node26&#45;&gt;Node3 -->
<g id="edge30" class="edge"><title>Node26&#45;&gt;Node3</title>
<path fill="none" stroke="midnightblue" d="M1050.86,-180.444C989.005,-170.846 888.768,-155.292 823.113,-145.104"/>
<polygon fill="midnightblue" stroke="midnightblue" points="823.302,-141.591 812.884,-143.516 822.229,-148.508 823.302,-141.591"/>
</g>
<!-- Node26&#45;&gt;Node6 -->
<g id="edge32" class="edge"><title>Node26&#45;&gt;Node6</title>
<path fill="none" stroke="midnightblue" d="M1092.35,-180.368C1062.36,-161.412 990.528,-116.001 954.054,-92.9424"/>
<polygon fill="midnightblue" stroke="midnightblue" points="955.913,-89.9766 945.59,-87.5914 952.172,-95.8935 955.913,-89.9766"/>
</g>
<!-- Node26&#45;&gt;Node16 -->
<g id="edge33" class="edge"><title>Node26&#45;&gt;Node16</title>
<path fill="none" stroke="midnightblue" d="M1113.99,-180.441C1121.47,-171.896 1132.34,-158.047 1138,-144 1152.68,-107.602 1156.15,-61.2084 1156.89,-35.7776"/>
<polygon fill="midnightblue" stroke="midnightblue" points="1160.39,-35.7394 1157.07,-25.6794 1153.4,-35.6163 1160.39,-35.7394"/>
</g>
<!-- Node27 -->
<g id="node27" class="node"><title>Node27</title>
<polygon fill="none" stroke="#bfbfbf" points="1083,-124.5 1083,-143.5 1129,-143.5 1129,-124.5 1083,-124.5"/>
<text text-anchor="middle" x="1106" y="-131.5" font-family="Helvetica,sans-Serif" font-size="10.00">chrono</text>
</g>
<!-- Node26&#45;&gt;Node27 -->
<g id="edge31" class="edge"><title>Node26&#45;&gt;Node27</title>
<path fill="none" stroke="midnightblue" d="M1106,-180.083C1106,-173.006 1106,-162.861 1106,-153.986"/>
<polygon fill="midnightblue" stroke="midnightblue" points="1109.5,-153.751 1106,-143.751 1102.5,-153.751 1109.5,-153.751"/>
</g>
</g>
</svg>
