<?xml version="1.0" encoding="UTF-8" standalone="no"?>
<!DOCTYPE svg PUBLIC "-//W3C//DTD SVG 1.1//EN"
 "http://www.w3.org/Graphics/SVG/1.1/DTD/svg11.dtd">
<!-- Generated by graphviz version 2.36.0 (20140111.2315)
 -->
<!-- Title: /home/travis/build/AliceO2Group/AliceO2/Utilities/aliceHLTwrapper/src/WrapperDevice.cxx Pages: 1 -->
<!--zoomable 410 -->
<svg id="main" version="1.1" xmlns="http://www.w3.org/2000/svg" xmlns:xlink="http://www.w3.org/1999/xlink" xml:space="preserve" onload="init(evt)">
<style type="text/css"><![CDATA[
.edge:hover path { stroke: red; }
.edge:hover polygon { stroke: red; fill: red; }
]]></style>
<script type="text/javascript"><![CDATA[
var edges = document.getElementsByTagName('g');
if (edges && edges.length) {
  for (var i=0;i<edges.length;i++) {
    if (edges[i].id.substr(0,4)=='edge') {
      edges[i].setAttribute('class','edge');
    }
  }
}
]]></script>
        <defs>
                <circle id="rim" cx="0" cy="0" r="7"/>
                <circle id="rim2" cx="0" cy="0" r="3.5"/>
                <g id="zoomPlus">
                        <use xlink:href="#rim" fill="#404040">
                                <set attributeName="fill" to="#808080" begin="zoomplus.mouseover" end="zoomplus.mouseout"/>
                        </use>
                        <path d="M-4,0h8M0,-4v8" fill="none" stroke="white" stroke-width="1.5" pointer-events="none"/>
                </g>
                <g id="zoomMin">
                        <use xlink:href="#rim" fill="#404040">
                                <set attributeName="fill" to="#808080" begin="zoomminus.mouseover" end="zoomminus.mouseout"/>
                        </use>
                        <path d="M-4,0h8" fill="none" stroke="white" stroke-width="1.5" pointer-events="none"/>
                </g>
                <g id="dirArrow">
                        <path fill="none" stroke="white" stroke-width="1.5" d="M0,-3.0v7 M-2.5,-0.5L0,-3.0L2.5,-0.5"/>
                </g>
               <g id="resetDef">
                       <use xlink:href="#rim2" fill="#404040">
                               <set attributeName="fill" to="#808080" begin="reset.mouseover" end="reset.mouseout"/>
                       </use>
               </g>
        </defs>

<script type="text/javascript">
var viewWidth = 2167;
var viewHeight = 410;
var sectionId = 'dynsection-0';
</script>
<script xlink:href="../../svgpan.js"/>
<svg id="graph" class="graph">
<g id="viewport">
<title>/home/travis/build/AliceO2Group/AliceO2/Utilities/aliceHLTwrapper/src/WrapperDevice.cxx</title>
<!-- Node1 -->
<g id="node1" class="node"><title>Node1</title>
<polygon fill="#bfbfbf" stroke="black" points="1423.5,-349 1423.5,-401 1552.5,-401 1552.5,-349 1423.5,-349"/>
<text text-anchor="start" x="1431.5" y="-389" font-family="Helvetica,sans-Serif" font-size="10.00">/home/travis/build</text>
<text text-anchor="start" x="1431.5" y="-378" font-family="Helvetica,sans-Serif" font-size="10.00">/AliceO2Group/AliceO2</text>
<text text-anchor="start" x="1431.5" y="-367" font-family="Helvetica,sans-Serif" font-size="10.00">/Utilities/aliceHLTwrapper</text>
<text text-anchor="middle" x="1488" y="-356" font-family="Helvetica,sans-Serif" font-size="10.00">/src/WrapperDevice.cxx</text>
</g>
<!-- Node2 -->
<g id="node2" class="node"><title>Node2</title>
<g id="a_node2"><a xlink:href="../../dc/de0/WrapperDevice_8h.html" target="_top" xlink:title="aliceHLTwrapper/WrapperDevice.h">
<polygon fill="none" stroke="black" points="220.5,-292.5 220.5,-311.5 389.5,-311.5 389.5,-292.5 220.5,-292.5"/>
<text text-anchor="middle" x="305" y="-299.5" font-family="Helvetica,sans-Serif" font-size="10.00">aliceHLTwrapper/WrapperDevice.h</text>
</a>
</g>
</g>
<!-- Node1&#45;&gt;Node2 -->
<g id="edge1" class="edge"><title>Node1&#45;&gt;Node2</title>
<path fill="none" stroke="midnightblue" d="M1423.13,-370.107C1225.87,-358.268 632.477,-322.654 399.943,-308.698"/>
<polygon fill="midnightblue" stroke="midnightblue" points="400.006,-305.196 389.814,-308.09 399.586,-312.183 400.006,-305.196"/>
</g>
<!-- Node6 -->
<g id="node6" class="node"><title>Node6</title>
<g id="a_node6"><a xlink:href="../../d0/da1/Component_8h.html" target="_top" xlink:title="aliceHLTwrapper/Component.h">
<polygon fill="none" stroke="black" points="759,-292.5 759,-311.5 911,-311.5 911,-292.5 759,-292.5"/>
<text text-anchor="middle" x="835" y="-299.5" font-family="Helvetica,sans-Serif" font-size="10.00">aliceHLTwrapper/Component.h</text>
</a>
</g>
</g>
<!-- Node1&#45;&gt;Node6 -->
<g id="edge5" class="edge"><title>Node1&#45;&gt;Node6</title>
<path fill="none" stroke="midnightblue" d="M1423.3,-366.965C1305,-354.103 1053.81,-326.791 921.177,-312.37"/>
<polygon fill="midnightblue" stroke="midnightblue" points="921.377,-308.871 911.057,-311.27 920.62,-315.83 921.377,-308.871"/>
</g>
<!-- Node13 -->
<g id="node13" class="node"><title>Node13</title>
<polygon fill="none" stroke="#bfbfbf" points="1099,-68.5 1099,-87.5 1151,-87.5 1151,-68.5 1099,-68.5"/>
<text text-anchor="middle" x="1125" y="-75.5" font-family="Helvetica,sans-Serif" font-size="10.00">memory</text>
</g>
<!-- Node1&#45;&gt;Node13 -->
<g id="edge53" class="edge"><title>Node1&#45;&gt;Node13</title>
<path fill="none" stroke="midnightblue" d="M1423.25,-369.045C1340.44,-361.471 1203.16,-344.361 1165,-312 1141.51,-292.082 1141,-277.795 1141,-247 1141,-247 1141,-247 1141,-189 1141,-156.626 1134.13,-119.445 1129.39,-97.6593"/>
<polygon fill="midnightblue" stroke="midnightblue" points="1132.78,-96.7588 1127.16,-87.7771 1125.95,-98.3028 1132.78,-96.7588"/>
</g>
<!-- Node15 -->
<g id="node15" class="node"><title>Node15</title>
<polygon fill="none" stroke="#bfbfbf" points="1145,-6.5 1145,-25.5 1191,-25.5 1191,-6.5 1145,-6.5"/>
<text text-anchor="middle" x="1168" y="-13.5" font-family="Helvetica,sans-Serif" font-size="10.00">cstring</text>
</g>
<!-- Node1&#45;&gt;Node15 -->
<g id="edge51" class="edge"><title>Node1&#45;&gt;Node15</title>
<path fill="none" stroke="midnightblue" d="M1423.47,-373.373C1364.49,-369.751 1277.5,-356.418 1217,-312 1190.03,-292.195 1179,-280.463 1179,-247 1179,-247 1179,-247 1179,-133 1179,-98.5621 1174.14,-58.6291 1170.88,-35.7384"/>
<polygon fill="midnightblue" stroke="midnightblue" points="1174.32,-35.0849 1169.39,-25.7043 1167.39,-36.1086 1174.32,-35.0849"/>
</g>
<!-- Node25 -->
<g id="node25" class="node"><title>Node25</title>
<polygon fill="none" stroke="#bfbfbf" points="1209,-6.5 1209,-25.5 1249,-25.5 1249,-6.5 1209,-6.5"/>
<text text-anchor="middle" x="1229" y="-13.5" font-family="Helvetica,sans-Serif" font-size="10.00">utility</text>
</g>
<!-- Node1&#45;&gt;Node25 -->
<g id="edge54" class="edge"><title>Node1&#45;&gt;Node25</title>
<path fill="none" stroke="midnightblue" d="M1423.49,-365.544C1358.01,-355.701 1262.6,-337.476 1236,-312 1214.26,-291.182 1217,-277.098 1217,-247 1217,-247 1217,-247 1217,-133 1217,-98.5329 1222.31,-58.6095 1225.86,-35.7286"/>
<polygon fill="midnightblue" stroke="midnightblue" points="1229.34,-36.1291 1227.48,-25.6992 1222.43,-35.0141 1229.34,-36.1291"/>
</g>
<!-- Node32 -->
<g id="node32" class="node"><title>Node32</title>
<polygon fill="none" stroke="#bfbfbf" points="1245,-292.5 1245,-311.5 1325,-311.5 1325,-292.5 1245,-292.5"/>
<text text-anchor="middle" x="1285" y="-299.5" font-family="Helvetica,sans-Serif" font-size="10.00">FairMQParts.h</text>
</g>
<!-- Node1&#45;&gt;Node32 -->
<g id="edge43" class="edge"><title>Node1&#45;&gt;Node32</title>
<path fill="none" stroke="midnightblue" d="M1423.49,-351.438C1388.8,-339.306 1347.44,-324.839 1319,-314.893"/>
<polygon fill="midnightblue" stroke="midnightblue" points="1320.11,-311.573 1309.52,-311.575 1317.8,-318.18 1320.11,-311.573"/>
</g>
<!-- Node33 -->
<g id="node33" class="node"><title>Node33</title>
<polygon fill="none" stroke="#bfbfbf" points="1343,-292.5 1343,-311.5 1429,-311.5 1429,-292.5 1343,-292.5"/>
<text text-anchor="middle" x="1386" y="-299.5" font-family="Helvetica,sans-Serif" font-size="10.00">FairMQLogger.h</text>
</g>
<!-- Node1&#45;&gt;Node33 -->
<g id="edge44" class="edge"><title>Node1&#45;&gt;Node33</title>
<path fill="none" stroke="midnightblue" d="M1452.04,-348.968C1436.94,-338.458 1419.91,-326.603 1406.93,-317.565"/>
<polygon fill="midnightblue" stroke="midnightblue" points="1408.86,-314.65 1398.66,-311.81 1404.86,-320.395 1408.86,-314.65"/>
</g>
<!-- Node34 -->
<g id="node34" class="node"><title>Node34</title>
<polygon fill="none" stroke="#bfbfbf" points="1447,-292.5 1447,-311.5 1529,-311.5 1529,-292.5 1447,-292.5"/>
<text text-anchor="middle" x="1488" y="-299.5" font-family="Helvetica,sans-Serif" font-size="10.00">FairMQPoller.h</text>
</g>
<!-- Node1&#45;&gt;Node34 -->
<g id="edge45" class="edge"><title>Node1&#45;&gt;Node34</title>
<path fill="none" stroke="midnightblue" d="M1488,-348.768C1488,-339.89 1488,-330.074 1488,-321.816"/>
<polygon fill="midnightblue" stroke="midnightblue" points="1491.5,-321.757 1488,-311.757 1484.5,-321.757 1491.5,-321.757"/>
</g>
<!-- Node35 -->
<g id="node35" class="node"><title>Node35</title>
<polygon fill="none" stroke="#bfbfbf" points="1547,-292.5 1547,-311.5 1693,-311.5 1693,-292.5 1547,-292.5"/>
<text text-anchor="middle" x="1620" y="-299.5" font-family="Helvetica,sans-Serif" font-size="10.00">options/FairMQProgOptions.h</text>
</g>
<!-- Node1&#45;&gt;Node35 -->
<g id="edge46" class="edge"><title>Node1&#45;&gt;Node35</title>
<path fill="none" stroke="midnightblue" d="M1534.54,-348.968C1554.77,-338.088 1577.67,-325.767 1594.67,-316.622"/>
<polygon fill="midnightblue" stroke="midnightblue" points="1596.79,-319.458 1603.94,-311.639 1593.47,-313.294 1596.79,-319.458"/>
</g>
<!-- Node36 -->
<g id="node36" class="node"><title>Node36</title>
<polygon fill="none" stroke="#bfbfbf" points="1711.5,-292.5 1711.5,-311.5 1800.5,-311.5 1800.5,-292.5 1711.5,-292.5"/>
<text text-anchor="middle" x="1756" y="-299.5" font-family="Helvetica,sans-Serif" font-size="10.00">boost/thread.hpp</text>
</g>
<!-- Node1&#45;&gt;Node36 -->
<g id="edge47" class="edge"><title>Node1&#45;&gt;Node36</title>
<path fill="none" stroke="midnightblue" d="M1552.53,-356.903C1602.58,-343.646 1670.49,-325.655 1713.78,-314.184"/>
<polygon fill="midnightblue" stroke="midnightblue" points="1714.93,-317.501 1723.7,-311.557 1713.14,-310.735 1714.93,-317.501"/>
</g>
<!-- Node37 -->
<g id="node37" class="node"><title>Node37</title>
<polygon fill="none" stroke="#bfbfbf" points="1819,-292.5 1819,-311.5 1899,-311.5 1899,-292.5 1819,-292.5"/>
<text text-anchor="middle" x="1859" y="-299.5" font-family="Helvetica,sans-Serif" font-size="10.00">boost/bind.hpp</text>
</g>
<!-- Node1&#45;&gt;Node37 -->
<g id="edge48" class="edge"><title>Node1&#45;&gt;Node37</title>
<path fill="none" stroke="midnightblue" d="M1552.62,-361.633C1625.44,-347.698 1742.26,-325.34 1808.63,-312.639"/>
<polygon fill="midnightblue" stroke="midnightblue" points="1809.68,-316.003 1818.84,-310.686 1808.36,-309.128 1809.68,-316.003"/>
</g>
<!-- Node38 -->
<g id="node38" class="node"><title>Node38</title>
<polygon fill="none" stroke="#bfbfbf" points="1917.5,-292.5 1917.5,-311.5 1962.5,-311.5 1962.5,-292.5 1917.5,-292.5"/>
<text text-anchor="middle" x="1940" y="-299.5" font-family="Helvetica,sans-Serif" font-size="10.00">cstdlib</text>
</g>
<!-- Node1&#45;&gt;Node38 -->
<g id="edge49" class="edge"><title>Node1&#45;&gt;Node38</title>
<path fill="none" stroke="midnightblue" d="M1552.85,-367.03C1633.74,-357.757 1776.3,-339.507 1907.53,-311.846"/>
<polygon fill="midnightblue" stroke="midnightblue" points="1908.31,-315.259 1917.36,-309.752 1906.85,-308.413 1908.31,-315.259"/>
</g>
<!-- Node39 -->
<g id="node39" class="node"><title>Node39</title>
<polygon fill="none" stroke="#bfbfbf" points="1981,-292.5 1981,-311.5 2025,-311.5 2025,-292.5 1981,-292.5"/>
<text text-anchor="middle" x="2003" y="-299.5" font-family="Helvetica,sans-Serif" font-size="10.00">cerrno</text>
</g>
<!-- Node1&#45;&gt;Node39 -->
<g id="edge50" class="edge"><title>Node1&#45;&gt;Node39</title>
<path fill="none" stroke="midnightblue" d="M1552.56,-368.744C1643.65,-360.657 1815.14,-342.982 1970.51,-311.79"/>
<polygon fill="midnightblue" stroke="midnightblue" points="1971.62,-315.136 1980.72,-309.715 1970.23,-308.277 1971.62,-315.136"/>
</g>
<!-- Node40 -->
<g id="node40" class="node"><title>Node40</title>
<polygon fill="none" stroke="#bfbfbf" points="2043,-292.5 2043,-311.5 2097,-311.5 2097,-292.5 2043,-292.5"/>
<text text-anchor="middle" x="2070" y="-299.5" font-family="Helvetica,sans-Serif" font-size="10.00">iostream</text>
</g>
<!-- Node1&#45;&gt;Node40 -->
<g id="edge52" class="edge"><title>Node1&#45;&gt;Node40</title>
<path fill="none" stroke="midnightblue" d="M1552.56,-369.291C1653.12,-361.376 1853.32,-343.297 2032.72,-311.82"/>
<polygon fill="midnightblue" stroke="midnightblue" points="2033.37,-315.261 2042.6,-310.069 2032.14,-308.368 2033.37,-315.261"/>
</g>
<!-- Node41 -->
<g id="node41" class="node"><title>Node41</title>
<polygon fill="none" stroke="#bfbfbf" points="2115,-292.5 2115,-311.5 2159,-311.5 2159,-292.5 2115,-292.5"/>
<text text-anchor="middle" x="2137" y="-299.5" font-family="Helvetica,sans-Serif" font-size="10.00">thread</text>
</g>
<!-- Node1&#45;&gt;Node41 -->
<g id="edge55" class="edge"><title>Node1&#45;&gt;Node41</title>
<path fill="none" stroke="midnightblue" d="M1552.62,-371.401C1663.88,-366.08 1898.72,-351.133 2104.67,-311.927"/>
<polygon fill="midnightblue" stroke="midnightblue" points="2105.61,-315.311 2114.77,-309.981 2104.29,-308.438 2105.61,-315.311"/>
</g>
<!-- Node3 -->
<g id="node3" class="node"><title>Node3</title>
<polygon fill="none" stroke="#bfbfbf" points="127,-236.5 127,-255.5 215,-255.5 215,-236.5 127,-236.5"/>
<text text-anchor="middle" x="171" y="-243.5" font-family="Helvetica,sans-Serif" font-size="10.00">FairMQDevice.h</text>
</g>
<!-- Node2&#45;&gt;Node3 -->
<g id="edge2" class="edge"><title>Node2&#45;&gt;Node3</title>
<path fill="none" stroke="midnightblue" d="M283.767,-292.444C261.616,-283.517 226.681,-269.439 201.564,-259.317"/>
<polygon fill="midnightblue" stroke="midnightblue" points="202.717,-256.008 192.133,-255.516 200.1,-262.501 202.717,-256.008"/>
</g>
<!-- Node4 -->
<g id="node4" class="node"><title>Node4</title>
<polygon fill="none" stroke="#bfbfbf" points="0,-6.5 0,-25.5 44,-25.5 44,-6.5 0,-6.5"/>
<text text-anchor="middle" x="22" y="-13.5" font-family="Helvetica,sans-Serif" font-size="10.00">vector</text>
</g>
<!-- Node2&#45;&gt;Node4 -->
<g id="edge3" class="edge"><title>Node2&#45;&gt;Node4</title>
<path fill="none" stroke="midnightblue" d="M295.852,-292.253C278.605,-274.77 243,-233.528 243,-191 243,-191 243,-191 243,-133 243,-127.561 107.004,-59.2726 48.3766,-30.0867"/>
<polygon fill="midnightblue" stroke="midnightblue" points="49.8539,-26.9125 39.3415,-25.5935 46.7369,-33.1802 49.8539,-26.9125"/>
</g>
<!-- Node5 -->
<g id="node5" class="node"><title>Node5</title>
<polygon fill="none" stroke="#bfbfbf" points="285,-236.5 285,-255.5 419,-255.5 419,-236.5 285,-236.5"/>
<text text-anchor="middle" x="352" y="-243.5" font-family="Helvetica,sans-Serif" font-size="10.00">boost/program_options.hpp</text>
</g>
<!-- Node2&#45;&gt;Node5 -->
<g id="edge4" class="edge"><title>Node2&#45;&gt;Node5</title>
<path fill="none" stroke="midnightblue" d="M312.761,-292.083C319.537,-284.298 329.543,-272.801 337.755,-263.367"/>
<polygon fill="midnightblue" stroke="midnightblue" points="340.458,-265.592 344.383,-255.751 335.178,-260.996 340.458,-265.592"/>
</g>
<!-- Node6&#45;&gt;Node4 -->
<g id="edge40" class="edge"><title>Node6&#45;&gt;Node4</title>
<path fill="none" stroke="midnightblue" d="M758.618,-294.041C649.492,-281.953 462,-252.269 462,-191 462,-191 462,-191 462,-133 462,-80.7348 413.089,-85.9434 364,-68 233.312,-20.2295 186.612,-70.8482 53,-32 50.8076,-31.3626 48.5795,-30.5815 46.3751,-29.7139"/>
<polygon fill="midnightblue" stroke="midnightblue" points="47.6041,-26.4293 37.0472,-25.533 44.741,-32.817 47.6041,-26.4293"/>
</g>
<!-- Node6&#45;&gt;Node5 -->
<g id="edge42" class="edge"><title>Node6&#45;&gt;Node5</title>
<path fill="none" stroke="midnightblue" d="M759,-292.503C668.957,-282.436 519.77,-265.757 429.204,-255.631"/>
<polygon fill="midnightblue" stroke="midnightblue" points="429.327,-252.124 419,-254.491 428.55,-259.08 429.327,-252.124"/>
</g>
<!-- Node7 -->
<g id="node7" class="node"><title>Node7</title>
<g id="a_node7"><a xlink:href="../../d6/d34/AliHLTDataTypes_8h.html" target="_top" xlink:title="Data type declaration for the HLT module. ">
<polygon fill="none" stroke="black" points="855.5,-124.5 855.5,-143.5 958.5,-143.5 958.5,-124.5 855.5,-124.5"/>
<text text-anchor="middle" x="907" y="-131.5" font-family="Helvetica,sans-Serif" font-size="10.00">AliHLTDataTypes.h</text>
</a>
</g>
</g>
<!-- Node6&#45;&gt;Node7 -->
<g id="edge6" class="edge"><title>Node6&#45;&gt;Node7</title>
<path fill="none" stroke="midnightblue" d="M829.287,-292.207C821.913,-279.75 810.629,-256.226 816,-236 823.358,-208.295 829.116,-201.567 848,-180 858.414,-168.106 872.402,-157.275 884.144,-149.22"/>
<polygon fill="midnightblue" stroke="midnightblue" points="886.182,-152.068 892.589,-143.63 882.318,-146.231 886.182,-152.068"/>
</g>
<!-- Node8 -->
<g id="node8" class="node"><title>Node8</title>
<g id="a_node8"><a xlink:href="../../d2/dda/MessageFormat_8h.html" target="_top" xlink:title="MessageFormat.h">
<polygon fill="none" stroke="black" points="825.5,-236.5 825.5,-255.5 920.5,-255.5 920.5,-236.5 825.5,-236.5"/>
<text text-anchor="middle" x="873" y="-243.5" font-family="Helvetica,sans-Serif" font-size="10.00">MessageFormat.h</text>
</a>
</g>
</g>
<!-- Node6&#45;&gt;Node8 -->
<g id="edge7" class="edge"><title>Node6&#45;&gt;Node8</title>
<path fill="none" stroke="midnightblue" d="M841.275,-292.083C846.642,-284.455 854.518,-273.264 861.079,-263.941"/>
<polygon fill="midnightblue" stroke="midnightblue" points="863.949,-265.943 866.842,-255.751 858.225,-261.915 863.949,-265.943"/>
</g>
<!-- Node11 -->
<g id="node11" class="node"><title>Node11</title>
<polygon fill="none" stroke="#bfbfbf" points="1015,-180.5 1015,-199.5 1113,-199.5 1113,-180.5 1015,-180.5"/>
<text text-anchor="middle" x="1064" y="-187.5" font-family="Helvetica,sans-Serif" font-size="10.00">boost/signals2.hpp</text>
</g>
<!-- Node6&#45;&gt;Node11 -->
<g id="edge41" class="edge"><title>Node6&#45;&gt;Node11</title>
<path fill="none" stroke="midnightblue" d="M853.026,-292.385C871.953,-283.337 902.577,-268.686 929,-256 966.385,-238.052 1009.56,-217.25 1036.82,-204.11"/>
<polygon fill="midnightblue" stroke="midnightblue" points="1038.61,-207.13 1046.1,-199.634 1035.57,-200.825 1038.61,-207.13"/>
</g>
<!-- Node8&#45;&gt;Node4 -->
<g id="edge11" class="edge"><title>Node8&#45;&gt;Node4</title>
<path fill="none" stroke="midnightblue" d="M853.373,-236.443C799.7,-213.009 646.014,-145.698 519,-88 499.81,-79.2827 496.368,-73.4211 476,-68 293.668,-19.4709 234.955,-81.9233 53,-32 50.7982,-31.3959 48.5635,-30.6382 46.3546,-29.7863"/>
<polygon fill="midnightblue" stroke="midnightblue" points="47.5786,-26.5001 37.0194,-25.6315 44.7323,-32.8953 47.5786,-26.5001"/>
</g>
<!-- Node8&#45;&gt;Node7 -->
<g id="edge8" class="edge"><title>Node8&#45;&gt;Node7</title>
<path fill="none" stroke="midnightblue" d="M866.621,-236.293C858.116,-223.538 845.112,-199.206 854,-180 859.92,-167.207 871.468,-156.722 882.278,-149.1"/>
<polygon fill="midnightblue" stroke="midnightblue" points="884.214,-152.016 890.666,-143.613 880.382,-146.158 884.214,-152.016"/>
</g>
<!-- Node9 -->
<g id="node9" class="node"><title>Node9</title>
<g id="a_node9"><a xlink:href="../../d2/de6/HOMERFactory_8h.html" target="_top" xlink:title="HOMERFactory.h">
<polygon fill="none" stroke="black" points="863.5,-180.5 863.5,-199.5 958.5,-199.5 958.5,-180.5 863.5,-180.5"/>
<text text-anchor="middle" x="911" y="-187.5" font-family="Helvetica,sans-Serif" font-size="10.00">HOMERFactory.h</text>
</a>
</g>
</g>
<!-- Node8&#45;&gt;Node9 -->
<g id="edge9" class="edge"><title>Node8&#45;&gt;Node9</title>
<path fill="none" stroke="midnightblue" d="M879.275,-236.083C884.642,-228.455 892.518,-217.264 899.079,-207.941"/>
<polygon fill="midnightblue" stroke="midnightblue" points="901.949,-209.943 904.842,-199.751 896.225,-205.915 901.949,-209.943"/>
</g>
<!-- Node10 -->
<g id="node10" class="node"><title>Node10</title>
<polygon fill="none" stroke="#bfbfbf" points="1035,-68.5 1035,-87.5 1081,-87.5 1081,-68.5 1035,-68.5"/>
<text text-anchor="middle" x="1058" y="-75.5" font-family="Helvetica,sans-Serif" font-size="10.00">cstdint</text>
</g>
<!-- Node8&#45;&gt;Node10 -->
<g id="edge12" class="edge"><title>Node8&#45;&gt;Node10</title>
<path fill="none" stroke="midnightblue" d="M898.832,-236.486C918.863,-229.021 946.564,-216.738 967,-200 1003.62,-170.006 1033.75,-122.33 1048.4,-96.6945"/>
<polygon fill="midnightblue" stroke="midnightblue" points="1051.58,-98.1817 1053.4,-87.7437 1045.47,-94.771 1051.58,-98.1817"/>
</g>
<!-- Node8&#45;&gt;Node11 -->
<g id="edge13" class="edge"><title>Node8&#45;&gt;Node11</title>
<path fill="none" stroke="midnightblue" d="M903.265,-236.444C935.955,-227.201 988.182,-212.436 1024.18,-202.257"/>
<polygon fill="midnightblue" stroke="midnightblue" points="1025.21,-205.605 1033.88,-199.516 1023.3,-198.869 1025.21,-205.605"/>
</g>
<!-- Node12 -->
<g id="node12" class="node"><title>Node12</title>
<g id="a_node12"><a xlink:href="../../dc/dcd/DataHeader_8h.html" target="_top" xlink:title="Headers/DataHeader.h">
<polygon fill="none" stroke="black" points="720.5,-124.5 720.5,-143.5 837.5,-143.5 837.5,-124.5 720.5,-124.5"/>
<text text-anchor="middle" x="779" y="-131.5" font-family="Helvetica,sans-Serif" font-size="10.00">Headers/DataHeader.h</text>
</a>
</g>
</g>
<!-- Node8&#45;&gt;Node12 -->
<g id="edge14" class="edge"><title>Node8&#45;&gt;Node12</title>
<path fill="none" stroke="midnightblue" d="M865.624,-236.368C849.974,-218.055 813.224,-175.049 792.982,-151.362"/>
<polygon fill="midnightblue" stroke="midnightblue" points="795.499,-148.92 786.342,-143.591 790.177,-153.468 795.499,-148.92"/>
</g>
<!-- Node29 -->
<g id="node29" class="node"><title>Node29</title>
<g id="a_node29"><a xlink:href="../../d2/d09/HeartbeatFrame_8h.html" target="_top" xlink:title="Headers/HeartbeatFrame.h">
<polygon fill="none" stroke="black" points="298.5,-180.5 298.5,-199.5 433.5,-199.5 433.5,-180.5 298.5,-180.5"/>
<text text-anchor="middle" x="366" y="-187.5" font-family="Helvetica,sans-Serif" font-size="10.00">Headers/HeartbeatFrame.h</text>
</a>
</g>
</g>
<!-- Node8&#45;&gt;Node29 -->
<g id="edge35" class="edge"><title>Node8&#45;&gt;Node29</title>
<path fill="none" stroke="midnightblue" d="M825.303,-239.92C737.662,-230.585 550.267,-210.626 443.914,-199.299"/>
<polygon fill="midnightblue" stroke="midnightblue" points="444.195,-195.809 433.881,-198.23 443.454,-202.769 444.195,-195.809"/>
</g>
<!-- Node9&#45;&gt;Node7 -->
<g id="edge10" class="edge"><title>Node9&#45;&gt;Node7</title>
<path fill="none" stroke="midnightblue" d="M910.339,-180.083C909.815,-173.006 909.064,-162.861 908.406,-153.986"/>
<polygon fill="midnightblue" stroke="midnightblue" points="911.877,-153.465 907.648,-143.751 904.897,-153.982 911.877,-153.465"/>
</g>
<!-- Node12&#45;&gt;Node10 -->
<g id="edge15" class="edge"><title>Node12&#45;&gt;Node10</title>
<path fill="none" stroke="midnightblue" d="M829.215,-124.489C878.271,-115.98 954.981,-102.156 1021,-88 1022.27,-87.7271 1023.57,-87.443 1024.88,-87.1509"/>
<polygon fill="midnightblue" stroke="midnightblue" points="1026,-90.4827 1034.95,-84.8127 1024.42,-83.6639 1026,-90.4827"/>
</g>
<!-- Node12&#45;&gt;Node13 -->
<g id="edge16" class="edge"><title>Node12&#45;&gt;Node13</title>
<path fill="none" stroke="midnightblue" d="M837.552,-124.876C914.089,-114.208 1042.99,-96.0584 1088.73,-87.9625"/>
<polygon fill="midnightblue" stroke="midnightblue" points="1089.52,-91.3764 1098.7,-86.0883 1088.22,-84.4969 1089.52,-91.3764"/>
</g>
<!-- Node14 -->
<g id="node14" class="node"><title>Node14</title>
<polygon fill="none" stroke="#bfbfbf" points="739.5,-68.5 739.5,-87.5 788.5,-87.5 788.5,-68.5 739.5,-68.5"/>
<text text-anchor="middle" x="764" y="-75.5" font-family="Helvetica,sans-Serif" font-size="10.00">cassert</text>
</g>
<!-- Node12&#45;&gt;Node14 -->
<g id="edge17" class="edge"><title>Node12&#45;&gt;Node14</title>
<path fill="none" stroke="midnightblue" d="M776.523,-124.083C774.514,-116.849 771.614,-106.409 769.11,-97.3968"/>
<polygon fill="midnightblue" stroke="midnightblue" points="772.48,-96.4495 766.431,-87.7511 765.735,-98.323 772.48,-96.4495"/>
</g>
<!-- Node12&#45;&gt;Node15 -->
<g id="edge18" class="edge"><title>Node12&#45;&gt;Node15</title>
<path fill="none" stroke="midnightblue" d="M835.074,-124.481C877.069,-117.211 935.552,-105.184 985,-88 1004.15,-81.3447 1007.22,-75.641 1026,-68 1073.26,-48.7725 1087.49,-50.5827 1135,-32 1136.85,-31.2779 1138.74,-30.5065 1140.64,-29.7087"/>
<polygon fill="midnightblue" stroke="midnightblue" points="1142.24,-32.8268 1149.99,-25.6073 1139.43,-26.4154 1142.24,-32.8268"/>
</g>
<!-- Node16 -->
<g id="node16" class="node"><title>Node16</title>
<polygon fill="none" stroke="#bfbfbf" points="807,-68.5 807,-87.5 863,-87.5 863,-68.5 807,-68.5"/>
<text text-anchor="middle" x="835" y="-75.5" font-family="Helvetica,sans-Serif" font-size="10.00">algorithm</text>
</g>
<!-- Node12&#45;&gt;Node16 -->
<g id="edge19" class="edge"><title>Node12&#45;&gt;Node16</title>
<path fill="none" stroke="midnightblue" d="M787.997,-124.324C796.194,-116.42 808.506,-104.548 818.472,-94.9377"/>
<polygon fill="midnightblue" stroke="midnightblue" points="821.07,-97.2947 825.839,-87.8339 816.211,-92.2558 821.07,-97.2947"/>
</g>
<!-- Node17 -->
<g id="node17" class="node"><title>Node17</title>
<polygon fill="none" stroke="#bfbfbf" points="881.5,-68.5 881.5,-87.5 940.5,-87.5 940.5,-68.5 881.5,-68.5"/>
<text text-anchor="middle" x="911" y="-75.5" font-family="Helvetica,sans-Serif" font-size="10.00">stdexcept</text>
</g>
<!-- Node12&#45;&gt;Node17 -->
<g id="edge20" class="edge"><title>Node12&#45;&gt;Node17</title>
<path fill="none" stroke="midnightblue" d="M799.916,-124.444C821.736,-115.517 856.15,-101.439 880.892,-91.3168"/>
<polygon fill="midnightblue" stroke="midnightblue" points="882.252,-94.5422 890.182,-87.5164 879.601,-88.0634 882.252,-94.5422"/>
</g>
<!-- Node18 -->
<g id="node18" class="node"><title>Node18</title>
<polygon fill="none" stroke="#bfbfbf" points="1085.5,-6.5 1085.5,-25.5 1126.5,-25.5 1126.5,-6.5 1085.5,-6.5"/>
<text text-anchor="middle" x="1106" y="-13.5" font-family="Helvetica,sans-Serif" font-size="10.00">string</text>
</g>
<!-- Node12&#45;&gt;Node18 -->
<g id="edge21" class="edge"><title>Node12&#45;&gt;Node18</title>
<path fill="none" stroke="midnightblue" d="M818.733,-124.475C853.556,-116.534 905.292,-103.594 949,-88 969.232,-80.7817 973.368,-76.7186 993,-68 1029.75,-51.68 1039.56,-48.9974 1076,-32 1077.35,-31.3692 1078.73,-30.7144 1080.13,-30.0468"/>
<polygon fill="midnightblue" stroke="midnightblue" points="1081.82,-33.1149 1089.26,-25.5715 1078.74,-26.829 1081.82,-33.1149"/>
</g>
<!-- Node19 -->
<g id="node19" class="node"><title>Node19</title>
<g id="a_node19"><a xlink:href="../../dc/d03/MemoryResources_8h.html" target="_top" xlink:title="MemoryResources/MemoryResources.h">
<polygon fill="none" stroke="black" points="528.5,-68.5 528.5,-87.5 721.5,-87.5 721.5,-68.5 528.5,-68.5"/>
<text text-anchor="middle" x="625" y="-75.5" font-family="Helvetica,sans-Serif" font-size="10.00">MemoryResources/MemoryResources.h</text>
</a>
</g>
</g>
<!-- Node12&#45;&gt;Node19 -->
<g id="edge22" class="edge"><title>Node12&#45;&gt;Node19</title>
<path fill="none" stroke="midnightblue" d="M754.598,-124.444C728.803,-115.399 687.923,-101.064 658.982,-90.9158"/>
<polygon fill="midnightblue" stroke="midnightblue" points="659.882,-87.5226 649.288,-87.5164 657.566,-94.1283 659.882,-87.5226"/>
</g>
<!-- Node19&#45;&gt;Node4 -->
<g id="edge31" class="edge"><title>Node19&#45;&gt;Node4</title>
<path fill="none" stroke="midnightblue" d="M528.439,-69.1534C523.557,-68.7621 518.722,-68.3758 514,-68 309.135,-51.6956 251.377,-85.6863 53,-32 50.7961,-31.4036 48.5599,-30.6513 46.3501,-29.8029"/>
<polygon fill="midnightblue" stroke="midnightblue" points="47.5729,-26.5164 37.0132,-25.6542 44.7305,-32.9133 47.5729,-26.5164"/>
</g>
<!-- Node19&#45;&gt;Node15 -->
<g id="edge27" class="edge"><title>Node19&#45;&gt;Node15</title>
<path fill="none" stroke="midnightblue" d="M721.563,-68.6837C868.042,-56.0404 1130.05,-33.3024 1135,-32 1137.5,-31.3414 1140.05,-30.5072 1142.57,-29.571"/>
<polygon fill="midnightblue" stroke="midnightblue" points="1144.1,-32.7238 1151.95,-25.6094 1141.38,-26.2751 1144.1,-32.7238"/>
</g>
<!-- Node19&#45;&gt;Node18 -->
<g id="edge28" class="edge"><title>Node19&#45;&gt;Node18</title>
<path fill="none" stroke="midnightblue" d="M719.07,-68.4902C846.224,-56.8596 1059.12,-36.8815 1076,-32 1077.97,-31.4297 1079.97,-30.732 1081.95,-29.9529"/>
<polygon fill="midnightblue" stroke="midnightblue" points="1083.84,-32.9345 1091.48,-25.5909 1080.93,-26.5693 1083.84,-32.9345"/>
</g>
<!-- Node20 -->
<g id="node20" class="node"><title>Node20</title>
<polygon fill="none" stroke="#bfbfbf" points="62,-1 62,-31 162,-31 162,-1 62,-1"/>
<text text-anchor="start" x="70" y="-19" font-family="Helvetica,sans-Serif" font-size="10.00">boost/container/flat</text>
<text text-anchor="middle" x="112" y="-8" font-family="Helvetica,sans-Serif" font-size="10.00">_map.hpp</text>
</g>
<!-- Node19&#45;&gt;Node20 -->
<g id="edge23" class="edge"><title>Node19&#45;&gt;Node20</title>
<path fill="none" stroke="midnightblue" d="M528.167,-69.1202C420.586,-60.0758 252.523,-45.0123 172.354,-32.0194"/>
<polygon fill="midnightblue" stroke="midnightblue" points="172.545,-28.502 162.101,-30.2826 171.376,-35.4037 172.545,-28.502"/>
</g>
<!-- Node21 -->
<g id="node21" class="node"><title>Node21</title>
<polygon fill="none" stroke="#bfbfbf" points="180,-1 180,-31 296,-31 296,-1 180,-1"/>
<text text-anchor="start" x="188" y="-19" font-family="Helvetica,sans-Serif" font-size="10.00">boost/container/pmr</text>
<text text-anchor="middle" x="238" y="-8" font-family="Helvetica,sans-Serif" font-size="10.00">/memory_resource.hpp</text>
</g>
<!-- Node19&#45;&gt;Node21 -->
<g id="edge24" class="edge"><title>Node19&#45;&gt;Node21</title>
<path fill="none" stroke="midnightblue" d="M552.291,-68.4701C489.544,-60.7204 396.286,-48.2784 305.912,-32.0812"/>
<polygon fill="midnightblue" stroke="midnightblue" points="306.51,-28.6326 296.046,-30.2958 305.263,-35.5207 306.51,-28.6326"/>
</g>
<!-- Node22 -->
<g id="node22" class="node"><title>Node22</title>
<polygon fill="none" stroke="#bfbfbf" points="314,-1 314,-31 470,-31 470,-1 314,-1"/>
<text text-anchor="start" x="322" y="-19" font-family="Helvetica,sans-Serif" font-size="10.00">boost/container/pmr</text>
<text text-anchor="middle" x="392" y="-8" font-family="Helvetica,sans-Serif" font-size="10.00">/monotonic_buffer_resource.hpp</text>
</g>
<!-- Node19&#45;&gt;Node22 -->
<g id="edge25" class="edge"><title>Node19&#45;&gt;Node22</title>
<path fill="none" stroke="midnightblue" d="M591.617,-68.4035C556.404,-59.3358 500.053,-44.8248 456.189,-33.5292"/>
<polygon fill="midnightblue" stroke="midnightblue" points="457.022,-30.1297 446.465,-31.0253 455.276,-36.9086 457.022,-30.1297"/>
</g>
<!-- Node23 -->
<g id="node23" class="node"><title>Node23</title>
<polygon fill="none" stroke="#bfbfbf" points="488.5,-1 488.5,-31 621.5,-31 621.5,-1 488.5,-1"/>
<text text-anchor="start" x="496.5" y="-19" font-family="Helvetica,sans-Serif" font-size="10.00">boost/container/pmr</text>
<text text-anchor="middle" x="555" y="-8" font-family="Helvetica,sans-Serif" font-size="10.00">/polymorphic_allocator.hpp</text>
</g>
<!-- Node19&#45;&gt;Node23 -->
<g id="edge26" class="edge"><title>Node19&#45;&gt;Node23</title>
<path fill="none" stroke="midnightblue" d="M614.971,-68.4035C605.667,-60.4292 591.453,-48.2451 579.197,-37.7403"/>
<polygon fill="midnightblue" stroke="midnightblue" points="581.368,-34.9914 571.498,-31.1408 576.812,-40.3062 581.368,-34.9914"/>
</g>
<!-- Node24 -->
<g id="node24" class="node"><title>Node24</title>
<polygon fill="none" stroke="#bfbfbf" points="640,-6.5 640,-25.5 702,-25.5 702,-6.5 640,-6.5"/>
<text text-anchor="middle" x="671" y="-13.5" font-family="Helvetica,sans-Serif" font-size="10.00">type_traits</text>
</g>
<!-- Node19&#45;&gt;Node24 -->
<g id="edge29" class="edge"><title>Node19&#45;&gt;Node24</title>
<path fill="none" stroke="midnightblue" d="M631.591,-68.4035C638.491,-59.4034 649.502,-45.0408 658.134,-33.7824"/>
<polygon fill="midnightblue" stroke="midnightblue" points="661.115,-35.6462 664.422,-25.5806 655.56,-31.3872 661.115,-35.6462"/>
</g>
<!-- Node19&#45;&gt;Node25 -->
<g id="edge30" class="edge"><title>Node19&#45;&gt;Node25</title>
<path fill="none" stroke="midnightblue" d="M721.688,-68.6793C724.489,-68.4489 727.265,-68.222 730,-68 938.814,-51.054 998.479,-89.2715 1200,-32 1201.96,-31.4422 1203.95,-30.7446 1205.91,-29.9576"/>
<polygon fill="midnightblue" stroke="midnightblue" points="1207.77,-32.9504 1215.31,-25.5106 1204.77,-26.6225 1207.77,-32.9504"/>
</g>
<!-- Node26 -->
<g id="node26" class="node"><title>Node26</title>
<polygon fill="none" stroke="#bfbfbf" points="720.5,-6.5 720.5,-25.5 803.5,-25.5 803.5,-6.5 720.5,-6.5"/>
<text text-anchor="middle" x="762" y="-13.5" font-family="Helvetica,sans-Serif" font-size="10.00">unordered_map</text>
</g>
<!-- Node19&#45;&gt;Node26 -->
<g id="edge32" class="edge"><title>Node19&#45;&gt;Node26</title>
<path fill="none" stroke="midnightblue" d="M644.629,-68.4035C667.824,-58.245 706.619,-41.2547 733.213,-29.6074"/>
<polygon fill="midnightblue" stroke="midnightblue" points="734.652,-32.7984 742.408,-25.5806 731.843,-26.3863 734.652,-32.7984"/>
</g>
<!-- Node27 -->
<g id="node27" class="node"><title>Node27</title>
<polygon fill="none" stroke="#bfbfbf" points="821.5,-6.5 821.5,-25.5 918.5,-25.5 918.5,-6.5 821.5,-6.5"/>
<text text-anchor="middle" x="870" y="-13.5" font-family="Helvetica,sans-Serif" font-size="10.00">FairMQMessage.h</text>
</g>
<!-- Node19&#45;&gt;Node27 -->
<g id="edge33" class="edge"><title>Node19&#45;&gt;Node27</title>
<path fill="none" stroke="midnightblue" d="M661.243,-68.4704C698.948,-59.5515 759.677,-45.0604 812,-32 817.042,-30.7414 822.326,-29.4026 827.565,-28.0629"/>
<polygon fill="midnightblue" stroke="midnightblue" points="828.695,-31.3862 837.508,-25.5063 826.952,-24.6067 828.695,-31.3862"/>
</g>
<!-- Node28 -->
<g id="node28" class="node"><title>Node28</title>
<polygon fill="none" stroke="#bfbfbf" points="936.5,-6.5 936.5,-25.5 1067.5,-25.5 1067.5,-6.5 936.5,-6.5"/>
<text text-anchor="middle" x="1002" y="-13.5" font-family="Helvetica,sans-Serif" font-size="10.00">FairMQTransportFactory.h</text>
</g>
<!-- Node19&#45;&gt;Node28 -->
<g id="edge34" class="edge"><title>Node19&#45;&gt;Node28</title>
<path fill="none" stroke="midnightblue" d="M688.485,-68.4708C749.699,-60.0274 844.882,-46.3208 927,-32 934.818,-30.6366 943.074,-29.0922 951.136,-27.5257"/>
<polygon fill="midnightblue" stroke="midnightblue" points="952.064,-30.9102 961.198,-25.5416 950.71,-24.0425 952.064,-30.9102"/>
</g>
<!-- Node29&#45;&gt;Node4 -->
<g id="edge39" class="edge"><title>Node29&#45;&gt;Node4</title>
<path fill="none" stroke="midnightblue" d="M374.341,-180.458C385.961,-167.488 404.285,-142.396 392,-124 305.3,5.82833 201.547,-80.021 53,-32 51.08,-31.3793 49.1274,-30.6616 47.1842,-29.8831"/>
<polygon fill="midnightblue" stroke="midnightblue" points="48.2981,-26.5471 37.741,-25.6539 45.4369,-32.9356 48.2981,-26.5471"/>
</g>
<!-- Node29&#45;&gt;Node12 -->
<g id="edge36" class="edge"><title>Node29&#45;&gt;Node12</title>
<path fill="none" stroke="midnightblue" d="M431.441,-180.444C507.519,-170.496 632.528,-154.151 710.067,-144.013"/>
<polygon fill="midnightblue" stroke="midnightblue" points="710.753,-147.453 720.215,-142.686 709.846,-140.512 710.753,-147.453"/>
</g>
<!-- Node30 -->
<g id="node30" class="node"><title>Node30</title>
<polygon fill="none" stroke="#bfbfbf" points="271.5,-124.5 271.5,-143.5 330.5,-143.5 330.5,-124.5 271.5,-124.5"/>
<text text-anchor="middle" x="301" y="-131.5" font-family="Helvetica,sans-Serif" font-size="10.00">functional</text>
</g>
<!-- Node29&#45;&gt;Node30 -->
<g id="edge37" class="edge"><title>Node29&#45;&gt;Node30</title>
<path fill="none" stroke="midnightblue" d="M355.557,-180.324C345.854,-172.263 331.185,-160.077 319.5,-150.369"/>
<polygon fill="midnightblue" stroke="midnightblue" points="321.562,-147.532 311.633,-143.834 317.089,-152.916 321.562,-147.532"/>
</g>
<!-- Node31 -->
<g id="node31" class="node"><title>Node31</title>
<polygon fill="none" stroke="#bfbfbf" points="348.5,-124.5 348.5,-143.5 383.5,-143.5 383.5,-124.5 348.5,-124.5"/>
<text text-anchor="middle" x="366" y="-131.5" font-family="Helvetica,sans-Serif" font-size="10.00">map</text>
</g>
<!-- Node29&#45;&gt;Node31 -->
<g id="edge38" class="edge"><title>Node29&#45;&gt;Node31</title>
<path fill="none" stroke="midnightblue" d="M366,-180.083C366,-173.006 366,-162.861 366,-153.986"/>
<polygon fill="midnightblue" stroke="midnightblue" points="369.5,-153.751 366,-143.751 362.5,-153.751 369.5,-153.751"/>
</g>
</g>
</svg>
        <g id="navigator" transform="translate(0 0)" fill="#404254">
                <rect fill="#f2f5e9" fill-opacity="0.5" stroke="#606060" stroke-width=".5" x="0" y="0" width="60" height="60"/>
                <use id="zoomplus" xlink:href="#zoomPlus" x="17" y="9" onmousedown="handleZoom(evt,'in')"/>
                <use id="zoomminus" xlink:href="#zoomMin" x="42" y="9" onmousedown="handleZoom(evt,'out')"/>
                <use id="reset" xlink:href="#resetDef" x="30" y="36" onmousedown="handleReset()"/>
                <g id="arrowUp" xlink:href="#dirArrow" transform="translate(30 24)" onmousedown="handlePan(0,-1)">
                  <use xlink:href="#rim" fill="#404040">
                        <set attributeName="fill" to="#808080" begin="arrowUp.mouseover" end="arrowUp.mouseout"/>
                  </use>
                  <path fill="none" stroke="white" stroke-width="1.5" d="M0,-3.0v7 M-2.5,-0.5L0,-3.0L2.5,-0.5"/>
                </g>
                <g id="arrowRight" xlink:href="#dirArrow" transform="rotate(90) translate(36 -43)" onmousedown="handlePan(1,0)">
                  <use xlink:href="#rim" fill="#404040">
                        <set attributeName="fill" to="#808080" begin="arrowRight.mouseover" end="arrowRight.mouseout"/>
                  </use>
                  <path fill="none" stroke="white" stroke-width="1.5" d="M0,-3.0v7 M-2.5,-0.5L0,-3.0L2.5,-0.5"/>
                </g>
                <g id="arrowDown" xlink:href="#dirArrow" transform="rotate(180) translate(-30 -48)" onmousedown="handlePan(0,1)">
                  <use xlink:href="#rim" fill="#404040">
                        <set attributeName="fill" to="#808080" begin="arrowDown.mouseover" end="arrowDown.mouseout"/>
                  </use>
                  <path fill="none" stroke="white" stroke-width="1.5" d="M0,-3.0v7 M-2.5,-0.5L0,-3.0L2.5,-0.5"/>
                </g>
                <g id="arrowLeft" xlink:href="#dirArrow" transform="rotate(270) translate(-36 17)" onmousedown="handlePan(-1,0)">
                  <use xlink:href="#rim" fill="#404040">
                        <set attributeName="fill" to="#808080" begin="arrowLeft.mouseover" end="arrowLeft.mouseout"/>
                  </use>
                  <path fill="none" stroke="white" stroke-width="1.5" d="M0,-3.0v7 M-2.5,-0.5L0,-3.0L2.5,-0.5"/>
                </g>
        </g>
        <svg viewBox="0 0 15 15" width="100%" height="30px" preserveAspectRatio="xMaxYMin meet">
         <g id="arrow_out" transform="scale(0.3 0.3)">
          <a xlink:href="WrapperDevice_8cxx__incl_org.svg" target="_base">
           <rect id="button" ry="5" rx="5" y="6" x="6" height="38" width="38"
                fill="#f2f5e9" fill-opacity="0.5" stroke="#606060" stroke-width="1.0"/>
           <path id="arrow"
             d="M 11.500037,31.436501 C 11.940474,20.09759 22.043105,11.32322 32.158766,21.979434 L 37.068811,17.246167 C 37.068811,17.246167 37.088388,32 37.088388,32 L 22.160133,31.978069 C 22.160133,31.978069 26.997745,27.140456 26.997745,27.140456 C 18.528582,18.264221 13.291696,25.230495 11.500037,31.436501 z"
             style="fill:#404040;"/>
          </a>
         </g>
        </svg>
</svg>
