<?xml version="1.0" encoding="UTF-8" standalone="no"?>
<!DOCTYPE svg PUBLIC "-//W3C//DTD SVG 1.1//EN"
 "http://www.w3.org/Graphics/SVG/1.1/DTD/svg11.dtd">
<!-- Generated by graphviz version 2.36.0 (20140111.2315)
 -->
<!-- Title: /home/travis/build/AliceO2Group/AliceO2/Utilities/DataFlow/src/SubframeBuilderDevice.cxx Pages: 1 -->
<!--zoomable 422 -->
<svg id="main" version="1.1" xmlns="http://www.w3.org/2000/svg" xmlns:xlink="http://www.w3.org/1999/xlink" xml:space="preserve" onload="init(evt)">
<style type="text/css"><![CDATA[
.edge:hover path { stroke: red; }
.edge:hover polygon { stroke: red; fill: red; }
]]></style>
<script type="text/javascript"><![CDATA[
var edges = document.getElementsByTagName('g');
if (edges && edges.length) {
  for (var i=0;i<edges.length;i++) {
    if (edges[i].id.substr(0,4)=='edge') {
      edges[i].setAttribute('class','edge');
    }
  }
}
]]></script>
        <defs>
                <circle id="rim" cx="0" cy="0" r="7"/>
                <circle id="rim2" cx="0" cy="0" r="3.5"/>
                <g id="zoomPlus">
                        <use xlink:href="#rim" fill="#404040">
                                <set attributeName="fill" to="#808080" begin="zoomplus.mouseover" end="zoomplus.mouseout"/>
                        </use>
                        <path d="M-4,0h8M0,-4v8" fill="none" stroke="white" stroke-width="1.5" pointer-events="none"/>
                </g>
                <g id="zoomMin">
                        <use xlink:href="#rim" fill="#404040">
                                <set attributeName="fill" to="#808080" begin="zoomminus.mouseover" end="zoomminus.mouseout"/>
                        </use>
                        <path d="M-4,0h8" fill="none" stroke="white" stroke-width="1.5" pointer-events="none"/>
                </g>
                <g id="dirArrow">
                        <path fill="none" stroke="white" stroke-width="1.5" d="M0,-3.0v7 M-2.5,-0.5L0,-3.0L2.5,-0.5"/>
                </g>
               <g id="resetDef">
                       <use xlink:href="#rim2" fill="#404040">
                               <set attributeName="fill" to="#808080" begin="reset.mouseover" end="reset.mouseout"/>
                       </use>
               </g>
        </defs>

<script type="text/javascript">
var viewWidth = 1502;
var viewHeight = 422;
var sectionId = 'dynsection-0';
</script>
<script xlink:href="../../svgpan.js"/>
<svg id="graph" class="graph">
<g id="viewport">
<title>/home/travis/build/AliceO2Group/AliceO2/Utilities/DataFlow/src/SubframeBuilderDevice.cxx</title>
<!-- Node1 -->
<g id="node1" class="node"><title>Node1</title>
<polygon fill="#bfbfbf" stroke="black" points="836.5,-361 836.5,-413 977.5,-413 977.5,-361 836.5,-361"/>
<text text-anchor="start" x="844.5" y="-401" font-family="Helvetica,sans-Serif" font-size="10.00">/home/travis/build</text>
<text text-anchor="start" x="844.5" y="-390" font-family="Helvetica,sans-Serif" font-size="10.00">/AliceO2Group/AliceO2</text>
<text text-anchor="start" x="844.5" y="-379" font-family="Helvetica,sans-Serif" font-size="10.00">/Utilities/DataFlow/src</text>
<text text-anchor="middle" x="907" y="-368" font-family="Helvetica,sans-Serif" font-size="10.00">/SubframeBuilderDevice.cxx</text>
</g>
<!-- Node2 -->
<g id="node2" class="node"><title>Node2</title>
<polygon fill="none" stroke="#bfbfbf" points="0,-298.5 0,-317.5 44,-317.5 44,-298.5 0,-298.5"/>
<text text-anchor="middle" x="22" y="-305.5" font-family="Helvetica,sans-Serif" font-size="10.00">thread</text>
</g>
<!-- Node1&#45;&gt;Node2 -->
<g id="edge1" class="edge"><title>Node1&#45;&gt;Node2</title>
<path fill="none" stroke="midnightblue" d="M836.348,-384.29C659.273,-379.457 200.188,-363.402 53,-324 50.6609,-323.374 48.2861,-322.57 45.9453,-321.661"/>
<polygon fill="midnightblue" stroke="midnightblue" points="47.2508,-318.411 36.694,-317.515 44.3876,-324.799 47.2508,-318.411"/>
</g>
<!-- Node3 -->
<g id="node3" class="node"><title>Node3</title>
<polygon fill="none" stroke="#bfbfbf" points="62,-298.5 62,-317.5 108,-317.5 108,-298.5 62,-298.5"/>
<text text-anchor="middle" x="85" y="-305.5" font-family="Helvetica,sans-Serif" font-size="10.00">chrono</text>
</g>
<!-- Node1&#45;&gt;Node3 -->
<g id="edge2" class="edge"><title>Node1&#45;&gt;Node3</title>
<path fill="none" stroke="midnightblue" d="M836.435,-383.191C669.993,-376.12 256.793,-355.844 122,-324 118.929,-323.274 115.779,-322.332 112.677,-321.274"/>
<polygon fill="midnightblue" stroke="midnightblue" points="113.671,-317.907 103.08,-317.618 111.179,-324.449 113.671,-317.907"/>
</g>
<!-- Node4 -->
<g id="node4" class="node"><title>Node4</title>
<polygon fill="none" stroke="#bfbfbf" points="1127.5,-124.5 1127.5,-143.5 1186.5,-143.5 1186.5,-124.5 1127.5,-124.5"/>
<text text-anchor="middle" x="1157" y="-131.5" font-family="Helvetica,sans-Serif" font-size="10.00">functional</text>
</g>
<!-- Node1&#45;&gt;Node4 -->
<g id="edge3" class="edge"><title>Node1&#45;&gt;Node4</title>
<path fill="none" stroke="midnightblue" d="M977.603,-379.933C1076.62,-366.92 1250.12,-326.271 1299,-200 1316.01,-156.068 1244.52,-141.828 1196.82,-137.213"/>
<polygon fill="midnightblue" stroke="midnightblue" points="1197.02,-133.717 1186.75,-136.344 1196.41,-140.691 1197.02,-133.717"/>
</g>
<!-- Node5 -->
<g id="node5" class="node"><title>Node5</title>
<g id="a_node5"><a xlink:href="../../d0/d82/SubframeBuilderDevice_8h.html" target="_top" xlink:title="Demonstrator device for a subframe builder. ">
<polygon fill="none" stroke="black" points="840,-293 840,-323 974,-323 974,-293 840,-293"/>
<text text-anchor="start" x="848" y="-311" font-family="Helvetica,sans-Serif" font-size="10.00">DataFlow/SubframeBuilder</text>
<text text-anchor="middle" x="907" y="-300" font-family="Helvetica,sans-Serif" font-size="10.00">Device.h</text>
</a>
</g>
</g>
<!-- Node1&#45;&gt;Node5 -->
<g id="edge4" class="edge"><title>Node1&#45;&gt;Node5</title>
<path fill="none" stroke="midnightblue" d="M907,-360.787C907,-352.029 907,-342.225 907,-333.523"/>
<polygon fill="midnightblue" stroke="midnightblue" points="910.5,-333.252 907,-323.252 903.5,-333.252 910.5,-333.252"/>
</g>
<!-- Node6 -->
<g id="node6" class="node"><title>Node6</title>
<g id="a_node6"><a xlink:href="../../dc/dcd/DataHeader_8h.html" target="_top" xlink:title="Headers/DataHeader.h">
<polygon fill="none" stroke="black" points="230.5,-124.5 230.5,-143.5 347.5,-143.5 347.5,-124.5 230.5,-124.5"/>
<text text-anchor="middle" x="289" y="-131.5" font-family="Helvetica,sans-Serif" font-size="10.00">Headers/DataHeader.h</text>
</a>
</g>
</g>
<!-- Node1&#45;&gt;Node6 -->
<g id="edge58" class="edge"><title>Node1&#45;&gt;Node6</title>
<path fill="none" stroke="midnightblue" d="M836.473,-382.634C744.309,-376.874 578.571,-361.825 442,-324 308.089,-286.911 231.321,-316.115 155,-200 134.907,-169.431 177.95,-152.797 220.482,-144.033"/>
<polygon fill="midnightblue" stroke="midnightblue" points="221.224,-147.454 230.381,-142.125 219.899,-140.581 221.224,-147.454"/>
</g>
<!-- Node25 -->
<g id="node25" class="node"><title>Node25</title>
<g id="a_node25"><a xlink:href="../../d2/d09/HeartbeatFrame_8h.html" target="_top" xlink:title="Headers/HeartbeatFrame.h">
<polygon fill="none" stroke="black" points="1031.5,-180.5 1031.5,-199.5 1166.5,-199.5 1166.5,-180.5 1031.5,-180.5"/>
<text text-anchor="middle" x="1099" y="-187.5" font-family="Helvetica,sans-Serif" font-size="10.00">Headers/HeartbeatFrame.h</text>
</a>
</g>
</g>
<!-- Node1&#45;&gt;Node25 -->
<g id="edge57" class="edge"><title>Node1&#45;&gt;Node25</title>
<path fill="none" stroke="midnightblue" d="M940.065,-360.769C953.741,-349.892 969.52,-336.759 983,-324 1012.7,-295.886 1018.15,-286.849 1045,-256 1059.22,-239.661 1075,-220.546 1085.81,-207.293"/>
<polygon fill="midnightblue" stroke="midnightblue" points="1088.54,-209.486 1092.13,-199.518 1083.11,-205.071 1088.54,-209.486"/>
</g>
<!-- Node29 -->
<g id="node29" class="node"><title>Node29</title>
<polygon fill="none" stroke="#bfbfbf" points="164,-180.5 164,-199.5 310,-199.5 310,-180.5 164,-180.5"/>
<text text-anchor="middle" x="237" y="-187.5" font-family="Helvetica,sans-Serif" font-size="10.00">options/FairMQProgOptions.h</text>
</g>
<!-- Node1&#45;&gt;Node29 -->
<g id="edge59" class="edge"><title>Node1&#45;&gt;Node29</title>
<path fill="none" stroke="midnightblue" d="M836.443,-377.743C726.65,-363.173 509.785,-327.439 339,-256 307.754,-242.93 275.39,-220.526 255.721,-205.739"/>
<polygon fill="midnightblue" stroke="midnightblue" points="257.694,-202.842 247.626,-199.541 253.439,-208.4 257.694,-202.842"/>
</g>
<!-- Node35 -->
<g id="node35" class="node"><title>Node35</title>
<g id="a_node35"><a xlink:href="../../d2/de2/SubframeUtils_8h.html" target="_top" xlink:title="DataFlow/SubframeUtils.h">
<polygon fill="none" stroke="black" points="1107,-236.5 1107,-255.5 1239,-255.5 1239,-236.5 1107,-236.5"/>
<text text-anchor="middle" x="1173" y="-243.5" font-family="Helvetica,sans-Serif" font-size="10.00">DataFlow/SubframeUtils.h</text>
</a>
</g>
</g>
<!-- Node1&#45;&gt;Node35 -->
<g id="edge54" class="edge"><title>Node1&#45;&gt;Node35</title>
<path fill="none" stroke="midnightblue" d="M977.774,-370.367C1013.92,-360.458 1057.61,-345.405 1093,-324 1119.83,-307.772 1144.86,-281.083 1159.55,-263.776"/>
<polygon fill="midnightblue" stroke="midnightblue" points="1162.56,-265.622 1166.24,-255.686 1157.17,-261.16 1162.56,-265.622"/>
</g>
<!-- Node38 -->
<g id="node38" class="node"><title>Node38</title>
<g id="a_node38"><a xlink:href="../../d2/d1b/SubframeMetadata_8h.html" target="_top" xlink:title="Headers/SubframeMetadata.h">
<polygon fill="none" stroke="black" points="1347.5,-236.5 1347.5,-255.5 1494.5,-255.5 1494.5,-236.5 1347.5,-236.5"/>
<text text-anchor="middle" x="1421" y="-243.5" font-family="Helvetica,sans-Serif" font-size="10.00">Headers/SubframeMetadata.h</text>
</a>
</g>
</g>
<!-- Node1&#45;&gt;Node38 -->
<g id="edge55" class="edge"><title>Node1&#45;&gt;Node38</title>
<path fill="none" stroke="midnightblue" d="M977.723,-380.586C1081.97,-371.788 1271.23,-352.456 1333,-324 1363.42,-309.985 1391.19,-282.049 1407.08,-263.959"/>
<polygon fill="midnightblue" stroke="midnightblue" points="1410.06,-265.854 1413.89,-255.974 1404.74,-261.312 1410.06,-265.854"/>
</g>
<!-- Node5&#45;&gt;Node6 -->
<g id="edge5" class="edge"><title>Node5&#45;&gt;Node6</title>
<path fill="none" stroke="midnightblue" d="M839.759,-304.175C702.846,-297.926 401.287,-281.438 362,-256 329.423,-234.907 339.333,-213.057 319,-180 313.21,-170.587 306.402,-160.316 300.737,-151.967"/>
<polygon fill="midnightblue" stroke="midnightblue" points="303.479,-149.778 294.941,-143.505 297.704,-153.734 303.479,-149.778"/>
</g>
<!-- Node10 -->
<g id="node10" class="node"><title>Node10</title>
<polygon fill="none" stroke="#bfbfbf" points="83,-6.5 83,-25.5 129,-25.5 129,-6.5 83,-6.5"/>
<text text-anchor="middle" x="106" y="-13.5" font-family="Helvetica,sans-Serif" font-size="10.00">cstring</text>
</g>
<!-- Node5&#45;&gt;Node10 -->
<g id="edge52" class="edge"><title>Node5&#45;&gt;Node10</title>
<path fill="none" stroke="midnightblue" d="M839.748,-306.273C696.864,-302.905 376,-284.89 376,-191 376,-191 376,-191 376,-133 376,-102.775 378.764,-87.8843 356,-68 282.041,-3.39704 231.786,-61.1141 138,-32 135.726,-31.294 133.405,-30.4573 131.105,-29.5457"/>
<polygon fill="midnightblue" stroke="midnightblue" points="132.498,-26.3347 121.935,-25.5202 129.685,-32.7444 132.498,-26.3347"/>
</g>
<!-- Node5&#45;&gt;Node25 -->
<g id="edge26" class="edge"><title>Node5&#45;&gt;Node25</title>
<path fill="none" stroke="midnightblue" d="M942.772,-292.954C964.837,-283.679 993.344,-270.575 1017,-256 1040.97,-241.231 1065.97,-220.521 1081.97,-206.476"/>
<polygon fill="midnightblue" stroke="midnightblue" points="1084.32,-209.07 1089.46,-199.806 1079.67,-203.841 1084.32,-209.07"/>
</g>
<!-- Node26 -->
<g id="node26" class="node"><title>Node26</title>
<polygon fill="none" stroke="#bfbfbf" points="1031.5,-124.5 1031.5,-143.5 1066.5,-143.5 1066.5,-124.5 1031.5,-124.5"/>
<text text-anchor="middle" x="1049" y="-131.5" font-family="Helvetica,sans-Serif" font-size="10.00">map</text>
</g>
<!-- Node5&#45;&gt;Node26 -->
<g id="edge53" class="edge"><title>Node5&#45;&gt;Node26</title>
<path fill="none" stroke="midnightblue" d="M918.62,-292.925C944.645,-261.402 1007.5,-185.265 1035.34,-151.546"/>
<polygon fill="midnightblue" stroke="midnightblue" points="1038.25,-153.525 1041.91,-143.585 1032.85,-149.068 1038.25,-153.525"/>
</g>
<!-- Node27 -->
<g id="node27" class="node"><title>Node27</title>
<g id="a_node27"><a xlink:href="../../d2/dee/O2Device_8h.html" target="_top" xlink:title="O2Device/O2Device.h">
<polygon fill="none" stroke="black" points="544.5,-236.5 544.5,-255.5 659.5,-255.5 659.5,-236.5 544.5,-236.5"/>
<text text-anchor="middle" x="602" y="-243.5" font-family="Helvetica,sans-Serif" font-size="10.00">O2Device/O2Device.h</text>
</a>
</g>
</g>
<!-- Node5&#45;&gt;Node27 -->
<g id="edge31" class="edge"><title>Node5&#45;&gt;Node27</title>
<path fill="none" stroke="midnightblue" d="M839.689,-293.758C784.265,-282.855 706.736,-267.604 655.487,-257.522"/>
<polygon fill="midnightblue" stroke="midnightblue" points="656.09,-254.074 645.602,-255.577 654.739,-260.942 656.09,-254.074"/>
</g>
<!-- Node33 -->
<g id="node33" class="node"><title>Node33</title>
<g id="a_node33"><a xlink:href="../../d3/d95/PayloadMerger_8h.html" target="_top" xlink:title="DataFlow/PayloadMerger.h">
<polygon fill="none" stroke="black" points="839.5,-180.5 839.5,-199.5 974.5,-199.5 974.5,-180.5 839.5,-180.5"/>
<text text-anchor="middle" x="907" y="-187.5" font-family="Helvetica,sans-Serif" font-size="10.00">DataFlow/PayloadMerger.h</text>
</a>
</g>
</g>
<!-- Node5&#45;&gt;Node33 -->
<g id="edge41" class="edge"><title>Node5&#45;&gt;Node33</title>
<path fill="none" stroke="midnightblue" d="M907,-292.776C907,-271.971 907,-233.198 907,-209.981"/>
<polygon fill="midnightblue" stroke="midnightblue" points="910.5,-209.707 907,-199.707 903.5,-209.707 910.5,-209.707"/>
</g>
<!-- Node5&#45;&gt;Node35 -->
<g id="edge48" class="edge"><title>Node5&#45;&gt;Node35</title>
<path fill="none" stroke="midnightblue" d="M969.365,-292.933C1017.09,-282.168 1081.91,-267.547 1125.48,-257.718"/>
<polygon fill="midnightblue" stroke="midnightblue" points="1126.28,-261.127 1135.26,-255.513 1124.74,-254.299 1126.28,-261.127"/>
</g>
<!-- Node7 -->
<g id="node7" class="node"><title>Node7</title>
<polygon fill="none" stroke="#bfbfbf" points="803,-68.5 803,-87.5 849,-87.5 849,-68.5 803,-68.5"/>
<text text-anchor="middle" x="826" y="-75.5" font-family="Helvetica,sans-Serif" font-size="10.00">cstdint</text>
</g>
<!-- Node6&#45;&gt;Node7 -->
<g id="edge6" class="edge"><title>Node6&#45;&gt;Node7</title>
<path fill="none" stroke="midnightblue" d="M347.542,-127.911C435.905,-120.103 608.591,-104.345 755,-88 767.416,-86.6139 781.031,-84.9283 792.989,-83.3922"/>
<polygon fill="midnightblue" stroke="midnightblue" points="793.532,-86.8511 802.998,-82.0921 792.631,-79.9094 793.532,-86.8511"/>
</g>
<!-- Node8 -->
<g id="node8" class="node"><title>Node8</title>
<polygon fill="none" stroke="#bfbfbf" points="116,-68.5 116,-87.5 168,-87.5 168,-68.5 116,-68.5"/>
<text text-anchor="middle" x="142" y="-75.5" font-family="Helvetica,sans-Serif" font-size="10.00">memory</text>
</g>
<!-- Node6&#45;&gt;Node8 -->
<g id="edge7" class="edge"><title>Node6&#45;&gt;Node8</title>
<path fill="none" stroke="midnightblue" d="M265.707,-124.444C241.193,-115.438 202.404,-101.189 174.8,-91.049"/>
<polygon fill="midnightblue" stroke="midnightblue" points="175.777,-87.6793 165.184,-87.5164 173.363,-94.25 175.777,-87.6793"/>
</g>
<!-- Node9 -->
<g id="node9" class="node"><title>Node9</title>
<polygon fill="none" stroke="#bfbfbf" points="224.5,-68.5 224.5,-87.5 273.5,-87.5 273.5,-68.5 224.5,-68.5"/>
<text text-anchor="middle" x="249" y="-75.5" font-family="Helvetica,sans-Serif" font-size="10.00">cassert</text>
</g>
<!-- Node6&#45;&gt;Node9 -->
<g id="edge8" class="edge"><title>Node6&#45;&gt;Node9</title>
<path fill="none" stroke="midnightblue" d="M282.395,-124.083C276.745,-116.455 268.455,-105.264 261.549,-95.9408"/>
<polygon fill="midnightblue" stroke="midnightblue" points="264.247,-93.7034 255.482,-87.7511 258.622,-97.87 264.247,-93.7034"/>
</g>
<!-- Node6&#45;&gt;Node10 -->
<g id="edge9" class="edge"><title>Node6&#45;&gt;Node10</title>
<path fill="none" stroke="midnightblue" d="M274.455,-124.337C259.474,-115.371 235.487,-100.897 215,-88 184.396,-68.7341 149.433,-45.7917 127.536,-31.3095"/>
<polygon fill="midnightblue" stroke="midnightblue" points="129.272,-28.2614 119.003,-25.6562 125.406,-34.0969 129.272,-28.2614"/>
</g>
<!-- Node11 -->
<g id="node11" class="node"><title>Node11</title>
<polygon fill="none" stroke="#bfbfbf" points="292,-68.5 292,-87.5 348,-87.5 348,-68.5 292,-68.5"/>
<text text-anchor="middle" x="320" y="-75.5" font-family="Helvetica,sans-Serif" font-size="10.00">algorithm</text>
</g>
<!-- Node6&#45;&gt;Node11 -->
<g id="edge10" class="edge"><title>Node6&#45;&gt;Node11</title>
<path fill="none" stroke="midnightblue" d="M294.119,-124.083C298.408,-116.613 304.658,-105.724 309.942,-96.5199"/>
<polygon fill="midnightblue" stroke="midnightblue" points="313.033,-98.1662 314.976,-87.7511 306.962,-94.6811 313.033,-98.1662"/>
</g>
<!-- Node12 -->
<g id="node12" class="node"><title>Node12</title>
<polygon fill="none" stroke="#bfbfbf" points="687.5,-68.5 687.5,-87.5 746.5,-87.5 746.5,-68.5 687.5,-68.5"/>
<text text-anchor="middle" x="717" y="-75.5" font-family="Helvetica,sans-Serif" font-size="10.00">stdexcept</text>
</g>
<!-- Node6&#45;&gt;Node12 -->
<g id="edge11" class="edge"><title>Node6&#45;&gt;Node12</title>
<path fill="none" stroke="midnightblue" d="M347.615,-128.274C421.996,-121.819 554.385,-108.809 677.295,-87.9365"/>
<polygon fill="midnightblue" stroke="midnightblue" points="677.997,-91.3674 687.259,-86.2235 676.81,-84.4686 677.997,-91.3674"/>
</g>
<!-- Node13 -->
<g id="node13" class="node"><title>Node13</title>
<polygon fill="none" stroke="#bfbfbf" points="23.5,-6.5 23.5,-25.5 64.5,-25.5 64.5,-6.5 23.5,-6.5"/>
<text text-anchor="middle" x="44" y="-13.5" font-family="Helvetica,sans-Serif" font-size="10.00">string</text>
</g>
<!-- Node6&#45;&gt;Node13 -->
<g id="edge12" class="edge"><title>Node6&#45;&gt;Node13</title>
<path fill="none" stroke="midnightblue" d="M230.243,-127.516C192.801,-121.919 144.465,-110.647 107,-88 84.8363,-74.6024 66.1425,-50.8969 55.0109,-34.5884"/>
<polygon fill="midnightblue" stroke="midnightblue" points="57.7727,-32.4173 49.3616,-25.9748 51.9193,-36.2563 57.7727,-32.4173"/>
</g>
<!-- Node14 -->
<g id="node14" class="node"><title>Node14</title>
<g id="a_node14"><a xlink:href="../../dc/d03/MemoryResources_8h.html" target="_top" xlink:title="MemoryResources/MemoryResources.h">
<polygon fill="none" stroke="black" points="476.5,-68.5 476.5,-87.5 669.5,-87.5 669.5,-68.5 476.5,-68.5"/>
<text text-anchor="middle" x="573" y="-75.5" font-family="Helvetica,sans-Serif" font-size="10.00">MemoryResources/MemoryResources.h</text>
</a>
</g>
</g>
<!-- Node6&#45;&gt;Node14 -->
<g id="edge13" class="edge"><title>Node6&#45;&gt;Node14</title>
<path fill="none" stroke="midnightblue" d="M334.001,-124.444C383.959,-114.944 464.601,-99.611 518.199,-89.4198"/>
<polygon fill="midnightblue" stroke="midnightblue" points="519.04,-92.8228 528.21,-87.5164 517.732,-85.9461 519.04,-92.8228"/>
</g>
<!-- Node14&#45;&gt;Node10 -->
<g id="edge18" class="edge"><title>Node14&#45;&gt;Node10</title>
<path fill="none" stroke="midnightblue" d="M476.474,-68.7356C358.259,-58.3456 169.733,-40.8065 138,-32 135.655,-31.3493 133.269,-30.5403 130.911,-29.6376"/>
<polygon fill="midnightblue" stroke="midnightblue" points="132.115,-26.3445 121.549,-25.5651 129.323,-32.7635 132.115,-26.3445"/>
</g>
<!-- Node14&#45;&gt;Node13 -->
<g id="edge19" class="edge"><title>Node14&#45;&gt;Node13</title>
<path fill="none" stroke="midnightblue" d="M476.469,-72.5686C353.219,-66.1712 147.161,-52.784 74,-32 72.0255,-31.4391 70.0259,-30.7482 68.0457,-29.9739"/>
<polygon fill="midnightblue" stroke="midnightblue" points="69.0609,-26.5899 58.5104,-25.621 66.1539,-32.9578 69.0609,-26.5899"/>
</g>
<!-- Node15 -->
<g id="node15" class="node"><title>Node15</title>
<polygon fill="none" stroke="#bfbfbf" points="412,-1 412,-31 512,-31 512,-1 412,-1"/>
<text text-anchor="start" x="420" y="-19" font-family="Helvetica,sans-Serif" font-size="10.00">boost/container/flat</text>
<text text-anchor="middle" x="462" y="-8" font-family="Helvetica,sans-Serif" font-size="10.00">_map.hpp</text>
</g>
<!-- Node14&#45;&gt;Node15 -->
<g id="edge14" class="edge"><title>Node14&#45;&gt;Node15</title>
<path fill="none" stroke="midnightblue" d="M557.096,-68.4035C541.501,-59.9735 517.202,-46.8389 497.071,-35.957"/>
<polygon fill="midnightblue" stroke="midnightblue" points="498.622,-32.8171 488.161,-31.1408 495.293,-38.975 498.622,-32.8171"/>
</g>
<!-- Node16 -->
<g id="node16" class="node"><title>Node16</title>
<polygon fill="none" stroke="#bfbfbf" points="530,-1 530,-31 646,-31 646,-1 530,-1"/>
<text text-anchor="start" x="538" y="-19" font-family="Helvetica,sans-Serif" font-size="10.00">boost/container/pmr</text>
<text text-anchor="middle" x="588" y="-8" font-family="Helvetica,sans-Serif" font-size="10.00">/memory_resource.hpp</text>
</g>
<!-- Node14&#45;&gt;Node16 -->
<g id="edge15" class="edge"><title>Node14&#45;&gt;Node16</title>
<path fill="none" stroke="midnightblue" d="M575.149,-68.4035C576.934,-61.2646 579.562,-50.7517 581.977,-41.0903"/>
<polygon fill="midnightblue" stroke="midnightblue" points="585.435,-41.6911 584.465,-31.1408 578.644,-39.9933 585.435,-41.6911"/>
</g>
<!-- Node17 -->
<g id="node17" class="node"><title>Node17</title>
<polygon fill="none" stroke="#bfbfbf" points="664,-1 664,-31 820,-31 820,-1 664,-1"/>
<text text-anchor="start" x="672" y="-19" font-family="Helvetica,sans-Serif" font-size="10.00">boost/container/pmr</text>
<text text-anchor="middle" x="742" y="-8" font-family="Helvetica,sans-Serif" font-size="10.00">/monotonic_buffer_resource.hpp</text>
</g>
<!-- Node14&#45;&gt;Node17 -->
<g id="edge16" class="edge"><title>Node14&#45;&gt;Node17</title>
<path fill="none" stroke="midnightblue" d="M597.214,-68.4035C622.11,-59.5644 661.576,-45.553 693.02,-34.3895"/>
<polygon fill="midnightblue" stroke="midnightblue" points="694.243,-37.6694 702.495,-31.0253 691.901,-31.0728 694.243,-37.6694"/>
</g>
<!-- Node18 -->
<g id="node18" class="node"><title>Node18</title>
<polygon fill="none" stroke="#bfbfbf" points="838.5,-1 838.5,-31 971.5,-31 971.5,-1 838.5,-1"/>
<text text-anchor="start" x="846.5" y="-19" font-family="Helvetica,sans-Serif" font-size="10.00">boost/container/pmr</text>
<text text-anchor="middle" x="905" y="-8" font-family="Helvetica,sans-Serif" font-size="10.00">/polymorphic_allocator.hpp</text>
</g>
<!-- Node14&#45;&gt;Node18 -->
<g id="edge17" class="edge"><title>Node14&#45;&gt;Node18</title>
<path fill="none" stroke="midnightblue" d="M623.573,-68.4305C673.133,-59.9603 751.082,-46.4475 828.375,-32.0946"/>
<polygon fill="midnightblue" stroke="midnightblue" points="829.097,-35.5205 838.287,-30.2488 827.815,-28.6389 829.097,-35.5205"/>
</g>
<!-- Node19 -->
<g id="node19" class="node"><title>Node19</title>
<polygon fill="none" stroke="#bfbfbf" points="990,-6.5 990,-25.5 1052,-25.5 1052,-6.5 990,-6.5"/>
<text text-anchor="middle" x="1021" y="-13.5" font-family="Helvetica,sans-Serif" font-size="10.00">type_traits</text>
</g>
<!-- Node14&#45;&gt;Node19 -->
<g id="edge20" class="edge"><title>Node14&#45;&gt;Node19</title>
<path fill="none" stroke="midnightblue" d="M660.359,-68.469C770.647,-57.5236 949.72,-39.1034 980,-32 983.5,-31.1788 987.111,-30.1469 990.672,-29.0106"/>
<polygon fill="midnightblue" stroke="midnightblue" points="992.139,-32.2062 1000.44,-25.6198 989.843,-25.5934 992.139,-32.2062"/>
</g>
<!-- Node20 -->
<g id="node20" class="node"><title>Node20</title>
<polygon fill="none" stroke="#bfbfbf" points="1172,-6.5 1172,-25.5 1212,-25.5 1212,-6.5 1172,-6.5"/>
<text text-anchor="middle" x="1192" y="-13.5" font-family="Helvetica,sans-Serif" font-size="10.00">utility</text>
</g>
<!-- Node14&#45;&gt;Node20 -->
<g id="edge21" class="edge"><title>Node14&#45;&gt;Node20</title>
<path fill="none" stroke="midnightblue" d="M669.687,-68.6713C672.489,-68.4432 675.264,-68.219 678,-68 893.018,-50.789 954.049,-89.3161 1162,-32 1164.19,-31.3966 1166.41,-30.6289 1168.6,-29.7609"/>
<polygon fill="midnightblue" stroke="midnightblue" points="1170.19,-32.8791 1177.81,-25.5132 1167.26,-26.5224 1170.19,-32.8791"/>
</g>
<!-- Node21 -->
<g id="node21" class="node"><title>Node21</title>
<polygon fill="none" stroke="#bfbfbf" points="1230,-6.5 1230,-25.5 1274,-25.5 1274,-6.5 1230,-6.5"/>
<text text-anchor="middle" x="1252" y="-13.5" font-family="Helvetica,sans-Serif" font-size="10.00">vector</text>
</g>
<!-- Node14&#45;&gt;Node21 -->
<g id="edge22" class="edge"><title>Node14&#45;&gt;Node21</title>
<path fill="none" stroke="midnightblue" d="M669.685,-68.642C672.487,-68.4225 675.263,-68.208 678,-68 919.168,-49.6715 987.169,-93.8116 1221,-32 1223.34,-31.3812 1225.72,-30.5827 1228.06,-29.677"/>
<polygon fill="midnightblue" stroke="midnightblue" points="1229.61,-32.8154 1237.31,-25.5349 1226.75,-26.4263 1229.61,-32.8154"/>
</g>
<!-- Node22 -->
<g id="node22" class="node"><title>Node22</title>
<polygon fill="none" stroke="#bfbfbf" points="1070.5,-6.5 1070.5,-25.5 1153.5,-25.5 1153.5,-6.5 1070.5,-6.5"/>
<text text-anchor="middle" x="1112" y="-13.5" font-family="Helvetica,sans-Serif" font-size="10.00">unordered_map</text>
</g>
<!-- Node14&#45;&gt;Node22 -->
<g id="edge23" class="edge"><title>Node14&#45;&gt;Node22</title>
<path fill="none" stroke="midnightblue" d="M669.612,-68.5433C806.141,-56.5242 1041.15,-35.5569 1060,-32 1065.23,-31.0127 1070.7,-29.7275 1076.03,-28.3245"/>
<polygon fill="midnightblue" stroke="midnightblue" points="1077.35,-31.5895 1086.05,-25.529 1075.47,-24.8474 1077.35,-31.5895"/>
</g>
<!-- Node23 -->
<g id="node23" class="node"><title>Node23</title>
<polygon fill="none" stroke="#bfbfbf" points="147.5,-6.5 147.5,-25.5 244.5,-25.5 244.5,-6.5 147.5,-6.5"/>
<text text-anchor="middle" x="196" y="-13.5" font-family="Helvetica,sans-Serif" font-size="10.00">FairMQMessage.h</text>
</g>
<!-- Node14&#45;&gt;Node23 -->
<g id="edge24" class="edge"><title>Node14&#45;&gt;Node23</title>
<path fill="none" stroke="midnightblue" d="M493.657,-68.4737C428.635,-60.8567 334.401,-48.375 253,-32 247.28,-30.8494 241.281,-29.4673 235.41,-28.0138"/>
<polygon fill="midnightblue" stroke="midnightblue" points="236.28,-24.6237 225.724,-25.5287 234.54,-31.4041 236.28,-24.6237"/>
</g>
<!-- Node24 -->
<g id="node24" class="node"><title>Node24</title>
<polygon fill="none" stroke="#bfbfbf" points="262.5,-6.5 262.5,-25.5 393.5,-25.5 393.5,-6.5 262.5,-6.5"/>
<text text-anchor="middle" x="328" y="-13.5" font-family="Helvetica,sans-Serif" font-size="10.00">FairMQTransportFactory.h</text>
</g>
<!-- Node14&#45;&gt;Node24 -->
<g id="edge25" class="edge"><title>Node14&#45;&gt;Node24</title>
<path fill="none" stroke="midnightblue" d="M538.158,-68.4672C494.62,-57.8048 420.059,-39.5452 372.451,-27.886"/>
<polygon fill="midnightblue" stroke="midnightblue" points="373.268,-24.4826 362.722,-25.5034 371.603,-31.2817 373.268,-24.4826"/>
</g>
<!-- Node25&#45;&gt;Node4 -->
<g id="edge28" class="edge"><title>Node25&#45;&gt;Node4</title>
<path fill="none" stroke="midnightblue" d="M1108.32,-180.324C1116.89,-172.341 1129.81,-160.313 1140.19,-150.653"/>
<polygon fill="midnightblue" stroke="midnightblue" points="1142.58,-153.21 1147.51,-143.834 1137.81,-148.086 1142.58,-153.21"/>
</g>
<!-- Node25&#45;&gt;Node6 -->
<g id="edge27" class="edge"><title>Node25&#45;&gt;Node6</title>
<path fill="none" stroke="midnightblue" d="M1031.23,-183.597C1015.41,-182.375 998.615,-181.112 983,-180 753.989,-163.692 482.287,-146.783 357.668,-139.163"/>
<polygon fill="midnightblue" stroke="midnightblue" points="357.706,-135.659 347.511,-138.543 357.279,-142.646 357.706,-135.659"/>
</g>
<!-- Node25&#45;&gt;Node21 -->
<g id="edge30" class="edge"><title>Node25&#45;&gt;Node21</title>
<path fill="none" stroke="midnightblue" d="M1100.02,-180.304C1101.92,-167.135 1106.94,-141.785 1119,-124 1147.37,-82.1704 1196.96,-48.5866 1226.92,-30.8261"/>
<polygon fill="midnightblue" stroke="midnightblue" points="1229,-33.6649 1235.9,-25.6253 1225.49,-27.607 1229,-33.6649"/>
</g>
<!-- Node25&#45;&gt;Node26 -->
<g id="edge29" class="edge"><title>Node25&#45;&gt;Node26</title>
<path fill="none" stroke="midnightblue" d="M1090.74,-180.083C1083.54,-172.298 1072.89,-160.801 1064.15,-151.367"/>
<polygon fill="midnightblue" stroke="midnightblue" points="1066.47,-148.711 1057.1,-143.751 1061.33,-153.467 1066.47,-148.711"/>
</g>
<!-- Node27&#45;&gt;Node12 -->
<g id="edge40" class="edge"><title>Node27&#45;&gt;Node12</title>
<path fill="none" stroke="midnightblue" d="M608.183,-236.075C626.52,-209.606 680.831,-131.209 705.078,-96.2097"/>
<polygon fill="midnightblue" stroke="midnightblue" points="708.247,-97.7814 711.064,-87.5681 702.492,-93.7951 708.247,-97.7814"/>
</g>
<!-- Node28 -->
<g id="node28" class="node"><title>Node28</title>
<polygon fill="none" stroke="#bfbfbf" points="404,-180.5 404,-199.5 492,-199.5 492,-180.5 404,-180.5"/>
<text text-anchor="middle" x="448" y="-187.5" font-family="Helvetica,sans-Serif" font-size="10.00">FairMQDevice.h</text>
</g>
<!-- Node27&#45;&gt;Node28 -->
<g id="edge32" class="edge"><title>Node27&#45;&gt;Node28</title>
<path fill="none" stroke="midnightblue" d="M577.598,-236.444C551.803,-227.399 510.923,-213.064 481.982,-202.916"/>
<polygon fill="midnightblue" stroke="midnightblue" points="482.882,-199.523 472.288,-199.516 480.566,-206.128 482.882,-199.523"/>
</g>
<!-- Node27&#45;&gt;Node29 -->
<g id="edge33" class="edge"><title>Node27&#45;&gt;Node29</title>
<path fill="none" stroke="midnightblue" d="M544.165,-236.444C479.156,-226.826 373.723,-211.228 304.869,-201.041"/>
<polygon fill="midnightblue" stroke="midnightblue" points="304.969,-197.518 294.565,-199.516 303.945,-204.442 304.969,-197.518"/>
</g>
<!-- Node30 -->
<g id="node30" class="node"><title>Node30</title>
<g id="a_node30"><a xlink:href="../../d7/db2/Utilities_8h.html" target="_top" xlink:title="O2Device/Utilities.h">
<polygon fill="none" stroke="black" points="510,-180.5 510,-199.5 614,-199.5 614,-180.5 510,-180.5"/>
<text text-anchor="middle" x="562" y="-187.5" font-family="Helvetica,sans-Serif" font-size="10.00">O2Device/Utilities.h</text>
</a>
</g>
</g>
<!-- Node27&#45;&gt;Node30 -->
<g id="edge34" class="edge"><title>Node27&#45;&gt;Node30</title>
<path fill="none" stroke="midnightblue" d="M595.395,-236.083C589.745,-228.455 581.455,-217.264 574.549,-207.941"/>
<polygon fill="midnightblue" stroke="midnightblue" points="577.247,-205.703 568.482,-199.751 571.622,-209.87 577.247,-205.703"/>
</g>
<!-- Node32 -->
<g id="node32" class="node"><title>Node32</title>
<polygon fill="none" stroke="#bfbfbf" points="670.5,-180.5 670.5,-199.5 821.5,-199.5 821.5,-180.5 670.5,-180.5"/>
<text text-anchor="middle" x="746" y="-187.5" font-family="Helvetica,sans-Serif" font-size="10.00">Monitoring/MonitoringFactory.h</text>
</g>
<!-- Node27&#45;&gt;Node32 -->
<g id="edge39" class="edge"><title>Node27&#45;&gt;Node32</title>
<path fill="none" stroke="midnightblue" d="M624.817,-236.444C648.832,-227.438 686.829,-213.189 713.869,-203.049"/>
<polygon fill="midnightblue" stroke="midnightblue" points="715.155,-206.305 723.29,-199.516 712.697,-199.751 715.155,-206.305"/>
</g>
<!-- Node30&#45;&gt;Node6 -->
<g id="edge36" class="edge"><title>Node30&#45;&gt;Node6</title>
<path fill="none" stroke="midnightblue" d="M518.742,-180.444C470.819,-170.964 393.522,-155.675 342,-145.483"/>
<polygon fill="midnightblue" stroke="midnightblue" points="342.544,-142.023 332.055,-143.516 341.186,-148.89 342.544,-142.023"/>
</g>
<!-- Node30&#45;&gt;Node14 -->
<g id="edge35" class="edge"><title>Node30&#45;&gt;Node14</title>
<path fill="none" stroke="midnightblue" d="M562.863,-180.368C564.638,-162.617 568.733,-121.666 571.14,-97.5974"/>
<polygon fill="midnightblue" stroke="midnightblue" points="574.628,-97.8901 572.141,-87.5914 567.663,-97.1935 574.628,-97.8901"/>
</g>
<!-- Node30&#45;&gt;Node20 -->
<g id="edge37" class="edge"><title>Node30&#45;&gt;Node20</title>
<path fill="none" stroke="midnightblue" d="M578.45,-180.368C630.925,-152.838 791.088,-68.8662 794,-68 951.515,-21.145 1004.09,-77.5071 1162,-32 1163.97,-31.4316 1165.97,-30.7353 1167.95,-29.9572"/>
<polygon fill="midnightblue" stroke="midnightblue" points="1169.84,-32.9393 1177.48,-25.597 1166.93,-26.5735 1169.84,-32.9393"/>
</g>
<!-- Node31 -->
<g id="node31" class="node"><title>Node31</title>
<polygon fill="none" stroke="#bfbfbf" points="499.5,-124.5 499.5,-143.5 544.5,-143.5 544.5,-124.5 499.5,-124.5"/>
<text text-anchor="middle" x="522" y="-131.5" font-family="Helvetica,sans-Serif" font-size="10.00">gsl/gsl</text>
</g>
<!-- Node30&#45;&gt;Node31 -->
<g id="edge38" class="edge"><title>Node30&#45;&gt;Node31</title>
<path fill="none" stroke="midnightblue" d="M555.395,-180.083C549.745,-172.455 541.455,-161.264 534.549,-151.941"/>
<polygon fill="midnightblue" stroke="midnightblue" points="537.247,-149.703 528.482,-143.751 531.622,-153.87 537.247,-149.703"/>
</g>
<!-- Node33&#45;&gt;Node4 -->
<g id="edge45" class="edge"><title>Node33&#45;&gt;Node4</title>
<path fill="none" stroke="midnightblue" d="M946.613,-180.444C993.334,-170.352 1070.54,-153.676 1117.3,-143.576"/>
<polygon fill="midnightblue" stroke="midnightblue" points="1118.32,-146.935 1127.36,-141.403 1116.84,-140.093 1118.32,-146.935"/>
</g>
<!-- Node33&#45;&gt;Node7 -->
<g id="edge43" class="edge"><title>Node33&#45;&gt;Node7</title>
<path fill="none" stroke="midnightblue" d="M885.165,-180.385C869.541,-173.066 849.34,-161.02 838,-144 828.953,-130.421 826.254,-111.874 825.642,-98.0671"/>
<polygon fill="midnightblue" stroke="midnightblue" points="829.139,-97.7565 825.526,-87.7969 822.139,-97.8359 829.139,-97.7565"/>
</g>
<!-- Node33&#45;&gt;Node10 -->
<g id="edge46" class="edge"><title>Node33&#45;&gt;Node10</title>
<path fill="none" stroke="midnightblue" d="M868.066,-180.454C791.223,-163.5 614.695,-124.125 467,-88 432.655,-79.5995 424.667,-74.9556 390,-68 279.074,-45.7437 246.409,-64.3645 138,-32 135.718,-31.3188 133.393,-30.4993 131.089,-29.5992"/>
<polygon fill="midnightblue" stroke="midnightblue" points="132.478,-26.3864 121.913,-25.5925 129.677,-32.8016 132.478,-26.3864"/>
</g>
<!-- Node33&#45;&gt;Node21 -->
<g id="edge44" class="edge"><title>Node33&#45;&gt;Node21</title>
<path fill="none" stroke="midnightblue" d="M921.457,-180.432C943.216,-167.643 985.801,-143.03 1023,-124 1109.39,-79.8068 1133.32,-73.5782 1221,-32 1222.35,-31.3595 1223.73,-30.7011 1225.13,-30.0343"/>
<polygon fill="midnightblue" stroke="midnightblue" points="1226.82,-33.1031 1234.32,-25.6149 1223.79,-26.7946 1226.82,-33.1031"/>
</g>
<!-- Node33&#45;&gt;Node26 -->
<g id="edge42" class="edge"><title>Node33&#45;&gt;Node26</title>
<path fill="none" stroke="midnightblue" d="M929.5,-180.444C954.464,-170.95 994.751,-155.63 1021.55,-145.439"/>
<polygon fill="midnightblue" stroke="midnightblue" points="1023,-148.633 1031.1,-141.807 1020.51,-142.09 1023,-148.633"/>
</g>
<!-- Node34 -->
<g id="node34" class="node"><title>Node34</title>
<polygon fill="none" stroke="#bfbfbf" points="847.5,-124.5 847.5,-143.5 974.5,-143.5 974.5,-124.5 847.5,-124.5"/>
<text text-anchor="middle" x="911" y="-131.5" font-family="Helvetica,sans-Serif" font-size="10.00">fairmq/FairMQMessage.h</text>
</g>
<!-- Node33&#45;&gt;Node34 -->
<g id="edge47" class="edge"><title>Node33&#45;&gt;Node34</title>
<path fill="none" stroke="midnightblue" d="M907.661,-180.083C908.185,-173.006 908.936,-162.861 909.594,-153.986"/>
<polygon fill="midnightblue" stroke="midnightblue" points="913.103,-153.982 910.352,-143.751 906.123,-153.465 913.103,-153.982"/>
</g>
<!-- Node35&#45;&gt;Node25 -->
<g id="edge51" class="edge"><title>Node35&#45;&gt;Node25</title>
<path fill="none" stroke="midnightblue" d="M1161.11,-236.324C1149.85,-228.107 1132.71,-215.602 1119.29,-205.807"/>
<polygon fill="midnightblue" stroke="midnightblue" points="1121.25,-202.901 1111.11,-199.834 1117.12,-208.556 1121.25,-202.901"/>
</g>
<!-- Node36 -->
<g id="node36" class="node"><title>Node36</title>
<polygon fill="none" stroke="#bfbfbf" points="1185,-180.5 1185,-199.5 1223,-199.5 1223,-180.5 1185,-180.5"/>
<text text-anchor="middle" x="1204" y="-187.5" font-family="Helvetica,sans-Serif" font-size="10.00">tuple</text>
</g>
<!-- Node35&#45;&gt;Node36 -->
<g id="edge49" class="edge"><title>Node35&#45;&gt;Node36</title>
<path fill="none" stroke="midnightblue" d="M1178.12,-236.083C1182.41,-228.613 1188.66,-217.724 1193.94,-208.52"/>
<polygon fill="midnightblue" stroke="midnightblue" points="1197.03,-210.166 1198.98,-199.751 1190.96,-206.681 1197.03,-210.166"/>
</g>
<!-- Node37 -->
<g id="node37" class="node"><title>Node37</title>
<polygon fill="none" stroke="#bfbfbf" points="1241.5,-180.5 1241.5,-199.5 1290.5,-199.5 1290.5,-180.5 1241.5,-180.5"/>
<text text-anchor="middle" x="1266" y="-187.5" font-family="Helvetica,sans-Serif" font-size="10.00">cstddef</text>
</g>
<!-- Node35&#45;&gt;Node37 -->
<g id="edge50" class="edge"><title>Node35&#45;&gt;Node37</title>
<path fill="none" stroke="midnightblue" d="M1187.94,-236.324C1202.59,-227.822 1225.13,-214.729 1242.24,-204.797"/>
<polygon fill="midnightblue" stroke="midnightblue" points="1244.2,-207.703 1251.1,-199.655 1240.69,-201.649 1244.2,-207.703"/>
</g>
<!-- Node38&#45;&gt;Node21 -->
<g id="edge56" class="edge"><title>Node38&#45;&gt;Node21</title>
<path fill="none" stroke="midnightblue" d="M1414.58,-236.341C1389.54,-202.553 1298.12,-79.2189 1264.51,-33.8746"/>
<polygon fill="midnightblue" stroke="midnightblue" points="1267.19,-31.6176 1258.43,-25.6681 1261.57,-35.786 1267.19,-31.6176"/>
</g>
</g>
</svg>
        <g id="navigator" transform="translate(0 0)" fill="#404254">
                <rect fill="#f2f5e9" fill-opacity="0.5" stroke="#606060" stroke-width=".5" x="0" y="0" width="60" height="60"/>
                <use id="zoomplus" xlink:href="#zoomPlus" x="17" y="9" onmousedown="handleZoom(evt,'in')"/>
                <use id="zoomminus" xlink:href="#zoomMin" x="42" y="9" onmousedown="handleZoom(evt,'out')"/>
                <use id="reset" xlink:href="#resetDef" x="30" y="36" onmousedown="handleReset()"/>
                <g id="arrowUp" xlink:href="#dirArrow" transform="translate(30 24)" onmousedown="handlePan(0,-1)">
                  <use xlink:href="#rim" fill="#404040">
                        <set attributeName="fill" to="#808080" begin="arrowUp.mouseover" end="arrowUp.mouseout"/>
                  </use>
                  <path fill="none" stroke="white" stroke-width="1.5" d="M0,-3.0v7 M-2.5,-0.5L0,-3.0L2.5,-0.5"/>
                </g>
                <g id="arrowRight" xlink:href="#dirArrow" transform="rotate(90) translate(36 -43)" onmousedown="handlePan(1,0)">
                  <use xlink:href="#rim" fill="#404040">
                        <set attributeName="fill" to="#808080" begin="arrowRight.mouseover" end="arrowRight.mouseout"/>
                  </use>
                  <path fill="none" stroke="white" stroke-width="1.5" d="M0,-3.0v7 M-2.5,-0.5L0,-3.0L2.5,-0.5"/>
                </g>
                <g id="arrowDown" xlink:href="#dirArrow" transform="rotate(180) translate(-30 -48)" onmousedown="handlePan(0,1)">
                  <use xlink:href="#rim" fill="#404040">
                        <set attributeName="fill" to="#808080" begin="arrowDown.mouseover" end="arrowDown.mouseout"/>
                  </use>
                  <path fill="none" stroke="white" stroke-width="1.5" d="M0,-3.0v7 M-2.5,-0.5L0,-3.0L2.5,-0.5"/>
                </g>
                <g id="arrowLeft" xlink:href="#dirArrow" transform="rotate(270) translate(-36 17)" onmousedown="handlePan(-1,0)">
                  <use xlink:href="#rim" fill="#404040">
                        <set attributeName="fill" to="#808080" begin="arrowLeft.mouseover" end="arrowLeft.mouseout"/>
                  </use>
                  <path fill="none" stroke="white" stroke-width="1.5" d="M0,-3.0v7 M-2.5,-0.5L0,-3.0L2.5,-0.5"/>
                </g>
        </g>
        <svg viewBox="0 0 15 15" width="100%" height="30px" preserveAspectRatio="xMaxYMin meet">
         <g id="arrow_out" transform="scale(0.3 0.3)">
          <a xlink:href="SubframeBuilderDevice_8cxx__incl_org.svg" target="_base">
           <rect id="button" ry="5" rx="5" y="6" x="6" height="38" width="38"
                fill="#f2f5e9" fill-opacity="0.5" stroke="#606060" stroke-width="1.0"/>
           <path id="arrow"
             d="M 11.500037,31.436501 C 11.940474,20.09759 22.043105,11.32322 32.158766,21.979434 L 37.068811,17.246167 C 37.068811,17.246167 37.088388,32 37.088388,32 L 22.160133,31.978069 C 22.160133,31.978069 26.997745,27.140456 26.997745,27.140456 C 18.528582,18.264221 13.291696,25.230495 11.500037,31.436501 z"
             style="fill:#404040;"/>
          </a>
         </g>
        </svg>
</svg>
