<?xml version="1.0" encoding="UTF-8" standalone="no"?>
<!DOCTYPE svg PUBLIC "-//W3C//DTD SVG 1.1//EN"
 "http://www.w3.org/Graphics/SVG/1.1/DTD/svg11.dtd">
<!-- Generated by graphviz version 2.36.0 (20140111.2315)
 -->
<!-- Title: o2::framework::rtr::DefaultKey Pages: 1 -->
<!--zoomable 738 -->
<svg id="main" version="1.1" xmlns="http://www.w3.org/2000/svg" xmlns:xlink="http://www.w3.org/1999/xlink" xml:space="preserve" onload="init(evt)">
<style type="text/css"><![CDATA[
.edge:hover path { stroke: red; }
.edge:hover polygon { stroke: red; fill: red; }
]]></style>
<script type="text/javascript"><![CDATA[
var edges = document.getElementsByTagName('g');
if (edges && edges.length) {
  for (var i=0;i<edges.length;i++) {
    if (edges[i].id.substr(0,4)=='edge') {
      edges[i].setAttribute('class','edge');
    }
  }
}
]]></script>
        <defs>
                <circle id="rim" cx="0" cy="0" r="7"/>
                <circle id="rim2" cx="0" cy="0" r="3.5"/>
                <g id="zoomPlus">
                        <use xlink:href="#rim" fill="#404040">
                                <set attributeName="fill" to="#808080" begin="zoomplus.mouseover" end="zoomplus.mouseout"/>
                        </use>
                        <path d="M-4,0h8M0,-4v8" fill="none" stroke="white" stroke-width="1.5" pointer-events="none"/>
                </g>
                <g id="zoomMin">
                        <use xlink:href="#rim" fill="#404040">
                                <set attributeName="fill" to="#808080" begin="zoomminus.mouseover" end="zoomminus.mouseout"/>
                        </use>
                        <path d="M-4,0h8" fill="none" stroke="white" stroke-width="1.5" pointer-events="none"/>
                </g>
                <g id="dirArrow">
                        <path fill="none" stroke="white" stroke-width="1.5" d="M0,-3.0v7 M-2.5,-0.5L0,-3.0L2.5,-0.5"/>
                </g>
               <g id="resetDef">
                       <use xlink:href="#rim2" fill="#404040">
                               <set attributeName="fill" to="#808080" begin="reset.mouseover" end="reset.mouseout"/>
                       </use>
               </g>
        </defs>

<script type="text/javascript">
var viewWidth = 664;
var viewHeight = 738;
var sectionId = 'dynsection-0';
</script>
<script xlink:href="../../svgpan.js"/>
<svg id="graph" class="graph">
<g id="viewport">
<title>o2::framework::rtr::DefaultKey</title>
<!-- Node1 -->
<g id="node1" class="node"><title>Node1</title>
<polygon fill="#bfbfbf" stroke="black" points="157.5,-0.5 157.5,-79.5 256.5,-79.5 256.5,-0.5 157.5,-0.5"/>
<text text-anchor="start" x="165.5" y="-67.5" font-family="Helvetica,sans-Serif" font-size="10.00">o2::framework::rtr</text>
<text text-anchor="middle" x="207" y="-56.5" font-family="Helvetica,sans-Serif" font-size="10.00">::DefaultKey</text>
<polyline fill="none" stroke="black" points="157.5,-49.5 256.5,-49.5 "/>
<text text-anchor="middle" x="207" y="-37.5" font-family="Helvetica,sans-Serif" font-size="10.00"> </text>
<polyline fill="none" stroke="black" points="157.5,-30.5 256.5,-30.5 "/>
<text text-anchor="start" x="165.5" y="-18.5" font-family="Helvetica,sans-Serif" font-size="10.00">+ DefaultKey()</text>
<text text-anchor="start" x="165.5" y="-7.5" font-family="Helvetica,sans-Serif" font-size="10.00">+ operator Output()</text>
</g>
<!-- Node2 -->
<g id="node2" class="node"><title>Node2</title>
<polygon fill="none" stroke="#bfbfbf" points="-0.5,-205.5 -0.5,-262.5 50.5,-262.5 50.5,-205.5 -0.5,-205.5"/>
<text text-anchor="middle" x="25" y="-250.5" font-family="Helvetica,sans-Serif" font-size="10.00">uint64_t</text>
<polyline fill="none" stroke="#bfbfbf" points="-0.5,-243.5 50.5,-243.5 "/>
<text text-anchor="middle" x="25" y="-231.5" font-family="Helvetica,sans-Serif" font-size="10.00"> </text>
<polyline fill="none" stroke="#bfbfbf" points="-0.5,-224.5 50.5,-224.5 "/>
<text text-anchor="middle" x="25" y="-212.5" font-family="Helvetica,sans-Serif" font-size="10.00"> </text>
</g>
<!-- Node2&#45;&gt;Node1 -->
<g id="edge1" class="edge"><title>Node2&#45;&gt;Node1</title>
<path fill="none" stroke="#404040" d="M28.4079,-205.431C32.43,-182.612 41.0112,-150.416 59,-128 81.6615,-99.7613 116.143,-78.7322 146.123,-64.4291"/>
<polygon fill="none" stroke="#404040" points="146.451,-64.2785 150.237,-58.1413 157.359,-59.2756 153.573,-65.4129 146.451,-64.2785"/>
<text text-anchor="middle" x="113" y="-101.5" font-family="Helvetica,sans-Serif" font-size="10.00"> +subSpec</text>
</g>
<!-- Node3 -->
<g id="node3" class="node"><title>Node3</title>
<g id="a_node3"><a xlink:href="../../d9/db3/structo2_1_1header_1_1Descriptor.html" target="_top" xlink:title="{o2::header::Descriptor\l\&lt; gSizeDataOriginString,\l printDataOrigin \&gt;\n||+ Descriptor()\l+ Descriptor()\l+ Descriptor()\l+ Descriptor()\l+ operator=()\l+ operator ItgType()\l+ runtimeInit()\l+ operator==()\l+ operator==()\l+ operator!=()\l+ operator!=()\l+ as()\l+ print()\l}">
<polygon fill="none" stroke="black" points="68.5,-128.5 68.5,-339.5 193.5,-339.5 193.5,-128.5 68.5,-128.5"/>
<text text-anchor="start" x="76.5" y="-327.5" font-family="Helvetica,sans-Serif" font-size="10.00">o2::header::Descriptor</text>
<text text-anchor="start" x="76.5" y="-316.5" font-family="Helvetica,sans-Serif" font-size="10.00">&lt; gSizeDataOriginString,</text>
<text text-anchor="middle" x="131" y="-305.5" font-family="Helvetica,sans-Serif" font-size="10.00"> printDataOrigin &gt;</text>
<polyline fill="none" stroke="black" points="68.5,-298.5 193.5,-298.5 "/>
<text text-anchor="middle" x="131" y="-286.5" font-family="Helvetica,sans-Serif" font-size="10.00"> </text>
<polyline fill="none" stroke="black" points="68.5,-279.5 193.5,-279.5 "/>
<text text-anchor="start" x="76.5" y="-267.5" font-family="Helvetica,sans-Serif" font-size="10.00">+ Descriptor()</text>
<text text-anchor="start" x="76.5" y="-256.5" font-family="Helvetica,sans-Serif" font-size="10.00">+ Descriptor()</text>
<text text-anchor="start" x="76.5" y="-245.5" font-family="Helvetica,sans-Serif" font-size="10.00">+ Descriptor()</text>
<text text-anchor="start" x="76.5" y="-234.5" font-family="Helvetica,sans-Serif" font-size="10.00">+ Descriptor()</text>
<text text-anchor="start" x="76.5" y="-223.5" font-family="Helvetica,sans-Serif" font-size="10.00">+ operator=()</text>
<text text-anchor="start" x="76.5" y="-212.5" font-family="Helvetica,sans-Serif" font-size="10.00">+ operator ItgType()</text>
<text text-anchor="start" x="76.5" y="-201.5" font-family="Helvetica,sans-Serif" font-size="10.00">+ runtimeInit()</text>
<text text-anchor="start" x="76.5" y="-190.5" font-family="Helvetica,sans-Serif" font-size="10.00">+ operator==()</text>
<text text-anchor="start" x="76.5" y="-179.5" font-family="Helvetica,sans-Serif" font-size="10.00">+ operator==()</text>
<text text-anchor="start" x="76.5" y="-168.5" font-family="Helvetica,sans-Serif" font-size="10.00">+ operator!=()</text>
<text text-anchor="start" x="76.5" y="-157.5" font-family="Helvetica,sans-Serif" font-size="10.00">+ operator!=()</text>
<text text-anchor="start" x="76.5" y="-146.5" font-family="Helvetica,sans-Serif" font-size="10.00">+ as()</text>
<text text-anchor="start" x="76.5" y="-135.5" font-family="Helvetica,sans-Serif" font-size="10.00">+ print()</text>
</a>
</g>
</g>
<!-- Node3&#45;&gt;Node1 -->
<g id="edge2" class="edge"><title>Node3&#45;&gt;Node1</title>
<path fill="none" stroke="#404040" d="M172.447,-128.292C177.605,-115.261 182.678,-102.446 187.281,-90.8173"/>
<polygon fill="none" stroke="#404040" points="187.296,-90.7781 185.785,-83.727 191.713,-79.6204 193.224,-86.6715 187.296,-90.7781"/>
<text text-anchor="middle" x="199.5" y="-101.5" font-family="Helvetica,sans-Serif" font-size="10.00"> +origin</text>
</g>
<!-- Node4 -->
<g id="node4" class="node"><title>Node4</title>
<polygon fill="none" stroke="#bfbfbf" points="94,-671.5 94,-728.5 132,-728.5 132,-671.5 94,-671.5"/>
<text text-anchor="middle" x="113" y="-716.5" font-family="Helvetica,sans-Serif" font-size="10.00">Type</text>
<polyline fill="none" stroke="#bfbfbf" points="94,-709.5 132,-709.5 "/>
<text text-anchor="middle" x="113" y="-697.5" font-family="Helvetica,sans-Serif" font-size="10.00"> </text>
<polyline fill="none" stroke="#bfbfbf" points="94,-690.5 132,-690.5 "/>
<text text-anchor="middle" x="113" y="-678.5" font-family="Helvetica,sans-Serif" font-size="10.00"> </text>
</g>
<!-- Node4&#45;&gt;Node3 -->
<g id="edge3" class="edge"><title>Node4&#45;&gt;Node3</title>
<path fill="none" stroke="#404040" d="M93.9332,-676.793C78.9778,-657.815 59.3435,-629.042 51,-600 26.2107,-513.712 30.6962,-485.452 51,-398 54.6428,-382.31 60.0187,-366.389 66.2905,-350.955"/>
<polygon fill="none" stroke="#404040" points="66.3287,-350.865 64.9823,-343.78 71.0039,-339.813 72.3502,-346.897 66.3287,-350.865"/>
<text text-anchor="middle" x="61" y="-496.5" font-family="Helvetica,sans-Serif" font-size="10.00"> +itg</text>
</g>
<!-- Node8 -->
<g id="node8" class="node"><title>Node8</title>
<g id="a_node8"><a xlink:href="../../d9/db3/structo2_1_1header_1_1Descriptor.html" target="_top" xlink:title="{o2::header::Descriptor\l\&lt; N, PrinterPolicy \&gt;\n||+ Descriptor()\l+ Descriptor()\l+ Descriptor()\l+ operator=()\l+ operator ItgType()\l+ Descriptor()\l+ runtimeInit()\l+ operator==()\l+ operator!=()\l+ operator==()\l+ operator!=()\l+ as()\l+ print()\l}">
<polygon fill="none" stroke="black" points="245.5,-399 245.5,-599 358.5,-599 358.5,-399 245.5,-399"/>
<text text-anchor="start" x="253.5" y="-587" font-family="Helvetica,sans-Serif" font-size="10.00">o2::header::Descriptor</text>
<text text-anchor="middle" x="302" y="-576" font-family="Helvetica,sans-Serif" font-size="10.00">&lt; N, PrinterPolicy &gt;</text>
<polyline fill="none" stroke="black" points="245.5,-569 358.5,-569 "/>
<text text-anchor="middle" x="302" y="-557" font-family="Helvetica,sans-Serif" font-size="10.00"> </text>
<polyline fill="none" stroke="black" points="245.5,-550 358.5,-550 "/>
<text text-anchor="start" x="253.5" y="-538" font-family="Helvetica,sans-Serif" font-size="10.00">+ Descriptor()</text>
<text text-anchor="start" x="253.5" y="-527" font-family="Helvetica,sans-Serif" font-size="10.00">+ Descriptor()</text>
<text text-anchor="start" x="253.5" y="-516" font-family="Helvetica,sans-Serif" font-size="10.00">+ Descriptor()</text>
<text text-anchor="start" x="253.5" y="-505" font-family="Helvetica,sans-Serif" font-size="10.00">+ operator=()</text>
<text text-anchor="start" x="253.5" y="-494" font-family="Helvetica,sans-Serif" font-size="10.00">+ operator ItgType()</text>
<text text-anchor="start" x="253.5" y="-483" font-family="Helvetica,sans-Serif" font-size="10.00">+ Descriptor()</text>
<text text-anchor="start" x="253.5" y="-472" font-family="Helvetica,sans-Serif" font-size="10.00">+ runtimeInit()</text>
<text text-anchor="start" x="253.5" y="-461" font-family="Helvetica,sans-Serif" font-size="10.00">+ operator==()</text>
<text text-anchor="start" x="253.5" y="-450" font-family="Helvetica,sans-Serif" font-size="10.00">+ operator!=()</text>
<text text-anchor="start" x="253.5" y="-439" font-family="Helvetica,sans-Serif" font-size="10.00">+ operator==()</text>
<text text-anchor="start" x="253.5" y="-428" font-family="Helvetica,sans-Serif" font-size="10.00">+ operator!=()</text>
<text text-anchor="start" x="253.5" y="-417" font-family="Helvetica,sans-Serif" font-size="10.00">+ as()</text>
<text text-anchor="start" x="253.5" y="-406" font-family="Helvetica,sans-Serif" font-size="10.00">+ print()</text>
</a>
</g>
</g>
<!-- Node4&#45;&gt;Node8 -->
<g id="edge8" class="edge"><title>Node4&#45;&gt;Node8</title>
<path fill="none" stroke="#404040" d="M132.242,-679.571C149.685,-662.437 176.493,-637.267 202,-618 214.105,-608.857 219.946,-610.39 231,-600 233.017,-598.104 235.012,-596.143 236.982,-594.128"/>
<polygon fill="none" stroke="#404040" points="237.298,-593.788 238.442,-586.668 245.454,-584.985 244.31,-592.105 237.298,-593.788"/>
<text text-anchor="middle" x="212" y="-632.5" font-family="Helvetica,sans-Serif" font-size="10.00"> +itg</text>
</g>
<!-- Node10 -->
<g id="node10" class="node"><title>Node10</title>
<g id="a_node10"><a xlink:href="../../d9/db3/structo2_1_1header_1_1Descriptor.html" target="_top" xlink:title="{o2::header::Descriptor\l\&lt; gSizeDataDescriptionString,\l printDataDescription \&gt;\n||+ Descriptor()\l+ Descriptor()\l+ Descriptor()\l+ Descriptor()\l+ operator=()\l+ operator ItgType()\l+ runtimeInit()\l+ operator==()\l+ operator==()\l+ operator!=()\l+ operator!=()\l+ as()\l+ print()\l}">
<polygon fill="none" stroke="black" points="318.5,-128.5 318.5,-339.5 467.5,-339.5 467.5,-128.5 318.5,-128.5"/>
<text text-anchor="start" x="326.5" y="-327.5" font-family="Helvetica,sans-Serif" font-size="10.00">o2::header::Descriptor</text>
<text text-anchor="start" x="326.5" y="-316.5" font-family="Helvetica,sans-Serif" font-size="10.00">&lt; gSizeDataDescriptionString,</text>
<text text-anchor="middle" x="393" y="-305.5" font-family="Helvetica,sans-Serif" font-size="10.00"> printDataDescription &gt;</text>
<polyline fill="none" stroke="black" points="318.5,-298.5 467.5,-298.5 "/>
<text text-anchor="middle" x="393" y="-286.5" font-family="Helvetica,sans-Serif" font-size="10.00"> </text>
<polyline fill="none" stroke="black" points="318.5,-279.5 467.5,-279.5 "/>
<text text-anchor="start" x="326.5" y="-267.5" font-family="Helvetica,sans-Serif" font-size="10.00">+ Descriptor()</text>
<text text-anchor="start" x="326.5" y="-256.5" font-family="Helvetica,sans-Serif" font-size="10.00">+ Descriptor()</text>
<text text-anchor="start" x="326.5" y="-245.5" font-family="Helvetica,sans-Serif" font-size="10.00">+ Descriptor()</text>
<text text-anchor="start" x="326.5" y="-234.5" font-family="Helvetica,sans-Serif" font-size="10.00">+ Descriptor()</text>
<text text-anchor="start" x="326.5" y="-223.5" font-family="Helvetica,sans-Serif" font-size="10.00">+ operator=()</text>
<text text-anchor="start" x="326.5" y="-212.5" font-family="Helvetica,sans-Serif" font-size="10.00">+ operator ItgType()</text>
<text text-anchor="start" x="326.5" y="-201.5" font-family="Helvetica,sans-Serif" font-size="10.00">+ runtimeInit()</text>
<text text-anchor="start" x="326.5" y="-190.5" font-family="Helvetica,sans-Serif" font-size="10.00">+ operator==()</text>
<text text-anchor="start" x="326.5" y="-179.5" font-family="Helvetica,sans-Serif" font-size="10.00">+ operator==()</text>
<text text-anchor="start" x="326.5" y="-168.5" font-family="Helvetica,sans-Serif" font-size="10.00">+ operator!=()</text>
<text text-anchor="start" x="326.5" y="-157.5" font-family="Helvetica,sans-Serif" font-size="10.00">+ operator!=()</text>
<text text-anchor="start" x="326.5" y="-146.5" font-family="Helvetica,sans-Serif" font-size="10.00">+ as()</text>
<text text-anchor="start" x="326.5" y="-135.5" font-family="Helvetica,sans-Serif" font-size="10.00">+ print()</text>
</a>
</g>
</g>
<!-- Node4&#45;&gt;Node10 -->
<g id="edge14" class="edge"><title>Node4&#45;&gt;Node10</title>
<path fill="none" stroke="#404040" d="M117.528,-671.245C129.48,-598.654 161.602,-408.064 171,-398 192.337,-375.151 211.02,-393.946 239,-380 253.164,-372.94 253.842,-366.794 267,-358 280.567,-348.933 286.276,-350.216 299,-340 302.497,-337.193 305.975,-334.249 309.418,-331.203"/>
<polygon fill="none" stroke="#404040" points="309.601,-331.036 311.319,-324.032 318.444,-322.924 316.726,-329.928 309.601,-331.036"/>
<text text-anchor="middle" x="181" y="-496.5" font-family="Helvetica,sans-Serif" font-size="10.00"> +itg</text>
</g>
<!-- Node5 -->
<g id="node5" class="node"><title>Node5</title>
<polygon fill="none" stroke="#bfbfbf" points="188.5,-671.5 188.5,-728.5 223.5,-728.5 223.5,-671.5 188.5,-671.5"/>
<text text-anchor="middle" x="206" y="-716.5" font-family="Helvetica,sans-Serif" font-size="10.00">char</text>
<polyline fill="none" stroke="#bfbfbf" points="188.5,-709.5 223.5,-709.5 "/>
<text text-anchor="middle" x="206" y="-697.5" font-family="Helvetica,sans-Serif" font-size="10.00"> </text>
<polyline fill="none" stroke="#bfbfbf" points="188.5,-690.5 223.5,-690.5 "/>
<text text-anchor="middle" x="206" y="-678.5" font-family="Helvetica,sans-Serif" font-size="10.00"> </text>
</g>
<!-- Node5&#45;&gt;Node3 -->
<g id="edge4" class="edge"><title>Node5&#45;&gt;Node3</title>
<path fill="none" stroke="#404040" d="M198.966,-671.378C193.14,-653.783 183.142,-631.784 167,-618 145.828,-599.921 123.619,-622.336 107,-600 78.628,-561.867 91.641,-443.535 107.342,-351.83"/>
<polygon fill="none" stroke="#404040" points="107.355,-351.755 104.447,-345.156 109.419,-339.934 112.327,-346.532 107.355,-351.755"/>
<text text-anchor="middle" x="117.5" y="-496.5" font-family="Helvetica,sans-Serif" font-size="10.00"> +str</text>
</g>
<!-- Node5&#45;&gt;Node8 -->
<g id="edge9" class="edge"><title>Node5&#45;&gt;Node8</title>
<path fill="none" stroke="#404040" d="M216.907,-671.371C223.307,-655.591 231.74,-635.519 240,-618 241.228,-615.395 242.484,-612.764 243.761,-610.117"/>
<polygon fill="none" stroke="#404040" points="243.847,-609.94 242.889,-602.793 249.118,-599.159 250.076,-606.306 243.847,-609.94"/>
<text text-anchor="middle" x="250.5" y="-632.5" font-family="Helvetica,sans-Serif" font-size="10.00"> +str</text>
</g>
<!-- Node5&#45;&gt;Node10 -->
<g id="edge15" class="edge"><title>Node5&#45;&gt;Node10</title>
<path fill="none" stroke="#404040" d="M202.957,-671.136C196.33,-604.974 183.578,-440.761 215,-398 229.482,-378.292 246.737,-393.694 267,-380 282.073,-369.813 296.444,-357.384 309.727,-344.13"/>
<polygon fill="none" stroke="#404040" points="309.93,-343.921 311.245,-336.83 318.295,-335.316 316.981,-342.407 309.93,-343.921"/>
<text text-anchor="middle" x="225.5" y="-496.5" font-family="Helvetica,sans-Serif" font-size="10.00"> +str</text>
</g>
<!-- Node6 -->
<g id="node6" class="node"><title>Node6</title>
<polygon fill="none" stroke="#bfbfbf" points="388.5,-671.5 388.5,-728.5 417.5,-728.5 417.5,-671.5 388.5,-671.5"/>
<text text-anchor="middle" x="403" y="-716.5" font-family="Helvetica,sans-Serif" font-size="10.00">int</text>
<polyline fill="none" stroke="#bfbfbf" points="388.5,-709.5 417.5,-709.5 "/>
<text text-anchor="middle" x="403" y="-697.5" font-family="Helvetica,sans-Serif" font-size="10.00"> </text>
<polyline fill="none" stroke="#bfbfbf" points="388.5,-690.5 417.5,-690.5 "/>
<text text-anchor="middle" x="403" y="-678.5" font-family="Helvetica,sans-Serif" font-size="10.00"> </text>
</g>
<!-- Node6&#45;&gt;Node3 -->
<g id="edge5" class="edge"><title>Node6&#45;&gt;Node3</title>
<path fill="none" stroke="#404040" d="M403.016,-671.217C402.537,-605.236 398.156,-441.392 367,-398 342.883,-364.411 322.08,-371.511 283,-358 251.785,-347.208 236.223,-357.983 204.201,-339.632"/>
<polygon fill="none" stroke="#404040" points="203.821,-339.39 196.612,-339.542 193.699,-332.945 200.908,-332.794 203.821,-339.39"/>
<text text-anchor="middle" x="427.5" y="-507.5" font-family="Helvetica,sans-Serif" font-size="10.00"> +arraySize</text>
<text text-anchor="middle" x="427.5" y="-496.5" font-family="Helvetica,sans-Serif" font-size="10.00">+size</text>
<text text-anchor="middle" x="427.5" y="-485.5" font-family="Helvetica,sans-Serif" font-size="10.00">+bitcount</text>
</g>
<!-- Node6&#45;&gt;Node8 -->
<g id="edge10" class="edge"><title>Node6&#45;&gt;Node8</title>
<path fill="none" stroke="#404040" d="M388.496,-698.233C362.359,-695.977 307.862,-687.08 284,-652 275.768,-639.898 271.912,-625.968 270.929,-611.556"/>
<polygon fill="none" stroke="#404040" points="270.926,-611.365 266.837,-605.426 270.746,-599.366 274.836,-605.306 270.926,-611.365"/>
<text text-anchor="middle" x="309.5" y="-643.5" font-family="Helvetica,sans-Serif" font-size="10.00"> +arraySize</text>
<text text-anchor="middle" x="309.5" y="-632.5" font-family="Helvetica,sans-Serif" font-size="10.00">+size</text>
<text text-anchor="middle" x="309.5" y="-621.5" font-family="Helvetica,sans-Serif" font-size="10.00">+bitcount</text>
</g>
<!-- Node6&#45;&gt;Node10 -->
<g id="edge16" class="edge"><title>Node6&#45;&gt;Node10</title>
<path fill="none" stroke="#404040" d="M417.704,-691.688C443.549,-677.899 496.335,-645.315 517,-600 554.25,-518.315 542.516,-484.075 517,-398 508.651,-369.836 492.776,-342.874 475.103,-319.271"/>
<polygon fill="none" stroke="#404040" points="475.051,-319.204 468.217,-316.905 467.71,-309.712 474.545,-312.011 475.051,-319.204"/>
<text text-anchor="middle" x="566.5" y="-507.5" font-family="Helvetica,sans-Serif" font-size="10.00"> +arraySize</text>
<text text-anchor="middle" x="566.5" y="-496.5" font-family="Helvetica,sans-Serif" font-size="10.00">+size</text>
<text text-anchor="middle" x="566.5" y="-485.5" font-family="Helvetica,sans-Serif" font-size="10.00">+bitcount</text>
</g>
<!-- Node7 -->
<g id="node7" class="node"><title>Node7</title>
<polygon fill="none" stroke="#bfbfbf" points="467.5,-671 467.5,-729 496.5,-729 496.5,-671 467.5,-671"/>
<polyline fill="none" stroke="#bfbfbf" points="467.5,-709 496.5,-709 "/>
<text text-anchor="middle" x="482" y="-697" font-family="Helvetica,sans-Serif" font-size="10.00"> </text>
<polyline fill="none" stroke="#bfbfbf" points="467.5,-690 496.5,-690 "/>
<text text-anchor="middle" x="482" y="-678" font-family="Helvetica,sans-Serif" font-size="10.00"> </text>
</g>
<!-- Node7&#45;&gt;Node3 -->
<g id="edge6" class="edge"><title>Node7&#45;&gt;Node3</title>
<path fill="none" stroke="#404040" d="M481.523,-670.86C480.065,-599.996 474.63,-418.369 457,-398 433.717,-371.099 412.678,-391.471 379,-380 356.786,-372.434 353.522,-364.592 331,-358 279.31,-342.871 254.96,-366.883 204.248,-339.653"/>
<polygon fill="none" stroke="#404040" points="204.092,-339.562 196.893,-339.981 193.738,-333.497 200.937,-333.078 204.092,-339.562"/>
<text text-anchor="middle" x="495.5" y="-496.5" font-family="Helvetica,sans-Serif" font-size="10.00"> +@14</text>
</g>
<!-- Node7&#45;&gt;Node8 -->
<g id="edge11" class="edge"><title>Node7&#45;&gt;Node8</title>
<path fill="none" stroke="#404040" d="M467.32,-687.402C445.476,-669.775 403.698,-634.621 373,-600 370.716,-597.424 368.436,-594.774 366.171,-592.07"/>
<polygon fill="none" stroke="#404040" points="366.114,-592 359.223,-589.875 358.534,-582.697 365.425,-584.822 366.114,-592"/>
<text text-anchor="middle" x="440.5" y="-632.5" font-family="Helvetica,sans-Serif" font-size="10.00"> +@14</text>
</g>
<!-- Node7&#45;&gt;Node10 -->
<g id="edge17" class="edge"><title>Node7&#45;&gt;Node10</title>
<path fill="none" stroke="#404040" d="M496.704,-691.688C522.549,-677.899 575.335,-645.315 596,-600 633.25,-518.315 634.818,-478.952 596,-398 571.44,-346.781 522.071,-306.568 478.17,-278.898"/>
<polygon fill="none" stroke="#404040" points="477.957,-278.768 470.751,-279.035 467.733,-272.486 474.939,-272.219 477.957,-278.768"/>
<text text-anchor="middle" x="640.5" y="-496.5" font-family="Helvetica,sans-Serif" font-size="10.00"> +@14</text>
</g>
<!-- Node8&#45;&gt;Node3 -->
<g id="edge7" class="edge"><title>Node8&#45;&gt;Node3</title>
<path fill="none" stroke="orange" d="M237.905,-403.355C235.654,-401.478 233.352,-399.687 231,-398 208.38,-381.769 190.466,-399.905 171,-380 159.954,-368.705 151.894,-354.65 146.027,-339.77"/>
<polygon fill="orange" stroke="orange" points="235.582,-405.973 245.36,-410.05 240.259,-400.765 235.582,-405.973"/>
<text text-anchor="start" x="171" y="-372" font-family="Helvetica,sans-Serif" font-size="10.00"> &lt; gSizeDataOriginString,</text>
<text text-anchor="middle" x="227" y="-361" font-family="Helvetica,sans-Serif" font-size="10.00"> printDataOrigin &gt;</text>
</g>
<!-- Node8&#45;&gt;Node10 -->
<g id="edge18" class="edge"><title>Node8&#45;&gt;Node10</title>
<path fill="none" stroke="orange" d="M339.597,-389.341C345.279,-372.919 351.131,-356.006 356.783,-339.67"/>
<polygon fill="orange" stroke="orange" points="336.236,-388.351 336.274,-398.946 342.851,-390.64 336.236,-388.351"/>
<text text-anchor="start" x="351" y="-372" font-family="Helvetica,sans-Serif" font-size="10.00"> &lt; gSizeDataDescriptionString,</text>
<text text-anchor="middle" x="419" y="-361" font-family="Helvetica,sans-Serif" font-size="10.00"> printDataDescription &gt;</text>
</g>
<!-- Node9 -->
<g id="node9" class="node"><title>Node9</title>
<polygon fill="none" stroke="#bfbfbf" points="212,-205.5 212,-262.5 290,-262.5 290,-205.5 212,-205.5"/>
<text text-anchor="middle" x="251" y="-250.5" font-family="Helvetica,sans-Serif" font-size="10.00">enum Lifetime</text>
<polyline fill="none" stroke="#bfbfbf" points="212,-243.5 290,-243.5 "/>
<text text-anchor="middle" x="251" y="-231.5" font-family="Helvetica,sans-Serif" font-size="10.00"> </text>
<polyline fill="none" stroke="#bfbfbf" points="212,-224.5 290,-224.5 "/>
<text text-anchor="middle" x="251" y="-212.5" font-family="Helvetica,sans-Serif" font-size="10.00"> </text>
</g>
<!-- Node9&#45;&gt;Node1 -->
<g id="edge12" class="edge"><title>Node9&#45;&gt;Node1</title>
<path fill="none" stroke="#404040" d="M244.696,-205.491C237.907,-175.866 226.957,-128.084 218.604,-91.6339"/>
<polygon fill="none" stroke="#404040" points="218.561,-91.4461 213.321,-86.4913 215.88,-79.7494 221.119,-84.7042 218.561,-91.4461"/>
<text text-anchor="middle" x="243.5" y="-101.5" font-family="Helvetica,sans-Serif" font-size="10.00"> +lifetime</text>
</g>
<!-- Node10&#45;&gt;Node1 -->
<g id="edge13" class="edge"><title>Node10&#45;&gt;Node1</title>
<path fill="none" stroke="#404040" d="M318.361,-148.55C311.875,-141.541 305.361,-134.612 299,-128 285.708,-114.182 281.894,-111.212 268,-98 264.554,-94.7227 260.989,-91.349 257.392,-87.9576"/>
<polygon fill="none" stroke="#404040" points="257.178,-87.7564 250.067,-86.56 248.436,-79.5357 255.547,-80.7321 257.178,-87.7564"/>
<text text-anchor="middle" x="309.5" y="-101.5" font-family="Helvetica,sans-Serif" font-size="10.00"> +description</text>
</g>
</g>
</svg>
        <g id="navigator" transform="translate(0 0)" fill="#404254">
                <rect fill="#f2f5e9" fill-opacity="0.5" stroke="#606060" stroke-width=".5" x="0" y="0" width="60" height="60"/>
                <use id="zoomplus" xlink:href="#zoomPlus" x="17" y="9" onmousedown="handleZoom(evt,'in')"/>
                <use id="zoomminus" xlink:href="#zoomMin" x="42" y="9" onmousedown="handleZoom(evt,'out')"/>
                <use id="reset" xlink:href="#resetDef" x="30" y="36" onmousedown="handleReset()"/>
                <g id="arrowUp" xlink:href="#dirArrow" transform="translate(30 24)" onmousedown="handlePan(0,-1)">
                  <use xlink:href="#rim" fill="#404040">
                        <set attributeName="fill" to="#808080" begin="arrowUp.mouseover" end="arrowUp.mouseout"/>
                  </use>
                  <path fill="none" stroke="white" stroke-width="1.5" d="M0,-3.0v7 M-2.5,-0.5L0,-3.0L2.5,-0.5"/>
                </g>
                <g id="arrowRight" xlink:href="#dirArrow" transform="rotate(90) translate(36 -43)" onmousedown="handlePan(1,0)">
                  <use xlink:href="#rim" fill="#404040">
                        <set attributeName="fill" to="#808080" begin="arrowRight.mouseover" end="arrowRight.mouseout"/>
                  </use>
                  <path fill="none" stroke="white" stroke-width="1.5" d="M0,-3.0v7 M-2.5,-0.5L0,-3.0L2.5,-0.5"/>
                </g>
                <g id="arrowDown" xlink:href="#dirArrow" transform="rotate(180) translate(-30 -48)" onmousedown="handlePan(0,1)">
                  <use xlink:href="#rim" fill="#404040">
                        <set attributeName="fill" to="#808080" begin="arrowDown.mouseover" end="arrowDown.mouseout"/>
                  </use>
                  <path fill="none" stroke="white" stroke-width="1.5" d="M0,-3.0v7 M-2.5,-0.5L0,-3.0L2.5,-0.5"/>
                </g>
                <g id="arrowLeft" xlink:href="#dirArrow" transform="rotate(270) translate(-36 17)" onmousedown="handlePan(-1,0)">
                  <use xlink:href="#rim" fill="#404040">
                        <set attributeName="fill" to="#808080" begin="arrowLeft.mouseover" end="arrowLeft.mouseout"/>
                  </use>
                  <path fill="none" stroke="white" stroke-width="1.5" d="M0,-3.0v7 M-2.5,-0.5L0,-3.0L2.5,-0.5"/>
                </g>
        </g>
        <svg viewBox="0 0 15 15" width="100%" height="30px" preserveAspectRatio="xMaxYMin meet">
         <g id="arrow_out" transform="scale(0.3 0.3)">
          <a xlink:href="structo2_1_1framework_1_1rtr_1_1DefaultKey__coll__graph_org.svg" target="_base">
           <rect id="button" ry="5" rx="5" y="6" x="6" height="38" width="38"
                fill="#f2f5e9" fill-opacity="0.5" stroke="#606060" stroke-width="1.0"/>
           <path id="arrow"
             d="M 11.500037,31.436501 C 11.940474,20.09759 22.043105,11.32322 32.158766,21.979434 L 37.068811,17.246167 C 37.068811,17.246167 37.088388,32 37.088388,32 L 22.160133,31.978069 C 22.160133,31.978069 26.997745,27.140456 26.997745,27.140456 C 18.528582,18.264221 13.291696,25.230495 11.500037,31.436501 z"
             style="fill:#404040;"/>
          </a>
         </g>
        </svg>
</svg>
