<?xml version="1.0" encoding="UTF-8" standalone="no"?>
<!DOCTYPE svg PUBLIC "-//W3C//DTD SVG 1.1//EN"
 "http://www.w3.org/Graphics/SVG/1.1/DTD/svg11.dtd">
<!-- Generated by graphviz version 2.36.0 (20140111.2315)
 -->
<!-- Title: o2::mid::Constants Pages: 1 -->
<svg width="409pt" height="414pt"
 viewBox="0.00 0.00 409.00 414.00" xmlns="http://www.w3.org/2000/svg" xmlns:xlink="http://www.w3.org/1999/xlink">
<g id="graph0" class="graph" transform="scale(1 1) rotate(0) translate(4 410)">
<title>o2::mid::Constants</title>
<!-- Node1 -->
<g id="node1" class="node"><title>Node1</title>
<polygon fill="#bfbfbf" stroke="black" points="85.5,-0.5 85.5,-211.5 210.5,-211.5 210.5,-0.5 85.5,-0.5"/>
<text text-anchor="middle" x="148" y="-199.5" font-family="Helvetica,sans-Serif" font-size="10.00">o2::mid::Constants</text>
<polyline fill="none" stroke="black" points="85.5,-192.5 210.5,-192.5 "/>
<text text-anchor="middle" x="148" y="-180.5" font-family="Helvetica,sans-Serif" font-size="10.00"> </text>
<polyline fill="none" stroke="black" points="85.5,-173.5 210.5,-173.5 "/>
<text text-anchor="start" x="93.5" y="-161.5" font-family="Helvetica,sans-Serif" font-size="10.00">+ Constants()</text>
<text text-anchor="start" x="93.5" y="-150.5" font-family="Helvetica,sans-Serif" font-size="10.00">+ ~Constants()</text>
<text text-anchor="start" x="93.5" y="-139.5" font-family="Helvetica,sans-Serif" font-size="10.00">+ Constants()</text>
<text text-anchor="start" x="93.5" y="-128.5" font-family="Helvetica,sans-Serif" font-size="10.00">+ operator=()</text>
<text text-anchor="start" x="93.5" y="-117.5" font-family="Helvetica,sans-Serif" font-size="10.00">+ Constants()</text>
<text text-anchor="start" x="93.5" y="-106.5" font-family="Helvetica,sans-Serif" font-size="10.00">+ operator=()</text>
<text text-anchor="start" x="93.5" y="-95.5" font-family="Helvetica,sans-Serif" font-size="10.00">+ isShortRPC()</text>
<text text-anchor="start" x="93.5" y="-84.5" font-family="Helvetica,sans-Serif" font-size="10.00">+ getLocalBoardHeight()</text>
<text text-anchor="start" x="93.5" y="-73.5" font-family="Helvetica,sans-Serif" font-size="10.00">+ getLocalBoardWidth()</text>
<text text-anchor="start" x="93.5" y="-62.5" font-family="Helvetica,sans-Serif" font-size="10.00">+ getRPCCenterPosX()</text>
<text text-anchor="start" x="93.5" y="-51.5" font-family="Helvetica,sans-Serif" font-size="10.00">+ getRPCHalfWidth()</text>
<text text-anchor="start" x="93.5" y="-40.5" font-family="Helvetica,sans-Serif" font-size="10.00">+ getRPCHalfHeight()</text>
<text text-anchor="start" x="93.5" y="-29.5" font-family="Helvetica,sans-Serif" font-size="10.00">+ getStripUnitPitchSize()</text>
<text text-anchor="start" x="93.5" y="-18.5" font-family="Helvetica,sans-Serif" font-size="10.00">+ getChamber()</text>
<text text-anchor="start" x="93.5" y="-7.5" font-family="Helvetica,sans-Serif" font-size="10.00">+ getDEId()</text>
</g>
<!-- Node2 -->
<g id="node2" class="node"><title>Node2</title>
<g id="a_node2"><a xlink:href="../../df/de6/classdouble.html" target="_top" xlink:title="{double\n||}">
<polygon fill="none" stroke="black" points="-0.5,-348.5 -0.5,-405.5 44.5,-405.5 44.5,-348.5 -0.5,-348.5"/>
<text text-anchor="middle" x="22" y="-393.5" font-family="Helvetica,sans-Serif" font-size="10.00">double</text>
<polyline fill="none" stroke="black" points="-0.5,-386.5 44.5,-386.5 "/>
<text text-anchor="middle" x="22" y="-374.5" font-family="Helvetica,sans-Serif" font-size="10.00"> </text>
<polyline fill="none" stroke="black" points="-0.5,-367.5 44.5,-367.5 "/>
<text text-anchor="middle" x="22" y="-355.5" font-family="Helvetica,sans-Serif" font-size="10.00"> </text>
</a>
</g>
</g>
<!-- Node2&#45;&gt;Node1 -->
<g id="edge1" class="edge"><title>Node2&#45;&gt;Node1</title>
<path fill="none" stroke="#404040" d="M20.9374,-348.351C20.8074,-317.997 23.6994,-268.464 41,-230 49.9634,-210.072 63.2519,-190.977 77.4416,-174.025"/>
<polygon fill="none" stroke="#404040" points="77.542,-173.909 78.4445,-166.755 85.3958,-164.836 84.4932,-171.99 77.542,-173.909"/>
<text text-anchor="middle" x="92.5" y="-321.5" font-family="Helvetica,sans-Serif" font-size="10.00"> +sRPCHalfWidth</text>
<text text-anchor="middle" x="92.5" y="-310.5" font-family="Helvetica,sans-Serif" font-size="10.00">+sRPCShortCenterPos</text>
<text text-anchor="middle" x="92.5" y="-299.5" font-family="Helvetica,sans-Serif" font-size="10.00">+sRPCZShift</text>
<text text-anchor="middle" x="92.5" y="-288.5" font-family="Helvetica,sans-Serif" font-size="10.00">+sLocalBoardWidth</text>
<text text-anchor="middle" x="92.5" y="-277.5" font-family="Helvetica,sans-Serif" font-size="10.00">+sStripUnitPitchSize</text>
<text text-anchor="middle" x="92.5" y="-266.5" font-family="Helvetica,sans-Serif" font-size="10.00">+sLocalBoardHeight</text>
<text text-anchor="middle" x="92.5" y="-255.5" font-family="Helvetica,sans-Serif" font-size="10.00">+sRPCShortHalfWidth</text>
<text text-anchor="middle" x="92.5" y="-244.5" font-family="Helvetica,sans-Serif" font-size="10.00">+sBeamAngle</text>
<text text-anchor="middle" x="92.5" y="-233.5" font-family="Helvetica,sans-Serif" font-size="10.00">+sRPCCenterPos</text>
</g>
<!-- Node3 -->
<g id="node3" class="node"><title>Node3</title>
<polygon fill="none" stroke="#bfbfbf" points="86.5,-348.5 86.5,-405.5 209.5,-405.5 209.5,-348.5 86.5,-348.5"/>
<text text-anchor="middle" x="148" y="-393.5" font-family="Helvetica,sans-Serif" font-size="10.00">array&lt; const double, 4 &gt;</text>
<polyline fill="none" stroke="#bfbfbf" points="86.5,-386.5 209.5,-386.5 "/>
<text text-anchor="middle" x="148" y="-374.5" font-family="Helvetica,sans-Serif" font-size="10.00"> </text>
<polyline fill="none" stroke="#bfbfbf" points="86.5,-367.5 209.5,-367.5 "/>
<text text-anchor="middle" x="148" y="-355.5" font-family="Helvetica,sans-Serif" font-size="10.00"> </text>
</g>
<!-- Node3&#45;&gt;Node1 -->
<g id="edge2" class="edge"><title>Node3&#45;&gt;Node1</title>
<path fill="none" stroke="#404040" d="M148,-348.476C148,-318.914 148,-269.949 148,-223.81"/>
<polygon fill="none" stroke="#404040" points="148,-223.524 144,-217.524 148,-211.524 152,-217.524 148,-223.524"/>
<text text-anchor="middle" x="194" y="-283" font-family="Helvetica,sans-Serif" font-size="10.00"> +sDefaultChamberZ</text>
<text text-anchor="middle" x="194" y="-272" font-family="Helvetica,sans-Serif" font-size="10.00">+sScaleFactors</text>
</g>
<!-- Node4 -->
<g id="node4" class="node"><title>Node4</title>
<polygon fill="none" stroke="#bfbfbf" points="248.5,-348.5 248.5,-405.5 277.5,-405.5 277.5,-348.5 248.5,-348.5"/>
<text text-anchor="middle" x="263" y="-393.5" font-family="Helvetica,sans-Serif" font-size="10.00">int</text>
<polyline fill="none" stroke="#bfbfbf" points="248.5,-386.5 277.5,-386.5 "/>
<text text-anchor="middle" x="263" y="-374.5" font-family="Helvetica,sans-Serif" font-size="10.00"> </text>
<polyline fill="none" stroke="#bfbfbf" points="248.5,-367.5 277.5,-367.5 "/>
<text text-anchor="middle" x="263" y="-355.5" font-family="Helvetica,sans-Serif" font-size="10.00"> </text>
</g>
<!-- Node4&#45;&gt;Node1 -->
<g id="edge3" class="edge"><title>Node4&#45;&gt;Node1</title>
<path fill="none" stroke="#404040" d="M262.848,-348.273C261.78,-318.066 257.361,-268.863 241,-230 234.875,-215.45 226.637,-201.077 217.584,-187.571"/>
<polygon fill="none" stroke="#404040" points="217.378,-187.275 210.668,-184.634 210.525,-177.424 217.235,-180.065 217.378,-187.275"/>
<text text-anchor="middle" x="331" y="-305" font-family="Helvetica,sans-Serif" font-size="10.00"> +sNDetectionElementsPerSide</text>
<text text-anchor="middle" x="331" y="-294" font-family="Helvetica,sans-Serif" font-size="10.00">+sNRPCLines</text>
<text text-anchor="middle" x="331" y="-283" font-family="Helvetica,sans-Serif" font-size="10.00">+sNDetectionElements</text>
<text text-anchor="middle" x="331" y="-272" font-family="Helvetica,sans-Serif" font-size="10.00">+sNChambers</text>
<text text-anchor="middle" x="331" y="-261" font-family="Helvetica,sans-Serif" font-size="10.00">+sNStripsBP</text>
<text text-anchor="middle" x="331" y="-250" font-family="Helvetica,sans-Serif" font-size="10.00">+sNLocalBoards</text>
</g>
</g>
</svg>
