<?xml version="1.0" encoding="UTF-8" standalone="no"?>
<!DOCTYPE svg PUBLIC "-//W3C//DTD SVG 1.1//EN"
 "http://www.w3.org/Graphics/SVG/1.1/DTD/svg11.dtd">
<!-- Generated by graphviz version 2.36.0 (20140111.2315)
 -->
<!-- Title: /home/travis/build/AliceO2Group/AliceO2/Framework/Core/include/Framework/ForwardRoute.h Pages: 1 -->
<!--zoomable 298 -->
<svg id="main" version="1.1" xmlns="http://www.w3.org/2000/svg" xmlns:xlink="http://www.w3.org/1999/xlink" xml:space="preserve" onload="init(evt)">
<style type="text/css"><![CDATA[
.edge:hover path { stroke: red; }
.edge:hover polygon { stroke: red; fill: red; }
]]></style>
<script type="text/javascript"><![CDATA[
var edges = document.getElementsByTagName('g');
if (edges && edges.length) {
  for (var i=0;i<edges.length;i++) {
    if (edges[i].id.substr(0,4)=='edge') {
      edges[i].setAttribute('class','edge');
    }
  }
}
]]></script>
        <defs>
                <circle id="rim" cx="0" cy="0" r="7"/>
                <circle id="rim2" cx="0" cy="0" r="3.5"/>
                <g id="zoomPlus">
                        <use xlink:href="#rim" fill="#404040">
                                <set attributeName="fill" to="#808080" begin="zoomplus.mouseover" end="zoomplus.mouseout"/>
                        </use>
                        <path d="M-4,0h8M0,-4v8" fill="none" stroke="white" stroke-width="1.5" pointer-events="none"/>
                </g>
                <g id="zoomMin">
                        <use xlink:href="#rim" fill="#404040">
                                <set attributeName="fill" to="#808080" begin="zoomminus.mouseover" end="zoomminus.mouseout"/>
                        </use>
                        <path d="M-4,0h8" fill="none" stroke="white" stroke-width="1.5" pointer-events="none"/>
                </g>
                <g id="dirArrow">
                        <path fill="none" stroke="white" stroke-width="1.5" d="M0,-3.0v7 M-2.5,-0.5L0,-3.0L2.5,-0.5"/>
                </g>
               <g id="resetDef">
                       <use xlink:href="#rim2" fill="#404040">
                               <set attributeName="fill" to="#808080" begin="reset.mouseover" end="reset.mouseout"/>
                       </use>
               </g>
        </defs>

<script type="text/javascript">
var viewWidth = 1257;
var viewHeight = 298;
var sectionId = 'dynsection-0';
</script>
<script xlink:href="../../svgpan.js"/>
<svg id="graph" class="graph">
<g id="viewport">
<title>/home/travis/build/AliceO2Group/AliceO2/Framework/Core/include/Framework/ForwardRoute.h</title>
<!-- Node1 -->
<g id="node1" class="node"><title>Node1</title>
<polygon fill="#bfbfbf" stroke="black" points="1084.5,-237 1084.5,-289 1225.5,-289 1225.5,-237 1084.5,-237"/>
<text text-anchor="start" x="1092.5" y="-277" font-family="Helvetica,sans-Serif" font-size="10.00">/home/travis/build</text>
<text text-anchor="start" x="1092.5" y="-266" font-family="Helvetica,sans-Serif" font-size="10.00">/AliceO2Group/AliceO2</text>
<text text-anchor="start" x="1092.5" y="-255" font-family="Helvetica,sans-Serif" font-size="10.00">/Framework/Core/include</text>
<text text-anchor="middle" x="1155" y="-244" font-family="Helvetica,sans-Serif" font-size="10.00">/Framework/ForwardRoute.h</text>
</g>
<!-- Node2 -->
<g id="node2" class="node"><title>Node2</title>
<g id="a_node2"><a xlink:href="../../d5/d3f/InputSpec_8h.html" target="_top" xlink:title="Framework/InputSpec.h">
<polygon fill="none" stroke="black" points="482.5,-180.5 482.5,-199.5 603.5,-199.5 603.5,-180.5 482.5,-180.5"/>
<text text-anchor="middle" x="543" y="-187.5" font-family="Helvetica,sans-Serif" font-size="10.00">Framework/InputSpec.h</text>
</a>
</g>
</g>
<!-- Node1&#45;&gt;Node2 -->
<g id="edge1" class="edge"><title>Node1&#45;&gt;Node2</title>
<path fill="none" stroke="midnightblue" d="M1084.5,-253.821C966.763,-240.162 731.464,-212.864 613.639,-199.195"/>
<polygon fill="midnightblue" stroke="midnightblue" points="613.979,-195.711 603.642,-198.035 613.172,-202.664 613.979,-195.711"/>
</g>
<!-- Node3 -->
<g id="node3" class="node"><title>Node3</title>
<polygon fill="none" stroke="#bfbfbf" points="1208.5,-6.5 1208.5,-25.5 1249.5,-25.5 1249.5,-6.5 1208.5,-6.5"/>
<text text-anchor="middle" x="1229" y="-13.5" font-family="Helvetica,sans-Serif" font-size="10.00">string</text>
</g>
<!-- Node1&#45;&gt;Node3 -->
<g id="edge27" class="edge"><title>Node1&#45;&gt;Node3</title>
<path fill="none" stroke="midnightblue" d="M1160.61,-236.74C1164.36,-220.455 1169.58,-198.873 1175,-180 1190.24,-126.919 1211.7,-65.3063 1222.4,-35.3051"/>
<polygon fill="midnightblue" stroke="midnightblue" points="1225.74,-36.3511 1225.82,-25.7566 1219.15,-33.9888 1225.74,-36.3511"/>
</g>
<!-- Node24 -->
<g id="node24" class="node"><title>Node24</title>
<polygon fill="none" stroke="#bfbfbf" points="1183.5,-180.5 1183.5,-199.5 1232.5,-199.5 1232.5,-180.5 1183.5,-180.5"/>
<text text-anchor="middle" x="1208" y="-187.5" font-family="Helvetica,sans-Serif" font-size="10.00">cstddef</text>
</g>
<!-- Node1&#45;&gt;Node24 -->
<g id="edge26" class="edge"><title>Node1&#45;&gt;Node24</title>
<path fill="none" stroke="midnightblue" d="M1173.84,-236.768C1180.99,-227.183 1188.96,-216.506 1195.4,-207.877"/>
<polygon fill="midnightblue" stroke="midnightblue" points="1198.29,-209.864 1201.46,-199.757 1192.68,-205.677 1198.29,-209.864"/>
</g>
<!-- Node2&#45;&gt;Node3 -->
<g id="edge2" class="edge"><title>Node2&#45;&gt;Node3</title>
<path fill="none" stroke="midnightblue" d="M592.889,-180.445C681.132,-164.902 870.229,-129.745 1027,-88 1104.69,-67.3135 1124.62,-62.5056 1199,-32 1200.59,-31.3468 1202.22,-30.6444 1203.85,-29.9129"/>
<polygon fill="midnightblue" stroke="midnightblue" points="1205.49,-33.0067 1213.01,-25.545 1202.48,-26.6875 1205.49,-33.0067"/>
</g>
<!-- Node4 -->
<g id="node4" class="node"><title>Node4</title>
<polygon fill="none" stroke="#bfbfbf" points="285,-124.5 285,-143.5 337,-143.5 337,-124.5 285,-124.5"/>
<text text-anchor="middle" x="311" y="-131.5" font-family="Helvetica,sans-Serif" font-size="10.00">ostream</text>
</g>
<!-- Node2&#45;&gt;Node4 -->
<g id="edge3" class="edge"><title>Node2&#45;&gt;Node4</title>
<path fill="none" stroke="midnightblue" d="M504.053,-180.43C466.358,-172.064 407.354,-158.777 347.376,-144.289"/>
<polygon fill="midnightblue" stroke="midnightblue" points="347.897,-140.813 337.354,-141.858 346.248,-147.616 347.897,-140.813"/>
</g>
<!-- Node5 -->
<g id="node5" class="node"><title>Node5</title>
<g id="a_node5"><a xlink:href="../../dc/dca/Lifetime_8h.html" target="_top" xlink:title="Framework/Lifetime.h">
<polygon fill="none" stroke="black" points="355.5,-124.5 355.5,-143.5 466.5,-143.5 466.5,-124.5 355.5,-124.5"/>
<text text-anchor="middle" x="411" y="-131.5" font-family="Helvetica,sans-Serif" font-size="10.00">Framework/Lifetime.h</text>
</a>
</g>
</g>
<!-- Node2&#45;&gt;Node5 -->
<g id="edge4" class="edge"><title>Node2&#45;&gt;Node5</title>
<path fill="none" stroke="midnightblue" d="M522.084,-180.444C500.264,-171.517 465.85,-157.439 441.108,-147.317"/>
<polygon fill="midnightblue" stroke="midnightblue" points="442.399,-144.063 431.818,-143.516 439.748,-150.542 442.399,-144.063"/>
</g>
<!-- Node6 -->
<g id="node6" class="node"><title>Node6</title>
<g id="a_node6"><a xlink:href="../../dc/dcd/DataHeader_8h.html" target="_top" xlink:title="Headers/DataHeader.h">
<polygon fill="none" stroke="black" points="484.5,-124.5 484.5,-143.5 601.5,-143.5 601.5,-124.5 484.5,-124.5"/>
<text text-anchor="middle" x="543" y="-131.5" font-family="Helvetica,sans-Serif" font-size="10.00">Headers/DataHeader.h</text>
</a>
</g>
</g>
<!-- Node2&#45;&gt;Node6 -->
<g id="edge5" class="edge"><title>Node2&#45;&gt;Node6</title>
<path fill="none" stroke="midnightblue" d="M543,-180.083C543,-173.006 543,-162.861 543,-153.986"/>
<polygon fill="midnightblue" stroke="midnightblue" points="546.5,-153.751 543,-143.751 539.5,-153.751 546.5,-153.751"/>
</g>
<!-- Node6&#45;&gt;Node3 -->
<g id="edge12" class="edge"><title>Node6&#45;&gt;Node3</title>
<path fill="none" stroke="midnightblue" d="M601.861,-130.057C718.406,-122.909 985.711,-99.9005 1199,-32 1200.91,-31.3906 1202.86,-30.673 1204.79,-29.8875"/>
<polygon fill="midnightblue" stroke="midnightblue" points="1206.51,-32.9472 1214.12,-25.5798 1203.58,-26.5911 1206.51,-32.9472"/>
</g>
<!-- Node7 -->
<g id="node7" class="node"><title>Node7</title>
<polygon fill="none" stroke="#bfbfbf" points="237,-68.5 237,-87.5 283,-87.5 283,-68.5 237,-68.5"/>
<text text-anchor="middle" x="260" y="-75.5" font-family="Helvetica,sans-Serif" font-size="10.00">cstdint</text>
</g>
<!-- Node6&#45;&gt;Node7 -->
<g id="edge6" class="edge"><title>Node6&#45;&gt;Node7</title>
<path fill="none" stroke="midnightblue" d="M486.36,-124.451C437.574,-116.725 365.101,-104.384 293.15,-88.0834"/>
<polygon fill="midnightblue" stroke="midnightblue" points="293.533,-84.5803 283.004,-85.757 291.969,-91.4033 293.533,-84.5803"/>
</g>
<!-- Node8 -->
<g id="node8" class="node"><title>Node8</title>
<polygon fill="none" stroke="#bfbfbf" points="301,-68.5 301,-87.5 353,-87.5 353,-68.5 301,-68.5"/>
<text text-anchor="middle" x="327" y="-75.5" font-family="Helvetica,sans-Serif" font-size="10.00">memory</text>
</g>
<!-- Node6&#45;&gt;Node8 -->
<g id="edge7" class="edge"><title>Node6&#45;&gt;Node8</title>
<path fill="none" stroke="midnightblue" d="M508.28,-124.456C473.822,-115.956 419.238,-102.441 363.119,-88.2695"/>
<polygon fill="midnightblue" stroke="midnightblue" points="363.92,-84.862 353.368,-85.8043 362.205,-91.6486 363.92,-84.862"/>
</g>
<!-- Node9 -->
<g id="node9" class="node"><title>Node9</title>
<polygon fill="none" stroke="#bfbfbf" points="371.5,-68.5 371.5,-87.5 420.5,-87.5 420.5,-68.5 371.5,-68.5"/>
<text text-anchor="middle" x="396" y="-75.5" font-family="Helvetica,sans-Serif" font-size="10.00">cassert</text>
</g>
<!-- Node6&#45;&gt;Node9 -->
<g id="edge8" class="edge"><title>Node6&#45;&gt;Node9</title>
<path fill="none" stroke="midnightblue" d="M519.707,-124.444C495.193,-115.438 456.404,-101.189 428.8,-91.049"/>
<polygon fill="midnightblue" stroke="midnightblue" points="429.777,-87.6793 419.184,-87.5164 427.363,-94.25 429.777,-87.6793"/>
</g>
<!-- Node10 -->
<g id="node10" class="node"><title>Node10</title>
<polygon fill="none" stroke="#bfbfbf" points="0,-6.5 0,-25.5 46,-25.5 46,-6.5 0,-6.5"/>
<text text-anchor="middle" x="23" y="-13.5" font-family="Helvetica,sans-Serif" font-size="10.00">cstring</text>
</g>
<!-- Node6&#45;&gt;Node10 -->
<g id="edge9" class="edge"><title>Node6&#45;&gt;Node10</title>
<path fill="none" stroke="midnightblue" d="M528.47,-124.259C500.19,-107.314 439.587,-71.3573 429,-68 269.821,-17.5225 216.067,-76.0826 55,-32 52.6532,-31.3577 50.2655,-30.5544 47.906,-29.6555"/>
<polygon fill="midnightblue" stroke="midnightblue" points="49.1086,-26.362 38.5421,-25.5889 46.3202,-32.7827 49.1086,-26.362"/>
</g>
<!-- Node11 -->
<g id="node11" class="node"><title>Node11</title>
<polygon fill="none" stroke="#bfbfbf" points="477,-68.5 477,-87.5 533,-87.5 533,-68.5 477,-68.5"/>
<text text-anchor="middle" x="505" y="-75.5" font-family="Helvetica,sans-Serif" font-size="10.00">algorithm</text>
</g>
<!-- Node6&#45;&gt;Node11 -->
<g id="edge10" class="edge"><title>Node6&#45;&gt;Node11</title>
<path fill="none" stroke="midnightblue" d="M536.725,-124.083C531.358,-116.455 523.482,-105.264 516.921,-95.9408"/>
<polygon fill="midnightblue" stroke="midnightblue" points="519.775,-93.9149 511.158,-87.7511 514.051,-97.9434 519.775,-93.9149"/>
</g>
<!-- Node12 -->
<g id="node12" class="node"><title>Node12</title>
<polygon fill="none" stroke="#bfbfbf" points="551.5,-68.5 551.5,-87.5 610.5,-87.5 610.5,-68.5 551.5,-68.5"/>
<text text-anchor="middle" x="581" y="-75.5" font-family="Helvetica,sans-Serif" font-size="10.00">stdexcept</text>
</g>
<!-- Node6&#45;&gt;Node12 -->
<g id="edge11" class="edge"><title>Node6&#45;&gt;Node12</title>
<path fill="none" stroke="midnightblue" d="M549.275,-124.083C554.642,-116.455 562.518,-105.264 569.079,-95.9408"/>
<polygon fill="midnightblue" stroke="midnightblue" points="571.949,-97.9434 574.842,-87.7511 566.225,-93.9149 571.949,-97.9434"/>
</g>
<!-- Node13 -->
<g id="node13" class="node"><title>Node13</title>
<g id="a_node13"><a xlink:href="../../dc/d03/MemoryResources_8h.html" target="_top" xlink:title="MemoryResources/MemoryResources.h">
<polygon fill="none" stroke="black" points="628.5,-68.5 628.5,-87.5 821.5,-87.5 821.5,-68.5 628.5,-68.5"/>
<text text-anchor="middle" x="725" y="-75.5" font-family="Helvetica,sans-Serif" font-size="10.00">MemoryResources/MemoryResources.h</text>
</a>
</g>
</g>
<!-- Node6&#45;&gt;Node13 -->
<g id="edge13" class="edge"><title>Node6&#45;&gt;Node13</title>
<path fill="none" stroke="midnightblue" d="M571.838,-124.444C602.856,-115.241 652.329,-100.562 686.618,-90.3879"/>
<polygon fill="midnightblue" stroke="midnightblue" points="687.705,-93.7164 696.296,-87.5164 685.714,-87.0055 687.705,-93.7164"/>
</g>
<!-- Node13&#45;&gt;Node3 -->
<g id="edge19" class="edge"><title>Node13&#45;&gt;Node3</title>
<path fill="none" stroke="midnightblue" d="M821.513,-72.0306C939.074,-65.2471 1130.46,-51.6447 1199,-32 1200.97,-31.4344 1202.97,-30.7402 1204.95,-29.9635"/>
<polygon fill="midnightblue" stroke="midnightblue" points="1206.85,-32.9462 1214.49,-25.6061 1203.94,-26.5797 1206.85,-32.9462"/>
</g>
<!-- Node13&#45;&gt;Node10 -->
<g id="edge18" class="edge"><title>Node13&#45;&gt;Node10</title>
<path fill="none" stroke="midnightblue" d="M628.244,-68.7007C625.127,-68.4602 622.039,-68.226 619,-68 368.515,-49.374 298.304,-94.3952 55,-32 52.5038,-31.3599 49.9654,-30.526 47.4657,-29.5792"/>
<polygon fill="midnightblue" stroke="midnightblue" points="48.7546,-26.3231 38.1888,-25.5392 45.9596,-32.7409 48.7546,-26.3231"/>
</g>
<!-- Node14 -->
<g id="node14" class="node"><title>Node14</title>
<polygon fill="none" stroke="#bfbfbf" points="1090,-1 1090,-31 1190,-31 1190,-1 1090,-1"/>
<text text-anchor="start" x="1098" y="-19" font-family="Helvetica,sans-Serif" font-size="10.00">boost/container/flat</text>
<text text-anchor="middle" x="1140" y="-8" font-family="Helvetica,sans-Serif" font-size="10.00">_map.hpp</text>
</g>
<!-- Node13&#45;&gt;Node14 -->
<g id="edge14" class="edge"><title>Node13&#45;&gt;Node14</title>
<path fill="none" stroke="midnightblue" d="M815.928,-68.4826C885.534,-61.2635 984.053,-49.5424 1079.82,-31.8817"/>
<polygon fill="midnightblue" stroke="midnightblue" points="1080.49,-35.3173 1089.68,-30.041 1079.21,-28.4363 1080.49,-35.3173"/>
</g>
<!-- Node15 -->
<g id="node15" class="node"><title>Node15</title>
<polygon fill="none" stroke="#bfbfbf" points="64,-1 64,-31 180,-31 180,-1 64,-1"/>
<text text-anchor="start" x="72" y="-19" font-family="Helvetica,sans-Serif" font-size="10.00">boost/container/pmr</text>
<text text-anchor="middle" x="122" y="-8" font-family="Helvetica,sans-Serif" font-size="10.00">/memory_resource.hpp</text>
</g>
<!-- Node13&#45;&gt;Node15 -->
<g id="edge15" class="edge"><title>Node13&#45;&gt;Node15</title>
<path fill="none" stroke="midnightblue" d="M628.238,-68.7796C625.122,-68.5164 622.037,-68.256 619,-68 431.164,-52.163 380.299,-60.7124 190.063,-32.0277"/>
<polygon fill="midnightblue" stroke="midnightblue" points="190.426,-28.5426 180.013,-30.4974 189.372,-35.4629 190.426,-28.5426"/>
</g>
<!-- Node16 -->
<g id="node16" class="node"><title>Node16</title>
<polygon fill="none" stroke="#bfbfbf" points="198,-1 198,-31 354,-31 354,-1 198,-1"/>
<text text-anchor="start" x="206" y="-19" font-family="Helvetica,sans-Serif" font-size="10.00">boost/container/pmr</text>
<text text-anchor="middle" x="276" y="-8" font-family="Helvetica,sans-Serif" font-size="10.00">/monotonic_buffer_resource.hpp</text>
</g>
<!-- Node13&#45;&gt;Node16 -->
<g id="edge16" class="edge"><title>Node13&#45;&gt;Node16</title>
<path fill="none" stroke="midnightblue" d="M647.884,-68.4787C576.792,-60.3792 468.093,-47.381 364.259,-32.1473"/>
<polygon fill="midnightblue" stroke="midnightblue" points="364.631,-28.6643 354.227,-30.6661 363.608,-35.5893 364.631,-28.6643"/>
</g>
<!-- Node17 -->
<g id="node17" class="node"><title>Node17</title>
<polygon fill="none" stroke="#bfbfbf" points="372.5,-1 372.5,-31 505.5,-31 505.5,-1 372.5,-1"/>
<text text-anchor="start" x="380.5" y="-19" font-family="Helvetica,sans-Serif" font-size="10.00">boost/container/pmr</text>
<text text-anchor="middle" x="439" y="-8" font-family="Helvetica,sans-Serif" font-size="10.00">/polymorphic_allocator.hpp</text>
</g>
<!-- Node13&#45;&gt;Node17 -->
<g id="edge17" class="edge"><title>Node13&#45;&gt;Node17</title>
<path fill="none" stroke="midnightblue" d="M684.327,-68.4672C640.555,-59.2842 569.92,-44.4658 515.659,-33.0822"/>
<polygon fill="midnightblue" stroke="midnightblue" points="516.233,-29.6266 505.728,-30.9988 514.796,-36.4775 516.233,-29.6266"/>
</g>
<!-- Node18 -->
<g id="node18" class="node"><title>Node18</title>
<polygon fill="none" stroke="#bfbfbf" points="524,-6.5 524,-25.5 586,-25.5 586,-6.5 524,-6.5"/>
<text text-anchor="middle" x="555" y="-13.5" font-family="Helvetica,sans-Serif" font-size="10.00">type_traits</text>
</g>
<!-- Node13&#45;&gt;Node18 -->
<g id="edge20" class="edge"><title>Node13&#45;&gt;Node18</title>
<path fill="none" stroke="midnightblue" d="M699.524,-68.396C673.265,-59.4773 631.173,-45.0409 595,-32 592.408,-31.0654 589.725,-30.0861 587.033,-29.0948"/>
<polygon fill="midnightblue" stroke="midnightblue" points="587.981,-25.7131 577.388,-25.5104 585.542,-32.2747 587.981,-25.7131"/>
</g>
<!-- Node19 -->
<g id="node19" class="node"><title>Node19</title>
<polygon fill="none" stroke="#bfbfbf" points="604,-6.5 604,-25.5 644,-25.5 644,-6.5 604,-6.5"/>
<text text-anchor="middle" x="624" y="-13.5" font-family="Helvetica,sans-Serif" font-size="10.00">utility</text>
</g>
<!-- Node13&#45;&gt;Node19 -->
<g id="edge21" class="edge"><title>Node13&#45;&gt;Node19</title>
<path fill="none" stroke="midnightblue" d="M710.529,-68.4035C693.954,-58.5569 666.574,-42.2915 647.053,-30.6949"/>
<polygon fill="midnightblue" stroke="midnightblue" points="648.829,-27.6789 638.444,-25.5806 645.254,-33.6971 648.829,-27.6789"/>
</g>
<!-- Node20 -->
<g id="node20" class="node"><title>Node20</title>
<polygon fill="none" stroke="#bfbfbf" points="662,-6.5 662,-25.5 706,-25.5 706,-6.5 662,-6.5"/>
<text text-anchor="middle" x="684" y="-13.5" font-family="Helvetica,sans-Serif" font-size="10.00">vector</text>
</g>
<!-- Node13&#45;&gt;Node20 -->
<g id="edge22" class="edge"><title>Node13&#45;&gt;Node20</title>
<path fill="none" stroke="midnightblue" d="M719.126,-68.4035C713.037,-59.4925 703.355,-45.3247 695.697,-34.1177"/>
<polygon fill="midnightblue" stroke="midnightblue" points="698.395,-31.8624 689.863,-25.5806 692.616,-35.8117 698.395,-31.8624"/>
</g>
<!-- Node21 -->
<g id="node21" class="node"><title>Node21</title>
<polygon fill="none" stroke="#bfbfbf" points="724.5,-6.5 724.5,-25.5 807.5,-25.5 807.5,-6.5 724.5,-6.5"/>
<text text-anchor="middle" x="766" y="-13.5" font-family="Helvetica,sans-Serif" font-size="10.00">unordered_map</text>
</g>
<!-- Node13&#45;&gt;Node21 -->
<g id="edge23" class="edge"><title>Node13&#45;&gt;Node21</title>
<path fill="none" stroke="midnightblue" d="M730.874,-68.4035C736.963,-59.4925 746.645,-45.3247 754.303,-34.1177"/>
<polygon fill="midnightblue" stroke="midnightblue" points="757.384,-35.8117 760.137,-25.5806 751.605,-31.8624 757.384,-35.8117"/>
</g>
<!-- Node22 -->
<g id="node22" class="node"><title>Node22</title>
<polygon fill="none" stroke="#bfbfbf" points="825.5,-6.5 825.5,-25.5 922.5,-25.5 922.5,-6.5 825.5,-6.5"/>
<text text-anchor="middle" x="874" y="-13.5" font-family="Helvetica,sans-Serif" font-size="10.00">FairMQMessage.h</text>
</g>
<!-- Node13&#45;&gt;Node22 -->
<g id="edge24" class="edge"><title>Node13&#45;&gt;Node22</title>
<path fill="none" stroke="midnightblue" d="M746.348,-68.4035C771.686,-58.2004 814.138,-41.1055 843.071,-29.4544"/>
<polygon fill="midnightblue" stroke="midnightblue" points="844.723,-32.5627 852.692,-25.5806 842.108,-26.0694 844.723,-32.5627"/>
</g>
<!-- Node23 -->
<g id="node23" class="node"><title>Node23</title>
<polygon fill="none" stroke="#bfbfbf" points="940.5,-6.5 940.5,-25.5 1071.5,-25.5 1071.5,-6.5 940.5,-6.5"/>
<text text-anchor="middle" x="1006" y="-13.5" font-family="Helvetica,sans-Serif" font-size="10.00">FairMQTransportFactory.h</text>
</g>
<!-- Node13&#45;&gt;Node23 -->
<g id="edge25" class="edge"><title>Node13&#45;&gt;Node23</title>
<path fill="none" stroke="midnightblue" d="M764.962,-68.4672C815.315,-57.7156 901.847,-39.239 956.381,-27.5947"/>
<polygon fill="midnightblue" stroke="midnightblue" points="957.127,-31.0145 966.176,-25.5034 955.665,-24.1688 957.127,-31.0145"/>
</g>
</g>
</svg>
        <g id="navigator" transform="translate(0 0)" fill="#404254">
                <rect fill="#f2f5e9" fill-opacity="0.5" stroke="#606060" stroke-width=".5" x="0" y="0" width="60" height="60"/>
                <use id="zoomplus" xlink:href="#zoomPlus" x="17" y="9" onmousedown="handleZoom(evt,'in')"/>
                <use id="zoomminus" xlink:href="#zoomMin" x="42" y="9" onmousedown="handleZoom(evt,'out')"/>
                <use id="reset" xlink:href="#resetDef" x="30" y="36" onmousedown="handleReset()"/>
                <g id="arrowUp" xlink:href="#dirArrow" transform="translate(30 24)" onmousedown="handlePan(0,-1)">
                  <use xlink:href="#rim" fill="#404040">
                        <set attributeName="fill" to="#808080" begin="arrowUp.mouseover" end="arrowUp.mouseout"/>
                  </use>
                  <path fill="none" stroke="white" stroke-width="1.5" d="M0,-3.0v7 M-2.5,-0.5L0,-3.0L2.5,-0.5"/>
                </g>
                <g id="arrowRight" xlink:href="#dirArrow" transform="rotate(90) translate(36 -43)" onmousedown="handlePan(1,0)">
                  <use xlink:href="#rim" fill="#404040">
                        <set attributeName="fill" to="#808080" begin="arrowRight.mouseover" end="arrowRight.mouseout"/>
                  </use>
                  <path fill="none" stroke="white" stroke-width="1.5" d="M0,-3.0v7 M-2.5,-0.5L0,-3.0L2.5,-0.5"/>
                </g>
                <g id="arrowDown" xlink:href="#dirArrow" transform="rotate(180) translate(-30 -48)" onmousedown="handlePan(0,1)">
                  <use xlink:href="#rim" fill="#404040">
                        <set attributeName="fill" to="#808080" begin="arrowDown.mouseover" end="arrowDown.mouseout"/>
                  </use>
                  <path fill="none" stroke="white" stroke-width="1.5" d="M0,-3.0v7 M-2.5,-0.5L0,-3.0L2.5,-0.5"/>
                </g>
                <g id="arrowLeft" xlink:href="#dirArrow" transform="rotate(270) translate(-36 17)" onmousedown="handlePan(-1,0)">
                  <use xlink:href="#rim" fill="#404040">
                        <set attributeName="fill" to="#808080" begin="arrowLeft.mouseover" end="arrowLeft.mouseout"/>
                  </use>
                  <path fill="none" stroke="white" stroke-width="1.5" d="M0,-3.0v7 M-2.5,-0.5L0,-3.0L2.5,-0.5"/>
                </g>
        </g>
        <svg viewBox="0 0 15 15" width="100%" height="30px" preserveAspectRatio="xMaxYMin meet">
         <g id="arrow_out" transform="scale(0.3 0.3)">
          <a xlink:href="ForwardRoute_8h__incl_org.svg" target="_base">
           <rect id="button" ry="5" rx="5" y="6" x="6" height="38" width="38"
                fill="#f2f5e9" fill-opacity="0.5" stroke="#606060" stroke-width="1.0"/>
           <path id="arrow"
             d="M 11.500037,31.436501 C 11.940474,20.09759 22.043105,11.32322 32.158766,21.979434 L 37.068811,17.246167 C 37.068811,17.246167 37.088388,32 37.088388,32 L 22.160133,31.978069 C 22.160133,31.978069 26.997745,27.140456 26.997745,27.140456 C 18.528582,18.264221 13.291696,25.230495 11.500037,31.436501 z"
             style="fill:#404040;"/>
          </a>
         </g>
        </svg>
</svg>
