<?xml version="1.0" encoding="UTF-8" standalone="no"?>
<!DOCTYPE svg PUBLIC "-//W3C//DTD SVG 1.1//EN"
 "http://www.w3.org/Graphics/SVG/1.1/DTD/svg11.dtd">
<!-- Generated by graphviz version 2.36.0 (20140111.2315)
 -->
<!-- Title: o2::dataformats::TimeStamp&lt; T &gt; Pages: 1 -->
<svg width="919pt" height="992pt"
 viewBox="0.00 0.00 919.00 992.00" xmlns="http://www.w3.org/2000/svg" xmlns:xlink="http://www.w3.org/1999/xlink">
<g id="graph0" class="graph" transform="scale(1 1) rotate(0) translate(4 988)">
<title>o2::dataformats::TimeStamp&lt; T &gt;</title>
<!-- Node1 -->
<g id="node1" class="node"><title>Node1</title>
<polygon fill="#bfbfbf" stroke="black" points="361.5,-882.5 361.5,-983.5 526.5,-983.5 526.5,-882.5 361.5,-882.5"/>
<text text-anchor="middle" x="444" y="-971.5" font-family="Helvetica,sans-Serif" font-size="10.00">o2::dataformats::TimeStamp&lt; T &gt;</text>
<polyline fill="none" stroke="black" points="361.5,-964.5 526.5,-964.5 "/>
<text text-anchor="middle" x="444" y="-952.5" font-family="Helvetica,sans-Serif" font-size="10.00"> </text>
<polyline fill="none" stroke="black" points="361.5,-945.5 526.5,-945.5 "/>
<text text-anchor="start" x="369.5" y="-933.5" font-family="Helvetica,sans-Serif" font-size="10.00">+ TimeStamp()</text>
<text text-anchor="start" x="369.5" y="-922.5" font-family="Helvetica,sans-Serif" font-size="10.00">+ TimeStamp()</text>
<text text-anchor="start" x="369.5" y="-911.5" font-family="Helvetica,sans-Serif" font-size="10.00">+ getTimeStamp()</text>
<text text-anchor="start" x="369.5" y="-900.5" font-family="Helvetica,sans-Serif" font-size="10.00">+ setTimeStamp()</text>
<text text-anchor="start" x="369.5" y="-889.5" font-family="Helvetica,sans-Serif" font-size="10.00">+ operator==()</text>
</g>
<!-- Node2 -->
<g id="node2" class="node"><title>Node2</title>
<g id="a_node2"><a xlink:href="../../d3/dbf/classo2_1_1dataformats_1_1TimeStampWithError.html" target="_top" xlink:title="{o2::dataformats::TimeStamp\lWithError\&lt; T \&gt;\n||+ TimeStampWithError()\l+ TimeStampWithError()\l+ getTimeStampError()\l+ setTimeStampError()\l}">
<polygon fill="none" stroke="black" points="-0.5,-638.5 -0.5,-739.5 140.5,-739.5 140.5,-638.5 -0.5,-638.5"/>
<text text-anchor="start" x="7.5" y="-727.5" font-family="Helvetica,sans-Serif" font-size="10.00">o2::dataformats::TimeStamp</text>
<text text-anchor="middle" x="70" y="-716.5" font-family="Helvetica,sans-Serif" font-size="10.00">WithError&lt; T &gt;</text>
<polyline fill="none" stroke="black" points="-0.5,-709.5 140.5,-709.5 "/>
<text text-anchor="middle" x="70" y="-697.5" font-family="Helvetica,sans-Serif" font-size="10.00"> </text>
<polyline fill="none" stroke="black" points="-0.5,-690.5 140.5,-690.5 "/>
<text text-anchor="start" x="7.5" y="-678.5" font-family="Helvetica,sans-Serif" font-size="10.00">+ TimeStampWithError()</text>
<text text-anchor="start" x="7.5" y="-667.5" font-family="Helvetica,sans-Serif" font-size="10.00">+ TimeStampWithError()</text>
<text text-anchor="start" x="7.5" y="-656.5" font-family="Helvetica,sans-Serif" font-size="10.00">+ getTimeStampError()</text>
<text text-anchor="start" x="7.5" y="-645.5" font-family="Helvetica,sans-Serif" font-size="10.00">+ setTimeStampError()</text>
</a>
</g>
</g>
<!-- Node1&#45;&gt;Node2 -->
<g id="edge1" class="edge"><title>Node1&#45;&gt;Node2</title>
<path fill="none" stroke="midnightblue" d="M351.334,-919.351C288.431,-906.732 206.548,-881.97 149,-834 119.43,-809.352 99.0783,-770.655 86.4452,-739.58"/>
<polygon fill="none" stroke="midnightblue" points="350.777,-922.808 361.26,-921.273 352.108,-915.935 350.777,-922.808"/>
</g>
<!-- Node5 -->
<g id="node5" class="node"><title>Node5</title>
<g id="a_node5"><a xlink:href="../../db/df9/classo2_1_1fit_1_1Digit.html" target="_top" xlink:title="FIT digit implementation. ">
<polygon fill="none" stroke="black" points="318,-572.5 318,-805.5 432,-805.5 432,-572.5 318,-572.5"/>
<text text-anchor="middle" x="375" y="-793.5" font-family="Helvetica,sans-Serif" font-size="10.00">o2::fit::Digit&lt; double &gt;</text>
<polyline fill="none" stroke="black" points="318,-786.5 432,-786.5 "/>
<text text-anchor="middle" x="375" y="-774.5" font-family="Helvetica,sans-Serif" font-size="10.00"> </text>
<polyline fill="none" stroke="black" points="318,-767.5 432,-767.5 "/>
<text text-anchor="start" x="326" y="-755.5" font-family="Helvetica,sans-Serif" font-size="10.00">+ Digit()</text>
<text text-anchor="start" x="326" y="-744.5" font-family="Helvetica,sans-Serif" font-size="10.00">+ Digit()</text>
<text text-anchor="start" x="326" y="-733.5" font-family="Helvetica,sans-Serif" font-size="10.00">+ ~Digit()</text>
<text text-anchor="start" x="326" y="-722.5" font-family="Helvetica,sans-Serif" font-size="10.00">+ getTime()</text>
<text text-anchor="start" x="326" y="-711.5" font-family="Helvetica,sans-Serif" font-size="10.00">+ setTime()</text>
<text text-anchor="start" x="326" y="-700.5" font-family="Helvetica,sans-Serif" font-size="10.00">+ getBC()</text>
<text text-anchor="start" x="326" y="-689.5" font-family="Helvetica,sans-Serif" font-size="10.00">+ setBC()</text>
<text text-anchor="start" x="326" y="-678.5" font-family="Helvetica,sans-Serif" font-size="10.00">+ getisA()</text>
<text text-anchor="start" x="326" y="-667.5" font-family="Helvetica,sans-Serif" font-size="10.00">+ getisC()</text>
<text text-anchor="start" x="326" y="-656.5" font-family="Helvetica,sans-Serif" font-size="10.00">+ getisCnt()</text>
<text text-anchor="start" x="326" y="-645.5" font-family="Helvetica,sans-Serif" font-size="10.00">+ getisSCnt()</text>
<text text-anchor="start" x="326" y="-634.5" font-family="Helvetica,sans-Serif" font-size="10.00">+ getisVrtx()</text>
<text text-anchor="start" x="326" y="-623.5" font-family="Helvetica,sans-Serif" font-size="10.00">+ setTriggers()</text>
<text text-anchor="start" x="326" y="-612.5" font-family="Helvetica,sans-Serif" font-size="10.00">+ getChDgData()</text>
<text text-anchor="start" x="326" y="-601.5" font-family="Helvetica,sans-Serif" font-size="10.00">+ setChDgData()</text>
<text text-anchor="start" x="326" y="-590.5" font-family="Helvetica,sans-Serif" font-size="10.00">+ setChDgData()</text>
<text text-anchor="start" x="326" y="-579.5" font-family="Helvetica,sans-Serif" font-size="10.00">+ printStream()</text>
</a>
</g>
</g>
<!-- Node1&#45;&gt;Node5 -->
<g id="edge4" class="edge"><title>Node1&#45;&gt;Node5</title>
<path fill="none" stroke="midnightblue" d="M427.103,-872.737C421.308,-852.414 414.609,-828.918 407.984,-805.683"/>
<polygon fill="none" stroke="midnightblue" points="423.762,-873.787 429.87,-882.444 430.494,-871.867 423.762,-873.787"/>
</g>
<!-- Node6 -->
<g id="node6" class="node"><title>Node6</title>
<g id="a_node6"><a xlink:href="../../df/dbc/classo2_1_1phos_1_1Digit.html" target="_top" xlink:title="{o2::phos::Digit\&lt; double \&gt;\n|+ kMaxLabels\l+ kTimeGate\l|+ Digit()\l+ Digit()\l+ Digit()\l+ ~Digit()\l+ FillFromHit()\l+ operator\&lt;()\l+ operator\&gt;()\l+ canAdd()\l+ operator+=()\l+ getAbsId()\l+ setAbsId()\l+ getAmplitude()\l+ setAmplitude()\l+ getTime()\l+ setTime()\l+ isHighGain()\l+ setHighGain()\l+ getLabel()\l+ getLabelEProp()\l+ getNLabels()\l+ PrintStream()\l}">
<polygon fill="none" stroke="black" points="450.5,-545 450.5,-833 577.5,-833 577.5,-545 450.5,-545"/>
<text text-anchor="middle" x="514" y="-821" font-family="Helvetica,sans-Serif" font-size="10.00">o2::phos::Digit&lt; double &gt;</text>
<polyline fill="none" stroke="black" points="450.5,-814 577.5,-814 "/>
<text text-anchor="start" x="458.5" y="-802" font-family="Helvetica,sans-Serif" font-size="10.00">+ kMaxLabels</text>
<text text-anchor="start" x="458.5" y="-791" font-family="Helvetica,sans-Serif" font-size="10.00">+ kTimeGate</text>
<polyline fill="none" stroke="black" points="450.5,-784 577.5,-784 "/>
<text text-anchor="start" x="458.5" y="-772" font-family="Helvetica,sans-Serif" font-size="10.00">+ Digit()</text>
<text text-anchor="start" x="458.5" y="-761" font-family="Helvetica,sans-Serif" font-size="10.00">+ Digit()</text>
<text text-anchor="start" x="458.5" y="-750" font-family="Helvetica,sans-Serif" font-size="10.00">+ Digit()</text>
<text text-anchor="start" x="458.5" y="-739" font-family="Helvetica,sans-Serif" font-size="10.00">+ ~Digit()</text>
<text text-anchor="start" x="458.5" y="-728" font-family="Helvetica,sans-Serif" font-size="10.00">+ FillFromHit()</text>
<text text-anchor="start" x="458.5" y="-717" font-family="Helvetica,sans-Serif" font-size="10.00">+ operator&lt;()</text>
<text text-anchor="start" x="458.5" y="-706" font-family="Helvetica,sans-Serif" font-size="10.00">+ operator&gt;()</text>
<text text-anchor="start" x="458.5" y="-695" font-family="Helvetica,sans-Serif" font-size="10.00">+ canAdd()</text>
<text text-anchor="start" x="458.5" y="-684" font-family="Helvetica,sans-Serif" font-size="10.00">+ operator+=()</text>
<text text-anchor="start" x="458.5" y="-673" font-family="Helvetica,sans-Serif" font-size="10.00">+ getAbsId()</text>
<text text-anchor="start" x="458.5" y="-662" font-family="Helvetica,sans-Serif" font-size="10.00">+ setAbsId()</text>
<text text-anchor="start" x="458.5" y="-651" font-family="Helvetica,sans-Serif" font-size="10.00">+ getAmplitude()</text>
<text text-anchor="start" x="458.5" y="-640" font-family="Helvetica,sans-Serif" font-size="10.00">+ setAmplitude()</text>
<text text-anchor="start" x="458.5" y="-629" font-family="Helvetica,sans-Serif" font-size="10.00">+ getTime()</text>
<text text-anchor="start" x="458.5" y="-618" font-family="Helvetica,sans-Serif" font-size="10.00">+ setTime()</text>
<text text-anchor="start" x="458.5" y="-607" font-family="Helvetica,sans-Serif" font-size="10.00">+ isHighGain()</text>
<text text-anchor="start" x="458.5" y="-596" font-family="Helvetica,sans-Serif" font-size="10.00">+ setHighGain()</text>
<text text-anchor="start" x="458.5" y="-585" font-family="Helvetica,sans-Serif" font-size="10.00">+ getLabel()</text>
<text text-anchor="start" x="458.5" y="-574" font-family="Helvetica,sans-Serif" font-size="10.00">+ getLabelEProp()</text>
<text text-anchor="start" x="458.5" y="-563" font-family="Helvetica,sans-Serif" font-size="10.00">+ getNLabels()</text>
<text text-anchor="start" x="458.5" y="-552" font-family="Helvetica,sans-Serif" font-size="10.00">+ PrintStream()</text>
</a>
</g>
</g>
<!-- Node1&#45;&gt;Node6 -->
<g id="edge5" class="edge"><title>Node1&#45;&gt;Node6</title>
<path fill="none" stroke="midnightblue" d="M461.203,-872.528C464.714,-860.389 468.551,-847.124 472.502,-833.463"/>
<polygon fill="none" stroke="midnightblue" points="457.751,-871.865 458.334,-882.444 464.475,-873.81 457.751,-871.865"/>
</g>
<!-- Node7 -->
<g id="node7" class="node"><title>Node7</title>
<g id="a_node7"><a xlink:href="../../dd/def/classo2_1_1TPC_1_1Digit.html" target="_top" xlink:title="{o2::TPC::Digit\&lt; int \&gt;\n|# mCharge\l# mCRU\l# mRow\l# mPad\l|+ Digit()\l+ Digit()\l+ ~Digit()\l+ getCharge()\l+ getChargeFloat()\l+ getCRU()\l+ getRow()\l+ getPad()\l# ClassDefNV()\l}">
<polygon fill="none" stroke="black" points="596,-600 596,-778 704,-778 704,-600 596,-600"/>
<text text-anchor="middle" x="650" y="-766" font-family="Helvetica,sans-Serif" font-size="10.00">o2::TPC::Digit&lt; int &gt;</text>
<polyline fill="none" stroke="black" points="596,-759 704,-759 "/>
<text text-anchor="start" x="604" y="-747" font-family="Helvetica,sans-Serif" font-size="10.00"># mCharge</text>
<text text-anchor="start" x="604" y="-736" font-family="Helvetica,sans-Serif" font-size="10.00"># mCRU</text>
<text text-anchor="start" x="604" y="-725" font-family="Helvetica,sans-Serif" font-size="10.00"># mRow</text>
<text text-anchor="start" x="604" y="-714" font-family="Helvetica,sans-Serif" font-size="10.00"># mPad</text>
<polyline fill="none" stroke="black" points="596,-707 704,-707 "/>
<text text-anchor="start" x="604" y="-695" font-family="Helvetica,sans-Serif" font-size="10.00">+ Digit()</text>
<text text-anchor="start" x="604" y="-684" font-family="Helvetica,sans-Serif" font-size="10.00">+ Digit()</text>
<text text-anchor="start" x="604" y="-673" font-family="Helvetica,sans-Serif" font-size="10.00">+ ~Digit()</text>
<text text-anchor="start" x="604" y="-662" font-family="Helvetica,sans-Serif" font-size="10.00">+ getCharge()</text>
<text text-anchor="start" x="604" y="-651" font-family="Helvetica,sans-Serif" font-size="10.00">+ getChargeFloat()</text>
<text text-anchor="start" x="604" y="-640" font-family="Helvetica,sans-Serif" font-size="10.00">+ getCRU()</text>
<text text-anchor="start" x="604" y="-629" font-family="Helvetica,sans-Serif" font-size="10.00">+ getRow()</text>
<text text-anchor="start" x="604" y="-618" font-family="Helvetica,sans-Serif" font-size="10.00">+ getPad()</text>
<text text-anchor="start" x="604" y="-607" font-family="Helvetica,sans-Serif" font-size="10.00"># ClassDefNV()</text>
</a>
</g>
</g>
<!-- Node1&#45;&gt;Node7 -->
<g id="edge6" class="edge"><title>Node1&#45;&gt;Node7</title>
<path fill="none" stroke="midnightblue" d="M535.059,-880.243C553.525,-866.867 571.655,-851.294 586,-834 599.624,-817.576 610.887,-797.792 619.963,-778.22"/>
<polygon fill="none" stroke="midnightblue" points="532.72,-877.609 526.564,-886.232 536.754,-883.331 532.72,-877.609"/>
</g>
<!-- Node8 -->
<g id="node8" class="node"><title>Node8</title>
<g id="a_node8"><a xlink:href="../../d0/d94/classo2_1_1dataformats_1_1TimeStamp.html" target="_top" xlink:title="{o2::dataformats::TimeStamp\l\&lt; double \&gt;\n||+ TimeStamp()\l+ TimeStamp()\l+ getTimeStamp()\l+ setTimeStamp()\l+ operator==()\l}">
<polygon fill="none" stroke="black" points="722.5,-633 722.5,-745 863.5,-745 863.5,-633 722.5,-633"/>
<text text-anchor="start" x="730.5" y="-733" font-family="Helvetica,sans-Serif" font-size="10.00">o2::dataformats::TimeStamp</text>
<text text-anchor="middle" x="793" y="-722" font-family="Helvetica,sans-Serif" font-size="10.00">&lt; double &gt;</text>
<polyline fill="none" stroke="black" points="722.5,-715 863.5,-715 "/>
<text text-anchor="middle" x="793" y="-703" font-family="Helvetica,sans-Serif" font-size="10.00"> </text>
<polyline fill="none" stroke="black" points="722.5,-696 863.5,-696 "/>
<text text-anchor="start" x="730.5" y="-684" font-family="Helvetica,sans-Serif" font-size="10.00">+ TimeStamp()</text>
<text text-anchor="start" x="730.5" y="-673" font-family="Helvetica,sans-Serif" font-size="10.00">+ TimeStamp()</text>
<text text-anchor="start" x="730.5" y="-662" font-family="Helvetica,sans-Serif" font-size="10.00">+ getTimeStamp()</text>
<text text-anchor="start" x="730.5" y="-651" font-family="Helvetica,sans-Serif" font-size="10.00">+ setTimeStamp()</text>
<text text-anchor="start" x="730.5" y="-640" font-family="Helvetica,sans-Serif" font-size="10.00">+ operator==()</text>
</a>
</g>
</g>
<!-- Node1&#45;&gt;Node8 -->
<g id="edge7" class="edge"><title>Node1&#45;&gt;Node8</title>
<path fill="none" stroke="orange" d="M536.682,-915.373C592.812,-901.432 662.981,-876.692 713,-834 740.517,-810.513 760.374,-775.077 773.421,-745.235"/>
<polygon fill="orange" stroke="orange" points="535.634,-912.025 526.731,-917.769 537.273,-918.831 535.634,-912.025"/>
<text text-anchor="middle" x="714" y="-855.5" font-family="Helvetica,sans-Serif" font-size="10.00"> &lt; double &gt;</text>
</g>
<!-- Node11 -->
<g id="node11" class="node"><title>Node11</title>
<g id="a_node11"><a xlink:href="../../d0/d94/classo2_1_1dataformats_1_1TimeStamp.html" target="_top" xlink:title="{o2::dataformats::TimeStamp\l\&lt; float \&gt;\n||+ TimeStamp()\l+ TimeStamp()\l+ getTimeStamp()\l+ setTimeStamp()\l+ operator==()\l}">
<polygon fill="none" stroke="black" points="158.5,-633 158.5,-745 299.5,-745 299.5,-633 158.5,-633"/>
<text text-anchor="start" x="166.5" y="-733" font-family="Helvetica,sans-Serif" font-size="10.00">o2::dataformats::TimeStamp</text>
<text text-anchor="middle" x="229" y="-722" font-family="Helvetica,sans-Serif" font-size="10.00">&lt; float &gt;</text>
<polyline fill="none" stroke="black" points="158.5,-715 299.5,-715 "/>
<text text-anchor="middle" x="229" y="-703" font-family="Helvetica,sans-Serif" font-size="10.00"> </text>
<polyline fill="none" stroke="black" points="158.5,-696 299.5,-696 "/>
<text text-anchor="start" x="166.5" y="-684" font-family="Helvetica,sans-Serif" font-size="10.00">+ TimeStamp()</text>
<text text-anchor="start" x="166.5" y="-673" font-family="Helvetica,sans-Serif" font-size="10.00">+ TimeStamp()</text>
<text text-anchor="start" x="166.5" y="-662" font-family="Helvetica,sans-Serif" font-size="10.00">+ getTimeStamp()</text>
<text text-anchor="start" x="166.5" y="-651" font-family="Helvetica,sans-Serif" font-size="10.00">+ setTimeStamp()</text>
<text text-anchor="start" x="166.5" y="-640" font-family="Helvetica,sans-Serif" font-size="10.00">+ operator==()</text>
</a>
</g>
</g>
<!-- Node1&#45;&gt;Node11 -->
<g id="edge10" class="edge"><title>Node1&#45;&gt;Node11</title>
<path fill="none" stroke="orange" d="M355.382,-876.26C338.846,-863.568 322.534,-849.276 309,-834 285.768,-807.777 266.452,-773.678 252.623,-745.244"/>
<polygon fill="orange" stroke="orange" points="353.407,-879.154 363.506,-882.359 357.61,-873.556 353.407,-879.154"/>
<text text-anchor="middle" x="359" y="-855.5" font-family="Helvetica,sans-Serif" font-size="10.00"> &lt; float &gt;</text>
</g>
<!-- Node3 -->
<g id="node3" class="node"><title>Node3</title>
<g id="a_node3"><a xlink:href="../../d3/dbf/classo2_1_1dataformats_1_1TimeStampWithError.html" target="_top" xlink:title="{o2::dataformats::TimeStamp\lWithError\&lt; float, float \&gt;\n||+ TimeStampWithError()\l+ TimeStampWithError()\l+ getTimeStampError()\l+ setTimeStampError()\l}">
<polygon fill="none" stroke="black" points="79.5,-317.5 79.5,-418.5 220.5,-418.5 220.5,-317.5 79.5,-317.5"/>
<text text-anchor="start" x="87.5" y="-406.5" font-family="Helvetica,sans-Serif" font-size="10.00">o2::dataformats::TimeStamp</text>
<text text-anchor="middle" x="150" y="-395.5" font-family="Helvetica,sans-Serif" font-size="10.00">WithError&lt; float, float &gt;</text>
<polyline fill="none" stroke="black" points="79.5,-388.5 220.5,-388.5 "/>
<text text-anchor="middle" x="150" y="-376.5" font-family="Helvetica,sans-Serif" font-size="10.00"> </text>
<polyline fill="none" stroke="black" points="79.5,-369.5 220.5,-369.5 "/>
<text text-anchor="start" x="87.5" y="-357.5" font-family="Helvetica,sans-Serif" font-size="10.00">+ TimeStampWithError()</text>
<text text-anchor="start" x="87.5" y="-346.5" font-family="Helvetica,sans-Serif" font-size="10.00">+ TimeStampWithError()</text>
<text text-anchor="start" x="87.5" y="-335.5" font-family="Helvetica,sans-Serif" font-size="10.00">+ getTimeStampError()</text>
<text text-anchor="start" x="87.5" y="-324.5" font-family="Helvetica,sans-Serif" font-size="10.00">+ setTimeStampError()</text>
</a>
</g>
</g>
<!-- Node2&#45;&gt;Node3 -->
<g id="edge2" class="edge"><title>Node2&#45;&gt;Node3</title>
<path fill="none" stroke="orange" d="M84.9548,-628.368C100.118,-567.905 123.315,-475.405 137.522,-418.756"/>
<polygon fill="orange" stroke="orange" points="81.5377,-627.605 82.5,-638.156 88.3275,-629.308 81.5377,-627.605"/>
<text text-anchor="middle" x="145.5" y="-517.5" font-family="Helvetica,sans-Serif" font-size="10.00"> &lt; float, float &gt;</text>
</g>
<!-- Node4 -->
<g id="node4" class="node"><title>Node4</title>
<g id="a_node4"><a xlink:href="../../de/dd5/classo2_1_1TPC_1_1Cluster.html" target="_top" xlink:title="Cluster class for the TPC. ">
<polygon fill="none" stroke="black" points="102.5,-1 102.5,-201 197.5,-201 197.5,-1 102.5,-1"/>
<text text-anchor="middle" x="150" y="-189" font-family="Helvetica,sans-Serif" font-size="10.00">o2::TPC::Cluster</text>
<polyline fill="none" stroke="black" points="102.5,-182 197.5,-182 "/>
<text text-anchor="middle" x="150" y="-170" font-family="Helvetica,sans-Serif" font-size="10.00"> </text>
<polyline fill="none" stroke="black" points="102.5,-163 197.5,-163 "/>
<text text-anchor="start" x="110.5" y="-151" font-family="Helvetica,sans-Serif" font-size="10.00">+ Cluster()</text>
<text text-anchor="start" x="110.5" y="-140" font-family="Helvetica,sans-Serif" font-size="10.00">+ Cluster()</text>
<text text-anchor="start" x="110.5" y="-129" font-family="Helvetica,sans-Serif" font-size="10.00">+ ~Cluster()</text>
<text text-anchor="start" x="110.5" y="-118" font-family="Helvetica,sans-Serif" font-size="10.00">+ Cluster()</text>
<text text-anchor="start" x="110.5" y="-107" font-family="Helvetica,sans-Serif" font-size="10.00">+ setParameters()</text>
<text text-anchor="start" x="110.5" y="-96" font-family="Helvetica,sans-Serif" font-size="10.00">+ getCRU()</text>
<text text-anchor="start" x="110.5" y="-85" font-family="Helvetica,sans-Serif" font-size="10.00">+ getRow()</text>
<text text-anchor="start" x="110.5" y="-74" font-family="Helvetica,sans-Serif" font-size="10.00">+ getQ()</text>
<text text-anchor="start" x="110.5" y="-63" font-family="Helvetica,sans-Serif" font-size="10.00">+ getQmax()</text>
<text text-anchor="start" x="110.5" y="-52" font-family="Helvetica,sans-Serif" font-size="10.00">+ getPadMean()</text>
<text text-anchor="start" x="110.5" y="-41" font-family="Helvetica,sans-Serif" font-size="10.00">+ getTimeMean()</text>
<text text-anchor="start" x="110.5" y="-30" font-family="Helvetica,sans-Serif" font-size="10.00">+ getPadSigma()</text>
<text text-anchor="start" x="110.5" y="-19" font-family="Helvetica,sans-Serif" font-size="10.00">+ getTimeSigma()</text>
<text text-anchor="start" x="110.5" y="-8" font-family="Helvetica,sans-Serif" font-size="10.00"># print()</text>
</a>
</g>
</g>
<!-- Node3&#45;&gt;Node4 -->
<g id="edge3" class="edge"><title>Node3&#45;&gt;Node4</title>
<path fill="none" stroke="midnightblue" d="M150,-307.184C150,-275.933 150,-236.871 150,-201.24"/>
<polygon fill="none" stroke="midnightblue" points="146.5,-307.466 150,-317.466 153.5,-307.466 146.5,-307.466"/>
</g>
<!-- Node9 -->
<g id="node9" class="node"><title>Node9</title>
<g id="a_node9"><a xlink:href="../../d5/d5a/classo2_1_1EMCAL_1_1Digit.html" target="_top" xlink:title="EMCAL digit implementation. ">
<polygon fill="none" stroke="black" points="684,-279 684,-457 778,-457 778,-279 684,-279"/>
<text text-anchor="middle" x="731" y="-445" font-family="Helvetica,sans-Serif" font-size="10.00">o2::EMCAL::Digit</text>
<polyline fill="none" stroke="black" points="684,-438 778,-438 "/>
<text text-anchor="middle" x="731" y="-426" font-family="Helvetica,sans-Serif" font-size="10.00"> </text>
<polyline fill="none" stroke="black" points="684,-419 778,-419 "/>
<text text-anchor="start" x="692" y="-407" font-family="Helvetica,sans-Serif" font-size="10.00">+ Digit()</text>
<text text-anchor="start" x="692" y="-396" font-family="Helvetica,sans-Serif" font-size="10.00">+ Digit()</text>
<text text-anchor="start" x="692" y="-385" font-family="Helvetica,sans-Serif" font-size="10.00">+ ~Digit()</text>
<text text-anchor="start" x="692" y="-374" font-family="Helvetica,sans-Serif" font-size="10.00">+ operator&lt;()</text>
<text text-anchor="start" x="692" y="-363" font-family="Helvetica,sans-Serif" font-size="10.00">+ operator&gt;()</text>
<text text-anchor="start" x="692" y="-352" font-family="Helvetica,sans-Serif" font-size="10.00">+ canAdd()</text>
<text text-anchor="start" x="692" y="-341" font-family="Helvetica,sans-Serif" font-size="10.00">+ operator+=()</text>
<text text-anchor="start" x="692" y="-330" font-family="Helvetica,sans-Serif" font-size="10.00">+ GetTower()</text>
<text text-anchor="start" x="692" y="-319" font-family="Helvetica,sans-Serif" font-size="10.00">+ SetTower()</text>
<text text-anchor="start" x="692" y="-308" font-family="Helvetica,sans-Serif" font-size="10.00">+ GetAmplitude()</text>
<text text-anchor="start" x="692" y="-297" font-family="Helvetica,sans-Serif" font-size="10.00">+ SetAmplitude()</text>
<text text-anchor="start" x="692" y="-286" font-family="Helvetica,sans-Serif" font-size="10.00">+ PrintStream()</text>
</a>
</g>
</g>
<!-- Node8&#45;&gt;Node9 -->
<g id="edge8" class="edge"><title>Node8&#45;&gt;Node9</title>
<path fill="none" stroke="midnightblue" d="M780.344,-622.881C771.057,-575.099 758.34,-509.668 748.142,-457.198"/>
<polygon fill="none" stroke="midnightblue" points="776.928,-623.65 782.271,-632.799 783.799,-622.315 776.928,-623.65"/>
</g>
<!-- Node10 -->
<g id="node10" class="node"><title>Node10</title>
<g id="a_node10"><a xlink:href="../../d8/db4/classo2_1_1tof_1_1Digit.html" target="_top" xlink:title="TOF digit implementation. ">
<polygon fill="none" stroke="black" points="796,-240.5 796,-495.5 912,-495.5 912,-240.5 796,-240.5"/>
<text text-anchor="middle" x="854" y="-483.5" font-family="Helvetica,sans-Serif" font-size="10.00">o2::tof::Digit</text>
<polyline fill="none" stroke="black" points="796,-476.5 912,-476.5 "/>
<text text-anchor="middle" x="854" y="-464.5" font-family="Helvetica,sans-Serif" font-size="10.00"> </text>
<polyline fill="none" stroke="black" points="796,-457.5 912,-457.5 "/>
<text text-anchor="start" x="804" y="-445.5" font-family="Helvetica,sans-Serif" font-size="10.00">+ Digit()</text>
<text text-anchor="start" x="804" y="-434.5" font-family="Helvetica,sans-Serif" font-size="10.00">+ Digit()</text>
<text text-anchor="start" x="804" y="-423.5" font-family="Helvetica,sans-Serif" font-size="10.00">+ ~Digit()</text>
<text text-anchor="start" x="804" y="-412.5" font-family="Helvetica,sans-Serif" font-size="10.00">+ getChannel()</text>
<text text-anchor="start" x="804" y="-401.5" font-family="Helvetica,sans-Serif" font-size="10.00">+ setChannel()</text>
<text text-anchor="start" x="804" y="-390.5" font-family="Helvetica,sans-Serif" font-size="10.00">+ getTDC()</text>
<text text-anchor="start" x="804" y="-379.5" font-family="Helvetica,sans-Serif" font-size="10.00">+ setTDC()</text>
<text text-anchor="start" x="804" y="-368.5" font-family="Helvetica,sans-Serif" font-size="10.00">+ getTOT()</text>
<text text-anchor="start" x="804" y="-357.5" font-family="Helvetica,sans-Serif" font-size="10.00">+ setTOT()</text>
<text text-anchor="start" x="804" y="-346.5" font-family="Helvetica,sans-Serif" font-size="10.00">+ getBC()</text>
<text text-anchor="start" x="804" y="-335.5" font-family="Helvetica,sans-Serif" font-size="10.00">+ setBC()</text>
<text text-anchor="start" x="804" y="-324.5" font-family="Helvetica,sans-Serif" font-size="10.00">+ getLabel()</text>
<text text-anchor="start" x="804" y="-313.5" font-family="Helvetica,sans-Serif" font-size="10.00">+ setLabel()</text>
<text text-anchor="start" x="804" y="-302.5" font-family="Helvetica,sans-Serif" font-size="10.00">+ printStream()</text>
<text text-anchor="start" x="804" y="-291.5" font-family="Helvetica,sans-Serif" font-size="10.00">+ merge()</text>
<text text-anchor="start" x="804" y="-280.5" font-family="Helvetica,sans-Serif" font-size="10.00">+ getPhiAndEtaIndex()</text>
<text text-anchor="start" x="804" y="-269.5" font-family="Helvetica,sans-Serif" font-size="10.00">+ isUsedInCluster()</text>
<text text-anchor="start" x="804" y="-258.5" font-family="Helvetica,sans-Serif" font-size="10.00">+ setIsUsedInCluster()</text>
<text text-anchor="start" x="804" y="-247.5" font-family="Helvetica,sans-Serif" font-size="10.00">+ getOrderingKey()</text>
</a>
</g>
</g>
<!-- Node8&#45;&gt;Node10 -->
<g id="edge9" class="edge"><title>Node8&#45;&gt;Node10</title>
<path fill="none" stroke="midnightblue" d="M805.476,-622.755C812.479,-586.134 821.459,-539.175 829.785,-495.632"/>
<polygon fill="none" stroke="midnightblue" points="801.996,-622.319 803.556,-632.799 808.872,-623.634 801.996,-622.319"/>
</g>
<!-- Node11&#45;&gt;Node3 -->
<g id="edge11" class="edge"><title>Node11&#45;&gt;Node3</title>
<path fill="none" stroke="midnightblue" d="M212.894,-622.964C197.903,-562.432 175.885,-473.523 162.272,-418.552"/>
<polygon fill="none" stroke="midnightblue" points="209.528,-623.933 215.329,-632.799 216.323,-622.25 209.528,-623.933"/>
</g>
</g>
</svg>
