<?xml version="1.0" encoding="UTF-8" standalone="no"?>
<!DOCTYPE svg PUBLIC "-//W3C//DTD SVG 1.1//EN"
 "http://www.w3.org/Graphics/SVG/1.1/DTD/svg11.dtd">
<!-- Generated by graphviz version 2.36.0 (20140111.2315)
 -->
<!-- Title: /home/travis/build/AliceO2Group/AliceO2/Utilities/aliceHLTwrapper/src/MessageFormat.cxx Pages: 1 -->
<svg width="1721pt" height="354pt"
 viewBox="0.00 0.00 1721.00 354.00" xmlns="http://www.w3.org/2000/svg" xmlns:xlink="http://www.w3.org/1999/xlink">
<g id="graph0" class="graph" transform="scale(1 1) rotate(0) translate(4 350)">
<title>/home/travis/build/AliceO2Group/AliceO2/Utilities/aliceHLTwrapper/src/MessageFormat.cxx</title>
<!-- Node1 -->
<g id="node1" class="node"><title>Node1</title>
<polygon fill="#bfbfbf" stroke="black" points="1089.5,-293 1089.5,-345 1218.5,-345 1218.5,-293 1089.5,-293"/>
<text text-anchor="start" x="1097.5" y="-333" font-family="Helvetica,sans-Serif" font-size="10.00">/home/travis/build</text>
<text text-anchor="start" x="1097.5" y="-322" font-family="Helvetica,sans-Serif" font-size="10.00">/AliceO2Group/AliceO2</text>
<text text-anchor="start" x="1097.5" y="-311" font-family="Helvetica,sans-Serif" font-size="10.00">/Utilities/aliceHLTwrapper</text>
<text text-anchor="middle" x="1154" y="-300" font-family="Helvetica,sans-Serif" font-size="10.00">/src/MessageFormat.cxx</text>
</g>
<!-- Node2 -->
<g id="node2" class="node"><title>Node2</title>
<g id="a_node2"><a xlink:href="../../d2/dda/MessageFormat_8h.html" target="_top" xlink:title="aliceHLTwrapper/MessageFormat.h">
<polygon fill="none" stroke="black" points="535,-236.5 535,-255.5 707,-255.5 707,-236.5 535,-236.5"/>
<text text-anchor="middle" x="621" y="-243.5" font-family="Helvetica,sans-Serif" font-size="10.00">aliceHLTwrapper/MessageFormat.h</text>
</a>
</g>
</g>
<!-- Node1&#45;&gt;Node2 -->
<g id="edge1" class="edge"><title>Node1&#45;&gt;Node2</title>
<path fill="none" stroke="midnightblue" d="M1089.44,-309.4C990.065,-296.163 800.136,-270.862 695.223,-256.887"/>
<polygon fill="midnightblue" stroke="midnightblue" points="695.406,-253.381 685.032,-255.53 694.482,-260.319 695.406,-253.381"/>
</g>
<!-- Node4 -->
<g id="node4" class="node"><title>Node4</title>
<g id="a_node4"><a xlink:href="../../d2/de6/HOMERFactory_8h.html" target="_top" xlink:title="HOMERFactory.h">
<polygon fill="none" stroke="black" points="383.5,-180.5 383.5,-199.5 478.5,-199.5 478.5,-180.5 383.5,-180.5"/>
<text text-anchor="middle" x="431" y="-187.5" font-family="Helvetica,sans-Serif" font-size="10.00">HOMERFactory.h</text>
</a>
</g>
</g>
<!-- Node1&#45;&gt;Node4 -->
<g id="edge34" class="edge"><title>Node1&#45;&gt;Node4</title>
<path fill="none" stroke="midnightblue" d="M1089.44,-315.685C950.685,-310.054 628.366,-293.277 526,-256 495.662,-244.952 465.779,-221.96 447.86,-206.5"/>
<polygon fill="midnightblue" stroke="midnightblue" points="449.881,-203.614 440.075,-199.601 445.238,-208.853 449.881,-203.614"/>
</g>
<!-- Node9 -->
<g id="node9" class="node"><title>Node9</title>
<polygon fill="none" stroke="#bfbfbf" points="827,-68.5 827,-87.5 879,-87.5 879,-68.5 827,-68.5"/>
<text text-anchor="middle" x="853" y="-75.5" font-family="Helvetica,sans-Serif" font-size="10.00">memory</text>
</g>
<!-- Node1&#45;&gt;Node9 -->
<g id="edge49" class="edge"><title>Node1&#45;&gt;Node9</title>
<path fill="none" stroke="midnightblue" d="M1089.09,-309.037C1050.04,-300.815 1001.4,-285.245 967,-256 916.567,-213.119 937.189,-177.352 898,-124 890.088,-113.228 879.605,-102.589 870.748,-94.3614"/>
<polygon fill="midnightblue" stroke="midnightblue" points="872.962,-91.6454 863.191,-87.5494 868.276,-96.8447 872.962,-91.6454"/>
</g>
<!-- Node10 -->
<g id="node10" class="node"><title>Node10</title>
<polygon fill="none" stroke="#bfbfbf" points="919.5,-68.5 919.5,-87.5 968.5,-87.5 968.5,-68.5 919.5,-68.5"/>
<text text-anchor="middle" x="944" y="-75.5" font-family="Helvetica,sans-Serif" font-size="10.00">cassert</text>
</g>
<!-- Node1&#45;&gt;Node10 -->
<g id="edge50" class="edge"><title>Node1&#45;&gt;Node10</title>
<path fill="none" stroke="midnightblue" d="M1089.36,-309.489C1053.73,-301.485 1011.48,-285.985 985,-256 944.856,-210.542 941.885,-133.527 942.894,-97.9972"/>
<polygon fill="midnightblue" stroke="midnightblue" points="946.406,-97.7854 943.341,-87.6438 939.413,-97.4836 946.406,-97.7854"/>
</g>
<!-- Node11 -->
<g id="node11" class="node"><title>Node11</title>
<polygon fill="none" stroke="#bfbfbf" points="0,-6.5 0,-25.5 46,-25.5 46,-6.5 0,-6.5"/>
<text text-anchor="middle" x="23" y="-13.5" font-family="Helvetica,sans-Serif" font-size="10.00">cstring</text>
</g>
<!-- Node1&#45;&gt;Node11 -->
<g id="edge47" class="edge"><title>Node1&#45;&gt;Node11</title>
<path fill="none" stroke="midnightblue" d="M1089.35,-316.638C867.531,-311.12 151,-285.947 151,-191 151,-191 151,-191 151,-133 151,-104.8 81.9228,-55.4313 45.2593,-31.2144"/>
<polygon fill="midnightblue" stroke="midnightblue" points="46.9856,-28.1616 36.6982,-25.6276 43.1601,-34.0238 46.9856,-28.1616"/>
</g>
<!-- Node28 -->
<g id="node28" class="node"><title>Node28</title>
<g id="a_node28"><a xlink:href="../../d8/d1e/AliHLTHOMERData_8h.html" target="_top" xlink:title="aliceHLTwrapper/AliHLTHOMERData.h">
<polygon fill="none" stroke="black" points="1121,-180.5 1121,-199.5 1311,-199.5 1311,-180.5 1121,-180.5"/>
<text text-anchor="middle" x="1216" y="-187.5" font-family="Helvetica,sans-Serif" font-size="10.00">aliceHLTwrapper/AliHLTHOMERData.h</text>
</a>
</g>
</g>
<!-- Node1&#45;&gt;Node28 -->
<g id="edge35" class="edge"><title>Node1&#45;&gt;Node28</title>
<path fill="none" stroke="midnightblue" d="M1174.98,-292.703C1183.09,-281.921 1191.88,-268.875 1198,-256 1205.07,-241.128 1209.8,-222.981 1212.63,-209.645"/>
<polygon fill="midnightblue" stroke="midnightblue" points="1216.08,-210.238 1214.57,-199.752 1209.22,-208.891 1216.08,-210.238"/>
</g>
<!-- Node30 -->
<g id="node30" class="node"><title>Node30</title>
<g id="a_node30"><a xlink:href="../../d0/d3f/AliHLTHOMERWriter_8h.html" target="_top" xlink:title="HLT Online Monitoring Environment including ROOT &#45; Writer. ">
<polygon fill="none" stroke="black" points="994.5,-236.5 994.5,-255.5 1189.5,-255.5 1189.5,-236.5 994.5,-236.5"/>
<text text-anchor="middle" x="1092" y="-243.5" font-family="Helvetica,sans-Serif" font-size="10.00">aliceHLTwrapper/AliHLTHOMERWriter.h</text>
</a>
</g>
</g>
<!-- Node1&#45;&gt;Node30 -->
<g id="edge37" class="edge"><title>Node1&#45;&gt;Node30</title>
<path fill="none" stroke="midnightblue" d="M1131.97,-292.768C1123.42,-282.982 1113.88,-272.056 1106.26,-263.335"/>
<polygon fill="midnightblue" stroke="midnightblue" points="1108.86,-260.987 1099.65,-255.757 1103.59,-265.592 1108.86,-260.987"/>
</g>
<!-- Node31 -->
<g id="node31" class="node"><title>Node31</title>
<g id="a_node31"><a xlink:href="../../d6/de3/AliHLTHOMERReader_8h.html" target="_top" xlink:title="HLT Online Monitoring Environment including ROOT &#45; Reader. ">
<polygon fill="none" stroke="black" points="1245,-236.5 1245,-255.5 1445,-255.5 1445,-236.5 1245,-236.5"/>
<text text-anchor="middle" x="1345" y="-243.5" font-family="Helvetica,sans-Serif" font-size="10.00">aliceHLTwrapper/AliHLTHOMERReader.h</text>
</a>
</g>
</g>
<!-- Node1&#45;&gt;Node31 -->
<g id="edge40" class="edge"><title>Node1&#45;&gt;Node31</title>
<path fill="none" stroke="midnightblue" d="M1218.66,-293.963C1250.19,-282.243 1286.74,-268.655 1312.4,-259.12"/>
<polygon fill="midnightblue" stroke="midnightblue" points="1313.84,-262.316 1322,-255.551 1311.4,-255.755 1313.84,-262.316"/>
</g>
<!-- Node34 -->
<g id="node34" class="node"><title>Node34</title>
<polygon fill="none" stroke="#bfbfbf" points="1463.5,-236.5 1463.5,-255.5 1508.5,-255.5 1508.5,-236.5 1463.5,-236.5"/>
<text text-anchor="middle" x="1486" y="-243.5" font-family="Helvetica,sans-Serif" font-size="10.00">cstdlib</text>
</g>
<!-- Node1&#45;&gt;Node34 -->
<g id="edge45" class="edge"><title>Node1&#45;&gt;Node34</title>
<path fill="none" stroke="midnightblue" d="M1218.67,-306C1277.42,-294.787 1366.66,-276.984 1453.56,-255.967"/>
<polygon fill="midnightblue" stroke="midnightblue" points="1454.44,-259.356 1463.33,-253.59 1452.78,-252.555 1454.44,-259.356"/>
</g>
<!-- Node35 -->
<g id="node35" class="node"><title>Node35</title>
<polygon fill="none" stroke="#bfbfbf" points="1527,-236.5 1527,-255.5 1571,-255.5 1571,-236.5 1527,-236.5"/>
<text text-anchor="middle" x="1549" y="-243.5" font-family="Helvetica,sans-Serif" font-size="10.00">cerrno</text>
</g>
<!-- Node1&#45;&gt;Node35 -->
<g id="edge46" class="edge"><title>Node1&#45;&gt;Node35</title>
<path fill="none" stroke="midnightblue" d="M1218.66,-309.051C1289.44,-298.785 1406.37,-280.447 1516.72,-255.84"/>
<polygon fill="midnightblue" stroke="midnightblue" points="1517.71,-259.206 1526.7,-253.595 1516.17,-252.377 1517.71,-259.206"/>
</g>
<!-- Node36 -->
<g id="node36" class="node"><title>Node36</title>
<polygon fill="none" stroke="#bfbfbf" points="1589,-236.5 1589,-255.5 1643,-255.5 1643,-236.5 1589,-236.5"/>
<text text-anchor="middle" x="1616" y="-243.5" font-family="Helvetica,sans-Serif" font-size="10.00">iostream</text>
</g>
<!-- Node1&#45;&gt;Node36 -->
<g id="edge48" class="edge"><title>Node1&#45;&gt;Node36</title>
<path fill="none" stroke="midnightblue" d="M1218.76,-310.47C1302.36,-300.311 1452.18,-280.618 1579,-256 1579.1,-255.98 1579.2,-255.961 1579.3,-255.941"/>
<polygon fill="midnightblue" stroke="midnightblue" points="1579.93,-259.385 1588.99,-253.881 1578.48,-252.539 1579.93,-259.385"/>
</g>
<!-- Node37 -->
<g id="node37" class="node"><title>Node37</title>
<polygon fill="none" stroke="#bfbfbf" points="1661,-236.5 1661,-255.5 1713,-255.5 1713,-236.5 1661,-236.5"/>
<text text-anchor="middle" x="1687" y="-243.5" font-family="Helvetica,sans-Serif" font-size="10.00">sstream</text>
</g>
<!-- Node1&#45;&gt;Node37 -->
<g id="edge51" class="edge"><title>Node1&#45;&gt;Node37</title>
<path fill="none" stroke="midnightblue" d="M1218.88,-312.592C1312.36,-304.21 1490.44,-286.04 1650.67,-256.045"/>
<polygon fill="midnightblue" stroke="midnightblue" points="1651.53,-259.443 1660.71,-254.145 1650.23,-252.565 1651.53,-259.443"/>
</g>
<!-- Node3 -->
<g id="node3" class="node"><title>Node3</title>
<g id="a_node3"><a xlink:href="../../d6/d34/AliHLTDataTypes_8h.html" target="_top" xlink:title="Data type declaration for the HLT module. ">
<polygon fill="none" stroke="black" points="396.5,-124.5 396.5,-143.5 499.5,-143.5 499.5,-124.5 396.5,-124.5"/>
<text text-anchor="middle" x="448" y="-131.5" font-family="Helvetica,sans-Serif" font-size="10.00">AliHLTDataTypes.h</text>
</a>
</g>
</g>
<!-- Node2&#45;&gt;Node3 -->
<g id="edge2" class="edge"><title>Node2&#45;&gt;Node3</title>
<path fill="none" stroke="midnightblue" d="M601.073,-236.434C582.414,-228.092 554.031,-214.568 531,-200 507.027,-184.836 481.66,-164.209 465.373,-150.292"/>
<polygon fill="midnightblue" stroke="midnightblue" points="467.593,-147.584 457.74,-143.69 463.014,-152.879 467.593,-147.584"/>
</g>
<!-- Node2&#45;&gt;Node4 -->
<g id="edge3" class="edge"><title>Node2&#45;&gt;Node4</title>
<path fill="none" stroke="midnightblue" d="M590.894,-236.444C558.374,-227.201 506.421,-212.436 470.609,-202.257"/>
<polygon fill="midnightblue" stroke="midnightblue" points="471.541,-198.884 460.965,-199.516 469.627,-205.617 471.541,-198.884"/>
</g>
<!-- Node5 -->
<g id="node5" class="node"><title>Node5</title>
<polygon fill="none" stroke="#bfbfbf" points="1206,-6.5 1206,-25.5 1250,-25.5 1250,-6.5 1206,-6.5"/>
<text text-anchor="middle" x="1228" y="-13.5" font-family="Helvetica,sans-Serif" font-size="10.00">vector</text>
</g>
<!-- Node2&#45;&gt;Node5 -->
<g id="edge5" class="edge"><title>Node2&#45;&gt;Node5</title>
<path fill="none" stroke="midnightblue" d="M648.924,-236.455C669.409,-229.171 697.022,-217.138 717,-200 773.066,-151.902 752.088,-101.352 818,-68 968.58,8.19536 1033.2,-76.4676 1196,-32 1198.35,-31.3589 1200.74,-30.5564 1203.09,-29.658"/>
<polygon fill="midnightblue" stroke="midnightblue" points="1204.68,-32.7854 1212.46,-25.5923 1201.89,-26.3645 1204.68,-32.7854"/>
</g>
<!-- Node6 -->
<g id="node6" class="node"><title>Node6</title>
<polygon fill="none" stroke="#bfbfbf" points="241,-68.5 241,-87.5 287,-87.5 287,-68.5 241,-68.5"/>
<text text-anchor="middle" x="264" y="-75.5" font-family="Helvetica,sans-Serif" font-size="10.00">cstdint</text>
</g>
<!-- Node2&#45;&gt;Node6 -->
<g id="edge6" class="edge"><title>Node2&#45;&gt;Node6</title>
<path fill="none" stroke="midnightblue" d="M615.928,-236.489C601.953,-213.879 560.431,-152.125 508,-124 425.167,-79.5666 389.075,-108.791 297.126,-89.0171"/>
<polygon fill="midnightblue" stroke="midnightblue" points="297.679,-85.5532 287.15,-86.7282 296.114,-92.3759 297.679,-85.5532"/>
</g>
<!-- Node7 -->
<g id="node7" class="node"><title>Node7</title>
<polygon fill="none" stroke="#bfbfbf" points="611,-180.5 611,-199.5 709,-199.5 709,-180.5 611,-180.5"/>
<text text-anchor="middle" x="660" y="-187.5" font-family="Helvetica,sans-Serif" font-size="10.00">boost/signals2.hpp</text>
</g>
<!-- Node2&#45;&gt;Node7 -->
<g id="edge7" class="edge"><title>Node2&#45;&gt;Node7</title>
<path fill="none" stroke="midnightblue" d="M627.44,-236.083C632.949,-228.455 641.031,-217.264 647.765,-207.941"/>
<polygon fill="midnightblue" stroke="midnightblue" points="650.662,-209.907 653.68,-199.751 644.987,-205.809 650.662,-209.907"/>
</g>
<!-- Node8 -->
<g id="node8" class="node"><title>Node8</title>
<g id="a_node8"><a xlink:href="../../dc/dcd/DataHeader_8h.html" target="_top" xlink:title="Headers/DataHeader.h">
<polygon fill="none" stroke="black" points="573.5,-124.5 573.5,-143.5 690.5,-143.5 690.5,-124.5 573.5,-124.5"/>
<text text-anchor="middle" x="632" y="-131.5" font-family="Helvetica,sans-Serif" font-size="10.00">Headers/DataHeader.h</text>
</a>
</g>
</g>
<!-- Node2&#45;&gt;Node8 -->
<g id="edge8" class="edge"><title>Node2&#45;&gt;Node8</title>
<path fill="none" stroke="midnightblue" d="M615.094,-236.153C607.49,-223.63 595.936,-200.029 602,-180 605.117,-169.705 611.452,-159.612 617.501,-151.602"/>
<polygon fill="midnightblue" stroke="midnightblue" points="620.228,-153.797 623.786,-143.818 614.781,-149.399 620.228,-153.797"/>
</g>
<!-- Node25 -->
<g id="node25" class="node"><title>Node25</title>
<g id="a_node25"><a xlink:href="../../d2/d09/HeartbeatFrame_8h.html" target="_top" xlink:title="Headers/HeartbeatFrame.h">
<polygon fill="none" stroke="black" points="765.5,-180.5 765.5,-199.5 900.5,-199.5 900.5,-180.5 765.5,-180.5"/>
<text text-anchor="middle" x="833" y="-187.5" font-family="Helvetica,sans-Serif" font-size="10.00">Headers/HeartbeatFrame.h</text>
</a>
</g>
</g>
<!-- Node2&#45;&gt;Node25 -->
<g id="edge29" class="edge"><title>Node2&#45;&gt;Node25</title>
<path fill="none" stroke="midnightblue" d="M654.592,-236.444C691.187,-227.122 749.838,-212.183 789.826,-201.997"/>
<polygon fill="midnightblue" stroke="midnightblue" points="790.739,-205.377 799.565,-199.516 789.011,-198.593 790.739,-205.377"/>
</g>
<!-- Node4&#45;&gt;Node3 -->
<g id="edge4" class="edge"><title>Node4&#45;&gt;Node3</title>
<path fill="none" stroke="midnightblue" d="M433.807,-180.083C436.085,-172.849 439.371,-162.409 442.208,-153.397"/>
<polygon fill="midnightblue" stroke="midnightblue" points="445.581,-154.341 445.245,-143.751 438.904,-152.239 445.581,-154.341"/>
</g>
<!-- Node8&#45;&gt;Node6 -->
<g id="edge9" class="edge"><title>Node8&#45;&gt;Node6</title>
<path fill="none" stroke="midnightblue" d="M573.344,-125.768C492.719,-115.7 351.858,-97.6159 301,-88 299.721,-87.7582 298.42,-87.5004 297.108,-87.2304"/>
<polygon fill="midnightblue" stroke="midnightblue" points="297.534,-83.7397 287.013,-84.9877 296.016,-90.5731 297.534,-83.7397"/>
</g>
<!-- Node8&#45;&gt;Node9 -->
<g id="edge10" class="edge"><title>Node8&#45;&gt;Node9</title>
<path fill="none" stroke="midnightblue" d="M667.018,-124.444C707.972,-114.437 775.423,-97.9554 816.856,-87.8317"/>
<polygon fill="midnightblue" stroke="midnightblue" points="817.913,-91.1763 826.797,-85.4026 816.252,-84.3763 817.913,-91.1763"/>
</g>
<!-- Node8&#45;&gt;Node10 -->
<g id="edge11" class="edge"><title>Node8&#45;&gt;Node10</title>
<path fill="none" stroke="midnightblue" d="M681.437,-124.444C745.038,-113.436 853.906,-94.5932 909.35,-84.9972"/>
<polygon fill="midnightblue" stroke="midnightblue" points="910.121,-88.4158 919.377,-83.2616 908.927,-81.5184 910.121,-88.4158"/>
</g>
<!-- Node8&#45;&gt;Node11 -->
<g id="edge12" class="edge"><title>Node8&#45;&gt;Node11</title>
<path fill="none" stroke="midnightblue" d="M573.354,-125.56C491.775,-115.016 351.481,-96.1082 329,-88 312.867,-82.1814 312.13,-73.8255 296,-68 194.14,-31.2132 158.674,-63.3117 55,-32 52.7203,-31.3115 50.3963,-30.487 48.0939,-29.5835"/>
<polygon fill="midnightblue" stroke="midnightblue" points="49.4836,-26.3712 38.919,-25.5713 46.6789,-32.7848 49.4836,-26.3712"/>
</g>
<!-- Node12 -->
<g id="node12" class="node"><title>Node12</title>
<polygon fill="none" stroke="#bfbfbf" points="593,-68.5 593,-87.5 649,-87.5 649,-68.5 593,-68.5"/>
<text text-anchor="middle" x="621" y="-75.5" font-family="Helvetica,sans-Serif" font-size="10.00">algorithm</text>
</g>
<!-- Node8&#45;&gt;Node12 -->
<g id="edge13" class="edge"><title>Node8&#45;&gt;Node12</title>
<path fill="none" stroke="midnightblue" d="M630.184,-124.083C628.726,-116.927 626.629,-106.635 624.807,-97.6911"/>
<polygon fill="midnightblue" stroke="midnightblue" points="628.208,-96.8512 622.783,-87.7511 621.349,-98.2485 628.208,-96.8512"/>
</g>
<!-- Node13 -->
<g id="node13" class="node"><title>Node13</title>
<polygon fill="none" stroke="#bfbfbf" points="667.5,-68.5 667.5,-87.5 726.5,-87.5 726.5,-68.5 667.5,-68.5"/>
<text text-anchor="middle" x="697" y="-75.5" font-family="Helvetica,sans-Serif" font-size="10.00">stdexcept</text>
</g>
<!-- Node8&#45;&gt;Node13 -->
<g id="edge14" class="edge"><title>Node8&#45;&gt;Node13</title>
<path fill="none" stroke="midnightblue" d="M642.443,-124.324C652.146,-116.263 666.815,-104.077 678.5,-94.3695"/>
<polygon fill="midnightblue" stroke="midnightblue" points="680.911,-96.9163 686.367,-87.8339 676.438,-91.532 680.911,-96.9163"/>
</g>
<!-- Node14 -->
<g id="node14" class="node"><title>Node14</title>
<polygon fill="none" stroke="#bfbfbf" points="64.5,-6.5 64.5,-25.5 105.5,-25.5 105.5,-6.5 64.5,-6.5"/>
<text text-anchor="middle" x="85" y="-13.5" font-family="Helvetica,sans-Serif" font-size="10.00">string</text>
</g>
<!-- Node8&#45;&gt;Node14 -->
<g id="edge15" class="edge"><title>Node8&#45;&gt;Node14</title>
<path fill="none" stroke="midnightblue" d="M573.393,-124.694C508.622,-115.189 408.614,-99.4612 372,-88 351.885,-81.7035 349.129,-74.249 329,-68 236.889,-39.4049 206.697,-61.8953 115,-32 113.09,-31.3773 111.15,-30.65 109.223,-29.8576"/>
<polygon fill="midnightblue" stroke="midnightblue" points="110.435,-26.5622 99.8903,-25.5362 107.494,-32.9142 110.435,-26.5622"/>
</g>
<!-- Node15 -->
<g id="node15" class="node"><title>Node15</title>
<g id="a_node15"><a xlink:href="../../dc/d03/MemoryResources_8h.html" target="_top" xlink:title="MemoryResources/MemoryResources.h">
<polygon fill="none" stroke="black" points="381.5,-68.5 381.5,-87.5 574.5,-87.5 574.5,-68.5 381.5,-68.5"/>
<text text-anchor="middle" x="478" y="-75.5" font-family="Helvetica,sans-Serif" font-size="10.00">MemoryResources/MemoryResources.h</text>
</a>
</g>
</g>
<!-- Node8&#45;&gt;Node15 -->
<g id="edge16" class="edge"><title>Node8&#45;&gt;Node15</title>
<path fill="none" stroke="midnightblue" d="M607.598,-124.444C581.803,-115.399 540.923,-101.064 511.982,-90.9158"/>
<polygon fill="midnightblue" stroke="midnightblue" points="512.882,-87.5226 502.288,-87.5164 510.566,-94.1283 512.882,-87.5226"/>
</g>
<!-- Node15&#45;&gt;Node5 -->
<g id="edge25" class="edge"><title>Node15&#45;&gt;Node5</title>
<path fill="none" stroke="midnightblue" d="M574.755,-68.6808C577.872,-68.446 580.96,-68.2184 584,-68 719.885,-58.2363 1063.95,-65.5132 1196,-32 1198.5,-31.3661 1201.04,-30.5364 1203.54,-29.5923"/>
<polygon fill="midnightblue" stroke="midnightblue" points="1205.04,-32.7548 1212.82,-25.5559 1202.25,-26.3359 1205.04,-32.7548"/>
</g>
<!-- Node15&#45;&gt;Node11 -->
<g id="edge21" class="edge"><title>Node15&#45;&gt;Node11</title>
<path fill="none" stroke="midnightblue" d="M381.234,-70.4405C275.823,-62.6336 114.308,-48.5519 55,-32 52.6564,-31.3459 50.271,-30.5346 47.913,-29.6303"/>
<polygon fill="midnightblue" stroke="midnightblue" points="49.1173,-26.3374 38.5513,-25.5554 46.3235,-32.7557 49.1173,-26.3374"/>
</g>
<!-- Node15&#45;&gt;Node14 -->
<g id="edge22" class="edge"><title>Node15&#45;&gt;Node14</title>
<path fill="none" stroke="midnightblue" d="M381.108,-68.7254C290.846,-60.3401 163.174,-46.5593 115,-32 113.035,-31.4062 111.043,-30.6915 109.067,-29.9005"/>
<polygon fill="midnightblue" stroke="midnightblue" points="110.089,-26.5177 99.5413,-25.5156 107.162,-32.8764 110.089,-26.5177"/>
</g>
<!-- Node16 -->
<g id="node16" class="node"><title>Node16</title>
<polygon fill="none" stroke="#bfbfbf" points="628,-1 628,-31 728,-31 728,-1 628,-1"/>
<text text-anchor="start" x="636" y="-19" font-family="Helvetica,sans-Serif" font-size="10.00">boost/container/flat</text>
<text text-anchor="middle" x="678" y="-8" font-family="Helvetica,sans-Serif" font-size="10.00">_map.hpp</text>
</g>
<!-- Node15&#45;&gt;Node16 -->
<g id="edge17" class="edge"><title>Node15&#45;&gt;Node16</title>
<path fill="none" stroke="midnightblue" d="M506.655,-68.4035C536.5,-59.4501 584.034,-45.1897 621.474,-33.9579"/>
<polygon fill="midnightblue" stroke="midnightblue" points="622.676,-37.2513 631.249,-31.0253 620.665,-30.5465 622.676,-37.2513"/>
</g>
<!-- Node17 -->
<g id="node17" class="node"><title>Node17</title>
<polygon fill="none" stroke="#bfbfbf" points="746,-1 746,-31 862,-31 862,-1 746,-1"/>
<text text-anchor="start" x="754" y="-19" font-family="Helvetica,sans-Serif" font-size="10.00">boost/container/pmr</text>
<text text-anchor="middle" x="804" y="-8" font-family="Helvetica,sans-Serif" font-size="10.00">/memory_resource.hpp</text>
</g>
<!-- Node15&#45;&gt;Node17 -->
<g id="edge18" class="edge"><title>Node15&#45;&gt;Node17</title>
<path fill="none" stroke="midnightblue" d="M531.712,-68.4435C582.039,-60.2511 659.59,-47.18 736.12,-32.1229"/>
<polygon fill="midnightblue" stroke="midnightblue" points="736.802,-35.5559 745.932,-30.1802 735.442,-28.6892 736.802,-35.5559"/>
</g>
<!-- Node18 -->
<g id="node18" class="node"><title>Node18</title>
<polygon fill="none" stroke="#bfbfbf" points="880,-1 880,-31 1036,-31 1036,-1 880,-1"/>
<text text-anchor="start" x="888" y="-19" font-family="Helvetica,sans-Serif" font-size="10.00">boost/container/pmr</text>
<text text-anchor="middle" x="958" y="-8" font-family="Helvetica,sans-Serif" font-size="10.00">/monotonic_buffer_resource.hpp</text>
</g>
<!-- Node15&#45;&gt;Node18 -->
<g id="edge19" class="edge"><title>Node15&#45;&gt;Node18</title>
<path fill="none" stroke="midnightblue" d="M564.204,-68.4694C641.414,-60.5146 757.981,-47.7327 869.722,-31.9866"/>
<polygon fill="midnightblue" stroke="midnightblue" points="870.416,-35.4233 879.825,-30.5529 869.432,-28.4928 870.416,-35.4233"/>
</g>
<!-- Node19 -->
<g id="node19" class="node"><title>Node19</title>
<polygon fill="none" stroke="#bfbfbf" points="1054.5,-1 1054.5,-31 1187.5,-31 1187.5,-1 1054.5,-1"/>
<text text-anchor="start" x="1062.5" y="-19" font-family="Helvetica,sans-Serif" font-size="10.00">boost/container/pmr</text>
<text text-anchor="middle" x="1121" y="-8" font-family="Helvetica,sans-Serif" font-size="10.00">/polymorphic_allocator.hpp</text>
</g>
<!-- Node15&#45;&gt;Node19 -->
<g id="edge20" class="edge"><title>Node15&#45;&gt;Node19</title>
<path fill="none" stroke="midnightblue" d="M574.761,-68.7573C577.877,-68.5005 580.963,-68.2475 584,-68 785.533,-51.5756 839.663,-59.673 1044.18,-32.0018"/>
<polygon fill="midnightblue" stroke="midnightblue" points="1044.91,-35.4339 1054.35,-30.6132 1043.96,-28.4983 1044.91,-35.4339"/>
</g>
<!-- Node20 -->
<g id="node20" class="node"><title>Node20</title>
<polygon fill="none" stroke="#bfbfbf" points="124,-6.5 124,-25.5 186,-25.5 186,-6.5 124,-6.5"/>
<text text-anchor="middle" x="155" y="-13.5" font-family="Helvetica,sans-Serif" font-size="10.00">type_traits</text>
</g>
<!-- Node15&#45;&gt;Node20 -->
<g id="edge23" class="edge"><title>Node15&#45;&gt;Node20</title>
<path fill="none" stroke="midnightblue" d="M396.899,-68.4971C339.825,-61.4505 261.979,-49.691 195,-32 191.773,-31.1477 188.445,-30.1316 185.15,-29.0355"/>
<polygon fill="midnightblue" stroke="midnightblue" points="186.098,-25.6577 175.504,-25.5915 183.745,-32.2501 186.098,-25.6577"/>
</g>
<!-- Node21 -->
<g id="node21" class="node"><title>Node21</title>
<polygon fill="none" stroke="#bfbfbf" points="204,-6.5 204,-25.5 244,-25.5 244,-6.5 204,-6.5"/>
<text text-anchor="middle" x="224" y="-13.5" font-family="Helvetica,sans-Serif" font-size="10.00">utility</text>
</g>
<!-- Node15&#45;&gt;Node21 -->
<g id="edge24" class="edge"><title>Node15&#45;&gt;Node21</title>
<path fill="none" stroke="midnightblue" d="M409.732,-68.4277C364.429,-61.5124 304.123,-49.933 253,-32 251.345,-31.4195 249.667,-30.7603 247.995,-30.0498"/>
<polygon fill="midnightblue" stroke="midnightblue" points="249.227,-26.76 238.695,-25.6117 246.212,-33.0774 249.227,-26.76"/>
</g>
<!-- Node22 -->
<g id="node22" class="node"><title>Node22</title>
<polygon fill="none" stroke="#bfbfbf" points="262.5,-6.5 262.5,-25.5 345.5,-25.5 345.5,-6.5 262.5,-6.5"/>
<text text-anchor="middle" x="304" y="-13.5" font-family="Helvetica,sans-Serif" font-size="10.00">unordered_map</text>
</g>
<!-- Node15&#45;&gt;Node22 -->
<g id="edge26" class="edge"><title>Node15&#45;&gt;Node22</title>
<path fill="none" stroke="midnightblue" d="M453.07,-68.4035C422.964,-58.0222 372.168,-40.5062 338.362,-28.849"/>
<polygon fill="midnightblue" stroke="midnightblue" points="339.478,-25.5318 328.884,-25.5806 337.196,-32.1494 339.478,-25.5318"/>
</g>
<!-- Node23 -->
<g id="node23" class="node"><title>Node23</title>
<polygon fill="none" stroke="#bfbfbf" points="363.5,-6.5 363.5,-25.5 460.5,-25.5 460.5,-6.5 363.5,-6.5"/>
<text text-anchor="middle" x="412" y="-13.5" font-family="Helvetica,sans-Serif" font-size="10.00">FairMQMessage.h</text>
</g>
<!-- Node15&#45;&gt;Node23 -->
<g id="edge27" class="edge"><title>Node15&#45;&gt;Node23</title>
<path fill="none" stroke="midnightblue" d="M468.544,-68.4035C458.252,-59.047 441.584,-43.8948 429.006,-32.4599"/>
<polygon fill="midnightblue" stroke="midnightblue" points="431.192,-29.7176 421.439,-25.5806 426.484,-34.8971 431.192,-29.7176"/>
</g>
<!-- Node24 -->
<g id="node24" class="node"><title>Node24</title>
<polygon fill="none" stroke="#bfbfbf" points="478.5,-6.5 478.5,-25.5 609.5,-25.5 609.5,-6.5 478.5,-6.5"/>
<text text-anchor="middle" x="544" y="-13.5" font-family="Helvetica,sans-Serif" font-size="10.00">FairMQTransportFactory.h</text>
</g>
<!-- Node15&#45;&gt;Node24 -->
<g id="edge28" class="edge"><title>Node15&#45;&gt;Node24</title>
<path fill="none" stroke="midnightblue" d="M487.456,-68.4035C497.748,-59.047 514.416,-43.8948 526.994,-32.4599"/>
<polygon fill="midnightblue" stroke="midnightblue" points="529.516,-34.8971 534.561,-25.5806 524.808,-29.7176 529.516,-34.8971"/>
</g>
<!-- Node25&#45;&gt;Node5 -->
<g id="edge33" class="edge"><title>Node25&#45;&gt;Node5</title>
<path fill="none" stroke="midnightblue" d="M848.156,-180.484C886.125,-159.387 988.754,-103.817 1079,-68 1129.57,-47.9304 1145.24,-51.5937 1196,-32 1197.85,-31.2874 1199.73,-30.5163 1201.63,-29.7127"/>
<polygon fill="midnightblue" stroke="midnightblue" points="1203.23,-32.8304 1210.92,-25.5449 1200.36,-26.4432 1203.23,-32.8304"/>
</g>
<!-- Node25&#45;&gt;Node8 -->
<g id="edge30" class="edge"><title>Node25&#45;&gt;Node8</title>
<path fill="none" stroke="midnightblue" d="M801.151,-180.444C766.602,-171.162 711.318,-156.309 673.417,-146.127"/>
<polygon fill="midnightblue" stroke="midnightblue" points="674.266,-142.731 663.7,-143.516 672.449,-149.491 674.266,-142.731"/>
</g>
<!-- Node26 -->
<g id="node26" class="node"><title>Node26</title>
<polygon fill="none" stroke="#bfbfbf" points="777.5,-124.5 777.5,-143.5 836.5,-143.5 836.5,-124.5 777.5,-124.5"/>
<text text-anchor="middle" x="807" y="-131.5" font-family="Helvetica,sans-Serif" font-size="10.00">functional</text>
</g>
<!-- Node25&#45;&gt;Node26 -->
<g id="edge31" class="edge"><title>Node25&#45;&gt;Node26</title>
<path fill="none" stroke="midnightblue" d="M828.707,-180.083C825.148,-172.691 819.978,-161.953 815.576,-152.811"/>
<polygon fill="midnightblue" stroke="midnightblue" points="818.705,-151.243 811.213,-143.751 812.398,-154.279 818.705,-151.243"/>
</g>
<!-- Node27 -->
<g id="node27" class="node"><title>Node27</title>
<polygon fill="none" stroke="#bfbfbf" points="854.5,-124.5 854.5,-143.5 889.5,-143.5 889.5,-124.5 854.5,-124.5"/>
<text text-anchor="middle" x="872" y="-131.5" font-family="Helvetica,sans-Serif" font-size="10.00">map</text>
</g>
<!-- Node25&#45;&gt;Node27 -->
<g id="edge32" class="edge"><title>Node25&#45;&gt;Node27</title>
<path fill="none" stroke="midnightblue" d="M839.44,-180.083C844.949,-172.455 853.031,-161.264 859.765,-151.941"/>
<polygon fill="midnightblue" stroke="midnightblue" points="862.662,-153.907 865.68,-143.751 856.987,-149.809 862.662,-153.907"/>
</g>
<!-- Node29 -->
<g id="node29" class="node"><title>Node29</title>
<polygon fill="none" stroke="#bfbfbf" points="1254.5,-124.5 1254.5,-143.5 1299.5,-143.5 1299.5,-124.5 1254.5,-124.5"/>
<text text-anchor="middle" x="1277" y="-131.5" font-family="Helvetica,sans-Serif" font-size="10.00">climits</text>
</g>
<!-- Node28&#45;&gt;Node29 -->
<g id="edge36" class="edge"><title>Node28&#45;&gt;Node29</title>
<path fill="none" stroke="midnightblue" d="M1225.8,-180.324C1234.82,-172.341 1248.41,-160.313 1259.32,-150.653"/>
<polygon fill="midnightblue" stroke="midnightblue" points="1261.85,-153.083 1267.02,-143.834 1257.21,-147.842 1261.85,-153.083"/>
</g>
<!-- Node30&#45;&gt;Node5 -->
<g id="edge39" class="edge"><title>Node30&#45;&gt;Node5</title>
<path fill="none" stroke="midnightblue" d="M1093.75,-236.254C1096.53,-223.45 1102.59,-199.057 1112,-180 1140.84,-121.573 1189.7,-61.2475 1213.76,-33.1802"/>
<polygon fill="midnightblue" stroke="midnightblue" points="1216.47,-35.3922 1220.37,-25.5431 1211.18,-30.8076 1216.47,-35.3922"/>
</g>
<!-- Node30&#45;&gt;Node28 -->
<g id="edge38" class="edge"><title>Node30&#45;&gt;Node28</title>
<path fill="none" stroke="midnightblue" d="M1111.65,-236.444C1131.96,-227.596 1163.9,-213.687 1187.1,-203.586"/>
<polygon fill="midnightblue" stroke="midnightblue" points="1188.67,-206.718 1196.44,-199.516 1185.88,-200.3 1188.67,-206.718"/>
</g>
<!-- Node31&#45;&gt;Node28 -->
<g id="edge44" class="edge"><title>Node31&#45;&gt;Node28</title>
<path fill="none" stroke="midnightblue" d="M1324.56,-236.444C1303.33,-227.557 1269.9,-213.563 1245.75,-203.451"/>
<polygon fill="midnightblue" stroke="midnightblue" points="1246.92,-200.149 1236.34,-199.516 1244.22,-206.606 1246.92,-200.149"/>
</g>
<!-- Node31&#45;&gt;Node29 -->
<g id="edge41" class="edge"><title>Node31&#45;&gt;Node29</title>
<path fill="none" stroke="midnightblue" d="M1342.78,-236.075C1339.28,-223.049 1331.65,-198.382 1320,-180 1313.16,-169.21 1303.47,-158.789 1295.02,-150.698"/>
<polygon fill="midnightblue" stroke="midnightblue" points="1297.16,-147.911 1287.43,-143.717 1292.42,-153.063 1297.16,-147.911"/>
</g>
<!-- Node32 -->
<g id="node32" class="node"><title>Node32</title>
<polygon fill="none" stroke="#bfbfbf" points="1367,-180.5 1367,-199.5 1423,-199.5 1423,-180.5 1367,-180.5"/>
<text text-anchor="middle" x="1395" y="-187.5" font-family="Helvetica,sans-Serif" font-size="10.00">sys/ipc.h</text>
</g>
<!-- Node31&#45;&gt;Node32 -->
<g id="edge42" class="edge"><title>Node31&#45;&gt;Node32</title>
<path fill="none" stroke="midnightblue" d="M1353.26,-236.083C1360.46,-228.298 1371.11,-216.801 1379.85,-207.367"/>
<polygon fill="midnightblue" stroke="midnightblue" points="1382.67,-209.467 1386.9,-199.751 1377.53,-204.711 1382.67,-209.467"/>
</g>
<!-- Node33 -->
<g id="node33" class="node"><title>Node33</title>
<polygon fill="none" stroke="#bfbfbf" points="1441,-180.5 1441,-199.5 1503,-199.5 1503,-180.5 1441,-180.5"/>
<text text-anchor="middle" x="1472" y="-187.5" font-family="Helvetica,sans-Serif" font-size="10.00">sys/shm.h</text>
</g>
<!-- Node31&#45;&gt;Node33 -->
<g id="edge43" class="edge"><title>Node31&#45;&gt;Node33</title>
<path fill="none" stroke="midnightblue" d="M1365.12,-236.444C1386.02,-227.557 1418.93,-213.563 1442.72,-203.451"/>
<polygon fill="midnightblue" stroke="midnightblue" points="1444.14,-206.65 1451.97,-199.516 1441.4,-200.208 1444.14,-206.65"/>
</g>
</g>
</svg>
