<?xml version="1.0" encoding="UTF-8" standalone="no"?>
<!DOCTYPE svg PUBLIC "-//W3C//DTD SVG 1.1//EN"
 "http://www.w3.org/Graphics/SVG/1.1/DTD/svg11.dtd">
<!-- Generated by graphviz version 2.36.0 (20140111.2315)
 -->
<!-- Title: /home/travis/build/AliceO2Group/AliceO2/Utilities/DataFlow/src/runTimeframeValidatorDevice.cxx Pages: 1 -->
<!--zoomable 422 -->
<svg id="main" version="1.1" xmlns="http://www.w3.org/2000/svg" xmlns:xlink="http://www.w3.org/1999/xlink" xml:space="preserve" onload="init(evt)">
<style type="text/css"><![CDATA[
.edge:hover path { stroke: red; }
.edge:hover polygon { stroke: red; fill: red; }
]]></style>
<script type="text/javascript"><![CDATA[
var edges = document.getElementsByTagName('g');
if (edges && edges.length) {
  for (var i=0;i<edges.length;i++) {
    if (edges[i].id.substr(0,4)=='edge') {
      edges[i].setAttribute('class','edge');
    }
  }
}
]]></script>
        <defs>
                <circle id="rim" cx="0" cy="0" r="7"/>
                <circle id="rim2" cx="0" cy="0" r="3.5"/>
                <g id="zoomPlus">
                        <use xlink:href="#rim" fill="#404040">
                                <set attributeName="fill" to="#808080" begin="zoomplus.mouseover" end="zoomplus.mouseout"/>
                        </use>
                        <path d="M-4,0h8M0,-4v8" fill="none" stroke="white" stroke-width="1.5" pointer-events="none"/>
                </g>
                <g id="zoomMin">
                        <use xlink:href="#rim" fill="#404040">
                                <set attributeName="fill" to="#808080" begin="zoomminus.mouseover" end="zoomminus.mouseout"/>
                        </use>
                        <path d="M-4,0h8" fill="none" stroke="white" stroke-width="1.5" pointer-events="none"/>
                </g>
                <g id="dirArrow">
                        <path fill="none" stroke="white" stroke-width="1.5" d="M0,-3.0v7 M-2.5,-0.5L0,-3.0L2.5,-0.5"/>
                </g>
               <g id="resetDef">
                       <use xlink:href="#rim2" fill="#404040">
                               <set attributeName="fill" to="#808080" begin="reset.mouseover" end="reset.mouseout"/>
                       </use>
               </g>
        </defs>

<script type="text/javascript">
var viewWidth = 1289;
var viewHeight = 422;
var sectionId = 'dynsection-0';
</script>
<script xlink:href="../../svgpan.js"/>
<svg id="graph" class="graph">
<g id="viewport">
<title>/home/travis/build/AliceO2Group/AliceO2/Utilities/DataFlow/src/runTimeframeValidatorDevice.cxx</title>
<!-- Node1 -->
<g id="node1" class="node"><title>Node1</title>
<polygon fill="#bfbfbf" stroke="black" points="832.5,-361 832.5,-413 999.5,-413 999.5,-361 832.5,-361"/>
<text text-anchor="start" x="840.5" y="-401" font-family="Helvetica,sans-Serif" font-size="10.00">/home/travis/build</text>
<text text-anchor="start" x="840.5" y="-390" font-family="Helvetica,sans-Serif" font-size="10.00">/AliceO2Group/AliceO2</text>
<text text-anchor="start" x="840.5" y="-379" font-family="Helvetica,sans-Serif" font-size="10.00">/Utilities/DataFlow/src</text>
<text text-anchor="middle" x="916" y="-368" font-family="Helvetica,sans-Serif" font-size="10.00">/runTimeframeValidatorDevice.cxx</text>
</g>
<!-- Node2 -->
<g id="node2" class="node"><title>Node2</title>
<polygon fill="none" stroke="#bfbfbf" points="794.5,-298.5 794.5,-317.5 895.5,-317.5 895.5,-298.5 794.5,-298.5"/>
<text text-anchor="middle" x="845" y="-305.5" font-family="Helvetica,sans-Serif" font-size="10.00">runFairMQDevice.h</text>
</g>
<!-- Node1&#45;&gt;Node2 -->
<g id="edge1" class="edge"><title>Node1&#45;&gt;Node2</title>
<path fill="none" stroke="midnightblue" d="M892.752,-360.787C881.902,-349.02 869.312,-335.366 859.784,-325.033"/>
<polygon fill="midnightblue" stroke="midnightblue" points="862.243,-322.537 852.891,-317.558 857.097,-327.282 862.243,-322.537"/>
</g>
<!-- Node3 -->
<g id="node3" class="node"><title>Node3</title>
<g id="a_node3"><a xlink:href="../../d3/da5/TimeframeValidatorDevice_8h.html" target="_top" xlink:title="DataFlow/TimeframeValidator\lDevice.h">
<polygon fill="none" stroke="black" points="914,-293 914,-323 1060,-323 1060,-293 914,-293"/>
<text text-anchor="start" x="922" y="-311" font-family="Helvetica,sans-Serif" font-size="10.00">DataFlow/TimeframeValidator</text>
<text text-anchor="middle" x="987" y="-300" font-family="Helvetica,sans-Serif" font-size="10.00">Device.h</text>
</a>
</g>
</g>
<!-- Node1&#45;&gt;Node3 -->
<g id="edge2" class="edge"><title>Node1&#45;&gt;Node3</title>
<path fill="none" stroke="midnightblue" d="M939.248,-360.787C948.221,-351.056 958.385,-340.033 967.022,-330.666"/>
<polygon fill="midnightblue" stroke="midnightblue" points="969.653,-332.976 973.859,-323.252 964.507,-328.231 969.653,-332.976"/>
</g>
<!-- Node4 -->
<g id="node4" class="node"><title>Node4</title>
<g id="a_node4"><a xlink:href="../../d2/dee/O2Device_8h.html" target="_top" xlink:title="O2Device/O2Device.h">
<polygon fill="none" stroke="black" points="929.5,-236.5 929.5,-255.5 1044.5,-255.5 1044.5,-236.5 929.5,-236.5"/>
<text text-anchor="middle" x="987" y="-243.5" font-family="Helvetica,sans-Serif" font-size="10.00">O2Device/O2Device.h</text>
</a>
</g>
</g>
<!-- Node3&#45;&gt;Node4 -->
<g id="edge3" class="edge"><title>Node3&#45;&gt;Node4</title>
<path fill="none" stroke="midnightblue" d="M987,-292.781C987,-284.781 987,-274.689 987,-266.017"/>
<polygon fill="midnightblue" stroke="midnightblue" points="990.5,-265.73 987,-255.731 983.5,-265.731 990.5,-265.73"/>
</g>
<!-- Node5 -->
<g id="node5" class="node"><title>Node5</title>
<polygon fill="none" stroke="#bfbfbf" points="665,-180.5 665,-199.5 753,-199.5 753,-180.5 665,-180.5"/>
<text text-anchor="middle" x="709" y="-187.5" font-family="Helvetica,sans-Serif" font-size="10.00">FairMQDevice.h</text>
</g>
<!-- Node4&#45;&gt;Node5 -->
<g id="edge4" class="edge"><title>Node4&#45;&gt;Node5</title>
<path fill="none" stroke="midnightblue" d="M942.95,-236.444C894.149,-226.964 815.437,-211.675 762.97,-201.483"/>
<polygon fill="midnightblue" stroke="midnightblue" points="763.328,-197.988 752.844,-199.516 761.993,-204.859 763.328,-197.988"/>
</g>
<!-- Node6 -->
<g id="node6" class="node"><title>Node6</title>
<polygon fill="none" stroke="#bfbfbf" points="771,-180.5 771,-199.5 917,-199.5 917,-180.5 771,-180.5"/>
<text text-anchor="middle" x="844" y="-187.5" font-family="Helvetica,sans-Serif" font-size="10.00">options/FairMQProgOptions.h</text>
</g>
<!-- Node4&#45;&gt;Node6 -->
<g id="edge5" class="edge"><title>Node4&#45;&gt;Node6</title>
<path fill="none" stroke="midnightblue" d="M964.341,-236.444C940.598,-227.478 903.091,-213.314 876.262,-203.183"/>
<polygon fill="midnightblue" stroke="midnightblue" points="877.144,-199.775 866.553,-199.516 874.671,-206.324 877.144,-199.775"/>
</g>
<!-- Node7 -->
<g id="node7" class="node"><title>Node7</title>
<g id="a_node7"><a xlink:href="../../d7/db2/Utilities_8h.html" target="_top" xlink:title="O2Device/Utilities.h">
<polygon fill="none" stroke="black" points="935,-180.5 935,-199.5 1039,-199.5 1039,-180.5 935,-180.5"/>
<text text-anchor="middle" x="987" y="-187.5" font-family="Helvetica,sans-Serif" font-size="10.00">O2Device/Utilities.h</text>
</a>
</g>
</g>
<!-- Node4&#45;&gt;Node7 -->
<g id="edge6" class="edge"><title>Node4&#45;&gt;Node7</title>
<path fill="none" stroke="midnightblue" d="M987,-236.083C987,-229.006 987,-218.861 987,-209.986"/>
<polygon fill="midnightblue" stroke="midnightblue" points="990.5,-209.751 987,-199.751 983.5,-209.751 990.5,-209.751"/>
</g>
<!-- Node26 -->
<g id="node26" class="node"><title>Node26</title>
<polygon fill="none" stroke="#bfbfbf" points="1205.5,-68.5 1205.5,-87.5 1264.5,-87.5 1264.5,-68.5 1205.5,-68.5"/>
<text text-anchor="middle" x="1235" y="-75.5" font-family="Helvetica,sans-Serif" font-size="10.00">stdexcept</text>
</g>
<!-- Node4&#45;&gt;Node26 -->
<g id="edge32" class="edge"><title>Node4&#45;&gt;Node26</title>
<path fill="none" stroke="midnightblue" d="M999.984,-236.309C1040.33,-209.304 1163.79,-126.667 1213.71,-93.2479"/>
<polygon fill="midnightblue" stroke="midnightblue" points="1215.78,-96.0762 1222.14,-87.6051 1211.89,-90.2591 1215.78,-96.0762"/>
</g>
<!-- Node28 -->
<g id="node28" class="node"><title>Node28</title>
<polygon fill="none" stroke="#bfbfbf" points="1130.5,-180.5 1130.5,-199.5 1281.5,-199.5 1281.5,-180.5 1130.5,-180.5"/>
<text text-anchor="middle" x="1206" y="-187.5" font-family="Helvetica,sans-Serif" font-size="10.00">Monitoring/MonitoringFactory.h</text>
</g>
<!-- Node4&#45;&gt;Node28 -->
<g id="edge31" class="edge"><title>Node4&#45;&gt;Node28</title>
<path fill="none" stroke="midnightblue" d="M1021.7,-236.444C1059.58,-227.102 1120.35,-212.119 1161.66,-201.933"/>
<polygon fill="midnightblue" stroke="midnightblue" points="1162.59,-205.309 1171.46,-199.516 1160.91,-198.512 1162.59,-205.309"/>
</g>
<!-- Node8 -->
<g id="node8" class="node"><title>Node8</title>
<g id="a_node8"><a xlink:href="../../dc/d03/MemoryResources_8h.html" target="_top" xlink:title="MemoryResources/MemoryResources.h">
<polygon fill="none" stroke="black" points="641.5,-68.5 641.5,-87.5 834.5,-87.5 834.5,-68.5 641.5,-68.5"/>
<text text-anchor="middle" x="738" y="-75.5" font-family="Helvetica,sans-Serif" font-size="10.00">MemoryResources/MemoryResources.h</text>
</a>
</g>
</g>
<!-- Node7&#45;&gt;Node8 -->
<g id="edge7" class="edge"><title>Node7&#45;&gt;Node8</title>
<path fill="none" stroke="midnightblue" d="M967.444,-180.378C946.91,-171.324 913.682,-156.668 885,-144 843.95,-125.869 796.463,-104.866 766.827,-91.7552"/>
<polygon fill="midnightblue" stroke="midnightblue" points="768.057,-88.4721 757.496,-87.6269 765.225,-94.8736 768.057,-88.4721"/>
</g>
<!-- Node16 -->
<g id="node16" class="node"><title>Node16</title>
<polygon fill="none" stroke="#bfbfbf" points="0,-6.5 0,-25.5 40,-25.5 40,-6.5 0,-6.5"/>
<text text-anchor="middle" x="20" y="-13.5" font-family="Helvetica,sans-Serif" font-size="10.00">utility</text>
</g>
<!-- Node7&#45;&gt;Node16 -->
<g id="edge29" class="edge"><title>Node7&#45;&gt;Node16</title>
<path fill="none" stroke="midnightblue" d="M934.88,-181.246C750.283,-153.649 134.079,-60.3449 49,-32 47.1447,-31.3819 45.2627,-30.6579 43.395,-29.8679"/>
<polygon fill="midnightblue" stroke="midnightblue" points="44.8962,-26.7062 34.3645,-25.5512 41.8773,-33.0218 44.8962,-26.7062"/>
</g>
<!-- Node21 -->
<g id="node21" class="node"><title>Node21</title>
<g id="a_node21"><a xlink:href="../../dc/dcd/DataHeader_8h.html" target="_top" xlink:title="Headers/DataHeader.h">
<polygon fill="none" stroke="black" points="893.5,-124.5 893.5,-143.5 1010.5,-143.5 1010.5,-124.5 893.5,-124.5"/>
<text text-anchor="middle" x="952" y="-131.5" font-family="Helvetica,sans-Serif" font-size="10.00">Headers/DataHeader.h</text>
</a>
</g>
</g>
<!-- Node7&#45;&gt;Node21 -->
<g id="edge20" class="edge"><title>Node7&#45;&gt;Node21</title>
<path fill="none" stroke="midnightblue" d="M981.22,-180.083C976.328,-172.534 969.173,-161.495 963.167,-152.23"/>
<polygon fill="midnightblue" stroke="midnightblue" points="966.048,-150.239 957.672,-143.751 960.174,-154.046 966.048,-150.239"/>
</g>
<!-- Node27 -->
<g id="node27" class="node"><title>Node27</title>
<polygon fill="none" stroke="#bfbfbf" points="1028.5,-124.5 1028.5,-143.5 1073.5,-143.5 1073.5,-124.5 1028.5,-124.5"/>
<text text-anchor="middle" x="1051" y="-131.5" font-family="Helvetica,sans-Serif" font-size="10.00">gsl/gsl</text>
</g>
<!-- Node7&#45;&gt;Node27 -->
<g id="edge30" class="edge"><title>Node7&#45;&gt;Node27</title>
<path fill="none" stroke="midnightblue" d="M997.283,-180.324C1006.84,-172.263 1021.28,-160.077 1032.78,-150.369"/>
<polygon fill="midnightblue" stroke="midnightblue" points="1035.14,-152.958 1040.53,-143.834 1030.63,-147.608 1035.14,-152.958"/>
</g>
<!-- Node9 -->
<g id="node9" class="node"><title>Node9</title>
<polygon fill="none" stroke="#bfbfbf" points="58,-1 58,-31 158,-31 158,-1 58,-1"/>
<text text-anchor="start" x="66" y="-19" font-family="Helvetica,sans-Serif" font-size="10.00">boost/container/flat</text>
<text text-anchor="middle" x="108" y="-8" font-family="Helvetica,sans-Serif" font-size="10.00">_map.hpp</text>
</g>
<!-- Node8&#45;&gt;Node9 -->
<g id="edge8" class="edge"><title>Node8&#45;&gt;Node9</title>
<path fill="none" stroke="midnightblue" d="M641.417,-74.3987C529.553,-70.2542 339.712,-59.7346 168.064,-31.988"/>
<polygon fill="midnightblue" stroke="midnightblue" points="168.524,-28.5167 158.089,-30.3526 167.391,-35.4245 168.524,-28.5167"/>
</g>
<!-- Node10 -->
<g id="node10" class="node"><title>Node10</title>
<polygon fill="none" stroke="#bfbfbf" points="176,-1 176,-31 292,-31 292,-1 176,-1"/>
<text text-anchor="start" x="184" y="-19" font-family="Helvetica,sans-Serif" font-size="10.00">boost/container/pmr</text>
<text text-anchor="middle" x="234" y="-8" font-family="Helvetica,sans-Serif" font-size="10.00">/memory_resource.hpp</text>
</g>
<!-- Node8&#45;&gt;Node10 -->
<g id="edge9" class="edge"><title>Node8&#45;&gt;Node10</title>
<path fill="none" stroke="midnightblue" d="M641.234,-70.3195C554.737,-63.5913 424.396,-51.5936 301.953,-32.0345"/>
<polygon fill="midnightblue" stroke="midnightblue" points="302.454,-28.5702 292.023,-30.4288 301.336,-35.4804 302.454,-28.5702"/>
</g>
<!-- Node11 -->
<g id="node11" class="node"><title>Node11</title>
<polygon fill="none" stroke="#bfbfbf" points="310,-1 310,-31 466,-31 466,-1 310,-1"/>
<text text-anchor="start" x="318" y="-19" font-family="Helvetica,sans-Serif" font-size="10.00">boost/container/pmr</text>
<text text-anchor="middle" x="388" y="-8" font-family="Helvetica,sans-Serif" font-size="10.00">/monotonic_buffer_resource.hpp</text>
</g>
<!-- Node8&#45;&gt;Node11 -->
<g id="edge10" class="edge"><title>Node8&#45;&gt;Node11</title>
<path fill="none" stroke="midnightblue" d="M688.225,-68.4672C633.205,-59.0351 543.503,-43.6576 476.454,-32.1635"/>
<polygon fill="midnightblue" stroke="midnightblue" points="476.763,-28.6654 466.315,-30.4254 475.58,-35.5648 476.763,-28.6654"/>
</g>
<!-- Node12 -->
<g id="node12" class="node"><title>Node12</title>
<polygon fill="none" stroke="#bfbfbf" points="484.5,-1 484.5,-31 617.5,-31 617.5,-1 484.5,-1"/>
<text text-anchor="start" x="492.5" y="-19" font-family="Helvetica,sans-Serif" font-size="10.00">boost/container/pmr</text>
<text text-anchor="middle" x="551" y="-8" font-family="Helvetica,sans-Serif" font-size="10.00">/polymorphic_allocator.hpp</text>
</g>
<!-- Node8&#45;&gt;Node12 -->
<g id="edge11" class="edge"><title>Node8&#45;&gt;Node12</title>
<path fill="none" stroke="midnightblue" d="M711.207,-68.4035C683.422,-59.4882 639.236,-45.311 604.3,-34.1014"/>
<polygon fill="midnightblue" stroke="midnightblue" points="605.303,-30.7479 594.712,-31.0253 603.165,-37.4132 605.303,-30.7479"/>
</g>
<!-- Node13 -->
<g id="node13" class="node"><title>Node13</title>
<polygon fill="none" stroke="#bfbfbf" points="1144,-6.5 1144,-25.5 1190,-25.5 1190,-6.5 1144,-6.5"/>
<text text-anchor="middle" x="1167" y="-13.5" font-family="Helvetica,sans-Serif" font-size="10.00">cstring</text>
</g>
<!-- Node8&#45;&gt;Node13 -->
<g id="edge12" class="edge"><title>Node8&#45;&gt;Node13</title>
<path fill="none" stroke="midnightblue" d="M825.86,-68.4849C933.464,-57.8271 1105.07,-40.002 1134,-32 1136.49,-31.3099 1139.04,-30.4545 1141.55,-29.5046"/>
<polygon fill="midnightblue" stroke="midnightblue" points="1143.09,-32.6532 1150.93,-25.5232 1140.36,-26.21 1143.09,-32.6532"/>
</g>
<!-- Node14 -->
<g id="node14" class="node"><title>Node14</title>
<polygon fill="none" stroke="#bfbfbf" points="1208.5,-6.5 1208.5,-25.5 1249.5,-25.5 1249.5,-6.5 1208.5,-6.5"/>
<text text-anchor="middle" x="1229" y="-13.5" font-family="Helvetica,sans-Serif" font-size="10.00">string</text>
</g>
<!-- Node8&#45;&gt;Node14 -->
<g id="edge13" class="edge"><title>Node8&#45;&gt;Node14</title>
<path fill="none" stroke="midnightblue" d="M834.694,-69.4538C959.564,-59.416 1164.98,-41.8014 1199,-32 1200.97,-31.4318 1202.97,-30.7357 1204.95,-29.9576"/>
<polygon fill="midnightblue" stroke="midnightblue" points="1206.84,-32.9398 1214.48,-25.5977 1203.93,-26.5739 1206.84,-32.9398"/>
</g>
<!-- Node15 -->
<g id="node15" class="node"><title>Node15</title>
<polygon fill="none" stroke="#bfbfbf" points="636,-6.5 636,-25.5 698,-25.5 698,-6.5 636,-6.5"/>
<text text-anchor="middle" x="667" y="-13.5" font-family="Helvetica,sans-Serif" font-size="10.00">type_traits</text>
</g>
<!-- Node8&#45;&gt;Node15 -->
<g id="edge14" class="edge"><title>Node8&#45;&gt;Node15</title>
<path fill="none" stroke="midnightblue" d="M727.827,-68.4035C716.65,-58.9579 698.483,-43.6056 684.909,-32.1342"/>
<polygon fill="midnightblue" stroke="midnightblue" points="687.051,-29.3619 677.154,-25.5806 682.533,-34.7085 687.051,-29.3619"/>
</g>
<!-- Node8&#45;&gt;Node16 -->
<g id="edge15" class="edge"><title>Node8&#45;&gt;Node16</title>
<path fill="none" stroke="midnightblue" d="M641.289,-75.5594C478.681,-72.3232 157.632,-62.2148 49,-32 47.034,-31.4532 45.0475,-30.7635 43.0851,-29.982"/>
<polygon fill="midnightblue" stroke="midnightblue" points="44.218,-26.6466 33.6805,-25.5451 41.2312,-32.9774 44.218,-26.6466"/>
</g>
<!-- Node17 -->
<g id="node17" class="node"><title>Node17</title>
<polygon fill="none" stroke="#bfbfbf" points="716,-6.5 716,-25.5 760,-25.5 760,-6.5 716,-6.5"/>
<text text-anchor="middle" x="738" y="-13.5" font-family="Helvetica,sans-Serif" font-size="10.00">vector</text>
</g>
<!-- Node8&#45;&gt;Node17 -->
<g id="edge16" class="edge"><title>Node8&#45;&gt;Node17</title>
<path fill="none" stroke="midnightblue" d="M738,-68.4035C738,-59.9381 738,-46.7283 738,-35.8199"/>
<polygon fill="midnightblue" stroke="midnightblue" points="741.5,-35.5806 738,-25.5806 734.5,-35.5806 741.5,-35.5806"/>
</g>
<!-- Node18 -->
<g id="node18" class="node"><title>Node18</title>
<polygon fill="none" stroke="#bfbfbf" points="778.5,-6.5 778.5,-25.5 861.5,-25.5 861.5,-6.5 778.5,-6.5"/>
<text text-anchor="middle" x="820" y="-13.5" font-family="Helvetica,sans-Serif" font-size="10.00">unordered_map</text>
</g>
<!-- Node8&#45;&gt;Node18 -->
<g id="edge17" class="edge"><title>Node8&#45;&gt;Node18</title>
<path fill="none" stroke="midnightblue" d="M749.749,-68.4035C762.901,-58.7797 784.434,-43.0242 800.198,-31.4891"/>
<polygon fill="midnightblue" stroke="midnightblue" points="802.27,-34.3103 808.273,-25.5806 798.136,-28.6611 802.27,-34.3103"/>
</g>
<!-- Node19 -->
<g id="node19" class="node"><title>Node19</title>
<polygon fill="none" stroke="#bfbfbf" points="879.5,-6.5 879.5,-25.5 976.5,-25.5 976.5,-6.5 879.5,-6.5"/>
<text text-anchor="middle" x="928" y="-13.5" font-family="Helvetica,sans-Serif" font-size="10.00">FairMQMessage.h</text>
</g>
<!-- Node8&#45;&gt;Node19 -->
<g id="edge18" class="edge"><title>Node8&#45;&gt;Node19</title>
<path fill="none" stroke="midnightblue" d="M765.222,-68.4035C798.237,-57.9777 854.04,-40.3557 890.953,-28.6992"/>
<polygon fill="midnightblue" stroke="midnightblue" points="892.346,-31.9295 900.828,-25.5806 890.238,-25.2544 892.346,-31.9295"/>
</g>
<!-- Node20 -->
<g id="node20" class="node"><title>Node20</title>
<polygon fill="none" stroke="#bfbfbf" points="994.5,-6.5 994.5,-25.5 1125.5,-25.5 1125.5,-6.5 994.5,-6.5"/>
<text text-anchor="middle" x="1060" y="-13.5" font-family="Helvetica,sans-Serif" font-size="10.00">FairMQTransportFactory.h</text>
</g>
<!-- Node8&#45;&gt;Node20 -->
<g id="edge19" class="edge"><title>Node8&#45;&gt;Node20</title>
<path fill="none" stroke="midnightblue" d="M786.322,-68.4497C836.147,-59.5738 916.071,-45.1709 985,-32 992.436,-30.5791 1000.28,-29.047 1007.98,-27.5238"/>
<polygon fill="midnightblue" stroke="midnightblue" points="1008.85,-30.9194 1017.98,-25.5367 1007.49,-24.0538 1008.85,-30.9194"/>
</g>
<!-- Node21&#45;&gt;Node8 -->
<g id="edge28" class="edge"><title>Node21&#45;&gt;Node8</title>
<path fill="none" stroke="midnightblue" d="M918.091,-124.444C881.151,-115.122 821.946,-100.183 781.582,-89.9972"/>
<polygon fill="midnightblue" stroke="midnightblue" points="782.303,-86.5695 771.75,-87.5164 780.59,-93.3568 782.303,-86.5695"/>
</g>
<!-- Node21&#45;&gt;Node13 -->
<g id="edge24" class="edge"><title>Node21&#45;&gt;Node13</title>
<path fill="none" stroke="midnightblue" d="M931.972,-124.355C906.669,-112.259 868.522,-89.3658 887,-68 923.284,-26.0444 1080.78,-47.6316 1134,-32 1136.34,-31.3117 1138.74,-30.4873 1141.11,-29.5839"/>
<polygon fill="midnightblue" stroke="midnightblue" points="1142.72,-32.6997 1150.56,-25.5718 1139.99,-26.2557 1142.72,-32.6997"/>
</g>
<!-- Node21&#45;&gt;Node14 -->
<g id="edge27" class="edge"><title>Node21&#45;&gt;Node14</title>
<path fill="none" stroke="midnightblue" d="M941.735,-124.156C927.435,-110.792 904.884,-85.1918 920,-68 961.279,-21.0526 1139.2,-50.2342 1199,-32 1200.92,-31.414 1202.87,-30.7136 1204.8,-29.9401"/>
<polygon fill="midnightblue" stroke="midnightblue" points="1206.52,-33.0054 1214.15,-25.6567 1203.6,-26.6421 1206.52,-33.0054"/>
</g>
<!-- Node22 -->
<g id="node22" class="node"><title>Node22</title>
<polygon fill="none" stroke="#bfbfbf" points="929,-68.5 929,-87.5 975,-87.5 975,-68.5 929,-68.5"/>
<text text-anchor="middle" x="952" y="-75.5" font-family="Helvetica,sans-Serif" font-size="10.00">cstdint</text>
</g>
<!-- Node21&#45;&gt;Node22 -->
<g id="edge21" class="edge"><title>Node21&#45;&gt;Node22</title>
<path fill="none" stroke="midnightblue" d="M952,-124.083C952,-117.006 952,-106.861 952,-97.9865"/>
<polygon fill="midnightblue" stroke="midnightblue" points="955.5,-97.751 952,-87.7511 948.5,-97.7511 955.5,-97.751"/>
</g>
<!-- Node23 -->
<g id="node23" class="node"><title>Node23</title>
<polygon fill="none" stroke="#bfbfbf" points="993,-68.5 993,-87.5 1045,-87.5 1045,-68.5 993,-68.5"/>
<text text-anchor="middle" x="1019" y="-75.5" font-family="Helvetica,sans-Serif" font-size="10.00">memory</text>
</g>
<!-- Node21&#45;&gt;Node23 -->
<g id="edge22" class="edge"><title>Node21&#45;&gt;Node23</title>
<path fill="none" stroke="midnightblue" d="M962.765,-124.324C972.766,-116.263 987.887,-104.077 999.93,-94.3695"/>
<polygon fill="midnightblue" stroke="midnightblue" points="1002.45,-96.8343 1008.04,-87.8339 998.057,-91.3841 1002.45,-96.8343"/>
</g>
<!-- Node24 -->
<g id="node24" class="node"><title>Node24</title>
<polygon fill="none" stroke="#bfbfbf" points="1063.5,-68.5 1063.5,-87.5 1112.5,-87.5 1112.5,-68.5 1063.5,-68.5"/>
<text text-anchor="middle" x="1088" y="-75.5" font-family="Helvetica,sans-Serif" font-size="10.00">cassert</text>
</g>
<!-- Node21&#45;&gt;Node24 -->
<g id="edge23" class="edge"><title>Node21&#45;&gt;Node24</title>
<path fill="none" stroke="midnightblue" d="M973.55,-124.444C996.031,-115.517 1031.49,-101.439 1056.98,-91.3168"/>
<polygon fill="midnightblue" stroke="midnightblue" points="1058.55,-94.4598 1066.55,-87.5164 1055.97,-87.9539 1058.55,-94.4598"/>
</g>
<!-- Node25 -->
<g id="node25" class="node"><title>Node25</title>
<polygon fill="none" stroke="#bfbfbf" points="1131,-68.5 1131,-87.5 1187,-87.5 1187,-68.5 1131,-68.5"/>
<text text-anchor="middle" x="1159" y="-75.5" font-family="Helvetica,sans-Serif" font-size="10.00">algorithm</text>
</g>
<!-- Node21&#45;&gt;Node25 -->
<g id="edge25" class="edge"><title>Node21&#45;&gt;Node25</title>
<path fill="none" stroke="midnightblue" d="M984.8,-124.444C1021.74,-114.807 1081.7,-99.1653 1120.74,-88.98"/>
<polygon fill="midnightblue" stroke="midnightblue" points="1121.89,-92.2994 1130.68,-86.3884 1120.12,-85.526 1121.89,-92.2994"/>
</g>
<!-- Node21&#45;&gt;Node26 -->
<g id="edge26" class="edge"><title>Node21&#45;&gt;Node26</title>
<path fill="none" stroke="midnightblue" d="M1000.98,-124.497C1050.13,-115.83 1127.96,-101.744 1195,-88 1195.1,-87.9786 1195.21,-87.9571 1195.31,-87.9355"/>
<polygon fill="midnightblue" stroke="midnightblue" points="1196.27,-91.3116 1205.32,-85.8104 1194.81,-84.4643 1196.27,-91.3116"/>
</g>
</g>
</svg>
        <g id="navigator" transform="translate(0 0)" fill="#404254">
                <rect fill="#f2f5e9" fill-opacity="0.5" stroke="#606060" stroke-width=".5" x="0" y="0" width="60" height="60"/>
                <use id="zoomplus" xlink:href="#zoomPlus" x="17" y="9" onmousedown="handleZoom(evt,'in')"/>
                <use id="zoomminus" xlink:href="#zoomMin" x="42" y="9" onmousedown="handleZoom(evt,'out')"/>
                <use id="reset" xlink:href="#resetDef" x="30" y="36" onmousedown="handleReset()"/>
                <g id="arrowUp" xlink:href="#dirArrow" transform="translate(30 24)" onmousedown="handlePan(0,-1)">
                  <use xlink:href="#rim" fill="#404040">
                        <set attributeName="fill" to="#808080" begin="arrowUp.mouseover" end="arrowUp.mouseout"/>
                  </use>
                  <path fill="none" stroke="white" stroke-width="1.5" d="M0,-3.0v7 M-2.5,-0.5L0,-3.0L2.5,-0.5"/>
                </g>
                <g id="arrowRight" xlink:href="#dirArrow" transform="rotate(90) translate(36 -43)" onmousedown="handlePan(1,0)">
                  <use xlink:href="#rim" fill="#404040">
                        <set attributeName="fill" to="#808080" begin="arrowRight.mouseover" end="arrowRight.mouseout"/>
                  </use>
                  <path fill="none" stroke="white" stroke-width="1.5" d="M0,-3.0v7 M-2.5,-0.5L0,-3.0L2.5,-0.5"/>
                </g>
                <g id="arrowDown" xlink:href="#dirArrow" transform="rotate(180) translate(-30 -48)" onmousedown="handlePan(0,1)">
                  <use xlink:href="#rim" fill="#404040">
                        <set attributeName="fill" to="#808080" begin="arrowDown.mouseover" end="arrowDown.mouseout"/>
                  </use>
                  <path fill="none" stroke="white" stroke-width="1.5" d="M0,-3.0v7 M-2.5,-0.5L0,-3.0L2.5,-0.5"/>
                </g>
                <g id="arrowLeft" xlink:href="#dirArrow" transform="rotate(270) translate(-36 17)" onmousedown="handlePan(-1,0)">
                  <use xlink:href="#rim" fill="#404040">
                        <set attributeName="fill" to="#808080" begin="arrowLeft.mouseover" end="arrowLeft.mouseout"/>
                  </use>
                  <path fill="none" stroke="white" stroke-width="1.5" d="M0,-3.0v7 M-2.5,-0.5L0,-3.0L2.5,-0.5"/>
                </g>
        </g>
        <svg viewBox="0 0 15 15" width="100%" height="30px" preserveAspectRatio="xMaxYMin meet">
         <g id="arrow_out" transform="scale(0.3 0.3)">
          <a xlink:href="runTimeframeValidatorDevice_8cxx__incl_org.svg" target="_base">
           <rect id="button" ry="5" rx="5" y="6" x="6" height="38" width="38"
                fill="#f2f5e9" fill-opacity="0.5" stroke="#606060" stroke-width="1.0"/>
           <path id="arrow"
             d="M 11.500037,31.436501 C 11.940474,20.09759 22.043105,11.32322 32.158766,21.979434 L 37.068811,17.246167 C 37.068811,17.246167 37.088388,32 37.088388,32 L 22.160133,31.978069 C 22.160133,31.978069 26.997745,27.140456 26.997745,27.140456 C 18.528582,18.264221 13.291696,25.230495 11.500037,31.436501 z"
             style="fill:#404040;"/>
          </a>
         </g>
        </svg>
</svg>
