<?xml version="1.0" encoding="UTF-8" standalone="no"?>
<!DOCTYPE svg PUBLIC "-//W3C//DTD SVG 1.1//EN"
 "http://www.w3.org/Graphics/SVG/1.1/DTD/svg11.dtd">
<!-- Generated by graphviz version 2.36.0 (20140111.2315)
 -->
<!-- Title: /home/travis/build/AliceO2Group/AliceO2/DataFormats/simulation/include/SimulationDataFormat/RunContext.h Pages: 1 -->
<svg width="551pt" height="196pt"
 viewBox="0.00 0.00 551.00 196.00" xmlns="http://www.w3.org/2000/svg" xmlns:xlink="http://www.w3.org/1999/xlink">
<g id="graph0" class="graph" transform="scale(1 1) rotate(0) translate(4 192)">
<title>/home/travis/build/AliceO2Group/AliceO2/DataFormats/simulation/include/SimulationDataFormat/RunContext.h</title>
<!-- Node1 -->
<g id="node1" class="node"><title>Node1</title>
<polygon fill="#bfbfbf" stroke="black" points="51.5,-124.5 51.5,-187.5 202.5,-187.5 202.5,-124.5 51.5,-124.5"/>
<text text-anchor="start" x="59.5" y="-175.5" font-family="Helvetica,sans-Serif" font-size="10.00">/home/travis/build</text>
<text text-anchor="start" x="59.5" y="-164.5" font-family="Helvetica,sans-Serif" font-size="10.00">/AliceO2Group/AliceO2</text>
<text text-anchor="start" x="59.5" y="-153.5" font-family="Helvetica,sans-Serif" font-size="10.00">/DataFormats/simulation</text>
<text text-anchor="start" x="59.5" y="-142.5" font-family="Helvetica,sans-Serif" font-size="10.00">/include/SimulationDataFormat</text>
<text text-anchor="middle" x="127" y="-131.5" font-family="Helvetica,sans-Serif" font-size="10.00">/RunContext.h</text>
</g>
<!-- Node2 -->
<g id="node2" class="node"><title>Node2</title>
<polygon fill="none" stroke="#bfbfbf" points="-1,-62.5 -1,-81.5 43,-81.5 43,-62.5 -1,-62.5"/>
<text text-anchor="middle" x="21" y="-69.5" font-family="Helvetica,sans-Serif" font-size="10.00">vector</text>
</g>
<!-- Node1&#45;&gt;Node2 -->
<g id="edge1" class="edge"><title>Node1&#45;&gt;Node2</title>
<path fill="none" stroke="midnightblue" d="M87.5295,-124.466C71.4602,-112.035 53.6126,-98.2286 40.4517,-88.0475"/>
<polygon fill="midnightblue" stroke="midnightblue" points="42.2196,-84.9902 32.1685,-81.6398 37.9365,-90.5269 42.2196,-84.9902"/>
</g>
<!-- Node3 -->
<g id="node3" class="node"><title>Node3</title>
<polygon fill="none" stroke="#bfbfbf" points="61,-62.5 61,-81.5 117,-81.5 117,-62.5 61,-62.5"/>
<text text-anchor="middle" x="89" y="-69.5" font-family="Helvetica,sans-Serif" font-size="10.00">TChain.h</text>
</g>
<!-- Node1&#45;&gt;Node3 -->
<g id="edge2" class="edge"><title>Node1&#45;&gt;Node3</title>
<path fill="none" stroke="midnightblue" d="M112.85,-124.466C107.588,-113.111 101.794,-100.608 97.2344,-90.7689"/>
<polygon fill="midnightblue" stroke="midnightblue" points="100.384,-89.2412 93.0038,-81.6398 94.0329,-92.1845 100.384,-89.2412"/>
</g>
<!-- Node4 -->
<g id="node4" class="node"><title>Node4</title>
<polygon fill="none" stroke="#bfbfbf" points="135,-62.5 135,-81.5 197,-81.5 197,-62.5 135,-62.5"/>
<text text-anchor="middle" x="166" y="-69.5" font-family="Helvetica,sans-Serif" font-size="10.00">TBranch.h</text>
</g>
<!-- Node1&#45;&gt;Node4 -->
<g id="edge3" class="edge"><title>Node1&#45;&gt;Node4</title>
<path fill="none" stroke="midnightblue" d="M141.522,-124.466C146.923,-113.111 152.869,-100.608 157.549,-90.7689"/>
<polygon fill="midnightblue" stroke="midnightblue" points="160.756,-92.1737 161.891,-81.6398 154.435,-89.1671 160.756,-92.1737"/>
</g>
<!-- Node5 -->
<g id="node5" class="node"><title>Node5</title>
<g id="a_node5"><a xlink:href="../../d9/d80/InteractionRecord_8h.html" target="_top" xlink:title="CommonDataFormat/Interaction\lRecord.h">
<polygon fill="none" stroke="black" points="215.5,-57 215.5,-87 372.5,-87 372.5,-57 215.5,-57"/>
<text text-anchor="start" x="223.5" y="-75" font-family="Helvetica,sans-Serif" font-size="10.00">CommonDataFormat/Interaction</text>
<text text-anchor="middle" x="294" y="-64" font-family="Helvetica,sans-Serif" font-size="10.00">Record.h</text>
</a>
</g>
</g>
<!-- Node1&#45;&gt;Node5 -->
<g id="edge4" class="edge"><title>Node1&#45;&gt;Node5</title>
<path fill="none" stroke="midnightblue" d="M189.185,-124.466C211.761,-113.381 236.564,-101.202 256.374,-91.4752"/>
<polygon fill="midnightblue" stroke="midnightblue" points="257.947,-94.6019 265.381,-87.0526 254.862,-88.3185 257.947,-94.6019"/>
</g>
<!-- Node6 -->
<g id="node6" class="node"><title>Node6</title>
<polygon fill="none" stroke="#bfbfbf" points="165,-0.5 165,-19.5 221,-19.5 221,-0.5 165,-0.5"/>
<text text-anchor="middle" x="193" y="-7.5" font-family="Helvetica,sans-Serif" font-size="10.00">Rtypes.h</text>
</g>
<!-- Node5&#45;&gt;Node6 -->
<g id="edge5" class="edge"><title>Node5&#45;&gt;Node6</title>
<path fill="none" stroke="midnightblue" d="M270.32,-56.9327C254.041,-47.2619 232.523,-34.4793 216.322,-24.8546"/>
<polygon fill="midnightblue" stroke="midnightblue" points="217.862,-21.6983 207.477,-19.6 214.287,-27.7165 217.862,-21.6983"/>
</g>
<!-- Node7 -->
<g id="node7" class="node"><title>Node7</title>
<polygon fill="none" stroke="#bfbfbf" points="239.5,-0.5 239.5,-19.5 284.5,-19.5 284.5,-0.5 239.5,-0.5"/>
<text text-anchor="middle" x="262" y="-7.5" font-family="Helvetica,sans-Serif" font-size="10.00">iosfwd</text>
</g>
<!-- Node5&#45;&gt;Node7 -->
<g id="edge6" class="edge"><title>Node5&#45;&gt;Node7</title>
<path fill="none" stroke="midnightblue" d="M286.416,-56.7808C281.91,-48.3318 276.159,-37.5481 271.37,-28.5693"/>
<polygon fill="midnightblue" stroke="midnightblue" points="274.45,-26.907 266.656,-19.7305 268.274,-30.2012 274.45,-26.907"/>
</g>
<!-- Node8 -->
<g id="node8" class="node"><title>Node8</title>
<polygon fill="none" stroke="#bfbfbf" points="303,-0.5 303,-19.5 347,-19.5 347,-0.5 303,-0.5"/>
<text text-anchor="middle" x="325" y="-7.5" font-family="Helvetica,sans-Serif" font-size="10.00">cmath</text>
</g>
<!-- Node5&#45;&gt;Node8 -->
<g id="edge7" class="edge"><title>Node5&#45;&gt;Node8</title>
<path fill="none" stroke="midnightblue" d="M301.347,-56.7808C305.665,-48.4217 311.165,-37.7773 315.774,-28.8565"/>
<polygon fill="midnightblue" stroke="midnightblue" points="319.008,-30.2214 320.489,-19.7305 312.789,-27.0082 319.008,-30.2214"/>
</g>
<!-- Node9 -->
<g id="node9" class="node"><title>Node9</title>
<g id="a_node9"><a xlink:href="../../d4/dc6/LHCConstants_8h.html" target="_top" xlink:title="Header to collect LHC related constants. ">
<polygon fill="none" stroke="black" points="365,-0.5 365,-19.5 543,-19.5 543,-0.5 365,-0.5"/>
<text text-anchor="middle" x="454" y="-7.5" font-family="Helvetica,sans-Serif" font-size="10.00">CommonConstants/LHCConstants.h</text>
</a>
</g>
</g>
<!-- Node5&#45;&gt;Node9 -->
<g id="edge8" class="edge"><title>Node5&#45;&gt;Node9</title>
<path fill="none" stroke="midnightblue" d="M331.513,-56.9327C358.868,-46.6744 395.561,-32.9148 421.635,-23.1369"/>
<polygon fill="midnightblue" stroke="midnightblue" points="422.932,-26.3885 431.067,-19.6 420.474,-19.8342 422.932,-26.3885"/>
</g>
</g>
</svg>
