<?xml version="1.0" encoding="UTF-8" standalone="no"?>
<!DOCTYPE svg PUBLIC "-//W3C//DTD SVG 1.1//EN"
 "http://www.w3.org/Graphics/SVG/1.1/DTD/svg11.dtd">
<!-- Generated by graphviz version 2.36.0 (20140111.2315)
 -->
<!-- Title: /home/travis/build/AliceO2Group/AliceO2/Utilities/DataFlow/src/EPNReceiverDevice.cxx Pages: 1 -->
<svg width="1433pt" height="354pt"
 viewBox="0.00 0.00 1433.00 354.00" xmlns="http://www.w3.org/2000/svg" xmlns:xlink="http://www.w3.org/1999/xlink">
<g id="graph0" class="graph" transform="scale(1 1) rotate(0) translate(4 350)">
<title>/home/travis/build/AliceO2Group/AliceO2/Utilities/DataFlow/src/EPNReceiverDevice.cxx</title>
<!-- Node1 -->
<g id="node1" class="node"><title>Node1</title>
<polygon fill="#bfbfbf" stroke="black" points="930.5,-293 930.5,-345 1059.5,-345 1059.5,-293 930.5,-293"/>
<text text-anchor="start" x="938.5" y="-333" font-family="Helvetica,sans-Serif" font-size="10.00">/home/travis/build</text>
<text text-anchor="start" x="938.5" y="-322" font-family="Helvetica,sans-Serif" font-size="10.00">/AliceO2Group/AliceO2</text>
<text text-anchor="start" x="938.5" y="-311" font-family="Helvetica,sans-Serif" font-size="10.00">/Utilities/DataFlow/src</text>
<text text-anchor="middle" x="995" y="-300" font-family="Helvetica,sans-Serif" font-size="10.00">/EPNReceiverDevice.cxx</text>
</g>
<!-- Node2 -->
<g id="node2" class="node"><title>Node2</title>
<polygon fill="none" stroke="#bfbfbf" points="535.5,-236.5 535.5,-255.5 584.5,-255.5 584.5,-236.5 535.5,-236.5"/>
<text text-anchor="middle" x="560" y="-243.5" font-family="Helvetica,sans-Serif" font-size="10.00">cstddef</text>
</g>
<!-- Node1&#45;&gt;Node2 -->
<g id="edge1" class="edge"><title>Node1&#45;&gt;Node2</title>
<path fill="none" stroke="midnightblue" d="M930.381,-310.141C852.911,-300.244 719.033,-281.629 594.875,-255.989"/>
<polygon fill="midnightblue" stroke="midnightblue" points="595.314,-252.505 584.81,-253.891 593.885,-259.358 595.314,-252.505"/>
</g>
<!-- Node3 -->
<g id="node3" class="node"><title>Node3</title>
<polygon fill="none" stroke="#bfbfbf" points="603,-236.5 603,-255.5 653,-255.5 653,-236.5 603,-236.5"/>
<text text-anchor="middle" x="628" y="-243.5" font-family="Helvetica,sans-Serif" font-size="10.00">fstream</text>
</g>
<!-- Node1&#45;&gt;Node3 -->
<g id="edge2" class="edge"><title>Node1&#45;&gt;Node3</title>
<path fill="none" stroke="midnightblue" d="M930.433,-306.582C864.175,-294.681 758.174,-275.129 667,-256 665.738,-255.735 664.453,-255.461 663.157,-255.181"/>
<polygon fill="midnightblue" stroke="midnightblue" points="663.664,-251.709 653.143,-252.958 662.146,-258.542 663.664,-251.709"/>
</g>
<!-- Node4 -->
<g id="node4" class="node"><title>Node4</title>
<polygon fill="none" stroke="#bfbfbf" points="1141,-6.5 1141,-25.5 1187,-25.5 1187,-6.5 1141,-6.5"/>
<text text-anchor="middle" x="1164" y="-13.5" font-family="Helvetica,sans-Serif" font-size="10.00">cstring</text>
</g>
<!-- Node1&#45;&gt;Node4 -->
<g id="edge3" class="edge"><title>Node1&#45;&gt;Node4</title>
<path fill="none" stroke="midnightblue" d="M1009.12,-292.855C1042.51,-233.379 1125.68,-85.2427 1154.21,-34.4301"/>
<polygon fill="midnightblue" stroke="midnightblue" points="1157.32,-36.0535 1159.16,-25.6203 1151.21,-32.6265 1157.32,-36.0535"/>
</g>
<!-- Node5 -->
<g id="node5" class="node"><title>Node5</title>
<polygon fill="none" stroke="#bfbfbf" points="1107,-236.5 1107,-255.5 1157,-255.5 1157,-236.5 1107,-236.5"/>
<text text-anchor="middle" x="1132" y="-243.5" font-family="Helvetica,sans-Serif" font-size="10.00">iomanip</text>
</g>
<!-- Node1&#45;&gt;Node5 -->
<g id="edge4" class="edge"><title>Node1&#45;&gt;Node5</title>
<path fill="none" stroke="midnightblue" d="M1043.3,-292.968C1064.49,-281.986 1088.51,-269.537 1106.21,-260.366"/>
<polygon fill="midnightblue" stroke="midnightblue" points="1108.06,-263.348 1115.33,-255.639 1104.84,-257.133 1108.06,-263.348"/>
</g>
<!-- Node6 -->
<g id="node6" class="node"><title>Node6</title>
<polygon fill="none" stroke="#bfbfbf" points="1175,-236.5 1175,-255.5 1261,-255.5 1261,-236.5 1175,-236.5"/>
<text text-anchor="middle" x="1218" y="-243.5" font-family="Helvetica,sans-Serif" font-size="10.00">FairMQLogger.h</text>
</g>
<!-- Node1&#45;&gt;Node6 -->
<g id="edge5" class="edge"><title>Node1&#45;&gt;Node6</title>
<path fill="none" stroke="midnightblue" d="M1059.5,-297.464C1099.14,-284.845 1148.47,-269.137 1181.47,-258.629"/>
<polygon fill="midnightblue" stroke="midnightblue" points="1182.7,-261.913 1191.16,-255.544 1180.57,-255.243 1182.7,-261.913"/>
</g>
<!-- Node7 -->
<g id="node7" class="node"><title>Node7</title>
<polygon fill="none" stroke="#bfbfbf" points="1279,-236.5 1279,-255.5 1425,-255.5 1425,-236.5 1279,-236.5"/>
<text text-anchor="middle" x="1352" y="-243.5" font-family="Helvetica,sans-Serif" font-size="10.00">options/FairMQProgOptions.h</text>
</g>
<!-- Node1&#45;&gt;Node7 -->
<g id="edge6" class="edge"><title>Node1&#45;&gt;Node7</title>
<path fill="none" stroke="midnightblue" d="M1059.65,-305.142C1128.31,-291.487 1235.55,-270.16 1299.28,-257.484"/>
<polygon fill="midnightblue" stroke="midnightblue" points="1300,-260.91 1309.13,-255.527 1298.64,-254.045 1300,-260.91"/>
</g>
<!-- Node8 -->
<g id="node8" class="node"><title>Node8</title>
<g id="a_node8"><a xlink:href="../../d2/d37/EPNReceiverDevice_8h.html" target="_top" xlink:title="DataFlow/EPNReceiverDevice.h">
<polygon fill="none" stroke="black" points="164.5,-180.5 164.5,-199.5 325.5,-199.5 325.5,-180.5 164.5,-180.5"/>
<text text-anchor="middle" x="245" y="-187.5" font-family="Helvetica,sans-Serif" font-size="10.00">DataFlow/EPNReceiverDevice.h</text>
</a>
</g>
</g>
<!-- Node1&#45;&gt;Node8 -->
<g id="edge7" class="edge"><title>Node1&#45;&gt;Node8</title>
<path fill="none" stroke="midnightblue" d="M930.248,-308.444C870.733,-298.659 780.553,-281.288 705,-256 685.013,-249.31 682.306,-241.651 662,-236 552.459,-205.515 421.401,-195.477 335.831,-192.284"/>
<polygon fill="midnightblue" stroke="midnightblue" points="335.742,-188.779 325.626,-191.928 335.498,-195.775 335.742,-188.779"/>
</g>
<!-- Node14 -->
<g id="node14" class="node"><title>Node14</title>
<g id="a_node14"><a xlink:href="../../dc/dcd/DataHeader_8h.html" target="_top" xlink:title="Headers/DataHeader.h">
<polygon fill="none" stroke="black" points="667.5,-124.5 667.5,-143.5 784.5,-143.5 784.5,-124.5 667.5,-124.5"/>
<text text-anchor="middle" x="726" y="-131.5" font-family="Helvetica,sans-Serif" font-size="10.00">Headers/DataHeader.h</text>
</a>
</g>
</g>
<!-- Node1&#45;&gt;Node14 -->
<g id="edge13" class="edge"><title>Node1&#45;&gt;Node14</title>
<path fill="none" stroke="midnightblue" d="M930.307,-306.273C870.664,-291.901 784.549,-261.439 738,-200 728.038,-186.852 725.48,-167.974 725.152,-153.948"/>
<polygon fill="midnightblue" stroke="midnightblue" points="728.657,-153.584 725.288,-143.539 721.658,-153.492 728.657,-153.584"/>
</g>
<!-- Node30 -->
<g id="node30" class="node"><title>Node30</title>
<g id="a_node30"><a xlink:href="../../d2/d1b/SubframeMetadata_8h.html" target="_top" xlink:title="Headers/SubframeMetadata.h">
<polygon fill="none" stroke="black" points="1126.5,-180.5 1126.5,-199.5 1273.5,-199.5 1273.5,-180.5 1126.5,-180.5"/>
<text text-anchor="middle" x="1200" y="-187.5" font-family="Helvetica,sans-Serif" font-size="10.00">Headers/SubframeMetadata.h</text>
</a>
</g>
</g>
<!-- Node1&#45;&gt;Node30 -->
<g id="edge34" class="edge"><title>Node1&#45;&gt;Node30</title>
<path fill="none" stroke="midnightblue" d="M1022.41,-292.949C1042.38,-275.531 1070.62,-252.56 1098,-236 1119.78,-222.83 1146.09,-211.318 1166.54,-203.235"/>
<polygon fill="midnightblue" stroke="midnightblue" points="1167.99,-206.423 1176.06,-199.55 1165.47,-199.895 1167.99,-206.423"/>
</g>
<!-- Node31 -->
<g id="node31" class="node"><title>Node31</title>
<g id="a_node31"><a xlink:href="../../de/dfa/TimeFrame_8h.html" target="_top" xlink:title="TimeFrame/TimeFrame.h">
<polygon fill="none" stroke="black" points="860.5,-236.5 860.5,-255.5 987.5,-255.5 987.5,-236.5 860.5,-236.5"/>
<text text-anchor="middle" x="924" y="-243.5" font-family="Helvetica,sans-Serif" font-size="10.00">TimeFrame/TimeFrame.h</text>
</a>
</g>
</g>
<!-- Node1&#45;&gt;Node31 -->
<g id="edge36" class="edge"><title>Node1&#45;&gt;Node31</title>
<path fill="none" stroke="midnightblue" d="M969.768,-292.768C959.881,-282.881 948.831,-271.831 940.066,-263.066"/>
<polygon fill="midnightblue" stroke="midnightblue" points="942.303,-260.353 932.757,-255.757 937.353,-265.303 942.303,-260.353"/>
</g>
<!-- Node9 -->
<g id="node9" class="node"><title>Node9</title>
<polygon fill="none" stroke="#bfbfbf" points="100.5,-6.5 100.5,-25.5 141.5,-25.5 141.5,-6.5 100.5,-6.5"/>
<text text-anchor="middle" x="121" y="-13.5" font-family="Helvetica,sans-Serif" font-size="10.00">string</text>
</g>
<!-- Node8&#45;&gt;Node9 -->
<g id="edge8" class="edge"><title>Node8&#45;&gt;Node9</title>
<path fill="none" stroke="midnightblue" d="M242.495,-180.301C236.118,-159.259 217.648,-104.648 188,-68 176.008,-53.1767 158.844,-40.2194 144.89,-31.0746"/>
<polygon fill="midnightblue" stroke="midnightblue" points="146.596,-28.0123 136.272,-25.6344 142.86,-33.9318 146.596,-28.0123"/>
</g>
<!-- Node10 -->
<g id="node10" class="node"><title>Node10</title>
<polygon fill="none" stroke="#bfbfbf" points="-0.5,-6.5 -0.5,-25.5 82.5,-25.5 82.5,-6.5 -0.5,-6.5"/>
<text text-anchor="middle" x="41" y="-13.5" font-family="Helvetica,sans-Serif" font-size="10.00">unordered_map</text>
</g>
<!-- Node8&#45;&gt;Node10 -->
<g id="edge9" class="edge"><title>Node8&#45;&gt;Node10</title>
<path fill="none" stroke="midnightblue" d="M234.884,-180.47C202.391,-153.075 100.386,-67.0709 58.8571,-32.056"/>
<polygon fill="midnightblue" stroke="midnightblue" points="61.0788,-29.3512 51.1775,-25.581 56.5666,-34.7028 61.0788,-29.3512"/>
</g>
<!-- Node11 -->
<g id="node11" class="node"><title>Node11</title>
<polygon fill="none" stroke="#bfbfbf" points="240,-124.5 240,-143.5 318,-143.5 318,-124.5 240,-124.5"/>
<text text-anchor="middle" x="279" y="-131.5" font-family="Helvetica,sans-Serif" font-size="10.00">unordered_set</text>
</g>
<!-- Node8&#45;&gt;Node11 -->
<g id="edge10" class="edge"><title>Node8&#45;&gt;Node11</title>
<path fill="none" stroke="midnightblue" d="M250.614,-180.083C255.367,-172.534 262.318,-161.495 268.152,-152.23"/>
<polygon fill="midnightblue" stroke="midnightblue" points="271.124,-154.078 273.49,-143.751 265.2,-150.349 271.124,-154.078"/>
</g>
<!-- Node12 -->
<g id="node12" class="node"><title>Node12</title>
<polygon fill="none" stroke="#bfbfbf" points="512,-124.5 512,-143.5 558,-143.5 558,-124.5 512,-124.5"/>
<text text-anchor="middle" x="535" y="-131.5" font-family="Helvetica,sans-Serif" font-size="10.00">chrono</text>
</g>
<!-- Node8&#45;&gt;Node12 -->
<g id="edge11" class="edge"><title>Node8&#45;&gt;Node12</title>
<path fill="none" stroke="midnightblue" d="M290.951,-180.444C349.672,-169.509 449.907,-150.845 501.753,-141.191"/>
<polygon fill="midnightblue" stroke="midnightblue" points="502.559,-144.601 511.75,-139.329 501.278,-137.719 502.559,-144.601"/>
</g>
<!-- Node13 -->
<g id="node13" class="node"><title>Node13</title>
<polygon fill="none" stroke="#bfbfbf" points="58,-124.5 58,-143.5 146,-143.5 146,-124.5 58,-124.5"/>
<text text-anchor="middle" x="102" y="-131.5" font-family="Helvetica,sans-Serif" font-size="10.00">FairMQDevice.h</text>
</g>
<!-- Node8&#45;&gt;Node13 -->
<g id="edge12" class="edge"><title>Node8&#45;&gt;Node13</title>
<path fill="none" stroke="midnightblue" d="M222.341,-180.444C198.598,-171.478 161.091,-157.314 134.262,-147.183"/>
<polygon fill="midnightblue" stroke="midnightblue" points="135.144,-143.775 124.553,-143.516 132.671,-150.324 135.144,-143.775"/>
</g>
<!-- Node14&#45;&gt;Node4 -->
<g id="edge17" class="edge"><title>Node14&#45;&gt;Node4</title>
<path fill="none" stroke="midnightblue" d="M747.316,-124.481C768.864,-115.746 803.027,-101.557 832,-88 849.644,-79.7441 852.424,-73.863 871,-68 982.249,-32.8884 1018.95,-64.4753 1131,-32 1133.35,-31.32 1135.74,-30.5015 1138.11,-29.6019"/>
<polygon fill="midnightblue" stroke="midnightblue" points="1139.73,-32.7191 1147.57,-25.5962 1137,-26.2734 1139.73,-32.7191"/>
</g>
<!-- Node14&#45;&gt;Node9 -->
<g id="edge20" class="edge"><title>Node14&#45;&gt;Node9</title>
<path fill="none" stroke="midnightblue" d="M667.268,-127.906C614.529,-122.113 535.548,-110.396 470,-88 451.94,-81.8293 450.199,-73.7484 432,-68 311.937,-30.0763 271.451,-68.6712 151,-32 149.036,-31.4022 147.045,-30.6846 145.07,-29.8915"/>
<polygon fill="midnightblue" stroke="midnightblue" points="146.092,-26.5089 135.545,-25.5028 143.163,-32.8665 146.092,-26.5089"/>
</g>
<!-- Node15 -->
<g id="node15" class="node"><title>Node15</title>
<polygon fill="none" stroke="#bfbfbf" points="880,-68.5 880,-87.5 926,-87.5 926,-68.5 880,-68.5"/>
<text text-anchor="middle" x="903" y="-75.5" font-family="Helvetica,sans-Serif" font-size="10.00">cstdint</text>
</g>
<!-- Node14&#45;&gt;Node15 -->
<g id="edge14" class="edge"><title>Node14&#45;&gt;Node15</title>
<path fill="none" stroke="midnightblue" d="M754.046,-124.444C785.584,-114.822 836.741,-99.2147 870.129,-89.0283"/>
<polygon fill="midnightblue" stroke="midnightblue" points="871.336,-92.3195 879.88,-86.0537 869.293,-85.6242 871.336,-92.3195"/>
</g>
<!-- Node16 -->
<g id="node16" class="node"><title>Node16</title>
<polygon fill="none" stroke="#bfbfbf" points="371,-68.5 371,-87.5 423,-87.5 423,-68.5 371,-68.5"/>
<text text-anchor="middle" x="397" y="-75.5" font-family="Helvetica,sans-Serif" font-size="10.00">memory</text>
</g>
<!-- Node14&#45;&gt;Node16 -->
<g id="edge15" class="edge"><title>Node14&#45;&gt;Node16</title>
<path fill="none" stroke="midnightblue" d="M667.406,-125.048C608.881,-116.831 516.441,-103.104 437,-88 435.741,-87.7607 434.462,-87.5105 433.171,-87.2522"/>
<polygon fill="midnightblue" stroke="midnightblue" points="433.704,-83.7879 423.198,-85.1578 432.265,-90.6384 433.704,-83.7879"/>
</g>
<!-- Node17 -->
<g id="node17" class="node"><title>Node17</title>
<polygon fill="none" stroke="#bfbfbf" points="947.5,-68.5 947.5,-87.5 996.5,-87.5 996.5,-68.5 947.5,-68.5"/>
<text text-anchor="middle" x="972" y="-75.5" font-family="Helvetica,sans-Serif" font-size="10.00">cassert</text>
</g>
<!-- Node14&#45;&gt;Node17 -->
<g id="edge16" class="edge"><title>Node14&#45;&gt;Node17</title>
<path fill="none" stroke="midnightblue" d="M767.314,-124.442C809.526,-115.619 876.935,-101.311 935,-88 935.749,-87.8283 936.506,-87.6536 937.27,-87.4766"/>
<polygon fill="midnightblue" stroke="midnightblue" points="938.417,-90.802 947.342,-85.0942 936.805,-83.9899 938.417,-90.802"/>
</g>
<!-- Node18 -->
<g id="node18" class="node"><title>Node18</title>
<polygon fill="none" stroke="#bfbfbf" points="479,-68.5 479,-87.5 535,-87.5 535,-68.5 479,-68.5"/>
<text text-anchor="middle" x="507" y="-75.5" font-family="Helvetica,sans-Serif" font-size="10.00">algorithm</text>
</g>
<!-- Node14&#45;&gt;Node18 -->
<g id="edge18" class="edge"><title>Node14&#45;&gt;Node18</title>
<path fill="none" stroke="midnightblue" d="M691.299,-124.444C651.494,-114.629 586.429,-98.5852 545.208,-88.421"/>
<polygon fill="midnightblue" stroke="midnightblue" points="545.818,-84.9669 535.271,-85.971 544.142,-91.7633 545.818,-84.9669"/>
</g>
<!-- Node19 -->
<g id="node19" class="node"><title>Node19</title>
<polygon fill="none" stroke="#bfbfbf" points="553.5,-68.5 553.5,-87.5 612.5,-87.5 612.5,-68.5 553.5,-68.5"/>
<text text-anchor="middle" x="583" y="-75.5" font-family="Helvetica,sans-Serif" font-size="10.00">stdexcept</text>
</g>
<!-- Node14&#45;&gt;Node19 -->
<g id="edge19" class="edge"><title>Node14&#45;&gt;Node19</title>
<path fill="none" stroke="midnightblue" d="M703.341,-124.444C679.598,-115.478 642.091,-101.314 615.262,-91.1827"/>
<polygon fill="midnightblue" stroke="midnightblue" points="616.144,-87.7749 605.553,-87.5164 613.671,-94.3235 616.144,-87.7749"/>
</g>
<!-- Node20 -->
<g id="node20" class="node"><title>Node20</title>
<g id="a_node20"><a xlink:href="../../dc/d03/MemoryResources_8h.html" target="_top" xlink:title="MemoryResources/MemoryResources.h">
<polygon fill="none" stroke="black" points="630.5,-68.5 630.5,-87.5 823.5,-87.5 823.5,-68.5 630.5,-68.5"/>
<text text-anchor="middle" x="727" y="-75.5" font-family="Helvetica,sans-Serif" font-size="10.00">MemoryResources/MemoryResources.h</text>
</a>
</g>
</g>
<!-- Node14&#45;&gt;Node20 -->
<g id="edge21" class="edge"><title>Node14&#45;&gt;Node20</title>
<path fill="none" stroke="midnightblue" d="M726.165,-124.083C726.296,-117.006 726.484,-106.861 726.648,-97.9865"/>
<polygon fill="midnightblue" stroke="midnightblue" points="730.152,-97.8142 726.838,-87.7511 723.153,-97.6845 730.152,-97.8142"/>
</g>
<!-- Node20&#45;&gt;Node4 -->
<g id="edge26" class="edge"><title>Node20&#45;&gt;Node4</title>
<path fill="none" stroke="midnightblue" d="M817.11,-68.4785C926.916,-57.8576 1101.53,-40.1171 1131,-32 1133.5,-31.3127 1136.04,-30.4592 1138.55,-29.5105"/>
<polygon fill="midnightblue" stroke="midnightblue" points="1140.09,-32.6594 1147.93,-25.5308 1137.36,-26.2158 1140.09,-32.6594"/>
</g>
<!-- Node20&#45;&gt;Node9 -->
<g id="edge27" class="edge"><title>Node20&#45;&gt;Node9</title>
<path fill="none" stroke="midnightblue" d="M630.24,-68.7514C627.124,-68.4963 624.037,-68.2453 621,-68 412.179,-51.1378 352.908,-87.8899 151,-32 148.811,-31.3941 146.593,-30.6248 144.405,-29.7557"/>
<polygon fill="midnightblue" stroke="midnightblue" points="145.741,-26.5173 135.194,-25.5063 142.808,-32.8735 145.741,-26.5173"/>
</g>
<!-- Node20&#45;&gt;Node10 -->
<g id="edge31" class="edge"><title>Node20&#45;&gt;Node10</title>
<path fill="none" stroke="midnightblue" d="M630.243,-68.717C627.126,-68.4718 624.039,-68.2322 621,-68 385.588,-50.0123 323.299,-74.1846 91,-32 85.8379,-31.0626 80.4537,-29.7821 75.2116,-28.3616"/>
<polygon fill="midnightblue" stroke="midnightblue" points="75.9817,-24.9406 65.4022,-25.5108 74.0282,-31.6625 75.9817,-24.9406"/>
</g>
<!-- Node21 -->
<g id="node21" class="node"><title>Node21</title>
<polygon fill="none" stroke="#bfbfbf" points="943,-1 943,-31 1043,-31 1043,-1 943,-1"/>
<text text-anchor="start" x="951" y="-19" font-family="Helvetica,sans-Serif" font-size="10.00">boost/container/flat</text>
<text text-anchor="middle" x="993" y="-8" font-family="Helvetica,sans-Serif" font-size="10.00">_map.hpp</text>
</g>
<!-- Node20&#45;&gt;Node21 -->
<g id="edge22" class="edge"><title>Node20&#45;&gt;Node21</title>
<path fill="none" stroke="midnightblue" d="M767.731,-68.4779C809.346,-59.6829 875.793,-45.3961 933,-32 933.101,-31.9763 933.203,-31.9525 933.304,-31.9287"/>
<polygon fill="midnightblue" stroke="midnightblue" points="934.02,-35.3563 942.937,-29.6347 932.398,-28.5467 934.02,-35.3563"/>
</g>
<!-- Node22 -->
<g id="node22" class="node"><title>Node22</title>
<polygon fill="none" stroke="#bfbfbf" points="160,-1 160,-31 276,-31 276,-1 160,-1"/>
<text text-anchor="start" x="168" y="-19" font-family="Helvetica,sans-Serif" font-size="10.00">boost/container/pmr</text>
<text text-anchor="middle" x="218" y="-8" font-family="Helvetica,sans-Serif" font-size="10.00">/memory_resource.hpp</text>
</g>
<!-- Node20&#45;&gt;Node22 -->
<g id="edge23" class="edge"><title>Node20&#45;&gt;Node22</title>
<path fill="none" stroke="midnightblue" d="M630.357,-68.5139C525.551,-59.0818 363.873,-43.8069 285.993,-32.0013"/>
<polygon fill="midnightblue" stroke="midnightblue" points="286.445,-28.5294 276.023,-30.433 285.357,-35.4444 286.445,-28.5294"/>
</g>
<!-- Node23 -->
<g id="node23" class="node"><title>Node23</title>
<polygon fill="none" stroke="#bfbfbf" points="294,-1 294,-31 450,-31 450,-1 294,-1"/>
<text text-anchor="start" x="302" y="-19" font-family="Helvetica,sans-Serif" font-size="10.00">boost/container/pmr</text>
<text text-anchor="middle" x="372" y="-8" font-family="Helvetica,sans-Serif" font-size="10.00">/monotonic_buffer_resource.hpp</text>
</g>
<!-- Node20&#45;&gt;Node23 -->
<g id="edge24" class="edge"><title>Node20&#45;&gt;Node23</title>
<path fill="none" stroke="midnightblue" d="M675.611,-68.4399C623.762,-59.7876 541.117,-45.9544 460.119,-32.1866"/>
<polygon fill="midnightblue" stroke="midnightblue" points="460.697,-28.7347 450.252,-30.5083 459.523,-35.6356 460.697,-28.7347"/>
</g>
<!-- Node24 -->
<g id="node24" class="node"><title>Node24</title>
<polygon fill="none" stroke="#bfbfbf" points="468.5,-1 468.5,-31 601.5,-31 601.5,-1 468.5,-1"/>
<text text-anchor="start" x="476.5" y="-19" font-family="Helvetica,sans-Serif" font-size="10.00">boost/container/pmr</text>
<text text-anchor="middle" x="535" y="-8" font-family="Helvetica,sans-Serif" font-size="10.00">/polymorphic_allocator.hpp</text>
</g>
<!-- Node20&#45;&gt;Node24 -->
<g id="edge25" class="edge"><title>Node20&#45;&gt;Node24</title>
<path fill="none" stroke="midnightblue" d="M699.491,-68.4035C670.962,-59.4882 625.595,-45.311 589.725,-34.1014"/>
<polygon fill="midnightblue" stroke="midnightblue" points="590.47,-30.6675 579.881,-31.0253 588.382,-37.3488 590.47,-30.6675"/>
</g>
<!-- Node25 -->
<g id="node25" class="node"><title>Node25</title>
<polygon fill="none" stroke="#bfbfbf" points="1061,-6.5 1061,-25.5 1123,-25.5 1123,-6.5 1061,-6.5"/>
<text text-anchor="middle" x="1092" y="-13.5" font-family="Helvetica,sans-Serif" font-size="10.00">type_traits</text>
</g>
<!-- Node20&#45;&gt;Node25 -->
<g id="edge28" class="edge"><title>Node20&#45;&gt;Node25</title>
<path fill="none" stroke="midnightblue" d="M823.71,-69.2592C888.915,-62.6668 976.491,-51.1341 1052,-32 1055.41,-31.1358 1058.93,-30.0768 1062.4,-28.9249"/>
<polygon fill="midnightblue" stroke="midnightblue" points="1063.69,-32.1809 1071.93,-25.517 1061.33,-25.5899 1063.69,-32.1809"/>
</g>
<!-- Node26 -->
<g id="node26" class="node"><title>Node26</title>
<polygon fill="none" stroke="#bfbfbf" points="620,-6.5 620,-25.5 660,-25.5 660,-6.5 620,-6.5"/>
<text text-anchor="middle" x="640" y="-13.5" font-family="Helvetica,sans-Serif" font-size="10.00">utility</text>
</g>
<!-- Node20&#45;&gt;Node26 -->
<g id="edge29" class="edge"><title>Node20&#45;&gt;Node26</title>
<path fill="none" stroke="midnightblue" d="M714.535,-68.4035C700.581,-58.7797 677.735,-43.0242 661.009,-31.4891"/>
<polygon fill="midnightblue" stroke="midnightblue" points="662.661,-28.3767 652.442,-25.5806 658.687,-34.1392 662.661,-28.3767"/>
</g>
<!-- Node27 -->
<g id="node27" class="node"><title>Node27</title>
<polygon fill="none" stroke="#bfbfbf" points="1205,-6.5 1205,-25.5 1249,-25.5 1249,-6.5 1205,-6.5"/>
<text text-anchor="middle" x="1227" y="-13.5" font-family="Helvetica,sans-Serif" font-size="10.00">vector</text>
</g>
<!-- Node20&#45;&gt;Node27 -->
<g id="edge30" class="edge"><title>Node20&#45;&gt;Node27</title>
<path fill="none" stroke="midnightblue" d="M823.735,-69.5572C950.585,-59.5134 1161.17,-41.7577 1196,-32 1198.2,-31.3841 1200.43,-30.6181 1202.64,-29.7606"/>
<polygon fill="midnightblue" stroke="midnightblue" points="1204.26,-32.8675 1211.97,-25.5965 1201.41,-26.4749 1204.26,-32.8675"/>
</g>
<!-- Node28 -->
<g id="node28" class="node"><title>Node28</title>
<polygon fill="none" stroke="#bfbfbf" points="678.5,-6.5 678.5,-25.5 775.5,-25.5 775.5,-6.5 678.5,-6.5"/>
<text text-anchor="middle" x="727" y="-13.5" font-family="Helvetica,sans-Serif" font-size="10.00">FairMQMessage.h</text>
</g>
<!-- Node20&#45;&gt;Node28 -->
<g id="edge32" class="edge"><title>Node20&#45;&gt;Node28</title>
<path fill="none" stroke="midnightblue" d="M727,-68.4035C727,-59.9381 727,-46.7283 727,-35.8199"/>
<polygon fill="midnightblue" stroke="midnightblue" points="730.5,-35.5806 727,-25.5806 723.5,-35.5806 730.5,-35.5806"/>
</g>
<!-- Node29 -->
<g id="node29" class="node"><title>Node29</title>
<polygon fill="none" stroke="#bfbfbf" points="793.5,-6.5 793.5,-25.5 924.5,-25.5 924.5,-6.5 793.5,-6.5"/>
<text text-anchor="middle" x="859" y="-13.5" font-family="Helvetica,sans-Serif" font-size="10.00">FairMQTransportFactory.h</text>
</g>
<!-- Node20&#45;&gt;Node29 -->
<g id="edge33" class="edge"><title>Node20&#45;&gt;Node29</title>
<path fill="none" stroke="midnightblue" d="M745.912,-68.4035C768.163,-58.2896 805.312,-41.4036 830.926,-29.761"/>
<polygon fill="midnightblue" stroke="midnightblue" points="832.467,-32.905 840.123,-25.5806 829.571,-26.5324 832.467,-32.905"/>
</g>
<!-- Node30&#45;&gt;Node27 -->
<g id="edge35" class="edge"><title>Node30&#45;&gt;Node27</title>
<path fill="none" stroke="midnightblue" d="M1201.38,-180.234C1205.57,-153.548 1218.23,-72.8773 1224.03,-35.8931"/>
<polygon fill="midnightblue" stroke="midnightblue" points="1227.57,-35.966 1225.66,-25.5442 1220.65,-34.8804 1227.57,-35.966"/>
</g>
<!-- Node32 -->
<g id="node32" class="node"><title>Node32</title>
<polygon fill="none" stroke="#bfbfbf" points="747,-180.5 747,-199.5 827,-199.5 827,-180.5 747,-180.5"/>
<text text-anchor="middle" x="787" y="-187.5" font-family="Helvetica,sans-Serif" font-size="10.00">FairMQParts.h</text>
</g>
<!-- Node31&#45;&gt;Node32 -->
<g id="edge37" class="edge"><title>Node31&#45;&gt;Node32</title>
<path fill="none" stroke="midnightblue" d="M902.292,-236.444C879.645,-227.517 843.928,-213.439 818.248,-203.317"/>
<polygon fill="midnightblue" stroke="midnightblue" points="819.193,-199.927 808.606,-199.516 816.626,-206.44 819.193,-199.927"/>
</g>
<!-- Node33 -->
<g id="node33" class="node"><title>Node33</title>
<polygon fill="none" stroke="#bfbfbf" points="845.5,-180.5 845.5,-199.5 904.5,-199.5 904.5,-180.5 845.5,-180.5"/>
<text text-anchor="middle" x="875" y="-187.5" font-family="Helvetica,sans-Serif" font-size="10.00">TObject.h</text>
</g>
<!-- Node31&#45;&gt;Node33 -->
<g id="edge38" class="edge"><title>Node31&#45;&gt;Node33</title>
<path fill="none" stroke="midnightblue" d="M915.909,-236.083C908.845,-228.298 898.412,-216.801 889.851,-207.367"/>
<polygon fill="midnightblue" stroke="midnightblue" points="892.253,-204.805 882.941,-199.751 887.069,-209.509 892.253,-204.805"/>
</g>
<!-- Node34 -->
<g id="node34" class="node"><title>Node34</title>
<g id="a_node34"><a xlink:href="../../d6/d90/Headers_2include_2Headers_2TimeStamp_8h.html" target="_top" xlink:title="Headers/TimeStamp.h">
<polygon fill="none" stroke="black" points="922.5,-180.5 922.5,-199.5 1037.5,-199.5 1037.5,-180.5 922.5,-180.5"/>
<text text-anchor="middle" x="980" y="-187.5" font-family="Helvetica,sans-Serif" font-size="10.00">Headers/TimeStamp.h</text>
</a>
</g>
</g>
<!-- Node31&#45;&gt;Node34 -->
<g id="edge39" class="edge"><title>Node31&#45;&gt;Node34</title>
<path fill="none" stroke="midnightblue" d="M932.997,-236.324C941.194,-228.42 953.506,-216.548 963.472,-206.938"/>
<polygon fill="midnightblue" stroke="midnightblue" points="966.07,-209.295 970.839,-199.834 961.211,-204.256 966.07,-209.295"/>
</g>
<!-- Node34&#45;&gt;Node12 -->
<g id="edge41" class="edge"><title>Node34&#45;&gt;Node12</title>
<path fill="none" stroke="midnightblue" d="M922.264,-181.188C919.131,-180.782 916.027,-180.383 913,-180 785.681,-163.871 634.016,-146.318 568.201,-138.782"/>
<polygon fill="midnightblue" stroke="midnightblue" points="568.359,-135.278 558.026,-137.619 567.563,-142.233 568.359,-135.278"/>
</g>
<!-- Node34&#45;&gt;Node14 -->
<g id="edge40" class="edge"><title>Node34&#45;&gt;Node14</title>
<path fill="none" stroke="midnightblue" d="M939.753,-180.444C895.35,-171.004 823.847,-155.802 775.912,-145.611"/>
<polygon fill="midnightblue" stroke="midnightblue" points="776.568,-142.173 766.059,-143.516 775.112,-149.02 776.568,-142.173"/>
</g>
<!-- Node34&#45;&gt;Node17 -->
<g id="edge42" class="edge"><title>Node34&#45;&gt;Node17</title>
<path fill="none" stroke="midnightblue" d="M979.372,-180.368C978.081,-162.617 975.103,-121.666 973.353,-97.5974"/>
<polygon fill="midnightblue" stroke="midnightblue" points="976.841,-97.3112 972.625,-87.5914 969.859,-97.819 976.841,-97.3112"/>
</g>
<!-- Node34&#45;&gt;Node25 -->
<g id="edge43" class="edge"><title>Node34&#45;&gt;Node25</title>
<path fill="none" stroke="midnightblue" d="M984.695,-180.256C995.677,-160.006 1024.22,-108.526 1052,-68 1060.17,-56.0837 1070.2,-43.2922 1078.18,-33.5005"/>
<polygon fill="midnightblue" stroke="midnightblue" points="1080.9,-35.707 1084.56,-25.7654 1075.5,-31.2529 1080.9,-35.707"/>
</g>
</g>
</svg>
