<?xml version="1.0" encoding="UTF-8" standalone="no"?>
<!DOCTYPE svg PUBLIC "-//W3C//DTD SVG 1.1//EN"
 "http://www.w3.org/Graphics/SVG/1.1/DTD/svg11.dtd">
<!-- Generated by graphviz version 2.36.0 (20140111.2315)
 -->
<!-- Title: /home/travis/build/AliceO2Group/AliceO2/Steer/include/Steer/InteractionSampler.h Pages: 1 -->
<svg width="593pt" height="186pt"
 viewBox="0.00 0.00 593.11 186.00" xmlns="http://www.w3.org/2000/svg" xmlns:xlink="http://www.w3.org/1999/xlink">
<g id="graph0" class="graph" transform="scale(1 1) rotate(0) translate(4 182)">
<title>/home/travis/build/AliceO2Group/AliceO2/Steer/include/Steer/InteractionSampler.h</title>
<!-- Node1 -->
<g id="node1" class="node"><title>Node1</title>
<polygon fill="#bfbfbf" stroke="black" points="118.114,-125 118.114,-177 270.114,-177 270.114,-125 118.114,-125"/>
<text text-anchor="start" x="126.114" y="-165" font-family="Helvetica,sans-Serif" font-size="10.00">/home/travis/build</text>
<text text-anchor="start" x="126.114" y="-154" font-family="Helvetica,sans-Serif" font-size="10.00">/AliceO2Group/AliceO2</text>
<text text-anchor="start" x="126.114" y="-143" font-family="Helvetica,sans-Serif" font-size="10.00">/Steer/include/Steer/Interaction</text>
<text text-anchor="middle" x="194.114" y="-132" font-family="Helvetica,sans-Serif" font-size="10.00">Sampler.h</text>
</g>
<!-- Node2 -->
<g id="node2" class="node"><title>Node2</title>
<polygon fill="none" stroke="#bfbfbf" points="81.114,-0.5 81.114,-19.5 137.114,-19.5 137.114,-0.5 81.114,-0.5"/>
<text text-anchor="middle" x="109.114" y="-7.5" font-family="Helvetica,sans-Serif" font-size="10.00">Rtypes.h</text>
</g>
<!-- Node1&#45;&gt;Node2 -->
<g id="edge1" class="edge"><title>Node1&#45;&gt;Node2</title>
<path fill="none" stroke="midnightblue" d="M118.02,-145.499C77.7944,-138.78 31.5909,-123.229 6.11404,-88 -2.22026,-76.4756 -1.67351,-67.9007 6.11404,-56 20.448,-34.0953 48.0427,-22.7908 71.0644,-16.9919"/>
<polygon fill="midnightblue" stroke="midnightblue" points="71.9443,-20.3814 80.9265,-14.7628 70.4009,-13.5537 71.9443,-20.3814"/>
</g>
<!-- Node3 -->
<g id="node3" class="node"><title>Node3</title>
<polygon fill="none" stroke="#bfbfbf" points="15.614,-62.5 15.614,-81.5 68.614,-81.5 68.614,-62.5 15.614,-62.5"/>
<text text-anchor="middle" x="42.114" y="-69.5" font-family="Helvetica,sans-Serif" font-size="10.00">TMath.h</text>
</g>
<!-- Node1&#45;&gt;Node3 -->
<g id="edge2" class="edge"><title>Node1&#45;&gt;Node3</title>
<path fill="none" stroke="midnightblue" d="M144.344,-124.787C118.931,-111.914 89.0579,-96.7808 68.1905,-86.2098"/>
<polygon fill="midnightblue" stroke="midnightblue" points="69.5095,-82.9545 59.0072,-81.5577 66.3462,-89.199 69.5095,-82.9545"/>
</g>
<!-- Node4 -->
<g id="node4" class="node"><title>Node4</title>
<polygon fill="none" stroke="#bfbfbf" points="87.114,-62.5 87.114,-81.5 155.114,-81.5 155.114,-62.5 87.114,-62.5"/>
<text text-anchor="middle" x="121.114" y="-69.5" font-family="Helvetica,sans-Serif" font-size="10.00">TRandom.h</text>
</g>
<!-- Node1&#45;&gt;Node4 -->
<g id="edge3" class="edge"><title>Node1&#45;&gt;Node4</title>
<path fill="none" stroke="midnightblue" d="M170.211,-124.787C159.055,-113.02 146.11,-99.3661 136.314,-89.033"/>
<polygon fill="midnightblue" stroke="midnightblue" points="138.647,-86.4068 129.227,-81.5577 133.567,-91.2228 138.647,-86.4068"/>
</g>
<!-- Node5 -->
<g id="node5" class="node"><title>Node5</title>
<polygon fill="none" stroke="#bfbfbf" points="173.614,-62.5 173.614,-81.5 214.614,-81.5 214.614,-62.5 173.614,-62.5"/>
<text text-anchor="middle" x="194.114" y="-69.5" font-family="Helvetica,sans-Serif" font-size="10.00">bitset</text>
</g>
<!-- Node1&#45;&gt;Node5 -->
<g id="edge4" class="edge"><title>Node1&#45;&gt;Node5</title>
<path fill="none" stroke="midnightblue" d="M194.114,-124.787C194.114,-114.069 194.114,-101.785 194.114,-91.8708"/>
<polygon fill="midnightblue" stroke="midnightblue" points="197.614,-91.5577 194.114,-81.5577 190.614,-91.5577 197.614,-91.5577"/>
</g>
<!-- Node6 -->
<g id="node6" class="node"><title>Node6</title>
<polygon fill="none" stroke="#bfbfbf" points="233.114,-62.5 233.114,-81.5 277.114,-81.5 277.114,-62.5 233.114,-62.5"/>
<text text-anchor="middle" x="255.114" y="-69.5" font-family="Helvetica,sans-Serif" font-size="10.00">vector</text>
</g>
<!-- Node1&#45;&gt;Node6 -->
<g id="edge5" class="edge"><title>Node1&#45;&gt;Node6</title>
<path fill="none" stroke="midnightblue" d="M214.088,-124.787C223.225,-113.253 233.799,-99.9061 241.923,-89.6508"/>
<polygon fill="midnightblue" stroke="midnightblue" points="244.868,-91.5695 248.335,-81.5577 239.381,-87.2227 244.868,-91.5695"/>
</g>
<!-- Node7 -->
<g id="node7" class="node"><title>Node7</title>
<g id="a_node7"><a xlink:href="../../d9/d80/InteractionRecord_8h.html" target="_top" xlink:title="CommonDataFormat/Interaction\lRecord.h">
<polygon fill="none" stroke="black" points="295.614,-57 295.614,-87 452.614,-87 452.614,-57 295.614,-57"/>
<text text-anchor="start" x="303.614" y="-75" font-family="Helvetica,sans-Serif" font-size="10.00">CommonDataFormat/Interaction</text>
<text text-anchor="middle" x="374.114" y="-64" font-family="Helvetica,sans-Serif" font-size="10.00">Record.h</text>
</a>
</g>
</g>
<!-- Node1&#45;&gt;Node7 -->
<g id="edge6" class="edge"><title>Node1&#45;&gt;Node7</title>
<path fill="none" stroke="midnightblue" d="M253.053,-124.787C278.826,-113.762 308.472,-101.08 331.976,-91.0257"/>
<polygon fill="midnightblue" stroke="midnightblue" points="333.498,-94.1817 341.315,-87.0307 330.744,-87.7458 333.498,-94.1817"/>
</g>
<!-- Node10 -->
<g id="node10" class="node"><title>Node10</title>
<g id="a_node10"><a xlink:href="../../d4/dc6/LHCConstants_8h.html" target="_top" xlink:title="Header to collect LHC related constants. ">
<polygon fill="none" stroke="black" points="408.114,-0.5 408.114,-19.5 586.114,-19.5 586.114,-0.5 408.114,-0.5"/>
<text text-anchor="middle" x="497.114" y="-7.5" font-family="Helvetica,sans-Serif" font-size="10.00">CommonConstants/LHCConstants.h</text>
</a>
</g>
</g>
<!-- Node1&#45;&gt;Node10 -->
<g id="edge11" class="edge"><title>Node1&#45;&gt;Node10</title>
<path fill="none" stroke="midnightblue" d="M270.324,-139.854C338.539,-129.448 432.132,-111.475 461.114,-88 479.261,-73.3011 488.729,-47.3511 493.313,-29.6769"/>
<polygon fill="midnightblue" stroke="midnightblue" points="496.78,-30.2182 495.617,-19.6874 489.959,-28.6451 496.78,-30.2182"/>
</g>
<!-- Node7&#45;&gt;Node2 -->
<g id="edge7" class="edge"><title>Node7&#45;&gt;Node2</title>
<path fill="none" stroke="midnightblue" d="M311.983,-56.9327C260.856,-45.3567 190.037,-29.3221 147.018,-19.5819"/>
<polygon fill="midnightblue" stroke="midnightblue" points="147.758,-16.161 137.232,-17.3662 146.212,-22.9882 147.758,-16.161"/>
</g>
<!-- Node8 -->
<g id="node8" class="node"><title>Node8</title>
<polygon fill="none" stroke="#bfbfbf" points="282.614,-0.5 282.614,-19.5 327.614,-19.5 327.614,-0.5 282.614,-0.5"/>
<text text-anchor="middle" x="305.114" y="-7.5" font-family="Helvetica,sans-Serif" font-size="10.00">iosfwd</text>
</g>
<!-- Node7&#45;&gt;Node8 -->
<g id="edge8" class="edge"><title>Node7&#45;&gt;Node8</title>
<path fill="none" stroke="midnightblue" d="M357.762,-56.7808C347.219,-47.6127 333.514,-35.6957 322.73,-26.3186"/>
<polygon fill="midnightblue" stroke="midnightblue" points="324.997,-23.6512 315.154,-19.7305 320.404,-28.9335 324.997,-23.6512"/>
</g>
<!-- Node9 -->
<g id="node9" class="node"><title>Node9</title>
<polygon fill="none" stroke="#bfbfbf" points="346.114,-0.5 346.114,-19.5 390.114,-19.5 390.114,-0.5 346.114,-0.5"/>
<text text-anchor="middle" x="368.114" y="-7.5" font-family="Helvetica,sans-Serif" font-size="10.00">cmath</text>
</g>
<!-- Node7&#45;&gt;Node9 -->
<g id="edge9" class="edge"><title>Node7&#45;&gt;Node9</title>
<path fill="none" stroke="midnightblue" d="M372.692,-56.7808C371.883,-48.6913 370.86,-38.4617 369.987,-29.725"/>
<polygon fill="midnightblue" stroke="midnightblue" points="373.465,-29.3326 368.987,-19.7305 366.5,-30.0292 373.465,-29.3326"/>
</g>
<!-- Node7&#45;&gt;Node10 -->
<g id="edge10" class="edge"><title>Node7&#45;&gt;Node10</title>
<path fill="none" stroke="midnightblue" d="M402.952,-56.9327C423.333,-46.9907 450.456,-33.7601 470.356,-24.0526"/>
<polygon fill="midnightblue" stroke="midnightblue" points="472.031,-27.13 479.484,-19.6 468.962,-20.8386 472.031,-27.13"/>
</g>
</g>
</svg>
