<?xml version="1.0" encoding="UTF-8" standalone="no"?>
<!DOCTYPE svg PUBLIC "-//W3C//DTD SVG 1.1//EN"
 "http://www.w3.org/Graphics/SVG/1.1/DTD/svg11.dtd">
<!-- Generated by graphviz version 2.36.0 (20140111.2315)
 -->
<!-- Title: /home/travis/build/AliceO2Group/AliceO2/DataFormats/TimeFrame/include/TimeFrame/TimeFrame.h Pages: 1 -->
<svg width="1258pt" height="298pt"
 viewBox="0.00 0.00 1258.00 298.00" xmlns="http://www.w3.org/2000/svg" xmlns:xlink="http://www.w3.org/1999/xlink">
<g id="graph0" class="graph" transform="scale(1 1) rotate(0) translate(4 294)">
<title>/home/travis/build/AliceO2Group/AliceO2/DataFormats/TimeFrame/include/TimeFrame/TimeFrame.h</title>
<!-- Node1 -->
<g id="node1" class="node"><title>Node1</title>
<polygon fill="#bfbfbf" stroke="black" points="395,-237 395,-289 559,-289 559,-237 395,-237"/>
<text text-anchor="start" x="403" y="-277" font-family="Helvetica,sans-Serif" font-size="10.00">/home/travis/build</text>
<text text-anchor="start" x="403" y="-266" font-family="Helvetica,sans-Serif" font-size="10.00">/AliceO2Group/AliceO2</text>
<text text-anchor="start" x="403" y="-255" font-family="Helvetica,sans-Serif" font-size="10.00">/DataFormats/TimeFrame</text>
<text text-anchor="middle" x="477" y="-244" font-family="Helvetica,sans-Serif" font-size="10.00">/include/TimeFrame/TimeFrame.h</text>
</g>
<!-- Node2 -->
<g id="node2" class="node"><title>Node2</title>
<polygon fill="none" stroke="#bfbfbf" points="349,-180.5 349,-199.5 429,-199.5 429,-180.5 349,-180.5"/>
<text text-anchor="middle" x="389" y="-187.5" font-family="Helvetica,sans-Serif" font-size="10.00">FairMQParts.h</text>
</g>
<!-- Node1&#45;&gt;Node2 -->
<g id="edge1" class="edge"><title>Node1&#45;&gt;Node2</title>
<path fill="none" stroke="midnightblue" d="M445.727,-236.768C433.097,-226.578 418.936,-215.153 407.923,-206.267"/>
<polygon fill="midnightblue" stroke="midnightblue" points="409.834,-203.312 399.854,-199.757 405.439,-208.76 409.834,-203.312"/>
</g>
<!-- Node3 -->
<g id="node3" class="node"><title>Node3</title>
<polygon fill="none" stroke="#bfbfbf" points="447.5,-180.5 447.5,-199.5 506.5,-199.5 506.5,-180.5 447.5,-180.5"/>
<text text-anchor="middle" x="477" y="-187.5" font-family="Helvetica,sans-Serif" font-size="10.00">TObject.h</text>
</g>
<!-- Node1&#45;&gt;Node3 -->
<g id="edge2" class="edge"><title>Node1&#45;&gt;Node3</title>
<path fill="none" stroke="midnightblue" d="M477,-236.768C477,-227.89 477,-218.074 477,-209.816"/>
<polygon fill="midnightblue" stroke="midnightblue" points="480.5,-209.757 477,-199.757 473.5,-209.757 480.5,-209.757"/>
</g>
<!-- Node4 -->
<g id="node4" class="node"><title>Node4</title>
<g id="a_node4"><a xlink:href="../../d6/d90/Headers_2include_2Headers_2TimeStamp_8h.html" target="_top" xlink:title="Headers/TimeStamp.h">
<polygon fill="none" stroke="black" points="524.5,-180.5 524.5,-199.5 639.5,-199.5 639.5,-180.5 524.5,-180.5"/>
<text text-anchor="middle" x="582" y="-187.5" font-family="Helvetica,sans-Serif" font-size="10.00">Headers/TimeStamp.h</text>
</a>
</g>
</g>
<!-- Node1&#45;&gt;Node4 -->
<g id="edge3" class="edge"><title>Node1&#45;&gt;Node4</title>
<path fill="none" stroke="midnightblue" d="M514.019,-236.968C529.658,-226.393 547.31,-214.457 560.707,-205.398"/>
<polygon fill="midnightblue" stroke="midnightblue" points="562.901,-208.14 569.224,-199.639 558.98,-202.341 562.901,-208.14"/>
</g>
<!-- Node5 -->
<g id="node5" class="node"><title>Node5</title>
<g id="a_node5"><a xlink:href="../../dc/dcd/DataHeader_8h.html" target="_top" xlink:title="Headers/DataHeader.h">
<polygon fill="none" stroke="black" points="342.5,-124.5 342.5,-143.5 459.5,-143.5 459.5,-124.5 342.5,-124.5"/>
<text text-anchor="middle" x="401" y="-131.5" font-family="Helvetica,sans-Serif" font-size="10.00">Headers/DataHeader.h</text>
</a>
</g>
</g>
<!-- Node4&#45;&gt;Node5 -->
<g id="edge4" class="edge"><title>Node4&#45;&gt;Node5</title>
<path fill="none" stroke="midnightblue" d="M553.32,-180.444C522.473,-171.241 473.272,-156.562 439.171,-146.388"/>
<polygon fill="midnightblue" stroke="midnightblue" points="440.129,-143.021 429.546,-143.516 438.128,-149.729 440.129,-143.021"/>
</g>
<!-- Node8 -->
<g id="node8" class="node"><title>Node8</title>
<polygon fill="none" stroke="#bfbfbf" points="112.5,-68.5 112.5,-87.5 161.5,-87.5 161.5,-68.5 112.5,-68.5"/>
<text text-anchor="middle" x="137" y="-75.5" font-family="Helvetica,sans-Serif" font-size="10.00">cassert</text>
</g>
<!-- Node4&#45;&gt;Node8 -->
<g id="edge26" class="edge"><title>Node4&#45;&gt;Node8</title>
<path fill="none" stroke="midnightblue" d="M524.142,-180.917C473.355,-173.261 397.705,-160.488 333,-144 274.162,-129.007 207.389,-105.402 168.933,-91.1429"/>
<polygon fill="midnightblue" stroke="midnightblue" points="169.92,-87.7756 159.328,-87.5569 167.472,-94.3335 169.92,-87.7756"/>
</g>
<!-- Node18 -->
<g id="node18" class="node"><title>Node18</title>
<polygon fill="none" stroke="#bfbfbf" points="1188,-6.5 1188,-25.5 1250,-25.5 1250,-6.5 1188,-6.5"/>
<text text-anchor="middle" x="1219" y="-13.5" font-family="Helvetica,sans-Serif" font-size="10.00">type_traits</text>
</g>
<!-- Node4&#45;&gt;Node18 -->
<g id="edge27" class="edge"><title>Node4&#45;&gt;Node18</title>
<path fill="none" stroke="midnightblue" d="M606.117,-180.417C643.496,-167.285 717.806,-141.853 782,-124 956.081,-75.5869 1004.83,-83.5815 1178,-32 1181.12,-31.0696 1184.35,-30.0285 1187.57,-28.9403"/>
<polygon fill="midnightblue" stroke="midnightblue" points="1188.77,-32.227 1197.04,-25.5972 1186.44,-25.6264 1188.77,-32.227"/>
</g>
<!-- Node24 -->
<g id="node24" class="node"><title>Node24</title>
<polygon fill="none" stroke="#bfbfbf" points="791,-124.5 791,-143.5 837,-143.5 837,-124.5 791,-124.5"/>
<text text-anchor="middle" x="814" y="-131.5" font-family="Helvetica,sans-Serif" font-size="10.00">chrono</text>
</g>
<!-- Node4&#45;&gt;Node24 -->
<g id="edge25" class="edge"><title>Node4&#45;&gt;Node24</title>
<path fill="none" stroke="midnightblue" d="M619.778,-180.421C659.084,-171.462 722.401,-156.94 777,-144 778.266,-143.7 779.557,-143.393 780.86,-143.081"/>
<polygon fill="midnightblue" stroke="midnightblue" points="782.015,-146.403 790.918,-140.659 780.376,-139.598 782.015,-146.403"/>
</g>
<!-- Node6 -->
<g id="node6" class="node"><title>Node6</title>
<polygon fill="none" stroke="#bfbfbf" points="257,-68.5 257,-87.5 303,-87.5 303,-68.5 257,-68.5"/>
<text text-anchor="middle" x="280" y="-75.5" font-family="Helvetica,sans-Serif" font-size="10.00">cstdint</text>
</g>
<!-- Node5&#45;&gt;Node6 -->
<g id="edge5" class="edge"><title>Node5&#45;&gt;Node6</title>
<path fill="none" stroke="midnightblue" d="M381.827,-124.444C362.091,-115.636 331.115,-101.812 308.507,-91.722"/>
<polygon fill="midnightblue" stroke="midnightblue" points="309.641,-88.3957 299.083,-87.5164 306.789,-94.788 309.641,-88.3957"/>
</g>
<!-- Node7 -->
<g id="node7" class="node"><title>Node7</title>
<polygon fill="none" stroke="#bfbfbf" points="321,-68.5 321,-87.5 373,-87.5 373,-68.5 321,-68.5"/>
<text text-anchor="middle" x="347" y="-75.5" font-family="Helvetica,sans-Serif" font-size="10.00">memory</text>
</g>
<!-- Node5&#45;&gt;Node7 -->
<g id="edge6" class="edge"><title>Node5&#45;&gt;Node7</title>
<path fill="none" stroke="midnightblue" d="M392.083,-124.083C384.22,-116.22 372.569,-104.569 363.081,-95.0813"/>
<polygon fill="midnightblue" stroke="midnightblue" points="365.297,-92.3473 355.751,-87.7511 360.347,-97.2971 365.297,-92.3473"/>
</g>
<!-- Node5&#45;&gt;Node8 -->
<g id="edge7" class="edge"><title>Node5&#45;&gt;Node8</title>
<path fill="none" stroke="midnightblue" d="M351.658,-124.478C306.934,-116.508 239.006,-103.797 171.734,-88.2875"/>
<polygon fill="midnightblue" stroke="midnightblue" points="172.349,-84.8372 161.816,-85.9791 170.762,-91.655 172.349,-84.8372"/>
</g>
<!-- Node9 -->
<g id="node9" class="node"><title>Node9</title>
<polygon fill="none" stroke="#bfbfbf" points="0,-6.5 0,-25.5 46,-25.5 46,-6.5 0,-6.5"/>
<text text-anchor="middle" x="23" y="-13.5" font-family="Helvetica,sans-Serif" font-size="10.00">cstring</text>
</g>
<!-- Node5&#45;&gt;Node9 -->
<g id="edge8" class="edge"><title>Node5&#45;&gt;Node9</title>
<path fill="none" stroke="midnightblue" d="M401.273,-124.231C401.192,-109.999 398.753,-82.0547 382,-68 325.993,-21.0142 125.379,-51.7808 55,-32 52.6576,-31.3416 50.273,-30.5273 47.9156,-29.6211"/>
<polygon fill="midnightblue" stroke="midnightblue" points="49.1204,-26.3284 38.5547,-25.5432 46.3247,-32.7459 49.1204,-26.3284"/>
</g>
<!-- Node10 -->
<g id="node10" class="node"><title>Node10</title>
<polygon fill="none" stroke="#bfbfbf" points="679,-68.5 679,-87.5 735,-87.5 735,-68.5 679,-68.5"/>
<text text-anchor="middle" x="707" y="-75.5" font-family="Helvetica,sans-Serif" font-size="10.00">algorithm</text>
</g>
<!-- Node5&#45;&gt;Node10 -->
<g id="edge9" class="edge"><title>Node5&#45;&gt;Node10</title>
<path fill="none" stroke="midnightblue" d="M458.448,-124.481C512.853,-116.146 596.744,-102.606 669,-88 669.1,-87.9799 669.199,-87.9596 669.299,-87.9393"/>
<polygon fill="midnightblue" stroke="midnightblue" points="669.783,-91.4155 678.824,-85.8924 668.312,-84.5717 669.783,-91.4155"/>
</g>
<!-- Node11 -->
<g id="node11" class="node"><title>Node11</title>
<polygon fill="none" stroke="#bfbfbf" points="179.5,-68.5 179.5,-87.5 238.5,-87.5 238.5,-68.5 179.5,-68.5"/>
<text text-anchor="middle" x="209" y="-75.5" font-family="Helvetica,sans-Serif" font-size="10.00">stdexcept</text>
</g>
<!-- Node5&#45;&gt;Node11 -->
<g id="edge10" class="edge"><title>Node5&#45;&gt;Node11</title>
<path fill="none" stroke="midnightblue" d="M370.577,-124.444C337.522,-115.147 284.597,-100.262 248.389,-90.0781"/>
<polygon fill="midnightblue" stroke="midnightblue" points="249.224,-86.6772 238.65,-87.339 247.329,-93.4158 249.224,-86.6772"/>
</g>
<!-- Node12 -->
<g id="node12" class="node"><title>Node12</title>
<polygon fill="none" stroke="#bfbfbf" points="64.5,-6.5 64.5,-25.5 105.5,-25.5 105.5,-6.5 64.5,-6.5"/>
<text text-anchor="middle" x="85" y="-13.5" font-family="Helvetica,sans-Serif" font-size="10.00">string</text>
</g>
<!-- Node5&#45;&gt;Node12 -->
<g id="edge11" class="edge"><title>Node5&#45;&gt;Node12</title>
<path fill="none" stroke="midnightblue" d="M407.045,-124.237C415.698,-110.515 429.099,-83.8858 415,-68 370.283,-17.6162 178.393,-51.7914 114,-32 112.09,-31.413 110.156,-30.7032 108.241,-29.9156"/>
<polygon fill="midnightblue" stroke="midnightblue" points="109.557,-26.666 99.0228,-25.5374 106.554,-32.9891 109.557,-26.666"/>
</g>
<!-- Node13 -->
<g id="node13" class="node"><title>Node13</title>
<g id="a_node13"><a xlink:href="../../dc/d03/MemoryResources_8h.html" target="_top" xlink:title="MemoryResources/MemoryResources.h">
<polygon fill="none" stroke="black" points="467.5,-68.5 467.5,-87.5 660.5,-87.5 660.5,-68.5 467.5,-68.5"/>
<text text-anchor="middle" x="564" y="-75.5" font-family="Helvetica,sans-Serif" font-size="10.00">MemoryResources/MemoryResources.h</text>
</a>
</g>
</g>
<!-- Node5&#45;&gt;Node13 -->
<g id="edge12" class="edge"><title>Node5&#45;&gt;Node13</title>
<path fill="none" stroke="midnightblue" d="M426.828,-124.444C454.249,-115.359 497.777,-100.939 528.432,-90.7831"/>
<polygon fill="midnightblue" stroke="midnightblue" points="529.901,-93.9837 538.293,-87.5164 527.7,-87.3389 529.901,-93.9837"/>
</g>
<!-- Node13&#45;&gt;Node9 -->
<g id="edge17" class="edge"><title>Node13&#45;&gt;Node9</title>
<path fill="none" stroke="midnightblue" d="M467.383,-70.2848C330.841,-60.5157 93.6524,-42.4173 55,-32 52.6507,-31.3668 50.2613,-30.5699 47.9007,-29.6751"/>
<polygon fill="midnightblue" stroke="midnightblue" points="49.1021,-26.3812 38.535,-25.6149 46.3178,-32.8037 49.1021,-26.3812"/>
</g>
<!-- Node13&#45;&gt;Node12 -->
<g id="edge18" class="edge"><title>Node13&#45;&gt;Node12</title>
<path fill="none" stroke="midnightblue" d="M469.863,-68.495C342.949,-56.896 130.795,-36.9844 114,-32 112.084,-31.4315 110.147,-30.7352 108.229,-29.957"/>
<polygon fill="midnightblue" stroke="midnightblue" points="109.542,-26.7061 99.0049,-25.5967 106.55,-33.0347 109.542,-26.7061"/>
</g>
<!-- Node14 -->
<g id="node14" class="node"><title>Node14</title>
<polygon fill="none" stroke="#bfbfbf" points="388,-1 388,-31 488,-31 488,-1 388,-1"/>
<text text-anchor="start" x="396" y="-19" font-family="Helvetica,sans-Serif" font-size="10.00">boost/container/flat</text>
<text text-anchor="middle" x="438" y="-8" font-family="Helvetica,sans-Serif" font-size="10.00">_map.hpp</text>
</g>
<!-- Node13&#45;&gt;Node14 -->
<g id="edge13" class="edge"><title>Node13&#45;&gt;Node14</title>
<path fill="none" stroke="midnightblue" d="M545.947,-68.4035C528.005,-59.8596 499.914,-46.483 476.886,-35.5171"/>
<polygon fill="midnightblue" stroke="midnightblue" points="478.229,-32.2802 467.696,-31.1408 475.22,-38.6002 478.229,-32.2802"/>
</g>
<!-- Node15 -->
<g id="node15" class="node"><title>Node15</title>
<polygon fill="none" stroke="#bfbfbf" points="506,-1 506,-31 622,-31 622,-1 506,-1"/>
<text text-anchor="start" x="514" y="-19" font-family="Helvetica,sans-Serif" font-size="10.00">boost/container/pmr</text>
<text text-anchor="middle" x="564" y="-8" font-family="Helvetica,sans-Serif" font-size="10.00">/memory_resource.hpp</text>
</g>
<!-- Node13&#45;&gt;Node15 -->
<g id="edge14" class="edge"><title>Node13&#45;&gt;Node15</title>
<path fill="none" stroke="midnightblue" d="M564,-68.4035C564,-61.3405 564,-50.975 564,-41.399"/>
<polygon fill="midnightblue" stroke="midnightblue" points="567.5,-41.1408 564,-31.1408 560.5,-41.1408 567.5,-41.1408"/>
</g>
<!-- Node16 -->
<g id="node16" class="node"><title>Node16</title>
<polygon fill="none" stroke="#bfbfbf" points="640,-1 640,-31 796,-31 796,-1 640,-1"/>
<text text-anchor="start" x="648" y="-19" font-family="Helvetica,sans-Serif" font-size="10.00">boost/container/pmr</text>
<text text-anchor="middle" x="718" y="-8" font-family="Helvetica,sans-Serif" font-size="10.00">/monotonic_buffer_resource.hpp</text>
</g>
<!-- Node13&#45;&gt;Node16 -->
<g id="edge15" class="edge"><title>Node13&#45;&gt;Node16</title>
<path fill="none" stroke="midnightblue" d="M586.064,-68.4035C608.556,-59.6406 644.095,-45.7942 672.624,-34.6789"/>
<polygon fill="midnightblue" stroke="midnightblue" points="673.955,-37.9169 682.002,-31.0253 671.413,-31.3945 673.955,-37.9169"/>
</g>
<!-- Node17 -->
<g id="node17" class="node"><title>Node17</title>
<polygon fill="none" stroke="#bfbfbf" points="814.5,-1 814.5,-31 947.5,-31 947.5,-1 814.5,-1"/>
<text text-anchor="start" x="822.5" y="-19" font-family="Helvetica,sans-Serif" font-size="10.00">boost/container/pmr</text>
<text text-anchor="middle" x="881" y="-8" font-family="Helvetica,sans-Serif" font-size="10.00">/polymorphic_allocator.hpp</text>
</g>
<!-- Node13&#45;&gt;Node17 -->
<g id="edge16" class="edge"><title>Node13&#45;&gt;Node17</title>
<path fill="none" stroke="midnightblue" d="M610.678,-68.4309C657.16,-59.8649 730.824,-46.2011 804.376,-32.109"/>
<polygon fill="midnightblue" stroke="midnightblue" points="805.118,-35.5305 814.279,-30.2088 803.799,-28.6559 805.118,-35.5305"/>
</g>
<!-- Node13&#45;&gt;Node18 -->
<g id="edge19" class="edge"><title>Node13&#45;&gt;Node18</title>
<path fill="none" stroke="midnightblue" d="M660.758,-68.7286C663.875,-68.4801 666.962,-68.2366 670,-68 895.661,-50.4251 956.663,-79.347 1178,-32 1181.7,-31.2082 1185.52,-30.1546 1189.27,-28.9714"/>
<polygon fill="midnightblue" stroke="midnightblue" points="1190.6,-32.2147 1198.89,-25.6276 1188.3,-25.6021 1190.6,-32.2147"/>
</g>
<!-- Node19 -->
<g id="node19" class="node"><title>Node19</title>
<polygon fill="none" stroke="#bfbfbf" points="966,-6.5 966,-25.5 1006,-25.5 1006,-6.5 966,-6.5"/>
<text text-anchor="middle" x="986" y="-13.5" font-family="Helvetica,sans-Serif" font-size="10.00">utility</text>
</g>
<!-- Node13&#45;&gt;Node19 -->
<g id="edge20" class="edge"><title>Node13&#45;&gt;Node19</title>
<path fill="none" stroke="midnightblue" d="M652.406,-68.4932C759.055,-57.9744 927.642,-40.4306 956,-32 957.968,-31.4151 959.962,-30.7068 961.939,-29.9203"/>
<polygon fill="midnightblue" stroke="midnightblue" points="963.841,-32.8984 971.467,-25.5441 960.919,-26.5372 963.841,-32.8984"/>
</g>
<!-- Node20 -->
<g id="node20" class="node"><title>Node20</title>
<polygon fill="none" stroke="#bfbfbf" points="1024,-6.5 1024,-25.5 1068,-25.5 1068,-6.5 1024,-6.5"/>
<text text-anchor="middle" x="1046" y="-13.5" font-family="Helvetica,sans-Serif" font-size="10.00">vector</text>
</g>
<!-- Node13&#45;&gt;Node20 -->
<g id="edge21" class="edge"><title>Node13&#45;&gt;Node20</title>
<path fill="none" stroke="midnightblue" d="M657.794,-68.4846C784.907,-56.8213 998.079,-36.7752 1015,-32 1017.2,-31.3799 1019.43,-30.611 1021.64,-29.7515"/>
<polygon fill="midnightblue" stroke="midnightblue" points="1023.26,-32.8577 1030.97,-25.5842 1020.41,-26.4661 1023.26,-32.8577"/>
</g>
<!-- Node21 -->
<g id="node21" class="node"><title>Node21</title>
<polygon fill="none" stroke="#bfbfbf" points="1086.5,-6.5 1086.5,-25.5 1169.5,-25.5 1169.5,-6.5 1086.5,-6.5"/>
<text text-anchor="middle" x="1128" y="-13.5" font-family="Helvetica,sans-Serif" font-size="10.00">unordered_map</text>
</g>
<!-- Node13&#45;&gt;Node21 -->
<g id="edge22" class="edge"><title>Node13&#45;&gt;Node21</title>
<path fill="none" stroke="midnightblue" d="M660.622,-68.7443C806.179,-56.2741 1065.92,-33.8788 1076,-32 1081.23,-31.0244 1086.7,-29.7457 1092.04,-28.3458"/>
<polygon fill="midnightblue" stroke="midnightblue" points="1093.36,-31.6112 1102.05,-25.5524 1091.48,-24.8687 1093.36,-31.6112"/>
</g>
<!-- Node22 -->
<g id="node22" class="node"><title>Node22</title>
<polygon fill="none" stroke="#bfbfbf" points="123.5,-6.5 123.5,-25.5 220.5,-25.5 220.5,-6.5 123.5,-6.5"/>
<text text-anchor="middle" x="172" y="-13.5" font-family="Helvetica,sans-Serif" font-size="10.00">FairMQMessage.h</text>
</g>
<!-- Node13&#45;&gt;Node22 -->
<g id="edge23" class="edge"><title>Node13&#45;&gt;Node22</title>
<path fill="none" stroke="midnightblue" d="M478.5,-68.4684C410.52,-60.976 313.189,-48.6654 229,-32 223.416,-30.8947 217.568,-29.5615 211.834,-28.1517"/>
<polygon fill="midnightblue" stroke="midnightblue" points="212.272,-24.6513 201.717,-25.5639 210.538,-31.433 212.272,-24.6513"/>
</g>
<!-- Node23 -->
<g id="node23" class="node"><title>Node23</title>
<polygon fill="none" stroke="#bfbfbf" points="238.5,-6.5 238.5,-25.5 369.5,-25.5 369.5,-6.5 238.5,-6.5"/>
<text text-anchor="middle" x="304" y="-13.5" font-family="Helvetica,sans-Serif" font-size="10.00">FairMQTransportFactory.h</text>
</g>
<!-- Node13&#45;&gt;Node23 -->
<g id="edge24" class="edge"><title>Node13&#45;&gt;Node23</title>
<path fill="none" stroke="midnightblue" d="M527.024,-68.4672C480.724,-57.7825 401.365,-39.4687 350.856,-27.8129"/>
<polygon fill="midnightblue" stroke="midnightblue" points="351.379,-24.3417 340.848,-25.5034 349.805,-31.1624 351.379,-24.3417"/>
</g>
</g>
</svg>
