<?xml version="1.0" encoding="UTF-8" standalone="no"?>
<!DOCTYPE svg PUBLIC "-//W3C//DTD SVG 1.1//EN"
 "http://www.w3.org/Graphics/SVG/1.1/DTD/svg11.dtd">
<!-- Generated by graphviz version 2.36.0 (20140111.2315)
 -->
<!-- Title: o2::InteractionRecord Pages: 1 -->
<svg width="119pt" height="272pt"
 viewBox="0.00 0.00 119.00 272.00" xmlns="http://www.w3.org/2000/svg" xmlns:xlink="http://www.w3.org/1999/xlink">
<g id="graph0" class="graph" transform="scale(1 1) rotate(0) translate(4 268)">
<title>o2::InteractionRecord</title>
<!-- Node1 -->
<g id="node1" class="node"><title>Node1</title>
<polygon fill="#bfbfbf" stroke="black" points="0,-1 0,-135 110,-135 110,-1 0,-1"/>
<text text-anchor="middle" x="55" y="-123" font-family="Helvetica,sans-Serif" font-size="10.00">o2::InteractionRecord</text>
<polyline fill="none" stroke="black" points="0,-116 110,-116 "/>
<text text-anchor="middle" x="55" y="-104" font-family="Helvetica,sans-Serif" font-size="10.00"> </text>
<polyline fill="none" stroke="black" points="0,-97 110,-97 "/>
<text text-anchor="start" x="8" y="-85" font-family="Helvetica,sans-Serif" font-size="10.00">+ InteractionRecord()</text>
<text text-anchor="start" x="8" y="-74" font-family="Helvetica,sans-Serif" font-size="10.00">+ InteractionRecord()</text>
<text text-anchor="start" x="8" y="-63" font-family="Helvetica,sans-Serif" font-size="10.00">+ InteractionRecord()</text>
<text text-anchor="start" x="8" y="-52" font-family="Helvetica,sans-Serif" font-size="10.00">+ setFromNS()</text>
<text text-anchor="start" x="8" y="-41" font-family="Helvetica,sans-Serif" font-size="10.00">+ print()</text>
<text text-anchor="start" x="8" y="-30" font-family="Helvetica,sans-Serif" font-size="10.00">+ ClassDefNV()</text>
<text text-anchor="start" x="8" y="-19" font-family="Helvetica,sans-Serif" font-size="10.00">+ bc2ns()</text>
<text text-anchor="start" x="8" y="-8" font-family="Helvetica,sans-Serif" font-size="10.00">+ ns2bc()</text>
</g>
<!-- Node2 -->
<g id="node2" class="node"><title>Node2</title>
<g id="a_node2"><a xlink:href="../../df/de6/classdouble.html" target="_top" xlink:title="{double\n||}">
<polygon fill="none" stroke="black" points="-0.5,-206.5 -0.5,-263.5 44.5,-263.5 44.5,-206.5 -0.5,-206.5"/>
<text text-anchor="middle" x="22" y="-251.5" font-family="Helvetica,sans-Serif" font-size="10.00">double</text>
<polyline fill="none" stroke="black" points="-0.5,-244.5 44.5,-244.5 "/>
<text text-anchor="middle" x="22" y="-232.5" font-family="Helvetica,sans-Serif" font-size="10.00"> </text>
<polyline fill="none" stroke="black" points="-0.5,-225.5 44.5,-225.5 "/>
<text text-anchor="middle" x="22" y="-213.5" font-family="Helvetica,sans-Serif" font-size="10.00"> </text>
</a>
</g>
</g>
<!-- Node2&#45;&gt;Node1 -->
<g id="edge1" class="edge"><title>Node2&#45;&gt;Node1</title>
<path fill="none" stroke="#404040" d="M20.0042,-206.368C19.4658,-190.847 19.7587,-171.199 23,-154 23.438,-151.676 23.9346,-149.332 24.4814,-146.979"/>
<polygon fill="none" stroke="#404040" points="24.5317,-146.788 22.1955,-139.966 27.5944,-135.185 29.9306,-142.008 24.5317,-146.788"/>
<text text-anchor="middle" x="44.5" y="-168.5" font-family="Helvetica,sans-Serif" font-size="10.00"> +timeNS</text>
</g>
<!-- Node3 -->
<g id="node3" class="node"><title>Node3</title>
<polygon fill="none" stroke="#bfbfbf" points="73.5,-206.5 73.5,-263.5 102.5,-263.5 102.5,-206.5 73.5,-206.5"/>
<text text-anchor="middle" x="88" y="-251.5" font-family="Helvetica,sans-Serif" font-size="10.00">int</text>
<polyline fill="none" stroke="#bfbfbf" points="73.5,-244.5 102.5,-244.5 "/>
<text text-anchor="middle" x="88" y="-232.5" font-family="Helvetica,sans-Serif" font-size="10.00"> </text>
<polyline fill="none" stroke="#bfbfbf" points="73.5,-225.5 102.5,-225.5 "/>
<text text-anchor="middle" x="88" y="-213.5" font-family="Helvetica,sans-Serif" font-size="10.00"> </text>
</g>
<!-- Node3&#45;&gt;Node1 -->
<g id="edge2" class="edge"><title>Node3&#45;&gt;Node1</title>
<path fill="none" stroke="#404040" d="M82.4765,-206.383C79.2097,-190.048 74.8922,-168.461 70.6499,-147.249"/>
<polygon fill="none" stroke="#404040" points="70.5924,-146.961 65.4933,-141.862 68.2389,-135.194 73.338,-140.293 70.5924,-146.961"/>
<text text-anchor="middle" x="94.5" y="-179.5" font-family="Helvetica,sans-Serif" font-size="10.00"> +bc</text>
<text text-anchor="middle" x="94.5" y="-168.5" font-family="Helvetica,sans-Serif" font-size="10.00">+orbit</text>
<text text-anchor="middle" x="94.5" y="-157.5" font-family="Helvetica,sans-Serif" font-size="10.00">+period</text>
</g>
</g>
</svg>
