<?xml version="1.0" encoding="UTF-8" standalone="no"?>
<!DOCTYPE svg PUBLIC "-//W3C//DTD SVG 1.1//EN"
 "http://www.w3.org/Graphics/SVG/1.1/DTD/svg11.dtd">
<!-- Generated by graphviz version 2.36.0 (20140111.2315)
 -->
<!-- Title: /home/travis/build/AliceO2Group/AliceO2/Algorithm/test/tableview.cxx Pages: 1 -->
<!--zoomable 298 -->
<svg id="main" version="1.1" xmlns="http://www.w3.org/2000/svg" xmlns:xlink="http://www.w3.org/1999/xlink" xml:space="preserve" onload="init(evt)">
<style type="text/css"><![CDATA[
.edge:hover path { stroke: red; }
.edge:hover polygon { stroke: red; fill: red; }
]]></style>
<script type="text/javascript"><![CDATA[
var edges = document.getElementsByTagName('g');
if (edges && edges.length) {
  for (var i=0;i<edges.length;i++) {
    if (edges[i].id.substr(0,4)=='edge') {
      edges[i].setAttribute('class','edge');
    }
  }
}
]]></script>
        <defs>
                <circle id="rim" cx="0" cy="0" r="7"/>
                <circle id="rim2" cx="0" cy="0" r="3.5"/>
                <g id="zoomPlus">
                        <use xlink:href="#rim" fill="#404040">
                                <set attributeName="fill" to="#808080" begin="zoomplus.mouseover" end="zoomplus.mouseout"/>
                        </use>
                        <path d="M-4,0h8M0,-4v8" fill="none" stroke="white" stroke-width="1.5" pointer-events="none"/>
                </g>
                <g id="zoomMin">
                        <use xlink:href="#rim" fill="#404040">
                                <set attributeName="fill" to="#808080" begin="zoomminus.mouseover" end="zoomminus.mouseout"/>
                        </use>
                        <path d="M-4,0h8" fill="none" stroke="white" stroke-width="1.5" pointer-events="none"/>
                </g>
                <g id="dirArrow">
                        <path fill="none" stroke="white" stroke-width="1.5" d="M0,-3.0v7 M-2.5,-0.5L0,-3.0L2.5,-0.5"/>
                </g>
               <g id="resetDef">
                       <use xlink:href="#rim2" fill="#404040">
                               <set attributeName="fill" to="#808080" begin="reset.mouseover" end="reset.mouseout"/>
                       </use>
               </g>
        </defs>

<script type="text/javascript">
var viewWidth = 1258;
var viewHeight = 298;
var sectionId = 'dynsection-0';
</script>
<script xlink:href="../../svgpan.js"/>
<svg id="graph" class="graph">
<g id="viewport">
<title>/home/travis/build/AliceO2Group/AliceO2/Algorithm/test/tableview.cxx</title>
<!-- Node1 -->
<g id="node1" class="node"><title>Node1</title>
<polygon fill="#bfbfbf" stroke="black" points="413.5,-248.5 413.5,-289.5 556.5,-289.5 556.5,-248.5 413.5,-248.5"/>
<text text-anchor="start" x="421.5" y="-277.5" font-family="Helvetica,sans-Serif" font-size="10.00">/home/travis/build</text>
<text text-anchor="start" x="421.5" y="-266.5" font-family="Helvetica,sans-Serif" font-size="10.00">/AliceO2Group/AliceO2</text>
<text text-anchor="middle" x="485" y="-255.5" font-family="Helvetica,sans-Serif" font-size="10.00">/Algorithm/test/tableview.cxx</text>
</g>
<!-- Node2 -->
<g id="node2" class="node"><title>Node2</title>
<polygon fill="none" stroke="#bfbfbf" points="30.5,-186.5 30.5,-205.5 149.5,-205.5 149.5,-186.5 30.5,-186.5"/>
<text text-anchor="middle" x="90" y="-193.5" font-family="Helvetica,sans-Serif" font-size="10.00">boost/test/unit_test.hpp</text>
</g>
<!-- Node1&#45;&gt;Node2 -->
<g id="edge1" class="edge"><title>Node1&#45;&gt;Node2</title>
<path fill="none" stroke="midnightblue" d="M413.289,-256.611C347.126,-245.883 246.233,-228.966 159,-212 152.209,-210.679 145.058,-209.212 138.037,-207.726"/>
<polygon fill="midnightblue" stroke="midnightblue" points="138.411,-204.227 127.899,-205.553 136.943,-211.072 138.411,-204.227"/>
</g>
<!-- Node3 -->
<g id="node3" class="node"><title>Node3</title>
<polygon fill="none" stroke="#bfbfbf" points="168,-186.5 168,-205.5 222,-205.5 222,-186.5 168,-186.5"/>
<text text-anchor="middle" x="195" y="-193.5" font-family="Helvetica,sans-Serif" font-size="10.00">iostream</text>
</g>
<!-- Node1&#45;&gt;Node3 -->
<g id="edge2" class="edge"><title>Node1&#45;&gt;Node3</title>
<path fill="none" stroke="midnightblue" d="M413.489,-255.756C362.099,-246.108 291.499,-231.106 231,-212 228.425,-211.187 225.78,-210.263 223.147,-209.283"/>
<polygon fill="midnightblue" stroke="midnightblue" points="224.408,-206.018 213.822,-205.583 221.826,-212.525 224.408,-206.018"/>
</g>
<!-- Node4 -->
<g id="node4" class="node"><title>Node4</title>
<polygon fill="none" stroke="#bfbfbf" points="240,-186.5 240,-205.5 290,-205.5 290,-186.5 240,-186.5"/>
<text text-anchor="middle" x="265" y="-193.5" font-family="Helvetica,sans-Serif" font-size="10.00">iomanip</text>
</g>
<!-- Node1&#45;&gt;Node4 -->
<g id="edge3" class="edge"><title>Node1&#45;&gt;Node4</title>
<path fill="none" stroke="midnightblue" d="M418.031,-248.45C383.748,-238.147 341.451,-224.979 304,-212 301.391,-211.096 298.696,-210.129 295.997,-209.138"/>
<polygon fill="midnightblue" stroke="midnightblue" points="296.953,-205.758 286.361,-205.513 294.488,-212.31 296.953,-205.758"/>
</g>
<!-- Node5 -->
<g id="node5" class="node"><title>Node5</title>
<polygon fill="none" stroke="#bfbfbf" points="0,-6.5 0,-25.5 46,-25.5 46,-6.5 0,-6.5"/>
<text text-anchor="middle" x="23" y="-13.5" font-family="Helvetica,sans-Serif" font-size="10.00">cstring</text>
</g>
<!-- Node1&#45;&gt;Node5 -->
<g id="edge4" class="edge"><title>Node1&#45;&gt;Node5</title>
<path fill="none" stroke="midnightblue" d="M448.748,-248.304C358.378,-199.208 124.858,-72.3384 47.962,-30.5616"/>
<polygon fill="midnightblue" stroke="midnightblue" points="49.4363,-27.3794 38.9785,-25.681 46.0946,-33.5303 49.4363,-27.3794"/>
</g>
<!-- Node6 -->
<g id="node6" class="node"><title>Node6</title>
<g id="a_node6"><a xlink:href="../../dc/dcd/DataHeader_8h.html" target="_top" xlink:title="Headers/DataHeader.h">
<polygon fill="none" stroke="black" points="426.5,-124.5 426.5,-143.5 543.5,-143.5 543.5,-124.5 426.5,-124.5"/>
<text text-anchor="middle" x="485" y="-131.5" font-family="Helvetica,sans-Serif" font-size="10.00">Headers/DataHeader.h</text>
</a>
</g>
</g>
<!-- Node1&#45;&gt;Node6 -->
<g id="edge5" class="edge"><title>Node1&#45;&gt;Node6</title>
<path fill="none" stroke="midnightblue" d="M485,-248.375C485,-222.935 485,-178.871 485,-153.827"/>
<polygon fill="midnightblue" stroke="midnightblue" points="488.5,-153.794 485,-143.794 481.5,-153.794 488.5,-153.794"/>
</g>
<!-- Node24 -->
<g id="node24" class="node"><title>Node24</title>
<g id="a_node24"><a xlink:href="../../d2/d09/HeartbeatFrame_8h.html" target="_top" xlink:title="Headers/HeartbeatFrame.h">
<polygon fill="none" stroke="black" points="707.5,-186.5 707.5,-205.5 842.5,-205.5 842.5,-186.5 707.5,-186.5"/>
<text text-anchor="middle" x="775" y="-193.5" font-family="Helvetica,sans-Serif" font-size="10.00">Headers/HeartbeatFrame.h</text>
</a>
</g>
</g>
<!-- Node1&#45;&gt;Node24 -->
<g id="edge26" class="edge"><title>Node1&#45;&gt;Node24</title>
<path fill="none" stroke="midnightblue" d="M556.685,-250.449C611.065,-237.136 684.114,-219.251 730.384,-207.923"/>
<polygon fill="midnightblue" stroke="midnightblue" points="731.238,-211.318 740.118,-205.54 729.573,-204.519 731.238,-211.318"/>
</g>
<!-- Node27 -->
<g id="node27" class="node"><title>Node27</title>
<g id="a_node27"><a xlink:href="../../d7/d36/TableView_8h.html" target="_top" xlink:title="Container class for multiple sequences of data wrapped by markers. ">
<polygon fill="none" stroke="black" points="860.5,-181 860.5,-211 961.5,-211 961.5,-181 860.5,-181"/>
<text text-anchor="start" x="868.5" y="-199" font-family="Helvetica,sans-Serif" font-size="10.00">../include/Algorithm</text>
<text text-anchor="middle" x="911" y="-188" font-family="Helvetica,sans-Serif" font-size="10.00">/TableView.h</text>
</a>
</g>
</g>
<!-- Node1&#45;&gt;Node27 -->
<g id="edge31" class="edge"><title>Node1&#45;&gt;Node27</title>
<path fill="none" stroke="midnightblue" d="M556.536,-259.061C628.325,-249.636 742.227,-233.448 850.239,-212.039"/>
<polygon fill="midnightblue" stroke="midnightblue" points="851.217,-215.412 860.336,-210.018 849.844,-208.548 851.217,-215.412"/>
</g>
<!-- Node28 -->
<g id="node28" class="node"><title>Node28</title>
<g id="a_node28"><a xlink:href="../../d6/d0c/Parser_8h.html" target="_top" xlink:title="Utilities for parsing of data sequences. ">
<polygon fill="none" stroke="black" points="979.5,-181 979.5,-211 1080.5,-211 1080.5,-181 979.5,-181"/>
<text text-anchor="start" x="987.5" y="-199" font-family="Helvetica,sans-Serif" font-size="10.00">../include/Algorithm</text>
<text text-anchor="middle" x="1030" y="-188" font-family="Helvetica,sans-Serif" font-size="10.00">/Parser.h</text>
</a>
</g>
</g>
<!-- Node1&#45;&gt;Node28 -->
<g id="edge34" class="edge"><title>Node1&#45;&gt;Node28</title>
<path fill="none" stroke="midnightblue" d="M556.515,-262.67C649.463,-255.09 816.885,-239.214 969.342,-211.963"/>
<polygon fill="midnightblue" stroke="midnightblue" points="970.144,-215.375 979.362,-210.151 968.898,-208.486 970.144,-215.375"/>
</g>
<!-- Node29 -->
<g id="node29" class="node"><title>Node29</title>
<g id="a_node29"><a xlink:href="../../d2/d79/StaticSequenceAllocator_8h.html" target="_top" xlink:title="An allocator for static sequences of object types. ">
<polygon fill="none" stroke="black" points="1099,-186.5 1099,-205.5 1231,-205.5 1231,-186.5 1099,-186.5"/>
<text text-anchor="middle" x="1165" y="-193.5" font-family="Helvetica,sans-Serif" font-size="10.00">StaticSequenceAllocator.h</text>
</a>
</g>
</g>
<!-- Node1&#45;&gt;Node29 -->
<g id="edge37" class="edge"><title>Node1&#45;&gt;Node29</title>
<path fill="none" stroke="midnightblue" d="M556.873,-263.726C670.338,-256.443 897.745,-239.666 1089,-212 1097.7,-210.741 1106.92,-209.146 1115.82,-207.47"/>
<polygon fill="midnightblue" stroke="midnightblue" points="1116.54,-210.896 1125.69,-205.556 1115.2,-204.024 1116.54,-210.896"/>
</g>
<!-- Node6&#45;&gt;Node5 -->
<g id="edge9" class="edge"><title>Node6&#45;&gt;Node5</title>
<path fill="none" stroke="midnightblue" d="M480.265,-124.4C471.751,-109.887 452.358,-80.8609 427,-68 278.857,7.1323 215.202,-75.8901 55,-32 52.6533,-31.3571 50.2658,-30.5534 47.9064,-29.6542"/>
<polygon fill="midnightblue" stroke="midnightblue" points="49.1091,-26.3608 38.5425,-25.5872 46.3204,-32.7813 49.1091,-26.3608"/>
</g>
<!-- Node7 -->
<g id="node7" class="node"><title>Node7</title>
<polygon fill="none" stroke="#bfbfbf" points="725,-68.5 725,-87.5 771,-87.5 771,-68.5 725,-68.5"/>
<text text-anchor="middle" x="748" y="-75.5" font-family="Helvetica,sans-Serif" font-size="10.00">cstdint</text>
</g>
<!-- Node6&#45;&gt;Node7 -->
<g id="edge6" class="edge"><title>Node6&#45;&gt;Node7</title>
<path fill="none" stroke="midnightblue" d="M534.127,-124.462C580.846,-116.089 652.997,-102.5 715,-88 715.101,-87.9763 715.203,-87.9526 715.304,-87.9287"/>
<polygon fill="midnightblue" stroke="midnightblue" points="716.124,-91.3316 724.976,-85.5098 714.425,-84.5408 716.124,-91.3316"/>
</g>
<!-- Node8 -->
<g id="node8" class="node"><title>Node8</title>
<polygon fill="none" stroke="#bfbfbf" points="789,-68.5 789,-87.5 841,-87.5 841,-68.5 789,-68.5"/>
<text text-anchor="middle" x="815" y="-75.5" font-family="Helvetica,sans-Serif" font-size="10.00">memory</text>
</g>
<!-- Node6&#45;&gt;Node8 -->
<g id="edge7" class="edge"><title>Node6&#45;&gt;Node8</title>
<path fill="none" stroke="midnightblue" d="M543.518,-125.834C601.044,-118.393 691.51,-105.636 778.636,-88.1135"/>
<polygon fill="midnightblue" stroke="midnightblue" points="779.592,-91.4909 788.692,-86.0664 778.195,-84.6315 779.592,-91.4909"/>
</g>
<!-- Node9 -->
<g id="node9" class="node"><title>Node9</title>
<polygon fill="none" stroke="#bfbfbf" points="217.5,-68.5 217.5,-87.5 266.5,-87.5 266.5,-68.5 217.5,-68.5"/>
<text text-anchor="middle" x="242" y="-75.5" font-family="Helvetica,sans-Serif" font-size="10.00">cassert</text>
</g>
<!-- Node6&#45;&gt;Node9 -->
<g id="edge8" class="edge"><title>Node6&#45;&gt;Node9</title>
<path fill="none" stroke="midnightblue" d="M442.438,-124.443C402.179,-116.213 339.845,-103.122 276.594,-88.0562"/>
<polygon fill="midnightblue" stroke="midnightblue" points="277.389,-84.6477 266.849,-85.7208 275.757,-91.455 277.389,-84.6477"/>
</g>
<!-- Node10 -->
<g id="node10" class="node"><title>Node10</title>
<polygon fill="none" stroke="#bfbfbf" points="285,-68.5 285,-87.5 341,-87.5 341,-68.5 285,-68.5"/>
<text text-anchor="middle" x="313" y="-75.5" font-family="Helvetica,sans-Serif" font-size="10.00">algorithm</text>
</g>
<!-- Node6&#45;&gt;Node10 -->
<g id="edge10" class="edge"><title>Node6&#45;&gt;Node10</title>
<path fill="none" stroke="midnightblue" d="M457.746,-124.444C428.559,-115.28 382.079,-100.688 349.691,-90.5192"/>
<polygon fill="midnightblue" stroke="midnightblue" points="350.716,-87.1726 340.126,-87.5164 348.619,-93.8512 350.716,-87.1726"/>
</g>
<!-- Node11 -->
<g id="node11" class="node"><title>Node11</title>
<polygon fill="none" stroke="#bfbfbf" points="359.5,-68.5 359.5,-87.5 418.5,-87.5 418.5,-68.5 359.5,-68.5"/>
<text text-anchor="middle" x="389" y="-75.5" font-family="Helvetica,sans-Serif" font-size="10.00">stdexcept</text>
</g>
<!-- Node6&#45;&gt;Node11 -->
<g id="edge11" class="edge"><title>Node6&#45;&gt;Node11</title>
<path fill="none" stroke="midnightblue" d="M469.576,-124.324C454.46,-115.822 431.185,-102.729 413.529,-92.7975"/>
<polygon fill="midnightblue" stroke="midnightblue" points="414.817,-89.5066 404.386,-87.6545 411.386,-95.6077 414.817,-89.5066"/>
</g>
<!-- Node12 -->
<g id="node12" class="node"><title>Node12</title>
<polygon fill="none" stroke="#bfbfbf" points="64.5,-6.5 64.5,-25.5 105.5,-25.5 105.5,-6.5 64.5,-6.5"/>
<text text-anchor="middle" x="85" y="-13.5" font-family="Helvetica,sans-Serif" font-size="10.00">string</text>
</g>
<!-- Node6&#45;&gt;Node12 -->
<g id="edge12" class="edge"><title>Node6&#45;&gt;Node12</title>
<path fill="none" stroke="midnightblue" d="M484.562,-124.156C483.334,-109.818 478.673,-81.7224 461,-68 399.767,-20.4537 188.28,-54.1953 114,-32 112.086,-31.428 110.148,-30.729 108.231,-29.949"/>
<polygon fill="midnightblue" stroke="midnightblue" points="109.545,-26.6984 99.0083,-25.5854 106.551,-33.026 109.545,-26.6984"/>
</g>
<!-- Node13 -->
<g id="node13" class="node"><title>Node13</title>
<g id="a_node13"><a xlink:href="../../dc/d03/MemoryResources_8h.html" target="_top" xlink:title="MemoryResources/MemoryResources.h">
<polygon fill="none" stroke="black" points="513.5,-68.5 513.5,-87.5 706.5,-87.5 706.5,-68.5 513.5,-68.5"/>
<text text-anchor="middle" x="610" y="-75.5" font-family="Helvetica,sans-Serif" font-size="10.00">MemoryResources/MemoryResources.h</text>
</a>
</g>
</g>
<!-- Node6&#45;&gt;Node13 -->
<g id="edge13" class="edge"><title>Node6&#45;&gt;Node13</title>
<path fill="none" stroke="midnightblue" d="M504.807,-124.444C525.287,-115.596 557.483,-101.687 580.865,-91.5865"/>
<polygon fill="midnightblue" stroke="midnightblue" points="582.494,-94.6953 590.286,-87.5164 579.718,-88.2692 582.494,-94.6953"/>
</g>
<!-- Node13&#45;&gt;Node5 -->
<g id="edge18" class="edge"><title>Node13&#45;&gt;Node5</title>
<path fill="none" stroke="midnightblue" d="M513.489,-71.0516C366.253,-61.6932 98.0073,-43.4234 55,-32 52.6484,-31.3754 50.2575,-30.5843 47.8958,-29.6934"/>
<polygon fill="midnightblue" stroke="midnightblue" points="49.096,-26.3992 38.5285,-25.6393 46.3157,-32.8233 49.096,-26.3992"/>
</g>
<!-- Node13&#45;&gt;Node12 -->
<g id="edge19" class="edge"><title>Node13&#45;&gt;Node12</title>
<path fill="none" stroke="midnightblue" d="M513.451,-68.71C371.85,-56.4856 123.474,-34.7645 114,-32 112.082,-31.4403 110.142,-30.7504 108.223,-29.9766"/>
<polygon fill="midnightblue" stroke="midnightblue" points="109.534,-26.7252 98.9966,-25.625 106.548,-33.0564 109.534,-26.7252"/>
</g>
<!-- Node14 -->
<g id="node14" class="node"><title>Node14</title>
<polygon fill="none" stroke="#bfbfbf" points="388,-1 388,-31 488,-31 488,-1 388,-1"/>
<text text-anchor="start" x="396" y="-19" font-family="Helvetica,sans-Serif" font-size="10.00">boost/container/flat</text>
<text text-anchor="middle" x="438" y="-8" font-family="Helvetica,sans-Serif" font-size="10.00">_map.hpp</text>
</g>
<!-- Node13&#45;&gt;Node14 -->
<g id="edge14" class="edge"><title>Node13&#45;&gt;Node14</title>
<path fill="none" stroke="midnightblue" d="M585.357,-68.4035C560.018,-59.5644 519.852,-45.553 487.85,-34.3895"/>
<polygon fill="midnightblue" stroke="midnightblue" points="488.801,-31.0144 478.206,-31.0253 486.495,-37.6238 488.801,-31.0144"/>
</g>
<!-- Node15 -->
<g id="node15" class="node"><title>Node15</title>
<polygon fill="none" stroke="#bfbfbf" points="506,-1 506,-31 622,-31 622,-1 506,-1"/>
<text text-anchor="start" x="514" y="-19" font-family="Helvetica,sans-Serif" font-size="10.00">boost/container/pmr</text>
<text text-anchor="middle" x="564" y="-8" font-family="Helvetica,sans-Serif" font-size="10.00">/memory_resource.hpp</text>
</g>
<!-- Node13&#45;&gt;Node15 -->
<g id="edge15" class="edge"><title>Node13&#45;&gt;Node15</title>
<path fill="none" stroke="midnightblue" d="M603.409,-68.4035C597.587,-60.8089 588.837,-49.3959 581.06,-39.2518"/>
<polygon fill="midnightblue" stroke="midnightblue" points="583.703,-36.9474 574.841,-31.1408 578.148,-41.2064 583.703,-36.9474"/>
</g>
<!-- Node16 -->
<g id="node16" class="node"><title>Node16</title>
<polygon fill="none" stroke="#bfbfbf" points="640,-1 640,-31 796,-31 796,-1 640,-1"/>
<text text-anchor="start" x="648" y="-19" font-family="Helvetica,sans-Serif" font-size="10.00">boost/container/pmr</text>
<text text-anchor="middle" x="718" y="-8" font-family="Helvetica,sans-Serif" font-size="10.00">/monotonic_buffer_resource.hpp</text>
</g>
<!-- Node13&#45;&gt;Node16 -->
<g id="edge16" class="edge"><title>Node13&#45;&gt;Node16</title>
<path fill="none" stroke="midnightblue" d="M625.474,-68.4035C640.579,-60.0115 664.077,-46.9571 683.612,-36.1042"/>
<polygon fill="midnightblue" stroke="midnightblue" points="685.505,-39.0568 692.547,-31.1408 682.105,-32.9377 685.505,-39.0568"/>
</g>
<!-- Node17 -->
<g id="node17" class="node"><title>Node17</title>
<polygon fill="none" stroke="#bfbfbf" points="814.5,-1 814.5,-31 947.5,-31 947.5,-1 814.5,-1"/>
<text text-anchor="start" x="822.5" y="-19" font-family="Helvetica,sans-Serif" font-size="10.00">boost/container/pmr</text>
<text text-anchor="middle" x="881" y="-8" font-family="Helvetica,sans-Serif" font-size="10.00">/polymorphic_allocator.hpp</text>
</g>
<!-- Node13&#45;&gt;Node17 -->
<g id="edge17" class="edge"><title>Node13&#45;&gt;Node17</title>
<path fill="none" stroke="midnightblue" d="M648.54,-68.4672C689.776,-59.3375 756.17,-44.6375 807.466,-33.2807"/>
<polygon fill="midnightblue" stroke="midnightblue" points="808.504,-36.6355 817.511,-31.0565 806.991,-29.801 808.504,-36.6355"/>
</g>
<!-- Node18 -->
<g id="node18" class="node"><title>Node18</title>
<polygon fill="none" stroke="#bfbfbf" points="966,-6.5 966,-25.5 1028,-25.5 1028,-6.5 966,-6.5"/>
<text text-anchor="middle" x="997" y="-13.5" font-family="Helvetica,sans-Serif" font-size="10.00">type_traits</text>
</g>
<!-- Node13&#45;&gt;Node18 -->
<g id="edge20" class="edge"><title>Node13&#45;&gt;Node18</title>
<path fill="none" stroke="midnightblue" d="M691.677,-68.4877C777.754,-59.1403 907.458,-43.8806 956,-32 959.492,-31.1452 963.098,-30.0922 966.656,-28.9437"/>
<polygon fill="midnightblue" stroke="midnightblue" points="968.129,-32.1369 976.419,-25.5396 965.824,-25.5272 968.129,-32.1369"/>
</g>
<!-- Node19 -->
<g id="node19" class="node"><title>Node19</title>
<polygon fill="none" stroke="#bfbfbf" points="1046,-6.5 1046,-25.5 1086,-25.5 1086,-6.5 1046,-6.5"/>
<text text-anchor="middle" x="1066" y="-13.5" font-family="Helvetica,sans-Serif" font-size="10.00">utility</text>
</g>
<!-- Node13&#45;&gt;Node19 -->
<g id="edge21" class="edge"><title>Node13&#45;&gt;Node19</title>
<path fill="none" stroke="midnightblue" d="M706.574,-68.6332C822.496,-58.3032 1005.22,-41.0002 1036,-32 1037.97,-31.424 1039.97,-30.7222 1041.94,-29.9402"/>
<polygon fill="midnightblue" stroke="midnightblue" points="1043.84,-32.9204 1051.48,-25.5726 1040.93,-26.5567 1043.84,-32.9204"/>
</g>
<!-- Node20 -->
<g id="node20" class="node"><title>Node20</title>
<polygon fill="none" stroke="#bfbfbf" points="1206,-6.5 1206,-25.5 1250,-25.5 1250,-6.5 1206,-6.5"/>
<text text-anchor="middle" x="1228" y="-13.5" font-family="Helvetica,sans-Serif" font-size="10.00">vector</text>
</g>
<!-- Node13&#45;&gt;Node20 -->
<g id="edge22" class="edge"><title>Node13&#45;&gt;Node20</title>
<path fill="none" stroke="midnightblue" d="M706.76,-68.745C709.876,-68.4918 712.962,-68.2429 716,-68 929.252,-50.9503 989.072,-86.2943 1196,-32 1198.49,-31.346 1201.03,-30.5028 1203.53,-29.5502"/>
<polygon fill="midnightblue" stroke="midnightblue" points="1205.04,-32.7101 1212.8,-25.5021 1202.24,-26.2946 1205.04,-32.7101"/>
</g>
<!-- Node21 -->
<g id="node21" class="node"><title>Node21</title>
<polygon fill="none" stroke="#bfbfbf" points="1104.5,-6.5 1104.5,-25.5 1187.5,-25.5 1187.5,-6.5 1104.5,-6.5"/>
<text text-anchor="middle" x="1146" y="-13.5" font-family="Helvetica,sans-Serif" font-size="10.00">unordered_map</text>
</g>
<!-- Node13&#45;&gt;Node21 -->
<g id="edge23" class="edge"><title>Node13&#45;&gt;Node21</title>
<path fill="none" stroke="midnightblue" d="M706.782,-68.5033C842.837,-56.4886 1076.26,-35.5899 1095,-32 1100.14,-31.0159 1105.5,-29.7324 1110.73,-28.3303"/>
<polygon fill="midnightblue" stroke="midnightblue" points="1111.89,-31.6392 1120.55,-25.5353 1109.98,-24.9065 1111.89,-31.6392"/>
</g>
<!-- Node22 -->
<g id="node22" class="node"><title>Node22</title>
<polygon fill="none" stroke="#bfbfbf" points="123.5,-6.5 123.5,-25.5 220.5,-25.5 220.5,-6.5 123.5,-6.5"/>
<text text-anchor="middle" x="172" y="-13.5" font-family="Helvetica,sans-Serif" font-size="10.00">FairMQMessage.h</text>
</g>
<!-- Node13&#45;&gt;Node22 -->
<g id="edge24" class="edge"><title>Node13&#45;&gt;Node22</title>
<path fill="none" stroke="midnightblue" d="M526.218,-68.4873C431.749,-58.6438 284.132,-42.457 229,-32 223.204,-30.9006 217.127,-29.5355 211.19,-28.0802"/>
<polygon fill="midnightblue" stroke="midnightblue" points="211.961,-24.6647 201.405,-25.5769 210.226,-31.4463 211.961,-24.6647"/>
</g>
<!-- Node23 -->
<g id="node23" class="node"><title>Node23</title>
<polygon fill="none" stroke="#bfbfbf" points="238.5,-6.5 238.5,-25.5 369.5,-25.5 369.5,-6.5 238.5,-6.5"/>
<text text-anchor="middle" x="304" y="-13.5" font-family="Helvetica,sans-Serif" font-size="10.00">FairMQTransportFactory.h</text>
</g>
<!-- Node13&#45;&gt;Node23 -->
<g id="edge25" class="edge"><title>Node13&#45;&gt;Node23</title>
<path fill="none" stroke="midnightblue" d="M565.703,-68.4389C519.192,-59.434 443.937,-44.8186 379,-32 371.663,-30.5517 363.924,-29.0146 356.316,-27.4979"/>
<polygon fill="midnightblue" stroke="midnightblue" points="356.925,-24.0505 346.433,-25.525 355.554,-30.9151 356.925,-24.0505"/>
</g>
<!-- Node24&#45;&gt;Node6 -->
<g id="edge27" class="edge"><title>Node24&#45;&gt;Node6</title>
<path fill="none" stroke="midnightblue" d="M733.758,-186.467C681.792,-175.716 592.489,-157.239 536.208,-145.595"/>
<polygon fill="midnightblue" stroke="midnightblue" points="536.601,-142.102 526.1,-143.503 535.183,-148.957 536.601,-142.102"/>
</g>
<!-- Node24&#45;&gt;Node20 -->
<g id="edge30" class="edge"><title>Node24&#45;&gt;Node20</title>
<path fill="none" stroke="midnightblue" d="M786.807,-186.405C806.965,-172.021 849.661,-142.803 889,-124 957.354,-91.3282 977.365,-89.5364 1050,-68 1114.08,-49.0016 1132.99,-54.2906 1196,-32 1197.91,-31.3247 1199.86,-30.5742 1201.8,-29.7792"/>
<polygon fill="midnightblue" stroke="midnightblue" points="1203.59,-32.8172 1211.32,-25.5745 1200.76,-26.4143 1203.59,-32.8172"/>
</g>
<!-- Node25 -->
<g id="node25" class="node"><title>Node25</title>
<polygon fill="none" stroke="#bfbfbf" points="998.5,-124.5 998.5,-143.5 1057.5,-143.5 1057.5,-124.5 998.5,-124.5"/>
<text text-anchor="middle" x="1028" y="-131.5" font-family="Helvetica,sans-Serif" font-size="10.00">functional</text>
</g>
<!-- Node24&#45;&gt;Node25 -->
<g id="edge28" class="edge"><title>Node24&#45;&gt;Node25</title>
<path fill="none" stroke="midnightblue" d="M810.98,-186.467C857.977,-175.322 939.98,-155.874 988.605,-144.343"/>
<polygon fill="midnightblue" stroke="midnightblue" points="989.528,-147.721 998.45,-142.008 987.912,-140.91 989.528,-147.721"/>
</g>
<!-- Node26 -->
<g id="node26" class="node"><title>Node26</title>
<polygon fill="none" stroke="#bfbfbf" points="897.5,-124.5 897.5,-143.5 932.5,-143.5 932.5,-124.5 897.5,-124.5"/>
<text text-anchor="middle" x="915" y="-131.5" font-family="Helvetica,sans-Serif" font-size="10.00">map</text>
</g>
<!-- Node24&#45;&gt;Node26 -->
<g id="edge29" class="edge"><title>Node24&#45;&gt;Node26</title>
<path fill="none" stroke="midnightblue" d="M795.059,-186.403C819.435,-175.956 860.671,-158.284 887.868,-146.628"/>
<polygon fill="midnightblue" stroke="midnightblue" points="889.383,-149.787 897.196,-142.63 886.625,-143.353 889.383,-149.787"/>
</g>
<!-- Node27&#45;&gt;Node20 -->
<g id="edge32" class="edge"><title>Node27&#45;&gt;Node20</title>
<path fill="none" stroke="midnightblue" d="M924.178,-180.747C939.041,-165.278 964.484,-140.574 990,-124 1074.09,-69.379 1104.82,-73.7254 1196,-32 1197.39,-31.3617 1198.82,-30.705 1200.26,-30.0396"/>
<polygon fill="midnightblue" stroke="midnightblue" points="1202.16,-33.0169 1209.75,-25.6247 1199.21,-26.6704 1202.16,-33.0169"/>
</g>
<!-- Node27&#45;&gt;Node26 -->
<g id="edge33" class="edge"><title>Node27&#45;&gt;Node26</title>
<path fill="none" stroke="midnightblue" d="M911.948,-180.781C912.487,-172.691 913.169,-162.462 913.752,-153.725"/>
<polygon fill="midnightblue" stroke="midnightblue" points="917.245,-153.941 914.418,-143.731 910.26,-153.476 917.245,-153.941"/>
</g>
<!-- Node28&#45;&gt;Node20 -->
<g id="edge36" class="edge"><title>Node28&#45;&gt;Node20</title>
<path fill="none" stroke="midnightblue" d="M1045.87,-180.734C1082.55,-147.755 1172.99,-66.4571 1210.87,-32.3997"/>
<polygon fill="midnightblue" stroke="midnightblue" points="1213.42,-34.8128 1218.52,-25.5244 1208.74,-29.6071 1213.42,-34.8128"/>
</g>
<!-- Node28&#45;&gt;Node25 -->
<g id="edge35" class="edge"><title>Node28&#45;&gt;Node25</title>
<path fill="none" stroke="midnightblue" d="M1029.53,-180.781C1029.26,-172.691 1028.92,-162.462 1028.62,-153.725"/>
<polygon fill="midnightblue" stroke="midnightblue" points="1032.12,-153.608 1028.29,-143.731 1025.13,-153.842 1032.12,-153.608"/>
</g>
</g>
</svg>
        <g id="navigator" transform="translate(0 0)" fill="#404254">
                <rect fill="#f2f5e9" fill-opacity="0.5" stroke="#606060" stroke-width=".5" x="0" y="0" width="60" height="60"/>
                <use id="zoomplus" xlink:href="#zoomPlus" x="17" y="9" onmousedown="handleZoom(evt,'in')"/>
                <use id="zoomminus" xlink:href="#zoomMin" x="42" y="9" onmousedown="handleZoom(evt,'out')"/>
                <use id="reset" xlink:href="#resetDef" x="30" y="36" onmousedown="handleReset()"/>
                <g id="arrowUp" xlink:href="#dirArrow" transform="translate(30 24)" onmousedown="handlePan(0,-1)">
                  <use xlink:href="#rim" fill="#404040">
                        <set attributeName="fill" to="#808080" begin="arrowUp.mouseover" end="arrowUp.mouseout"/>
                  </use>
                  <path fill="none" stroke="white" stroke-width="1.5" d="M0,-3.0v7 M-2.5,-0.5L0,-3.0L2.5,-0.5"/>
                </g>
                <g id="arrowRight" xlink:href="#dirArrow" transform="rotate(90) translate(36 -43)" onmousedown="handlePan(1,0)">
                  <use xlink:href="#rim" fill="#404040">
                        <set attributeName="fill" to="#808080" begin="arrowRight.mouseover" end="arrowRight.mouseout"/>
                  </use>
                  <path fill="none" stroke="white" stroke-width="1.5" d="M0,-3.0v7 M-2.5,-0.5L0,-3.0L2.5,-0.5"/>
                </g>
                <g id="arrowDown" xlink:href="#dirArrow" transform="rotate(180) translate(-30 -48)" onmousedown="handlePan(0,1)">
                  <use xlink:href="#rim" fill="#404040">
                        <set attributeName="fill" to="#808080" begin="arrowDown.mouseover" end="arrowDown.mouseout"/>
                  </use>
                  <path fill="none" stroke="white" stroke-width="1.5" d="M0,-3.0v7 M-2.5,-0.5L0,-3.0L2.5,-0.5"/>
                </g>
                <g id="arrowLeft" xlink:href="#dirArrow" transform="rotate(270) translate(-36 17)" onmousedown="handlePan(-1,0)">
                  <use xlink:href="#rim" fill="#404040">
                        <set attributeName="fill" to="#808080" begin="arrowLeft.mouseover" end="arrowLeft.mouseout"/>
                  </use>
                  <path fill="none" stroke="white" stroke-width="1.5" d="M0,-3.0v7 M-2.5,-0.5L0,-3.0L2.5,-0.5"/>
                </g>
        </g>
        <svg viewBox="0 0 15 15" width="100%" height="30px" preserveAspectRatio="xMaxYMin meet">
         <g id="arrow_out" transform="scale(0.3 0.3)">
          <a xlink:href="tableview_8cxx__incl_org.svg" target="_base">
           <rect id="button" ry="5" rx="5" y="6" x="6" height="38" width="38"
                fill="#f2f5e9" fill-opacity="0.5" stroke="#606060" stroke-width="1.0"/>
           <path id="arrow"
             d="M 11.500037,31.436501 C 11.940474,20.09759 22.043105,11.32322 32.158766,21.979434 L 37.068811,17.246167 C 37.068811,17.246167 37.088388,32 37.088388,32 L 22.160133,31.978069 C 22.160133,31.978069 26.997745,27.140456 26.997745,27.140456 C 18.528582,18.264221 13.291696,25.230495 11.500037,31.436501 z"
             style="fill:#404040;"/>
          </a>
         </g>
        </svg>
</svg>
