<?xml version="1.0" encoding="UTF-8" standalone="no"?>
<!DOCTYPE svg PUBLIC "-//W3C//DTD SVG 1.1//EN"
 "http://www.w3.org/Graphics/SVG/1.1/DTD/svg11.dtd">
<!-- Generated by graphviz version 2.36.0 (20140111.2315)
 -->
<!-- Title: /home/travis/build/AliceO2Group/AliceO2/Framework/Core/include/Framework/LifetimeHelpers.h Pages: 1 -->
<svg width="366pt" height="174pt"
 viewBox="0.00 0.00 366.06 174.00" xmlns="http://www.w3.org/2000/svg" xmlns:xlink="http://www.w3.org/1999/xlink">
<g id="graph0" class="graph" transform="scale(1 1) rotate(0) translate(4 170)">
<title>/home/travis/build/AliceO2Group/AliceO2/Framework/Core/include/Framework/LifetimeHelpers.h</title>
<!-- Node1 -->
<g id="node1" class="node"><title>Node1</title>
<polygon fill="#bfbfbf" stroke="black" points="20.0638,-113 20.0638,-165 168.064,-165 168.064,-113 20.0638,-113"/>
<text text-anchor="start" x="28.0638" y="-153" font-family="Helvetica,sans-Serif" font-size="10.00">/home/travis/build</text>
<text text-anchor="start" x="28.0638" y="-142" font-family="Helvetica,sans-Serif" font-size="10.00">/AliceO2Group/AliceO2</text>
<text text-anchor="start" x="28.0638" y="-131" font-family="Helvetica,sans-Serif" font-size="10.00">/Framework/Core/include</text>
<text text-anchor="middle" x="94.0638" y="-120" font-family="Helvetica,sans-Serif" font-size="10.00">/Framework/LifetimeHelpers.h</text>
</g>
<!-- Node2 -->
<g id="node2" class="node"><title>Node2</title>
<polygon fill="none" stroke="#bfbfbf" points="3.56375,-0.5 3.56375,-19.5 62.5638,-19.5 62.5638,-0.5 3.56375,-0.5"/>
<text text-anchor="middle" x="33.0638" y="-7.5" font-family="Helvetica,sans-Serif" font-size="10.00">functional</text>
</g>
<!-- Node1&#45;&gt;Node2 -->
<g id="edge1" class="edge"><title>Node1&#45;&gt;Node2</title>
<path fill="none" stroke="midnightblue" d="M39.0415,-112.787C24.7404,-103.389 11.1057,-91.2101 3.06375,-76 -5.59572,-59.6218 6.00054,-40.279 17.1997,-26.9769"/>
<polygon fill="midnightblue" stroke="midnightblue" points="19.8066,-29.3123 23.9367,-19.5556 14.6237,-24.6072 19.8066,-29.3123"/>
</g>
<!-- Node3 -->
<g id="node3" class="node"><title>Node3</title>
<polygon fill="none" stroke="#bfbfbf" points="12.0638,-56.5 12.0638,-75.5 58.0638,-75.5 58.0638,-56.5 12.0638,-56.5"/>
<text text-anchor="middle" x="35.0638" y="-63.5" font-family="Helvetica,sans-Serif" font-size="10.00">chrono</text>
</g>
<!-- Node1&#45;&gt;Node3 -->
<g id="edge2" class="edge"><title>Node1&#45;&gt;Node3</title>
<path fill="none" stroke="midnightblue" d="M73.0964,-112.768C65.0479,-103.083 56.0721,-92.2813 48.8623,-83.605"/>
<polygon fill="midnightblue" stroke="midnightblue" points="51.4239,-81.2113 42.3408,-75.7572 46.0402,-85.6852 51.4239,-81.2113"/>
</g>
<!-- Node4 -->
<g id="node4" class="node"><title>Node4</title>
<g id="a_node4"><a xlink:href="../../d2/dd9/ExpirationHandler_8h.html" target="_top" xlink:title="Framework/ExpirationHandler.h">
<polygon fill="none" stroke="black" points="76.0638,-56.5 76.0638,-75.5 230.064,-75.5 230.064,-56.5 76.0638,-56.5"/>
<text text-anchor="middle" x="153.064" y="-63.5" font-family="Helvetica,sans-Serif" font-size="10.00">Framework/ExpirationHandler.h</text>
</a>
</g>
</g>
<!-- Node1&#45;&gt;Node4 -->
<g id="edge3" class="edge"><title>Node1&#45;&gt;Node4</title>
<path fill="none" stroke="midnightblue" d="M115.031,-112.768C123.08,-103.083 132.055,-92.2813 139.265,-83.605"/>
<polygon fill="midnightblue" stroke="midnightblue" points="142.087,-85.6852 145.787,-75.7572 136.704,-81.2113 142.087,-85.6852"/>
</g>
<!-- Node6 -->
<g id="node6" class="node"><title>Node6</title>
<g id="a_node6"><a xlink:href="../../d9/d32/PartRef_8h.html" target="_top" xlink:title="Framework/PartRef.h">
<polygon fill="none" stroke="black" points="248.064,-56.5 248.064,-75.5 358.064,-75.5 358.064,-56.5 248.064,-56.5"/>
<text text-anchor="middle" x="303.064" y="-63.5" font-family="Helvetica,sans-Serif" font-size="10.00">Framework/PartRef.h</text>
</a>
</g>
</g>
<!-- Node1&#45;&gt;Node6 -->
<g id="edge6" class="edge"><title>Node1&#45;&gt;Node6</title>
<path fill="none" stroke="midnightblue" d="M167.749,-112.968C201.976,-101.341 241.047,-88.0679 268.377,-78.7837"/>
<polygon fill="midnightblue" stroke="midnightblue" points="269.541,-82.0847 277.884,-75.5541 267.289,-75.4567 269.541,-82.0847"/>
</g>
<!-- Node4&#45;&gt;Node2 -->
<g id="edge5" class="edge"><title>Node4&#45;&gt;Node2</title>
<path fill="none" stroke="midnightblue" d="M134.049,-56.4435C114.476,-47.6356 83.7561,-33.8116 61.3348,-23.722"/>
<polygon fill="midnightblue" stroke="midnightblue" points="62.5447,-20.4284 51.9891,-19.5164 59.6721,-26.8119 62.5447,-20.4284"/>
</g>
<!-- Node5 -->
<g id="node5" class="node"><title>Node5</title>
<polygon fill="none" stroke="#bfbfbf" points="130.064,-0.5 130.064,-19.5 176.064,-19.5 176.064,-0.5 130.064,-0.5"/>
<text text-anchor="middle" x="153.064" y="-7.5" font-family="Helvetica,sans-Serif" font-size="10.00">cstdint</text>
</g>
<!-- Node4&#45;&gt;Node5 -->
<g id="edge4" class="edge"><title>Node4&#45;&gt;Node5</title>
<path fill="none" stroke="midnightblue" d="M153.064,-56.083C153.064,-49.0059 153.064,-38.8611 153.064,-29.9865"/>
<polygon fill="midnightblue" stroke="midnightblue" points="156.564,-29.751 153.064,-19.7511 149.564,-29.7511 156.564,-29.751"/>
</g>
<!-- Node7 -->
<g id="node7" class="node"><title>Node7</title>
<polygon fill="none" stroke="#bfbfbf" points="277.064,-0.5 277.064,-19.5 329.064,-19.5 329.064,-0.5 277.064,-0.5"/>
<text text-anchor="middle" x="303.064" y="-7.5" font-family="Helvetica,sans-Serif" font-size="10.00">memory</text>
</g>
<!-- Node6&#45;&gt;Node7 -->
<g id="edge7" class="edge"><title>Node6&#45;&gt;Node7</title>
<path fill="none" stroke="midnightblue" d="M303.064,-56.083C303.064,-49.0059 303.064,-38.8611 303.064,-29.9865"/>
<polygon fill="midnightblue" stroke="midnightblue" points="306.564,-29.751 303.064,-19.7511 299.564,-29.7511 306.564,-29.751"/>
</g>
</g>
</svg>
