<?xml version="1.0" encoding="UTF-8" standalone="no"?>
<!DOCTYPE svg PUBLIC "-//W3C//DTD SVG 1.1//EN"
 "http://www.w3.org/Graphics/SVG/1.1/DTD/svg11.dtd">
<!-- Generated by graphviz version 2.36.0 (20140111.2315)
 -->
<!-- Title: /home/travis/build/AliceO2Group/AliceO2/Framework/Core/include/Framework/InputRoute.h Pages: 1 -->
<!--zoomable 298 -->
<svg id="main" version="1.1" xmlns="http://www.w3.org/2000/svg" xmlns:xlink="http://www.w3.org/1999/xlink" xml:space="preserve" onload="init(evt)">
<style type="text/css"><![CDATA[
.edge:hover path { stroke: red; }
.edge:hover polygon { stroke: red; fill: red; }
]]></style>
<script type="text/javascript"><![CDATA[
var edges = document.getElementsByTagName('g');
if (edges && edges.length) {
  for (var i=0;i<edges.length;i++) {
    if (edges[i].id.substr(0,4)=='edge') {
      edges[i].setAttribute('class','edge');
    }
  }
}
]]></script>
        <defs>
                <circle id="rim" cx="0" cy="0" r="7"/>
                <circle id="rim2" cx="0" cy="0" r="3.5"/>
                <g id="zoomPlus">
                        <use xlink:href="#rim" fill="#404040">
                                <set attributeName="fill" to="#808080" begin="zoomplus.mouseover" end="zoomplus.mouseout"/>
                        </use>
                        <path d="M-4,0h8M0,-4v8" fill="none" stroke="white" stroke-width="1.5" pointer-events="none"/>
                </g>
                <g id="zoomMin">
                        <use xlink:href="#rim" fill="#404040">
                                <set attributeName="fill" to="#808080" begin="zoomminus.mouseover" end="zoomminus.mouseout"/>
                        </use>
                        <path d="M-4,0h8" fill="none" stroke="white" stroke-width="1.5" pointer-events="none"/>
                </g>
                <g id="dirArrow">
                        <path fill="none" stroke="white" stroke-width="1.5" d="M0,-3.0v7 M-2.5,-0.5L0,-3.0L2.5,-0.5"/>
                </g>
               <g id="resetDef">
                       <use xlink:href="#rim2" fill="#404040">
                               <set attributeName="fill" to="#808080" begin="reset.mouseover" end="reset.mouseout"/>
                       </use>
               </g>
        </defs>

<script type="text/javascript">
var viewWidth = 1277;
var viewHeight = 298;
var sectionId = 'dynsection-0';
</script>
<script xlink:href="../../svgpan.js"/>
<svg id="graph" class="graph">
<g id="viewport">
<title>/home/travis/build/AliceO2Group/AliceO2/Framework/Core/include/Framework/InputRoute.h</title>
<!-- Node1 -->
<g id="node1" class="node"><title>Node1</title>
<polygon fill="#bfbfbf" stroke="black" points="917,-237 917,-289 1045,-289 1045,-237 917,-237"/>
<text text-anchor="start" x="925" y="-277" font-family="Helvetica,sans-Serif" font-size="10.00">/home/travis/build</text>
<text text-anchor="start" x="925" y="-266" font-family="Helvetica,sans-Serif" font-size="10.00">/AliceO2Group/AliceO2</text>
<text text-anchor="start" x="925" y="-255" font-family="Helvetica,sans-Serif" font-size="10.00">/Framework/Core/include</text>
<text text-anchor="middle" x="981" y="-244" font-family="Helvetica,sans-Serif" font-size="10.00">/Framework/InputRoute.h</text>
</g>
<!-- Node2 -->
<g id="node2" class="node"><title>Node2</title>
<g id="a_node2"><a xlink:href="../../d2/dd9/ExpirationHandler_8h.html" target="_top" xlink:title="Framework/ExpirationHandler.h">
<polygon fill="none" stroke="black" points="480,-180.5 480,-199.5 634,-199.5 634,-180.5 480,-180.5"/>
<text text-anchor="middle" x="557" y="-187.5" font-family="Helvetica,sans-Serif" font-size="10.00">Framework/ExpirationHandler.h</text>
</a>
</g>
</g>
<!-- Node1&#45;&gt;Node2 -->
<g id="edge1" class="edge"><title>Node1&#45;&gt;Node2</title>
<path fill="none" stroke="midnightblue" d="M916.604,-251.217C835.679,-237.666 697.79,-214.576 618.334,-201.271"/>
<polygon fill="midnightblue" stroke="midnightblue" points="618.437,-197.739 607.996,-199.539 617.281,-204.643 618.437,-197.739"/>
</g>
<!-- Node4 -->
<g id="node4" class="node"><title>Node4</title>
<polygon fill="none" stroke="#bfbfbf" points="527.5,-124.5 527.5,-143.5 586.5,-143.5 586.5,-124.5 527.5,-124.5"/>
<text text-anchor="middle" x="557" y="-131.5" font-family="Helvetica,sans-Serif" font-size="10.00">functional</text>
</g>
<!-- Node1&#45;&gt;Node4 -->
<g id="edge31" class="edge"><title>Node1&#45;&gt;Node4</title>
<path fill="none" stroke="midnightblue" d="M916.604,-242.711C827.215,-215.937 668.323,-168.345 595.453,-146.518"/>
<polygon fill="midnightblue" stroke="midnightblue" points="596.342,-143.13 585.758,-143.614 594.333,-149.836 596.342,-143.13"/>
</g>
<!-- Node5 -->
<g id="node5" class="node"><title>Node5</title>
<g id="a_node5"><a xlink:href="../../d5/d3f/InputSpec_8h.html" target="_top" xlink:title="Framework/InputSpec.h">
<polygon fill="none" stroke="black" points="920.5,-180.5 920.5,-199.5 1041.5,-199.5 1041.5,-180.5 920.5,-180.5"/>
<text text-anchor="middle" x="981" y="-187.5" font-family="Helvetica,sans-Serif" font-size="10.00">Framework/InputSpec.h</text>
</a>
</g>
</g>
<!-- Node1&#45;&gt;Node5 -->
<g id="edge4" class="edge"><title>Node1&#45;&gt;Node5</title>
<path fill="none" stroke="midnightblue" d="M981,-236.768C981,-227.89 981,-218.074 981,-209.816"/>
<polygon fill="midnightblue" stroke="midnightblue" points="984.5,-209.757 981,-199.757 977.5,-209.757 984.5,-209.757"/>
</g>
<!-- Node6 -->
<g id="node6" class="node"><title>Node6</title>
<polygon fill="none" stroke="#bfbfbf" points="1208.5,-6.5 1208.5,-25.5 1249.5,-25.5 1249.5,-6.5 1208.5,-6.5"/>
<text text-anchor="middle" x="1229" y="-13.5" font-family="Helvetica,sans-Serif" font-size="10.00">string</text>
</g>
<!-- Node1&#45;&gt;Node6 -->
<g id="edge30" class="edge"><title>Node1&#45;&gt;Node6</title>
<path fill="none" stroke="midnightblue" d="M1040.07,-236.979C1081.51,-216.93 1135.78,-185.331 1172,-144 1200.57,-111.398 1217.09,-62.132 1224.42,-35.5603"/>
<polygon fill="midnightblue" stroke="midnightblue" points="1227.86,-36.237 1227,-25.6767 1221.09,-34.465 1227.86,-36.237"/>
</g>
<!-- Node26 -->
<g id="node26" class="node"><title>Node26</title>
<polygon fill="none" stroke="#bfbfbf" points="1220.5,-180.5 1220.5,-199.5 1269.5,-199.5 1269.5,-180.5 1220.5,-180.5"/>
<text text-anchor="middle" x="1245" y="-187.5" font-family="Helvetica,sans-Serif" font-size="10.00">cstddef</text>
</g>
<!-- Node1&#45;&gt;Node26 -->
<g id="edge29" class="edge"><title>Node1&#45;&gt;Node26</title>
<path fill="none" stroke="midnightblue" d="M1045.24,-244.722C1097.41,-230.692 1168.96,-211.451 1210.75,-200.21"/>
<polygon fill="midnightblue" stroke="midnightblue" points="1211.71,-203.577 1220.46,-197.6 1209.89,-196.817 1211.71,-203.577"/>
</g>
<!-- Node3 -->
<g id="node3" class="node"><title>Node3</title>
<polygon fill="none" stroke="#bfbfbf" points="303,-68.5 303,-87.5 349,-87.5 349,-68.5 303,-68.5"/>
<text text-anchor="middle" x="326" y="-75.5" font-family="Helvetica,sans-Serif" font-size="10.00">cstdint</text>
</g>
<!-- Node2&#45;&gt;Node3 -->
<g id="edge2" class="edge"><title>Node2&#45;&gt;Node3</title>
<path fill="none" stroke="midnightblue" d="M538.874,-180.368C498.475,-161.131 400.86,-114.648 353.156,-91.9314"/>
<polygon fill="midnightblue" stroke="midnightblue" points="354.575,-88.7308 344.042,-87.5914 351.566,-95.0508 354.575,-88.7308"/>
</g>
<!-- Node2&#45;&gt;Node4 -->
<g id="edge3" class="edge"><title>Node2&#45;&gt;Node4</title>
<path fill="none" stroke="midnightblue" d="M557,-180.083C557,-173.006 557,-162.861 557,-153.986"/>
<polygon fill="midnightblue" stroke="midnightblue" points="560.5,-153.751 557,-143.751 553.5,-153.751 560.5,-153.751"/>
</g>
<!-- Node5&#45;&gt;Node6 -->
<g id="edge5" class="edge"><title>Node5&#45;&gt;Node6</title>
<path fill="none" stroke="midnightblue" d="M976.486,-180.15C970.367,-166.78 961.451,-141.171 973,-124 1033.53,-34.013 1100.21,-76.7274 1199,-32 1200.36,-31.3846 1201.75,-30.7421 1203.14,-30.0841"/>
<polygon fill="midnightblue" stroke="midnightblue" points="1204.83,-33.1581 1212.29,-25.6396 1201.77,-26.8621 1204.83,-33.1581"/>
</g>
<!-- Node7 -->
<g id="node7" class="node"><title>Node7</title>
<polygon fill="none" stroke="#bfbfbf" points="982,-124.5 982,-143.5 1034,-143.5 1034,-124.5 982,-124.5"/>
<text text-anchor="middle" x="1008" y="-131.5" font-family="Helvetica,sans-Serif" font-size="10.00">ostream</text>
</g>
<!-- Node5&#45;&gt;Node7 -->
<g id="edge6" class="edge"><title>Node5&#45;&gt;Node7</title>
<path fill="none" stroke="midnightblue" d="M985.459,-180.083C989.154,-172.691 994.523,-161.953 999.094,-152.811"/>
<polygon fill="midnightblue" stroke="midnightblue" points="1002.28,-154.261 1003.62,-143.751 996.022,-151.13 1002.28,-154.261"/>
</g>
<!-- Node8 -->
<g id="node8" class="node"><title>Node8</title>
<g id="a_node8"><a xlink:href="../../dc/dca/Lifetime_8h.html" target="_top" xlink:title="Framework/Lifetime.h">
<polygon fill="none" stroke="black" points="1052.5,-124.5 1052.5,-143.5 1163.5,-143.5 1163.5,-124.5 1052.5,-124.5"/>
<text text-anchor="middle" x="1108" y="-131.5" font-family="Helvetica,sans-Serif" font-size="10.00">Framework/Lifetime.h</text>
</a>
</g>
</g>
<!-- Node5&#45;&gt;Node8 -->
<g id="edge7" class="edge"><title>Node5&#45;&gt;Node8</title>
<path fill="none" stroke="midnightblue" d="M1001.12,-180.444C1022.02,-171.557 1054.93,-157.563 1078.72,-147.451"/>
<polygon fill="midnightblue" stroke="midnightblue" points="1080.14,-150.65 1087.97,-143.516 1077.4,-144.208 1080.14,-150.65"/>
</g>
<!-- Node9 -->
<g id="node9" class="node"><title>Node9</title>
<g id="a_node9"><a xlink:href="../../dc/dcd/DataHeader_8h.html" target="_top" xlink:title="Headers/DataHeader.h">
<polygon fill="none" stroke="black" points="604.5,-124.5 604.5,-143.5 721.5,-143.5 721.5,-124.5 604.5,-124.5"/>
<text text-anchor="middle" x="663" y="-131.5" font-family="Helvetica,sans-Serif" font-size="10.00">Headers/DataHeader.h</text>
</a>
</g>
</g>
<!-- Node5&#45;&gt;Node9 -->
<g id="edge8" class="edge"><title>Node5&#45;&gt;Node9</title>
<path fill="none" stroke="midnightblue" d="M930.612,-180.444C874.324,-170.885 783.248,-155.419 723.242,-145.23"/>
<polygon fill="midnightblue" stroke="midnightblue" points="723.597,-141.74 713.152,-143.516 722.425,-148.641 723.597,-141.74"/>
</g>
<!-- Node9&#45;&gt;Node3 -->
<g id="edge9" class="edge"><title>Node9&#45;&gt;Node3</title>
<path fill="none" stroke="midnightblue" d="M604.475,-125.272C533.757,-115.786 417.88,-99.7297 359.252,-87.9979"/>
<polygon fill="midnightblue" stroke="midnightblue" points="359.836,-84.5446 349.333,-85.9339 358.41,-91.3978 359.836,-84.5446"/>
</g>
<!-- Node9&#45;&gt;Node6 -->
<g id="edge15" class="edge"><title>Node9&#45;&gt;Node6</title>
<path fill="none" stroke="midnightblue" d="M702.592,-124.468C736.06,-116.691 784.97,-103.99 826,-88 844.15,-80.9267 846.337,-73.5816 865,-68 1008.04,-25.2188 1055.74,-74.0509 1199,-32 1200.97,-31.4219 1202.97,-30.7186 1204.94,-29.9355"/>
<polygon fill="midnightblue" stroke="midnightblue" points="1206.84,-32.9152 1214.47,-25.5659 1203.92,-26.5521 1206.84,-32.9152"/>
</g>
<!-- Node10 -->
<g id="node10" class="node"><title>Node10</title>
<polygon fill="none" stroke="#bfbfbf" points="874,-68.5 874,-87.5 926,-87.5 926,-68.5 874,-68.5"/>
<text text-anchor="middle" x="900" y="-75.5" font-family="Helvetica,sans-Serif" font-size="10.00">memory</text>
</g>
<!-- Node9&#45;&gt;Node10 -->
<g id="edge10" class="edge"><title>Node9&#45;&gt;Node10</title>
<path fill="none" stroke="midnightblue" d="M700.553,-124.444C745.383,-114.229 819.82,-97.2688 863.968,-87.2099"/>
<polygon fill="midnightblue" stroke="midnightblue" points="864.998,-90.5649 873.97,-84.9308 863.443,-83.7399 864.998,-90.5649"/>
</g>
<!-- Node11 -->
<g id="node11" class="node"><title>Node11</title>
<polygon fill="none" stroke="#bfbfbf" points="367.5,-68.5 367.5,-87.5 416.5,-87.5 416.5,-68.5 367.5,-68.5"/>
<text text-anchor="middle" x="392" y="-75.5" font-family="Helvetica,sans-Serif" font-size="10.00">cassert</text>
</g>
<!-- Node9&#45;&gt;Node11 -->
<g id="edge11" class="edge"><title>Node9&#45;&gt;Node11</title>
<path fill="none" stroke="midnightblue" d="M616.244,-124.431C569.32,-115.714 495.014,-101.59 431,-88 429.556,-87.6934 428.082,-87.3756 426.595,-87.0507"/>
<polygon fill="midnightblue" stroke="midnightblue" points="427.251,-83.6111 416.728,-84.8447 425.724,-90.4425 427.251,-83.6111"/>
</g>
<!-- Node12 -->
<g id="node12" class="node"><title>Node12</title>
<polygon fill="none" stroke="#bfbfbf" points="0,-6.5 0,-25.5 46,-25.5 46,-6.5 0,-6.5"/>
<text text-anchor="middle" x="23" y="-13.5" font-family="Helvetica,sans-Serif" font-size="10.00">cstring</text>
</g>
<!-- Node9&#45;&gt;Node12 -->
<g id="edge12" class="edge"><title>Node9&#45;&gt;Node12</title>
<path fill="none" stroke="midnightblue" d="M608.315,-124.461C567.732,-117.211 511.447,-105.219 464,-88 445.689,-81.3549 443.692,-73.4847 425,-68 266.463,-21.48 214.338,-75.6976 55,-32 52.6535,-31.3565 50.2661,-30.5524 47.9067,-29.6529"/>
<polygon fill="midnightblue" stroke="midnightblue" points="49.1095,-26.3595 38.543,-25.5855 46.3206,-32.7799 49.1095,-26.3595"/>
</g>
<!-- Node13 -->
<g id="node13" class="node"><title>Node13</title>
<polygon fill="none" stroke="#bfbfbf" points="473,-68.5 473,-87.5 529,-87.5 529,-68.5 473,-68.5"/>
<text text-anchor="middle" x="501" y="-75.5" font-family="Helvetica,sans-Serif" font-size="10.00">algorithm</text>
</g>
<!-- Node9&#45;&gt;Node13 -->
<g id="edge13" class="edge"><title>Node9&#45;&gt;Node13</title>
<path fill="none" stroke="midnightblue" d="M637.331,-124.444C610.077,-115.359 566.816,-100.939 536.349,-90.7831"/>
<polygon fill="midnightblue" stroke="midnightblue" points="537.143,-87.3584 526.549,-87.5164 534.929,-93.9992 537.143,-87.3584"/>
</g>
<!-- Node14 -->
<g id="node14" class="node"><title>Node14</title>
<polygon fill="none" stroke="#bfbfbf" points="547.5,-68.5 547.5,-87.5 606.5,-87.5 606.5,-68.5 547.5,-68.5"/>
<text text-anchor="middle" x="577" y="-75.5" font-family="Helvetica,sans-Serif" font-size="10.00">stdexcept</text>
</g>
<!-- Node9&#45;&gt;Node14 -->
<g id="edge14" class="edge"><title>Node9&#45;&gt;Node14</title>
<path fill="none" stroke="midnightblue" d="M649.183,-124.324C635.767,-115.9 615.176,-102.971 599.414,-93.0741"/>
<polygon fill="midnightblue" stroke="midnightblue" points="601.113,-90.0081 590.783,-87.6545 597.391,-95.9364 601.113,-90.0081"/>
</g>
<!-- Node15 -->
<g id="node15" class="node"><title>Node15</title>
<g id="a_node15"><a xlink:href="../../dc/d03/MemoryResources_8h.html" target="_top" xlink:title="MemoryResources/MemoryResources.h">
<polygon fill="none" stroke="black" points="624.5,-68.5 624.5,-87.5 817.5,-87.5 817.5,-68.5 624.5,-68.5"/>
<text text-anchor="middle" x="721" y="-75.5" font-family="Helvetica,sans-Serif" font-size="10.00">MemoryResources/MemoryResources.h</text>
</a>
</g>
</g>
<!-- Node9&#45;&gt;Node15 -->
<g id="edge16" class="edge"><title>Node9&#45;&gt;Node15</title>
<path fill="none" stroke="midnightblue" d="M672.319,-124.324C680.893,-116.341 693.812,-104.313 704.188,-94.6529"/>
<polygon fill="midnightblue" stroke="midnightblue" points="706.578,-97.2098 711.512,-87.8339 701.808,-92.0865 706.578,-97.2098"/>
</g>
<!-- Node15&#45;&gt;Node6 -->
<g id="edge22" class="edge"><title>Node15&#45;&gt;Node6</title>
<path fill="none" stroke="midnightblue" d="M817.604,-68.8211C951.978,-57.3113 1180.97,-37.1605 1199,-32 1200.97,-31.4352 1202.97,-30.7415 1204.95,-29.9652"/>
<polygon fill="midnightblue" stroke="midnightblue" points="1206.85,-32.9482 1214.49,-25.6086 1203.94,-26.5814 1206.85,-32.9482"/>
</g>
<!-- Node15&#45;&gt;Node12 -->
<g id="edge21" class="edge"><title>Node15&#45;&gt;Node12</title>
<path fill="none" stroke="midnightblue" d="M624.244,-68.7025C621.126,-68.4615 618.039,-68.2267 615,-68 366.288,-49.4491 296.571,-94.0093 55,-32 52.504,-31.3593 49.9656,-30.5251 47.466,-29.5781"/>
<polygon fill="midnightblue" stroke="midnightblue" points="48.755,-26.3219 38.1892,-25.5377 45.9598,-32.7397 48.755,-26.3219"/>
</g>
<!-- Node16 -->
<g id="node16" class="node"><title>Node16</title>
<polygon fill="none" stroke="#bfbfbf" points="1090,-1 1090,-31 1190,-31 1190,-1 1090,-1"/>
<text text-anchor="start" x="1098" y="-19" font-family="Helvetica,sans-Serif" font-size="10.00">boost/container/flat</text>
<text text-anchor="middle" x="1140" y="-8" font-family="Helvetica,sans-Serif" font-size="10.00">_map.hpp</text>
</g>
<!-- Node15&#45;&gt;Node16 -->
<g id="edge17" class="edge"><title>Node15&#45;&gt;Node16</title>
<path fill="none" stroke="midnightblue" d="M813.704,-68.4741C884.06,-61.2841 983.311,-49.6047 1079.76,-31.8924"/>
<polygon fill="midnightblue" stroke="midnightblue" points="1080.49,-35.316 1089.68,-30.0461 1079.21,-28.434 1080.49,-35.316"/>
</g>
<!-- Node17 -->
<g id="node17" class="node"><title>Node17</title>
<polygon fill="none" stroke="#bfbfbf" points="64,-1 64,-31 180,-31 180,-1 64,-1"/>
<text text-anchor="start" x="72" y="-19" font-family="Helvetica,sans-Serif" font-size="10.00">boost/container/pmr</text>
<text text-anchor="middle" x="122" y="-8" font-family="Helvetica,sans-Serif" font-size="10.00">/memory_resource.hpp</text>
</g>
<!-- Node15&#45;&gt;Node17 -->
<g id="edge18" class="edge"><title>Node15&#45;&gt;Node17</title>
<path fill="none" stroke="midnightblue" d="M624.237,-68.7827C621.122,-68.5187 618.037,-68.2572 615,-68 428.905,-52.2366 378.52,-60.5268 189.975,-32.0155"/>
<polygon fill="midnightblue" stroke="midnightblue" points="190.427,-28.5441 180.013,-30.4946 189.37,-35.4639 190.427,-28.5441"/>
</g>
<!-- Node18 -->
<g id="node18" class="node"><title>Node18</title>
<polygon fill="none" stroke="#bfbfbf" points="198,-1 198,-31 354,-31 354,-1 198,-1"/>
<text text-anchor="start" x="206" y="-19" font-family="Helvetica,sans-Serif" font-size="10.00">boost/container/pmr</text>
<text text-anchor="middle" x="276" y="-8" font-family="Helvetica,sans-Serif" font-size="10.00">/monotonic_buffer_resource.hpp</text>
</g>
<!-- Node15&#45;&gt;Node18 -->
<g id="edge19" class="edge"><title>Node15&#45;&gt;Node18</title>
<path fill="none" stroke="midnightblue" d="M645.087,-68.4773C574.793,-60.3521 467.106,-47.3147 364.172,-32.1365"/>
<polygon fill="midnightblue" stroke="midnightblue" points="364.633,-28.6666 354.227,-30.6611 363.606,-35.5908 364.633,-28.6666"/>
</g>
<!-- Node19 -->
<g id="node19" class="node"><title>Node19</title>
<polygon fill="none" stroke="#bfbfbf" points="372.5,-1 372.5,-31 505.5,-31 505.5,-1 372.5,-1"/>
<text text-anchor="start" x="380.5" y="-19" font-family="Helvetica,sans-Serif" font-size="10.00">boost/container/pmr</text>
<text text-anchor="middle" x="439" y="-8" font-family="Helvetica,sans-Serif" font-size="10.00">/polymorphic_allocator.hpp</text>
</g>
<!-- Node15&#45;&gt;Node19 -->
<g id="edge20" class="edge"><title>Node15&#45;&gt;Node19</title>
<path fill="none" stroke="midnightblue" d="M680.896,-68.4672C637.807,-59.2994 568.32,-44.5149 514.853,-33.1389"/>
<polygon fill="midnightblue" stroke="midnightblue" points="515.575,-29.7143 505.066,-31.0565 514.118,-36.5611 515.575,-29.7143"/>
</g>
<!-- Node20 -->
<g id="node20" class="node"><title>Node20</title>
<polygon fill="none" stroke="#bfbfbf" points="524,-6.5 524,-25.5 586,-25.5 586,-6.5 524,-6.5"/>
<text text-anchor="middle" x="555" y="-13.5" font-family="Helvetica,sans-Serif" font-size="10.00">type_traits</text>
</g>
<!-- Node15&#45;&gt;Node20 -->
<g id="edge23" class="edge"><title>Node15&#45;&gt;Node20</title>
<path fill="none" stroke="midnightblue" d="M696.804,-68.4859C671.407,-59.5194 630.337,-44.9349 595,-32 592.475,-31.0758 589.864,-30.1126 587.24,-29.14"/>
<polygon fill="midnightblue" stroke="midnightblue" points="588.415,-25.8427 577.822,-25.629 585.97,-32.4017 588.415,-25.8427"/>
</g>
<!-- Node21 -->
<g id="node21" class="node"><title>Node21</title>
<polygon fill="none" stroke="#bfbfbf" points="604,-6.5 604,-25.5 644,-25.5 644,-6.5 604,-6.5"/>
<text text-anchor="middle" x="624" y="-13.5" font-family="Helvetica,sans-Serif" font-size="10.00">utility</text>
</g>
<!-- Node15&#45;&gt;Node21 -->
<g id="edge24" class="edge"><title>Node15&#45;&gt;Node21</title>
<path fill="none" stroke="midnightblue" d="M707.102,-68.4035C691.256,-58.6014 665.126,-42.4385 646.395,-30.8526"/>
<polygon fill="midnightblue" stroke="midnightblue" points="648.218,-27.8646 637.872,-25.5806 644.535,-33.8178 648.218,-27.8646"/>
</g>
<!-- Node22 -->
<g id="node22" class="node"><title>Node22</title>
<polygon fill="none" stroke="#bfbfbf" points="662,-6.5 662,-25.5 706,-25.5 706,-6.5 662,-6.5"/>
<text text-anchor="middle" x="684" y="-13.5" font-family="Helvetica,sans-Serif" font-size="10.00">vector</text>
</g>
<!-- Node15&#45;&gt;Node22 -->
<g id="edge25" class="edge"><title>Node15&#45;&gt;Node22</title>
<path fill="none" stroke="midnightblue" d="M715.699,-68.4035C710.204,-59.4925 701.467,-45.3247 694.556,-34.1177"/>
<polygon fill="midnightblue" stroke="midnightblue" points="697.519,-32.2552 689.291,-25.5806 691.561,-35.9294 697.519,-32.2552"/>
</g>
<!-- Node23 -->
<g id="node23" class="node"><title>Node23</title>
<polygon fill="none" stroke="#bfbfbf" points="724.5,-6.5 724.5,-25.5 807.5,-25.5 807.5,-6.5 724.5,-6.5"/>
<text text-anchor="middle" x="766" y="-13.5" font-family="Helvetica,sans-Serif" font-size="10.00">unordered_map</text>
</g>
<!-- Node15&#45;&gt;Node23 -->
<g id="edge26" class="edge"><title>Node15&#45;&gt;Node23</title>
<path fill="none" stroke="midnightblue" d="M727.447,-68.4035C734.197,-59.4034 744.969,-45.0408 753.413,-33.7824"/>
<polygon fill="midnightblue" stroke="midnightblue" points="756.365,-35.6806 759.565,-25.5806 750.765,-31.4806 756.365,-35.6806"/>
</g>
<!-- Node24 -->
<g id="node24" class="node"><title>Node24</title>
<polygon fill="none" stroke="#bfbfbf" points="825.5,-6.5 825.5,-25.5 922.5,-25.5 922.5,-6.5 825.5,-6.5"/>
<text text-anchor="middle" x="874" y="-13.5" font-family="Helvetica,sans-Serif" font-size="10.00">FairMQMessage.h</text>
</g>
<!-- Node15&#45;&gt;Node24 -->
<g id="edge27" class="edge"><title>Node15&#45;&gt;Node24</title>
<path fill="none" stroke="midnightblue" d="M742.921,-68.4035C769.052,-58.1559 812.912,-40.9561 842.63,-29.3021"/>
<polygon fill="midnightblue" stroke="midnightblue" points="844.088,-32.4899 852.119,-25.5806 841.532,-25.9731 844.088,-32.4899"/>
</g>
<!-- Node25 -->
<g id="node25" class="node"><title>Node25</title>
<polygon fill="none" stroke="#bfbfbf" points="940.5,-6.5 940.5,-25.5 1071.5,-25.5 1071.5,-6.5 940.5,-6.5"/>
<text text-anchor="middle" x="1006" y="-13.5" font-family="Helvetica,sans-Serif" font-size="10.00">FairMQTransportFactory.h</text>
</g>
<!-- Node15&#45;&gt;Node25 -->
<g id="edge28" class="edge"><title>Node15&#45;&gt;Node25</title>
<path fill="none" stroke="midnightblue" d="M761.531,-68.4672C812.601,-57.7156 900.365,-39.239 955.675,-27.5947"/>
<polygon fill="midnightblue" stroke="midnightblue" points="956.544,-30.9885 965.609,-25.5034 955.102,-24.1386 956.544,-30.9885"/>
</g>
</g>
</svg>
        <g id="navigator" transform="translate(0 0)" fill="#404254">
                <rect fill="#f2f5e9" fill-opacity="0.5" stroke="#606060" stroke-width=".5" x="0" y="0" width="60" height="60"/>
                <use id="zoomplus" xlink:href="#zoomPlus" x="17" y="9" onmousedown="handleZoom(evt,'in')"/>
                <use id="zoomminus" xlink:href="#zoomMin" x="42" y="9" onmousedown="handleZoom(evt,'out')"/>
                <use id="reset" xlink:href="#resetDef" x="30" y="36" onmousedown="handleReset()"/>
                <g id="arrowUp" xlink:href="#dirArrow" transform="translate(30 24)" onmousedown="handlePan(0,-1)">
                  <use xlink:href="#rim" fill="#404040">
                        <set attributeName="fill" to="#808080" begin="arrowUp.mouseover" end="arrowUp.mouseout"/>
                  </use>
                  <path fill="none" stroke="white" stroke-width="1.5" d="M0,-3.0v7 M-2.5,-0.5L0,-3.0L2.5,-0.5"/>
                </g>
                <g id="arrowRight" xlink:href="#dirArrow" transform="rotate(90) translate(36 -43)" onmousedown="handlePan(1,0)">
                  <use xlink:href="#rim" fill="#404040">
                        <set attributeName="fill" to="#808080" begin="arrowRight.mouseover" end="arrowRight.mouseout"/>
                  </use>
                  <path fill="none" stroke="white" stroke-width="1.5" d="M0,-3.0v7 M-2.5,-0.5L0,-3.0L2.5,-0.5"/>
                </g>
                <g id="arrowDown" xlink:href="#dirArrow" transform="rotate(180) translate(-30 -48)" onmousedown="handlePan(0,1)">
                  <use xlink:href="#rim" fill="#404040">
                        <set attributeName="fill" to="#808080" begin="arrowDown.mouseover" end="arrowDown.mouseout"/>
                  </use>
                  <path fill="none" stroke="white" stroke-width="1.5" d="M0,-3.0v7 M-2.5,-0.5L0,-3.0L2.5,-0.5"/>
                </g>
                <g id="arrowLeft" xlink:href="#dirArrow" transform="rotate(270) translate(-36 17)" onmousedown="handlePan(-1,0)">
                  <use xlink:href="#rim" fill="#404040">
                        <set attributeName="fill" to="#808080" begin="arrowLeft.mouseover" end="arrowLeft.mouseout"/>
                  </use>
                  <path fill="none" stroke="white" stroke-width="1.5" d="M0,-3.0v7 M-2.5,-0.5L0,-3.0L2.5,-0.5"/>
                </g>
        </g>
        <svg viewBox="0 0 15 15" width="100%" height="30px" preserveAspectRatio="xMaxYMin meet">
         <g id="arrow_out" transform="scale(0.3 0.3)">
          <a xlink:href="InputRoute_8h__incl_org.svg" target="_base">
           <rect id="button" ry="5" rx="5" y="6" x="6" height="38" width="38"
                fill="#f2f5e9" fill-opacity="0.5" stroke="#606060" stroke-width="1.0"/>
           <path id="arrow"
             d="M 11.500037,31.436501 C 11.940474,20.09759 22.043105,11.32322 32.158766,21.979434 L 37.068811,17.246167 C 37.068811,17.246167 37.088388,32 37.088388,32 L 22.160133,31.978069 C 22.160133,31.978069 26.997745,27.140456 26.997745,27.140456 C 18.528582,18.264221 13.291696,25.230495 11.500037,31.436501 z"
             style="fill:#404040;"/>
          </a>
         </g>
        </svg>
</svg>
