<?xml version="1.0" encoding="UTF-8" standalone="no"?>
<!DOCTYPE svg PUBLIC "-//W3C//DTD SVG 1.1//EN"
 "http://www.w3.org/Graphics/SVG/1.1/DTD/svg11.dtd">
<!-- Generated by graphviz version 2.36.0 (20140111.2315)
 -->
<!-- Title: /home/travis/build/AliceO2Group/AliceO2/Utilities/O2Device/include/O2Device/O2Device.h Pages: 1 -->
<svg width="1289pt" height="298pt"
 viewBox="0.00 0.00 1289.00 298.00" xmlns="http://www.w3.org/2000/svg" xmlns:xlink="http://www.w3.org/1999/xlink">
<g id="graph0" class="graph" transform="scale(1 1) rotate(0) translate(4 294)">
<title>/home/travis/build/AliceO2Group/AliceO2/Utilities/O2Device/include/O2Device/O2Device.h</title>
<!-- Node1 -->
<g id="node1" class="node"><title>Node1</title>
<polygon fill="#bfbfbf" stroke="black" points="920.5,-237 920.5,-289 1053.5,-289 1053.5,-237 920.5,-237"/>
<text text-anchor="start" x="928.5" y="-277" font-family="Helvetica,sans-Serif" font-size="10.00">/home/travis/build</text>
<text text-anchor="start" x="928.5" y="-266" font-family="Helvetica,sans-Serif" font-size="10.00">/AliceO2Group/AliceO2</text>
<text text-anchor="start" x="928.5" y="-255" font-family="Helvetica,sans-Serif" font-size="10.00">/Utilities/O2Device/include</text>
<text text-anchor="middle" x="987" y="-244" font-family="Helvetica,sans-Serif" font-size="10.00">/O2Device/O2Device.h</text>
</g>
<!-- Node2 -->
<g id="node2" class="node"><title>Node2</title>
<polygon fill="none" stroke="#bfbfbf" points="665,-180.5 665,-199.5 753,-199.5 753,-180.5 665,-180.5"/>
<text text-anchor="middle" x="709" y="-187.5" font-family="Helvetica,sans-Serif" font-size="10.00">FairMQDevice.h</text>
</g>
<!-- Node1&#45;&gt;Node2 -->
<g id="edge1" class="edge"><title>Node1&#45;&gt;Node2</title>
<path fill="none" stroke="midnightblue" d="M920.412,-244.994C868.293,-231.683 797.33,-213.559 752.336,-202.068"/>
<polygon fill="midnightblue" stroke="midnightblue" points="753.148,-198.663 742.593,-199.579 751.416,-205.445 753.148,-198.663"/>
</g>
<!-- Node3 -->
<g id="node3" class="node"><title>Node3</title>
<polygon fill="none" stroke="#bfbfbf" points="771,-180.5 771,-199.5 917,-199.5 917,-180.5 771,-180.5"/>
<text text-anchor="middle" x="844" y="-187.5" font-family="Helvetica,sans-Serif" font-size="10.00">options/FairMQProgOptions.h</text>
</g>
<!-- Node1&#45;&gt;Node3 -->
<g id="edge2" class="edge"><title>Node1&#45;&gt;Node3</title>
<path fill="none" stroke="midnightblue" d="M936.584,-236.968C914.261,-225.885 888.927,-213.306 870.409,-204.112"/>
<polygon fill="midnightblue" stroke="midnightblue" points="871.913,-200.951 861.399,-199.639 868.8,-207.221 871.913,-200.951"/>
</g>
<!-- Node4 -->
<g id="node4" class="node"><title>Node4</title>
<g id="a_node4"><a xlink:href="../../d7/db2/Utilities_8h.html" target="_top" xlink:title="O2Device/Utilities.h">
<polygon fill="none" stroke="black" points="935,-180.5 935,-199.5 1039,-199.5 1039,-180.5 935,-180.5"/>
<text text-anchor="middle" x="987" y="-187.5" font-family="Helvetica,sans-Serif" font-size="10.00">O2Device/Utilities.h</text>
</a>
</g>
</g>
<!-- Node1&#45;&gt;Node4 -->
<g id="edge3" class="edge"><title>Node1&#45;&gt;Node4</title>
<path fill="none" stroke="midnightblue" d="M987,-236.768C987,-227.89 987,-218.074 987,-209.816"/>
<polygon fill="midnightblue" stroke="midnightblue" points="990.5,-209.757 987,-199.757 983.5,-209.757 990.5,-209.757"/>
</g>
<!-- Node23 -->
<g id="node23" class="node"><title>Node23</title>
<polygon fill="none" stroke="#bfbfbf" points="1205.5,-68.5 1205.5,-87.5 1264.5,-87.5 1264.5,-68.5 1205.5,-68.5"/>
<text text-anchor="middle" x="1235" y="-75.5" font-family="Helvetica,sans-Serif" font-size="10.00">stdexcept</text>
</g>
<!-- Node1&#45;&gt;Node23 -->
<g id="edge29" class="edge"><title>Node1&#45;&gt;Node23</title>
<path fill="none" stroke="midnightblue" d="M1020.96,-236.938C1073.48,-198.19 1172.73,-124.952 1215.06,-93.7153"/>
<polygon fill="midnightblue" stroke="midnightblue" points="1217.22,-96.4687 1223.19,-87.7149 1213.07,-90.8362 1217.22,-96.4687"/>
</g>
<!-- Node25 -->
<g id="node25" class="node"><title>Node25</title>
<polygon fill="none" stroke="#bfbfbf" points="1130.5,-180.5 1130.5,-199.5 1281.5,-199.5 1281.5,-180.5 1130.5,-180.5"/>
<text text-anchor="middle" x="1206" y="-187.5" font-family="Helvetica,sans-Serif" font-size="10.00">Monitoring/MonitoringFactory.h</text>
</g>
<!-- Node1&#45;&gt;Node25 -->
<g id="edge28" class="edge"><title>Node1&#45;&gt;Node25</title>
<path fill="none" stroke="midnightblue" d="M1053.6,-240.408C1091.87,-228.002 1138.44,-212.904 1169.95,-202.688"/>
<polygon fill="midnightblue" stroke="midnightblue" points="1171.19,-205.965 1179.62,-199.552 1169.03,-199.307 1171.19,-205.965"/>
</g>
<!-- Node5 -->
<g id="node5" class="node"><title>Node5</title>
<g id="a_node5"><a xlink:href="../../dc/d03/MemoryResources_8h.html" target="_top" xlink:title="MemoryResources/MemoryResources.h">
<polygon fill="none" stroke="black" points="641.5,-68.5 641.5,-87.5 834.5,-87.5 834.5,-68.5 641.5,-68.5"/>
<text text-anchor="middle" x="738" y="-75.5" font-family="Helvetica,sans-Serif" font-size="10.00">MemoryResources/MemoryResources.h</text>
</a>
</g>
</g>
<!-- Node4&#45;&gt;Node5 -->
<g id="edge4" class="edge"><title>Node4&#45;&gt;Node5</title>
<path fill="none" stroke="midnightblue" d="M967.444,-180.378C946.91,-171.324 913.682,-156.668 885,-144 843.95,-125.869 796.463,-104.866 766.827,-91.7552"/>
<polygon fill="midnightblue" stroke="midnightblue" points="768.057,-88.4721 757.496,-87.6269 765.225,-94.8736 768.057,-88.4721"/>
</g>
<!-- Node13 -->
<g id="node13" class="node"><title>Node13</title>
<polygon fill="none" stroke="#bfbfbf" points="0,-6.5 0,-25.5 40,-25.5 40,-6.5 0,-6.5"/>
<text text-anchor="middle" x="20" y="-13.5" font-family="Helvetica,sans-Serif" font-size="10.00">utility</text>
</g>
<!-- Node4&#45;&gt;Node13 -->
<g id="edge26" class="edge"><title>Node4&#45;&gt;Node13</title>
<path fill="none" stroke="midnightblue" d="M934.88,-181.246C750.283,-153.649 134.079,-60.3449 49,-32 47.1447,-31.3819 45.2627,-30.6579 43.395,-29.8679"/>
<polygon fill="midnightblue" stroke="midnightblue" points="44.8962,-26.7062 34.3645,-25.5512 41.8773,-33.0218 44.8962,-26.7062"/>
</g>
<!-- Node18 -->
<g id="node18" class="node"><title>Node18</title>
<g id="a_node18"><a xlink:href="../../dc/dcd/DataHeader_8h.html" target="_top" xlink:title="Headers/DataHeader.h">
<polygon fill="none" stroke="black" points="893.5,-124.5 893.5,-143.5 1010.5,-143.5 1010.5,-124.5 893.5,-124.5"/>
<text text-anchor="middle" x="952" y="-131.5" font-family="Helvetica,sans-Serif" font-size="10.00">Headers/DataHeader.h</text>
</a>
</g>
</g>
<!-- Node4&#45;&gt;Node18 -->
<g id="edge17" class="edge"><title>Node4&#45;&gt;Node18</title>
<path fill="none" stroke="midnightblue" d="M981.22,-180.083C976.328,-172.534 969.173,-161.495 963.167,-152.23"/>
<polygon fill="midnightblue" stroke="midnightblue" points="966.048,-150.239 957.672,-143.751 960.174,-154.046 966.048,-150.239"/>
</g>
<!-- Node24 -->
<g id="node24" class="node"><title>Node24</title>
<polygon fill="none" stroke="#bfbfbf" points="1028.5,-124.5 1028.5,-143.5 1073.5,-143.5 1073.5,-124.5 1028.5,-124.5"/>
<text text-anchor="middle" x="1051" y="-131.5" font-family="Helvetica,sans-Serif" font-size="10.00">gsl/gsl</text>
</g>
<!-- Node4&#45;&gt;Node24 -->
<g id="edge27" class="edge"><title>Node4&#45;&gt;Node24</title>
<path fill="none" stroke="midnightblue" d="M997.283,-180.324C1006.84,-172.263 1021.28,-160.077 1032.78,-150.369"/>
<polygon fill="midnightblue" stroke="midnightblue" points="1035.14,-152.958 1040.53,-143.834 1030.63,-147.608 1035.14,-152.958"/>
</g>
<!-- Node6 -->
<g id="node6" class="node"><title>Node6</title>
<polygon fill="none" stroke="#bfbfbf" points="58,-1 58,-31 158,-31 158,-1 58,-1"/>
<text text-anchor="start" x="66" y="-19" font-family="Helvetica,sans-Serif" font-size="10.00">boost/container/flat</text>
<text text-anchor="middle" x="108" y="-8" font-family="Helvetica,sans-Serif" font-size="10.00">_map.hpp</text>
</g>
<!-- Node5&#45;&gt;Node6 -->
<g id="edge5" class="edge"><title>Node5&#45;&gt;Node6</title>
<path fill="none" stroke="midnightblue" d="M641.417,-74.3987C529.553,-70.2542 339.712,-59.7346 168.064,-31.988"/>
<polygon fill="midnightblue" stroke="midnightblue" points="168.524,-28.5167 158.089,-30.3526 167.391,-35.4245 168.524,-28.5167"/>
</g>
<!-- Node7 -->
<g id="node7" class="node"><title>Node7</title>
<polygon fill="none" stroke="#bfbfbf" points="176,-1 176,-31 292,-31 292,-1 176,-1"/>
<text text-anchor="start" x="184" y="-19" font-family="Helvetica,sans-Serif" font-size="10.00">boost/container/pmr</text>
<text text-anchor="middle" x="234" y="-8" font-family="Helvetica,sans-Serif" font-size="10.00">/memory_resource.hpp</text>
</g>
<!-- Node5&#45;&gt;Node7 -->
<g id="edge6" class="edge"><title>Node5&#45;&gt;Node7</title>
<path fill="none" stroke="midnightblue" d="M641.234,-70.3195C554.737,-63.5913 424.396,-51.5936 301.953,-32.0345"/>
<polygon fill="midnightblue" stroke="midnightblue" points="302.454,-28.5702 292.023,-30.4288 301.336,-35.4804 302.454,-28.5702"/>
</g>
<!-- Node8 -->
<g id="node8" class="node"><title>Node8</title>
<polygon fill="none" stroke="#bfbfbf" points="310,-1 310,-31 466,-31 466,-1 310,-1"/>
<text text-anchor="start" x="318" y="-19" font-family="Helvetica,sans-Serif" font-size="10.00">boost/container/pmr</text>
<text text-anchor="middle" x="388" y="-8" font-family="Helvetica,sans-Serif" font-size="10.00">/monotonic_buffer_resource.hpp</text>
</g>
<!-- Node5&#45;&gt;Node8 -->
<g id="edge7" class="edge"><title>Node5&#45;&gt;Node8</title>
<path fill="none" stroke="midnightblue" d="M688.225,-68.4672C633.205,-59.0351 543.503,-43.6576 476.454,-32.1635"/>
<polygon fill="midnightblue" stroke="midnightblue" points="476.763,-28.6654 466.315,-30.4254 475.58,-35.5648 476.763,-28.6654"/>
</g>
<!-- Node9 -->
<g id="node9" class="node"><title>Node9</title>
<polygon fill="none" stroke="#bfbfbf" points="484.5,-1 484.5,-31 617.5,-31 617.5,-1 484.5,-1"/>
<text text-anchor="start" x="492.5" y="-19" font-family="Helvetica,sans-Serif" font-size="10.00">boost/container/pmr</text>
<text text-anchor="middle" x="551" y="-8" font-family="Helvetica,sans-Serif" font-size="10.00">/polymorphic_allocator.hpp</text>
</g>
<!-- Node5&#45;&gt;Node9 -->
<g id="edge8" class="edge"><title>Node5&#45;&gt;Node9</title>
<path fill="none" stroke="midnightblue" d="M711.207,-68.4035C683.422,-59.4882 639.236,-45.311 604.3,-34.1014"/>
<polygon fill="midnightblue" stroke="midnightblue" points="605.303,-30.7479 594.712,-31.0253 603.165,-37.4132 605.303,-30.7479"/>
</g>
<!-- Node10 -->
<g id="node10" class="node"><title>Node10</title>
<polygon fill="none" stroke="#bfbfbf" points="1144,-6.5 1144,-25.5 1190,-25.5 1190,-6.5 1144,-6.5"/>
<text text-anchor="middle" x="1167" y="-13.5" font-family="Helvetica,sans-Serif" font-size="10.00">cstring</text>
</g>
<!-- Node5&#45;&gt;Node10 -->
<g id="edge9" class="edge"><title>Node5&#45;&gt;Node10</title>
<path fill="none" stroke="midnightblue" d="M825.86,-68.4849C933.464,-57.8271 1105.07,-40.002 1134,-32 1136.49,-31.3099 1139.04,-30.4545 1141.55,-29.5046"/>
<polygon fill="midnightblue" stroke="midnightblue" points="1143.09,-32.6532 1150.93,-25.5232 1140.36,-26.21 1143.09,-32.6532"/>
</g>
<!-- Node11 -->
<g id="node11" class="node"><title>Node11</title>
<polygon fill="none" stroke="#bfbfbf" points="1208.5,-6.5 1208.5,-25.5 1249.5,-25.5 1249.5,-6.5 1208.5,-6.5"/>
<text text-anchor="middle" x="1229" y="-13.5" font-family="Helvetica,sans-Serif" font-size="10.00">string</text>
</g>
<!-- Node5&#45;&gt;Node11 -->
<g id="edge10" class="edge"><title>Node5&#45;&gt;Node11</title>
<path fill="none" stroke="midnightblue" d="M834.694,-69.4538C959.564,-59.416 1164.98,-41.8014 1199,-32 1200.97,-31.4318 1202.97,-30.7357 1204.95,-29.9576"/>
<polygon fill="midnightblue" stroke="midnightblue" points="1206.84,-32.9398 1214.48,-25.5977 1203.93,-26.5739 1206.84,-32.9398"/>
</g>
<!-- Node12 -->
<g id="node12" class="node"><title>Node12</title>
<polygon fill="none" stroke="#bfbfbf" points="636,-6.5 636,-25.5 698,-25.5 698,-6.5 636,-6.5"/>
<text text-anchor="middle" x="667" y="-13.5" font-family="Helvetica,sans-Serif" font-size="10.00">type_traits</text>
</g>
<!-- Node5&#45;&gt;Node12 -->
<g id="edge11" class="edge"><title>Node5&#45;&gt;Node12</title>
<path fill="none" stroke="midnightblue" d="M727.827,-68.4035C716.65,-58.9579 698.483,-43.6056 684.909,-32.1342"/>
<polygon fill="midnightblue" stroke="midnightblue" points="687.051,-29.3619 677.154,-25.5806 682.533,-34.7085 687.051,-29.3619"/>
</g>
<!-- Node5&#45;&gt;Node13 -->
<g id="edge12" class="edge"><title>Node5&#45;&gt;Node13</title>
<path fill="none" stroke="midnightblue" d="M641.289,-75.5594C478.681,-72.3232 157.632,-62.2148 49,-32 47.034,-31.4532 45.0475,-30.7635 43.0851,-29.982"/>
<polygon fill="midnightblue" stroke="midnightblue" points="44.218,-26.6466 33.6805,-25.5451 41.2312,-32.9774 44.218,-26.6466"/>
</g>
<!-- Node14 -->
<g id="node14" class="node"><title>Node14</title>
<polygon fill="none" stroke="#bfbfbf" points="716,-6.5 716,-25.5 760,-25.5 760,-6.5 716,-6.5"/>
<text text-anchor="middle" x="738" y="-13.5" font-family="Helvetica,sans-Serif" font-size="10.00">vector</text>
</g>
<!-- Node5&#45;&gt;Node14 -->
<g id="edge13" class="edge"><title>Node5&#45;&gt;Node14</title>
<path fill="none" stroke="midnightblue" d="M738,-68.4035C738,-59.9381 738,-46.7283 738,-35.8199"/>
<polygon fill="midnightblue" stroke="midnightblue" points="741.5,-35.5806 738,-25.5806 734.5,-35.5806 741.5,-35.5806"/>
</g>
<!-- Node15 -->
<g id="node15" class="node"><title>Node15</title>
<polygon fill="none" stroke="#bfbfbf" points="778.5,-6.5 778.5,-25.5 861.5,-25.5 861.5,-6.5 778.5,-6.5"/>
<text text-anchor="middle" x="820" y="-13.5" font-family="Helvetica,sans-Serif" font-size="10.00">unordered_map</text>
</g>
<!-- Node5&#45;&gt;Node15 -->
<g id="edge14" class="edge"><title>Node5&#45;&gt;Node15</title>
<path fill="none" stroke="midnightblue" d="M749.749,-68.4035C762.901,-58.7797 784.434,-43.0242 800.198,-31.4891"/>
<polygon fill="midnightblue" stroke="midnightblue" points="802.27,-34.3103 808.273,-25.5806 798.136,-28.6611 802.27,-34.3103"/>
</g>
<!-- Node16 -->
<g id="node16" class="node"><title>Node16</title>
<polygon fill="none" stroke="#bfbfbf" points="879.5,-6.5 879.5,-25.5 976.5,-25.5 976.5,-6.5 879.5,-6.5"/>
<text text-anchor="middle" x="928" y="-13.5" font-family="Helvetica,sans-Serif" font-size="10.00">FairMQMessage.h</text>
</g>
<!-- Node5&#45;&gt;Node16 -->
<g id="edge15" class="edge"><title>Node5&#45;&gt;Node16</title>
<path fill="none" stroke="midnightblue" d="M765.222,-68.4035C798.237,-57.9777 854.04,-40.3557 890.953,-28.6992"/>
<polygon fill="midnightblue" stroke="midnightblue" points="892.346,-31.9295 900.828,-25.5806 890.238,-25.2544 892.346,-31.9295"/>
</g>
<!-- Node17 -->
<g id="node17" class="node"><title>Node17</title>
<polygon fill="none" stroke="#bfbfbf" points="994.5,-6.5 994.5,-25.5 1125.5,-25.5 1125.5,-6.5 994.5,-6.5"/>
<text text-anchor="middle" x="1060" y="-13.5" font-family="Helvetica,sans-Serif" font-size="10.00">FairMQTransportFactory.h</text>
</g>
<!-- Node5&#45;&gt;Node17 -->
<g id="edge16" class="edge"><title>Node5&#45;&gt;Node17</title>
<path fill="none" stroke="midnightblue" d="M786.322,-68.4497C836.147,-59.5738 916.071,-45.1709 985,-32 992.436,-30.5791 1000.28,-29.047 1007.98,-27.5238"/>
<polygon fill="midnightblue" stroke="midnightblue" points="1008.85,-30.9194 1017.98,-25.5367 1007.49,-24.0538 1008.85,-30.9194"/>
</g>
<!-- Node18&#45;&gt;Node5 -->
<g id="edge25" class="edge"><title>Node18&#45;&gt;Node5</title>
<path fill="none" stroke="midnightblue" d="M918.091,-124.444C881.151,-115.122 821.946,-100.183 781.582,-89.9972"/>
<polygon fill="midnightblue" stroke="midnightblue" points="782.303,-86.5695 771.75,-87.5164 780.59,-93.3568 782.303,-86.5695"/>
</g>
<!-- Node18&#45;&gt;Node10 -->
<g id="edge21" class="edge"><title>Node18&#45;&gt;Node10</title>
<path fill="none" stroke="midnightblue" d="M931.972,-124.355C906.669,-112.259 868.522,-89.3658 887,-68 923.284,-26.0444 1080.78,-47.6316 1134,-32 1136.34,-31.3117 1138.74,-30.4873 1141.11,-29.5839"/>
<polygon fill="midnightblue" stroke="midnightblue" points="1142.72,-32.6997 1150.56,-25.5718 1139.99,-26.2557 1142.72,-32.6997"/>
</g>
<!-- Node18&#45;&gt;Node11 -->
<g id="edge24" class="edge"><title>Node18&#45;&gt;Node11</title>
<path fill="none" stroke="midnightblue" d="M941.735,-124.156C927.435,-110.792 904.884,-85.1918 920,-68 961.279,-21.0526 1139.2,-50.2342 1199,-32 1200.92,-31.414 1202.87,-30.7136 1204.8,-29.9401"/>
<polygon fill="midnightblue" stroke="midnightblue" points="1206.52,-33.0054 1214.15,-25.6567 1203.6,-26.6421 1206.52,-33.0054"/>
</g>
<!-- Node19 -->
<g id="node19" class="node"><title>Node19</title>
<polygon fill="none" stroke="#bfbfbf" points="929,-68.5 929,-87.5 975,-87.5 975,-68.5 929,-68.5"/>
<text text-anchor="middle" x="952" y="-75.5" font-family="Helvetica,sans-Serif" font-size="10.00">cstdint</text>
</g>
<!-- Node18&#45;&gt;Node19 -->
<g id="edge18" class="edge"><title>Node18&#45;&gt;Node19</title>
<path fill="none" stroke="midnightblue" d="M952,-124.083C952,-117.006 952,-106.861 952,-97.9865"/>
<polygon fill="midnightblue" stroke="midnightblue" points="955.5,-97.751 952,-87.7511 948.5,-97.7511 955.5,-97.751"/>
</g>
<!-- Node20 -->
<g id="node20" class="node"><title>Node20</title>
<polygon fill="none" stroke="#bfbfbf" points="993,-68.5 993,-87.5 1045,-87.5 1045,-68.5 993,-68.5"/>
<text text-anchor="middle" x="1019" y="-75.5" font-family="Helvetica,sans-Serif" font-size="10.00">memory</text>
</g>
<!-- Node18&#45;&gt;Node20 -->
<g id="edge19" class="edge"><title>Node18&#45;&gt;Node20</title>
<path fill="none" stroke="midnightblue" d="M962.765,-124.324C972.766,-116.263 987.887,-104.077 999.93,-94.3695"/>
<polygon fill="midnightblue" stroke="midnightblue" points="1002.45,-96.8343 1008.04,-87.8339 998.057,-91.3841 1002.45,-96.8343"/>
</g>
<!-- Node21 -->
<g id="node21" class="node"><title>Node21</title>
<polygon fill="none" stroke="#bfbfbf" points="1063.5,-68.5 1063.5,-87.5 1112.5,-87.5 1112.5,-68.5 1063.5,-68.5"/>
<text text-anchor="middle" x="1088" y="-75.5" font-family="Helvetica,sans-Serif" font-size="10.00">cassert</text>
</g>
<!-- Node18&#45;&gt;Node21 -->
<g id="edge20" class="edge"><title>Node18&#45;&gt;Node21</title>
<path fill="none" stroke="midnightblue" d="M973.55,-124.444C996.031,-115.517 1031.49,-101.439 1056.98,-91.3168"/>
<polygon fill="midnightblue" stroke="midnightblue" points="1058.55,-94.4598 1066.55,-87.5164 1055.97,-87.9539 1058.55,-94.4598"/>
</g>
<!-- Node22 -->
<g id="node22" class="node"><title>Node22</title>
<polygon fill="none" stroke="#bfbfbf" points="1131,-68.5 1131,-87.5 1187,-87.5 1187,-68.5 1131,-68.5"/>
<text text-anchor="middle" x="1159" y="-75.5" font-family="Helvetica,sans-Serif" font-size="10.00">algorithm</text>
</g>
<!-- Node18&#45;&gt;Node22 -->
<g id="edge22" class="edge"><title>Node18&#45;&gt;Node22</title>
<path fill="none" stroke="midnightblue" d="M984.8,-124.444C1021.74,-114.807 1081.7,-99.1653 1120.74,-88.98"/>
<polygon fill="midnightblue" stroke="midnightblue" points="1121.89,-92.2994 1130.68,-86.3884 1120.12,-85.526 1121.89,-92.2994"/>
</g>
<!-- Node18&#45;&gt;Node23 -->
<g id="edge23" class="edge"><title>Node18&#45;&gt;Node23</title>
<path fill="none" stroke="midnightblue" d="M1000.98,-124.497C1050.13,-115.83 1127.96,-101.744 1195,-88 1195.1,-87.9786 1195.21,-87.9571 1195.31,-87.9355"/>
<polygon fill="midnightblue" stroke="midnightblue" points="1196.27,-91.3116 1205.32,-85.8104 1194.81,-84.4643 1196.27,-91.3116"/>
</g>
</g>
</svg>
