<?xml version="1.0" encoding="UTF-8" standalone="no"?>
<!DOCTYPE svg PUBLIC "-//W3C//DTD SVG 1.1//EN"
 "http://www.w3.org/Graphics/SVG/1.1/DTD/svg11.dtd">
<!-- Generated by graphviz version 2.36.0 (20140111.2315)
 -->
<!-- Title: o2::framework::DataRelayer::RecordAction Pages: 1 -->
<svg width="162pt" height="184pt"
 viewBox="0.00 0.00 162.00 184.00" xmlns="http://www.w3.org/2000/svg" xmlns:xlink="http://www.w3.org/1999/xlink">
<g id="graph0" class="graph" transform="scale(1 1) rotate(0) translate(4 180)">
<title>o2::framework::DataRelayer::RecordAction</title>
<!-- Node1 -->
<g id="node1" class="node"><title>Node1</title>
<polygon fill="#bfbfbf" stroke="black" points="0,-1 0,-69 140,-69 140,-1 0,-1"/>
<text text-anchor="start" x="8" y="-57" font-family="Helvetica,sans-Serif" font-size="10.00">o2::framework::DataRelayer</text>
<text text-anchor="middle" x="70" y="-46" font-family="Helvetica,sans-Serif" font-size="10.00">::RecordAction</text>
<polyline fill="none" stroke="black" points="0,-39 140,-39 "/>
<text text-anchor="middle" x="70" y="-27" font-family="Helvetica,sans-Serif" font-size="10.00"> </text>
<polyline fill="none" stroke="black" points="0,-20 140,-20 "/>
<text text-anchor="middle" x="70" y="-8" font-family="Helvetica,sans-Serif" font-size="10.00"> </text>
</g>
<!-- Node2 -->
<g id="node2" class="node"><title>Node2</title>
<polygon fill="none" stroke="#bfbfbf" points="3.5,-118.5 3.5,-175.5 46.5,-175.5 46.5,-118.5 3.5,-118.5"/>
<text text-anchor="middle" x="25" y="-163.5" font-family="Helvetica,sans-Serif" font-size="10.00">size_t</text>
<polyline fill="none" stroke="#bfbfbf" points="3.5,-156.5 46.5,-156.5 "/>
<text text-anchor="middle" x="25" y="-144.5" font-family="Helvetica,sans-Serif" font-size="10.00"> </text>
<polyline fill="none" stroke="#bfbfbf" points="3.5,-137.5 46.5,-137.5 "/>
<text text-anchor="middle" x="25" y="-125.5" font-family="Helvetica,sans-Serif" font-size="10.00"> </text>
</g>
<!-- Node2&#45;&gt;Node1 -->
<g id="edge1" class="edge"><title>Node2&#45;&gt;Node1</title>
<path fill="none" stroke="#404040" d="M21.7178,-118.431C21.5082,-108.557 22.4192,-97.5205 26,-88 27.0928,-85.0944 28.4242,-82.2379 29.9336,-79.4511"/>
<polygon fill="none" stroke="#404040" points="30.0793,-79.2215 29.918,-72.0122 36.5107,-69.0905 36.672,-76.2998 30.0793,-79.2215"/>
<text text-anchor="middle" x="59.5" y="-91.5" font-family="Helvetica,sans-Serif" font-size="10.00"> +cacheLineIdx</text>
</g>
<!-- Node3 -->
<g id="node3" class="node"><title>Node3</title>
<polygon fill="none" stroke="#bfbfbf" points="75.5,-118.5 75.5,-175.5 154.5,-175.5 154.5,-118.5 75.5,-118.5"/>
<text text-anchor="middle" x="115" y="-163.5" font-family="Helvetica,sans-Serif" font-size="10.00">CompletionOp</text>
<polyline fill="none" stroke="#bfbfbf" points="75.5,-156.5 154.5,-156.5 "/>
<text text-anchor="middle" x="115" y="-144.5" font-family="Helvetica,sans-Serif" font-size="10.00"> </text>
<polyline fill="none" stroke="#bfbfbf" points="75.5,-137.5 154.5,-137.5 "/>
<text text-anchor="middle" x="115" y="-125.5" font-family="Helvetica,sans-Serif" font-size="10.00"> </text>
</g>
<!-- Node3&#45;&gt;Node1 -->
<g id="edge2" class="edge"><title>Node3&#45;&gt;Node1</title>
<path fill="none" stroke="#404040" d="M104.894,-118.442C101.256,-108.772 97.0485,-97.8632 93,-88 91.9797,-85.5144 90.9164,-82.9694 89.8308,-80.4059"/>
<polygon fill="none" stroke="#404040" points="89.7398,-80.1948 83.6922,-76.2671 84.9918,-69.1741 91.0394,-73.1017 89.7398,-80.1948"/>
<text text-anchor="middle" x="107" y="-91.5" font-family="Helvetica,sans-Serif" font-size="10.00"> +op</text>
</g>
</g>
</svg>
