<?xml version="1.0" encoding="UTF-8" standalone="no"?>
<!DOCTYPE svg PUBLIC "-//W3C//DTD SVG 1.1//EN"
 "http://www.w3.org/Graphics/SVG/1.1/DTD/svg11.dtd">
<!-- Generated by graphviz version 2.36.0 (20140111.2315)
 -->
<!-- Title: o2::ITSMFT::ITSDPLDigitWriter Pages: 1 -->
<svg width="852pt" height="716pt"
 viewBox="0.00 0.00 852.00 716.00" xmlns="http://www.w3.org/2000/svg" xmlns:xlink="http://www.w3.org/1999/xlink">
<g id="graph0" class="graph" transform="scale(1 1) rotate(0) translate(4 712)">
<title>o2::ITSMFT::ITSDPLDigitWriter</title>
<!-- Node1 -->
<g id="node1" class="node"><title>Node1</title>
<polygon fill="#bfbfbf" stroke="black" points="370.5,-0.5 370.5,-57.5 527.5,-57.5 527.5,-0.5 370.5,-0.5"/>
<text text-anchor="middle" x="449" y="-45.5" font-family="Helvetica,sans-Serif" font-size="10.00">o2::ITSMFT::ITSDPLDigitWriter</text>
<polyline fill="none" stroke="black" points="370.5,-38.5 527.5,-38.5 "/>
<text text-anchor="middle" x="449" y="-26.5" font-family="Helvetica,sans-Serif" font-size="10.00"> </text>
<polyline fill="none" stroke="black" points="370.5,-19.5 527.5,-19.5 "/>
<text text-anchor="start" x="378.5" y="-7.5" font-family="Helvetica,sans-Serif" font-size="10.00">+ ITSDPLDigitWriter()</text>
</g>
<!-- Node2 -->
<g id="node2" class="node"><title>Node2</title>
<g id="a_node2"><a xlink:href="../../d4/dd9/classo2_1_1ITSMFT_1_1ITSMFTDPLDigitWriter.html" target="_top" xlink:title="{o2::ITSMFT::ITSMFTDPLDigit\lWriter\n||+ init()\l+ run()\l# ITSMFTDPLDigitWriter()\l# getOrMakeBranch()\l}">
<polygon fill="none" stroke="black" points="373.5,-106.5 373.5,-207.5 524.5,-207.5 524.5,-106.5 373.5,-106.5"/>
<text text-anchor="start" x="381.5" y="-195.5" font-family="Helvetica,sans-Serif" font-size="10.00">o2::ITSMFT::ITSMFTDPLDigit</text>
<text text-anchor="middle" x="449" y="-184.5" font-family="Helvetica,sans-Serif" font-size="10.00">Writer</text>
<polyline fill="none" stroke="black" points="373.5,-177.5 524.5,-177.5 "/>
<text text-anchor="middle" x="449" y="-165.5" font-family="Helvetica,sans-Serif" font-size="10.00"> </text>
<polyline fill="none" stroke="black" points="373.5,-158.5 524.5,-158.5 "/>
<text text-anchor="start" x="381.5" y="-146.5" font-family="Helvetica,sans-Serif" font-size="10.00">+ init()</text>
<text text-anchor="start" x="381.5" y="-135.5" font-family="Helvetica,sans-Serif" font-size="10.00">+ run()</text>
<text text-anchor="start" x="381.5" y="-124.5" font-family="Helvetica,sans-Serif" font-size="10.00"># ITSMFTDPLDigitWriter()</text>
<text text-anchor="start" x="381.5" y="-113.5" font-family="Helvetica,sans-Serif" font-size="10.00"># getOrMakeBranch()</text>
</a>
</g>
</g>
<!-- Node2&#45;&gt;Node1 -->
<g id="edge1" class="edge"><title>Node2&#45;&gt;Node1</title>
<path fill="none" stroke="midnightblue" d="M449,-96.0249C449,-82.6177 449,-69.0273 449,-57.6902"/>
<polygon fill="none" stroke="midnightblue" points="445.5,-96.2014 449,-106.201 452.5,-96.2015 445.5,-96.2014"/>
</g>
<!-- Node3 -->
<g id="node3" class="node"><title>Node3</title>
<polygon fill="none" stroke="#bfbfbf" points="702,-339 702,-407 844,-407 844,-339 702,-339"/>
<text text-anchor="start" x="710" y="-395" font-family="Helvetica,sans-Serif" font-size="10.00">Descriptor&lt; gSizeDataOrigin</text>
<text text-anchor="middle" x="773" y="-384" font-family="Helvetica,sans-Serif" font-size="10.00">String, printDataOrigin &gt;</text>
<polyline fill="none" stroke="#bfbfbf" points="702,-377 844,-377 "/>
<text text-anchor="middle" x="773" y="-365" font-family="Helvetica,sans-Serif" font-size="10.00"> </text>
<polyline fill="none" stroke="#bfbfbf" points="702,-358 844,-358 "/>
<text text-anchor="middle" x="773" y="-346" font-family="Helvetica,sans-Serif" font-size="10.00"> </text>
</g>
<!-- Node3&#45;&gt;Node2 -->
<g id="edge2" class="edge"><title>Node3&#45;&gt;Node2</title>
<path fill="none" stroke="#404040" d="M761.175,-338.856C747.048,-304.495 719.925,-252.21 678,-226 626.162,-193.593 597.862,-224.911 536.631,-208.556"/>
<polygon fill="none" stroke="#404040" points="536.272,-208.446 529.362,-210.508 524.801,-204.922 531.712,-202.86 536.272,-208.446"/>
<text text-anchor="middle" x="715.5" y="-229.5" font-family="Helvetica,sans-Serif" font-size="10.00"> #mOrigin</text>
</g>
<!-- Node4 -->
<g id="node4" class="node"><title>Node4</title>
<polygon fill="none" stroke="#bfbfbf" points="152.5,-344.5 152.5,-401.5 253.5,-401.5 253.5,-344.5 152.5,-344.5"/>
<text text-anchor="middle" x="203" y="-389.5" font-family="Helvetica,sans-Serif" font-size="10.00">unique_ptr&lt; TFile &gt;</text>
<polyline fill="none" stroke="#bfbfbf" points="152.5,-382.5 253.5,-382.5 "/>
<text text-anchor="middle" x="203" y="-370.5" font-family="Helvetica,sans-Serif" font-size="10.00"> </text>
<polyline fill="none" stroke="#bfbfbf" points="152.5,-363.5 253.5,-363.5 "/>
<text text-anchor="middle" x="203" y="-351.5" font-family="Helvetica,sans-Serif" font-size="10.00"> </text>
</g>
<!-- Node4&#45;&gt;Node2 -->
<g id="edge3" class="edge"><title>Node4&#45;&gt;Node2</title>
<path fill="none" stroke="#404040" d="M211.908,-344.22C221.254,-318.689 238.084,-281.105 263,-256 290.72,-228.069 328.081,-206.283 362.046,-190.419"/>
<polygon fill="none" stroke="#404040" points="362.486,-190.22 366.299,-184.1 373.416,-185.266 369.602,-191.386 362.486,-190.22"/>
<text text-anchor="middle" x="323.5" y="-229.5" font-family="Helvetica,sans-Serif" font-size="10.00"> #mOutFile</text>
</g>
<!-- Node5 -->
<g id="node5" class="node"><title>Node5</title>
<g id="a_node5"><a xlink:href="../../d6/dd5/classo2_1_1detectors_1_1DetID.html" target="_top" xlink:title="Static class with identifiers, bitmasks and names for ALICE detectors. ">
<polygon fill="none" stroke="black" points="272,-256.5 272,-489.5 378,-489.5 378,-256.5 272,-256.5"/>
<text text-anchor="middle" x="325" y="-477.5" font-family="Helvetica,sans-Serif" font-size="10.00">o2::detectors::DetID</text>
<polyline fill="none" stroke="black" points="272,-470.5 378,-470.5 "/>
<text text-anchor="start" x="280" y="-458.5" font-family="Helvetica,sans-Serif" font-size="10.00">+ TOF</text>
<text text-anchor="start" x="280" y="-447.5" font-family="Helvetica,sans-Serif" font-size="10.00">+ PHS</text>
<text text-anchor="start" x="280" y="-436.5" font-family="Helvetica,sans-Serif" font-size="10.00">+ EMC</text>
<text text-anchor="start" x="280" y="-425.5" font-family="Helvetica,sans-Serif" font-size="10.00">+ HMP</text>
<text text-anchor="start" x="280" y="-414.5" font-family="Helvetica,sans-Serif" font-size="10.00">+ MFT</text>
<text text-anchor="start" x="280" y="-403.5" font-family="Helvetica,sans-Serif" font-size="10.00">+ Last</text>
<polyline fill="none" stroke="black" points="272,-396.5 378,-396.5 "/>
<text text-anchor="start" x="280" y="-384.5" font-family="Helvetica,sans-Serif" font-size="10.00">+ DetID()</text>
<text text-anchor="start" x="280" y="-373.5" font-family="Helvetica,sans-Serif" font-size="10.00">+ DetID()</text>
<text text-anchor="start" x="280" y="-362.5" font-family="Helvetica,sans-Serif" font-size="10.00">+ DetID()</text>
<text text-anchor="start" x="280" y="-351.5" font-family="Helvetica,sans-Serif" font-size="10.00">+ operator=()</text>
<text text-anchor="start" x="280" y="-340.5" font-family="Helvetica,sans-Serif" font-size="10.00">+ getID()</text>
<text text-anchor="start" x="280" y="-329.5" font-family="Helvetica,sans-Serif" font-size="10.00">+ getMask()</text>
<text text-anchor="start" x="280" y="-318.5" font-family="Helvetica,sans-Serif" font-size="10.00">+ getName()</text>
<text text-anchor="start" x="280" y="-307.5" font-family="Helvetica,sans-Serif" font-size="10.00">+ operator int()</text>
<text text-anchor="start" x="280" y="-296.5" font-family="Helvetica,sans-Serif" font-size="10.00">+ DetID()</text>
<text text-anchor="start" x="280" y="-285.5" font-family="Helvetica,sans-Serif" font-size="10.00">+ getNDetectors()</text>
<text text-anchor="start" x="280" y="-274.5" font-family="Helvetica,sans-Serif" font-size="10.00">+ getName()</text>
<text text-anchor="start" x="280" y="-263.5" font-family="Helvetica,sans-Serif" font-size="10.00">+ getMask()</text>
</a>
</g>
</g>
<!-- Node5&#45;&gt;Node2 -->
<g id="edge4" class="edge"><title>Node5&#45;&gt;Node2</title>
<path fill="none" stroke="#404040" d="M378.149,-271.461C381.107,-266.212 384.069,-261.031 387,-256 394.244,-243.564 402.277,-230.432 410.093,-217.962"/>
<polygon fill="none" stroke="#404040" points="410.182,-217.822 410.001,-210.613 416.586,-207.673 416.767,-214.882 410.182,-217.822"/>
<text text-anchor="middle" x="418" y="-229.5" font-family="Helvetica,sans-Serif" font-size="10.00"> #mID</text>
</g>
<!-- Node6 -->
<g id="node6" class="node"><title>Node6</title>
<polygon fill="none" stroke="#bfbfbf" points="280,-649.5 280,-706.5 380,-706.5 380,-649.5 280,-649.5"/>
<text text-anchor="middle" x="330" y="-694.5" font-family="Helvetica,sans-Serif" font-size="10.00">static constexpr ID</text>
<polyline fill="none" stroke="#bfbfbf" points="280,-687.5 380,-687.5 "/>
<text text-anchor="middle" x="330" y="-675.5" font-family="Helvetica,sans-Serif" font-size="10.00"> </text>
<polyline fill="none" stroke="#bfbfbf" points="280,-668.5 380,-668.5 "/>
<text text-anchor="middle" x="330" y="-656.5" font-family="Helvetica,sans-Serif" font-size="10.00"> </text>
</g>
<!-- Node6&#45;&gt;Node5 -->
<g id="edge5" class="edge"><title>Node6&#45;&gt;Node5</title>
<path fill="none" stroke="#404040" d="M329.543,-649.308C328.987,-615.621 328.011,-556.439 327.105,-501.558"/>
<polygon fill="none" stroke="#404040" points="327.105,-501.556 323.006,-495.623 326.907,-489.558 331.005,-495.491 327.105,-501.556"/>
<text text-anchor="middle" x="345.5" y="-621.5" font-family="Helvetica,sans-Serif" font-size="10.00"> +ACO</text>
<text text-anchor="middle" x="345.5" y="-610.5" font-family="Helvetica,sans-Serif" font-size="10.00">+First</text>
<text text-anchor="middle" x="345.5" y="-599.5" font-family="Helvetica,sans-Serif" font-size="10.00">+FIT</text>
<text text-anchor="middle" x="345.5" y="-588.5" font-family="Helvetica,sans-Serif" font-size="10.00">+MCH</text>
<text text-anchor="middle" x="345.5" y="-577.5" font-family="Helvetica,sans-Serif" font-size="10.00">+TRD</text>
<text text-anchor="middle" x="345.5" y="-566.5" font-family="Helvetica,sans-Serif" font-size="10.00">+TPC</text>
<text text-anchor="middle" x="345.5" y="-555.5" font-family="Helvetica,sans-Serif" font-size="10.00">+ZDC</text>
<text text-anchor="middle" x="345.5" y="-544.5" font-family="Helvetica,sans-Serif" font-size="10.00">+MID</text>
<text text-anchor="middle" x="345.5" y="-533.5" font-family="Helvetica,sans-Serif" font-size="10.00">+ITS</text>
<text text-anchor="middle" x="345.5" y="-522.5" font-family="Helvetica,sans-Serif" font-size="10.00">+CPV</text>
<text text-anchor="middle" x="345.5" y="-511.5" font-family="Helvetica,sans-Serif" font-size="10.00">...</text>
</g>
<!-- Node7 -->
<g id="node7" class="node"><title>Node7</title>
<polygon fill="none" stroke="#bfbfbf" points="196.5,-649.5 196.5,-706.5 225.5,-706.5 225.5,-649.5 196.5,-649.5"/>
<text text-anchor="middle" x="211" y="-694.5" font-family="Helvetica,sans-Serif" font-size="10.00">int</text>
<polyline fill="none" stroke="#bfbfbf" points="196.5,-687.5 225.5,-687.5 "/>
<text text-anchor="middle" x="211" y="-675.5" font-family="Helvetica,sans-Serif" font-size="10.00"> </text>
<polyline fill="none" stroke="#bfbfbf" points="196.5,-668.5 225.5,-668.5 "/>
<text text-anchor="middle" x="211" y="-656.5" font-family="Helvetica,sans-Serif" font-size="10.00"> </text>
</g>
<!-- Node7&#45;&gt;Node5 -->
<g id="edge6" class="edge"><title>Node7&#45;&gt;Node5</title>
<path fill="none" stroke="#404040" d="M220.562,-649.194C222.703,-642.89 224.947,-636.221 227,-630 244.84,-575.942 245.836,-561.234 266,-508 266.897,-505.632 267.813,-503.246 268.746,-500.846"/>
<polygon fill="none" stroke="#404040" points="268.807,-500.692 267.296,-493.641 273.224,-489.534 274.735,-496.585 268.807,-500.692"/>
<text text-anchor="middle" x="295" y="-566.5" font-family="Helvetica,sans-Serif" font-size="10.00"> +nDetectors</text>
</g>
<!-- Node12 -->
<g id="node12" class="node"><title>Node12</title>
<g id="a_node12"><a xlink:href="../../d9/db3/structo2_1_1header_1_1Descriptor.html" target="_top" xlink:title="{o2::header::Descriptor\l\&lt; N, PrinterPolicy \&gt;\n||+ Descriptor()\l+ Descriptor()\l+ Descriptor()\l+ operator=()\l+ operator ItgType()\l+ Descriptor()\l+ runtimeInit()\l+ operator==()\l+ operator!=()\l+ operator==()\l+ operator!=()\l+ as()\l+ print()\l}">
<polygon fill="none" stroke="black" points="21.5,-273 21.5,-473 134.5,-473 134.5,-273 21.5,-273"/>
<text text-anchor="start" x="29.5" y="-461" font-family="Helvetica,sans-Serif" font-size="10.00">o2::header::Descriptor</text>
<text text-anchor="middle" x="78" y="-450" font-family="Helvetica,sans-Serif" font-size="10.00">&lt; N, PrinterPolicy &gt;</text>
<polyline fill="none" stroke="black" points="21.5,-443 134.5,-443 "/>
<text text-anchor="middle" x="78" y="-431" font-family="Helvetica,sans-Serif" font-size="10.00"> </text>
<polyline fill="none" stroke="black" points="21.5,-424 134.5,-424 "/>
<text text-anchor="start" x="29.5" y="-412" font-family="Helvetica,sans-Serif" font-size="10.00">+ Descriptor()</text>
<text text-anchor="start" x="29.5" y="-401" font-family="Helvetica,sans-Serif" font-size="10.00">+ Descriptor()</text>
<text text-anchor="start" x="29.5" y="-390" font-family="Helvetica,sans-Serif" font-size="10.00">+ Descriptor()</text>
<text text-anchor="start" x="29.5" y="-379" font-family="Helvetica,sans-Serif" font-size="10.00">+ operator=()</text>
<text text-anchor="start" x="29.5" y="-368" font-family="Helvetica,sans-Serif" font-size="10.00">+ operator ItgType()</text>
<text text-anchor="start" x="29.5" y="-357" font-family="Helvetica,sans-Serif" font-size="10.00">+ Descriptor()</text>
<text text-anchor="start" x="29.5" y="-346" font-family="Helvetica,sans-Serif" font-size="10.00">+ runtimeInit()</text>
<text text-anchor="start" x="29.5" y="-335" font-family="Helvetica,sans-Serif" font-size="10.00">+ operator==()</text>
<text text-anchor="start" x="29.5" y="-324" font-family="Helvetica,sans-Serif" font-size="10.00">+ operator!=()</text>
<text text-anchor="start" x="29.5" y="-313" font-family="Helvetica,sans-Serif" font-size="10.00">+ operator==()</text>
<text text-anchor="start" x="29.5" y="-302" font-family="Helvetica,sans-Serif" font-size="10.00">+ operator!=()</text>
<text text-anchor="start" x="29.5" y="-291" font-family="Helvetica,sans-Serif" font-size="10.00">+ as()</text>
<text text-anchor="start" x="29.5" y="-280" font-family="Helvetica,sans-Serif" font-size="10.00">+ print()</text>
</a>
</g>
</g>
<!-- Node7&#45;&gt;Node12 -->
<g id="edge14" class="edge"><title>Node7&#45;&gt;Node12</title>
<path fill="none" stroke="#404040" d="M196.499,-663.566C187.991,-654.834 177.804,-642.736 172,-630 149.216,-580 169.988,-559.918 152,-508 151.302,-505.986 146.308,-496.568 139.214,-483.582"/>
<polygon fill="none" stroke="#404040" points="139.19,-483.54 132.797,-480.205 133.416,-473.02 139.81,-476.355 139.19,-483.54"/>
<text text-anchor="middle" x="197.5" y="-577.5" font-family="Helvetica,sans-Serif" font-size="10.00"> +arraySize</text>
<text text-anchor="middle" x="197.5" y="-566.5" font-family="Helvetica,sans-Serif" font-size="10.00">+size</text>
<text text-anchor="middle" x="197.5" y="-555.5" font-family="Helvetica,sans-Serif" font-size="10.00">+bitcount</text>
</g>
<!-- Node8 -->
<g id="node8" class="node"><title>Node8</title>
<polygon fill="none" stroke="#bfbfbf" points="396.5,-344.5 396.5,-401.5 501.5,-401.5 501.5,-344.5 396.5,-344.5"/>
<text text-anchor="middle" x="449" y="-389.5" font-family="Helvetica,sans-Serif" font-size="10.00">unique_ptr&lt; TTree &gt;</text>
<polyline fill="none" stroke="#bfbfbf" points="396.5,-382.5 501.5,-382.5 "/>
<text text-anchor="middle" x="449" y="-370.5" font-family="Helvetica,sans-Serif" font-size="10.00"> </text>
<polyline fill="none" stroke="#bfbfbf" points="396.5,-363.5 501.5,-363.5 "/>
<text text-anchor="middle" x="449" y="-351.5" font-family="Helvetica,sans-Serif" font-size="10.00"> </text>
</g>
<!-- Node8&#45;&gt;Node2 -->
<g id="edge7" class="edge"><title>Node8&#45;&gt;Node2</title>
<path fill="none" stroke="#404040" d="M449,-344.461C449,-313.192 449,-261.179 449,-220.021"/>
<polygon fill="none" stroke="#404040" points="449,-219.907 445,-213.907 449,-207.907 453,-213.907 449,-219.907"/>
<text text-anchor="middle" x="475" y="-229.5" font-family="Helvetica,sans-Serif" font-size="10.00"> #mOutTree</text>
</g>
<!-- Node9 -->
<g id="node9" class="node"><title>Node9</title>
<polygon fill="none" stroke="#bfbfbf" points="520,-339 520,-407 630,-407 630,-339 520,-339"/>
<text text-anchor="start" x="528" y="-395" font-family="Helvetica,sans-Serif" font-size="10.00">vector&lt; o2::ITSMFT</text>
<text text-anchor="middle" x="575" y="-384" font-family="Helvetica,sans-Serif" font-size="10.00">::o2::ITSMFT::Digit &gt;</text>
<polyline fill="none" stroke="#bfbfbf" points="520,-377 630,-377 "/>
<text text-anchor="middle" x="575" y="-365" font-family="Helvetica,sans-Serif" font-size="10.00"> </text>
<polyline fill="none" stroke="#bfbfbf" points="520,-358 630,-358 "/>
<text text-anchor="middle" x="575" y="-346" font-family="Helvetica,sans-Serif" font-size="10.00"> </text>
</g>
<!-- Node9&#45;&gt;Node2 -->
<g id="edge8" class="edge"><title>Node9&#45;&gt;Node2</title>
<path fill="none" stroke="#404040" d="M561.855,-338.906C549.156,-308.504 528.439,-262.729 505,-226 503.248,-223.254 501.4,-220.495 499.484,-217.743"/>
<polygon fill="none" stroke="#404040" points="499.35,-217.559 492.588,-215.055 492.299,-207.85 499.061,-210.354 499.35,-217.559"/>
<text text-anchor="middle" x="533.5" y="-229.5" font-family="Helvetica,sans-Serif" font-size="10.00"> #mDigits</text>
</g>
<!-- Node10 -->
<g id="node10" class="node"><title>Node10</title>
<polygon fill="none" stroke="#bfbfbf" points="648.5,-344.5 648.5,-401.5 683.5,-401.5 683.5,-344.5 648.5,-344.5"/>
<text text-anchor="middle" x="666" y="-389.5" font-family="Helvetica,sans-Serif" font-size="10.00">bool</text>
<polyline fill="none" stroke="#bfbfbf" points="648.5,-382.5 683.5,-382.5 "/>
<text text-anchor="middle" x="666" y="-370.5" font-family="Helvetica,sans-Serif" font-size="10.00"> </text>
<polyline fill="none" stroke="#bfbfbf" points="648.5,-363.5 683.5,-363.5 "/>
<text text-anchor="middle" x="666" y="-351.5" font-family="Helvetica,sans-Serif" font-size="10.00"> </text>
</g>
<!-- Node10&#45;&gt;Node2 -->
<g id="edge9" class="edge"><title>Node10&#45;&gt;Node2</title>
<path fill="none" stroke="#404040" d="M666.225,-344.143C665.011,-318.557 659.461,-280.936 639,-256 608.502,-218.831 582.72,-229.969 535.808,-208.977"/>
<polygon fill="none" stroke="#404040" points="535.585,-208.869 528.441,-209.847 524.79,-203.628 531.935,-202.65 535.585,-208.869"/>
<text text-anchor="middle" x="647" y="-229.5" font-family="Helvetica,sans-Serif" font-size="10.00"> #mFinished</text>
</g>
<!-- Node11 -->
<g id="node11" class="node"><title>Node11</title>
<polygon fill="none" stroke="#bfbfbf" points="542.5,-128.5 542.5,-185.5 571.5,-185.5 571.5,-128.5 542.5,-128.5"/>
<text text-anchor="middle" x="557" y="-173.5" font-family="Helvetica,sans-Serif" font-size="10.00">ID</text>
<polyline fill="none" stroke="#bfbfbf" points="542.5,-166.5 571.5,-166.5 "/>
<text text-anchor="middle" x="557" y="-154.5" font-family="Helvetica,sans-Serif" font-size="10.00"> </text>
<polyline fill="none" stroke="#bfbfbf" points="542.5,-147.5 571.5,-147.5 "/>
<text text-anchor="middle" x="557" y="-135.5" font-family="Helvetica,sans-Serif" font-size="10.00"> </text>
</g>
<!-- Node11&#45;&gt;Node1 -->
<g id="edge10" class="edge"><title>Node11&#45;&gt;Node1</title>
<path fill="none" stroke="#404040" d="M546.108,-128.434C542.49,-120.819 538.07,-112.789 533,-106 522.1,-91.4047 508.092,-77.4218 494.65,-65.5188"/>
<polygon fill="none" stroke="#404040" points="494.577,-65.4556 487.42,-64.5741 485.481,-57.6286 492.638,-58.5101 494.577,-65.4556"/>
<text text-anchor="middle" x="538" y="-79.5" font-family="Helvetica,sans-Serif" font-size="10.00"> +DETID</text>
</g>
<!-- Node12&#45;&gt;Node1 -->
<g id="edge11" class="edge"><title>Node12&#45;&gt;Node1</title>
<path fill="none" stroke="#404040" d="M130.251,-272.916C134.344,-267.04 138.603,-261.351 143,-256 212.154,-171.846 319.21,-102.322 386.629,-63.5054"/>
<polygon fill="none" stroke="#404040" points="386.67,-63.4818 389.903,-57.0362 397.097,-57.5417 393.863,-63.9873 386.67,-63.4818"/>
<text text-anchor="middle" x="337.5" y="-154.5" font-family="Helvetica,sans-Serif" font-size="10.00"> +DETOR</text>
</g>
<!-- Node13 -->
<g id="node13" class="node"><title>Node13</title>
<polygon fill="none" stroke="#bfbfbf" points="0,-649.5 0,-706.5 38,-706.5 38,-649.5 0,-649.5"/>
<text text-anchor="middle" x="19" y="-694.5" font-family="Helvetica,sans-Serif" font-size="10.00">Type</text>
<polyline fill="none" stroke="#bfbfbf" points="0,-687.5 38,-687.5 "/>
<text text-anchor="middle" x="19" y="-675.5" font-family="Helvetica,sans-Serif" font-size="10.00"> </text>
<polyline fill="none" stroke="#bfbfbf" points="0,-668.5 38,-668.5 "/>
<text text-anchor="middle" x="19" y="-656.5" font-family="Helvetica,sans-Serif" font-size="10.00"> </text>
</g>
<!-- Node13&#45;&gt;Node12 -->
<g id="edge12" class="edge"><title>Node13&#45;&gt;Node12</title>
<path fill="none" stroke="#404040" d="M24.1114,-649.465C30.3473,-616 41.264,-557.822 51,-508 52.4659,-500.499 53.9902,-492.764 55.5352,-484.973"/>
<polygon fill="none" stroke="#404040" points="55.5499,-484.899 52.7972,-478.234 57.8908,-473.129 60.6435,-479.795 55.5499,-484.899"/>
<text text-anchor="middle" x="61" y="-566.5" font-family="Helvetica,sans-Serif" font-size="10.00"> +itg</text>
</g>
<!-- Node14 -->
<g id="node14" class="node"><title>Node14</title>
<polygon fill="none" stroke="#bfbfbf" points="56.5,-649.5 56.5,-706.5 91.5,-706.5 91.5,-649.5 56.5,-649.5"/>
<text text-anchor="middle" x="74" y="-694.5" font-family="Helvetica,sans-Serif" font-size="10.00">char</text>
<polyline fill="none" stroke="#bfbfbf" points="56.5,-687.5 91.5,-687.5 "/>
<text text-anchor="middle" x="74" y="-675.5" font-family="Helvetica,sans-Serif" font-size="10.00"> </text>
<polyline fill="none" stroke="#bfbfbf" points="56.5,-668.5 91.5,-668.5 "/>
<text text-anchor="middle" x="74" y="-656.5" font-family="Helvetica,sans-Serif" font-size="10.00"> </text>
</g>
<!-- Node14&#45;&gt;Node12 -->
<g id="edge13" class="edge"><title>Node14&#45;&gt;Node12</title>
<path fill="none" stroke="#404040" d="M74.3656,-649.308C74.8545,-612.268 75.7504,-544.405 76.5303,-485.326"/>
<polygon fill="none" stroke="#404040" points="76.5312,-485.253 72.6108,-479.2 76.6897,-473.254 80.6101,-479.306 76.5312,-485.253"/>
<text text-anchor="middle" x="87.5" y="-566.5" font-family="Helvetica,sans-Serif" font-size="10.00"> +str</text>
</g>
<!-- Node15 -->
<g id="node15" class="node"><title>Node15</title>
<polygon fill="none" stroke="#bfbfbf" points="109.5,-649 109.5,-707 138.5,-707 138.5,-649 109.5,-649"/>
<polyline fill="none" stroke="#bfbfbf" points="109.5,-687 138.5,-687 "/>
<text text-anchor="middle" x="124" y="-675" font-family="Helvetica,sans-Serif" font-size="10.00"> </text>
<polyline fill="none" stroke="#bfbfbf" points="109.5,-668 138.5,-668 "/>
<text text-anchor="middle" x="124" y="-656" font-family="Helvetica,sans-Serif" font-size="10.00"> </text>
</g>
<!-- Node15&#45;&gt;Node12 -->
<g id="edge15" class="edge"><title>Node15&#45;&gt;Node12</title>
<path fill="none" stroke="#404040" d="M119.916,-648.88C115.025,-615.332 106.548,-557.553 99,-508 97.8714,-500.591 96.6988,-492.952 95.5107,-485.257"/>
<polygon fill="none" stroke="#404040" points="95.4709,-484.999 90.5999,-479.682 93.6348,-473.141 98.5058,-478.458 95.4709,-484.999"/>
<text text-anchor="middle" x="132.5" y="-566.5" font-family="Helvetica,sans-Serif" font-size="10.00"> +@14</text>
</g>
</g>
</svg>
