<?xml version="1.0" encoding="UTF-8" standalone="no"?>
<!DOCTYPE svg PUBLIC "-//W3C//DTD SVG 1.1//EN"
 "http://www.w3.org/Graphics/SVG/1.1/DTD/svg11.dtd">
<!-- Generated by graphviz version 2.36.0 (20140111.2315)
 -->
<!-- Title: /home/travis/build/AliceO2Group/AliceO2/DataFormats/TimeFrame/test/TimeFrameTest.cxx Pages: 1 -->
<!--zoomable 354 -->
<svg id="main" version="1.1" xmlns="http://www.w3.org/2000/svg" xmlns:xlink="http://www.w3.org/1999/xlink" xml:space="preserve" onload="init(evt)">
<style type="text/css"><![CDATA[
.edge:hover path { stroke: red; }
.edge:hover polygon { stroke: red; fill: red; }
]]></style>
<script type="text/javascript"><![CDATA[
var edges = document.getElementsByTagName('g');
if (edges && edges.length) {
  for (var i=0;i<edges.length;i++) {
    if (edges[i].id.substr(0,4)=='edge') {
      edges[i].setAttribute('class','edge');
    }
  }
}
]]></script>
        <defs>
                <circle id="rim" cx="0" cy="0" r="7"/>
                <circle id="rim2" cx="0" cy="0" r="3.5"/>
                <g id="zoomPlus">
                        <use xlink:href="#rim" fill="#404040">
                                <set attributeName="fill" to="#808080" begin="zoomplus.mouseover" end="zoomplus.mouseout"/>
                        </use>
                        <path d="M-4,0h8M0,-4v8" fill="none" stroke="white" stroke-width="1.5" pointer-events="none"/>
                </g>
                <g id="zoomMin">
                        <use xlink:href="#rim" fill="#404040">
                                <set attributeName="fill" to="#808080" begin="zoomminus.mouseover" end="zoomminus.mouseout"/>
                        </use>
                        <path d="M-4,0h8" fill="none" stroke="white" stroke-width="1.5" pointer-events="none"/>
                </g>
                <g id="dirArrow">
                        <path fill="none" stroke="white" stroke-width="1.5" d="M0,-3.0v7 M-2.5,-0.5L0,-3.0L2.5,-0.5"/>
                </g>
               <g id="resetDef">
                       <use xlink:href="#rim2" fill="#404040">
                               <set attributeName="fill" to="#808080" begin="reset.mouseover" end="reset.mouseout"/>
                       </use>
               </g>
        </defs>

<script type="text/javascript">
var viewWidth = 1257;
var viewHeight = 354;
var sectionId = 'dynsection-0';
</script>
<script xlink:href="../../svgpan.js"/>
<svg id="graph" class="graph">
<g id="viewport">
<title>/home/travis/build/AliceO2Group/AliceO2/DataFormats/TimeFrame/test/TimeFrameTest.cxx</title>
<!-- Node1 -->
<g id="node1" class="node"><title>Node1</title>
<polygon fill="#bfbfbf" stroke="black" points="799.5,-293 799.5,-345 928.5,-345 928.5,-293 799.5,-293"/>
<text text-anchor="start" x="807.5" y="-333" font-family="Helvetica,sans-Serif" font-size="10.00">/home/travis/build</text>
<text text-anchor="start" x="807.5" y="-322" font-family="Helvetica,sans-Serif" font-size="10.00">/AliceO2Group/AliceO2</text>
<text text-anchor="start" x="807.5" y="-311" font-family="Helvetica,sans-Serif" font-size="10.00">/DataFormats/TimeFrame</text>
<text text-anchor="middle" x="864" y="-300" font-family="Helvetica,sans-Serif" font-size="10.00">/test/TimeFrameTest.cxx</text>
</g>
<!-- Node2 -->
<g id="node2" class="node"><title>Node2</title>
<polygon fill="none" stroke="#bfbfbf" points="532.5,-236.5 532.5,-255.5 651.5,-255.5 651.5,-236.5 532.5,-236.5"/>
<text text-anchor="middle" x="592" y="-243.5" font-family="Helvetica,sans-Serif" font-size="10.00">boost/test/unit_test.hpp</text>
</g>
<!-- Node1&#45;&gt;Node2 -->
<g id="edge1" class="edge"><title>Node1&#45;&gt;Node2</title>
<path fill="none" stroke="midnightblue" d="M799.195,-301.084C748.173,-287.766 678.532,-269.587 634.41,-258.07"/>
<polygon fill="midnightblue" stroke="midnightblue" points="635.145,-254.645 624.585,-255.506 633.376,-261.418 635.145,-254.645"/>
</g>
<!-- Node3 -->
<g id="node3" class="node"><title>Node3</title>
<g id="a_node3"><a xlink:href="../../de/dfa/TimeFrame_8h.html" target="_top" xlink:title="TimeFrame/TimeFrame.h">
<polygon fill="none" stroke="black" points="708.5,-236.5 708.5,-255.5 835.5,-255.5 835.5,-236.5 708.5,-236.5"/>
<text text-anchor="middle" x="772" y="-243.5" font-family="Helvetica,sans-Serif" font-size="10.00">TimeFrame/TimeFrame.h</text>
</a>
</g>
</g>
<!-- Node1&#45;&gt;Node3 -->
<g id="edge2" class="edge"><title>Node1&#45;&gt;Node3</title>
<path fill="none" stroke="midnightblue" d="M831.564,-292.968C818.207,-282.66 803.175,-271.059 791.553,-262.09"/>
<polygon fill="midnightblue" stroke="midnightblue" points="793.47,-259.148 783.415,-255.81 789.193,-264.69 793.47,-259.148"/>
</g>
<!-- Node4 -->
<g id="node4" class="node"><title>Node4</title>
<polygon fill="none" stroke="#bfbfbf" points="528,-180.5 528,-199.5 608,-199.5 608,-180.5 528,-180.5"/>
<text text-anchor="middle" x="568" y="-187.5" font-family="Helvetica,sans-Serif" font-size="10.00">FairMQParts.h</text>
</g>
<!-- Node1&#45;&gt;Node4 -->
<g id="edge31" class="edge"><title>Node1&#45;&gt;Node4</title>
<path fill="none" stroke="midnightblue" d="M799.453,-295.686C768.701,-284.564 731.601,-270.428 699,-256 681.187,-248.117 677.417,-244.724 660,-236 638.169,-225.065 613.288,-212.913 594.909,-203.996"/>
<polygon fill="midnightblue" stroke="midnightblue" points="596.211,-200.738 585.686,-199.528 593.16,-207.038 596.211,-200.738"/>
</g>
<!-- Node7 -->
<g id="node7" class="node"><title>Node7</title>
<g id="a_node7"><a xlink:href="../../dc/dcd/DataHeader_8h.html" target="_top" xlink:title="Headers/DataHeader.h">
<polygon fill="none" stroke="black" points="715.5,-124.5 715.5,-143.5 832.5,-143.5 832.5,-124.5 715.5,-124.5"/>
<text text-anchor="middle" x="774" y="-131.5" font-family="Helvetica,sans-Serif" font-size="10.00">Headers/DataHeader.h</text>
</a>
</g>
</g>
<!-- Node1&#45;&gt;Node7 -->
<g id="edge33" class="edge"><title>Node1&#45;&gt;Node7</title>
<path fill="none" stroke="midnightblue" d="M862.025,-292.902C858.706,-263.672 849.933,-214.942 827,-180 819.135,-168.016 807.163,-157.468 796.586,-149.601"/>
<polygon fill="midnightblue" stroke="midnightblue" points="798.339,-146.555 788.15,-143.651 794.305,-152.275 798.339,-146.555"/>
</g>
<!-- Node24 -->
<g id="node24" class="node"><title>Node24</title>
<polygon fill="none" stroke="#bfbfbf" points="1003.5,-6.5 1003.5,-25.5 1100.5,-25.5 1100.5,-6.5 1003.5,-6.5"/>
<text text-anchor="middle" x="1052" y="-13.5" font-family="Helvetica,sans-Serif" font-size="10.00">FairMQMessage.h</text>
</g>
<!-- Node1&#45;&gt;Node24 -->
<g id="edge30" class="edge"><title>Node1&#45;&gt;Node24</title>
<path fill="none" stroke="midnightblue" d="M928.699,-302.803C983.081,-285.731 1052,-252.052 1052,-191 1052,-191 1052,-191 1052,-133 1052,-98.7159 1052,-58.7321 1052,-35.7902"/>
<polygon fill="midnightblue" stroke="midnightblue" points="1055.5,-35.731 1052,-25.731 1048.5,-35.7311 1055.5,-35.731"/>
</g>
<!-- Node25 -->
<g id="node25" class="node"><title>Node25</title>
<polygon fill="none" stroke="#bfbfbf" points="1118.5,-6.5 1118.5,-25.5 1249.5,-25.5 1249.5,-6.5 1118.5,-6.5"/>
<text text-anchor="middle" x="1184" y="-13.5" font-family="Helvetica,sans-Serif" font-size="10.00">FairMQTransportFactory.h</text>
</g>
<!-- Node1&#45;&gt;Node25 -->
<g id="edge32" class="edge"><title>Node1&#45;&gt;Node25</title>
<path fill="none" stroke="midnightblue" d="M928.763,-309.533C995.545,-296.743 1090,-265.486 1090,-191 1090,-191 1090,-191 1090,-133 1090,-87.8579 1133.5,-50.4516 1161.32,-31.1471"/>
<polygon fill="midnightblue" stroke="midnightblue" points="1163.35,-33.9957 1169.72,-25.5286 1159.46,-28.1762 1163.35,-33.9957"/>
</g>
<!-- Node27 -->
<g id="node27" class="node"><title>Node27</title>
<polygon fill="none" stroke="#bfbfbf" points="1118.5,-236.5 1118.5,-255.5 1165.5,-255.5 1165.5,-236.5 1118.5,-236.5"/>
<text text-anchor="middle" x="1142" y="-243.5" font-family="Helvetica,sans-Serif" font-size="10.00">TFile.h</text>
</g>
<!-- Node1&#45;&gt;Node27 -->
<g id="edge34" class="edge"><title>Node1&#45;&gt;Node27</title>
<path fill="none" stroke="midnightblue" d="M928.828,-301.443C985.093,-287.073 1064.29,-266.847 1108.61,-255.529"/>
<polygon fill="midnightblue" stroke="midnightblue" points="1109.48,-258.918 1118.3,-253.053 1107.75,-252.136 1109.48,-258.918"/>
</g>
<!-- Node3&#45;&gt;Node4 -->
<g id="edge3" class="edge"><title>Node3&#45;&gt;Node4</title>
<path fill="none" stroke="midnightblue" d="M739.676,-236.444C704.611,-227.162 648.502,-212.309 610.035,-202.127"/>
<polygon fill="midnightblue" stroke="midnightblue" points="610.736,-198.692 600.173,-199.516 608.945,-205.459 610.736,-198.692"/>
</g>
<!-- Node5 -->
<g id="node5" class="node"><title>Node5</title>
<polygon fill="none" stroke="#bfbfbf" points="759.5,-180.5 759.5,-199.5 818.5,-199.5 818.5,-180.5 759.5,-180.5"/>
<text text-anchor="middle" x="789" y="-187.5" font-family="Helvetica,sans-Serif" font-size="10.00">TObject.h</text>
</g>
<!-- Node3&#45;&gt;Node5 -->
<g id="edge4" class="edge"><title>Node3&#45;&gt;Node5</title>
<path fill="none" stroke="midnightblue" d="M774.807,-236.083C777.085,-228.849 780.371,-218.409 783.208,-209.397"/>
<polygon fill="midnightblue" stroke="midnightblue" points="786.581,-210.341 786.245,-199.751 779.904,-208.239 786.581,-210.341"/>
</g>
<!-- Node6 -->
<g id="node6" class="node"><title>Node6</title>
<g id="a_node6"><a xlink:href="../../d6/d90/Headers_2include_2Headers_2TimeStamp_8h.html" target="_top" xlink:title="Headers/TimeStamp.h">
<polygon fill="none" stroke="black" points="626.5,-180.5 626.5,-199.5 741.5,-199.5 741.5,-180.5 626.5,-180.5"/>
<text text-anchor="middle" x="684" y="-187.5" font-family="Helvetica,sans-Serif" font-size="10.00">Headers/TimeStamp.h</text>
</a>
</g>
</g>
<!-- Node3&#45;&gt;Node6 -->
<g id="edge5" class="edge"><title>Node3&#45;&gt;Node6</title>
<path fill="none" stroke="midnightblue" d="M757.861,-236.324C744.134,-227.9 723.064,-214.971 706.936,-205.074"/>
<polygon fill="midnightblue" stroke="midnightblue" points="708.457,-201.902 698.104,-199.655 704.796,-207.868 708.457,-201.902"/>
</g>
<!-- Node6&#45;&gt;Node7 -->
<g id="edge6" class="edge"><title>Node6&#45;&gt;Node7</title>
<path fill="none" stroke="midnightblue" d="M698.46,-180.324C712.5,-171.9 734.048,-158.971 750.543,-149.074"/>
<polygon fill="midnightblue" stroke="midnightblue" points="752.802,-151.801 759.576,-143.655 749.2,-145.798 752.802,-151.801"/>
</g>
<!-- Node10 -->
<g id="node10" class="node"><title>Node10</title>
<polygon fill="none" stroke="#bfbfbf" points="400.5,-68.5 400.5,-87.5 449.5,-87.5 449.5,-68.5 400.5,-68.5"/>
<text text-anchor="middle" x="425" y="-75.5" font-family="Helvetica,sans-Serif" font-size="10.00">cassert</text>
</g>
<!-- Node6&#45;&gt;Node10 -->
<g id="edge28" class="edge"><title>Node6&#45;&gt;Node10</title>
<path fill="none" stroke="midnightblue" d="M663.677,-180.368C618.097,-161.01 507.561,-114.065 454.449,-91.5074"/>
<polygon fill="midnightblue" stroke="midnightblue" points="455.801,-88.2791 445.229,-87.5914 453.065,-94.7221 455.801,-88.2791"/>
</g>
<!-- Node20 -->
<g id="node20" class="node"><title>Node20</title>
<polygon fill="none" stroke="#bfbfbf" points="0,-6.5 0,-25.5 62,-25.5 62,-6.5 0,-6.5"/>
<text text-anchor="middle" x="31" y="-13.5" font-family="Helvetica,sans-Serif" font-size="10.00">type_traits</text>
</g>
<!-- Node6&#45;&gt;Node20 -->
<g id="edge29" class="edge"><title>Node6&#45;&gt;Node20</title>
<path fill="none" stroke="midnightblue" d="M644.5,-180.443C546.468,-158.869 284.523,-99.1632 71,-32 68.0529,-31.073 65.0057,-30.0505 61.9692,-28.9881"/>
<polygon fill="midnightblue" stroke="midnightblue" points="63.0353,-25.6517 52.4411,-25.527 60.6452,-32.231 63.0353,-25.6517"/>
</g>
<!-- Node26 -->
<g id="node26" class="node"><title>Node26</title>
<polygon fill="none" stroke="#bfbfbf" points="298,-124.5 298,-143.5 344,-143.5 344,-124.5 298,-124.5"/>
<text text-anchor="middle" x="321" y="-131.5" font-family="Helvetica,sans-Serif" font-size="10.00">chrono</text>
</g>
<!-- Node6&#45;&gt;Node26 -->
<g id="edge27" class="edge"><title>Node6&#45;&gt;Node26</title>
<path fill="none" stroke="midnightblue" d="M626.407,-181.204C536.337,-168.991 371.015,-146.475 358,-144 356.721,-143.757 355.421,-143.498 354.109,-143.227"/>
<polygon fill="midnightblue" stroke="midnightblue" points="354.535,-139.736 344.014,-140.98 353.015,-146.569 354.535,-139.736"/>
</g>
<!-- Node8 -->
<g id="node8" class="node"><title>Node8</title>
<polygon fill="none" stroke="#bfbfbf" points="718,-68.5 718,-87.5 764,-87.5 764,-68.5 718,-68.5"/>
<text text-anchor="middle" x="741" y="-75.5" font-family="Helvetica,sans-Serif" font-size="10.00">cstdint</text>
</g>
<!-- Node7&#45;&gt;Node8 -->
<g id="edge7" class="edge"><title>Node7&#45;&gt;Node8</title>
<path fill="none" stroke="midnightblue" d="M768.551,-124.083C763.986,-116.613 757.332,-105.724 751.707,-96.5199"/>
<polygon fill="midnightblue" stroke="midnightblue" points="754.549,-94.4588 746.348,-87.7511 748.576,-98.109 754.549,-94.4588"/>
</g>
<!-- Node9 -->
<g id="node9" class="node"><title>Node9</title>
<polygon fill="none" stroke="#bfbfbf" points="782,-68.5 782,-87.5 834,-87.5 834,-68.5 782,-68.5"/>
<text text-anchor="middle" x="808" y="-75.5" font-family="Helvetica,sans-Serif" font-size="10.00">memory</text>
</g>
<!-- Node7&#45;&gt;Node9 -->
<g id="edge8" class="edge"><title>Node7&#45;&gt;Node9</title>
<path fill="none" stroke="midnightblue" d="M779.614,-124.083C784.367,-116.534 791.318,-105.495 797.152,-96.2298"/>
<polygon fill="midnightblue" stroke="midnightblue" points="800.124,-98.0783 802.49,-87.7511 794.2,-94.3486 800.124,-98.0783"/>
</g>
<!-- Node7&#45;&gt;Node10 -->
<g id="edge9" class="edge"><title>Node7&#45;&gt;Node10</title>
<path fill="none" stroke="midnightblue" d="M715.484,-125.971C652.979,-118.121 551.125,-104.347 464,-88 462.549,-87.7277 461.07,-87.4386 459.577,-87.1373"/>
<polygon fill="midnightblue" stroke="midnightblue" points="460.204,-83.6922 449.693,-85.0225 458.739,-90.5373 460.204,-83.6922"/>
</g>
<!-- Node11 -->
<g id="node11" class="node"><title>Node11</title>
<polygon fill="none" stroke="#bfbfbf" points="939,-6.5 939,-25.5 985,-25.5 985,-6.5 939,-6.5"/>
<text text-anchor="middle" x="962" y="-13.5" font-family="Helvetica,sans-Serif" font-size="10.00">cstring</text>
</g>
<!-- Node7&#45;&gt;Node11 -->
<g id="edge10" class="edge"><title>Node7&#45;&gt;Node11</title>
<path fill="none" stroke="midnightblue" d="M787.824,-124.47C820.011,-104.61 900.201,-55.1313 939.53,-30.8643"/>
<polygon fill="midnightblue" stroke="midnightblue" points="941.483,-33.772 948.156,-25.5423 937.807,-27.8147 941.483,-33.772"/>
</g>
<!-- Node12 -->
<g id="node12" class="node"><title>Node12</title>
<polygon fill="none" stroke="#bfbfbf" points="890,-68.5 890,-87.5 946,-87.5 946,-68.5 890,-68.5"/>
<text text-anchor="middle" x="918" y="-75.5" font-family="Helvetica,sans-Serif" font-size="10.00">algorithm</text>
</g>
<!-- Node7&#45;&gt;Node12 -->
<g id="edge11" class="edge"><title>Node7&#45;&gt;Node12</title>
<path fill="none" stroke="midnightblue" d="M796.817,-124.444C820.832,-115.438 858.829,-101.189 885.869,-91.049"/>
<polygon fill="midnightblue" stroke="midnightblue" points="887.155,-94.3049 895.29,-87.5164 884.697,-87.7506 887.155,-94.3049"/>
</g>
<!-- Node13 -->
<g id="node13" class="node"><title>Node13</title>
<polygon fill="none" stroke="#bfbfbf" points="964.5,-68.5 964.5,-87.5 1023.5,-87.5 1023.5,-68.5 964.5,-68.5"/>
<text text-anchor="middle" x="994" y="-75.5" font-family="Helvetica,sans-Serif" font-size="10.00">stdexcept</text>
</g>
<!-- Node7&#45;&gt;Node13 -->
<g id="edge12" class="edge"><title>Node7&#45;&gt;Node13</title>
<path fill="none" stroke="midnightblue" d="M808.86,-124.444C848.483,-114.718 913.024,-98.876 954.484,-88.6993"/>
<polygon fill="midnightblue" stroke="midnightblue" points="955.365,-92.0871 964.242,-86.3042 953.696,-85.2889 955.365,-92.0871"/>
</g>
<!-- Node14 -->
<g id="node14" class="node"><title>Node14</title>
<polygon fill="none" stroke="#bfbfbf" points="80.5,-6.5 80.5,-25.5 121.5,-25.5 121.5,-6.5 80.5,-6.5"/>
<text text-anchor="middle" x="101" y="-13.5" font-family="Helvetica,sans-Serif" font-size="10.00">string</text>
</g>
<!-- Node7&#45;&gt;Node14 -->
<g id="edge13" class="edge"><title>Node7&#45;&gt;Node14</title>
<path fill="none" stroke="midnightblue" d="M715.452,-128.829C658.507,-123.538 570.132,-112.029 497,-88 478.494,-81.9195 476.657,-73.5998 458,-68 317.537,-25.8415 270.389,-74.4038 130,-32 128.087,-31.4223 126.151,-30.7192 124.235,-29.9364"/>
<polygon fill="midnightblue" stroke="midnightblue" points="125.549,-26.6861 115.014,-25.5672 122.552,-33.012 125.549,-26.6861"/>
</g>
<!-- Node15 -->
<g id="node15" class="node"><title>Node15</title>
<g id="a_node15"><a xlink:href="../../dc/d03/MemoryResources_8h.html" target="_top" xlink:title="MemoryResources/MemoryResources.h">
<polygon fill="none" stroke="black" points="506.5,-68.5 506.5,-87.5 699.5,-87.5 699.5,-68.5 506.5,-68.5"/>
<text text-anchor="middle" x="603" y="-75.5" font-family="Helvetica,sans-Serif" font-size="10.00">MemoryResources/MemoryResources.h</text>
</a>
</g>
</g>
<!-- Node7&#45;&gt;Node15 -->
<g id="edge14" class="edge"><title>Node7&#45;&gt;Node15</title>
<path fill="none" stroke="midnightblue" d="M746.905,-124.444C718.012,-115.32 672.075,-100.813 639.895,-90.6509"/>
<polygon fill="midnightblue" stroke="midnightblue" points="640.559,-87.1903 629.969,-87.5164 638.451,-93.8654 640.559,-87.1903"/>
</g>
<!-- Node15&#45;&gt;Node11 -->
<g id="edge19" class="edge"><title>Node15&#45;&gt;Node11</title>
<path fill="none" stroke="midnightblue" d="M684.602,-68.4612C765.808,-59.4745 884.548,-44.8737 929,-32 931.346,-31.3205 933.739,-30.5023 936.112,-29.603"/>
<polygon fill="midnightblue" stroke="midnightblue" points="937.726,-32.7202 945.57,-25.5977 934.996,-26.2744 937.726,-32.7202"/>
</g>
<!-- Node15&#45;&gt;Node14 -->
<g id="edge20" class="edge"><title>Node15&#45;&gt;Node14</title>
<path fill="none" stroke="midnightblue" d="M506.286,-68.7457C373.159,-57.2456 147.756,-37.2233 130,-32 128.083,-31.4361 126.144,-30.7431 124.226,-29.9673"/>
<polygon fill="midnightblue" stroke="midnightblue" points="125.538,-26.7161 115.001,-25.6115 122.549,-33.0461 125.538,-26.7161"/>
</g>
<!-- Node16 -->
<g id="node16" class="node"><title>Node16</title>
<polygon fill="none" stroke="#bfbfbf" points="241,-1 241,-31 341,-31 341,-1 241,-1"/>
<text text-anchor="start" x="249" y="-19" font-family="Helvetica,sans-Serif" font-size="10.00">boost/container/flat</text>
<text text-anchor="middle" x="291" y="-8" font-family="Helvetica,sans-Serif" font-size="10.00">_map.hpp</text>
</g>
<!-- Node15&#45;&gt;Node16 -->
<g id="edge15" class="edge"><title>Node15&#45;&gt;Node16</title>
<path fill="none" stroke="midnightblue" d="M548.488,-68.484C499.306,-60.5341 424.775,-47.8282 351.073,-32.1459"/>
<polygon fill="midnightblue" stroke="midnightblue" points="351.665,-28.6934 341.153,-30.0158 350.196,-35.5374 351.665,-28.6934"/>
</g>
<!-- Node17 -->
<g id="node17" class="node"><title>Node17</title>
<polygon fill="none" stroke="#bfbfbf" points="359,-1 359,-31 475,-31 475,-1 359,-1"/>
<text text-anchor="start" x="367" y="-19" font-family="Helvetica,sans-Serif" font-size="10.00">boost/container/pmr</text>
<text text-anchor="middle" x="417" y="-8" font-family="Helvetica,sans-Serif" font-size="10.00">/memory_resource.hpp</text>
</g>
<!-- Node15&#45;&gt;Node17 -->
<g id="edge16" class="edge"><title>Node15&#45;&gt;Node17</title>
<path fill="none" stroke="midnightblue" d="M576.351,-68.4035C548.714,-59.4882 504.764,-45.311 470.014,-34.1014"/>
<polygon fill="midnightblue" stroke="midnightblue" points="471.07,-30.7644 460.478,-31.0253 468.921,-37.4264 471.07,-30.7644"/>
</g>
<!-- Node18 -->
<g id="node18" class="node"><title>Node18</title>
<polygon fill="none" stroke="#bfbfbf" points="493,-1 493,-31 649,-31 649,-1 493,-1"/>
<text text-anchor="start" x="501" y="-19" font-family="Helvetica,sans-Serif" font-size="10.00">boost/container/pmr</text>
<text text-anchor="middle" x="571" y="-8" font-family="Helvetica,sans-Serif" font-size="10.00">/monotonic_buffer_resource.hpp</text>
</g>
<!-- Node15&#45;&gt;Node18 -->
<g id="edge17" class="edge"><title>Node15&#45;&gt;Node18</title>
<path fill="none" stroke="midnightblue" d="M598.415,-68.4035C594.486,-61.0368 588.641,-50.0773 583.356,-40.168"/>
<polygon fill="midnightblue" stroke="midnightblue" points="586.336,-38.3173 578.542,-31.1408 580.159,-41.6114 586.336,-38.3173"/>
</g>
<!-- Node19 -->
<g id="node19" class="node"><title>Node19</title>
<polygon fill="none" stroke="#bfbfbf" points="667.5,-1 667.5,-31 800.5,-31 800.5,-1 667.5,-1"/>
<text text-anchor="start" x="675.5" y="-19" font-family="Helvetica,sans-Serif" font-size="10.00">boost/container/pmr</text>
<text text-anchor="middle" x="734" y="-8" font-family="Helvetica,sans-Serif" font-size="10.00">/polymorphic_allocator.hpp</text>
</g>
<!-- Node15&#45;&gt;Node19 -->
<g id="edge18" class="edge"><title>Node15&#45;&gt;Node19</title>
<path fill="none" stroke="midnightblue" d="M621.769,-68.4035C640.569,-59.793 670.085,-46.2742 694.13,-35.2612"/>
<polygon fill="midnightblue" stroke="midnightblue" points="695.744,-38.3716 703.378,-31.0253 692.829,-32.0074 695.744,-38.3716"/>
</g>
<!-- Node15&#45;&gt;Node20 -->
<g id="edge21" class="edge"><title>Node15&#45;&gt;Node20</title>
<path fill="none" stroke="midnightblue" d="M506.24,-70.2586C364.367,-60.1546 112.2,-41.2814 71,-32 67.4931,-31.21 63.8803,-30.1814 60.3274,-29.033"/>
<polygon fill="midnightblue" stroke="midnightblue" points="61.2054,-25.6305 50.6106,-25.5773 58.8598,-32.2258 61.2054,-25.6305"/>
</g>
<!-- Node21 -->
<g id="node21" class="node"><title>Node21</title>
<polygon fill="none" stroke="#bfbfbf" points="819,-6.5 819,-25.5 859,-25.5 859,-6.5 819,-6.5"/>
<text text-anchor="middle" x="839" y="-13.5" font-family="Helvetica,sans-Serif" font-size="10.00">utility</text>
</g>
<!-- Node15&#45;&gt;Node21 -->
<g id="edge22" class="edge"><title>Node15&#45;&gt;Node21</title>
<path fill="none" stroke="midnightblue" d="M660.008,-68.471C701.962,-61.2569 759.982,-49.304 809,-32 810.853,-31.3458 812.739,-30.6034 814.617,-29.8074"/>
<polygon fill="midnightblue" stroke="midnightblue" points="816.171,-32.9445 823.75,-25.5411 813.209,-26.6023 816.171,-32.9445"/>
</g>
<!-- Node22 -->
<g id="node22" class="node"><title>Node22</title>
<polygon fill="none" stroke="#bfbfbf" points="877,-6.5 877,-25.5 921,-25.5 921,-6.5 877,-6.5"/>
<text text-anchor="middle" x="899" y="-13.5" font-family="Helvetica,sans-Serif" font-size="10.00">vector</text>
</g>
<!-- Node15&#45;&gt;Node22 -->
<g id="edge23" class="edge"><title>Node15&#45;&gt;Node22</title>
<path fill="none" stroke="midnightblue" d="M690.098,-68.4914C742.523,-61.8329 810.105,-50.5093 868,-32 870.128,-31.3195 872.296,-30.518 874.446,-29.6453"/>
<polygon fill="midnightblue" stroke="midnightblue" points="875.911,-32.8243 883.584,-25.5183 873.03,-26.4448 875.911,-32.8243"/>
</g>
<!-- Node23 -->
<g id="node23" class="node"><title>Node23</title>
<polygon fill="none" stroke="#bfbfbf" points="139.5,-6.5 139.5,-25.5 222.5,-25.5 222.5,-6.5 139.5,-6.5"/>
<text text-anchor="middle" x="181" y="-13.5" font-family="Helvetica,sans-Serif" font-size="10.00">unordered_map</text>
</g>
<!-- Node15&#45;&gt;Node23 -->
<g id="edge24" class="edge"><title>Node15&#45;&gt;Node23</title>
<path fill="none" stroke="midnightblue" d="M519.308,-68.4761C427.198,-58.8056 285.139,-42.9588 232,-32 226.988,-30.9663 221.754,-29.6766 216.629,-28.2903"/>
<polygon fill="midnightblue" stroke="midnightblue" points="217.574,-24.9202 206.998,-25.5473 215.657,-31.6525 217.574,-24.9202"/>
</g>
<!-- Node15&#45;&gt;Node24 -->
<g id="edge25" class="edge"><title>Node15&#45;&gt;Node24</title>
<path fill="none" stroke="midnightblue" d="M689.406,-68.4667C786.366,-58.6411 937.486,-42.5076 994,-32 999.961,-30.8916 1006.22,-29.5102 1012.32,-28.0376"/>
<polygon fill="midnightblue" stroke="midnightblue" points="1013.53,-31.3419 1022.37,-25.5052 1011.82,-24.5539 1013.53,-31.3419"/>
</g>
<!-- Node15&#45;&gt;Node25 -->
<g id="edge26" class="edge"><title>Node15&#45;&gt;Node25</title>
<path fill="none" stroke="midnightblue" d="M699.546,-68.686C840.75,-56.4869 1089.1,-34.8662 1109,-32 1117.69,-30.7484 1126.89,-29.1427 1135.77,-27.4494"/>
<polygon fill="midnightblue" stroke="midnightblue" points="1136.46,-30.8796 1145.6,-25.5145 1135.11,-24.0114 1136.46,-30.8796"/>
</g>
</g>
</svg>
        <g id="navigator" transform="translate(0 0)" fill="#404254">
                <rect fill="#f2f5e9" fill-opacity="0.5" stroke="#606060" stroke-width=".5" x="0" y="0" width="60" height="60"/>
                <use id="zoomplus" xlink:href="#zoomPlus" x="17" y="9" onmousedown="handleZoom(evt,'in')"/>
                <use id="zoomminus" xlink:href="#zoomMin" x="42" y="9" onmousedown="handleZoom(evt,'out')"/>
                <use id="reset" xlink:href="#resetDef" x="30" y="36" onmousedown="handleReset()"/>
                <g id="arrowUp" xlink:href="#dirArrow" transform="translate(30 24)" onmousedown="handlePan(0,-1)">
                  <use xlink:href="#rim" fill="#404040">
                        <set attributeName="fill" to="#808080" begin="arrowUp.mouseover" end="arrowUp.mouseout"/>
                  </use>
                  <path fill="none" stroke="white" stroke-width="1.5" d="M0,-3.0v7 M-2.5,-0.5L0,-3.0L2.5,-0.5"/>
                </g>
                <g id="arrowRight" xlink:href="#dirArrow" transform="rotate(90) translate(36 -43)" onmousedown="handlePan(1,0)">
                  <use xlink:href="#rim" fill="#404040">
                        <set attributeName="fill" to="#808080" begin="arrowRight.mouseover" end="arrowRight.mouseout"/>
                  </use>
                  <path fill="none" stroke="white" stroke-width="1.5" d="M0,-3.0v7 M-2.5,-0.5L0,-3.0L2.5,-0.5"/>
                </g>
                <g id="arrowDown" xlink:href="#dirArrow" transform="rotate(180) translate(-30 -48)" onmousedown="handlePan(0,1)">
                  <use xlink:href="#rim" fill="#404040">
                        <set attributeName="fill" to="#808080" begin="arrowDown.mouseover" end="arrowDown.mouseout"/>
                  </use>
                  <path fill="none" stroke="white" stroke-width="1.5" d="M0,-3.0v7 M-2.5,-0.5L0,-3.0L2.5,-0.5"/>
                </g>
                <g id="arrowLeft" xlink:href="#dirArrow" transform="rotate(270) translate(-36 17)" onmousedown="handlePan(-1,0)">
                  <use xlink:href="#rim" fill="#404040">
                        <set attributeName="fill" to="#808080" begin="arrowLeft.mouseover" end="arrowLeft.mouseout"/>
                  </use>
                  <path fill="none" stroke="white" stroke-width="1.5" d="M0,-3.0v7 M-2.5,-0.5L0,-3.0L2.5,-0.5"/>
                </g>
        </g>
        <svg viewBox="0 0 15 15" width="100%" height="30px" preserveAspectRatio="xMaxYMin meet">
         <g id="arrow_out" transform="scale(0.3 0.3)">
          <a xlink:href="TimeFrameTest_8cxx__incl_org.svg" target="_base">
           <rect id="button" ry="5" rx="5" y="6" x="6" height="38" width="38"
                fill="#f2f5e9" fill-opacity="0.5" stroke="#606060" stroke-width="1.0"/>
           <path id="arrow"
             d="M 11.500037,31.436501 C 11.940474,20.09759 22.043105,11.32322 32.158766,21.979434 L 37.068811,17.246167 C 37.068811,17.246167 37.088388,32 37.088388,32 L 22.160133,31.978069 C 22.160133,31.978069 26.997745,27.140456 26.997745,27.140456 C 18.528582,18.264221 13.291696,25.230495 11.500037,31.436501 z"
             style="fill:#404040;"/>
          </a>
         </g>
        </svg>
</svg>
