<?xml version="1.0" encoding="UTF-8" standalone="no"?>
<!DOCTYPE svg PUBLIC "-//W3C//DTD SVG 1.1//EN"
 "http://www.w3.org/Graphics/SVG/1.1/DTD/svg11.dtd">
<!-- Generated by graphviz version 2.36.0 (20140111.2315)
 -->
<!-- Title: /home/travis/build/AliceO2Group/AliceO2/Common/Constants/include/CommonConstants/PhysicsConstants.h Pages: 1 -->
<svg width="1126pt" height="242pt"
 viewBox="0.00 0.00 1126.00 242.00" xmlns="http://www.w3.org/2000/svg" xmlns:xlink="http://www.w3.org/1999/xlink">
<g id="graph0" class="graph" transform="scale(1 1) rotate(0) translate(4 238)">
<title>/home/travis/build/AliceO2Group/AliceO2/Common/Constants/include/CommonConstants/PhysicsConstants.h</title>
<!-- Node1 -->
<g id="node1" class="node"><title>Node1</title>
<polygon fill="#bfbfbf" stroke="black" points="193,-181 193,-233 389,-233 389,-181 193,-181"/>
<text text-anchor="start" x="201" y="-221" font-family="Helvetica,sans-Serif" font-size="10.00">/home/travis/build</text>
<text text-anchor="start" x="201" y="-210" font-family="Helvetica,sans-Serif" font-size="10.00">/AliceO2Group/AliceO2</text>
<text text-anchor="start" x="201" y="-199" font-family="Helvetica,sans-Serif" font-size="10.00">/Common/Constants/include</text>
<text text-anchor="middle" x="291" y="-188" font-family="Helvetica,sans-Serif" font-size="10.00">/CommonConstants/PhysicsConstants.h</text>
</g>
<!-- Node2 -->
<g id="node2" class="node"><title>Node2</title>
<g id="a_node2"><a xlink:href="../../d9/df6/GRPObject_8cxx.html" target="_top" xlink:title="Implementation of General Run Parameters object. ">
<polygon fill="none" stroke="black" points="133,-91 133,-143 263,-143 263,-91 133,-91"/>
<text text-anchor="start" x="141" y="-131" font-family="Helvetica,sans-Serif" font-size="10.00">/home/travis/build</text>
<text text-anchor="start" x="141" y="-120" font-family="Helvetica,sans-Serif" font-size="10.00">/AliceO2Group/AliceO2</text>
<text text-anchor="start" x="141" y="-109" font-family="Helvetica,sans-Serif" font-size="10.00">/DataFormats/Parameters</text>
<text text-anchor="middle" x="198" y="-98" font-family="Helvetica,sans-Serif" font-size="10.00">/src/GRPObject.cxx</text>
</a>
</g>
</g>
<!-- Node1&#45;&gt;Node2 -->
<g id="edge1" class="edge"><title>Node1&#45;&gt;Node2</title>
<path fill="none" stroke="midnightblue" d="M256.58,-173.431C245.987,-163.407 234.495,-152.533 224.518,-143.092"/>
<polygon fill="midnightblue" stroke="midnightblue" points="254.431,-176.216 264.101,-180.547 259.242,-171.131 254.431,-176.216"/>
</g>
<!-- Node3 -->
<g id="node3" class="node"><title>Node3</title>
<g id="a_node3"><a xlink:href="../../d2/df9/Propagator_8h.html" target="_top" xlink:title="/home/travis/build\l/AliceO2Group/AliceO2\l/Detectors/Base/include\l/DetectorsBase/Propagator.h">
<polygon fill="none" stroke="black" points="453.5,-91 453.5,-143 596.5,-143 596.5,-91 453.5,-91"/>
<text text-anchor="start" x="461.5" y="-131" font-family="Helvetica,sans-Serif" font-size="10.00">/home/travis/build</text>
<text text-anchor="start" x="461.5" y="-120" font-family="Helvetica,sans-Serif" font-size="10.00">/AliceO2Group/AliceO2</text>
<text text-anchor="start" x="461.5" y="-109" font-family="Helvetica,sans-Serif" font-size="10.00">/Detectors/Base/include</text>
<text text-anchor="middle" x="525" y="-98" font-family="Helvetica,sans-Serif" font-size="10.00">/DetectorsBase/Propagator.h</text>
</a>
</g>
</g>
<!-- Node1&#45;&gt;Node3 -->
<g id="edge2" class="edge"><title>Node1&#45;&gt;Node3</title>
<path fill="none" stroke="midnightblue" d="M367.123,-177.372C396.478,-166.333 429.758,-153.817 458.17,-143.133"/>
<polygon fill="midnightblue" stroke="midnightblue" points="365.87,-174.104 357.742,-180.901 368.334,-180.656 365.87,-174.104"/>
</g>
<!-- Node5 -->
<g id="node5" class="node"><title>Node5</title>
<g id="a_node5"><a xlink:href="../../dc/d59/MatchTPCITS_8cxx.html" target="_top" xlink:title="/home/travis/build\l/AliceO2Group/AliceO2\l/Detectors/GlobalTracking\l/src/MatchTPCITS.cxx">
<polygon fill="none" stroke="black" points="-0.5,-1 -0.5,-53 130.5,-53 130.5,-1 -0.5,-1"/>
<text text-anchor="start" x="7.5" y="-41" font-family="Helvetica,sans-Serif" font-size="10.00">/home/travis/build</text>
<text text-anchor="start" x="7.5" y="-30" font-family="Helvetica,sans-Serif" font-size="10.00">/AliceO2Group/AliceO2</text>
<text text-anchor="start" x="7.5" y="-19" font-family="Helvetica,sans-Serif" font-size="10.00">/Detectors/GlobalTracking</text>
<text text-anchor="middle" x="65" y="-8" font-family="Helvetica,sans-Serif" font-size="10.00">/src/MatchTPCITS.cxx</text>
</a>
</g>
</g>
<!-- Node1&#45;&gt;Node5 -->
<g id="edge10" class="edge"><title>Node1&#45;&gt;Node5</title>
<path fill="none" stroke="midnightblue" d="M294.59,-170.949C295.206,-145.44 291.592,-111.7 272,-90 230.962,-44.5471 197.483,-72.1621 139,-54 136.269,-53.1519 133.488,-52.268 130.684,-51.3598"/>
<polygon fill="midnightblue" stroke="midnightblue" points="291.092,-170.82 294.125,-180.971 298.085,-171.144 291.092,-170.82"/>
</g>
<!-- Node4 -->
<g id="node4" class="node"><title>Node4</title>
<g id="a_node4"><a xlink:href="../../d8/dee/Propagator_8cxx.html" target="_top" xlink:title="/home/travis/build\l/AliceO2Group/AliceO2\l/Detectors/Base/src/Propagator.cxx">
<polygon fill="none" stroke="black" points="148.5,-6.5 148.5,-47.5 321.5,-47.5 321.5,-6.5 148.5,-6.5"/>
<text text-anchor="start" x="156.5" y="-35.5" font-family="Helvetica,sans-Serif" font-size="10.00">/home/travis/build</text>
<text text-anchor="start" x="156.5" y="-24.5" font-family="Helvetica,sans-Serif" font-size="10.00">/AliceO2Group/AliceO2</text>
<text text-anchor="middle" x="235" y="-13.5" font-family="Helvetica,sans-Serif" font-size="10.00">/Detectors/Base/src/Propagator.cxx</text>
</a>
</g>
</g>
<!-- Node3&#45;&gt;Node4 -->
<g id="edge3" class="edge"><title>Node3&#45;&gt;Node4</title>
<path fill="none" stroke="midnightblue" d="M443.462,-91.2573C397.894,-77.43 341.91,-60.4416 299.436,-47.5531"/>
<polygon fill="midnightblue" stroke="midnightblue" points="442.729,-94.6926 453.315,-94.2472 444.762,-87.9942 442.729,-94.6926"/>
</g>
<!-- Node3&#45;&gt;Node5 -->
<g id="edge4" class="edge"><title>Node3&#45;&gt;Node5</title>
<path fill="none" stroke="midnightblue" d="M443.096,-107.152C364.363,-97.6379 242.412,-80.2479 139,-54 136.228,-53.2965 133.413,-52.5334 130.581,-51.7254"/>
<polygon fill="midnightblue" stroke="midnightblue" points="443.09,-110.676 453.434,-108.386 443.919,-103.725 443.09,-110.676"/>
</g>
<!-- Node6 -->
<g id="node6" class="node"><title>Node6</title>
<g id="a_node6"><a xlink:href="../../d7/dca/CookedTracker_8cxx.html" target="_top" xlink:title="Implementation of the &quot;Cooked Matrix&quot; ITS tracker. ">
<polygon fill="none" stroke="black" points="340,-1 340,-53 526,-53 526,-1 340,-1"/>
<text text-anchor="start" x="348" y="-41" font-family="Helvetica,sans-Serif" font-size="10.00">/home/travis/build</text>
<text text-anchor="start" x="348" y="-30" font-family="Helvetica,sans-Serif" font-size="10.00">/AliceO2Group/AliceO2</text>
<text text-anchor="start" x="348" y="-19" font-family="Helvetica,sans-Serif" font-size="10.00">/Detectors/ITSMFT/ITS</text>
<text text-anchor="middle" x="433" y="-8" font-family="Helvetica,sans-Serif" font-size="10.00">/reconstruction/src/CookedTracker.cxx</text>
</a>
</g>
</g>
<!-- Node3&#45;&gt;Node6 -->
<g id="edge5" class="edge"><title>Node3&#45;&gt;Node6</title>
<path fill="none" stroke="midnightblue" d="M490.95,-83.4308C480.471,-73.4069 469.102,-62.5325 459.233,-53.0921"/>
<polygon fill="midnightblue" stroke="midnightblue" points="488.744,-86.1638 498.39,-90.5468 493.583,-81.1052 488.744,-86.1638"/>
</g>
<!-- Node7 -->
<g id="node7" class="node"><title>Node7</title>
<g id="a_node7"><a xlink:href="../../d9/d84/run__match__TPCITS_8C.html" target="_top" xlink:title="/home/travis/build\l/AliceO2Group/AliceO2\l/macro/run_match_TPCITS.C">
<polygon fill="none" stroke="black" points="544.5,-6.5 544.5,-47.5 691.5,-47.5 691.5,-6.5 544.5,-6.5"/>
<text text-anchor="start" x="552.5" y="-35.5" font-family="Helvetica,sans-Serif" font-size="10.00">/home/travis/build</text>
<text text-anchor="start" x="552.5" y="-24.5" font-family="Helvetica,sans-Serif" font-size="10.00">/AliceO2Group/AliceO2</text>
<text text-anchor="middle" x="618" y="-13.5" font-family="Helvetica,sans-Serif" font-size="10.00">/macro/run_match_TPCITS.C</text>
</a>
</g>
</g>
<!-- Node3&#45;&gt;Node7 -->
<g id="edge6" class="edge"><title>Node3&#45;&gt;Node7</title>
<path fill="none" stroke="midnightblue" d="M559.247,-83.5943C572.042,-71.4868 586.171,-58.118 597.366,-47.5249"/>
<polygon fill="midnightblue" stroke="midnightblue" points="556.758,-81.1313 551.899,-90.5468 561.569,-86.2159 556.758,-81.1313"/>
</g>
<!-- Node8 -->
<g id="node8" class="node"><title>Node8</title>
<g id="a_node8"><a xlink:href="../../dc/d97/run__rec__ca_8C.html" target="_top" xlink:title="/home/travis/build\l/AliceO2Group/AliceO2\l/macro/run_rec_ca.C">
<polygon fill="none" stroke="black" points="710,-6.5 710,-47.5 828,-47.5 828,-6.5 710,-6.5"/>
<text text-anchor="start" x="718" y="-35.5" font-family="Helvetica,sans-Serif" font-size="10.00">/home/travis/build</text>
<text text-anchor="start" x="718" y="-24.5" font-family="Helvetica,sans-Serif" font-size="10.00">/AliceO2Group/AliceO2</text>
<text text-anchor="middle" x="769" y="-13.5" font-family="Helvetica,sans-Serif" font-size="10.00">/macro/run_rec_ca.C</text>
</a>
</g>
</g>
<!-- Node3&#45;&gt;Node8 -->
<g id="edge7" class="edge"><title>Node3&#45;&gt;Node8</title>
<path fill="none" stroke="midnightblue" d="M606.093,-87.6472C635.693,-77.1987 669.405,-65.1828 700,-54 705.651,-51.9345 711.553,-49.7511 717.423,-47.5626"/>
<polygon fill="midnightblue" stroke="midnightblue" points="604.903,-84.3554 596.636,-90.9815 607.231,-90.9571 604.903,-84.3554"/>
</g>
<!-- Node9 -->
<g id="node9" class="node"><title>Node9</title>
<g id="a_node9"><a xlink:href="../../d6/db2/run__trac__ca__its_8C.html" target="_top" xlink:title="/home/travis/build\l/AliceO2Group/AliceO2\l/macro/run_trac_ca_its.C">
<polygon fill="none" stroke="black" points="846.5,-6.5 846.5,-47.5 973.5,-47.5 973.5,-6.5 846.5,-6.5"/>
<text text-anchor="start" x="854.5" y="-35.5" font-family="Helvetica,sans-Serif" font-size="10.00">/home/travis/build</text>
<text text-anchor="start" x="854.5" y="-24.5" font-family="Helvetica,sans-Serif" font-size="10.00">/AliceO2Group/AliceO2</text>
<text text-anchor="middle" x="910" y="-13.5" font-family="Helvetica,sans-Serif" font-size="10.00">/macro/run_trac_ca_its.C</text>
</a>
</g>
</g>
<!-- Node3&#45;&gt;Node9 -->
<g id="edge8" class="edge"><title>Node3&#45;&gt;Node9</title>
<path fill="none" stroke="midnightblue" d="M606.575,-103.148C669.972,-92.3551 759.809,-75.2933 837,-54 843.874,-52.1039 851.03,-49.8785 858.058,-47.5414"/>
<polygon fill="midnightblue" stroke="midnightblue" points="605.911,-99.7106 596.633,-104.826 607.077,-106.613 605.911,-99.7106"/>
</g>
<!-- Node10 -->
<g id="node10" class="node"><title>Node10</title>
<g id="a_node10"><a xlink:href="../../d4/da9/run__vert__ca__its_8C.html" target="_top" xlink:title="/home/travis/build\l/AliceO2Group/AliceO2\l/macro/run_vert_ca_its.C">
<polygon fill="none" stroke="black" points="991.5,-6.5 991.5,-47.5 1118.5,-47.5 1118.5,-6.5 991.5,-6.5"/>
<text text-anchor="start" x="999.5" y="-35.5" font-family="Helvetica,sans-Serif" font-size="10.00">/home/travis/build</text>
<text text-anchor="start" x="999.5" y="-24.5" font-family="Helvetica,sans-Serif" font-size="10.00">/AliceO2Group/AliceO2</text>
<text text-anchor="middle" x="1055" y="-13.5" font-family="Helvetica,sans-Serif" font-size="10.00">/macro/run_vert_ca_its.C</text>
</a>
</g>
</g>
<!-- Node3&#45;&gt;Node10 -->
<g id="edge9" class="edge"><title>Node3&#45;&gt;Node10</title>
<path fill="none" stroke="midnightblue" d="M606.805,-110.046C698.988,-102.152 852.831,-85.4046 982,-54 989.321,-52.2201 996.932,-49.9748 1004.36,-47.5529"/>
<polygon fill="midnightblue" stroke="midnightblue" points="606.373,-106.569 596.702,-110.896 606.961,-113.545 606.373,-106.569"/>
</g>
</g>
</svg>
